<?xml version="1.0" encoding="UTF-8" standalone="no"?>
<!-- Created with Inkscape (http://www.inkscape.org/) -->

<svg
   xmlns:dc="http://purl.org/dc/elements/1.1/"
   xmlns:cc="http://creativecommons.org/ns#"
   xmlns:rdf="http://www.w3.org/1999/02/22-rdf-syntax-ns#"
   xmlns:svg="http://www.w3.org/2000/svg"
   xmlns="http://www.w3.org/2000/svg"
   xmlns:sodipodi="http://sodipodi.sourceforge.net/DTD/sodipodi-0.dtd"
   xmlns:inkscape="http://www.inkscape.org/namespaces/inkscape"
   id="svg2"
   height="88.867264mm"
   width="61.456711mm"
   version="1.1"
   viewBox="0 0 217.76 314.884"
   inkscape:version="0.91 r13725"
   sodipodi:docname="c1.svg">
  <defs
     id="defs3350" />
  <sodipodi:namedview
     pagecolor="#ffffff"
     bordercolor="#666666"
     borderopacity="1"
     objecttolerance="10"
     gridtolerance="10"
     guidetolerance="10"
     inkscape:pageopacity="0"
     inkscape:pageshadow="2"
     inkscape:window-width="640"
     inkscape:window-height="480"
     id="namedview3348"
     showgrid="false"
     fit-margin-top="0"
     fit-margin-left="0"
     fit-margin-right="0"
     fit-margin-bottom="0"
     inkscape:zoom="0.63856341"
     inkscape:cx="370.81724"
     inkscape:cy="228.11715"
     inkscape:window-x="0"
     inkscape:window-y="0"
     inkscape:window-maximized="1"
     inkscape:current-layer="svg2" />
  <metadata
     id="metadata7">
    <rdf:RDF>
      <cc:Work
         rdf:about="">
        <dc:format>image/svg+xml</dc:format>
        <dc:type
           rdf:resource="http://purl.org/dc/dcmitype/StillImage" />
        <dc:title></dc:title>
      </cc:Work>
    </rdf:RDF>
  </metadata>
  <g
     id="layer1"
     transform="translate(-1.23,-0.93)">
    <g
       id="g3734"
       transform="translate(-778.83,-308.1)">
      <path
         id="path3750"
         d="m 780.06,466.47 0,-157.44 108.88,0 108.88,0 0,157.44 0,157.44 -108.88,0 -108.88,0 0,-157.44 z"
         inkscape:connector-curvature="0"
         style="fill:#fdfdfd" />
      <path
         id="path3748"
         d="m 780.06,466.47 0,-157.44 108.88,0 108.88,0 0,157.44 0,157.44 -108.88,0 -108.88,0 0,-157.44 z m 211.93,155.67 c 2.0492,-1.0216 3.5112,-2.7467 4.1335,-4.8777 0.31097,-1.0648 0.37963,-28.364 0.37963,-150.94 l 0,-149.64 -0.75094,-1.5888 c -0.90601,-1.9169 -2.2735,-3.3272 -4.0268,-4.1528 l -1.303,-0.61362 -101.06,-0.0751 c -94.621,-0.0703 -101.16,-0.0436 -102.65,0.4185 -2.1315,0.66058 -4.3096,2.8292 -5.0078,4.9861 -0.46278,1.4295 -0.49383,10.917 -0.49383,150.93 0,135.43 0.0429,149.55 0.45828,150.95 0.57726,1.9392 2.8492,4.3233 4.7617,4.9967 1.17,0.41197 11.078,0.45824 102.52,0.47887 l 101.23,0.0228 1.8049,-0.89979 z M 785.27,608.31 c 0,-0.32097 0.19304,-0.57775 0.43434,-0.57775 0.2413,0 0.43434,0.25678 0.43434,0.57775 0,0.32097 -0.19304,0.57775 -0.43434,0.57775 -0.2413,0 -0.43434,-0.25678 -0.43434,-0.57775 z m 192.4,-6.053 c -0.5188,-0.20975 -0.93738,-1.8712 -3.4341,-13.631 -1.5638,-7.3657 -2.9018,-13.49 -2.9734,-13.609 -0.0716,-0.11916 -0.42213,-0.21665 -0.77903,-0.21665 -0.9616,0 -1.3438,-0.54765 -1.3438,-1.9253 0,-1.6223 0.43641,-1.8311 3.8176,-1.8261 4.0036,0.006 4.0448,0.0266 3.9414,1.9831 -0.0771,1.4601 -0.15506,1.6336 -0.77319,1.7209 -0.63909,0.0902 -0.67491,0.18842 -0.50898,1.3961 0.0982,0.7145 0.25234,1.4183 0.3426,1.564 0.0903,0.14571 1.4636,0.26492 3.0517,0.26492 3.1466,0 3.0201,0.0748 3.2484,-1.9201 0.12823,-1.1208 0.0856,-1.2082 -0.66243,-1.3574 -0.90299,-0.18017 -1.1256,-0.71875 -0.9408,-2.276 0.1131,-0.95308 0.23726,-1.0965 1.0871,-1.2555 0.52766,-0.0987 2.2778,-0.13455 3.8892,-0.0795 3.2018,0.1093 3.4746,0.25426 3.4826,1.8503 0.006,1.2098 -0.53374,1.8119 -1.7184,1.9167 l -0.99895,0.0884 -2.5147,12.919 c -1.3831,7.1054 -2.5935,13.232 -2.6898,13.615 -0.24378,0.969 -2.0594,1.3701 -3.5231,0.77837 z m 2.6106,-14.882 c 0.5613,-2.8554 1.0206,-5.2277 1.0206,-5.272 0,-0.0443 -1.0449,-0.0805 -2.322,-0.0805 -2.2596,0 -2.318,0.0175 -2.1714,0.64997 0.0828,0.35748 0.54724,2.5999 1.032,4.9831 0.96995,4.7681 1.1902,5.6307 1.328,5.1998 0.0508,-0.15888 0.55158,-2.6251 1.1129,-5.4804 z m -3.7618,-20.102 c -0.48027,-0.13945 -1.3425,-0.74519 -1.9162,-1.3461 -1.7349,-1.8174 -2.1563,-4.1044 -1.1595,-6.2932 l 0.52656,-1.1563 -1.9585,8.6e-4 c -1.5198,5.8e-4 -2.1418,-0.13239 -2.777,-0.59385 -1.9651,-1.4276 -2.7317,-5.0238 -1.5595,-7.3161 1.7878,-3.4961 5.6104,-4.1541 8.1924,-1.4101 l 0.88779,0.94346 -0.21105,-1.1555 c -0.11608,-0.63553 -0.46136,-1.7245 -0.76729,-2.42 -1.0372,-2.3579 -1.0521,-2.3466 3.0633,-2.3466 4.2276,0 4.1478,-0.0867 2.7508,2.9869 -0.47777,1.0512 -0.86868,1.97 -0.86868,2.0418 0,0.0717 0.61031,-0.20986 1.3562,-0.62578 2.8445,-1.5861 6.2416,-0.48395 7.3286,2.3776 0.49993,1.3161 0.44193,3.9354 -0.11074,5.0016 -0.26538,0.51199 -1.0242,1.2878 -1.6863,1.7241 -1.0234,0.67431 -1.4935,0.79001 -3.1371,0.77208 l -1.9333,-0.0211 0.56282,0.95164 c 1.1106,1.8779 0.54317,5.2981 -1.1294,6.807 -1.3393,1.2083 -3.5199,1.6391 -5.454,1.0775 z m -93.958,-72.45 c 0,-0.29538 0.43997,-1.4978 0.9777,-2.6721 2.0196,-4.4104 3.6751,-10.485 3.6412,-13.361 l -0.0141,-1.1958 -0.71274,1.7364 c -1.9812,4.8266 -6.2119,7.6521 -11.458,7.6521 -3.5717,0 -6.9016,-1.4379 -9.3313,-4.0292 -2.1064,-2.2466 -2.889,-4.1987 -3.0301,-7.5585 -0.24531,-5.84 2.0506,-9.9311 6.845,-12.197 1.8068,-0.85394 2.144,-0.91415 5.1193,-0.91415 2.6966,0 3.403,0.10023 4.6053,0.65347 0.78109,0.35941 1.4587,0.61507 1.5057,0.56812 0.047,-0.0469 -0.47867,-0.89419 -1.1683,-1.8828 -2.0454,-2.9322 -2.6278,-4.8413 -2.618,-8.5828 0.0111,-4.2759 0.63896,-5.9026 3.2952,-8.5372 2.2005,-2.1825 3.8757,-3.0528 7.0987,-3.6878 2.1025,-0.41425 2.4877,-0.41219 4.6053,0.0246 4.5622,0.94112 7.7612,3.3093 9.5448,7.0659 0.87913,1.8516 0.9289,2.1354 0.92574,5.2789 -0.003,3.2119 -0.0377,3.394 -1.0403,5.4886 -0.57031,1.1916 -1.6348,2.8797 -2.3654,3.7514 -0.73068,0.87164 -1.2888,1.6244 -1.2403,1.6728 0.0485,0.0484 0.52809,-0.16722 1.0658,-0.47913 1.8126,-1.0515 4.2129,-1.5559 6.7679,-1.4221 4.3893,0.22983 8.471,2.873 10.421,6.7478 0.79496,1.58 0.86421,1.9606 0.86442,4.7508 2.9e-4,4.0856 -0.8333,6.5473 -3.1304,9.244 -3.0071,3.5304 -8.2733,4.9255 -13.044,3.4556 -3.3996,-1.0475 -6.5996,-4.066 -8.104,-7.6443 l -0.48582,-1.1555 0.17393,1.7333 c 0.37293,3.7164 1.9033,9.3212 3.4989,12.814 1.5935,3.4884 2.1068,3.2184 -6.119,3.2184 -6.7221,0 -7.0942,-0.0282 -7.0942,-0.53707 z m -86.46,-103 c -0.0862,-0.22398 0.0455,-0.79723 0.29258,-1.2739 0.24707,-0.47666 0.71358,-1.5357 1.0367,-2.3535 l 0.58745,-1.4868 -1.0279,0.78219 c -1.9906,1.5147 -5.1425,1.2283 -6.7645,-0.61465 -2.3524,-2.6729 -1.783,-6.8812 1.1432,-8.4497 1.065,-0.57084 1.5757,-0.66565 2.9527,-0.54816 0.91573,0.0781 1.665,0.0848 1.665,0.0148 0,-0.07 -0.20382,-0.43756 -0.45294,-0.81687 -0.24913,-0.3793 -0.52211,-1.3822 -0.60664,-2.2286 -0.1309,-1.3109 -0.031,-1.7713 0.67419,-3.1066 1.395,-2.6416 4.1926,-3.5995 6.9125,-2.3669 2.8324,1.2835 4.0066,4.9315 2.4946,7.75 -0.18416,0.34331 -0.33484,0.66524 -0.33484,0.7154 0,0.0502 0.90256,0.0912 2.0057,0.0912 2.346,0 3.3114,0.53076 4.1947,2.3062 0.90214,1.8133 0.93386,3.5945 0.0965,5.4193 -1.6359,3.5648 -5.3768,4.3141 -8.079,1.6184 l -1.1725,-1.1697 0.20757,0.96827 c 0.11416,0.53254 0.52107,1.7448 0.90425,2.694 0.38317,0.94917 0.63288,1.8916 0.5549,2.0944 -0.21518,0.55943 -7.0682,0.52306 -7.2842,-0.0387 z m -5.499,-27.436 c -0.0847,-0.22014 -0.11317,-0.96761 -0.0633,-1.661 0.0882,-1.2262 0.12433,-1.2682 1.3193,-1.5325 1.3099,-0.2897 1.3195,-0.30452 1.7803,-2.7615 0.55872,-2.9788 3.5255,-18.335 4.0965,-21.204 0.31309,-1.573 0.71522,-3.0354 0.89362,-3.2498 0.19899,-0.2392 0.92866,-0.38992 1.8877,-0.38992 1.3456,0 1.6021,0.0905 1.842,0.64997 0.15324,0.35749 1.1331,4.6798 2.1775,9.6051 2.826,13.327 3.6296,16.982 3.7906,17.242 0.08,0.12908 0.5227,0.23468 0.98386,0.23468 0.73241,0 0.86304,0.13069 1.0328,1.0332 0.1096,0.58278 0.0549,1.3384 -0.12545,1.7332 -0.31211,0.6834 -0.40135,0.70009 -3.7428,0.70009 -3.8154,0 -4.1204,-0.12747 -4.1136,-1.7188 0.005,-1.2294 0.22074,-1.6047 1.0736,-1.8702 0.58168,-0.18106 0.62654,-0.3308 0.46594,-1.5555 -0.0977,-0.74535 -0.23565,-1.4202 -0.30648,-1.4996 -0.16938,-0.18996 -5.7793,-0.18784 -5.9695,0.002 -0.0807,0.0807 -0.18918,0.78704 -0.24103,1.5697 -0.087,1.313 -0.0383,1.4365 0.62964,1.5981 0.61197,0.148 0.73784,0.36643 0.81399,1.4126 0.14272,1.9606 -0.0693,2.0614 -4.3333,2.0614 -2.9183,0 -3.7717,-0.0878 -3.8919,-0.40027 z m 12.02,-10.75 c 0.0648,-0.06 -0.3847,-2.535 -0.9988,-5.5 -0.82334,-3.9753 -1.174,-5.2088 -1.3351,-4.6971 -0.12021,0.38161 -0.62798,2.8234 -1.1284,5.4261 -0.74777,3.8894 -0.84039,4.7782 -0.52,4.9902 0.35039,0.23187 3.694,0.0479 3.9823,-0.2191 z m 188.39,-29.975 c -0.60637,-0.44234 -0.36559,-1.05 0.41605,-1.05 0.66476,0 0.97149,0.72227 0.47966,1.1295 -0.26256,0.21739 -0.52007,0.19453 -0.89571,-0.0795 z"
         inkscape:connector-curvature="0"
         style="fill:#d3d3d3" />
      <path
         id="path3746"
         d="m 780.06,466.47 0,-157.44 108.88,0 108.88,0 0,157.44 0,157.44 -108.88,0 -108.88,0 0,-157.44 z m 210.44,156.6 c 2.9918,-1.091 4.3525,-2.3026 5.5544,-4.946 l 0.58733,-1.2917 0.006,-150.24 0.006,-150.24 -0.88597,-1.7688 c -0.92862,-1.854 -2.3019,-3.1638 -4.2282,-4.0329 -1.0482,-0.47293 -6.8799,-0.50143 -102.6,-0.50143 l -101.49,0 -1.5136,0.68269 c -1.8627,0.84019 -3.5735,2.642 -4.305,4.534 -0.54021,1.3973 -0.55185,4.5947 -0.55185,151.64 l 0,150.22 0.6849,1.3753 c 0.94074,1.8891 3.1565,3.8071 5.1922,4.4945 1.6183,0.54646 3.666,0.55842 101.84,0.59375 97.891,0.0353 100.23,0.0234 101.7,-0.5148 z m -12.96,-21.26 c -0.19973,-0.24012 -0.60019,-1.5726 -0.88991,-2.961 -0.79536,-3.8116 -4.8706,-22.944 -5.041,-23.666 -0.10905,-0.46229 -0.40118,-0.656 -1.0892,-0.72219 -0.888,-0.0854 -0.9452,-0.16096 -1.0313,-1.3618 -0.0589,-0.82154 0.0435,-1.3565 0.28956,-1.5122 0.61121,-0.38666 6.436,-0.30409 6.838,0.0969 0.19111,0.19066 0.34748,0.74964 0.34748,1.2422 0,1.0252 -0.44555,1.5888 -1.256,1.5888 -0.51137,0 -0.54409,0.14421 -0.36929,1.6279 0.10548,0.89536 0.26141,1.7403 0.34652,1.8777 0.0851,0.13737 1.5184,0.24977 3.1852,0.24977 2.9866,0 3.0346,-0.0107 3.3129,-0.741 0.15532,-0.40754 0.2824,-1.2525 0.2824,-1.8777 0,-0.90202 -0.10761,-1.1367 -0.52121,-1.1367 -1.1021,0 -1.5834,-1.3756 -0.91641,-2.6189 0.27028,-0.50382 0.6347,-0.55876 3.7064,-0.55876 3.6847,0 4.1016,0.15029 4.1016,1.4785 0,1.3468 -0.27789,1.6991 -1.3402,1.6991 -0.75113,0 -1.0545,0.15617 -1.2625,0.64997 -0.15061,0.35748 -1.388,6.4242 -2.7498,13.482 -1.3618,7.0574 -2.6199,13.005 -2.7958,13.216 -0.44271,0.53217 -2.6922,0.49497 -3.1472,-0.052 z m 2.8853,-13.907 c 0.61371,-3.1534 1.0555,-5.831 0.98168,-5.9502 -0.14994,-0.24213 -4.5503,-0.30259 -4.7877,-0.0658 -0.14067,0.14034 1.8612,10.555 2.2754,11.837 0.24824,0.76869 0.24768,0.7708 1.5306,-5.8215 z m -4.1856,-21.02 c -2.8381,-1.2638 -3.8927,-4.8383 -2.306,-7.8154 0.6274,-1.1772 0.65903,-1.3471 0.21717,-1.1666 -2.0421,0.83416 -4.6115,0.33524 -5.7164,-1.11 -1.7757,-2.3225 -1.4627,-5.8485 0.69147,-7.7901 2.414,-2.1757 5.0966,-1.6838 7.2898,1.3367 0.71156,0.97996 0.83752,1.0569 0.83752,0.51155 0,-0.35304 -0.41141,-1.8797 -0.91425,-3.3925 -0.76179,-2.2919 -0.84629,-2.7935 -0.50673,-3.008 0.45796,-0.28924 5.177,-0.36211 5.8855,-0.0909 0.64563,0.24716 0.58834,0.57844 -0.55544,3.2115 -1.3062,3.0071 -1.3063,3.5824 -2.9e-4,2.1402 2.2474,-2.4817 6.3216,-2.0598 7.8084,0.80847 1.9389,3.7406 -0.55338,8.1186 -4.4063,7.7399 -0.75611,-0.0743 -1.6849,-0.23643 -2.064,-0.36027 l -0.6893,-0.22515 0.74012,1.2713 c 1.337,2.2965 1.2887,4.3598 -0.15,6.4054 -1.1935,1.6969 -4.1448,2.4318 -6.161,1.5339 z m -93.09,-71.801 c -0.34745,-0.21916 -0.3681,-0.42699 -0.10717,-1.0789 0.17775,-0.44407 0.86828,-2.1427 1.5345,-3.7748 1.5311,-3.7507 2.6015,-7.9083 2.8245,-10.971 0.19187,-2.6346 -0.16547,-3.1756 -0.76314,-1.1555 -0.95142,3.2158 -3.5628,6.2487 -6.6048,7.6708 -1.5064,0.70431 -1.9842,0.77878 -4.9957,0.77878 -3.1424,0 -3.4396,-0.0518 -5.2768,-0.92006 -6.3471,-2.9996 -8.8307,-10.211 -5.752,-16.701 1.2287,-2.5902 2.6208,-4.0091 5.165,-5.2639 2.1564,-1.0636 2.294,-1.0914 5.4136,-1.0914 2.92,0 3.3604,0.0734 5.0167,0.83656 0.99868,0.4601 1.8671,0.78509 1.9299,0.72219 0.0628,-0.0629 -0.4806,-0.89433 -1.2075,-1.8476 -1.6823,-2.2063 -2.5882,-4.171 -3.1529,-6.8382 -1.7795,-8.4039 5.7235,-15.911 14.441,-14.449 4.3505,0.72964 7.8404,3.2543 9.5629,6.9179 0.78095,1.661 0.93179,2.3506 1.0262,4.6916 0.16439,4.0762 -0.93636,6.8751 -4.1775,10.622 -0.58688,0.67848 -1.0051,1.2954 -0.92939,1.371 0.0757,0.0756 1.0778,-0.34382 2.2267,-0.93193 1.876,-0.96025 2.3652,-1.0813 4.7972,-1.1874 4.1708,-0.18198 6.8998,0.90259 9.698,3.8542 1.967,2.0749 2.6892,3.7416 2.8586,6.5971 0.3349,5.6444 -2.4403,10.656 -7.1092,12.839 -1.5064,0.70431 -1.9842,0.77878 -4.9957,0.77878 -3.1689,0 -3.4229,-0.0454 -5.2526,-0.93841 -3.0899,-1.5081 -5.1789,-3.8791 -6.8088,-7.7279 -0.43947,-1.0377 -0.5016,-1.0852 -0.60965,-0.46599 -0.33005,1.8916 1.4869,9.5364 3.3033,13.899 1.3556,3.2557 1.4119,3.4821 0.93957,3.7805 -0.54235,0.34261 -12.45,0.32742 -12.995,-0.0166 z m -86.7,-103.38 c -0.0826,-0.13329 0.29261,-1.2707 0.83374,-2.5277 0.54113,-1.2569 1.0706,-2.6753 1.1767,-3.152 l 0.19281,-0.86663 -0.73639,1.042 c -1.9232,2.7213 -6.0452,2.6822 -8.0933,-0.0767 -0.38885,-0.5238 -0.6134,-1.3964 -0.70623,-2.7443 -0.11937,-1.7334 -0.0517,-2.0998 0.55039,-2.9805 0.37757,-0.5523 1.1394,-1.3112 1.6931,-1.6863 0.85502,-0.57945 1.2682,-0.66298 2.7439,-0.55478 0.95555,0.0701 1.9802,0.23103 2.2771,0.35772 0.44784,0.19113 0.40664,0.0297 -0.24194,-0.94804 -1.4194,-2.1398 -1.3399,-4.8422 0.19383,-6.5848 1.1882,-1.35 2.238,-1.8568 3.8467,-1.8568 2.5512,0 4.4428,1.4227 5.0926,3.8303 0.38691,1.4335 0.21092,2.7722 -0.55786,4.2437 l -0.56408,1.0797 2.0711,-0.11741 c 2.5307,-0.14347 3.5673,0.38556 4.4928,2.2929 1.6651,3.4314 -0.28959,7.6464 -3.8103,8.2164 -1.544,0.24996 -3.5562,-0.81667 -4.514,-2.3928 -0.41653,-0.68542 -0.84349,-1.2503 -0.94881,-1.2554 -0.27225,-0.013 0.48631,3.0829 1.1947,4.8757 0.32866,0.83184 0.52289,1.633 0.43162,1.7803 -0.20678,0.33379 -6.4123,0.35771 -6.6181,0.0255 z m -5.474,-27.385 c -0.1107,-0.11043 -0.20127,-0.75019 -0.20127,-1.4217 0,-1.3235 0.27796,-1.5716 1.761,-1.5716 0.46475,0 0.845,-0.0902 0.845,-0.20051 0,-0.62633 4.9853,-26.053 5.2139,-26.593 0.23811,-0.56201 0.49101,-0.64997 1.8687,-0.64997 1.4947,0 1.6061,0.0491 1.8011,0.79441 0.11431,0.43692 1.4524,6.5629 2.9735,13.613 l 2.7657,12.819 1.0135,0.32496 c 1.0771,0.34537 1.3714,1.0271 1.0297,2.3853 -0.17631,0.70083 -0.18058,0.70155 -3.7159,0.62059 l -3.5394,-0.081 -0.0911,-1.1034 c -0.10209,-1.2369 0.31636,-1.9298 1.1654,-1.9298 0.50654,0 0.54807,-0.13501 0.37774,-1.2277 -0.3723,-2.3883 -0.12842,-2.2388 -3.6524,-2.2388 -3.4835,0 -3.2916,-0.1102 -3.5812,2.0559 -0.17529,1.3108 -0.16297,1.3367 0.71832,1.5126 0.8685,0.17329 0.89389,0.22213 0.80824,1.5551 l -0.0884,1.3762 -3.6354,0.0804 c -1.9995,0.0442 -3.726,-0.01 -3.8367,-0.12037 z m 11.96,-10.643 c 0,-0.61202 -2.2929,-11.489 -2.4563,-11.652 -0.0749,-0.0747 -0.19393,0.0453 -0.26459,0.26664 -0.14454,0.45283 -2.2017,11.304 -2.2017,11.614 0,0.10948 1.1076,0.19905 2.4613,0.19905 1.9804,0 2.4613,-0.0836 2.4613,-0.4277 z m 188.07,-30.482 c -0.0984,-0.15888 0.0242,-0.28887 0.27247,-0.28887 0.24829,0 0.45144,0.12999 0.45144,0.28887 0,0.15888 -0.12262,0.28888 -0.27248,0.28888 -0.14986,0 -0.353,-0.13 -0.45143,-0.28888 z"
         inkscape:connector-curvature="0"
         style="fill:#b2b2b2" />
      <path
         id="path3744"
         d="m 780.06,466.47 0,-157.44 108.88,0 108.88,0 0,157.44 0,157.44 -108.88,0 -108.88,0 0,-157.44 z m 211.69,156.25 c 1.9072,-0.89237 3.4462,-2.3878 4.3752,-4.2513 l 0.67285,-1.3498 0,-150.5 0,-150.5 -0.78259,-1.48 c -0.43042,-0.81401 -1.3824,-2.0067 -2.1154,-2.6504 -2.6033,-2.2861 7.79914,-2.0807 -105.23,-2.0776 l -101.22,0.003 -1.4478,0.67455 c -2.1135,0.98468 -3.1851,2.0096 -4.1818,3.9995 l -0.88549,1.7678 0,150.13 c 0,133.57 0.0485,150.27 0.44003,151.38 0.8599,2.4314 2.8331,4.3249 5.4475,5.2274 1.4274,0.49271 6.1422,0.51356 102.41,0.45307 l 100.91,-0.0634 1.6119,-0.75417 z m -14.468,-21.85 c -0.1556,-0.59581 -1.4754,-6.673 -2.9328,-13.505 -1.4575,-6.8319 -2.7097,-12.482 -2.7827,-12.556 -0.073,-0.0739 -0.54834,-0.2689 -1.0563,-0.43331 -0.97563,-0.31582 -1.2422,-0.89611 -0.9484,-2.0642 0.17803,-0.70766 0.18199,-0.70835 3.5728,-0.62712 l 3.3945,0.0813 0.0892,1.2316 c 0.085,1.1727 0.0462,1.2402 -0.81071,1.4112 -0.78596,0.15682 -0.88104,0.27524 -0.75065,0.93499 0.0821,0.41548 0.23341,1.2429 0.33621,1.8387 l 0.18691,1.0833 3.2806,0 c 1.8044,0 3.3405,-0.0975 3.4136,-0.21666 0.0731,-0.11916 0.22377,-0.94535 0.33479,-1.836 l 0.20186,-1.6193 -0.91366,-0.1823 c -0.87268,-0.17412 -0.90966,-0.23755 -0.82444,-1.4139 l 0.0892,-1.2316 3.6919,-0.0809 3.6919,-0.0808 0,1.2777 c 0,1.3556 -0.27228,1.6284 -1.6254,1.6284 -0.39012,0 -0.76905,0.16249 -0.84205,0.36109 -0.073,0.19861 -1.2482,6.1458 -2.6114,13.216 -1.3633,7.0702 -2.5461,13.082 -2.6285,13.361 -0.11871,0.4005 -0.47433,0.50553 -1.7118,0.50553 -1.5615,0 -1.562,-2.6e-4 -1.8448,-1.0833 z m 3.2889,-12.817 c 0.56407,-2.9583 1.0256,-5.5906 1.0256,-5.8498 0,-0.40063 -0.38974,-0.47108 -2.606,-0.47108 -2.0771,0 -2.606,0.0846 -2.606,0.41666 0,0.52484 2.2655,11.419 2.4965,12.005 0.29061,0.73715 0.59736,-0.37018 1.69,-6.1008 z m -3.7048,-21.118 c -1.6521,-0.43669 -2.9697,-1.9052 -3.3899,-3.7785 -0.42512,-1.8952 -0.0824,-3.2427 1.2581,-4.9478 0.69572,-0.88485 0.76864,-1.0835 0.33035,-0.89994 -0.30935,0.12957 -1.0746,0.42053 -1.7006,0.64656 -4.5634,1.6477 -7.8496,-4.1238 -4.7157,-8.2821 0.9057,-1.2018 1.982,-1.7356 3.5032,-1.7377 1.8516,-0.003 3.0759,0.76845 4.2616,2.6835 0.51189,0.82681 0.98157,1.3549 1.0437,1.1736 0.16807,-0.4903 -0.71181,-4.0486 -1.3659,-5.5237 -0.31382,-0.70777 -0.49881,-1.4027 -0.41108,-1.5443 0.20207,-0.32619 6.1201,-0.34112 6.3216,-0.0159 0.0823,0.13284 -0.34976,1.4003 -0.96013,2.8166 -1.0609,2.4617 -1.6769,4.4527 -1.3776,4.4527 0.0771,0 0.48404,-0.58519 0.90419,-1.3004 1.8283,-3.1124 5.9005,-3.2962 8.0774,-0.36449 0.72968,0.9827 0.99879,3.8813 0.47702,5.138 -0.48583,1.1701 -1.7903,2.2194 -3.245,2.6102 -1.0052,0.27003 -1.462,0.22975 -2.8824,-0.25412 -0.92839,-0.31624 -1.688,-0.52602 -1.688,-0.46616 0,0.0599 0.41234,0.69243 0.9163,1.4057 1.2064,1.7075 1.4395,3.8777 0.59399,5.5304 -0.70867,1.3853 -1.3521,1.9876 -2.7422,2.5671 -1.1971,0.49901 -1.6199,0.51099 -3.2089,0.091 z m -93.845,-72.122 c -0.0872,-0.14083 0.24272,-1.1391 0.73325,-2.2184 1.4958,-3.2912 2.5032,-6.2631 3.1382,-9.2578 1.0954,-5.1664 0.77276,-8.981 -0.4355,-5.1487 -0.28343,0.89894 -0.99384,2.373 -1.5787,3.2758 -4.9188,7.5923 -16.804,6.6696 -20.896,-1.6222 -2.1916,-4.4413 -1.0306,-10.948 2.5391,-14.231 3.545,-3.2599 8.7336,-4.0394 13.204,-1.9837 1.0886,0.50059 2.0492,0.84047 2.1346,0.75526 0.0854,-0.0852 -0.52328,-1.0477 -1.3526,-2.1388 -3.3834,-4.4515 -4.2896,-9.2724 -2.5855,-13.755 0.69292,-1.8225 2.914,-4.4722 4.6822,-5.5858 1.8753,-1.181 4.3707,-1.8537 6.8765,-1.8537 9.8606,0 15.609,9.2521 11.208,18.038 -0.56166,1.1212 -1.6766,2.7966 -2.4777,3.723 -2.0935,2.4212 -1.9429,2.8479 0.47883,1.3566 3.3505,-2.0632 7.5454,-2.2378 11.278,-0.46936 5.1648,2.4469 7.4986,7.0384 6.4016,12.594 -1.1253,5.6983 -4.6097,9.2892 -9.8893,10.191 -3.8363,0.65558 -7.7817,-0.66608 -10.594,-3.549 -1.5997,-1.6398 -2.0842,-2.404 -3.1877,-5.0286 -1.6476,-3.9186 -1.1278,2.3531 0.72817,8.7861 0.52714,1.8271 1.4255,4.3436 1.9963,5.592 0.57083,1.2485 0.96603,2.3859 0.87823,2.5277 -0.20793,0.33564 -13.072,0.33723 -13.28,0.002 z m -86.32,-103.17 c -0.10403,-0.16793 0.28975,-1.4174 0.87507,-2.7767 0.58532,-1.3593 1.1253,-2.9443 1.1999,-3.5223 l 0.13571,-1.0509 -0.59247,1.0678 c -1.3659,2.4618 -4.1079,3.4243 -6.4848,2.2764 -1.5942,-0.7699 -2.1504,-1.5762 -2.5408,-3.6832 -0.40421,-2.1814 0.20627,-3.8619 1.7804,-4.9012 1.5411,-1.0175 2.9888,-1.1515 4.8408,-0.44809 1.5804,0.60025 1.6037,0.54438 0.42571,-1.0215 -2.8064,-3.7303 0.20144,-9.0021 4.7481,-8.3219 1.5094,0.22582 3.1768,1.5325 3.7735,2.9572 0.80542,1.9231 0.21785,4.9773 -1.1802,6.1349 -0.87386,0.72352 -0.44558,0.84729 0.89095,0.25747 3.435,-1.5159 6.518,0.58944 6.5741,4.4892 0.0263,1.829 -0.95466,3.7537 -2.4189,4.7461 -0.83529,0.56612 -1.2828,0.66531 -2.5457,0.56417 -1.8884,-0.15124 -2.795,-0.78361 -4.0731,-2.841 l -0.97233,-1.5653 0.15955,1.4926 c 0.0878,0.82095 0.50054,2.4782 0.91729,3.6828 0.41675,1.2046 0.67708,2.3203 0.57852,2.4794 -0.24331,0.39275 -5.8471,0.37798 -6.0912,-0.0161 z m -5.5783,-27.485 c -0.19111,-0.19066 -0.34748,-0.63501 -0.34748,-0.98744 0,-1.1966 0.30869,-1.5547 1.3402,-1.5547 1.2375,0 1.3169,-0.17781 2.2577,-5.0553 3.1844,-16.51 4.3091,-22.002 4.5692,-22.315 0.33854,-0.40695 2.1989,-0.48153 2.7837,-0.11161 0.22762,0.14399 1.5392,5.6441 3.2482,13.621 1.5766,7.3589 2.9684,13.477 3.093,13.596 0.12457,0.11876 0.55224,0.25943 0.95039,0.31261 0.65056,0.0869 0.7239,0.22838 0.7239,1.3966 l 0,1.2999 -3.2424,0.0815 c -3.0364,0.0764 -3.263,0.0432 -3.5664,-0.52248 -0.17821,-0.3322 -0.23984,-0.98637 -0.13696,-1.4537 0.14768,-0.67077 0.34333,-0.84968 0.92921,-0.84968 0.73536,0 0.74046,-0.0161 0.55798,-1.7578 -0.10129,-0.96681 -0.25784,-1.8768 -0.3479,-2.0221 -0.23453,-0.37858 -6.4204,-0.33752 -6.6568,0.0442 -0.10511,0.16966 -0.2612,1.0796 -0.34687,2.0221 -0.15288,1.682 -0.14221,1.7136 0.57738,1.7136 0.76226,0 1.0847,0.46211 1.0847,1.5547 0,1.1597 -0.51088,1.3341 -3.9091,1.3341 -2.1138,0 -3.3331,-0.11867 -3.5616,-0.34665 z m 11.932,-10.009 c 0.16487,-0.26614 -2.2706,-12.399 -2.5435,-12.671 -0.0916,-0.0913 -0.22888,0.015 -0.30514,0.23636 -0.32963,0.95664 -2.3541,12.048 -2.2539,12.348 0.13023,0.38978 4.865,0.46983 5.1026,0.0863 z"
         inkscape:connector-curvature="0"
         style="fill:#919191" />
      <path
         id="path3742"
         d="m 780.06,466.47 0,-157.44 108.88,0 108.88,0 0,157.44 0,157.44 -108.88,0 -108.88,0 0,-157.44 z M 992.2,622.69 c 1.8478,-0.97241 3.687,-3.0217 4.286,-4.7754 0.41277,-1.2086 0.45609,-15.592 0.45609,-151.45 l 0,-150.12 -0.88225,-1.7614 c -0.99042,-1.9773 -2.3647,-3.322 -4.3151,-4.2224 l -1.3177,-0.60827 -101.35,0 c -99.198,0 -101.38,0.0117 -102.79,0.5539 -1.8914,0.7277 -3.9769,2.7082 -4.8272,4.5841 l -0.68266,1.5061 -0.0771,149.49 c -0.0535,103.83 0.016,149.93 0.22773,150.93 0.60858,2.8659 2.7895,5.2947 5.6384,6.2792 1.3667,0.47231 7.2723,0.49742 102.8,0.43745 l 101.35,-0.0636 1.4835,-0.78075 z M 977.55,601.3 c -0.14786,-0.35748 -1.4554,-6.3047 -2.9057,-13.216 -1.4503,-6.9114 -2.7528,-12.849 -2.8945,-13.195 -0.16076,-0.39275 -0.56276,-0.6642 -1.0695,-0.72219 -0.73871,-0.0845 -0.81195,-0.19714 -0.81195,-1.2484 l 0,-1.1555 2.9981,-0.0827 c 3.376,-0.0931 3.8858,0.10971 3.749,1.4911 -0.0658,0.66388 -0.26489,0.92285 -0.81108,1.0549 -0.6775,0.16384 -0.72015,0.28195 -0.66539,1.8428 0.0322,0.91724 0.21102,1.851 0.39741,2.0751 0.25375,0.30503 1.1325,0.40737 3.4977,0.40737 3.6143,0 3.5525,0.0451 3.5665,-2.5999 0.008,-1.4304 -0.0565,-1.598 -0.6426,-1.6811 -0.75246,-0.10662 -1.1908,-1.3266 -0.73546,-2.0468 0.24009,-0.37971 0.89741,-0.46082 3.7346,-0.46082 l 3.4432,0 0,1.1555 c 0,1.1103 -0.0396,1.1591 -1.0135,1.2483 -0.55741,0.0511 -1.1153,0.19168 -1.2399,0.31252 -0.12451,0.12084 -1.3924,6.2295 -2.8175,13.575 -1.4251,7.3454 -2.6665,13.477 -2.7587,13.626 -0.0922,0.14883 -0.74909,0.27059 -1.4598,0.27059 -1.0673,0 -1.3389,-0.11309 -1.561,-0.64997 z m 3.0572,-12.858 c 0.86347,-4.4226 1.1377,-6.3871 0.92699,-6.6414 -0.37293,-0.45012 -4.6108,-0.49533 -5.0533,-0.0539 -0.21751,0.21699 0.0657,2.1376 0.96445,6.5417 1.2706,6.2259 1.4549,6.9136 1.7689,6.6004 0.0917,-0.0915 0.71858,-2.9926 1.393,-6.4467 z m -4.4614,-21.932 c -2.91,-1.4306 -3.5707,-5.5198 -1.3164,-8.1473 0.57398,-0.66898 0.98236,-1.2774 0.90752,-1.3521 -0.0748,-0.0747 -0.70927,0.12369 -1.4098,0.44079 -3.1418,1.4221 -5.9481,0.1717 -6.6191,-2.9493 -0.79468,-3.6967 1.9849,-7.0757 5.3088,-6.4536 1.3861,0.25942 2.6605,1.3842 3.5481,3.1318 0.42391,0.83456 0.84014,1.3344 0.98823,1.1866 0.3191,-0.31835 -0.3189,-3.4251 -1.1626,-5.661 -0.34393,-0.91151 -0.54375,-1.789 -0.44405,-1.9499 0.10175,-0.16424 1.3846,-0.29261 2.9241,-0.29261 3.1647,0 3.3806,0.17309 2.4606,1.9722 -1.0266,2.0076 -2.1211,5.5857 -1.8051,5.901 0.18996,0.18951 0.51545,-0.18947 0.96099,-1.119 1.6434,-3.4283 5.9831,-3.9375 7.9743,-0.9357 1.0159,1.5315 1.1184,4.4034 0.20139,5.6412 -1.6279,2.1971 -3.9287,2.6894 -6.4981,1.3904 -0.791,-0.39988 -1.4369,-0.62737 -1.4354,-0.50553 10e-4,0.12184 0.45748,0.79213 1.0132,1.4895 1.7575,2.2057 1.9778,4.4325 0.63505,6.4203 -1.4503,2.147 -4.0118,2.8836 -6.232,1.7921 z m -92.861,-71.741 c -0.10119,-0.16335 0.33132,-1.4958 0.96114,-2.961 2.1344,-4.9653 3.5321,-10.429 3.5321,-13.806 0,-2.2162 -0.72498,-2.1332 -1.4445,0.16522 -1.375,4.3922 -5.2631,7.7392 -9.5347,8.2079 -8.4272,0.92468 -14.975,-5.6225 -13.659,-13.658 0.69373,-4.2368 2.8744,-7.2937 6.3962,-8.9665 1.7504,-0.83136 2.1051,-0.89394 5.0673,-0.89394 2.9929,0 3.3051,0.0567 5.1722,0.93885 1.0929,0.51636 2.0376,0.93884 2.0993,0.93884 0.41447,0 -0.0747,-1.0058 -1.1793,-2.4249 -1.726,-2.2174 -2.6718,-4.2204 -3.2233,-6.8259 -1.432,-6.7646 2.9608,-13.001 10.007,-14.206 5.5175,-0.94391 11.241,1.9754 13.562,6.9181 0.70597,1.5029 0.78062,1.9795 0.78062,4.9839 0,3.229 -0.0295,3.3828 -1.0513,5.4886 -0.57819,1.1916 -1.6562,2.8631 -2.3955,3.7145 -2.486,2.8627 -2.3785,3.5417 0.3054,1.9288 2.1151,-1.2711 3.9946,-1.6938 6.9359,-1.56 1.9733,0.0898 2.6433,0.26655 4.5228,1.1933 3.9332,1.9394 6.0365,4.9705 6.2504,9.0077 0.29516,5.5705 -2.3533,10.436 -6.8167,12.523 -1.5116,0.70667 -1.9866,0.78084 -5.0002,0.78084 -3.0668,0 -3.4614,-0.0644 -4.9942,-0.81507 -2.7931,-1.3679 -4.6895,-3.3477 -6.1857,-6.4578 -1.534,-3.1886 -2.0146,-3.2762 -1.7389,-0.3169 0.38495,4.1321 2.3523,11.269 3.9886,14.468 0.99052,1.937 1.0055,1.9321 -5.9558,1.9321 -3.9461,0 -6.2848,-0.10851 -6.4016,-0.297 z m -86.488,-103.28 c -0.0856,-0.0854 0.34682,-1.318 0.96095,-2.7391 1.1834,-2.7384 1.7067,-4.9052 1.1846,-4.9052 -0.16726,0 -0.44698,0.43185 -0.62158,0.95967 -0.17461,0.52782 -0.77201,1.3992 -1.3276,1.9364 -0.89076,0.86132 -1.2236,0.98866 -2.8178,1.0781 -1.4477,0.0813 -1.9985,-0.0179 -2.7656,-0.49794 -1.9082,-1.194 -2.7173,-4.8894 -1.5049,-6.8732 1.2467,-2.04 4.0362,-2.7027 6.3719,-1.514 1.7352,0.88316 1.8541,0.70807 0.59666,-0.87893 -1.7785,-2.2446 -1.9552,-4.8356 -0.46302,-6.7874 1.0079,-1.3184 2.1352,-1.8666 3.838,-1.8666 2.5766,0 4.493,1.6464 4.8751,4.1882 0.22749,1.5134 -0.17506,2.8581 -1.333,4.4528 -0.46957,0.6467 -0.85377,1.2446 -0.85377,1.3286 0,0.084 0.51602,-0.10982 1.1467,-0.43081 1.7456,-0.88843 4.0508,-0.80165 5.2408,0.1973 3.9155,3.2868 0.53793,10.606 -4.1778,9.0534 -1.1536,-0.37983 -2.7637,-2.0237 -3.3388,-3.4089 -0.57348,-1.3812 -1.0096,-1.178 -0.79678,0.37137 0.15142,1.1022 1.0414,4.0791 1.7895,5.986 0.18119,0.46182 -0.0631,0.50554 -2.8248,0.50554 -1.6627,0 -3.0932,-0.0699 -3.1788,-0.15528 z m -5.6764,-28.516 c 0.0851,-1.1728 0.13433,-1.2319 1.1025,-1.3205 0.5574,-0.0511 1.1016,-0.18104 1.2094,-0.28888 0.10775,-0.10783 1.3199,-6.0458 2.6937,-13.195 1.3738,-7.1497 2.5649,-13.227 2.6468,-13.505 0.11554,-0.39197 0.46602,-0.50554 1.5602,-0.50554 0.77616,0 1.4737,0.10094 1.5502,0.22431 0.0764,0.12337 1.3302,5.8106 2.7862,12.638 3.3121,15.532 3.0605,14.58 3.8525,14.585 1.0539,0.007 1.4147,0.41118 1.3133,1.4702 l -0.0939,0.98078 -3.33,0 -3.33,0 -0.0901,-1.087 c -0.084,-1.0134 -0.0286,-1.0992 0.8179,-1.2681 l 0.90798,-0.18117 -0.19972,-1.4762 c -0.34156,-2.5245 -0.28088,-2.4872 -4.0468,-2.4872 -3.7372,0 -3.5319,-0.14362 -3.6868,2.58 -0.0656,1.153 -9.3e-4,1.2975 0.6511,1.4559 0.6092,0.14796 0.73801,0.36853 0.81294,1.392 l 0.089,1.2162 -3.6528,0 -3.6528,0 0.089,-1.2277 z m 12.11,-9.0996 c 0.008,-0.87899 -2.3985,-12.337 -2.65,-12.619 -0.13221,-0.14829 -0.29363,-0.21329 -0.35871,-0.14444 -0.12963,0.13715 -2.4974,12.404 -2.4974,12.939 0,0.22468 0.87982,0.33034 2.7508,0.33034 2.4251,0 2.7514,-0.0599 2.7552,-0.50554 z"
         inkscape:connector-curvature="0"
         style="fill:#6e6e6e" />
      <path
         id="path3740"
         d="m 780.06,466.47 0,-157.44 108.88,0 108.88,0 0,157.44 0,157.44 -108.88,0 -108.88,0 0,-157.44 z m 212.5,156.15 c 1.7191,-0.94994 2.8915,-2.217 3.8765,-4.1895 l 0.65356,-1.3088 0,-150.36 0,-150.36 -0.75891,-1.6145 c -0.97459,-2.0733 -2.8523,-3.8659 -4.818,-4.5996 -1.5383,-0.57417 -2.1678,-0.57725 -103.1,-0.50387 l -101.55,0.0738 -1.4478,0.76862 c -1.8766,0.99625 -3.1162,2.3136 -4.0334,4.2867 l -0.73865,1.5888 -0.003,150.09 c -0.003,139.66 0.0309,150.19 0.48245,151.52 0.67595,1.983 3.266,4.5479 5.1885,5.1381 1.2566,0.38579 13.145,0.42996 103.06,0.38296 l 101.64,-0.0531 1.5508,-0.85693 z m -15.023,-21.694 c -0.15532,-0.40755 -0.28239,-0.85981 -0.28239,-1.005 0,-0.32787 -5.163,-24.495 -5.3818,-25.192 -0.0874,-0.27805 -0.44324,-0.50753 -0.79084,-0.50996 -1.0038,-0.007 -1.4105,-0.41998 -1.3067,-1.3269 l 0.0956,-0.83528 3.2756,-0.0819 3.2756,-0.0818 -0.0904,1.0929 c -0.0736,0.88941 -0.21506,1.1105 -0.75967,1.1875 -0.89451,0.12648 -0.96908,0.46437 -0.5529,2.5053 l 0.35344,1.7333 3.5394,0.081 c 4.0235,0.0921 3.7802,0.25728 3.9206,-2.661 0.0628,-1.3052 0.008,-1.4392 -0.65535,-1.6002 -0.5866,-0.14241 -0.74095,-0.37906 -0.81378,-1.2476 l -0.0899,-1.0719 3.4867,0 c 3.4825,0 3.4869,8.7e-4 3.6693,0.72595 0.24664,0.98035 -0.32202,1.5851 -1.4906,1.5851 -0.66243,0 -1.005,0.15615 -1.1091,0.50554 -0.0828,0.27804 -1.2668,6.2903 -2.6312,13.361 -1.3643,7.0702 -2.5391,13.017 -2.6106,13.216 -0.0782,0.21706 -0.65639,0.3611 -1.4494,0.3611 -1.1497,0 -1.3556,-0.0952 -1.6017,-0.741 z m 1.8402,-5.8309 c 0.30001,-0.50069 2.5374,-12.874 2.3949,-13.244 -0.21085,-0.54817 -5.334,-0.58831 -5.5436,-0.0434 -0.0765,0.19903 0.44874,3.2782 1.1673,6.8426 0.7186,3.5644 1.3065,6.5214 1.3065,6.5712 0,0.1852 0.54978,0.0823 0.67477,-0.12628 z m -2.5642,-28.4 c -1.2702,-0.3687 -2.655,-1.9407 -3.0657,-3.4804 -0.46765,-1.7529 0.041,-3.6341 1.3758,-5.0878 1.1656,-1.2695 0.88072,-1.7918 -0.5258,-0.96394 -1.4773,0.86956 -3.3442,1.0299 -4.5817,0.39353 -1.8514,-0.95218 -2.8531,-4.119 -2.0092,-6.3522 0.81303,-2.1514 3.2364,-3.5222 5.2474,-2.9682 1.1694,0.32212 2.794,1.943 3.3926,3.3848 0.21391,0.5152 0.58536,0.93673 0.82544,0.93673 0.59312,0 0.29973,-2.1773 -0.67186,-4.986 -0.39793,-1.1503 -0.7516,-2.2215 -0.78594,-2.3804 -0.0384,-0.17748 1.0542,-0.28888 2.8332,-0.28888 1.7813,0 2.8703,0.11117 2.8297,0.28888 -0.0362,0.15888 -0.5338,1.4308 -1.1057,2.8266 -1.2309,3.004 -1.557,4.5398 -0.96392,4.5398 0.22085,0 0.69276,-0.61747 1.0487,-1.3722 0.85215,-1.8068 1.8264,-2.472 3.8245,-2.6113 1.324,-0.0923 1.7836,0.008 2.6192,0.56935 1.3576,0.91267 2.0262,2.3256 2.0254,4.2807 -8.7e-4,2.0403 -0.75075,3.3108 -2.3933,4.0547 -1.6655,0.75428 -2.3711,0.70905 -4.4822,-0.28729 -1.2748,-0.60168 -1.8098,-0.74014 -1.8098,-0.46846 0,0.21212 0.21771,0.56409 0.4838,0.78215 0.26609,0.21805 0.85245,0.97439 1.303,1.6807 1.6279,2.552 0.80642,5.8645 -1.777,7.1654 -1.3581,0.68385 -2.1927,0.76271 -3.6366,0.34362 z m -93.461,-72.094 c -0.0998,-0.0996 0.0103,-0.55106 0.24469,-1.0033 1.847,-3.5633 3.6632,-9.5143 4.187,-13.719 0.52263,-4.1958 -0.36115,-4.8682 -1.7411,-1.3246 -1.8431,4.7328 -5.2792,7.4148 -9.9514,7.7674 -5.1431,0.38805 -9.894,-2.2982 -12.003,-6.7867 -0.70136,-1.4928 -0.77604,-1.973 -0.77604,-4.9893 0,-3.2736 0.0207,-3.3793 1.0843,-5.5259 1.2833,-2.59 2.7174,-3.9859 5.3951,-5.2516 1.752,-0.82816 2.1683,-0.90655 4.8135,-0.90655 2.6662,0 3.053,0.0744 4.8827,0.93885 2.0376,0.96274 2.7907,1.1433 2.7907,0.66902 0,-0.14841 -0.71437,-1.2172 -1.5875,-2.3751 -0.87313,-1.1579 -1.9413,-2.9539 -2.3737,-3.9911 -0.68241,-1.6369 -0.78729,-2.2863 -0.79441,-4.919 -0.007,-2.4882 0.10936,-3.3263 0.64601,-4.6645 2.0434,-5.0954 8.1132,-8.2092 13.726,-7.0417 5.1065,1.0622 8.4426,4.0512 9.6801,8.673 1.0873,4.0609 -0.0918,8.2476 -3.4848,12.373 -2.3377,2.8426 -2.0972,3.6044 0.6165,1.9529 5.8752,-3.5756 13.649,-1.3383 16.749,4.8205 0.74119,1.4725 0.83175,1.951 0.83208,4.3966 5.8e-4,4.2853 -1.2023,7.1845 -4.0632,9.793 -3.9941,3.6418 -10.238,3.8552 -14.798,0.50599 -1.8756,-1.3774 -3.3802,-3.4336 -4.4184,-6.0381 -0.63847,-1.6016 -1.3075,-2.114 -1.6381,-1.2547 -0.22513,0.5853 0.94715,7.2323 1.7825,10.107 0.39093,1.3453 1.1756,3.5275 1.7436,4.8494 0.56805,1.3219 1.1027,2.5659 1.1881,2.7645 0.12151,0.28261 -1.2256,0.36109 -6.1978,0.36109 -3.4942,0 -6.4347,-0.0815 -6.5346,-0.18106 z m -86.42,-103.46 c 0.0839,-0.27804 0.61056,-1.6105 1.1704,-2.961 1.0739,-2.5909 1.3972,-4.1103 0.91634,-4.3073 -0.15926,-0.0652 -0.56802,0.44875 -0.90835,1.1422 -0.73551,1.4987 -1.9229,2.5181 -3.2179,2.7628 -2.4838,0.46921 -4.7055,-0.94535 -5.2878,-3.3667 -0.45232,-1.881 -0.17698,-3.2279 0.91311,-4.4665 1.5288,-1.7371 3.7388,-1.9903 6.1444,-0.704 1.6631,0.88928 1.8195,0.56154 0.49402,-1.0355 -1.5189,-1.83 -1.9487,-3.2897 -1.486,-5.0465 0.63557,-2.4131 2.669,-3.9079 5.0106,-3.6834 2.4969,0.23936 4.0234,1.8682 4.214,4.4967 0.13244,1.8266 -0.45239,3.4261 -1.6466,4.5035 -1.1673,1.0532 -0.71423,1.3492 0.91026,0.59473 3.4681,-1.6108 6.1995,-0.24696 6.7333,3.3621 0.26695,1.8046 -0.69078,4.0633 -2.1392,5.0453 -2.2875,1.5507 -4.9969,0.62725 -6.529,-2.2253 -1.0311,-1.9197 -1.015,-1.9018 -1.2953,-1.4493 -0.30571,0.49348 0.1392,2.8818 1.0078,5.4101 0.3862,1.1241 0.70218,2.1316 0.70218,2.2388 0,0.10721 -1.3182,0.19494 -2.9294,0.19494 -2.655,0 -2.9151,-0.0474 -2.7768,-0.50554 z m -5.7599,-27.341 c -0.0892,-0.23183 -0.11925,-0.72171 -0.0668,-1.0886 0.0746,-0.52219 0.33184,-0.70523 1.1843,-0.84268 0.59898,-0.0966 1.1601,-0.2465 1.247,-0.33317 0.0869,-0.0867 1.3202,-6.159 2.7407,-13.494 1.4205,-7.3351 2.6587,-13.459 2.7516,-13.609 0.24853,-0.40118 2.3344,-0.33162 2.6592,0.0887 0.15349,0.1986 1.5367,6.2614 3.0738,13.473 1.5371,7.2115 2.9419,13.289 3.1218,13.505 0.17989,0.21624 0.64473,0.39315 1.033,0.39315 0.63867,0 0.69737,0.10321 0.61606,1.0833 l -0.0899,1.0833 -3.1048,0.0819 -3.1048,0.0819 -0.18396,-0.73124 c -0.25211,-1.0021 0.008,-1.5367 0.80186,-1.649 0.62866,-0.0889 0.66482,-0.20663 0.59666,-1.9429 -0.0399,-1.0166 -0.21874,-2.024 -0.39741,-2.2388 -0.47757,-0.57409 -6.4187,-0.55236 -6.8992,0.0252 -0.19021,0.22864 -0.36904,1.2276 -0.39741,2.22 -0.0487,1.7035 -0.0112,1.8141 0.67233,1.9805 0.59838,0.14573 0.7239,0.34936 0.7239,1.1743 l 0,0.99804 -3.4079,0.0814 c -2.7733,0.0663 -3.4381,0.003 -3.57,-0.34008 z m 11.984,-9.4909 c 0.21109,-0.25463 -0.0745,-2.2162 -0.96843,-6.6527 -1.2835,-6.3697 -1.6099,-7.4995 -1.9895,-6.8867 -0.25171,0.4063 -2.4826,11.966 -2.4826,12.864 0,0.35808 0.0869,0.73773 0.19304,0.84365 0.36119,0.36033 4.9307,0.21359 5.2475,-0.16851 z"
         inkscape:connector-curvature="0"
         style="fill:#4e4e4e" />
      <path
         id="path3738"
         d="m 780.06,466.47 0,-157.44 108.88,0 108.88,0 0,157.44 0,157.44 -108.88,0 -108.88,0 0,-157.44 z m 212.43,156.37 c 1.7776,-0.94876 3.7989,-3.3425 4.3134,-5.1081 0.3835,-1.3161 0.4254,-18.95 0.36045,-151.7 l -0.0735,-150.21 -0.7738,-1.4627 c -0.90424,-1.7093 -2.7045,-3.4253 -4.3986,-4.1928 -1.1648,-0.52766 -4.0134,-0.54277 -102.98,-0.54619 l -101.78,-0.004 -1.4478,0.67454 c -2.1135,0.98469 -3.1851,2.0096 -4.1818,3.9995 l -0.88549,1.7678 0,150.41 c 0,135.27 0.0453,150.54 0.45006,151.72 0.78883,2.3096 3.2366,4.627 5.4449,5.1548 0.50035,0.11959 46.776,0.19779 102.84,0.17378 l 101.93,-0.0437 1.1908,-0.63559 z m -14.8,-21.82 c -0.0849,-0.35749 -1.3837,-6.4133 -2.8861,-13.457 -1.5025,-7.044 -2.8848,-12.991 -3.0718,-13.216 -0.187,-0.22479 -0.64981,-0.40871 -1.0284,-0.40871 -0.59502,0 -0.68845,-0.13855 -0.68845,-1.0208 l 0,-1.0208 3.1128,0.082 3.1128,0.082 0,0.86267 c 0,0.63535 -0.1526,0.89014 -0.57912,0.96689 -0.96419,0.17351 -1.0851,0.49872 -0.87073,2.3415 0.29178,2.5081 0.46678,2.6175 4.1859,2.6175 3.7536,0 3.8703,-0.0842 3.9018,-2.8172 0.0209,-1.8112 -0.0171,-1.9243 -0.70183,-2.0895 -0.56934,-0.1374 -0.72391,-0.35696 -0.72391,-1.0283 l 0,-0.85361 3.33,0 3.33,0 0.0907,0.93885 c 0.0865,0.89485 0.044,0.93885 -0.90562,0.93885 -0.548,0 -1.1443,0.17782 -1.3251,0.39516 -0.1808,0.21734 -1.4373,6.1646 -2.7921,13.216 -1.3548,7.0515 -2.5883,13.113 -2.7409,13.471 -0.22189,0.51965 -0.50987,0.64997 -1.4365,0.64997 -0.96309,0 -1.185,-0.10983 -1.3133,-0.64997 z m 1.8818,-5.6331 c 5.8e-4,-0.11916 0.57834,-3.2036 1.2839,-6.8542 0.92052,-4.7631 1.1964,-6.7414 0.97693,-7.0052 -0.20533,-0.24682 -1.146,-0.36766 -2.8621,-0.36766 -2.063,0 -2.6072,0.091 -2.8207,0.47143 -0.21734,0.38744 1.2216,8.3477 2.4082,13.322 0.13972,0.58576 1.0112,0.95823 1.0138,0.43331 z m -3.4126,-29.151 c -1.2766,-0.62773 -2.137,-1.905 -2.309,-3.4277 -0.21448,-1.8983 0.123,-3.0979 1.2367,-4.3959 1.55,-1.8066 1.1567,-2.4162 -0.79358,-1.2299 -0.62653,0.3811 -1.4602,0.57704 -2.4582,0.57775 -1.27,8.7e-4 -1.6694,-0.13843 -2.512,-0.87652 -2.6952,-2.3608 -1.4183,-7.8911 1.9683,-8.5249 2.2319,-0.41771 3.9458,0.60117 5.0819,3.021 0.64886,1.3821 1.2146,1.8118 1.5892,1.2071 0.22479,-0.36287 -0.56134,-3.9668 -1.2727,-5.8345 -0.32191,-0.84519 -0.47735,-1.6444 -0.34541,-1.776 0.13194,-0.13163 1.3353,-0.20123 2.6742,-0.15468 1.963,0.0682 2.4238,0.16854 2.3798,0.51795 -0.03,0.23832 -0.51425,1.5422 -1.0761,2.8976 -1.1684,2.8183 -1.4252,4.3965 -0.7388,4.5395 0.29761,0.062 0.68476,-0.41705 1.1582,-1.4332 0.56863,-1.2203 0.97023,-1.6566 2.0032,-2.1763 1.588,-0.79887 2.3825,-0.81481 3.9074,-0.0784 1.4625,0.70632 2.1856,1.8794 2.3688,3.8431 0.36154,3.8742 -3.144,5.9778 -6.8443,4.1072 -2.3966,-1.2116 -2.6434,-0.89016 -0.87839,1.1443 1.8997,2.1898 2.1883,4.3018 0.88019,6.4413 -1.1925,1.9505 -3.8713,2.6675 -6.0194,1.6113 z m -92.555,-71.702 c -0.0859,-0.13867 0.36472,-1.4503 1.0014,-2.9147 2.1667,-4.9838 3.6358,-11.081 3.4131,-14.166 -0.0771,-1.0675 -0.19548,-1.2999 -0.66241,-1.2999 -0.44007,0 -0.739,0.4606 -1.3226,2.038 -1.3202,3.5682 -3.1144,5.6614 -5.9788,6.9752 -3.2233,1.4784 -6.9594,1.418 -10.372,-0.16748 -5.8621,-2.7234 -8.134,-9.8968 -5.0889,-16.068 2.6874,-5.4459 9.3717,-7.5406 15.272,-4.786 1.0441,0.48745 2.0141,0.88628 2.1555,0.88628 0.60897,0 0.17235,-1.2991 -0.85636,-2.5481 -4.777,-5.7997 -4.9512,-13.022 -0.42292,-17.539 4.8493,-4.8378 13.282,-4.7372 17.924,0.21387 4.2986,4.5847 4.0653,11.887 -0.5473,17.129 -1.6697,1.8974 -2.0976,2.7039 -1.6641,3.1363 0.24793,0.24734 0.59899,0.16442 1.4022,-0.33121 4.1548,-2.5636 8.3456,-2.8783 12.236,-0.91893 2.4603,1.239 3.8706,2.6284 5.0447,4.9696 0.91812,1.8309 1.0186,2.2652 1.0122,4.377 -0.009,2.8195 -0.33424,4.351 -1.3786,6.4818 -3.3395,6.8134 -12.546,8.3143 -18.333,2.9887 -1.0607,-0.97606 -1.841,-2.1066 -2.8248,-4.0929 -2.1181,-4.2764 -2.8438,-3.4697 -1.9122,2.1256 0.57505,3.454 2.0482,8.4856 3.2974,11.262 0.48924,1.0875 0.81661,2.0949 0.72749,2.2388 -0.20798,0.33572 -11.914,0.34484 -12.122,0.009 z m -86.35,-103.06 c -0.21272,-0.0873 0.007,-0.90262 0.63653,-2.3604 1.1841,-2.7426 1.7278,-4.7238 1.476,-5.3784 -0.2662,-0.69206 -0.7318,-0.31435 -1.3422,1.0889 -0.82484,1.896 -1.7668,2.5838 -3.7328,2.7257 -2.1279,0.15356 -3.3007,-0.40733 -4.0935,-1.9576 -0.70442,-1.3775 -0.76771,-3.7202 -0.13356,-4.9436 1.0752,-2.0744 3.8411,-2.5818 6.6313,-1.2166 0.875,0.42813 1.6741,0.69542 1.7758,0.59398 0.10167,-0.10143 -0.44067,-0.97874 -1.2052,-1.9496 -1.226,-1.5568 -1.4027,-1.9593 -1.4975,-3.4105 -0.19212,-2.9433 1.5775,-4.9674 4.3428,-4.9674 2.6797,0 4.3123,1.3768 4.7312,3.9897 0.24512,1.5293 -0.41923,3.3869 -1.6226,4.5371 -1.5223,1.455 -0.89787,2.1247 0.93922,1.0072 1.3512,-0.82186 3.9213,-0.79748 4.998,0.0474 2.3328,1.8306 2.0486,6.2537 -0.52401,8.1573 -1.1164,0.82605 -3.3274,0.82689 -4.4457,0.002 -0.44964,-0.33177 -1.2779,-1.3563 -1.8406,-2.2767 -0.56266,-0.92042 -1.149,-1.6239 -1.303,-1.5634 -0.52624,0.20699 -0.21131,2.7163 0.65594,5.2264 0.71639,2.0735 0.79402,2.5354 0.44829,2.6678 -0.49415,0.18917 -4.4245,0.17396 -4.8944,-0.019 z m -5.8466,-28.492 c 0.0828,-0.85692 0.18539,-0.94666 1.1754,-1.0284 0.83475,-0.0689 1.1212,-0.23536 1.2433,-0.72219 0.0872,-0.34793 1.2951,-6.4823 2.6841,-13.632 l 2.5256,-12.999 1.3709,-0.0881 c 0.75397,-0.0484 1.3709,-0.0142 1.3709,0.076 0,0.52377 5.5493,26.121 5.7754,26.64 0.16864,0.38723 0.58636,0.66501 1.086,0.72219 0.68084,0.0779 0.8266,0.24451 0.90269,1.0318 l 0.0907,0.93885 -3.2219,0 -3.2219,0 0.0907,-0.9275 c 0.07,-0.71611 0.25572,-0.9657 0.81464,-1.0951 0.88301,-0.20447 0.98322,-0.7852 0.4984,-2.8883 l -0.36628,-1.5888 -3.5259,-0.081 c -4.0783,-0.0937 -4.0099,-0.13729 -4.1771,2.6634 -0.0972,1.6281 -0.0655,1.7247 0.62143,1.889 0.55741,0.13339 0.74477,0.38656 0.81464,1.1007 l 0.0907,0.9275 -3.3666,0 -3.3666,0 0.0907,-0.93885 z m 12.007,-8.7485 c 0.20526,-0.53363 -2.4069,-13.44 -2.7994,-13.832 -0.15139,-0.15104 -0.34719,-0.20285 -0.4351,-0.11514 -0.29001,0.28933 -2.7872,13.576 -2.6289,13.988 0.23637,0.61453 5.6258,0.5772 5.8634,-0.0406 z"
         inkscape:connector-curvature="0"
         style="fill:#2e2e2e" />
      <path
         id="path3736"
         d="m 780.06,466.47 0,-157.44 108.88,0.002 108.88,0.002 0,157.44 0,157.44 -108.88,0 -108.88,0 0,-157.44 z M 992.74,623 c 1.3742,-0.75414 2.9863,-2.4692 3.7686,-4.0093 l 0.7196,-1.4167 -0.003,-150.88 -0.003,-150.88 -0.6772,-1.4444 c -0.75618,-1.6131 -2.8902,-3.729 -4.3925,-4.3552 -0.84729,-0.35319 -15.458,-0.4109 -103.43,-0.40858 l -102.44,0.003 -1.4801,0.84694 c -1.6232,0.92878 -2.7326,2.0985 -3.601,3.7967 -0.55853,1.0922 -0.56528,2.9099 -0.56528,152.36 0,149.4501 0.007,151.26 0.56528,152.36 1.1804,2.3082 3.1076,4.0276 4.9111,4.3813 0.57134,0.11208 47.101,0.18566 103.4,0.16356 94.539,-0.0371 102.43,-0.0766 103.23,-0.51695 z m -14.764,-21.966 c -0.14064,-0.39065 -1.3522,-5.9548 -3.9194,-18 -2.0348,-9.5474 -1.8498,-8.9672 -2.9614,-9.2852 -0.65049,-0.18611 -0.9412,-0.44441 -0.9412,-0.83623 0,-0.52111 0.23994,-0.5736 2.968,-0.64927 2.9336,-0.0814 2.968,-0.0746 2.968,0.58664 0,0.48375 -0.25016,0.76317 -0.90354,1.0092 l -0.90355,0.34024 0.20717,1.6542 c 0.27174,2.1698 0.60288,2.984 1.2308,3.0265 1.393,0.0942 6.8276,-0.0264 6.9559,-0.15436 0.22031,-0.21979 0.62532,-2.492 0.63967,-3.5887 0.0106,-0.8109 -0.1253,-1.0159 -0.85607,-1.2911 -0.61545,-0.23176 -0.86869,-0.51918 -0.86869,-0.98597 0,-0.64596 0.0624,-0.65886 3.1852,-0.65886 3.1587,0 3.1852,0.006 3.1852,0.68527 0,0.57504 -0.1846,0.71472 -1.1476,0.86833 -1.3866,0.2212 -1.0807,-0.80689 -3.4916,11.735 -0.99264,5.1637 -2.0868,10.818 -2.4314,12.566 l -0.62659,3.1776 -1.0763,0.0898 c -0.69337,0.0579 -1.1248,-0.0449 -1.2126,-0.28888 z m 1.511,-5.2173 c 0.32031,-0.40922 2.6914,-12.646 2.6869,-13.866 l -0.003,-0.79441 -3.1852,0 -3.1852,0 0,0.81195 c 0,0.72664 2.4266,12.959 2.7473,13.849 0.0716,0.19861 0.24856,0.3611 0.39332,0.3611 0.14476,0 0.39038,-0.16249 0.54584,-0.3611 z m -2.0939,-29.367 c -2.1884,-0.54226 -3.4127,-2.1445 -3.4127,-4.4665 0,-1.6491 0.50556,-2.8502 1.6478,-3.9148 1.5645,-1.4581 0.56421,-2.3372 -1.3409,-1.1784 -1.4271,0.86805 -3.6899,0.79213 -4.8265,-0.16192 -1.5228,-1.2783 -1.8838,-3.7303 -0.85984,-5.8404 0.74771,-1.5409 2.0111,-2.3714 3.6096,-2.3729 1.6676,-10e-4 2.9645,0.96256 3.9924,2.9678 0.60129,1.173 1.0145,1.6531 1.4226,1.6531 0.53064,0 0.56198,-0.13974 0.40495,-1.8055 -0.0936,-0.99301 -0.50246,-2.7804 -0.90854,-3.972 -0.40608,-1.1916 -0.73924,-2.1991 -0.74035,-2.2388 -10e-4,-0.0397 1.1143,-0.0722 2.4788,-0.0722 2.7597,0 2.7492,-0.0136 1.6494,2.1414 -0.75911,1.4873 -1.5241,3.9875 -1.5241,4.9813 0,0.77528 0.11499,0.96584 0.58278,0.96584 0.42689,0 0.76831,-0.41854 1.2764,-1.5648 0.81523,-1.839 1.7227,-2.5206 3.5865,-2.6937 2.455,-0.22798 4.3992,1.7822 4.3978,4.5473 -0.002,3.4601 -3.2713,5.1164 -6.6356,3.3615 -0.80297,-0.41887 -1.6578,-0.76158 -1.8996,-0.76158 -0.73317,0 -0.49383,0.99608 0.45553,1.8959 2.7005,2.5595 2.6046,6.3532 -0.20157,7.9781 -1.1084,0.64177 -2.0944,0.81408 -3.1549,0.55131 z m -93.673,-72.075 c 0,-0.0654 0.4358,-1.1378 0.96844,-2.3832 2.0192,-4.7213 3.1692,-8.9938 3.5266,-13.102 0.14873,-1.7096 0.0955,-2.2826 -0.25441,-2.7395 -0.65877,-0.86019 -1.2994,-0.30306 -2.0594,1.7911 -0.84084,2.3167 -2.2573,4.4914 -3.6338,5.579 -5.8361,4.6113 -14.605,2.6391 -17.754,-3.9934 -0.84016,-1.7692 -0.91763,-2.1762 -0.91763,-4.8211 0,-3.9846 0.75205,-5.9787 3.1691,-8.4027 3.5123,-3.5225 8.4952,-4.2051 13.377,-1.8325 2.8367,1.3787 3.2412,0.55678 1.0867,-2.2082 -3.7745,-4.8439 -4.5979,-10.081 -2.2902,-14.567 2.4658,-4.7926 8.7884,-7.234 14.301,-5.5222 4.6892,1.456 7.4517,4.6225 8.1952,9.3935 0.55996,3.5933 -0.59388,7.1374 -3.3968,10.434 -2.0449,2.4048 -2.3323,2.9756 -1.777,3.5296 0.38789,0.38697 0.66901,0.30624 2.5619,-0.73579 2.7468,-1.5121 5.3178,-2.0235 7.8296,-1.5575 3.7969,0.70444 6.9194,3.0133 8.4862,6.2751 0.71789,1.4945 0.82767,2.0574 0.81556,4.1824 -0.0318,5.5802 -2.6825,9.798 -7.2876,11.596 -2.2958,0.8963 -5.9119,0.89157 -8.2249,-0.0107 -3.1795,-1.2404 -5.9886,-4.1504 -7.0322,-7.2849 -0.56691,-1.7028 -1.3837,-2.5127 -2.0106,-1.9937 -0.57281,0.47427 -0.5554,1.1419 0.13506,5.1792 0.78278,4.5771 1.4619,6.791 3.9729,12.952 0.11491,0.28194 -1.1608,0.36109 -5.8198,0.36109 -3.2818,-10e-6 -5.967,-0.0535 -5.967,-0.11885 z m -86.3,-103.28 c 0,-0.15702 0.45827,-1.39 1.0184,-2.7398 1.2466,-3.0044 1.5765,-4.8948 0.89927,-5.1541 -0.55779,-0.21354 -0.8668,0.11266 -1.712,1.8072 -0.90171,1.8078 -1.9285,2.476 -3.7748,2.4567 -2.6138,-0.0274 -3.9387,-1.529 -4.0185,-4.5542 -0.0512,-1.9411 0.69203,-3.1018 2.4306,-3.7958 1.4691,-0.58642 2.7342,-0.41196 4.5002,0.62056 1.1574,0.67666 2.1046,0.73951 2.1046,0.13965 0,-0.1415 -0.50105,-0.82805 -1.1134,-1.5257 -1.5377,-1.7517 -1.849,-2.4358 -1.849,-4.0636 0,-2.7617 2.2687,-4.8271 4.8741,-4.4373 2.2199,0.33211 3.8796,2.238 3.8796,4.4551 0,1.5831 -0.43324,2.5922 -1.6486,3.8404 -0.65563,0.67328 -0.97107,1.2292 -0.86053,1.5166 0.2391,0.62159 0.68058,0.57073 2.3411,-0.26971 1.6353,-0.82768 2.3909,-0.88848 3.7906,-0.30505 1.4473,0.60328 2.1664,1.9524 2.1677,4.0668 8.7e-4,1.3847 -0.1479,1.9571 -0.73112,2.8134 -1.9587,2.8757 -5.2112,2.5475 -7.0577,-0.71227 -1.4513,-2.562 -1.3514,-2.4606 -1.9024,-1.9313 -0.42391,0.40719 -0.44254,0.68617 -0.15238,2.2825 0.18181,1.0002 0.62936,2.6398 0.99456,3.6436 0.36519,1.0037 0.59477,1.894 0.51017,1.9784 -0.28484,0.28416 -4.6903,0.16014 -4.6903,-0.13204 z m -5.9723,-27.581 c -0.31548,-0.82018 0.12125,-1.3098 1.1684,-1.3098 0.55301,0 1.0874,-0.13222 1.1875,-0.29383 0.1878,-0.30315 1.0538,-4.6124 3.7592,-18.706 0.86224,-4.4916 1.6466,-8.294 1.743,-8.4496 0.25225,-0.40719 1.8018,-0.34893 2.0774,0.0781 0.1282,0.1986 1.4981,6.2554 3.0443,13.459 1.5462,7.2041 2.9634,13.281 3.1494,13.505 0.18602,0.22361 0.64802,0.40657 1.0267,0.40657 0.5719,0 0.68845,0.14671 0.68845,0.86663 l 0,0.86663 -2.8956,0 -2.8956,0 0,-0.86663 c 0,-0.65521 0.13264,-0.86663 0.54367,-0.86663 1.0072,0 1.2088,-0.6136 0.86195,-2.6226 -0.17616,-1.0202 -0.45015,-2.0175 -0.60885,-2.2161 -0.3379,-0.42285 -6.7722,-0.51031 -7.4201,-0.10087 -0.27612,0.17449 -0.40898,0.94094 -0.43435,2.5056 -0.0353,2.1782 -0.0121,2.2602 0.68736,2.4293 0.52792,0.12766 0.7239,0.36704 0.7239,0.88422 0,0.70399 -0.0228,0.70977 -3.1181,0.79122 -2.5869,0.0681 -3.1471,0.007 -3.2885,-0.3611 z m 12.235,-8.9584 c 0.18419,-0.47886 -2.404,-13.571 -2.8491,-14.412 -0.5941,-1.1226 -1.0793,0.32985 -2.3881,7.1486 -1.0078,5.2507 -1.2454,6.9928 -0.99475,7.2941 0.49102,0.59025 6.0035,0.5629 6.232,-0.0309 z"
         inkscape:connector-curvature="0"
         style="fill:#020202" />
    </g>
  </g>
</svg>
