<svg xmlns="http://www.w3.org/2000/svg" height="335.876" width="232.277" viewBox="0 0 217.76 314.884"><path d="M0 157.44V0h217.76v314.88H0V157.44z" fill="#fdfdfd"/><path d="M0 157.44V0h217.76v314.88H0V157.44zm211.93 155.67c2.05-1.022 3.511-2.747 4.133-4.878.311-1.065.38-28.364.38-150.94V7.652l-.75-1.588c-.907-1.917-2.274-3.328-4.028-4.153l-1.303-.614-101.06-.075c-94.62-.07-101.16-.044-102.65.418-2.131.661-4.31 2.83-5.007 4.987-.463 1.43-.494 10.917-.494 150.93 0 135.43.043 149.55.458 150.95.577 1.939 2.85 4.323 4.762 4.996 1.17.412 11.078.459 102.52.48l101.23.022 1.805-.9zM5.21 299.28c0-.321.193-.578.434-.578.242 0 .435.257.435.578 0 .321-.193.578-.435.578-.241 0-.434-.257-.434-.578zm192.4-6.053c-.519-.21-.937-1.871-3.434-13.631-1.564-7.366-2.902-13.49-2.974-13.609-.071-.12-.422-.217-.779-.217-.961 0-1.343-.547-1.343-1.925 0-1.622.436-1.831 3.817-1.826 4.004.006 4.045.027 3.942 1.983-.077 1.46-.155 1.634-.774 1.72-.639.091-.674.19-.509 1.397.099.715.253 1.418.343 1.564.09.146 1.464.265 3.052.265 3.146 0 3.02.075 3.248-1.92.128-1.12.086-1.208-.662-1.358-.903-.18-1.126-.718-.941-2.276.113-.953.237-1.096 1.087-1.255.528-.099 2.278-.135 3.89-.08 3.201.11 3.474.255 3.482 1.85.006 1.21-.534 1.813-1.719 1.917l-.998.089-2.515 12.919c-1.383 7.105-2.594 13.232-2.69 13.615-.244.969-2.06 1.37-3.523.778zm2.61-14.882c.562-2.855 1.021-5.228 1.021-5.272 0-.044-1.045-.08-2.322-.08-2.26 0-2.318.017-2.171.65.083.357.547 2.6 1.032 4.983.97 4.768 1.19 5.63 1.328 5.2.05-.16.551-2.626 1.113-5.481zm-3.761-20.102c-.48-.14-1.343-.745-1.916-1.346-1.735-1.817-2.157-4.104-1.16-6.293l.527-1.157-1.959.001c-1.52 0-2.142-.132-2.777-.594-1.965-1.427-2.732-5.023-1.56-7.316 1.788-3.496 5.611-4.154 8.193-1.41l.888.944-.211-1.156c-.116-.635-.462-1.724-.767-2.42-1.038-2.358-1.053-2.346 3.063-2.346 4.227 0 4.148-.087 2.75 2.986-.477 1.052-.868 1.97-.868 2.042 0 .072.61-.21 1.356-.626 2.845-1.586 6.242-.483 7.329 2.378.5 1.316.442 3.935-.111 5.002-.265.512-1.024 1.287-1.686 1.724-1.024.674-1.494.79-3.137.772l-1.934-.021.563.951c1.11 1.878.543 5.299-1.13 6.807-1.339 1.209-3.52 1.64-5.453 1.078zm-93.958-72.45c0-.295.44-1.498.977-2.672 2.02-4.41 3.676-10.485 3.642-13.361l-.014-1.196-.713 1.737c-1.981 4.826-6.212 7.652-11.458 7.652-3.572 0-6.902-1.438-9.331-4.03-2.107-2.246-2.89-4.198-3.03-7.558-.246-5.84 2.05-9.931 6.844-12.197 1.807-.854 2.144-.914 5.12-.914 2.696 0 3.403.1 4.605.653.781.36 1.459.615 1.506.568.047-.047-.479-.894-1.169-1.882-2.045-2.933-2.627-4.842-2.618-8.583.012-4.276.64-5.903 3.296-8.537 2.2-2.183 3.875-3.053 7.098-3.688 2.103-.415 2.488-.412 4.606.024 4.562.941 7.76 3.31 9.544 7.066.88 1.852.93 2.136.926 5.28-.003 3.211-.038 3.393-1.04 5.488-.57 1.191-1.635 2.88-2.366 3.751-.73.872-1.288 1.625-1.24 1.673.049.048.528-.167 1.066-.48 1.813-1.05 4.213-1.555 6.768-1.421 4.39.23 8.47 2.873 10.42 6.748.796 1.58.865 1.96.865 4.75 0 4.086-.833 6.548-3.13 9.244-3.007 3.53-8.273 4.926-13.044 3.456-3.4-1.048-6.6-4.066-8.104-7.644l-.486-1.156.174 1.733c.373 3.717 1.903 9.322 3.499 12.814 1.593 3.489 2.107 3.219-6.12 3.219-6.721 0-7.093-.028-7.093-.537zm-86.46-103c-.086-.224.045-.797.292-1.274s.714-1.536 1.037-2.353l.588-1.487-1.028.782c-1.991 1.515-5.143 1.228-6.765-.615-2.352-2.673-1.783-6.88 1.143-8.45 1.065-.57 1.576-.665 2.953-.548.916.079 1.665.085 1.665.015s-.204-.437-.453-.817c-.249-.379-.522-1.382-.607-2.228-.13-1.311-.03-1.771.675-3.107 1.395-2.641 4.192-3.6 6.912-2.367 2.833 1.284 4.007 4.932 2.495 7.75-.184.344-.335.666-.335.716 0 .05.902.09 2.006.09 2.346 0 3.311.532 4.194 2.307.902 1.813.934 3.595.097 5.42-1.636 3.564-5.377 4.314-8.08 1.618l-1.172-1.17.208.968c.114.533.52 1.745.904 2.694.383.95.633 1.892.555 2.095-.215.56-7.068.523-7.284-.039zm-5.5-27.436c-.084-.22-.112-.968-.063-1.661.089-1.226.125-1.268 1.32-1.532 1.31-.29 1.32-.305 1.78-2.762a4727.48 4727.48 0 0 1 4.097-21.204c.313-1.573.715-3.035.893-3.25.2-.239.929-.39 1.888-.39 1.346 0 1.602.09 1.842.65.153.358 1.133 4.68 2.177 9.605 2.826 13.327 3.63 16.982 3.791 17.242.08.13.523.235.984.235.732 0 .863.13 1.033 1.033.11.583.055 1.339-.126 1.733-.312.684-.401.7-3.743.7-3.815 0-4.12-.127-4.113-1.718.005-1.23.22-1.605 1.073-1.87.582-.182.627-.331.466-1.556-.097-.745-.235-1.42-.306-1.5-.17-.19-5.78-.187-5.97.002-.08.081-.189.787-.24 1.57-.088 1.313-.039 1.437.629 1.598.612.148.738.367.814 1.413.143 1.96-.07 2.061-4.333 2.061-2.919 0-3.772-.088-3.892-.4zm12.02-10.75c.066-.06-.384-2.535-.998-5.5-.823-3.975-1.174-5.209-1.335-4.697-.12.382-.628 2.823-1.129 5.426-.747 3.89-.84 4.778-.52 4.99.35.232 3.694.048 3.983-.219zm188.39-29.975c-.606-.442-.365-1.05.417-1.05.665 0 .971.722.48 1.13-.263.217-.52.194-.896-.08z" fill="#d3d3d3"/><path d="M0 157.44V0h217.76v314.88H0V157.44zm210.44 156.6c2.992-1.091 4.352-2.303 5.554-4.946l.588-1.292.006-150.24.006-150.24-.886-1.769c-.929-1.854-2.302-3.163-4.228-4.032-1.049-.473-6.88-.502-102.6-.502H7.39l-1.514.683c-1.863.84-3.574 2.642-4.305 4.534-.54 1.397-.552 4.595-.552 151.64v150.22l.685 1.375c.94 1.89 3.157 3.807 5.192 4.495 1.619.546 3.666.558 101.84.593 97.891.036 100.23.024 101.7-.514zm-12.96-21.26c-.2-.24-.6-1.573-.89-2.961-.795-3.812-4.87-22.944-5.04-23.666-.11-.462-.402-.656-1.09-.722-.888-.086-.945-.161-1.031-1.362-.06-.822.043-1.356.29-1.512.61-.387 6.435-.304 6.837.097.191.19.348.75.348 1.242 0 1.025-.446 1.589-1.256 1.589-.512 0-.544.144-.37 1.628.106.895.262 1.74.347 1.877.085.138 1.518.25 3.185.25 2.987 0 3.035-.01 3.313-.74.155-.408.282-1.253.282-1.879 0-.902-.107-1.136-.52-1.136-1.103 0-1.584-1.376-.917-2.62.27-.503.634-.558 3.706-.558 3.685 0 4.102.15 4.102 1.479 0 1.346-.278 1.699-1.34 1.699-.752 0-1.055.156-1.263.65-.15.357-1.388 6.424-2.75 13.482-1.362 7.057-2.62 13.005-2.796 13.216-.442.532-2.692.495-3.147-.052zm2.885-13.907c.614-3.153 1.056-5.831.982-5.95-.15-.242-4.55-.303-4.788-.066-.14.14 1.861 10.555 2.276 11.837.248.769.247.77 1.53-5.822zm-4.185-21.02c-2.838-1.264-3.893-4.838-2.306-7.815.627-1.178.659-1.348.217-1.167-2.042.834-4.612.335-5.717-1.11-1.775-2.322-1.462-5.848.692-7.79 2.414-2.176 5.097-1.684 7.29 1.337.711.98.837 1.057.837.511 0-.353-.411-1.88-.914-3.392-.762-2.292-.846-2.794-.507-3.008.458-.29 5.177-.362 5.886-.091.645.247.588.578-.556 3.211-1.306 3.007-1.306 3.583 0 2.14 2.247-2.481 6.322-2.06 7.808.809 1.94 3.74-.553 8.119-4.406 7.74-.756-.074-1.685-.237-2.064-.36l-.69-.226.741 1.272c1.337 2.296 1.289 4.36-.15 6.405-1.194 1.697-4.145 2.432-6.161 1.534zm-93.09-71.801c-.348-.22-.368-.427-.107-1.079.177-.444.868-2.143 1.534-3.775 1.531-3.75 2.602-7.908 2.825-10.97.191-2.635-.166-3.176-.764-1.156-.951 3.216-3.562 6.249-6.604 7.67-1.507.705-1.985.78-4.996.78-3.143 0-3.44-.052-5.277-.92-6.347-3-8.83-10.212-5.752-16.702 1.229-2.59 2.62-4.009 5.165-5.264 2.156-1.063 2.294-1.091 5.414-1.091 2.92 0 3.36.073 5.016.837 1 .46 1.867.785 1.93.722.063-.063-.48-.895-1.207-1.848-1.683-2.206-2.588-4.17-3.153-6.838-1.78-8.404 5.723-15.911 14.44-14.449 4.351.73 7.841 3.254 9.564 6.918.78 1.66.932 2.35 1.026 4.691.164 4.077-.936 6.876-4.178 10.622-.586.679-1.005 1.296-.929 1.371.076.076 1.078-.343 2.227-.931 1.876-.96 2.365-1.082 4.797-1.188 4.17-.182 6.9.903 9.698 3.854 1.967 2.075 2.69 3.742 2.859 6.597.334 5.645-2.44 10.656-7.11 12.84-1.506.704-1.984.778-4.995.778-3.17 0-3.423-.045-5.253-.938-3.09-1.508-5.179-3.88-6.809-7.728-.44-1.038-.501-1.085-.61-.466-.33 1.892 1.488 9.536 3.304 13.899 1.356 3.256 1.412 3.482.94 3.78-.543.343-12.45.328-12.995-.016zm-86.7-103.38c-.083-.133.292-1.27.833-2.528.542-1.257 1.071-2.675 1.177-3.152l.193-.866-.736 1.042c-1.924 2.721-6.046 2.682-8.094-.077-.389-.524-.613-1.396-.706-2.744-.12-1.734-.052-2.1.55-2.98.378-.553 1.14-1.312 1.694-1.687.855-.58 1.268-.663 2.743-.555.956.07 1.98.231 2.278.358.447.19.406.03-.242-.948-1.42-2.14-1.34-4.842.193-6.585 1.189-1.35 2.238-1.857 3.847-1.857 2.551 0 4.443 1.423 5.093 3.83.387 1.434.21 2.773-.558 4.244l-.564 1.08 2.07-.118c2.532-.143 3.568.386 4.494 2.293 1.665 3.432-.29 7.647-3.81 8.217-1.545.25-3.557-.817-4.515-2.393-.416-.685-.843-1.25-.948-1.255-.273-.013.486 3.082 1.194 4.875.329.832.523 1.633.432 1.78-.207.334-6.412.358-6.618.026zm-5.474-27.385c-.111-.11-.202-.75-.202-1.422 0-1.323.278-1.571 1.761-1.571.465 0 .845-.09.845-.2 0-.627 4.986-26.054 5.214-26.594.238-.562.491-.65 1.869-.65 1.495 0 1.606.05 1.801.795.114.437 1.453 6.563 2.974 13.613l2.765 12.819 1.014.325c1.077.345 1.371 1.027 1.03 2.385-.177.7-.181.701-3.716.62l-3.54-.08-.09-1.104c-.103-1.237.315-1.93 1.165-1.93.506 0 .548-.135.377-1.227-.372-2.389-.128-2.24-3.652-2.24-3.484 0-3.292-.11-3.581 2.057-.176 1.31-.163 1.336.718 1.512.868.174.894.222.808 1.555l-.088 1.377-3.636.08c-2 .044-3.726-.01-3.836-.12zm11.96-10.643c0-.612-2.293-11.489-2.457-11.652-.075-.075-.194.045-.264.267-.145.452-2.202 11.304-2.202 11.614 0 .11 1.108.199 2.461.199 1.98 0 2.462-.084 2.462-.428zm188.07-30.482c-.099-.159.024-.289.272-.289.248 0 .452.13.452.289 0 .159-.123.289-.273.289-.15 0-.353-.13-.451-.289z" fill="#b2b2b2"/><path d="M0 157.44V0h217.76v314.88H0V157.44zm211.69 156.25a9.26 9.26 0 0 0 4.375-4.251l.673-1.35v-301l-.783-1.48c-.43-.814-1.382-2.007-2.115-2.65C211.237.671 221.64.877 108.61.88L7.39.884l-1.448.674c-2.113.985-3.185 2.01-4.182 4L.875 7.326v150.13c0 133.57.048 150.27.44 151.38.86 2.431 2.833 4.325 5.447 5.227 1.428.493 6.143.514 102.41.453l100.91-.063 1.612-.754zm-14.468-21.85c-.156-.596-1.475-6.673-2.933-13.505-1.457-6.832-2.71-12.482-2.783-12.556-.073-.074-.548-.269-1.056-.433-.975-.316-1.242-.896-.948-2.065.178-.707.182-.708 3.573-.627l3.394.082.09 1.231c.084 1.173.045 1.24-.811 1.411-.786.157-.881.276-.751.935.082.416.233 1.243.336 1.84l.187 1.082h3.28c1.805 0 3.341-.097 3.414-.216.073-.12.224-.946.335-1.836l.202-1.62-.914-.182c-.872-.174-.91-.237-.824-1.414l.089-1.231 3.692-.081 3.692-.081v1.278c0 1.355-.272 1.628-1.626 1.628-.39 0-.769.163-.842.361-.073.199-1.248 6.146-2.611 13.216-1.363 7.07-2.546 13.082-2.629 13.361-.118.4-.474.506-1.711.506-1.562 0-1.562 0-1.845-1.084zm3.289-12.817c.564-2.958 1.025-5.59 1.025-5.85 0-.4-.39-.47-2.606-.47-2.077 0-2.606.084-2.606.416 0 .525 2.266 11.419 2.497 12.005.29.737.597-.37 1.69-6.101zm-3.705-21.118c-1.652-.437-2.97-1.905-3.39-3.779-.425-1.895-.082-3.242 1.258-4.947.696-.885.769-1.084.33-.9-.309.13-1.074.42-1.7.646-4.563 1.648-7.85-4.123-4.716-8.282.906-1.202 1.982-1.735 3.504-1.737 1.851-.003 3.075.768 4.261 2.683.512.827.982 1.355 1.044 1.174.168-.49-.712-4.049-1.366-5.524-.314-.708-.499-1.403-.411-1.544.202-.327 6.12-.341 6.321-.016.083.133-.35 1.4-.96 2.816-1.06 2.462-1.677 4.453-1.377 4.453.077 0 .484-.585.904-1.3 1.828-3.113 5.9-3.297 8.077-.365.73.983 1 3.881.477 5.138-.485 1.17-1.79 2.22-3.245 2.61-1.005.27-1.462.23-2.882-.254-.928-.316-1.688-.526-1.688-.466s.412.692.916 1.406c1.207 1.707 1.44 3.877.594 5.53-.708 1.385-1.352 1.988-2.742 2.567-1.197.5-1.62.511-3.209.091zm-93.845-72.122c-.087-.14.243-1.14.733-2.218 1.496-3.292 2.504-6.264 3.139-9.258 1.095-5.167.772-8.981-.436-5.149-.283.899-.994 2.373-1.579 3.276-4.918 7.592-16.804 6.67-20.896-1.622-2.191-4.442-1.03-10.948 2.54-14.231 3.544-3.26 8.733-4.04 13.203-1.984 1.089.5 2.05.84 2.135.755.085-.085-.523-1.047-1.353-2.139-3.383-4.451-4.29-9.272-2.585-13.755.693-1.822 2.914-4.472 4.682-5.585 1.875-1.181 4.37-1.854 6.877-1.854 9.86 0 15.609 9.252 11.208 18.038-.562 1.121-1.677 2.797-2.478 3.723-2.094 2.421-1.943 2.848.479 1.357 3.35-2.064 7.545-2.238 11.278-.47 5.165 2.447 7.498 7.039 6.401 12.594-1.125 5.698-4.61 9.29-9.889 10.191-3.836.656-7.782-.666-10.594-3.549-1.6-1.64-2.084-2.404-3.188-5.028-1.647-3.919-1.127 2.353.729 8.786.527 1.827 1.425 4.343 1.996 5.592.57 1.248.966 2.386.878 2.527-.208.336-13.072.338-13.28.002zm-86.32-103.17c-.104-.168.29-1.417.875-2.777.585-1.359 1.125-2.944 1.2-3.522l.136-1.05-.593 1.067c-1.366 2.462-4.108 3.424-6.484 2.276-1.595-.77-2.15-1.576-2.541-3.683-.405-2.181.206-3.862 1.78-4.901 1.541-1.018 2.989-1.152 4.84-.448 1.581.6 1.605.544.427-1.022-2.807-3.73.201-9.002 4.748-8.322 1.51.226 3.177 1.533 3.773 2.958.806 1.923.218 4.977-1.18 6.135-.874.723-.446.847.891.257 3.435-1.516 6.518.59 6.574 4.49.026 1.828-.955 3.753-2.419 4.745-.835.566-1.283.666-2.546.564-1.888-.15-2.795-.783-4.073-2.84l-.972-1.566.16 1.493c.087.82.5 2.478.917 3.683.417 1.204.677 2.32.578 2.479-.243.393-5.847.378-6.09-.016zm-5.578-27.485c-.191-.19-.348-.635-.348-.987 0-1.197.309-1.555 1.34-1.555 1.238 0 1.317-.178 2.258-5.055 3.185-16.51 4.31-22.002 4.57-22.315.338-.407 2.198-.482 2.783-.112.228.144 1.54 5.644 3.248 13.62 1.577 7.36 2.969 13.478 3.093 13.597.125.119.553.26.95.313.651.086.725.228.725 1.396v1.3l-3.243.082c-3.036.076-3.263.043-3.566-.523-.178-.332-.24-.986-.137-1.454.148-.67.343-.85.93-.85.734 0 .74-.015.557-1.757-.101-.967-.258-1.877-.348-2.022-.234-.379-6.42-.338-6.657.044-.105.17-.26 1.08-.347 2.022-.152 1.682-.142 1.714.578 1.714.762 0 1.085.462 1.085 1.554 0 1.16-.511 1.334-3.91 1.334-2.113 0-3.333-.118-3.561-.346zm11.932-10.009c.165-.266-2.27-12.399-2.544-12.671-.091-.091-.229.015-.305.236-.33.957-2.354 12.048-2.254 12.348.13.39 4.865.47 5.103.087z" fill="#919191"/><path d="M0 157.44V0h217.76v314.88H0V157.44zm212.14 156.22c1.848-.972 3.687-3.022 4.286-4.775.413-1.209.456-15.592.456-151.45V7.315L216 5.553c-.99-1.977-2.365-3.322-4.315-4.222l-1.318-.608h-101.35c-99.198 0-101.38.011-102.79.553C4.336 2.004 2.25 3.985 1.4 5.861L.717 7.367.64 156.857c-.053 103.83.016 149.93.228 150.93.608 2.866 2.79 5.294 5.638 6.279 1.367.472 7.273.497 102.8.437l101.35-.063 1.484-.781zm-14.65-21.39c-.148-.357-1.455-6.305-2.906-13.216-1.45-6.911-2.753-12.849-2.894-13.195-.161-.393-.563-.664-1.07-.722-.738-.085-.812-.197-.812-1.249v-1.155l2.998-.083c3.376-.093 3.886.11 3.75 1.491-.066.664-.265.923-.812 1.055-.677.164-.72.282-.665 1.843.032.917.211 1.851.397 2.075.254.305 1.133.407 3.498.407 3.614 0 3.553.046 3.567-2.6.008-1.43-.057-1.597-.643-1.68-.752-.107-1.19-1.327-.735-2.047.24-.38.897-.461 3.734-.461h3.443v1.155c0 1.11-.04 1.16-1.013 1.249-.558.05-1.115.191-1.24.312s-1.392 6.23-2.818 13.575c-1.425 7.346-2.666 13.477-2.758 13.626-.092.149-.75.27-1.46.27-1.067 0-1.339-.112-1.561-.65zm3.057-12.858c.864-4.423 1.138-6.387.927-6.641-.373-.45-4.61-.496-5.053-.054-.218.217.066 2.137.964 6.541 1.27 6.226 1.455 6.914 1.77 6.6.09-.09.718-2.992 1.392-6.446zm-4.461-21.932c-2.91-1.43-3.57-5.52-1.317-8.147.574-.67.983-1.278.908-1.352-.075-.075-.71.123-1.41.44-3.142 1.422-5.948.172-6.619-2.949-.795-3.697 1.985-7.076 5.309-6.454 1.386.26 2.66 1.385 3.548 3.132.424.835.84 1.335.988 1.187.32-.318-.319-3.425-1.162-5.661-.344-.912-.544-1.79-.445-1.95.102-.164 1.385-.293 2.925-.293 3.164 0 3.38.173 2.46 1.973-1.026 2.007-2.12 5.585-1.805 5.9.19.19.516-.189.961-1.118 1.643-3.429 5.983-3.938 7.974-.936 1.016 1.531 1.119 4.403.202 5.641-1.628 2.197-3.929 2.69-6.498 1.39-.791-.4-1.437-.627-1.436-.505.001.122.458.792 1.013 1.49 1.758 2.205 1.978 4.432.636 6.42-1.45 2.147-4.012 2.883-6.232 1.792zm-92.861-71.741c-.101-.163.331-1.496.96-2.961 2.135-4.965 3.533-10.429 3.533-13.806 0-2.216-.725-2.133-1.444.165-1.375 4.392-5.264 7.74-9.535 8.208-8.427.925-14.975-5.622-13.66-13.658.695-4.237 2.875-7.294 6.397-8.966 1.75-.832 2.105-.894 5.067-.894 2.993 0 3.305.056 5.173.939 1.092.516 2.037.938 2.099.938.414 0-.075-1.005-1.18-2.425-1.725-2.217-2.671-4.22-3.223-6.825-1.432-6.765 2.961-13.001 10.007-14.206 5.518-.944 11.241 1.975 13.562 6.918.706 1.503.78 1.98.78 4.984 0 3.229-.029 3.382-1.05 5.488-.579 1.192-1.657 2.863-2.396 3.715-2.486 2.862-2.378 3.541.305 1.928 2.116-1.27 3.995-1.693 6.936-1.56 1.974.09 2.644.267 4.523 1.194 3.933 1.94 6.037 4.97 6.25 9.007.296 5.571-2.353 10.436-6.816 12.523-1.512.707-1.987.781-5 .781-3.067 0-3.462-.064-4.995-.815-2.793-1.368-4.689-3.347-6.185-6.458-1.534-3.188-2.015-3.276-1.74-.316.386 4.132 2.353 11.269 3.99 14.468.99 1.937 1.005 1.932-5.956 1.932-3.946 0-6.285-.109-6.402-.297zM16.737 82.459c-.086-.085.347-1.318.96-2.74 1.184-2.738 1.707-4.904 1.185-4.904-.167 0-.447.432-.621.96-.175.527-.772 1.399-1.328 1.936-.89.861-1.223.988-2.818 1.078-1.447.081-1.998-.018-2.765-.498-1.908-1.194-2.718-4.89-1.505-6.873 1.247-2.04 4.036-2.703 6.372-1.514 1.735.883 1.854.708.596-.88-1.778-2.244-1.955-4.835-.463-6.787 1.008-1.318 2.136-1.866 3.838-1.866 2.577 0 4.493 1.646 4.876 4.188.227 1.513-.176 2.858-1.333 4.453-.47.646-.854 1.244-.854 1.328 0 .084.516-.11 1.146-.43 1.746-.889 4.051-.802 5.241.197 3.916 3.287.538 10.606-4.178 9.053-1.153-.38-2.763-2.023-3.338-3.409-.574-1.38-1.01-1.178-.797.372.151 1.102 1.041 4.079 1.79 5.986.18.462-.064.505-2.825.505-1.663 0-3.094-.07-3.18-.155zM11.06 53.943c.085-1.173.135-1.232 1.103-1.32.557-.052 1.101-.182 1.21-.29.107-.107 1.32-6.045 2.693-13.194 1.374-7.15 2.565-13.227 2.647-13.505.115-.392.466-.506 1.56-.506.776 0 1.474.101 1.55.224.077.124 1.33 5.811 2.786 12.638 3.312 15.532 3.06 14.58 3.853 14.585 1.054.007 1.415.412 1.313 1.47l-.094.981h-6.66l-.09-1.087c-.084-1.013-.028-1.099.818-1.268l.908-.18-.2-1.477c-.341-2.525-.28-2.487-4.046-2.487-3.738 0-3.532-.144-3.687 2.58-.066 1.153-.001 1.297.65 1.456.61.148.739.368.814 1.392l.089 1.216H10.97l.09-1.228zm12.11-9.1c.008-.879-2.398-12.337-2.65-12.619-.132-.148-.293-.213-.358-.144-.13.137-2.498 12.404-2.498 12.939 0 .225.88.33 2.751.33 2.425 0 2.751-.06 2.755-.505z" fill="#6e6e6e"/><path d="M0 157.44V0h217.76v314.88H0V157.44zm212.5 156.15c1.72-.95 2.891-2.217 3.876-4.19l.654-1.308V7.372l-.759-1.615c-.974-2.073-2.852-3.866-4.818-4.6-1.538-.574-2.168-.577-103.1-.503L6.803.728l-1.448.768C3.48 2.492 2.24 3.81 1.322 5.783L.583 7.372.58 157.462c-.003 139.66.031 150.19.483 151.52.676 1.983 3.266 4.548 5.188 5.138 1.257.386 13.145.43 103.06.383l101.64-.053 1.551-.857zm-15.023-21.694c-.155-.408-.282-.86-.282-1.005 0-.328-5.163-24.495-5.382-25.192-.088-.278-.443-.508-.791-.51-1.004-.007-1.41-.42-1.307-1.327l.096-.835 3.275-.082 3.276-.082-.09 1.093c-.074.89-.215 1.11-.76 1.188-.895.126-.97.464-.553 2.505l.354 1.733 3.539.081c4.023.092 3.78.257 3.92-2.66.063-1.306.009-1.44-.655-1.601-.586-.142-.74-.38-.814-1.248l-.09-1.072h3.487c3.483 0 3.487.001 3.67.726.246.98-.323 1.586-1.491 1.586-.663 0-1.005.156-1.11.505-.082.278-1.266 6.29-2.63 13.361-1.365 7.07-2.54 13.017-2.611 13.216-.078.217-.656.361-1.45.361-1.15 0-1.355-.095-1.601-.74zm1.84-5.83c.3-.502 2.538-12.875 2.395-13.245-.21-.548-5.334-.588-5.544-.043-.076.199.45 3.278 1.168 6.842.718 3.565 1.306 6.522 1.306 6.571 0 .186.55.083.675-.126zm-2.564-28.4c-1.27-.37-2.655-1.942-3.066-3.481-.467-1.753.041-3.634 1.376-5.088 1.166-1.27.88-1.792-.526-.964-1.477.87-3.344 1.03-4.581.393-1.852-.952-2.854-4.119-2.01-6.352.813-2.151 3.237-3.522 5.248-2.968 1.17.322 2.794 1.943 3.392 3.385.214.515.586.937.826.937.593 0 .3-2.178-.672-4.986-.398-1.15-.752-2.222-.786-2.38-.038-.178 1.054-.29 2.833-.29 1.782 0 2.87.112 2.83.29-.036.158-.534 1.43-1.106 2.826-1.23 3.004-1.557 4.54-.964 4.54.221 0 .693-.618 1.049-1.373.852-1.806 1.826-2.472 3.825-2.61 1.324-.093 1.783.007 2.619.568 1.357.913 2.026 2.326 2.025 4.281 0 2.04-.75 3.311-2.393 4.055-1.666.754-2.371.709-4.482-.287-1.275-.602-1.81-.74-1.81-.469 0 .212.218.564.484.782.266.218.852.975 1.303 1.681 1.628 2.552.806 5.864-1.777 7.165-1.358.684-2.193.763-3.637.344zm-93.461-72.095c-.1-.1.01-.551.245-1.003 1.847-3.563 3.663-9.514 4.187-13.72.522-4.195-.361-4.867-1.741-1.324-1.844 4.733-5.28 7.415-9.952 7.768-5.143.388-9.894-2.299-12.003-6.787-.701-1.493-.776-1.973-.776-4.99 0-3.273.02-3.379 1.084-5.525 1.284-2.59 2.718-3.986 5.396-5.252 1.752-.828 2.168-.906 4.813-.906 2.666 0 3.053.074 4.883.938 2.037.963 2.79 1.144 2.79.67 0-.149-.714-1.218-1.587-2.376s-1.941-2.954-2.374-3.99c-.682-1.638-.787-2.287-.794-4.92-.007-2.488.11-3.326.646-4.664 2.043-5.096 8.113-8.21 13.726-7.042 5.106 1.062 8.442 4.051 9.68 8.673 1.087 4.06-.092 8.248-3.485 12.373-2.338 2.843-2.097 3.604.617 1.953 5.875-3.576 13.649-1.338 16.749 4.82.74 1.473.831 1.951.832 4.397 0 4.285-1.203 7.185-4.063 9.793-3.995 3.642-10.238 3.855-14.798.506-1.876-1.377-3.38-3.434-4.419-6.038-.638-1.602-1.307-2.114-1.638-1.255-.225.586.947 7.233 1.783 10.107.39 1.346 1.175 3.528 1.743 4.85l1.188 2.764c.122.283-1.225.361-6.198.361-3.494 0-6.434-.081-6.534-.18zm-86.42-103.46c.084-.278.61-1.61 1.17-2.96 1.074-2.592 1.398-4.111.917-4.308-.16-.065-.568.449-.909 1.142-.735 1.499-1.923 2.518-3.218 2.763-2.483.469-4.705-.946-5.287-3.367-.453-1.88-.177-3.228.913-4.466 1.529-1.737 3.739-1.99 6.144-.704 1.663.889 1.82.561.494-1.036-1.519-1.83-1.948-3.29-1.486-5.046.636-2.413 2.67-3.908 5.01-3.684 2.498.24 4.024 1.868 4.215 4.497.132 1.827-.453 3.426-1.647 4.503-1.167 1.054-.714 1.35.91.595 3.469-1.61 6.2-.247 6.734 3.362.267 1.805-.691 4.064-2.14 5.046-2.287 1.55-4.996.627-6.528-2.226-1.032-1.92-1.015-1.902-1.296-1.45-.305.494.14 2.883 1.008 5.411.386 1.124.702 2.132.702 2.239 0 .107-1.318.195-2.93.195-2.654 0-2.914-.048-2.776-.506zm-5.76-27.34c-.09-.233-.12-.723-.067-1.09.075-.522.332-.705 1.185-.842.599-.097 1.16-.247 1.247-.333.086-.087 1.32-6.16 2.74-13.494 1.42-7.335 2.659-13.46 2.752-13.61.248-.4 2.334-.331 2.66.09.153.198 1.536 6.26 3.073 13.472s2.942 13.29 3.122 13.505c.18.217.644.394 1.033.394.638 0 .697.103.616 1.083l-.09 1.083-3.105.082-3.105.082-.184-.731c-.252-1.002.008-1.537.802-1.65.629-.088.665-.206.597-1.942-.04-1.017-.219-2.024-.398-2.239-.477-.574-6.418-.552-6.899.025-.19.229-.369 1.228-.397 2.22-.049 1.704-.011 1.814.672 1.98.599.146.724.35.724 1.175v.998l-3.408.081c-2.773.067-3.438.003-3.57-.34zm11.984-9.492c.211-.254-.074-2.216-.968-6.652-1.284-6.37-1.61-7.5-1.99-6.887-.252.406-2.482 11.966-2.482 12.864 0 .358.086.738.193.843.36.36 4.93.214 5.247-.168z" fill="#4e4e4e"/><path d="M0 157.44V0h217.76v314.88H0V157.44zm212.43 156.37c1.778-.949 3.799-3.342 4.313-5.108.384-1.316.426-18.95.36-151.7l-.073-150.21-.773-1.463c-.905-1.71-2.705-3.425-4.4-4.193-1.164-.527-4.012-.542-102.98-.546L7.098.586l-1.447.675c-2.113.984-3.185 2.01-4.182 4L.583 7.027v150.41c0 135.27.045 150.54.45 151.72.789 2.31 3.237 4.627 5.445 5.155.5.12 46.776.198 102.84.174l101.93-.044 1.19-.636zm-14.8-21.82c-.085-.357-1.384-6.413-2.886-13.457-1.503-7.044-2.885-12.991-3.072-13.216-.187-.225-.65-.409-1.028-.409-.595 0-.689-.138-.689-1.02v-1.021l3.113.082 3.113.082v.862c0 .636-.153.89-.58.967-.963.174-1.084.499-.87 2.342.292 2.508.467 2.617 4.186 2.617 3.753 0 3.87-.084 3.902-2.817.02-1.811-.017-1.924-.702-2.09-.57-.137-.724-.356-.724-1.028v-.853h6.66l.09.938c.087.895.045.94-.905.94-.548 0-1.144.177-1.325.394-.18.218-1.437 6.165-2.792 13.216-1.355 7.052-2.588 13.113-2.741 13.471-.222.52-.51.65-1.437.65-.963 0-1.185-.11-1.313-.65zm1.882-5.633c0-.12.578-3.204 1.284-6.854.92-4.763 1.196-6.742.977-7.005-.206-.247-1.146-.368-2.862-.368-2.063 0-2.608.09-2.821.471-.218.388 1.221 8.348 2.408 13.322.14.586 1.011.959 1.014.434zm-3.413-29.151c-1.276-.628-2.137-1.905-2.309-3.428-.214-1.898.123-3.098 1.237-4.396 1.55-1.806 1.157-2.416-.794-1.23-.626.382-1.46.577-2.458.578-1.27.001-1.67-.138-2.512-.876-2.695-2.361-1.418-7.891 1.968-8.525 2.232-.418 3.946.6 5.082 3.02.65 1.383 1.215 1.813 1.59 1.208.224-.363-.562-3.967-1.273-5.835-.322-.845-.478-1.644-.346-1.776.132-.131 1.336-.2 2.675-.154 1.963.068 2.423.168 2.38.518-.03.238-.515 1.542-1.077 2.897-1.168 2.819-1.425 4.397-.738 4.54.297.062.684-.417 1.158-1.434.568-1.22.97-1.656 2.003-2.176 1.588-.799 2.382-.815 3.907-.078 1.463.706 2.186 1.88 2.37 3.843.36 3.874-3.145 5.978-6.845 4.107-2.397-1.211-2.644-.89-.879 1.144 1.9 2.19 2.189 4.302.88 6.442-1.192 1.95-3.87 2.667-6.019 1.611zm-92.555-71.702c-.086-.139.365-1.45 1.002-2.915 2.166-4.984 3.635-11.08 3.413-14.166-.077-1.067-.196-1.3-.663-1.3-.44 0-.739.46-1.322 2.038-1.32 3.568-3.115 5.662-5.98 6.975-3.222 1.479-6.959 1.418-10.371-.167-5.862-2.723-8.134-9.897-5.089-16.068 2.687-5.446 9.372-7.54 15.272-4.786 1.044.487 2.014.886 2.155.886.61 0 .173-1.299-.856-2.548-4.777-5.8-4.951-13.022-.423-17.539 4.85-4.838 13.282-4.737 17.924.214 4.299 4.585 4.066 11.887-.547 17.13-1.67 1.896-2.098 2.703-1.664 3.135.248.248.599.165 1.402-.33 4.155-2.564 8.346-2.88 12.236-.92 2.46 1.24 3.87 2.629 5.045 4.97.918 1.83 1.018 2.265 1.012 4.377-.01 2.82-.334 4.35-1.379 6.482-3.34 6.813-12.546 8.314-18.333 2.988-1.06-.976-1.84-2.106-2.824-4.093-2.119-4.276-2.844-3.47-1.913 2.126.575 3.454 2.049 8.486 3.298 11.262.489 1.088.816 2.095.727 2.239-.208.336-11.914.345-12.122.009zm-86.35-103.06c-.213-.087.007-.903.637-2.36 1.184-2.743 1.728-4.724 1.476-5.379-.266-.692-.732-.314-1.342 1.089-.825 1.896-1.767 2.584-3.733 2.726-2.128.153-3.301-.408-4.094-1.958-.704-1.377-.767-3.72-.133-4.944 1.075-2.074 3.84-2.581 6.631-1.216.875.428 1.674.695 1.776.594.101-.102-.44-.979-1.205-1.95-1.226-1.557-1.403-1.959-1.498-3.41-.192-2.944 1.578-4.968 4.343-4.968 2.68 0 4.312 1.377 4.731 3.99.245 1.53-.42 3.387-1.623 4.537-1.522 1.455-.897 2.125.94 1.007 1.35-.821 3.921-.797 4.998.048 2.332 1.83 2.048 6.253-.524 8.157-1.117.826-3.328.827-4.446.002-.45-.332-1.278-1.356-1.84-2.277-.563-.92-1.15-1.624-1.304-1.563-.526.207-.21 2.716.656 5.226.717 2.074.794 2.536.449 2.668-.495.19-4.425.174-4.895-.019zm-5.846-28.492c.082-.857.185-.947 1.175-1.029.835-.068 1.121-.235 1.243-.722.087-.348 1.295-6.482 2.684-13.632l2.526-12.999 1.37-.088c.755-.048 1.372-.014 1.372.076 0 .524 5.55 26.121 5.775 26.64.169.387.587.665 1.086.722.681.078.827.245.903 1.032l.09.939H23.13l.09-.927c.07-.717.256-.966.815-1.096.883-.204.983-.785.499-2.888l-.367-1.589-3.526-.08c-4.078-.094-4.01-.138-4.177 2.663-.097 1.628-.065 1.724.622 1.889.557.133.744.386.814 1.1l.091.928H11.257l.09-.939zm12.007-8.749c.205-.533-2.407-13.44-2.8-13.832-.151-.15-.347-.202-.435-.115-.29.29-2.787 13.576-2.629 13.988.237.615 5.626.577 5.864-.04z" fill="#2e2e2e"/><path d="M0 157.44V0l108.88.002 108.88.002v314.88H0v-157.44zm212.68 156.53c1.374-.754 2.986-2.47 3.769-4.01l.72-1.416-.004-150.88-.003-150.88-.677-1.444c-.756-1.614-2.89-3.73-4.393-4.356-.847-.353-15.458-.41-103.43-.408L6.222.579l-1.48.847c-1.623.929-2.732 2.098-3.6 3.796-.56 1.093-.566 2.91-.566 152.36 0 149.45.007 151.26.565 152.36 1.18 2.309 3.108 4.028 4.911 4.382.572.112 47.101.185 103.4.163 94.54-.037 102.43-.076 103.23-.517zm-14.764-21.966c-.14-.39-1.352-5.955-3.92-18-2.034-9.547-1.85-8.967-2.96-9.285-.651-.186-.942-.445-.942-.836 0-.522.24-.574 2.968-.65 2.934-.081 2.968-.074 2.968.587 0 .484-.25.763-.904 1.01l-.903.34.207 1.654c.272 2.17.603 2.984 1.23 3.026 1.394.094 6.828-.026 6.957-.154.22-.22.625-2.492.64-3.589.01-.81-.126-1.016-.857-1.291-.615-.232-.868-.52-.868-.986 0-.646.062-.659 3.185-.659 3.159 0 3.185.006 3.185.685 0 .575-.185.715-1.148.869-1.386.22-1.08-.807-3.491 11.735a4143.77 4143.77 0 0 1-2.432 12.566l-.626 3.177-1.076.09c-.694.058-1.125-.045-1.213-.289zm1.511-5.217c.32-.41 2.691-12.646 2.687-13.866l-.003-.795h-6.371v.812c0 .727 2.427 12.96 2.748 13.85.071.198.248.36.393.36.145 0 .39-.162.546-.36zm-2.094-29.367c-2.188-.543-3.413-2.145-3.413-4.467 0-1.649.506-2.85 1.648-3.915 1.565-1.458.564-2.337-1.34-1.178-1.428.868-3.69.792-4.827-.162-1.523-1.278-1.884-3.73-.86-5.84.748-1.541 2.011-2.372 3.61-2.373 1.667-.001 2.964.962 3.992 2.968.601 1.173 1.014 1.653 1.423 1.653.53 0 .562-.14.405-1.806-.094-.993-.503-2.78-.909-3.972-.406-1.191-.74-2.199-.74-2.239-.001-.04 1.114-.072 2.478-.072 2.76 0 2.75-.013 1.65 2.142-.76 1.487-1.524 3.987-1.524 4.98 0 .776.115.967.582.967.427 0 .769-.419 1.277-1.565.815-1.84 1.723-2.52 3.586-2.694 2.455-.228 4.4 1.782 4.398 4.548-.002 3.46-3.271 5.116-6.635 3.361-.803-.419-1.658-.762-1.9-.762-.733 0-.494.997.456 1.896 2.7 2.56 2.604 6.354-.202 7.978-1.108.642-2.094.815-3.155.552zm-93.673-72.075c0-.066.436-1.138.969-2.384 2.019-4.72 3.169-8.993 3.526-13.102.149-1.71.096-2.282-.254-2.739-.659-.86-1.3-.303-2.06 1.791-.84 2.317-2.257 4.491-3.633 5.58-5.837 4.61-14.605 2.638-17.754-3.994-.84-1.77-.918-2.177-.918-4.821 0-3.985.752-5.98 3.169-8.403 3.512-3.523 8.495-4.205 13.377-1.833 2.837 1.38 3.241.557 1.087-2.208-3.775-4.844-4.598-10.08-2.29-14.567 2.465-4.792 8.788-7.234 14.3-5.522 4.69 1.456 7.452 4.622 8.196 9.393.56 3.594-.594 7.138-3.397 10.434-2.045 2.405-2.332 2.976-1.777 3.53.388.387.669.306 2.562-.736 2.747-1.512 5.318-2.023 7.83-1.557 3.796.704 6.919 3.013 8.486 6.275.717 1.494.827 2.057.815 4.182-.032 5.58-2.682 9.798-7.287 11.596-2.296.897-5.912.892-8.225-.01-3.18-1.24-5.989-4.15-7.033-7.285-.566-1.703-1.383-2.513-2.01-1.994-.573.474-.556 1.142.135 5.18.783 4.576 1.462 6.79 3.973 12.951.115.282-1.161.361-5.82.361-3.282 0-5.967-.053-5.967-.119zm-86.3-103.28c0-.157.458-1.39 1.018-2.74 1.247-3.005 1.577-4.895.9-5.154-.558-.214-.867.112-1.712 1.807-.902 1.808-1.929 2.476-3.775 2.457-2.614-.028-3.939-1.53-4.019-4.555-.05-1.94.692-3.101 2.431-3.795 1.47-.587 2.734-.412 4.5.62 1.158.677 2.105.74 2.105.14 0-.142-.501-.828-1.114-1.526-1.537-1.751-1.849-2.436-1.849-4.063 0-2.762 2.27-4.827 4.875-4.438 2.22.332 3.88 2.238 3.88 4.455 0 1.584-.434 2.593-1.65 3.84-.655.674-.97 1.23-.86 1.517.24.622.68.571 2.341-.27 1.635-.827 2.391-.888 3.79-.304 1.448.603 2.167 1.952 2.168 4.066.001 1.385-.147 1.958-.73 2.814-1.96 2.876-5.212 2.547-7.058-.712-1.452-2.562-1.352-2.461-1.903-1.932-.424.407-.442.686-.152 2.283.182 1 .63 2.64.994 3.643.366 1.004.595 1.894.51 1.979-.284.284-4.69.16-4.69-.132zm-5.972-27.581c-.316-.82.121-1.31 1.168-1.31.553 0 1.088-.132 1.188-.294.187-.303 1.053-4.612 3.759-18.706.862-4.492 1.646-8.294 1.743-8.45.252-.407 1.802-.348 2.077.079.128.198 1.498 6.255 3.045 13.459 1.546 7.204 2.963 13.28 3.149 13.505.186.223.648.406 1.027.406.572 0 .688.147.688.867v.866h-5.791v-.866c0-.655.133-.867.544-.867 1.007 0 1.208-.613.862-2.622-.177-1.02-.45-2.018-.61-2.217-.337-.422-6.771-.51-7.42-.1-.276.174-.408.94-.434 2.505-.035 2.178-.012 2.26.688 2.43.528.127.724.367.724.884 0 .704-.023.71-3.119.79-2.586.069-3.147.008-3.288-.36zm12.235-8.959c.184-.479-2.404-13.57-2.85-14.412-.593-1.122-1.079.33-2.387 7.149-1.008 5.25-1.246 6.993-.995 7.294.49.59 6.003.563 6.232-.03z" fill="#020202"/></svg>