<svg xmlns="http://www.w3.org/2000/svg" height="335.872" width="232.267" viewBox="0 0 217.74999 314.88007"><path d="M0 157.44V0h217.75v314.88H0V157.44z" fill="#fdfdfd"/><path d="M0 157.44V0h217.75v314.88H0V157.44zm211.9 155.69c1.94-.967 3.245-2.375 4.042-4.362.476-1.185.503-9.47.503-151.04 0-142.57-.025-149.85-.513-151.25-.625-1.786-2.432-3.732-4.238-4.566l-1.33-.614-101.06-.075c-94.759-.07-101.16-.044-102.65.42-2.203.686-4.408 2.875-5.043 5.01-.415 1.395-.458 15.525-.458 151.09 0 133.05.048 149.69.44 150.79.802 2.267 2.78 4.273 4.988 5.06.9.32 18.503.389 102.31.4l101.23.012 1.773-.884zM3.66 299.08c-.326-.325-.199-.666.25-.666.238 0 .434.122.434.272 0 .364-.453.625-.684.394zm187.17-6.034c-1.436-.622-2.026-1.225-2.798-2.865-.673-1.43-.68-1.541-.68-11.7-.002-5.987.119-10.69.289-11.3.79-2.836 2.881-4.298 6.149-4.298 2.954 0 4.848 1.144 5.85 3.533.377.902.446 2.763.44 11.84-.005 9.867-.05 10.867-.542 11.925-.624 1.345-1.858 2.578-3.017 3.015-1.18.445-4.52.356-5.691-.15zm4.536-3.995l.812-.697.085-9.63c.047-5.297.01-9.927-.08-10.289-.282-1.128-1.2-1.798-2.466-1.798-1.382 0-2.204.695-2.462 2.079-.098.525-.138 5.158-.089 10.297l.09 9.341.812.697c1.038.89 2.26.89 3.298 0zm7.635 3.907c-.482-.897-.422-28.943.063-29.605.292-.397.71-.487 1.955-.416l1.584.09v30.331l-1.648.086c-1.397.074-1.694 0-1.954-.486zm-148.24-13.79c-5.061-1.358-8.501-5.203-9.3-10.397-.575-3.733.677-7.651 3.515-11 .77-.908 1.367-1.685 1.326-1.726-.04-.04-.853.31-1.804.78-5.017 2.473-10.674 1.392-14.595-2.79-2.446-2.607-3.015-4.251-2.843-8.208.172-3.932 1.057-6.247 3.325-8.69 5.979-6.443 16.47-4.646 20.443 3.501 1.214 2.488 1.258 2.331.51-1.804-.694-3.844-1.774-7.42-3.28-10.873-.965-2.21-1.106-2.747-.773-2.957.45-.285 12.978-.367 13.702-.09.635.244.584.57-.43 2.707-1.985 4.186-3.488 9.503-3.88 13.729-.176 1.893-.2 1.918 1.18-1.237.863-1.971 3.46-4.677 5.398-5.623 6.808-3.326 15.416.195 17.582 7.19 1.434 4.631.227 9.738-3.083 13.044-3.432 3.428-8.87 4.374-13.577 2.362l-1.335-.571 1.003 1.372c4.502 6.163 4.476 13.001-.067 17.793-.802.847-2.089 1.881-2.859 2.3-2.925 1.588-6.924 2.056-10.158 1.188zm98.04.023c-9.61-2.635-12.635-13.923-5.773-21.54.677-.75 1.231-1.442 1.231-1.535 0-.094-.75.21-1.665.673-3.533 1.788-7.195 1.802-10.967.04-5.113-2.386-7.608-7.418-6.49-13.088 1.084-5.495 4.596-9.196 9.711-10.238 2.727-.554 5.365-.23 7.927.973 2.187 1.027 4.9 3.77 6.084 6.15l.933 1.878-.184-1.733c-.394-3.718-2.12-9.8-3.745-13.197-1.346-2.815-1.639-2.691 6.363-2.691h6.945l-.037.722c-.02.397-.634 2.152-1.364 3.9-1.576 3.77-2.69 7.792-3.042 10.977-.257 2.329-.214 3 .127 1.991.675-1.997 2.014-4.352 3.181-5.597 5.712-6.092 16.552-4.271 20.19 3.392.88 1.853.925 2.114.925 5.414 0 3.337-.037 3.544-.983 5.558-2.73 5.811-9.4 8.403-15.45 6.002-.916-.363-1.665-.628-1.665-.588 0 .04.574.927 1.275 1.97 2.149 3.196 2.618 4.73 2.627 8.579.007 3.144-.042 3.426-.917 5.27-2.581 5.434-9.229 8.366-15.236 6.718zm42.557-20.77c-2.979-1.1-4.37-4.358-3.222-7.539.23-.635.419-1.175.421-1.2.002-.024-.747-.027-1.665-.005-2.163.05-3.458-.667-4.339-2.401-1.348-2.654-.564-6.222 1.695-7.714 2.196-1.449 5.032-1.04 6.603.952.867 1.099.805.263-.185-2.527-.436-1.227-.686-2.337-.556-2.467.31-.309 4.843-.496 6.136-.254 1.227.23 1.29.767.316 2.699-.377.75-.78 1.665-.895 2.034-.208.671-.208.671.988-.118.94-.621 1.555-.795 2.876-.813 2.066-.028 3.522.832 4.382 2.59.755 1.543.774 4.236.04 5.618-.963 1.808-3.71 2.841-5.918 2.226l-.806-.224.589 1.152c1.303 2.548.434 6.108-1.832 7.505-1.296.8-3.23 1.002-4.628.485zm-89.258-9.735c-3.103-.39-5.362-1.444-7.583-3.54-4.999-4.717-5.094-12.21-.23-18.166.73-.893 1.326-1.696 1.326-1.783 0-.088-.424.1-.941.418-1.429.878-4.444 1.725-6.112 1.717-4.706-.022-9.266-2.809-11.259-6.88-.877-1.793-.939-2.119-.92-4.812.041-5.667 2.463-9.806 7.064-12.074 1.784-.88 2.04-.925 5.227-.925 3.29 0 3.391.02 5.553 1.086 2.623 1.293 4.824 3.52 6.066 6.136 1.02 2.148 1.08 1.487.253-2.767-.662-3.41-1.997-7.66-3.21-10.222-.969-2.044-1.048-2.618-.395-2.868.594-.228 12.225-.222 13.08.007.878.235.823.81-.319 3.32-1.942 4.27-3.655 10.562-3.647 13.397l.004 1.445.572-1.59c1.188-3.302 3.348-5.66 6.55-7.15 2.341-1.09 6.17-1.26 9.012-.398 5.274 1.598 8.517 6.018 8.524 11.618.005 4.253-1.471 7.668-4.31 9.97-2.32 1.88-4.314 2.535-7.773 2.553-2.57.014-3.087-.074-4.595-.777-.935-.437-1.754-.793-1.82-.793-.065 0 .393.682 1.017 1.516 2.516 3.36 3.378 6.138 3.171 10.216-.155 3.06-.976 5.044-3.031 7.324-2.703 3-7.059 4.554-11.275 4.024zm-50.07-30.87c-3.243-.712-5.523-1.94-7.487-4.035-4.66-4.97-4.204-12.869 1.065-18.431.489-.516.813-.939.72-.939-.093 0-1.054.413-2.134.917-6.993 3.265-15.815-1.054-17.153-8.396-.353-1.935 0-5.17.793-7.287 1.266-3.376 3.31-5.594 6.552-7.108 1.551-.725 2.026-.803 4.903-.803 2.98 0 3.31.06 5.132.92a13.678 13.678 0 0 1 6.875 7.246c.795 1.952.746.774-.15-3.652-.847-4.174-2.03-7.897-3.326-10.458-.493-.974-.827-1.953-.742-2.174.127-.33 1.424-.403 7.097-.403 4.384 0 7.008.108 7.123.293.1.161-.472 1.819-1.27 3.683-1.653 3.859-2.467 6.587-3.081 10.323-.637 3.878-.547 3.998.857 1.136 2.218-4.521 5.542-6.778 10.32-7.005 7.052-.337 12.708 4.39 13.213 11.042.783 10.323-8.164 16.516-17.973 12.443-.367-.153-.192.225.553 1.191 2.269 2.947 3.525 6.942 3.24 10.305-.524 6.203-5.504 10.88-12.052 11.32-1.054.07-2.438.013-3.075-.126zm97.454-.166c-6.103-1.32-10.136-6.101-10.148-12.03-.007-3.496 1.142-6.544 3.607-9.564 1.444-1.768 1.452-1.954.043-1.092-2.767 1.692-7.628 1.921-10.728.505-3.503-1.6-5.75-3.9-6.852-7.015-1.057-2.985-.385-8.127 1.45-11.107 3.67-5.957 11.558-7.541 17.608-3.535 1.923 1.273 3.259 2.88 4.405 5.296 1.077 2.273 1.135 1.734.289-2.715-.658-3.46-2.209-8.41-3.32-10.598-1.381-2.72-1.713-2.583 6.244-2.583 6.015 0 6.982.061 7.13.448.095.246-.228 1.318-.718 2.383-2.103 4.576-3.324 8.78-3.772 12.988-.245 2.302-.109 2.36.66.28.732-1.986 2.832-4.626 4.56-5.732 2.187-1.4 4.099-1.97 6.655-1.98 3.86-.016 7.097 1.338 9.612 4.02 2.111 2.252 2.889 4.196 3.03 7.582.247 5.858-2.121 9.977-7.062 12.285-1.553.725-2.022.802-4.903.799-2.685-.003-3.407-.105-4.605-.653-.781-.358-1.455-.616-1.497-.574-.043.043.507.95 1.222 2.019 1.794 2.68 2.485 4.74 2.64 7.877.105 2.138.016 2.93-.5 4.454-1.478 4.36-4.843 7.284-9.528 8.274-2.329.493-3.114.488-5.523-.033zm-102.22-63.09c-.348-.222-.368-.43-.108-1.082.178-.444.856-2.11 1.506-3.703s1.51-4.127 1.912-5.633c.781-2.933 1.36-7.215.974-7.215-.13 0-.235.177-.235.394 0 .217-.456 1.304-1.013 2.416-2.385 4.756-7.412 7.314-12.702 6.464-7.068-1.135-11.573-7.098-10.59-14.019.421-2.97 1.294-4.898 3.097-6.841 1.843-1.986 3.556-2.957 6.357-3.605 2.805-.65 4.866-.364 8.584 1.186.372.155.21-.204-.526-1.166-2.469-3.227-3.459-6.258-3.291-10.076.097-2.2.265-2.948 1.03-4.577 3.61-7.694 14.475-9.611 20.776-3.667 1.903 1.797 2.89 3.4 3.478 5.648 1.148 4.398-.044 9.184-3.169 12.723-.724.82-1.317 1.559-1.317 1.64 0 .083.743-.223 1.65-.68 3.63-1.826 7.366-1.777 11.286.15 3.622 1.779 6.094 5.234 6.392 8.932.795 9.88-7.613 16.82-16.627 13.726-3.038-1.042-5.567-3.32-7.209-6.49l-1.043-2.014.186 1.589c.484 4.136 2.122 9.988 3.674 13.127 1.492 3.016 1.738 2.894-5.981 2.976-3.845.041-6.842-.045-7.09-.203zm97.676-.173c-.096-.248.29-1.45.857-2.673 2.094-4.514 3.396-9.137 3.8-13.488.174-1.885.218-1.932-1.165 1.229-.832 1.903-3.304 4.539-5.115 5.454-2.177 1.101-4.722 1.645-6.724 1.438-8.452-.875-13.44-8.048-11.202-16.107 1.32-4.75 4.536-7.653 9.574-8.641 2.116-.416 5.148-.033 7.065.89.65.314 1.234.571 1.298.571.063 0-.336-.617-.888-1.372-4.562-6.245-4.48-13.342.208-17.996 4.494-4.46 11.843-4.973 17.28-1.206 1.827 1.266 3.803 4.017 4.452 6.2.644 2.162.572 5.914-.155 8.067-.576 1.707-2.23 4.606-2.841 4.983-.166.102-.575.57-.91 1.039l-.609.853 1.808-.852c2.702-1.275 4.598-1.592 7.163-1.197 3.005.462 5.372 1.672 7.38 3.772 2.172 2.271 2.86 3.843 3.027 6.916.392 7.192-3.674 12.68-10.319 13.93-5.257.99-11.058-2.146-13.54-7.32l-1.007-2.096.18 1.589c.473 4.187 2.105 9.95 3.945 13.934.771 1.668.855 2.042.509 2.26-.229.145-3.45.265-7.157.267-5.842.004-6.764-.055-6.915-.446zM100.013 123.5c-.09-.235.353-1.633.986-3.106 1.66-3.865 2.861-7.805 3.237-10.623.18-1.35.368-2.748.42-3.105.155-1.096-.294-.722-.68.565-.201.67-.793 1.872-1.314 2.673-3.492 5.361-10.11 7.11-16.076 4.247-2.129-1.02-4.744-3.64-5.73-5.74-.723-1.54-.785-1.96-.785-5.284 0-3.502.03-3.674.982-5.703 1.177-2.505 3.152-4.495 5.678-5.722 1.625-.79 1.96-.844 5.212-.843 2.969 0 3.674.092 4.85.635.756.35 1.375.561 1.375.47 0-.09-.374-.638-.83-1.217-2.92-3.698-3.967-8.874-2.649-13.083.677-2.161 1.245-3.07 3.089-4.943 5.95-6.045 17.054-4.232 20.836 3.403 2.323 4.69 1.445 10.289-2.33 14.856-.716.866-1.27 1.606-1.232 1.644.038.038.908-.345 1.934-.852 1.77-.876 2.03-.922 5.205-.922 3.212 0 3.418.037 5.36.984 3.967 1.934 6.426 5.343 6.72 9.315.763 10.332-8.617 17.293-17.708 13.14-2.3-1.05-4.856-3.589-6.123-6.082l-1.041-2.047.199 1.733c.453 3.961 1.957 9.37 3.624 13.04 1.467 3.227 1.944 2.993-6.087 2.993-5.87 0-6.984-.067-7.122-.427zM51.07 92.574c-.094-.245.308-1.491.894-2.77 2.023-4.415 3.66-10.454 3.622-13.356l-.015-1.196-.587 1.444c-2.021 4.974-6.286 7.945-11.406 7.945-3.758 0-7.028-1.386-9.506-4.03-2.039-2.173-2.88-4.21-3.032-7.348-.29-5.947 2.014-10.123 6.847-12.407 1.809-.855 2.14-.914 5.12-.91 2.685.002 3.407.104 4.604.653.782.357 1.455.615 1.498.573.042-.042-.488-.921-1.179-1.953-1.91-2.854-2.513-4.615-2.681-7.83-.113-2.17-.033-3.117.366-4.333 1.535-4.682 5.329-7.825 10.452-8.66 4.765-.776 10.256 1.546 12.833 5.427 3.218 4.847 2.606 11.246-1.564 16.354-1.443 1.767-1.45 1.953-.041 1.091 1.73-1.059 4.153-1.556 6.779-1.393 2.032.127 2.782.324 4.562 1.202 2.658 1.31 4.594 3.213 5.753 5.653.815 1.715.892 2.131.885 4.768-.012 4.505-1.239 7.38-4.365 10.23-2.028 1.85-4.146 2.668-7.363 2.843-2.107.115-2.774.03-4.549-.587-3.588-1.244-6.03-3.507-7.74-7.173-.628-1.345-.728-1.446-.73-.737-.009 2.52 2.012 10.13 3.63 13.672 1.62 3.548 2.12 3.273-5.958 3.273-5.996 0-6.983-.061-7.13-.444zm97.898.07c-.08-.207.269-1.28.774-2.384 1.972-4.315 3.424-9.394 3.877-13.564l.188-1.733-1.308 2.62c-1.548 3.1-3.1 4.669-5.923 5.988-2.65 1.237-6.229 1.435-9.029.498-3.689-1.234-6.048-3.279-7.633-6.615-.851-1.793-.908-2.114-.894-5.091.011-2.622.132-3.481.69-4.911.922-2.36 2.324-4.201 4.143-5.444 2.063-1.409 3.69-1.944 6.483-2.13 2.218-.15 4.195.224 6.717 1.267.211.087-.09-.461-.67-1.22-2.903-3.793-3.96-8.296-2.9-12.353.628-2.41 1.455-3.852 3.216-5.609 5.124-5.112 14.002-4.885 19.038.486 2.08 2.217 2.863 4.184 3.02 7.582.105 2.282.016 3.172-.48 4.802-.621 2.04-2.288 4.84-3.632 6.098-1.195 1.119-.885 1.14 1.248.083 4-1.98 8.996-1.514 12.665 1.184 3.25 2.39 4.722 5.195 4.734 9.021.017 5.716-2.584 10.2-7.168 12.36-1.82.857-2.156.917-5.132.917-2.98 0-3.31-.06-5.132-.92-3.134-1.481-5.525-3.993-6.895-7.246l-.576-1.367.17 1.59c.468 4.332 2.224 10.547 3.947 13.967.468.93.782 1.873.696 2.095-.22.572-14.015.6-14.235.028zm-134.49-10.03c0-.324.308-1.201.686-1.95.378-.75.776-1.653.886-2.006l.2-.643-1.248.711c-2.335 1.332-5.251.827-6.78-1.173-.706-.923-.848-1.41-.94-3.218-.097-1.924-.032-2.245.668-3.3 1.226-1.848 3.817-2.743 5.785-1.997.89.338.88.398.164-1.003-.375-.734-.58-1.704-.58-2.75 0-4.402 4.726-6.931 8.408-4.5 2.106 1.39 2.923 4.705 1.754 7.119l-.553 1.14 1.499-.175c2.933-.344 5.093 1.425 5.338 4.373.198 2.388-.13 3.507-1.442 4.928-2.064 2.234-4.46 2.36-6.746.353-1.535-1.348-1.614-1.114-.584 1.735 1.125 3.11 1.29 2.943-2.896 2.943-3.446 0-3.62-.028-3.62-.588zM9.483 54.866c-.473-.274-.507-1.306-.507-15.147 0-14.389.017-14.862.56-15.152.308-.164 1.015-.299 1.572-.299 2.01 0 1.922-.702 1.922 15.455 0 16.204.095 15.463-1.975 15.446-.586-.005-1.294-.141-1.572-.303zm10.428.025c-1.524-.458-2.734-1.443-3.502-2.85l-.773-1.419.008-10.938c.008-10.833.014-10.95.673-12.238 1.317-2.573 4.486-3.761 7.711-2.891 1.654.446 3.582 2.316 4.024 3.904.439 1.577.439 20.953 0 22.53-.42 1.507-2.364 3.447-3.875 3.865-1.326.368-3.114.383-4.266.037zm3.744-4.165l.812-.697.09-9.342c.049-5.137.009-9.77-.089-10.297-.244-1.312-1.09-2.078-2.294-2.078-2.748 0-2.774.112-2.774 11.707v9.714l.846.845c1.061 1.058 2.285 1.111 3.409.147z" fill="#d1d1d1"/><path d="M0 157.44V0h217.75v314.88H0V157.44zm210.27 156.68c2.962-.967 5.25-3.108 6.005-5.621.224-.746.314-44.093.314-151.11V7.329l-.886-1.769c-.929-1.854-2.302-3.164-4.228-4.033-1.049-.473-6.873-.501-102.46-.501-98.713 0-101.38.014-102.77.546-1.829.704-3.491 2.214-4.467 4.057l-.773 1.463v301l.684 1.375c.941 1.89 3.157 3.807 5.193 4.495 1.618.546 3.665.558 101.79.594 92.407.033 100.25 0 101.6-.442zm-20.078-21.733c-.876-.554-1.526-1.263-1.939-2.113-.6-1.237-.62-1.634-.62-11.834 0-7.32.103-10.855.339-11.536.498-1.44 1.302-2.41 2.6-3.139.99-.554 1.488-.631 3.545-.544 2.091.088 2.527.203 3.458.912.587.446 1.358 1.356 1.715 2.022.639 1.193.649 1.376.649 12.044 0 10.54-.017 10.864-.624 11.988-1.271 2.357-2.543 3.033-5.709 3.033-1.813 0-2.274-.112-3.414-.834zm5.548-3.368l.724-.721.09-9.31c.049-5.121.007-9.748-.092-10.281-.417-2.239-3.097-3.186-4.644-1.642l-.711.709v20.724l.651.591c.359.325.847.668 1.086.76.777.303 2.155-.093 2.896-.83zm7.445 4.022c-.291-.29-.249-29.06.044-29.52.16-.25.72-.348 1.66-.289l1.42.09v29.754l-1.459.085c-.802.047-1.551-.007-1.665-.12zm-148.46-14.1c-4.836-1.344-8.199-5.048-9.005-9.916-.38-2.297-.12-4.391.87-7.002.549-1.448 1.048-2.186 3.615-5.342.46-.566.775-1.09.7-1.165-.074-.075-1.12.373-2.324.994-3.652 1.886-7.313 1.898-11.102.037-2.346-1.152-4.762-3.714-5.655-5.997-1.682-4.298-.214-10.58 3.222-13.786 3.737-3.488 8.843-4.259 13.535-2.044 2.799 1.322 4.642 3.23 6.178 6.397.654 1.347 1.254 2.385 1.334 2.305.26-.26-.547-5.166-1.398-8.492-.788-3.078-2.567-7.867-3.215-8.652a.883.883 0 0 1-.127-.794c.242-.628 13.44-.66 13.68-.033.086.222-.163 1.035-.552 1.805-1.907 3.776-3.625 9.723-4.09 14.16-.217 2.064.195 2.657.72 1.038 2.193-6.754 8.326-10.292 14.887-8.587 2.41.627 4.275 1.722 5.965 3.504 2.14 2.257 2.966 4.253 3.114 7.518.325 7.212-4.068 12.429-10.951 13.004-2.115.177-4.994-.424-6.62-1.381-.54-.318-1.05-.512-1.131-.43-.083.082.38.835 1.027 1.673 2.356 3.052 3.529 6.2 3.535 9.488.01 5.578-3.631 10.258-9.118 11.72-1.783.475-5.347.464-7.094-.021zm97.524-.128c-2.333-.766-3.945-1.78-5.545-3.486-2.037-2.173-2.858-4.194-3.019-7.436-.206-4.152.875-7.055 3.94-10.58.664-.765 1.208-1.509 1.208-1.654 0-.145-.88.194-1.954.754-4.814 2.506-10.051 1.857-14.176-1.757-3.822-3.348-4.666-9.152-2.114-14.536 2.207-4.654 7.481-7.365 12.623-6.486 4.841.827 8.18 3.858 10.43 9.469.524 1.31.425-1.412-.164-4.483-.805-4.2-1.842-7.697-3.063-10.334-1.62-3.498-2.073-3.238 5.64-3.238 4.322 0 6.71.105 6.831.303.103.166-.471 1.902-1.277 3.856-.805 1.955-1.795 4.84-2.199 6.414-.839 3.265-1.324 8.136-.778 7.799a.777.777 0 0 0 .336-.59c0-.975 2.403-5.077 3.64-6.214 5.637-5.185 15.148-3.717 19.06 2.94 2.468 4.203 1.748 10.856-1.567 14.475-3.51 3.83-9.177 4.97-13.855 2.786-1.024-.478-1.915-.817-1.978-.754-.064.064.51.943 1.276 1.955 5.675 7.496 4.032 16.498-3.678 20.153-1.98.938-2.433 1.037-5.07 1.108-2.215.06-3.283-.05-4.546-.465zm42.77-20.8c-1.379-.631-1.996-1.275-2.596-2.708-.666-1.591-.563-3.375.29-4.973.576-1.084.633-1.34.263-1.198-2.294.878-4.9.239-5.953-1.462-1.78-2.874-.953-6.62 1.804-8.166 2.177-1.22 4.743-.447 6.3 1.9 1.202 1.81 1.21.957.024-2.573-.484-1.442-.814-2.793-.733-3.004.11-.284.934-.383 3.206-.383 3.69 0 3.771.092 2.515 2.831-.488 1.065-.98 2.318-1.095 2.785l-.207.85 1.04-1.038c1.248-1.245 2.756-1.795 4.343-1.582 3.902.522 5.621 6.02 2.748 8.785-1.59 1.53-3.126 1.857-5.218 1.113-.597-.213-1.086-.354-1.086-.313 0 .04.313.643.696 1.338 1.372 2.495 1.217 4.576-.486 6.51-1.615 1.836-3.673 2.288-5.856 1.288zm-90.083-9.708c-3.401-.738-6.745-3.043-8.331-5.743-2.014-3.429-2.176-8.102-.409-11.8.553-1.158 1.677-2.904 2.498-3.88.821-.977 1.493-1.905 1.493-2.064 0-.158-1.03.237-2.288.879-1.916.976-2.647 1.189-4.503 1.307-2.806.18-5.34-.467-7.643-1.952-3.22-2.076-4.976-5.01-5.194-8.68-.403-6.785 3.834-12.416 10.23-13.596 3.86-.712 8.548.996 11.26 4.103.943 1.081 1.93 2.862 2.944 5.312.533 1.29.428-1.702-.169-4.815-.74-3.856-1.747-7.135-3.111-10.124-.56-1.225-.94-2.427-.846-2.672.252-.655 13.151-.67 13.402-.015.09.235-.423 1.828-1.142 3.538-.719 1.71-1.586 4.058-1.927 5.215-1.146 3.892-1.856 9.306-1.22 9.306.13 0 .452-.685.717-1.523 1.818-5.753 7.45-9.276 13.32-8.333 7.022 1.129 11.478 7.064 10.421 13.878-.98 6.322-5.619 10.406-11.829 10.42-1.969.003-4.42-.625-5.859-1.502-.526-.32-1.026-.514-1.11-.429-.086.085.396.847 1.07 1.694 1.693 2.128 3.056 5.084 3.469 7.526 1.11 6.562-3.095 12.542-9.818 13.963-2.312.49-3.12.487-5.424-.013zM55.2 217.385c-5.154-1.302-8.672-5.04-9.514-10.112-.619-3.724.807-8.005 3.834-11.512.806-.933 1.405-1.758 1.331-1.832-.074-.073-1.148.366-2.387.976-2.2 1.085-2.325 1.11-5.45 1.11-3.03 0-3.303-.05-5.146-.95-2.585-1.261-4.644-3.302-5.811-5.76-.848-1.785-.926-2.185-.889-4.556.088-5.616 2.61-9.753 7.278-11.935 1.484-.694 1.993-.776 4.843-.776 2.98 0 3.311.06 5.132.92 3.237 1.53 5.836 4.432 6.873 7.674.54 1.689.98 1.35.75-.577-.524-4.414-2.208-10.472-3.974-14.295-.772-1.67-.856-2.043-.51-2.262.23-.144 3.234-.264 6.679-.266 4.894-.003 6.333.08 6.585.384.246.295.05 1.017-.82 3.015-1.984 4.566-3.094 8.674-3.634 13.455-.253 2.241.283 2.09 1.16-.329 1.265-3.486 3.922-6.145 7.337-7.345 1.337-.47 2.177-.556 4.537-.463 2.525.1 3.138.232 4.797 1.03 2.789 1.343 4.41 2.9 5.673 5.45.911 1.84 1.092 2.527 1.199 4.558.069 1.315-.02 3.072-.2 3.903-.772 3.596-3.314 6.8-6.618 8.346-1.507.704-1.985.778-4.996.778-3.075 0-3.459-.063-5.013-.824-.926-.453-1.752-.756-1.835-.673-.084.083.391.836 1.055 1.674 2.33 2.94 3.477 6.026 3.477 9.356 0 2.672-.59 4.59-2.106 6.84-2.806 4.166-8.569 6.279-13.637 4.998zm97.665-.09c-3.805-.99-6.524-3.214-8.183-6.692-.763-1.598-.913-2.287-1.007-4.622-.164-4.076.936-6.875 4.177-10.622.587-.679 1.001-1.3.92-1.38-.081-.082-1.104.337-2.274.93-1.859.942-2.442 1.093-4.629 1.197-4.167.199-7.139-.998-9.966-4.012-1.767-1.886-2.53-3.654-2.699-6.26-.37-5.722 2.414-10.824 7.106-13.018 1.507-.704 1.985-.778 4.996-.778 3.164 0 3.425.046 5.237.93 2.72 1.329 4.718 3.407 6.168 6.419.993 2.061 1.206 2.343 1.281 1.695.258-2.228-1.914-10.892-3.743-14.934-.959-2.12-1.011-2.503-.377-2.746.746-.286 12.389-.19 12.858.105.35.221.369.42.097 1.079-3.03 7.341-4.065 10.854-4.349 14.746-.192 2.634.166 3.175.763 1.155.952-3.215 3.563-6.248 6.605-7.67 1.506-.705 1.984-.78 4.996-.78 3.142 0 3.44.053 5.277.92 5.07 2.397 7.738 7.402 6.888 12.925-.656 4.265-2.974 7.5-6.605 9.215-1.814.858-2.148.917-5.126.917-2.87 0-3.353-.078-4.885-.794-.935-.437-1.825-.795-1.979-.795-.153 0 0 .358.341.795 1.497 1.918 2.904 4.258 3.328 5.531 2.568 7.713-1.055 14.647-8.689 16.631-2.17.564-4.126.538-6.526-.087zm-101.51-63.179c-.094-.244.287-1.447.847-2.672 2.252-4.932 3.846-11.182 3.607-14.146-.09-1.118-.154-1.248-.343-.706-.642 1.834-2.235 4.679-3.274 5.845-2.763 3.103-7.475 4.424-11.786 3.303-7.651-1.988-11.185-9.235-8.269-16.96 2.229-5.906 9.949-8.797 15.942-5.97.996.47 1.864.802 1.929.737.064-.064-.51-.945-1.275-1.957-3.619-4.78-4.373-9.835-2.165-14.514 2.972-6.298 11.126-8.728 17.841-5.316 1.88.956 4.06 3.242 5.111 5.361.83 1.673.98 2.31 1.083 4.596.188 4.162-.896 7.066-3.95 10.58-.666.764-1.21 1.521-1.21 1.682 0 .16.685-.096 1.52-.57 4.394-2.494 8.896-2.328 13.209.484 3.164 2.064 4.962 5.36 4.962 9.097 0 6.817-4.031 11.922-10.254 12.985-3.834.655-7.724-.65-10.669-3.58-1.504-1.497-3.399-4.648-3.4-5.655 0-.19-.15-.437-.335-.551-.248-.153-.29.278-.163 1.644.394 4.199 1.898 9.903 3.567 13.519 1.6 3.466 2.055 3.209-5.684 3.209-5.734 0-6.693-.062-6.84-.444zm97.9.07c-.08-.206.302-1.343.847-2.528 2.012-4.366 3.538-9.954 3.72-13.624.099-1.97-.307-2.067-.932-.224-1.373 4.046-4.736 7.15-8.746 8.073-4.18.962-8.816-.467-11.83-3.646-2.14-2.257-2.967-4.253-3.114-7.518-.264-5.832 2.5-10.395 7.403-12.225 3.304-1.234 7.543-.975 10.127.619.539.332 1.047.537 1.13.455.082-.082-.433-.938-1.144-1.902-2.352-3.187-3.37-5.994-3.377-9.3-.009-4.849 2.633-8.92 7.158-11.032 3.471-1.62 8.178-1.44 11.77.453 3.322 1.75 5.583 4.852 6.265 8.596.76 4.171-.514 7.91-4.172 12.238-.62.733-1.065 1.395-.99 1.47.075.074 1.121-.373 2.325-.994 3.652-1.886 7.313-1.898 11.102-.037 2.356 1.157 4.766 3.717 5.647 5.997 1.135 2.94.754 7.565-.889 10.777-2.228 4.358-7.694 7.004-12.603 6.101-4.34-.798-7.489-3.284-9.482-7.489-1.414-2.981-1.612-2.665-.92 1.467.667 3.973 1.888 8.215 3.299 11.46.641 1.476 1.096 2.797 1.01 2.935-.086.14-3.15.253-6.808.253-5.182 0-6.684-.083-6.796-.375zM100.273 123c.082-.358.764-2.142 1.514-3.965.75-1.824 1.678-4.552 2.063-6.063 1.187-4.672 1.279-10.411.099-6.205-.507 1.804-2.205 4.353-3.883 5.826-4.81 4.224-13.372 3.284-17.495-1.92-2.851-3.598-3.333-9.067-1.188-13.487 2.694-5.552 9.869-7.899 15.827-5.178.89.407 1.667.693 1.724.635.058-.058-.393-.742-1.003-1.52-4.788-6.114-4.93-13.022-.367-17.836 5.587-5.893 15.85-5.023 20.17 1.71 1.435 2.236 1.942 4.343 1.803 7.496-.103 2.365-.237 2.912-1.175 4.797-.581 1.17-1.716 2.902-2.521 3.848-1.29 1.517-1.704 2.18-1.36 2.18.057 0 .955-.444 1.996-.985 2.625-1.365 4.76-1.772 7.275-1.386 4.003.613 7.67 3.21 9.345 6.617 1.52 3.09 1.267 7.506-.647 11.323-1.213 2.418-2.968 4.097-5.57 5.327-1.791.846-2.16.914-4.99.914-2.943 0-3.136-.04-5.234-1.074-2.806-1.384-4.862-3.514-6.218-6.442-.55-1.189-1.08-2.161-1.177-2.161-.278 0 .17 3.65.797 6.5.718 3.259 1.509 5.726 2.76 8.607.54 1.24.98 2.442.98 2.672 0 .355-1.055.42-6.839.42h-6.838l.15-.65zM51.546 92.75c-.35-.221-.369-.42-.097-1.079 3.03-7.341 4.066-10.854 4.349-14.746.192-2.635-.166-3.176-.763-1.155-.952 3.215-3.563 6.248-6.605 7.67-1.506.705-1.984.78-4.996.78-3.142 0-3.44-.053-5.277-.921-5.065-2.394-7.742-7.379-6.9-12.848.669-4.344 2.962-7.564 6.617-9.292 1.814-.857 2.148-.917 5.126-.917 2.87 0 3.353.079 4.885.795 2.132.996 2.415.996 1.638 0-2.52-3.231-3.753-5.976-4.199-9.35-.232-1.757.478-5.085 1.476-6.914 2.345-4.299 8.117-6.971 13.185-6.104 4.368.747 7.865 3.265 9.594 6.905.878 1.85.93 2.14.93 5.28 0 3.218-.033 3.39-1.041 5.488-.572 1.192-1.711 2.947-2.531 3.9-1.355 1.576-1.728 2.167-1.366 2.167.072 0 1.055-.482 2.185-1.07 1.847-.963 2.324-1.083 4.72-1.186 4.187-.18 7.168 1.049 10.009 4.124 1.724 1.866 2.426 3.58 2.59 6.324.329 5.558-2.31 10.448-6.838 12.672-1.838.903-2.078.946-5.262.946-3.175 0-3.428-.045-5.258-.939-3.124-1.524-5.353-4.095-6.95-8.016-.342-.843-.356-.848-.47-.178-.066.38.101 2.003.37 3.608.72 4.297 1.612 7.192 3.998 12.976.272.658.254.858-.097 1.08-.237.148-3.167.27-6.511.27-3.345 0-6.275-.122-6.511-.27zm98.054-.087c-.467-.34-.41-.582.797-3.394.715-1.665 1.64-4.197 2.055-5.627.68-2.34 1.588-7.256 1.593-8.618.003-1.035-.657-.288-1.335 1.511-1.894 5.027-5.91 7.829-11.22 7.829-2.966 0-4.912-.578-7.274-2.16-3.615-2.424-5.264-5.938-5-10.654.097-1.712.373-3.228.787-4.311.888-2.326 3.271-4.835 5.749-6.052 1.833-.9 2.076-.944 5.258-.944 3.082 0 3.464.063 5.02.824 1.922.941 2.379.827 1.282-.321-1.243-1.302-2.806-4.129-3.45-6.241-.878-2.873-.655-6.349.575-8.97 1.718-3.663 5.283-6.224 9.594-6.89 5.429-.837 11.363 2.171 13.51 6.85 2.21 4.817 1.296 9.997-2.597 14.719-.903 1.096-1.585 2.05-1.514 2.12.07.071 1.142-.37 2.38-.981 2.202-1.085 2.324-1.11 5.458-1.11 3.044 0 3.304.048 5.152.956 3.49 1.715 5.94 4.768 6.596 8.217.425 2.236-.117 5.683-1.284 8.16-1.23 2.613-3.13 4.55-5.614 5.724-1.824.861-2.151.92-5.148.92-3.116 0-3.26-.03-5.4-1.084-2.885-1.424-5.06-3.719-6.21-6.553-1.479-3.643-1.6-2.256-.353 4.011.649 3.262 2.174 7.926 3.347 10.235.697 1.372.707 1.459.21 1.821-.733.535-12.233.547-12.965.013zm-134.47-9.646c-.534-.215-.452-.685.475-2.73.46-1.015.977-2.365 1.15-3l.312-1.156-.564.722c-.31.397-.567.796-.57.886-.004.09-.558.472-1.231.85-2.208 1.238-4.946.745-6.284-1.13-.709-.993-1.252-3.512-.995-4.607.676-2.869 3.87-4.553 6.642-3.502 1.075.408 1.135.228.323-.966-2.324-3.418.093-8.286 4.114-8.286 4.19 0 6.574 4.349 4.508 8.225-.626 1.175-.658 1.346-.217 1.16.284-.118 1.18-.279 1.99-.355 2.521-.237 4.138 1.07 4.783 3.867.844 3.662-2.263 7.26-5.712 6.615-1.064-.2-2.846-1.692-3.81-3.191-.325-.506-.35-.434-.193.578.098.636.52 2.171.939 3.412.652 1.933.7 2.295.337 2.523-.436.275-5.352.345-5.997.085zm-5.73-28.48c-.077-.198-.106-6.99-.064-15.094l.075-14.733 1.252-.09c.689-.05 1.438.064 1.665.252.348.288.413 2.639.413 14.837 0 10.89-.086 14.581-.347 14.842-.464.463-2.816.452-2.995-.014zm10.112.048c-1.43-.414-3.173-2.514-3.552-4.28-.432-2.011-.434-19.128-.002-21.136.368-1.71 1.866-3.589 3.362-4.213 1.25-.522 3.905-.493 5.226.058 1.431.596 2.348 1.476 2.995 2.875.49 1.057.534 2.062.534 11.844 0 9.781-.045 10.786-.534 11.844-.647 1.398-1.564 2.278-2.995 2.875-1.164.485-3.595.55-5.034.134zm4.436-3.786l.666-.624V29.451l-.711-.709c-1.548-1.543-4.227-.596-4.644 1.642-.1.534-.141 5.15-.092 10.258.085 8.812.12 9.32.669 9.928 1.172 1.3 2.87 1.395 4.112.23z" fill="#b1b1b1"/><path d="M0 157.44V0h217.75v314.88H0V157.44zm211.69 156.25c1.97-.922 3.429-2.328 4.35-4.195l.692-1.403v-301l-.681-1.3c-1.037-1.976-2.846-3.68-4.605-4.336-1.527-.57-2.408-.575-102.8-.572L7.386.886l-1.447.675c-2.114.985-3.186 2.01-4.182 4L.87 7.327v150.13c0 133.57.049 150.27.44 151.38.86 2.432 2.833 4.325 5.448 5.228 1.427.492 6.142.513 102.41.453l100.91-.064 1.617-.756zm-20.762-21.028c-1.4-.634-2.534-2.02-2.977-3.636-.408-1.493-.43-20.1-.025-21.555.457-1.643 1.48-2.942 2.893-3.67 1.104-.57 1.62-.653 3.41-.548 1.798.104 2.267.248 3.185.976.592.47 1.37 1.426 1.728 2.126.64 1.251.651 1.445.645 11.827-.006 9.657-.052 10.653-.543 11.71-.624 1.345-1.858 2.578-3.017 3.015-1.281.483-3.965.359-5.299-.246zm4.834-3.47l.846-.844v-10.003c0-11.15-.037-11.389-1.848-11.985-1.31-.431-2.336-.139-3.23.922l-.734.87.083 10.245.082 10.246.813.697c1.192 1.023 2.877.96 3.987-.147zm7.639 3.662c-.077-.199-.105-6.926-.064-14.95l.076-14.587 1.106-.091c2.037-.168 1.934-.96 1.934 14.835 0 7.832-.079 14.446-.176 14.697-.218.567-2.664.649-2.876.096zm-148.16-13.95c-3.845-.93-6.593-3.067-8.253-6.415-1.055-2.129-1.092-2.309-1.092-5.253 0-3.793.643-5.685 2.912-8.564 2.165-2.748 2.544-3.293 2.392-3.445-.073-.072-1.213.42-2.533 1.092-2.4 1.222-2.406 1.224-5.627 1.224-3.045 0-3.331-.052-5.132-.931-3.836-1.873-6.297-5.26-6.568-9.042-.401-5.589 2.25-10.52 6.873-12.792 1.77-.87 2.065-.923 5.086-.923 3.125 0 3.262.028 5.419 1.091 2.768 1.365 4.72 3.451 6.046 6.46.515 1.17 1.044 2.126 1.174 2.126.407 0 .262-2.154-.361-5.376-.71-3.674-1.687-6.883-3.096-10.178-.85-1.987-.959-2.455-.623-2.667.225-.142 3.181-.26 6.57-.262 5.282-.004 6.187.059 6.334.44.094.244-.287 1.447-.845 2.672-1.383 3.031-2.73 7.343-3.271 10.474-.46 2.653-.47 5.042-.023 5.042.137 0 .555-.84.928-1.868.91-2.51 2.6-4.818 4.463-6.098 4.078-2.8 9.852-2.714 14.125.21 7.239 4.952 6.306 16.788-1.63 20.685-1.816.892-2.067.937-5.243.937-3.19 0-3.418-.042-5.192-.94-1.021-.516-1.9-.938-1.955-.938-.358 0 .052.806.933 1.832 1.559 1.816 3.198 5.316 3.599 7.683 1.078 6.38-2.872 12.219-9.288 13.728-2.25.529-3.923.528-6.122-.004zm98.038.039c-6.54-1.583-10.45-7.278-9.443-13.76.406-2.617 1.615-5.081 3.677-7.496 1.398-1.637 1.942-2.6 1.47-2.6-.076 0-.76.379-1.52.842-2.302 1.404-4.097 1.844-6.964 1.708-2.075-.1-2.884-.285-4.475-1.028-2.528-1.18-4.63-3.161-5.72-5.391-2.828-5.787.084-13.815 6.016-16.59 1.495-.698 1.98-.773 4.986-.773 3.168 0 3.423.045 5.25.936 2.643 1.29 5.112 3.943 6.227 6.69 1.018 2.508 1.7 2.766 1.412.534-.644-5.002-2.127-10.469-3.845-14.176-.874-1.885-.978-2.303-.63-2.523.613-.387 12.532-.348 12.923.042.227.226.012 1.014-.768 2.816-2.07 4.784-3.229 8.996-3.641 13.225-.22 2.253.18 3.095.777 1.643 1.986-4.82 3.526-6.75 6.582-8.252 1.815-.891 2.066-.936 5.242-.936 3.14 0 3.45.054 5.254.907 4.44 2.098 6.925 5.974 6.907 10.773-.02 5.12-2.407 9.11-6.652 11.118-1.748.826-2.11.89-5.068.89-2.98 0-3.31-.06-5.134-.921-1.072-.506-2.004-.83-2.073-.72-.068.11.461.973 1.177 1.917 2.684 3.541 3.738 6.669 3.487 10.34-.51 7.44-7.916 12.608-15.454 10.784zm41.284-21.335c-2.818-1.895-3.319-5.63-1.094-8.158 1.008-1.145.992-1.167-.432-.574-1.488.62-3.61.552-4.77-.153-2.161-1.315-2.71-5.075-1.094-7.51.96-1.449 2.939-2.447 4.33-2.185 1.488.281 2.764 1.242 3.749 2.823.603.968.958 1.322 1.018 1.014.116-.596-.972-4.594-1.558-5.724-.242-.466-.362-.974-.266-1.128.217-.351 6.128-.374 6.344-.025.087.14-.283 1.213-.823 2.383-1.007 2.181-1.76 4.538-1.523 4.774.073.073.44-.423.815-1.102.96-1.734 2.288-2.555 4.133-2.555 1.972 0 3.314.75 4.144 2.314 1.23 2.32.7 5.377-1.16 6.699-1.17.83-3.487 1.018-4.967.402-1.353-.564-1.634-.396-.806.484 2.279 2.42 1.82 6.592-.91 8.275-1.385.854-3.818.828-5.13-.054zm-90.29-9.622c-6.207-1.666-9.979-7.27-9.058-13.46.385-2.591 1.82-5.547 3.807-7.845 2.191-2.535 2.033-2.725-1.005-1.202-4.884 2.448-9.832 1.778-13.84-1.875-2.835-2.586-3.956-5.753-3.413-9.647.693-4.969 3.026-8.287 7.197-10.237 1.47-.688 2.004-.776 4.714-.776 2.942 0 3.136.04 5.233 1.074 3.332 1.643 5.69 4.47 7.034 8.435.143.421.269.473.524.219.835-.833-1.523-10.991-3.556-15.318-.625-1.33-1.065-2.535-.978-2.675.208-.335 13.072-.335 13.28 0 .087.14-.25 1.148-.747 2.239-2.091 4.58-3.628 10.238-3.787 13.94-.107 2.505.415 2.6 1.21.22 1.701-5.103 6.03-8.278 11.287-8.278 4.896 0 9.123 2.602 11.246 6.923.722 1.469.786 1.882.788 5.066.002 3.294-.043 3.562-.914 5.396-1.759 3.704-4.71 5.916-8.809 6.604-2.322.39-4.93-.002-7.045-1.058-2.13-1.064-2.335-.78-.848 1.176 2.721 3.58 3.724 6.515 3.502 10.254-.182 3.061-1.058 5.17-3.01 7.253-3.233 3.448-8.157 4.821-12.813 3.572zm-49.893-31.01c-2.294-.732-3.933-1.751-5.495-3.417-2.212-2.36-3.124-4.75-3.13-8.2-.006-3.455 1.4-6.737 4.234-9.884 2.051-2.277 1.797-2.406-1.486-.75-4.8 2.422-9.852 1.656-13.954-2.116-3.621-3.33-4.288-9.09-1.66-14.333 4.657-9.286 18.355-8.074 22.115 1.956.364.973.777 1.77.917 1.77.73 0-.197-6.09-1.669-10.978-.406-1.35-1.183-3.416-1.724-4.59-.542-1.175-.986-2.312-.986-2.528 0-.32 1.245-.393 6.694-.393h6.694l-.15.65c-.083.358-.744 2.08-1.47 3.828-1.645 3.964-2.738 8.184-2.984 11.522-.231 3.133.201 3.287 1.254.447.837-2.26 2.388-4.377 4.22-5.758 5.645-4.257 14.478-2.287 17.823 3.974 3.17 5.933.708 14.107-5.04 16.732-3.505 1.601-7.437 1.573-10.707-.078-.862-.435-1.648-.71-1.747-.613-.098.098.443.997 1.202 1.998 5.27 6.942 4.496 15.11-1.828 19.29-2.963 1.959-7.652 2.578-11.124 1.47zm97.86.012c-7.513-2.467-10.662-10.281-7.05-17.493.562-1.121 1.677-2.797 2.478-3.723 2.097-2.425 1.933-2.858-.514-1.356-5.243 3.218-12.578 1.61-16.069-3.524-2.06-3.03-2.4-6.406-1.078-10.68 2.644-8.538 13.496-11.073 19.932-4.656 1.07 1.067 1.895 2.291 2.707 4.02 1.556 3.312 1.926 2.948 1.251-1.232-.645-4.004-2.167-9.333-3.463-12.131-.557-1.204-.942-2.303-.855-2.444.087-.14 3.075-.256 6.64-.256 3.564 0 6.552.116 6.639.256.087.14-.295 1.234-.849 2.43-2.08 4.494-3.557 9.985-3.695 13.75-.09 2.406.425 2.613 1.108.446.67-2.124 2.337-4.676 3.82-5.849 6.044-4.775 15.245-2.715 18.644 4.174 2.165 4.388 1.01 10.998-2.484 14.212-3.591 3.302-8.755 4.09-13.248 2.024-1.089-.5-2.05-.84-2.135-.755-.085.085.523 1.048 1.353 2.139 2.568 3.38 3.617 6.502 3.37 10.03-.31 4.444-2.675 7.891-6.808 9.93-2.03 1-2.397 1.083-5.11 1.156-2.246.06-3.306-.048-4.583-.468zm-100.61-62.74c-.226-.226-.011-1.014.769-2.816 2.07-4.784 3.229-8.996 3.641-13.225.22-2.253-.18-3.095-.778-1.643-1.985 4.82-3.525 6.75-6.581 8.251-1.815.892-2.066.937-5.243.937-3.138 0-3.449-.054-5.253-.907-4.44-2.098-6.914-5.958-6.914-10.785 0-5.094 2.381-9.084 6.616-11.086 1.797-.85 2.138-.91 5.111-.91 2.996 0 3.304.056 5.183.944 1.099.519 2.06.882 2.134.808.075-.075-.479-.953-1.231-1.951-2.754-3.655-3.796-6.719-3.543-10.417.292-4.264 2.617-7.752 6.418-9.626 2.791-1.376 5.315-1.795 8.024-1.331 7.132 1.22 11.58 7.184 10.433 13.99-.453 2.69-1.638 5.094-3.658 7.42-1.39 1.603-1.96 2.619-1.468 2.619.077 0 .761-.379 1.52-.842 2.303-1.404 4.098-1.844 6.965-1.707 3.094.147 5.643 1.212 7.867 3.287 2.757 2.573 3.836 5.915 3.222 9.983-.66 4.371-3.26 8.011-6.974 9.76-1.428.674-1.936.75-4.922.749-3.163-.002-3.427-.05-5.25-.937-2.643-1.287-5.111-3.938-6.227-6.688-1.018-2.508-1.7-2.765-1.413-.534.663 5.147 2.059 10.284 3.852 14.176.869 1.887.972 2.304.624 2.524-.613.386-12.532.348-12.923-.042zm98.076.034c-.351-.221-.369-.421-.097-1.08 3.144-7.619 4.141-11.091 4.232-14.736.036-1.445-.054-2.363-.23-2.345-.16.017-.577.82-.928 1.787-1.848 5.094-5.94 7.987-11.295 7.987-7.797 0-13.287-6.44-11.975-14.048.706-4.091 2.897-7.15 6.33-8.836 1.61-.79 2.271-.942 4.56-1.042 2.851-.124 4.801.3 6.735 1.463.98.59 1.56.489 1.06-.185-.153-.207-.76-1.013-1.35-1.791-1.557-2.056-2.537-4.215-3.052-6.72-1.407-6.846 3.153-13.16 10.297-14.265 3.756-.58 7.943.668 10.832 3.228.908.805 1.736 1.955 2.461 3.418 1.055 2.13 1.092 2.31 1.092 5.253 0 3.744-.683 5.732-2.966 8.631-2.11 2.68-2.489 3.227-2.337 3.378.072.072 1.212-.42 2.533-1.093 2.4-1.222 2.404-1.223 5.633-1.223 3.077 0 3.326.046 5.188.96 3.82 1.878 6.234 5.222 6.505 9.013.404 5.622-2.406 10.742-7.099 12.936-1.494.698-1.995.778-4.866.778-3.115 0-3.258-.028-5.402-1.086-2.814-1.387-4.704-3.394-6.028-6.4-.531-1.205-1.072-2.191-1.203-2.191-.434 0-.245 2.345.476 5.886.811 3.983 1.5 6.22 2.979 9.668.852 1.988.961 2.455.625 2.668-.545.344-12.162.331-12.71-.014zM100.36 123.41c-.083-.133.35-1.4.961-2.817 2.14-4.96 3.778-11.294 3.785-14.636.003-1.354-.777-.927-1.317.723-2.377 7.25-9.957 10.489-16.907 7.224-2.327-1.093-4.964-3.82-5.798-5.997-1.873-4.883-.679-10.527 2.935-13.864 3.635-3.357 9.174-3.97 13.943-1.544.617.314 1.189.505 1.27.423.083-.082-.438-.903-1.156-1.826-4.213-5.413-4.81-11.358-1.638-16.29 2.433-3.783 7.7-5.972 12.445-5.173 8.603 1.447 13.01 9.858 9.303 17.754-.45.959-1.557 2.612-2.46 3.672-1.45 1.704-2.065 2.786-1.423 2.501.12-.053 1.253-.616 2.518-1.252 2.237-1.123 2.384-1.155 5.213-1.145 3.429.012 5.358.635 7.71 2.49 3.265 2.575 4.675 6.186 4.073 10.432-1.26 8.89-9.57 13.548-17.35 9.727-2.572-1.263-4.447-3.248-5.861-6.204-1.394-2.913-1.886-3.155-1.595-.784.576 4.693 1.923 9.766 3.647 13.73.62 1.426 1.056 2.706.97 2.845-.2.323-13.067.333-13.267.01zM51.415 92.485c-.088-.142.281-1.224.82-2.405 2.154-4.714 3.587-10.012 3.725-13.773.089-2.406-.425-2.612-1.108-.445-1.986 6.298-8.102 9.71-14.45 8.06-5.228-1.358-8.777-5.476-9.07-10.522-.389-6.693 3.245-11.755 9.34-13.012 2.43-.5 5.076-.173 7.47.925 1.077.493 2.04.817 2.138.718.099-.098-.196-.607-.655-1.13-1.322-1.506-2.687-3.778-3.373-5.612-.912-2.441-.894-6.797.039-9.138.97-2.435 3.327-4.852 6.03-6.185 1.899-.936 2.49-1.083 4.77-1.192 7.02-.335 12.23 3.652 13.359 10.22.63 3.664-.818 7.991-3.843 11.49-2.094 2.421-1.943 2.848.478 1.356 3.355-2.065 7.545-2.238 11.288-.464 5.117 2.424 7.48 7.078 6.392 12.589-.6 3.04-1.643 5.153-3.413 6.92-2.66 2.653-6.593 3.903-10.291 3.271-4.258-.728-7.446-3.248-9.418-7.446-1.119-2.382-1.705-3.037-1.705-1.907 0 1.212 1.175 7.262 1.884 9.706.415 1.43 1.265 3.756 1.888 5.17.623 1.413 1.064 2.68.98 2.816-.204.33-13.07.32-13.275-.01zm97.997-.162c0-.23.446-1.433.992-2.672 2.079-4.722 3.64-10.71 3.64-13.963 0-1.486-.493-1.968-.803-.785-.093.356-.667 1.64-1.275 2.85-1.329 2.65-3.003 4.284-5.687 5.553-1.783.842-2.162.913-4.83.898-2.298-.014-3.24-.152-4.561-.671-3.086-1.213-5.714-3.81-6.998-6.917-.425-1.031-.556-2.035-.55-4.24.008-3.366.614-5.413 2.27-7.663 3.275-4.452 9.655-5.854 14.835-3.259.836.42 1.591.692 1.677.606.087-.086-.54-1.126-1.392-2.31-1.902-2.646-2.7-4.448-3.137-7.087-1.242-7.505 4.452-13.94 12.334-13.94 3.846 0 7.109 1.414 9.642 4.179 1.857 2.028 2.7 4.155 2.885 7.28.229 3.87-1.061 7.149-4.168 10.599-2.052 2.277-1.797 2.406 1.486.75 1.81-.914 2.76-1.206 4.344-1.336 6.482-.533 12.385 4.18 12.81 10.229.35 4.969-1.98 9.978-5.63 12.113-2.877 1.682-6.289 2.214-9.207 1.435-4.157-1.11-7.324-3.961-8.814-7.937-2.078-5.543-1.202 3.247.988 9.916.534 1.626 1.308 3.62 1.72 4.43 1.272 2.505 1.633 2.361-5.911 2.361-5.628 0-6.66-.065-6.66-.419zm-134.49-9.68c-.095-.153.15-.912.543-1.687.843-1.66 1.914-4.733 1.904-5.465-.003-.283-.362.132-.796.922-2.478 4.51-8.498 3.267-8.963-1.85-.185-2.036.203-3.185 1.42-4.207 1.426-1.197 2.947-1.443 4.92-.798.93.304 1.689.514 1.689.466 0-.047-.405-.66-.9-1.36-1.136-1.607-1.393-3.454-.723-5.202 1.874-4.896 8.768-4.055 9.605 1.171.24 1.494-.25 3.07-1.41 4.546-.695.885-.768 1.084-.33.9 2.944-1.233 4.435-1.215 5.969.073 2.516 2.112 2.16 6.774-.66 8.635-.943.623-1.364.72-2.664.612-1.777-.147-2.76-.763-3.728-2.336-1.318-2.143-1.454-2.229-1.255-.786.099.715.55 2.404 1.004 3.755.453 1.35.765 2.553.692 2.672-.196.32-6.116.263-6.317-.061zM9.4 54.253c-.077-.199-.105-6.861-.064-14.805l.076-14.444 1.52-.088 1.52-.087v29.784h-1.457c-.898 0-1.51-.138-1.595-.361zm9.474-.125c-1.19-.586-2.207-1.896-2.646-3.414-.234-.807-.308-4.294-.246-11.555.1-11.636.126-11.793 2.207-13.377.87-.661 1.365-.794 3.3-.881 1.374-.063 2.614.036 3.131.25 1.23.508 2.806 2.37 3.18 3.757.216.8.292 4.576.233 11.499-.078 8.954-.152 10.42-.57 11.174-.543.977-1.812 2.224-2.758 2.709-.97.496-4.701.393-5.83-.162zm5.072-3.1l.813-.697.082-10.246.083-10.246-.733-.87c-.895-1.06-1.92-1.352-3.231-.92-1.811.596-1.848.833-1.848 11.984v10.003l.846.845c1.111 1.108 2.796 1.17 3.988.147z" fill="#909090"/><path d="M0 157.44V0h217.75v314.88H0V157.44zm212.14 156.23c1.848-.972 3.687-3.022 4.286-4.775.413-1.209.456-15.592.456-151.45V7.325L216 5.563c-.99-1.977-2.365-3.322-4.315-4.222l-1.318-.608h-101.35c-99.198 0-101.38.011-102.79.553C4.336 2.014 2.25 3.995 1.4 5.871L.717 7.377.64 156.867c-.054 103.83.016 149.93.228 150.93.608 2.866 2.79 5.294 5.638 6.279 1.367.472 7.272.497 102.8.437l101.35-.063 1.484-.781zm-19.436-20.581c-.16-.06-.638-.185-1.064-.278-1.075-.236-2.474-1.478-3.147-2.795-.532-1.04-.567-1.758-.567-11.822 0-11.522.002-11.538 1.554-13.24 1.04-1.14 2.049-1.49 4.3-1.49 2.659 0 3.825.574 5.005 2.463l.869 1.391v10.856c0 10.732-.007 10.87-.658 12.083-.868 1.622-2.4 2.59-4.41 2.786-.876.085-1.723.106-1.882.046zm2.302-3.168c1.715-.715 1.743-.877 1.845-10.713.051-4.925.007-9.529-.097-10.23-.412-2.756-3.243-3.908-5.086-2.07l-.846.845.009 10.35c.01 11.185-.024 10.935 1.61 11.786 1.042.542 1.334.545 2.565.032zm8.753 2.936c-.454-.333-.487-1.482-.417-14.805l.076-14.444 1.375-.088 1.376-.088v14.718c0 13.154-.05 14.736-.458 14.893-.717.274-1.414.208-1.952-.185zm-146.27-13.69c-.318-.062-1.296-.255-2.171-.429-3.375-.67-6.646-3.15-8.193-6.211-2.405-4.763-1.492-10.058 2.557-14.83 1.449-1.708 1.922-2.614 1.365-2.614-.12 0-1.26.526-2.534 1.17-2.885 1.454-5.354 1.76-8.253 1.022-6.37-1.624-9.9-7.165-8.569-13.451.927-4.372 3.146-7.342 6.762-9.051 1.793-.847 2.19-.922 4.863-.922 2.78 0 3.01.048 5.11 1.084 2.873 1.416 4.978 3.642 6.315 6.678 1.543 3.503 2.025 2.87 1.304-1.714-.62-3.948-1.864-8.352-3.29-11.651-.62-1.435-1.057-2.678-.971-2.764.286-.285 12.759-.166 12.938.124.095.153-.09.792-.41 1.419-1.07 2.092-2.344 5.552-3.068 8.332-.77 2.954-1.373 7.338-1.106 8.033.306.796.878.428 1.247-.803.553-1.847 1.65-3.86 2.79-5.117 5.442-6.01 15.97-4.5 19.576 2.806.78 1.58.946 2.287 1.05 4.465.346 7.214-3.843 12.263-10.663 12.849-2.12.182-4.996-.417-6.525-1.36-.938-.578-1.872-.754-1.872-.353 0 .12.572.915 1.272 1.766 2.37 2.882 3.641 6.234 3.647 9.617.008 4.581-2.44 8.53-6.574 10.608-1.622.815-5.33 1.544-6.598 1.297zm97.133-.14c-6.43-.883-10.699-5.572-10.699-11.75 0-3.8.91-6.131 3.736-9.585.971-1.187 1.766-2.26 1.766-2.383 0-.451-.892-.206-2.24.616-6.21 3.788-14.643.986-17.18-5.708-.52-1.375-.598-2.067-.489-4.377.273-5.76 3.327-10.038 8.248-11.554 5.8-1.788 11.946.985 14.567 6.572 1.301 2.774 1.299 2.77 1.675 2.895 1.284.427-1.084-10.712-3.29-15.474-.55-1.19-1.001-2.34-1.001-2.557 0-.319 1.217-.392 6.515-.392 3.583 0 6.515.103 6.515.23 0 .126-.646 1.792-1.436 3.7-1.794 4.338-2.86 8.426-3.1 11.886-.16 2.316-.124 2.672.271 2.672.27 0 .598-.44.807-1.083.684-2.105 2.058-4.469 3.344-5.751 3.484-3.476 9.312-4.225 14.064-1.807 1.79.912 4.192 3.317 4.988 4.998 1.894 3.993 1.506 9.13-.959 12.705-3.07 4.45-9.327 6.04-14.419 3.663-2.911-1.359-3.093-1.133-1.113 1.382 1.656 2.104 2.954 4.973 3.34 7.388 1.28 7.992-5.672 14.846-13.909 13.715zm40.264-21.397c-1.639-.842-2.595-2.435-2.602-4.333-.006-1.666.333-2.593 1.476-4.032.917-1.155.731-1.438-.441-.672-1.103.721-3.337.832-4.509.225-4.261-2.21-2.593-9.622 2.166-9.622 1.53 0 2.887.872 4.056 2.607.479.71.998 1.322 1.154 1.357.458.106.164-1.613-.744-4.342-.466-1.4-.847-2.667-.847-2.817 0-.153 1.33-.272 3.04-.272 3.473 0 3.485.012 2.35 2.248-1.335 2.633-2.394 7.075-1.23 5.156 1.64-2.702 2.503-3.394 4.433-3.56 2.63-.227 4.517 1.456 4.88 4.35.24 1.924-.295 3.288-1.716 4.37-1.526 1.16-3.181 1.269-5.213.341-.891-.407-1.62-.683-1.62-.614 0 .07.452.717 1.004 1.44 1.761 2.3 1.987 4.549.653 6.504-1.52 2.227-3.947 2.87-6.29 1.666zm-89.938-9.603c-6.323-1.431-9.967-6.226-9.6-12.633.121-2.129.306-2.87 1.16-4.638.559-1.158 1.62-2.801 2.36-3.653 1.471-1.694 2.044-2.603 1.797-2.85-.089-.088-1.262.397-2.608 1.078-2.07 1.048-2.786 1.26-4.655 1.38-6.576.42-12.105-4.038-12.541-10.11-.492-6.854 3.625-12.432 9.996-13.548 5.108-.895 10.543 2.027 12.827 6.895 1.3 2.773 1.299 2.77 1.675 2.895 1.422.472-1.254-11.548-3.6-16.174-1.204-2.373-1.526-2.249 5.823-2.249 5.222 0 6.515.076 6.515.384 0 .21-.513 1.565-1.141 3.01-1.994 4.585-3.492 10.529-3.492 13.854 0 1.882.767 1.56 1.571-.66.816-2.25 1.567-3.44 3.117-4.941 4.657-4.51 12.553-4.154 17.123.77 5.257 5.665 3.47 15.418-3.448 18.815-3.233 1.588-8.099 1.435-11.013-.348-1.934-1.183-2.04-.545-.285 1.711 3.412 4.385 4.442 9.333 2.827 13.574-2.098 5.509-8.448 8.787-14.408 7.438zm-49.844-30.942c-4.98-1.338-8.3-4.898-9.11-9.768-.61-3.68.646-7.735 3.37-10.874 1.394-1.607 2.11-2.776 1.854-3.03-.076-.077-1.22.41-2.54 1.084l-2.403 1.223-3.224-.008c-2.877-.007-3.405-.09-4.891-.779-2.276-1.053-4.736-3.425-5.743-5.536-1.017-2.13-1.266-4.083-.852-6.676.677-4.246 3.127-7.742 6.632-9.464 1.801-.885 2.082-.936 5.112-.936 3.124 0 3.263.028 5.413 1.088 2.58 1.272 4.441 3.152 5.588 5.645 1.302 2.83 1.434 3.053 1.731 2.925 1.11-.478-1.168-10.762-3.51-15.848-.756-1.642-.902-2.201-.621-2.38.477-.301 12.126-.303 12.603-.001.275.175.09.86-.767 2.83-1.954 4.496-3.202 9.064-3.62 13.252-.312 3.112.567 3.27 1.564.281.732-2.193 2.256-4.338 4.107-5.776 3.834-2.98 9.96-2.98 14.278 0 1.755 1.21 2.83 2.523 3.858 4.711.7 1.49.775 1.974.775 4.972 0 3.13-.053 3.434-.916 5.252-1.226 2.581-2.926 4.359-5.268 5.509-1.821.895-2.069.939-5.248.939-3.192 0-3.416-.04-5.2-.943-1.025-.518-1.97-.835-2.102-.704-.131.13.363 1.01 1.098 1.953 2.703 3.47 3.723 6.412 3.538 10.21-.15 3.083-1.024 5.144-3.112 7.347-3.159 3.332-7.967 4.69-12.393 3.502zm97.795-.08c-1.035-.269-2.473-.836-3.195-1.258-1.815-1.062-3.935-3.407-4.86-5.376-.7-1.491-.776-1.974-.776-4.974 0-3.229.03-3.383 1.051-5.488.578-1.192 1.656-2.863 2.395-3.715 2.391-2.753 2.38-3.561-.028-2.099-2.096 1.273-3.895 1.77-6.417 1.77-3.617 0-6.868-1.448-9.105-4.056-1.704-1.986-2.323-3.547-2.463-6.214-.293-5.561 2.154-10.17 6.544-12.326 1.842-.905 2.08-.948 5.266-.948 3.21 0 3.409.037 5.282.975 2.656 1.33 4.597 3.436 6.042 6.555 1.772 3.828 2.17 2.763 1.126-3.019-.649-3.595-1.931-7.86-3.22-10.708-.464-1.025-.778-2.035-.698-2.244.117-.302 1.448-.365 6.452-.303 6.104.076 6.303.096 6.255.656-.027.318-.652 2.035-1.389 3.816-2.11 5.098-3.601 12.1-2.942 13.812.281.732.883.105 1.321-1.376.95-3.211 3.327-5.987 6.326-7.39 1.495-.699 1.98-.774 4.986-.774 3.13 0 3.443.054 5.212.898 5.006 2.39 7.52 7.128 6.673 12.58-.653 4.213-2.991 7.489-6.498 9.105-1.6.738-2.07.816-4.953.816-2.993 0-3.305-.057-5.172-.94-1.093-.516-2.037-.938-2.1-.938-.375 0 .017.946.792 1.91 3.06 3.804 4.326 7.783 3.714 11.672-.762 4.842-4.091 8.357-9.162 9.675-2.123.552-4.095.523-6.459-.093zm-101.34-62.99c0-.134.58-1.626 1.289-3.313 2.075-4.941 3.344-10.024 3.344-13.392 0-1.309-.08-1.562-.475-1.485-.266.053-.627.601-.821 1.249-2.282 7.61-10.03 10.913-17.207 7.335-2.223-1.108-4.7-3.74-5.468-5.808-1.182-3.183-1.053-7.025.339-10.127 2.523-5.624 9.65-8.128 15.44-5.425 2.933 1.37 3.053 1.196 1.023-1.486-3.652-4.826-4.385-9.907-2.099-14.562 2.172-4.422 7.756-7.226 12.815-6.434 6.49 1.016 10.642 5.6 10.642 11.748 0 3.813-1.036 6.393-3.952 9.833-.852 1.005-1.55 1.948-1.55 2.094 0 .492.84.271 2.173-.571 5.674-3.59 14.097-1.159 16.908 4.88 1.38 2.966 1.148 7.501-.559 10.909-4.389 8.762-17.16 8.372-21.393-.653-1.34-2.856-1.331-2.842-1.71-2.967-1.283-.427 1.085 10.712 3.29 15.474.552 1.19 1.003 2.34 1.003 2.556 0 .32-1.217.393-6.516.393-3.583 0-6.515-.111-6.515-.247zm98.023-.032c-.095-.153.09-.792.41-1.419 1.07-2.091 2.344-5.552 3.068-8.332.77-2.954 1.373-7.338 1.106-8.032-.313-.815-.95-.418-1.278.797-.857 3.174-3.46 6.427-6.141 7.676-5.473 2.547-12.196.767-15.483-4.1-3.25-4.813-2.044-12.79 2.452-16.215 3.557-2.71 9.463-3.165 12.975-1 .937.578 1.871.754 1.871.353 0-.12-.58-.925-1.29-1.788-5.94-7.224-4.46-16.717 3.163-20.275 2.337-1.09 5.12-1.433 7.833-.963 7.77 1.346 12.1 8.892 9.341 16.279-.74 1.984-1.475 3.171-3.224 5.215-1.238 1.448-1.665 2.329-1.128 2.329.12 0 1.309-.553 2.644-1.228 2.369-1.199 2.494-1.227 5.212-1.21 2.152.014 3.148.162 4.379.648 4.85 1.919 7.92 6.673 7.374 11.426-.442 3.857-2 7.104-4.32 9-6.317 5.164-15.537 2.655-18.983-5.166-.96-2.18-1.735-2.854-1.735-1.51 0 1.332 1.143 7.27 1.889 9.813.413 1.41 1.248 3.712 1.855 5.117.607 1.404 1.034 2.623.948 2.709-.286.285-12.759.166-12.938-.124zm-48.999-31.136c.086-.278.748-1.949 1.472-3.713 1.834-4.47 2.803-8.35 2.872-11.496.037-1.662-.056-2.61-.263-2.682-.176-.061-.669.836-1.095 1.993-1.429 3.875-3.876 6.346-7.375 7.447-6.277 1.975-13.05-1.226-15.277-7.22-.701-1.887-.651-5.99.102-8.292 1.255-3.84 4.312-6.57 8.362-7.47 2.613-.579 4.709-.393 7.205.642 2.52 1.044 2.75 1.094 2.75.6 0-.237-.196-.594-.437-.793-.911-.755-3.009-4.261-3.628-6.064-.881-2.568-.888-6.143-.015-8.42 1.728-4.51 5.733-7.364 10.785-7.687 5.363-.342 10.06 2.275 12.21 6.805.868 1.827.92 2.123.92 5.273 0 3.276-.02 3.378-1.079 5.489-.593 1.183-1.799 2.99-2.678 4.015-2.315 2.697-2.083 2.985 1.08 1.34 2.624-1.365 4.759-1.771 7.275-1.386 2.83.434 5.298 1.736 7.223 3.81 2.018 2.175 2.802 4.142 2.802 7.032 0 5.45-2.517 9.776-6.892 11.843-1.798.85-2.164.917-4.995.917-2.95 0-3.132-.037-5.262-1.087-2.79-1.376-4.558-3.27-6.06-6.496-1.407-3.02-1.843-3.1-1.592-.288.37 4.14 1.94 10.109 3.676 13.969.47 1.045.855 2.018.855 2.163 0 .148-2.824.261-6.549.261-6.103 0-6.538-.034-6.393-.505zm-48.897-30.49c-.079-.206.237-1.213.701-2.239 2.141-4.72 3.805-10.95 3.805-14.242 0-2.413-.696-2.435-1.445-.044-1.776 5.676-7.092 9.016-13.034 8.19-6.794-.944-11.258-6.936-10.16-13.64.693-4.237 2.874-7.293 6.396-8.966 1.75-.832 2.105-.894 5.067-.894 2.993 0 3.305.056 5.172.939 1.093.516 2.038.938 2.1.938.416 0-.06-1.01-1.022-2.173-1.601-1.932-2.851-4.545-3.382-7.07-1.437-6.829 2.974-13.012 10.159-14.24 5.345-.913 11.127 2.08 13.412 6.944.706 1.503.78 1.98.78 4.984 0 3.23-.03 3.383-1.051 5.489-.578 1.192-1.656 2.863-2.396 3.714-2.486 2.863-2.378 3.542.306 1.93 2.115-1.272 3.994-1.695 6.936-1.56 1.973.09 2.643.266 4.523 1.193 3.908 1.927 5.995 4.93 6.244 8.982.339 5.525-2.338 10.457-6.81 12.548-1.515.707-1.983.78-5 .776-2.991-.004-3.498-.082-4.975-.769-2.895-1.348-5.26-3.936-6.614-7.243-.39-.953-.86-1.66-1.103-1.66-1.283 0 1.452 12.041 3.76 16.555.992 1.938 1.009 1.932-5.981 1.932-4.85 0-6.276-.083-6.388-.375zm98.096.13c-.289-.182-.18-.662.488-2.146 2.001-4.45 3.269-8.805 3.79-13.02.236-1.911.232-2.658-.018-2.958-.455-.547-.743-.305-1.15.968-1.963 6.137-6.927 9.413-13.164 8.687-4.526-.526-8.37-3.615-9.8-7.876-.617-1.839-.623-5.637-.011-7.695.96-3.236 3.108-5.737 6.143-7.156 1.48-.693 1.973-.769 4.973-.769 3.203 0 3.401.037 5.181.956 1.047.54 1.96.846 2.103.704.142-.142-.33-.996-1.086-1.966-2.71-3.48-3.722-6.407-3.538-10.246.1-2.094.275-2.833 1.031-4.365 2.58-5.226 8.627-7.95 14.351-6.462 5.128 1.332 8.41 4.824 9.242 9.832.62 3.737-.666 7.677-3.64 11.147-.9 1.05-1.637 2.134-1.637 2.407 0 .273.098.454.218.4.119-.052 1.253-.615 2.52-1.251 2.271-1.14 2.346-1.155 5.501-1.155 2.87 0 3.37.08 4.865.778.916.429 2.36 1.435 3.21 2.236 2.912 2.748 3.947 5.735 3.385 9.77-.61 4.379-3.03 7.91-6.633 9.678-1.803.885-2.085.937-5.114.937-3.123 0-3.262-.028-5.411-1.088-2.58-1.273-4.44-3.153-5.587-5.646-1.295-2.813-1.456-3.09-1.742-3.005-.455.137-.193 3.267.566 6.761.765 3.52 2.118 7.614 3.267 9.878.574 1.133.64 1.46.329 1.657-.496.313-12.137.322-12.631.009zm-134.59-9.982c-.085-.223.112-.928.438-1.567 1.043-2.039 2.122-5.585 1.798-5.908-.2-.2-.45.092-.776.905-1.785 4.453-7.845 3.98-8.816-.688-.4-1.923-.19-3.041.785-4.198 1.52-1.803 3.791-2.215 6.09-1.105.696.336 1.323.552 1.395.48.071-.07-.339-.729-.912-1.462-1.856-2.377-1.895-4.931-.106-6.964 1.136-1.29 2.273-1.725 4.068-1.553 2.35.226 3.983 1.792 4.24 4.07.223 1.972-.107 3.148-1.264 4.496-.574.669-.982 1.277-.907 1.352.075.075.71-.124 1.41-.44 3.734-1.691 6.734.252 6.757 4.375.007 1.366-.138 1.853-.863 2.889-2.29 3.274-6.194 2.822-8.104-.939-.399-.785-.806-1.426-.905-1.426-.374 0 .166 3.156.905 5.29.422 1.221.687 2.35.588 2.509-.1.16-1.403.29-2.922.29-2.087 0-2.78-.098-2.899-.406zm-5.478-28.25c-.08-.207-.11-6.877-.07-14.821L9.72 24.99h2.606v29.466l-1.233.089c-.818.059-1.283-.039-1.379-.29zm10.036.137c-.376-.071-1.24-.685-1.922-1.365-1.77-1.765-1.882-2.58-1.882-13.555 0-10.453.144-11.505 1.801-13.1 1.225-1.178 2.197-1.528 4.226-1.52 2.867.011 4.878 1.352 5.572 3.716.199.677.275 4.807.217 11.754l-.09 10.71-.815 1.229c-1.304 1.966-3.887 2.74-7.107 2.13zm3.243-2.663c.393-.149.988-.564 1.322-.921.593-.635.607-.89.607-11.017V29.424l-.846-.844c-1.636-1.632-4.3-.872-4.934 1.407-.433 1.556-.367 18.692.078 19.992.235.689.668 1.172 1.359 1.516 1.165.581 1.433.607 2.414.235z" fill="#6f6f6f"/><path d="M0 157.44V0h217.75v314.88H0V157.44zm212.5 156.15c1.72-.95 2.892-2.217 3.877-4.19l.653-1.308V7.372l-.759-1.615c-.974-2.073-2.852-3.866-4.818-4.6-1.538-.574-2.168-.577-103.1-.503L6.813.727l-1.453.768C3.484 2.49 2.244 3.808 1.327 5.78l-.739 1.59-.003 150.09c-.002 139.66.031 150.19.483 151.52.676 1.982 3.266 4.547 5.188 5.137 1.257.386 13.145.43 103.06.383l101.64-.053 1.55-.857zm-21.724-21.25c-1.18-.621-2.009-1.658-2.513-3.14-.227-.669-.334-4.231-.334-11.143v-10.16l.797-1.568c1.106-2.179 2.586-2.941 5.456-2.81 1.734.078 2.224.222 3.144.922 2.135 1.625 2.173 1.867 2.173 13.752 0 9.642-.046 10.643-.534 11.7-.619 1.336-1.57 2.286-2.73 2.724-1.334.505-4.257.357-5.459-.277zm5.04-2.857l.945-.843.077-10.207c.074-9.67.048-10.255-.484-11.116-1.203-1.948-4.29-1.84-5.317.187-.465.919-.505 1.93-.434 11.074l.077 10.062.946.843c1.308 1.165 2.882 1.165 4.19 0zm7.75-11.29v-14.766l1.23.089 1.23.089v29.176l-1.23.088-1.23.09v-14.767zm-148.47.421c-3.749-1.007-6.458-3.19-7.976-6.424-.737-1.572-.928-2.393-1.025-4.42-.185-3.863.801-6.632 3.448-9.684 2.82-3.249 2.594-3.87-.776-2.137-3.73 1.92-7.187 2.059-10.76.434-2.028-.921-4.52-3.32-5.478-5.273-.925-1.887-1.217-5.123-.69-7.655 1.3-6.251 7.113-10.435 13.148-9.466 4.244.682 7.473 3.194 9.53 7.413.674 1.383 1.356 2.494 1.515 2.47 1.3-.194-.863-10.603-3.357-16.148-.475-1.058-.75-2.024-.613-2.16.136-.136 2.974-.212 6.307-.17 5.86.076 6.059.098 6.011.657-.027.318-.652 2.035-1.389 3.815-.737 1.781-1.655 4.476-2.04 5.99-.84 3.31-1.253 7.776-.746 8.09.519.32 1.05-.28 1.459-1.642.922-3.079 3.264-5.948 5.912-7.24 7.494-3.662 16.419 1.253 17.17 9.456.197 2.143-.245 4.653-1.177 6.683-2.57 5.6-9.809 7.924-15.638 5.02-.941-.468-1.82-.851-1.955-.851-.411 0-.269 1.063.194 1.447.81.67 2.956 4.172 3.56 5.807 1.75 4.742.712 9.728-2.692 12.94-3.216 3.033-7.718 4.183-11.942 3.048zm97.825-.011c-3.628-.974-6.957-3.826-8.137-6.972-1.776-4.737-.713-9.626 3.032-13.94 2.23-2.569 2.177-3.633-.108-2.193-3.764 2.37-7.783 2.638-11.753.785-3.561-1.663-6.063-4.959-6.426-8.466-.395-3.817 1.338-8.686 3.902-10.962 3.521-3.125 8.484-3.829 12.987-1.843 2.353 1.038 4.97 3.8 6.033 6.367.456 1.102 1.007 2.2 1.224 2.438.631.693.995-.178.784-1.878-.593-4.785-2.087-10.321-3.767-13.971-.539-1.17-.908-2.243-.821-2.383.191-.31 12.489-.347 12.664-.04.067.12-.439 1.517-1.125 3.106-1.652 3.827-2.666 7.38-3.23 11.323-.382 2.661-.397 3.315-.088 3.687.5.601 1.032.156 1.478-1.24 1.48-4.623 4.786-7.6 9.382-8.448 4.882-.9 10.548 1.997 12.767 6.528.787 1.61.845 1.955.835 5.05-.012 4.166-.606 5.877-2.895 8.343-3.428 3.695-8.802 4.624-13.65 2.36-2.215-1.033-2.953-.84-1.875.49 1.398 1.724 2.957 4.256 3.577 5.808.528 1.32.654 2.208.661 4.664.01 2.818-.056 3.17-.91 4.969-2.497 5.26-8.682 7.99-14.542 6.418zm43.313-20.646c-1.494-.256-2.531-1.068-3.312-2.592-1.062-2.075-.714-4.194 1.001-6.088.57-.629.95-1.227.848-1.33-.103-.103-.776.107-1.496.465-2.593 1.292-5.25.648-6.232-1.51-1.946-4.274 1.68-9 5.565-7.253 1.272.572 2.374 1.82 2.875 3.254.374 1.07 1.131 1.228 1.131.237 0-.996-1.052-4.925-1.603-5.99-.394-.76-.41-.966-.089-1.175.444-.288 4.996-.243 5.479.055.214.132.08.663-.413 1.633-.88 1.733-1.926 4.756-1.926 5.566 0 1.005.539.648 1.309-.868.961-1.893 2.099-2.587 4.243-2.588 1.364 0 1.8.132 2.573.78 1.207 1.013 1.72 2.285 1.72 4.264 0 1.42-.112 1.722-1.016 2.72-1.684 1.86-4.317 2.063-6.547.505-.37-.259-.775-.47-.898-.47-.478 0-.192.797.527 1.466 1.843 1.717 2.39 4.59 1.255 6.583-1.084 1.901-2.812 2.71-4.994 2.335zm-92.337-10.365c-4.952-1.58-8.116-5.44-8.54-10.42-.292-3.43.948-6.772 3.802-10.245 2.443-2.975 2.201-3.539-.814-1.894-2.672 1.459-5.17 1.942-7.719 1.494-3.853-.678-7.114-3.043-8.74-6.34-.86-1.742-.948-2.16-.924-4.387.015-1.353.19-3.046.388-3.76.987-3.55 3.463-6.594 6.504-7.997 1.586-.73 2.082-.815 4.824-.815 2.949 0 3.132.038 5.261 1.088 2.673 1.318 4.574 3.284 5.792 5.99 1.189 2.64 1.253 2.744 1.704 2.744.658 0 .628-1.085-.148-5.3-.769-4.174-2.151-8.66-3.46-11.228-.422-.829-.767-1.576-.767-1.661 0-.085 2.946-.154 6.546-.154 5.132 0 6.51.078 6.38.361-2.364 5.172-4.056 10.684-4.497 14.654-.434 3.911.463 4.698 1.631 1.43 1.837-5.137 5.813-8.067 10.947-8.067 4.258 0 8.17 2 10.28 5.257 1.394 2.153 1.83 4.069 1.674 7.347-.102 2.116-.284 2.914-1.03 4.502-2.768 5.902-9.689 8.161-15.808 5.16-2.569-1.26-2.88-.877-1.068 1.31 4.688 5.661 5.05 12.846.882 17.52-3.052 3.424-8.562 4.858-13.101 3.41zm-47.72-30.385c-3.847-.655-7.404-3.238-9.05-6.575-.895-1.813-.94-2.06-.94-5.245 0-3.282.02-3.383 1.08-5.495.593-1.184 1.798-2.99 2.678-4.016 2.523-2.94 2.178-3.272-1.48-1.422-1.906.965-2.75 1.22-4.427 1.34-6.433.46-12.053-4.093-12.41-10.052-.336-5.61 2.247-10.341 6.828-12.506 1.777-.84 2.184-.917 4.836-.917 2.657 0 3.056.076 4.852.925 3.285 1.552 5.492 4.06 7.004 7.958.613 1.578 1.319 1.443 1.319-.253 0-3.197-2.238-11.818-3.944-15.193-.38-.75-.69-1.497-.69-1.66 0-.197 2.18-.3 6.371-.3 3.504 0 6.37.112 6.37.247s-.596 1.663-1.324 3.394c-1.798 4.274-3.035 9.146-3.107 12.24-.047 2.04.02 2.461.407 2.54.34.07.668-.463 1.24-2.013.427-1.16 1.23-2.724 1.782-3.478 3.556-4.846 10.683-5.971 16.051-2.535 6.743 4.317 6.939 14.912.362 19.577-3.465 2.458-8.942 2.732-12.404.623-1.007-.614-1.848-.718-1.848-.229 0 .177.604 1.12 1.343 2.094 3.676 4.851 4.47 9.787 2.323 14.463-2.104 4.585-7.844 7.402-13.222 6.488zm97.6-.12c-5.647-1.247-9.374-5.298-9.778-10.627-.283-3.737.837-6.81 3.794-10.405 2.338-2.842 2.097-3.604-.616-1.953-4.682 2.85-10.64 2.118-14.555-1.788-3.3-3.293-4.013-7.827-2.042-12.988.738-1.931 2.956-4.504 4.827-5.597 3.955-2.313 9.205-1.966 13.059.864 1.905 1.4 3.1 3.019 4.291 5.816.765 1.795 1.42 2.344 1.756 1.47.225-.585-.947-7.232-1.782-10.107-.391-1.345-1.176-3.527-1.744-4.849l-1.188-2.765c-.122-.282 1.226-.36 6.198-.36 3.494 0 6.428.074 6.52.166.091.091-.27 1.121-.804 2.289-1.951 4.272-3.325 9.253-3.745 13.577-.29 2.972.803 3.384 1.672.631.62-1.961 2.417-4.683 3.815-5.78 4.779-3.747 12.057-3.16 16.247 1.308 3.407 3.634 4.015 9.407 1.492 14.174-1.103 2.085-2.64 3.485-5.103 4.649-1.752.828-2.168.907-4.814.907-2.666 0-3.053-.075-4.882-.94-3.32-1.568-3.513-1.292-1.204 1.732.873 1.143 1.941 2.927 2.374 3.965.683 1.638.787 2.287.795 4.92.007 2.502-.109 3.324-.657 4.693-2.022 5.048-8.354 8.23-13.927 6.999zm-102.02-62.99c-.097-.096.153-.909.556-1.805 2.095-4.666 3.355-8.982 3.876-13.272.252-2.08.247-2.782-.025-3.11-.475-.57-1.014-.1-1.453 1.27-.636 1.99-2.086 4.382-3.372 5.564-5.649 5.195-15.38 3.306-18.774-3.643-.782-1.602-.843-1.969-.843-5.05 0-4.15.593-5.857 2.9-8.343 3.422-3.688 8.804-4.623 13.632-2.37 2.232 1.042 2.975.854 1.894-.48-1.398-1.725-2.957-4.256-3.578-5.808-.527-1.32-.653-2.209-.66-4.664-.01-2.818.055-3.17.91-4.97 2.537-5.344 8.646-7.996 14.613-6.345 2.549.705 4.212 1.72 5.98 3.65 4.247 4.636 3.86 11.651-.948 17.19-2.216 2.554-2.129 3.753.161 2.201 1.427-.967 2.898-1.542 4.836-1.891 4.639-.835 10.163 1.95 12.221 6.162 1.063 2.175 1.338 4.36.886 7.037-1.156 6.839-6.676 11.071-13.244 10.155-4.174-.582-7.901-3.461-9.493-7.334-1.034-2.517-1.368-2.936-1.863-2.341-.898 1.078 1.625 11.827 3.79 16.146.46.92.76 1.797.666 1.95-.187.3-12.37.399-12.668.102zm98.09-.121c-.1-.164.338-1.51.975-2.99 2.016-4.69 3.519-10.635 3.519-13.922 0-2.14-1.055-1.996-1.723.234-.591 1.975-1.428 3.396-2.938 4.988-6.053 6.386-17.55 3.414-19.829-5.125-1.11-4.159.279-9.341 3.229-12.054 3.44-3.165 8.945-3.888 13.25-1.741.954.475 1.843.863 1.977.863.564 0 .156-.95-1.14-2.658-4.482-5.908-4.66-12.45-.464-16.972 3.173-3.42 7.862-4.795 12.36-3.626 5.489 1.426 8.84 5.373 9.123 10.744.198 3.772-.81 6.71-3.303 9.624-1.897 2.217-2.288 2.862-1.944 3.205.19.19 1.014-.102 2.432-.86 3.676-1.964 7.276-2.119 10.905-.468 2.028.923 4.52 3.322 5.477 5.274.926 1.887 1.218 5.123.69 7.655-1.61 7.742-9.504 11.689-16.677 8.34-2.601-1.214-4.494-3.197-6-6.287-.675-1.383-1.356-2.459-1.516-2.392-.433.182-.282 3.549.284 6.332.614 3.021 1.93 7.196 3.064 9.717.468 1.041.778 2.01.69 2.155-.232.372-12.208.338-12.44-.036zM100.707 123.2c-.09-.09.335-1.31.945-2.712.61-1.402 1.51-3.831 2.002-5.398 1.085-3.457 2.014-9.493 1.534-9.972-.57-.567-1.134-.042-1.65 1.535-1.536 4.682-5.246 7.737-9.998 8.233-2.425.253-5.627-.529-7.73-1.887-3.395-2.193-5.044-4.98-5.25-8.873-.288-5.452 1.946-9.638 6.266-11.739 1.819-.884 2.115-.939 5.116-.942 2.995-.003 3.304.052 5.18.935 1.097.517 2.107.939 2.244.939.538 0 .192-.759-1.084-2.379-2.652-3.368-3.748-6.562-3.532-10.293.4-6.884 7.133-11.995 14.152-10.743 5.85 1.043 9.9 5.27 10.315 10.764.282 3.733-.909 6.978-3.794 10.34-1.476 1.72-2.024 2.889-1.354 2.889.147 0 1.332-.553 2.634-1.228 2.353-1.22 2.386-1.228 5.459-1.228 2.934 0 3.193.05 5.102.988 5.102 2.506 7.409 7.335 6.118 12.81-1.238 5.25-4.58 8.58-9.522 9.488-5.375.988-10.827-2.16-13.244-7.649-.917-2.08-1.564-2.696-1.904-1.812-.082.215.057 1.676.31 3.248.78 4.829 2.008 9.076 3.72 12.868.406.896.658 1.709.561 1.805-.221.221-12.376.233-12.597.013zM51.768 92.288c-.091-.091.231-1.034.716-2.095 1.972-4.313 3.417-9.505 3.831-13.773.29-2.972-.803-3.384-1.672-.631-.62 1.961-2.417 4.683-3.815 5.78-4.779 3.747-12.057 3.16-16.247-1.308-3.407-3.634-4.015-9.407-1.492-14.174 1.103-2.085 2.64-3.484 5.103-4.649 1.752-.828 2.168-.907 4.813-.907 2.667 0 3.053.075 4.883.94 2.038.962 2.79 1.143 2.79.668 0-.148-.714-1.217-1.587-2.375s-1.94-2.954-2.373-3.99c-.683-1.638-.788-2.287-.795-4.92-.006-2.502.109-3.324.657-4.693 1.996-4.982 8.208-8.159 13.715-7.013 5.107 1.062 8.443 4.051 9.68 8.673 1.094 4.084-.073 8.226-3.484 12.373-.893 1.086-1.624 2.158-1.624 2.383 0 .62.777.493 1.97-.32.589-.402 1.899-.987 2.91-1.3 4.238-1.313 8.69-.195 11.898 2.989 3.364 3.338 4.034 7.668 2.021 13.05-.902 2.413-3.766 5.277-6.203 6.202-6.607 2.51-13.293-.644-16.055-7.573-.638-1.602-1.307-2.114-1.638-1.255-.244.636.999 7.457 1.929 10.58.462 1.552 1.299 3.826 1.86 5.053.56 1.228 1.019 2.28 1.019 2.34 0 .178-12.63.123-12.81-.057zm97.94-.042c0-.114.607-1.702 1.348-3.53.742-1.827 1.649-4.412 2.017-5.746.762-2.764 1.462-7.798 1.184-8.52-.39-1.014-1.009-.45-1.768 1.609-1.974 5.354-6.294 8.291-11.687 7.947-6.98-.445-11.79-5.773-11.282-12.498.402-5.325 3.251-9.083 8.005-10.559 3.04-.943 6.737-.577 9.177.91 1.007.614 1.848.718 1.848.229 0-.177-.605-1.12-1.344-2.095-4.62-6.097-4.667-12.992-.12-17.529 5.877-5.862 16.523-4.183 20.058 3.165.753 1.565.938 2.348 1.04 4.41.202 4.054-.894 6.894-4.095 10.62-2.268 2.638-1.822 2.932 1.728 1.136 1.907-.965 2.75-1.22 4.428-1.34 6.433-.459 12.053 4.093 12.41 10.052.336 5.61-2.247 10.341-6.828 12.506-1.777.84-2.184.917-4.836.917-2.657 0-3.056-.076-4.852-.925-3.405-1.609-5.34-3.85-7.12-8.247-.177-.437-.52-.794-.762-.794-1.29 0 .643 10.023 2.925 15.166.564 1.271 1.095 2.538 1.18 2.816.144.471-.284.506-6.25.506-3.522 0-6.404-.093-6.404-.207zm-134.44-9.79c-.098-.1.132-.793.513-1.542.847-1.669 1.888-4.695 1.888-5.492 0-1.042-.706-.6-1.401.877-.801 1.703-2.226 2.58-4.191 2.58-2.508 0-4.254-2.015-4.252-4.906.001-2.104.746-3.322 2.508-4.1 1.59-.701 2.726-.588 4.763.475.778.406 1.415.596 1.415.422 0-.173-.449-.86-.997-1.528-1.224-1.49-1.61-2.461-1.605-4.03.011-2.752 2.526-5.034 5.173-4.695 2.492.32 3.973 1.851 4.278 4.423.195 1.64-.283 2.969-1.61 4.477-1.107 1.257-.758 1.615.724.742 1.469-.864 3.813-.897 4.946-.07 1.137.833 1.83 2.331 1.83 3.961.002 3.355-2.523 5.715-5.451 5.097-1.23-.26-2.517-1.479-3.417-3.239-1.439-2.814-1.607-.433-.26 3.694.362 1.112.754 2.25.871 2.528.194.462-.037.505-2.666.505-1.583 0-2.96-.08-3.058-.18zM9.924 54.423c-.283-.114-.362-3.328-.362-14.704v-14.56l.701-.175c.386-.096.94-.13 1.23-.074.504.097.534.818.605 14.667.06 11.461-.002 14.615-.29 14.797-.4.254-1.317.277-1.884.049zm9.316-.377c-1.012-.409-2.408-2.004-2.738-3.13-.208-.708-.284-4.683-.225-11.782l.09-10.714.79-1.137c.994-1.431 2.036-2.049 3.865-2.29 2.957-.392 5.755 1.242 6.46 3.772.418 1.506.436 20.372.02 21.867-.356 1.28-1.479 2.684-2.613 3.27-.896.462-4.624.557-5.649.143zm4.868-2.875l.946-.842.09-9.774c.058-6.343-.02-10.143-.22-10.825-.508-1.73-2.447-2.592-4.192-1.865-1.867.778-1.904 1.015-1.904 12.175v10.01l.985.981c1.325 1.322 2.91 1.374 4.295.14z" fill="#4e4e4e"/><path d="M0 157.44V0h217.75v314.88H0V157.44zm212.43 156.37c1.778-.949 3.799-3.342 4.313-5.108.384-1.316.426-18.95.36-151.7l-.073-150.21-.773-1.463c-.905-1.71-2.705-3.425-4.4-4.193C210.694.61 207.846.594 108.879.59L7.098.587 5.65 1.26c-2.113.985-3.185 2.01-4.182 4L.583 7.029v150.41c0 135.27.045 150.54.45 151.72.789 2.31 3.237 4.627 5.445 5.154.5.12 46.776.198 102.84.174l101.93-.044 1.19-.635zm-20.836-21.289c-1.357-.504-2.326-1.377-2.924-2.636-.383-.805-.45-2.564-.446-11.737.005-10.632.014-10.806.651-11.918 1.236-2.156 3.258-2.948 6.29-2.464 1.316.21 1.783.453 2.662 1.386.586.622 1.212 1.67 1.39 2.328.217.806.294 4.527.236 11.371-.084 10.014-.096 10.191-.753 11.334-.366.638-1.09 1.45-1.608 1.804-1.228.84-3.959 1.103-5.498.532zm3.401-2.31c1.938-.808 1.91-.64 1.91-11.925 0-6.702-.106-10.412-.313-10.865-.43-.94-1.729-1.65-3.017-1.65-.831 0-1.29.22-2.055.982l-.984.982V278.1c0 11.442-.024 11.288 1.846 12.1 1.155.501 1.437.503 2.613.013zm8.778 2.535c-.114-.114-.207-6.682-.207-14.596v-14.39l.723-.181c1.681-.421 1.605-1.153 1.524 14.678l-.076 14.524-.879.086c-.483.047-.972-.007-1.085-.12zm-147.59-14.017c-5.149-.849-9.024-4.652-9.893-9.711-.662-3.85.495-7.465 3.558-11.112 1.62-1.93 2.129-3.113 1.34-3.113-.199 0-1.404.528-2.679 1.173-1.9.961-2.715 1.202-4.525 1.339-5.542.418-10.636-3.046-11.965-8.136-.553-2.118-.555-2.93-.01-5.492.876-4.131 3.043-7.009 6.51-8.648 1.713-.81 2.144-.89 4.778-.89 2.654 0 3.058.076 4.843.92 2.925 1.382 4.66 3.166 6.207 6.382.963 2.002 1.423 2.675 1.784 2.606.745-.142.734-1.05-.067-5.398-.762-4.14-1.947-8.088-3.37-11.227l-.818-1.805h6.352c3.494 0 6.352.046 6.352.103 0 .057-.443 1.065-.984 2.24-1.941 4.212-3.209 8.814-3.774 13.703-.304 2.63 1.117 3.368 1.84.955 1.701-5.68 6.236-8.942 11.88-8.545 5.173.364 9.312 3.46 10.618 7.941.65 2.229.428 6.263-.472 8.59-.931 2.408-3.544 5.007-5.933 5.9-3.402 1.274-7.522 1.038-10.17-.581-1.012-.62-2.137-.73-2.137-.21 0 .19.577 1.075 1.28 1.97 2.57 3.262 3.623 6.074 3.636 9.703.02 5.837-4.036 10.39-10.128 11.366-1.035.166-2.012.288-2.172.27-.159-.017-1.006-.15-1.882-.294zm97.599-.111c-5.316-1.174-8.84-4.767-9.536-9.72-.552-3.934.536-7.27 3.585-10.994 1.034-1.263 1.88-2.479 1.88-2.703 0-.653-1.041-.474-2.53.434-4.513 2.754-10.278 2.13-14.208-1.538-2.253-2.103-3.05-3.85-3.19-6.99-.323-7.226 4.052-12.585 10.642-13.035 5.421-.371 10.32 2.859 12.22 8.055.652 1.784 1.192 2.31 1.776 1.727.822-.82-1.252-10.624-3.155-14.915-.564-1.27-1.095-2.538-1.18-2.816-.144-.471.278-.506 6.105-.506 3.443 0 6.26.046 6.26.102 0 .056-.58 1.482-1.29 3.17-1.526 3.636-2.276 6.084-2.909 9.5-.59 3.19-.499 5.527.222 5.664.365.069.638-.22.951-1.009 1.191-3.002 1.84-4.125 3.251-5.62 2-2.121 4.217-3.143 7.274-3.352 7.972-.545 13.903 6.008 12.482 13.788-.732 4.007-2.834 6.827-6.314 8.472-1.777.84-2.184.917-4.836.917-2.666 0-3.053-.075-4.882-.939-3.309-1.563-3.635-1.246-1.583 1.54 3.791 5.146 4.578 9.781 2.448 14.422-2.178 4.746-8.103 7.534-13.484 6.346zm41.223-21.214c-2.84-1.442-3.321-5.836-.884-8.078.418-.385.76-.937.76-1.227 0-.667.007-.668-1.62.195-3.47 1.84-6.546.024-6.601-3.9-.066-4.632 5.051-6.685 7.739-3.106.388.517.79 1.22.895 1.563.282.93 1.014 1.468 1.321.971.341-.55.07-2.061-.897-5.006-.46-1.399-.836-2.601-.836-2.672 0-.07 1.253-.128 2.784-.128 3.201 0 3.042-.382 1.442 3.476-1.14 2.75-1.437 4.468-.77 4.468.228 0 .749-.64 1.158-1.424.92-1.766 1.89-2.496 3.564-2.685 2.501-.28 4.333 1.232 4.736 3.912.42 2.792-1.178 4.926-3.878 5.178-1.112.104-1.668-.033-3.022-.747-.966-.51-1.733-.757-1.835-.592-.096.156.297.857.873 1.56 1.933 2.353 2.297 4.002 1.346 6.093-1.086 2.385-3.908 3.351-6.275 2.15zm-90.246-9.705c-4.397-1.063-7.438-3.8-8.762-7.885-.375-1.156-.472-2.217-.385-4.199.102-2.318.247-2.924 1.155-4.809.572-1.186 1.772-2.991 2.668-4.012 1.553-1.77 2.05-2.91 1.267-2.91-.198 0-1.453.552-2.788 1.227-2.388 1.208-2.475 1.228-5.358 1.218-2.362-.008-3.254-.14-4.605-.675-2.186-.867-4.858-3.326-5.882-5.414-1.507-3.074-1.237-7.528.677-11.177 4.37-8.324 16.624-7.676 20.764 1.098.525 1.113 1.032 2.25 1.127 2.528.096.278.457.506.805.506.609 0 .625-.078.457-2.254-.32-4.14-2.134-10.89-3.814-14.199-.402-.791-.731-1.573-.731-1.737 0-.196 2.135-.299 6.226-.299 3.424 0 6.225.094 6.225.21 0 .114-.599 1.624-1.331 3.354-1.768 4.178-3.024 9.172-3.099 12.324-.055 2.31-.021 2.46.562 2.544.525.074.711-.185 1.224-1.698 2.434-7.192 9.532-10.23 16.483-7.055 2.223 1.015 4.731 3.627 5.53 5.759 2.257 6.017-.1 12.639-5.43 15.255-1.806.887-2.087.939-5.102.938-3.032 0-3.28-.047-5.009-.939-1-.516-2.01-.938-2.244-.938-.758 0-.453.94.838 2.582 4.556 5.796 4.8 12.506.617 17.013-1.813 1.954-3.679 3.043-6.249 3.647-2.244.528-3.638.527-5.836-.005zm-49.705-30.917c-4.778-1.282-7.983-4.737-8.798-9.484-.64-3.728.652-7.662 3.663-11.147 1.49-1.725 2.096-3.178 1.326-3.178-.166 0-1.241.513-2.389 1.14-4.679 2.557-10.015 1.943-13.798-1.587-2.739-2.556-3.832-5.897-3.208-9.808.663-4.156 2.955-7.51 6.23-9.119 6.46-3.173 14.037-.03 16.634 6.9 1.054 2.813 2.21 2.669 1.892-.236-.494-4.509-2.064-10.387-3.757-14.063-.525-1.14-.88-2.148-.79-2.239.215-.214 12.082-.215 12.297 0 .09.089-.33 1.3-.935 2.69-2.585 5.945-4.359 14.135-3.358 15.501.565.77 1.168.2 1.789-1.694 1.423-4.34 4.644-7.196 9.004-7.98 5.092-.914 10.62 1.875 12.726 6.421.765 1.652.832 2.069.832 5.136 0 3.279-.019 3.376-1.094 5.545-.691 1.395-1.544 2.598-2.316 3.27-3.515 3.055-8.789 3.663-13.12 1.513-1.465-.728-1.935-.849-2.214-.57-.238.237-.261.479-.07.739 4.253 5.804 4.606 6.645 4.617 11.008.007 2.852-.07 3.346-.767 4.83-2.451 5.216-8.617 7.962-14.396 6.412zm97.872 0c-6-1.61-9.606-7.126-8.67-13.264.347-2.282 1.864-5.426 3.484-7.222 1.685-1.87 2.133-2.698 1.693-3.136-.248-.247-.599-.165-1.402.331-1.93 1.191-3.363 1.754-5.224 2.053-5.391.866-11.24-2.574-12.685-7.464-.341-1.154-.425-2.266-.315-4.188.252-4.417 1.964-7.627 5.169-9.694 2.168-1.398 4.115-1.849 7.242-1.677 4.6.251 7.74 2.49 10.055 7.165 1.663 3.357 2.226 3.58 2.189.866-.046-3.425-1.797-10.388-3.625-14.412-.46-1.015-.838-1.96-.838-2.1 0-.141 2.736-.22 6.153-.176 5.272.066 6.145.14 6.097.51-.03.24-.656 1.891-1.389 3.672-1.885 4.579-2.792 8.285-2.85 11.64-.045 2.55-.008 2.744.52 2.744.44 0 .74-.461 1.323-2.038 1.32-3.569 3.115-5.662 5.979-6.976 3.223-1.478 6.96-1.418 10.372.168 4.6 2.137 7.108 7.064 6.249 12.274-.68 4.118-2.685 6.973-6.063 8.633-1.806.887-2.087.938-5.102.938-3.017 0-3.305-.053-5.267-.97-1.893-.886-2.702-.989-2.702-.344 0 .132.527.872 1.171 1.644 3.986 4.776 5.003 10.387 2.725 15.032-2.386 4.867-8.667 7.5-14.29 5.991zm-100.99-63.16c3.279-7.976 4.33-11.709 4.374-15.519.024-2.123-.04-2.461-.485-2.55-.367-.073-.636.21-.95 1.003-1.233 3.12-2.087 4.55-3.52 5.903-2.023 1.91-4.15 2.86-6.852 3.064-8.074.609-14.07-5.931-12.636-13.783.735-4.025 2.619-6.625 6.011-8.297 2.117-1.044 2.34-1.092 5.124-1.092 2.683 0 3.066.074 4.898.94 3.302 1.56 3.668 1.22 1.61-1.49-3.879-5.112-4.643-10.034-2.297-14.795 3.1-6.29 11.945-8.22 18.175-3.964 3.113 2.126 4.703 5.334 4.703 9.488 0 3.781-.944 5.965-4.354 10.077-1.787 2.155-1.087 2.864 1.356 1.373 4.814-2.936 10.995-2.048 14.823 2.13 1.911 2.086 2.653 4.061 2.653 7.059 0 5.312-2.833 9.895-7.18 11.614-2.166.857-6.139.926-8.387.147-3.152-1.094-6.124-4.11-7.347-7.457-.652-1.784-1.193-2.31-1.776-1.727-.822.82 1.252 10.624 3.155 14.915.563 1.271 1.094 2.538 1.18 2.816.143.471-.28.506-6.137.506-4.918 0-6.257-.079-6.141-.361zm97.785.257c0-.058.408-1 .907-2.095 1.956-4.29 3.172-8.467 3.697-12.702.348-2.808.193-3.652-.65-3.53-.45.065-.754.532-1.21 1.856-1.24 3.596-3.117 5.723-6.411 7.263-1.502.702-2.014.788-4.586.771-3.36-.022-5.19-.598-7.504-2.362-3.121-2.38-4.379-5.385-4.159-9.94.117-2.432.265-3.086 1.057-4.69 1.165-2.362 3.47-4.521 5.757-5.393 3.26-1.243 7.474-.984 10.095.62 1.006.615 2.137.73 2.137.217 0-.184-.504-.996-1.12-1.805-3.115-4.087-3.915-6.285-3.742-10.282.145-3.328.969-5.303 3.14-7.527 5.533-5.667 15.957-4.301 19.628 2.57 2.553 4.78 1.623 10.29-2.56 15.163-1.39 1.618-1.846 2.793-1.085 2.793.199 0 1.427-.539 2.729-1.198 1.975-.999 2.726-1.22 4.534-1.336 5.454-.349 10.428 2.997 11.895 8.003.567 1.934.571 3.059.021 5.648-.877 4.13-3.043 7.008-6.51 8.647-1.713.81-2.144.89-4.778.89-2.655 0-3.058-.076-4.843-.92-2.92-1.38-4.66-3.166-6.199-6.365-1.253-2.606-1.932-3.252-2.33-2.217-.233.606.63 5.85 1.537 9.329.393 1.51 1.23 3.975 1.86 5.478.628 1.502 1.143 2.84 1.143 2.974 0 .134-2.802.243-6.226.243s-6.225-.047-6.225-.104zm-48.936-30.923c0-.065.397-1.002.883-2.083 2.18-4.848 3.892-11.652 3.697-14.699-.077-1.209-.184-1.444-.658-1.444-.43 0-.742.459-1.303 1.92-2.05 5.337-5.69 8.046-10.812 8.046-3.817 0-6.683-1.228-9.152-3.923-1.987-2.17-2.718-4.163-2.745-7.487-.024-3.014.525-4.966 2.042-7.265 2.837-4.301 9.211-5.878 14.226-3.52.748.352 1.58.737 1.846.856.285.128.61.068.786-.143.218-.263-.11-.903-1.221-2.377-3.514-4.66-4.423-9.16-2.75-13.618 2.401-6.404 10.717-9.224 17.301-5.866 2.025 1.033 4.186 3.264 5.125 5.292.764 1.65.833 2.07.833 5.12 0 3.117-.056 3.438-.897 5.2-.493 1.032-1.698 2.852-2.678 4.044-.98 1.191-1.782 2.318-1.782 2.503 0 .702.789.558 2.75-.504 3.804-2.06 7.504-2.144 11.344-.262 2.266 1.112 4.47 3.462 5.286 5.641 1.192 3.178.592 8.046-1.37 11.11-1.252 1.956-2.604 3.153-4.69 4.153-1.74.834-2.113.902-4.923.902-2.818 0-3.182-.067-4.992-.922-2.687-1.27-4.467-3.13-6.037-6.312-1.585-3.212-2.157-3.404-2.12-.71.045 3.368 1.65 9.823 3.467 13.946.548 1.243.996 2.318.996 2.39 0 .071-2.802.13-6.226.13s-6.226-.053-6.226-.118zm-48.77-30.77c-.09-.144.22-1.112.687-2.151 2.144-4.766 3.428-9.455 3.698-13.502.148-2.215.11-2.503-.357-2.682-.698-.267-.89-.03-1.579 1.97-1.164 3.376-3.163 5.717-5.98 7.003-5.651 2.582-12.882.237-15.566-5.047-2.285-4.499-1.301-10.834 2.187-14.09 3.548-3.31 8.577-4.028 13.177-1.881 1.044.487 2.014.886 2.155.886.586 0 .187-1.17-.849-2.49-2.263-2.885-3.302-5.264-3.65-8.359-.929-8.272 7.093-14.639 15.513-12.31 3.593.994 6.23 3.162 7.73 6.354.694 1.477.77 1.968.77 4.961 0 3.22-.032 3.39-1.042 5.49-.573 1.19-1.628 2.816-2.345 3.61-1.486 1.649-2.075 2.63-1.822 3.04.285.46.688.338 2.424-.731C70.668 60.1 74.687 60 78.691 61.97c3.674 1.807 5.618 4.693 5.827 8.65.442 8.333-5.482 14.216-13.214 13.125-4.17-.588-7.149-2.897-9.274-7.187-2.195-4.433-2.889-3.372-1.792 2.741.658 3.667 1.936 7.942 3.228 10.796.458 1.012.76 1.954.673 2.095-.209.338-11.915.333-12.124-.006zm97.91.045c-.067-.12.439-1.517 1.125-3.106 1.634-3.785 2.658-7.37 3.194-11.184.32-2.282.352-3.25.12-3.683-.605-1.126-1.112-.663-2.052 1.871-1.583 4.267-4.76 6.96-9.006 7.637-5.033.802-10.36-1.856-12.553-6.264-.695-1.395-.849-2.115-.95-4.442-.141-3.23.353-5.386 1.729-7.542 3.023-4.74 9.489-6.317 14.897-3.632 1.425.708 1.931.84 2.194.578.264-.263.128-.625-.588-1.573-1.664-2.2-2.463-3.51-3.216-5.276-.643-1.506-.74-2.148-.74-4.91 0-2.843.082-3.352.776-4.83 3.53-7.512 14.086-9.184 20.102-3.184 4.507 4.495 4.267 11.802-.57 17.402-1.463 1.693-2.1 3.178-1.363 3.178.147 0 1.222-.513 2.389-1.14 4.75-2.551 10.05-1.943 13.834 1.588 2.739 2.556 3.832 5.896 3.208 9.807-.663 4.156-2.955 7.51-6.23 9.119-6.46 3.173-14.037.03-16.634-6.9-.696-1.856-1.2-2.31-1.786-1.607-.791.952 1.313 10.48 3.376 15.288.548 1.278.996 2.48.996 2.673 0 .261-1.515.349-6.063.349-3.335 0-6.12-.098-6.187-.217zm-134.39-9.86c-.087-.141.219-1.086.68-2.1 1.037-2.282 1.86-5.05 1.62-5.44-.388-.624-.9-.23-1.596 1.225-1.371 2.872-4.625 3.61-6.852 1.556-.787-.726-1.048-1.26-1.307-2.672-.287-1.558-.26-1.895.225-2.885 1.182-2.407 3.896-3.114 6.548-1.705 2.332 1.238 2.61.818.807-1.224-1.841-2.088-2.132-4.29-.845-6.4.78-1.28 2.187-2.052 3.74-2.052 2.52-.001 4.29 1.493 4.556 3.847.222 1.958-.106 3.146-1.23 4.455-1.55 1.807-1.156 2.416.794 1.23.627-.381 1.46-.577 2.458-.578 1.264 0 1.67.14 2.495.862 3.314 2.903.907 9.152-3.308 8.588-1.564-.21-2.66-1.098-3.625-2.942-.815-1.555-1.361-1.97-1.631-1.237-.19.516.576 4.052 1.243 5.74.31.787.565 1.556.565 1.71 0 .35-5.12.372-5.336.022zM9.87 39.746V25.14h2.322l-.075 14.516-.076 14.516-1.085.09-1.086.089V39.745zm9.318 14.085c-1.258-.619-2.246-1.945-2.652-3.559-.22-.876-.298-4.547-.239-11.266.098-11.152.135-11.368 2.205-12.944.869-.66 1.354-.79 3.217-.86 2.735-.104 4.114.57 5.14 2.51.67 1.267.674 1.331.674 12.016 0 10.656-.005 10.752-.667 12-.912 1.72-2.58 2.59-4.953 2.582-1.036-.004-2.16-.202-2.725-.48zm4.096-1.93c1.94-.81 1.932-.758 1.932-12.192V29.415l-.984-.982c-.807-.805-1.204-.982-2.2-.982-.998 0-1.394.177-2.201.982l-.985.982V39.78c0 11.442-.024 11.288 1.847 12.1 1.151.5 1.438.503 2.591.022z" fill="#2e2e2e"/><path d="M0 157.44V0h217.75v314.88H0V157.44zm212.75 156.5c1.388-.757 2.878-2.356 3.696-3.967l.724-1.425-.003-150.88-.003-150.88-.677-1.444c-.756-1.614-2.89-3.73-4.392-4.356-.848-.353-15.458-.41-103.43-.408L6.225.582l-1.48.847c-1.624.93-2.733 2.099-3.602 3.799C.583 6.323.577 7.993.65 157.938l.073 151.61 1.014 1.404c1.334 1.85 2.913 3.093 4.263 3.356.601.117 47.156.194 103.45.172 97.282-.038 102.41-.065 103.3-.55zm-21.012-21.506c-1.115-.212-2.814-2.146-3.188-3.63-.45-1.78-.46-19.54-.012-21.15.46-1.654 1.324-2.732 2.688-3.35 3.08-1.396 6.685-.037 7.663 2.887.22.66.326 4.316.322 11.122-.006 9.24-.054 10.242-.54 11.295-1.188 2.565-3.45 3.488-6.933 2.826zm4.362-2.658l.946-.843.082-10.418c.093-11.634.065-11.829-1.83-12.619-1.258-.524-1.992-.518-3.144.028-1.896.897-1.913 1.007-1.913 12.115 0 10.74.045 11.105 1.51 12.129.366.255 1.244.45 2.025.45 1.114 0 1.56-.161 2.324-.842zm7.75-11.579v-14.48l.941.09.941.091v28.598l-.94.09-.942.091v-14.48zm-148.32.129c-1.939-.47-4.106-1.513-5.403-2.602-3.142-2.637-4.576-7.8-3.33-11.99.676-2.278 1.308-3.383 3.278-5.735 2.656-3.172 2.236-4.544-.817-2.67-2.275 1.396-4.138 1.865-6.843 1.723-1.962-.102-2.747-.296-4.3-1.059-4.964-2.438-7.094-6.98-5.86-12.499 1.228-5.496 5.091-8.87 10.481-9.151 5.203-.273 9.068 2.212 11.454 7.365.617 1.331 1.335 2.503 1.596 2.602.794.305 1.3-.724 1.091-2.217-.783-5.591-2.357-11.414-3.925-14.522l-.838-1.66h12.104l-1.09 2.527c-2.147 4.971-3.477 10.323-3.477 13.985 0 1.312.109 1.746.473 1.886.73.28 1.367-.288 1.73-1.538.973-3.353 3.207-6.096 6.131-7.528 1.51-.74 1.936-.811 4.847-.811 3.044 0 3.283.045 5.19.982 3.598 1.767 5.656 4.517 6.253 8.357.804 5.17-1.62 10.078-6.05 12.255-1.791.88-2.106.939-4.965.939s-3.174-.06-4.964-.94c-3.37-1.654-3.957-1.033-1.735 1.838 1.9 2.455 2.833 4.386 3.376 6.985 1.301 6.227-2.33 11.828-8.75 13.496-2 .52-3.452.515-5.656-.018zm97.872 0c-4.82-1.166-8.079-4.545-8.964-9.295-.647-3.469.66-7.622 3.387-10.762 1.836-2.115 2.264-2.805 2.065-3.325-.26-.674-1.199-.52-2.8.463-4.737 2.908-10.892 2.02-14.633-2.111-2.301-2.541-3.107-5.783-2.338-9.408.862-4.07 3.143-7.116 6.504-8.687 1.452-.68 1.996-.769 4.684-.769 2.836 0 3.168.062 4.943.93 2.464 1.202 4.644 3.483 5.805 6.073 1.252 2.792 1.264 2.81 1.95 2.911.915.136 1.033-.522.629-3.506-.64-4.726-2.163-9.95-4.25-14.569-.128-.282 1.143-.36 5.835-.36 4.688 0 5.964.078 5.843.36l-1.181 2.748c-2.468 5.74-4.11 13.938-3.012 15.033.587.585 1.305.386 1.616-.448 1.328-3.57 1.733-4.323 3.143-5.842 1.042-1.123 2.119-1.923 3.354-2.492 1.644-.757 2.114-.838 4.875-.838 2.95 0 3.133.038 5.262 1.088 2.642 1.303 4.522 3.236 5.487 5.642.832 2.077.899 6.645.127 8.725-.705 1.897-2.32 4.11-3.745 5.131-3.457 2.477-8.96 2.755-12.453.63-1.076-.655-2.096-.727-2.313-.163-.084.219.501 1.291 1.301 2.383 3.95 5.392 4.695 9.852 2.415 14.454-1.167 2.355-2.736 3.906-5.116 5.058-2.849 1.379-5.429 1.669-8.42.945zm41.618-21.176c-1.262-.778-1.786-1.473-2.156-2.857-.438-1.643.008-3.244 1.303-4.674 1.715-1.893 1.235-2.748-.905-1.613-2.263 1.2-4.624.842-5.75-.874-.847-1.288-.897-3.532-.113-5.027.903-1.725 1.924-2.424 3.538-2.424 1.714 0 3.068 1.034 4.095 3.127.562 1.146.944 1.59 1.365 1.59.54 0 .573-.136.434-1.805-.128-1.529-.651-3.503-1.532-5.777-.177-.458.043-.506 2.327-.506 1.912 0 2.484.088 2.362.361-2.145 4.78-2.793 7.728-1.698 7.728.341 0 .787-.545 1.301-1.592.94-1.91 2.13-2.739 3.937-2.74 1.698-.001 3.037.856 3.625 2.321 1.004 2.504.323 4.93-1.646 5.862-1.49.705-2.827.596-4.694-.384-2.39-1.254-2.966-.596-1.199 1.37 1.995 2.22 2.402 4.068 1.351 6.122-1.096 2.145-3.968 3.01-5.945 1.792zm-90.415-9.731c-6.957-1.869-10.392-8.106-8.264-15.009.57-1.849 1.294-3.078 2.98-5.055.745-.874 1.516-1.892 1.713-2.262.701-1.316-.313-1.978-1.626-1.06-2.776 1.94-6.01 2.676-9.009 2.052-2.589-.538-4.133-1.336-6.006-3.103-2.16-2.038-3.099-4.247-3.086-7.26.031-7.102 4.87-12.344 11.392-12.344 4.777 0 8.71 2.75 10.997 7.69.98 2.114 1.23 2.446 1.784 2.367.831-.117.956-1.106.506-3.99-.743-4.765-2.148-9.422-4.248-14.084-.127-.282 1.137-.36 5.804-.36 3.282 0 5.967.053 5.967.118s-.448 1.164-.996 2.441c-1.923 4.482-3.141 9.014-3.508 13.053-.162 1.787-.117 2.237.258 2.547.848.702 1.444.258 2.078-1.55.914-2.603 1.52-3.593 3.21-5.238 5.256-5.12 14.836-3.378 18.131 3.298.902 1.827.952 2.097.952 5.112 0 2.97-.061 3.313-.909 5.097-1.207 2.543-2.675 4.102-4.882 5.186-3.394 1.667-7.416 1.603-10.82-.173-2.616-1.365-3.128-.352-1.08 2.138 4.574 5.564 4.834 12.541.635 17.02-2.969 3.166-7.734 4.507-11.971 3.368zm-49.58-30.83c-3.433-.98-6.301-3.378-7.76-6.486-.693-1.473-.781-2.005-.782-4.695 0-2.898.047-3.129 1.053-5.2.58-1.19 1.725-2.946 2.546-3.9 1.57-1.823 2.039-2.868 1.518-3.387-.224-.224-1.045.061-2.897 1.006-1.92.978-3.066 1.369-4.455 1.517-4.649.497-9.541-2.224-11.51-6.401-.89-1.89-1.084-4.92-.468-7.322.697-2.72 1.54-4.285 3.195-5.934 6.113-6.084 16.468-3.164 19.254 5.43.3.922 1 1.66 1.58 1.66.084 0 .29-.254.456-.564.782-1.458-1.866-12.843-3.9-16.767-.24-.462-.436-.976-.436-1.143 0-.202 1.94-.303 5.791-.303 4.44 0 5.791.084 5.79.36 0 .2-.506 1.532-1.124 2.962-1.912 4.422-3.218 9.756-3.218 13.14 0 2.966 1.345 3.06 2.311.163 1.947-5.835 7.127-9.054 12.86-7.991 6.414 1.189 10.374 6.536 9.472 12.79-.792 5.483-3.968 8.895-9.115 9.789-2.436.423-4.704.059-7.426-1.193-3.076-1.414-3.372-.806-1.078 2.216 3.758 4.949 4.519 9.844 2.246 14.453-1.079 2.187-2.932 3.928-5.413 5.086-1.586.74-2.323.9-4.54.985-1.603.062-3.16-.045-3.95-.27zm97.524-.183c-4.493-1.434-7.242-4.522-8.085-9.082-.662-3.587.656-7.745 3.448-10.87 1.94-2.173 2.272-2.831 1.708-3.394-.393-.391-.64-.326-2.318.61-2.479 1.383-5.066 2.035-7.193 1.813-6.286-.655-10.856-5.879-10.232-11.694.651-6.065 4.061-10.054 9.427-11.027 5.585-1.013 11.37 2.429 13.17 7.836.246.74.706 1.578 1.023 1.864.535.483.61.486 1.053.045.429-.428.44-.755.115-3.234-.49-3.743-1.817-8.852-3.094-11.917-.58-1.394-1.12-2.696-1.199-2.895-.112-.282 1.172-.361 5.848-.361 3.295 0 5.948.097 5.895.217-3.449 7.741-5.444 16.429-4.168 18.144.607.814 1.314.265 1.91-1.483 1.262-3.707 2.934-5.757 5.869-7.195 2.482-1.216 4.783-1.537 7.302-1.017 6.562 1.354 10.415 7.103 9.129 13.624-.948 4.804-4.05 7.94-8.812 8.908-2.33.474-4.506.155-7.215-1.057-1.758-.786-2.349-.936-2.662-.677-.53.44-.296.988 1.232 2.872 3.399 4.194 4.363 8.992 2.689 13.378-.731 1.915-2.899 4.441-4.727 5.508-2.842 1.659-6.938 2.098-10.112 1.085zm-100.32-63.07c2.632-5.956 4.07-10.847 4.407-14.987.17-2.095.13-2.491-.295-2.842-.754-.624-1.353-.063-2.182 2.043-.4 1.016-.945 2.245-1.21 2.73-.735 1.341-2.987 3.27-4.82 4.127-1.453.679-1.997.768-4.684.768-2.808 0-3.187-.07-4.958-.906-3.332-1.575-5.353-3.887-6.212-7.106-1.202-4.505.429-9.807 3.824-12.432 3.174-2.453 8.012-2.923 11.794-1.145 1.093.514 2.233.935 2.534.935.925 0 .64-1.146-.717-2.87-3.792-4.825-4.613-9.819-2.36-14.366 2.885-5.826 10.193-8.039 16.373-4.958 7.114 3.547 8.356 12.648 2.612 19.132-2.007 2.265-2.507 3.64-1.325 3.64.217 0 1.441-.544 2.72-1.207 2.07-1.073 2.597-1.221 4.768-1.335 1.81-.094 2.842.002 3.995.374 3.232 1.043 5.796 3.228 7.082 6.04.648 1.415.779 2.103.77 4.05-.024 5.27-2.452 9.408-6.682 11.386-1.453.68-1.996.769-4.69.769-2.848 0-3.17-.061-4.948-.935-2.462-1.209-4.636-3.486-5.794-6.068-1.252-2.792-1.264-2.81-1.95-2.912-.924-.137-1.054.582-.64 3.533.67 4.765 2.192 9.963 4.261 14.542.128.283-1.142.361-5.835.361-4.69 0-5.963-.078-5.838-.36zm98.96-2.265c2.183-5.022 3.607-11.005 3.396-14.273-.084-1.305-.16-1.444-.786-1.444-.789 0-.96.24-1.772 2.486-.86 2.376-2.167 4.166-3.998 5.474-2.22 1.587-4.149 2.102-7.3 1.952-2.136-.102-2.83-.27-4.495-1.087-4.64-2.28-7.025-6.775-6.274-11.825.624-4.192 2.824-7.278 6.37-8.936 1.468-.686 2.004-.774 4.703-.774 2.852 0 3.169.06 4.958.938 3.495 1.717 3.931 1.058 1.462-2.21-3.579-4.74-4.365-9.697-2.229-14.06 2.117-4.324 7.593-7.057 12.51-6.244 2.224.368 5.067 1.636 6.52 2.908 3.126 2.739 4.402 7.345 3.253 11.746-.545 2.087-1.35 3.5-3.453 6.06-2.512 3.057-1.983 4.313 1.036 2.46 2.286-1.403 4-1.832 6.756-1.687 1.987.104 2.767.295 4.32 1.057 4.76 2.338 6.901 6.54 5.998 11.776-.468 2.714-1.449 4.731-3.197 6.575-4.478 4.725-12.527 4.41-16.849-.657-1.03-1.209-1.614-2.229-2.544-4.441-.666-1.585-1.355-2.01-1.947-1.203-.446.608-.385 1.302.539 6.192.665 3.52 1.986 7.8 3.141 10.18l.808 1.664H150.046l1.142-2.626zm-50.12-28.12c0-.065.448-1.164.996-2.441 1.959-4.566 3.177-9.15 3.519-13.241.158-1.89.112-2.332-.277-2.654-.595-.492-1.274-.235-1.61.609a329.47 329.47 0 0 0-.914 2.354c-.831 2.161-3.244 4.807-5.298 5.81-5.766 2.814-13.034.248-15.766-5.566-.694-1.478-.773-1.971-.752-4.685.028-3.767.68-5.655 2.722-7.883 3.374-3.683 8.623-4.686 13.24-2.53 3.429 1.6 3.877.935 1.487-2.21-.822-1.08-1.789-2.628-2.149-3.437-3.448-7.754.689-15.572 8.922-16.864 3.866-.607 8.08.876 10.79 3.797 4.163 4.485 3.908 11.13-.635 16.561-1.662 1.988-2.216 2.925-1.966 3.328.317.511 1.121.3 3.581-.945 2.358-1.192 2.51-1.228 5.213-1.225 2.52.002 2.968.088 4.719.914 2.55 1.202 4.378 2.924 5.43 5.114 1.051 2.186 1.32 4.161.888 6.535-.547 3.013-1.369 4.794-3.042 6.597-3.46 3.728-8.527 4.638-13.332 2.394-2.966-1.384-4.547-3.214-6.329-7.33-.773-1.784-1.684-2.248-2.064-1.051-.608 1.911 1.821 12.235 3.814 16.208.376.749.684 1.497.684 1.66 0 .196-2.045.3-5.936.3-3.265 0-5.936-.054-5.936-.12zm-48.85-31.152c2.86-6.956 3.66-9.526 4.247-13.649.404-2.831.37-3.79-.155-4.312-.67-.67-1.401-.14-1.843 1.334-1.33 4.433-4.437 7.412-8.647 8.29-2.059.43-3.09.405-5.135-.127-2.428-.63-3.998-1.48-5.549-3.002-3.49-3.425-4.24-9.137-1.824-13.87 2.7-5.291 9.424-7.224 15.108-4.342 2.783 1.411 3.41.573 1.434-1.916-4.084-5.143-4.905-10.715-2.246-15.242 1.092-1.858 3.675-4.078 5.61-4.82 4.639-1.78 10.57-.57 13.675 2.79 4.267 4.618 4.034 11.767-.552 16.916-1.9 2.132-2.226 2.79-1.665 3.35.392.392.639.327 2.318-.61 3.633-2.027 6.928-2.361 10.37-1.053 4.625 1.757 7.537 6.246 7.031 10.836-.778 7.07-5.13 11.3-11.56 11.239-4.952-.049-9.098-2.977-10.874-7.681-.757-2.006-1.507-2.796-2.15-2.263-.576.477-.556 1.29.134 5.24.696 3.991 1.697 7.504 3.046 10.696.557 1.317 1.013 2.431 1.013 2.476 0 .044-2.685.08-5.967.08-4.66 0-5.935-.078-5.819-.36zm98.162-.289c.086-.357.675-1.9 1.31-3.427 2.245-5.399 3.693-13.433 2.587-14.349-.763-.632-1.266-.096-2.193 2.339-2.61 6.854-9.521 9.53-16.174 6.262-8.153-4.004-8.104-16.346.082-20.458 3.1-1.557 6.875-1.474 10.414.23 3.245 1.56 3.596.555.898-2.575-1.282-1.488-2.741-4.814-3.091-7.047-.802-5.115 1.776-9.847 6.607-12.13 1.807-.855 2.144-.915 5.12-.914 3.014 0 3.297.053 5.278.979 3.98 1.86 6.33 5.245 6.664 9.604.27 3.515-.95 6.743-3.807 10.071-2.421 2.82-2.075 4.322.618 2.683 3.198-1.947 6-2.475 9.028-1.7 6.482 1.656 9.906 7.208 8.304 13.461-.97 3.781-2.73 6.217-5.579 7.72-6.41 3.378-14.044.39-16.593-6.494-.567-1.533-1.21-2.382-1.805-2.382-1.437 0 .148 9.496 2.557 15.31.56 1.351 1.09 2.683 1.178 2.961.149.47-.251.506-5.699.506h-5.859l.156-.65zm-134.64-9.53c2.473-5.8 2.886-7.727 1.654-7.727-.41 0-.748.41-1.198 1.452-.344.8-1.011 1.726-1.482 2.06-1.8 1.279-4.492.842-5.8-.94-.851-1.158-.984-3.919-.246-5.086 1.248-1.975 3.95-2.461 6.238-1.123 2.347 1.372 2.96.656 1.149-1.343-1.899-2.097-2.304-3.987-1.282-5.985.842-1.646 1.956-2.324 3.816-2.323 2.58.002 4.036 1.293 4.463 3.956.218 1.362-.3 2.742-1.576 4.191-1.61 1.83-.871 2.605 1.279 1.34 1.342-.79 3.387-.805 4.445-.032 1.753 1.28 2.237 3.84 1.15 6.08-.738 1.522-2.009 2.372-3.546 2.374-1.644 0-2.851-.888-3.919-2.886-.679-1.271-1.089-1.735-1.53-1.735-.567 0-.594.113-.435 1.813.093.998.503 2.736.91 3.863.408 1.127.741 2.13.741 2.23 0 .1-1.121.182-2.492.182-1.883 0-2.455-.088-2.338-.36zm-5.69-28.14c-.106-.107-.193-6.541-.193-14.3V25.433h2.027v28.598h-.82c-.452 0-.908-.087-1.014-.192zm9.116-.298c-.533-.263-1.315-.997-1.737-1.633l-.767-1.156-.086-10.712-.085-10.712.686-1.298c.377-.713 1.132-1.6 1.678-1.971.874-.594 1.267-.662 3.308-.578 2.653.11 3.454.535 4.541 2.407.659 1.134.673 1.334.764 10.544.05 5.164.01 10.064-.092 10.89-.211 1.731-1.044 3.114-2.44 4.052-1.221.822-4.259.91-5.77.167zm4.817-1.694c1.467-1.025 1.51-1.38 1.51-12.235V29.498l-.89-1.013c-1.549-1.759-4.352-1.643-5.507.228-.533.862-.558 1.45-.484 11.405l.077 10.496.945.843c.764.68 1.21.842 2.325.842.78 0 1.658-.195 2.024-.45z" fill="#010101"/></svg>