<svg xmlns="http://www.w3.org/2000/svg" height="335.873" width="232.268" viewBox="0 0 217.75098 314.88138"><path d="M0 157.441V.001h217.75v314.88H0v-157.44z" fill="#fdfdfd"/><path d="M0 157.441V.001h217.75v314.88H0v-157.44zm211.6 155.603c1.777-.964 3.67-2.99 4.192-4.483.292-.836.38-31.116.439-150.536.066-134.48.028-149.646-.377-151.035-.579-1.988-2.367-3.96-4.41-4.867l-1.529-.677-100.976.004c-90.402.004-101.113.051-102.28.452-1.75.6-4.188 3.006-4.768 4.704-.396 1.159-.443 17.364-.443 151.14 0 136.631.04 149.941.463 150.961a8.42 8.42 0 0 0 5.557 4.904c1.092.294 21.384.356 101.986.313l100.623-.054 1.524-.826zM4.978 299.21c.069-.717.228-.94.67-.94.441 0 .6.223.67.94.08.844.013.938-.67.938-.684 0-.752-.095-.67-.938zm187.351-6.818c-5.224-1.843-7.603-8.025-4.845-12.588.915-1.514 3.38-3.964 6.668-6.626 3.868-3.133 5.846-5.459 5.562-6.54-.094-.358.032-.686.328-.858.323-.188-1.118-.283-4.407-.288l-4.887-.01.143 1.488c.245 2.534.19 2.592-2.35 2.496l-2.207-.084-.081-3.686c-.05-2.23.041-3.914.229-4.265.302-.563.56-.576 9.637-.502l9.326.076v2.167c.002 2.624-.865 5.767-2.137 7.744-.494.768-1.8 2.284-2.902 3.37-1.102 1.085-1.94 2.138-1.862 2.341.092.24-.044.323-.388.239-.363-.09-1.33.609-3.073 2.22-2.698 2.493-3.458 3.564-3.207 4.52.085.323.018.673-.15.776-.397.245.083 1.532.894 2.396.893.951 3.128 1.604 4.69 1.37.944-.14 1.63-.498 2.508-1.307 1.201-1.106 1.207-1.121 1.013-2.666-.14-1.12-.09-1.64.183-1.864.524-.432 3.93-1.102 4.205-.827.124.124.225 1.49.225 3.036 0 2.566-.076 2.96-.883 4.525-.802 1.556-1.069 1.808-2.887 2.726-1.84.929-2.24 1.017-4.908 1.086-2.246.059-3.251-.047-4.437-.465zm-89.19-13.01c-1.004-.296-2.503-1.003-3.33-1.572-3.584-2.464-5.104-5.202-5.344-9.627-.197-3.65.43-6.101 2.283-8.935 1.318-2.013 1.358-2.13.616-1.751-1.083.552-3.574 1.053-5.236 1.053-2.982 0-6.445-1.382-8.645-3.45-.646-.607-1.353-1.216-1.572-1.355-.45-.283-.947-1.461-1.702-4.032-.427-1.455-.473-2.184-.266-4.223.6-5.9 3.357-9.863 8.048-11.564 2.81-1.019 7.493-.812 10.171.45 2.025.954 4.926 3.802 5.92 5.814.553 1.116.56.58.03-2.15-.591-3.042-2.368-8.505-3.398-10.447-1.488-2.806-1.774-2.686 6.613-2.775 6.52-.07 7.293-.028 7.457.397.105.272-.319 1.558-.997 3.027-1.776 3.846-3.753 10.456-3.753 12.546 0 .773.454.24.872-1.024.461-1.396 2.846-3.935 4.73-5.036 1.791-1.047 5.072-1.696 7.494-1.481 3.638.323 6.691 1.858 8.879 4.465 1.94 2.311 2.448 3.754 2.584 7.321.14 3.703-.462 6.117-2.15 8.614-1.21 1.79-3.924 3.78-5.933 4.354-1.8.514-6.773.465-8.27-.082l-1.206-.44.989 1.486c1.533 2.304 2.223 4.539 2.368 7.673.16 3.458-.323 5.4-1.95 7.848-1.398 2.105-3.172 3.53-5.654 4.54-2.39.972-6.983 1.142-9.647.356zm91.263-21.381c-2.39-.609-3.928-2.87-3.928-5.778 0-.93.139-1.95.308-2.266.287-.534.195-.584-1.346-.726-2.102-.194-2.955-.593-3.744-1.747-1.705-2.494-1.383-6.381.69-8.343 1.917-1.814 5.128-1.89 6.973-.166.846.79.824.334-.084-1.713-1.239-2.795-1.21-2.82 3.27-2.915l3.836-.08v.861c0 .474-.153 1.196-.34 1.605-.499 1.094.007 1.413 2.293 1.447 2.258.033 3.362.515 4.416 1.925.605.81.74 1.357.827 3.363.095 2.189.039 2.494-.65 3.53-.996 1.504-2.242 2.125-4.304 2.146-1.372.014-1.634.094-1.474.45.106.239.251 1.355.321 2.482.104 1.66.017 2.266-.458 3.196-1.147 2.241-3.957 3.403-6.606 2.729zM100.097 92.256c-.435-.434-.144-1.614.956-3.884 1.375-2.838 1.676-4.12 1.123-4.793-.35-.425-.324-.462.223-.321.549.14.671-.04 1.089-1.611 1.116-4.2 1.36-6.83.448-4.822-1.568 3.448-4.302 5.733-7.984 6.672-2.627.67-3.654.696-6.208.156-2.525-.534-4.163-1.334-5.986-2.925-1.796-1.568-3.471-4.697-3.741-6.99-.133-1.125-.3-1.518-.645-1.52-.38-.004-.392-.052-.065-.259.368-.232.368-.625 0-2.048-.062-.239.04-.405.228-.369.192.037.475-.566.652-1.393.686-3.19 2.742-6.212 5.234-7.697 2.994-1.783 7.108-2.282 10.398-1.26.97.3 1.763.487 1.763.414 0-.074-.321-.554-.714-1.068-2.656-3.474-3.508-9.486-1.92-13.544 3.291-8.415 15.133-10.58 21.747-3.975 1.997 1.994 3.085 4.154 3.469 6.886.424 3.013-.285 6.917-1.627 8.96-.325.496-.362.773-.133 1.001.174.174.316.446.316.605 0 .16-.154.135-.347-.057-.27-.269-.528-.173-1.158.43-1.17 1.118-1.003 1.297.564.6 3.298-1.469 8.23-.861 11.824 1.456 3.417 2.203 5.025 5.205 5.036 9.402.02 7.319-3.901 12.378-10.445 13.48-5.052.85-10.166-1.462-13.052-5.9-.61-.938-1.109-1.574-1.109-1.412 0 .161.272 1.623.604 3.247.688 3.364 1.93 7.137 3.209 9.738 1.462 2.978 1.784 2.832-6.442 2.92-3.91.043-7.199-.01-7.307-.12zM14.39 82.148c-.36-.36-.214-1.219.432-2.546.349-.716.568-1.367.488-1.447-.08-.08-.593-.018-1.139.138-2.658.76-5.046.066-6.306-1.835-.688-1.036-.77-1.434-.77-3.706v-2.545l1.348-1.345c1.338-1.335 1.363-1.345 3.347-1.364l2-.018-.367-1.023c-1.126-3.14.582-7.097 3.321-7.692.426-.093 1.1-.27 1.498-.393.429-.133.946-.094 1.268.096.411.242.576.232.676-.04.182-.499.952-.456.952.052 0 .228.38.683.844 1.013 1.076.765 2.341 3.283 2.341 4.66 0 .585-.193 1.61-.43 2.28l-.43 1.216 1.081-.182c1.333-.225 3.27.411 4.258 1.397 1.499 1.495 1.693 5.232.398 7.664-.902 1.694-2.526 2.452-4.89 2.28-1.265-.09-1.927-.317-2.741-.936-1.071-.815-1.073-.816-.867-.128.114.378.397.99.63 1.358.233.368.448 1.213.477 1.878l.053 1.208-3.636.08c-1.999.045-3.726-.01-3.836-.12zm73.926-23.793a.29.29 0 0 1 .58 0 .29.29 0 0 1-.58 0zm-78.729-2.52c-.686-.13-.69-.153-.533-2.922.326-5.728 1.244-7.126 9.6-14.615 3.317-2.973 4.221-4.216 4.221-5.802 0-2.171-1.478-3.402-4.435-3.692-1.952-.192-3.987.497-4.546 1.538-.184.344-.29 1.358-.237 2.254.11 1.839-.023 1.97-2.745 2.696-1.187.316-1.427.308-1.657-.055-.383-.604-.343-5.043.059-6.458.78-2.755 3.75-4.634 8.01-5.07 2.411-.247 2.593-.224 4.57.594 2.553 1.056 4.077 2.332 5.182 4.338.754 1.369.854 1.834.858 4.004.004 2.114-.103 2.656-.77 3.9-.84 1.569-3.012 3.87-5.587 5.922-4.555 3.628-6.797 6.064-7.254 7.882l-.197.784h9.328v-1.675c0-.922.157-1.832.348-2.022.191-.191 1.077-.347 1.969-.347.892 0 1.778.156 1.969.347.482.48.482 7.78 0 8.262-.256.255-2.59.336-8.904.307-4.706-.022-8.868-.098-9.249-.17z" fill="#f4f4f4"/><path d="M0 157.441V.001h217.75v314.88H0v-157.44zM210.878 313.56c1.651-.562 3.788-2.397 4.64-3.986l.64-1.192V6.79l-.631-1.175c-.754-1.406-2.563-3.096-4.068-3.802-1.04-.487-6.034-.512-102.584-.512H7.384l-1.33.614C4.36 2.697 2.703 4.35 1.919 6.042l-.615 1.326-.088 149.351c-.063 107.492.002 149.766.23 150.831.607 2.832 2.586 5.04 5.418 6.048.917.326 17.867.393 101.888.404 90.987.012 100.918-.032 102.127-.442zM5.05 299.543c-.108-.174-.006-.506.225-.737.369-.367.466-.365.783.015.2.24.278.571.175.737-.244.395-.934.386-1.183-.015zm188.232-7.005c-2.94-.972-4.722-2.41-5.97-4.811-.902-1.74-.97-5.36-.131-7.045.784-1.578 3.227-4.126 6.649-6.936 3.425-2.813 5.115-4.575 5.947-6.2 1.08-2.114 1.182-2.063-4.178-2.063h-4.778v1.675c0 .922-.157 1.832-.348 2.022-.361.361-2.741.477-3.538.172-.385-.148-.458-.778-.458-3.987 0-2.579.113-3.923.348-4.158.255-.254 2.679-.346 9.1-.346 10.175 0 9.765-.11 9.5 2.548-.604 6.04-1.788 7.805-10.436 15.56-1.45 1.3-2.85 2.815-3.113 3.365-1.445 3.039.75 5.946 4.5 5.964 1.679.008 2.747-.38 3.796-1.378.717-.683.802-.954.75-2.391-.032-.891.03-1.763.138-1.937.343-.554 3.366-1.295 3.804-.933.562.466.793 2.804.45 4.572-.606 3.13-1.956 4.842-4.63 5.869-1.994.765-5.742.987-7.402.438zm-89.353-13.14c-6.951-1.811-10.766-8.226-9.095-15.297.548-2.315 1.3-3.786 3.136-6.13 1.026-1.309 1.256-1.737.76-1.416-2.661 1.72-7.328 2.237-10.472 1.158-3.308-1.136-5.874-3.38-7.302-6.385-.822-1.73-.89-2.105-.86-4.767.046-4.35 1.312-7.42 4.151-10.069 2.15-2.005 4.15-2.83 7.3-3.01 3.332-.189 5.66.411 8.064 2.08 1.846 1.282 3.774 3.567 4.649 5.51.652 1.447.68.91.121-2.345-.543-3.172-2.233-8.642-3.354-10.857-.945-1.868-1.051-2.687-.38-2.944.251-.096 3.288-.175 6.749-.175 7.912 0 7.766-.067 6.424 2.925-2.19 4.877-3.554 9.622-3.895 13.54-.158 1.807-.15 1.84.224.86 1.448-3.8 3.351-6.028 6.451-7.55 3.668-1.802 8.883-1.427 12.48.896 2.118 1.368 3.405 2.845 4.483 5.143 1.54 3.283 1.378 7.879-.409 11.571-.922 1.907-3.15 4-5.378 5.053-1.854.877-2.144.927-5.292.927-2.817 0-3.541-.097-4.705-.633-.756-.349-1.375-.577-1.375-.507 0 .07.44.746.978 1.5 3.485 4.888 4.005 10.421 1.424 15.153-2.016 3.695-6.916 6.34-11.636 6.281-.734-.009-2.193-.24-3.241-.513zm89.449-21.996c-2.379-1.289-3.487-4.565-2.412-7.13.238-.57.434-1.086.434-1.146 0-.06-.763-.11-1.695-.11-2.113 0-3.39-.766-4.313-2.59-1.674-3.306-.014-7.4 3.415-8.425 1.48-.442 3.074.005 4.517 1.269l1.045.915-.218-.989c-.12-.544-.462-1.558-.76-2.253-.684-1.59-.695-2.363-.037-2.396 2.077-.105 6.64.117 6.862.334.17.166-.074 1.046-.65 2.34-.508 1.14-.86 2.137-.782 2.214.077.078.416-.107.752-.41.947-.855 4.702-.792 5.955.1 1.441 1.025 2.213 2.915 2.075 5.08-.204 3.196-2.26 4.986-5.462 4.755l-1.648-.119.533 1.171c1.1 2.415.365 5.453-1.696 7.022-1.384 1.053-4.315 1.236-5.915.368zM100.04 91.862c-.1-.162.468-1.82 1.264-3.684 1.706-4.003 2.567-6.816 3.114-10.178.561-3.45.483-3.877-.343-1.864-.908 2.211-2.622 4.305-4.651 5.681-2.006 1.36-3.11 1.692-6.261 1.88-3.2.19-5.834-.57-8.338-2.41-7.242-5.318-6.22-17.414 1.79-21.194 3.434-1.62 7.177-1.728 10.509-.303l1.26.539-1.428-2.068c-1.935-2.802-2.714-5.342-2.675-8.717.023-1.95.193-3.021.683-4.288 1.703-4.406 6.16-7.565 11.167-7.915 5.572-.389 10.656 2.501 12.969 7.372.864 1.821.922 2.141.916 5.12-.005 2.603-.122 3.468-.65 4.78-.663 1.648-1.774 3.46-3.135 5.116l-.774.94 1.614-.737c6.726-3.072 14.921.371 17.039 7.159 1.425 4.567-.178 10.253-3.845 13.64-2.106 1.945-4.195 2.788-7.374 2.975-5.252.31-9.79-2.294-12.165-6.978l-1.04-2.051.2 1.589c.509 4.057 2.052 9.509 3.652 12.896 1.51 3.198 1.939 2.992-6.24 2.992-4.476 0-7.143-.107-7.258-.293zM14.513 81.94c-.249-.3-.12-.845.543-2.305.479-1.052.87-2.041.87-2.199 0-.157-.486.001-1.08.35-1.477.87-3.896.872-5.303.005-1.56-.962-2.415-2.718-2.433-5.001-.018-2.155.369-2.95 2.056-4.233.933-.71 1.324-.814 3.046-.813 1.087.001 1.976-.011 1.976-.028 0-.016-.223-.471-.497-1.012-.695-1.374-.661-3.902.068-5.144 1.56-2.656 4.566-3.628 7.236-2.338 2.554 1.233 3.771 4.623 2.634 7.338-.255.61-.464 1.142-.464 1.183 0 .04.579.008 1.286-.071 1.72-.194 2.563.053 3.758 1.1 1.19 1.042 1.696 2.403 1.677 4.502-.044 4.864-5.356 7.3-8.683 3.98l-.976-.974.199.931c.11.513.493 1.66.853 2.55.982 2.435.816 2.57-3.16 2.57-2.408 0-3.367-.104-3.606-.391zM9.06 55.268c-.103-.268-.03-1.73.162-3.25.632-5.008 1.802-6.64 10.12-14.128 2.98-2.683 3.626-3.657 3.628-5.473.003-2.387-1.851-3.815-4.956-3.816-3.357 0-4.827 1.333-4.64 4.21.082 1.27.019 1.435-.676 1.774-.421.206-1.347.453-2.056.55-1.182.162-1.306.12-1.474-.507-.38-1.412-.188-4.281.387-5.815 2.418-6.447 13.551-6.7 17.218-.39 1.358 2.337 1.472 5.719.27 8.037-.697 1.345-3.329 4.013-6.36 6.447-1.444 1.16-3.322 2.868-4.173 3.796-1.564 1.704-2.79 3.91-2.464 4.434.104.168 2.064.285 4.793.285h4.615V49.89c0-2.166.42-2.62 2.437-2.64 1.154-.01 1.719.112 1.913.418.372.587.359 6.83-.016 7.53-.287.534-.7.558-9.42.558-8.289 0-9.137-.044-9.308-.487z" fill="#e8e8e8"/><path d="M0 157.441V.001h217.75v314.88H0v-157.44zm159.018 156.935c-27.605-.04-72.69-.04-100.188 0-27.5.04-4.914.074 50.19.074 55.103 0 77.602-.034 49.998-.074zm52.871-1.103c1.725-.857 3.081-2.285 3.948-4.155l.61-1.314V7.327l-.874-1.705c-.997-1.945-2.993-3.644-4.889-4.16-.867-.237-28.433-.302-102.533-.242L6.805 1.3l-1.159.626c-1.373.742-3.054 2.443-3.804 3.852-.523.981-.541 5.412-.612 151.49l-.074 150.478.677 1.475c.853 1.86 2.235 3.247 4.097 4.112l1.454.675 101.507.003 101.506.003 1.492-.742zM5.268 299.26c.057-.17.227-.31.378-.31.152 0 .322.14.38.31.056.171-.114.31-.38.31-.265 0-.435-.139-.378-.31zm189.093-6.65c-4.526-.768-7.714-4.35-7.69-8.64.02-3.33 1.499-5.432 6.909-9.816 1.955-1.585 4.04-3.437 4.633-4.115 1.207-1.382 2.588-4.104 2.31-4.552-.11-.179-2.038-.293-4.942-.293h-4.76l-.004 1.372c-.007 2.549-.108 2.672-2.17 2.672-1.39 0-1.86-.107-1.994-.457-.26-.676-.205-6.85.066-7.275.18-.284 2.245-.348 9.334-.288l9.101.076-.053 2.244c-.128 5.394-1.521 7.598-8.871 14.037-4.053 3.55-4.888 4.673-4.918 6.605-.026 1.72.637 2.792 2.231 3.612 1.458.75 4.245.83 5.53.159 1.614-.842 2.027-1.557 2.027-3.5 0-1.652.055-1.798.804-2.156 1.305-.625 2.836-.78 3.13-.316.408.643.305 4.063-.17 5.662-1.08 3.624-5.662 5.792-10.503 4.97zm-88.237-12.885c-3.04-.402-5.717-1.611-7.739-3.498-2.613-2.439-3.743-5.165-3.734-9.01.008-3.716 1.146-6.607 3.77-9.578.654-.74 1.188-1.416 1.188-1.503 0-.087-.96.297-2.133.853-5.93 2.81-13.073.535-16.117-5.132-.88-1.639-.995-2.118-1.099-4.606-.283-6.779 3.233-11.9 9.214-13.426 4.168-1.062 8.906.296 11.966 3.43 1.314 1.346 1.903 2.297 3.347 5.406.284.614.31.483.17-.866-.462-4.456-2.24-10.87-3.953-14.258-.47-.93-.784-1.875-.698-2.1.131-.339 1.324-.395 7.042-.33l6.884.077-.037.722c-.02.397-.644 2.172-1.385 3.945-1.655 3.955-2.756 8.158-2.938 11.221-.132 2.21-.12 2.266.266 1.285 1.843-4.676 4.277-7.148 8.238-8.37 4.547-1.4 9.53-.087 12.814 3.377 2.605 2.748 3.714 6.353 3.158 10.267-.658 4.63-2.855 7.67-6.927 9.584-1.739.817-2.148.891-4.937.896-2.717.005-3.22-.079-4.74-.79-.935-.436-1.746-.793-1.802-.793-.056 0 .607 1.039 1.474 2.309 2.176 3.188 2.855 5.5 2.7 9.19-.143 3.425-.932 5.362-3.125 7.676-2.704 2.852-7.18 4.509-10.867 4.022zm87.89-22.21c-1.323-.573-1.98-1.192-2.645-2.493-.66-1.29-.722-4.078-.114-5.139.619-1.08.555-1.142-.966-.963-3.208.38-5.366-1.72-5.39-5.248-.022-3.205 2.157-5.633 5.056-5.633 1.475 0 2.544.539 3.718 1.873.761.864.912.94.912.457 0-.32-.37-1.591-.821-2.827-.452-1.236-.767-2.41-.7-2.608.088-.261 1.042-.361 3.436-.361 2.718 0 3.346.08 3.486.444.095.245-.235 1.412-.733 2.594-.497 1.181-.904 2.212-.904 2.29 0 .079.47-.175 1.043-.563 2.452-1.66 5.432-1.229 7.123 1.032.713.952 1.142 3.704.781 5.008-.68 2.457-3.227 3.975-5.792 3.45-.78-.159-1.417-.242-1.417-.185 0 .058.208.423.464.811 2.856 4.35-1.811 10.105-6.536 8.06zM100.294 91.72c-.092-.238.357-1.636.999-3.105 1.413-3.239 2.827-7.781 3.213-10.327.7-4.61.58-5.54-.362-2.817-.718 2.076-2.367 4.426-4.021 5.731-5.95 4.691-15.457 2.517-18.82-4.304-.92-1.862-.949-2.035-.949-5.553 0-3.612.006-3.644 1.082-5.815 1.302-2.628 2.98-4.266 5.67-5.538 1.79-.846 2.163-.915 4.975-.915 2.64 0 3.281.102 4.868.768 1.764.741 1.812.747 1.384.145-3.305-4.647-3.77-5.895-3.781-10.157-.012-4.002.602-5.721 2.941-8.242 7.302-7.869 20.702-4.013 22.44 6.457.612 3.681-.828 8.15-3.662 11.365-.723.82-1.314 1.58-1.314 1.688 0 .11.555-.127 1.234-.524 4.217-2.465 9.971-2.054 13.828.987 2.98 2.35 4.434 5.231 4.433 8.78-.002 6.916-4.116 12.172-10.332 13.2-5.524.913-10.85-2-13.543-7.41l-1.157-2.324.185 1.59c.508 4.364 2.475 11.338 4.101 14.545.391.77.641 1.583.556 1.805-.24.625-13.728.596-13.968-.03zM14.607 81.674c-.078-.204.308-1.404.859-2.667.55-1.264.95-2.348.888-2.41-.063-.063-.514.222-1.004.633-1.625 1.364-4.477 1.4-6.214.078-1.34-1.02-2.003-2.85-1.841-5.08.109-1.505.26-1.885 1.102-2.75 1.394-1.435 3.12-2.039 4.69-1.641.675.17 1.272.266 1.327.212.054-.054-.17-.598-.498-1.209-.364-.678-.596-1.648-.596-2.495 0-5.155 6.1-7.552 9.365-3.68 1.4 1.66 1.695 3.978.768 6.016l-.567 1.248 1.515-.18c6.239-.744 7.556 9.127 1.442 10.811-1.626.448-3.169-.087-4.633-1.605-.676-.702-1.23-1.131-1.23-.953 0 .178.392 1.49.87 2.917.48 1.427.798 2.713.708 2.86-.269.433-6.782.335-6.95-.105zM9.446 55.316c-.328-.327-.402-.827-.288-1.95.608-6.03 1.82-7.931 9.063-14.229 3.748-3.26 4.944-4.861 4.943-6.62-.001-1.447-.834-2.868-2.046-3.493-1.442-.744-3.81-.876-5.331-.296-1.9.723-2.467 1.589-2.467 3.759v1.786l-1.559.49c-.857.27-1.753.415-1.992.324-.6-.23-.851-2.5-.507-4.595.443-2.7 1.505-4.156 3.906-5.358 1.907-.954 2.183-1.011 4.923-1.011 2.593 0 3.078.086 4.553.809 3.14 1.538 5.169 4.63 5.141 7.837-.028 3.254-1.491 5.329-6.927 9.824-4.202 3.475-5.791 5.155-6.519 6.892-.837 2-.984 1.937 4.482 1.937h4.923v-1.698c0-2.1.317-2.407 2.365-2.29l1.544.088.081 3.878c.061 2.908-.011 3.936-.29 4.112-.203.129-4.237.236-8.964.239-7.311.004-8.66-.061-9.034-.435z" fill="#d6d6d6"/><path d="M0 157.441V.001h217.75v314.88H0v-157.44zm209.208 156.863c.098-.16.456-.29.794-.29 1.98 0 5.074-2.624 5.998-5.087l.592-1.578V7.823l-.589-1.569c-.723-1.929-2.733-3.901-4.776-4.688-1.41-.542-3.586-.554-102.642-.554H7.384l-1.645.806c-1.864.914-3.224 2.313-4.116 4.235l-.61 1.315L.94 156.57c-.05 100.33.022 149.725.22 150.796.573 3.09 2.588 5.336 5.843 6.51l1.83.66 100.098.027c66.45.019 100.16-.069 100.278-.26zm-16.116-22.053c-1.999-.743-3.77-1.98-4.685-3.27-1.247-1.758-1.592-2.814-1.618-4.94-.04-3.225 1.461-5.386 6.757-9.735 3.65-2.997 5.822-5.276 6.547-6.869 1.067-2.346 1.228-2.267-4.422-2.178l-4.995.08-.145 1.877-.145 1.878h-3.474v-7.8l8.865-.076c7.55-.065 8.918-.013 9.222.352.28.336.284.973.023 2.932-.614 4.598-1.878 6.752-6.281 10.695-6.75 6.046-7.63 7.1-7.63 9.136 0 1.244.985 2.742 2.317 3.522.76.446 1.516.594 3.04.594 3.266 0 4.926-1.428 4.763-4.097-.106-1.74-.075-1.783 1.636-2.28 1.94-.562 2.172-.411 2.36 1.54.347 3.606-1.154 6.532-4.106 8.003-1.456.726-2.117.87-4.344.943-1.709.057-2.996-.05-3.685-.307zm-89.11-13.07c-3.617-.97-6.54-3.342-8.156-6.614-.76-1.54-.947-2.317-1.068-4.42-.227-3.98.851-7.01 3.67-10.307.809-.946 1.47-1.819 1.47-1.938 0-.12-.893.235-1.986.789-3.666 1.858-7.125 1.947-10.904.28-1.725-.761-4.191-2.894-5.222-4.516-3.408-5.363-.956-14.3 4.778-17.413 2.217-1.204 5.169-1.723 7.629-1.342 4.932.763 8.131 3.564 10.569 9.25.297.694.31.681.33-.323.055-2.974-1.849-10.509-3.647-14.434-.57-1.246-.96-2.465-.867-2.71.147-.38 1.081-.443 6.623-.44 3.548.003 6.638.123 6.865.266.342.216.183.803-.917 3.39-1.738 4.087-2.719 7.38-3.256 10.934-.24 1.586-.436 3.111-.437 3.39-.003 1 .52.475 1.007-1.01 1.896-5.782 7.564-9.307 13.393-8.328 4.211.707 7.504 3.045 9.248 6.565.935 1.889 1.092 2.504 1.197 4.687.139 2.899-.41 5.51-1.577 7.495-3.009 5.123-10.182 7.197-15.564 4.5-.779-.39-1.46-.666-1.513-.612-.054.053.434.803 1.083 1.666 2.583 3.429 3.596 6.535 3.362 10.302-.485 7.78-8.218 13.01-16.11 10.893zM195 257.7c-3.523-.841-5.201-4.614-3.512-7.896l.71-1.379-1.05.217c-3.61.746-5.865-.946-6.07-4.556-.117-2.087.423-3.584 1.734-4.8 2.144-1.99 5.49-1.44 7.195 1.182 1.065 1.639 1.054.687-.03-2.574-.774-2.331-.862-2.842-.522-3.056.457-.29 5.465-.363 6.175-.091.635.243.594.46-.556 3.002-.557 1.232-1.013 2.4-1.013 2.594 0 .195.454-.043 1.01-.53 2.036-1.784 4.651-1.834 6.546-.127 1.347 1.214 1.812 2.528 1.656 4.679-.137 1.882-.749 2.89-2.263 3.727-1.523.842-2.398.958-3.874.515-.736-.22-1.338-.363-1.338-.315 0 .048.324.653.72 1.344 1.278 2.23.879 5.015-.967 6.753-1.42 1.338-2.788 1.731-4.55 1.31zM100.51 91.758c-.254-.305-.122-.853.577-2.383 2.043-4.477 3.45-9.447 3.892-13.76.229-2.228-.157-2.617-.718-.721-.857 2.9-3.44 6.085-5.987 7.381-5.12 2.606-12.34 1.026-15.61-3.417-1.6-2.177-2.218-3.86-2.383-6.501-.255-4.071.912-7.367 3.507-9.908 3.661-3.584 8.864-4.44 13.664-2.247.868.397 1.579.666 1.579.599 0-.068-.526-.808-1.168-1.645-3.155-4.113-4.191-8.794-2.883-13.021 2.267-7.32 10.918-10.747 18.18-7.2 2.481 1.212 4.235 2.968 5.484 5.49 1.07 2.16 1.09 2.261 1.09 5.538 0 3.232-.032 3.405-1.037 5.503-.57 1.192-1.71 2.935-2.533 3.873-.823.938-1.497 1.813-1.497 1.943 0 .13.88-.222 1.955-.782 2.568-1.337 5.186-1.795 7.652-1.337 3.926.728 7.488 3.307 9.095 6.585 1.46 2.975 1.25 7.703-.501 11.323-.983 2.031-3.256 4.271-5.404 5.327-1.838.902-2.078.945-5.262.945-3.154 0-3.443-.05-5.298-.926-2.72-1.286-4.853-3.482-6.325-6.51l-1.16-2.385.178 2.022c.369 4.192 1.97 10.032 3.844 14.01.632 1.342.8 1.981.586 2.24-.454.547-13.06.515-13.517-.036zM14.82 81.674c-.225-.27-.048-.95.659-2.528.531-1.187 1.06-2.483 1.176-2.88.206-.707.196-.704-.454.108-.8 1-2.674 1.899-3.977 1.908-2.797.018-4.979-2.48-4.984-5.709-.003-1.44.686-2.784 1.899-3.708.928-.706 1.36-.832 2.854-.832.968 0 2.063.11 2.433.243l.673.243-.753-1.137c-1.622-2.444-1.12-5.735 1.138-7.453 1.574-1.197 4-1.34 5.717-.336 2.457 1.436 3.357 4.702 2.019 7.32l-.607 1.185 1.94-.133c1.69-.115 2.07-.045 2.939.546 1.52 1.034 2.184 2.389 2.186 4.455.004 5.39-5.934 7.631-8.942 3.375-.49-.695-.936-1.13-.99-.969-.054.162.348 1.593.892 3.18.692 2.014.899 2.977.687 3.188-.454.454-6.121.395-6.505-.066zm1.54-26.2l-6.95-.152-.092-1.121c-.147-1.783.496-4.88 1.416-6.822.897-1.89 2.912-4.048 8.488-9.084 3.437-3.104 3.94-3.85 3.94-5.845.003-2.644-1.88-4.138-5.212-4.138-3.39 0-5.18 1.691-4.758 4.497.18 1.202.146 1.288-.637 1.602-.456.182-1.35.347-1.987.366l-1.158.035-.084-2.376c-.068-1.928.035-2.65.548-3.84 2.185-5.068 10.408-6.152 15.152-1.996 1.632 1.429 2.612 3.758 2.6 6.179-.015 3.342-1.43 5.354-6.841 9.734-4.685 3.792-6.253 5.636-7.025 8.26l-.19.65h10.173v-1.57c0-1.04.153-1.72.455-2.021.542-.54 2.744-.613 3.251-.108.233.232.348 1.52.348 3.89 0 4.129-.037 4.183-2.804 4.077a959.9 959.9 0 0 0-8.634-.217z" fill="#c7c7c7"/><path d="M0 157.441V.001h217.75v314.88H0v-157.44zm210.488 156.582c3.023-1.102 4.79-2.723 5.664-5.192.391-1.107.44-17.803.44-151.38V7.316l-.895-1.786c-.602-1.202-1.328-2.117-2.222-2.797C210.808.7 219.903.856 108.142.938L7.094 1.012l-1.303.682c-1.776.928-3.089 2.22-4.007 3.94l-.77 1.445L.94 157.002C.874 290.676.914 307.089 1.308 308.44c.658 2.26 2.895 4.529 5.352 5.431l1.882.691 100.192.015c99.006.015 100.211.008 101.754-.554zm-16.853-21.682c-3.815-.96-6.871-4.594-6.866-8.164.004-3.229 1.658-5.59 6.912-9.865 4.08-3.321 5.514-4.813 6.384-6.64 1.17-2.456 1.411-2.323-4.394-2.413l-5.14-.078v1.682c0 1.965-.306 2.375-1.771 2.375-2.009 0-1.993.03-1.993-3.873 0-2.354.115-3.637.347-3.869.255-.254 2.615-.346 8.811-.346 9.599 0 9.423-.04 9.179 2.088-.717 6.253-1.974 8.206-9.324 14.5-3.543 3.032-4.67 4.604-4.669 6.506.002 2.66 2.018 4.337 5.211 4.337 1.698 0 3.612-.694 4.344-1.574.244-.294.498-1.358.579-2.43l.145-1.906 1.433-.474c.789-.26 1.587-.416 1.774-.344 1.003.384.562 5.29-.653 7.28-1.19 1.95-3.815 3.225-6.94 3.375-1.25.06-2.767-.016-3.37-.167zM105.4 279.444c-1.399-.221-4.21-1.337-5.373-2.132-6.438-4.4-7.064-13.134-1.406-19.607.877-1.003 1.526-1.893 1.442-1.976-.084-.084-1.153.353-2.376.973-2.187 1.107-2.276 1.125-5.435 1.125-3.022 0-3.33-.055-5.195-.936-2.64-1.248-5.105-3.74-5.982-6.047-.958-2.52-1.051-4.728-.321-7.609 1.076-4.244 3.035-6.726 6.693-8.482 1.758-.843 2.094-.903 5.074-.903 3.05 0 3.28.044 5.212.993 2.78 1.365 4.733 3.385 6.123 6.33.61 1.294 1.216 2.354 1.345 2.354.27 0 .082-1.51-.708-5.692-.64-3.386-1.579-6.416-3.058-9.865-.845-1.97-.962-2.461-.635-2.668.66-.417 12.51-.328 13.075.099.436.329.388.564-.552 2.672-2.073 4.65-3.327 9.132-3.74 13.36-.226 2.328.161 2.846.757 1.011 1.108-3.414 3.521-6.29 6.498-7.745 1.616-.79 1.97-.849 5.067-.849 3.234 0 3.393.03 5.502 1.046 5.063 2.44 7.567 7.172 6.758 12.775-.61 4.22-2.894 7.493-6.443 9.225-1.813.885-2.074.931-5.238.931-3.031 0-3.483-.071-5.039-.798-.94-.44-1.766-.742-1.836-.672-.07.07.392.819 1.026 1.665 4.753 6.346 4.668 13.319-.22 17.97-.896.853-2.174 1.828-2.838 2.167-2.263 1.151-5.658 1.685-8.177 1.285zm88.38-22.24c-2.854-1.405-3.756-5.205-1.9-8.014.63-.956.662-1.092.204-.899-1.244.526-3.703.484-4.73-.082-2.355-1.295-3.064-5.268-1.39-7.79 1.033-1.56 2.976-2.504 4.59-2.232 1.285.217 2.918 1.46 3.789 2.885l.53.867-.004-.867c0-.476-.385-1.962-.852-3.302-.467-1.34-.784-2.542-.703-2.672.187-.302 6.402-.313 6.588-.011.077.123-.294 1.205-.824 2.404-1.05 2.375-1.824 4.864-1.216 3.911 1.31-2.054 2.56-2.785 4.76-2.785 2.85 0 4.84 2.39 4.631 5.565-.117 1.773-.646 2.748-2.065 3.806-.614.457-1.214.591-2.588.578-.984-.009-2.084-.122-2.444-.251-.637-.228-.63-.19.217 1.419.48.909.872 2.098.872 2.643 0 1.915-1.274 4.028-2.954 4.9-1.043.541-3.335.504-4.51-.074zM100.479 91.327c0-.295.442-1.497.982-2.672 2.048-4.45 3.805-11.399 3.59-14.201l-.094-1.222-.403.866a152.38 152.38 0 0 0-1.088 2.436c-1.888 4.316-5.978 6.958-10.759 6.95-3.718-.007-6.952-1.375-9.295-3.933-2.895-3.16-3.805-6.91-2.756-11.35.863-3.653 3.159-6.527 6.44-8.061 1.495-.7 1.979-.775 4.985-.775 3.063 0 3.476.068 5.146.837.999.46 1.867.785 1.93.722.063-.063-.481-.894-1.208-1.848-4.699-6.156-4.588-13.363.275-17.95 1.808-1.707 3.282-2.527 5.637-3.14 6.583-1.71 13.521 1.965 15.446 8.182 1.394 4.501.224 9.186-3.325 13.323-.877 1.022-1.534 1.918-1.46 1.992.073.074 1.081-.344 2.239-.927 4.198-2.116 8.355-1.933 12.24.538 4.15 2.641 5.957 6.865 5.083 11.881-1.054 6.05-5.443 10.156-11.178 10.456-5.995.314-10.845-3.15-12.968-9.26-.355-1.025-.78-.516-.603.722.802 5.587 2.442 11.528 4.062 14.723 1.206 2.379 1.56 2.248-6.114 2.248-6.44 0-6.804-.028-6.804-.537zM15.13 81.852c-.532-.214-.463-.558.623-3.119 1.57-3.703 1.595-3.98.217-2.431-2.92 3.284-7.55 2.083-8.439-2.19-.427-2.054-.103-3.44 1.083-4.636 1.55-1.56 3.357-1.935 5.573-1.155l1.23.433-.468-.65c-1.054-1.462-1.423-2.441-1.443-3.832-.046-3.188 2.567-5.607 5.661-5.242 3.775.446 5.735 4.577 3.85 8.113l-.726 1.364.654-.237c.36-.13 1.37-.237 2.247-.237 2.796 0 4.343 1.743 4.343 4.891 0 2.048-.497 3.246-1.833 4.415-2.458 2.154-5.508 1.312-7.633-2.107-.68-1.094-.42.681.501 3.425.484 1.442.814 2.793.733 3.004-.109.284-.879.377-2.98.36-1.557-.013-2.994-.089-3.193-.169zM9.397 55.155c-.273-.44.107-3.867.637-5.751.879-3.122 2.454-5.037 8.37-10.176 4.02-3.493 4.886-4.678 4.882-6.688-.006-2.44-1.446-3.874-4.381-4.362-1.598-.265-4.08.451-5.02 1.448-.593.63-.711 1.047-.716 2.531-.007 1.958-.298 2.282-2.415 2.688-1.251.24-1.478-.12-1.484-2.364-.01-3.914 1.565-6.41 4.813-7.63 2.425-.911 6.542-.745 8.648.348 3.096 1.608 4.76 4.234 4.771 7.53.011 3.404-1.197 5.132-6.813 9.75-4.225 3.473-5.592 4.95-6.518 7.037-.971 2.191-.964 2.195 4.461 2.195 3.508 0 4.832-.097 5.06-.37.168-.203.347-1.08.397-1.95l.09-1.58 1.565-.089c1.056-.06 1.643.034 1.805.29.276.433.337 6.31.073 6.998-.155.403-1.23.456-9.104.456-6.077 0-8.99-.1-9.121-.311z" fill="#b6b6b6"/><path d="M0 157.441V.001h217.75v314.88H0v-157.44zm210.325 156.72c2.776-.84 4.899-2.734 5.864-5.23.535-1.382.548-4.981.548-151.49V7.368l-.61-1.315c-.855-1.844-2.274-3.357-3.997-4.265l-1.474-.776L109.252.94 7.85.865l-1.605.599c-2.109.787-3.989 2.662-4.778 4.765l-.6 1.6.074 150.276.073 150.277.9 1.581c1.085 1.91 2.352 2.98 4.63 3.914l1.71.702 100.332.004c87.557.003 100.512-.05 101.74-.422zm-16.216-21.807c-4.297-.907-7.178-4.273-7.177-8.383.001-3.164 1.55-5.301 7.219-9.96 1.592-1.309 3.459-2.99 4.147-3.737 1.167-1.266 2.648-3.898 2.655-4.719.002-.276-1.231-.361-5.21-.361h-5.212v1.723c0 1.882-.356 2.321-1.882 2.321-1.755 0-1.882-.272-1.882-4.044 0-3.003.065-3.476.507-3.673.278-.125 4.402-.19 9.163-.146l8.656.08-.184 2.396c-.215 2.784-.961 5.16-2.168 6.899-.884 1.272-3.64 3.986-7.824 7.7-3.344 2.97-3.91 3.888-3.752 6.083.144 1.982.64 2.708 2.407 3.517 1.389.636 4.114.71 5.438.147 1.73-.735 2.346-1.705 2.364-3.725l.016-1.798 1.146-.375c2.068-.676 2.316-.49 2.417 1.817.116 2.65-.348 4.198-1.729 5.763-1.803 2.044-5.893 3.154-9.115 2.475zm-88.709-13.01c-7.322-1.27-11.79-7.6-10.322-14.62.55-2.63 1.504-4.49 3.509-6.849 2.134-2.509 2.186-3.061.17-1.792-6.131 3.862-14.436 1.49-17.477-4.994-.777-1.658-.896-2.225-.882-4.232.028-4.197 1.419-7.545 4.202-10.116 2.38-2.198 4.231-2.872 7.915-2.883 2.74-.008 3.012.048 5.067 1.035 3.08 1.48 5.375 3.912 6.544 6.934.27.697.666 1.458.882 1.69.338.365.392.32.392-.323 0-3.175-2.366-12.201-4.099-15.638-.464-.92-.766-1.798-.671-1.95.101-.165 2.894-.278 6.848-.278h6.677l-.15.65c-.083.358-.744 2.08-1.469 3.828-1.662 4.008-2.756 8.206-2.988 11.471-.196 2.75.16 3.403.792 1.456 1.728-5.319 5.62-8.605 10.595-8.944 3.78-.257 6.84.768 9.55 3.198 4.278 3.837 5.012 10.743 1.696 15.947-1.113 1.744-2.671 3.032-4.966 4.101-1.501.7-2.03.788-4.73.79-2.836.002-3.176-.061-5.039-.941-1.099-.52-2.059-.883-2.134-.808-.075.074.478.95 1.229 1.947 2.853 3.786 3.963 7.48 3.363 11.196-.823 5.097-4.531 8.882-9.793 9.994-2.14.453-2.755.47-4.71.131zm88.305-22.311c-2.713-1.365-3.537-4.91-1.791-7.711l.883-1.417-1.17.411c-3.289 1.158-5.966-.44-6.482-3.869-.26-1.73.286-3.351 1.603-4.76.998-1.068 1.247-1.182 2.801-1.291 1.436-.1 1.865-.011 2.713.563.553.376 1.27 1.086 1.592 1.58 1.372 2.1 1.346 2.085 1.163.678-.092-.715-.536-2.368-.986-3.673-.45-1.305-.748-2.443-.663-2.528.086-.085 1.567-.155 3.292-.155 2.432 0 3.137.088 3.137.388 0 .213-.521 1.632-1.158 3.153-1.235 2.95-1.632 5.058-.577 3.066 1.115-2.105 3.104-3.127 5.374-2.76 2.119.343 3.482 2.057 3.779 4.748.401 3.649-3.274 6.283-6.748 4.835-.576-.24-1.092-.394-1.145-.34-.053.052.23.538.63 1.079 1.499 2.027 1.594 4.369.26 6.408-1.398 2.138-4.108 2.802-6.507 1.595zm-93.103-165.55c-.08-.21.252-1.268.74-2.351 1.426-3.171 2.565-6.63 3.188-9.68.608-2.978.769-6.075.314-6.075-.146 0-.488.683-.76 1.517-2.885 8.872-13.59 11.489-20.291 4.961-2.705-2.634-3.908-6.4-3.302-10.334.66-4.294 2.979-7.532 6.604-9.224 1.578-.737 2.398-.926 4.442-1.023 2.605-.124 4.309.241 6.697 1.438 1.244.623 1.38.355.412-.818-4.082-4.95-5.165-10.501-2.975-15.26 2.19-4.762 8.154-7.761 13.525-6.804 8.604 1.534 12.995 9.914 9.292 17.731-.465.98-1.58 2.671-2.478 3.757-2.227 2.692-2.222 3.032.027 1.666 2.04-1.24 3.897-1.762 6.24-1.759 5.71.009 10.39 3.52 11.689 8.77.66 2.67.223 5.854-1.2 8.746-4.654 9.45-17.785 8.763-22.156-1.16-.957-2.172-1.445-2.731-1.445-1.655 0 .302.254 2.025.565 3.828.69 4.009 1.98 8.4 3.336 11.37.559 1.224.945 2.342.857 2.484-.088.141-3.088.257-6.667.257-5.125 0-6.538-.08-6.654-.381zm-85.834-9.99c0-.144.386-1.122.859-2.173 1.592-3.54 2.142-6.323.733-3.712-.847 1.57-2.23 2.391-4.029 2.391-3.188 0-4.92-2.027-4.74-5.547.114-2.22.707-3.105 2.688-4.018 1.38-.635 2.214-.66 3.754-.113.63.225 1.198.357 1.26.296.061-.062-.254-.592-.702-1.178-.644-.843-.835-1.433-.913-2.835-.12-2.124.413-3.328 2.052-4.635 2.315-1.846 6.186-.836 7.451 1.944.303.665.55 1.729.55 2.364 0 1.18-.828 3.381-1.405 3.737-.815.503-.18.644 1.083.24 1.744-.556 3.182-.323 4.42.716 3.238 2.718 1.646 8.707-2.523 9.487-1.487.279-3.516-.84-4.602-2.537-.478-.746-.964-1.363-1.079-1.372-.32-.024.04 1.595.966 4.352.46 1.37.837 2.572.837 2.672 0 .1-1.499.183-3.33.183-1.832 0-3.33-.118-3.33-.262zM9.58 55.063c-.635-.763.185-5.494 1.358-7.83.72-1.434 3.26-4.093 9.107-9.533 3.033-2.821 3.673-3.993 3.29-6.03-.548-2.914-4.683-4.542-7.867-3.1-1.81.82-2.477 1.85-2.402 3.705.035.848-.057 1.646-.204 1.774-.147.127-.837.394-1.533.592-1.696.481-1.922.2-1.909-2.372.014-2.55.484-3.99 1.764-5.405 1.612-1.78 3.496-2.448 6.913-2.45 2.589-.002 3.07.084 4.55.808 4.028 1.974 5.987 6.795 4.283 10.54-.721 1.587-3.172 4.159-6.662 6.991-4.505 3.658-6.634 6.318-6.653 8.315l-.007.656 5.14-.079 5.14-.078.145-1.878.144-1.878h3.185V55.322l-8.72.076c-7.256.064-8.778.008-9.062-.334z" fill="#a7a7a7"/><path d="M0 157.441V.001h217.75v314.88H0v-157.44zm211.694 156.25c1.97-.921 3.429-2.328 4.35-4.195l.693-1.403V7.079l-.683-1.3c-.873-1.665-2.476-3.345-3.95-4.141l-1.159-.626L109.14.94 7.335.865l-1.858.94C3.433 2.84 1.773 4.712 1.196 6.635c-.241.803-.327 40.43-.327 151.02 0 133.394.048 150.069.44 151.176.86 2.431 2.833 4.325 5.447 5.227 1.428.493 6.142.514 102.409.453l100.912-.063 1.617-.757zm-19.04-21.86c-3.608-1.284-5.634-4.066-5.634-7.74 0-3.326 1.294-5.18 6.78-9.71 4.115-3.397 5.543-4.893 6.465-6.773 1.258-2.566 1.29-2.546-4.342-2.638-3.354-.054-5.006.024-5.281.252-.258.213-.4.937-.4 2.03v1.697h-1.562c-1.157 0-1.607-.118-1.737-.457-.26-.675-.205-6.272.065-6.697.181-.284 2.188-.348 9.045-.289l8.812.077-.064 1.95c-.147 4.52-1.295 6.76-5.519 10.76-7.476 7.085-7.812 7.446-8.173 8.8-.256.96-.261 1.561-.023 2.357.709 2.358 3.996 3.885 6.831 3.173 2.703-.68 3.731-1.965 3.569-4.46l-.096-1.48 1.545-.416c1.333-.358 1.581-.359 1.806-.006.474.748.295 3.928-.312 5.546-.655 1.748-1.58 2.732-3.474 3.698-1.815.926-6.135 1.095-8.3.325zm-88.846-12.872c-3.71-1.225-6.307-3.396-7.759-6.485-.775-1.649-.926-2.343-1.02-4.68-.162-3.999.939-6.956 3.72-9.997 1.247-1.364 1.888-2.425 1.464-2.425-.158 0-1.172.459-2.255 1.02-5.134 2.66-10.787 1.712-14.658-2.46-2.054-2.213-2.803-4.131-2.799-7.165.01-6.698 3.872-11.69 9.897-12.798 6.159-1.133 12.018 2.712 14.236 9.342.284.85.766.563.766-.455 0-3.053-1.981-10.819-3.781-14.822-.469-1.041-.852-2.076-.852-2.3 0-.576 12.971-.607 13.193-.031.079.206-.32 1.375-.886 2.598-2.338 5.05-4.427 13.924-3.593 15.27.332.536.67.097 1.234-1.6 1.887-5.683 7.399-9.031 13.227-8.034 4.01.686 7.457 3.159 9.114 6.538 1.503 3.064 1.338 8.339-.36 11.487-1.597 2.963-4.602 5.112-8.04 5.75-2.853.529-4.922.148-9.049-1.665-.644-.283-.387.318.827 1.93 1.476 1.96 2.545 4.033 3.05 5.917.531 1.98.493 5.414-.08 7.228-1.015 3.213-3.8 6.137-7.054 7.41-1.985.775-6.764 1.014-8.542.427zm90.632-21.623c-1.214-.422-2.678-1.882-3.068-3.059-.563-1.703-.201-3.94.848-5.243 1.127-1.399 1.147-1.595.111-1.06-1.132.583-2.754.844-3.811.613-2.343-.514-3.884-3.479-3.207-6.168.686-2.723 2.563-4.253 4.94-4.025 1.743.167 2.96 1.039 4.077 2.921l.884 1.49-.153-1.492c-.084-.821-.494-2.478-.911-3.683-.417-1.204-.677-2.32-.579-2.48.1-.161 1.452-.289 3.067-.289 3.342 0 3.536.154 2.572 2.039-1.148 2.244-2.17 5.472-1.734 5.472.123 0 .386-.39.584-.868 1.22-2.937 5.466-3.781 7.59-1.508 1.148 1.228 1.386 1.906 1.386 3.945 0 1.768-.07 1.973-1.032 3.036-1.649 1.82-3.724 2.16-6.007.982-1.063-.548-1.338-.282-.573.553 1.554 1.695 2.066 4.422 1.156 6.16-1.279 2.445-3.72 3.504-6.14 2.664zM100.623 91.577c-.098-.158.277-1.296.834-2.527 2.099-4.643 3.52-9.876 3.706-13.65.117-2.385-.443-2.539-1.22-.337-2.088 5.915-7.45 9.2-13.31 8.156-4.139-.738-7.427-3.146-9.098-6.663-.838-1.764-.892-2.081-.885-5.201.01-4.429.611-6.014 3.296-8.693 2.583-2.577 4.3-3.256 8.28-3.278 2.704-.015 3.034.049 4.998.966 1.157.54 2.168.918 2.249.838.08-.08-.36-.783-.979-1.561-1.559-1.964-2.806-4.285-3.385-6.299-.725-2.525-.491-6.141.542-8.385 2.088-4.536 6.204-7.13 11.342-7.147 9.362-.032 15.169 8.411 11.738 17.07-.71 1.792-1.35 2.77-3.108 4.748-1.087 1.225-1.668 2.443-1.03 2.16.12-.053 1.254-.617 2.52-1.252 2.229-1.12 2.392-1.156 5.212-1.156 2.742 0 3.036.06 5.084 1.036 2.51 1.196 4.396 2.937 5.63 5.198 1.478 2.707 1.371 7.656-.238 11.1-2.159 4.617-7.494 7.388-12.54 6.511-4.856-.843-7.96-3.6-10.18-9.04-.179-.436-.476-.794-.66-.794-.242 0-.28.55-.137 1.95.452 4.404 2.261 10.914 3.978 14.311.465.92.768 1.797.673 1.95-.235.38-13.076.37-13.312-.01zM14.919 81.476c-.096-.154.107-.828.45-1.498 1.714-3.351 2.806-7.65 1.202-4.73-1.852 3.369-6.004 3.717-8.25.692-.364-.49-.617-1.42-.713-2.619-.184-2.28.296-3.366 1.98-4.478 1.39-.917 3.37-1.017 4.865-.245.521.269 1.008.428 1.082.354.074-.073-.286-.728-.799-1.454-1.574-2.228-1.463-4.95.283-6.933 1.952-2.218 6.324-1.696 7.797.93 1.269 2.261 1.085 4.364-.565 6.466-.953 1.214-.903 1.288.415.608 1.3-.67 3.808-.624 4.79.09 2.14 1.553 2.695 5.261 1.128 7.517-1.032 1.485-2.17 2.112-3.837 2.112-1.871 0-3.137-.843-4.277-2.85-.754-1.327-.942-1.509-1.016-.984-.108.76.927 4.675 1.558 5.892.241.466.361.974.265 1.128-.226.365-6.132.367-6.358.002zM9.777 55.068c-.323-.322-.359-.861-.171-2.607.477-4.445 1.868-6.872 6.079-10.609 7.148-6.343 7.98-7.424 7.692-9.982-.254-2.244-2.46-3.829-5.346-3.84-3.356-.015-5 1.396-5 4.29v1.752l-1.376.402c-.757.222-1.538.342-1.738.267-.467-.175-.49-4.06-.031-5.585.965-3.212 4.76-5.2 9.148-4.79 4.75.442 8.055 3.527 8.402 7.844.267 3.31-1.327 5.71-6.65 10.016-1.547 1.251-3.488 2.955-4.314 3.786-1.615 1.626-3.426 4.963-2.95 5.438.16.16 2.396.242 5.321.196l5.046-.08.086-1.803c.096-2.001.375-2.239 2.407-2.045l.982.093V55.322l-8.59.077c-7.073.062-8.661.004-8.997-.33z" fill="#949494"/><path d="M0 157.441V.001h217.75v314.88H0v-157.44zm212.011 156.201c1.784-.874 3.048-2.128 4.072-4.04l.654-1.22.073-150.213c.066-135.506.03-150.345-.379-151.57-.737-2.214-2.182-3.832-4.393-4.918l-1.95-.957H7.385l-1.64.803c-1.887.924-3.513 2.589-4.401 4.506l-.62 1.335v300.436l.67 1.473c.893 1.97 2.762 3.74 4.856 4.6l1.714.704 101.202-.067 101.201-.066 1.645-.806zm-18.729-21.697c-3.91-1.234-6.224-4.148-6.216-7.83.007-3.334 1.43-5.348 6.967-9.854 2.048-1.667 4.166-3.576 4.709-4.243 1.26-1.551 2.213-3.44 2.213-4.386v-.74l-5.284.079-5.285.078-.144 1.878-.145 1.878H187.2v-7.222l8.668-.077c5.014-.044 8.78.036 8.935.19.365.364-.268 4.937-.908 6.563-.899 2.284-2.961 4.693-7.138 8.34-4.682 4.087-5.68 5.334-5.853 7.305-.256 2.922 1.954 4.84 5.562 4.826 3.433-.013 5.216-1.535 4.981-4.253-.133-1.549.022-1.753 1.68-2.208 1.657-.455 1.98.052 1.785 2.794-.266 3.727-1.898 5.872-5.216 6.855-1.745.517-4.82.53-6.415.026zm-89.3-13.053c-2.353-.631-4.248-1.787-5.964-3.636-2.235-2.408-2.879-4.206-2.879-8.04 0-4.27.65-5.76 4.63-10.602 1.218-1.481.602-1.606-1.73-.35-2.732 1.47-4.964 1.89-7.604 1.43-8.3-1.441-12.24-9.389-8.524-17.189 1.658-3.478 4.363-5.599 8.144-6.386 3.379-.702 7.21.197 10.053 2.36 1.385 1.055 3.11 3.462 3.91 5.46.824 2.058 1.573 2.358 1.443.578-.293-4.024-2.323-11.636-3.964-14.867-.423-.832-.7-1.695-.614-1.918.127-.329 1.334-.404 6.518-.404 3.5 0 6.433.114 6.519.252.085.14-.348 1.41-.963 2.825-1.725 3.969-2.854 7.8-3.387 11.496-.379 2.632-.41 3.449-.137 3.717.27.266.443.217.765-.218.228-.308.414-.734.414-.947 0-.769 1.798-3.914 2.95-5.16 1.428-1.546 4.09-2.904 6.53-3.331 5.114-.896 10.726 2 12.919 6.664 1.462 3.111 1.407 7.578-.134 10.849-2.621 5.563-10.042 8.01-15.668 5.165-2.2-1.112-2.552-.829-1.158.93 2.89 3.646 3.995 6.81 3.75 10.747-.12 1.9-.336 2.778-1.04 4.203-2.606 5.283-8.832 7.967-14.778 6.372zm90.928-21.496c-3.073-.732-4.658-4.32-3.255-7.368.292-.636.81-1.404 1.152-1.706 1.001-.89.714-1.098-.594-.433-1.482.755-3.521.823-4.792.16-2.167-1.13-2.828-4.999-1.272-7.446 2.17-3.415 6.252-2.861 8.266 1.12.427.844 1.045 1.276 1.035.722-.014-.674-.962-4.189-1.476-5.473-.33-.825-.516-1.638-.412-1.806.223-.36 5.329-.411 5.888-.058.293.186.156.74-.625 2.524-1.243 2.838-1.798 4.678-1.496 4.959.127.118.28.085.341-.074.941-2.467 2.616-3.735 4.931-3.735 2.67 0 4.213 1.65 4.379 4.683.091 1.663.01 2.083-.571 2.936-1.433 2.106-3.802 2.67-6.395 1.523-.756-.334-1.375-.552-1.375-.483 0 .07.45.715 1.002 1.435.55.72 1.088 1.77 1.193 2.332.724 3.845-2.338 7.043-5.924 6.188zM100.855 91.548c-.231-.23-.054-.896.648-2.434 1.27-2.778 2.589-6.739 3.133-9.406.626-3.068.891-6.218.541-6.434-.399-.246-.728.253-1.459 2.21-1.866 5.001-5.767 7.732-11.07 7.749-6.49.02-11.605-4.458-12.068-10.566-.516-6.807 3.271-12.032 9.56-13.188 2.351-.432 5.094-.045 7.296 1.03 1.457.711 2.173.902 2.173.58 0-.085-.63-.975-1.4-1.978-3.264-4.248-4.267-8.689-2.935-12.991.993-3.208 2.967-5.4 6.362-7.066 2.121-1.04 2.25-1.065 5.502-1.065 3.224 0 3.398.033 5.501 1.037 4.365 2.082 6.675 5.476 6.898 10.132.195 4.06-1.056 7.27-4.186 10.745-1.926 2.139-1.52 2.587.961 1.062 1.57-.966 4.259-1.743 6.028-1.743 1.501 0 4.156.686 5.706 1.475 1.802.917 4.183 3.318 5.056 5.097.569 1.161.809 2.17.903 3.797.323 5.565-2.28 10.432-6.75 12.617-1.609.787-1.964.847-5.066.847-3.195 0-3.42-.041-5.293-.962-2.69-1.32-4.56-3.27-6.016-6.271-.652-1.345-1.324-2.445-1.492-2.445-.417 0-.088 3.343.674 6.853.697 3.21 1.723 6.391 2.91 9.022.464 1.025.778 2.033.698 2.239-.19.493-12.324.548-12.815.057zM15.057 81.347c0-.224.457-1.472 1.015-2.773.558-1.3 1.084-2.904 1.169-3.564.167-1.3.204-1.324-1.17.759-1.023 1.55-2.028 2.086-3.91 2.086-1.933 0-2.95-.573-3.907-2.197-.81-1.377-.811-4.428-.001-5.511 1.415-1.894 4.075-2.472 6.442-1.4.677.307 1.23.485 1.23.397 0-.089-.37-.635-.823-1.214-1.571-2.009-1.874-3.984-.914-5.962 1.761-3.63 7-3.68 8.863-.086.572 1.103.572 3.688 0 4.79-.244.472-.786 1.264-1.204 1.76-.891 1.056-.789 1.1.739.323 1.477-.752 3.61-.757 4.836-.012 2.339 1.423 2.737 5.474.768 7.809-2.411 2.859-6.145 2.089-8.04-1.658-.261-.517-.555-.94-.652-.94-.35 0 .166 2.826.896 4.911.41 1.168.744 2.296.744 2.507 0 .293-.709.383-3.04.383-2.425 0-3.04-.083-3.04-.408zm-.362-26.097l-5.14-.086.006-1.365c.006-1.752.683-4.94 1.311-6.18 1.016-2.001 2.951-4.129 6.83-7.506 4.725-4.116 5.753-5.472 5.751-7.59-.002-2.855-1.998-4.5-5.458-4.5-3.367 0-5.11 1.474-5.11 4.32v1.602l-1.186.409c-2 .69-2.217.427-2.1-2.529.088-2.226.212-2.73.97-3.97.685-1.12 1.252-1.615 2.676-2.337 6.895-3.492 15.072 1.366 14.105 8.38-.285 2.07-2.104 4.524-5.36 7.23-6.387 5.307-8.007 7.14-8.523 9.644l-.193.939h10.76v-1.675c0-.922.156-1.832.347-2.023.45-.448 2.33-.448 2.78 0 .478.477.478 6.63 0 7.107-.24.239-1.43.326-3.837.281-1.919-.035-5.802-.103-8.629-.15z" fill="#878787"/><path d="M0 157.441V.001h217.75v314.88H0v-157.44zm212.14 156.226c1.847-.972 3.686-3.021 4.285-4.775.413-1.209.456-15.59.456-151.43V7.368l-.823-1.736c-.917-1.934-2.395-3.386-4.374-4.3l-1.318-.608H7.094l-1.371.68c-1.75.867-3.448 2.562-4.318 4.307L.724 7.079.65 157.002c-.065 131.764-.022 150.1.356 151.395.515 1.769 2.062 3.876 3.495 4.759 2.403 1.482-3.692 1.403 104.808 1.346l101.347-.054 1.483-.78zm-18.313-21.574c-2.968-.767-5.491-2.985-6.357-5.585-.648-1.947-.427-4.427.543-6.076.859-1.461 3.514-4.087 6.743-6.67 1.289-1.03 3.016-2.626 3.838-3.546 1.518-1.699 2.903-4.597 2.425-5.074-.138-.138-2.587-.215-5.442-.172l-5.19.08-.145 1.877-.145 1.878H187.2v-7.222l8.576-.077c6.64-.059 8.641.006 8.867.29.364.454-.044 4.136-.67 6.041-.859 2.62-2.575 4.566-9.479 10.744-2.805 2.51-3.674 3.875-3.674 5.77 0 3.482 4.549 5.672 8.275 3.983 1.807-.818 2.439-1.807 2.439-3.815v-1.686l1.375-.41c.764-.227 1.493-.3 1.64-.164.45.42.278 4.36-.246 5.613-1.11 2.654-3.699 4.18-7.383 4.352-1.205.056-2.597-.003-3.094-.131zm-89.552-13.2c-5.169-1.387-8.74-5.393-9.201-10.319-.354-3.775.833-7.134 3.79-10.734 1.377-1.675 1.962-2.757 1.492-2.757-.066 0-1.186.553-2.487 1.228-2.173 1.127-2.576 1.236-4.921 1.328-3.162.123-5.064-.383-7.477-1.99-3.014-2.008-4.973-5.523-4.973-8.923 0-1.83.99-5.606 1.858-7.083 1-1.702 3.391-3.829 5.318-4.73 1.482-.693 1.99-.774 4.847-.774 3.012 0 3.298.053 5.094.935 2.69 1.321 4.67 3.403 6.106 6.423 1.377 2.896 1.31 2.803 1.723 2.392.238-.238.158-1.31-.303-4.067-.758-4.53-1.714-7.913-3.226-11.41-.843-1.951-1.043-2.683-.779-2.85.195-.124 3.063-.227 6.373-.23 5.043-.003 6.044.065 6.181.423.09.235-.36 1.645-1 3.135-2.072 4.82-3.215 9.273-3.32 12.933-.078 2.757.461 2.872 1.396.297 1.365-3.762 3.902-6.403 7.295-7.596 1.357-.477 2.198-.567 4.456-.478 2.514.1 2.995.215 4.968 1.188 2.664 1.313 4.79 3.495 5.76 5.912.937 2.333.927 6.954-.021 9.388-1.257 3.23-3.841 5.645-7.196 6.726-1.132.366-2.21.462-4.198.374-2.26-.099-2.984-.26-4.663-1.045-1.093-.51-2.037-.928-2.099-.928-.378 0 .051.836 1.161 2.263 2.642 3.395 3.828 6.87 3.559 10.427-.559 7.389-8.118 12.526-15.513 10.541zm89.357-22.103c-2.797-1.472-3.262-5.27-.998-8.148.474-.603.806-1.154.736-1.223-.07-.07-.635.131-1.255.446-1.71.87-3.898.781-5.076-.207-.511-.43-1.108-1.205-1.325-1.724-.504-1.205-.506-3.314-.004-4.514.496-1.186 2.202-2.69 3.327-2.938 2.055-.45 4.425 1.077 5.443 3.508.61 1.457 1.079 1.225.834-.412-.182-1.218-1.157-4.54-1.737-5.922-.195-.463.048-.506 2.893-.506 3.623 0 3.475-.316 1.763 3.756-1.002 2.384-1.32 4.044-.775 4.044.147 0 .41-.432.585-.96.174-.527.772-1.399 1.327-1.936.89-.861 1.224-.989 2.818-1.078 2.252-.127 3.466.531 4.28 2.319 2.075 4.563-1.724 8.587-6.23 6.599-1.922-.848-2.068-.775-1.04.52 2.406 3.03 2.265 6.248-.356 8.143-1.433 1.036-3.51 1.129-5.21.233zM100.767 91.264c0-.172.412-1.245.914-2.383 2.174-4.923 3.49-9.927 3.542-13.46.042-2.802-.486-2.931-1.424-.347-1.8 4.961-5.424 7.786-10.355 8.07-3.88.224-7.94-1.377-10.173-4.011-3.853-4.547-3.532-12.248.685-16.456 3.439-3.43 8.806-4.236 13.53-2.03 1.044.487 1.949.886 2.01.886.423 0-.066-1.018-1.06-2.207-1.651-1.974-3.078-5.065-3.491-7.565-.625-3.772.465-7.35 3.089-10.15 4.493-4.792 12.881-4.997 17.771-.434 2.493 2.326 3.79 5.293 3.777 8.637-.015 3.516-1.03 6.058-3.747 9.376-1.492 1.822-2.104 2.92-1.627 2.92.067 0 1.142-.524 2.39-1.166 3.868-1.99 7.18-2.082 10.988-.304 3.592 1.677 6.115 5.142 6.403 8.797.424 5.377-2.299 10.453-6.789 12.659-3.578 1.757-8.485 1.378-11.786-.91-2.199-1.526-3.817-3.579-4.807-6.1-.339-.86-.742-1.693-.896-1.85-.455-.465-.844.46-.667 1.585 1.012 6.435 2.356 11.41 3.92 14.508.458.91.834 1.787.834 1.95 0 .195-2.245.298-6.516.298-4.48 0-6.515-.098-6.515-.313zM15.173 81.35c-.085-.223.165-1.035.555-1.806 1.05-2.071 2.007-5.345 1.662-5.69-.188-.187-.477.162-.846 1.02-.989 2.302-3.26 3.448-5.593 2.821-1.67-.448-2.733-1.673-3.136-3.614-.401-1.926-.188-3.034.81-4.218 1.507-1.786 3.6-2.122 6.07-.975.836.388 1.52.615 1.518.503-.002-.112-.461-.778-1.02-1.48-.56-.703-1.092-1.613-1.183-2.023-.09-.41-.225-.966-.298-1.236-.262-.969.529-2.951 1.604-4.024 3.047-3.04 8.138-.775 8.138 3.618 0 1.647-.314 2.454-1.466 3.763-.51.58-.851 1.129-.759 1.221.093.092.77-.123 1.505-.478 2.488-1.201 4.925-.47 6.129 1.84.495.95.578 3.448.151 4.534-.506 1.286-1.8 2.561-2.947 2.904-2.317.693-4.365-.385-5.69-2.993-.424-.835-.84-1.335-.988-1.187-.32.318.319 3.425 1.162 5.661.344.912.544 1.79.444 1.95-.101.164-1.384.293-2.924.293-2.082 0-2.78-.098-2.898-.404zM9.698 54.885c-.282-.455.154-3.972.718-5.803.722-2.34 1.911-3.884 5.578-7.244 7.357-6.741 8.06-7.687 7.585-10.211-.708-3.762-6.97-5.132-9.833-2.151-.76.792-.861 1.101-.867 2.66l-.006 1.765-1.234.41c-1.834.61-2.084.4-2.084-1.749 0-3.95 1.643-6.486 4.903-7.566 2.285-.757 6.322-.517 8.273.493 2.943 1.523 4.524 4.07 4.524 7.287 0 3.14-1.499 5.202-7.156 9.848-4.62 3.793-6.505 6.176-6.597 8.337l-.037.894 5.066.08c5.842.091 5.792.113 5.792-2.46v-1.55l1.52.088 1.52.087v6.933l-8.739.077c-5.834.05-8.802-.024-8.926-.225z" fill="#6e6e6e"/><path d="M0 157.441V.001h217.75v314.88H0v-157.44zm211.959 156.462c2.049-1.102 3.163-2.228 4.116-4.16l.951-1.927V7.368l-.756-1.589c-.907-1.904-2.469-3.51-4.282-4.4l-1.332-.655H6.805l-1.54.85c-1.72.951-2.914 2.178-3.888 3.996L.724 6.79v301.592l.782 1.48c.989 1.869 3.116 3.752 4.838 4.283 1.138.35 15.95.402 102.965.356 99.002-.052 101.663-.067 102.65-.598zm-18.132-21.946c-2.072-.524-4.037-1.749-5.053-3.148-1.18-1.625-1.829-3.957-1.573-5.656.415-2.762 1.77-4.463 7.064-8.873 4.889-4.072 6.35-5.868 6.865-8.44l.187-.935h-11.075v1.676c0 1.91-.313 2.368-1.615 2.368-1.432 0-1.6-.44-1.508-3.941l.082-3.136 8.76-.077 8.759-.076-.002.943c-.004 1.823-.615 4.714-1.322 6.263-.993 2.172-2.684 4.049-7.086 7.864-4.604 3.99-5.489 5.192-5.489 7.456 0 1.602.41 2.576 1.435 3.414 2.329 1.904 7.452 1.506 8.894-.69.35-.532.53-1.347.533-2.397.003-1.567.018-1.596 1.075-1.997 1.71-.65 1.963-.386 1.96 2.037-.006 3.59-1.539 5.926-4.597 7.003-1.78.626-4.571.778-6.293.342zm-88.989-13.043c-5.288-1.185-8.692-4.654-9.584-9.765-.646-3.699.635-7.754 3.469-10.984 2.827-3.224 2.557-3.707-1.051-1.882-2.442 1.236-2.528 1.256-5.412 1.256-2.693 0-3.088-.075-4.877-.92-6.003-2.838-8.18-8.651-5.707-15.245 2.048-5.46 8.047-8.498 13.778-6.976 3.753.997 6.418 3.349 8.232 7.267.751 1.622 1.29 2.44 1.609 2.44.413 0 .455-.251.307-1.828-.408-4.363-2.249-11.244-3.854-14.411-1.202-2.371-1.513-2.249 5.713-2.249 5.965 0 6.393.035 6.25.506-.086.278-.757 1.955-1.492 3.728-.735 1.772-1.661 4.5-2.059 6.063-.855 3.363-1.252 7.71-.734 8.03.445.274 1.186-.344 1.186-.99 0-1.164 2.078-4.614 3.631-6.03 4.559-4.157 11.99-3.826 16.565.737 4.448 4.438 4.129 12.725-.658 17.09-2.298 2.095-4.194 2.77-7.81 2.779-2.674.007-3.049-.065-4.883-.931-1.093-.516-2.103-.938-2.244-.938-.557 0-.199.84 1.034 2.425 4.131 5.307 4.626 11.526 1.286 16.178-2.72 3.789-7.965 5.71-12.695 4.65zm89.458-21.829c-1.833-.769-2.979-2.597-2.979-4.754 0-1.66.346-2.475 1.618-3.816.488-.514.802-1.019.698-1.122-.104-.104-.869.103-1.7.46-3.494 1.5-6.148-.069-6.518-3.852-.28-2.857 1.839-5.384 4.513-5.384 1.819 0 3.175.96 4.249 3.011.463.885.959 1.61 1.1 1.61.444.001-.06-3.285-.828-5.409-.403-1.115-.733-2.173-.733-2.353 0-.22.947-.326 2.93-.326 3.372 0 3.202-.372 1.594 3.479-1.05 2.513-1.41 4.22-.923 4.378.148.048.604-.554 1.013-1.337.971-1.862 1.94-2.54 3.844-2.693 1.807-.145 3.149.583 4.114 2.231.817 1.397.82 4.007.007 5.096-1.611 2.155-3.96 2.616-6.568 1.289-.755-.384-1.443-.63-1.528-.545-.085.085.374.79 1.018 1.567 1.306 1.573 1.875 3.199 1.61 4.604-.213 1.136-1.194 2.622-2.239 3.394-.898.664-3.225.92-4.292.472zM100.767 91.284c0-.168.307-.918.681-1.667 1.957-3.915 3.606-9.776 3.859-13.712.161-2.512.128-2.817-.304-2.817-.266 0-.628.358-.803.795-.176.437-.761 1.725-1.3 2.862-3.41 7.197-12.759 8.645-18.83 2.918-2.704-2.552-3.84-6.08-3.271-10.163.781-5.611 4.902-9.537 10.407-9.913 2.588-.177 4.334.168 6.592 1.302 2.195 1.103 2.443.603.76-1.54-2.83-3.607-3.988-7.306-3.535-11.296.572-5.038 4.698-9.068 10.22-9.98 5.153-.852 11.03 2.093 13.076 6.551 2.231 4.863 1.296 10.067-2.62 14.576-1.425 1.641-2.033 2.91-1.395 2.91.119 0 1.286-.54 2.594-1.202 2.047-1.035 2.698-1.221 4.68-1.336 6.29-.363 11.69 3.903 12.359 9.763.233 2.048-.458 5.359-1.605 7.688-1.079 2.191-2.923 3.922-5.452 5.117-1.763.834-2.178.913-4.685.897-2.116-.014-3.119-.164-4.344-.648-3.171-1.255-5.977-4.104-7.129-7.24-.634-1.727-1.14-2.304-1.609-1.836-.267.267-.206 1.177.27 4.032.728 4.37 1.753 8.025 3.14 11.198.555 1.271 1.036 2.441 1.07 2.6.038.184-2.281.317-6.383.367-4.365.053-6.443-.02-6.443-.226zm-85.609-10.18c1.005-2.223 2.289-5.64 2.418-6.437.242-1.487-.516-1.293-1.172.301-.714 1.731-1.9 2.54-3.934 2.681-1.33.093-1.788-.006-2.625-.569-1.358-.913-2.026-2.326-2.025-4.28 0-2.041.75-3.312 2.393-4.055 1.63-.739 2.285-.709 4.307.197.94.42 1.793.679 1.898.574.104-.104-.146-.545-.556-.98-2.908-3.087-2.579-7.065.719-8.696 2.006-.993 3.684-.699 5.319.933 2.034 2.029 2.018 4.93-.04 7.327-1.161 1.354-.94 1.797.486.968 3.267-1.898 6.538-.326 6.838 3.286.16 1.917-.273 3.263-1.425 4.44-2.384 2.432-5.841 1.507-7.38-1.975-.714-1.613-1.402-1.557-1.175.097.152 1.104 1.198 4.65 1.784 6.044.194.463-.048.506-2.89.506-2.376 0-3.065-.085-2.94-.361zM9.703 54.894c-.281-.454.417-4.856 1.027-6.473.828-2.197 2.7-4.366 7.075-8.2 5.08-4.449 5.794-5.4 5.794-7.712 0-2.034-.521-2.925-2.316-3.956-1.527-.878-4.675-.94-6.32-.125-1.485.736-2.05 1.686-2.222 3.743-.144 1.705-.155 1.723-1.3 2.117-1.04.358-1.193.348-1.52-.1-.827-1.127-.193-4.94 1.123-6.752 1.753-2.415 6.57-3.585 10.139-2.464 3.65 1.147 6.036 4.219 6.036 7.773 0 3.091-1.484 5.202-6.485 9.23-5.047 4.063-7.405 6.957-7.411 9.093l-.003.946 5.43-.079 5.428-.079.145-1.877.145-1.878 1.375-.088 1.376-.088v7.254h-8.67c-5.38 0-8.737-.108-8.846-.285z" fill="#575757"/><path d="M0 157.441V.001h217.75v314.88H0v-157.44zm212.57 156.224c1.634-.958 3.036-2.51 3.846-4.258l.61-1.314V7.079l-.808-1.641c-.94-1.912-2.331-3.227-4.42-4.181l-1.49-.681L108.41.65 6.515.724l-1.327.778c-1.467.86-3.137 2.573-3.941 4.043-.503.919-.523 6.894-.523 152.04V308.67l.653 1.22c1.17 2.185 3.282 3.91 5.428 4.433.477.117 46.67.193 102.65.169l101.78-.044 1.336-.783zm-19.143-21.875c-3.987-1.215-6.26-4.363-6.034-8.358.164-2.897 1.305-4.426 6.536-8.76 4.398-3.646 6.098-5.513 6.882-7.56.91-2.38.99-2.34-4.925-2.43-5.998-.092-5.934-.118-5.934 2.445v1.533h-1.283c-1.02 0-1.32-.116-1.463-.564-.225-.707-.111-5.674.14-6.079.122-.198 3.065-.273 8.707-.222l8.522.077-.079 1.878c-.202 4.83-1.754 7.285-8.175 12.935-4.84 4.258-5.635 5.323-5.635 7.549 0 2.965 2.09 4.732 5.636 4.768 3.474.035 5.634-1.775 5.45-4.568l-.093-1.414 1.15-.398c1.66-.574 1.89-.382 1.89 1.577 0 5.137-2.935 7.896-8.335 7.836-1.228-.014-2.559-.124-2.957-.245zm-89.823-13.272c-3.468-1.14-5.993-3.296-7.423-6.34-.695-1.48-.77-1.967-.77-4.977 0-3.276.02-3.378 1.078-5.49.594-1.182 1.803-2.993 2.687-4.024 2.326-2.712 1.905-3.485-.944-1.734-1.552.954-4.246 1.73-6.007 1.73-.65 0-1.958-.202-2.907-.448-3.292-.856-5.84-2.813-7.401-5.685-.954-1.756-.984-1.909-.968-4.989.013-2.571.138-3.487.656-4.797 1.391-3.518 3.456-5.656 6.711-6.95 2.064-.82 5.835-.873 7.963-.112 3.493 1.249 6.324 4.07 7.661 7.638.488 1.3.805 1.766 1.206 1.766.454 0 .544-.222.544-1.336 0-3.148-2.27-11.894-3.942-15.193-.38-.75-.691-1.497-.691-1.661 0-.322 12.21-.442 12.53-.123.097.096-.156.908-.562 1.805-2.036 4.493-3.296 8.846-3.84 13.256-.324 2.627-.215 3.252.563 3.252.38 0 .684-.48 1.12-1.77 1.538-4.542 4.593-7.256 9.097-8.084 5.116-.94 10.723 1.886 12.83 6.467.672 1.464.845 2.29.931 4.447.123 3.091-.39 5.273-1.735 7.381-3.024 4.742-9.555 6.45-14.735 3.855-1.493-.748-2.59-.954-2.59-.487 0 .14.598 1.017 1.329 1.95 2.713 3.464 3.724 6.384 3.54 10.226-.101 2.103-.274 2.83-1.045 4.392-1.156 2.344-3.212 4.299-5.786 5.504-1.686.789-2.315.922-4.698.992-2.085.062-3.15-.05-4.402-.46zm90.89-21.542c-1.368-.487-2.052-1.09-2.64-2.324-.925-1.947-.343-4.89 1.252-6.33.526-.474.844-1.328.494-1.328-.063 0-.813.324-1.665.72-1.845.857-2.606.889-4.177.177-3.107-1.408-2.925-7.289.273-8.803 2.474-1.171 4.704-.126 6.238 2.923.606 1.206.99 1.487 1.314.964.224-.361-.56-3.963-1.266-5.817-.319-.836-.511-1.63-.428-1.764.167-.27 5.134-.342 5.398-.079.09.091-.338 1.367-.953 2.836-1.3 3.103-1.729 5.088-1.1 5.088.224 0 .73-.683 1.126-1.517.911-1.92 2.608-2.927 4.583-2.722 2.403.25 3.803 2.023 3.802 4.817 0 2.095-.748 3.318-2.497 4.09-1.567.692-2.821.557-4.647-.5-.666-.386-1.284-.701-1.376-.701-.407 0-.089.719.81 1.829 1.411 1.742 1.63 2.285 1.63 4.03 0 1.975-.81 3.279-2.596 4.18-1.477.743-2.033.78-3.575.23zM100.99 91.414c-.09-.09.335-1.31.945-2.712 2.403-5.527 4.247-13.584 3.49-15.242-.491-1.075-.961-.667-1.78 1.545-.94 2.543-2.24 4.436-3.93 5.723-5.758 4.387-14.64 2.355-17.814-4.075-.758-1.537-.954-2.328-1.056-4.269-.294-5.588 1.768-9.432 6.244-11.639 2.09-1.03 2.36-1.09 4.976-1.09 2.403.001 3.013.11 4.648.822 3.666 1.597 3.913 1.404 1.771-1.384-2.664-3.468-3.67-6.456-3.45-10.253.16-2.73 1.103-4.916 2.993-6.932 2.42-2.58 5.455-3.837 9.232-3.823 4.836.02 9.169 2.689 11.055 6.813 2.12 4.632 1.052 9.974-2.917 14.6-.88 1.025-1.6 2.032-1.6 2.238 0 .605 1.106.431 2.26-.355 1.439-.98 4.414-1.871 6.24-1.867 4.637.01 9.388 3.105 10.88 7.086.714 1.901.8 5.278.195 7.547-2.007 7.52-9.612 11.029-16.536 7.628-2.486-1.22-4.304-3.156-5.72-6.087-1.21-2.503-1.572-2.978-2.048-2.685-.647.4.783 8.482 2.248 12.7a53.092 53.092 0 0 0 1.439 3.643c.414.918.753 1.796.753 1.95 0 .297-12.223.412-12.518.118zM15.347 81.02c0-.245.276-.986.615-1.647 1.387-2.713 2.151-5.997 1.395-5.997-.168 0-.56.575-.872 1.277-1.006 2.27-2.993 3.37-5.308 2.936-2.187-.409-3.556-2.645-3.292-5.38.111-1.159.34-1.67 1.094-2.447 1.563-1.608 3.504-1.776 6.006-.52.837.42 1.603.681 1.702.582.1-.1-.353-.816-1.005-1.593-1.36-1.62-1.783-2.566-1.783-3.983 0-1.443.627-2.734 1.849-3.804.937-.82 1.268-.934 2.722-.933 1.925.001 3.246.663 4.093 2.052 1.249 2.05.978 4.432-.717 6.304-1.57 1.733-1.293 2.222.664 1.176 1.217-.65 3.4-.765 4.557-.24 1.067.486 1.907 2.013 2.075 3.773C29.41 75.396 27.347 78 24.845 78c-1.952 0-3.376-1.062-4.549-3.394-1.33-2.644-1.61-.66-.444 3.145 1.277 4.168 1.487 3.716-1.72 3.716-2.315 0-2.785-.075-2.785-.445zM9.963 54.89c-.431-.43.04-4.253.761-6.175.931-2.483 2.612-4.468 7.169-8.465 4.85-4.256 5.852-5.58 5.85-7.735-.002-2.871-1.847-4.503-5.32-4.704-1.742-.101-2.262-.016-3.349.551-1.844.962-2.398 1.85-2.375 3.803.01.888-.086 1.679-.214 1.758-.129.08-.775.23-1.437.336l-1.203.192v-2.291c0-4.12 1.59-6.198 5.501-7.195 5.03-1.282 10.15 1.133 11.417 5.385 1.244 4.179-.052 6.62-6.188 11.658-5.247 4.308-7.177 6.681-7.342 9.03l-.058.816h11.003l.145-1.877.145-1.878h2.606v6.933l-8.408.077c-5.449.05-8.511-.028-8.703-.22z" fill="#474747"/><path d="M0 157.441V.001h217.75v314.88H0v-157.44zm212.426 156.371c1.777-.948 3.799-3.342 4.313-5.108.384-1.316.426-18.95.36-151.701L217.027 6.79l-.774-1.463c-.904-1.709-2.704-3.425-4.398-4.192-1.165-.528-4.018-.543-103.005-.55L7.042.58l-1.772.884c-2.01 1.001-3.035 2.074-4.014 4.2L.577 7.133l.074 150.768.073 150.768.677 1.3c1.154 2.214 3.09 3.874 5.073 4.348.5.12 46.776.198 102.835.174l101.926-.044 1.19-.636zm-19.482-22.287c-3.528-1.216-5.607-4.065-5.592-7.662.013-2.872 1.724-5.192 6.954-9.428 4.677-3.788 7.111-6.922 6.887-8.869l-.093-.805-5.174-.08c-3.57-.054-5.298.024-5.574.253-.257.212-.4.937-.4 2.029v1.697h-2.606V261.72l8.615.076 8.614.077-.08 1.444c-.313 5.566-1.44 7.255-10.023 15.006-3.754 3.39-4.608 5.26-3.544 7.753 1.454 3.402 6.989 4.173 9.804 1.365 1.02-1.018 1.092-1.204 1.092-2.822v-1.732l1.221-.31c.672-.17 1.291-.24 1.376-.154.085.085.153 1.02.151 2.08-.004 2.523-.73 4.385-2.203 5.642-2.119 1.81-6.373 2.433-9.425 1.381zm-88.756-12.871c-3.728-1.075-6.099-2.968-7.656-6.111-.846-1.707-1.092-2.58-1.2-4.264-.25-3.877.77-6.712 3.69-10.26 2.656-3.228 2.356-3.813-1.052-2.059-3.89 2.003-7.318 2.086-11.02.269-3.51-1.723-5.802-4.924-6.09-8.504-.42-5.218 2.141-10.146 6.438-12.388 1.66-.866 1.899-.909 5.078-.909 3.175 0 3.428.045 5.238.934 2.612 1.283 4.625 3.467 6.067 6.582.625 1.348 1.25 2.45 1.392 2.45.14 0 .407-.181.592-.403.256-.308.225-1.113-.131-3.394-.763-4.882-1.999-9.216-3.706-12.999-.405-.897-.657-1.71-.56-1.805.096-.097 2.89-.176 6.207-.176 4.56 0 6.033.086 6.033.353 0 .194-.582 1.73-1.294 3.41-1.6 3.783-2.627 7.548-3.083 11.304-.314 2.585-.3 2.923.132 3.354.421.421.53.428.88.057.221-.232.616-1.086.879-1.897 1.786-5.514 6.907-8.723 12.63-7.913 5.668.802 9.673 4.908 10.042 10.297.468 6.832-3.307 11.922-9.472 12.771-2.504.345-4.815-.008-7.131-1.09-2.785-1.3-3.188-.79-1.236 1.565 2.291 2.767 3.734 6.458 3.734 9.555 0 4.852-2.925 9.063-7.529 10.839-2.004.772-5.942.989-7.872.432zm89.524-22.076c-1.823-.951-2.811-3.904-2.01-6.004.166-.436.752-1.29 1.303-1.898.55-.608 1.001-1.235 1.001-1.394 0-.46-.777-.335-1.803.29-1.35.821-3.921.797-4.998-.048-1.023-.803-1.596-2.186-1.596-3.852 0-4.553 4.783-6.695 7.531-3.373.484.584 1.033 1.485 1.22 2.001.224.617.533.939.9.939.505 0 .54-.143.36-1.517-.108-.834-.563-2.582-1.01-3.884-.675-1.965-.743-2.395-.396-2.528.749-.286 4.675-.17 4.87.146.104.168-.281 1.396-.856 2.73-1.266 2.942-1.651 5.053-.921 5.053.295 0 .693-.487 1.02-1.246.942-2.194 2.344-3.016 4.796-2.814 2.196.18 3.605 2.02 3.617 4.724.017 3.71-3.278 5.326-7.073 3.469-.875-.429-1.674-.696-1.776-.594-.102.101.438.975 1.2 1.942 1.169 1.485 1.404 1.995 1.511 3.288.158 1.9-.624 3.605-2.06 4.49-1.249.77-3.44.806-4.83.08zM101.197 91.28c-.102-.164.333-1.5.965-2.97 1.973-4.589 3.05-8.611 3.38-12.627.197-2.404-.08-3.236-.908-2.721-.272.168-.713.95-.98 1.736-1.203 3.53-3.142 5.866-6.003 7.235-2.136 1.022-6.072 1.293-8.51.585-6.224-1.805-9.596-7.986-7.907-14.497 1.861-7.174 9.571-10.479 16.412-7.034 2.662 1.34 2.968.698.919-1.931-2.662-3.417-3.769-6.632-3.501-10.174.275-3.638 2.411-7.215 5.327-8.92 3.85-2.251 8.884-2.391 12.877-.359 1.943.99 3.93 3.061 4.92 5.128.724 1.514.928 2.37 1.043 4.375.23 4.017-.645 6.36-3.811 10.212-2.504 3.047-2.155 3.7 1.048 1.96 1.185-.644 2.913-1.3 3.95-1.5 4.742-.914 10.133 1.752 12.365 6.114 1.487 2.907 1.198 7.896-.654 11.292-1.01 1.852-3.184 3.847-5.238 4.807-1.482.693-1.99.775-4.841.774-2.89-.001-3.336-.075-4.814-.798-3.024-1.481-5.467-4.197-6.503-7.23-.577-1.69-1.195-2.26-1.7-1.57-.948 1.292 1.591 12.17 3.889 16.663.515 1.008.563 1.294.25 1.492-.57.361-11.75.321-11.975-.042zM15.439 80.96c.089-.278.62-1.614 1.183-2.97 1.152-2.778 1.438-4.468.756-4.468-.237 0-.717.602-1.067 1.339-1.183 2.484-3.626 3.434-5.948 2.312-1.53-.74-2.254-1.889-2.44-3.877-.361-3.875 3.144-5.978 6.845-4.108 2.396 1.212 2.643.89.878-1.144-1.86-2.144-2.16-4.347-.88-6.441 1.191-1.95 3.791-2.656 5.972-1.623 2.716 1.286 3.303 5.464 1.108 7.888-1.624 1.793-1.269 2.216.957 1.14 1.844-.89 3.943-.655 5.036.565 2.774 3.098.808 8.422-3.111 8.425-1.668.001-2.974-.96-4.024-2.963-.804-1.531-1.351-1.993-1.699-1.432-.221.358.57 4.092 1.237 5.84.333.874.606 1.687.606 1.806 0 .12-1.253.217-2.784.217-2.52 0-2.77-.048-2.625-.506zM9.967 52.666c.404-4.446 1.575-6.494 6.026-10.54 6.04-5.488 7.383-6.95 7.669-8.346.736-3.599-1.533-6.025-5.646-6.04-2.146-.007-3.363.45-4.551 1.711-.768.815-.868 1.122-.859 2.64l.01 1.717-1.023.283c-1.73.48-1.748.462-1.748-1.699 0-4.484 1.95-6.775 6.43-7.553 5.766-1.002 10.718 2.593 10.751 7.805.008 1.253-.166 2.248-.522 2.988-.756 1.57-3.012 3.941-6.224 6.543-3.597 2.913-5.654 5.117-6.533 7.002-.86 1.842-.892 2.42-.157 2.813.596.318 8.966.415 10.082.117.578-.155.651-.358.651-1.816 0-1.767.325-2.335 1.337-2.335 1.505 0 1.559.125 1.559 3.641v3.292H9.765l.202-2.223z" fill="#373737"/><path d="M0 157.441V.001h217.75v314.88H0v-157.44zM212.87 313.66c1.627-.954 2.718-2.196 3.62-4.122l.675-1.444V7.079l-.697-1.494c-.838-1.796-2.599-3.57-4.365-4.398l-1.296-.608-102.001.006C9.628.592 6.772.607 5.606 1.135c-1.723.78-3.433 2.433-4.286 4.142L.58 6.759.584 157.57l.007 150.812.588 1.3c.97 2.141 3.028 3.982 5.188 4.642.4.122 46.723.2 102.941.173l102.215-.049 1.345-.789zm-19.174-21.976c-5.19-1.468-7.731-6.49-5.495-10.862.9-1.761 2.064-2.95 6.283-6.419 3.952-3.249 5.751-5.32 6.639-7.638.838-2.189.884-2.17-5.445-2.082l-5.581.079-.145 1.877-.145 1.878h-2.316v-6.644l6.66-.088c3.663-.049 7.474-.006 8.47.095l1.81.183v1.08c0 1.814-.592 4.433-1.34 5.924-1.067 2.133-2.653 3.863-6.918 7.548-4.587 3.964-5.642 5.362-5.642 7.483 0 2.124.727 3.319 2.605 4.28 2.83 1.448 6.605.88 8.103-1.22.5-.701.657-1.308.647-2.505-.013-1.423.057-1.607.705-1.852.395-.15.984-.273 1.309-.273.555 0 .583.142.479 2.383-.073 1.557-.3 2.77-.658 3.5-.621 1.27-2.346 2.634-3.891 3.08-1.742.502-4.711.596-6.134.193zm-89.064-13.015c-6.383-1.623-10.113-7.014-9.15-13.223.406-2.613 1.632-5.099 3.677-7.455 1.57-1.81 2.09-3.196 1.196-3.196-.226 0-1.424.545-2.66 1.21-2 1.076-2.511 1.224-4.61 1.334-5.046.264-9.39-2.2-11.296-6.409-.912-2.014-1.116-3.76-.736-6.283.655-4.342 3.062-7.749 6.684-9.464 1.404-.665 1.954-.754 4.648-.754 2.95 0 3.132.038 5.262 1.088 3.164 1.56 4.744 3.41 6.415 7.51.48 1.176 1.183 1.639 1.703 1.12.762-.76-1.218-10.114-3.107-14.674-.582-1.405-1.13-2.782-1.219-3.06-.15-.471.264-.506 5.985-.506 4.801 0 6.114.08 6 .361-.08.199-.745 1.817-1.479 3.595-2.028 4.917-3.482 11.7-2.955 13.793.341 1.357 1.218.935 1.913-.922 1.483-3.957 3.3-6.124 6.319-7.536 1.469-.688 1.98-.769 4.828-.765 3.001.003 3.297.057 5.117.943 4.908 2.386 7.297 7.157 6.338 12.654-.671 3.845-2.932 6.86-6.337 8.452-1.452.68-1.996.769-4.684.769-2.83 0-3.178-.065-5.027-.94-1.093-.516-2.168-.938-2.389-.938-.76 0-.4 1.058.943 2.766 5.99 7.625 4.045 16.992-4.164 20.056-2.02.754-5.274.968-7.215.474zm89.38-22.069c-2.872-1.439-3.343-5.267-.972-7.886.628-.693.963-1.31.859-1.58-.146-.379-.38-.337-1.615.287-2.67 1.35-5.121.795-6.113-1.384-1.205-2.65-.295-5.606 2.09-6.787 1.197-.593 1.487-.631 2.567-.341 1.483.398 2.314 1.19 3.314 3.158.42.828.918 1.446 1.11 1.378.572-.201.307-3.112-.503-5.521-.409-1.214-.743-2.27-.743-2.345 0-.077 1.187-.139 2.637-.139 1.998 0 2.6.088 2.484.361-1.936 4.58-2.586 6.63-2.32 7.32.314.817.937.372 1.646-1.173.982-2.139 2.08-2.82 4.313-2.678 1.357.087 1.825.26 2.535.939 1.483 1.417 1.892 4.175.868 5.85-1.354 2.216-3.76 2.668-6.482 1.219-2.156-1.148-2.492-.59-.802 1.326.645.73 1.325 1.788 1.51 2.35 1.293 3.907-2.739 7.473-6.383 5.646zm-92.86-165.672c3.03-6.947 4.26-11.267 4.339-15.239.052-2.645.03-2.748-.597-2.837-.359-.05-.652-.05-.652.002 0 .051-.318.968-.707 2.037-1.834 5.045-5.298 7.724-10.296 7.962-1.982.095-2.824-.005-4.32-.51-5.718-1.928-8.84-7.053-7.879-12.938.656-4.021 2.88-7.066 6.344-8.686 1.483-.693 1.99-.774 4.856-.774 3.062 0 3.284.042 5.126.975 1.762.892 2.822 1.033 2.822.374 0-.142-.408-.764-.907-1.381-4.305-5.328-5.32-10.554-2.981-15.341 2.143-4.386 7.674-7.095 12.724-6.232 3.848.657 7.364 3.004 8.852 5.906 2.534 4.946 1.645 10.218-2.535 15.034-2.405 2.77-1.995 4.018.748 2.278 2.19-1.39 4.03-1.844 6.908-1.705 3.149.153 5.186 1.014 7.449 3.15 2.757 2.601 3.733 5.707 3.055 9.721-1.116 6.597-5.9 10.54-12.262 10.105-4.554-.311-7.912-2.772-10.096-7.397-.87-1.844-1.394-2.632-1.75-2.632-.815 0-.868 1.07-.235 4.767.741 4.33 1.734 7.82 3.17 11.144l1.115 2.578h-6.224c-4.87 0-6.19-.079-6.067-.361zm-85.415-9.643c-.224-.092-.017-.865.63-2.36 1.551-3.577 1.946-5.836 1.02-5.836-.162 0-.674.748-1.139 1.661-1.022 2.01-2.116 2.74-4.115 2.74-2.567 0-4.022-1.623-4.024-4.487-.002-2.109.563-3.214 2.02-3.955 1.587-.808 2.833-.728 4.778.308 2.267 1.206 2.54.773.825-1.306-1.268-1.536-1.384-1.81-1.493-3.52-.103-1.613-.024-1.997.613-2.957 2.378-3.584 7.823-2.139 8.24 2.187.16 1.67-.332 3.005-1.671 4.526-1.366 1.552-.821 1.93 1.292.9 3.561-1.74 6.243-.023 6.243 3.996 0 1.795-.722 3.104-2.294 4.161-1.22.82-2.478.835-3.782.042-1.228-.747-1.61-1.198-2.346-2.767-.654-1.394-.866-1.583-1.4-1.254-.501.309 0 3.337.983 5.943.59 1.567.626 1.85.252 1.993-.512.195-4.145.184-4.632-.015zm-5.77-28.056c.639-5.658 1.76-7.445 8.114-12.94 5.342-4.619 6.485-6.466 5.672-9.17-1.213-4.04-8.23-4.921-10.668-1.34-.52.762-.652 1.308-.592 2.43.078 1.442.074 1.45-1.021 1.81-.605.2-1.218.29-1.363.2-.354-.218-.333-3.19.03-4.496.473-1.696 1.5-2.942 3.189-3.866 1.476-.807 1.792-.866 4.625-.866 3.48 0 4.964.494 6.706 2.232 2.212 2.206 2.931 5.82 1.699 8.528-.675 1.484-3.125 3.957-7.372 7.442-3.366 2.762-5.485 5.385-5.83 7.216-.358 1.905-.43 1.88 5.501 1.88 6.123 0 5.956.073 5.956-2.58v-1.464h2.316v6.645H9.778l.188-1.661z" fill="#262626"/><path d="M0 157.44V0l108.875.002L217.75.004V314.881H0v-157.44zm212.872 156.352c1.414-.877 3.074-2.748 3.742-4.215.53-1.165.544-5.062.544-151.991 0-146-.017-150.833-.535-151.97-.755-1.66-2.205-3.21-3.918-4.19l-1.47-.841L108.894.582 6.554.579l-1.3.628C3.6 2.005 1.841 3.754 1.138 5.299.605 6.473.592 10.069.585 157.523c-.005 134.954.041 151.134.437 152.08.949 2.264 3.08 4.22 5.127 4.708.52.124 47.007.205 103.305.18l102.36-.043 1.058-.656zm-18.459-22.03c-2.855-.565-5.327-2.436-6.373-4.823-.262-.6-.485-1.872-.495-2.828-.032-3.111 1.447-5.159 6.916-9.574 3.524-2.846 5.483-4.957 6.39-6.888.827-1.76.862-2.628.123-3.023-.596-.318-9.252-.416-10.37-.117-.561.15-.652.367-.652 1.562 0 2.03-.174 2.3-1.479 2.3h-1.127v-6.355h8.542c7.208 0 8.542.065 8.542.413 0 1.536-.734 5.121-1.32 6.44-.734 1.659-3.477 4.57-8.62 9.15-1.405 1.252-2.857 2.746-3.226 3.32-2.479 3.854.188 7.918 5.182 7.897.967-.004 2.15-.159 2.627-.344 1.99-.77 3.273-2.873 2.915-4.779-.176-.934-.138-.989.912-1.28.603-.166 1.194-.304 1.313-.305.12 0 .217.827.217 1.84 0 4.256-1.97 6.594-6.215 7.377-1.902.35-2.112.351-3.802.017zM105.4 278.738c-2.179-.37-4.906-1.695-6.494-3.157-2.717-2.497-4.035-6.802-3.244-10.589.547-2.616 1.435-4.333 3.628-7.012 1.702-2.079 2.168-3.148 1.405-3.22-.728-.069-1.165.088-2.487.893-.743.451-2.058 1.028-2.923 1.28-5.441 1.593-11.682-1.45-13.727-6.695-.547-1.402-.636-4.968-.174-6.966.723-3.13 3.227-6.4 5.94-7.762 6.313-3.167 14.128.268 16.516 7.26.484 1.416 1.182 2.036 1.837 1.632 1.163-.717-1.452-12.555-3.777-17.102-.305-.595-.554-1.152-.554-1.238 0-.086 2.726-.156 6.057-.156h6.056l-1.408 3.403c-1.814 4.386-2.87 8.464-3.084 11.912-.145 2.33-.1 2.808.303 3.14.701.581 1.201.027 1.92-2.129 1.894-5.678 7.247-8.818 13.083-7.673 4.874.957 8.335 4.415 9.204 9.197.726 3.997-.995 8.993-3.846 11.162-3.655 2.781-9.212 3.217-12.827 1.006-1.056-.646-2.427-.735-2.427-.158 0 .216.664 1.289 1.475 2.383 2.605 3.511 3.557 6.037 3.529 9.356-.062 7.157-6.68 12.474-13.98 11.233zm88.616-22.283c-2.446-1.251-3.103-4.37-1.464-6.949.474-.746.981-1.356 1.127-1.356.41 0 .67-.929.35-1.249-.19-.188-.896-.013-2.075.515-3.097 1.386-5.308.483-6.095-2.491-.457-1.726-.015-3.342 1.307-4.782.776-.844 1.19-1.046 2.37-1.156 1.91-.177 3.155.652 4.325 2.883.85 1.62 1.642 2.122 1.976 1.254.207-.54-.577-4.244-1.273-6.004-.307-.777-.558-1.474-.558-1.547 0-.074 1.108-.134 2.461-.134 1.732 0 2.462.104 2.462.35 0 .191-.464 1.426-1.031 2.743-1.176 2.73-1.44 4.769-.64 4.933.366.075.71-.34 1.282-1.543.632-1.332 1.006-1.748 1.96-2.18 1.507-.683 2.667-.686 3.935-.01 1.419.758 2.112 2.073 2.131 4.046.02 1.956-.574 3-2.169 3.81-1.533.781-2.502.705-4.565-.356-2.497-1.285-2.866-.829-1.089 1.347.732.897 1.47 2.145 1.64 2.772.738 2.736-1.496 5.754-4.26 5.754-.46 0-1.408-.293-2.107-.65zm-92.67-165.374c0-.114.592-1.667 1.316-3.45 1.526-3.762 2.554-7.588 2.983-11.105.33-2.707.225-3.596-.455-3.856-.682-.261-1.148.305-1.706 2.074-1.254 3.977-4.1 6.718-8.074 7.774-5.157 1.371-11.196-1.416-13.396-6.184-1.65-3.574-1.09-9.133 1.236-12.271 2.992-4.038 9.045-5.416 13.88-3.158 3.37 1.572 3.929 1.055 1.802-1.665-2.886-3.692-3.8-6.247-3.612-10.1.091-1.866.305-2.883.859-4.086 2.276-4.944 7.811-7.643 13.32-6.497 5.284 1.099 8.641 4.44 9.52 9.474.627 3.592-.565 7.378-3.388 10.76-1.675 2.007-2.221 2.927-1.975 3.326.302.487.892.32 3.33-.945 2.33-1.209 2.413-1.228 5.308-1.228 2.707 0 3.097.074 4.893.923 5.82 2.75 7.862 8.432 5.384 14.985-.902 2.384-3.778 5.276-6.111 6.144-6.504 2.42-13.148-.766-15.664-7.513-.657-1.76-1.204-2.234-1.842-1.597-.423.422-.434.76-.104 3.297.485 3.721 1.794 8.74 3.096 11.866.577 1.384 1.113 2.679 1.191 2.878.112.281-1.167.36-5.824.36-3.281 0-5.967-.092-5.967-.206zm-85.71-10.205c0-.165.277-.841.615-1.502.926-1.811 1.702-4.236 1.702-5.32 0-1.562-.902-1.278-1.755.55-.887 1.904-2.175 2.817-3.973 2.817-2.698 0-4.348-2.122-4.051-5.208.324-3.368 3.891-4.685 7.028-2.596.97.646 1.882.762 1.882.24 0-.189-.52-.959-1.157-1.712-.636-.753-1.288-1.712-1.448-2.131-1.148-3.014.94-6.331 3.98-6.32 4.366.014 6.171 4.78 3.096 8.175-1.714 1.893-1.195 2.587 1.058 1.416 1.544-.803 3.487-.825 4.544-.052 3.36 2.457 1.632 8.574-2.421 8.574-1.659 0-3.104-1.113-4.114-3.166-1.653-3.363-2.265-.285-.806 4.052.409 1.214.743 2.27.743 2.346 0 .076-1.108.138-2.461.138-1.511 0-2.462-.116-2.462-.3zM10.042 54.7c-.199-.198-.064-1.483.433-4.145.636-3.4 2.116-5.24 9.698-12.055 3.644-3.275 4.553-5.377 3.457-7.993-1.463-3.494-7.797-4.139-10.395-1.059-.655.778-.784 1.205-.784 2.61v1.678l-1.056.198c-1.397.261-1.62-.12-1.408-2.407.29-3.114 1.967-5.382 4.56-6.163 2.075-.625 5.91-.475 7.604.297 2.812 1.281 4.467 3.572 4.703 6.512.254 3.157-1.149 5.277-6.295 9.513-4.798 3.949-6.544 5.915-7.4 8.337-.815 2.306-.86 2.288 5.612 2.2l5.697-.079.086-1.95.085-1.95h2.29v6.645H18.58c-4.592 0-8.434-.085-8.538-.19z" fill="#161616"/><path d="M.003 157.442V.002l108.874.004L217.751.01l-.002 157.436-.002 157.435-4.704-.03c-4.691-.03-4.698-.031-2.5-.365 1.212-.184 2.45-.521 2.75-.75 1.492-1.13 2.546-2.305 3.18-3.541l.7-1.365-.003-151.27-.002-151.271-.786-1.442c-.792-1.454-2.463-3.107-3.9-3.858-.665-.348-15.703-.407-103.595-.411C6.337.573 6.067.574 4.925 1.156c-1.462.744-3.022 2.3-3.766 3.756C.577 6.049.576 6.309.579 157.628L.58 309.205l.824 1.466c1.256 2.234 3.11 3.495 5.646 3.843 1.947.267 1.799.286-2.49.325l-4.559.042v-157.44zm193.921 134.032c-3.559-.896-5.9-3.507-6.211-6.926-.271-2.98 1.236-5.329 5.714-8.905 5.397-4.31 7.398-6.594 8.1-9.243.544-2.053.49-2.073-5.933-2.073-6.316 0-5.931-.16-5.931 2.48v1.565h-2.027v-6.356H204.14v1.286c0 1.978-.555 4.183-1.507 5.984-.868 1.643-2.815 3.66-8.271 8.567-3.462 3.113-4.233 4.386-4.064 6.71.156 2.154.777 3.054 2.833 4.102 2.687 1.371 5.967.982 7.89-.936 1.02-1.019 1.092-1.204 1.092-2.824 0-1.782.23-2.07 1.665-2.085.468-.005.492 3.275.033 4.647-.443 1.325-1.873 2.815-3.336 3.475-1.413.637-4.982.927-6.552.532zm-89.248-13.109c-4.94-1.217-8.095-4.49-8.912-9.246-.625-3.644.496-7.154 3.427-10.72 1.908-2.324 2.208-2.844 1.979-3.44-.28-.725-1.145-.538-3.515.76-2.028 1.11-2.432 1.224-4.741 1.334-4.346.208-7.703-1.402-10.005-4.796-1.64-2.42-2.048-4.301-1.598-7.392.626-4.305 2.91-7.633 6.426-9.364 1.426-.702 1.91-.784 4.633-.784 2.82 0 3.182.067 4.998.925 3.022 1.428 4.641 3.291 6.412 7.38.605 1.397.837 1.661 1.454 1.661 1.053 0 1.174-.873.614-4.433-.754-4.797-2.066-9.169-4.11-13.694-.128-.282 1.106-.361 5.655-.361h5.818l-.749 1.661c-2.174 4.822-3.646 10.466-3.7 14.19-.026 1.734.062 2.19.475 2.454.797.51 1.372-.064 2.117-2.116 1.967-5.42 5.803-8.031 11.391-7.755 2.04.101 2.834.288 4.394 1.035 5.87 2.811 7.982 9.71 4.872 15.92-1.025 2.045-2.636 3.576-4.859 4.616-1.434.67-1.988.76-4.668.76-2.83 0-3.178-.064-5.027-.938-2.672-1.262-3.282-1.234-3.101.146.026.2.713 1.24 1.528 2.311 4.32 5.684 4.503 11.989.476 16.384-2.884 3.15-7.501 4.533-11.684 3.502zm89.096-22.133c-1.042-.634-2.066-2.523-2.076-3.83-.01-1.119.628-2.521 1.695-3.733 1.643-1.868 1.047-2.69-1.129-1.554-3.415 1.781-6.364.186-6.364-3.443 0-1.523.467-2.563 1.64-3.653 2.137-1.986 4.908-.97 6.48 2.378.53 1.128.809 1.427 1.274 1.36 1.065-.152.675-3.553-.863-7.523-.176-.456.034-.506 2.125-.506h2.32l-.939 2.239c-1.116 2.657-1.677 4.768-1.436 5.396.096.25.463.454.815.454.503 0 .782-.344 1.311-1.617.811-1.953 1.878-2.714 3.808-2.715 1.692-.001 3.169.938 3.646 2.32.822 2.38.153 4.693-1.622 5.609-1.359.7-2.925.557-4.802-.443-1.49-.793-1.72-.843-2.109-.455-.389.388-.291.605.892 1.987 2.084 2.434 2.419 3.93 1.348 6.025-1.118 2.185-3.918 2.978-6.014 1.704zM101.796 90.103c2.417-4.664 4.729-14.23 4.07-16.845-.269-1.072-1.516-1.042-1.96.047-2.038 4.987-3.502 6.867-6.484 8.329-1.57.769-1.99.843-4.762.843-2.826 0-3.18-.066-5.014-.933-6.045-2.856-8.21-9.567-5.118-15.863 2.535-5.163 9.455-7.231 14.841-4.436 1.884.977 2.674 1.082 2.94.392.196-.511-.246-1.308-1.75-3.154-2.155-2.644-3.544-7.064-3.158-10.046.893-6.899 7.786-11.386 14.721-9.584 2.46.64 4.25 1.651 5.75 3.25 1.542 1.646 2.202 2.81 2.745 4.841.507 1.899.493 3.972-.04 6.015-.603 2.31-1.322 3.604-3.331 5.997-1.765 2.102-2.182 3.292-1.277 3.638.265.102 1.406-.323 2.679-.996 3.734-1.976 7.095-2.132 10.692-.497 1.905.866 4.364 3.298 5.255 5.198 2.23 4.751.038 11.75-4.609 14.718-3.044 1.945-7.444 2.147-10.804.497-2.507-1.231-4.75-3.644-5.852-6.297-.454-1.091-.947-2.147-1.096-2.345-.411-.547-1.3-.433-1.645.21-.69 1.284 1.34 10.658 3.32 15.343.561 1.327 1.02 2.448 1.02 2.493 0 .044-2.61.08-5.799.08h-5.798l.464-.895zm-85.87-9.153c0-.125.45-1.327.999-2.672 1.117-2.736 1.482-4.542 1.046-5.19-.434-.646-1.198-.056-1.952 1.507-1.186 2.458-3.16 3.29-5.43 2.287-1.437-.634-2.019-1.52-2.302-3.505-.232-1.62.415-3.031 1.818-3.966 1.344-.896 2.733-.831 4.636.216.862.474 1.746.861 1.964.861.86 0 .694-.9-.41-2.235-1.435-1.733-1.55-1.935-1.844-3.215-.563-2.463 1.215-4.937 3.703-5.15 4.29-.37 6.322 4.523 3.256 7.842-1.949 2.109-1.308 3.036 1.227 1.776 2.136-1.062 3.45-1 4.792.228 1.006.92 1.076 1.097 1.17 2.96.114 2.287-.424 3.464-2.03 4.44-2.259 1.375-4.546.2-6.002-3.084-.575-1.297-1.13-1.558-1.74-.823-.438.526.013 3.476.878 5.746.844 2.217.854 2.204-1.607 2.204-1.195 0-2.172-.102-2.172-.227zm-5.79-26.856c.006-1.19.637-4.252 1.164-5.643.759-2.005 2.56-4.04 7.313-8.26 4.534-4.025 5.545-5.427 5.545-7.689 0-2.662-1.626-4.438-4.63-5.06-4.107-.851-7.642 1.515-7.318 4.9.101 1.062.04 1.183-.736 1.453-1.298.451-1.34.409-1.34-1.369 0-3.166.998-5.064 3.33-6.332 1.956-1.064 5.735-1.298 7.973-.495 3.181 1.141 5.203 3.879 5.203 7.046 0 .963-.191 2.207-.424 2.764-.564 1.345-3.113 3.98-6.706 6.933-1.612 1.324-3.486 3.031-4.165 3.794-2.157 2.421-3.32 5.817-2.146 6.266.252.097 2.783.176 5.625.176 6.046 0 6.078-.013 6.078-2.476v-1.569h2.05l-.044 3.034-.045 3.033H18.5c-7.774 0-8.364-.036-8.362-.506z"/></svg>