<svg xmlns="http://www.w3.org/2000/svg" height="335.876" width="232.277" viewBox="0 0 217.76 314.884"><path d="M0 157.44V0h217.76v314.88H0V157.44z" fill="#fdfdfd"/><path d="M0 157.44V0h217.76v314.88H0V157.44zm211.93 155.67c2.05-1.022 3.511-2.747 4.133-4.878.311-1.065.38-28.364.38-150.94V7.652l-.75-1.588c-.907-1.917-2.274-3.328-4.028-4.153l-1.303-.614-101.06-.075c-94.62-.07-101.16-.044-102.65.418-2.131.661-4.31 2.83-5.007 4.987-.463 1.43-.494 10.917-.494 150.93 0 135.43.043 149.55.458 150.95.577 1.939 2.85 4.323 4.762 4.996 1.17.412 11.078.459 102.52.48l101.23.022 1.805-.9zM5.35 299.57c-.236-.381.11-.922.454-.71.352.217.35.999-.003.999-.15 0-.353-.13-.451-.289zm180.31-6.413c-.191-.19-.347-.832-.347-1.426 0-.949.316-1.436 2.627-4.044 3.31-3.737 3.42-3.932 2.374-4.184-2.585-.62-5.122-2.765-6.241-5.274-.75-1.68-.984-5.19-.51-7.62 1.54-7.883 10.776-11.27 17.34-6.359 1.197.897 3.52 4.001 3.52 4.706 0 .477-2.114 2.304-2.666 2.304-.129 0-.462-.292-.739-.65-.277-.357-1.233-1.382-2.123-2.277-1.31-1.315-1.893-1.685-3.04-1.929-4.52-.958-8.355 2.318-8.339 7.122.004 1.209.182 2.256.48 2.819.983 1.865 3.316 3.286 5.4 3.291.386.001 1.608-.415 2.715-.924l2.013-.926.833.93c.458.512.833 1.178.833 1.48 0 .303-1.628 2.396-3.62 4.653-1.99 2.256-3.619 4.221-3.619 4.366 0 .148 1.491.227 3.403.181l3.402-.081.09-1.58c.05-.87.228-1.747.397-1.95.382-.459 3.596-.501 3.875-.051.25.402.24 7.065-.011 7.47-.282.453-17.59.409-18.047-.047zm-81.88-13.95c-3.747-.813-7.278-3.34-8.719-6.24-.847-1.704-1.535-4.41-1.535-6.042 0-2.989 1.547-6.883 3.67-9.238.73-.81 1.275-1.525 1.21-1.589-.064-.064-.938.29-1.941.786-3.2 1.583-7.552 1.42-11.161-.417-3.172-1.614-5.84-5.498-6.148-8.95-.316-3.551 1.124-8.03 3.363-10.453 2.68-2.9 5.763-4.101 9.923-3.865 2.193.125 2.873.297 4.67 1.183 2.609 1.286 4.79 3.506 6.018 6.123.488 1.042.929 1.854.979 1.804.156-.156-.963-6.045-1.608-8.46-.34-1.27-1.205-3.704-1.924-5.407-.718-1.702-1.223-3.23-1.121-3.394.119-.192 2.669-.299 7.149-.299h6.964l-.141.94c-.078.516-.685 2.159-1.35 3.65-1.426 3.199-2.792 8.255-3.053 11.299l-.186 2.166.692-1.62c1.034-2.42 1.808-3.538 3.554-5.13 1.953-1.78 4.158-2.667 7.105-2.855 6.704-.429 12.178 3.672 13.359 10.009.426 2.286-.03 5.775-1.045 7.986-1.908 4.158-6.172 6.777-11.033 6.777-1.984 0-3.27-.293-5.75-1.31-.395-.16-.27.156.472 1.195 4.585 6.424 4.373 13.415-.551 18.19-1.596 1.547-3.707 2.597-6.34 3.154-2.415.51-3.204.511-5.522.009zm88.727-20.956c-2.534-1.336-3.559-5.02-2.151-7.737l.415-.802-1.786.11c-1.507.093-1.94.004-2.773-.565-1.543-1.056-2.083-1.992-2.258-3.911-.34-3.749 1.745-6.442 4.987-6.442 1.579 0 2.236.298 3.665 1.66l1.064 1.014-.241-1.065c-.132-.586-.528-1.772-.879-2.634-.977-2.403-.885-2.474 3.113-2.378 3.246.077 3.412.11 3.497.707.05.345-.227 1.254-.614 2.022-.386.768-.8 1.706-.917 2.085l-.214.69 1.025-.78c1.452-1.106 3.715-1.316 5.328-.495 1.546.786 2.34 1.935 2.706 3.914.408 2.201-.005 3.585-1.462 4.899-1.368 1.233-2.151 1.467-4.206 1.255l-1.543-.159.523.916c1.577 2.756.493 6.404-2.336 7.863-1.153.595-3.659.51-4.943-.167zm-93.11-72.717c.08-.437.75-2.244 1.49-4.017 1.605-3.845 2.736-8.103 2.943-11.077l.15-2.166-.591 1.57c-1.801 4.78-5.667 7.729-10.53 8.032-2.887.18-4.88-.218-7.209-1.437-5.996-3.14-8.166-10.438-5.012-16.863 1.22-2.487 2.951-4.163 5.556-5.38 1.552-.724 2.37-.907 4.54-1.018 2.593-.131 3.677.079 6.412 1.243.563.24.565.228.069-.46-2.334-3.241-3.315-5.453-3.65-8.233-.488-4.042.588-7.39 3.278-10.203 1.92-2.009 4.05-3.118 7.158-3.729 2.056-.404 2.484-.402 4.618.017 5.288 1.04 8.67 3.895 10.106 8.53 1.353 4.373.256 9.149-3.003 13.063-.72.864-1.282 1.597-1.25 1.628.031.032.902-.356 1.934-.862 1.765-.865 2.068-.92 5.062-.92 2.983 0 3.31.059 5.143.925 4.13 1.952 6.841 5.66 7.091 9.7.238 3.834-1.101 7.68-3.602 10.347-6.182 6.594-17.6 4.058-20.802-4.62-.378-1.025-.385-1.029-.405-.212-.064 2.585 2.264 11.13 3.921 14.398 1.356 2.673 1.7 2.537-6.436 2.537h-7.127l.146-.794zm.009-92.411c-.1-.262-.047-.814.12-1.228.165-.413.846-2.087 1.513-3.719 1.497-3.668 2.542-7.7 2.764-10.666l.169-2.255-.743 1.862c-2.339 5.866-7.958 8.957-14 7.7-8.51-1.77-12.534-10.32-8.597-18.268 2.71-5.47 9.344-7.858 15.234-5.484.943.38 1.714.643 1.714.585 0-.057-.52-.79-1.156-1.627-2.284-3.01-3.473-7.352-2.942-10.752.97-6.22 6.15-10.56 12.605-10.56 3.77 0 6.745 1.101 9.222 3.412 3.225 3.01 4.536 7.137 3.699 11.643-.396 2.131-2.012 5.285-3.668 7.161-.758.859-1.253 1.503-1.1 1.432.154-.072 1.126-.543 2.161-1.048 4.583-2.235 10.254-1.17 14.018 2.633 2.727 2.755 3.705 5.814 3.13 9.792-1.074 7.424-7.046 12.175-14.057 11.183-4.013-.568-7.483-3.066-9.62-6.924l-1.037-1.874.172 1.745c.094.96.542 3.234.996 5.055.71 2.846 1.292 4.488 3.304 9.318.274.66.257.857-.094 1.08-.237.148-3.4.273-7.027.275-5.862.004-6.617-.049-6.78-.472zm-85.125-10.36c-.094-.243.243-1.364.747-2.49.505-1.125.856-2.107.781-2.182-.075-.075-.507.138-.961.473-1.276.94-3.527 1.096-5.06.35-1.73-.842-2.639-2.27-2.792-4.391-.159-2.184.043-2.924 1.135-4.164 1.117-1.27 3.17-1.952 4.782-1.59.608.138 1.14.216 1.182.174.042-.042-.182-.582-.499-1.2-1.345-2.633-.225-6.179 2.38-7.53.924-.48 3.331-.533 4.483-.1 1.116.422 2.372 1.664 2.866 2.834.535 1.27.522 3.717-.026 4.765-.238.455-.432.87-.432.922 0 .052.77.084 1.713.07 2.145-.03 3.389.639 4.323 2.323 1.666 3.002.315 7.282-2.653 8.404-1.893.716-4.405.007-5.672-1.6-.813-1.031-.771-.424.155 2.243.422 1.217.688 2.42.591 2.672-.257.67-6.786.686-7.043.017zm1.126-27.317c-2.135-.675-4.365-2.381-5.762-4.41-1.24-1.798-1.234-2.512.027-3.472.976-.742 2.191-1.015 2.191-.491 0 .575 3.104 3.611 4.198 4.107 2.35 1.065 5.41.502 7.25-1.335 2.766-2.758 2.882-7.566.244-10.024-1.719-1.601-4.294-1.86-6.648-.67-.783.397-1.643.722-1.911.723-.564 0-1.685-1.444-1.685-2.172 0-.271 1.646-2.396 3.658-4.721l3.658-4.228-3.278-.082c-1.803-.045-3.45-.017-3.658.063-.25.096-.38.693-.38 1.753 0 1.901-.314 2.122-2.682 1.885l-1.516-.152-.082-3.57c-.054-2.386.03-3.704.253-3.973.271-.326 1.926-.401 8.817-.401 4.665 0 8.689.078 8.94.175.332.127.459.567.459 1.596 0 1.386-.067 1.494-2.751 4.492-1.513 1.689-2.75 3.235-2.75 3.436 0 .201.423.456.94.568 2.388.513 4.708 2.525 5.858 5.083.76 1.689.791 1.933.668 5.27-.09 2.403-.283 3.856-.62 4.634-1.58 3.66-6.093 6.55-10.157 6.506-.808-.01-2.284-.274-3.281-.59z" fill="#d3d3d3"/><path d="M0 157.44V0h217.76v314.88H0V157.44zm210.44 156.6c2.992-1.091 4.353-2.303 5.554-4.946l.588-1.292.006-150.24.006-150.24-.886-1.769c-.929-1.854-2.302-3.163-4.228-4.032-1.049-.473-6.88-.502-102.6-.502H7.39l-1.514.683c-1.863.84-3.574 2.642-4.305 4.534-.54 1.397-.552 4.595-.552 151.64v150.22l.685 1.375c.94 1.89 3.157 3.807 5.192 4.495 1.619.546 3.666.558 101.84.593 97.891.036 100.23.024 101.7-.514zm-24.64-21.02c-.106-.106-.193-.688-.193-1.294 0-.945.253-1.38 1.782-3.058 2.234-2.45 4.01-4.67 4.01-5.014 0-.145-.229-.263-.508-.263-.278 0-1.296-.373-2.26-.829-3.351-1.581-5.051-4.542-5.051-8.799 0-5.489 1.94-8.682 6.563-10.799 1.404-.643 2.081-.77 4.006-.754 2.696.023 4.237.514 6.26 1.996 1.512 1.107 3.73 3.931 3.73 4.749 0 .27-.529.857-1.174 1.303l-1.175.812-1.754-1.939c-2.362-2.612-3.491-3.162-6.204-3.025-1.779.09-2.301.242-3.35.977-.683.479-1.636 1.506-2.117 2.283-.75 1.21-.89 1.746-.97 3.747-.08 2.018 0 2.51.602 3.634 1.552 2.902 4.941 3.779 8.34 2.158l1.78-.848.694.805c.382.443.695 1.041.695 1.329 0 .287-1.692 2.44-3.76 4.784-2.069 2.344-3.69 4.376-3.603 4.516.192.31 6.789.335 7.274.027.19-.12.386-.996.434-1.945l.09-1.727 1.71-.088c1.172-.06 1.786.03 1.95.29.276.433.336 6.022.073 6.708-.155.402-1.215.457-8.929.457-4.813 0-8.839-.087-8.945-.193zm-82.428-14.134c-3.951-1.047-7.449-3.966-8.684-7.248-1.812-4.81-.726-9.91 3.03-14.238.879-1.012 1.536-1.903 1.46-1.978-.076-.076-1.138.369-2.361.988-2.187 1.107-2.276 1.125-5.435 1.125-3.01 0-3.335-.057-5.159-.92-5.178-2.447-7.568-7.046-6.609-12.719.71-4.2 3.26-7.75 6.819-9.488 1.616-.79 1.97-.849 5.067-.849 3.155 0 3.434.05 5.313.937 2.756 1.302 4.992 3.63 6.267 6.526.537 1.218 1.08 2.215 1.207 2.215.534 0-.821-7.173-2.121-11.231-.49-1.529-1.266-3.523-1.724-4.432-.951-1.885-1.025-2.402-.376-2.65.252-.096 3.158-.175 6.46-.175 4.353 0 6.133.1 6.48.361.435.33.387.564-.554 2.672-2.126 4.762-3.868 11.291-3.868 14.495 0 1.281.452 1.218.881-.123 1.118-3.49 3.603-6.437 6.585-7.806 1.299-.597 2.228-.786 4.316-.88 4.747-.214 8.578 1.561 11.005 5.1 1.43 2.087 1.817 3.224 2.027 5.977.405 5.288-2.28 10.11-6.798 12.213-1.49.693-1.99.771-4.986.775-3.036.004-3.48-.067-5.04-.795-.94-.44-1.765-.742-1.835-.672-.07.07.396.819 1.035 1.665 4.745 6.283 4.655 13.322-.229 17.97-1.919 1.826-3.378 2.624-5.866 3.21-2.26.531-4.241.524-6.307-.024zm90.736-20.323c-3.529-.85-5.165-4.577-3.473-7.911.376-.742.605-1.346.507-1.342-.098.004-.7.128-1.336.277a4.843 4.843 0 0 1-2.317-.032c-2.189-.574-3.33-2.259-3.33-4.918 0-3.62 2.853-6.234 5.91-5.413 1.109.298 2.776 1.707 3.556 3.005.683 1.136.422-.66-.492-3.379-.479-1.427-.797-2.713-.707-2.86.09-.145 1.59-.264 3.333-.264 3.745 0 3.666-.122 2.158 3.325-1.264 2.888-1.276 3.345-.053 2.05 3.049-3.224 7.962-1.536 8.49 2.917.224 1.884-.262 3.303-1.505 4.392-1.61 1.41-3.5 1.659-5.705.75-.556-.228-.713.27-.187.595.529.326 1.404 2.516 1.411 3.529.022 3.287-3.211 6.014-6.26 5.279zm-94.14-72.43c-.551-.222-.457-.647.78-3.49 1.377-3.168 2.436-6.6 3.042-9.856.478-2.572.59-4.953.232-4.948-.12.002-.583.978-1.03 2.17a12.104 12.104 0 0 1-5.94 6.56c-1.833.901-2.076.945-5.258.945-3.15 0-3.445-.052-5.283-.92-1.07-.507-2.615-1.544-3.432-2.307-6.463-6.03-3.972-17.739 4.324-20.322 2.721-.847 6.047-.776 8.294.179 2.897 1.23 2.901 1.226 1.192-1.15-2.622-3.647-3.695-7.365-3.122-10.817.888-5.346 4.898-9.267 10.447-10.217 5.57-.953 11.384 1.995 13.748 6.97.845 1.78.9 2.1.9 5.219 0 3.23-.028 3.381-1.053 5.488-.579 1.192-1.719 2.941-2.533 3.887-.815.947-1.48 1.835-1.48 1.974 0 .294-.14.348 2.43-.939 1.752-.876 2.329-1.014 4.676-1.116 4.024-.175 6.828.924 9.596 3.762 1.892 1.94 2.782 3.989 2.93 6.74.295 5.538-2.268 10.29-6.785 12.576-1.897.96-2.066.993-5.31.993-3.217 0-3.43-.04-5.323-.969-3.26-1.601-5.134-3.813-7.011-8.275-.479-1.139-.47 1.194.014 3.824.72 3.91 1.819 7.709 3.065 10.591 1.275 2.948 1.328 3.216.68 3.463-.546.21-12.267.195-12.789-.016zm-.427-93.166c-.064-.192.49-1.787 1.232-3.544 2.035-4.818 3.44-10.37 3.46-13.666.007-1.145-.436-1.235-.708-.144-.777 3.114-3.628 6.684-6.433 8.054-6.043 2.95-13.788.217-16.686-5.89-.846-1.785-.924-2.189-.924-4.837-.001-3.415.574-5.486 2.149-7.734 3.104-4.432 9.585-6.08 14.638-3.722 1.086.508 2.016.881 2.067.831.05-.05-.608-1.02-1.464-2.155-3.558-4.717-4.244-9.956-1.92-14.664 2.337-4.737 8.24-7.492 13.651-6.37 6.133 1.27 10.044 5.54 10.347 11.295.201 3.815-.898 6.783-3.833 10.351-.899 1.093-1.588 2.034-1.531 2.09.057.057 1.165-.438 2.462-1.099 2.08-1.06 2.644-1.217 4.758-1.326 1.932-.099 2.762 0 4.265.507 3.893 1.314 7.024 4.344 8.02 7.76.906 3.109.053 8.015-1.881 10.82-5.787 8.39-18.261 6.485-21.912-3.348-.76-2.045-1.014-1.282-.557 1.675.627 4.058 1.719 8.115 3.032 11.266 1.862 4.468 2.435 4.03-5.409 4.122-5.046.058-6.735-.01-6.823-.272zM14.61 82.607c-.104-.168.265-1.37.82-2.672 1.57-3.687 1.62-4.033.377-2.604-2.218 2.547-5.792 2.415-7.815-.29-.726-.969-.995-4.12-.462-5.404.819-1.973 3.504-3.22 5.589-2.598.62.186 1.313.409 1.541.496.24.092.03-.459-.5-1.307-.828-1.33-.901-1.635-.794-3.322.095-1.486.284-2.072.945-2.937 2.143-2.803 6.218-2.687 8.39.238.913 1.23.875 4.875-.065 6.19-.757 1.058-.765 1.053.933.626 2.737-.687 5.063.8 5.702 3.645.785 3.5-1.476 6.778-4.675 6.778-1.774 0-3.078-.751-4.206-2.423-.546-.808-.992-1.273-.992-1.034 0 .657 1.126 4.577 1.564 5.442.678 1.343.396 1.481-3.019 1.481-1.896 0-3.219-.12-3.333-.305zm.821-27.37c-2.665-.949-4.988-2.976-6.28-5.48l-.488-.945.944-.86c.519-.473 1.154-.86 1.41-.86.258 0 .973.625 1.59 1.39 2.233 2.763 4.226 3.743 6.898 3.39 3.852-.51 6.03-3.15 6.089-7.38.026-1.875-.078-2.35-.766-3.518-1.121-1.902-3.327-2.986-5.602-2.752-.878.09-2.053.433-2.611.762-.558.328-1.253.597-1.544.597-.566 0-1.464-1.14-1.464-1.859 0-.24 1.629-2.335 3.62-4.658 1.99-2.323 3.619-4.342 3.619-4.486 0-.145-1.694-.263-3.765-.263h-3.764v1.568c0 1.94-.46 2.478-2.12 2.472-1.945-.007-1.962-.046-1.87-4.063l.081-3.588H27.07l.09 1.39c.085 1.347.034 1.448-1.676 3.271-.97 1.035-2.294 2.55-2.941 3.367-1.056 1.333-1.122 1.505-.641 1.683.294.109 1.135.41 1.867.667 2.99 1.053 5.24 4.169 5.62 7.78.219 2.09-.246 5.304-1.018 7.047-.735 1.657-2.976 3.78-5.083 4.816-2.253 1.107-5.578 1.324-7.858.512z" fill="#b1b1b1"/><path d="M0 157.44V0h217.76v314.88H0V157.44zm211.69 156.25c1.97-.922 3.429-2.328 4.35-4.195l.692-1.403v-301l-.681-1.3c-1.037-1.976-2.846-3.68-4.605-4.336-1.527-.57-2.408-.575-102.8-.572L7.386.887 5.94 1.56c-2.114.985-3.186 2.01-4.182 4L.87 7.328v150.13c0 133.57.049 150.27.44 151.38.86 2.432 2.833 4.325 5.448 5.228 1.427.492 6.142.513 102.41.453l100.91-.064 1.617-.756zm-25.599-20.664c-.108-.108-.197-.706-.197-1.328 0-.996.252-1.415 2.103-3.49 3.283-3.685 3.87-4.524 3.378-4.834a2.09 2.09 0 0 0-.93-.266c-.956-.008-3.276-1.394-4.385-2.618-2.096-2.315-2.77-5.073-2.216-9.055.535-3.838 2.557-6.582 6.053-8.217 1.399-.655 2.032-.769 4.255-.769 2.367 0 2.793.09 4.542.948 1.934.95 3.856 2.756 4.957 4.656l.528.913-.92.858c-.507.472-1.084.858-1.282.858-.198 0-1.055-.797-1.904-1.77-2.48-2.846-5.166-3.74-8.115-2.702-1.863.656-3.036 1.69-3.887 3.425-1.454 2.963-1.253 6.17.51 8.174 1.893 2.15 4.654 2.67 7.404 1.392.852-.396 1.722-.72 1.933-.72.393 0 1.585 1.327 1.585 1.765 0 .133-1.726 2.204-3.837 4.603-2.11 2.4-3.88 4.483-3.933 4.63-.056.158 1.597.269 3.982.269h4.078v-1.676c0-.921.156-1.831.347-2.022.392-.39 2.498-.461 3.065-.102.276.175.35 1.118.29 3.678l-.083 3.444-8.562.076c-4.709.042-8.65-.012-8.759-.12zm-83.157-14.372c-5.724-1.81-8.877-5.976-8.877-11.728 0-3.743.966-6.127 3.84-9.476 1.273-1.484 1.735-2.368 1.236-2.368-.1 0-.85.378-1.665.84-5.19 2.938-11.04 2.033-15.091-2.333-2.001-2.156-2.753-4.1-2.753-7.123 0-3.974 1.08-6.886 3.502-9.44 4.575-4.826 12.595-4.694 17.314.283 1.283 1.353 2.647 3.7 3.32 5.713.093.278.304.505.468.505 1.11 0-1.066-10.062-3.3-15.264-.569-1.325-1.034-2.592-1.034-2.816 0-.578 12.97-.61 13.192-.034.079.206-.32 1.376-.886 2.599-.566 1.223-1.412 3.391-1.88 4.82-1.238 3.777-2.214 9.641-1.734 10.416.29.468.863.092.863-.566 0-1.22 2.068-4.62 3.762-6.185 5.725-5.287 15.503-3.377 18.985 3.708.8 1.629.852 1.942.845 5.2-.009 4.591-.585 6.136-3.296 8.828-2.535 2.516-4.533 3.31-8.28 3.291-2.585-.013-2.967-.113-6.732-1.767-.644-.283-.387.318.827 1.93 2.478 3.29 3.44 5.999 3.434 9.672-.004 2.542-.687 4.663-2.212 6.865-1.163 1.68-3.866 3.569-6.088 4.254-2.176.67-5.928.755-7.76.176zm90.025-20.656c-2.71-1.228-3.767-5.194-2.03-7.616.254-.354.674-.936.933-1.293l.471-.65-1.38.61c-1.978.872-3.895.655-5.18-.588-3.612-3.492-.561-10.16 4.173-9.123 1.188.26 2.77 1.661 3.556 3.15.542 1.025.639 1.097.726.54.116-.736-.904-4.649-1.521-5.84-.311-.6-.331-.88-.08-1.129.397-.397 5.374-.449 5.986-.062.343.216.237.646-.622 2.523-1.077 2.352-1.816 4.672-1.568 4.92.08.078.41-.378.735-1.013 1.114-2.179 3.43-3.318 5.49-2.701 2.43.726 3.515 2.309 3.515 5.13 0 2.067-.736 3.326-2.42 4.139-1.536.742-2.863.75-4.457.028-.677-.306-1.23-.487-1.23-.402 0 .086.417.736.927 1.445.755 1.049.948 1.625 1.035 3.08.093 1.566.007 1.942-.686 2.993-1.49 2.258-3.924 2.969-6.373 1.859zm-93.19-72.214c-.087-.14.218-1.086.68-2.1 2.156-4.744 3.694-10.365 3.853-14.08.108-2.505-.415-2.598-1.21-.215-2.064 6.189-8.057 9.462-14.337 7.83-3.689-.958-6.56-3.26-8.094-6.489-.836-1.76-.892-2.088-.892-5.2 0-3.13.053-3.434.916-5.252 1.16-2.441 2.82-4.245 4.947-5.37 3.438-1.82 7.316-1.931 10.842-.31 1.088.5 2.045.845 2.125.765.08-.08-.36-.783-.979-1.561-3.501-4.41-4.606-9.032-3.224-13.495 1.557-5.03 6.207-8.287 11.828-8.287 6.863 0 11.997 4.478 12.654 11.035.351 3.505-.902 6.994-3.763 10.476-2.214 2.694-2.138 3.152.27 1.629 6.679-4.226 16.176-.239 17.837 7.487.468 2.18-.082 5.697-1.288 8.227-3.586 7.528-13.3 9.062-19.316 3.052-1.5-1.5-2.177-2.593-3.277-5.29-.69-1.692-1.167-1.397-.935.577.547 4.666 2.112 10.478 3.82 14.188.54 1.17.91 2.243.822 2.383-.207.334-13.072.334-13.279 0zm-.078-93.268c.085-.278.747-1.936 1.471-3.683 1.584-3.824 2.676-7.808 3.04-11.096.414-3.725-.083-4.327-1.13-1.369-1.984 5.607-6.331 8.54-12.166 8.207-2.044-.116-2.928-.32-4.447-1.03-2.539-1.185-4.585-3.145-5.751-5.509-.901-1.825-.939-2.042-.939-5.374 0-3.3.046-3.569.916-5.402 1.204-2.535 2.934-4.366 5.13-5.43 3.453-1.672 7.242-1.687 10.764-.042 1.143.533 1.862.737 1.856.525-.006-.19-.656-1.19-1.445-2.223s-1.792-2.723-2.229-3.756c-.71-1.677-.795-2.232-.8-5.2-.003-3.01.07-3.478.777-4.984 2.582-5.497 8.957-8.303 15.042-6.62 2.488.689 4.144 1.679 5.852 3.5 4.503 4.804 4.228 12.065-.673 17.733-2.193 2.536-2.033 2.726 1.004 1.198 3.776-1.9 7.186-1.898 11.053.005 2.323 1.143 4.26 3.053 5.354 5.28.817 1.66 1.071 5.43.53 7.855-1.588 7.12-8.36 11.102-15.303 8.998-3.419-1.036-5.755-3.155-7.601-6.893-.647-1.311-1.314-2.384-1.482-2.384-.702 0 .778 7.912 2.29 12.247.555 1.589 1.318 3.497 1.695 4.24.378.745.606 1.434.507 1.533-.099.098-3.17.18-6.825.18-6.195 0-6.635-.035-6.491-.506zM14.865 82.473c-.092-.24.292-1.508.854-2.817.562-1.308 1.103-2.899 1.203-3.534l.18-1.156-.564 1.011c-1.255 2.245-3.447 3.401-5.542 2.924-2.334-.531-3.468-1.995-3.68-4.747-.12-1.537-.044-1.925.541-2.772 1.543-2.235 3.937-2.908 6.43-1.808 1.287.568 1.335.57 1.055.049-.161-.3-.436-.635-.611-.743-.56-.345-1.404-2.544-1.41-3.678-.007-1.193.576-2.558 1.548-3.624 2.559-2.806 7.306-1.507 8.317 2.278.445 1.664.192 2.999-.892 4.704-.473.743-.813 1.351-.756 1.351.057 0 .57-.195 1.143-.433 3.449-1.438 6.56.685 6.56 4.477 0 3.297-2.874 6.065-5.59 5.385-1.574-.394-3.332-2.16-4.066-4.085-.06-.159-.2-.206-.31-.106-.265.245.557 3.772 1.328 5.695.787 1.96.653 2.056-2.882 2.062-2.136.004-2.722-.085-2.856-.433zm2.176-27.022c-1.883-.301-3.742-1.183-5.125-2.429-1.263-1.138-2.945-3.476-2.945-4.094 0-.205.488-.704 1.085-1.109l1.085-.735 1.804 1.99c2.071 2.288 3.343 2.927 5.82 2.927 4.186 0 7-3.097 7-7.703 0-5.166-4.944-7.911-9.5-5.273-1.252.725-1.352.71-2.089-.322-.776-1.088-.89-.897 3.606-6.083 1.844-2.127 3.309-3.999 3.256-4.16-.105-.314-6.274-.567-7.348-.301-.56.139-.648.38-.724 1.962l-.086 1.803-1.656.086c-2.011.105-2.026.072-1.903-4.13l.084-2.89H27.07l.088 1.062c.08.959-.117 1.295-2.034 3.467-3.017 3.418-3.7 4.281-3.7 4.666 0 .186.757.56 1.682.832 2.093.614 4.137 2.341 5.185 4.382 1.391 2.711 1.208 8.338-.36 11.037-2.028 3.492-6.767 5.675-10.889 5.015z" fill="#909090"/><path d="M0 157.44V0h217.76v314.88H0V157.44zm212.14 156.22c1.848-.972 3.687-3.022 4.286-4.775.413-1.209.456-15.592.456-151.45V7.315L216 5.553c-.99-1.977-2.365-3.322-4.315-4.222l-1.318-.608h-101.35c-99.198 0-101.38.011-102.79.553C4.336 2.004 2.25 3.985 1.4 5.861L.717 7.367.64 156.857c-.053 103.83.016 149.93.228 150.93.608 2.866 2.79 5.294 5.638 6.279 1.367.472 7.273.497 102.8.437l101.35-.063 1.484-.781zm-26.241-21.869c0-.992.231-1.39 1.81-3.11 3.999-4.361 4.722-5.583 3.304-5.583-1.282 0-4.204-1.714-5.249-3.079-1.557-2.035-1.988-3.716-1.829-7.143.172-3.712.841-5.359 3.006-7.401 2.283-2.154 4.32-3 7.21-2.997 3.123.003 5.34.976 7.466 3.275.831.899 1.703 1.998 1.938 2.442.41.776.39.841-.503 1.637-.511.456-1.11.76-1.33.675-.222-.084-.817-.73-1.324-1.433-.507-.705-1.533-1.701-2.28-2.216-1.127-.775-1.691-.954-3.289-1.045-2.374-.135-3.74.29-5.225 1.628-1.667 1.503-2.33 2.99-2.485 5.571-.16 2.674.478 4.386 2.091 5.614 2.173 1.653 4.683 1.788 7.495.403l1.396-.688.552.717c.304.395.556.913.559 1.151.003.238-1.7 2.357-3.783 4.708-2.383 2.688-3.73 4.431-3.629 4.695.212.551 7.394.617 7.94.072.191-.19.347-1.107.347-2.037v-1.69l1.665.087 1.665.087v6.644l-8.759.076-8.759.077v-1.137zm-82.492-13.194c-5.727-1.537-9.284-6.01-9.284-11.676 0-3.337 1.313-6.528 3.906-9.495 1.336-1.528 1.95-2.638 1.46-2.638-.067 0-1.187.553-2.489 1.228l-2.367 1.228h-3.236c-3.1 0-3.322-.042-5.248-.988-2.471-1.214-4.4-3.09-5.523-5.371-.764-1.554-.85-2.009-.839-4.474.015-3.359.578-5.368 2.172-7.75a11.403 11.403 0 0 1 5.7-4.432c1.355-.476 2.197-.567 4.445-.478 2.428.096 3.016.229 4.714 1.063 2.69 1.32 4.55 3.269 5.982 6.263 1.101 2.301 1.496 2.772 1.846 2.206.189-.304-.577-5.427-1.152-7.705-.709-2.813-1.883-6.232-2.775-8.08-.458-.95-.768-1.892-.69-2.095.11-.284 1.585-.37 6.386-.37 5.24 0 6.27.07 6.408.428.09.234-.354 1.632-.988 3.105-2.128 4.952-3.74 11.468-3.488 14.105.14 1.468.822 1.248 1.401-.453 1.245-3.652 3.406-6.255 6.299-7.583 2.193-1.008 6.102-1.239 8.64-.511 3.375.968 6.465 3.675 7.693 6.74.94 2.344.932 6.97-.016 9.375-1.282 3.253-3.828 5.617-7.23 6.715-2.503.807-6.3.523-8.834-.66-1.093-.51-2.038-.929-2.1-.929-.378 0 .051.837 1.161 2.264 2.642 3.395 3.828 6.87 3.559 10.427-.56 7.401-8.105 12.529-15.513 10.54zm90.211-20.475c-3.625-1.29-4.515-5.54-1.826-8.72 1.053-1.246.968-1.372-.446-.652-2.464 1.254-5.24.612-6.355-1.468-.604-1.127-.72-3.534-.232-4.825.461-1.22 2-2.666 3.173-2.98 2.06-.554 3.919.424 5.236 2.753.492.87 1.024 1.58 1.182 1.58.419 0 .033-2.036-.948-4.999-.463-1.4-.842-2.602-.842-2.672 0-.07 1.368-.128 3.04-.128 3.47 0 3.48.01 2.356 2.248-.95 1.896-1.692 4.258-1.58 5.04.077.544.25.38 1.012-.962 1.164-2.05 2.366-2.694 4.669-2.503 1.417.117 1.723.265 2.687 1.296 1.842 1.97 1.912 5.14.154 6.895-1.62 1.616-3.81 1.82-6.212.577-1.307-.676-1.417-.431-.352.779 1.763 2.003 2.167 4.05 1.21 6.13-.652 1.415-1.396 2.1-2.84 2.614-1.377.49-1.701.49-3.086-.003zm-93.589-72.456c-.078-.203.375-1.557 1.006-3.01 1.983-4.56 3.498-10.486 3.498-13.68 0-2.331-.644-2.148-1.579.448-2.047 5.687-7.015 8.704-12.99 7.888-6.675-.91-11.21-7.028-10.11-13.64.698-4.206 2.902-7.286 6.393-8.936 1.798-.85 2.139-.91 5.111-.91 2.993 0 3.305.056 5.172.938 1.093.517 2.038.939 2.1.939.379 0-.036-.9-.932-2.022-4.895-6.127-5.034-13.365-.345-17.99 6.115-6.029 16.835-4.208 20.443 3.473.707 1.504.78 1.978.78 5 0 3.263-.023 3.384-1.066 5.488-.586 1.183-1.792 2.986-2.678 4.007-.887 1.021-1.612 1.956-1.612 2.077 0 .593.681.476 2.022-.347 2.04-1.251 3.824-1.734 6.41-1.734 6.112 0 11.14 4.444 11.484 10.146.338 5.615-2.24 10.365-6.85 12.625-1.493.731-1.908.798-4.965.798-3.182 0-3.424-.043-5.258-.944-3.01-1.478-5.08-3.93-6.724-7.96-.248-.607-.584-1.022-.746-.921-1.107.682 1.417 11.99 3.666 16.427.39.77.64 1.583.555 1.805-.218.568-12.567.601-12.785.035zm-.046-93.299c.083-.357.751-2.109 1.485-3.891 1.645-3.997 2.75-8.463 2.847-11.502.092-2.901-.417-3.082-1.393-.493-1.709 4.536-4.938 7.26-9.426 7.953-6.751 1.043-13.222-3.85-13.773-10.412-.349-4.143 1.008-7.86 3.798-10.404 2.32-2.115 4.203-2.788 7.837-2.801 2.7-.01 3.038.056 4.999.973 2.017.944 2.824 1.013 2.23.192-.154-.212-.92-1.26-1.702-2.327-3.482-4.753-3.95-10.336-1.245-14.841 2.505-4.172 7.953-6.442 12.962-5.4 6.03 1.254 9.766 5.348 10.065 11.03.204 3.888-1.043 7.063-4.18 10.642-1.172 1.336-1.578 2.177-1.05 2.177.119 0 1.281-.539 2.583-1.198 3.725-1.883 7.206-1.895 11.01-.036 1.9.928 4.52 3.617 5.336 5.475 1.72 3.921.527 10.062-2.616 13.463-2.468 2.671-6.62 4.056-10.326 3.443-4.264-.705-7.442-3.21-9.422-7.426-1.092-2.324-1.47-2.78-1.824-2.207-.234.377.587 5.42 1.407 8.646.4 1.578 1.26 4.154 1.91 5.725.65 1.572 1.255 3.085 1.343 3.363.149.471-.286.506-6.423.506h-6.583l.151-.65zm-85.132-10.24c.084-.278.62-1.625 1.191-2.994 1.172-2.807 1.555-4.3 1.102-4.3-.164 0-.583.584-.93 1.298-.925 1.907-2.06 2.602-4.25 2.602-2.065 0-3.109-.581-3.93-2.187-.675-1.322-.676-4.083 0-5.227 1.203-2.04 4.007-2.684 6.427-1.478.707.353 1.342.587 1.41.52.068-.068-.265-.617-.739-1.22-1.297-1.651-1.557-2.286-1.569-3.842-.023-2.986 2.48-5.437 5.19-5.082 2.475.325 3.935 1.658 4.358 3.979.336 1.841-.1 3.44-1.326 4.869-1.149 1.339-1.143 1.34 1.358.426 2.547-.93 5.065.332 5.78 2.9.464 1.667.395 2.415-.372 4.058-1.848 3.96-6.789 3.549-8.557-.711-.207-.498-.49-.905-.63-.905-.46 0-.267 1.629.486 4.084 1.281 4.181 1.537 3.716-2.044 3.716-2.825 0-3.094-.046-2.955-.506zm.878-27.048c-.666-.217-1.657-.67-2.203-1.007-1.232-.759-3.465-3.114-4.082-4.304-.453-.874-.445-.903.426-1.634.488-.41 1.04-.744 1.226-.743.187 0 .885.704 1.55 1.564.666.86 1.84 1.932 2.607 2.383 1.187.696 1.698.815 3.422.799 3.114-.03 5.443-1.558 6.703-4.397.745-1.679.684-5.11-.118-6.617-1.598-3.005-5.706-4.148-8.66-2.41-.55.323-1.205.588-1.457.588-.546 0-1.224-.818-1.237-1.494-.005-.266 1.685-2.443 3.756-4.84 2.07-2.396 3.764-4.49 3.764-4.652 0-.192-1.45-.268-4.126-.216l-4.127.08-.09 1.58c-.116 2.052-.404 2.369-2.056 2.262L9.7 31.935v-6.933h17.084l.087 1.182c.081 1.108-.044 1.324-2 3.466-2.105 2.305-3.734 4.37-3.734 4.736 0 .11.754.407 1.675.663 2.458.681 4.171 2.116 5.329 4.462.889 1.802.958 2.147.941 4.695-.024 3.775-.61 5.606-2.43 7.592-.815.89-2.215 1.979-3.255 2.532-1.559.829-2.163.983-4.142 1.057-1.407.052-2.79-.069-3.525-.308z" fill="#6e6e6e"/><path d="M0 157.44V0h217.76v314.88H0V157.44zm212.5 156.15c1.72-.95 2.892-2.217 3.877-4.19l.653-1.308V7.372l-.759-1.615c-.974-2.073-2.852-3.866-4.818-4.6-1.538-.574-2.168-.577-103.1-.503L6.803.728l-1.448.768C3.48 2.492 2.24 3.81 1.322 5.783l-.736 1.58-.002 150.09c-.003 139.66.03 150.19.482 151.52.676 1.983 3.266 4.548 5.189 5.138 1.256.386 13.145.43 103.06.383l101.64-.053 1.55-.857zm-26.422-21.121c-.374-.973-.13-1.64 1.081-2.95 2.265-2.45 4.824-5.63 4.824-5.994 0-.196-.481-.447-1.07-.557-3.822-.715-6.55-3.872-6.94-8.03-.387-4.144.987-7.893 3.67-10.008 2.223-1.753 4.29-2.417 7.09-2.275 3.642.184 6.394 1.907 8.602 5.385l.546.861-.806.746c-.444.41-.903.746-1.021.746-.118 0-1.162-.959-2.32-2.13-1.864-1.89-2.288-2.173-3.71-2.49-4.423-.982-8.233 1.726-9.033 6.422-.716 4.203 1.673 7.52 5.714 7.937 1.25.129 1.827.02 3.188-.602.914-.418 1.834-.76 2.045-.76.364 0 1.284 1.063 1.284 1.484 0 .11-1.758 2.193-3.907 4.63s-3.908 4.597-3.909 4.8c0 .286.955.35 4.27.289l4.27-.08.145-1.878.145-1.878h2.895l.082 3.395.081 3.394h-8.52c-7.502 0-8.541-.055-8.696-.457zm-81.389-13.714c-5.582-.943-9.372-4.585-10.3-9.897-.571-3.272.467-7.195 2.612-9.875 2.666-3.33 2.916-3.712 2.621-4.006-.197-.197-1.073.107-2.684.931-3.88 1.985-7.467 1.972-11.312-.041-3.634-1.904-5.78-5.417-5.78-9.46 0-6.162 3.393-10.916 8.773-12.293 5.851-1.497 11.475 1.374 14.195 7.247 1.776 3.834 2.382 3.206 1.604-1.662-.648-4.056-1.952-8.676-3.224-11.422-.55-1.19-1.002-2.34-1.002-2.556 0-.32 1.194-.393 6.37-.393 4.191 0 6.371.102 6.371.299 0 .164-.315.918-.7 1.676-2.666 5.25-5.048 16.513-3.492 16.513.242 0 .587-.357.767-.794 1.973-4.8 3.545-6.77 6.543-8.198 4.43-2.11 10.218-1.103 13.714 2.385 4.58 4.57 4.353 12.846-.474 17.248-1.871 1.706-4.07 2.622-6.852 2.855-2.171.182-3.894-.163-6.406-1.283-2.273-1.013-2.62-.609-1.07 1.246.651.78 1.699 2.458 2.328 3.73 4.171 8.425-.51 16.904-9.86 17.86-.716.073-1.95.023-2.742-.11zm88.134-21.069c-2.854-1.505-3.309-5.486-.928-8.115.57-.63.959-1.226.862-1.323-.097-.097-.857.116-1.688.473-3.69 1.583-6.606-.316-6.613-4.307-.004-2.438 2.232-4.93 4.424-4.93 1.927 0 3.356 1.072 4.524 3.395.34.675.764 1.227.942 1.227.485 0 .085-2.736-.767-5.24-.398-1.17-.724-2.293-.725-2.498 0-.283.67-.351 2.821-.288 2.306.067 2.815.162 2.775.516-.027.238-.51 1.473-1.073 2.744-1.699 3.836-1.741 6.677-.05 3.347 1.007-1.982 2.194-2.76 4.212-2.76 2.846 0 4.343 1.723 4.343 4.995 0 1.456-.124 1.887-.758 2.64-1.61 1.908-3.642 2.235-6.15.989-.835-.416-1.592-.683-1.681-.594-.09.09.291.722.845 1.405 1.446 1.785 1.664 2.317 1.664 4.071 0 3.692-3.731 5.965-6.979 4.253zm-92.698-72.097c-.096-.096.197-1.002.651-2.012 1.168-2.597 2.207-5.547 2.87-8.152.687-2.694 1.257-7.045 1.008-7.693-.26-.675-.957-.574-1.257.183-.142.357-.551 1.413-.91 2.346-.886 2.301-3.241 4.81-5.609 5.973-5.702 2.8-13.33.135-15.978-5.583-.764-1.651-.832-2.069-.832-5.134 0-3.278.02-3.377 1.092-5.542 1.2-2.424 2.834-4.091 5.005-5.11 3.213-1.506 7.001-1.52 10.178-.036 3.163 1.476 3.363 1.22 1.237-1.583-2.742-3.613-3.6-6.111-3.414-9.93.15-3.082 1.023-5.144 3.11-7.345 1.777-1.875 3.832-2.953 6.772-3.551 2.02-.41 2.43-.41 4.45 0 2.884.587 5.109 1.691 6.793 3.372 3.23 3.221 4.256 8.262 2.59 12.707-.661 1.76-1.564 3.203-3.428 5.474-.677.825-1.23 1.683-1.23 1.907 0 .58.788.504 1.731-.166 2.329-1.654 6.038-2.394 8.916-1.779 4.796 1.027 8.642 4.974 9.202 9.446.663 5.296-2.693 11.33-7.327 13.17-2.307.917-6.448.922-8.758.012-3.18-1.253-6.047-4.21-7.103-7.326-.538-1.586-1.151-2.23-1.65-1.733-.248.247-.177 1.252.284 4.017.728 4.37 1.753 8.026 3.14 11.198.555 1.272 1.037 2.441 1.07 2.6.065.314-12.294.578-12.603.27zm-.054-92.818c-.086-.139.349-1.415.967-2.835 2.215-5.096 3.606-10.701 3.44-13.87-.12-2.314-.744-2.255-1.604.152-1.371 3.838-3.802 6.394-7.219 7.59-1.359.475-2.224.57-4.439.488-2.352-.087-3.03-.233-4.685-1.007-3.67-1.717-5.984-4.753-6.618-8.68-.325-2.015-.004-4.775.792-6.804 2.445-6.235 9.8-8.82 16.087-5.655 2.16 1.089 2.738.788 1.49-.776-2.7-3.385-3.696-5.455-4.142-8.6-1.219-8.592 6.736-15.304 15.453-13.04 4.772 1.24 8.02 4.764 8.88 9.63.634 3.593-.641 7.51-3.619 11.112-1.387 1.678-2.058 3.081-1.473 3.081.087 0 1.097-.51 2.244-1.133 2.76-1.5 5.13-1.961 7.672-1.494 6.578 1.21 10.526 6.448 9.601 12.738-.659 4.483-3.152 8.031-6.862 9.765-1.478.691-2.009.779-4.706.779-3.863 0-5.625-.642-8.136-2.961-1.384-1.278-2.016-2.174-3.05-4.326-1.994-4.142-2.583-3.286-1.581 2.297.748 4.171 1.74 7.577 3.164 10.873.908 2.101 1.045 2.638.708 2.767-.693.266-12.197.18-12.365-.092zm-85.017-10.52c0-.203.462-1.462 1.026-2.798 1.12-2.649 1.595-4.92 1.03-4.92-.187 0-.58.56-.875 1.246-1 2.328-3.15 3.436-5.462 2.815-2.022-.544-3.249-2.385-3.247-4.875.003-3.624 3.612-5.496 7.066-3.664.748.397 1.42.722 1.49.722.379 0 .024-.766-.775-1.674-1.287-1.462-1.787-2.825-1.63-4.444.152-1.582 1.212-3.166 2.597-3.88 1.187-.613 3.732-.419 4.782.363 1.548 1.153 1.96 2.02 1.96 4.118 0 1.732-.097 2.074-.868 3.045A62.644 62.644 0 0 0 21 69.785c-.519.718.134.81 1.263.177 1.332-.747 3.43-.832 4.674-.19 1.93.995 2.65 4.65 1.36 6.9-.974 1.697-2.01 2.338-3.781 2.338-1.935 0-3.028-.76-4.138-2.88-1.765-3.369-2.01-1.207-.41 3.602.45 1.35.759 2.553.686 2.672-.073.12-1.363.217-2.867.217-2.028 0-2.733-.095-2.733-.37zm1.542-27.07c-1.535-.324-2.818-.975-4.334-2.2-1.214-.98-3-3.383-3-4.036 0-.195.417-.619.927-.94l.926-.586 1.745 1.9c2.084 2.27 3.431 2.954 5.828 2.963 3.164.011 5.922-1.927 6.926-4.868.603-1.765.558-4.522-.097-5.961-.566-1.243-2.264-2.9-3.42-3.339-1.392-.528-3.957-.316-5.474.451-.784.397-1.508.722-1.609.723-.1 0-.403-.333-.671-.742-.609-.926-.727-.74 3.857-6.041 1.92-2.222 3.39-4.144 3.263-4.27-.126-.126-2.109-.193-4.405-.148l-4.176.08-.087 1.82-.087 1.82-1.506-.086-1.506-.087-.082-3.154c-.061-2.331.014-3.215.29-3.385.42-.26 15.922-.32 16.59-.064.754.289.547 2.205-.324 3.014-1.624 1.505-5.063 5.837-4.98 6.27.054.277.638.598 1.473.81 2.388.609 4.161 2.03 5.375 4.308.715 1.343.769 1.7.767 5.056-.002 3.073-.094 3.804-.616 4.91-1.956 4.145-7.129 6.725-11.594 5.782z" fill="#4f4f4f"/><path d="M0 157.44V0h217.76v314.88H0V157.44zm212.43 156.37c1.778-.949 3.799-3.342 4.313-5.108.384-1.316.426-18.95.36-151.7l-.073-150.21-.773-1.463c-.905-1.71-2.705-3.425-4.4-4.193-1.164-.527-4.016-.542-102.999-.549L7.048.581l-1.772.884c-2.009 1.001-3.035 2.074-4.014 4.2L.584 7.136l.073 150.77.073 150.77.677 1.3c1.154 2.213 3.09 3.873 5.073 4.347.5.12 46.776.198 102.84.174l101.93-.044 1.19-.635zm-26.045-21.078c-.106-.106-.193-.594-.193-1.084 0-.694.434-1.374 1.954-3.064 4.246-4.718 4.559-5.42 2.6-5.826-2.713-.563-5.061-2.563-6.033-5.14-.506-1.34-.583-2.074-.486-4.626.143-3.748.803-5.444 2.874-7.376 2.197-2.05 4.227-2.867 7.094-2.855 2.059.008 2.596.127 4.252.94 1.886.927 3.93 2.838 4.823 4.51.41.767.391.831-.434 1.49l-.863.687-1.737-1.84c-2.284-2.419-3.032-2.834-5.413-3.004-3.26-.232-5.737 1.162-7.231 4.07-.767 1.493-1.049 4.848-.536 6.397 1.196 3.615 5.473 5.222 9.24 3.472 1.47-.682 1.596-.697 2.1-.242.295.267.533.692.528.946-.005.253-1.768 2.45-3.918 4.88-2.15 2.43-3.832 4.543-3.738 4.694.095.154 2.062.275 4.466.275 4.843 0 4.647.099 4.647-2.335v-1.42h2.895v3.146c0 2.603-.079 3.177-.458 3.322-.626.24-16.192.224-16.433-.017zm-83.07-14.39c-5.576-1.532-8.922-5.814-8.922-11.419 0-3.451 1.114-6.118 3.958-9.477 2.469-2.915 2.065-3.487-1.254-1.78-3.814 1.963-7.372 2.062-10.949.305-4.945-2.429-7.139-7.25-5.83-12.814.607-2.583 1.38-4.033 3.143-5.892 4.412-4.654 12.113-4.498 16.697.338.99 1.043 1.91 2.448 2.65 4.049.624 1.347 1.262 2.45 1.417 2.45.792 0 .869-1.172.295-4.52-.87-5.076-1.98-8.897-3.504-12.056-.45-.935-.75-1.812-.664-1.95.086-.138 2.9-.251 6.253-.251h6.097l-.157.65c-.087.357-.746 2.08-1.465 3.827-1.584 3.852-2.351 6.71-2.831 10.546-.326 2.608-.315 2.944.115 3.373.642.64 1.169.186 1.65-1.42 1.761-5.874 7.02-9.247 12.943-8.303 6.007.958 9.932 5.463 9.944 11.415.013 6.797-4.677 11.72-11.165 11.72-2.405 0-4-.363-5.974-1.361-.754-.381-1.505-.693-1.67-.693-.636 0-.247 1.042.964 2.582 3.803 4.837 4.648 10.038 2.376 14.623-1.078 2.176-2.413 3.6-4.544 4.846-2.597 1.518-6.611 2.026-9.573 1.212zm90.306-20.504c-2.045-.727-3.094-2.241-3.094-4.464 0-1.547.409-2.514 1.632-3.865 1.372-1.515.942-2.066-.832-1.068-.848.476-1.686.692-2.682.69-2.59-.003-3.909-1.549-3.909-4.582 0-1.866.468-2.948 1.736-4.012 2.183-1.833 4.892-1.015 6.554 1.979.528.951 1.127 1.73 1.33 1.73.749 0-.034-4.278-1.362-7.439-.194-.461.034-.505 2.603-.505 3.24 0 3.078-.396 1.446 3.544-1.007 2.43-1.269 4.4-.584 4.4.157 0 .566-.585.909-1.3.343-.715.974-1.625 1.403-2.022.674-.625 1.048-.722 2.764-.722 1.803 0 2.066.078 2.877.853 1.594 1.523 1.905 4.676.636 6.454-.8 1.119-2.723 1.895-4.083 1.647-.565-.102-1.571-.502-2.237-.887-2.167-1.256-2.443-.762-.686 1.229.629.713 1.295 1.756 1.48 2.317.74 2.236-.393 4.959-2.452 5.892-1.403.635-1.971.657-3.45.131zm-93.275-72.351c-.09-.144.236-1.146.722-2.227 2.781-6.184 4.589-14.945 3.303-16.01-.597-.494-.82-.217-1.693 2.108-1.74 4.637-4.94 7.238-9.642 7.837-1.893.24-4.999-.38-7.03-1.407-4.41-2.23-6.734-7.204-5.818-12.451 1.356-7.772 9.11-11.644 16.449-8.218 1.03.481 1.99.875 2.132.875.62 0 .154-1.185-1.088-2.766-6.359-8.094-3.684-18.079 5.496-20.518 5.678-1.508 11.9 1.3 14.329 6.466.701 1.493.776 1.973.776 4.989 0 3.275-.02 3.377-1.079 5.489-.593 1.183-1.799 2.99-2.678 4.016-.88 1.025-1.6 2.036-1.6 2.247 0 .727.818.694 2.052-.083 3.795-2.39 7.684-2.641 11.666-.753 2.431 1.153 3.952 2.558 5.109 4.719.844 1.577.995 2.17 1.1 4.334.397 8.179-5.557 13.973-13.267 12.913-3.882-.533-7.481-3.232-9.107-6.827-1.233-2.728-1.465-3.105-1.908-3.105-1.5 0 .998 12.033 3.523 16.971.31.607.487 1.23.391 1.383-.22.357-11.917.374-12.138.017zm-.162-92.93c0-.095.58-1.623 1.288-3.394 1.753-4.387 2.656-7.646 3.075-11.095.384-3.159.288-3.825-.55-3.825-.42 0-.732.498-1.316 2.094-2.227 6.089-7.856 9.15-13.924 7.573-4.985-1.295-8.349-5.11-8.753-9.93-.455-5.407 2.022-10.014 6.508-12.104 1.463-.682 2.01-.772 4.696-.775 2.832-.002 3.177.062 5.028.937 3.313 1.565 3.594 1.16 1.296-1.863-3.812-5.015-4.48-10.488-1.832-14.997 2.401-4.087 7.675-6.45 12.52-5.61 5.845 1.014 9.83 5.223 10.15 10.72.226 3.913-.93 7.011-3.886 10.417-1.493 1.72-1.967 2.85-1.197 2.85.2 0 1.436-.544 2.748-1.208 2.1-1.062 2.674-1.222 4.778-1.33 3.814-.196 7.021 1.137 9.608 3.994 1.515 1.673 2.264 3.503 2.42 5.917.561 8.635-6.52 15.033-14.406 13.016-3.876-.99-6.491-3.272-8.271-7.216-.766-1.696-1.278-2.486-1.61-2.486-.752 0-.812.54-.38 3.44.722 4.845 2.395 10.683 3.916 13.664.3.59.546 1.142.546 1.228 0 .086-2.801.156-6.225.156-3.424 0-6.226-.078-6.226-.173zM15.15 81.967c1.543-3.591 2.248-5.574 2.302-6.477.096-1.602-.526-1.41-1.465.451-.919 1.822-2.165 2.632-4.053 2.632-2.615 0-4.109-1.639-4.19-4.599-.053-1.892.369-2.748 1.924-3.905 1.186-.883 3.413-.79 5.125.214.73.428 1.415.779 1.52.779.44 0 .133-.736-.77-1.848-1.26-1.553-1.387-1.784-1.67-3.025-.348-1.518.189-3.157 1.444-4.409 3.342-3.334 8.72.083 7.532 4.787-.178.706-.766 1.8-1.307 2.43-.918 1.07-1.234 1.776-.795 1.776.104 0 .889-.342 1.744-.76 2.584-1.26 4.847-.601 5.904 1.721.67 1.473.705 2.759.111 4.176-.966 2.308-2.912 3.464-4.906 2.915-1.359-.374-2.336-1.262-3.274-2.977-2.091-3.818-2.018-.557.134 5.975.15.458-.097.505-2.65.505-2.141 0-2.778-.086-2.66-.361zm-.018-27.389c-1.779-.702-4.286-2.885-5.22-4.544l-.655-1.167.767-.602c1.043-.819 1.277-.754 2.285.63 1.894 2.602 4.528 3.9 7.199 3.547 3.197-.423 5.458-2.455 6.416-5.767 1.796-6.203-4.027-11.246-9.464-8.196-.874.49-1.259.568-1.635.333-1.084-.678-.704-1.381 3.145-5.826 2.494-2.88 3.749-4.546 3.638-4.833-.142-.37-.84-.426-4.446-.358l-4.277.08-.144 1.877-.145 1.878-1.376.088-1.375.088V25.13h8.366c7.362 0 8.388.055 8.542.457.345.897.153 1.288-1.634 3.333-3.168 3.625-4.332 5.168-4.185 5.55.079.203.947.593 1.93.866 2.223.617 4.273 2.414 5.258 4.61.874 1.95.95 6.437.149 8.791-.68 1.994-2.598 4.078-4.87 5.288-1.594.85-2.144.986-4.29 1.063-1.96.07-2.77-.033-3.98-.51z" fill="#2f2f2f"/><path d="M0 157.44V0l108.88.002 108.88.002v314.88H0v-157.44zm212.68 156.53c1.374-.754 2.986-2.47 3.769-4.01l.72-1.416-.004-150.88-.003-150.88-.677-1.444c-.756-1.613-2.89-3.73-4.392-4.356-.848-.353-15.458-.41-103.43-.408L6.223.579l-1.48.847C3.118 2.355 2.01 3.524 1.14 5.222.583 6.315.576 8.132.576 157.582c0 149.45.007 151.26.565 152.36 1.18 2.309 3.108 4.028 4.912 4.382.57.112 47.1.185 103.4.163 94.539-.037 102.43-.076 103.23-.517zm-26.21-22.27c0-.753.39-1.367 1.964-3.105 4.41-4.869 4.676-5.548 2.364-6.043-1.91-.408-2.794-.892-4.098-2.239-2.053-2.121-2.802-5.012-2.265-8.744.383-2.653 1.198-4.33 2.84-5.84 2.09-1.922 4.11-2.7 7.012-2.7 2.11 0 2.697.116 4.113.809 1.635.801 3.73 2.805 4.564 4.368.398.745.38.826-.29 1.335l-.714.542-1.553-1.732c-1.804-2.013-3.279-2.854-5.382-3.07-4.488-.463-8.098 2.764-8.486 7.585-.456 5.672 4.633 9.283 9.74 6.91 1.608-.746 2.351-.632 2.351.36 0 .233-1.66 2.308-3.691 4.61-4.076 4.622-4.309 4.938-3.917 5.329.15.15 2.246.233 4.735.188l4.466-.08.076-1.3c.145-2.457.251-2.644 1.454-2.544l1.076.089.082 3.105.083 3.106h-16.525v-.939zm-83.84-13.802c-3.57-1.13-6.581-4.102-7.561-7.465-.32-1.1-.422-2.358-.34-4.225.1-2.274.252-2.934 1.048-4.547.512-1.038 1.712-2.818 2.667-3.955 2.833-3.375 2.283-4.203-1.486-2.236-4.856 2.534-9.67 1.93-13.561-1.703-2.16-2.015-3-3.834-3.144-6.8-.47-9.75 8.479-15.85 16.81-11.458 2.305 1.215 4.107 3.245 5.445 6.132 1.21 2.613 1.416 2.856 2.172 2.566.43-.164.477-.477.34-2.24-.337-4.337-2.19-11.382-3.86-14.677-.38-.75-.69-1.432-.69-1.517 0-.085 2.67-.154 5.935-.154 3.265 0 5.936.114 5.936.253s-.323.981-.717 1.872c-2.147 4.842-3.556 10.228-3.7 14.134-.053 1.485.034 2.026.364 2.234.85.538.96.397 2.618-3.362 2.258-5.117 7.609-7.727 13.011-6.345 3.538.904 6.136 2.92 7.605 5.9.9 1.825.944 2.07.944 5.241 0 3.123-.055 3.443-.896 5.205-1.625 3.405-4.36 5.433-8.254 6.117-2.314.407-4.873-.029-7.276-1.24-2.781-1.4-3.39-.549-1.36 1.902 4.414 5.329 5.006 11.848 1.496 16.451-2.917 3.825-8.621 5.474-13.545 3.916zm91.223-20.136c-1.818-.454-3.107-2.287-3.107-4.417 0-1.545.333-2.296 1.694-3.815.577-.643.897-1.253.796-1.516-.23-.6-.528-.56-2.329.32-2.096 1.023-3.622.846-4.922-.57-2.038-2.218-1.324-6.175 1.364-7.562 2.008-1.036 4.073-.078 5.538 2.569.538.973 1.172 1.77 1.407 1.77.713 0 .472-3.382-.414-5.813-.413-1.131-.75-2.138-.75-2.238 0-.1 1.107-.182 2.46-.182 1.354 0 2.462.101 2.462.225s-.47 1.327-1.044 2.672c-1.81 4.245-1.339 7.216.599 3.775 1.182-2.1 2.097-2.739 3.92-2.739 2.474 0 4.052 1.773 4.053 4.555 0 1.846-.809 3.154-2.328 3.76-1.627.65-2.303.584-4.187-.404-.908-.477-1.833-.867-2.056-.867-.617 0-.483.997.218 1.616.342.303.994 1.129 1.448 1.835 2.364 3.682-.647 8.069-4.822 7.026zm-93.383-72.427c0-.072.588-1.562 1.306-3.311 2.953-7.195 4.204-15.335 2.355-15.335-.588 0-.928.513-1.595 2.411-1.216 3.458-3.08 5.56-6.192 6.981-4.837 2.21-11.216.397-14.253-4.048-1.428-2.09-2-4.36-1.813-7.207.222-3.408 1.075-5.405 3.227-7.551 2.35-2.344 4.233-3.092 7.844-3.118 2.436-.017 2.759.054 4.968 1.09 3.4 1.596 3.952.928 1.66-2.013-2.657-3.41-3.768-6.633-3.502-10.158.459-6.07 5.417-10.475 11.79-10.475 6.069 0 10.83 3.821 11.866 9.524.727 3.998-.537 7.657-4.039 11.693-1.282 1.479-1.663 2.385-1.197 2.85.236.235 1.064-.062 3.101-1.112 2.703-1.393 2.849-1.432 5.282-1.432 3.06 0 4.896.582 7.22 2.29 2.886 2.118 4.252 4.904 4.189 8.541-.095 5.432-3.073 9.861-7.711 11.47-2.138.74-5.627.66-7.793-.18-3.123-1.211-5.643-3.749-6.906-6.955-.345-.874-.868-1.846-1.162-2.159-.502-.532-.566-.538-1.022-.082-.442.44-.453.746-.118 3.312.64 4.91 1.868 9.145 4.274 14.743.12.283-1.15.362-5.812.362-3.282 0-5.967-.06-5.967-.131zm0-93.018c0-.072.6-1.594 1.335-3.383 1.567-3.815 2.534-7.428 2.986-11.153.366-3.013.142-3.92-.929-3.767-.48.07-.795.557-1.375 2.128-1.426 3.86-3.477 6.036-6.835 7.252-6.158 2.23-13.406-1.29-15.037-7.301-.64-2.359-.452-5.972.43-8.258.88-2.284 2.81-4.331 5.177-5.494 1.827-.897 2.1-.947 5.12-.947 3.057 0 3.273.04 5.118.98 3.182 1.62 3.695.818 1.395-2.175-2.704-3.52-3.605-6.1-3.408-9.756.3-5.564 4.127-9.663 9.948-10.658 4.979-.851 10.37 1.828 12.664 6.293.769 1.496.91 2.121 1.013 4.483.099 2.265.01 3.066-.505 4.59-.638 1.884-2.324 4.627-3.482 5.664-.844.756-1.536 2.114-1.338 2.627.236.615.982.493 2.459-.403 2.707-1.642 5.19-2.185 7.995-1.75 3.83.595 7.566 3.456 8.814 6.75.566 1.495.636 2.107.513 4.476-.164 3.135-.652 4.705-2.133 6.863-4.247 6.19-13.659 6.206-18.48.032-.556-.712-1.38-2.197-1.833-3.3-.623-1.52-.975-2.028-1.454-2.098-.927-.136-1.066.576-.69 3.545.463 3.66 1.802 8.754 3.175 12.078l1.16 2.812h-5.901c-3.246 0-5.901-.059-5.901-.13zm-84.151-12.5c1.644-3.854 1.941-6.008.8-5.788-.258.05-.752.684-1.098 1.412-.937 1.969-2.143 2.86-3.873 2.86-2.832 0-4.178-1.456-4.185-4.526-.004-1.505.108-1.902.72-2.556 1.697-1.814 3.444-2.025 5.935-.718.908.476 1.769.866 1.912.866.617 0 .173-1.22-.889-2.444-1.334-1.538-1.902-3.14-1.628-4.597.225-1.194 1.331-2.617 2.507-3.224 2.496-1.287 5.78.538 6.218 3.456.247 1.644-.215 3.018-1.476 4.392-1.693 1.843-1.098 2.647 1.052 1.421 3.204-1.827 6.348-.045 6.348 3.596 0 1.56-.59 2.893-1.691 3.817-2.412 2.024-5.222.937-6.746-2.608-.387-.903-.679-1.223-1.045-1.148-.412.083-.5.386-.47 1.591.032 1.24.73 4.133 1.446 5.994.145.377-.2.443-2.31.443h-2.482l.955-2.239zm-.399-25.18c-2.11-.68-4.129-2.233-5.517-4.246-.468-.679-.851-1.306-.851-1.393 0-.087.33-.373.733-.637.729-.476.741-.47 2.318 1.268 2.01 2.217 3.625 3.026 6.04 3.026 3.205 0 5.667-1.61 7.041-4.604.845-1.841.952-4.905.233-6.624-1.5-3.58-5.79-5.07-9.304-3.232-1.522.796-2.14.7-2.138-.33 0-.247 1.694-2.42 3.764-4.83s3.764-4.573 3.764-4.808c0-.234-.206-.505-.458-.602-.777-.297-7.944-.193-8.538.124-.458.245-.56.615-.56 2.039v1.74l-1.23-.09-1.231-.088-.083-2.961-.082-2.961H26.636v.73c0 .504-.733 1.558-2.359 3.395-2.786 3.147-3.847 4.668-3.636 5.215.085.22.698.487 1.364.593 1.78.284 3.25 1.136 4.601 2.668 1.67 1.892 2.181 3.78 1.972 7.275-.196 3.292-1.036 5.244-2.997 6.966-2.14 1.88-3.638 2.467-6.474 2.538-1.354.035-2.788-.042-3.187-.171z" fill="#010101"/></svg>