<svg xmlns="http://www.w3.org/2000/svg" height="335.872" width="232.277" viewBox="0 0 217.76 314.88008"><path d="M0 157.44V0h217.76v314.88H0V157.44z" fill="#fdfdfd"/><path d="M0 157.44V0h217.76v314.88H0V157.44zm211.93 155.67c2.05-1.022 3.511-2.747 4.133-4.878.311-1.064.38-28.364.38-150.94V7.652l-.75-1.588c-.907-1.917-2.274-3.328-4.028-4.153l-1.303-.614-101.06-.075c-94.62-.07-101.16-.044-102.65.419-2.131.66-4.31 2.829-5.007 4.986-.463 1.43-.494 10.917-.494 150.93 0 135.43.043 149.55.458 150.95.577 1.939 2.85 4.323 4.762 4.996 1.17.412 11.078.459 102.52.48l101.23.022 1.805-.9zM5.35 299.56c-.236-.381.11-.922.454-.71.352.217.35.999-.003.999-.15 0-.353-.13-.451-.289zm186.4-5.244c-.273-.273-.36-2.688-.36-9.98v-9.62h-1.535c-.844 0-1.691-.155-1.883-.346-.45-.45-.45-2.901 0-3.351.192-.19 1.039-.347 1.883-.347h1.534v-1.733c0-1.66-.03-1.733-.73-1.733-.89 0-1.42-1.133-1.164-2.493.215-1.145.607-1.254 4.517-1.259 3.78-.005 4.11.176 3.983 2.173-.09 1.43-.094 1.435-1.177 1.524l-1.085.09v3.431h5.905c6.631 0 6.256-.136 6.256 2.27 0 1.284-.345 1.873-6.732 11.458l-6.732 10.104-1.16.086c-.651.047-1.318-.073-1.52-.275zm10.643-19.451c0-.082-1.498-.148-3.33-.148h-3.33v10.252l3.33-4.978c1.831-2.738 3.33-5.045 3.33-5.126zm-144.13 5.207c-7.807-1.758-12.024-9.456-9.265-16.91.67-1.81 2.136-4.204 3.093-5.052 1.507-1.336 1.159-1.524-.915-.492-6.791 3.38-15.405-.55-17.21-7.85-.837-3.38.207-8.058 2.46-11.033 2.52-3.325 6.035-4.907 10.44-4.697 2.252.107 2.857.258 4.73 1.181 2.654 1.309 4.824 3.51 6.06 6.145.489 1.042.93 1.853.98 1.802.051-.05-.161-1.584-.471-3.408-.66-3.887-1.951-8.23-3.336-11.23-.542-1.173-.985-2.31-.985-2.527 0-.32 1.305-.393 7.077-.393 4.38 0 7.145.11 7.255.288.098.158-.335 1.425-.961 2.816-2.053 4.556-3.836 11.14-3.806 14.05.008.756.154.56.907-1.218 1.205-2.845 3.411-5.223 5.98-6.446 2.622-1.249 6.268-1.479 9.226-.582 6.129 1.857 9.61 7.616 8.517 14.09-1.424 8.44-9.36 12.402-17.833 8.902-.468-.193-.41-.023.308.903 4.425 5.704 4.683 12.415.674 17.494-2.64 3.345-8.37 5.193-12.924 4.168zm94.321-.014c-2.963-.666-5.252-1.942-7.061-3.936-4.537-5.003-4.184-12.58.846-18.133.589-.65 1.005-1.182.924-1.182-.08 0-1.034.414-2.12.921-3.969 1.853-8.868 1.342-12.462-1.3-3.3-2.427-4.722-5.183-4.733-9.174-.015-5.592 2.598-10.045 7.162-12.202 1.83-.864 2.154-.922 5.152-.922 3.123 0 3.255.026 5.429 1.098 2.807 1.384 4.82 3.382 6.146 6.103 1.196 2.451 1.233 2.078.267-2.688-.846-4.173-2.03-7.897-3.326-10.458-.493-.974-.826-1.952-.74-2.174.126-.33 1.423-.403 7.096-.403 4.47 0 7.007.106 7.126.299.102.164-.471 1.85-1.274 3.747-1.642 3.878-2.755 7.72-3.205 11.069-.168 1.242-.304 2.412-.304 2.6.001.187.58-.839 1.286-2.28 1.518-3.095 3.049-4.651 5.9-6 1.824-.86 2.126-.913 5.271-.913 3.176 0 3.428.045 5.239.934 4.72 2.319 7.21 6.185 7.202 11.18-.01 6.044-3.374 10.69-8.802 12.155-2.446.66-5.827.491-7.816-.391-.782-.347-1.467-.584-1.525-.527-.057.057.472.96 1.175 2.007 3.768 5.606 3.689 12.043-.204 16.543-2.917 3.371-8.152 5.038-12.65 4.027zm41.708-20.847c-1.212-.625-1.736-1.113-2.244-2.089-.78-1.498-.872-3.588-.228-5.126.239-.57.434-1.057.434-1.08 0-.023-.837-.04-1.86-.037-1.432.004-2.044-.131-2.66-.59-1.245-.926-1.82-1.875-2.127-3.508-.73-3.883 2.187-7.404 5.697-6.88.96.144 1.635.502 2.574 1.365 1.498 1.379 1.58 1.118.548-1.738-.846-2.339-.887-2.818-.266-3.056.59-.226 5.278-.221 6.13.007.844.225.823.509-.218 2.95-.477 1.12-.868 2.112-.868 2.205 0 .093.378-.11.84-.452 2.25-1.659 5.623-1.074 7.385 1.28.838 1.12 1.022 4.555.314 5.866-1.057 1.958-3.927 3.153-5.913 2.463-.489-.17-.889-.279-.889-.241 0 .038.26.578.58 1.202 1.783 3.49-.485 7.813-4.277 8.152-1.093.098-1.69-.043-2.952-.693zM54.052 92.53c-.365-.365-.191-1.274.507-2.649 1.833-3.61 3.948-11.31 3.922-14.285l-.01-1.217-.556 1.541c-1.23 3.409-3.363 5.853-6.266 7.18-8.783 4.011-18.849-2.788-17.928-12.11.64-6.48 4.437-10.62 10.532-11.482 2.308-.326 5.233.093 6.999 1.004.649.335.85.363.678.094-.134-.21-.756-1.16-1.382-2.112-3.258-4.948-3.45-10.97-.488-15.264 2.451-3.555 6.888-5.614 11.457-5.317 11.304.734 16.249 13.177 8.672 21.82-.7.798-1.273 1.517-1.273 1.598 0 .081.749-.226 1.665-.683 8.36-4.166 18.465 2.319 17.627 11.312-.652 6.995-4.984 11.702-11.311 12.291-5.086.474-10.228-2.504-12.503-7.24-.87-1.811-.98-1.935-.98-1.112 0 1.356 1.335 7.434 2.17 9.885a51.088 51.088 0 0 0 1.63 4.08c.498 1.08.829 2.165.734 2.41-.148.387-1.096.448-6.937.448-3.721 0-6.853-.086-6.959-.192zm94.021-.236c-.09-.236.42-1.828 1.135-3.539 1.376-3.292 2.266-5.936 2.8-8.31.472-2.107.808-5.633.536-5.633-.129 0-.234.199-.234.442 0 .871-1.809 3.992-3.13 5.402-2.567 2.737-6.826 4.134-10.628 3.484-4.161-.711-7.842-3.355-9.569-6.872-.803-1.637-.85-1.935-.85-5.345 0-3.501.029-3.674.982-5.702 2.768-5.892 9.84-8.494 15.884-5.847.677.297 1.23.5 1.23.45 0-.05-.573-.944-1.275-1.987-1.862-2.772-2.552-4.779-2.71-7.888-.165-3.247.321-5.11 1.981-7.59 4.493-6.712 14.81-7.395 20.473-1.356 2.201 2.347 2.991 4.268 3.18 7.729.214 3.91-.955 6.963-4.158 10.857l-.775.942 1.86-.869c2.555-1.192 4.742-1.56 7.1-1.194 4.087.635 7.733 3.189 9.413 6.594 2.24 4.54.875 11.366-2.995 14.977-6.28 5.862-16.76 3.396-20.11-4.731-.88-2.135-.907-1.2-.087 3.039.733 3.79 1.99 7.789 3.317 10.551.744 1.55.91 2.153.67 2.441-.497.598-13.809.555-14.04-.046zm-132.33-7.52c-.096-.249.239-1.373.744-2.499.504-1.126.856-2.108.78-2.182-.074-.075-.513.142-.974.482-.512.378-1.452.677-2.412.769-3.294.313-5.482-1.893-5.482-5.528 0-2.055.646-3.284 2.324-4.42.862-.585 1.282-.667 2.934-.577l1.927.105-.582-1.14c-.86-1.68-.646-4.346.464-5.799 1.189-1.555 2.367-2.174 4.135-2.176 2.57-.002 4.055.89 5.046 3.032.636 1.376.692 3.755.112 4.767-.679 1.185-.548 1.306 1.3 1.202 1.393-.078 1.937.027 2.76.535 2.723 1.679 3.037 6.247.612 8.907-1.94 2.127-5.368 1.963-7.325-.351l-.765-.905.204 1.095c.113.603.464 1.7.782 2.438 1.04 2.421.925 2.521-3.002 2.615-2.875.07-3.435.011-3.582-.37zm4.15-27.195c-.11-.11-.2-.88-.2-1.71 0-1.603.223-1.86 1.615-1.86.656 0 .7-.102.7-1.59v-1.588h-5.733c-4.073 0-5.834-.1-6.08-.347-.192-.19-.345-1.068-.342-1.95l.005-1.603 6.66-10.038 6.659-10.038h1.288c.977 0 1.36.135 1.587.559.19.352.3 3.989.3 9.822 0 7.202.08 9.269.362 9.291.2.016.912.055 1.584.088.672.032 1.298.135 1.39.227.27.27.308 3.338.044 3.602-.132.132-.979.306-1.882.386l-1.643.146-.085 1.453c-.083 1.42-.064 1.46.869 1.734.929.272.954.32.954 1.868v1.59l-3.926.08c-2.159.043-4.016-.01-4.126-.121zm1.99-11.15c.077-.076.104-2.334.06-5.018l-.08-4.88-3.29 4.908c-3.178 4.738-3.267 4.914-2.606 5.117.718.22 5.676.114 5.917-.126z" fill="#d3d3d3"/><path d="M0 157.44V0h217.76v314.88H0V157.44zm210.44 156.59c2.992-1.09 4.353-2.303 5.554-4.946l.588-1.292.006-150.24.006-150.24-.886-1.768c-.929-1.854-2.302-3.164-4.228-4.033-1.049-.473-6.88-.502-102.6-.502H7.39l-1.514.683c-1.863.84-3.574 2.642-4.305 4.534-.54 1.397-.552 4.595-.552 151.64v150.22l.685 1.375c.94 1.89 3.157 3.807 5.192 4.495 1.619.546 3.666.558 101.84.593 97.891.036 100.23.024 101.7-.514zM191.82 294c-.074-.199-.168-4.65-.208-9.894l-.073-9.533-1.738-.144-1.737-.145v-3.178l1.737-.144 1.738-.144v-1.878c0-1.783-.037-1.883-.724-1.979-.398-.056-.82-.25-.937-.433-.335-.524-.256-2.06.126-2.441.403-.402 6.803-.486 7.417-.097.246.156.349.69.29 1.512-.087 1.21-.14 1.279-1.105 1.416l-1.013.145v3.755l5.936.144 5.936.145.08 1.589.08 1.588-6.654 10.038-6.654 10.038h-1.181c-.68 0-1.238-.153-1.316-.36zm7.388-13.788c1.913-2.857 3.479-5.33 3.479-5.497 0-.2-1.21-.276-3.547-.223l-3.547.081-.08 5.417c-.042 2.979-.012 5.416.07 5.416.08 0 1.712-2.337 3.625-5.194zm-140.14-.19c-1.399-.222-4.21-1.338-5.373-2.132-6.47-4.422-7.09-12.953-1.43-19.61.87-1.022 1.521-1.919 1.447-1.993-.074-.073-1.12.366-2.325.976-1.938.981-2.487 1.124-4.74 1.231-3.185.152-5.097-.36-7.6-2.04-3.568-2.391-5.419-6.093-5.075-10.147.437-5.142 2.94-9.037 7.133-11.093 1.464-.718 1.893-.786 4.948-.786 3.283 0 3.386.02 5.547 1.086 2.792 1.376 4.685 3.38 6.044 6.395.544 1.207 1.088 2.196 1.207 2.196.3 0 .292-.082-.366-3.943-.738-4.332-1.717-7.748-3.228-11.262-.966-2.248-1.114-2.814-.788-3.02.22-.14 3.219-.256 6.663-.258 4.92-.003 6.332.08 6.588.387.25.3.088.905-.685 2.574-1.965 4.242-3.347 9.188-3.794 13.572-.224 2.196.187 2.663.762.867 2.306-7.2 9.38-10.62 16.411-7.934 1.847.706 4.088 2.311 5.131 3.676 3.79 4.956 3.126 12.692-1.446 16.86-2.367 2.159-4.177 2.781-8.092 2.781-2.873 0-3.352-.078-4.894-.799-.94-.439-1.766-.742-1.835-.673-.069.07.404.794 1.052 1.612 2.441 3.081 3.688 6.805 3.425 10.228-.235 3.062-1.117 5.088-3.168 7.274-2.973 3.171-7.259 4.65-11.519 3.974zm93.133-.265c-6.52-1.574-10.548-7.49-9.464-13.899.45-2.661 1.558-4.95 3.596-7.423.903-1.096 1.583-2.05 1.513-2.12-.07-.071-1.14.37-2.377.981-2.028 1-2.509 1.119-4.872 1.2-3.07.105-5.181-.486-7.573-2.123-3.72-2.545-5.34-6.273-4.752-10.944.575-4.577 3.14-8.309 6.95-10.11 1.592-.752 2.297-.905 4.549-.99 4.124-.154 6.952 1.008 9.77 4.013 1.232 1.315 3.055 4.538 3.056 5.403 0 .199.147.362.327.362.394 0 .209-1.713-.653-6.044-.735-3.691-1.686-6.678-3.073-9.649-.88-1.885-.986-2.303-.638-2.523.55-.347 12.744-.342 13.295.005.366.23.33.485-.25 1.8-2.338 5.3-3.564 9.368-4.073 13.508-.319 2.592-.018 3.743.564 2.155.79-2.16 1.037-2.674 1.967-4.096 4.9-7.5 17.083-6.452 21.057 1.81 1.164 2.42 1.363 6.401.468 9.343-1.114 3.658-4.157 6.684-7.78 7.734-2.48.72-6.39.451-8.56-.587-.927-.443-1.738-.752-1.803-.686-.066.065.412.824 1.062 1.687 2.572 3.415 3.562 6.363 3.385 10.073-.098 2.03-.288 2.847-1.03 4.431-1.648 3.511-5.06 6.103-9.02 6.853-2.033.384-3.554.34-5.64-.164zm42.527-20.46c-1.079-.481-2.325-1.785-2.732-2.86-.566-1.494-.377-3.641.445-5.04l.753-1.282-.68.246c-.375.135-1.421.245-2.325.245-2.807 0-4.384-1.744-4.412-4.882-.02-2.23.89-3.966 2.603-4.968 2.495-1.459 4.832-.573 7.009 2.656.322.477.347.397.195-.606-.097-.635-.502-2.106-.902-3.268-.399-1.162-.654-2.3-.566-2.528.242-.629 6.205-.601 6.448.03.094.244-.283 1.447-.839 2.672-.555 1.225-1.095 2.618-1.201 3.094l-.193.867.61-.929c1.337-2.038 3.953-2.841 6.127-1.882 1.617.713 2.51 1.937 2.814 3.851.337 2.129-.04 3.397-1.38 4.646-1.36 1.269-2.81 1.624-4.635 1.137-.704-.188-1.335-.288-1.4-.222-.067.066.211.608.617 1.205.586.86.739 1.44.739 2.793 0 1.884-.402 2.875-1.64 4.043-1.473 1.39-3.654 1.783-5.455.981zM54.148 91.926c0-.279.506-1.676 1.124-3.106 2.052-4.75 3.504-10.46 3.507-13.794.002-1.441-.399-1.373-.854.144-2.7 9.009-13.416 11.833-20.429 5.384-3.727-3.427-4.658-9.834-2.144-14.75 1.543-3.017 4.828-5.375 8.387-6.019 2.867-.519 4.662-.185 8.954 1.664.262.113.172-.144-.234-.667-4.458-5.74-5.451-10.863-3.076-15.87 1.102-2.325 3.169-4.3 5.807-5.55 8.127-3.85 17.801 1.452 18.3 10.029.231 4.002-.847 7.016-3.747 10.47-.94 1.118-1.656 2.085-1.594 2.148.063.062 1.01-.353 2.106-.924 2.606-1.357 5.209-1.816 7.688-1.356 3.94.73 7.486 3.305 9.115 6.617.74 1.503.824 1.972.822 4.564-.003 3.489-.54 5.439-2.163 7.865-2.085 3.114-5.202 4.913-9.023 5.205-5.668.433-10.812-3.123-12.978-8.971-.58-1.563-.8-.48-.414 2.032.582 3.796 1.794 8.268 3.072 11.345.627 1.51 1.21 3.037 1.296 3.395l.155.65h-6.838c-6.32 0-6.839-.039-6.838-.506zm94.107.084c0-.23.514-1.584 1.141-3.006 2.041-4.628 3.492-10.26 3.492-13.555 0-1.89-.244-1.744-1.126.672-2.97 8.14-13.113 10.524-19.867 4.67-5.054-4.383-4.983-13.603.142-18.22 3.5-3.156 9.138-3.887 13.389-1.738.791.4 1.507.66 1.59.577.082-.082-.33-.708-.918-1.391-1.617-1.88-3.298-5.522-3.615-7.833-1.096-7.984 5.024-14.438 13.272-13.997 4.802.257 8.843 2.805 10.809 6.814.91 1.855.947 2.066.947 5.412 0 3.433-.015 3.511-1.07 5.633-.589 1.183-1.729 2.926-2.534 3.872-1.326 1.559-1.823 2.404-1.246 2.12l2.344-1.162c2.553-1.266 4.65-1.59 7.228-1.116 3.78.695 7.264 3.203 8.913 6.416.96 1.874 1.275 5.435.706 8.017-1.842 8.365-10.477 12.278-18.06 8.185-2.5-1.351-4.485-3.932-6.151-8.003-.53-1.293-.435 1.393.158 4.483.834 4.352 1.87 7.786 3.212 10.642.625 1.33 1.065 2.532.978 2.673-.088.141-3.213.256-6.947.256-5.747 0-6.787-.064-6.787-.42zm-132.33-7.46c0-.203.435-1.405.967-2.672 1.442-3.435 1.524-3.944.416-2.603-2.823 3.416-7.936 2.024-8.643-2.353-.451-2.795.961-5.187 3.46-5.858.983-.264 1.521-.246 2.661.087.786.23 1.429.383 1.429.341 0-.042-.344-.69-.765-1.442-2.437-4.349 1.136-9.18 5.79-7.831 1.613.468 2.418 1.152 3.224 2.742.712 1.402.506 4.203-.402 5.475l-.675.946 1.12-.235c1.72-.36 3.294-.203 4.127.413 2.57 1.898 3.001 5.408.995 8.089-2.035 2.718-6.023 2.4-7.9-.631-.351-.567-.7-1.03-.773-1.03-.245 0 .25 2.138.945 4.078 1.071 2.994 1.2 2.854-2.646 2.854-2.513 0-3.33-.09-3.33-.37zm3.896-28.054c-.253-1.347.236-2.14 1.39-2.25l.94-.09v-3.468l-5.936-.144-5.936-.144-.088-1.685-.087-1.685 6.416-9.726c3.529-5.35 6.623-9.888 6.875-10.087.63-.496 1.663-.453 2.21.093.395.394.455 1.704.455 9.966v9.512h1.427c1.74 0 2.337.508 2.337 1.985 0 1.444-.411 1.77-2.23 1.77H26.06v1.878c0 1.804.028 1.878.714 1.878.923 0 1.42.925 1.182 2.197l-.185.98h-7.766l-.184-.98zm2.475-15.052c0-2.939-.11-5.344-.244-5.344-.287 0-6.995 9.972-6.995 10.398 0 .18 1.388.29 3.62.29h3.619v-5.344z" fill="#b1b1b1"/><path d="M0 157.44V0h217.76v314.88H0V157.44zm211.69 156.25c1.97-.922 3.429-2.328 4.35-4.195l.692-1.403v-301l-.681-1.3c-1.037-1.976-2.846-3.68-4.605-4.336-1.527-.57-2.408-.575-102.8-.572L7.386.887 5.94 1.56c-2.114.985-3.186 2.01-4.182 4L.87 7.328v150.13c0 133.57.049 150.27.44 151.38.86 2.432 2.833 4.325 5.448 5.228 1.427.493 6.142.513 102.41.453l100.91-.063 1.617-.757zm-19.353-19.51c-.279-.113-.363-2.25-.366-9.294-.002-5.032-.082-9.44-.178-9.798-.15-.555-.372-.65-1.517-.654-1.881-.006-2.117-.23-2.01-1.902l.09-1.416 1.663-.087c1.887-.098 2.07-.355 1.903-2.68-.084-1.164-.167-1.287-.96-1.423-.814-.14-.869-.23-.869-1.446v-1.297h7.529l.092.958c.115 1.2-.312 1.728-1.49 1.842l-.919.089v3.755l5.857.078c5.634.076 5.869.102 6.186.692.785 1.465.238 2.534-6.418 12.539-3.546 5.329-6.677 9.812-6.958 9.962-.546.291-1.05.317-1.635.082zm6.89-13.694c1.921-2.87 3.567-5.409 3.657-5.642.14-.361-.403-.412-3.708-.342l-3.871.08-.08 5.19c-.074 4.868-.01 5.932.357 5.932.082 0 1.722-2.348 3.644-5.218zm-141.64-.97c-3.49-1-6.452-3.45-7.9-6.53-.745-1.585-.9-2.305-.994-4.622-.164-4.069.866-6.774 3.903-10.25 1.107-1.267 1.661-2.399 1.04-2.123-.12.053-1.064.52-2.1 1.039-5.139 2.575-10.737 1.604-14.571-2.527-2.054-2.213-2.802-4.13-2.802-7.177 0-3.974 1.08-6.885 3.502-9.44 5.944-6.27 16.28-4.044 19.955 4.298.534 1.212 1.078 2.203 1.208 2.203 1.115 0-1.348-10.968-3.56-15.856-.46-1.015-.836-2.022-.836-2.238 0-.32 1.234-.394 6.66-.394 7.517 0 7.176-.13 5.96 2.264-.898 1.769-2.645 6.775-3.228 9.249-.645 2.74-.911 7.092-.424 6.93.204-.068.656-.908 1.004-1.867.872-2.402 1.663-3.59 3.507-5.272 5.548-5.059 15.346-3.191 18.678 3.56 2.31 4.682 1.384 10.768-2.19 14.385-3.427 3.467-9.069 4.322-13.679 2.072-1.78-.87-2.188-.747-1.293.388 2.942 3.731 4.162 6.718 4.162 10.19 0 5.2-2.856 9.463-7.574 11.302-1.978.771-6.427.991-8.429.417zm93.79-.155c-2.374-.757-4.002-1.796-5.674-3.621-1.858-2.028-2.7-4.155-2.886-7.281-.228-3.869 1.062-7.149 4.169-10.598 2.051-2.278 1.796-2.406-1.487-.75-1.81.913-2.76 1.205-4.343 1.335-6.483.534-12.387-4.202-12.814-10.277-.389-5.524 2.237-10.405 6.809-12.659 2.113-1.041 2.338-1.09 5.12-1.09 2.682 0 3.067.074 4.894.938 1.09.515 2.484 1.332 3.096 1.816 1.336 1.056 3.326 3.944 3.796 5.511.365 1.214 1.091 2.088 1.144 1.376.23-3.11-1.99-12.007-3.971-15.914-1.205-2.375-1.543-2.248 5.969-2.248 5.403 0 6.66.074 6.66.39 0 .215-.58 1.772-1.289 3.459-2.038 4.853-3.344 10.079-3.344 13.377 0 1.427.44 1.656.896.468.168-.437.764-1.736 1.324-2.887 2.904-5.961 10.104-8.144 16.361-4.96 1.578.803 3.808 2.913 4.72 4.464 2.929 4.986 1.5 12.594-2.984 15.887-2.267 1.665-4.145 2.25-7.287 2.267-2.533.015-2.918-.062-4.854-.958-1.157-.536-2.173-.906-2.257-.821-.085.084.543 1.123 1.395 2.307 1.903 2.646 2.7 4.447 3.137 7.087.786 4.748-1.486 9.799-5.45 12.117-3.1 1.813-7.521 2.328-10.851 1.266zm44.134-20.014c-2.176-.465-3.82-2.71-3.826-5.22-.002-1.104.742-2.784 1.68-3.79.642-.69.677-.799.2-.61-3.667 1.454-6.15.843-7.275-1.792-.788-1.843-.32-4.798.988-6.24 2.15-2.37 5.986-1.686 7.604 1.357 1.421 2.672 1.414 1.05-.015-3.287-.444-1.35-.748-2.553-.676-2.672.183-.299 6.11-.275 6.295.025.082.132-.215 1.01-.66 1.95-1.69 3.565-2.387 6.86-.884 4.174.997-1.781 1.969-2.406 3.958-2.545 1.39-.097 1.838-.003 2.683.561 2.024 1.355 2.894 4.571 1.837 6.794-1.038 2.181-4.184 3.147-6.447 1.98-.52-.268-1.006-.428-1.08-.354-.074.074.282.724.791 1.444 1.259 1.782 1.45 3.697.555 5.542-1.079 2.224-3.21 3.222-5.728 2.683zm-141.24-167.3c-.079-.206.32-1.375.886-2.598 1.999-4.316 3.506-9.897 3.683-13.638.106-2.243-.475-2.333-1.23-.191-1.629 4.611-5.048 7.5-9.647 8.15-5.33.753-10.656-2.102-12.87-6.897-1.071-2.322-1.24-6.144-.395-8.92 1.078-3.541 2.92-5.652 6.319-7.24 1.52-.711 2.008-.79 4.875-.789 2.976.001 3.314.062 5.14.92 1.075.507 1.954.801 1.954.656 0-.146-.652-1.156-1.449-2.246-2.047-2.8-2.934-5.124-3.113-8.158-.17-2.9.358-5.143 1.71-7.263 2.572-4.031 7.893-6.308 12.728-5.446 8.085 1.441 12.527 8.963 9.734 16.48-.724 1.949-1.463 3.143-3.208 5.183-1.17 1.366-1.667 2.328-1.205 2.328.077 0 .761-.377 1.52-.838 2.042-1.24 3.896-1.762 6.26-1.762 2.72 0 4.635.583 6.898 2.1 3.382 2.269 5.022 5.315 4.957 9.207-.092 5.423-2.765 9.828-7.202 11.87-1.22.56-1.905.655-4.755.655-3.144 0-3.439-.052-5.282-.922-2.724-1.288-4.617-3.262-6.048-6.31-.632-1.345-1.29-2.445-1.462-2.445-.43 0-.101 2.788.816 6.91.8 3.594 2.077 7.448 3.202 9.667.575 1.133.64 1.46.33 1.657-.213.135-3.226.247-6.695.25-4.902.002-6.339-.08-6.45-.37zm94.357.058c-.23-.23-.057-.888.634-2.402 2.184-4.78 4.441-13.977 3.825-15.58-.274-.712-.676-.38-1.085.898-2.482 7.76-9.962 10.974-17.272 7.42-3.785-1.84-6.061-5.205-6.386-9.442-.412-5.368 2.248-10.169 6.814-12.3 1.48-.691 1.995-.774 4.84-.775 2.998-.001 3.303.054 5.184.943 1.098.519 2.059.882 2.134.807.075-.074-.48-.952-1.231-1.95-3.382-4.488-4.376-8.724-3.053-13 2.917-9.42 15.841-11.573 22.144-3.688 2.79 3.49 3.202 8.978 1 13.348-.34.675-1.385 2.16-2.322 3.298-1.51 1.834-2.126 2.932-1.487 2.648.12-.053 1.253-.616 2.519-1.251 2.25-1.13 2.369-1.156 5.357-1.156 2.834 0 3.197.067 5.002.92 3.74 1.768 6.36 5.164 6.77 8.782.261 2.297-.353 5.452-1.508 7.756-2.315 4.618-7.047 7.06-12.267 6.331-4.535-.633-8.504-3.971-10.03-8.438-.271-.796-.634-1.34-.892-1.34-.355 0-.399.274-.239 1.516.657 5.098 2.33 11.196 3.973 14.474.466.93.778 1.873.693 2.094-.127.328-1.335.404-6.477.404-4.206 0-6.428-.107-6.64-.318zm-132.32-7.5c-.216-.216.017-1.056.79-2.844 1.188-2.75 1.742-4.877 1.18-4.53-.182.112-.33.39-.33.619 0 .228-.47.934-1.045 1.569-3.1 3.423-8.222 1.2-8.222-3.569 0-1.612.515-2.723 1.736-3.748 1.448-1.216 3.297-1.308 5.938-.297.564.217.566.204.063-.486-1.92-2.63-2.133-5.22-.59-7.146 1.245-1.556 2.52-2.139 4.375-2.002 1.702.125 2.737.738 3.746 2.216 1.322 1.938 1.214 4.043-.324 6.323l-.961 1.425 1.189-.539c2.538-1.15 5.053-.43 6.184 1.77 2.04 3.97-1.092 8.82-5.124 7.937-1.192-.26-2.463-1.362-3.387-2.935-.414-.706-.814-1.222-.888-1.148-.238.237.527 3.442 1.265 5.305.393.992.634 1.934.534 2.094-.243.393-5.734.38-6.129-.014zm4.008-27.387c-.239-.152-.347-.663-.29-1.368.086-1.044.167-1.137 1.107-1.27l1.013-.145.086-1.95c.047-1.072.047-1.976 0-2.007-.047-.031-2.757-.129-6.022-.217l-5.936-.16-.075-1.444c-.075-1.44-.057-1.472 6.59-11.5l6.664-10.056 1.084.09 1.084.09.145 9.821.144 9.822 1.738.144 1.737.145.088 1.517.087 1.516-1.535.004c-2.165.006-2.305.155-2.202 2.331.085 1.805.108 1.853.956 1.997.77.131.88.276.961 1.273.058.704-.05 1.215-.29 1.366-.21.133-1.815.242-3.567.242-1.751 0-3.357-.11-3.567-.242zm1.846-10.52c.078-.203.107-2.835.063-5.85l-.079-5.479-3.692 5.556c-2.03 3.056-3.692 5.689-3.692 5.85 0 .464 7.22.39 7.4-.076z" fill="#909090"/><path d="M0 157.44V0h217.76v314.88H0V157.44zm212.14 156.22c1.848-.972 3.687-3.022 4.286-4.775.413-1.209.456-15.592.456-151.45V7.315L216 5.553c-.99-1.977-2.365-3.322-4.315-4.222l-1.318-.608h-101.35c-99.198 0-101.38.011-102.79.554C4.336 2.004 2.25 3.985 1.4 5.86L.717 7.367.64 156.857c-.053 103.83.016 149.93.228 150.93.608 2.866 2.79 5.294 5.638 6.279 1.367.472 7.273.497 102.8.437l101.35-.063 1.484-.781zm-20.024-19.946c-.074-.199-.168-4.65-.208-9.894l-.073-9.533-1.738-.144-1.737-.145v-2.6l1.158-.077c2.486-.165 2.462-.142 2.462-2.375v-2.009l-.942-.243c-.86-.223-.94-.34-.94-1.38v-1.137H197.336l.088 1.227c.083 1.138.037 1.228-.627 1.228-1.48 0-1.633.216-1.633 2.31 0 1.522.102 2 .458 2.137.252.096 2.988.175 6.08.175h5.623v1.501c0 1.471-.126 1.692-6.132 10.761-3.372 5.093-6.392 9.552-6.71 9.91-.63.707-2.143.892-2.368.288zm7.215-13.224c2.008-3.023 3.652-5.691 3.652-5.93 0-.369-.58-.422-3.837-.354l-3.836.08-.079 5.85c-.045 3.37.033 5.85.185 5.85.144 0 1.906-2.473 3.915-5.496zm-140.81-.883c-1.946-.38-4.766-1.813-6.241-3.17-1.814-1.668-3.302-4.723-3.537-7.263-.357-3.853.825-7.271 3.701-10.696 1.448-1.725 2.063-2.824 1.58-2.824-.066 0-1.171.545-2.455 1.211-2.119 1.1-2.572 1.222-4.902 1.333-3.176.152-5.082-.349-7.527-1.978-3.419-2.277-5.16-5.795-4.868-9.834.403-5.568 3.495-9.848 8.231-11.394 2.447-.798 6.327-.51 8.817.652 2.721 1.272 4.612 3.24 6.048 6.299.667 1.419 1.326 2.446 1.57 2.446.539 0 .533-.147-.163-4.232-.732-4.299-1.726-7.782-3.18-11.147-.624-1.444-1.068-2.735-.985-2.867.082-.133 2.947-.242 6.367-.242 5.217 0 6.244.069 6.382.427.09.235-.376 1.681-1.035 3.215-1.989 4.625-3.718 11.748-3.44 14.169.158 1.385.843.929 1.556-1.037 1.935-5.33 6.003-8.24 11.423-8.172 4.797.06 8.962 2.701 10.957 6.946.692 1.473.77 1.964.756 4.818-.011 2.586-.134 3.48-.66 4.808-1.32 3.324-3.603 5.5-6.955 6.628-2.79.938-6.46.719-9.081-.542-1.061-.51-2.003-.928-2.093-.928-.411 0-.056.687 1.234 2.388 2.415 3.183 3.516 6.1 3.523 9.331.015 7.644-7.145 13.2-15.022 11.656zm93.717-.137c-4.756-1.15-8.054-4.422-9.076-9.004-.92-4.128.268-8.244 3.453-11.956.901-1.05 1.638-2.134 1.638-2.407 0-.274-.097-.454-.217-.401-.12.053-1.253.616-2.52 1.252-2.272 1.14-2.346 1.155-5.502 1.154-2.92 0-3.343-.071-4.863-.815-2.144-1.049-4.52-3.223-5.516-5.05-1.13-2.07-1.435-4.041-1.06-6.837 1.18-8.822 9.446-13.4 17.247-9.553 2.545 1.254 4.38 3.175 5.631 5.894 1.203 2.614 1.248 2.69 1.578 2.652.787-.092-.39-7.353-1.947-12-.479-1.43-1.258-3.365-1.73-4.3-.685-1.355-.782-1.752-.474-1.949.213-.136 3.188-.216 6.612-.177 5.335.061 6.219.133 6.177.505-.028.238-.642 1.863-1.365 3.61-2.343 5.658-3.912 13.3-2.932 14.277.368.367.477.278.871-.717 1.715-4.33 3.536-6.623 6.38-8.036 5.734-2.85 13.472-.223 16.234 5.512.663 1.38.827 2.166.928 4.452.246 5.6-2.003 9.638-6.552 11.765-1.467.686-1.984.769-4.828.769-2.999 0-3.303-.056-5.19-.947-1.102-.521-2.113-.838-2.247-.705-.134.133.359 1.014 1.094 1.958 2.711 3.48 3.722 6.407 3.538 10.246-.1 2.101-.274 2.831-1.042 4.387-2.556 5.18-8.475 7.834-14.32 6.421zm42.49-20.515c-1.975-1.028-2.75-2.368-2.75-4.755 0-1.606.227-2.18 1.513-3.817.968-1.232.822-1.326-.79-.506-2.144 1.09-4.817.52-5.9-1.259-2.522-4.139 1.14-9.566 5.375-7.966 1.166.441 2.072 1.367 2.875 2.942.385.755.781 1.372.88 1.372.37 0-.162-3.147-.887-5.241-.413-1.193-.75-2.321-.75-2.508 0-.506 5.758-.472 5.953.035.08.206-.303 1.344-.85 2.528-.546 1.184-1.146 2.722-1.332 3.417-.46 1.719.03 2.133.719.61 1.01-2.234 3.202-3.501 5.271-3.048 2.342.513 3.589 2.25 3.655 5.09.03 1.292-.1 1.874-.554 2.48-1.606 2.145-3.732 2.635-6.318 1.454-.892-.407-1.622-.622-1.622-.478 0 .145.372.69.826 1.212 1.241 1.425 1.537 2.151 1.552 3.805.015 1.624-.478 2.842-1.554 3.841-1.377 1.28-3.707 1.627-5.311.792zM54.439 91.785c.001-.199.507-1.531 1.125-2.961 2.127-4.924 3.713-11.372 3.457-14.05-.148-1.538-.811-1.166-1.55.87-.798 2.197-2.335 4.496-3.757 5.618-5.92 4.67-15.241 2.513-18.42-4.262-2.117-4.514-.988-10.797 2.521-14.023 3.572-3.284 8.9-4.042 13.304-1.892 2.504 1.222 2.737.961 1.055-1.182-1.562-1.991-2.296-3.275-2.94-5.142-2.191-6.356.32-12.456 6.288-15.276 1.849-.874 2.14-.925 5.287-.925 3.241 0 3.39.029 5.568 1.067 4.15 1.977 6.573 5.445 6.823 9.768.232 3.997-.76 6.783-3.694 10.366-.961 1.174-1.748 2.246-1.748 2.383 0 .447.86.262 1.96-.422 3.707-2.3 8.047-2.466 11.99-.46 1.832.933 4.096 3.235 5.016 5.098 1.508 3.056 1.23 7.976-.644 11.41-1.098 2.013-3.748 4.367-5.788 5.142-4.692 1.782-10.058.552-13.372-3.065-1.364-1.488-1.72-2.08-2.896-4.817-.585-1.362-1.009-1.703-1.255-1.01-.209.59.613 5.633 1.425 8.738.415 1.589 1.265 4.124 1.888 5.633.624 1.51 1.206 2.972 1.294 3.25.149.471-.284.506-6.39.506-5.046 0-6.548-.083-6.547-.362zm94.195-.145c.085-.278.746-1.935 1.468-3.683 1.714-4.148 2.786-8.308 2.995-11.627.142-2.267.101-2.672-.27-2.672-.28 0-.718.757-1.21 2.094-1.418 3.845-3.811 6.263-7.348 7.422-4.318 1.415-8.97.313-12.422-2.944-3.764-3.552-4.512-9.187-1.905-14.359 1.972-3.911 5.303-5.863 10.062-5.897 2.235-.015 2.874.097 4.488.789 3.476 1.49 3.576 1.403 1.518-1.316-7.347-9.706-1.816-21.6 9.747-20.96 4.14.229 7.449 1.968 9.607 5.051 1.595 2.277 2.091 4.197 1.955 7.567-.103 2.561-.214 3.032-1.177 4.964-.585 1.174-1.636 2.784-2.335 3.578-1.592 1.81-2.126 2.745-1.568 2.745.216 0 1.38-.509 2.584-1.13 2.625-1.357 4.734-1.7 7.412-1.208 3.698.68 6.837 2.916 8.58 6.113 1.566 2.871 1.366 7.706-.468 11.343-3.1 6.142-10.986 8.113-16.985 4.245-2.06-1.327-3.28-2.762-4.432-5.208-1.272-2.7-1.271-2.699-1.645-2.823-1.284-.427 1.084 10.712 3.29 15.474.55 1.19 1.001 2.34 1.001 2.556 0 .32-1.222.393-6.549.393-6.103 0-6.538-.035-6.394-.506zm-132.33-7.52c.084-.278.608-1.61 1.165-2.96 1.172-2.845 1.547-4.334 1.09-4.334-.17 0-.587.587-.925 1.305-.832 1.766-1.994 2.54-4.002 2.669-2.69.171-4.241-1.198-4.706-4.155-.205-1.301-.151-1.805.3-2.822 1.086-2.45 4.059-3.317 6.687-1.95.684.356 1.302.589 1.374.518.071-.072-.332-.733-.896-1.47-1.362-1.78-1.735-3.205-1.295-4.947 1.077-4.27 6.749-5.11 8.886-1.316 1.176 2.087.751 4.835-1.043 6.749-.98 1.044-.684 1.263.647.48 1.375-.81 3.796-.89 4.908-.163 1.849 1.209 2.619 3.93 1.753 6.198-1.683 4.41-6.783 4.408-8.734-.004-1.246-2.817-1.193.581.063 4.055.398 1.1.723 2.147.723 2.326 0 .222-.983.326-3.074.326-2.793 0-3.06-.046-2.921-.505zm3.787-27.705c-.263-1.045.197-1.66 1.37-1.833l.983-.144v-4.044l-5.936-.145-5.936-.144-.08-1.589-.081-1.589 6.596-9.822c5.11-7.61 6.746-9.843 7.263-9.916 1.495-.211 1.504-.149 1.504 10.24v9.642h1.557c1.853 0 2.281.384 2.154 1.93l-.091 1.103-1.738.145-1.737.144-.085 2.074c-.084 2.06-.08 2.075.695 2.167.976.116 1.415.787 1.165 1.781l-.193.767H20.283l-.193-.767zm2.432-15.1c.043-3.086-.032-5.722-.167-5.857-.285-.284-7.92 11.018-7.692 11.386.083.134 1.868.208 3.966.164l3.814-.08.079-5.613z" fill="#6e6e6e"/><path d="M0 157.44V0h217.76v314.88H0V157.44zm212.5 156.15c1.72-.95 2.892-2.217 3.877-4.19l.653-1.308V7.372l-.759-1.615c-.974-2.073-2.852-3.866-4.818-4.6-1.538-.573-2.168-.577-103.1-.503L6.803.728l-1.448.768C3.48 2.492 2.24 3.81 1.322 5.783L.583 7.372.58 157.462c-.002 139.66.031 150.19.483 151.52.676 1.983 3.266 4.548 5.188 5.138 1.257.386 13.145.43 103.06.383l101.64-.053 1.551-.857zm-20.17-19.86c-.256-.256-.347-2.87-.347-9.966v-9.62H190.4c-1.934 0-2.124-.248-1.923-2.513.019-.215.664-.38 1.693-.433l1.662-.087.23-1.589c.327-2.246.114-2.888-.954-2.888-.815 0-.863-.065-.863-1.165v-1.164l3.547.08 3.547.082v1.011c0 .91-.086 1.02-.868 1.101-1.162.12-1.593.762-1.593 2.366 0 2.315-.058 2.294 6.515 2.38l5.791.075.085 1.3c.081 1.259-.119 1.606-6.32 10.977-3.523 5.322-6.616 9.84-6.873 10.038-.59.456-1.298.462-1.746.014zm7.138-13.165c2.094-3.142 3.807-5.872 3.807-6.066 0-.263-1.04-.354-4.023-.354-3.4 0-4.05.07-4.198.457-.228.592-.222 10.175.007 11.026.096.357.27.65.387.65.117 0 1.926-2.571 4.02-5.713zm-140.23-.96c-5.294-.77-9.514-4.902-10.327-10.112-.541-3.467.822-7.765 3.372-10.633 3.127-3.517 2.88-3.974-1.07-1.973-2.353 1.192-2.503 1.227-5.174 1.218-3.239-.01-5.233-.663-7.509-2.458-2.852-2.249-4.073-4.802-4.073-8.516 0-7.604 5.366-12.969 12.486-12.482 4.642.318 8.08 2.776 10.282 7.352.832 1.73 1.454 2.68 1.753 2.68 1.264 0-1.044-10.906-3.416-16.144-.46-1.015-.836-1.958-.836-2.095 0-.137 2.882-.249 6.404-.249 5.968 0 6.393.035 6.242.506-.09.278-.762 1.963-1.495 3.743-1.84 4.47-2.788 8.292-2.85 11.486-.041 2.202.023 2.606.43 2.688.358.072.63-.365 1.095-1.756 1.652-4.953 5.264-7.874 10.153-8.211 8.026-.554 14.025 5.837 12.771 13.605-.93 5.765-4.91 9.486-10.614 9.923-2.213.17-4.678-.36-6.445-1.385-2.132-1.237-2.334-.485-.502 1.87 4.172 5.358 4.63 11.648 1.192 16.321-2.495 3.391-7.345 5.279-11.871 4.62zm95.242.131c-4.136-.755-5.816-1.467-7.832-3.32-3.233-2.974-4.438-7.9-3.037-12.42.646-2.085 1.63-3.737 3.582-6.008 2.26-2.629 1.82-2.93-1.69-1.16-2.884 1.456-5.355 1.762-8.245 1.023-7.587-1.94-10.793-9.394-7.253-16.862 3.432-7.24 13.273-8.6 18.987-2.623 1.418 1.483 1.998 2.463 3.265 5.522.18.437.546.794.812.794 1.39 0-1.11-11.74-3.505-16.453-.401-.79-.73-1.572-.73-1.737 0-.196 2.18-.298 6.37-.298 3.504 0 6.37.093 6.37.207 0 .114-.58 1.641-1.288 3.394-.708 1.753-1.612 4.31-2.008 5.683-.796 2.759-1.543 7.962-1.252 8.72.38.986 1.015.471 1.656-1.342 1.948-5.503 6.352-8.564 11.821-8.214 6.957.444 11.766 5.782 11.26 12.496-.295 3.888-1.94 7.013-4.737 8.997-2.041 1.448-3.903 1.98-6.91 1.976-2.332-.003-2.815-.102-4.593-.94-3.238-1.523-3.512-1.243-1.446 1.482 3.7 4.877 4.518 10.212 2.25 14.677-1.402 2.76-4.475 5.198-7.509 5.958-1.46.365-3.585.585-4.338.447zm40.973-20.659c-3.69-1.04-4.608-5.801-1.698-8.801 1.112-1.146.634-1.544-.796-.663-1.407.868-3.834.914-4.954.094-2.936-2.148-2.23-7.625 1.15-8.913 1.05-.4 1.505-.432 2.459-.176 1.296.348 2.887 1.893 3.52 3.416.214.515.583.937.821.937.351 0 .394-.257.227-1.372-.182-1.218-1.157-4.54-1.737-5.922-.194-.463.04-.506 2.748-.506 3.456 0 3.325-.305 1.618 3.756-1.014 2.411-1.32 4.044-.757 4.044.156 0 .617-.655 1.023-1.455.93-1.83 2.115-2.587 4.05-2.587 2.891 0 4.689 2.192 4.423 5.394-.107 1.283-.301 1.732-1.108 2.563-1.084 1.115-2.72 1.693-3.957 1.396-.443-.107-1.426-.503-2.182-.88-1.636-.815-1.74-.495-.379 1.163 1.59 1.934 2.006 3.72 1.302 5.581-.457 1.21-1.99 2.658-3.154 2.981-1.192.33-1.275.329-2.62-.05zm-140.86-167.2c-.095-.153.075-.77.379-1.372 1.048-2.077 2.592-6.302 3.197-8.748.782-3.165 1.232-7.193.877-7.855-.417-.776-1.089-.303-1.445 1.019-1.598 5.92-7.278 9.61-13.206 8.58-4.011-.697-7.192-2.967-8.839-6.31-.914-1.855-.95-2.06-.95-5.404 0-3.326.04-3.558.925-5.348 1.2-2.428 2.958-4.188 5.301-5.306 1.753-.836 2.1-.898 5.067-.898 2.999 0 3.303.056 5.19.947 1.236.584 2.107.844 2.274.678.166-.166-.3-1.01-1.217-2.203-2.582-3.36-3.496-5.817-3.496-9.395 0-6.073 3.965-10.553 10.296-11.635 4.771-.816 10.481 1.804 12.667 5.812 1.783 3.267 2.035 6.888.726 10.395-.75 2.008-1.48 3.19-3.233 5.24-1.255 1.466-1.721 2.617-1.06 2.617.157 0 .906-.377 1.665-.838 2.042-1.24 3.896-1.762 6.26-1.762 2.729 0 4.675.595 6.883 2.104 3.363 2.299 5.167 6.053 4.733 9.844-.764 6.659-4.593 10.854-10.56 11.568-4.207.503-9.121-1.908-11.425-5.606-.347-.556-.93-1.758-1.296-2.672-.502-1.252-.81-1.66-1.25-1.66-.542 0-.569.123-.384 1.805.515 4.694 2.066 10.539 3.788 14.279.525 1.14.88 2.148.79 2.239-.292.291-12.475.18-12.658-.115zm94.177.114c-.091-.09.198-.968.643-1.95 2.77-6.108 4.862-15.348 3.694-16.315-.561-.464-.893-.067-1.526 1.827-1.85 5.535-7.35 8.954-12.848 7.988-6.207-1.091-10.178-5.611-10.157-11.56.019-5.066 2.384-9.005 6.59-10.971 1.48-.693 1.99-.775 4.84-.775 2.993 0 3.306.057 5.173.94 1.093.516 2.102.938 2.244.938.528 0 .219-.693-1.076-2.412-2.745-3.642-3.743-6.55-3.513-10.23.267-4.264 2.574-7.726 6.405-9.607 5.153-2.53 11.255-1.478 15.035 2.595 1.89 2.037 2.787 4.147 3.013 7.088.279 3.638-.938 6.922-3.799 10.255-1.433 1.67-2.025 2.888-1.403 2.888.12 0 1.31-.552 2.644-1.227 2.405-1.217 2.456-1.228 5.517-1.228 2.99 0 3.162.035 5.3 1.09 6.142 3.028 8.023 9.87 4.518 16.43-4.602 8.615-17.413 7.52-21.323-1.824-.64-1.532-1.032-2.12-1.413-2.12-.451 0-.514.21-.44 1.445.239 3.946 2.273 11.534 4.01 14.96.386.76.624 1.508.53 1.661-.184.295-12.368.404-12.659.113zM16.51 84.238c0-.225.462-1.485 1.027-2.801 1.117-2.606 1.597-4.88 1.029-4.88-.187 0-.58.56-.875 1.246-1.136 2.643-3.764 3.71-6.22 2.523-1.597-.771-2.49-2.39-2.489-4.51.003-3.684 3.419-5.521 6.949-3.737.785.398 1.498.723 1.583.723.373 0 .091-.63-.675-1.507-1.417-1.624-1.855-2.756-1.715-4.442.235-2.822 2.28-4.616 5.007-4.39 1.869.154 3.208 1.058 3.935 2.655.968 2.126.567 4.148-1.227 6.186-1.098 1.247-.725 1.49 1.003.656 1.502-.726 3.43-.778 4.54-.123 2.17 1.278 2.734 5.239 1.06 7.43-1.406 1.838-3.207 2.353-5.25 1.5-.958-.399-2.76-2.492-2.76-3.207 0-.453-.823-1.145-1.07-.899-.263.263.705 4.583 1.379 6.15.309.72.489 1.427.4 1.572-.09.144-1.394.262-2.897.262-2.161 0-2.734-.085-2.734-.407zm3.966-27.22c-.111-.11-.202-.634-.202-1.164 0-.825.1-.962.7-.962 1.482 0 1.616-.207 1.616-2.487V50.27h-5.622c-3.093 0-5.83-.078-6.081-.175-.325-.124-.458-.558-.458-1.491 0-1.231.423-1.957 6.552-11.235 6.46-9.78 6.566-9.92 7.529-9.92h.976v9.62c0 7.097.091 9.71.348 9.966.19.19 1.045.347 1.898.347h1.55l-.088 1.372-.089 1.372-1.737.145-1.737.144v4.044l.954.28c.873.257.948.368.87 1.3l-.087 1.02-3.345.081c-1.84.045-3.437-.01-3.547-.12zm1.656-9.813c.397-.152.458-.96.458-6.066 0-4.524-.084-5.89-.362-5.884-.554.01-7.848 11.154-7.645 11.68.14.367.783.446 3.631.446 1.903 0 3.666-.08 3.918-.176z" fill="#4e4e4e"/><path d="M0 157.44V0h217.76v314.88H0V157.44zm212.43 156.37c1.778-.949 3.799-3.342 4.313-5.108.384-1.316.426-18.95.36-151.7l-.073-150.21-.773-1.463c-.905-1.709-2.705-3.425-4.4-4.193C210.694.61 207.846.594 108.879.59L7.098.586l-1.448.675c-2.113.985-3.185 2.01-4.182 4L.583 7.027v150.41c0 135.27.045 150.54.45 151.72.789 2.31 3.237 4.627 5.445 5.155.5.12 46.776.198 102.84.174l101.93-.044 1.19-.636zm-20.157-29.639c0-7.097-.091-9.71-.347-9.966-.192-.19-1.039-.347-1.883-.347h-1.534v-2.275l1.375-.18c.757-.1 1.571-.207 1.81-.24.342-.045.434-.516.434-2.22v-2.162l-.954-.28c-.84-.247-.945-.386-.87-1.156l.087-.875 3.402-.082 3.403-.081v1.02c0 .873-.097 1.02-.669 1.02-1.362 0-1.685.56-1.59 2.752l.087 2.015 5.936.144 5.936.145.09 1.416c.09 1.413.074 1.44-6.443 11.194-6.162 9.221-6.583 9.778-7.402 9.778h-.868v-9.62zm7.155-3.308c4.63-7.037 4.292-6.441 3.813-6.744-.63-.398-7.604-.324-8.014.086-.248.247-.348 2.024-.348 6.163 0 5.45.072 6.2.592 6.2.113 0 1.894-2.567 3.957-5.705zm-141.44-1.66c-5.283-1.487-8.585-5.298-8.968-10.353-.284-3.744.808-6.846 3.526-10.02 1.541-1.798 2.17-2.996 1.777-3.387-.1-.1-1.306.393-2.678 1.097l-2.496 1.28h-3.22c-2.891 0-3.389-.08-4.885-.78-2.216-1.035-4.654-3.375-5.603-5.376-1.92-4.048-.834-9.954 2.47-13.44 3.441-3.63 8.696-4.513 13.453-2.261 2.46 1.164 4.317 3.136 5.754 6.112 1.308 2.706 1.618 3.056 2.2 2.476.844-.841-1.309-10.63-3.403-15.476-.612-1.417-1.044-2.647-.958-2.733.086-.085 2.87-.155 6.188-.155 4.633 0 6.033.084 6.032.361 0 .199-.524 1.572-1.165 3.052-2.236 5.172-3.992 13.268-3.199 14.747.613 1.142 1.13.696 1.89-1.626 1.034-3.163 3.56-5.987 6.42-7.18 5.582-2.326 12.586.253 15.23 5.608.901 1.827.949 2.086.941 5.108-.009 3.655-.557 5.467-2.344 7.756-2.189 2.802-5.305 4.083-9.49 3.9-2.367-.103-2.954-.24-4.605-1.077-1.76-.89-2.519-.978-2.519-.29 0 .155.63 1.103 1.4 2.105.77 1.003 1.695 2.429 2.054 3.17 3.366 6.935.716 14.344-6.06 16.945-2.094.804-5.713 1.008-7.741.437zm94.061-.03c-2.353-.632-4.249-1.788-5.964-3.636-4.27-4.6-3.934-11.481.83-16.995 1.46-1.692 2.098-3.178 1.363-3.178-.146 0-1.286.528-2.533 1.173-4.751 2.458-9.767 1.872-13.627-1.59-3.626-3.253-4.466-8.65-2.123-13.645 3.237-6.904 11.827-8.702 18.059-3.778 1.332 1.053 3.24 3.85 3.724 5.464.182.606.579 1.325.883 1.6.477.43.59.441.838.077.827-1.223-1.68-12.265-3.686-16.228-1.195-2.363-1.467-2.249 5.343-2.249 3.318 0 6.104.07 6.19.157.087.086-.405 1.484-1.093 3.106-1.663 3.924-2.682 7.506-3.167 11.136-.408 3.055-.231 4.55.51 4.306.39-.129.609-.522 1.917-3.459 3.28-7.358 12.691-9.057 18.71-3.378 2.318 2.187 3.121 4.037 3.275 7.543.152 3.456-.531 6.008-2.18 8.153-2.357 3.064-5.404 4.36-9.75 4.15-2.27-.11-2.906-.263-4.588-1.104-1.524-.763-2.028-.9-2.3-.628-.274.272-.213.523.279 1.144 1.55 1.959 2.974 4.256 3.584 5.782.546 1.368.664 2.212.67 4.835.007 2.853-.07 3.347-.767 4.83-2.451 5.216-8.617 7.963-14.396 6.412zm43.11-20.26c-1.872-.703-2.978-2.395-2.978-4.559 0-1.614.512-2.82 1.648-3.878.788-.734.992-1.466.408-1.466-.188 0-.914.276-1.611.613-2.613 1.262-5.348.223-6.112-2.322-.488-1.624-.408-2.638.32-4.077 1.85-3.651 5.897-3.437 7.917.42.463.885 1.024 1.61 1.245 1.61.596.001.253-2.825-.665-5.488-.41-1.192-.748-2.264-.749-2.383 0-.12 1.236-.217 2.749-.217 1.513 0 2.75.066 2.75.147 0 .081-.523 1.37-1.163 2.866-1.243 2.9-1.606 4.931-.882 4.931.228 0 .75-.64 1.158-1.424 1.028-1.971 2-2.62 3.928-2.62 2.651 0 4.274 1.78 4.314 4.732.026 1.922-.688 3.158-2.253 3.899-1.384.655-2.675.581-4.479-.256-.851-.396-1.666-.72-1.81-.72-.506 0-.25.775.482 1.461 2.15 2.016 2.618 4.74 1.183 6.903-.46.695-1.226 1.39-1.79 1.625-.983.41-2.787.51-3.61.202zM54.73 91.642c0-.12.51-1.394 1.132-2.832 2.502-5.785 4.171-13.655 3.215-15.152-.464-.726-1.174 0-1.866 1.908-.842 2.32-1.634 3.55-3.229 5.016-3.48 3.2-8.746 3.817-13.296 1.558-2.061-1.023-4.293-3.322-5.26-5.418-.733-1.587-.814-2.068-.802-4.797.01-2.465.137-3.35.68-4.721 2.423-6.134 9.687-8.823 15.788-5.845 2.917 1.424 3.193.847.986-2.057-1.841-2.423-2.753-4.427-3.202-7.037-.893-5.195 1.57-9.963 6.368-12.328 2.167-1.068 2.268-1.088 5.552-1.088 3.198 0 3.437.043 5.442.98 2.526 1.182 4.677 3.311 5.794 5.736.586 1.274.793 2.251.888 4.192.197 4.03-.712 6.314-4.219 10.604-.676.828-1.23 1.689-1.23 1.913 0 .624 1.045.485 2.3-.304 2.09-1.317 4.563-1.97 6.821-1.802 6.264.467 10.868 4.998 10.854 10.684-.019 7.847-5.31 13.097-12.645 12.544-4.445-.335-7.681-2.669-9.893-7.134-2.381-4.808-3.054-3.35-1.648 3.573.774 3.815 1.788 7.088 3.088 9.969.458 1.015.833 1.892.833 1.95 0 .057-2.801.104-6.225.104-3.424 0-6.226-.098-6.225-.217zm94.203-.145c2.923-6.67 4.294-11.516 4.353-15.383.036-2.399-.004-2.6-.525-2.6-.436 0-.753.49-1.383 2.137-2.083 5.446-6.11 8.103-11.747 7.752-8.771-.546-13.592-9.43-9.493-17.499 2.6-5.121 9.366-7.237 14.896-4.66 3.172 1.48 3.488 1.11 1.405-1.633-1.885-2.482-2.977-4.872-3.382-7.404-.84-5.261 1.759-10.171 6.58-12.427 1.665-.78 2.356-.93 4.703-1.024 2.249-.09 3.094.003 4.633.513 5.79 1.917 8.927 6.933 8.08 12.92-.365 2.582-1.513 4.941-3.698 7.595-2.712 3.294-2.322 3.685 1.664 1.669 2.362-1.195 2.502-1.228 5.212-1.22 2.512.008 2.977.098 4.732.92 2.366 1.108 4.475 3.017 5.588 5.056 1.55 2.843 1.327 7.803-.509 11.273-1.825 3.45-5.27 5.692-9.124 5.94-5.507.352-10.054-2.615-12.234-7.983-.579-1.427-.924-1.926-1.332-1.926-.49 0-.546.209-.505 1.878.089 3.629 2.017 11.086 3.751 14.506.38.75.69 1.497.69 1.661 0 .196-2.144.299-6.256.299-4.896 0-6.222-.079-6.098-.361zm-132.33-7.51c1.534-3.57 2.248-5.57 2.302-6.445.096-1.549-.544-1.59-1.205-.079-.993 2.271-2.22 3.13-4.466 3.128-2.49-.002-4.025-1.759-4.078-4.665-.032-1.781.44-2.702 1.965-3.838 1.131-.842 3.098-.755 5.018.224.83.423 1.58.77 1.665.77.404 0 .052-.724-.998-2.049-2.084-2.63-2.16-5.09-.218-7.118 2.193-2.29 5.844-1.742 7.316 1.098.936 1.805.295 5.03-1.282 6.452-.675.61-.81 1.329-.248 1.326.199-.001.75-.258 1.226-.57 2.028-1.334 4.82-.907 5.926.906 2.275 3.733-.744 8.795-4.623 7.753-1.219-.327-2.296-1.38-3.231-3.155-.37-.704-.857-1.339-1.081-1.412-.625-.203-.222 3.128.68 5.623.407 1.126.74 2.13.74 2.23 0 .1-1.251.182-2.781.182-2.115 0-2.745-.087-2.627-.361zm3.786-27.49c-.33-.86.02-1.469.901-1.568.477-.054 1.03-.233 1.229-.397.47-.388.482-3.748.014-4.214-.247-.247-2.007-.347-6.08-.347h-5.734v-1.473c0-1.438.158-1.712 6.517-11.285 6.137-9.24 6.564-9.807 7.312-9.72l.794.09.145 9.822.144 9.822 1.738.144 1.737.145v2.311l-1.737.144-1.738.145v4.616l.87.15c.737.128.868.28.868 1.014v.864l-3.408.081c-2.788.067-3.438.004-3.572-.344zm2.351-9.776c.088-.357.123-3.109.078-6.115-.06-3.937-.18-5.497-.43-5.58-.444-.147-8.324 11.613-8.063 12.034.123.199 1.653.311 4.224.311 3.94 0 4.035-.014 4.191-.65z" fill="#2e2e2e"/><path d="M0 157.44V0h217.76v314.88H0V157.44zm212.75 156.49c1.388-.756 2.878-2.356 3.696-3.967l.724-1.425-.003-150.88-.003-150.88-.677-1.444c-.756-1.614-2.89-3.73-4.392-4.356-.848-.353-15.458-.41-103.43-.408L6.225.573l-1.48.847c-1.624.929-2.733 2.098-3.602 3.798C.583 6.313.577 7.983.65 157.928l.073 151.61 1.014 1.405c1.334 1.85 2.913 3.093 4.263 3.355.601.117 47.156.195 103.45.173 97.282-.039 102.41-.066 103.3-.551zm-20.254-30.103c-.094-10.896.053-10.25-2.328-10.258l-1.375-.004v-2.022h1.582c1.899 0 2.182-.351 2.182-2.702 0-2.114-.182-2.498-1.189-2.498-.74 0-.838-.102-.838-.876v-.876l3.258.082 3.258.081v.723c0 .614-.152.736-1.011.817-1.291.123-1.44.387-1.446 2.553-.007 2.897-.474 2.696 6.252 2.696h5.905l-.002 1.372c-.002 1.305-.314 1.84-6.359 10.905-5.241 7.86-6.484 9.549-7.081 9.623l-.724.09-.084-9.706zm7.148-2.901c2.166-3.26 4.009-6.11 4.095-6.333.274-.712-.803-.906-4.77-.862-2.946.033-3.927.138-4.121.444-.294.463-.36 12.196-.07 12.486.544.543 1.243-.28 4.867-5.734zm-141.55-1.905c-1.377-.322-3.63-1.433-4.958-2.443-2.314-1.76-3.91-5.357-3.91-8.813 0-3.487 1.01-5.8 4.272-9.79 1.248-1.527 1.546-2.507.843-2.776-.213-.081-1.488.427-2.835 1.13-3.932 2.051-7.313 2.086-11.054.114-3.54-1.866-5.703-5.323-5.703-9.116 0-3.89 1.383-7.23 3.97-9.588 2.16-1.97 4.175-2.7 7.467-2.71 2.347-.008 2.808.085 4.633.936 3.1 1.444 5.145 3.666 6.502 7.061.691 1.73 1.353 2.364 2.029 1.947 1.167-.72-1.11-11.556-3.476-16.547l-.855-1.803 5.833-.079c3.208-.043 5.889-.022 5.958.046.068.069-.467 1.6-1.189 3.4-2.826 7.051-4.004 14.19-2.495 15.12.482.298 1.387-.65 1.612-1.69.562-2.595 3.094-5.872 5.548-7.18 4.904-2.614 11.644-1.128 14.838 3.271 1.596 2.199 2.103 4.08 1.977 7.333-.148 3.788-1.02 5.829-3.45 8.073-3.542 3.272-8.126 3.824-13.029 1.57-3.029-1.393-3.375-.699-1.117 2.24 2.517 3.276 3.466 5.796 3.466 9.205 0 2.628-.573 4.533-1.955 6.508-2.658 3.795-8.077 5.716-12.922 4.582zm93.895-.098c-3.456-.95-6.644-3.702-7.8-6.731-1.736-4.549-.723-9.273 2.898-13.504 1.586-1.854 2.027-2.87 1.483-3.414-.259-.258-.558-.21-1.267.204-3.746 2.186-5.886 2.735-8.797 2.253-3.863-.638-6.964-2.834-8.554-6.059-.866-1.757-.95-2.162-.941-4.534.008-1.913.18-3.104.652-4.483 2.493-7.285 10.89-10.011 17.317-5.62 1.95 1.33 3.198 2.928 4.346 5.563 1.19 2.73 1.87 3.28 2.462 1.983.666-1.456-1.566-11.427-3.518-15.724-.47-1.035-.856-1.994-.856-2.13 0-.137 2.673-.25 5.94-.25h5.94l-.48 1.084c-2.343 5.286-3.83 10.536-4.073 14.377-.133 2.112-.082 2.673.272 2.966.731.606 1.284.108 1.955-1.762 1.328-3.698 3.67-6.332 6.6-7.426 4.643-1.733 9.785-.516 13.097 3.1 2.286 2.495 3.188 5.771 2.608 9.472-.796 5.08-4.009 8.413-9.091 9.43-2.168.435-4.84-.003-7.333-1.203-3.017-1.451-3.489-.783-1.358 1.921 4.698 5.961 4.962 12.64.684 17.27-2.781 3.01-7.966 4.378-12.186 3.217zm42.37-20.72c-2.488-1.589-2.661-5.406-.346-7.62 1.646-1.573.762-2.506-1.228-1.296-1.332.81-3.646.787-4.709-.047-3.161-2.481-1.335-8.327 2.602-8.327 1.678 0 2.775.808 3.863 2.844.663 1.24 1.118 1.776 1.511 1.776.46 0 .562-.204.562-1.123 0-.953-.947-4.772-1.603-6.46-.177-.457.04-.505 2.296-.505 1.37 0 2.492.07 2.492.155 0 .086-.258.661-.573 1.278-.946 1.85-2.072 5.498-1.882 6.096.333 1.047 1.152.632 1.893-.958.979-2.1 2.233-2.908 4.26-2.745 1.186.095 1.72.307 2.391.948 1.42 1.358 1.827 3.713.956 5.543-1.06 2.23-3.68 2.73-6.508 1.243-1.36-.715-1.69-.793-1.965-.462-.26.312-.071.696.881 1.794 1.358 1.564 1.998 2.875 1.989 4.07-.01 1.307-1.034 3.196-2.076 3.83-1.304.793-3.537.777-4.806-.033zM55.18 91.593c-.087-.141.182-1.019.6-1.95 2.53-5.638 4.477-14.318 3.585-15.98-.615-1.147-1.452-.635-2.16 1.321-1.308 3.614-3.02 5.677-6.015 7.252-1.419.746-1.773.804-4.86.8-3.001-.003-3.495-.08-4.996-.778-2.327-1.083-4.589-3.303-5.61-5.508-.758-1.639-.832-2.079-.827-4.975.006-3.415.38-4.702 2.08-7.159 2.74-3.958 9.018-5.39 13.814-3.151 1.085.506 2.22.921 2.52.921.896 0 .652-1.094-.572-2.56-4.528-5.42-5.054-12.15-1.307-16.712 4.45-5.419 13.545-5.685 18.303-.536 2.084 2.256 2.98 4.579 2.986 7.75.008 3.696-.943 5.904-4.325 10.043-2.058 2.518-1.093 3.37 1.829 1.614 2.146-1.29 4.012-1.728 6.644-1.56 4.198.27 8.338 3.146 9.692 6.736.555 1.47.633 2.129.525 4.469-.15 3.246-.873 5.38-2.535 7.477-2.218 2.799-4.921 4.064-8.686 4.064-5.21 0-9.045-2.717-11.198-7.93-.716-1.734-.937-2.023-1.55-2.023-.637 0-.726.138-.806 1.248-.188 2.603 1.745 10.672 3.554 14.84.53 1.22.89 2.293.801 2.383-.273.272-11.314.18-11.485-.096zm94.128.033c-.076-.124.29-1.197.816-2.386 1.376-3.112 2.635-7.23 3.17-10.367.593-3.487.595-5.041.004-5.53-.725-.6-1.339.01-2.076 2.065-1.182 3.295-3.063 5.493-5.835 6.82-2.154 1.03-6.133 1.276-8.467.523-4.69-1.513-7.583-5.128-7.973-9.965-.163-2.017.409-5.098 1.245-6.712.874-1.686 3.23-3.867 5.113-4.735 1.604-.74 2.12-.83 4.698-.83 2.666 0 3.053.074 4.882.938 3.393 1.603 4.09 1.062 2.026-1.573-3.842-4.904-4.813-9.995-2.746-14.4 2.164-4.615 7.58-7.385 12.7-6.497 5.454.946 9.123 4.5 9.982 9.67.585 3.523-.66 7.426-3.368 10.561-1.556 1.802-2.299 3.064-2.044 3.475.316.51 1.373.293 2.72-.559 3.631-2.294 8.292-2.343 12.09-.127 2.567 1.498 4.75 4.715 5.163 7.61.232 1.628-.244 4.654-1.069 6.806-.82 2.138-2.9 4.39-5.213 5.64-1.763.954-1.933.988-5.016.988-3.004 0-3.302-.055-5.07-.923-2.69-1.322-4.419-3.167-5.965-6.372-.97-2.008-1.43-2.672-1.851-2.672-.806 0-.965 1.017-.573 3.655.74 4.986 2.308 10.53 3.808 13.47.307.602.48 1.22.385 1.373-.207.334-11.33.386-11.537.054zm-131.49-9.95c.535-1.31 1.095-2.931 1.245-3.6.531-2.374-.929-2.812-1.691-.508-.812 2.454-3.716 3.522-6.155 2.263-1.929-.995-2.566-5.023-1.05-6.641 1.663-1.777 3.74-1.96 6.162-.545 2.358 1.379 2.558.687.549-1.894-1.267-1.627-1.366-1.877-1.376-3.445-.007-1.273.14-1.892.596-2.507.901-1.214 2.393-2.116 3.5-2.116 4.255 0 6.208 5.146 3.122 8.225-1.025 1.022-1.334 2.174-.583 2.174.23 0 1.032-.325 1.78-.722 2.455-1.302 4.658-.758 5.636 1.391 1.026 2.255.577 4.604-1.158 6.06-1.203 1.01-2.123 1.225-3.497.814-1.27-.38-2.44-1.632-3.22-3.446-.387-.902-.679-1.222-1.045-1.148-.953.192-.503 3.75.952 7.523.176.457-.041.505-2.272.505h-2.467l.972-2.383zm2.944-24.955c-.111-.11-.202-.505-.202-.876 0-.578.144-.674 1.02-.674.846 0 1.074-.136 1.329-.794.418-1.081.186-4.09-.342-4.424-.228-.144-2.988-.264-6.133-.266l-5.72-.004v-1.144c0-1.01.772-2.3 6.559-10.977 5.52-8.276 6.666-9.833 7.239-9.833h.68v9.62c0 7.096.092 9.71.348 9.965.191.191 1.038.347 1.882.347h1.535v1.011c0 1.008-.004 1.011-1.322 1.011-2.198 0-2.442.27-2.442 2.697 0 2.257.264 2.792 1.38 2.792.577 0 .67.126.594.794l-.092.795-3.055.081c-1.68.045-3.147-.009-3.258-.12zm2.121-9.802c.31-.813.392-9.91.102-11.356-.115-.57-.354-.9-.652-.895-.638.009-8.565 11.945-8.333 12.547.144.372.857.445 4.386.445H22.6l.282-.741z" fill="#010101"/></svg>