<svg xmlns="http://www.w3.org/2000/svg" height="335.872" width="232.277" viewBox="0 0 217.76 314.88008"><path d="M0 157.44V0h217.76v314.88H0V157.44z" fill="#fdfdfd"/><path d="M0 157.44V0h217.76v314.88H0V157.44zm211.9 155.69c1.94-.967 3.245-2.375 4.042-4.362.476-1.185.503-9.47.503-151.04 0-142.57-.025-149.85-.513-151.25-.625-1.786-2.432-3.732-4.238-4.566l-1.33-.613-101.06-.076c-94.759-.07-101.16-.044-102.65.42-2.203.686-4.408 2.875-5.043 5.01-.415 1.395-.458 15.525-.458 151.09 0 133.05.048 149.69.44 150.79.802 2.267 2.78 4.273 4.988 5.06.9.32 18.503.389 102.31.4l101.23.012 1.773-.884zM5.36 299.56c-.236-.381.11-.922.454-.71.352.217.35.999-.003.999-.15 0-.353-.13-.451-.289zm184.65-5.546c-.191-.191-.347-.945-.347-1.676 0-.73.156-1.485.347-1.675.245-.244 1.902-.347 5.607-.347h5.259l.19-1.609c.103-.884.125-1.711.047-1.837-.078-.126-.83-.044-1.67.183-3.3.888-7.236-.273-9.651-2.85-3.938-4.2-4.296-11.018-.884-16.827 1.874-3.19 6.545-5.029 10.788-4.249 2.334.429 3.374.925 4.831 2.305 1.374 1.301 2.175 2.81 2.413 4.546.22 1.597-.043 1.84-1.996 1.846-1.185.004-1.435-.103-1.857-.79-1.96-3.19-2.557-3.61-5.134-3.617-2.268-.006-3.977.695-5.213 2.135-1.105 1.288-1.92 3.529-1.92 5.282 0 1.591.743 4.377 1.487 5.578 1.604 2.589 4.48 3.37 7.313 1.988.862-.42 1.913-1.216 2.335-1.768.88-1.152 1.375-1.231 2.692-.43.87.53.941.688.941 2.09 0 2.608-.91 11.329-1.221 11.708-.417.506-13.85.52-14.357.014zm-129.92-15.26c-3.355-.59-5.808-1.866-7.771-4.045-4.45-4.938-4.243-12.394.497-17.852.736-.847 1.338-1.6 1.338-1.673 0-.073-.554.186-1.23.577-4.736 2.73-10.834 1.91-14.862-1.999-2.253-2.186-3.093-4.04-3.253-7.175-.433-8.517 5.016-14.4 12.946-13.977 5.084.27 8.993 3.011 11.115 7.793l.807 1.818-.178-1.589c-.244-2.18-1.482-7.713-2.18-9.74-.315-.92-1.049-2.682-1.63-3.918-.714-1.523-.96-2.341-.76-2.54.403-.402 13.674-.413 14.076-.012.205.204-.036 1.028-.768 2.624-2.047 4.47-3.4 9.235-3.775 13.297-.189 2.048-.255 2.11 1.233-1.156.43-.943 1.438-2.303 2.482-3.347 2.248-2.248 4.203-3.064 7.742-3.233 5.416-.258 9.735 2.159 11.99 6.708 3.536 7.138-.477 16.031-8.016 17.765-2.517.58-6.092.21-8.04-.83-1.048-.56-1.023-.186.088 1.357 5.655 7.852 3.021 17.69-5.495 20.53-2.16.72-4.483.946-6.355.617zm92.635-.13c-3.359-.73-6.138-2.482-7.959-5.018-3.472-4.837-2.948-11.4 1.329-16.638.72-.882 1.256-1.603 1.193-1.603-.064 0-1 .413-2.08.917-5.943 2.774-13.509-.03-16.26-6.028-1.412-3.075-1.14-7.505.689-11.23.99-2.018 3.656-4.555 5.807-5.528 2.419-1.093 6.236-1.263 8.855-.393 3.515 1.166 5.971 3.317 7.676 6.72 1.122 2.24 1.195 1.643.326-2.68-.733-3.648-2.088-7.946-3.201-10.152-.961-1.905-1.066-2.816-.328-2.845.553-.021 12.352-.016 13.175.006.633.017.663.898.07 2.043-1.963 3.785-3.8 9.991-4.063 13.715l-.162 2.31.597-1.588c1.243-3.31 3.43-5.685 6.606-7.169 1.497-.7 1.98-.775 4.988-.775 3.223 0 3.4.033 5.503 1.035 3.405 1.623 6.097 4.798 6.795 8.016.32 1.47.235 4.953-.16 6.557-1.757 7.151-9.44 10.97-16.406 8.157l-1.806-.73.827 1.049c1.283 1.627 2.55 4.06 3.085 5.926.751 2.614.494 6.737-.555 8.915-1.832 3.806-5.592 6.517-9.895 7.138-2.434.35-2.44.35-4.645-.128zm42.003-20.046c-2.91-1.32-4.1-4.93-2.585-7.852l.426-.822-1.4.165c-1.889.223-3.77-.6-4.663-2.04-.991-1.6-1.132-4.11-.323-5.776 1.748-3.603 5.577-4.321 8.228-1.543l1.12 1.173-.212-.987c-.116-.542-.525-1.762-.908-2.711-.383-.95-.633-1.892-.555-2.095.176-.456 6.974-.531 7.254-.08.098.158-.285 1.312-.852 2.564-1.206 2.664-1.255 2.941-.378 2.145 1.067-.97 1.83-1.242 3.485-1.242 3.335 0 5.597 3.028 4.98 6.667-.414 2.446-3.145 4.287-5.775 3.894-.723-.108-1.315-.144-1.315-.08 0 .066.209.536.464 1.047 1.113 2.225.771 4.5-.962 6.414-1.546 1.708-3.843 2.149-6.029 1.158zm-93.217-71.95c-.093-.15.406-1.617 1.109-3.259 2.18-5.093 3.696-10.846 3.637-13.8-.02-.983-.035-.969-.568.527-1.905 5.351-6.19 8.428-11.738 8.428-9.658 0-15.444-9.568-11.119-18.389 1.18-2.404 3.662-4.684 6.11-5.61 2.57-.973 6.957-.993 9.05-.041.777.353 1.532.642 1.678.642.147 0-.194-.602-.757-1.337-1.905-2.49-3.347-6.351-3.347-8.965 0-4.153 2.084-8.173 5.362-10.344 5.334-3.532 12.227-2.99 16.797 1.323 4.997 4.714 5.008 12.664.026 18.407-.735.847-1.336 1.595-1.336 1.663 0 .068.684-.253 1.52-.714 6.365-3.507 14.97-.354 17.457 6.397.77 2.093.705 5.765-.148 8.302-1.239 3.68-3.288 6.034-6.632 7.615-1.79.846-2.131.906-5.118.906-3.107 0-3.263-.03-5.357-1.066-2.678-1.325-4.556-3.191-6.065-6.028-1.296-2.436-1.31-2.422-.744.74.897 4.998 2.305 9.647 3.836 12.667.391.77.641 1.583.556 1.806-.127.33-1.417.404-7.097.404-4.058 0-7.012-.114-7.111-.274zm-46.666-93.74c-.09-.236.423-1.829 1.142-3.539 2.096-4.99 3.392-9.862 3.378-12.703l-.007-1.384-.668 1.62c-.947 2.295-1.735 3.476-3.25 4.87-5.871 5.398-15.895 3.529-19.546-3.646-.885-1.74-.99-2.21-1.089-4.875-.08-2.176.019-3.395.38-4.648.94-3.262 3.395-6.135 6.472-7.574 1.493-.699 1.96-.769 5.118-.769 2.966 0 3.676.093 4.85.634.757.348 1.376.562 1.376.475 0-.088-.374-.633-.831-1.212a15.063 15.063 0 0 1-3.22-9.305c-.004-2.805.58-4.727 2.118-6.97 4.339-6.324 14.082-7.208 19.874-1.804 5.03 4.694 4.996 13.042-.074 18.531-.637.689-1.102 1.307-1.035 1.374.067.067.96-.294 1.984-.8 1.608-.796 2.229-.936 4.531-1.022 3.316-.123 5.178.374 7.678 2.05 4.27 2.862 5.909 7.236 4.753 12.675-1.11 5.222-4.889 8.968-9.915 9.828-5.49.94-10.98-1.92-13.558-7.058-1.22-2.435-1.31-1.906-.416 2.491.786 3.868 1.56 6.402 2.95 9.657.63 1.474 1.07 2.87.98 3.106-.246.64-13.73.638-13.975-.002zm93.316-.007c-.092-.24.285-1.426.837-2.636 1.95-4.27 3.428-9.509 3.737-13.25.16-1.939.15-1.98-.231-1.003-1.366 3.495-3.05 5.705-5.435 7.13-6.595 3.941-15.585.96-18.256-6.053-1.223-3.21-.967-7.458.64-10.636 1.092-2.156 2.122-3.337 3.905-4.474 3.607-2.302 8.184-2.506 12.695-.565.384.165.242-.179-.5-1.208-3.023-4.198-4.048-8.835-2.822-12.764 1.402-4.494 4.45-7.324 9.227-8.565 5.83-1.515 12.436 1.41 14.84 6.571 2.348 5.038 1.526 10.324-2.321 14.936-.805.965-1.414 1.754-1.354 1.754.06 0 .944-.417 1.965-.927 1.586-.792 2.24-.944 4.492-1.044 4.01-.177 6.736.794 9.484 3.377 2.443 2.297 3.401 4.59 3.398 8.13-.008 8.098-5.861 13.825-13.48 13.189-1.578-.132-2.572-.434-4.402-1.338-2.823-1.396-4.547-3.157-6.054-6.186l-1.024-2.057.177 1.3c.662 4.854 2.104 10.11 3.783 13.786.557 1.218.947 2.385.867 2.592-.114.295-1.643.377-7.073.377-5.905 0-6.952-.064-7.095-.436zm-131.5-9.5c-.53-.387-.518-.465.379-2.407.51-1.103.927-2.154.927-2.335 0-.182-.452-.024-1.004.35-2.66 1.801-6.124.88-7.423-1.974-.648-1.424-.71-3.93-.125-5.058 1.024-1.977 3.631-3.2 5.702-2.675.612.155 1.113.258 1.113.23 0-.03-.261-.563-.58-1.187-.74-1.45-.753-3.584-.028-4.994 2.732-5.315 10.191-3.47 10.153 2.512-.005.889-.196 1.94-.424 2.338-.626 1.094-.532 1.245.663 1.054 2.688-.428 4.977 1.184 5.543 3.906.51 2.453-.291 4.765-2.138 6.171-1.965 1.495-4.455 1.234-6.38-.669l-1.085-1.073.212 1.01c.116.557.513 1.76.882 2.672.596 1.477.622 1.71.235 2.095-.593.591-5.82.618-6.622.034zm-.604-27.857c-3.038-1.048-5.335-3.856-5.428-6.638l-.046-1.356 1.775-.086 1.775-.085.878 1.552c1.254 2.218 2.04 2.661 4.716 2.662 1.936 0 2.359-.101 3.589-.866.97-.603 1.668-1.35 2.294-2.455.821-1.452.899-1.814.899-4.194 0-2.354-.09-2.789-.94-4.51-1.253-2.541-2.615-3.517-4.933-3.532-1.95-.013-3.587.724-4.888 2.203-1.25 1.42-1.428 1.47-2.705.753-1.089-.61-1.157-.727-1.157-1.985 0-1.525.8-10.497 1.024-11.49l.148-.654 7.305.077 7.304.077v3.467l-5.501.144-5.502.144-.087 1.843c-.086 1.806-.074 1.84.579 1.64 1.29-.392 4.733-.51 5.878-.2 3.082.832 5.912 3.486 7.115 6.671 1.838 4.866.373 11.625-3.218 14.846-2.597 2.33-7.342 3.19-10.874 1.972z" fill="#d2d2d2"/><path d="M0 157.44V0h217.76v314.88H0V157.44zm210.27 156.67c2.962-.966 5.25-3.108 6.005-5.621.224-.746.314-44.093.314-151.11V7.319l-.886-1.769c-.929-1.854-2.302-3.164-4.228-4.033-1.049-.473-6.873-.501-102.46-.501-98.713 0-101.38.014-102.77.546-1.829.704-3.491 2.214-4.467 4.057l-.773 1.463v301l.684 1.375c.941 1.89 3.157 3.808 5.193 4.495 1.618.546 3.665.558 101.79.594 92.407.033 100.25 0 101.6-.442zm-20.204-20.433c-.085-.22-.113-.968-.063-1.66l.09-1.262 5.502-.144 5.502-.145.086-2.13c.076-1.893.032-2.11-.4-1.945-6.147 2.354-12.324-1.3-13.746-8.13-.7-3.37.2-7.952 2.132-10.842 2.486-3.717 8.455-5.33 12.735-3.441 2.732 1.205 4.999 4.288 4.783 6.504-.088.908-.108.919-1.65.919-1.263 0-1.62-.11-1.875-.578-.957-1.762-1.785-2.751-2.64-3.157-1.236-.584-4.191-.587-5.588-.006-3.102 1.293-4.82 5.035-4.129 8.995.806 4.617 3.496 7.145 7.04 6.614 1.497-.223 3.72-1.533 4.424-2.606.619-.942 1.557-.95 2.56-.023.691.64.76.87.62 2.095-.086.757-.358 3.51-.603 6.12-.245 2.608-.513 4.85-.595 4.982-.081.132-3.272.24-7.09.24-5.648 0-6.97-.074-7.095-.4zm-131.1-15.37c-6.445-1.556-10.505-7.401-9.526-13.713.408-2.628 1.908-5.735 3.802-7.872.818-.923 1.487-1.795 1.487-1.938 0-.143-1.033.275-2.295.93-1.998 1.036-2.598 1.207-4.65 1.326-5.44.314-9.852-2.27-12.11-7.097-.673-1.438-.77-1.994-.737-4.254.1-6.894 4.05-11.84 10.256-12.836 5.873-.944 11.796 2.698 13.765 8.462.63 1.843 1.11 1.744.86-.176-.632-4.884-2.128-10.363-3.87-14.179-.856-1.877-.962-2.307-.62-2.523.536-.338 12.737-.342 13.27-.004.333.21.194.746-.769 2.956-2.083 4.787-3.245 8.977-3.702 13.353-.263 2.51.239 2.519 1.146.02 2.52-6.946 9.835-9.972 16.654-6.89 4.426 2 6.974 5.989 6.966 10.904-.006 3.87-1.341 7.047-3.967 9.44-2.267 2.068-4.152 2.72-7.902 2.73-2.753.008-3.211-.07-4.856-.827-.999-.46-1.875-.777-1.947-.705-.073.072.4.837 1.05 1.7 6.552 8.7 3.28 19.215-6.64 21.325-1.964.418-3.54.381-5.666-.132zm94.503.265c-1.258-.2-4.155-1.308-5.294-2.025-1.749-1.101-3.327-2.91-4.338-4.97-.891-1.817-.937-2.074-.937-5.233 0-3.22.032-3.39 1.041-5.489.573-1.192 1.724-2.979 2.558-3.971 1.714-2.039 1.828-2.733.276-1.681-3.188 2.16-8.014 2.501-11.618.819-3.99-1.863-6.57-5.357-6.82-9.232-.457-7.104 3.815-12.916 10.264-13.963 3.059-.497 6.934.523 9.56 2.517 1.406 1.067 3.394 3.783 4.029 5.505.799 2.165 1.085 2.189.9.073-.365-4.165-1.864-9.855-3.595-13.638-.56-1.225-.94-2.43-.845-2.677.15-.392 1.018-.44 6.767-.372l6.595.077-.037.723c-.02.397-.644 2.172-1.385 3.944-1.631 3.899-2.716 8.018-2.966 11.265-.216 2.796.136 3.162.854.89 2.821-8.93 14.05-11.375 20.67-4.502 2.543 2.639 3.643 6.333 3.02 10.139-.714 4.358-2.998 7.549-6.634 9.267-1.814.857-2.148.917-5.125.917-2.982 0-3.31-.059-5.14-.924-1.075-.508-1.954-.855-1.954-.77 0 .084.437.694.972 1.357 4.934 6.11 5.086 13.225.39 18.306-2.444 2.646-7.385 4.254-11.208 3.647zm41.262-20.22c-1.341-.707-1.918-1.297-2.496-2.552-.742-1.612-.683-3.241.178-4.935.398-.781.724-1.45.724-1.486 0-.036-.333.062-.741.217-1.175.446-3.087.33-4.177-.254-2.144-1.147-2.965-4.596-1.71-7.18 1.775-3.66 6.199-3.88 8.4-.42.8 1.259.836 1.28.836.5 0-.45-.403-1.988-.896-3.418-.722-2.1-.82-2.649-.506-2.847.213-.135 1.643-.247 3.176-.25 3.643-.006 3.745.117 2.447 2.92-.545 1.177-1.088 2.523-1.205 2.991-.213.845-.206.843.918-.335 2.583-2.707 6.428-2.124 7.97 1.208 1.086 2.349.534 4.952-1.354 6.39-.905.689-1.372.832-2.71.829-.888-.002-1.987-.117-2.441-.255l-.826-.253.789 1.19c2.442 3.682.023 8.45-4.267 8.41-.682-.007-1.631-.218-2.109-.47zm-92.769-71.841c-.249-.3-.088-.905.685-2.575 1.976-4.265 3.321-9.104 3.784-13.609.16-1.558.124-1.96-.168-1.862-.204.068-.526.637-.714 1.264-.597 1.992-1.612 3.651-3.214 5.249-7.127 7.11-20.037 2.285-20.617-7.707-.245-4.223 1.112-7.867 3.865-10.376 2.347-2.14 4.162-2.762 8.091-2.772 2.925-.008 3.323.06 4.87.816.925.453 1.746.761 1.823.684.077-.077-.494-.976-1.27-1.998-6.501-8.57-2.74-19.345 7.356-21.073 5.183-.887 11.146 1.937 13.401 6.347 2.554 4.994 1.643 10.643-2.478 15.357-.868.993-1.51 1.874-1.425 1.958.084.084 1.153-.354 2.376-.973 2.187-1.108 2.275-1.126 5.435-1.126 3.066 0 3.304.045 5.23.984 3.673 1.79 5.953 4.73 6.603 8.514.391 2.28-.209 5.756-1.42 8.231-1.035 2.112-3.282 4.333-5.464 5.399-1.616.79-1.97.849-5.067.849-3.132 0-3.444-.054-5.248-.907-3.186-1.506-5.486-4.022-6.763-7.398-.496-1.314-1.02-1.814-1.02-.977 0 1.056 1.243 7.342 1.9 9.61.408 1.409 1.275 3.776 1.926 5.26.97 2.21 1.111 2.748.78 2.957-.224.141-3.225.259-6.67.261-4.918.003-6.331-.08-6.587-.387zM55.019 92.64c0-.206.646-1.937 1.436-3.846 1.779-4.3 2.855-8.413 3.09-11.813.204-2.93-.028-2.993-1.019-.277-2.284 6.26-9.105 9.467-15.41 7.247-5.942-2.093-9.088-7.39-8.082-13.605 1.315-8.122 9.463-12.417 17.012-8.97.887.405 1.658.692 1.713.637.054-.054-.481-.845-1.191-1.757-4.546-5.84-4.649-12.839-.258-17.52 6.04-6.443 17.008-4.966 20.858 2.807.938 1.893 1.09 2.495 1.197 4.723.194 4.041-1.081 7.392-4.035 10.604-.618.672-1.123 1.365-1.123 1.541 0 .367-.115.408 2.208-.8 3.607-1.877 7.309-1.898 11.047-.065 3.796 1.862 6.144 5.25 6.373 9.194.329 5.668-2.216 10.392-6.82 12.662-2.136 1.054-2.312 1.09-5.28 1.09-2.96 0-3.15-.039-5.249-1.074-2.805-1.383-4.847-3.502-6.28-6.514-1.007-2.117-1.067-2.184-1.156-1.283-.228 2.3 1.7 9.976 3.592 14.301.542 1.239.985 2.442.985 2.672 0 .355-1.05.42-6.804.42-5.38 0-6.805-.079-6.805-.375zm93.397.107c-.091-.147.348-1.431.975-2.854 1.668-3.782 2.864-7.846 3.399-11.556.567-3.936.245-4.785-.766-2.02-.84 2.299-1.686 3.636-3.251 5.14-4.701 4.515-12.65 4.169-17.317-.755-2.095-2.21-2.973-4.273-3.122-7.342-.205-4.193.963-7.418 3.616-9.991 3.39-3.287 9.182-4.125 13.481-1.952.79.4 1.498.665 1.573.59.075-.074-.477-.96-1.227-1.969-2.484-3.34-3.464-6.383-3.25-10.086.371-6.384 5.791-11.247 12.536-11.247 6.417 0 11.597 4.241 12.648 10.354.66 3.84-.574 7.708-3.644 11.421-.903 1.093-1.589 2.041-1.523 2.106.065.066 1.015-.344 2.11-.911 4.853-2.511 10.061-1.807 14.14 1.912 3.833 3.495 4.62 9.18 1.997 14.412-1.964 3.916-5.497 6.263-9.89 6.568-5.384.375-10.099-2.611-12.383-7.844-.458-1.05-.947-1.908-1.085-1.908-.302 0-.052 2.038.706 5.767.753 3.704 1.539 6.25 2.88 9.335.62 1.426 1.057 2.706.97 2.845-.21.34-13.361.325-13.572-.016zm-131.77-9.57c-.104-.168.265-1.37.82-2.672 1.596-3.748 1.622-3.963.311-2.592-2.476 2.59-6.376 2.208-7.968-.782-.747-1.4-.726-4.169.04-5.423 1.186-1.938 3.545-2.747 5.862-2.007l1.424.454-.465-.63c-1.406-1.908-1.728-4.497-.78-6.261 1.631-3.034 5.251-3.738 7.878-1.533 1.89 1.586 2.38 4.421 1.169 6.741-.35.668-.595 1.253-.546 1.302.049.048.614-.052 1.256-.223 4.233-1.127 7.255 3.354 5.19 7.696-1.072 2.253-4.097 3.43-6.127 2.382-.823-.424-2.104-1.728-2.912-2.963-.593-.907-.126 1.41.802 3.972.58 1.603.713 2.299.483 2.528-.417.416-6.18.426-6.437.01zm1.313-27.427c-1.954-.331-3.492-1.062-4.74-2.253-1.309-1.25-2.492-3.564-2.496-4.884-.003-.83.102-.945 1.009-1.115 1.61-.301 2.243.032 3.187 1.68 1.205 2.103 2.773 2.91 5.3 2.725 4.602-.337 7.38-4.525 6.448-9.725-.725-4.048-2.94-6.353-6.102-6.35-1.987.002-3.55.703-5.053 2.266-.63.654-1.286 1.19-1.46 1.19-.172 0-.724-.358-1.226-.795l-.913-.794.57-6.066c.458-4.86.667-6.139 1.052-6.428.67-.503 13.129-.517 13.632-.014.534.532.449 3.019-.11 3.233-.252.096-2.793.175-5.647.175h-5.188v2.022c0 1.113.032 2.023.072 2.023.04 0 .965-.187 2.055-.414 3.44-.718 6.509.16 8.998 2.573 3.677 3.565 4.423 10.22 1.74 15.503-1.518 2.987-3.64 4.603-6.969 5.307-2.174.46-2.263.462-4.159.141z" fill="#b1b1b1"/><path d="M0 157.44V0h217.76v314.88H0V157.44zm211.69 156.25a9.26 9.26 0 0 0 4.375-4.251l.673-1.35v-301l-.783-1.48c-.43-.814-1.382-2.007-2.115-2.65C211.237.672 221.64.878 108.61.88L7.39.884l-1.448.674c-2.113.985-3.185 2.01-4.182 4L.875 7.326v150.13c0 133.57.049 150.27.44 151.38.86 2.431 2.833 4.325 5.447 5.227 1.428.493 6.143.514 102.41.453l100.91-.063 1.612-.754zm-21.281-20.066c-.522-.52-.593-1.639-.155-2.454.28-.521.656-.558 5.615-.558 4.58 0 5.34-.064 5.492-.457.224-.584.23-3.726.007-3.948-.093-.093-.633.025-1.2.262-.567.236-1.963.439-3.103.45-3.869.04-7.312-2.261-9.075-6.066-1.103-2.38-1.264-6.655-.365-9.655 1.305-4.354 3.8-6.777 7.842-7.618 2.361-.491 5-.239 6.767.648 2.206 1.106 4.187 3.77 4.307 5.793.053.91-.046 1.101-.693 1.335-1.238.447-2.157.025-2.975-1.367-1.466-2.496-3.402-3.385-6.396-2.937-5.482.82-7.763 8.254-4.233 13.797 2.114 3.32 6.766 3.443 9.77.257.613-.65 1.245-1.181 1.404-1.18.16 0 .67.304 1.135.675l.845.674-.517 6.04c-.403 4.706-.618 6.121-.973 6.402-.333.264-2.15.361-6.75.361-5.336 0-6.364-.069-6.75-.454zm-132.27-15.7c-3.442-1.098-6.255-3.507-7.705-6.6-.699-1.49-.775-1.98-.777-4.975-.001-3.222.03-3.388 1.044-5.506.575-1.2 1.644-2.856 2.376-3.678 1.406-1.58 2.107-2.659 1.728-2.661-.125 0-1.14.458-2.254 1.019-2.75 1.384-5.064 1.789-7.58 1.326-3.922-.72-7.031-2.894-8.802-6.153-.95-1.747-.992-1.952-.992-4.857 0-2.4.137-3.426.653-4.911 1.799-5.174 6.585-8.392 11.906-8.006 1.215.088 2.795.37 3.512.624 3.09 1.101 6.006 3.95 7.28 7.111.348.864.807 1.761 1.02 1.994.329.36.387.252.386-.722 0-2.982-1.776-10.28-3.37-13.856-.566-1.272-1.097-2.604-1.18-2.961l-.15-.65H68.69l-.15.65c-.083.357-.754 2.1-1.492 3.872-1.664 4-2.729 8.116-2.968 11.474-.22 3.09.208 3.298 1.194.58.872-2.402 1.663-3.591 3.507-5.273 4.66-4.248 12.521-3.779 16.908 1.01 2.561 2.795 3.567 6.202 2.948 9.98-.917 5.6-4.275 9.1-9.68 10.094-2.373.436-4.936.046-7.3-1.11-.864-.423-1.645-.694-1.736-.604-.091.091.531 1.135 1.383 2.32 1.927 2.679 2.711 4.471 3.127 7.148.939 6.033-2.518 11.492-8.44 13.33-2.264.704-5.63.7-7.851-.01zm93.876.144c-4.797-1.334-8.154-4.917-9.035-9.644-.693-3.715.759-8.17 3.814-11.704 1.348-1.559 1.726-2.215 1.276-2.215-.1 0-1.2.509-2.445 1.13-1.578.789-2.828 1.191-4.121 1.33-4.967.53-10.016-2.285-12.185-6.793-.818-1.7-.9-2.124-.87-4.478.094-7.206 4.534-12.329 11.072-12.776 1.639-.112 2.707-.02 3.966.343 4.48 1.29 6.936 3.703 9.067 8.91.54 1.32.994.643.77-1.147-.602-4.805-2.432-11.328-4.103-14.623-.386-.761-.624-1.509-.53-1.661.22-.355 13.075-.375 13.294-.02.088.14-.287 1.236-.834 2.433-2.086 4.565-3.538 9.96-3.7 13.744-.103 2.408.412 2.617 1.097.445 1.09-3.458 3.34-6.004 6.69-7.569 1.515-.708 2.002-.788 4.73-.773 3.438.019 5.132.54 7.574 2.328 6.952 5.09 5.825 16.973-1.947 20.522-3.411 1.558-6.972 1.532-10.562-.075-.955-.428-1.8-.716-1.875-.64-.075.075.466.907 1.204 1.847 3.465 4.42 4.458 9.539 2.726 14.06-.742 1.936-2.961 4.505-4.842 5.605-2.921 1.708-7.107 2.289-10.231 1.42zm43.334-19.651c-2.274-.809-3.375-2.447-3.375-5.02 0-1.477.137-1.914.98-3.136l.979-1.42-1.613.543c-1.834.617-3.19.491-4.467-.415-2.191-1.557-2.505-5.508-.615-7.75 1.015-1.203 2.14-1.735 3.665-1.735 1.685 0 2.978.888 4.215 2.898l.973 1.58-.16-1.493c-.088-.821-.493-2.456-.9-3.633-.407-1.177-.74-2.293-.74-2.48 0-.239.938-.339 3.185-.339 2.491 0 3.185.086 3.185.393 0 .216-.451 1.366-1.002 2.557-1.038 2.241-1.709 4.56-1.319 4.56.123 0 .386-.39.584-.867.808-1.947 3.127-3.16 5.35-2.8 2.596.42 3.859 2.6 3.667 6.33-.056 1.068-1.527 2.663-2.999 3.251-1.316.525-2.634.42-4.08-.326-.459-.237-.885-.379-.948-.316-.063.062.262.625.721 1.249 1.441 1.958 1.69 4.184.675 6.053-.538.992-1.96 2.16-2.985 2.454-1.264.361-1.617.345-2.976-.138zm-93.338-72.448c.087-.358.76-2.107 1.495-3.888 1.686-4.08 2.742-8.162 2.965-11.462.209-3.086-.217-3.29-1.202-.576-.872 2.402-1.663 3.59-3.507 5.272-5.582 5.09-15.293 3.2-18.774-3.652-2.252-4.434-1.256-10.789 2.237-14.274 3.502-3.494 9.191-4.354 13.71-2.073.847.427 1.62.697 1.719.599.098-.099-.436-.994-1.186-1.99-2.42-3.21-3.426-5.952-3.431-9.342-.01-6.525 4.776-11.49 11.49-11.917 5.5-.35 10.128 2.18 12.398 6.78.826 1.675.96 2.268 1.056 4.685.164 4.144-.833 6.654-4.298 10.821-.645.776-1.106 1.477-1.024 1.56.083.081 1.099-.332 2.258-.92 5.036-2.55 10.09-1.914 14.131 1.777 2.21 2.018 3.228 4.146 3.405 7.11.248 4.171-.97 7.617-3.625 10.249-3.606 3.575-8.754 4.502-13.277 2.39-3.155-1.473-5.572-4.1-6.81-7.4-1.285-3.426-1.513-1.077-.419 4.314.712 3.506 2.313 8.556 3.365 10.614 1.052 2.057 1.317 1.972-6.14 1.972h-6.694l.158-.65zm-46.825-93.2c-.086-.139.347-1.41.962-2.825 1.67-3.84 2.828-7.7 3.337-11.125.251-1.683.456-3.336.456-3.673 0-1.011-.798-.692-1.176.47-1.112 3.426-3.449 6.319-6.208 7.685-6.035 2.99-13.784.261-16.595-5.844-.563-1.223-.777-2.233-.868-4.09-.271-5.566 1.982-9.655 6.557-11.903 1.812-.89 2.09-.942 5.109-.942 3.03 0 3.291.049 5.168.965 1.088.53 2.044.898 2.125.817.081-.081-.5-.99-1.292-2.022-2.65-3.45-3.693-6.533-3.475-10.282.41-7.063 7.295-12.29 14.499-11.005 7.079 1.262 11.577 7.394 10.369 14.135-.469 2.617-1.592 4.86-3.628 7.248-1.4 1.641-2.057 2.847-1.392 2.552.12-.053 1.253-.616 2.519-1.252 2.25-1.13 2.369-1.155 5.357-1.155 2.735 0 3.235.084 4.772.802 3.554 1.66 5.862 4.34 6.718 7.802.414 1.672.435 2.303.15 4.321-1.255 8.846-9.425 13.457-17.316 9.773-2.52-1.176-4.44-3.205-5.919-6.254-.65-1.339-1.315-2.434-1.479-2.434-.363 0-.12 2.204.67 6.056.756 3.7 1.559 6.305 2.884 9.374.612 1.416 1.045 2.684.963 2.817-.2.322-13.068.312-13.268-.011zm93.497-.05c-.103-.167.471-1.903 1.277-3.858.806-1.954 1.795-4.84 2.2-6.413.874-3.406 1.3-7.915.747-7.915-.198 0-.437.292-.53.649-.47 1.79-2.492 5.176-3.768 6.309-4.77 4.233-12.303 3.968-16.878-.596-4.993-4.982-4.295-14.151 1.398-18.349 3.263-2.407 8.247-2.848 12.061-1.067 1.086.507 2.024.921 2.086.921.375 0-.048-.782-1.153-2.136-2.612-3.2-3.99-7.645-3.423-11.052.766-4.616 3.729-8.16 8.065-9.648 6.275-2.154 13.125.574 15.81 6.296.745 1.59.932 2.4 1.03 4.455.195 4.059-.9 6.903-4.09 10.613-.736.858-1.277 1.661-1.2 1.785.077.124 1.197-.31 2.489-.964 2.054-1.04 2.649-1.205 4.727-1.313 4.02-.21 6.94.95 9.689 3.849 1.945 2.051 2.69 3.749 2.853 6.503.416 6.993-3.649 12.448-10.113 13.57-5.377.935-10.938-2.243-13.274-7.585-.538-1.232-1.085-2.239-1.216-2.239-1.141 0 1.272 10.73 3.556 15.807.474 1.055.796 2.09.715 2.3-.188.488-12.758.564-13.059.078zm-131.88-9.9c0-.211.446-1.414.99-2.673.545-1.26 1.072-2.81 1.172-3.445l.181-1.156-.483.867c-1.188 2.131-2.585 3.033-4.698 3.033-2.612 0-4.337-1.814-4.601-4.84-.124-1.414-.044-1.808.54-2.664 1.082-1.58 2.4-2.32 4.119-2.307.812.005 1.803.196 2.2.423 1.306.744 1.461.454.459-.856-1.852-2.42-1.762-4.913.255-7.043 1.19-1.256 1.326-1.318 3.09-1.413 1.514-.082 2.046.018 2.98.561 2.577 1.5 3.18 4.85 1.392 7.72l-.9 1.445 1.15-.459c1.641-.655 4.083-.414 5.08.502 1.05.967 1.552 2.287 1.552 4.088 0 1.838-.659 3.193-2.13 4.382-2.185 1.763-5.363.856-6.86-1.96-.39-.734-.8-1.334-.909-1.334-.341 0 .08 2.058.954 4.656.46 1.37.837 2.572.837 2.672 0 .1-1.433.183-3.185.183-2.45 0-3.185-.089-3.185-.383zm-.057-27.466c-2.74-.736-5.013-2.992-5.744-5.699-.436-1.616-.161-1.985 1.483-1.985 1.34 0 1.439.055 1.966 1.087.666 1.3 1.954 2.64 2.878 2.991 1.066.406 4.027.296 5.202-.193 1.359-.565 2.827-1.96 3.636-3.452.523-.966.626-1.63.624-4.044-.002-2.414-.115-3.138-.686-4.403-.798-1.765-2.4-3.322-3.943-3.83-2.177-.716-5.335.36-6.897 2.35-.76.97-1.475 1-2.63.114-.535-.411-.535-.553-.033-6.281.283-3.223.631-6.088.775-6.366.237-.46.876-.506 7.025-.506 7.325 0 7.115-.046 7.115 1.59 0 1.608.072 1.588-5.66 1.588-3.077 0-5.382.117-5.481.277-.323.522-.523 3.972-.24 4.147.153.094.92-.027 1.703-.27 1.899-.588 4.862-.39 6.58.44 5.96 2.879 7.913 10.736 4.391 17.668-2.024 3.984-7.274 6.063-12.064 4.777z" fill="#919191"/><path d="M0 157.44V0h217.76v314.88H0V157.44zm212.14 156.22c1.848-.972 3.687-3.022 4.286-4.775.413-1.209.456-15.592.456-151.45V7.315L216 5.553c-.99-1.977-2.365-3.322-4.315-4.222l-1.318-.608h-101.35c-99.198 0-101.38.011-102.79.554C4.336 2.004 2.25 3.985 1.4 5.86L.717 7.367.64 156.857c-.053 103.83.016 149.93.228 150.93.608 2.866 2.79 5.294 5.638 6.279 1.367.472 7.273.497 102.8.437l101.35-.063 1.484-.781zm-21.78-20.28c-.086-.223-.114-.84-.063-1.372l.092-.966 5.502-.145 5.502-.144.084-2.384c.046-1.31-.028-2.383-.166-2.383-.137 0-.872.212-1.632.47-4.184 1.423-9.215-.89-11.39-5.236-2.368-4.73-1.13-11.97 2.624-15.335 3.246-2.912 9.085-3.243 12.585-.713 1.47 1.062 2.701 3.105 2.892 4.799l.145 1.283h-1.413c-1.384 0-1.429-.028-2.12-1.327-1.096-2.062-2.31-2.826-4.705-2.96-2.588-.147-4.15.437-5.721 2.137-1.894 2.05-2.583 4.658-2.033 7.687 1.229 6.76 7.144 9.039 11.558 4.454 1.168-1.213 1.469-1.26 2.454-.386l.733.65-.539 5.823c-.296 3.203-.627 5.965-.734 6.139-.132.212-2.356.315-6.847.315-5.445 0-6.68-.074-6.808-.406zM58.78 277.95c-7.707-2.01-11.325-9.882-7.89-17.17.467-.993 1.587-2.7 2.488-3.792 1.396-1.694 1.989-2.78 1.516-2.78-.066 0-1.168.543-2.447 1.207-2.066 1.071-2.599 1.22-4.756 1.334-2.716.142-4.987-.363-7.047-1.567-1.714-1.002-3.783-3.318-4.684-5.244-1.58-3.372-.72-9.113 1.872-12.509 2.532-3.317 7.024-5.047 11.16-4.299 4.78.865 7.817 3.595 10.03 9.017.178.437.538.795.798.795.407 0 .446-.235.276-1.661-.572-4.803-2.09-10.466-3.804-14.188-.54-1.17-.909-2.243-.822-2.383.208-.336 12.783-.334 12.99.002.088.141-.287 1.236-.834 2.433-1.967 4.305-3.316 9.17-3.785 13.65-.146 1.39-.091 1.828.266 2.123.495.41.506.391 1.514-2.404 1.099-3.05 3.91-5.856 6.925-6.911 4.273-1.497 9.461-.313 12.794 2.919 4.187 4.06 4.362 12.095.36 16.64-3.19 3.624-9.067 4.688-13.823 2.502-1.156-.532-2.19-.88-2.296-.773-.107.106.087.549.43.983 1.552 1.96 2.97 4.254 3.574 5.777.541 1.365.658 2.217.66 4.835.003 2.834-.08 3.357-.766 4.84-1.554 3.353-5.033 6.038-8.85 6.83-2.08.43-3.614.377-5.85-.206zm94.139.212c-3.66-.717-7.226-3.39-8.798-6.595-.887-1.809-.934-2.07-.934-5.226 0-3.229.03-3.382 1.052-5.488.578-1.192 1.656-2.863 2.395-3.715 2.631-3.03 2.408-3.416-.974-1.692-2.367 1.206-2.421 1.218-5.472 1.218-2.852 0-3.222-.067-4.964-.898-2.519-1.203-4.326-2.867-5.502-5.068-.8-1.5-.994-2.218-1.103-4.097-.401-6.907 3.585-12.35 9.886-13.5 5.7-1.039 11.922 2.913 13.791 8.758.472 1.473 1.17 1.438 1.17-.058 0-2.982-1.98-10.833-3.63-14.398-.551-1.19-1.002-2.343-1.002-2.562 0-.328 1.124-.384 6.442-.32 6.243.075 6.442.096 6.394.655-.027.318-.652 2.035-1.39 3.816-.736 1.781-1.662 4.51-2.057 6.063-1.54 6.058-1.089 10.967.556 6.041 2.543-7.617 11.563-10.569 18.256-5.975 4.84 3.322 6.361 9.575 3.745 15.39-.924 2.055-3.236 4.304-5.523 5.374-1.494.698-1.997.779-4.857.779-3.016 0-3.297-.052-5.103-.94-1.052-.516-1.994-.938-2.093-.938-.454 0-.079.779 1.164 2.416 3.64 4.795 4.456 10.059 2.253 14.55-2.337 4.766-8.169 7.494-13.702 6.41zm41.521-20.276c-.763-.426-1.38-1.086-1.81-1.934-1.09-2.157-.776-4.283.933-6.306.443-.523.739-1.016.658-1.096-.08-.08-.688.136-1.35.48-1.619.842-4.022.686-5.13-.334-3.787-3.484-.214-10.662 4.436-8.914 1.138.429 2.538 1.847 3.143 3.185.281.622.636 1.13.79 1.13.432 0-.02-2.457-.955-5.195-.461-1.349-.734-2.556-.606-2.684.128-.127 1.459-.194 2.957-.148 2.704.083 2.725.09 2.683.806-.023.397-.52 1.863-1.104 3.257-.592 1.411-1.022 2.883-.972 3.322.085.729.156.67.96-.79 1.052-1.909 2.306-2.723 4.199-2.723 1.818 0 3.17.821 3.981 2.418 1.28 2.52.616 5.333-1.55 6.572-1.473.842-3.068.824-4.965-.057-.836-.389-1.52-.644-1.52-.567 0 .077.516.792 1.147 1.588 1.752 2.211 1.916 4.458.483 6.619-1.338 2.017-4.166 2.622-6.408 1.37zm-92.364-71.553c-.095-.154.105-.823.445-1.488 1.888-3.69 3.49-9.005 4.06-13.469.275-2.145.269-2.757-.031-3.117-.476-.572-.678-.334-1.277 1.508-1.866 5.74-7.254 9.09-13.128 8.163-2.632-.415-4.771-1.47-6.7-3.305-2.321-2.21-3.277-4.347-3.444-7.708-.29-5.81 2.652-10.426 7.719-12.113 1.49-.497 2.34-.59 4.488-.495 2.267.1 2.917.25 4.505 1.044 2.928 1.462 3.011 1.273.756-1.718-2.096-2.779-3.07-5.227-3.26-8.203-.416-6.464 3.682-11.47 10.318-12.606 3.826-.654 8.282.749 11.005 3.465 4.662 4.65 4.65 11.777-.027 17.332-1.484 1.761-2.159 2.855-1.913 3.1.083.083 1.224-.405 2.535-1.085l2.384-1.236 3.23.005c2.872.004 3.407.089 4.823.756 4.185 1.974 6.961 5.925 6.944 9.886-.008 1.832-.777 5.06-1.612 6.763-3.424 6.982-13.45 8.338-19.033 2.575-1.509-1.557-2.011-2.356-3.076-4.89-.357-.851-.758-1.373-1.055-1.373-.412 0-.45.228-.274 1.66.58 4.722 2.17 10.662 3.797 14.189.54 1.17.91 2.243.823 2.383-.218.353-12.784.33-13.004-.023zm-46.773-93.85c0-.136.58-1.627 1.288-3.314 2.115-5.036 3.473-10.56 3.289-13.381-.11-1.695-.645-1.925-1.114-.478-1.896 5.838-6.002 9.042-11.59 9.042-5.669 0-10.424-3.664-11.752-9.057-.624-2.533-.24-5.964.95-8.473 2.66-5.607 9.834-7.973 15.618-5.15.818.399 1.637.725 1.82.725.496 0 .403-.739-.15-1.192-.893-.73-2.942-4.169-3.52-5.902-1.18-3.548-1.073-6.423.356-9.536 4.147-9.037 18.293-8.973 22.55.101.74 1.577.927 2.391 1.026 4.443.194 4.063-.901 6.902-4.1 10.624-.743.864-1.35 1.677-1.35 1.806 0 .466.885.214 2.668-.76 4.679-2.555 10.041-1.832 13.981 1.885 2.153 2.031 3.104 4.033 3.27 6.878.328 5.661-2.239 10.376-6.83 12.546-1.797.849-2.167.917-4.981.917-2.817 0-3.184-.068-4.988-.92-2.92-1.38-4.66-3.167-6.198-6.366-.71-1.474-1.415-2.68-1.567-2.68-1.13 0 .859 9.65 3.095 15.022.563 1.35 1.091 2.682 1.175 2.96.142.472-.294.506-6.396.506-3.602 0-6.549-.11-6.549-.246zm93.429.03c-.073-.12.256-1.062.73-2.095 2.043-4.438 3.595-10.198 3.767-13.981.1-2.188-.364-2.875-.962-1.425-1.993 4.833-3.527 6.757-6.586 8.258-1.8.884-2.085.937-5.097.937-2.986 0-3.316-.06-5.137-.92-2.596-1.227-4.632-3.173-5.802-5.545-.898-1.82-.938-2.047-.923-5.23.02-4.17.614-5.89 2.882-8.334 3.507-3.779 9.208-4.801 13.805-2.477 1.298.656 2.264.887 2.264.54 0-.085-.637-.983-1.415-1.995-2.624-3.416-3.666-6.513-3.45-10.25.44-7.572 7.902-12.585 15.713-10.556 4.783 1.243 8.064 4.792 8.894 9.62.665 3.872-.57 7.697-3.655 11.314-1.524 1.787-1.94 2.6-1.333 2.6.151 0 1.16-.459 2.244-1.02 2.664-1.38 4.994-1.789 7.538-1.321 4.809.884 8.297 3.943 9.52 8.348.438 1.58.46 2.144.17 4.304C181 80 176.358 84.35 170.091 84.35c-5.166 0-9.524-3.162-11.687-8.478-.365-.898-.783-1.633-.929-1.633-.556 0-.583.97-.105 3.83.883 5.285 1.961 8.792 4.394 14.297.125.283-1.255.362-6.37.362-3.59 0-6.589-.098-6.662-.217zm-131.78-9.57c-.088-.142.18-1.02.597-1.95.929-2.08 1.845-4.675 1.845-5.228 0-.727-.534-.258-1.23 1.08-.486.933-1.039 1.483-1.957 1.95-1.554.79-2.652.812-4.252.087-1.6-.724-2.406-2.252-2.405-4.553.001-2.13.726-3.384 2.394-4.139 1.627-.737 2.656-.703 4.482.145.836.388 1.52.603 1.52.478 0-.126-.48-.844-1.069-1.597-1.917-2.456-1.62-5.84.665-7.58 1.695-1.289 4.226-1.193 6.038.23 2.319 1.819 2.284 5.604-.074 8.118-.883.941-.577 1 1.141.223 3.281-1.485 6.098.12 6.525 3.719.143 1.209.044 1.71-.592 2.98-.42.84-1.099 1.769-1.509 2.064-.85.61-2.632.923-3.718.65-1.083-.27-2.598-1.714-3.202-3.05-1.361-3.012-1.26.252.125 4.04.455 1.243.753 2.335.662 2.425-.273.272-5.813.186-5.986-.093zm.822-27.472c-2.908-.604-5.008-2.147-6.096-4.478-1.152-2.467-.879-3.324 1.058-3.324.68 0 1.017.288 1.931 1.65 1.5 2.235 2.589 2.83 5.161 2.819 3.115-.014 5.252-1.393 6.476-4.18 1.251-2.85 1.035-6.402-.56-9.188-1.218-2.126-2.537-3.029-4.65-3.181-2.258-.163-3.918.479-5.575 2.155-1.272 1.288-1.292 1.296-2.144.857-.473-.244-.92-.611-.993-.816-.27-.75.92-12.175 1.292-12.413.2-.128 3.295-.2 6.878-.162l6.515.071V28.17l-5.501.144-5.502.145-.087 1.993c-.118 2.73-.046 2.86 1.29 2.303 1.51-.63 4.536-.615 6.47.031 2.2.735 4.852 3.378 5.805 5.783.882 2.227.989 6.908.214 9.389-1.124 3.6-3.449 6.203-6.29 7.045-1.926.57-4.272.764-5.692.469z" fill="#6e6e6e"/><path d="M0 157.44V0h217.76v314.88H0V157.44zm212.5 156.15c1.72-.95 2.892-2.217 3.877-4.19l.653-1.308V7.372l-.759-1.615c-.974-2.073-2.852-3.866-4.818-4.6-1.538-.573-2.168-.577-103.1-.503L6.803.728l-1.448.768C3.48 2.493 2.24 3.81 1.322 5.783l-.73 1.58-.003 150.1c-.003 139.66.03 150.19.482 151.52.676 1.983 3.266 4.548 5.189 5.138 1.256.386 13.145.43 103.06.383l101.64-.053 1.55-.857zm-21.907-20.144c-.375-.374-.455-1.349-.172-2.085.152-.394.922-.457 5.607-.457h5.432l.184-1.34c.26-1.898.228-3.51-.075-3.696-.142-.088-.696.02-1.23.24-3.475 1.427-7.773.351-10.366-2.595-3.581-4.069-3.691-11.408-.244-16.197 2.54-3.528 8.414-4.83 12.533-2.779 2.105 1.049 3.873 3.486 3.991 5.503.063 1.066.052 1.077-1.131 1.163-1.139.083-1.23.028-1.944-1.188-1.191-2.028-2.508-3.01-4.344-3.239-3.194-.398-6.146 1.148-7.656 4.008-.693 1.314-.785 1.808-.786 4.232-.001 2.405.099 2.958.811 4.477.959 2.043 1.695 2.892 3.157 3.64 2.39 1.223 6.155.293 8.038-1.986.82-.993.892-1.021 1.627-.629.423.226.84.594.926.82.241.627-.816 11.684-1.156 12.093-.42.505-12.696.519-13.202.015zm-132.45-15.82c-3.436-1.096-5.988-3.27-7.424-6.325-.694-1.477-.77-1.968-.77-4.961 0-3.157.047-3.422.952-5.328.524-1.103 1.436-2.578 2.027-3.278 1.386-1.64 2.378-3.018 2.378-3.302 0-.444-.904-.21-2.393.618-.834.463-2.224 1.048-3.089 1.3-5.114 1.486-10.98-1.09-13.537-5.945-.74-1.404-.812-1.814-.814-4.575-.002-3.57.55-5.598 2.146-7.877 3.03-4.326 8.811-5.967 14.015-3.978 3.153 1.206 5.58 3.984 7.392 8.46.177.437.52.795.762.795 1.396 0-1.104-11.801-3.501-16.53-.38-.749-.691-1.496-.691-1.66 0-.197 2.18-.299 6.37-.299 3.504 0 6.37.108 6.37.24 0 .13-.513 1.42-1.141 2.865-2.785 6.405-4.4 15.035-2.869 15.325.358.067.635-.38 1.1-1.775 1.143-3.425 3.322-5.955 6.35-7.371 1.451-.679 1.975-.762 4.828-.762 3.118 0 3.258.029 5.407 1.088 4.773 2.354 7.208 7.034 6.393 12.285-.47 3.026-1.613 5.29-3.596 7.123-2.322 2.144-4.214 2.843-7.785 2.877-2.53.024-2.91-.048-4.738-.912-3.233-1.528-3.509-1.25-1.458 1.472 1.82 2.415 2.688 4.219 3.203 6.652 1.638 7.741-3.933 14.377-12.022 14.32-1.303-.009-2.892-.232-3.865-.542zm94.095.263c-3.299-.83-6.499-3.339-7.897-6.19-2.302-4.693-1.392-9.91 2.566-14.712.9-1.093 1.638-2.165 1.638-2.383 0-.6-.903-.477-2.032.275-2.591 1.725-5.914 2.299-8.9 1.536-2.471-.632-3.958-1.44-5.733-3.114-2.775-2.619-3.787-6.22-2.91-10.351.615-2.892 1.695-4.92 3.553-6.674 2.116-1.996 4.275-2.937 7.113-3.101 5.49-.317 10.071 2.63 12.16 7.824.772 1.918 1.251 2.476 1.723 2.006.267-.266.205-1.177-.275-4.032-.744-4.425-1.768-8.075-3.14-11.198a1949.16 1949.16 0 0 1-1.174-2.672c-.123-.283 1.26-.361 6.389-.361 3.6 0 6.546.047 6.546.104 0 .058-.41 1-.909 2.095-2 4.38-3.365 9.337-3.852 13.978-.303 2.886.873 3.16 1.742.406 1.531-4.858 5.415-7.886 10.452-8.151 7.149-.377 12.554 4.624 12.543 11.603-.011 6.367-3.636 10.79-9.692 11.825-2.246.383-4.753-.007-6.965-1.088-1.513-.738-2.451-.926-2.451-.491 0 .131.6 1.009 1.334 1.95 2.702 3.467 3.72 6.41 3.532 10.205-.101 2.037-.288 2.826-1.04 4.387-1.14 2.369-3.174 4.322-5.756 5.528-1.65.77-2.299.906-4.697.981-1.531.048-3.272-.035-3.868-.186zm42.935-19.806c-2.04-.883-2.987-2.34-2.987-4.598 0-1.615.512-2.82 1.648-3.878.634-.592 1.017-1.466.641-1.466-.06 0-.85.338-1.756.752-1.33.607-1.893.715-2.925.56-2.9-.433-4.445-3.94-3.061-6.946.65-1.413 1.402-2.108 2.803-2.588 2.117-.726 4.006.187 5.368 2.596.492.87 1.013 1.654 1.157 1.743.56.346.22-2.368-.607-4.83-.478-1.422-.869-2.709-.869-2.859 0-.152 1.275-.272 2.896-.272 1.8 0 2.895.113 2.895.298 0 .164-.307.912-.683 1.661-1.001 1.995-2.004 5.21-1.795 5.754.231.603.557.282 1.396-1.374.966-1.907 2.27-2.663 4.343-2.519 1.418.1 1.818.262 2.668 1.083 1.807 1.748 2 5.344.369 6.873-1.7 1.593-3.747 1.796-6.089.604-1.673-.851-1.843-.536-.553 1.021 1.468 1.772 1.959 3.397 1.52 5.025-.816 3.019-3.68 4.527-6.38 3.36zm-92.863-72.267c.09-.278.762-1.963 1.495-3.744 1.813-4.404 2.77-8.274 2.841-11.486.049-2.205-.014-2.605-.42-2.688-.36-.072-.632.364-1.096 1.756-1.663 4.986-5.258 7.873-10.231 8.217-8.026.555-14.078-6.012-12.688-13.768 1.01-5.637 4.931-9.301 10.449-9.761 2.12-.178 5.003.425 6.526 1.364 1.055.651 1.871.742 1.871.21 0-.2-.704-1.298-1.565-2.44-3.92-5.199-4.337-10.96-1.13-15.632 4.217-6.145 14.137-6.734 19.372-1.15 4.37 4.659 4.13 11.92-.565 17.211-2.738 3.085-2.5 3.718.745 1.97 2.307-1.24 4.446-1.734 6.704-1.543 4.663.393 8.821 3.49 10.232 7.619.627 1.837.384 6.314-.461 8.482-1.919 4.921-6.343 7.755-11.63 7.45-1.887-.109-2.657-.316-4.437-1.194-3.184-1.57-4.989-3.676-6.658-7.773-.596-1.462-1.34-1.45-1.34.022 0 3.184 1.979 11.02 3.798 15.04.459 1.015.835 1.957.835 2.094 0 .137-2.882.25-6.404.25-5.968 0-6.393-.035-6.242-.506zm-46.793-93.26c-.097-.097.157-.91.563-1.806 2.056-4.54 3.346-8.965 3.87-13.272.252-2.08.246-2.782-.026-3.109-.518-.623-.965-.112-1.724 1.973-1.148 3.155-3.044 5.375-5.732 6.715-5.766 2.873-13.234.412-16.046-5.288-.91-1.842-.95-2.069-.943-5.253.006-2.785.116-3.6.672-4.988.927-2.315 3.097-4.596 5.49-5.772 1.824-.895 2.097-.946 5.124-.946 3.022 0 3.302.052 5.109.94 3.026 1.485 3.338 1.153 1.274-1.357-5.804-7.058-4.483-16.352 2.833-19.945 3.77-1.852 7.735-1.809 11.663.128 5.952 2.935 8.15 10.034 5.03 16.253-.46.919-1.558 2.515-2.438 3.548-1.426 1.671-2.012 2.889-1.393 2.889.12 0 1.31-.553 2.646-1.228 2.404-1.216 2.459-1.228 5.509-1.228 2.921 0 3.184.051 5.09.988 6.191 3.042 8.182 9.628 4.893 16.186-2.216 4.419-7.089 6.929-11.906 6.132-4.332-.716-7.784-3.466-9.64-7.68-.687-1.56-1.109-2.187-1.426-2.12-1.296.268.917 10.68 3.464 16.3.445.98.735 1.858.644 1.95-.223.221-12.376.211-12.6-.011zm93.318-.088c0-.145.446-1.304.992-2.576 2.793-6.509 4.563-15.234 3.198-15.757-.298-.114-.549.088-.765.619-2.547 6.24-4.862 8.464-9.758 9.372-4.539.842-9.972-1.631-12.304-5.601-2.937-5-1.548-12.388 2.952-15.707 3.24-2.39 8.236-2.827 12.04-1.051 1.085.506 2.089.921 2.23.921.435 0 .285-1.062-.208-1.47-.896-.741-2.758-3.762-3.45-5.594-1.857-4.924-.757-10.095 2.835-13.317 6.144-5.511 16.264-3.682 19.703 3.561.864 1.819.923 2.145.92 5.12-.003 4.482-.383 5.362-4.602 10.67-.644.809-.762 1.136-.501 1.396.26.26.525.218 1.13-.175 3.24-2.108 7-2.757 10.373-1.79 3.377.969 6.522 3.72 7.631 6.68 1.106 2.947.648 7.45-1.08 10.618-2.301 4.222-7.193 6.566-11.896 5.701-4.322-.794-7.293-3.146-9.377-7.42-.677-1.388-1.36-2.469-1.52-2.402-.433.182-.303 3.266.255 6.044.641 3.19 1.982 7.534 3.076 9.966.477 1.063.868 2.05.868 2.194 0 .148-2.753.261-6.37.261-3.641 0-6.37-.112-6.37-.263zm-131.62-9.65c-.08-.21.32-1.47.891-2.801 1.11-2.59 1.61-4.906 1.056-4.906-.178 0-.619.616-.98 1.37-.875 1.824-2.18 2.674-4.102 2.673-1.923-.001-3.22-.786-3.95-2.388-2.11-4.64 2.135-8.626 6.56-6.159.738.412 1.39.748 1.45.748.359 0-.016-.787-.796-1.674-1.287-1.462-1.787-2.824-1.63-4.444.398-4.139 5.396-5.833 8.234-2.792 1.808 1.937 1.588 5.45-.456 7.294-.555.5-.837 1.327-.454 1.327.086 0 .697-.275 1.357-.61 1.56-.795 3.767-.819 4.816-.052 1.693 1.237 2.329 4.473 1.303 6.63-.505 1.06-1.835 2.209-2.952 2.548-1.812.55-4.363-1.012-5.4-3.306-.495-1.097-1.31-1.598-1.305-.804.004.7 1.125 4.997 1.593 6.108.62 1.468.384 1.61-2.69 1.615-1.724.003-2.44-.103-2.545-.377zm-.85-27.847c-.798-.286-1.917-.875-2.487-1.309-1.228-.934-2.53-3.188-2.643-4.572-.08-.977-.068-.986 1.223-1.068 1.282-.082 1.314-.062 2.01 1.254 1.131 2.145 2.306 2.854 4.917 2.97 1.958.085 2.366.006 3.787-.733 2.648-1.38 4.049-3.963 4.052-7.472.005-5.168-3.317-9.164-7.232-8.701-1.815.214-3.022.827-4.575 2.32-1.205 1.16-1.261 1.181-2.027.755-1.021-.57-1.051-1.112-.42-7.643l.502-5.2H27.08v2.311l-5.406.145c-2.973.08-5.464.21-5.535.289-.314.35-.5 4.585-.21 4.764.168.104.971-.032 1.785-.302 3.178-1.053 6.955-.094 9.454 2.399 5.255 5.242 3.664 16.269-2.787 19.313-2.18 1.029-5.866 1.25-8.017.48z" fill="#4e4e4e"/><path d="M0 157.44V0h217.76v314.88H0V157.44zm212.43 156.37c1.778-.949 3.799-3.342 4.313-5.108.384-1.316.426-18.95.36-151.7l-.073-150.21-.773-1.463c-.905-1.709-2.705-3.425-4.4-4.193C210.694.61 207.846.594 108.879.59L7.098.587 5.65 1.26c-2.113.985-3.185 2.01-4.182 4L.583 7.029v150.41c0 135.27.045 150.54.45 151.72.789 2.31 3.237 4.627 5.445 5.154.5.12 46.776.198 102.84.174l101.93-.043 1.19-.636zm-21.894-21.463v-1.155h5.299c3.735 0 5.402-.103 5.646-.347.215-.214.348-1.265.348-2.744 0-2.695.03-2.668-2.149-1.928-2.995 1.018-6.933-.004-9.311-2.416-4.196-4.255-3.95-13.02.488-17.463 3.284-3.287 10.073-3.397 13.263-.215 1.129 1.126 2.037 2.944 2.046 4.097.006.732-.082.795-1.124.795-1.033 0-1.197-.112-1.89-1.29-1.25-2.13-2.487-2.874-4.992-3-1.859-.093-2.337-.007-3.739.678-4.541 2.216-5.728 9.094-2.402 13.917 1.18 1.712 3.527 2.832 5.457 2.604 1.772-.21 3.337-1 4.627-2.34 1.13-1.175 1.435-1.245 2.305-.531l.617.505-.439 4.767c-.241 2.621-.512 5.318-.602 5.994l-.164 1.227h-13.284v-1.155zm-131.76-14.69c-9.162-2.39-11.841-12.802-5.253-20.419 1.44-1.666 2.052-2.856 1.665-3.243-.1-.1-1.306.393-2.678 1.097l-2.494 1.28h-3.22c-2.941 0-3.365-.07-4.87-.808-5.04-2.469-7.36-7.156-6.212-12.552 1.632-7.679 8.225-11.522 15.469-9.018 3.193 1.104 5.975 3.955 7.295 7.475.686 1.83 1.192 2.28 1.775 1.58.798-.96-1.335-10.583-3.387-15.277-.555-1.27-1.037-2.44-1.07-2.6-.06-.289 11.43-.585 12.141-.313.237.09.002.93-.751 2.678-2.092 4.858-3.087 8.534-3.624 13.38-.128 1.152-.062 1.746.238 2.156.58.792 1.154.254 1.774-1.662 2.257-6.978 9.493-10.105 16.247-7.02 2.226 1.016 4.503 3.268 5.513 5.45.764 1.65.833 2.07.833 5.12 0 3.135-.052 3.431-.923 5.265-1.11 2.336-2.969 4.225-5.24 5.325-1.497.725-1.96.803-4.84.811-3.03.01-3.289-.039-5.296-.977-1.592-.744-2.191-.905-2.443-.653-.251.25-.105.634.598 1.564 1.664 2.2 2.463 3.51 3.216 5.275.645 1.512.738 2.14.733 4.911-.006 2.915-.077 3.321-.851 4.911-1.59 3.262-4.773 5.686-8.495 6.467-2.074.435-3.61.382-5.85-.203zm94.107.209c-.717-.139-2.24-.712-3.383-1.275-2.379-1.17-4.003-2.818-5.228-5.308-.732-1.487-.8-1.903-.8-4.946 0-3.22.032-3.389 1.042-5.488.573-1.192 1.628-2.817 2.345-3.611 1.66-1.842 2.13-2.7 1.709-3.121-.227-.226-.983.045-2.706.97l-2.39 1.284h-3.191c-3.044 0-3.284-.045-5.19-.982-3.871-1.9-5.946-4.854-6.183-8.799-.415-6.903 3.43-12.113 9.762-13.226 5.476-.962 11.247 2.609 13.217 8.18.531 1.5.923 1.981 1.452 1.78 1.216-.466-.89-10.9-3.214-15.916-.553-1.195-1.006-2.285-1.006-2.421 0-.137 2.801-.248 6.225-.248 3.425 0 6.226.097 6.225.216 0 .12-.506 1.387-1.124 2.817-2.636 6.104-4.329 14.415-3.136 15.403.594.492.989.028 1.748-2.058 1.185-3.258 2.902-5.287 5.646-6.675 4.455-2.252 10.258-1.3 13.817 2.267 2.594 2.6 3.728 6.3 3.097 10.104-.666 4.009-2.772 6.98-6.107 8.619-1.806.887-2.087.938-5.103.938-3 0-3.31-.056-5.178-.938-1.093-.517-2.103-.94-2.244-.94-.608 0-.17 1.197.912 2.497 2.754 3.305 4.114 7.69 3.512 11.317-1.11 6.687-7.532 10.912-14.526 9.56zm41.622-20.243c-2.71-1.61-2.967-5.516-.529-8.06 1.48-1.546.95-1.907-1.196-.816-.916.467-1.559.58-2.741.482-2.574-.213-3.762-1.92-3.503-5.035.145-1.74.757-2.77 2.25-3.783 2.214-1.504 4.764-.402 6.346 2.744.342.68.826 1.228 1.084 1.228.393 0 .435-.234.268-1.517-.109-.834-.564-2.585-1.013-3.89-.448-1.305-.745-2.442-.66-2.527.085-.085 1.321-.155 2.746-.155 3.031 0 2.942-.27 1.25 3.755-1.102 2.621-1.345 4.333-.616 4.333.236 0 .705-.645 1.049-1.442 1.056-2.45 3.475-3.417 5.888-2.352 1.629.719 2.466 2.263 2.476 4.567.005 1.196-.145 1.674-.752 2.393-1.6 1.898-3.932 2.284-6.148 1.02-1.17-.667-2.07-.917-2.07-.575 0 .08.601.917 1.337 1.861 2.088 2.683 2.075 5.2-.036 7.241-.863.834-1.242.986-2.673 1.073-1.331.08-1.889-.03-2.757-.545zm-92.006-71.711c0-.224.39-1.272.865-2.33 1.85-4.115 3.181-8.997 3.624-13.296.134-1.307.071-1.876-.256-2.311-.384-.512-.48-.529-.851-.145-.23.239-.633 1.097-.896 1.908-1.814 5.6-7.2 8.901-12.908 7.911-5.669-.983-9.478-5.065-9.793-10.495-.311-5.358 1.912-9.534 6.19-11.627 1.595-.78 1.958-.84 5.048-.84 3.211 0 3.4.034 5.297.984 1.516.759 2.045.906 2.31.642.23-.23.25-.47.06-.729-3.832-5.23-4.461-6.592-4.695-10.18-.123-1.883-.032-2.742.458-4.333 1.82-5.908 8.367-9.387 14.612-7.764 4.638 1.205 7.626 4.055 8.783 8.38 1.094 4.083-.073 8.226-3.484 12.373-1.477 1.796-2.044 3.081-1.358 3.081.147 0 1.332-.552 2.635-1.228l2.369-1.227h3.236c3.069 0 3.334.048 5.157.944 2.73 1.341 4.944 3.782 5.728 6.314 1.283 4.142.18 9.043-2.743 12.193-3.483 3.753-8.723 4.69-13.55 2.422-2.895-1.359-4.861-3.574-6.254-7.047-.698-1.74-1.221-2.193-1.77-1.532-.259.31-.223 1.136.15 3.522.795 5.065 2.306 10.239 3.903 13.36.308.603.478 1.176.379 1.275-.1.1-2.896.18-6.213.18-4.992 0-6.033-.07-6.033-.406zm-46.904-93.58c0-.056.596-1.519 1.324-3.25 1.848-4.39 3.04-9.142 3.11-12.383.047-2.256-.01-2.604-.45-2.693-.332-.067-.617.176-.839.714-1.889 4.582-2.828 5.972-5.027 7.439-2.89 1.928-6.94 2.442-10.311 1.31-2.319-.78-3.633-1.64-5.255-3.44-4.855-5.387-3-15.183 3.43-18.12 3.547-1.62 7.083-1.568 10.659.158.968.468 1.86.79 1.98.715.375-.231.244-1.168-.216-1.549-.817-.677-2.959-4.18-3.619-5.92-.859-2.262-.953-5.983-.205-8.118 1.158-3.31 3.54-5.796 6.794-7.09 1.376-.548 2.22-.665 4.851-.672 3.015-.007 3.296.044 5.248.957 2.544 1.19 4.699 3.295 5.814 5.68.742 1.587.81 2.012.801 5.055-.008 3.095-.069 3.45-.895 5.2-.487 1.032-1.689 2.831-2.67 3.998-2.73 3.247-2.356 3.8 1.285 1.9 3.804-1.984 7.153-2.02 11.025-.118 3.69 1.812 5.887 5.295 5.887 9.336 0 5.35-2.54 9.665-6.887 11.697-1.466.685-2.003.774-4.696.774-2.825 0-3.18-.066-5.014-.933-2.782-1.314-4.71-3.369-6.144-6.544-.79-1.748-1.266-2.48-1.574-2.418-1.402.283.6 10.52 3.177 16.25.477 1.062.868 1.984.868 2.049 0 .065-2.801.117-6.225.117-3.425 0-6.226-.045-6.226-.101zm93.998-1.56c2.04-4.505 3.35-8.957 3.867-13.146.227-1.83.225-2.695-.005-3.123-.529-.987-1.176-.515-1.853 1.353-1.346 3.712-3.195 5.885-6.209 7.295-1.449.677-1.976.76-4.812.76-2.981 0-3.31-.058-5.137-.922-2.426-1.146-4.632-3.296-5.653-5.509-1.629-3.529-1.073-9.307 1.177-12.252 2.294-3 5.386-4.438 9.48-4.41 2.156.015 2.727.135 4.448.939 2.071.967 3.069 1.155 3.069.579 0-.189-.597-1.101-1.326-2.027-2.721-3.455-3.76-6.492-3.537-10.337.357-6.154 5.442-10.692 11.979-10.692 6.547 0 11.675 4.454 12.19 10.589.315 3.76-.921 7.165-3.808 10.49-1.477 1.702-1.872 2.529-1.423 2.977.098.097 1.173-.342 2.39-.977 2.79-1.456 5.358-1.946 7.808-1.492 3.728.692 7.087 3.143 8.558 6.244 2.626 5.538-.153 13.226-5.764 15.945-1.574.763-2.007.84-4.771.84-3.875 0-5.635-.637-8.136-2.946-1.381-1.276-2.016-2.176-3.043-4.309-1.955-4.065-2.767-3.558-2.002 1.251.801 5.038 2.432 10.533 4.052 13.66l.457.88H148.84l.752-1.66zm-132.41-8.24c1.533-3.569 2.248-5.569 2.302-6.445.095-1.548-.545-1.59-1.202-.078-1.593 3.663-5.902 4.232-7.855 1.038-.736-1.206-.788-3.963-.097-5.131.622-1.05 2.37-2.022 3.636-2.022.549 0 1.639.325 2.422.721 2.474 1.253 2.812.842.997-1.215-.64-.725-1.234-1.747-1.338-2.3-.832-4.421 2.565-7.36 6.465-5.594 3.043 1.378 3.465 5.704.798 8.172-.493.456-.735.915-.629 1.191.15.388.395.348 1.807-.297 1.257-.574 1.934-.713 2.93-.6 3.775.424 4.827 5.67 1.718 8.565-.54.502-1.176.732-2.272.82-1.988.159-3.181-.625-4.397-2.886-.49-.912-1.071-1.659-1.293-1.661-.593-.007-.228 2.885.684 5.405.403 1.114.732 2.173.732 2.352 0 .22-.908.327-2.781.327-2.116 0-2.745-.087-2.627-.361zm-.093-27.518c-2.815-.772-4.796-2.584-5.543-5.072-.452-1.503-.194-1.998 1.04-1.998.882 0 1.09.143 1.576 1.083 1.302 2.521 3.705 3.779 6.509 3.408 4.624-.612 7.463-5.029 6.56-10.206-.556-3.185-2.4-5.912-4.547-6.726-2.261-.858-5.919.216-7.58 2.225-.755.915-.887.97-1.575.657-.414-.188-.808-.487-.877-.666-.197-.513.916-11.8 1.19-12.073.136-.135 3.105-.21 6.597-.168l6.35.078.09 1.228.088 1.228h-5.487c-4.737 0-5.511.062-5.663.456-.274.713-.206 4.69.083 4.869.142.088.761-.052 1.375-.31 1.522-.64 4.509-.626 6.471.032 2.166.727 4.572 3.121 5.525 5.499.594 1.482.692 2.208.683 5.053-.011 3.66-.466 5.315-2.16 7.866-2.03 3.059-6.755 4.62-10.705 3.536z" fill="#2e2e2e"/><path d="M0 157.44V0h217.76v314.88H0V157.44zm212.75 156.49c1.388-.756 2.878-2.356 3.696-3.967l.724-1.425-.003-150.88-.003-150.88-.677-1.444c-.756-1.614-2.89-3.73-4.392-4.356-.848-.353-15.458-.41-103.43-.408L6.225.573l-1.48.846c-1.624.93-2.733 2.099-3.602 3.799C.583 6.313.577 7.983.65 157.928l.073 151.61 1.014 1.405c1.334 1.85 2.913 3.092 4.263 3.355.601.117 47.156.194 103.45.172 97.282-.038 102.41-.065 103.3-.55zm-20.989-20.642c-.857-.106-.941-.206-.941-1.11v-.992h5.468c6.326 0 5.814.3 5.82-3.403.006-2.45-.239-2.687-2.029-1.972-1.49.595-4.428.595-6.177 0-1.973-.67-4.255-2.868-5.281-5.085-.774-1.672-.842-2.082-.842-5.14 0-2.763.112-3.614.665-5.066.989-2.6 2.516-4.442 4.535-5.472 1.583-.807 1.935-.872 4.77-.872 2.43 0 3.27.111 4.074.538 2.057 1.092 3.661 3.083 4.163 5.167.185.768.152.795-.98.795-.956 0-1.217-.122-1.424-.666-.8-2.098-3.212-3.65-5.689-3.66-3.058-.014-5.462 1.402-6.924 4.079-.702 1.285-.865 1.97-.965 4.043-.136 2.819.284 4.498 1.671 6.68 2.295 3.61 7.341 3.917 10.531.64.983-1.01 1.128-1.07 1.83-.75.731.332.755.416.585 2.039-.097.93-.328 3.558-.513 5.838-.191 2.368-.474 4.236-.658 4.357-.33.216-9.966.226-11.69.012zm-133.33-15.95c-4.864-1.551-7.943-5.278-8.268-10.008-.258-3.75.816-6.765 3.54-9.944 1.71-1.996 2.174-3.01 1.628-3.556-.255-.254-.874-.047-2.57.864-3.907 2.096-7.202 2.261-10.95.549-1.947-.89-4.402-3.305-5.309-5.224-1.35-2.854-1.01-7.636.771-10.903 1.054-1.932 3.476-4.076 5.51-4.878 2.15-.85 5.879-.924 8.079-.162 3.308 1.146 6.336 4.265 7.483 7.71.644 1.935 1.737 2.492 2.235 1.139.187-.51-.418-4.931-1.074-7.836-.578-2.562-2.07-6.978-2.936-8.685l-.696-1.373h12.147l-.863 1.92c-2.224 4.944-3.746 10.79-3.746 14.384 0 1.505.102 1.952.474 2.095.777.297 1.298-.26 1.968-2.107.349-.961.92-2.21 1.27-2.774.955-1.541 3.08-3.365 4.925-4.226 1.435-.67 2.011-.767 4.554-.768 2.784-.001 3.006.045 5.123 1.09 2.673 1.317 4.834 3.56 5.755 5.973.79 2.066.847 5.538.133 7.948-2.005 6.766-9.483 9.795-15.978 6.472-1.755-.899-2.721-.958-2.721-.167 0 .215.685 1.294 1.522 2.397 3.74 4.924 4.507 9.868 2.243 14.458-2.377 4.818-8.802 7.349-14.248 5.612zm94.009.173c-4.854-1.237-8.009-4.588-8.86-9.41-.63-3.562.711-7.58 3.65-10.942 1.587-1.814 2.073-2.714 1.749-3.237-.312-.504-1.032-.323-2.715.684-3.782 2.262-7.64 2.4-11.395.409-4.266-2.262-6.314-6.122-5.723-10.783.454-3.578 1.91-6.532 4.055-8.227 6.167-4.873 15.086-2.433 18.184 4.974.484 1.16 1.068 2.226 1.297 2.37.736.466 1.363-.026 1.363-1.07 0-1.488-1.06-7.02-1.896-9.9-.633-2.178-1.098-3.407-2.643-6.986-.122-.282 1.147-.361 5.81-.361 3.282 0 5.968.053 5.968.117 0 .065-.37.943-.823 1.95-2.338 5.212-4.327 13.763-3.676 15.81.271.852 1.53.826 1.873-.04.142-.357.552-1.412.91-2.344 2.669-6.937 11.026-9.246 17.466-4.826 4.518 3.1 5.835 9.747 2.997 15.12-1.555 2.943-4.324 4.843-7.885 5.41-2.419.386-4.434.05-7.12-1.185-2.893-1.33-3.476-.526-1.415 1.949 5.952 7.143 4.54 16.246-3.07 19.799-2.222 1.037-5.66 1.342-8.1.72zm42.213-20.124c-1.35-.821-2.094-2.187-2.096-3.848 0-1.592.273-2.22 1.634-3.737.534-.596.971-1.218.971-1.381 0-.627-1.005-.647-2.061-.04-1.332.764-3.852.857-4.825.177-.982-.686-1.594-2.121-1.594-3.738 0-2.677 1.742-4.767 3.972-4.767 1.727 0 3.012.938 4.074 2.973.667 1.278 1.003 1.646 1.448 1.585.496-.069.57-.273.511-1.426-.057-1.146-.933-4.354-1.664-6.093-.192-.458.019-.505 2.28-.505 1.37 0 2.492.101 2.492.225s-.465 1.327-1.035 2.672c-.57 1.346-1.108 3.064-1.198 3.82-.15 1.248-.11 1.371.437 1.371.428 0 .836-.435 1.416-1.508 1.411-2.613 3.641-3.486 5.864-2.297 1.358.727 2.045 2.12 2.045 4.152 0 1.438-.118 1.789-.895 2.672-1.536 1.745-3.512 1.898-5.954.46-1.152-.678-2.128-.769-2.128-.197 0 .216.501.963 1.114 1.66 1.512 1.723 1.782 2.309 1.782 3.864 0 1.585-.521 2.695-1.75 3.726-1.153.969-3.406 1.053-4.84.18zm-91.86-71.56c0-.114.592-1.666 1.315-3.45 1.73-4.264 2.742-8.273 2.942-11.658.133-2.238.082-2.817-.273-3.11-.745-.617-1.324-.083-1.952 1.8-.332.996-.969 2.382-1.414 3.08-4.679 7.326-15.771 6.64-19.928-1.234-.762-1.442-.815-1.767-.815-5.009 0-3.279.049-3.568.897-5.344 1.64-3.433 4.417-5.476 8.32-6.121 2.36-.39 4.38-.04 7.17 1.242 3.035 1.396 3.382.703 1.123-2.238-.801-1.042-1.699-2.37-1.995-2.95-1.455-2.85-1.89-6.91-1.043-9.754 2.015-6.767 10.358-9.89 17.244-6.455 3.633 1.813 5.796 5.196 6.018 9.413.206 3.929-.709 6.206-4.217 10.498-2.233 2.733-1.476 3.521 1.712 1.781 2.72-1.483 5.297-1.999 7.645-1.529 5.378 1.078 9.023 4.861 9.321 9.674.435 7.022-3.94 12.49-10.479 13.1-5.18.482-9.976-2.727-12.056-8.07-.635-1.63-1.244-2.288-1.89-2.041-1.336.512.758 10.922 3.364 16.716l.84 1.866h-5.925c-3.258 0-5.924-.093-5.924-.207zm-46.73-93.63c-.082-.132.354-1.406.97-2.83 1.535-3.553 2.533-6.946 3.05-10.366.553-3.663.55-4.599-.02-5.07-.74-.614-1.348.023-2.19 2.296-1.584 4.276-4.618 6.867-8.789 7.504C42.238 84.78 36.156 80.098 35.7 73.43c-.354-5.18 1.957-9.395 6.27-11.435 1.742-.823 2.147-.898 4.798-.889 2.642.01 3.07.092 4.89.94 1.097.51 2.237.928 2.534.928.941 0 .61-1.085-.955-3.116-2.518-3.271-3.606-6.47-3.361-9.887.27-3.761 2.687-7.415 6.024-9.101 7.468-3.776 16.096.229 17.668 8.2.656 3.328-.672 7.782-3.13 10.495-2.435 2.69-2.917 3.987-1.481 3.987.35 0 1.233-.38 1.963-.844 4.431-2.812 10.407-2.115 14.185 1.654 2.599 2.592 3.461 5.261 2.913 9.011-.635 4.342-3.035 7.857-6.435 9.424-1.626.75-2.107.832-4.846.832-2.817 0-3.183-.068-4.987-.92-2.707-1.28-4.375-3.077-5.932-6.393-1.088-2.316-1.353-2.678-1.905-2.6-.594.084-.637.232-.595 2.046.086 3.75 2.009 11.28 3.762 14.738.386.761.624 1.508.53 1.661-.213.344-11.335.379-11.547.037zm93.292.083c-.094-.094.255-1.104.776-2.244 2.185-4.79 3.72-10.941 3.57-14.313-.077-1.733-.147-1.925-.732-2.008-.683-.097-.957.34-1.956 3.125-1.533 4.276-5.6 7.003-10.427 6.994-5.01-.009-9.18-2.776-10.87-7.21-1.214-3.187-.718-7.897 1.137-10.81 2.963-4.651 10.145-6.291 14.895-3.401 1.96 1.192 3.145.373 1.81-1.25-3.222-3.914-4.356-6.907-4.163-10.99.103-2.177.27-2.933.927-4.209 2.472-4.797 7.859-7.376 13.12-6.281 4.676.972 7.823 3.655 9.104 7.761 1.366 4.38.197 8.816-3.423 12.987-1.622 1.868-2.018 3.12-.988 3.12.306 0 1.594-.538 2.863-1.196 1.944-1.008 2.652-1.219 4.485-1.336 5.292-.34 10.305 2.96 11.683 7.688.955 3.275.008 7.91-2.227 10.907-2.22 2.976-5.314 4.307-9.55 4.105-2.114-.101-2.836-.273-4.421-1.052-2.202-1.08-4.45-3.353-5.398-5.456-1.27-2.814-1.621-3.4-2.097-3.49-1.049-.201-1.169.913-.516 4.77.745 4.4 1.699 7.805 3.058 10.915.555 1.27 1.037 2.44 1.07 2.6.065.31-11.424.58-11.73.274zm-131-11.9c1.185-2.787 1.756-4.821 1.523-5.428-.315-.819-1.135-.317-1.899 1.162-1.048 2.03-2.34 2.835-4.297 2.679-1.186-.095-1.72-.307-2.393-.951-1.8-1.72-1.851-4.828-.107-6.515.937-.906 1.164-.985 2.813-.985 1.348 0 2.009.15 2.662.603 1.24.86 1.794 1.006 2.159.568.244-.294.011-.742-1-1.924-2.364-2.763-2.458-4.96-.304-7.11 1.123-1.12 1.375-1.237 2.658-1.237 1.946 0 3.286.761 4.088 2.321 1.1 2.142.73 4.224-1.05 5.894-.898.842-1.162 1.703-.624 2.035.155.095.903-.157 1.663-.56 3.692-1.962 6.782.087 6.383 4.231-.313 3.252-3.403 5.056-6.032 3.523-.56-.326-1.32-1.24-1.896-2.278-1.301-2.345-2.013-2.384-1.938-.106.03.894.388 2.62.797 3.833.408 1.214.742 2.27.742 2.346 0 .076-1.102.138-2.45.138h-2.45l.952-2.239zM16.65 54.654c-2.78-.959-4.675-2.974-4.989-5.305l-.149-1.107h1.052c.578 0 1.052.107 1.052.239 0 .675 1.863 2.902 2.925 3.498 1.503.843 4.423.93 6.196.187 1.43-.6 3.173-2.246 4.006-3.78.535-.985.627-1.623.627-4.333 0-2.722-.099-3.394-.685-4.688-.807-1.783-2.686-3.612-4.231-4.12-2.378-.784-5.761.257-7.486 2.303-.856 1.015-1.09 1.061-1.742.343-.446-.491-.447-.914-.01-5.994.258-3.006.516-5.63.572-5.832.08-.285 1.535-.35 6.553-.289l6.45.078v1.733l-5.44.079-5.438.078-.28.735c-.36.947-.365 4.944-.005 5.165.151.094 1.096-.107 2.1-.446 5.019-1.696 10.028 1.125 11.715 6.597.823 2.67.445 6.887-.895 9.983-.616 1.42-2.603 3.568-3.916 4.23-2.355 1.188-5.64 1.454-7.982.646z" fill="#010101"/></svg>