<svg xmlns="http://www.w3.org/2000/svg" height="335.872" width="232.277" viewBox="0 0 217.76 314.88008"><path d="M0 157.44V0h217.76v314.88H0V157.44z" fill="#fdfdfd"/><path d="M0 157.44V0h217.76v314.88H0V157.44zm211.9 155.69c1.94-.967 3.245-2.375 4.042-4.362.476-1.185.503-9.47.503-151.04 0-142.57-.025-149.85-.513-151.25-.625-1.786-2.432-3.732-4.238-4.566l-1.33-.613-101.06-.076c-94.759-.07-101.16-.044-102.65.42-2.203.686-4.408 2.875-5.043 5.01-.415 1.395-.458 15.525-.458 151.09 0 133.05.048 149.69.44 150.79.802 2.267 2.78 4.273 4.988 5.06.9.32 18.503.389 102.31.4l101.23.012 1.773-.884zm-18.387-19.35c-3.052-.423-5.494-2.267-6.23-4.704-.415-1.375-.113-1.628 1.952-1.634 1.289-.004 1.565.11 2.402.996 1.465 1.55 3.779 1.704 6.636.443 1.036-.457 1.375-.82 1.949-2.082.964-2.119 1.228-3.264.702-3.037-3.281 1.416-4.031 1.64-5.493 1.647-3.604.015-6.445-1.813-8.222-5.292-1.065-2.083-1.158-2.458-1.264-5.102-.34-8.452 3.388-13.064 10.218-12.639 3.994.249 6.896 2.117 8.336 5.367.842 1.897 1.373 5.952 1.375 10.498.003 6.524-1.19 10.717-3.757 13.203-1.964 1.902-5.264 2.798-8.604 2.336zm4.87-13.619c1.38-.773 2.757-2.677 3.126-4.32.176-.78.19-1.944.037-3-.608-4.191-2.433-6.202-5.632-6.202-3.403 0-5.572 2.39-5.882 6.48-.456 6.011 3.796 9.596 8.352 7.042zm-140.18-.81c-10.321-1.777-14.114-13.292-7.139-21.672.72-.864 1.282-1.597 1.25-1.628-.03-.032-.901.356-1.934.862-1.764.865-2.067.92-5.062.92-3.014 0-3.297-.053-5.279-.98-4.003-1.87-6.707-5.637-6.958-9.692-.394-6.367 3.458-12.127 9.087-13.59 6.012-1.563 12.05 1.24 14.742 6.844 1.206 2.511 1.287 2.008.407-2.537-.678-3.509-2.18-8.293-3.287-10.472-1.422-2.8-1.783-2.65 6.345-2.65 6.564 0 7.094.038 7.094.506 0 .278-.506 1.676-1.124 3.106-2.086 4.829-3.52 10.199-3.498 13.097l.01 1.346.525-1.452c.758-2.1 1.77-3.569 3.62-5.255 5.796-5.286 15.825-3.247 19.368 3.936.902 1.83.935 2.021.935 5.511 0 3.46-.04 3.699-.916 5.545-1.276 2.686-2.917 4.359-5.553 5.658-2.128 1.05-2.276 1.08-5.388 1.08-2.712 0-3.417-.1-4.62-.654-.782-.36-1.455-.62-1.497-.578-.041.042.564 1.026 1.345 2.187 1.984 2.948 2.675 5.357 2.522 8.793-.155 3.492-.92 5.461-2.99 7.691a13.285 13.285 0 0 1-12.004 4.078zm93.648-.12c-5.386-1.219-9.123-5.032-10.014-10.219-.637-3.702.847-8.537 3.501-11.41.65-.703 1.182-1.355 1.182-1.448 0-.093-.874.239-1.942.738-4.79 2.236-10.694 1.005-14.417-3.008-2.138-2.304-2.85-4.22-2.825-7.606.053-7.341 4.636-12.608 11.37-13.068 5.502-.377 10.007 2.327 12.628 7.58.67 1.34.96 1.73.864 1.155-.08-.477-.299-1.842-.487-3.033-.497-3.15-1.813-7.62-3.177-10.792-.654-1.523-1.107-2.903-1.006-3.066.118-.19 2.68-.297 7.116-.297h6.933v.732c0 .402-.32 1.36-.71 2.13-1.804 3.55-3.941 11.36-3.915 14.305.007.75.138.583.85-1.082 1.527-3.571 4.165-6.08 7.497-7.129 5.88-1.85 12.651.898 15.244 6.185 2.185 4.456 1.357 10.589-1.911 14.157-2.469 2.695-5.335 3.923-9.152 3.923-1.927 0-3.21-.297-5.725-1.323-.443-.18-.337.09.47 1.195 4.027 5.509 4.405 11.405 1.057 16.448-2.538 3.822-8.563 6.035-13.431 4.933zm42.579-22.374c-2.908-1.317-4.1-4.93-2.59-7.843l.423-.815-1.543.158c-2.96.305-5.08-1.562-5.341-4.703-.447-5.373 5.172-8.396 8.712-4.687 1.076 1.126 1.094 1.133.9.33-.109-.45-.511-1.697-.895-2.772-.384-1.074-.618-2.082-.52-2.239.1-.162 1.67-.285 3.633-.285 3.396 0 3.458.012 3.45.65-.004.358-.386 1.493-.849 2.523-.462 1.03-.795 1.92-.739 1.976.057.056.507-.196 1-.56.648-.478 1.4-.693 2.702-.773 1.529-.094 1.956-.007 2.81.571 1.974 1.338 2.883 3.564 2.464 6.036-.414 2.444-3.145 4.283-5.818 3.917-1.193-.163-1.31-.129-1.119.322 1.073 2.523 1.16 3.113.703 4.756-.606 2.176-2.955 3.969-5.2 3.969-.557 0-1.54-.24-2.184-.53zm-141.14-70.66c-.279-.334-.12-.924.798-2.96 2.058-4.57 3.874-11.374 3.8-14.244l-.018-.722-.307.722c-1.846 4.345-3.756 6.615-6.693 7.957-5.693 2.6-13.327.241-16.286-5.03-2.741-4.884-1.761-11.78 2.199-15.475 3.5-3.266 8.536-4.18 13.038-2.366.94.378 1.62.542 1.511.363a48.5 48.5 0 0 0-1.151-1.657c-1.355-1.891-2.358-4.304-2.758-6.63-.892-5.19 1.701-10.467 6.337-12.895 2.377-1.244 4.34-1.636 7.3-1.455 6.545.4 11.11 4.621 12.03 11.124.415 2.927-1.193 7.887-3.358 10.358-1.894 2.163-1.883 2.193.406 1.109 6.05-2.867 13.418-.383 16.31 5.498.737 1.5.865 2.123.949 4.63.08 2.38-.015 3.232-.53 4.767-1.2 3.584-3.387 6.147-6.529 7.652-2.444 1.171-6.446 1.36-9.231.435-3.456-1.147-6.937-4.493-7.991-7.68-.615-1.858-.624-.823-.023 2.526.786 4.38 1.83 7.887 3.268 10.972.978 2.1 1.12 2.618.819 2.98-.53.637-13.362.656-13.89.021zm94.417.155c-.526-.332-.371-.936 1.228-4.793 1.615-3.894 2.711-8.024 2.927-11.027l.162-2.261-.549 1.469c-2.676 7.167-10.227 10.258-17.273 7.07-2.339-1.057-4.814-3.454-5.811-5.628-2.315-5.045-1.03-11.692 2.932-15.159 3.249-2.843 8.893-3.697 12.76-1.93.86.392 1.564.642 1.564.555 0-.088-.387-.647-.86-1.243-1.349-1.698-2.825-5.048-3.199-7.258-.636-3.763.519-7.65 3.087-10.389 2.471-2.635 5.75-4.029 9.479-4.029 4.015 0 7.255 1.311 9.754 3.947 4.686 4.943 4.476 12.41-.514 18.238-.75.875-1.238 1.538-1.085 1.473.152-.064.928-.456 1.725-.87 5.513-2.87 12.653-.946 16.04 4.32 1.856 2.886 2.185 6.862.88 10.647-1.19 3.449-3.534 6.133-6.578 7.534-2.202 1.014-6.448 1.254-8.794.497-3.345-1.079-6.305-3.709-7.827-6.954-.486-1.036-.925-1.843-.976-1.793-.198.198 1.04 6.578 1.754 9.037.415 1.43 1.214 3.64 1.776 4.91 1.344 3.042 1.42 3.335.943 3.637-.526.332-13.021.333-13.546 0zm-94.155-93.4c-.313-.114-.568-.277-.568-.364 0-.086.572-1.491 1.27-3.123 1.712-3.999 2.63-6.995 3.216-10.503.585-3.495.487-4.63-.224-2.588-1.133 3.262-3.92 6.303-6.81 7.434-2.247.88-6.056 1.061-8.358.398-5.169-1.488-8.61-5.55-8.983-10.606-.498-6.75 3.348-12.236 9.505-13.553 2.208-.472 5.42-.157 7.34.72.878.4 1.596.672 1.596.602 0-.069-.476-.744-1.058-1.5-3.983-5.177-4.283-12.021-.73-16.684 2.755-3.615 8.203-5.597 12.776-4.646 5.762 1.199 9.46 4.826 10.435 10.234.67 3.722-.724 8.2-3.597 11.55-.726.847-1.32 1.6-1.32 1.674 0 .073.553-.187 1.23-.577 4.749-2.738 10.833-1.92 14.864 1.998 2.702 2.628 3.829 5.984 3.288 9.796-.728 5.123-2.997 8.393-7.207 10.382-1.765.835-2.117.897-5.096.897-3.115 0-3.259-.03-5.399-1.084-2.651-1.308-5.034-3.715-6.213-6.279-.436-.946-.839-1.674-.895-1.618-.209.209.84 5.609 1.683 8.663.478 1.732 1.406 4.304 2.064 5.716.905 1.943 1.114 2.649.861 2.902-.377.375-12.684.519-13.67.159zm100.1.136l-6.33-.084.144-.789c.08-.434.74-2.219 1.467-3.966 1.603-3.855 2.707-7.988 2.945-11.027l.177-2.262-.693 1.62c-1.011 2.364-1.768 3.476-3.404 5.003-2.224 2.075-4.198 2.862-7.522 3-2.267.093-3.079.002-4.617-.516-4.837-1.63-7.696-4.957-8.45-9.833-.592-3.829.573-7.844 3.082-10.629 3.14-3.484 8.82-4.73 13.49-2.959.86.326 1.606.593 1.66.593.053 0-.37-.634-.94-1.409-2.49-3.383-3.698-7.692-3.103-11.063.942-5.336 5.168-9.41 10.733-10.347 1.715-.289 2.416-.27 4.291.111 5.842 1.188 9.62 4.858 10.546 10.241.639 3.714-.61 8.076-3.159 11.042-2.067 2.404-2.094 2.47-.657 1.635 3.554-2.068 8.375-2.138 12.23-.176 1.643.837 4.307 3.565 5.113 5.238 2.14 4.439 1.014 10.702-2.61 14.526-.958 1.01-2.216 1.94-3.419 2.527-1.809.883-2.069.93-5.248.93-3.274 0-3.391-.024-5.502-1.068-2.754-1.362-4.592-3.228-6.07-6.164-.635-1.26-1.154-2.213-1.154-2.117 0 .095.26 1.67.58 3.5.731 4.208 1.694 7.526 3.176 10.953.64 1.482 1.165 2.842 1.166 3.022 0 .298-1.1.764-1.447.614-.08-.035-2.994-.1-6.475-.146zm-139.47-11.49c-.3-.361-.182-.844.677-2.745.573-1.268.987-2.306.921-2.306-.067 0-.578.31-1.138.688-3.672 2.486-7.977-.11-7.984-4.814-.004-3.172 3.103-5.649 6.126-4.883.611.155 1.112.244 1.112.2 0-.046-.258-.65-.573-1.342-1.379-3.032-.077-6.337 3.002-7.62 2.236-.932 5.438.32 6.52 2.548.713 1.47.799 4.019.172 5.112-.626 1.092-.532 1.245.652 1.06 2.67-.42 4.706.894 5.474 3.532.677 2.321.182 4.297-1.496 5.97-2.094 2.09-4.474 2.103-6.722.037l-1.315-1.21.216 1.01c.12.557.532 1.791.916 2.743.654 1.621.667 1.754.201 2.094-.764.558-6.286.497-6.761-.074zM16.87 55.46c-4.056-.857-6.449-3.243-7.535-7.513-.652-2.562-.815-11.487-.263-14.391 1.17-6.159 4.208-9.203 9.502-9.523 3.907-.236 7.204 1.41 8.48 4.232.772 1.709.512 2.06-1.526 2.06-1.54 0-1.807-.094-2.743-.975-.57-.537-1.483-1.06-2.027-1.161-1.297-.243-3.7.285-4.897 1.075-.984.65-2.067 2.53-2.399 4.165l-.19.938 1.782-.841c2.412-1.138 4.18-1.35 6.245-.752 4.45 1.29 6.95 4.664 7.287 9.838.284 4.35-.989 8.696-3.145 10.737-1.954 1.85-5.58 2.743-8.571 2.11zm4.942-5.1c1.738-1.13 2.653-3.356 2.653-6.457 0-2.89-.727-4.733-2.358-5.974-3.257-2.478-8.374.044-9.218 4.543-.254 1.35.268 4.386 1.02 5.936 1.396 2.875 5.083 3.786 7.903 1.953z" fill="#d2d2d2"/><path d="M0 157.44V0h217.76v314.88H0V157.44zm210.27 156.67c2.962-.966 5.25-3.108 6.005-5.621.224-.746.314-44.093.314-151.11V7.319l-.886-1.769c-.929-1.854-2.302-3.164-4.228-4.033-1.049-.473-6.873-.501-102.46-.501-98.713 0-101.38.014-102.77.546-1.829.704-3.491 2.214-4.467 4.057l-.773 1.463v301l.684 1.375c.941 1.89 3.157 3.808 5.193 4.495 1.618.546 3.665.558 101.79.594 92.407.033 100.25 0 101.6-.442zm-17.136-20.604c-2.491-.53-4.24-1.728-5.223-3.579-.919-1.728-.666-2.205 1.17-2.205 1.282 0 1.59.124 2.451.983 1.588 1.583 4.077 1.717 6.814.365 1.044-.516 1.457-.958 2.079-2.224.426-.868.864-2.02.973-2.56.229-1.134.283-1.137-2.746.126-4.006 1.67-8.122.449-10.527-3.125-1.651-2.452-2.032-4.07-1.873-7.97.22-5.405 1.653-8.238 4.993-9.879 1.503-.738 2.202-.905 3.824-.915 3.638-.023 6.697 1.35 8.334 3.739 1.53 2.233 1.95 4.333 2.11 10.523.16 6.263-.137 8.482-1.542 11.515-1.913 4.129-6.208 6.192-10.837 5.206zm5.839-13.453c1.825-1.28 2.848-3.41 2.848-5.931 0-4.999-2.654-8.091-6.596-7.685-2.206.227-3.57 1.202-4.596 3.288-.725 1.472-.824 1.99-.815 4.275.01 2.25.115 2.802.791 4.098 1.148 2.198 2.644 3.037 5.195 2.913 1.598-.078 2.16-.248 3.173-.958zm-141.93-1.23c-5.336-1.391-8.908-5.588-9.211-10.824-.234-4.019.875-7.162 3.686-10.45.809-.946 1.47-1.835 1.47-1.974 0-.294.14-.347-2.431.939-1.751.876-2.328 1.014-4.675 1.116-4.026.176-6.762-.871-9.452-3.619-1.979-2.02-2.917-4.08-3.072-6.74-.328-5.64 2.535-10.836 7.116-12.912 2.357-1.068 6.418-1.242 8.895-.38 3.875 1.348 6.533 4.058 8.27 8.435l.385.968.104-1.045c.23-2.326-1.846-10.5-3.727-14.667-.957-2.119-1.01-2.502-.375-2.745.721-.276 12.381-.196 12.831.088.481.304.451.413-1.239 4.533-1.643 4.004-2.73 8.127-2.973 11.272-.205 2.667.148 3.228.75 1.192.952-3.216 3.563-6.249 6.605-7.671 1.506-.705 1.984-.779 4.996-.779 3.142 0 3.44.052 5.276.92 4.777 2.258 7.586 7.063 7.05 12.06-.747 6.954-5.28 11.153-12.02 11.135-2-.006-2.813-.149-4.215-.745-2.87-1.219-2.99-1.231-2.216-.236 3.465 4.459 4.756 8.314 4.115 12.289-.808 5.002-4.678 8.967-9.804 10.043-2.095.44-3.907.38-6.14-.202zm94.53.121a12.77 12.77 0 0 1-5.846-3.156c-1.832-1.723-2.823-3.345-3.405-5.575-1.154-4.42.03-8.805 3.46-12.801.877-1.022 1.534-1.919 1.46-1.992-.074-.074-1.135.372-2.359.992-2.188 1.107-2.277 1.125-5.435 1.125-3.008 0-3.333-.058-5.157-.92-5.14-2.429-7.582-7.117-6.612-12.688.752-4.314 3.032-7.515 6.608-9.279 2.153-1.061 2.293-1.09 5.41-1.09 3.009 0 3.32.057 5.183.938 2.757 1.302 4.992 3.63 6.268 6.525.536 1.218 1.082 2.215 1.213 2.215.308 0 .31.028-.211-3.177-.788-4.853-2.08-9.294-3.649-12.545-.948-1.967-1.002-2.347-.367-2.59.251-.097 3.158-.176 6.46-.176 4.356 0 6.13.1 6.472.361.427.327.364.607-.67 2.961-2.04 4.65-3.744 11.108-3.744 14.193 0 1.293.449 1.237.886-.11 1.107-3.413 3.519-6.287 6.498-7.744 1.616-.79 1.968-.85 5.067-.85 3.185 0 3.422.043 5.441.987 2.702 1.264 5.206 3.824 6.15 6.288 2.35 6.139-.353 13.284-6.026 15.923-1.49.693-1.99.771-4.986.775-3.032.004-3.482-.067-5.03-.79-.935-.438-1.823-.795-1.974-.795-.15 0 .174.552.721 1.228 3.34 4.12 4.627 8.762 3.57 12.874-1.683 6.543-8.603 10.54-15.397 8.894zm42.867-22.305c-1.359-.741-1.922-1.322-2.496-2.568-.742-1.612-.683-3.241.178-4.935.397-.781.723-1.45.724-1.486 0-.036-.333.062-.742.217-1.175.446-3.086.33-4.177-.254-2.967-1.588-3.078-6.93-.19-9.129 2.229-1.696 5.134-1.058 6.832 1.5.844 1.27.884 1.294.884.521 0-.445-.403-1.98-.895-3.41-.723-2.1-.82-2.649-.507-2.847.644-.407 5.918-.31 6.272.115.225.27.045.95-.669 2.528-.537 1.187-1.062 2.548-1.167 3.025l-.191.866.773-.94c2.505-3.05 7.032-2.387 8.418 1.232 1.406 3.674-1.1 7.356-4.76 6.993-.736-.073-1.645-.233-2.021-.356l-.684-.224.764 1.152c1.633 2.46 1.137 5.745-1.128 7.469-1.345 1.023-3.85 1.278-5.218.531zM53.4 185.95c-.08-.206.314-1.364.874-2.574 1.987-4.29 3.324-9.106 3.772-13.59.218-2.179-.166-2.633-.732-.866-1.966 6.14-7.676 9.825-13.607 8.782-6.271-1.102-10.414-5.827-10.414-11.879 0-5.263 2.422-9.256 6.897-11.37 1.79-.847 2.162-.915 4.975-.915 2.82 0 3.182.067 4.995.924 1.075.508 1.954.83 1.954.714 0-.115-.535-.92-1.188-1.787-2.318-3.078-3.445-6.15-3.445-9.392 0-6.01 4.4-10.918 10.745-11.985 3.804-.64 8.362.833 11.134 3.6 3.388 3.379 4.39 8.214 2.711 13.082-.657 1.904-1.358 3.035-3.264 5.26-.74.865-1.346 1.69-1.346 1.834 0 .143.7-.133 1.554-.614 3.864-2.175 7.858-2.364 11.55-.544 5.27 2.6 7.652 7.35 6.47 12.912-1.194 5.62-4.766 9.24-10.029 10.165-5.421.953-11.32-2.465-13.493-7.819-1.472-3.628-1.603-2.266-.367 3.837.723 3.573 2.097 7.895 3.212 10.103.469.93.783 1.873.698 2.095-.22.572-13.436.6-13.655.028zm94.37.072c-.225-.225.092-1.262 1.127-3.688.793-1.857 1.815-4.84 2.272-6.631 1.383-5.42 1.482-10.493.124-6.352-1.915 5.842-7.484 9.336-13.337 8.369-8.628-1.427-12.954-9.903-9.168-17.965 2.57-5.475 9.804-7.932 15.51-5.268 1.058.494 1.923.77 1.923.616 0-.156-.511-.928-1.136-1.716-1.406-1.775-2.474-3.94-3.054-6.193-1.472-5.719 1.273-11.565 6.587-14.03 6.672-3.093 14.319-.446 17.39 6.022.853 1.795.916 2.14.902 4.962-.022 4.175-.788 6.058-4.121 10.12-.682.832-1.195 1.558-1.139 1.614.057.056 1.16-.437 2.453-1.096 2.034-1.037 2.664-1.216 4.683-1.333 5.202-.3 10.047 2.645 12.029 7.312 1.154 2.719.77 7.329-.88 10.578-2.329 4.584-7.483 7.196-12.487 6.326-4.366-.758-7.471-3.154-9.475-7.31-.687-1.426-1.32-2.48-1.405-2.341-.247.399.58 5.4 1.421 8.596.424 1.607 1.286 4.156 1.918 5.666 1.794 4.288 2.328 3.887-5.297 3.977-4.403.052-6.627-.024-6.839-.236zm-94.168-93.4c-.25-.3-.111-.862.584-2.383 2.033-4.446 3.432-9.436 3.868-13.796.244-2.435-.215-2.517-1.038-.186-2.914 8.256-12.67 10.892-19.59 5.293-6.105-4.938-5.292-15.889 1.47-19.835 3.591-2.095 8.972-2.156 12.282-.138 1.236.754 1.219.221-.04-1.246-1.335-1.556-2.675-4.138-3.209-6.183-2.855-10.937 8.493-19.386 18.728-13.943 4.385 2.331 6.946 7.612 6.095 12.566-.426 2.485-1.967 5.581-3.839 7.715-.812.927-1.408 1.754-1.323 1.838.084.084 1.136-.344 2.337-.952 1.89-.958 2.51-1.123 4.616-1.233 6.619-.347 12.168 4.099 12.785 10.243.21 2.098-.456 5.41-1.53 7.603-3.1 6.33-11.617 8.454-17.557 4.376-2.273-1.56-4.32-4.265-5.11-6.752-.52-1.64-.99-1.37-.756.433.633 4.884 2.128 10.363 3.87 14.179.856 1.877.962 2.307.62 2.523-.228.144-3.232.263-6.676.265-4.922.003-6.333-.08-6.589-.387zm94.165-.075c-.099-.256.118-1.133.482-1.95 1.32-2.962 3.18-8.764 3.614-11.27.776-4.482.435-6.385-.589-3.285-1.912 5.793-7.458 9.237-13.362 8.296-4.991-.796-8.852-4.17-10.058-8.79-1.274-4.883.513-10.36 4.307-13.203 3.23-2.42 8.49-2.984 12.155-1.305.94.43 1.766.726 1.836.657.07-.07-.396-.82-1.035-1.665-3.81-5.046-4.51-10.298-2.006-15.04 2.368-4.482 8.095-7.226 13.186-6.319 6.847 1.221 11.16 6.474 10.697 13.031-.24 3.413-1.196 5.462-4.375 9.384-.46.567-.777 1.091-.704 1.164.073.072 1.1-.354 2.284-.947 2.096-1.05 2.237-1.079 5.338-1.079 2.984 0 3.308.059 5.146.927 5.338 2.522 7.819 7.703 6.459 13.487-1.946 8.275-9.92 12.121-17.443 8.413-2.637-1.3-4.624-3.445-5.921-6.39-.988-2.24-1.475-2.542-1.23-.76.71 5.167 2.305 11.014 3.929 14.407.48 1.003.797 2.022.704 2.264-.144.376-1.119.44-6.702.44-5.745 0-6.555-.056-6.713-.466zm-133.44-11.1c-.102-.163.269-1.366.823-2.672 1.59-3.75 1.616-3.974.303-2.6-3.447 3.606-8.48 1.43-8.498-3.674-.011-3.5 3.008-5.63 6.431-4.538l1.425.455-.465-.63c-1.782-2.419-1.745-5.434.093-7.523.686-.78 2.49-1.63 3.458-1.63 4.456 0 6.955 5.083 4.317 8.78l-.6.84.847-.255c1.58-.478 3.777-.317 4.663.342 1.348 1.003 1.966 2.352 1.971 4.301.008 3.133-1.729 5.306-4.448 5.567-2.012.192-3.53-.77-5.173-3.281-.602-.92-.12 1.424.832 4.054.638 1.761.746 2.348.469 2.524-.541.342-6.232.29-6.448-.06zm1.887-26.386c-3.311-.96-5.34-2.947-6.44-6.312-.855-2.61-1.094-12.452-.38-15.65 1.311-5.883 4.548-8.841 9.674-8.841 3.632 0 6.338 1.347 7.579 3.772.737 1.441.72 1.898-.081 2.112-1.328.355-2.237.171-3.175-.642-1.405-1.218-2.063-1.487-3.632-1.487-1.865 0-3.857.701-4.81 1.693-.963 1.003-2.405 4.951-1.808 4.951.062 0 1.006-.422 2.1-.938 4.862-2.298 9.895-.383 12.201 4.643.873 1.902 1.195 6.071.681 8.814-.423 2.256-1.618 4.839-2.74 5.922-2.02 1.95-6.158 2.837-9.169 1.963zm5.922-4.629c2.06-1.568 3.11-5.101 2.5-8.42-.99-5.397-6.585-7.1-10.196-3.104-1.431 1.583-1.796 2.847-1.64 5.68.187 3.378 1.501 5.73 3.704 6.63.239.098 1.359.148 2.488.11 1.758-.057 2.211-.186 3.144-.896z" fill="#b1b1b1"/><path d="M0 157.44V0h217.76v314.88H0V157.44zm211.69 156.25a9.26 9.26 0 0 0 4.375-4.251l.673-1.35v-301l-.783-1.48c-.43-.814-1.382-2.007-2.115-2.65C211.237.672 221.64.878 108.61.88L7.39.884l-1.448.675c-2.113.984-3.185 2.01-4.182 3.999L.875 7.326v150.13c0 133.57.049 150.27.44 151.38.86 2.431 2.833 4.325 5.447 5.227 1.428.493 6.143.514 102.41.453l100.91-.063 1.612-.754zm-19.709-20.633c-1.706-.528-3.417-1.968-4.083-3.435-.496-1.093-.5-1.202-.052-1.537.94-.705 2.316-.434 3.58.705 1.018.918 1.418 1.084 2.867 1.188 2.087.15 4.244-.513 5.325-1.639.86-.895 1.919-3.39 1.919-4.518 0-.396-.051-.72-.113-.72-.061 0-.992.411-2.068.913-2.398 1.12-4.174 1.323-6.265.717-4.128-1.197-6.906-5.338-6.899-10.284.008-5.527 1.946-9.56 5.28-10.991 4.467-1.917 9.943-.318 12.227 3.572 1.283 2.184 1.686 4.7 1.718 10.73.023 4.424-.073 5.884-.496 7.528-1.082 4.21-3.242 6.855-6.345 7.775-1.823.54-4.846.538-6.595-.003zm5.728-12.137c1.353-.563 2.843-1.973 3.569-3.379 1.56-3.019.54-8.336-1.964-10.242-1.094-.832-3.272-1.18-5.165-.827-1.51.283-3.186 1.922-3.893 3.807-.67 1.79-.795 5.002-.261 6.778.99 3.295 4.66 5.134 7.714 3.863zm-138.95-1.89c-8.759-1.203-13.36-9.712-9.585-17.722.452-.96 1.56-2.638 2.46-3.73 1.469-1.782 1.898-2.491 1.507-2.491-.072 0-1.016.46-2.1 1.025-3.685 1.92-7.514 2.018-11.18.287-3.3-1.557-6.005-5.195-6.429-8.646-.442-3.599 1.23-8.423 3.795-10.947 4.644-4.573 12.197-4.414 16.914.354 1.577 1.595 2.05 2.342 3.167 5 .813 1.935 1.294 1.802 1.045-.29-.572-4.802-2.09-10.466-3.805-14.188-.539-1.17-.908-2.242-.821-2.383.209-.338 13.073-.332 13.282.006.089.144-.239 1.151-.728 2.239-2.193 4.874-3.649 10.202-3.81 13.935-.107 2.516.417 2.597 1.22.189 2.384-7.147 10.144-10.219 17.079-6.762a11.899 11.899 0 0 1 5.343 5.447c.828 1.744.892 2.106.892 5.056 0 3.667-.482 5.355-2.162 7.573-2.401 3.169-5.308 4.553-9.565 4.555-2.523 0-2.925-.08-4.854-.98-1.157-.54-2.169-.916-2.249-.836-.08.08.36.782.979 1.56 3.501 4.41 4.605 9.033 3.224 13.496-.606 1.957-2.093 4.198-3.647 5.495-2.55 2.13-6.531 3.231-9.972 2.758zm94.104-.004c-6.294-.85-10.797-5.838-10.789-11.95.005-3.616 1.125-6.4 3.85-9.577 1.272-1.482 1.883-2.65 1.238-2.364-.12.053-1.194.586-2.389 1.185-4.894 2.455-10.499 1.404-14.29-2.68-2.046-2.205-2.794-4.126-2.794-7.17 0-4.097 1.29-7.39 3.821-9.753 6.24-5.822 16.055-3.517 19.635 4.611.534 1.212 1.078 2.204 1.208 2.204 1.046 0-1.18-10.093-3.355-15.212-.692-1.63-1.188-3.033-1.101-3.12.086-.086 3.071-.157 6.633-.157 5.038 0 6.508.084 6.62.375.08.206-.32 1.375-.886 2.598-2.338 5.05-4.427 13.924-3.593 15.27.332.535.67.096 1.234-1.6.714-2.15 1.741-3.707 3.508-5.318 5.626-5.13 15.422-3.136 18.84 3.835.715 1.456.861 2.15.957 4.53.191 4.743-1.284 8.194-4.547 10.64-2.13 1.597-4.008 2.167-7.133 2.164-2.613-.003-2.825-.059-6.732-1.775-.684-.3-.36.534.671 1.734.569.66 1.575 2.289 2.236 3.617 1.115 2.242 1.21 2.619 1.315 5.244.13 3.237-.3 4.967-1.833 7.372-2.425 3.805-7.434 5.958-12.325 5.297zm42.194-22.339c-2.275-.81-3.375-2.447-3.375-5.024 0-1.463.141-1.928.95-3.125l.948-1.407-1.571.53c-2.043.687-3.493.455-4.794-.77-3.239-3.046-1.033-9.137 3.309-9.137 1.78 0 3.041.85 4.301 2.898l.971 1.58-.18-1.482c-.099-.815-.503-2.43-.899-3.59-.395-1.159-.718-2.28-.718-2.49 0-.545 6.033-.553 6.243-.008.079.206-.311 1.357-.867 2.557-1.045 2.257-1.718 4.58-1.327 4.58.123 0 .38-.375.57-.833 1.458-3.512 6.512-3.921 8.34-.675.49.87.65 1.62.65 3.053 0 1.702-.091 2.004-.872 2.892-1.638 1.86-3.952 2.292-6.167 1.15-1.203-.622-1.26-.301-.18 1.037.739.918.974 1.52 1.077 2.75.072.867.047 1.91-.056 2.319-.29 1.153-2.124 2.99-3.314 3.32-1.344.373-1.678.36-3.039-.125zm-141.49-71.04c0-.218.443-1.368.985-2.554 2.017-4.414 3.648-10.677 3.648-14.004 0-2.058-.455-1.906-1.305.436-1.236 3.406-3.216 5.664-6.223 7.1-1.754.836-2.1.898-5.068.898-2.983 0-3.31-.059-5.142-.925-5.161-2.439-7.801-7.355-6.911-12.868 1.317-8.153 9.255-12.397 16.838-9.002.959.429 1.812.711 1.896.627.084-.083-.474-.98-1.24-1.992-6.324-8.355-3.504-18.448 5.853-20.945 4.363-1.164 9.133.17 12.476 3.49 2.283 2.267 3.077 4.184 3.24 7.822.179 4.022-.754 6.394-4.089 10.394-1.122 1.347-1.337 1.754-.964 1.826.264.051.875-.187 1.357-.53 2.636-1.872 7.29-2.4 10.45-1.187 6.01 2.308 8.713 7.222 7.496 13.624-.701 3.69-3.247 7.072-6.541 8.69-3.83 1.88-8.87 1.357-12.484-1.297-1.865-1.37-3.902-4.1-4.47-5.992-.187-.622-.535-1.292-.774-1.488-1.29-1.062 1.006 10.12 2.992 14.579.587 1.317 1.135 2.688 1.218 3.045l.15.65H60.26c-5.487 0-6.694-.071-6.694-.397zm94.195-.108c.085-.278.747-1.936 1.471-3.683.724-1.748 1.644-4.413 2.044-5.922 1.583-5.976 1.479-11.315-.128-6.5-1.683 5.048-6.063 8.233-11.32 8.233-4.87 0-9.272-2.703-11.209-6.882-1.09-2.356-1.255-6.615-.356-9.271 1.504-4.443 4.654-7.072 9.37-7.818 2.417-.382 4.776-.02 7.023 1.08.854.418 1.64.673 1.747.567.107-.107-.334-.88-.98-1.718-2.711-3.522-3.662-6.293-3.487-10.16.146-3.239.978-5.243 3.112-7.494 5.957-6.284 16.83-4.799 20.585 2.812 2.353 4.768 1.376 10.4-2.604 15.002-2.176 2.516-2.01 2.749.87 1.225 4.93-2.609 10.367-1.735 14.364 2.31 2.285 2.312 3.001 4.086 2.996 7.43-.01 7.316-4.52 12.513-11.158 12.86-5.396.283-9.566-2.27-12.052-7.382-.637-1.31-1.295-2.383-1.461-2.383-.63 0 .577 6.875 1.998 11.376a46.383 46.383 0 0 0 1.682 4.383c.53 1.16.887 2.182.796 2.274-.092.091-3.157.166-6.812.166-6.195 0-6.635-.034-6.491-.506zM53.66 92.089c.087-.358.76-2.107 1.495-3.888 1.686-4.08 2.742-8.162 2.965-11.462.209-3.086-.217-3.29-1.202-.577-.872 2.402-1.662 3.591-3.507 5.273-4.584 4.18-12.425 3.787-16.763-.84-3.481-3.714-4.23-9.181-1.922-14.05 2.693-5.68 9.883-7.983 15.834-5.071.85.416 1.63.672 1.734.569.103-.103-.427-1.002-1.178-1.999-2.44-3.238-3.433-5.89-3.443-9.193-.013-3.95 1.607-7.33 4.599-9.598 3.977-3.015 9.783-3.367 14.404-.873 1.852 1 4.125 3.456 5.08 5.487.705 1.503.78 1.98.78 4.984 0 3.22-.032 3.39-1.045 5.506-.575 1.201-1.644 2.856-2.376 3.679-1.444 1.622-2.106 2.66-1.698 2.66.143 0 1.11-.444 2.152-.985 2.613-1.36 4.756-1.773 7.31-1.412 5.604.792 9.894 5.035 10.22 10.106.595 9.236-6.662 15.714-15.136 13.512-3.778-.981-7.02-3.922-8.43-7.644-.27-.715-.668-1.49-.884-1.723-.335-.362-.392-.257-.39.722.002 3.096 1.952 10.897 3.63 14.518.55 1.19 1.001 2.34 1.001 2.556 0 .32-1.245.393-6.694.393h-6.693l.157-.65zm94.178.387c-.09-.145.114-.892.453-1.661 2.215-5.032 3.32-8.673 3.87-12.76.389-2.877.352-3.805-.149-3.805-.13 0-.394.488-.588 1.084-1.736 5.344-5.606 8.604-10.624 8.946-5.308.361-10.032-2.292-12.202-6.852-.686-1.442-.755-1.91-.75-5.055.009-4.217.587-5.967 2.75-8.329 3.539-3.862 9.338-4.956 14.057-2.652 2.303 1.124 2.425.929.743-1.187-1.32-1.659-2.69-4.324-3.212-6.242-.227-.833-.324-2.354-.25-3.904.152-3.172 1.193-5.602 3.302-7.706 5.472-5.46 15.487-4.596 19.636 1.693 3.255 4.935 2.62 11.094-1.663 16.13-2.286 2.69-2.195 3.195.3 1.662 1.57-.966 4.26-1.743 6.028-1.743 1.639 0 4.32.74 6.01 1.657 2.02 1.096 4.374 3.74 5.132 5.76 1.19 3.17.657 7.916-1.253 11.166-1.082 1.843-3.677 4.086-5.619 4.86-1.34.533-2.23.663-4.575.67-2.788.008-3.004-.038-5.11-1.076-2.872-1.417-4.978-3.643-6.315-6.679-.534-1.212-1.095-2.203-1.248-2.203-.404 0-.009 3.337.855 7.222.716 3.22 2.228 7.716 3.314 9.858.292.576.45 1.128.35 1.227-.288.288-13.062.209-13.242-.082zm-133.27-11.66c.081-.357.615-1.755 1.187-3.105.571-1.35 1.036-2.78 1.033-3.178-.006-.711-.014-.709-.464.144-1.108 2.096-2.552 3.034-4.674 3.034-2.756 0-4.533-1.998-4.541-5.104-.005-1.998.492-2.933 2.164-4.068 1.125-.764 3.484-.874 4.636-.217 1.275.727 1.51.477.608-.65-1.84-2.298-1.847-5.04-.017-7.119 1.144-1.3 2.263-1.718 4.168-1.56 4.043.334 5.89 4.975 3.372 8.473-.977 1.357-.922 1.534.266.856.399-.227 1.464-.417 2.367-.423 1.372-.009 1.797.119 2.573.77 1.188.998 1.72 2.282 1.72 4.15 0 3.881-3.362 6.414-6.5 4.899-1.139-.55-2.692-2.315-3.145-3.573-.066-.184-.194-.268-.284-.186-.243.219.547 3.726 1.228 5.449.327.826.594 1.627.594 1.78 0 .162-1.349.278-3.22.278-3.188 0-3.217-.006-3.07-.65zm2.85-25.683c-4.356-.7-6.841-3.19-7.883-7.9-.612-2.764-.525-12.512.132-14.855 1.415-5.05 4.077-7.521 8.601-7.984 4.156-.424 8.671 2.21 8.671 5.06 0 .525-.18.592-1.582.592-1.308 0-1.639-.105-1.906-.602-.397-.741-2.426-1.694-3.626-1.703-1.382-.01-3.772.8-4.728 1.602-.946.794-2.057 3.376-2.057 4.782 0 .484.098.831.218.77 4.559-2.293 5.836-2.517 8.756-1.536 2.187.736 4.595 3.14 5.463 5.454 1.746 4.655.644 11.422-2.322 14.256-1.866 1.784-4.728 2.548-7.736 2.065zm4.59-4.392c1.618-1.069 2.724-3.47 2.863-6.22.249-4.89-1.965-7.831-5.894-7.831-2.766 0-5.011 1.642-6.087 4.453-1.366 3.568.756 9.315 3.797 10.285 1.463.466 4.087.127 5.32-.687z" fill="#919191"/><path d="M0 157.44V0h217.76v314.88H0V157.44zm212.14 156.22c1.848-.972 3.687-3.022 4.286-4.775.413-1.209.456-15.592.456-151.45V7.315L216 5.553c-.99-1.977-2.365-3.322-4.315-4.222l-1.318-.608H7.387l-1.51.68c-1.88.849-3.865 2.93-4.595 4.816C.738 7.63.727 10.502.727 157.73c0 129.48.057 150.21.414 151.08 1.089 2.657 3.085 4.574 5.572 5.35 1.045.326 18.1.382 102.6.337l101.35-.053 1.484-.781zm-18.86-20.33c-2.504-.64-4.351-1.916-5.23-3.613-.726-1.4-.567-1.697.913-1.697 1.095 0 1.534.174 2.49.99 1.728 1.476 3.876 1.647 6.605.525 1.328-.547 1.97-1.14 2.63-2.43.678-1.325 1.232-3.726.929-4.023-.126-.123-1.192.24-2.369.809-4.153 2.004-8.044 1.044-10.899-2.69-1.504-1.968-1.964-3.972-1.806-7.866.164-4.001.851-6.132 2.585-8.008 3.175-3.437 9.641-3.418 13.106.039 2.328 2.323 3.057 5.387 3.06 12.858.003 3.798-.113 5.246-.557 6.978-1.41 5.497-4.03 7.929-8.802 8.17-1.142.059-2.336.04-2.655-.042zm4.591-12.352c1.533-.64 2.96-2.086 3.662-3.711.556-1.292.63-1.853.5-3.83-.09-1.36-.388-2.858-.724-3.627-2.102-4.82-8.449-4.977-10.855-.268-2.053 4.02-.908 9.535 2.335 11.243 1.277.673 3.709.765 5.082.193zm-141-2.45c-3.508-1.035-6.393-3.462-7.881-6.63-.702-1.493-.776-1.973-.776-4.989 0-3.274.02-3.378 1.086-5.53.598-1.207 1.653-2.825 2.345-3.596 1.4-1.56 1.997-2.535 1.724-2.808-.1-.1-.975.26-1.945.8-2.254 1.255-3.885 1.689-6.31 1.68-3.726-.015-7.249-1.79-9.529-4.798-2.573-3.397-2.7-8.425-.327-12.972 1.172-2.246 2.866-3.873 5.247-5.04 1.49-.73 1.908-.797 4.958-.797 3.21 0 3.4.035 5.295.984 3.053 1.528 5.051 3.892 6.694 7.92.247.607.583 1.022.745.922 1.117-.69-1.507-12.213-3.804-16.704-1.002-1.96-1.024-1.953 6.048-1.866 6.102.075 6.303.097 6.262.656-.024.317-.64 2.025-1.37 3.794-2.087 5.064-3.61 12.165-2.967 13.837.29.753.912.067 1.347-1.483.475-1.69 2.18-4.318 3.62-5.575.618-.54 1.846-1.32 2.73-1.733 1.437-.673 1.953-.752 4.935-.752 3.13 0 3.443.054 5.212.899 3.757 1.793 6.024 4.731 6.704 8.687.8 4.65-1.198 9.68-4.775 12.029-2.339 1.535-4.122 2-7.226 1.884-2.286-.086-2.949-.234-4.653-1.039-1.093-.516-2.037-.938-2.1-.938-.404 0 .044.997.915 2.037 2.557 3.054 3.682 5.998 3.692 9.662.008 3.046-.607 4.95-2.327 7.204-2.972 3.895-8.701 5.692-13.568 4.255zm94.704.126c-5.657-1.37-9.417-6.062-9.392-11.718.015-3.363 1.166-6.192 3.793-9.32 1.448-1.726 2.063-2.824 1.58-2.824-.066 0-1.141.528-2.388 1.173-3.742 1.936-7.252 2.023-11.024.275-4.782-2.216-7.12-6.88-6.172-12.314.737-4.232 3.093-7.495 6.61-9.158 1.823-.861 2.153-.92 5.14-.92 3.032 0 3.29.048 5.148.961 2.7 1.326 4.564 3.273 5.99 6.255 1.805 3.773 2.25 3.533 1.589-.859-.686-4.559-2.101-9.469-3.662-12.705-.457-.949-.768-1.891-.69-2.094.11-.284 1.585-.37 6.386-.37 5.24 0 6.27.07 6.408.427.09.235-.36 1.646-1 3.135-2.073 4.82-3.216 9.273-3.32 12.933-.075 2.615.484 2.925 1.245.69 1.244-3.649 3.24-6.062 6.226-7.524 1.613-.79 1.965-.85 5.064-.85 3.142 0 3.44.052 5.276.92 4.781 2.26 7.18 6.352 6.807 11.615-.28 3.965-1.89 7.005-4.773 9.014-2.228 1.553-4.186 2.07-7.386 1.95-2.296-.086-2.957-.233-4.662-1.039-1.093-.516-2.038-.938-2.1-.938-.378 0 .052.836 1.162 2.263 4.919 6.321 4.82 13.544-.247 18.204-2.985 2.744-7.444 3.826-11.607 2.817zm42.577-22.496c-2.838-1.584-3.245-5.824-.802-8.368 1.02-1.063.693-1.264-.813-.497-.957.487-1.586.6-2.781.501-2.52-.208-3.856-1.914-3.856-4.924 0-2.667 2.128-5.122 4.44-5.122 1.804 0 3.78 1.473 4.696 3.502.737 1.629 1.136 1.011.703-1.088-.192-.93-.663-2.527-1.047-3.548-.39-1.04-.588-1.967-.448-2.106.137-.137 1.476-.211 2.974-.165 2.705.083 2.725.089 2.683.805-.023.398-.52 1.863-1.104 3.257-.592 1.412-1.022 2.883-.972 3.322.085.73.156.67.96-.79 1.052-1.908 2.307-2.722 4.199-2.722 2.657 0 4.633 2.139 4.633 5.015 0 3.58-3.671 5.72-6.95 4.051-1.735-.883-1.854-.708-.597.88 1.76 2.219 1.925 4.463.49 6.626-1.338 2.017-4.166 2.622-6.408 1.371zm-140.43-70.4c-.095-.153.142-.9.526-1.66 2.046-4.051 3.83-10.446 4.009-14.374.075-1.65.009-2.03-.366-2.106-.32-.065-.569.278-.829 1.146-1.418 4.73-4.854 7.858-9.503 8.654-4.488.768-9.5-1.275-11.992-4.887-3.316-4.808-2.296-12.794 2.076-16.248.61-.483 1.87-1.231 2.8-1.664 1.5-.7 2.03-.788 4.73-.79 2.856-.002 3.168.057 5.143.98 1.157.541 2.19.897 2.297.79.107-.106-.094-.549-.446-.983-2.838-3.5-4.118-6.396-4.318-9.771-.373-6.312 3.417-11.083 9.883-12.442 5.813-1.222 12.083 2.074 14.104 7.412 1.726 4.56.594 9.63-3.092 13.847-2.27 2.597-2.117 3.305.386 1.778 5.937-3.622 13.889-1.346 16.946 4.85.854 1.731.937 2.136.922 4.508-.05 7.975-6.068 13.704-13.302 12.664-4.771-.686-8.235-3.464-10.138-8.13-.882-2.163-1.475-2.185-1.36-.051.199 3.73 2.186 11.195 3.868 14.528.464.92.767 1.797.672 1.95-.23.37-12.787.37-13.016 0zm94.245-.073c0-.194.606-1.847 1.348-3.674 1.706-4.206 2.589-7.406 3.042-11.028.262-2.095.272-2.944.036-3.179-.496-.495-.838-.11-1.375 1.546-.655 2.022-1.963 4.023-3.528 5.398-7.066 6.204-18.921 1.567-19.7-7.706-.461-5.488 2.15-10.275 6.784-12.434 1.474-.687 2.016-.776 4.706-.779 2.856-.002 3.168.057 5.144.981 2.018.944 2.824 1.013 2.23.192-.154-.212-.92-1.26-1.702-2.327-4.155-5.671-3.98-12.552.433-16.954 2.695-2.69 7.12-4.082 10.886-3.428 4.326.752 7.501 2.997 9.261 6.549.914 1.844 1.092 2.523 1.2 4.58.207 3.934-1.028 7.09-4.178 10.683-1.171 1.336-1.577 2.177-1.05 2.177.119 0 1.286-.54 2.594-1.202 2.04-1.032 2.7-1.222 4.658-1.335 6.455-.372 12.023 4.124 12.44 10.048.366 5.2-2.15 10.192-6.23 12.361-6.339 3.371-13.683.692-16.905-6.167-.665-1.414-1.307-2.422-1.502-2.355-1.098.379 1.226 10.74 3.587 15.987.468 1.041.851 2.011.851 2.155 0 .15-2.811.262-6.515.262-4.924 0-6.515-.086-6.515-.351zM53.735 92.473c-.087-.141.25-1.149.748-2.239 1.987-4.347 3.408-9.428 3.87-13.845.143-1.365.089-1.83-.247-2.108-.513-.425-.546-.38-1.326 1.838-2.093 5.949-7.54 9.086-13.59 7.828-5.583-1.161-9.23-5.233-9.545-10.654-.457-7.876 4.66-13.26 12.226-12.863 1.88.098 2.76.314 4.446 1.09 1.156.53 2.19.879 2.296.772.107-.106-.087-.549-.43-.983-1.546-1.953-2.97-4.253-3.58-5.777-.953-2.388-.95-7 .006-9.395 1.98-4.963 8.053-8.157 13.622-7.164 8.654 1.543 12.829 9.896 8.882 17.774-.561 1.121-1.676 2.797-2.477 3.723-1.234 1.427-1.809 2.504-1.335 2.504.066 0 1.171-.544 2.455-1.21 2.122-1.1 2.57-1.222 4.914-1.334 3.911-.187 6.677.881 9.362 3.614 3.394 3.455 3.98 8.847 1.508 13.887-2.134 4.352-7.22 6.914-12.158 6.127-4.816-.767-7.98-3.564-10.21-9.023-.177-.437-.537-.795-.797-.795-.407 0-.446.235-.276 1.661.572 4.803 2.09 10.466 3.804 14.188.54 1.17.909 2.243.822 2.383-.207.335-12.782.334-12.99 0zm94.348-.148c-.088-.228.291-1.438.842-2.688 2.118-4.806 3.88-11.89 3.623-14.569-.11-1.151-.517-1.254-.989-.25-.186.398-.745 1.603-1.243 2.68-1.68 3.64-4.636 5.896-8.644 6.597-5.26.921-11.284-2.373-13.116-7.172-1.414-3.706-.93-8.435 1.189-11.6 1.306-1.95 2.474-2.924 4.833-4.027 1.49-.697 1.992-.777 4.872-.777 3.055 0 3.3.046 5.036.94 2.779 1.429 3.003 1.203 1.14-1.15-6.688-8.44-3.954-18.654 5.662-21.152 3.06-.795 5.764-.455 9.016 1.136 3.866 1.892 6.198 5.47 6.43 9.863.204 3.899-1.086 7.172-4.184 10.611-1.986 2.206-1.682 2.811.686 1.366 2.311-1.409 4.096-1.844 6.997-1.706 2.182.104 2.86.268 4.545 1.095 3.846 1.89 6.176 5.179 6.416 9.058.618 9.985-8.393 16.461-17.19 12.354-2.568-1.198-4.417-3.14-5.899-6.195-1.155-2.38-1.512-2.812-1.863-2.246-.249.402.896 6.87 1.72 9.715a57.672 57.672 0 0 0 1.774 5.055c.562 1.35 1.043 2.65 1.07 2.889.068.637-12.479.808-12.723.174zm-133.45-11.14c-.095-.153.077-.77.382-1.372.712-1.403 2.073-5.184 2.073-5.757 0-.763-.545-.295-1.226 1.053-.481.953-1 1.473-1.948 1.95-1.57.79-2.666.812-4.265.087-1.6-.724-2.406-2.252-2.405-4.553.001-2.13.726-3.384 2.394-4.139 1.635-.74 2.656-.703 4.524.164.86.4 1.6.688 1.647.64.047-.046-.453-.773-1.11-1.615-1.018-1.303-1.214-1.779-1.317-3.194-.342-4.722 4.681-7.305 8.027-4.126 2.14 2.032 2.19 5.128.122 7.538-1.14 1.33-1.004 1.431.81.61 3.492-1.58 6.46.337 6.47 4.182.008 3.16-1.54 5.056-4.313 5.278-1.886.151-3.15-.644-4.37-2.748-.477-.825-.983-1.504-1.123-1.509-.431-.016.095 2.822.965 5.2.455 1.243.752 2.335.662 2.425-.286.285-5.817.18-6-.114zM16.205 54.8c-2.964-.836-5.132-2.95-6.12-5.967-.524-1.6-.638-2.775-.745-7.667-.133-6.084.048-7.848 1.09-10.626 1.438-3.834 4.085-5.758 8.18-5.944 3.899-.177 6.39.959 7.753 3.534.618 1.168.656 1.39.28 1.629-.874.556-2.467.325-3.206-.465-1.183-1.263-2.205-1.634-4.15-1.51-2.196.141-4.297 1.117-5.062 2.352-.67 1.082-1.66 4.448-1.387 4.72.104.103 1.135-.255 2.292-.796 1.778-.831 2.416-.982 4.13-.973 3.513.018 6.325 1.897 7.92 5.291.715 1.521.765 1.897.748 5.532-.02 4.303-.456 5.994-2.141 8.315-1.701 2.343-6.159 3.54-9.582 2.575zm5.019-3.488c3.145-1.342 4.759-6.58 3.31-10.746-1.535-4.415-6.647-5.497-10.03-2.122-1.469 1.465-2.035 2.959-2.043 5.383-.01 3.426 1.383 6.346 3.533 7.403 1.171.576 3.97.62 5.23.082z" fill="#6f6f6f"/><path d="M0 157.44V0h217.76v314.88H0V157.44zm212.54 156.11c1.868-1.05 3.546-3.096 4.1-4.998.322-1.102.388-26.93.388-151.26V7.362l-.759-1.615c-.974-2.073-2.852-3.866-4.818-4.6-1.538-.573-2.167-.576-103.1-.503L6.801.718l-1.54.85c-1.72.951-2.913 2.178-3.887 3.996L.72 6.784l-.074 150.21c-.067 136.02-.03 150.36.383 151.78.614 2.109 3.15 4.702 5.22 5.337 1.256.386 13.144.43 103.06.383l101.64-.053 1.592-.895zm-20.644-20.78c-.604-.221-1.483-.675-1.953-1.01-.988-.701-2.438-3.01-2.166-3.45.101-.163.69-.297 1.31-.297.882 0 1.362.218 2.226 1.01.606.556 1.533 1.091 2.06 1.19 1.549.293 3.703-.04 5.187-.801 1.103-.567 1.544-1.028 2.18-2.282.919-1.807 1.383-4.317.799-4.317-.201 0-1.206.413-2.233.917-2.3 1.13-4.387 1.358-6.38.698-4.393-1.456-6.717-5.585-6.356-11.292.303-4.789 1.704-7.632 4.542-9.22 1.468-.821 1.808-.891 4.344-.891 2.429 0 2.944.095 4.408.812 3.174 1.555 4.563 4.023 5.165 9.178.425 3.646.2 10.124-.433 12.475-1.434 5.324-4.383 7.748-9.368 7.702-1.229-.01-2.728-.2-3.332-.422zm6.392-11.802c1.212-.625 2.577-2.048 3.32-3.46.504-.959.622-1.651.596-3.506-.071-5.029-2.387-7.944-6.312-7.944-2.077 0-3.22.494-4.551 1.966-2.225 2.46-2.647 7.394-.897 10.49 1.194 2.11 3.278 3.27 5.486 3.051.818-.081 1.88-.35 2.358-.597zm-139.8-2.19c-4.612-.829-8.094-3.54-9.558-7.444-1.693-4.515-.684-9.402 2.765-13.39 1.458-1.686 2.076-2.751 1.773-3.054-.105-.105-1.332.382-2.725 1.083-2.463 1.237-2.612 1.273-5.285 1.275-3.984.003-5.852-.748-8.583-3.454-1.813-1.796-2.144-2.293-2.679-4.021-.713-2.302-.753-3.646-.19-6.295.888-4.181 3.562-7.58 7.026-8.93 2.21-.862 6.183-.942 8.407-.168 3.234 1.125 6.388 4.3 7.497 7.548.518 1.518 1.127 2.14 1.617 1.652.246-.246.163-1.293-.331-4.15-.784-4.537-1.948-8.589-3.348-11.652-.56-1.228-1.019-2.283-1.019-2.346 0-.062 2.9-.079 6.443-.036 4.101.05 6.42.183 6.382.367-.033.159-.647 1.719-1.365 3.466-.717 1.748-1.63 4.413-2.028 5.922-.807 3.06-1.428 7.482-1.153 8.2.26.674.957.573 1.257-.183.142-.358.552-1.414.91-2.347.886-2.3 3.242-4.81 5.61-5.973 5.705-2.802 13.371-.12 15.96 5.583 1.71 3.766 1.192 9.14-1.195 12.412-2.198 3.012-5.17 4.407-9.394 4.407-2.503 0-2.93-.084-4.738-.939-3.268-1.544-3.48-1.301-1.337 1.525 1.753 2.31 2.39 3.514 3.041 5.75.72 2.47.498 6.129-.503 8.303-.857 1.86-2.73 4.025-4.395 5.075-2.41 1.521-6.189 2.294-8.863 1.814zm93.545-.157c-5.254-1.164-8.696-4.67-9.585-9.764-.57-3.27.468-7.194 2.612-9.873 2.63-3.286 2.914-3.715 2.633-3.995-.182-.182-1.168.167-2.795.99-2.478 1.254-2.554 1.271-5.443 1.271-2.693 0-3.088-.074-4.877-.92-6.025-2.847-8.189-8.626-5.707-15.244 2.502-6.671 10.24-9.286 16.875-5.703 1.988 1.074 3.864 3.279 5.165 6.074 1.338 2.872 1.861 2.98 1.758.363-.142-3.607-1.697-9.681-3.568-13.933-.467-1.062-.85-2.072-.85-2.244 0-.215 1.994-.313 6.37-.313 3.504 0 6.371.114 6.371.253s-.443 1.223-.985 2.41c-2.047 4.481-3.648 10.678-3.648 14.124 0 1.33.096 1.701.44 1.701.243 0 .585-.357.76-.794.177-.437.761-1.725 1.3-2.862 4.793-10.114 20.34-7.751 22.134 3.364.648 4.011-.795 8.335-3.649 10.938-2.3 2.096-4.194 2.77-7.81 2.776-2.693.005-3.044-.064-5.005-.978-2.765-1.289-3.1-.962-1.328 1.296 3.584 4.567 4.634 9.835 2.825 14.177-2.12 5.09-8.324 8.144-13.994 6.887zm42.554-22.454c-3.11-1.585-3.715-5.322-1.294-7.995.857-.946 1.266-1.754.889-1.754-.06 0-.855.34-1.766.756-2.725 1.245-5.087.498-6.055-1.914-1.22-3.043.263-6.387 3.192-7.194 1.964-.54 3.756.426 5.058 2.727.492.869 1.03 1.58 1.196 1.58.471 0 .029-2.877-.792-5.147-.398-1.1-.724-2.147-.724-2.326 0-.22.938-.326 2.896-.326 1.8 0 2.896.113 2.896.298 0 .164-.308.912-.684 1.661-.773 1.54-1.922 4.764-1.922 5.391 0 .977.595.64 1.354-.766 1.05-1.945 2.347-2.83 4.147-2.83 2.635 0 4.37 1.916 4.439 4.9.048 2.073-.527 3.02-2.418 3.984-1.626.829-2.378.814-4.312-.084-.862-.4-1.688-.687-1.836-.638-.148.05.253.72.89 1.49 2.024 2.443 2.178 5.046.42 7.13-1.48 1.755-3.466 2.132-5.574 1.057zm-140.58-70.42c-.101-.163.331-1.496.961-2.96.63-1.466 1.48-3.721 1.888-5.012 1.335-4.216 2.073-9.92 1.342-10.371-.465-.287-1.087.381-1.303 1.4-.61 2.878-3.453 6.259-6.44 7.655-1.482.693-1.99.774-4.856.774-3.117 0-3.26-.028-5.403-1.086-4.935-2.434-7.361-7.311-6.342-12.75.95-5.066 4.433-8.57 9.377-9.428 2.45-.426 4.763-.065 7.363 1.149 2.418 1.129 2.648.663.833-1.69-5.777-7.49-4.352-16.25 3.236-19.885 4.97-2.381 11.33-1.181 14.913 2.814 1.84 2.052 2.605 4.022 2.758 7.108.2 4.013-.75 6.725-3.435 9.821-1.748 2.015-2.142 2.69-1.78 3.051.218.217.805.003 1.998-.727 1.785-1.092 4.45-1.92 6.178-1.92 2.735 0 6.549 1.607 8.55 3.603 1.947 1.942 2.817 3.895 2.97 6.663.316 5.704-2.244 10.388-6.824 12.487-2.15.985-5.856 1.227-8.234.537-3.563-1.033-6.488-3.813-8.043-7.644-.909-2.238-1.55-2.518-1.681-.734-.192 2.615 2.161 11.795 3.904 15.232.39.77.64 1.583.555 1.805-.126.329-1.292.404-6.228.404-3.847 0-6.14-.109-6.257-.297zm94.328.058c-.276-.175-.09-.86.767-2.831 2.223-5.113 3.614-10.714 3.448-13.887-.124-2.38-.728-2.233-1.709.417-1.38 3.73-3.96 6.313-7.439 7.449-2.425.79-6.333.51-8.747-.628-3.746-1.767-6.034-4.75-6.67-8.697-.502-3.105.395-6.944 2.192-9.388 3.256-4.427 9.433-5.707 14.721-3.05 2.393 1.204 2.699.747.97-1.448-2.845-3.613-3.79-6.278-3.635-10.258.123-3.183.93-5.188 2.964-7.357 4.775-5.092 13.616-5.073 18.341.04 4.446 4.811 4.21 11.498-.61 17.33-.898 1.086-1.632 2.223-1.632 2.528 0 .305.055.554.122.554s1.212-.57 2.545-1.265c3.811-1.988 7.053-2.06 10.942-.238 1.917.897 4.283 3.185 5.15 4.98 2.115 4.378.956 10.56-2.642 14.094-2.125 2.086-4.327 3.022-7.47 3.174-5.402.262-9.395-2.303-11.856-7.616-1.763-3.807-2.337-3.221-1.592 1.624.616 4.002 1.863 8.447 3.307 11.789.907 2.098 1.044 2.634.706 2.763-.655.25-11.766.179-12.173-.08zm-94.464-93.6c0-.132.514-1.421 1.142-2.865 2.802-6.446 4.41-15.033 2.868-15.325-.357-.068-.634.376-1.096 1.762-1.682 5.043-5.354 7.972-10.325 8.233-9.603.506-15.536-8.377-11.535-17.27 1.017-2.26 3.496-4.609 5.833-5.525 1.307-.512 2.28-.66 4.426-.674 2.522-.017 2.916.06 4.738.92 3.238 1.53 3.514 1.249 1.445-1.476-2.494-3.284-3.806-7.166-3.478-10.292C48.546 43.418 53.59 39 60.1 39c5.043 0 9.386 2.624 11.387 6.882.694 1.477.77 1.968.77 4.962 0 3.156-.047 3.422-.952 5.327-.523 1.104-1.436 2.579-2.027 3.278-1.386 1.64-2.378 3.018-2.378 3.303 0 .462.992.197 2.515-.673 2.94-1.678 5.773-2.075 8.935-1.254 3.292.855 5.84 2.812 7.401 5.685.942 1.732.984 1.942.984 4.844 0 3.57-.553 5.6-2.148 7.877-3.404 4.86-10.286 6.28-15.552 3.207-.657-.384-1.869-1.41-2.694-2.28-1.326-1.398-1.897-2.378-3.153-5.41-.181-.437-.546-.794-.811-.794-1.37 0 1.238 12.03 3.617 16.68.34.664.617 1.342.617 1.507 0 .199-2.154.3-6.37.3-3.504 0-6.37-.107-6.37-.238zm94.107.092c0-.081.574-1.488 1.275-3.126 2.147-5.015 3.358-9.833 3.358-13.363 0-1.48-.09-1.852-.45-1.852-.249 0-.639.481-.878 1.083-1.178 2.974-1.834 4.106-3.241 5.599-2.074 2.198-4.3 3.2-7.498 3.372-7.798.418-13.66-5.77-12.576-13.28.602-4.171 2.53-7.133 5.76-8.85a12.042 12.042 0 0 1 10.931-.209c1.536.75 2.451.926 2.451.472 0-.141-.528-.889-1.173-1.66-4.86-5.82-5.062-13.46-.471-17.955 2.682-2.626 5.596-3.671 9.688-3.476 2.08.1 2.885.284 4.487 1.032 5.096 2.38 7.841 7.472 6.89 12.783-.46 2.57-1.578 4.809-3.629 7.268-2.237 2.684-2.05 3.761.366 2.113 1.448-.986 4.416-1.87 6.283-1.87 4.132 0 8.724 2.736 10.523 6.27 2.216 4.353.844 10.98-2.998 14.482-2.297 2.094-4.191 2.768-7.815 2.781-2.665.01-3.05-.063-4.842-.91-2.92-1.38-4.66-3.166-6.199-6.365-1.93-4.012-2.484-3.568-1.722 1.384.601 3.905 1.824 8.311 3.187 11.488.57 1.325 1.034 2.527 1.034 2.672 0 .15-2.729.263-6.37.263-3.504 0-6.37-.066-6.37-.147zm-133.06-11.14c-.104-.168.298-1.435.894-2.817 1.127-2.613 1.62-4.966 1.04-4.966-.178 0-.526.482-.773 1.072-.853 2.038-2.275 3.02-4.373 3.02-1.72 0-3.01-.798-3.8-2.355-.866-1.704-.866-3.646.001-4.929 1.461-2.163 3.89-2.649 6.543-1.308.82.415 1.491.611 1.491.437 0-.175-.461-.88-1.025-1.567-1.66-2.021-1.996-3.982-1.01-5.91 2.378-4.649 8.985-2.96 8.985 2.296 0 1.465-.566 2.823-1.555 3.733-.678.623-1.026 1.466-.605 1.466.086 0 .682-.267 1.324-.594 1.435-.73 3.75-.805 4.75-.152 4.024 2.631 1.411 10.148-3.226 9.28-1.28-.24-3.04-1.81-3.724-3.324-.496-1.097-1.31-1.598-1.306-.804.004.7 1.125 4.997 1.594 6.108.388.92.405 1.17.09 1.368-.56.354-5.09.308-5.315-.054zm2.327-26.263c-3.937-.846-6.207-2.975-7.247-6.8-.717-2.64-.918-11.161-.334-14.224 1.207-6.329 4.103-9.132 9.463-9.159 2.624-.013 3.835.323 5.454 1.512 1.07.787 2.072 2.247 2.073 3.026.002.848-2.325.695-3.177-.21-1.038-1.102-2.91-1.703-4.555-1.462-3.133.458-4.93 1.889-5.724 4.554-.484 1.628-.579 3.112-.198 3.112.134 0 .948-.387 1.81-.859.861-.472 2.235-1.01 3.052-1.194 1.307-.295 1.74-.258 3.587.301 3.872 1.174 6.21 4.42 6.572 9.127.299 3.885-1.033 8.468-2.994 10.303-1.769 1.654-5.208 2.526-7.782 1.973zm4.304-3.616c3.732-1.78 4.911-9.018 2.074-12.73-2.098-2.743-6.395-2.9-9.082-.33-1.738 1.662-2.22 2.919-2.201 5.732.015 2.211.124 2.713.953 4.395 1.323 2.68 2.977 3.712 5.689 3.552.796-.047 1.952-.326 2.567-.62z" fill="#4f4f4f"/><path d="M0 157.44V0h217.76v314.88H0V157.44zm212.43 156.37c1.778-.949 3.799-3.342 4.313-5.108.384-1.316.426-18.95.36-151.7l-.073-150.21-.773-1.463c-.905-1.709-2.705-3.425-4.4-4.193C210.694.61 207.846.594 108.879.59L7.098.586l-1.448.675c-2.113.985-3.185 2.01-4.182 4L.583 7.027v150.41c0 135.27.045 150.54.45 151.72.789 2.31 3.237 4.627 5.445 5.155.5.12 46.776.198 102.84.174l101.93-.044 1.19-.636zm-19.919-20.98c-1.607-.455-3.257-1.643-4.026-2.9-.835-1.366-.723-1.627.694-1.627 1.01 0 1.408.165 2.085.87 1.459 1.52 4.048 1.777 6.74.671 2.044-.84 3.133-2.335 3.82-5.248.523-2.215.226-2.338-2.496-1.032-2.737 1.314-4.9 1.462-7.09.488-4.092-1.82-6.02-6.01-5.432-11.802.62-6.105 3.439-9.147 8.508-9.18 2.935-.018 4.849.712 6.698 2.556 2.315 2.31 2.758 3.997 2.931 11.174.156 6.444-.172 8.717-1.7 11.768-1.462 2.919-3.72 4.319-7.302 4.525-1.222.07-2.632-.038-3.43-.263zm5.698-11.71c1.493-.679 3.11-2.478 3.765-4.189 1.126-2.943-.09-8.212-2.266-9.823-3.41-2.524-8.008-1.273-9.694 2.638-1.839 4.264-.607 9.358 2.721 11.257 1.425.813 3.829.864 5.474.116zm-141.14-2.81c-3.47-.932-6.323-3.279-7.796-6.414-.701-1.493-.776-1.973-.776-4.989 0-3.274.02-3.377 1.079-5.488.593-1.184 1.799-2.99 2.678-4.016.88-1.026 1.6-2.037 1.6-2.248 0-.749-.82-.679-2.237.19-2.17 1.333-3.76 1.806-6.16 1.832-4.433.049-8.371-2.162-10.38-5.826-.855-1.56-1.035-2.211-1.148-4.148-.483-8.33 5.47-14.232 13.278-13.167 3.757.512 7.434 3.254 9.045 6.743 1.324 2.866 1.515 3.177 1.956 3.177.63 0 .49-3.459-.285-7.07-.666-3.104-2.276-8.02-3.25-9.925-.343-.67-.47-1.234-.315-1.389.144-.143 2.923-.225 6.176-.182 5.057.067 5.909.141 5.866.512-.027.238-.636 1.863-1.353 3.61-.717 1.748-1.577 4.218-1.912 5.49-.778 2.95-1.332 7.273-1.068 8.324.35 1.39 1.097.845 1.931-1.41.415-1.12 1.166-2.633 1.669-3.363 3.119-4.522 9.275-5.949 14.74-3.416 5.742 2.66 8.006 9.607 5.159 15.828-2.588 5.652-9.33 7.834-15.424 4.989-1.031-.482-1.99-.875-2.132-.875-.62 0-.155 1.185 1.087 2.766 3.644 4.638 4.461 9.988 2.223 14.556-2.382 4.86-8.58 7.43-14.25 5.908zm94.312.05c-5.553-1.601-8.937-5.88-8.915-11.274.014-3.518 1.032-6.059 3.75-9.362 2.656-3.227 2.356-3.812-1.053-2.058-3.89 2.003-7.317 2.086-11.02.269-3.51-1.723-5.802-4.924-6.09-8.504-.42-5.218 2.141-10.146 6.438-12.388 1.66-.865 1.9-.909 5.072-.909 3.012 0 3.49.075 4.996.78 2.66 1.243 4.675 3.366 6.175 6.505.705 1.475 1.407 2.682 1.56 2.682.795 0 .863-1.177.269-4.664-.713-4.19-1.648-7.551-3.041-10.935-.556-1.35-1.037-2.585-1.07-2.744-.036-.184 2.201-.318 6.13-.367l6.189-.078-.159.655c-.087.361-.747 2.086-1.465 3.834-1.585 3.851-2.352 6.71-2.832 10.546-.33 2.635-.318 2.94.13 3.387.431.43.541.438.892.068.22-.233.622-1.108.893-1.944 1.01-3.114 3.556-5.987 6.33-7.143 2.905-1.212 6.78-1.067 9.853.368 2.207 1.03 3.61 2.226 4.818 4.104 3.083 4.792 1.894 12.332-2.46 15.611-1.866 1.406-3.31 1.989-5.661 2.284-2.449.308-4.508-.03-6.85-1.124-2.801-1.307-3.123-.824-1.138 1.702 4.205 5.348 4.789 11.378 1.563 16.132-1.124 1.657-3.325 3.348-5.359 4.118-2.083.79-5.998 1.01-7.945.45zm42.834-22.463c-1.927-1.144-2.764-3.923-1.843-6.12.219-.524.805-1.414 1.303-1.98.497-.565.905-1.108.905-1.206 0-.355-.917-.166-2.09.43-1.487.758-3.931.658-4.895-.199-1.529-1.359-1.924-4.767-.754-6.499 1.077-1.594 2.452-2.363 3.935-2.201 1.627.178 2.563.885 3.739 2.825.522.861 1.108 1.565 1.303 1.565.582 0 .262-2.638-.638-5.261-.448-1.306-.744-2.443-.659-2.528.086-.085 1.321-.155 2.747-.155 3.03 0 2.941-.27 1.25 3.756-1.102 2.62-1.346 4.333-.616 4.333.235 0 .705-.646 1.048-1.442 1.057-2.453 3.475-3.418 5.89-2.351 1.104.486 1.452.835 1.945 1.946 2.023 4.563-2.101 8.467-6.371 6.032-1.262-.72-2.07-.913-2.07-.497 0 .122.537.87 1.193 1.661 1.376 1.661 1.703 2.386 1.703 3.778 0 1.353-.612 2.687-1.702 3.71-1.249 1.171-3.714 1.358-5.323.403zm-140.15-70.33c-.099-.099.084-.697.407-1.328 1.819-3.557 3.488-9.19 4.016-13.552.339-2.793.203-3.5-.645-3.37-.417.062-.76.596-1.243 1.928-1.647 4.552-4.606 7.125-9.07 7.889-4.002.684-7.964-.696-10.815-3.768-2.022-2.179-2.837-4.346-2.832-7.535.009-5.151 2.162-8.81 6.367-10.817 1.737-.829 2.117-.898 4.923-.898 2.83 0 3.178.065 5.027.938 3.24 1.53 3.574 1.178 1.457-1.538-2.445-3.138-3.589-6.131-3.589-9.393 0-6.003 3.892-10.435 10.14-11.55 2.23-.397 4.304-.131 7.09.909 2.432.908 5.296 3.766 6.202 6.19.905 2.42 1.077 5.044.482 7.366-.668 2.607-1.328 3.856-3.346 6.324-2.42 2.959-2.29 4.106.281 2.487 2.248-1.416 3.442-1.733 6.515-1.733 2.65 0 3.06.077 4.83.914 2.588 1.223 4.369 2.918 5.522 5.255.872 1.767.94 2.111.914 4.658-.031 3.191-.84 5.796-2.452 7.89-2.783 3.617-7.463 5.246-11.855 4.128-3.736-.951-6.51-3.269-8.132-6.793-1.246-2.709-1.283-2.764-1.889-2.764-.485 0-.538.197-.466 1.731.177 3.772 2.152 11.264 3.863 14.654.458.91.834 1.722.834 1.806 0 .217-12.317.19-12.535-.028zm94.191-.027c0-.114.58-1.641 1.288-3.394 1.742-4.31 2.654-7.59 3.076-11.061.383-3.159.287-3.825-.551-3.825-.412 0-.712.452-1.198 1.805-1.313 3.655-3.122 5.74-6.249 7.2-7.173 3.348-15.897-1.537-16.547-9.267-.454-5.408 2.023-10.015 6.509-12.105 1.462-.682 2.01-.772 4.696-.774 2.832-.002 3.176.061 5.027.936 3.278 1.549 3.613 1.122 1.39-1.772-4.133-5.38-4.62-11.205-1.33-15.968 2.433-3.525 7.487-5.52 11.997-4.734 5.83 1.015 9.786 5.286 10.08 10.884.205 3.9-.928 6.803-4.096 10.49-1.313 1.527-1.725 2.617-.99 2.617.2 0 1.454-.552 2.788-1.227 2.118-1.072 2.712-1.24 4.676-1.33 3.828-.173 6.979 1.109 9.54 3.881 2.22 2.403 3.053 5.762 2.355 9.498-1.516 8.106-9.402 12.177-16.713 8.628-2.531-1.23-4.414-3.274-5.76-6.254-.773-1.712-1.287-2.508-1.62-2.508-.752 0-.81.538-.379 3.484.68 4.648 1.957 9.2 3.61 12.877.47 1.04.852 1.946.852 2.01 0 .065-2.801.118-6.225.118-3.424 0-6.226-.093-6.226-.207zM54.152 92.05c0-.226.37-1.237.823-2.244 2.509-5.59 4.411-14.335 3.414-15.695-.588-.803-1.173-.22-1.811 1.803-1.75 5.548-7.319 8.942-12.965 7.9-3.89-.717-7.236-3.188-8.753-6.465-.764-1.65-.832-2.07-.832-5.12 0-3.001.075-3.482.778-4.979 1.075-2.288 2.04-3.468 3.798-4.646 2.317-1.552 4.13-2.019 7.253-1.867 2.285.11 2.917.262 4.6 1.104 1.493.747 2.032.897 2.292.638.26-.259.14-.615-.504-1.513a939.078 939.078 0 0 1-1.765-2.47c-1.72-2.416-2.246-4.234-2.255-7.788-.008-2.939.055-3.308.842-4.91 2.34-4.768 7.813-7.48 13.167-6.525 5.383.96 9.07 4.545 9.952 9.677.63 3.667-.66 7.7-3.515 11.002-1.44 1.665-2.051 2.856-1.664 3.242.1.1 1.305-.393 2.677-1.096l2.494-1.28H75.4c2.94 0 3.365.07 4.87.808 3.515 1.722 6.099 5.09 6.5 8.475.207 1.74-.262 4.714-1.091 6.926-.775 2.066-3.271 4.766-5.284 5.716-6.618 3.123-14.081-.05-16.683-7.093-.645-1.745-1.188-2.208-1.77-1.509-.798.96 1.336 10.582 3.387 15.276.556 1.271 1.037 2.441 1.07 2.6.038.184-2.184.318-6.093.367-5.172.066-6.153.012-6.153-.334zm94.107.087c0-.173.437-1.31.97-2.528 1.967-4.486 3.154-8.872 3.535-13.06.164-1.81.119-2.235-.272-2.558-.622-.516-1.23-.022-1.5 1.22-.35 1.616-1.857 4.248-3.199 5.587-5.374 5.362-15.296 3.607-18.709-3.31-.903-1.83-.949-2.08-.935-5.108.011-2.614.132-3.483.676-4.855.925-2.337 3.272-4.797 5.598-5.868 1.661-.766 2.098-.838 5.03-.838 3.055 0 3.3.045 5.036.938 1.003.517 2.001.94 2.218.94.714 0 .412-.888-.869-2.55-3.708-4.814-4.612-9.94-2.535-14.37 2.192-4.674 7.604-7.422 12.893-6.547 5.98.988 9.95 5.224 10.25 10.937.205 3.9-.928 6.803-4.096 10.49-2.144 2.494-1.71 3.36.889 1.775 2.303-1.405 4.098-1.845 6.96-1.706 3.149.153 5.185 1.014 7.45 3.15 2.041 1.927 3.076 4.012 3.255 6.559.7 9.944-8.25 16.422-16.868 12.21-2.48-1.213-4.302-3.15-5.718-6.083-.653-1.35-1.326-2.55-1.497-2.666-.522-.356-.998.63-.846 1.752.733 5.396 2.185 10.898 3.86 14.622.455 1.013.752 1.918.658 2.01-.33.33-12.235.188-12.235-.144zM14.88 80.817c1.22-2.698 2.312-5.762 2.333-6.542.043-1.54-.589-1.377-1.415.364-.603 1.273-.997 1.706-1.99 2.185-3.295 1.591-6.264-.363-6.267-4.124-.001-2.102.597-3.184 2.183-3.95 1.623-.784 2.655-.72 4.652.291.939.475 1.739.865 1.779.867.04.002.072-.232.072-.52 0-.288-.385-.892-.855-1.341-2.592-2.478-2.275-6.619.632-8.248 2.045-1.147 5.11-.304 6.129 1.686 1.102 2.153.791 4.412-.864 6.268-1.579 1.77-1.287 2.106.945 1.087 1.222-.558 1.904-.696 2.891-.585 3.754.422 4.865 5.68 1.786 8.456-.945.851-1.32 1-2.514 1-1.902 0-3.132-.867-4.21-2.969-1.635-3.19-2.18-1.513-.883 2.72 1.278 4.17 1.492 3.716-1.751 3.716-2.147 0-2.777-.086-2.653-.361zm1.252-26.34c-2.944-.79-4.977-2.938-5.896-6.23-.434-1.557-.524-2.99-.524-8.378 0-6.043.047-6.636.67-8.433.863-2.495 1.99-4.145 3.531-5.178 1.628-1.09 2.869-1.407 5.525-1.409 2.953-.002 5.393 1.14 6.513 3.046.41.698.662 1.402.56 1.566-.357.577-2.171.332-2.842-.384-1.723-1.84-4.78-2.143-7.592-.754-1.73.856-2.505 1.941-3.192 4.472-.713 2.63-.45 2.816 2.228 1.585 3.762-1.73 6.754-1.407 9.464 1.024 2.22 1.99 3.045 3.917 3.187 7.433.25 6.2-1.554 10.048-5.377 11.475-1.775.663-4.163.725-6.255.164zm5.1-2.868c2.422-1.022 4.032-3.939 4.066-7.368.038-3.807-1.157-6.17-3.762-7.441-1.303-.636-1.812-.735-3.033-.591-3.767.445-6.33 3.52-6.33 7.597 0 3.533 1.507 6.574 3.822 7.713 1.174.577 3.967.625 5.236.09z" fill="#2e2e2e"/><path d="M0 157.44V0h217.76v314.88H0V157.44zm212.75 156.5c1.388-.756 2.878-2.356 3.696-3.967l.724-1.425-.003-150.88-.003-150.88-.677-1.444c-.756-1.614-2.89-3.73-4.392-4.356-.848-.353-15.458-.41-103.43-.408L6.225.583l-1.48.847c-1.624.929-2.733 2.098-3.602 3.798C.583 6.323.577 7.993.65 157.938l.073 151.61 1.014 1.405c1.334 1.85 2.913 3.093 4.263 3.355.601.117 47.156.195 103.45.173 97.282-.039 102.41-.066 103.3-.551zm-20.6-21.448c-1.514-.576-2.97-1.716-3.501-2.74-.592-1.142-.584-1.156.679-1.156.764 0 1.286.191 1.664.608 1.9 2.093 6.195 1.988 8.775-.215 1.534-1.31 2.52-3.898 2.377-6.242-.043-.715-.39-.646-2.872.577-2.856 1.407-4.875 1.48-7.361.267-2.868-1.4-4.58-4.095-5.01-7.888-.384-3.382.87-8.362 2.561-10.172.35-.374 1.286-1.02 2.083-1.434 1.99-1.036 5.645-1.084 7.818-.102 4.192 1.895 5.385 4.952 5.424 13.908.02 4.705-.056 5.636-.631 7.726-1.337 4.858-3.904 7.034-8.498 7.205-1.6.06-2.745-.052-3.508-.342zm5.847-10.987c1.354-.563 3.109-2.237 3.92-3.741.498-.922.625-1.652.627-3.611.007-4.891-2.034-7.894-5.755-8.47-3.071-.474-5.985 1.313-7.143 4.38-.826 2.187-.709 6.505.224 8.278 1.619 3.078 5.086 4.428 8.127 3.164zm-141.31-3.57c-4.534-1.446-7.265-4.565-8.09-9.24-.597-3.38.66-7.264 3.42-10.57 1.754-2.103 2.175-2.847 1.945-3.443-.246-.64-.421-.597-2.937.713-2.813 1.464-5.4 1.951-7.81 1.47-6.155-1.227-9.896-6.259-9.054-12.18.695-4.89 3.193-8.274 7.294-9.88 2.16-.844 5.861-.832 8.051.028 3.279 1.288 5.779 3.806 6.981 7.03.75 2.009 1.49 2.792 2.135 2.259.582-.482.555-1.578-.133-5.39-.72-3.983-1.784-7.673-3.066-10.626-.547-1.26-.994-2.332-.994-2.383 0-.052 2.67-.094 5.936-.094 3.264 0 5.936.077 5.936.17 0 .094-.437 1.166-.97 2.383-2.695 6.145-4.39 14.33-3.271 15.791.683.892 1.374.252 2.233-2.069.888-2.397 2.17-4.333 3.575-5.403 3.685-2.803 8.386-3.176 12.702-1.007 2.18 1.096 3.845 2.828 4.958 5.157.831 1.74.896 2.1.882 4.911-.02 4.055-.688 5.808-3.145 8.259-2.324 2.318-4.207 3.067-7.843 3.116-2.46.034-2.739-.027-4.969-1.08-3.4-1.607-3.953-.938-1.66 2.004 2.657 3.411 3.768 6.634 3.502 10.158-.356 4.714-3.4 8.497-7.968 9.904-2.328.718-5.415.723-7.64.013zm94.097-.003c-2.436-.777-4.48-2.212-5.908-4.147-1.529-2.072-2.131-3.972-2.131-6.725 0-3.646.964-5.889 4.27-9.934 1.249-1.527 1.547-2.507.844-2.776-.213-.081-1.496.43-2.852 1.138-2.908 1.518-4.885 1.87-7.55 1.347-3.467-.68-6.574-2.899-8.178-5.84-.98-1.795-1.284-4.902-.738-7.529 1.629-7.826 9.586-11.639 16.588-7.948 2.305 1.215 4.107 3.245 5.445 6.132 1.21 2.613 1.415 2.856 2.173 2.566.438-.168.477-.478.315-2.528-.331-4.194-2.164-11.061-3.84-14.388-.378-.75-.687-1.432-.687-1.517 0-.085 2.672-.154 5.936-.154 3.265 0 5.936.114 5.936.253 0 .14-.339 1.017-.754 1.95-1.837 4.132-3.091 8.515-3.576 12.494-.323 2.646-.198 3.659.484 3.92.622.238 1.152-.282 1.555-1.524 1.997-6.15 7.396-9.608 13.163-8.428 3.86.79 6.978 3.102 8.475 6.289.703 1.497.778 1.977.778 4.979 0 3.12-.055 3.437-.904 5.226-1.558 3.28-4.394 5.4-8.16 6.098-2.285.424-4.936-.025-7.362-1.247-2.85-1.435-3.354-.602-1.252 2.066 2.78 3.53 3.766 6.31 3.575 10.072-.155 3.044-1.114 5.27-3.138 7.29-3.097 3.09-8.164 4.251-12.508 2.866zm44.715-21.69c-1.883-.423-3.239-2.296-3.239-4.475 0-1.534.283-2.172 1.634-3.68.535-.595.972-1.217.972-1.38 0-.627-1.006-.647-2.062-.04-.768.44-1.578.627-2.723.627-1.405 0-1.744-.113-2.453-.82-2.723-2.717-.905-8.135 2.73-8.135 1.721 0 3.011.939 4.074 2.964.86 1.639 1.642 2.122 1.986 1.226.298-.774-.54-4.302-1.698-7.15-.186-.46.03-.506 2.32-.506 2.895 0 2.77-.306 1.304 3.177-.501 1.192-.986 2.784-1.077 3.539-.153 1.27-.118 1.372.47 1.372.47 0 .78-.322 1.184-1.235 1.211-2.731 3.568-3.766 5.978-2.625 1.338.633 2.129 2.221 2.129 4.272 0 1.365-.127 1.734-.895 2.607-1.536 1.745-3.512 1.897-5.954.46-1.132-.666-2.128-.771-2.128-.224 0 .202.537 1.014 1.193 1.806 1.423 1.717 1.703 2.377 1.703 4.015 0 2.778-2.658 4.83-5.448 4.204zm-140.48-72.69c2.223-4.946 3.745-10.79 3.745-14.386 0-1.505-.1-1.952-.473-2.095-.756-.29-1.33.273-1.857 1.821-.726 2.132-1.346 3.207-2.689 4.663-2.21 2.396-4.84 3.537-8.156 3.537-3.46 0-6.414-1.316-8.802-3.923-1.912-2.087-2.67-4.127-2.679-7.207-.01-3.823 1.026-6.569 3.277-8.679 2.524-2.366 4.622-3.116 8.292-2.964 2.122.088 2.847.257 4.604 1.075 2.99 1.394 3.827.87 2.074-1.3-4.564-5.648-5.384-11.459-2.29-16.233 4.029-6.22 13.807-6.986 18.964-1.486 1.944 2.073 2.847 4.208 3 7.09.203 3.86-.83 6.539-3.926 10.18-2.39 2.812-1.802 4.104 1.067 2.343 2.013-1.236 3.764-1.717 6.245-1.717 5.947 0 10.728 4.177 11.076 9.677.338 5.352-2.325 10.128-6.816 12.224-1.447.676-2.02.773-4.551.774-2.657.001-3.056-.074-4.848-.92-2.762-1.306-4.533-3.18-6.059-6.413-1.029-2.18-1.355-2.631-1.9-2.631-.477 0-.67.179-.7.65-.222 3.438 1.967 12.487 3.981 16.452l.704 1.386H54.155l.863-1.92zm93.672 1.268c.11-.358.383-1.007.605-1.444 1.522-2.984 3.107-8.616 3.58-12.723.331-2.864.092-3.768-.955-3.617-.48.07-.795.557-1.376 2.128-1.484 4.017-3.72 6.27-7.336 7.39-5.43 1.681-11.416-.813-13.864-5.777-.892-1.81-.94-2.074-.93-5.09.009-2.613.128-3.478.667-4.83.916-2.3 2.844-4.338 5.198-5.494 1.827-.897 2.1-.948 5.12-.948 3.058 0 3.273.042 5.119.98 3.2 1.63 3.695.819 1.358-2.218-2.632-3.42-3.605-6.321-3.366-10.036.516-8.014 9.397-12.82 17.15-9.28 2.117.967 4.488 3.24 5.54 5.312.789 1.554.845 1.888.845 5.002 0 3.275-.02 3.377-1.079 5.489-.593 1.183-1.803 2.996-2.689 4.028-2.401 2.799-1.842 4.095 1.01 2.344 2.353-1.444 4.013-1.854 6.89-1.7 3.296.175 5.282 1.047 7.561 3.321 2.119 2.114 2.933 4.09 2.923 7.096-.018 5.278-2.355 9.287-6.555 11.248-3.733 1.743-8.385 1.283-11.611-1.147-2.225-1.674-3.102-2.877-4.535-6.211-.543-1.264-.859-1.661-1.318-1.661-.892 0-1.016.686-.647 3.597.468 3.699 1.816 8.802 3.192 12.088l1.174 2.803H148.489l.201-.65zM54.416 91.95c0-.114.592-1.666 1.315-3.45 1.74-4.287 2.742-8.277 2.945-11.719.15-2.517.113-2.83-.349-3.007-.82-.313-1.33.218-2.01 2.092-.835 2.301-1.633 3.549-3.178 4.97-4.424 4.068-11.215 3.88-15.845-.441-3.075-2.87-4.08-7.774-2.546-12.434 1.209-3.672 4.584-6.388 8.741-7.034 2.405-.374 4.573-.001 7.073 1.213 3.07 1.493 3.467.788 1.223-2.169-.81-1.067-1.88-2.809-2.38-3.87-.79-1.677-.924-2.312-1.017-4.82-.09-2.43-.007-3.153.52-4.55 3.022-8.01 14.167-10.014 20.158-3.624 1.844 1.967 2.745 4.073 2.937 6.868.257 3.748-.793 6.659-3.547 9.832-1.685 1.942-2.171 2.997-1.628 3.538.238.238.953.002 2.715-.892 3.057-1.553 5.056-1.962 7.507-1.534 5.129.895 9.068 4.853 9.44 9.487.439 5.452-2.571 10.767-7.1 12.54-2.114.826-6.18.901-8.18.151-3.29-1.235-5.78-3.767-7.235-7.359-.645-1.59-.907-1.94-1.512-2.013-1.008-.12-1.11.486-.633 3.743.674 4.601 1.91 9.087 3.48 12.63.379.854.689 1.667.689 1.806 0 .14-2.607.253-5.792.253-3.185 0-5.79-.093-5.79-.207zm94.197-.299c.086-.278.7-1.794 1.365-3.37 1.424-3.374 2.493-7.381 2.883-10.808.356-3.12.194-3.866-.813-3.747-.64.075-.867.398-1.565 2.225-1.388 3.637-3.095 5.494-6.448 7.014-2.05.93-6.22.92-8.615-.019-3.33-1.305-5.823-3.964-6.777-7.226-.62-2.122-.406-5.955.458-8.189 1.31-3.388 4.567-5.925 8.45-6.582 2.392-.405 4.511-.055 7.23 1.196 3.103 1.426 3.406.671.994-2.471-2.159-2.811-3.079-5.142-3.256-8.248-.116-2.023-.028-2.786.497-4.331 2.315-6.806 10.116-9.742 17.034-6.41 2.021.973 4.047 3 5.123 5.126.815 1.61.869 1.92.869 5.037s-.055 3.438-.897 5.2c-.493 1.032-1.698 2.852-2.678 4.044-2.787 3.39-2.331 4.204 1.298 2.321 2.826-1.466 5.27-1.948 7.558-1.49 3.604.722 6.72 2.918 8.33 5.867 1.514 2.776 1.327 7.424-.44 10.928-.892 1.768-3.076 3.97-4.805 4.846-2.926 1.483-6.793 1.513-9.87.077-2.776-1.296-4.54-3.127-6.063-6.29-.987-2.053-1.425-2.681-1.865-2.681-.863 0-.985.708-.619 3.597.466 3.678 1.858 8.972 3.1 11.785l1.209 2.744c.123.283-1.152.361-5.843.361-5.582 0-5.99-.035-5.844-.505zm-132.38-13.53c1.34-3.201 1.604-5.176.689-5.176-.396 0-.77.404-1.199 1.3-.948 1.976-1.86 2.677-3.653 2.804-1.8.128-2.7-.272-3.599-1.602-1.479-2.19-1.027-4.957 1.033-6.326 1.388-.922 2.866-.848 4.983.252 1.299.674 1.828.822 2.072.578.244-.243.184-.506-.236-1.027l-1.39-1.727c-1.69-2.104-1.598-4.745.225-6.508 1.854-1.793 5.276-1.44 6.57.677 1.275 2.084 1.049 4.26-.63 6.076-1.864 2.018-1.44 2.95.803 1.759 3.693-1.961 6.783.087 6.383 4.232-.313 3.251-3.403 5.056-6.031 3.523-.56-.326-1.32-1.24-1.897-2.278-1.292-2.33-2.013-2.384-1.935-.145.03.874.389 2.6.796 3.837.408 1.236.741 2.308.741 2.383 0 .074-1.099.135-2.442.135h-2.442l1.159-2.767zm-.708-24.09c-2.958-1.153-4.436-2.968-5.304-6.514-.724-2.957-.726-12.255-.003-14.85 1.48-5.32 4.209-7.63 9.022-7.641 2.81-.007 4.533.702 6.074 2.498 1.32 1.538 1.304 1.945-.074 1.945-.788 0-1.192-.166-1.464-.6-.52-.83-2.565-1.697-4.025-1.705-1.55-.008-3.713.71-4.957 1.646-1.875 1.41-3.395 6.725-1.923 6.725.209 0 1.332-.455 2.495-1.011 3.601-1.722 6.708-1.248 9.395 1.432 2.41 2.404 3.372 5.912 2.746 10.01-.673 4.417-2.03 6.67-4.782 7.949-1.88.873-5.123.925-7.2.116zm5.406-2.095c1.625-.486 3.173-2.121 3.94-4.163.911-2.422.769-6.268-.307-8.338-2.473-4.756-8.867-4.549-11.773.382-.718 1.218-.796 1.622-.796 4.095 0 2.254.12 3.003.667 4.19 1.618 3.504 4.657 4.913 8.269 3.834z" fill="#010101"/></svg>