<svg xmlns="http://www.w3.org/2000/svg" height="335.883" width="232.277" viewBox="0 0 217.76 314.8899"><path d="M0 157.44V0h217.76v314.88H0V157.44z" fill="#fdfdfd"/><path d="M0 157.44V0h217.76v314.88H0V157.44zm211.9 155.69c1.94-.967 3.245-2.375 4.042-4.362.476-1.185.503-9.47.503-151.04 0-142.57-.025-149.85-.513-151.25-.625-1.786-2.432-3.733-4.238-4.566l-1.33-.614-101.06-.075c-94.759-.07-101.16-.044-102.65.42-2.203.686-4.408 2.875-5.043 5.01-.415 1.395-.458 15.525-.458 151.09 0 133.05.048 149.69.44 150.79.802 2.267 2.78 4.273 4.988 5.06.9.32 18.503.389 102.31.4l101.23.012 1.773-.884zm-22.72-21.21c-.676-.472-2.122-2.775-2.122-3.38 0-.21.468-1.032 1.04-1.826 3.11-4.323 7.122-14.433 8.94-22.53l.65-2.89 1.928-.085c1.596-.07 1.96 0 2.117.405.294.764-1.543 8.764-3.087 13.44-1.245 3.77-3.48 8.742-5.188 11.536-.333.546-.607 1.09-.607 1.21 0 .118 2.214.216 4.921.216h4.923v-1.531c0-1.85.322-2.225 1.92-2.225 1.926 0 2.134.393 2.134 4.045 0 2.466-.098 3.233-.455 3.59-.662.66-16.173.683-17.113.025zM56.76 281.219c-3.806-1.055-7.104-3.71-8.567-6.9-2.164-4.714-1.12-10.582 2.638-14.83.737-.835 1.28-1.517 1.206-1.517-.074 0-1.029.422-2.122.939-1.868.883-2.177.939-5.187.939-3.116 0-3.258-.029-5.402-1.086-2.487-1.226-4.624-3.31-5.75-5.607-.922-1.882-1.13-6.207-.416-8.657 1.372-4.71 4.366-7.781 8.676-8.9 5.943-1.545 11.783 1.197 14.671 6.888l1.188 2.34-.198-1.444c-.677-4.945-2.061-9.932-3.797-13.68-.555-1.2-.945-2.35-.866-2.556.182-.475 13.916-.553 14.209-.082.1.162-.487 1.847-1.304 3.746-1.674 3.892-3.039 8.913-3.3 12.139-.165 2.055-.154 2.113.224 1.14 1.823-4.699 4.288-7.17 8.39-8.413 1.572-.477 2.461-.572 4.203-.45 6.682.47 11.388 4.98 11.835 11.342.379 5.408-2.283 10.233-6.817 12.354-1.652.773-2.35.924-4.691 1.018-2.66.107-3.9-.13-6.432-1.23-.303-.132.049.61.904 1.905 2.153 3.26 2.725 5.033 2.737 8.477.008 2.35-.115 3.203-.658 4.577-1.277 3.23-4 5.825-7.473 7.121-2.19.818-5.79 1.012-7.9.427zm96.572.101c-6.678-1.27-11.13-7.667-9.998-14.365.418-2.47 1.843-5.471 3.48-7.325.637-.723 1.158-1.385 1.158-1.47 0-.087-.88.258-1.954.766-1.832.865-2.156.923-5.156.923-3.116 0-3.26-.029-5.399-1.084-2.744-1.353-5.09-3.757-6.052-6.2-.52-1.319-.655-2.218-.64-4.27.047-6.506 3.865-11.61 9.588-12.82 5.903-1.248 11.6 1.603 14.355 7.187.966 1.96 1.052 2.056.894 1.01-.88-5.82-2.222-10.617-3.971-14.21-.48-.983-.793-1.99-.698-2.238.15-.39 1.092-.45 7.1-.45 5.489 0 6.96.079 7.076.382.081.211-.31 1.414-.867 2.673-2.173 4.9-3.88 11.238-3.836 14.243.014 1.005.04.98.662-.691 2.34-6.276 8.384-9.456 14.804-7.787 6.412 1.666 10.184 7.392 9.18 13.934-.67 4.37-2.914 7.54-6.63 9.364-1.67.82-2.269.955-4.689 1.05-2.706.108-3.849-.113-6.531-1.26-.434-.185-.313.109.496 1.208 5.284 7.181 4.076 15.834-2.774 19.871-2.784 1.642-6.226 2.2-9.598 1.559zm41.404-22.6c-2.455-1.09-3.888-5.155-2.606-7.393.228-.397.418-.82.424-.939.006-.119-.789-.216-1.765-.216-2.18 0-3.488-.712-4.33-2.359-.64-1.251-.801-3.899-.315-5.168.4-1.046 1.712-2.53 2.676-3.028 1.789-.922 4.7-.206 6.033 1.486.813 1.031.771.423-.155-2.244-.422-1.217-.688-2.419-.591-2.672.259-.674 6.786-.685 7.045-.012.094.246-.25 1.36-.764 2.473-.515 1.114-.867 2.094-.783 2.178.084.084.524-.121.978-.456 1.276-.94 3.527-1.097 5.06-.35 1.827.889 2.663 2.282 2.798 4.66.13 2.295-.301 3.335-1.883 4.538-.94.716-1.307.81-3.185.81-1.167 0-2.122.004-2.122.01 0 .007.26.522.58 1.145 1.349 2.641.233 6.184-2.375 7.538-.98.509-3.571.508-4.72-.002zM52.806 188.2c-.097-.252.36-1.717 1.016-3.256.656-1.539 1.46-3.578 1.785-4.53.788-2.304 1.734-7.004 1.726-8.568l-.007-1.255-.668 1.62c-1.377 3.339-3.337 5.497-6.189 6.816-6.065 2.805-13.882.078-16.73-5.836-1.165-2.416-1.372-6.66-.47-9.621 1.562-5.132 5.853-8.21 11.475-8.23 2.542-.01 2.846.06 6.039 1.39.372.156.21-.203-.526-1.165-2.469-3.227-3.46-6.258-3.291-10.076.096-2.195.265-2.95 1.021-4.56 1.158-2.466 2.806-4.242 5.043-5.43 3.278-1.744 6.785-2.193 10.194-1.308 2.351.611 3.666 1.35 5.618 3.151 5.056 4.67 5.14 12.673.194 18.315-.7.798-1.272 1.517-1.272 1.597 0 .081.779-.24 1.731-.715.952-.475 2.59-1.005 3.64-1.18 5.06-.836 10.67 2.057 12.946 6.676.888 1.801.937 2.069.907 4.942-.025 2.329-.179 3.44-.66 4.77-1.925 5.316-6.16 8.346-11.614 8.309-5.13-.035-9.313-2.709-11.646-7.442l-.855-1.734.192 1.878c.228 2.237 1.894 8.855 2.69 10.688.311.715.854 1.91 1.207 2.656 1.172 2.475 1.396 2.389-6.44 2.477-6.054.068-6.9.022-7.055-.38zm96.083.07c-.23-.275-.126-.775.392-1.89 2.192-4.72 3.82-10.26 4.06-13.825l.154-2.253-.687 1.774c-2.282 5.897-7.98 9.062-14.034 7.795-8.389-1.756-12.453-10.103-8.766-18.005 2.605-5.582 9.419-8.11 15.43-5.725.916.363 1.665.603 1.665.533 0-.07-.38-.608-.846-1.194-1.369-1.725-2.633-4.518-3.117-6.885-1.598-7.82 4.39-14.847 12.639-14.832 8.62.015 14.72 7.602 12.61 15.684-.574 2.198-1.597 4.159-3.185 6.104-.718.88-1.306 1.658-1.306 1.732 0 .073.71-.24 1.577-.695 3.395-1.782 7.265-1.812 10.925-.086 2.699 1.273 4.375 2.901 5.662 5.5 1.047 2.113 1.09 2.32 1.054 4.963-.097 6.992-4.017 11.928-10.346 13.028-5.338.928-11.081-2.172-13.509-7.291-.809-1.706-.864-1.76-.864-.857-.001 2.67 1.93 9.835 3.686 13.684.56 1.225.94 2.428.846 2.672-.147.383-1.116.445-6.95.445-5.205 0-6.85-.087-7.09-.376zm-48.315-47.47c-.102-.265-.043-.82.13-1.233 2.879-6.849 3.996-10.575 4.29-14.312l.16-2.04-.683 1.596c-1.428 3.33-3.494 5.602-6.235 6.854-7.508 3.429-16.294-1.024-17.755-9-.779-4.253 1.102-9.647 4.223-12.109 1.583-1.248 3.855-2.171 6.141-2.495 2.284-.323 3.984-.108 6.408.811 1.463.555 1.909.458 1.075-.232-.23-.19-.827-.982-1.327-1.76-3.57-5.548-3.153-12.342 1.017-16.604 5.933-6.063 16.518-4.8 20.795 2.48.94 1.6 1.651 4.27 1.651 6.194 0 3.063-1.565 6.971-3.811 9.517-1.364 1.546-1.403 1.833-.15 1.096 2.492-1.468 5.702-1.99 8.563-1.395 3.98.827 7.149 3.252 8.802 6.735.838 1.764.928 2.212.914 4.557-.01 1.806-.206 3.219-.64 4.628-3.359 10.913-17.972 11.823-23.117 1.44-.592-1.196-1.113-2.138-1.157-2.094-.044.044.165 1.508.465 3.253.689 4.003 1.763 7.72 3.088 10.683.568 1.27 1.05 2.636 1.07 3.033l.037.722-6.885.078c-6.2.07-6.902.03-7.069-.404zM52.809 93.46c-.09-.236.423-1.828 1.142-3.539 2.111-5.026 3.406-9.915 3.363-12.703l-.02-1.384-.525 1.468c-.75 2.105-1.74 3.544-3.598 5.24-5.848 5.331-16.122 3.126-19.518-4.19-1.1-2.37-1.27-6.882-.36-9.572 1.336-3.95 4.033-6.56 7.943-7.687 2.327-.67 6.144-.485 8.109.392.78.349 1.478.576 1.549.505.07-.07-.265-.625-.746-1.231-1.24-1.561-2.584-4.343-2.972-6.148-.183-.848-.277-2.675-.21-4.062.1-2.111.272-2.829 1.056-4.418 3.082-6.245 10.986-8.814 17.565-5.71 7.793 3.677 9.474 13.556 3.488 20.5-.736.855-1.299 1.594-1.25 1.643.05.048.934-.318 1.966-.815 3.401-1.636 8.138-1.403 11.506.566 3.143 1.837 5.477 5.349 5.781 8.699.364 4.003-1.294 8.648-3.98 11.155-6.14 5.73-15.938 3.796-19.801-3.906-1.242-2.476-1.32-2.031-.443 2.504.679 3.51 2.18 8.294 3.287 10.472 1.42 2.797 1.765 2.65-6.21 2.65-5.883 0-6.983-.066-7.123-.429zm96.028-.303c0-.403.32-1.361.71-2.13 1.825-3.593 3.933-11.227 3.915-14.182-.006-.983-.024-.966-.674.609-.946 2.295-1.734 3.476-3.25 4.869-3.739 3.438-9.606 4.138-14.37 1.713-1.8-.916-4.371-3.505-5.24-5.276-2.204-4.49-1.402-10.615 1.854-14.17 2.656-2.899 5.63-4.073 9.788-3.864 1.721.086 2.928.32 3.91.759.78.348 1.466.587 1.523.53.058-.057-.29-.598-.772-1.203-2.38-2.988-3.747-7.647-3.225-10.99 1.255-8.04 9.34-12.671 17.336-9.931 8.788 3.01 11.223 13.71 4.79 21.048-.719.819-1.255 1.54-1.192 1.603.062.063.953-.301 1.978-.808 1.756-.869 2.05-.922 5.06-.922 3.018 0 3.31.054 5.257.964 2.528 1.182 4.99 3.564 6.019 5.825 2.489 5.463-.13 13.47-5.33 16.294-6.45 3.502-14.287 1.002-17.584-5.609-.785-1.574-.936-1.743-.94-1.053-.02 2.574 1.924 9.724 3.678 13.533.563 1.222.945 2.424.85 2.672-.15.39-1.096.45-7.132.45h-6.958v-.732zm-134.25-9.82c-.094-.245.236-1.412.733-2.594 1.078-2.562 1.1-2.735.253-1.942-.867.81-2.03 1.225-3.431 1.225-2.617 0-4.432-1.644-4.886-4.427-.352-2.158.064-3.539 1.47-4.876 1.245-1.185 2.51-1.552 4.438-1.289l1.239.17-.6-1.209c-.719-1.45-.763-3.73-.096-5.016.668-1.289 2.345-2.65 3.543-2.874 2.518-.47 5.094.657 6.095 2.668.692 1.39.72 4.205.055 5.454l-.469.88 1.786-.11c1.505-.093 1.946-.003 2.8.567 2.036 1.362 2.9 4.644 1.868 7.106-.893 2.132-2.478 3.245-4.624 3.245-1.582 0-2.235-.297-3.677-1.672l-1.076-1.026.295 1.132c.162.623.563 1.813.891 2.646.911 2.313.816 2.386-3.088 2.386-2.747 0-3.379-.08-3.52-.444zm-1.259-28.76c0-1.082 1.213-6.605 2.216-10.086 1.456-5.056 3.595-10.117 6.02-14.245l.795-1.355h-9.9l-.004 1.372c-.006 1.965-.195 2.14-2.194 2.038l-1.71-.088V24.702l8.734-.076 8.734-.077 1.038 1.656c.571.911 1.039 1.791 1.039 1.955 0 .165-.468.949-1.04 1.743-2.016 2.802-4.618 8.428-6.68 14.443-.966 2.815-2.577 8.807-2.759 10.255-.086.686-.194.726-2.19.807l-2.099.085v-.917z" fill="#d2d2d2"/><path d="M0 157.44V0h217.76v314.88H0V157.44zm210.27 156.68c2.962-.967 5.25-3.108 6.005-5.621.224-.746.314-44.093.314-151.11V7.329l-.886-1.769c-.929-1.854-2.302-3.164-4.228-4.033-1.049-.473-6.873-.501-102.46-.501-98.713 0-101.38.014-102.77.546-1.829.704-3.491 2.214-4.467 4.057l-.773 1.463v301l.684 1.375c.941 1.89 3.157 3.807 5.193 4.495 1.618.546 3.665.558 101.79.594 92.407.033 100.25 0 101.6-.442zm-21.77-23.27c-1.377-1.896-1.383-2.335-.064-4.217 2.926-4.176 7.075-14.521 8.599-21.438.854-3.878.66-3.611 2.627-3.611h1.73l-.059 1.444c-.032.795-.597 3.582-1.255 6.194-1.737 6.89-3.417 11.276-6.178 16.13-.737 1.295-1.34 2.49-1.34 2.653 0 .195 1.768.3 5.062.3 5.712 0 5.252.207 5.43-2.456.076-1.142.092-1.157 1.33-1.245 1.926-.139 2.077.129 2.077 3.678 0 2.014-.12 3.205-.347 3.431-.254.253-2.554.347-8.54.347h-8.193l-.879-1.21zm-131.83-9.912c-2.387-.654-4.405-1.82-5.921-3.42-4.772-5.033-4.648-11.896.324-17.927.904-1.096 1.593-2.043 1.533-2.103-.06-.06-1.008.34-2.105.89-3.807 1.909-7.2 1.975-10.97.215-3.347-1.562-5.56-4.205-6.415-7.66-1.006-4.068.544-9.179 3.694-12.176 2.177-2.072 4.254-3.024 7.059-3.235 3.71-.28 7.204.906 9.815 3.333 1.095 1.018 2.566 3.322 3.214 5.035.695 1.838 1.124 1.767.878-.144-.633-4.915-2.08-10.263-3.79-14.007-.543-1.188-.915-2.276-.827-2.418.206-.333 13.36-.338 13.567-.006.086.139-.35 1.415-.967 2.836-1.979 4.55-3.215 9.02-3.633 13.133-.255 2.506.201 2.768.954.546 1.188-3.512 3.321-5.917 6.612-7.455 1.52-.71 2.01-.79 4.875-.79 3.057 0 3.272.042 5.358 1.036 4.31 2.053 6.675 5.516 6.894 10.092.265 5.525-2.082 9.822-6.497 11.893-3.45 1.618-7.048 1.652-10.45.098-.89-.406-1.673-.686-1.738-.62-.066.065.414.814 1.067 1.665 3.55 4.629 4.444 10.118 2.369 14.543-2.496 5.32-9.06 8.249-14.901 6.646zm95.964-.005c-5.925-1.66-9.677-6.838-9.205-12.705.275-3.425 1.48-6.053 4.218-9.206.671-.773 1.153-1.473 1.07-1.556-.083-.083-1.034.311-2.114.876-1.079.565-2.798 1.178-3.82 1.361-5.015.903-10.533-1.929-12.83-6.585-.873-1.768-.948-2.141-.942-4.672.018-7.367 4.582-12.58 11.336-12.947 5.585-.303 10.364 2.81 12.546 8.175.777 1.909 1.285 2.088 1.022.36-.879-5.78-2.14-10.437-3.803-14.05-.541-1.174-.983-2.312-.983-2.528 0-.32 1.26-.392 6.787-.392 3.733 0 6.854.106 6.934.236.08.13-.505 1.747-1.301 3.594-1.63 3.778-2.994 8.788-3.304 12.13-.252 2.711.112 2.921.974.562 1.36-3.722 4.109-6.456 7.621-7.583 1.606-.515 2.455-.61 4.556-.51 2.258.108 2.856.258 4.75 1.192 4.1 2.021 6.478 5.485 6.787 9.885.47 6.711-3.795 12.245-10.135 13.15-2.283.325-5.016-.086-6.895-1.036-.775-.391-1.552-.711-1.727-.711-.175 0 .263.747.974 1.66 6.225 7.999 4.184 17.597-4.446 20.909-2.09.802-5.938.988-8.07.391zm43.15-22.085c-1.154-.282-2.231-1.036-3.058-2.141-.913-1.22-.86-4.865.088-6.192l.685-.958-1.12.235c-2.686.562-4.526-.072-5.568-1.921-1.232-2.188-1.072-4.553.446-6.58.933-1.247 2.09-1.806 3.737-1.806 1.739 0 3.085.819 4.219 2.566l.866 1.334-.187-1.155c-.104-.636-.504-2.101-.89-3.256-1.046-3.131-1.193-2.955 2.467-2.955 1.913 0 3.243.12 3.357.305.104.168-.265 1.37-.82 2.672-1.57 3.687-1.62 4.033-.377 2.604 2.218-2.547 5.791-2.415 7.815.29.725.969.995 4.12.462 5.404-.815 1.962-3.373 3.162-5.516 2.586-.647-.174-1.368-.39-1.602-.48-.258-.098-.067.414.487 1.303.83 1.33.902 1.635.794 3.322-.093 1.47-.285 2.075-.918 2.903-1.294 1.692-3.327 2.42-5.367 1.92zm-142.69-70.94c-.094-.244.286-1.447.845-2.672 2.093-4.588 3.816-11.304 3.628-14.137l-.092-1.38-.402.867c-.22.477-.766 1.678-1.21 2.67-2.087 4.65-7.394 7.399-12.574 6.514-7.038-1.203-11.329-6.985-10.3-13.881.427-2.868 1.378-4.897 3.19-6.809 3.43-3.619 8.99-4.645 13.572-2.506 1.035.484 1.924.836 1.976.785.052-.052-.438-.802-1.089-1.666-1.693-2.248-2.838-4.66-3.336-7.027-1.615-7.678 4.186-14.622 12.253-14.667 3.514-.02 6.462 1.078 8.993 3.348 2.585 2.318 3.847 5.263 3.847 8.974 0 3.548-1.112 6.306-3.804 9.438-.775.9-1.408 1.788-1.408 1.97 0 .185.679-.05 1.52-.527 5.076-2.875 10.892-2.143 14.926 1.879 2.749 2.74 3.771 6.385 2.985 10.639-1.84 9.955-13.496 13.598-20.67 6.46-1.498-1.49-2.323-2.85-3.564-5.883-.198-.484-.254-.416-.346.424-.26 2.378 1.746 10.46 3.58 14.42 1.606 3.468 2.06 3.211-5.68 3.211-5.734 0-6.692-.062-6.84-.444zm95.964.09c-.067-.2.312-1.316.843-2.478 1.452-3.177 2.875-7.672 3.395-10.724.787-4.608.498-6.534-.504-3.364-2.347 7.428-10.512 10.613-17.648 6.885-5.743-3-7.865-10.058-4.908-16.325 2.814-5.965 10.11-8.278 16.243-5.15.692.352 1.313.587 1.38.52.066-.066-.382-.758-.997-1.537-2.658-3.366-3.657-6.052-3.641-9.793.008-1.97.163-2.984.64-4.189 1.913-4.823 6.466-7.8 11.933-7.8 6.912 0 12.209 4.698 12.657 11.227.268 3.897-.833 6.948-3.815 10.578-.89 1.083-1.574 2.013-1.52 2.067.053.053 1.177-.454 2.497-1.127 2.356-1.2 2.454-1.223 5.337-1.223 2.791 0 3.048.053 5.19 1.073 2.683 1.279 4.719 3.225 5.897 5.639.725 1.485.813 1.978.814 4.554.002 4.303-1.083 7.072-3.811 9.731-6.381 6.218-16.965 3.424-20.22-5.339-.767-2.066-1.01-1.275-.549 1.786.567 3.762 1.74 8.055 3.088 11.299 1.788 4.301 2.358 3.887-5.472 3.977-5.2.06-6.734-.004-6.828-.287zm-48.286-47.527c0-.278.506-1.675 1.124-3.105 2.1-4.862 3.72-11.447 3.449-14.027l-.104-.995-.391.867c-2.323 5.152-3.692 6.81-6.832 8.276-4.794 2.238-11.086.908-14.59-3.084-4.005-4.562-3.8-12.09.452-16.624 3.457-3.687 9.045-4.667 13.92-2.441.887.405 1.647.702 1.688.66.042-.042-.519-.856-1.246-1.81-5.746-7.53-4.157-16.618 3.544-20.267 6.412-3.038 14.374-.352 17.272 5.827 2.205 4.7 1.129 10.335-2.843 14.878-.889 1.017-1.487 1.893-1.329 1.945.159.053.925-.297 1.702-.777.777-.481 2.311-1.094 3.409-1.364 3.729-.914 7.974.248 10.92 2.988 2.853 2.656 3.93 5.327 3.641 9.036-.344 4.428-2.175 7.86-5.352 10.028-2.347 1.603-3.665 1.973-7.022 1.972-2.608 0-2.89-.061-4.944-1.074-3.327-1.64-5.537-4.144-6.893-7.808-.447-1.206-.851-.95-.687.433.543 4.57 2.112 10.463 3.721 13.988.55 1.204 1 2.368 1 2.587 0 .325-1.223.397-6.804.397-6.288 0-6.805-.038-6.804-.506zM53 93.181c0-.23.51-1.576 1.133-2.988 1.977-4.482 3.144-8.855 3.408-12.769.182-2.695-.057-2.81-.91-.433-1.168 3.26-3.576 5.975-6.476 7.304-1.245.571-2.246.783-4.133.874-9.381.456-15.476-7.703-12.405-16.607 1.403-4.068 4.828-6.871 9.268-7.584 2.314-.372 5.046.02 7.014 1.007 1.82.912 2.135.892 1.371-.088-4.322-5.54-5.33-10.635-3.077-15.545 3.532-7.696 14.607-9.442 20.787-3.277 2.114 2.109 3.218 4.664 3.368 7.796.188 3.929-.908 6.966-3.689 10.22-.809.946-1.47 1.834-1.47 1.973 0 .293-.122.34 2.317-.883 4.794-2.401 9.978-1.607 13.907 2.131 2.265 2.156 3.229 4.153 3.403 7.055.47 7.84-4.783 13.856-12.098 13.856-5.506 0-9.679-3.11-12.208-9.1l-.366-.866-.099 1.045c-.221 2.346 1.857 10.513 3.732 14.667.458 1.015.833 2.022.833 2.239 0 .32-1.256.393-6.805.393-5.762 0-6.804-.064-6.804-.42zm96.134-.167c0-.323.313-1.203.695-1.955 2.272-4.473 4.894-15.656 3.67-15.656-.146 0-.424.487-.618 1.083-1.906 5.874-6.353 8.975-12.452 8.684-2.205-.105-2.819-.26-4.703-1.19-2.745-1.353-5.083-3.765-5.993-6.184-1.287-3.416-.972-7.9.78-11.11 2.819-5.167 9.726-7.295 15.346-4.728.884.404 1.73.734 1.881.734.15 0-.313-.747-1.03-1.66-4.714-6.008-4.752-13.342-.092-17.99 6.661-6.647 18.624-3.924 21.343 4.857 1 3.234.6 7.156-1.037 10.15-.397.726-1.433 2.157-2.302 3.18-.869 1.022-1.526 1.911-1.461 1.976.065.065 1.072-.352 2.24-.925 4.962-2.441 9.97-1.761 13.984 1.9 3.12 2.844 4.267 6.866 3.225 11.298-.962 4.09-3.023 6.809-6.44 8.493-6.485 3.198-14.255.13-17.05-6.73-.74-1.816-1.196-2.012-1.063-.455.34 3.967 2.365 11.354 3.995 14.568 1.206 2.378 1.56 2.248-6.114 2.248-6.648 0-6.804-.014-6.804-.587zm-134.35-10.06c0-.3.384-1.372.853-2.383.47-1.01.937-2.228 1.04-2.704l.187-.867-.799.974c-2.051 2.5-6.09 2.373-7.828-.248-1.055-1.59-1.18-4.697-.24-5.957 1.427-1.91 3.214-2.552 5.498-1.973.788.2 1.473.326 1.52.28.048-.048-.238-.564-.636-1.149-1.39-2.044-1.263-4.657.32-6.533 1.03-1.222 2.138-1.715 3.85-1.715 4.084 0 6.452 4.102 4.54 7.868l-.671 1.323 2.047-.148c1.814-.13 2.158-.07 3.03.532 1.401.967 2.057 2.36 2.057 4.37 0 2.782-1.35 4.722-3.794 5.452-1.917.573-4.124-.634-5.672-3.104-.676-1.077-.423.68.49 3.396.477 1.423.868 2.71.868 2.86 0 .154-1.437.272-3.33.272-3.07 0-3.33-.043-3.33-.545zm-.965-27.668c-.387-.385-.17-2.06.801-6.211 1.677-7.156 3.727-12.663 6.557-17.607.784-1.37 1.425-2.575 1.425-2.679 0-.104-2.313-.153-5.14-.11l-5.14.079-.144 1.589-.145 1.588H8.848v-6.933l8.465-.076 8.464-.077.864 1.19c1.363 1.876 1.357 2.077-.124 4.3-.736 1.104-2.05 3.5-2.919 5.324-1.78 3.739-5.032 13.214-5.808 16.927-.282 1.35-.65 2.551-.818 2.668-.383.266-2.892.288-3.153.028z" fill="#b0b0b0"/><path d="M0 157.44V0h217.76v314.88H0V157.44zm211.69 156.25c1.97-.922 3.429-2.328 4.35-4.195l.692-1.403v-301l-.681-1.3c-1.037-1.976-2.846-3.68-4.605-4.336-1.527-.57-2.408-.575-102.8-.572L7.386.887 5.94 1.56c-2.114.985-3.186 2.01-4.182 4L.87 7.328v150.13c0 133.57.049 150.27.44 151.38.86 2.432 2.833 4.325 5.448 5.228 1.427.492 6.142.513 102.41.453l100.91-.064 1.617-.756zm-22.994-22.859c-1.511-2.02-1.512-2.067-.1-4.199 3.34-5.04 7.337-15.249 8.903-22.739.2-.953.488-1.895.64-2.094.382-.498 2.658-.46 3.084.05.268.323.113 1.401-.717 4.983-1.848 7.984-4.212 14.36-7.031 18.973-.666 1.09-1.21 2.097-1.21 2.24 0 .143 2.379.259 5.342.259h5.342l.087-1.661.087-1.661 1.52-.088 1.52-.087v6.963h-16.765l-.702-.939zm-131.35-9.91c-4.077-.882-7.15-3.224-8.774-6.688-.75-1.6-.938-2.406-1.037-4.465-.194-4.059 1.057-7.27 4.187-10.745 1.905-2.115 1.656-2.505-.687-1.077-4.641 2.832-10.587 2.146-14.653-1.69-2.112-1.992-3.147-4.167-3.314-6.96-.606-10.164 8.669-16.75 17.488-12.418 2.446 1.2 4.65 3.614 5.906 6.468.534 1.212 1.078 2.203 1.208 2.203.434 0 .246-2.342-.474-5.887-.776-3.823-1.788-7.089-3.097-9.987-.463-1.025-.776-2.035-.695-2.244.116-.302 1.474-.365 6.596-.303 6.247.075 6.448.096 6.407.656-.024.317-.638 2.02-1.366 3.785-1.684 4.084-2.755 8.2-2.989 11.48-.216 3.04.198 3.313 1.147.755 1.724-4.644 4.928-7.363 9.584-8.133 2.456-.406 4.922.034 7.619 1.359 5.41 2.658 7.711 8.877 5.575 15.07-1.053 3.053-3.033 5.165-6.255 6.67-1.505.703-2.024.79-4.73.79-2.834 0-3.177-.064-5.039-.944-1.098-.519-2.06-.88-2.138-.803-.078.077.075.437.339.8 3.86 5.301 4.905 8.327 4.257 12.338-.823 5.098-4.531 8.883-9.792 9.995-2.358.498-2.866.496-5.274-.025zm96.134 0c-3.992-.864-7.147-3.226-8.85-6.628-.819-1.637-.867-1.927-.867-5.2 0-3.397.02-3.51 1.053-5.633.579-1.192 1.72-2.941 2.533-3.887 1.292-1.502 1.925-2.713 1.264-2.42-.12.053-1.253.616-2.519 1.252-2.229 1.119-2.393 1.155-5.212 1.155-2.743 0-3.035-.06-5.082-1.036-5.482-2.616-7.745-7.655-6.223-13.851.872-3.551 3.296-6.568 6.424-7.997 4.879-2.228 10.567-1.046 14.208 2.952 1.125 1.235 2.452 3.58 3.067 5.416.093.278.321.506.508.506.472 0 .136-3.049-.795-7.21-.794-3.553-1.787-6.554-2.892-8.741-1.34-2.656-1.614-2.537 5.837-2.537 5.098 0 6.555.082 6.669.377.08.207-.303 1.356-.85 2.553-1.939 4.245-3.56 10.218-3.691 13.606-.101 2.599.452 2.644 1.295.106 1.853-5.582 7.188-8.885 12.967-8.03 4.118.61 7.702 3.129 9.42 6.62.768 1.56.82 1.897.82 5.284 0 3.53-.023 3.664-.986 5.615-2.852 5.78-9.661 8.133-15.564 5.377-1.046-.488-1.952-.888-2.014-.888-.365 0 .035.78 1.07 2.088 2.6 3.28 3.579 6.197 3.394 10.108-.103 2.194-.277 2.997-.958 4.415-1.61 3.354-4.884 5.835-8.792 6.661-2.315.49-2.831.487-5.233-.033zm41.535-22.492c-2.018-.899-3.348-3.499-2.929-5.727.11-.583.632-1.7 1.16-2.484l.962-1.425-1.19.539c-3.533 1.6-6.835-.526-6.835-4.402 0-1.716.304-2.513 1.456-3.822 1.06-1.204 2.666-1.784 4.165-1.504 1.173.22 2.899 1.757 3.757 3.346.3.556.6.861.666.677.16-.442-.648-3.61-1.413-5.543-.515-1.298-.548-1.585-.206-1.801.577-.364 5.584-.33 5.955.04.217.217-.016 1.056-.789 2.844-.603 1.395-1.176 3.045-1.275 3.665l-.178 1.13.565-1.012c1.615-2.889 4.468-3.833 7.08-2.343 1.25.713 1.986 2.143 2.142 4.167.12 1.537.043 1.925-.541 2.772-1.543 2.234-3.87 2.886-6.405 1.793-1.333-.575-1.37-.577-1.084-.042.163.305.44.642.615.75.56.346 1.403 2.545 1.41 3.678.01 1.776-1.285 3.845-2.947 4.707-.978.508-2.997.506-4.141-.004zm-141.66-70.42c-.23-.279.026-1.16.98-3.386 1.707-3.978 2.646-7.259 3.214-11.224.346-2.42.382-3.34.139-3.583-.243-.243-.416-.111-.674.512-2.012 4.868-3.532 6.776-6.594 8.28-1.815.891-2.066.936-5.242.936-3.14 0-3.45-.054-5.254-.907-5.542-2.62-8.067-8.248-6.467-14.415.91-3.512 2.994-5.983 6.378-7.563 1.551-.725 2.025-.803 4.902-.803 2.98 0 3.31.06 5.134.921 1.072.507 2.004.83 2.073.72.068-.11-.47-.98-1.194-1.931-3.75-4.927-4.56-10.124-2.287-14.71 3.715-7.499 14.313-9.097 20.355-3.07 4.78 4.769 4.626 12.21-.37 17.966-.858.987-1.56 1.968-1.56 2.178 0 .25.813-.04 2.328-.832 2.165-1.13 2.52-1.224 5.078-1.336 2.327-.101 3.027-.02 4.55.532 5.643 2.045 8.628 6.801 7.763 12.367-1.065 6.849-5.497 11.027-11.695 11.027-3.799 0-6.582-1.185-9.154-3.897-1.348-1.422-3.212-4.65-3.212-5.563 0-.199-.213-.361-.472-.361-.4 0-.443.23-.282 1.516.637 5.073 2.069 10.333 3.854 14.157.575 1.232.95 2.337.831 2.456-.118.118-3.049.254-6.513.302-4.908.068-6.367.004-6.609-.289zm96.092.084c-.326-.206-.184-.76.76-2.957 2.12-4.933 3.096-8.544 3.662-13.543.292-2.578-.514-2.487-1.378.156-.985 3.017-3.465 5.768-6.417 7.12-1.228.563-1.925.66-4.768.667-3.15.007-3.435-.042-5.277-.913-2.596-1.226-4.632-3.172-5.801-5.544-.902-1.827-.939-2.042-.939-5.39 0-3.45.011-3.51 1.092-5.691 1.245-2.512 2.852-4.104 5.387-5.339 1.485-.723 1.922-.793 4.959-.798 3.15-.005 3.435.044 5.284.918 1.075.508 1.955.786 1.955.618 0-.169-.578-1.073-1.283-2.01-2.56-3.396-3.501-6.312-3.292-10.193.167-3.116 1.322-5.59 3.563-7.633 7.556-6.89 19.718-2.936 21.31 6.927.594 3.681-.84 7.973-3.788 11.333-2.092 2.386-1.905 2.697.79 1.317 3.805-1.948 7.478-1.99 11.27-.126 4.543 2.231 6.776 6.423 6.147 11.539-.507 4.123-2.293 7.245-5.26 9.193-2.385 1.567-4.169 2.03-7.264 1.889-2.246-.103-2.946-.264-4.605-1.06-2.686-1.288-4.56-3.235-6.028-6.262-.653-1.345-1.322-2.445-1.488-2.445-.714 0 .874 8.266 2.437 12.688.481 1.363 1.18 3.077 1.55 3.809.507.999.593 1.413.344 1.66-.4.4-12.3.463-12.923.07zm-48.552-47.488c-.08-.206.302-1.344.848-2.528 2.045-4.437 3.507-9.886 3.718-13.853.112-2.105-.494-2.128-1.228-.047-.789 2.234-1.793 3.81-3.322 5.217-5.761 5.298-15.526 3.431-19.013-3.635-.763-1.546-.95-2.316-1.057-4.342-.299-5.69 1.964-9.868 6.488-11.98 3.37-1.573 8.12-1.4 11.065.402.985.602 1.554.502 1.06-.188-3.559-4.972-4.477-7.164-4.477-10.682 0-6.287 4.129-11.009 10.557-12.07 5.264-.871 11.229 2.186 13.37 6.851 2.167 4.723 1.2 10.028-2.657 14.574-1.372 1.618-1.92 2.612-1.44 2.612.077 0 .761-.378 1.52-.84 3.856-2.346 8.79-2.336 12.732.026 2.01 1.205 3.392 2.766 4.49 5.07.742 1.558.856 2.123.844 4.189-.026 4.284-1.42 7.73-4.09 10.116-4.655 4.157-12.175 3.82-16.596-.743-1.509-1.557-2.011-2.356-3.076-4.89-.823-1.96-1.304-1.803-1.078.35.47 4.489 2.403 11.402 4.15 14.84.58 1.144.648 1.475.337 1.672-.213.134-3.225.246-6.694.249-4.902.003-6.339-.08-6.45-.37zm-47.75-47.26c-.09-.144.238-1.152.728-2.24 2.192-4.873 3.649-10.201 3.809-13.934.101-2.369-.41-2.627-1.09-.55-1.957 5.968-7.378 9.363-13.368 8.372-5.736-.948-9.872-5.388-10.165-10.912-.227-4.299.968-7.506 3.757-10.082 2.355-2.175 4.21-2.847 7.915-2.872 2.708-.017 3.031.045 4.998.965 1.157.54 2.173.914 2.257.83.085-.084-.566-1.108-1.446-2.275-3.933-5.216-4.418-11.044-1.317-15.83 4.997-7.714 18.07-6.778 21.899 1.567 2.226 4.853 1.326 9.924-2.607 14.676-1.446 1.747-1.902 2.504-1.512 2.504.067 0 1.144-.53 2.393-1.178 1.943-1.008 2.612-1.202 4.621-1.339 5.867-.401 11.107 3.247 12.448 8.666.961 3.886-.417 8.766-3.349 11.86-2.627 2.77-6.621 4.087-10.333 3.404-4.293-.789-7.48-3.299-9.412-7.412-1.367-2.909-1.851-3.151-1.57-.785.573 4.803 2.091 10.466 3.805 14.188.54 1.17.909 2.243.822 2.383-.21.338-13.073.333-13.282-.006zm96.1-.113c-.08-.206.32-1.376.886-2.599 2.007-4.334 3.469-9.807 3.68-13.782.11-2.068-.492-2.14-1.17-.14-2.746 8.09-11.64 10.943-18.794 6.028-4.114-2.826-5.788-8.408-4.13-13.766 2.047-6.61 9.69-9.876 16.102-6.882 1.054.492 1.966.894 2.028.894.365 0-.035-.78-1.07-2.086-2.527-3.19-3.578-6.287-3.399-10.024.098-2.03.288-2.846 1.03-4.43 2.365-5.04 8.182-7.88 13.765-6.718 5.381 1.12 8.897 4.45 9.933 9.41.889 4.252-.274 8.096-3.635 12.013-1.272 1.482-1.884 2.65-1.238 2.364.12-.053 1.253-.616 2.518-1.251 2.23-1.12 2.393-1.156 5.213-1.156 2.742 0 3.036.06 5.084 1.036 4.915 2.342 7.306 6.543 6.653 11.692-.775 6.102-4.356 10.113-9.948 11.14-5.657 1.04-11.29-2.288-13.645-8.063-.955-2.343-1.441-2.354-1.185-.026.529 4.819 2.241 11.058 3.978 14.493.465.92.768 1.797.673 1.95-.101.163-2.833.277-6.679.277-5.063 0-6.539-.083-6.651-.375zm-134.32-10c-.09-.147.28-1.285.826-2.528 1.58-3.605 2.196-6.671.786-3.914-1.636 3.198-5.59 3.89-7.81 1.366-1.573-1.786-1.65-5.252-.155-6.84 1.618-1.716 3.647-2.103 5.833-1.114.677.307 1.23.503 1.23.436s-.4-.689-.89-1.381c-1.544-2.186-1.502-4.927.104-6.751 1.618-1.84 3.663-2.284 5.882-1.278 1.387.628 2.241 1.711 2.705 3.428.444 1.647.146 2.991-1.047 4.723l-.993 1.44.853-.44c2.115-1.091 4.534-.832 5.895.632 2.348 2.526 1.535 7.007-1.563 8.615-1.885.978-4.53.086-5.768-1.945-1.283-2.106-1.394-2.22-1.404-1.446-.013.921.744 3.77 1.418 5.339.405.941.465 1.365.227 1.602-.393.392-5.89.442-6.13.055zm-1.193-28.426c-.08-.211.186-1.934.594-3.828 1.79-8.314 4.05-14.541 7.219-19.883.766-1.291 1.245-2.393 1.103-2.535-.138-.138-2.522-.215-5.297-.171l-5.046.08-.09 1.436c-.05.79-.23 1.603-.398 1.806-.388.466-2.323.48-2.784.021-.475-.473-.475-6.054 0-6.528.254-.253 2.52-.347 8.386-.347 9.012 0 8.38-.146 9.729 2.249l.623 1.106-1.162 1.717c-3.708 5.478-7.201 14.63-9.394 24.61-.127.578-.319.65-1.739.65-1.06 0-1.646-.13-1.744-.384z" fill="#909090"/><path d="M0 157.44V0h217.76v314.88H0V157.44zm212.14 156.23c1.848-.972 3.687-3.022 4.286-4.775.413-1.209.456-15.592.456-151.45V7.325L216 5.563c-.99-1.977-2.365-3.322-4.315-4.222l-1.318-.608h-101.35c-99.198 0-101.38.011-102.79.553C4.336 2.014 2.25 3.995 1.4 5.871L.717 7.377.64 156.867c-.054 103.83.016 149.93.228 150.93.608 2.866 2.79 5.294 5.638 6.279 1.367.472 7.272.497 102.8.437l101.35-.063 1.484-.781zm-23.6-23.29c-.496-.771-.902-1.56-.902-1.754 0-.193.504-1.092 1.12-1.996 3.435-5.05 7.481-15.731 9.186-24.25.116-.582.301-.65 1.754-.65h1.624l-.196 1.475c-.311 2.341-2.444 10.519-3.49 13.385-1.265 3.46-2.66 6.447-4.308 9.214-.742 1.246-1.275 2.383-1.185 2.528.09.145 2.496.263 5.347.263 5.897 0 5.785.048 5.785-2.452v-1.335l1.375.088 1.375.088v6.644l-8.291.077-8.292.077-.902-1.402zM56.7 280.66c-4.86-1.335-8.152-4.859-8.966-9.594-.672-3.91.476-7.567 3.53-11.252 2.274-2.742 2.37-3.734.222-2.278-2.49 1.688-5.729 2.415-8.489 1.906-4.9-.903-8.512-4.097-9.592-8.482-.412-1.672-.433-2.306-.147-4.323.641-4.527 3.023-8.037 6.666-9.826 1.802-.884 2.085-.936 5.104-.936 3.037 0 3.295.048 5.154.961 2.722 1.338 4.665 3.364 6.049 6.31 1.822 3.88 2.282 3.5 1.535-1.265-.614-3.913-2.092-9.073-3.446-12.036-.572-1.251-1.04-2.323-1.04-2.383 0-.06 2.997-.108 6.66-.108 3.662 0 6.66.042 6.66.094s-.516 1.28-1.145 2.727c-1.624 3.735-2.834 7.816-3.358 11.324-.695 4.656-.055 5.776 1.314 2.298.402-1.02.946-2.25 1.21-2.73.754-1.376 3.286-3.569 5.1-4.417 1.482-.693 1.992-.774 4.841-.774 2.98 0 3.311.059 5.132.92 4.193 1.981 6.6 5.418 6.828 9.75.22 4.18-.955 7.514-3.478 9.868-3.596 3.356-8.73 4.074-13.435 1.878-1.011-.473-1.913-.74-2.003-.595-.09.146.514 1.145 1.342 2.221 2.59 3.363 3.602 6.416 3.383 10.199-.43 7.401-8.14 12.602-15.63 10.544zm95.972-.022c-5.478-1.471-9.026-6.058-9.039-11.686-.007-3.174 1.206-6.103 3.868-9.34.893-1.086 1.624-2.071 1.624-2.19 0-.581-.502-.465-2.413.557-3.942 2.109-7.646 2.133-11.569.077-5.517-2.892-7.323-8.561-4.839-15.185.871-2.322 3.247-4.828 5.738-6.05 1.807-.888 2.104-.944 4.968-.936 4.199.013 5.792.65 8.57 3.43 1.64 1.64 2.227 2.482 2.948 4.216 1.096 2.641 1.703 2.864 1.573.578-.217-3.775-1.907-10.22-3.704-14.123-.54-1.174-.983-2.247-.983-2.383 0-.137 2.932-.248 6.515-.248 4.94 0 6.515.085 6.515.353 0 .194-.599 1.769-1.331 3.5-1.703 4.023-2.948 8.925-3.066 12.064-.115 3.05.392 3.266 1.365.585.801-2.206 2.421-4.634 3.785-5.672.546-.415 1.74-1.105 2.654-1.532 1.487-.695 1.993-.776 4.845-.776 2.976 0 3.313.06 5.12.914 5.496 2.597 8.017 8.106 6.453 14.097-1.246 4.772-4.617 7.808-9.515 8.569-2.326.36-4.533-.008-7.036-1.177-1.1-.513-1.885-.733-1.993-.557-.099.159.402 1.028 1.112 1.932 4.91 6.246 4.893 13.444-.045 18.05-3.175 2.964-7.823 4.088-12.12 2.934zm43.012-22.083c-2.166-.651-3.414-2.43-3.414-4.867 0-1.81.29-2.588 1.467-3.924.51-.58.86-1.12.78-1.2-.081-.08-.645.147-1.254.505-1.48.871-3.834.897-4.967.054-1.292-.96-1.943-2.34-1.952-4.139-.016-3.15 1.836-5.209 4.689-5.209 1.333 0 1.664.126 2.635 1 .61.551 1.348 1.526 1.637 2.168 1.188 2.628 1.375.662.278-2.919-1.282-4.18-1.538-3.715 2.044-3.715 2.828 0 3.093.045 2.947.505-.088.278-.612 1.61-1.165 2.961-1.14 2.783-1.535 4.333-1.107 4.333.157 0 .57-.584.916-1.298.855-1.761 2.033-2.545 4.036-2.685 1.329-.093 1.79.007 2.625.567 1.336.896 2.043 2.397 2.067 4.39.046 3.777-3.425 5.763-6.995 4-.696-.343-1.322-.568-1.39-.5-.068.068.222.535.646 1.037 1.202 1.425 1.651 2.5 1.659 3.968.009 1.646-.318 2.543-1.311 3.607-1.318 1.411-3.074 1.902-4.871 1.361zm-142.4-70.89c0-.216.442-1.353.982-2.527 1.998-4.342 3.65-10.763 3.65-14.182 0-2.045-.738-1.78-1.59.57-2.107 5.81-7.254 8.938-13.075 7.943-6.89-1.177-11.155-7.147-9.962-13.943.718-4.096 2.924-7.015 6.623-8.763 1.77-.837 2.18-.914 4.83-.914 2.666 0 3.053.074 4.883.939 2.984 1.41 3.197 1.22 1.3-1.164-1.661-2.088-3.032-5.061-3.437-7.455-.817-4.837 1.522-9.813 5.796-12.327 2.762-1.625 7.069-2.024 10.438-.967 5.192 1.63 8.384 5.976 8.384 11.42 0 3.622-.944 5.934-3.88 9.506-.892 1.085-1.622 2.093-1.622 2.238 0 .484.885.275 1.97-.464 1.442-.984 4.418-1.872 6.24-1.863 6.261.03 11.372 4.552 11.709 10.362.424 7.306-4.147 12.954-10.942 13.522-5.013.418-9.685-2.372-11.905-7.11-1.284-2.738-1.275-2.724-1.7-2.865-.31-.103-.35.292-.196 2.005.385 4.324 2.14 10.835 3.803 14.109 1.25 2.46 1.588 2.324-5.784 2.324-5.298 0-6.515-.073-6.515-.392zm96.134.01c0-.212.514-1.566 1.142-3.01 1.462-3.365 2.485-6.742 3.065-10.121.805-4.692.115-6.545-1.144-3.075-.876 2.415-1.665 3.601-3.511 5.285-4.48 4.083-11.988 3.762-16.465-.705-4.705-4.693-4.417-12.876.614-17.463 2.22-2.023 4.151-2.701 7.757-2.722 2.684-.015 3.04.052 4.883.922 3.01 1.422 3.21 1.222 1.22-1.215-7.476-9.157-2.467-21.263 8.81-21.289 6.766-.015 12.01 4.669 12.39 11.066.219 3.675-.959 7.092-3.423 9.932-1.535 1.77-2.143 2.706-1.91 2.94.104.102 1.31-.39 2.683-1.093 2.466-1.265 2.527-1.28 5.426-1.28 2.697 0 3.087.074 4.888.925 4.1 1.938 6.573 5.328 6.812 9.338.236 3.954-1.055 7.497-3.686 10.116-4.545 4.526-11.522 4.56-16.516.081-1.103-.99-1.809-2.007-2.796-4.03-1.25-2.566-1.613-3.023-1.955-2.47-.256.413.669 5.83 1.575 9.234.478 1.794 1.386 4.459 2.02 5.922.632 1.463 1.15 2.758 1.15 2.877.001.12-2.93.217-6.514.217-5.222 0-6.515-.076-6.515-.383zm-48.356-47.354c0-.198.506-1.53 1.124-2.96 2.091-4.842 3.709-11.403 3.458-14.028-.149-1.562-.807-1.202-1.55.846-.799 2.198-2.336 4.497-3.758 5.619-3.967 3.129-9.878 3.334-14.28.495-4.957-3.196-6.636-9.716-3.989-15.486 2.576-5.613 9.866-8.022 15.683-5.183 2.581 1.26 2.733.987.808-1.463-5.73-7.295-4.283-16.236 3.23-19.94 4.772-2.353 11.006-1.363 14.714 2.335 1.965 1.961 3.106 4.479 3.299 7.282.277 4.034-.707 6.836-3.672 10.458-.961 1.174-1.748 2.246-1.748 2.383 0 .477.87.242 2.26-.61 7.355-4.516 17.652.805 17.708 9.15.035 5.132-2.576 9.878-6.524 11.858-6.367 3.195-14.222-.008-16.93-6.9-.729-1.855-1.075-2.278-1.416-1.728-.735 1.188 1.553 11.028 3.613 15.537.55 1.205 1 2.304 1 2.443 0 .139-2.932.252-6.515.252-5.02 0-6.515-.083-6.515-.36zM53.29 93.031c0-.151.513-1.44 1.14-2.862a45.233 45.233 0 0 0 3.06-9.926c.5-2.71.485-5.17-.031-5.339-.176-.058-.666.842-1.09 2-1.36 3.719-4.238 6.622-7.533 7.599-3.342.99-7.58.34-10.663-1.634-5.402-3.458-6.71-11.157-2.885-16.969 3.038-4.614 9.609-6.149 14.898-3.48.92.464 1.735.844 1.81.844.426 0-.004-.97-.977-2.201-2.625-3.325-3.656-6.067-3.626-9.643.043-5.082 2.847-9.135 7.635-11.036 2.308-.917 6.979-.906 9.335.022 3.521 1.386 6.367 4.396 7.352 7.777.343 1.177.433 2.329.332 4.256-.12 2.277-.282 2.939-1.174 4.784-.569 1.178-1.76 2.976-2.648 3.997-.888 1.021-1.615 1.942-1.615 2.047 0 .551.54.422 2.558-.612 3.872-1.986 7.301-2.088 11.036-.33 1.972.927 4.575 3.477 5.53 5.417.628 1.276.709 1.813.694 4.622-.018 3.558-.533 5.34-2.271 7.868-3.354 4.878-10.71 6.187-15.941 2.839-2.108-1.35-3.555-3.094-4.845-5.841-.623-1.326-1.257-2.41-1.408-2.41-.48 0-.3 2.552.435 6.176.775 3.815 1.789 7.088 3.089 9.968.458 1.015.833 1.957.833 2.094 0 .137-2.932.25-6.515.25-3.947 0-6.515-.11-6.515-.277zm96.134-.167c0-.243.313-1.058.695-1.81 1.907-3.756 4.142-12.432 3.888-15.096-.14-1.472-.822-1.246-1.405.465-1.469 4.31-3.885 6.82-7.769 8.073-2.346.757-6.298.514-8.564-.527-5.594-2.569-8.124-7.873-6.677-13.998.584-2.469 1.38-3.926 3.068-5.61 3.425-3.417 8.732-4.201 13.468-1.99 1.049.49 1.91.738 2.008.58.094-.151-.444-1.086-1.195-2.076-3.755-4.95-4.551-10.077-2.27-14.625 2.602-5.19 8.56-7.76 14.444-6.231 2.472.642 4.334 1.758 6.09 3.65 1.887 2.034 2.775 4.182 2.968 7.18.243 3.784-.85 6.789-3.677 10.103-2.477 2.905-2.297 3.293.79 1.71 3.967-2.034 7.412-2.106 11.13-.234 5.032 2.534 7.186 7.279 5.905 13.007-1.25 5.59-5.311 9.153-10.759 9.439-3.971.208-6.926-.96-9.619-3.8-1.48-1.562-2.321-2.955-2.945-4.88-.622-1.918-1.546-1.677-1.274.333.73 5.408 2.411 11.617 3.981 14.708.412.811.75 1.61.75 1.773 0 .197-2.225.299-6.516.299-5.66 0-6.515-.058-6.515-.443zm-134.35-9.98c0-.173.46-1.36 1.024-2.638.951-2.158 1.691-5.287 1.126-4.761-.136.127-.578.83-.981 1.562-.874 1.584-2.235 2.396-4.016 2.396-2.661 0-4.298-1.577-4.593-4.426-.412-3.983 3.1-6.282 6.98-4.57.78.344 1.468.577 1.528.516.06-.06-.349-.655-.908-1.324-1.76-2.102-2.017-4.455-.713-6.559.925-1.494 2.127-2.123 4.057-2.124 2.674-.002 4.573 1.683 4.823 4.277.17 1.773-.303 3.268-1.447 4.567-.482.548-.817 1.055-.746 1.127.072.071.638-.128 1.258-.443.685-.348 1.701-.573 2.587-.573 2.759.002 4.21 1.651 4.21 4.784 0 2.246-.947 3.877-2.757 4.75-2.3 1.112-4.572.147-6.035-2.563-.455-.844-.94-1.424-1.075-1.289-.308.308.345 3.475 1.151 5.584.334.873.608 1.686.608 1.805 0 .12-1.368.217-3.04.217-1.998 0-3.04-.108-3.04-.315zm-.965-27.899c-.369-.367-.186-1.707.815-5.98 1.693-7.229 4.097-13.535 6.936-18.2.568-.933 1.032-1.878 1.032-2.1 0-.336-.93-.392-5.43-.327l-5.428.079-.087 1.659c-.078 1.487-.16 1.677-.797 1.837-.39.097-1.035.096-1.433-.004-.72-.18-.724-.201-.724-3.498v-3.317h16.808l.862 1.357c.474.746.862 1.488.862 1.648 0 .16-.531 1.048-1.18 1.972-2.75 3.91-7.203 15.134-8.675 21.865-.328 1.497-.662 2.829-.744 2.961-.177.285-2.54.325-2.817.047z" fill="#6e6e6e"/><path d="M0 157.44V0h217.76v314.88H0V157.44zm212.49 156.15c1.72-.95 2.892-2.217 3.877-4.19l.653-1.308V7.372l-.759-1.615c-.974-2.073-2.852-3.866-4.818-4.6-1.538-.574-2.168-.577-103.1-.503L6.793.728l-1.448.768C3.47 2.492 2.23 3.81 1.312 5.783L.573 7.372.57 157.462c-.002 139.66.031 150.19.483 151.52.676 1.983 3.266 4.548 5.188 5.138 1.257.386 13.145.43 103.06.383l101.64-.053 1.551-.857zm-22.9-22.129c-.276-.16-.84-.87-1.256-1.576l-.754-1.284 1.294-1.954c3.205-4.838 6.45-12.904 8.457-21.02l.928-3.756 1.24-.09c.682-.05 1.357.026 1.501.17.285.284-.725 5.314-1.915 9.537-1.569 5.564-3.653 10.618-5.909 14.322-.661 1.086-1.203 2.16-1.203 2.385 0 .342.916.397 5.574.331l5.574-.078.09-1.583c.096-1.685.344-2.017 1.517-2.024 1.235-.007 1.434.471 1.434 3.462 0 1.772-.126 2.899-.348 3.12-.445.444-15.466.479-16.224.038zm-131.82-10.67c-4.015-.804-7.214-3.171-8.899-6.586-.903-1.83-.946-2.069-.946-5.26 0-3.282.02-3.383 1.079-5.495.593-1.184 1.799-2.99 2.678-4.016 2.311-2.693 2.05-3.413-.64-1.772-2.29 1.397-4.108 1.847-6.871 1.703-5.921-.31-10.558-4.634-10.82-10.087-.337-6.987 3.571-12.252 9.895-13.333 3.466-.593 7.147.552 9.975 3.102 1.16 1.047 1.853 2.039 2.852 4.089 2.13 4.368 2.66 3.426 1.546-2.749-.648-3.587-1.931-7.859-3.212-10.689-.46-1.015-.835-1.957-.835-2.094 0-.137 2.866-.249 6.37-.249s6.37.104 6.37.23c0 .127-.65 1.803-1.446 3.726-1.785 4.315-2.936 8.941-2.997 12.048-.037 1.92.035 2.338.418 2.416.337.068.645-.405 1.124-1.725 2.202-6.062 7.433-9.208 13.374-8.042 6.626 1.3 10.586 6.878 9.56 13.466-.659 4.223-2.784 7.192-6.359 8.881-1.804.853-2.17.92-4.987.92-2.83 0-3.178-.065-5.028-.938-1.093-.517-2.102-.94-2.244-.94-.54 0-.215.845.85 2.202 3.988 5.084 4.78 10.11 2.368 15.022-2.194 4.468-8.028 7.2-13.175 6.169zm95.848-.044c-6.445-1.227-10.763-7.259-9.7-13.55.423-2.5 1.86-5.49 3.53-7.343 2.768-3.074 2.426-3.63-1.127-1.833-2.442 1.235-2.528 1.255-5.412 1.255-2.693 0-3.088-.074-4.877-.92-4.878-2.305-7.232-6.435-6.588-11.555.755-5.994 4.278-9.888 9.801-10.833 5.228-.894 10.426 1.895 12.752 6.842 1.373 2.922 1.347 2.88 1.866 2.982.648.127.625-1.044-.097-5.045-.74-4.105-1.804-7.735-3.058-10.443-.55-1.19-1.002-2.34-1.002-2.556 0-.32 1.2-.393 6.404-.393 5.968 0 6.393.035 6.242.506-.089.278-.762 1.962-1.495 3.743-1.713 4.16-2.747 8.202-2.96 11.567-.161 2.562-.144 2.672.43 2.672.478 0 .722-.371 1.215-1.85 2.401-7.198 9.86-10.231 16.734-6.805 4.571 2.279 6.953 7.012 6.16 12.245-.618 4.078-2.836 7.182-6.373 8.92-1.75.861-2.082.923-4.923.923-2.862 0-3.174-.06-5.156-.986-2.764-1.292-3.1-.965-1.328 1.293 3.049 3.885 4.266 8.1 3.457 11.97-.987 4.723-4.23 7.927-9.207 9.098-2.031.478-3.172.499-5.287.096zm41.404-22.601c-1.116-.495-2.005-1.501-2.421-2.741-.707-2.105-.28-3.767 1.49-5.793 1.059-1.212.667-1.443-1.045-.616-3.707 1.79-6.778-.316-6.513-4.467.192-3 2.196-4.965 4.77-4.676 1.664.187 2.993 1.246 3.847 3.065.382.814.883 1.48 1.113 1.48.573 0 .266-1.998-.8-5.2-.449-1.35-.757-2.552-.684-2.671.073-.12 1.363-.217 2.866-.217 2.029 0 2.734.095 2.734.37 0 .203-.462 1.462-1.026 2.797-1.12 2.65-1.596 4.921-1.03 4.921.187 0 .58-.56.875-1.246 1-2.328 3.15-3.436 5.461-2.815 2.031.546 3.249 2.383 3.249 4.904 0 3.548-3.672 5.436-7.067 3.635-.749-.397-1.42-.722-1.49-.722-.414 0-.009.874.733 1.584 2.554 2.44 2.099 6.854-.864 8.382-1.029.531-3.03.543-4.198.025zm-141.59-70.36c-.095-.153.142-.9.526-1.661 1.934-3.829 3.579-9.606 4.1-14.401.154-1.423.101-1.825-.28-2.14-.577-.478-.84-.219-1.317 1.291-1.07 3.398-3.183 6.038-5.896 7.371-5.956 2.925-13.405.48-16.257-5.336-1.754-3.576-1.194-9.332 1.214-12.479 1.361-1.779 1.912-2.24 3.904-3.274 3.343-1.735 7.261-1.72 10.758.041 2.409 1.214 2.676.774.935-1.537-2.757-3.659-3.765-6.548-3.57-10.234.335-6.383 5.443-11.057 12.114-11.087 1.876-.008 4.432.604 6.13 1.468 1.773.903 4.073 3.21 4.978 4.994 2.394 4.72 1.453 10.142-2.586 14.894-1.471 1.731-1.991 2.902-1.289 2.902.163 0 .838-.342 1.5-.759 6.123-3.856 14.002-1.802 17.09 4.455.868 1.758.949 2.151.933 4.53-.021 3.162-.608 5.24-2.154 7.626-4.928 7.607-16.763 6.343-20.594-2.2-1.219-2.718-1.281-2.82-1.734-2.82-1.346 0 1.193 11.733 3.551 16.406.464.92.767 1.797.672 1.95-.23.37-12.497.37-12.727-.001zm96.157.036c-.082-.133.35-1.4.962-2.816 2.512-5.82 4.311-14.025 3.36-15.324-.517-.706-.903-.31-1.479 1.515-2.238 7.1-9.63 10.256-16.534 7.057-4.726-2.19-7.2-6.942-6.433-12.362.754-5.336 4.345-9.045 9.561-9.876 2.394-.382 4.67-.02 7.148 1.137 2.514 1.174 2.818.815 1.142-1.35-2.725-3.519-3.692-6.04-3.692-9.627 0-2.768.552-4.65 1.953-6.65 5.285-7.547 17.635-6.595 21.42 1.652 2.166 4.719 1.14 10.064-2.805 14.627-.801.926-1.457 1.933-1.457 2.238 0 .305.055.555.121.555.067 0 1.142-.523 2.39-1.163 2.788-1.43 4.9-1.85 7.327-1.46 6.318 1.014 10.64 6.193 9.992 11.97-.549 4.898-2.884 8.523-6.746 10.475-1.53.774-1.88.832-4.982.832-3.183 0-3.425-.043-5.258-.944-1.278-.627-2.44-1.505-3.469-2.616-1.62-1.752-1.799-2.038-2.98-4.77-.764-1.767-1.39-2.046-1.552-.692-.126 1.06.94 6.809 1.838 9.898.413 1.425 1.2 3.621 1.746 4.88.547 1.26.994 2.462.994 2.672 0 .306-1.25.383-6.208.383-3.415 0-6.276-.109-6.358-.242zm-48.367-47.392c-.088-.142.276-1.214.807-2.383 1.048-2.303 2.209-5.69 2.932-8.552.61-2.413 1-6.45.684-7.068-.395-.774-1.074-.287-1.428 1.025-1.592 5.9-7.157 9.557-13.09 8.604-6.812-1.095-10.871-6.553-10.013-13.467.491-3.958 2.829-7.252 6.334-8.924 1.753-.837 2.1-.898 5.067-.898 3.046 0 3.271.043 5.152.984 2.703 1.353 2.983.955 1.086-1.545-2.793-3.682-3.616-6.107-3.428-10.097.1-2.138.28-2.954.953-4.358 2.21-4.597 7.695-7.386 12.937-6.576 8.002 1.235 12.43 8.463 9.82 16.03-.653 1.895-1.514 3.298-3.313 5.4-1.279 1.494-1.719 2.617-1.026 2.617.175 0 1.054-.448 1.954-.997 2.156-1.313 3.872-1.702 6.827-1.547 1.99.104 2.77.295 4.321 1.057 2.512 1.234 4.352 3.066 5.49 5.467.827 1.744.917 2.193.88 4.398-.158 9.703-8.563 15.285-17.03 11.309-2.861-1.344-5.011-3.79-6.261-7.122-.458-1.221-.734-1.587-1.195-1.587-.56 0-.588.114-.417 1.744.473 4.51 2.094 10.61 3.811 14.34.526 1.141.881 2.149.79 2.24-.274.273-12.473.184-12.645-.094zM53.503 93.14c-.09-.09.331-1.3.936-2.69 1.922-4.422 3.173-9.015 3.589-13.18.294-2.948-.826-3.386-1.717-.67-.747 2.28-1.733 3.807-3.489 5.408-5.632 5.135-15.36 3.066-18.584-3.952-.557-1.213-.791-2.273-.882-3.99-.22-4.175.791-7.048 3.408-9.676 2.267-2.276 4.151-2.984 7.974-2.998 2.677-.009 3.045.061 4.883.929 3.32 1.569 3.512 1.293 1.203-1.73-.873-1.144-1.945-2.928-2.383-3.966-.704-1.668-.797-2.256-.802-5.065-.005-2.854.074-3.346.775-4.839 2.291-4.878 7.86-7.77 13.224-6.867 3.853.649 7.254 2.873 8.842 5.783 2.75 5.043 1.937 10.531-2.277 15.351-1.464 1.674-2.015 2.85-1.338 2.85.147 0 1.31-.542 2.584-1.203 2.012-1.043 2.623-1.22 4.632-1.335 5.77-.334 10.745 3.1 12.119 8.367.688 2.638.246 5.85-1.214 8.808-4.483 9.088-17.124 8.382-21.45-1.199-1.052-2.331-1.682-2.968-2.033-2.055-.228.59.95 7.243 1.798 10.162.4 1.376 1.224 3.65 1.83 5.055.608 1.405 1.034 2.624.949 2.71-.209.207-12.37.2-12.577-.009zm96.077-.093c-.087-.14.283-1.213.822-2.383 2.356-5.112 3.958-11.786 3.685-15.344-.061-.786-.885-.594-1.24.29-1.303 3.238-2.39 5.03-3.87 6.38-3.512 3.201-8.943 3.79-13.512 1.465-1.805-.918-4.094-3.226-4.97-5.011-2.259-4.602-1.127-10.907 2.562-14.27 2.298-2.095 4.192-2.77 7.815-2.782 2.702-.01 3.038.056 5.006.976 2.782 1.301 3.128.966 1.338-1.3-.743-.94-1.81-2.683-2.374-3.875-.907-1.92-1.037-2.494-1.15-5.055-.108-2.462-.034-3.134.5-4.547 1.353-3.57 4.224-6.287 7.768-7.35 4.879-1.466 11.02.39 13.809 4.172 3.618 4.904 3.062 11.349-1.423 16.515-1.425 1.64-2.033 2.91-1.395 2.91.119 0 1.309-.553 2.644-1.228 2.38-1.204 2.483-1.228 5.357-1.228 2.717 0 3.08.07 4.992.965 2.56 1.197 4.71 3.303 5.799 5.68.657 1.435.793 2.13.788 4.044-.015 5.37-2.35 9.477-6.575 11.56-6.23 3.072-13.834.081-16.435-6.465-.77-1.939-1.057-2.35-1.64-2.35-.37 0-.408.312-.24 1.95.43 4.185 2.357 11.39 3.824 14.29 1.197 2.366 1.488 2.248-5.519 2.248-3.415 0-6.28-.115-6.367-.256zM15.21 82.917c-.095-.152.15-.911.543-1.686 2.11-4.153 2.62-8.418.555-4.63-1.148 2.105-2.055 2.695-4.145 2.695-2.888 0-4.342-1.662-4.343-4.961 0-1.517.116-1.922.782-2.712 1.551-1.838 3.685-2.173 6.125-.96.836.415 1.593.682 1.682.593.09-.089-.291-.721-.845-1.405-1.446-1.785-1.664-2.317-1.664-4.07 0-3.639 3.498-5.848 6.761-4.272 3.05 1.473 3.626 5.395 1.187 8.089-.55.606-.998 1.183-.998 1.283 0 .34.743.183 1.882-.396 2.11-1.073 4.622-.521 5.802 1.276.262.399.54 1.478.616 2.397.397 4.772-4.559 7.428-7.616 4.082-.34-.373-.897-1.23-1.237-1.905-.34-.675-.763-1.228-.94-1.228-.487 0-.086 2.737.766 5.241.397 1.169.724 2.288.725 2.486.002.441-5.367.52-5.638.083zM13.9 54.54c0-.57.815-4.369 1.613-7.52 1.504-5.944 3.765-11.648 6.32-15.94.748-1.256 1.293-2.459 1.21-2.672-.116-.303-1.257-.386-5.297-.382-2.832.002-5.304.102-5.493.223-.19.12-.385.93-.435 1.8l-.09 1.583H9.124v-6.355l8.162-.077 8.162-.076.705.943c1.432 1.914 1.435 1.983.143 3.854-2.835 4.106-6.392 12.838-8.348 20.488l-1.107 4.333-1.47.087c-1.059.063-1.47-.017-1.47-.288z" fill="#4f4f4f"/><path d="M0 157.44V0h217.76v314.88H0V157.44zm212.42 156.37c1.778-.949 3.799-3.343 4.313-5.108.384-1.316.426-18.95.36-151.7l-.073-150.21-.773-1.463c-.905-1.71-2.705-3.425-4.4-4.193-1.164-.527-4.012-.542-102.98-.546L7.088.586l-1.447.675c-2.113.984-3.185 2.01-4.182 4L.573 7.027v150.41c0 135.27.045 150.54.45 151.72.789 2.31 3.237 4.627 5.445 5.155.5.12 46.776.198 102.84.174l101.93-.044 1.19-.636zm-23.63-23.529c-.479-.66-.87-1.382-.87-1.605 0-.223.535-1.193 1.19-2.155 3.033-4.454 7.347-15.51 8.733-22.375l.402-1.987 1.394-.09 1.394-.09-.188 1.369c-.103.752-.698 3.392-1.322 5.867-1.729 6.86-3.698 11.89-6.492 16.584-1.498 2.516-1.541 2.657-.89 2.906.655.25 10.337.21 10.724-.045.177-.117.415-.96.527-1.874l.205-1.66h2.275v6.354H189.66l-.87-1.198zm-131.84-9.788c-4.937-1.24-8.576-5.3-9.053-10.101-.374-3.768.869-7.297 3.764-10.688 2.425-2.84 2.128-3.875-.635-2.221-.914.546-2.118 1.133-2.676 1.303-4.39 1.34-9.05.043-12.252-3.407-2.372-2.557-3.16-5.44-2.519-9.23.712-4.211 3.139-7.595 6.613-9.22 1.468-.686 1.984-.768 4.835-.768 3.012 0 3.298.052 5.093.934 2.612 1.282 4.625 3.466 6.067 6.581 1.16 2.503 1.844 3.061 2.17 1.768.217-.863-.816-6.744-1.773-10.1-.4-1.402-1.226-3.702-1.835-5.111-.893-2.067-1.026-2.593-.689-2.723.556-.213 11.205-.207 11.763.007.367.14.304.46-.391 2.007-1.964 4.367-3.24 8.759-3.755 12.923-.222 1.791-.223 2.698-.005 3.105.506.943 1.078.66 1.606-.797 1.477-4.074 3.175-6.185 6.15-7.647 1.827-.897 2.1-.947 5.121-.947 2.983 0 3.318.06 5.126.914 2.58 1.22 4.37 2.92 5.514 5.238.811 1.645.947 2.25 1.042 4.658.09 2.275-.002 3.096-.518 4.62-1.097 3.24-2.863 5.277-5.704 6.58-3.412 1.565-6.82 1.502-10.45-.192-2.627-1.227-3.164-.729-1.413 1.312 2.905 3.386 4.084 6.568 3.896 10.509-.102 2.128-.273 2.85-1.046 4.415-1.152 2.334-3.211 4.3-5.745 5.483-1.61.75-2.318.904-4.553.981-1.456.05-3.143-.033-3.748-.185zm95.65-.148c-3.398-.946-5.906-3-7.436-6.087-2.285-4.613-1.403-9.927 2.372-14.292 1.645-1.903 2.092-2.758 1.665-3.184-.216-.216-.937.037-2.439.857-2.792 1.523-5.273 2.001-7.807 1.504-3.839-.753-7.13-3.168-8.609-6.316-.67-1.428-.772-2.008-.764-4.39.018-5.433 2.388-9.47 6.76-11.516 1.435-.67 1.988-.76 4.669-.76 4.105 0 5.78.656 8.417 3.295 1.489 1.49 2.098 2.375 2.803 4.07.964 2.321 1.629 3.05 2.107 2.312.823-1.27-1.838-12.366-3.975-16.578-.574-1.133-.64-1.46-.329-1.657.572-.362 11.75-.32 11.975.045.102.164-.407 1.699-1.131 3.41-1.622 3.834-2.649 7.586-3.107 11.357-.31 2.557-.298 2.926.117 3.34.63.63 1.161.166 1.64-1.431.969-3.237 3.305-6.011 6.175-7.334 1.64-.755 2.09-.83 4.987-.83 2.865 0 3.355.079 4.875.79 4.478 2.092 6.852 5.77 6.852 10.615 0 9.067-8.754 14.453-16.858 10.372-2.653-1.336-2.921-.79-.92 1.866 1.666 2.212 2.603 4.04 3.158 6.166 1.553 5.946-1.391 11.81-7.015 13.973-2.17.835-5.959 1.022-8.182.403zm42.99-22.09c-1.305-.379-2.664-1.941-3.003-3.45-.391-1.745.055-3.413 1.303-4.867 1.544-1.8 1.217-2.325-.71-1.137-1.316.812-3.656.871-4.802.122-.94-.615-1.887-2.55-1.896-3.876-.013-2.068 1.618-4.467 3.366-4.949 2.105-.58 3.852.424 5.284 3.036.989 1.804 1.479 1.957 1.479.462 0-.941-.617-3.383-1.639-6.484-.15-.458.097-.506 2.65-.506 2.142 0 2.778.087 2.66.362-1.543 3.59-2.248 5.574-2.302 6.476-.096 1.602.526 1.41 1.465-.45.927-1.84 2.167-2.633 4.11-2.631 2.6.002 4.051 1.627 4.135 4.627.036 1.321-.087 1.893-.539 2.497-1.633 2.182-3.753 2.573-6.409 1.18-.833-.437-1.582-.794-1.665-.794-.413 0-.035.783 1.007 2.089.636.797 1.293 1.953 1.459 2.569.59 2.184-.68 4.718-2.824 5.632-1.04.444-1.834.468-3.129.092zm-142.02-70.72c0-.137.442-1.21.982-2.384 2.673-5.808 4.594-15.225 3.213-15.754-.644-.246-1.16.31-1.57 1.7-2.13 7.198-9.796 10.316-16.789 6.83-4.427-2.207-6.734-7.063-5.834-12.28.712-4.13 2.546-6.688 6.028-8.405 2.116-1.043 2.34-1.091 5.124-1.091 2.683 0 3.066.073 4.897.939 1.093.516 2.168.939 2.39.939.728 0 .42-.892-.883-2.553-1.695-2.16-2.934-4.841-3.376-7.308-.682-3.808.724-7.96 3.557-10.5 6.493-5.823 17.303-3.21 20.034 4.844.657 1.935.61 5.47-.102 7.759-.575 1.848-1.432 3.241-3.7 6.015-.677.828-1.23 1.69-1.23 1.913 0 .654 1.034.473 2.461-.43 4.655-2.945 11.05-2.023 14.865 2.141 1.868 2.039 2.653 4.075 2.653 6.88 0 5.46-2.806 10.074-7.167 11.783-2.306.904-6.486.926-8.695.046-3.211-1.28-5.513-3.656-7.034-7.26-.582-1.38-.977-1.946-1.407-2.012-.53-.082-.599.056-.599 1.213 0 3.136 1.937 10.905 3.631 14.563.551 1.19 1.002 2.275 1.002 2.412 0 .136-2.801.248-6.225.248-3.424 0-6.226-.112-6.226-.248zm96.134.04c0-.115.6-1.625 1.331-3.356 1.754-4.144 2.996-9.091 3.087-12.29.066-2.35.035-2.494-.55-2.578-.524-.074-.711.185-1.223 1.698-1.223 3.613-3.676 6.382-6.656 7.515-7.437 2.826-15.597-2.035-16.172-9.633-.413-5.458 2.352-10.34 6.863-12.119 1.245-.49 2.225-.631 4.488-.644 2.684-.016 3.041.052 4.883.922 3.313 1.565 3.595 1.16 1.297-1.862-3.389-4.459-4.231-8.99-2.522-13.561.89-2.38 3.775-5.249 6.187-6.152 3.904-1.46 7.565-1.308 11.072.462 1.958.989 4.231 3.384 5.231 5.513.7 1.49.78 1.992.78 4.84 0 3.064-.037 3.254-1.052 5.343-.579 1.192-1.782 3.012-2.674 4.045-1.592 1.843-2.033 2.889-1.22 2.889.227 0 1.477-.553 2.779-1.228 2.33-1.209 2.413-1.228 5.308-1.228 2.7 0 3.098.075 4.875.914 3.854 1.822 6.276 5.082 6.544 8.806.597 8.331-5.756 14.637-13.426 13.326-4.296-.734-7.335-3.168-9.247-7.405-.809-1.79-1.275-2.497-1.647-2.497-.744 0-.757 1.138-.06 5.268.663 3.924 2.131 8.562 4.073 12.859.128.282-1.194.36-6.094.36-3.44 0-6.256-.093-6.256-.208zM101.437 139.9c.086-.278.704-1.803 1.374-3.39 2.106-4.992 3.744-13.065 2.902-14.303-.489-.719-1.188-.01-1.884 1.907-.842 2.32-1.634 3.55-3.229 5.016-1.973 1.815-4.13 2.694-6.975 2.844-5.24.276-9.453-2.188-11.615-6.793-.704-1.498-.785-1.994-.771-4.708.018-3.603.65-5.557 2.549-7.872 3.143-3.834 9.335-5.035 13.866-2.69 1.571.813 2.535.95 2.535.358 0-.21-.588-1.14-1.307-2.063-5.718-7.346-4.397-16.085 2.981-19.721 2.167-1.068 2.268-1.088 5.551-1.088 3.158 0 3.453.05 5.291.92 2.584 1.221 4.632 3.174 5.79 5.52.79 1.6.944 2.267 1.04 4.508.093 2.14-.002 2.972-.511 4.474-.615 1.816-2.253 4.684-2.904 5.085-.522.322-2.032 2.502-2.032 2.935 0 .64 1.06.446 2.543-.465 1.577-.968 4.247-1.745 6-1.745 1.458 0 4.146.68 5.582 1.414 3.196 1.63 5.548 5.063 5.791 8.45.398 5.547-2.276 10.49-6.822 12.616-1.468.687-2.002.774-4.711.774-2.95 0-3.132-.037-5.262-1.087-2.589-1.277-4.454-3.166-5.575-5.646-1.218-2.695-1.453-3.08-1.934-3.173-.69-.132-.76.67-.327 3.696.528 3.686 1.868 8.636 3.137 11.59l1.196 2.781c.121.283-1.213.361-6.136.361-5.857 0-6.279-.035-6.133-.505zM53.916 93.084c-.3-.2-.22-.604.387-1.957 2.296-5.117 3.645-10.2 3.712-13.983.04-2.257-.002-2.456-.521-2.456-.43 0-.734.45-1.271 1.878-1 2.662-2.587 4.877-4.405 6.15-2.202 1.541-4.11 2.031-7.338 1.883-2.225-.102-2.938-.266-4.569-1.048-4.52-2.169-7-6.556-6.495-11.486.353-3.432 1.466-5.755 3.775-7.875 3.41-3.13 8.505-3.706 12.957-1.464.918.462 1.802.84 1.966.84.649 0 .24-1.266-.823-2.548-2.548-3.074-3.649-5.989-3.618-9.585.036-4.214 1.906-7.625 5.318-9.7 6.332-3.853 14.86-1.458 17.906 5.028.694 1.477.77 1.968.77 4.961 0 3.118-.055 3.438-.896 5.2-.493 1.033-1.698 2.853-2.678 4.044-2.665 3.241-2.4 3.768 1.015 2.013 2.887-1.483 5.247-1.925 7.717-1.442 2.565.502 4.757 1.629 6.44 3.311 2.094 2.095 2.826 3.778 2.973 6.83.255 5.327-2.079 9.638-6.45 11.919-1.657.864-1.92.913-4.95.913-3.106 0-3.264-.032-5.357-1.066-2.796-1.382-4.134-2.792-5.765-6.08-2.165-4.362-2.852-3.267-1.761 2.81.659 3.672 1.936 7.942 3.233 10.809.461 1.018.761 1.928.667 2.022-.278.279-11.527.353-11.94.08zm95.905-.168c-.085-.222.173-1.05.574-1.84 1.791-3.527 3.943-11.61 3.943-14.815 0-1.292-.683-2.04-1.283-1.404-.213.225-.609 1.096-.881 1.936-1.114 3.433-4.006 6.399-7.227 7.41-2.456.77-6.392.545-8.66-.497-.929-.426-2.202-1.18-2.828-1.676-6.294-4.973-4.913-16.388 2.37-19.594 3.351-1.475 7.163-1.368 10.465.296 2.575 1.297 3.003.64 1.081-1.662-6.413-7.683-4.13-17.933 4.592-20.621 4.66-1.436 9.917-.074 13.09 3.39 1.785 1.948 2.639 4.125 2.82 7.187.227 3.838-.681 6.23-3.809 10.036-2.504 3.047-2.154 3.7 1.048 1.96 2.759-1.5 5.037-1.946 7.626-1.496 5.48.951 9.362 4.979 9.628 9.984.12 2.284-.478 5.29-1.421 7.135-.995 1.946-3.258 4.11-5.264 5.034-1.639.756-2.088.83-4.986.83-2.89-.001-3.336-.075-4.814-.799-3.024-1.48-5.468-4.197-6.504-7.23-.577-1.688-1.195-2.259-1.7-1.57-.955 1.303 1.574 12.135 3.89 16.663.515 1.009.563 1.295.25 1.493-.214.135-2.966.247-6.116.25-4.643.004-5.758-.072-5.884-.4zm-134.46-10.29c0-.164.31-.911.69-1.66.38-.75.97-2.265 1.311-3.368.54-1.746.566-2.058.202-2.42-.364-.364-.512-.231-1.151 1.027-1.141 2.246-2.181 2.964-4.294 2.964-1.638 0-1.818-.069-2.846-1.094-1.83-1.826-1.945-4.92-.247-6.651 1.589-1.622 3.887-1.763 6.134-.378 1.91 1.177 2.212.583.607-1.19-1.923-2.124-2.307-4.015-1.254-6.184.786-1.62 2.25-2.528 4.031-2.502 2.57.04 4.329 1.63 4.57 4.137.172 1.79-.303 3.159-1.56 4.488-.743.786-.93 1.162-.697 1.396.234.233.57.172 1.249-.226 3.073-1.804 6.236-.632 6.828 2.53.412 2.203-.139 3.885-1.703 5.198-1.335 1.121-2.619 1.252-4.254.436-1.115-.557-1.546-1.016-2.357-2.51-.849-1.563-1.052-1.77-1.396-1.427-.345.343-.34.7.028 2.448.237 1.126.697 2.742 1.021 3.593.324.851.59 1.58.59 1.62 0 .04-1.238.072-2.751.072-1.7 0-2.751-.114-2.751-.299zM14.204 54.11c.002-1.189 1.9-9.073 2.939-12.205 1.256-3.786 2.904-7.454 4.772-10.622.87-1.473 1.501-2.805 1.405-2.96-.28-.451-11-.37-11.38.085-.168.203-.347 1.015-.397 1.806-.09 1.432-.094 1.437-1.105 1.437H9.425v-6.355h8.023c8.93 0 8.162-.168 9.378 2.049.49.893.489.895-.751 2.717C23.3 34.136 19.28 44.109 17.69 50.86c-.95 4.033-.956 4.044-2.324 4.044-1.077 0-1.164-.059-1.163-.794z" fill="#2e2e2e"/><path d="M0 157.45V.01h217.76v314.88H0V157.45zm212.75 156.49c1.388-.757 2.878-2.357 3.696-3.967l.724-1.425-.003-150.88-.003-150.88-.677-1.445c-.756-1.613-2.89-3.729-4.392-4.355-.848-.353-15.458-.41-103.43-.408L6.225.583l-1.48.847c-1.624.929-2.733 2.098-3.602 3.798C.583 6.323.577 7.993.65 157.938l.073 151.61 1.014 1.405c1.334 1.85 2.913 3.093 4.263 3.355.601.117 47.156.195 103.45.172 97.282-.038 102.41-.065 103.3-.55zm-23.801-23.822c-.404-.593-.734-1.239-.734-1.435 0-.197.602-1.286 1.337-2.42 3.072-4.738 6.584-13.78 8.457-21.777l.538-2.299 1.095-.07 1.095-.07-.198 1.503c-.298 2.276-2.035 8.945-3.214 12.345-1.24 3.575-3.04 7.455-4.737 10.207-.673 1.091-1.154 2.166-1.068 2.389.128.333 1.204.391 6.026.327l5.87-.078.087-1.661.087-1.661h1.998V291.195H189.683l-.734-1.078zm-34.758-9.647c-3.743-.532-7.313-3.108-8.957-6.463-.681-1.393-.873-2.221-.974-4.217-.202-3.989.785-6.637 3.72-9.983 1.553-1.77 2.044-2.9 1.426-3.281-.454-.28-.905-.125-2.599.897-4.59 2.77-10.495 2.002-14.244-1.85-2.468-2.538-3.386-6.15-2.566-10.094 1.589-7.634 9.391-11.473 16.353-8.046 2.451 1.207 4.08 2.982 5.648 6.161 1.011 2.048 1.46 2.68 1.903 2.68.487 0 .593-.222.668-1.396.182-2.844-1.708-10.738-3.521-14.707-.552-1.208-.929-2.271-.837-2.363.282-.28 11.653-.186 11.653.097 0 .145-.455 1.325-1.012 2.622-1.217 2.836-2.613 7.303-3.027 9.681-.447 2.568-.505 5.546-.116 5.935.65.65 1.52.012 1.948-1.43 1.782-5.986 6.816-9.325 12.688-8.415 3.93.608 7.324 3.016 8.86 6.288.71 1.508.783 1.982.783 4.989 0 3.127-.053 3.434-.912 5.243-2.701 5.688-9 7.796-15.077 5.047-3.39-1.533-3.905-.85-1.558 2.067 2.634 3.275 3.649 6.204 3.45 9.965-.092 1.745-.322 2.799-.864 3.965-2.185 4.7-7.392 7.38-12.836 6.607zm-98.085-.524c-8.343-2.661-10.718-12.703-4.648-19.66 1.534-1.76 2.11-2.637 2.11-3.211 0-.753-.717-.846-1.78-.229-4.476 2.6-8.073 2.927-11.991 1.09-1.931-.905-4.32-3.207-5.208-5.018-1.895-3.864-.9-9.722 2.261-13.305 2.175-2.465 6.582-3.94 9.941-3.327 4.617.842 7.667 3.575 9.783 8.766.481 1.18 1.183 1.638 1.71 1.112 1.026-1.023-1.165-11.444-3.424-16.285-.388-.833-.708-1.677-.71-1.875-.001-.277 1.338-.361 5.74-.361 3.16 0 5.818.074 5.909.164.09.09-.264 1.098-.787 2.239-2.179 4.75-3.716 10.92-3.565 14.313.08 1.814.122 1.916.79 1.916.618 0 .826-.313 1.698-2.555.807-2.075 1.3-2.864 2.625-4.203 2.7-2.73 6.227-3.87 9.909-3.204 6.501 1.176 10.26 6.213 9.523 12.763-.905 8.044-8.556 12.214-16.126 8.789-3.251-1.47-3.905-.856-1.797 1.689 2.21 2.667 3.299 5.007 3.746 8.045.623 4.229-1.452 8.842-4.974 11.06-2.899 1.825-7.366 2.36-10.735 1.286zm139.19-22.09c-2.95-1.281-3.548-5.408-1.132-7.818 1.796-1.793 1.146-2.616-1.147-1.453-.783.398-1.89.722-2.461.722-3.789-.004-5.212-5.534-2.097-8.149 2.412-2.024 5.222-.937 6.746 2.608.387.902.68 1.223 1.045 1.149.953-.193.503-3.75-.952-7.523-.176-.458.043-.506 2.287-.506h2.481l-.955 2.239c-1.643 3.853-1.94 6.008-.799 5.788.257-.05.75-.685 1.097-1.412.943-1.981 2.14-2.86 3.901-2.86 2.668 0 3.923 1.236 4.214 4.15.123 1.234.033 1.654-.537 2.495-.792 1.17-2.308 2.02-3.6 2.021-.496 0-1.633-.39-2.529-.866-.895-.476-1.76-.866-1.923-.866-.626 0-.246 1.08.844 2.395 1.397 1.688 1.869 3.022 1.61 4.554-.48 2.832-3.475 4.47-6.093 3.333zm-141.35-70.73l1.331-3.146c1.463-3.453 2.486-7.209 2.936-10.78.427-3.383.26-4.272-.781-4.147-.627.076-.852.377-1.387 1.856-1.343 3.71-3.193 5.885-6.208 7.295-1.434.671-1.988.762-4.667.762-2.813 0-3.186-.069-4.975-.915-3.9-1.843-6.18-4.986-6.516-8.98-.446-5.304 1.849-9.702 6.152-11.79 1.573-.764 1.99-.835 4.904-.841 3.034-.006 3.272.038 5.004.932 3.249 1.677 3.902.937 1.676-1.902-4.032-5.144-4.726-10.905-1.856-15.415 2.496-3.923 7.374-6.008 12.087-5.168 6.78 1.209 10.989 6.844 9.887 13.238-.516 2.991-1.32 4.52-4.284 8.153-2.219 2.717-1.406 3.253 2.16 1.424 2.465-1.264 2.484-1.269 5.55-1.269 2.878 0 3.199.06 4.984.932 2.116 1.033 4.172 3.015 5.21 5.022.815 1.577 1.09 5.341.563 7.731-.792 3.6-3.129 6.583-6.327 8.08-1.453.678-1.997.768-4.684.768-2.836 0-3.168-.063-4.944-.93-2.62-1.278-4.631-3.461-6.087-6.605-.984-2.124-1.234-2.457-1.789-2.379-.937.133-.955 1.294-.095 5.965.706 3.83 2.23 8.816 3.385 11.076.304.595.553 1.153.553 1.238 0 .086-2.685.156-5.967.156-4.661 0-5.933-.079-5.815-.36zm96.045.243c0-.065.452-1.173 1.005-2.462 2.326-5.421 4.137-13.553 3.384-15.2-.411-.901-1.418-.934-1.758-.058-1.391 3.58-2.001 4.753-3.12 5.995-4.143 4.596-11.984 4.636-16.646.085-.756-.739-1.714-2.1-2.171-3.087-.742-1.6-.818-2.064-.818-4.958 0-3.112.028-3.25 1.094-5.401 1.236-2.495 2.673-3.92 5.131-5.091 1.406-.67 1.949-.759 4.633-.759 2.83 0 3.179.065 5.028.94 3.53 1.667 4.002 1.026 1.587-2.152-2.652-3.491-3.604-6.353-3.363-10.11.426-6.611 6.975-11.441 13.852-10.215 4.033.719 7.277 3.124 8.9 6.597.602 1.29.794 2.2.876 4.155.164 3.917-.85 6.687-3.552 9.7-1.468 1.637-2.002 2.572-1.787 3.13.247.642.821.502 3.363-.816 2.094-1.086 2.63-1.239 4.672-1.331 5.224-.237 9.884 2.738 11.427 7.294.645 1.907.428 6.045-.434 8.263-1.739 4.473-5.696 7.222-10.395 7.222-2.567 0-4.504-.591-6.677-2.039-2.082-1.387-3.524-3.247-4.611-5.949-.616-1.529-.944-1.999-1.446-2.07-.953-.136-1.082.555-.69 3.695.458 3.657 1.774 8.593 3.2 11.996l1.15 2.744h-5.918c-3.254 0-5.916-.053-5.916-.118zm-48.357-47.221c0-.14.323-.982.718-1.872 1.226-2.766 2.672-7.176 3.142-9.582 1.03-5.274.902-7.213-.466-7.015-.471.068-.764.508-1.222 1.839-1.219 3.537-3.217 5.935-6.163 7.395-1.194.591-1.785.677-4.696.677-3.012 0-3.489-.074-4.995-.778-2.185-1.022-4.544-3.28-5.595-5.356-.786-1.552-.843-1.893-.845-5.002-.002-3.282.016-3.374 1.094-5.55 1.24-2.504 2.57-3.771 5.294-5.044 1.518-.71 2.052-.802 4.613-.802 2.666 0 3.053.074 4.883.939 3.438 1.624 3.987 1.049 1.746-1.827-2.69-3.453-3.745-6.476-3.514-10.074.403-6.28 5.138-10.597 11.652-10.622 5.353-.022 9.68 2.812 11.437 7.492.524 1.396.609 2.122.514 4.415-.134 3.247-.811 5.213-2.535 7.367-.636.794-1.553 1.957-2.039 2.585-1.668 2.154-.521 2.804 2.134 1.209 3.274-1.967 7.224-2.164 10.715-.535 3.823 1.785 6.035 4.9 6.22 8.761.268 5.564-2.162 10.023-6.56 12.04-2.182.999-5.92 1.227-8.2.5-3.45-1.1-6.405-4-7.762-7.619-.644-1.718-1.34-2.353-2.078-1.897-1.048.645 1.077 10.818 3.355 16.064.53 1.22.89 2.293.801 2.383-.27.27-11.649.182-11.649-.09zm-47.611-47.77c.11-.357.43-1.105.71-1.661 2.363-4.69 4.444-14.611 3.365-16.033-.682-.898-1.372-.247-2.25 2.123-1.658 4.476-4.815 7.054-9.41 7.684-4.588.63-9.904-2.312-11.867-6.565-.75-1.625-.828-2.089-.817-4.83.017-4.055.684-5.806 3.142-8.26 3.573-3.564 8.423-4.226 13.425-1.83 1 .478 1.944.792 2.1.696.588-.363.237-1.358-1.024-2.902-4.63-5.67-4.769-12.86-.335-17.283 5.527-5.513 15.884-4.044 19.316 2.739 2.422 4.785 1.565 9.662-2.58 14.698-2.808 3.412-2.287 4.17 1.508 2.19 2.812-1.468 4.911-1.851 7.5-1.371 2.582.479 4.702 1.585 6.436 3.356 2.04 2.084 2.76 3.963 2.76 7.202 0 4.014-1.14 6.808-3.784 9.275-2.66 2.483-6.01 3.403-9.678 2.657-4.448-.905-7.437-3.54-9.115-8.036-.654-1.754-1.299-2.259-1.994-1.565-.379.377-.387.799-.066 3.26.633 4.851 1.858 9.076 4.275 14.744.12.282-1.154.36-5.832.36H53.82l.202-.65zm95.972.441c0-.114.579-1.577 1.286-3.25 2.213-5.233 3.85-12.976 3.094-14.632-.204-.446-.523-.69-.826-.633-.532.102-.718.42-2.143 3.645-1.164 2.636-3.458 4.888-5.962 5.854-2.329.898-5.938.9-8.259.005-3.58-1.382-6.129-3.983-7.072-7.222-.72-2.468-.418-6.292.685-8.69 2.661-5.786 9.333-7.926 15.442-4.952 2.835 1.38 3.458.557 1.424-1.878-.645-.772-1.7-2.46-2.346-3.751-1.012-2.024-1.195-2.685-1.326-4.782-.314-5.02 1.885-9.008 6.15-11.149 4.744-2.382 11.308-1.245 14.75 2.557 1.79 1.977 2.574 4.028 2.713 7.099.186 4.104-.618 6.103-4.218 10.496-2.282 2.784-1.449 3.437 2.053 1.61 2.828-1.476 4.91-1.852 7.541-1.364 3.687.684 6.786 2.998 8.304 6.199.722 1.522.85 2.145.85 4.124.001 6.546-3.788 11.38-9.632 12.289-5.244.814-10.461-2.167-12.526-7.158-.94-2.271-1.627-3.14-2.285-2.889-1.332.51.762 10.932 3.34 16.627.459 1.015.834 1.892.834 1.95 0 .057-2.67.104-5.936.104-3.264 0-5.936-.093-5.936-.208zM15.735 82.41c.088-.278.632-1.644 1.21-3.036.718-1.734 1.02-2.872.959-3.611-.123-1.483-.796-1.402-1.602.193-1.295 2.56-3.021 3.526-5.24 2.93-1.943-.522-2.948-2.105-2.948-4.645 0-1.166.155-1.593.883-2.42 1.586-1.801 3.513-1.987 5.973-.576 2.287 1.311 2.86.57 1.078-1.398-1.946-2.149-2.401-4.531-1.202-6.289 1.5-2.199 3.537-2.797 5.712-1.676 1.617.833 2.39 2.113 2.39 3.958 0 1.584-.327 2.328-1.695 3.853-.942 1.052-1.058 1.957-.25 1.957.208 0 1.035-.34 1.84-.757 2.893-1.498 5.53-.151 5.972 3.049.17 1.229.09 1.703-.476 2.84-1.773 3.565-5.369 3.538-7.362-.053-1.169-2.106-1.465-2.411-1.908-1.97-.531.53-.318 2.432.59 5.248.46 1.426.765 2.664.678 2.751-.087.087-1.194.158-2.46.158-2.06 0-2.285-.053-2.142-.506zM14.33 53.956c.08-.357.47-2.11.865-3.895 1.665-7.529 4.08-14.01 7.058-18.945 1.236-2.049 1.47-2.628 1.192-2.961-.278-.333-1.402-.414-5.739-.41-2.966.002-5.549.103-5.738.223-.19.12-.385.93-.435 1.8l-.09 1.583H9.418V25.574l7.528-.082c4.141-.044 7.79-.017 8.108.06.319.078.884.7 1.257 1.382l.678 1.24-1.561 2.48c-2.868 4.555-6.46 13.703-8.046 20.486-.353 1.51-.69 2.906-.747 3.105-.062.212-.588.361-1.278.361-1.066 0-1.16-.059-1.026-.65z" fill="#010101"/></svg>