<svg xmlns="http://www.w3.org/2000/svg" height="335.876" width="232.277" viewBox="0 0 217.76 314.884"><path d="M0 157.44V0h217.76v314.88H0V157.44z" fill="#fdfdfd"/><path d="M0 157.44V0h217.76v314.88H0V157.44zm211.9 155.69c1.94-.967 3.245-2.375 4.042-4.362.476-1.185.503-9.47.503-151.04 0-142.57-.025-149.85-.513-151.25-.625-1.786-2.432-3.733-4.238-4.566l-1.33-.614-101.06-.075c-94.759-.07-101.16-.044-102.65.42-2.203.686-4.408 2.875-5.043 5.01-.415 1.395-.458 15.525-.458 151.09 0 133.05.048 149.69.44 150.79.802 2.267 2.78 4.273 4.988 5.06.9.32 18.503.389 102.31.4l101.23.012 1.773-.884zM3.66 299.08c-.326-.325-.199-.666.25-.666.238 0 .434.122.434.272 0 .364-.453.625-.684.394zm190.2-7.694c-1.679-.554-2.386-.98-3.85-2.32-1.775-1.626-2.659-3.585-2.662-5.9-.003-2.091.428-3.3 1.686-4.73l.894-1.016-1.17-1.13c-.644-.622-1.519-1.716-1.944-2.43-.683-1.15-.772-1.601-.772-3.9 0-2.442.063-2.715 1.038-4.478 2.047-3.704 5.91-5.754 10.173-5.398 3.847.322 7.546 2.728 9.125 5.935.673 1.369.797 1.976.772 3.796-.037 2.693-.769 4.367-2.76 6.312l-1.414 1.382.754.703c1.392 1.295 1.988 2.816 1.984 5.053-.007 3.5-1.724 6.116-5.033 7.668-1.633.766-5.164 1-6.821.453zm5.24-4.352c3.388-1.574 3.646-5.193.509-7.138-1.63-1.01-4.766-.996-6.269.03-1.439.982-2.069 2.217-1.873 3.674.223 1.662 1.004 2.667 2.67 3.442 1.848.858 3.103.856 4.963-.007zm.44-12.538c3.067-1.598 4.321-4.915 2.753-7.28-1.754-2.644-6.363-3.62-9.21-1.95-1.94 1.138-2.657 2.271-2.776 4.392-.076 1.357.029 1.947.472 2.65 1.774 2.818 5.682 3.793 8.762 2.188zM56.9 278.721c-3.978-.752-7.474-3.45-9.212-7.109-.87-1.832-.922-2.129-.922-5.264 0-3.22.032-3.388 1.042-5.488.573-1.192 1.655-2.914 2.405-3.828.75-.914 1.311-1.661 1.248-1.661-.063 0-.93.407-1.929.905-2.51 1.251-5.967 1.476-8.923.58-3.697-1.12-7.02-4.298-8.044-7.691-.868-2.877-.366-7.016 1.238-10.209 1.071-2.131 3.923-4.734 6.067-5.537 6.276-2.352 13.124.372 16.162 6.43 1.222 2.437 1.271 1.984.303-2.788-.815-4.013-1.833-7.243-3.196-10.137-.521-1.107-.884-2.18-.806-2.383.11-.286 1.711-.37 7.07-.37 5.987 0 6.95.061 7.1.448.094.246-.23 1.319-.721 2.383-1.3 2.817-2.26 5.466-2.916 8.044-.58 2.278-1.282 7.037-1.07 7.25.062.061.333-.548.602-1.354 1.77-5.318 6.747-8.657 12.406-8.324 6.965.41 11.777 5.458 11.777 12.357 0 5.293-2.395 9.23-6.914 11.366-1.788.845-2.133.907-5.103.907-2.696 0-3.403-.1-4.605-.654-.781-.36-1.467-.607-1.524-.55-.058.058.471.96 1.175 2.007 1.862 2.77 2.557 4.786 2.711 7.863.107 2.141.02 2.927-.498 4.454-1.13 3.336-3.323 5.793-6.49 7.272-2.868 1.339-5.367 1.659-8.432 1.08zm98.597.138c-1.908-.318-4.507-1.412-6.052-2.546-5.964-4.38-6.576-13.065-1.35-19.16.727-.848 1.321-1.588 1.321-1.646 0-.058-.88.31-1.954.818-1.83.864-2.158.923-5.14.923-2.983 0-3.31-.058-5.142-.925-5.44-2.57-7.99-7.59-6.768-13.325.96-4.507 3.073-7.39 6.746-9.2 1.89-.932 2.505-1.089 4.683-1.19 2.029-.096 2.867.002 4.39.512 3.681 1.232 6.215 3.444 7.843 6.848.48 1.004.914 1.825.963 1.825.05 0 .046-.292-.009-.65-.867-5.69-2.111-10.242-3.786-13.848-.568-1.222-.954-2.425-.859-2.673.15-.39 1.099-.45 7.165-.45h6.991l-.146.794c-.08.437-.763 2.289-1.516 4.114-1.606 3.893-2.672 7.946-2.89 10.98-.148 2.078-.138 2.125.25 1.14 1.237-3.148 3.235-5.7 5.498-7.02 6.022-3.515 14.47-1.09 17.574 5.042 2.292 4.53 1.53 10.634-1.78 14.247-3.759 4.102-9.182 5.062-14.838 2.627-.359-.155-.11.387.766 1.662 4.138 6.031 3.87 13.035-.672 17.495-2.86 2.809-7.391 4.256-11.288 3.606zm39.67-20.635c-1.02-.405-1.991-1.374-2.635-2.625-.658-1.28-.718-3.799-.116-4.85.677-1.182.547-1.306-1.27-1.204-2.816.16-4.35-1.056-4.97-3.936-.536-2.493.582-5.134 2.726-6.438 1.81-1.101 4.875-.419 6.224 1.385.83 1.112.787.399-.142-2.275-.422-1.217-.689-2.42-.591-2.672.147-.383.731-.46 3.524-.46 4.042 0 4.115.078 2.74 2.913-.53 1.094-.882 2.07-.781 2.17.1.101.524-.085.942-.413.418-.327 1.35-.684 2.071-.792 3.342-.5 5.887 1.905 5.887 5.564 0 1.749-.612 3.044-1.901 4.026-.976.742-1.324.832-3.216.832-1.167 0-2.122.005-2.122.011 0 .006.26.521.579 1.145 1.35 2.641.234 6.184-2.375 7.538-.892.463-3.498.51-4.574.081zM104.262 232.1c-5.88-1.272-9.723-5.536-10.076-11.183-.25-4.003.726-6.96 3.385-10.25.802-.993 1.409-1.805 1.348-1.805-.061 0-1.005.422-2.098.939-1.85.873-2.198.938-5.028.938-2.895 0-3.144-.05-5.23-1.043-4.16-1.982-6.609-5.325-6.87-9.377-.52-8.107 4.851-14.279 12.43-14.279 4.841 0 9.102 2.722 11.384 7.273 1.14 2.274 1.223 2.073.6-1.453-.663-3.764-1.822-7.687-3.176-10.756-.682-1.547-1.151-2.956-1.042-3.132.138-.223 2.296-.296 7.127-.242l6.929.078-.037.722c-.02.397-.578 1.935-1.239 3.417-1.54 3.455-2.557 6.96-3.07 10.581-.385 2.722-.375 3.794.024 2.581.61-1.849 2.092-4.356 3.319-5.612 3.74-3.832 9.977-4.572 15.123-1.795 1.862 1.006 4.132 3.465 5.066 5.487 1.024 2.221 1.249 6.18.506 8.92-.995 3.667-3.569 6.573-7.052 7.963-1.332.532-2.202.654-4.677.658-2.698.004-3.228-.083-4.705-.772-.916-.426-1.665-.736-1.665-.687 0 .049.404.594.898 1.212 3.453 4.317 4.413 10.258 2.365 14.625-1.72 3.667-4.905 6.156-8.976 7.017-2.37.5-3.147.497-5.563-.025zm-51.844-46.34c-.352-.222-.37-.418-.094-1.079 2.052-4.92 3.048-7.603 3.531-9.51.605-2.385 1.314-7.015 1.107-7.222-.067-.066-.351.5-.633 1.258-2.685 7.23-10.139 10.255-17.232 6.993-2.45-1.127-4.892-3.54-5.98-5.91-.915-1.995-1.21-5.374-.698-7.996 1.459-7.461 9.386-11.672 16.543-8.788l1.714.69-.978-1.338c-3.978-5.446-4.437-11.68-1.205-16.362 3.902-5.652 12.145-7.04 18.287-3.08 2.014 1.299 3.287 2.798 4.373 5.152 1.096 2.373 1.27 6.163.415 8.974-.592 1.946-2.357 5.027-3.34 5.832a3.764 3.764 0 0 0-.784.94c-.23.43.05.36 1.486-.367 4.778-2.423 10.193-1.573 14.186 2.227 2.418 2.3 3.248 4.13 3.407 7.51.335 7.107-4.003 12.75-10.507 13.67-5.557.784-10.916-2.14-13.33-7.272-1.207-2.566-1.266-2.005-.295 2.78.809 3.986 1.81 7.163 3.231 10.26.75 1.632.904 2.228.656 2.527-.257.308-1.715.39-6.878.387-3.604-.002-6.746-.127-6.982-.276zm97.917-.094c-.23-.276-.049-.975.695-2.672 2.129-4.858 3.9-11.331 3.882-14.187l-.007-1.11-.707 1.717c-.901 2.186-2.522 4.537-3.796 5.507-2.664 2.027-6.325 2.96-9.597 2.447-8.194-1.286-12.589-8.777-9.91-16.893 2.074-6.284 9.54-9.548 15.94-6.969.942.38 1.714.642 1.714.583 0-.06-.462-.712-1.026-1.45-4.366-5.705-4.324-12.786.101-17.506 3.23-3.444 8.266-4.791 13.171-3.523 2.404.621 3.609 1.28 5.516 3.02 3.63 3.309 4.798 8.458 3.063 13.49-.636 1.843-1.497 3.263-3.271 5.396-.65.78-1.053 1.358-.898 1.284l2.224-1.053c5.982-2.837 13.388-.13 16.235 5.936.804 1.715.912 2.24.904 4.403-.016 4.221-1.364 7.576-4.07 10.129-4.427 4.177-11.332 4.382-16.267.482-1.418-1.12-2.694-2.802-3.833-5.05l-.84-1.662.163 1.156c.742 5.252 2.031 9.946 3.751 13.66 1.129 2.437 1.196 2.814.545 3.064-.252.096-3.363.175-6.914.175-4.934 0-6.53-.088-6.768-.374zm-50.36-47.193c-.55-.221-.45-.691.648-3.064 1.952-4.216 3.32-9.152 3.74-13.5.168-1.73.231-1.804-1.16 1.373-.879 2.01-3.332 4.556-5.39 5.592-6.208 3.127-14.185.473-17.071-5.679-2.215-4.723-1.03-11.25 2.67-14.703 2.394-2.235 6.442-3.594 9.483-3.185 1.58.213 4.133.96 4.531 1.328.152.14.386.253.522.253.135 0-.368-.858-1.118-1.907-4.112-5.748-3.944-12.775.412-17.253 3.399-3.494 8.272-4.764 13.126-3.42 3.722 1.029 6.48 3.289 8.154 6.681.886 1.796.926 2.027.926 5.35 0 3.326-.04 3.557-.955 5.491-.525 1.111-1.438 2.606-2.03 3.323-2.091 2.535-2.074 2.465-.409 1.623 2.305-1.165 4.804-1.716 6.774-1.494 4.6.52 8.276 2.978 10.266 6.868.945 1.846 1.234 5.068.7 7.812-1.305 6.72-7.293 11.096-13.801 10.087-4.743-.735-8.266-3.559-10.321-8.27l-.51-1.169.174 1.59c.462 4.213 2.346 10.85 4.004 14.105 1.215 2.385 1.271 2.365-6.451 2.338-3.604-.013-6.715-.089-6.914-.169zm-47.731-47.58c-.084-.219.427-1.75 1.135-3.404 1.804-4.214 2.69-7.174 3.227-10.783.427-2.87.42-4.183-.014-2.863-1.007 3.054-3.312 6.058-5.737 7.476-5.965 3.486-14.376.98-17.436-5.197-.904-1.825-1.076-2.496-1.2-4.676-.323-5.654 1.952-9.893 6.516-12.143 1.964-.968 2.448-1.084 4.96-1.183 2.706-.107 3.887.119 6.506 1.247.363.156.183-.23-.552-1.184-3.34-4.335-4.236-10.072-2.24-14.328 1.978-4.216 5.766-6.844 10.565-7.33 5.447-.55 11.386 2.839 13.31 7.595.572 1.414.676 2.182.676 4.993 0 3.22-.032 3.388-1.043 5.488-.573 1.192-1.639 2.88-2.369 3.752-.729.871-1.3 1.611-1.267 1.644.033.032.899-.356 1.924-.863 1.771-.876 2.031-.922 5.205-.922 3.137 0 3.456.055 5.223.895 4.254 2.023 6.714 5.501 6.91 9.772.268 5.836-2.343 10.54-7.103 12.8-3.508 1.664-7.589 1.575-11.167-.246-1.882-.958-4.618-3.875-5.657-6.033-1.076-2.233-1.12-1.971-.356 2.17.73 3.965 1.762 7.356 3.229 10.605.63 1.396 1.066 2.668.968 2.826-.11.177-2.83.287-7.12.287-5.617 0-6.97-.075-7.094-.396zm98.042-.277c0-.37.514-1.854 1.142-3.298 1.946-4.476 3.517-10.516 3.475-13.362-.013-.95-.053-.907-.662.725-2.333 6.26-8.4 9.451-14.804 7.787-6.435-1.672-10.147-7.24-9.19-13.787.66-4.52 2.954-7.809 6.654-9.54 1.66-.777 2.353-.928 4.698-1.022 2.682-.108 3.83.114 6.509 1.26.433.185.312-.109-.497-1.209-3.512-4.772-4.267-10.1-2.085-14.705 2.459-5.189 8.963-8.107 14.761-6.622 5.418 1.388 8.862 5.014 9.727 10.237.636 3.844-.747 8.177-3.669 11.492-1.308 1.485-1.41 1.91-.27 1.122.314-.217 1.38-.688 2.37-1.046 1.519-.55 2.226-.632 4.528-.532 2.436.106 2.96.234 4.902 1.191 3.808 1.878 6.237 5.15 6.728 9.063.239 1.91-.49 5.713-1.481 7.734-3.718 7.573-13.678 9.106-19.826 3.05-.977-.96-1.992-2.358-2.574-3.538-.528-1.072-1-1.95-1.047-1.95-.128 0 .154 1.804.775 4.959.66 3.348 1.893 7.208 3.154 9.87.508 1.072.85 2.14.761 2.371-.136.353-1.288.422-7.12.422h-6.96v-.673zm-135.04-6.97c-.085-.222.21-1.176.659-2.12.447-.944.911-2.023 1.03-2.398l.217-.682-.915.768c-1.054.885-2.453 1.22-4.149.993-2.829-.379-4.755-3.496-4.149-6.717.247-1.313 1.923-3.174 3.254-3.613.566-.186 1.672-.276 2.458-.201 1.232.118 1.402.073 1.23-.328-1.134-2.645-1.22-3.696-.44-5.375 1.74-3.753 6.268-4.512 8.922-1.495.894 1.015 1.537 2.625 1.52 3.806-.004.318-.233 1.228-.508 2.022l-.5 1.444h1.936c1.517 0 2.114.132 2.754.608 1.431 1.065 1.976 2.336 1.976 4.613 0 1.745-.116 2.219-.796 3.243-1.969 2.969-5.375 3.328-7.81.823l-1.133-1.163.204.85c.113.466.516 1.687.897 2.711.381 1.025.628 2.032.548 2.24-.216.561-6.988.535-7.205-.029zm-.101-28.737c-3.027-1.12-5.135-3.02-6.403-5.772-.615-1.335-.695-1.85-.58-3.755.159-2.66.827-4.11 2.737-5.935l1.349-1.29-.88-1c-1.359-1.543-1.926-3.328-1.751-5.506.372-4.62 3.944-7.746 8.89-7.778 1.896-.012 2.5.116 4.089.865 3.54 1.671 5.325 4.273 5.313 7.748-.008 2.173-.47 3.422-1.786 4.825l-.732.781 1.517 1.656c.834.91 1.644 1.989 1.8 2.396 1.815 4.756-.254 9.928-4.882 12.2-1.658.815-2.264.952-4.548 1.03-2.051.07-2.968-.034-4.133-.465zm6.862-4.517c3.214-1.624 4.132-5.35 1.935-7.847-1.289-1.464-2.847-2.102-5.128-2.102-5.826.001-8.734 6.34-4.311 9.398 2.165 1.497 5.194 1.72 7.504.55zm-.19-14.691c2.195-1.284 2.679-3.307 1.323-5.537-1.257-2.068-4.582-2.783-7.159-1.538-3.124 1.509-3.269 5.525-.254 7.092 2.185 1.136 4.127 1.13 6.09-.017z" fill="#d2d2d2"/><path d="M0 157.44V0h217.76v314.88H0V157.44zm210.27 156.67c2.962-.967 5.25-3.108 6.005-5.621.224-.746.314-44.093.314-151.11V7.319l-.886-1.769c-.929-1.854-2.302-3.164-4.228-4.033-1.049-.473-6.873-.501-102.46-.501-98.713 0-101.38.014-102.77.546-1.829.704-3.491 2.214-4.467 4.057l-.773 1.463v301l.684 1.375c.941 1.89 3.157 3.807 5.193 4.495 1.618.546 3.665.558 101.79.594 92.407.033 100.25 0 101.6-.442zm-17.048-23.24c-1.911-.733-4.186-2.763-4.977-4.442-1.232-2.615-.642-6.447 1.27-8.238l.718-.674-1.461-1.54c-2.09-2.205-2.671-3.673-2.54-6.416.18-3.742 2.222-6.745 5.687-8.365 1.425-.667 2.025-.772 4.4-.772 2.49 0 2.936.087 4.692.917 4.726 2.234 6.899 6.472 5.602 10.923-.39 1.335-.85 2.06-2.206 3.47l-1.714 1.78.729.683c.4.376 1.069 1.378 1.485 2.226.639 1.303.733 1.806.604 3.227-.43 4.73-3.96 7.85-8.84 7.813-1.215-.01-2.508-.231-3.45-.592zm6.26-3.714c3.835-1.952 3.195-6.624-1.106-8.06-3.288-1.099-7.268 1.058-7.268 3.938 0 3.78 4.599 6.043 8.373 4.122zm-.872-12.019c2.853-.845 5.057-3.992 4.554-6.502-.406-2.025-2.496-3.718-5.341-4.327-3.986-.852-7.874 1.94-7.874 5.656 0 1.49.3 2.215 1.411 3.413 1.826 1.968 4.422 2.598 7.25 1.76zm-142.36 3.185c-3.686-.99-6.814-3.48-8.33-6.632-.694-1.446-.853-2.198-.955-4.534-.193-4.382.703-6.726 4.11-10.758.62-.733 1.06-1.4.978-1.482-.082-.082-1.045.31-2.14.87-4.803 2.46-10.404 1.619-14.225-2.134-2.136-2.098-3.088-4.211-3.214-7.13-.188-4.404 1.087-7.862 3.868-10.485 2.294-2.165 4.296-3.001 7.526-3.144 2.122-.094 2.95 0 4.464.51 3.491 1.178 6.07 3.555 7.8 7.189.967 2.034 1.058 2.139 1.14 1.311.116-1.151-1.158-7.445-2.124-10.497-.41-1.292-1.184-3.282-1.72-4.42-.538-1.14-.913-2.174-.836-2.299.078-.125 3.211-.228 6.963-.228h6.821l-.157.65c-.087.358-.748 2.08-1.47 3.828-1.788 4.331-2.778 8.123-2.978 11.41-.182 2.979.067 3.192.876.755.694-2.09 1.697-3.64 3.357-5.19 2.164-2.02 4.226-2.872 7.306-3.022 8.247-.4 14.101 5.893 12.962 13.935-.596 4.213-2.94 7.494-6.586 9.217-1.83.864-2.13.917-5.27.917-3.075 0-3.458-.063-5.013-.825-.926-.453-1.743-.765-1.815-.693-.072.072.379.769 1.001 1.548 1.388 1.74 2.775 4.42 3.235 6.253.2.797.292 2.493.219 4.044-.158 3.36-1.061 5.416-3.399 7.743-3.223 3.21-7.992 4.477-12.394 3.294zm98.085.028c-5.991-1.683-9.555-6.158-9.555-12 0-3.505 1.227-6.406 4.148-9.805.741-.862 1.286-1.629 1.211-1.703-.074-.075-1.083.344-2.24.93-5.163 2.613-10.953 1.548-14.824-2.727-2.443-2.698-3.303-6.496-2.37-10.465 1.438-6.114 5.887-9.744 11.943-9.744 5.059 0 9.573 3.137 11.57 8.04.728 1.786 1.151 1.926 1.023.338-.305-3.772-2.362-11.326-3.92-14.394-1.274-2.508-1.65-2.361 6.055-2.361 7.894 0 7.42-.261 5.823 3.21-1.915 4.16-3.651 10.756-3.651 13.871 0 1.42.432 1.437.881.035 1.114-3.477 3.596-6.407 6.648-7.844 1.426-.672 1.939-.75 4.922-.75 3.146 0 3.438.05 5.287.924 5.41 2.557 8.079 7.914 6.837 13.721-1.28 5.987-5.623 9.504-11.735 9.504-1.937 0-2.752-.146-4.218-.758-3.034-1.266-3.044-1.261-1.496.757 3.725 4.854 4.511 10.308 2.159 14.957-.927 1.83-3.368 4.288-5.171 5.206-2.744 1.397-6.572 1.83-9.326 1.057zm41.842-20.072c-2.014-.485-3.252-1.71-3.78-3.735-.407-1.568-.154-3.41.635-4.616.242-.371.394-.722.338-.778-.057-.057-.663.022-1.346.175-2.586.58-4.822-.76-5.54-3.32-.493-1.757-.174-3.607.87-5.045 1.157-1.594 2.323-2.151 4.177-1.998 1.785.148 2.994.955 3.936 2.627.369.654.719 1.045.778.868.143-.427-.665-3.5-1.33-5.056-.291-.683-.474-1.404-.406-1.603.157-.456 6.316-.515 6.596-.064.102.164-.269 1.366-.823 2.672-1.565 3.69-1.615 4.044-.368 2.613 2.22-2.55 5.79-2.416 7.82.295.798 1.068 1.004 4.35.35 5.611-.55 1.063-1.852 2.038-3.224 2.416-.918.253-2.242.07-3.796-.525-.27-.104-.1.357.453 1.228.704 1.107.886 1.712.886 2.938 0 2.528-1.214 4.375-3.383 5.147-1.226.436-1.577.454-2.843.15zm-92.515-26.544c-3.476-.907-6.278-2.988-7.748-5.754-1.16-2.182-1.569-3.795-1.569-6.18 0-3.528 1.068-6.161 3.843-9.474.82-.98 1.429-1.844 1.351-1.922-.077-.077-1.097.345-2.267.938-1.859.942-2.442 1.093-4.629 1.197-4.236.202-7.11-.955-9.937-4.001-2.038-2.197-2.788-4.122-2.788-7.162 0-5.532 2.673-10.05 7.166-12.112 3.276-1.505 8.57-1.142 11.504.789 1.933 1.271 3.693 3.356 4.883 5.782 1.031 2.105 1.218 2.343 1.297 1.656.253-2.198-2.008-11.058-3.85-15.092-.959-2.098-.97-2.167-.414-2.464.665-.355 12.821-.264 13.183.098.126.125.084.58-.092 1.011-.176.431-.835 2.018-1.464 3.528-.63 1.51-1.496 4.08-1.926 5.711-.88 3.34-1.337 7.866-.795 7.866.183 0 .333-.243.333-.539 0-1.025 2.066-4.655 3.418-6.004.747-.744 2.205-1.754 3.24-2.244 1.765-.834 2.094-.89 5.214-.89 3.142 0 3.44.051 5.276.92 5.055 2.388 7.665 7.3 6.87 12.923-.597 4.213-2.941 7.493-6.587 9.216-1.813.857-2.148.917-5.125.917-2.87 0-3.354-.079-4.885-.794-2.22-1.038-2.437-1.003-1.491.235 3.143 4.11 4.04 6.606 3.859 10.735-.152 3.46-1.02 5.521-3.28 7.777-3.313 3.307-7.966 4.539-12.59 3.333zM52.55 185.452c-.1-.164.332-1.496.962-2.961 2.038-4.743 3.378-9.707 3.582-13.27.12-2.102-.305-2.09-1.075.031-1.567 4.318-4.893 7.12-9.363 7.884-5.313.909-11.059-2.081-13.284-6.914-.894-1.942-1.212-5.679-.689-8.112.778-3.617 2.93-6.378 6.247-8.013 3.54-1.745 7.551-1.675 11.228.197.602.306 1.095.474 1.095.374 0-.1-.577-.95-1.283-1.886-2.567-3.407-3.5-6.306-3.293-10.239.102-1.924.3-2.734 1.032-4.218 2.87-5.818 10.167-8.537 16.374-6.102 4.197 1.647 7.034 5.173 7.755 9.64.596 3.691-.847 8.047-3.753 11.332-.817.923-1.485 1.81-1.485 1.971 0 .161.684-.094 1.52-.567 4.137-2.343 8.7-2.324 12.764.052 1.888 1.104 4.102 3.67 4.837 5.606.715 1.881.843 5.056.298 7.403-1.474 6.347-7.371 10.496-13.482 9.486-4.502-.744-7.773-3.256-9.768-7.502-.616-1.31-1.196-2.383-1.288-2.383-.26 0 .17 3.312.823 6.355.768 3.572 1.789 6.774 3.015 9.458.543 1.188.915 2.276.827 2.417-.23.371-13.365.333-13.595-.039zm97.89.03c-.09-.148.338-1.415.954-2.817 2.09-4.76 3.26-8.994 3.681-13.31.256-2.623-.14-2.734-1.029-.29-2.62 7.2-9.933 10.175-16.953 6.897-5.26-2.455-7.739-7.888-6.38-13.982.874-3.916 3.385-6.881 7.074-8.351 1.31-.522 2.215-.654 4.532-.66 2.677-.006 3.047.065 4.894.936 1.099.52 2.047.895 2.107.835.06-.06-.41-.736-1.044-1.501-3.859-4.658-4.814-10.361-2.514-15.004 2.916-5.885 9.883-8.423 16.37-5.964 5.089 1.93 8.18 6.82 7.76 12.281-.258 3.346-1.37 5.699-4.377 9.257-.62.733-1.066 1.393-.993 1.466.073.073 1.214-.418 2.534-1.09 2.357-1.201 2.456-1.224 5.337-1.224 2.787 0 3.05.054 5.174 1.066 3.792 1.807 6.409 5.264 6.793 8.975.39 3.781-1.31 8.544-3.926 10.984-6.556 6.118-16.929 3.367-20.164-5.348-.624-1.682-1.105-1.508-.85.31.719 5.128 2.484 11.425 4.09 14.591.39.77.64 1.583.555 1.806-.127.33-1.376.404-6.807.404-3.766 0-6.724-.116-6.818-.268zm-50.42-47.49c-.08-.208.301-1.354.846-2.546 1.947-4.262 3.113-8.517 3.805-13.88.174-1.354-.273-2.242-.604-1.199-1.593 5.02-4.508 8.099-8.696 9.187-5.757 1.496-11.895-1.27-14.409-6.496-.857-1.781-.903-2.057-.903-5.345 0-3.292.046-3.563.916-5.396 1.2-2.527 2.932-4.362 5.143-5.447 3.531-1.735 7.628-1.79 10.905-.149.826.415 1.556.7 1.62.636.065-.064-.596-1.11-1.468-2.322-2.402-3.34-2.911-4.862-2.911-8.699 0-3.99.618-5.746 2.88-8.184 2.565-2.764 5.662-4.083 9.601-4.09 8.993-.014 14.971 8.41 11.888 16.752-.72 1.946-1.458 3.14-3.206 5.182-.74.864-1.345 1.688-1.345 1.83 0 .302-.18.374 2.736-1.09 2.219-1.114 2.401-1.155 5.068-1.138 3.22.021 5.079.617 7.391 2.37 3.178 2.41 4.617 5.3 4.563 9.167-.098 6.977-4.726 12.286-11.13 12.768-5.694.428-11.041-3.078-12.873-8.44-.698-2.043-1.083-1.961-.85.18.486 4.429 2.458 11.5 4.125 14.786.386.761.624 1.508.53 1.661-.103.165-2.875.278-6.825.278-5.203 0-6.684-.082-6.797-.377zM52.532 90.617c-.079-.206.32-1.375.886-2.598 1.372-2.961 2.633-6.876 3.16-9.804.839-4.659.602-6.955-.41-3.974-1.08 3.181-3.65 6.092-6.55 7.416-1.959.895-5.697 1.222-7.834.686-4.269-1.07-7.564-4.017-8.88-7.94-.583-1.737-.625-5.513-.085-7.532 1.916-7.155 9.695-10.677 16.607-7.52.89.407 1.676.683 1.745.614.07-.069-.417-.81-1.08-1.648-5.136-6.482-4.577-14.64 1.308-19.101 4.855-3.681 12.113-3.278 16.727.929 1.906 1.738 3 3.707 3.567 6.42.907 4.338-.294 8.038-4.054 12.488-.62.733-1.066 1.394-.99 1.47.074.074 1.037-.323 2.14-.883 3.734-1.897 7.194-1.955 10.951-.182 2.61 1.231 4.32 2.892 5.566 5.406.973 1.963 1.06 2.346 1.05 4.568-.011 2.529-.562 4.954-1.573 6.932-.771 1.507-2.906 3.753-4.397 4.625-4.444 2.598-10.388 2.004-14.346-1.434-1.48-1.285-3.196-3.81-3.772-5.552-.417-1.26-.887-1.61-.887-.66 0 .301.256 2.038.568 3.859.645 3.764 1.935 8.036 3.369 11.152.538 1.17.908 2.242.82 2.383-.087.14-3.151.256-6.81.256-5.182 0-6.684-.083-6.796-.375zm97.895.096c-.095-.154.076-.771.38-1.372 1.9-3.767 3.517-9.024 4.126-13.418.489-3.527.154-4.12-.86-1.525-1.991 5.097-5.564 7.874-10.495 8.16-4.09.235-7.532-1.119-10.228-4.025-5.326-5.739-3.372-15.972 3.662-19.173 3.42-1.556 7.318-1.543 10.438.034.79.4 1.507.656 1.593.57.087-.086-.368-.842-1.01-1.68-4.077-5.326-4.635-11.27-1.514-16.124 3.742-5.817 12.745-7.237 18.507-2.918 2.934 2.2 4.552 5.101 4.855 8.706.304 3.623-1.127 7.501-3.994 10.822-1.51 1.75-1.524 2.412-.027 1.349 2.226-1.581 5.606-2.286 8.477-1.766 5.49.993 9.585 5.195 10.012 10.275.203 2.419-.622 6.108-1.825 8.156-2.762 4.7-8.575 6.916-13.908 5.3-3.666-1.11-6.67-3.931-8.204-7.704-.8-1.967-1.26-2.065-1.005-.217.7 5.079 2.398 11.246 3.935 14.291 1.368 2.71 1.777 2.536-5.953 2.536-4.052 0-6.858-.112-6.96-.279zm-134.88-7.17c-.073-.12.373-1.387.991-2.817 1.314-3.038 1.439-3.858.383-2.522-1.026 1.3-2.128 1.8-3.968 1.8-2.988 0-4.976-2.323-4.762-5.565.122-1.856.693-2.841 2.27-3.92.837-.573 1.251-.657 2.725-.549.955.07 1.966.226 2.245.346.406.174.333-.113-.362-1.432-.972-1.842-1.086-3.116-.422-4.701.888-2.119 2.479-3.245 4.586-3.245 2.361 0 3.88.952 4.843 3.034.745 1.61.687 3.238-.175 4.934-.398.781-.724 1.45-.724 1.486-.001.036.333-.062.741-.217 1.258-.477 3.37-.331 4.417.305 2.223 1.352 2.76 5.415 1.038 7.86-1.072 1.52-3.003 2.417-4.576 2.122-1.161-.217-2.872-1.566-3.696-2.913l-.53-.867v.757c-.001.416.33 1.716.737 2.889 1.321 3.813 1.574 3.432-2.28 3.432-1.84 0-3.407-.098-3.48-.217zm1.447-28.396c-3.246-.543-6.641-3.057-7.978-5.905-.509-1.085-.672-1.925-.658-3.39.024-2.51.782-4.243 2.715-6.2l1.48-1.5-.95-1.08c-1.316-1.494-1.825-2.857-1.8-4.815.04-3.19 1.917-5.981 4.974-7.396 2.113-.978 5.526-1.02 7.594-.095 1.715.769 3.86 2.721 4.618 4.203 1.305 2.552.957 5.899-.83 7.982l-1.003 1.168 1.625 1.792c1.921 2.118 2.638 4.06 2.39 6.468-.457 4.414-3.83 7.915-8.437 8.757-1.886.344-1.75.344-3.74.01zm4.934-4.445c3.574-1.66 4.607-5.91 2.067-8.501-1.363-1.39-2.46-1.851-4.728-1.987-1.791-.106-2.213-.025-3.62.697-3.874 1.988-4.715 6.55-1.639 8.89 2.26 1.72 5.39 2.076 7.92.9zm.015-14.797c1.464-.832 2.101-1.932 2.101-3.628 0-3.542-4.606-5.744-8.134-3.887-4.207 2.213-3.084 7.335 1.808 8.25 1.643.308 2.72.12 4.225-.735z" fill="#b0b0b0"/><path d="M0 157.44V0h217.76v314.88H0V157.44zm211.69 156.25c1.97-.922 3.429-2.328 4.35-4.195l.692-1.403v-301l-.681-1.3c-1.037-1.976-2.846-3.68-4.605-4.336-1.527-.57-2.408-.575-102.8-.572L7.386.887 5.94 1.56c-2.114.985-3.186 2.01-4.182 4L.87 7.328v150.13c0 133.57.049 150.27.44 151.38.86 2.432 2.833 4.325 5.448 5.228 1.427.492 6.142.513 102.41.453l100.91-.064 1.617-.756zm-17.186-22.506c-2.571-.644-5.114-2.624-6.14-4.78-.662-1.393-.869-3.755-.46-5.266.186-.685.787-1.74 1.336-2.346.548-.606.997-1.205.997-1.33s-.707-.968-1.572-1.872c-2.563-2.681-3.137-6.086-1.582-9.387 2.998-6.362 11.473-7.71 16.928-2.693 3.123 2.87 3.729 7.615 1.402 10.966-.42.604-1.205 1.435-1.744 1.845-1.203.915-1.22 1.247-.117 2.3 1.313 1.256 1.847 2.953 1.677 5.327-.307 4.276-3.295 7.021-8.042 7.387-.876.067-2.084 0-2.683-.15zm4.568-3.708c.638-.29 1.583-1.006 2.099-1.592 1.769-2.01 1.064-5.028-1.482-6.338-2.554-1.315-5.139-1.113-7.092.555-1.404 1.2-1.867 2.511-1.44 4.086.829 3.064 4.785 4.708 7.915 3.29zm.287-12.433c1.358-.63 3.165-2.429 3.602-3.586.557-1.476.376-3.388-.43-4.548-1.391-2.004-4.963-3.278-7.735-2.759-1.703.319-3.57 1.774-4.395 3.426-.855 1.712-.924 2.691-.294 4.194.624 1.491 1.485 2.343 3.171 3.136 1.822.857 4.402.915 6.08.137zm-141.6 3.406c-4.576-.73-7.909-3.135-9.732-7.022-2.15-4.582-1.111-9.949 2.817-14.562 2.097-2.462 2.048-3.11-.123-1.63-1.438.98-4.411 1.87-6.252 1.87-4.71 0-9.167-2.772-11.147-6.933-.67-1.409-.751-1.916-.717-4.477.029-2.141.2-3.338.658-4.622 2.564-7.183 10.088-10.171 16.939-6.728 2.416 1.214 4.286 3.25 5.7 6.205.76 1.589 1.28 2.368 1.46 2.188.344-.342-.341-4.806-1.34-8.739-.693-2.726-2.509-7.596-3.095-8.3a.886.886 0 0 1-.133-.8c.143-.372 1.135-.437 6.692-.437 7.54 0 7.116-.226 5.642 3.016-1.934 4.256-3.247 9.047-3.628 13.239-.174 1.921-.14 2.234.251 2.234.299 0 .606-.523.9-1.53 1.768-6.07 7.956-9.632 14.19-8.17 2.708.634 4.555 1.697 6.396 3.682 5.128 5.525 3.506 15.392-3.082 18.752-3.622 1.847-7.559 1.869-11.178.062-.837-.417-1.6-.68-1.697-.583-.097.097.411.93 1.13 1.853 4.692 6.03 4.896 12.857.522 17.52-2.845 3.034-7.177 4.551-11.176 3.913zm97.814.006c-8.018-1.351-12.383-8.322-10.022-16.006.592-1.926 1.516-3.492 3.266-5.532 1.272-1.482 1.884-2.65 1.238-2.364-.119.053-1.252.616-2.518 1.252-2.23 1.12-2.393 1.155-5.212 1.155-2.743 0-3.037-.06-5.084-1.035-4.916-2.342-7.307-6.543-6.653-11.692.782-6.163 4.424-10.19 10.096-11.16 5.678-.97 11.138 2.299 13.496 8.083.946 2.32 1.446 2.357 1.208.089-.48-4.587-2.284-11.148-4.003-14.556-.464-.92-.766-1.797-.671-1.95.225-.363 13.076-.37 13.3-.008.093.148-.172 1.026-.586 1.95-1.219 2.716-2.394 6.017-2.992 8.407-.775 3.097-1.29 7.296-.939 7.647.38.38.91.012.91-.63 0-.287.46-1.439 1.022-2.56 1.292-2.576 3.762-4.939 6.135-5.869 2.35-.921 6.479-.93 8.8-.02 3.614 1.42 6.066 3.846 7.228 7.153.82 2.335.675 6.681-.308 9.218-.944 2.435-3.819 5.292-6.226 6.188-3.386 1.26-6.964 1.095-10.086-.466-.77-.385-1.525-.657-1.679-.606-.154.051.326.871 1.067 1.822 2.718 3.487 3.735 6.423 3.544 10.222-.195 3.865-1.679 6.684-4.682 8.893-2.615 1.924-6.562 2.896-9.65 2.375zm39.722-20.598c-1.391-.605-2.679-2.277-2.904-3.772-.27-1.805.02-3.06 1.035-4.458.476-.654.814-1.19.753-1.19-.061 0-.579.196-1.15.434-3.444 1.435-6.56-.66-6.56-4.41 0-1.952.513-3.163 1.832-4.318 2.418-2.118 5.5-1.357 7.161 1.769.388.73.795 1.326.905 1.326.338 0-.078-2.042-.966-4.743-.666-2.026-.767-2.626-.474-2.812.205-.13 1.582-.238 3.06-.24 2.108-.003 2.724.088 2.852.423.09.235-.313 1.535-.896 2.89-.583 1.355-1.129 2.95-1.212 3.545l-.151 1.082.863-1.445c1.085-1.817 2.342-2.576 4.264-2.578 2.918-.003 4.62 1.924 4.622 5.23.001 1.913-.45 2.825-1.95 3.943-1.156.861-3.329.96-4.99.227l-1.38-.61.475.65c1.778 2.426 2.224 4.025 1.625 5.834-.423 1.28-1.54 2.64-2.63 3.203-1.008.52-3.013.53-4.184.02zm-92.278-26.425c-3.54-1.168-5.993-3.298-7.502-6.514-2.15-4.585-1.087-10.134 2.794-14.573 2.123-2.429 2.09-3.032-.09-1.68-6.09 3.78-14.194 1.505-17.314-4.858-.76-1.552-.849-2.02-.843-4.478.018-7.253 4.413-12.352 11.13-12.912 5.163-.43 9.661 2.357 12.18 7.548.752 1.55 1.326 2.417 1.492 2.252.685-.684-1.395-9.922-3.235-14.365-.658-1.588-1.22-3.083-1.25-3.322-.046-.372.877-.444 6.534-.51 7.618-.09 7.188-.313 5.705 2.948-1.934 4.257-3.247 9.047-3.628 13.239-.17 1.87-.133 2.234.226 2.234.253 0 .578-.502.796-1.228 2.28-7.606 10.18-10.986 17.339-7.417 1.887.941 4.3 3.291 5.189 5.055 2.533 5.025 1.012 12.025-3.33 15.33-2.1 1.597-4.184 2.237-7.313 2.243-2.52.005-2.927-.075-4.854-.966-1.156-.535-2.172-.903-2.258-.818-.085.085.473.983 1.242 1.996 2.605 3.434 3.732 6.782 3.466 10.3-.317 4.197-2.848 7.857-6.77 9.792-1.96.966-2.375 1.06-5.094 1.15-2.324.079-3.316-.017-4.612-.445zM52.692 185.08c0-.21.513-1.565 1.141-3.01.628-1.444 1.471-3.709 1.874-5.033 1.317-4.33 1.982-9.645 1.232-9.85-.132-.037-.633.946-1.112 2.183-1.133 2.93-3.26 5.293-5.956 6.616-1.62.797-2.283.95-4.534 1.046-2.151.092-2.978-.002-4.502-.516-4.573-1.542-7.406-4.733-8.176-9.21-.668-3.89.669-8.378 3.274-10.988 3.328-3.333 9.126-4.275 13.457-2.187.813.391 1.627.712 1.81.712.483 0 .409-.446-.15-.904-.813-.665-2.87-4.05-3.577-5.885-.926-2.402-.946-6.515-.043-8.81 3.848-9.788 18.43-10.432 23.094-1.02 2.321 4.685 1.412 10.381-2.328 14.582-1.68 1.889-2.082 2.614-1.443 2.614.26 0 .853-.27 1.32-.601 1.455-1.034 4.009-1.77 6.191-1.785 6.527-.042 12.017 4.947 12.017 10.921 0 5.293-2.703 10-6.924 12.052-1.794.873-2.098.929-5.107.932-3.118.003-3.254-.024-5.406-1.085-2.805-1.382-4.558-3.266-6.08-6.536-.692-1.486-1.233-2.32-1.397-2.157-.71.709 1.36 9.952 3.259 14.548.623 1.51 1.206 2.972 1.293 3.25.15.471-.29.505-6.533.505-5.37 0-6.694-.075-6.694-.383zm97.872.108c0-.152.513-1.44 1.14-2.863 2.063-4.676 3.493-10.26 3.493-13.642 0-1.948-.371-2.21-.886-.624-1.23 3.787-3.466 6.492-6.585 7.966-1.814.857-2.148.917-5.125.917-2.98 0-3.311-.06-5.132-.92-5.937-2.806-8.467-9.171-6.196-15.592 2.245-6.348 9.786-9.226 16.257-6.204 1.031.481 1.875.76 1.875.619 0-.141-.708-1.24-1.573-2.443-2.41-3.353-2.899-4.834-2.908-8.826-.007-3.013.066-3.476.774-4.984.956-2.036 3.226-4.484 5.101-5.503 6.415-3.483 14.681-1.051 17.782 5.23.905 1.834.948 2.073.948 5.25 0 4.602-.431 5.616-4.613 10.852-.897 1.123-.357 1.126 1.913.01 3.79-1.865 7.127-1.927 10.824-.2 2.38 1.11 4.16 2.778 5.356 5.017 2.248 4.207 1.119 10.884-2.442 14.437-3.086 3.078-7.67 4.172-11.994 2.861-3.605-1.092-6.647-3.954-8.045-7.57-.272-.703-.687-1.473-.922-1.711-.378-.383-.406-.186-.243 1.686.376 4.316 1.92 10.066 3.778 14.081.536 1.157.9 2.178.81 2.268-.293.292-13.388.183-13.388-.111zm-50.276-47.238c-.09-.235.37-1.67 1.022-3.187.653-1.518 1.57-4.047 2.038-5.62 1.753-5.884 1.913-12.94.174-7.59-.623 1.913-2.459 4.68-3.767 5.676-4.937 3.756-12.077 3.324-16.405-.994-5.706-5.693-4.037-15.873 3.185-19.421 1.8-.884 2.083-.937 5.097-.937 3.004 0 3.31.056 5.19.944 1.098.52 2.067.875 2.152.79.085-.085-.126-.51-.468-.944-4.468-5.666-5.49-10.959-3.072-15.898 2.238-4.571 8.097-7.384 13.408-6.437 5.918 1.055 9.986 5.354 10.371 10.962.268 3.895-.833 6.948-3.81 10.572-.887 1.08-1.613 2.087-1.613 2.24 0 .322-.188.396 2.735-1.073 2.066-1.038 2.558-1.165 4.835-1.256 3.731-.147 6.255.775 8.893 3.25 3.682 3.457 4.46 7.936 2.353 13.553-.866 2.31-3.248 4.82-5.732 6.041-1.666.82-2.275.958-4.594 1.044-1.957.073-3.084-.033-4.206-.395-3.756-1.21-6.697-4.091-8.189-8.02-.644-1.695-1.197-1.64-1.07.109.272 3.699 1.826 9.669 3.58 13.75.633 1.47 1.067 2.807.966 2.97-.117.19-2.501.297-6.547.297-5.344 0-6.388-.068-6.526-.426zm-47.47-47.39c-.092-.239.356-1.636.997-3.106 1.502-3.448 2.518-6.724 3.08-9.93.566-3.23.589-5.018.063-5.018-.214 0-.554.552-.757 1.227-1.798 6-7.347 9.623-13.245 8.648-5.83-.964-9.96-5.23-10.399-10.742-.281-3.54.781-7.07 2.83-9.397 3.355-3.813 9.272-4.984 14.007-2.773 1.065.497 1.987.904 2.049.904.35 0-.025-.679-1.062-1.919-1.518-1.816-3.033-4.974-3.471-7.24-1.155-5.966 2.437-11.943 8.265-13.752 2.398-.744 4.183-.849 6.446-.378 4.923 1.024 8.296 3.901 9.632 8.214 1.393 4.5.31 8.904-3.228 13.118-1.51 1.799-1.97 2.534-1.58 2.534.066 0 1.186-.552 2.489-1.228 2.352-1.22 2.388-1.227 5.452-1.227 2.867 0 3.223.065 5.032.92 3.921 1.853 6.502 5.327 6.811 9.168.425 5.276-2.407 10.68-6.645 12.68-6.775 3.197-14.43-.096-17.168-7.386-.502-1.336-.815-1.641-1.142-1.112-.267.43.985 7.144 1.912 10.257.477 1.6 1.316 3.881 1.866 5.067.549 1.185.933 2.324.854 2.53-.112.291-1.567.375-6.533.375-5.416 0-6.414-.066-6.555-.434zm97.894.059c-.08-.206.236-1.214.7-2.239 2.152-4.745 3.805-10.95 3.805-14.283 0-2.096-.446-1.991-1.278.302-2.078 5.725-7.489 8.966-13.253 7.939-6.858-1.223-11.029-6.903-10.065-13.71.597-4.212 2.94-7.493 6.586-9.216 1.796-.849 2.166-.917 4.98-.917 2.83 0 3.179.066 5.028.94 1.093.516 2.038.938 2.1.938.357 0-.048-.758-1.267-2.368-2.64-3.489-3.651-6.913-3.204-10.859.579-5.1 4.762-9.228 10.293-10.159 4.569-.768 9.75 1.252 12.378 4.827 1.641 2.231 2.267 4.527 2.134 7.828-.1 2.493-.225 3.026-1.158 4.957-.575 1.19-1.712 2.937-2.526 3.884-2.026 2.353-2.023 3.137.005 1.762 5.685-3.855 14.184-1.538 17.254 4.704 1.43 2.909 1.25 7.428-.44 11.023-.958 2.04-3.377 4.45-5.386 5.368-7.049 3.22-14.729-.465-17.36-8.33-.093-.277-.303-.505-.467-.505-1.128 0 1.198 10.642 3.332 15.25 1.618 3.495 2.056 3.238-5.522 3.238-5.08 0-6.556-.083-6.669-.375zm-134.94-7.25c-.086-.222.17-1.046.569-1.831.958-1.886 2.001-5.007 1.75-5.237-.109-.1-.254-.027-.323.164-.271.757-1.432 2.232-2.206 2.804-.61.451-1.246.604-2.512.604-1.9 0-2.863-.523-3.982-2.164-.522-.765-.651-1.355-.651-2.972 0-1.99.016-2.034 1.24-3.254 1.636-1.633 2.915-1.895 5.202-1.064 1.638.594 2.106.501 1.21-.24-1.417-1.174-2.042-4.594-1.152-6.31.623-1.202 2.328-2.574 3.46-2.786a5.068 5.068 0 0 1 5.357 2.479c.559.991.653 1.505.556 3.033-.097 1.517-.287 2.073-1.083 3.18l-.966 1.34.876-.451c.481-.248 1.397-.535 2.034-.636 5.19-.828 7.224 6.552 2.66 9.647-.818.555-1.285.66-2.482.565-1.872-.15-3.064-.983-4.178-2.92l-.857-1.491-.003.968c-.001.533.389 2.133.866 3.556.478 1.422.87 2.774.87 3.003 0 .601-6.024.614-6.255.013zm.544-28.458c-3.134-.8-5.906-3.1-7.24-6.007-.638-1.39-.715-1.869-.572-3.564.207-2.462 1.007-4.07 2.895-5.81l1.458-1.345-1.168-1.324c-3.184-3.609-1.97-9.09 2.567-11.598 1.407-.778 1.79-.854 4.295-.854 3.196 0 4.653.546 6.669 2.497 1.66 1.608 2.294 3.13 2.301 5.534.008 2.178-.408 3.268-1.808 4.74l-.88.926 1.732 1.848c2.062 2.2 2.557 3.574 2.346 6.515-.345 4.809-4.317 8.41-9.485 8.6-1.198.044-2.597-.027-3.11-.158zm5.998-4.241c2.561-1.391 3.777-4.248 2.915-6.854-.765-2.313-4.351-4.23-7.187-3.842-1.927.263-3.995 1.512-4.992 3.013-1.644 2.477-1.442 4.698.596 6.535 2.535 2.285 5.782 2.715 8.668 1.148zm-1.22-14.143c3.53-1.469 4.251-4.993 1.526-7.45-1.528-1.376-3.155-1.802-5.171-1.352-2.398.536-4.4 2.65-4.4 4.647 0 3.126 4.693 5.55 8.045 4.155z" fill="#909090"/><path d="M0 157.44V0h217.76v314.88H0V157.44zm212.14 156.22c1.848-.972 3.687-3.022 4.286-4.775.413-1.209.456-15.592.456-151.45V7.315L216 5.553c-.99-1.977-2.365-3.322-4.315-4.222l-1.318-.608h-101.35c-99.198 0-101.38.011-102.79.553C4.336 2.004 2.25 3.985 1.4 5.861L.717 7.367.64 156.857c-.053 103.83.016 149.93.228 150.93.608 2.866 2.79 5.294 5.638 6.279 1.367.472 7.273.497 102.8.437l101.35-.063 1.484-.781zm-18.879-23.068c-3.201-1.229-5.348-4.085-5.392-7.175-.03-2.182.427-3.47 1.655-4.658.555-.536 1.008-1.087 1.008-1.226 0-.138-.656-.888-1.458-1.667-.802-.78-1.711-1.973-2.02-2.654-.705-1.547-.756-4.506-.11-6.395.632-1.853 2.926-4.294 4.98-5.3 1.454-.712 1.974-.807 4.4-.807 2.486 0 2.931.086 4.632.902 3.469 1.664 5.783 4.776 5.789 7.784.005 2.63-.722 4.36-2.634 6.268l-1.717 1.713.912 1.036c1.945 2.21 2.397 4.365 1.532 7.304-.592 2.013-2.821 4.286-4.894 4.99-1.892.644-4.838.593-6.683-.115zm6.099-3.078c3.165-1.59 3.89-4.604 1.692-7.032-1.597-1.764-4.665-2.486-6.793-1.6-3.118 1.3-4.226 3.834-2.781 6.355 1.55 2.705 5.03 3.71 7.882 2.277zm-.737-12.094c2.676-.793 4.932-3.59 4.938-6.126.008-3.436-5.077-6.303-9.108-5.134-3.863 1.12-5.86 5.022-4.217 8.236.681 1.332 1.926 2.275 3.91 2.959 1.816.626 2.546.637 4.477.065zm-142.42 2.598c-6.122-1.642-9.856-7.138-8.99-13.232.435-3.066 1.437-5.17 3.718-7.798 2.344-2.702 2.171-3.338-.478-1.764-4.897 2.91-11.051 2.018-14.933-2.165-2.054-2.213-2.802-4.13-2.802-7.177 0-5.467 2.517-9.763 6.95-11.862 1.416-.67 1.944-.754 4.777-.754 2.98 0 3.311.06 5.132.92 2.923 1.381 4.66 3.167 6.203 6.373.71 1.478 1.416 2.612 1.567 2.52.96-.593-.85-9.219-3.112-14.828-1.074-2.662-1.249-3.33-.924-3.534.523-.33 11.861-.33 12.384 0 .327.207.204.713-.667 2.735-1.543 3.584-2.423 6.298-3.072 9.47-1.129 5.515-.446 8.435.977 4.175 1.062-3.182 3.26-5.68 6.22-7.063 1.487-.696 1.958-.767 4.972-.756 2.95.01 3.512.096 4.923.751 5.124 2.379 7.725 7.095 6.955 12.615-.394 2.83-1.35 4.875-3.183 6.808-3.381 3.567-8.937 4.462-13.73 2.212-2.174-1.02-2.476-.612-.902 1.218 3.617 4.205 4.69 10.388 2.576 14.845-2.404 5.069-8.806 7.835-14.561 6.29zm98.042.024c-2.504-.687-4.444-1.837-6.09-3.612-2.283-2.46-2.924-4.231-2.924-8.088 0-4.27.65-5.76 4.63-10.601 1.223-1.487.607-1.604-1.832-.348-3.828 1.97-7.162 2.06-10.943.294-5.108-2.384-7.437-7.394-6.093-13.108.952-4.05 3.058-6.775 6.489-8.396 1.798-.85 2.162-.917 4.98-.914 3.866.004 5.632.645 8.131 2.953 1.873 1.73 2.902 3.256 3.627 5.38.252.737.59 1.422.753 1.522.426.263.79-.467.658-1.323-1.022-6.663-2.104-10.771-3.826-14.53-.869-1.895-.977-2.33-.635-2.546.547-.346 11.874-.338 12.422.008.366.23.33.485-.255 1.8-2.965 6.664-5.073 16.555-3.528 16.555.23 0 .621-.631.9-1.448 1.243-3.65 3.24-6.063 6.225-7.525 1.615-.79 1.964-.85 5.079-.85 3.284 0 3.385.02 5.551 1.089 5.078 2.503 7.474 7.572 6.273 13.269-1.052 4.989-4.582 8.375-9.558 9.168-2.39.381-4.67.02-7.131-1.13-1.031-.48-1.925-.875-1.987-.875-.383 0 .06.872 1.231 2.416 4.594 6.062 4.682 12.76.232 17.505-2.937 3.132-8.071 4.515-12.378 3.333zm41.352-20.207c-3.32-1.204-4.207-5.58-1.718-8.481 1.134-1.322 1.036-1.67-.261-.926-3.726 2.137-7.622-.542-7.032-4.836.36-2.622 2.164-4.4 4.465-4.403 2.049-.002 3.777 1.266 4.675 3.427.206.498.507.905.667.905.438 0 .004-2.706-.814-5.077-.388-1.124-.706-2.196-.706-2.383 0-.238.905-.34 3.04-.34 1.673 0 3.04.098 3.04.217 0 .12-.512 1.399-1.137 2.843-1.236 2.86-1.763 4.887-1.223 4.705.178-.06.62-.687.98-1.392.83-1.622 1.833-2.353 3.485-2.538 3.037-.342 4.884 1.287 5.088 4.486.143 2.245-.31 3.309-1.863 4.37-1.36.928-3.286.967-5.024.1-.708-.352-1.342-.586-1.41-.518-.068.067.265.616.738 1.219 1.3 1.655 1.525 2.222 1.525 3.855 0 3.603-3.222 5.96-6.515 4.767zm-91.936-26.393c-7.366-1.921-10.907-9.178-8.102-16.602.313-.829 1.09-2.156 1.725-2.95 2.61-3.26 2.912-3.717 2.639-3.99-.174-.173-.804.05-1.711.608-2.141 1.314-3.847 1.792-6.388 1.792-3.75 0-6.748-1.363-9.26-4.21-1.627-1.845-2.358-3.925-2.358-6.717 0-5.505 2.512-9.818 6.887-11.828 2.202-1.012 6.187-1.245 8.502-.499 3.542 1.143 6.063 3.487 7.812 7.264 1.825 3.942 2.213 2.551.981-3.518-.829-4.086-1.833-7.41-3.069-10.157-.476-1.059-.8-2.097-.719-2.307.115-.3 1.441-.38 6.164-.377 3.31.002 6.205.122 6.433.266.347.22.263.593-.509 2.262-1.932 4.183-3.446 9.494-3.722 13.057-.203 2.63-.026 3.442.634 2.895.237-.196.431-.583.431-.86 0-1.087 2.059-4.576 3.484-5.907 6.883-6.422 18.494-2.514 19.986 6.729.857 5.305-1.747 10.566-6.348 12.827-1.8.884-2.084.936-5.098.936-3.004 0-3.31-.056-5.19-.944-2.85-1.346-2.86-1.223-.198 2.559 1.809 2.57 2.66 5.181 2.66 8.167 0 5.848-3.357 10.077-9.203 11.596-2.127.553-4.098.525-6.463-.092zm-50.812-46.264c-.095-.154.077-.771.382-1.373.893-1.76 2.557-6.392 3.2-8.91.65-2.544 1.223-6.925.987-7.54-.332-.862-.942-.287-1.513 1.425-1.496 4.486-4.709 7.287-9.248 8.063-5.174.885-10.597-1.795-12.844-6.348-.915-1.854-.95-2.056-.95-5.413 0-3.447.013-3.513 1.084-5.677 1.277-2.577 2.725-3.994 5.323-5.207 3.292-1.537 7.74-1.383 10.766.371.988.573 1.793.723 1.793.334 0-.122-.507-.835-1.127-1.583-1.548-1.87-2.476-3.516-3.222-5.717-.896-2.647-.737-6.636.36-9.007 2.182-4.719 7.822-7.681 13.089-6.874 5.56.851 9.693 4.709 10.598 9.889.665 3.812-.712 8.05-3.765 11.587-2.158 2.5-1.961 3.16.496 1.664 6.956-4.233 16.259-.305 17.74 7.491.43 2.263-.11 5.555-1.327 8.089-4.473 9.313-17.514 8.555-21.842-1.27-.997-2.264-1.734-2.854-1.734-1.388 0 1.35 1.095 6.992 1.892 9.747.41 1.42 1.245 3.712 1.855 5.094.609 1.383 1.036 2.585.948 2.672-.288.288-12.76.173-12.942-.12zm97.93.103c-.096-.096.16-.909.568-1.805 2.254-4.942 3.804-10.583 3.932-14.31.075-2.184-.394-2.869-.977-1.425-1.287 3.186-2.406 5.06-3.728 6.247-3.716 3.333-8.637 3.946-13.49 1.68-2.36-1.102-4.274-3.027-5.43-5.463-.851-1.793-.92-2.161-.92-4.97 0-3.582.504-5.33 2.174-7.548 3.268-4.339 9.342-5.8 14.363-3.456 2.942 1.373 3.063 1.23 1.096-1.294-2.664-3.419-3.75-6.611-3.504-10.305.48-7.19 7.432-12.29 14.697-10.777 5.035 1.047 8.513 4.131 9.708 8.606 1.151 4.315-.073 8.698-3.546 12.7-1.409 1.622-1.889 2.542-1.327 2.542.12 0 1.31-.552 2.645-1.228 2.381-1.204 2.484-1.227 5.357-1.227 2.694.001 3.087.075 4.887.925 5.337 2.52 7.798 7.524 6.472 13.16-.908 3.858-2.907 6.652-5.898 8.242-6.494 3.453-14.408.4-17.166-6.623-.724-1.842-1.029-2.216-1.458-1.787-.223.222-.133 1.365.312 3.995.74 4.377 1.989 8.718 3.353 11.663.544 1.176.99 2.25.99 2.386 0 .278-12.833.35-13.11.073zm-50.593-47.453c0-.139.443-1.223.985-2.409 1.014-2.22 2.557-6.759 3.062-9.01.415-1.844.847-5.976.673-6.429-.324-.842-.928-.306-1.423 1.265-.703 2.23-2.551 4.893-4.31 6.212-5.822 4.363-14.919 2.033-18.046-4.623-.706-1.504-.776-1.962-.776-5.119 0-3.294.046-3.562.92-5.402 2.727-5.744 9.54-8.16 15.355-5.445 1.782.832 2.692 1.077 2.692.726 0-.085-.656-1.008-1.457-2.05-2.762-3.596-3.596-6.051-3.407-10.042.153-3.252 1.074-5.384 3.275-7.581 2.452-2.449 5.265-3.561 9.019-3.567 6.3-.01 11.231 4.022 12.297 10.058.637 3.61-.849 8.115-3.763 11.404-1.345 1.518-1.847 2.51-1.27 2.51.12 0 1.31-.552 2.645-1.227 2.368-1.198 2.494-1.227 5.212-1.21 3.161.019 4.941.585 7.32 2.327 2.934 2.148 4.395 5.08 4.374 8.777-.04 6.895-4.456 12.095-10.718 12.619-5.835.488-10.674-2.755-12.923-8.661-.722-1.897-1.211-1.61-1.121.658.141 3.549 2.242 11.306 4.002 14.776.373.735.597 1.418.498 1.517-.283.281-13.114.21-13.114-.073zm-47.488-47.37c0-.137.46-1.241 1.021-2.454 1.373-2.964 2.63-6.88 3.144-9.787.873-4.941.806-6.59-.234-5.729-.251.208-.457.605-.457.882s-.456 1.413-1.013 2.525c-1.212 2.416-3.24 4.419-5.583 5.515-1.482.692-1.992.774-4.841.774-2.983 0-3.31-.059-5.142-.925-4.288-2.026-6.618-5.405-6.826-9.897-.195-4.21.796-7.067 3.35-9.651 3.333-3.373 8.612-4.178 13.382-2.042.941.421 1.864.715 2.05.654.2-.067-.134-.708-.824-1.58-2.85-3.596-3.928-6.594-3.774-10.491.09-2.29.213-2.76 1.258-4.805 1.373-2.685 3.494-4.58 6.325-5.652 2.525-.957 6.822-.963 9.312-.013 4.89 1.864 7.71 5.87 7.772 11.037.044 3.745-1.069 6.52-3.917 9.766-.767.874-1.394 1.83-1.394 2.123 0 .465.29.384 2.244-.63 2.812-1.46 5.165-1.91 7.673-1.471 4.978.872 8.925 4.528 9.788 9.067.35 1.843-.035 4.958-.897 7.26-2.974 7.929-13.505 9.938-19.587 3.736-.909-.926-1.86-2.306-2.404-3.487-1.233-2.678-1.267-2.733-1.595-2.626-1.127.368 1.16 10.729 3.475 15.746.526 1.14.883 2.148.792 2.238-.27.269-13.099.187-13.099-.083zm98.24-.402c.082-.358.694-1.95 1.36-3.54 1.52-3.622 2.494-7.213 2.952-10.876.277-2.21.279-2.923.01-3.192-.472-.47-.676-.18-1.635 2.326-1.077 2.811-3.429 5.38-6.018 6.573-1.655.762-2.098.837-5.001.837-2.975 0-3.313-.06-5.12-.914-5.37-2.539-7.841-7.7-6.576-13.732 1.563-7.45 9.806-11.246 16.786-7.73 1.077.542 1.752.738 1.873.544.103-.167-.412-1.066-1.146-1.997-4.591-5.83-4.832-12.73-.604-17.288 3.95-4.255 10.245-5.318 15.54-2.623 1.576.802 3.808 2.912 4.715 4.457 2.648 4.507 1.873 10.704-1.88 15.03-.653.752-1.393 1.682-1.645 2.065-.732 1.115-.088 1.311 1.367.417 2.875-1.766 5.723-2.353 8.575-1.77 5.385 1.103 9.243 5.144 9.595 10.05.17 2.358-.66 6.017-1.805 7.966-1.05 1.79-3.349 3.842-5.3 4.733-3.19 1.46-7.785 1.166-10.977-.7-2.004-1.172-4.245-3.826-5.243-6.21-1.086-2.598-1.687-2.801-1.566-.531.2 3.72 2.187 11.194 3.86 14.508.458.909.833 1.786.833 1.95 0 .195-2.255.297-6.549.297h-6.549l.148-.65zm-134.9-6.71c-.09-.235.32-1.55.91-2.922 1-2.32 1.61-4.74 1.198-4.74-.097 0-.5.637-.896 1.415-.94 1.852-2.198 2.63-4.248 2.628-2.009 0-3.29-.76-4.03-2.388-1.61-3.535.337-7.143 3.853-7.143.82 0 1.858.237 2.528.577 1.67.85 1.892.713.888-.552-1.86-2.342-2.19-4.25-1.106-6.39.979-1.931 2.263-2.667 4.428-2.534 2.136.131 3.437.953 4.214 2.66.97 2.13.62 4.224-1.033 6.179-.442.523-.746 1.008-.675 1.079.07.07.635-.13 1.255-.446 1.71-.87 3.899-.78 5.076.208 2.267 1.903 2.337 5.776.143 7.943-2.358 2.33-5.765 1.432-7.405-1.948-.649-1.336-1.153-1.67-1.153-.764 0 .826 1.115 4.853 1.658 5.99.662 1.385.331 1.565-2.897 1.57-1.98.003-2.58-.09-2.707-.422zm.84-28.466c-3.091-.634-6.37-3.091-7.631-5.721-1.44-3-.538-7.062 2.091-9.42.775-.695 1.409-1.338 1.409-1.43 0-.092-.517-.847-1.148-1.68-1.844-2.43-2.06-5.174-.626-7.95 1.42-2.75 4.144-4.248 7.71-4.241 2.56.005 4.043.537 6.017 2.16 3.223 2.651 3.75 7.678 1.072 10.238-.475.454-.864 1.004-.864 1.223 0 .22.623 1.007 1.385 1.752 1.967 1.922 2.515 3.193 2.514 5.83-.002 2.68-.743 4.47-2.65 6.407-2.274 2.31-6.112 3.48-9.278 2.832zm4.992-3.852c6.116-2.84 4.498-10.547-2.33-11.094-3.07-.245-5.806 1.187-7.1 3.718-.731 1.43-.734 3.582-.007 4.772 1.752 2.866 6.22 4.099 9.437 2.604zm-.01-14.713c1.604-.906 2.47-2.285 2.468-3.933-.001-1.668-.745-2.927-2.357-3.99-1.05-.693-1.511-.806-3.29-.806-1.778 0-2.239.113-3.289.806-1.793 1.184-2.413 2.324-2.275 4.184.088 1.193.295 1.717.957 2.42 1.893 2.01 5.486 2.618 7.785 1.32z" fill="#6f6f6f"/><path d="M0 157.44V0h217.76v314.88H0V157.44zm212.5 156.15c1.72-.95 2.892-2.217 3.877-4.19l.653-1.308V7.372l-.759-1.615c-.974-2.073-2.852-3.866-4.818-4.6-1.538-.574-2.168-.577-103.1-.503L6.803.728l-1.448.768C3.48 2.492 2.24 3.81 1.322 5.783L.583 7.372.58 157.462c-.002 139.66.031 150.19.483 151.52.676 1.983 3.266 4.548 5.188 5.138 1.257.386 13.145.43 103.06.383l101.64-.053 1.551-.857zm-18.345-22.783c-1.96-.65-2.914-1.267-4.251-2.75-1.413-1.568-1.975-3.01-1.975-5.068 0-1.7.533-2.978 1.843-4.426l1.031-1.138-1.315-1.277c-.723-.702-1.663-1.862-2.088-2.577-.668-1.123-.772-1.615-.765-3.61.01-2.828.743-4.541 2.8-6.55 1.894-1.85 4.016-2.649 7.048-2.656 2.001-.005 2.595.12 4.234.884 3.891 1.817 5.93 4.688 5.84 8.227-.062 2.475-.767 4.024-2.667 5.86-.816.79-1.483 1.58-1.483 1.756 0 .177.339.637.753 1.022 1.306 1.216 1.952 2.82 1.939 4.812-.022 3.186-1.888 5.933-4.877 7.179-1.493.622-4.643.784-6.067.312zm5.298-3.25c1.846-.918 2.716-2.083 2.888-3.864.303-3.147-2.633-5.44-6.597-5.155-1.908.138-3.276.91-4.33 2.444-.844 1.23-.735 3.589.23 4.94.87 1.219 3.298 2.382 4.972 2.382.855 0 1.875-.269 2.837-.747zm.852-12.727c.748-.462 1.756-1.4 2.238-2.085.767-1.089.878-1.492.878-3.194 0-1.658-.113-2.095-.761-2.943-1.638-2.142-5.469-3.352-8.243-2.603-4.492 1.212-6.369 6.222-3.537 9.44 1.585 1.8 3.325 2.463 6.104 2.323 1.549-.078 2.245-.275 3.32-.938zm-143.47 3.229c-8.113-1.824-11.944-10.06-8.18-17.58.358-.714 1.415-2.231 2.35-3.373 2.32-2.832 2.194-3.756-.298-2.187-4.053 2.553-9.054 2.497-13.022-.147-3.962-2.64-5.545-6.496-4.686-11.422.512-2.942 1.733-5.252 3.77-7.133 2.388-2.205 4.254-2.903 7.828-2.926 2.587-.017 2.88.044 4.923 1.028 2.934 1.413 4.659 3.196 6.18 6.39 1.168 2.449 1.689 2.989 2.03 2.102.171-.444-.727-6.356-1.273-8.383-.69-2.556-1.856-5.87-2.637-7.49-.454-.941-.825-1.819-.825-1.95 0-.13 2.881-.237 6.404-.237h6.404l-.152.65c-.084.357-.685 1.906-1.336 3.442-1.494 3.524-2.51 7.292-2.956 10.97-.253 2.076-.262 2.958-.033 3.186.566.565 1.087.048 1.605-1.592.592-1.871 2.147-4.324 3.47-5.472 5.782-5.013 15.459-2.923 18.649 4.028 1.978 4.311.75 10.838-2.612 13.867-3.569 3.217-9.79 3.905-13.697 1.516-1.039-.636-1.848-.717-1.848-.186 0 .201.535 1.012 1.189 1.8 5.3 6.4 4.864 14.523-1.02 18.96-2.648 1.997-6.902 2.886-10.227 2.139zm99.099.221c-1.88-.25-4.57-1.35-6.168-2.523-5.799-4.259-6.152-12.47-.801-18.63 1.467-1.69 2.032-2.91 1.346-2.91-.147 0-1.313.542-2.593 1.206-2.062 1.07-2.6 1.22-4.729 1.33-1.933.1-2.765.001-4.26-.504-3.291-1.11-5.825-3.312-7.16-6.221-.659-1.437-.794-2.129-.789-4.045.015-5.543 2.45-9.643 7.004-11.796 1.763-.833 2.177-.912 4.685-.896 2.13.014 3.11.162 4.343.654 3.251 1.299 5.69 3.738 6.983 6.984.8 2.008 1.275 2.565 1.768 2.074.283-.283.218-1.177-.313-4.32-.734-4.345-1.898-8.321-3.373-11.528-.525-1.14-.88-2.148-.79-2.239.205-.204 12.81-.22 12.81-.017 0 .08-.574 1.488-1.276 3.126-2.353 5.497-3.667 11.187-3.396 14.709.06.787.884.595 1.24-.289 1.943-4.831 4.006-7.28 7.124-8.46 5.779-2.187 12.713.414 15.344 5.756.739 1.5.798 1.881.792 5.087-.009 4.514-.6 6.145-3.153 8.692-2.439 2.433-4.24 3.128-8.133 3.142-2.677.01-3.046-.06-4.883-.929-1.996-.943-2.79-1.142-2.79-.7 0 .131.6 1.009 1.333 1.95 2.685 3.446 3.699 6.359 3.543 10.186-.084 2.066-.257 2.83-.994 4.38-1.624 3.417-4.971 5.899-8.93 6.62-1.72.313-2.162.326-3.784.111zm39.37-20.72c-3.084-1.367-3.741-5.895-1.196-8.237.727-.669 1.017-1.466.533-1.466-.126 0-.74.26-1.364.578-2.377 1.209-5.067.503-6.063-1.592-.694-1.46-.528-4.424.312-5.555 1.1-1.48 2.415-2.163 3.904-2.024 1.77.164 2.89 1.009 3.906 2.95.46.879.967 1.552 1.126 1.497.479-.167.153-2.49-.716-5.098-.45-1.35-.758-2.553-.685-2.672.073-.119 1.378-.216 2.9-.216 3.234 0 3.124-.288 1.425 3.755-.994 2.364-1.342 4.333-.766 4.333.152 0 .523-.557.825-1.237 1.041-2.349 3.19-3.443 5.528-2.816 2.23.6 3.601 3.214 3.096 5.9-.555 2.955-3.938 4.226-6.968 2.619-.761-.404-1.51-.692-1.665-.64-.155.051.206.674.803 1.383 2 2.38 2.339 4.142 1.218 6.355-.863 1.703-2.228 2.594-3.952 2.58-.733-.006-1.723-.185-2.201-.397zm-90.717-26.023c-4.24-.938-6.94-2.941-8.669-6.433-1.06-2.138-1.092-2.296-1.077-5.253.02-4.118.883-6.176 4.192-9.991 1.901-2.191 1.38-2.82-1.09-1.317-5.866 3.57-13.765 1.309-16.773-4.802-.729-1.482-.822-1.981-.819-4.415.006-4.806 1.737-8.426 5.1-10.666 2.031-1.353 3.166-1.738 5.76-1.955 5.155-.43 9.5 2.281 11.957 7.46 1.176 2.477 1.698 3.023 2.04 2.134.242-.629-.83-6.82-1.7-9.827-.614-2.121-1.57-4.677-2.943-7.872-.121-.283 1.243-.361 6.28-.361h6.436l-.153.65c-.083.357-.685 1.906-1.335 3.442-1.494 3.524-2.51 7.292-2.957 10.97-.252 2.076-.26 2.958-.032 3.186.565.564 1.087.049 1.603-1.585.625-1.979 2.472-4.786 3.826-5.816 4.868-3.705 12.06-3.11 16.236 1.344 1.832 1.954 2.745 4.076 2.933 6.817.378 5.529-1.967 9.842-6.522 11.994-1.777.84-2.184.917-4.836.917-2.666 0-3.053-.074-4.882-.938-3.043-1.438-3.538-1.19-1.823.909 1.596 1.953 2.468 3.512 3.23 5.78 1.961 5.827-.348 11.792-5.59 14.442-2.684 1.357-5.695 1.783-8.393 1.186zM53.11 185.083c-.08-.207.198-1.15.617-2.094 1.358-3.06 2.174-5.416 2.88-8.31.85-3.477 1.234-7.535.744-7.837-.533-.329-1.078.315-1.48 1.747-.474 1.69-2.18 4.318-3.62 5.575-1.88 1.643-3.985 2.437-6.825 2.575-4.086.198-7.061-.947-9.661-3.72-1.78-1.897-2.75-4.058-2.963-6.598-.442-5.262 2.102-10.121 6.28-11.991 3.676-1.646 6.948-1.614 10.628.104 2.423 1.131 2.605.692.735-1.772-1.686-2.224-2.494-3.826-3.095-6.144-1.906-7.345 3.154-14.287 10.794-14.81 7.158-.489 12.926 4.242 13.314 10.92.219 3.776-.92 7.006-3.543 10.049-1.692 1.962-2.048 2.609-1.655 3.001.207.206.737.02 1.704-.6 4.79-3.067 10.532-2.512 14.7 1.42 2.098 1.98 3.09 4.023 3.264 6.722.353 5.488-2.352 10.43-6.883 12.576-1.417.67-1.945.753-4.778.753-2.982 0-3.31-.059-5.137-.922-2.704-1.278-4.574-3.227-6.091-6.348-1.47-3.022-1.947-3.339-1.947-1.29 0 3.27 1.892 10.753 3.782 14.955.468 1.041.778 2.011.689 2.155-.09.144-2.895.261-6.235.261-4.725 0-6.105-.083-6.217-.376zm97.902.107c-.092-.148.172-1.025.587-1.95 1.26-2.806 2.334-5.877 3.013-8.613 1.09-4.389.84-10.001-.32-7.173-2.272 5.545-4.136 7.61-8.028 8.894-2.464.813-6.286.542-8.78-.624-5.75-2.685-8.17-8.743-6.006-15.03 1.395-4.053 4.595-6.642 9.067-7.337 2.34-.363 4.535.01 7.091 1.202 1.036.484 1.981.763 2.118.627.137-.137-.415-1.14-1.236-2.247-1.708-2.303-2.326-3.446-2.957-5.467-1.368-4.382-.485-8.69 2.428-11.843 5.668-6.134 16.637-4.745 20.244 2.564 2.385 4.833 1.484 10.05-2.565 14.866-.98 1.167-1.783 2.232-1.783 2.367 0 .65.74.496 2.67-.558 2.712-1.48 5.284-1.99 7.65-1.515 4.062.814 7.258 3.182 8.838 6.55.753 1.605.87 2.186.863 4.247-.019 5.374-2.57 9.687-6.94 11.73-1.47.688-1.979.768-4.829.764-2.844-.004-3.364-.088-4.859-.782-3.063-1.423-5.357-4.089-6.99-8.121-.665-1.644-1.191-1.23-1.133.892.1 3.616 2.165 11.487 3.907 14.895.989 1.933.991 1.932-5.81 1.932-3.444 0-6.146-.117-6.24-.27zm-50.456-47.756c.083-.357.702-1.948 1.374-3.534 2.244-5.299 3.927-13.954 2.797-14.386-.56-.214-.893.195-1.362 1.671-.624 1.97-1.455 3.366-2.921 4.913-6.744 7.114-19.416 2.625-20.154-7.139-.405-5.345 2.096-9.957 6.521-12.027 1.468-.686 1.985-.768 4.829-.768 2.993 0 3.305.056 5.172.939 1.093.516 2.103.938 2.244.938.56 0 .197-.842-1.05-2.445-4.555-5.852-4.764-12.633-.531-17.195 6.465-6.967 18.533-4.359 21.134 4.567.763 2.618.432 6.143-.823 8.78-.55 1.157-1.671 2.868-2.49 3.801-2.483 2.831-2.403 3.696.21 2.263 2.6-1.427 4.01-1.83 6.393-1.828 6.074.005 11.12 4.345 11.52 9.906.497 6.941-3.649 12.518-10.073 13.55-4.946.795-10.384-2.16-12.53-6.81-1.719-3.721-2.038-3.991-2.178-1.841-.178 2.74 1.802 10.655 3.74 14.945.455 1.01.757 1.953.67 2.094-.087.14-2.967.256-6.4.256h-6.243l.152-.65zm-47.47-47.38c.086-.357.745-2.08 1.464-3.827 1.598-3.884 2.41-6.912 2.851-10.62.247-2.08.25-2.906.011-3.144-.572-.572-1.092-.063-1.61 1.577-2.236 7.075-9.977 10.242-16.705 6.835-2.533-1.283-3.913-2.66-5.132-5.12-1.061-2.143-1.093-2.299-1.078-5.257.017-3.554.62-5.475 2.432-7.763 3.145-3.969 9.183-5.258 14.03-2.995 1.086.507 2.09.922 2.232.922.561 0 .2-.873-.915-2.208-1.665-1.995-3.105-5.083-3.517-7.542-1.536-9.16 7.295-16.203 16.399-13.078 2.054.706 3.53 1.675 5.038 3.31 1.937 2.099 2.747 4.133 2.886 7.24.177 3.995-.765 6.403-4.049 10.343-1.315 1.577-1.735 2.512-1.13 2.512.146 0 1.33-.552 2.633-1.227 2.352-1.22 2.387-1.228 5.453-1.228 2.863 0 3.224.066 5.02.914 5.274 2.493 7.559 7.368 6.192 13.213-.627 2.686-1.694 4.541-3.651 6.348-3.575 3.302-8.525 3.908-13.212 1.617-2.807-1.372-4.73-3.729-6.419-7.865-.178-.437-.522-.794-.764-.794-1.29 0 .643 10.023 2.925 15.166.564 1.27 1.095 2.538 1.18 2.816.144.471-.286.506-6.283.506H52.93l.157-.65zm97.869.145c.085-.278.756-1.956 1.491-3.728 1.691-4.077 2.737-8.164 2.964-11.582.17-2.563.153-2.672-.418-2.672-.472 0-.722.369-1.196 1.77-1.558 4.604-4.66 7.318-9.265 8.105-3.945.675-8.008-.75-10.841-3.804-2.598-2.8-3.527-6.342-2.7-10.296.841-4.02 2.855-6.705 6.222-8.296 1.783-.843 2.158-.912 4.969-.912 2.855 0 3.169.06 5.15.987 2.764 1.292 3.1.965 1.328-1.293-4.81-6.13-4.957-13.227-.368-17.805 2.716-2.71 6.946-4.058 10.79-3.44 7.143 1.147 11.622 7.353 10.203 14.138-.511 2.445-1.843 5.072-3.518 6.94-.66.737-1.356 1.634-1.547 1.994-.548 1.035.343 1.146 1.749.218 3.628-2.395 8.747-2.499 12.594-.254 1.5.875 3.625 3.118 4.411 4.657 1.255 2.453 1.26 6.793.011 9.953-3.806 9.632-17.206 9.862-21.667.37-1.373-2.921-1.347-2.88-1.866-2.981-.648-.128-.625 1.047.096 5.026.739 4.07 1.834 7.809 3.074 10.49.543 1.175.987 2.312.987 2.528 0 .32-1.2.393-6.404.393-5.965 0-6.394-.035-6.25-.506zm-135.02-7.01c0-.164.307-.912.683-1.661 1.001-1.995 2.005-5.211 1.796-5.755-.231-.6-.554-.285-1.397 1.36-.868 1.695-1.882 2.378-3.749 2.528-2.757.22-4.595-1.68-4.668-4.828-.03-1.32.097-1.898.553-2.507 1.623-2.169 3.498-2.593 6.171-1.396.98.439 1.867.712 1.972.607.106-.105-.207-.612-.695-1.126-2.444-2.577-2.601-5.571-.407-7.76 1.715-1.711 4.315-1.86 6.113-.35 2.377 1.995 2.554 5.228.417 7.588-.875.966-1.265 1.754-.869 1.754.072 0 .743-.325 1.491-.722 2.526-1.34 4.97-.71 6.126 1.578.84 1.663.833 3.331-.022 4.949-.901 1.705-2.229 2.573-3.93 2.57-1.988-.002-3.542-1.235-4.53-3.591-.236-.566-.559-1.028-.716-1.028-.503 0-.307 1.887.455 4.372 1.28 4.175 1.51 3.716-1.865 3.716-1.823 0-2.93-.113-2.93-.298zm-.434-28.81c-3.113-1.116-5.797-3.728-6.537-6.364-.43-1.531-.207-4.266.455-5.58.273-.542 1.219-1.724 2.101-2.626l1.605-1.64-1.162-1.318C8.759 33.22 10 27.699 14.53 25.441c1.497-.747 2.123-.891 3.861-.891 2.778 0 4.473.626 6.366 2.352 3.25 2.963 3.524 7.258.656 10.273l-.88.927 1.719 1.834c1.951 2.08 2.424 3.26 2.424 6.05 0 3.442-2.037 6.405-5.489 7.982-2.137.978-5.59 1.161-7.686.41zm6.95-3.52c3.566-1.978 4.415-6.056 1.84-8.842-3.133-3.392-8.854-2.973-11.452.837-.515.754-1.012 1.933-1.12 2.657-.388 2.58 1.76 5.13 5.085 6.034 2.035.553 3.796.339 5.646-.686zM21.292 36.72c1.566-.714 2.993-2.239 3.22-3.439.65-3.456-3.226-6.678-7.019-5.838-2.866.635-5.033 3.128-4.622 5.317.638 3.392 5.082 5.481 8.421 3.96z" fill="#4e4e4e"/><path d="M0 157.44V0h217.76v314.88H0V157.44zm212.42 156.37c1.778-.949 3.799-3.342 4.313-5.108.384-1.316.426-18.95.36-151.7l-.073-150.21-.773-1.463c-.905-1.71-2.705-3.425-4.4-4.193-1.164-.527-4.012-.542-102.98-.546L7.088.586l-1.447.675c-2.113.984-3.185 2.01-4.182 4L.573 7.027v150.41c0 135.27.045 150.54.45 151.72.789 2.31 3.237 4.627 5.445 5.155.5.12 46.776.198 102.84.174l101.93-.044 1.19-.636zm-18.743-23.307c-3.525-1.257-5.553-3.96-5.553-7.4 0-2.108.423-3.157 1.797-4.46.492-.467.894-.992.894-1.167 0-.174-.666-.963-1.48-1.751-.815-.788-1.725-1.954-2.021-2.589-.68-1.456-.723-4.452-.091-6.302.629-1.842 2.678-4.035 4.692-5.022 1.457-.713 1.975-.809 4.402-.809 2.374 0 2.976.106 4.394.769 3.4 1.59 5.74 4.695 5.74 7.613 0 2.681-.726 4.4-2.634 6.234-.94.903-1.709 1.698-1.709 1.767 0 .068.407.57.904 1.115 1.944 2.13 2.45 4.6 1.51 7.356-.64 1.872-2.699 3.926-4.575 4.563-1.673.57-4.792.61-6.27.083zm5.853-2.796c1.406-.711 2.798-2.352 3.027-3.569.423-2.248-1.392-4.737-4.023-5.516-2.534-.75-4.378-.391-6.266 1.221-1.464 1.25-1.98 2.773-1.49 4.402 1.072 3.573 5.257 5.228 8.752 3.461zm-.913-11.993c3.173-.94 5.555-4.274 5.076-7.102-.442-2.61-3.833-4.932-7.226-4.946-5.08-.022-8.536 4.664-6.448 8.742.848 1.654 2.292 2.77 4.271 3.298 2.068.551 2.488.552 4.327.008zm-142.37 2.03c-6.043-1.623-9.695-7.059-8.758-13.038.393-2.507 1.86-5.607 3.53-7.46 1.685-1.869 2.133-2.697 1.693-3.135-.248-.248-.599-.165-1.402.33-3.404 2.101-5.936 2.645-9.211 1.979-3.939-.802-7.267-3.445-8.522-6.77-1.285-3.402-.56-8.427 1.676-11.621 2.263-3.231 5.594-4.767 9.894-4.562 4.805.229 8.234 2.632 10.526 7.377 1.967 4.07 2.679 3.26 1.79-2.039-.641-3.822-1.856-8.108-3.16-11.145-.577-1.345-.933-2.541-.796-2.678.136-.136 2.91-.212 6.163-.169 5.06.067 5.907.141 5.859.512-.031.238-.656 1.89-1.39 3.671-1.884 4.58-2.791 8.285-2.85 11.64-.044 2.55-.007 2.744.522 2.744.442 0 .742-.471 1.352-2.118 1.304-3.526 3.07-5.584 5.903-6.877 2.943-1.344 7.187-1.341 10.14.008 2.05.937 4.569 3.327 5.496 5.218 1.527 3.113 1.53 7.43.007 10.753-2.601 5.677-9.72 7.941-15.617 4.967-1.58-.797-2.494-.911-2.494-.31 0 .135.605 1.017 1.343 1.958 4.766 6.073 4.93 13.136.412 17.645-3.071 3.063-7.79 4.28-12.106 3.12zm98.34.14c-3.547-.837-6.658-3.243-8.105-6.268-.736-1.538-.94-2.385-1.054-4.397-.23-4.014.765-6.659 3.89-10.35 2.467-2.913 2.065-3.485-1.254-1.782-2.874 1.473-5.03 1.885-7.563 1.445-5.427-.943-9.296-4.988-9.568-10.003-.29-5.355 2.346-10.139 6.689-12.14 1.643-.757 2.08-.83 4.986-.822 2.834.007 3.37.093 4.852.779 2.355 1.09 4.563 3.276 5.7 5.643a2630.93 2630.93 0 0 0 1.284 2.67c.192.397.539.722.772.722.336 0 .416-.447.39-2.189-.052-3.574-1.612-9.786-3.467-13.805-.54-1.17-.91-2.242-.823-2.383.22-.357 11.916-.33 12.138.028.096.155-.272 1.297-.818 2.537-2.571 5.835-4.362 14.132-3.381 15.667.446.699 1.2.004 1.751-1.61 1.199-3.518 3.122-5.842 6.002-7.253 1.53-.75 1.925-.814 4.992-.814 3.144 0 3.438.052 5.281.922 5.048 2.386 7.467 7.459 6.268 13.146-.996 4.725-4.047 7.807-8.695 8.787-2.671.563-5.285.21-7.79-1.05-.939-.474-1.842-.861-2.006-.861-.646 0-.24 1.162.874 2.496 4.56 5.463 4.883 12.628.78 17.292-2.67 3.033-7.913 4.588-12.124 3.593zm41.247-20.218c-2.206-.671-3.662-3.552-3.012-5.96.168-.623.764-1.667 1.324-2.32 1.527-1.78 1.273-2.374-.541-1.262-3.064 1.878-6.328.386-6.74-3.082-.212-1.79.227-3.17 1.384-4.35 1.105-1.128 2.503-1.551 3.874-1.174 1.366.377 2.34 1.267 3.275 2.997.43.794.911 1.38 1.07 1.3.504-.253.206-3.044-.562-5.265-.409-1.18-.743-2.233-.743-2.34 0-.107 1.252-.195 2.782-.195 2.12 0 2.743.086 2.619.361-2.056 4.55-2.85 7.583-1.987 7.583.205 0 .726-.7 1.158-1.557.922-1.829 2.166-2.631 4.077-2.631 2.617 0 4.092 1.756 4.092 4.872 0 1.54-.106 1.872-.883 2.755-1.6 1.818-3.544 2.005-6.198.598-.74-.393-1.405-.715-1.476-.715-.406 0-.003.911.839 1.898 1.401 1.643 1.637 2.214 1.637 3.963 0 3.285-2.888 5.467-5.99 4.524zm-92.346-26.53c-6.93-1.979-10.34-8.86-7.834-15.814.545-1.512 1.546-3.098 3.056-4.838 1.581-1.822 1.912-2.46 1.491-2.88-.245-.245-.564-.19-1.257.214-2.334 1.363-3.748 1.927-5.386 2.15-3.891.532-7.427-.668-10.208-3.463-2.137-2.147-2.894-4.07-2.881-7.324.026-7.243 4.79-12.363 11.466-12.328 5.241.027 8.936 2.53 11.265 7.628 1.062 2.325 1.474 2.797 1.993 2.28.82-.818-1.057-9.765-3.136-14.954-.71-1.771-1.291-3.299-1.291-3.394 0-.281 12.112-.198 12.287.084.088.142-.283 1.226-.823 2.41-1.283 2.808-2.613 6.982-3.187 10.002-.506 2.663-.606 5.694-.195 5.947.559.344 1.191-.238 1.5-1.381 1.582-5.861 7.262-9.578 13.095-8.567 6.674 1.157 10.785 6.768 9.767 13.332-.643 4.143-2.645 7.02-6.053 8.693-1.81.889-2.082.938-5.14.938-3.09 0-3.32-.043-5.293-.995-1.597-.77-2.14-.917-2.407-.65-.268.266-.2.523.298 1.14 1.25 1.542 3.145 4.564 3.613 5.764.796 2.037 1.093 4.652.761 6.709-1.131 7.008-8.352 11.339-15.502 9.297zm-50.41-46.32c2.702-6.196 4.07-10.654 4.454-14.515.305-3.07.207-3.67-.581-3.556-.477.069-.795.562-1.38 2.144-.864 2.34-2.12 4.22-3.611 5.405-6.905 5.486-18 1.212-18.931-7.291-.814-7.434 3.575-13.148 10.4-13.542 2.39-.138 4.835.383 6.601 1.407 2.148 1.246 2.532.439.823-1.73-2.835-3.6-3.787-6.306-3.609-10.25.092-2.045.284-2.985.86-4.22 2.208-4.725 7.7-7.533 12.992-6.643 10.102 1.7 13.609 12.443 6.742 20.654-1.945 2.325-2.287 2.986-1.666 3.224.263.1.943-.1 1.532-.453 2.83-1.693 3.525-1.89 6.705-1.894 2.721-.004 3.221.08 4.758.795 3.443 1.603 5.539 4.023 6.405 7.395.628 2.445.217 5.671-1.078 8.476-2.764 5.98-9.905 8.25-15.944 5.067-2.313-1.22-4.107-3.244-5.457-6.159-1.099-2.373-1.8-3.015-2.19-2.002-.508 1.322 1.42 9.947 3.239 14.483.71 1.771 1.291 3.299 1.291 3.394 0 .095-2.815.173-6.256.173-4.897 0-6.223-.078-6.1-.361zm98.066.047c0-.172.447-1.328.993-2.568 1.503-3.41 2.715-7.56 3.23-11.06.51-3.474.406-4.546-.444-4.546-.407 0-.716.436-1.175 1.661-1.444 3.855-3.19 5.975-6.016 7.304-5.792 2.722-13.25.102-15.88-5.579-.762-1.645-.831-2.066-.816-4.975.02-3.911.647-5.754 2.729-8.027 3.386-3.697 8.84-4.72 13.515-2.538 1.046.488 2.083.888 2.304.888.713 0 .43-.898-.718-2.27-7.038-8.428-3.767-19.389 6.307-21.138 3.532-.613 7.713.586 10.313 2.957 3.442 3.138 4.655 7.324 3.456 11.919-.58 2.222-1.531 3.92-3.474 6.207-1.52 1.79-1.99 2.903-1.223 2.903.2 0 1.454-.553 2.789-1.228 2.38-1.204 2.484-1.228 5.357-1.228 2.69 0 3.09.075 4.865.914 5.186 2.451 7.52 7.296 6.205 12.882-.953 4.051-3.058 6.775-6.489 8.397-1.77.837-2.181.915-4.69.899-2.13-.014-3.112-.162-4.344-.654-3.39-1.354-5.727-3.768-7.113-7.344-.546-1.41-.901-1.95-1.279-1.95-.826 0-.911.732-.431 3.708.828 5.135 2.322 10.25 3.89 13.314.324.635.59 1.224.59 1.31 0 .086-2.802.156-6.226.156-4.293 0-6.226-.098-6.226-.314zm-50.673-47.17c0-.06.436-1.067.969-2.238.91-2.001 2.067-5.28 2.788-7.908.62-2.255 1.152-7.14.841-7.72-.53-.988-1.21-.45-1.908 1.51-1.935 5.431-6.272 8.398-11.724 8.018-4.946-.344-8.738-3.036-10.37-7.36-.536-1.424-.613-2.118-.518-4.703.144-3.943.981-5.938 3.45-8.218 2.34-2.162 4.232-2.863 7.785-2.886 2.522-.017 2.915.06 4.738.92 3.281 1.551 3.887 1.182 1.932-1.179-2.835-3.423-3.905-6.42-3.716-10.417.1-2.137.28-2.954.954-4.357 1.104-2.298 3.16-4.3 5.578-5.429 1.637-.764 2.38-.93 4.612-1.028 6.957-.305 12.079 3.73 12.959 10.208.446 3.284-1.09 7.732-3.689 10.686-2.749 3.124-2.324 3.735 1.323 1.901 1.786-.898 2.857-1.24 4.279-1.37 5.707-.514 10.968 3.035 12.324 8.316.367 1.43.395 2.173.149 3.998-.872 6.465-4.746 10.466-10.557 10.903-5.382.404-9.62-2.255-12.088-7.586-1.097-2.368-1.801-3.015-2.188-2.009-.503 1.308 1.522 10.411 3.223 14.489.587 1.406 1.135 2.784 1.22 3.062.141.47-.281.506-6.107.506-3.443 0-6.26-.05-6.26-.109zm-47.488-47.37c0-.058.44-1.065.977-2.24 2.102-4.588 3.59-10.193 3.698-13.92.026-.92-.094-1.815-.267-1.988-.547-.545-1.18-.022-1.527 1.26-.89 3.299-3.364 6.325-6.288 7.692-1.487.696-1.994.777-4.846.777-2.975 0-3.312-.06-5.119-.914-4.899-2.316-7.178-6.55-6.572-12.21.557-5.206 4.051-8.906 9.325-9.876 2.41-.443 4.653-.084 7.353 1.177 2.873 1.341 3.093.897.94-1.905-2.718-3.538-3.578-6.024-3.416-9.88.214-5.112 3.052-8.797 8.058-10.462 1.558-.517 2.331-.601 4.488-.485 5.25.282 9.112 2.916 10.9 7.434.484 1.222.628 2.188.623 4.189-.01 3.681-1.086 6.422-3.664 9.326-1.577 1.777-1.945 2.432-1.6 2.847.242.29.776.124 2.526-.784 2.819-1.465 5.202-1.932 7.589-1.49 3.936.731 7.09 3.026 8.734 6.356.81 1.644.923 2.16.92 4.22-.009 5.895-3.147 10.608-8.097 12.162-2.177.683-6.056.498-8.055-.384-3.259-1.438-5.563-3.907-6.876-7.366-.658-1.734-1.199-2.245-1.772-1.673-.762.76 1.218 10.114 3.107 14.674.582 1.405 1.13 2.783 1.219 3.06.15.471-.27.506-6.099.506-3.443 0-6.26-.047-6.26-.104zm98.16-.15c0-.139.342-1.016.76-1.95 1.94-4.34 3.374-9.554 3.723-13.54.302-3.451-.835-3.762-2.001-.548-.35.96-.92 2.209-1.27 2.773-.954 1.54-3.08 3.365-4.925 4.228-1.468.686-1.983.768-4.828.767-2.862-.001-3.357-.082-4.875-.79-4.463-2.082-6.858-5.78-6.849-10.573.009-4.883 2.337-8.853 6.236-10.634 3.504-1.6 7.149-1.528 10.602.212 2.591 1.305 3.023.655 1.1-1.654-5.929-7.116-4.623-16.278 2.846-19.96 2.147-1.06 2.28-1.086 5.402-1.08 2.656.004 3.484.119 4.866.67 6.796 2.714 9.376 10.244 5.854 17.09-.368.714-1.33 2.073-2.139 3.019-1.598 1.87-1.98 2.654-1.52 3.113.204.204.737.03 1.693-.552.768-.468 1.95-1.068 2.626-1.335 5.244-2.068 12.086.665 14.492 5.787.682 1.452.782 2.021.774 4.411-.023 7.134-4.268 12.026-10.73 12.366-5.404.284-9.847-2.516-11.943-7.528-.943-2.255-1.608-2.97-2.083-2.238-.795 1.228 1.784 12.23 3.807 16.24.459.91.834 1.722.834 1.806 0 .084-2.802.153-6.226.153s-6.225-.114-6.225-.253zm-134.8-6.98c-.1-.163.302-1.423.894-2.8 1.247-2.897 1.625-4.99.9-4.99-.26 0-.694.53-1.006 1.236-.976 2.2-2.386 3.024-4.836 2.824-2.049-.168-3.62-2.17-3.62-4.614 0-3.773 3.288-5.435 7.08-3.58.875.429 1.682.688 1.794.577.111-.11-.215-.689-.726-1.284-2.103-2.451-2.592-4.833-1.397-6.803.948-1.561 2.079-2.219 3.823-2.22 1.982-.004 3.314.746 4.122 2.319 1.123 2.185.758 4.36-1.056 6.29-1.474 1.569-1.057 1.96.983.921.706-.359 1.708-.578 2.646-.578 2.663 0 4.072 1.889 3.806 5.1-.215 2.58-1.908 4.289-4.251 4.289-1.786 0-3.232-1.061-4.142-3.04-.663-1.442-1.68-2.008-1.676-.932.003.899 1.14 5.268 1.6 6.158.247.475.37.99.275 1.144-.234.377-4.978.362-5.212-.017zm.518-28.59c-3.096-.647-5.9-2.71-7.248-5.332-1.579-3.074-.638-7.32 2.123-9.576.706-.577 1.283-1.239 1.283-1.47 0-.231-.372-.792-.826-1.245-1.943-1.939-2.43-4.957-1.233-7.653 1.386-3.123 3.894-4.62 7.706-4.598 1.773.01 2.624.161 3.628.646 3.115 1.504 4.914 4.032 4.914 6.906 0 1.924-.595 3.38-1.943 4.76l-1.046 1.072 1.891 2c1.535 1.624 1.96 2.286 2.255 3.511 1.545 6.424-4.713 12.395-11.504 10.978zm4.99-3.28c3.84-1.787 5.212-5.815 3.014-8.843-1.798-2.475-5.632-3.579-8.56-2.463-2.738 1.043-4.714 3.614-4.727 6.151-.009 1.588.539 2.626 2.076 3.939 2.253 1.923 5.609 2.422 8.197 1.217zm-.206-14.603c1.734-.89 2.713-2.113 2.88-3.598.203-1.793-.057-2.61-1.252-3.93-2.71-2.993-7.573-2.567-9.913.868-.887 1.301-.78 3.465.24 4.841 1.587 2.14 5.635 3.056 8.045 1.819z" fill="#2f2f2f"/><path d="M0 157.44V0l108.88.002 108.88.002v314.88H0v-157.44zm212.68 156.53c1.374-.754 2.986-2.47 3.769-4.01l.72-1.416-.004-150.88-.003-150.88-.677-1.444c-.756-1.613-2.89-3.73-4.392-4.356-.848-.353-15.458-.41-103.43-.408L6.223.579l-1.48.847C3.118 2.355 2.01 3.524 1.14 5.222.583 6.315.576 8.132.576 157.582c0 149.45.007 151.26.565 152.36 1.18 2.309 3.108 4.028 4.912 4.382.57.112 47.1.185 103.4.163 94.539-.037 102.43-.076 103.23-.517zm-18.118-23.449c-1.86-.517-3.806-1.721-4.723-2.92-2.247-2.939-2.096-6.65.364-8.956.497-.467.905-.992.905-1.167 0-.175-.662-.963-1.471-1.751-2.077-2.023-2.67-3.294-2.694-5.775-.033-3.386 1.781-6.234 5.093-7.994 1.068-.568 1.673-.661 4.284-.663 2.79 0 3.178.069 4.717.846 3.254 1.644 5.11 4.432 5.122 7.69.008 2.453-.935 4.418-2.911 6.07-.785.654-1.426 1.35-1.426 1.543 0 .194.402.734.895 1.2 2.105 1.996 2.614 5.01 1.315 7.794-1.522 3.26-5.8 5.104-9.47 4.083zm4.805-2.469c2.496-1.131 3.585-2.988 3.243-5.53-.22-1.64-1.226-2.852-3.062-3.69-2.94-1.343-5.877-.86-7.94 1.306-2.331 2.45-1.127 6.472 2.395 7.994 1.395.603 3.94.565 5.364-.08zm-.4-12.22c2.843-.965 4.893-3.6 4.893-6.291 0-1.727-.435-2.692-1.785-3.959-1.437-1.349-2.77-1.91-4.904-2.061-2.236-.16-3.648.224-5.398 1.467-1.374.977-2.681 3.253-2.679 4.663.005 2.9 1.924 5.336 4.919 6.245 1.125.342 3.863.306 4.954-.064zm-141.19 2.008c-1.03-.13-2.583-.636-3.81-1.239-7.362-3.616-8.581-12.733-2.596-19.408 1.746-1.947 2.088-2.646 1.554-3.18-.367-.365-.746-.25-2.996.913-2.026 1.047-2.986 1.368-4.492 1.502-5.94.529-11.597-3.725-12.274-9.228-.59-4.797 2.089-10.385 5.91-12.33 6.628-3.374 13.872-.368 16.796 6.97.702 1.761 1.321 2.246 2.002 1.567.368-.367.376-.796.063-3.116-.505-3.731-1.788-8.656-3.045-11.69-.582-1.405-1.13-2.783-1.219-3.06-.149-.47.258-.506 5.84-.506 4.69 0 5.968.079 5.847.361-2.539 5.924-3.475 8.847-4.136 12.912-.533 3.275-.518 4.761.054 5.235.686.567 1.302.029 1.868-1.63 1.262-3.704 2.934-5.755 5.87-7.199 7.186-3.536 15.881 1.129 16.61 8.91.495 5.296-2.38 10.391-6.795 12.038-3.418 1.276-6.722 1.026-10.291-.779-1.297-.655-1.467-.68-1.881-.266-.414.413-.399.526.172 1.252 3.513 4.464 4.524 6.837 4.52 10.619-.003 3.652-.74 5.45-3.266 7.97-1.43 1.427-2.334 2.063-3.608 2.536-2.215.825-4.54 1.118-6.698.844zm95.93-.48c-5.793-1.912-8.84-6.766-8.005-12.749.351-2.517 1.532-4.907 3.68-7.45 2.857-3.384 2.293-4.225-1.506-2.243-2.828 1.475-4.909 1.852-7.54 1.363-3.57-.662-6.63-2.86-8.17-5.867-1.505-2.942-1.277-7.587.54-11.023 4.304-8.13 16.102-7.699 20.336.744.557 1.112 1.014 2.179 1.014 2.371 0 .575 1.035 1.335 1.55 1.138.685-.263.615-2.007-.259-6.479-.72-3.69-2.249-8.594-3.344-10.736-.304-.595-.553-1.152-.553-1.238 0-.086 2.686-.156 5.97-.156 5.55 0 5.958.036 5.817.506-.084.278-.698 1.805-1.364 3.394-2.082 4.96-3.689 12.82-2.916 14.261.69 1.286 1.4.733 2.361-1.843 1.651-4.42 4.507-6.895 8.896-7.71 3.462-.642 7.537.657 10.21 3.254 2.035 1.978 2.93 4.073 3.101 7.256.359 6.705-3.647 11.6-10.036 12.268-2.076.216-4.282-.242-6.615-1.375-2.811-1.365-3.208-.534-1.061 2.221 3.331 4.275 4.357 8.586 3.044 12.794-.974 3.121-3.071 5.409-6.32 6.893-2.24 1.022-6.386 1.213-8.83.407zm41.887-20.088c-1.187-.515-2.382-1.986-2.613-3.213-.28-1.494.07-2.812 1.114-4.19.513-.677 1.061-1.404 1.217-1.614.189-.255.172-.493-.051-.716-.252-.252-.707-.148-1.86.426-1.827.908-3.246.962-4.543.173-1.274-.775-1.889-2.292-1.725-4.257.213-2.569 2.27-4.581 4.396-4.303 1.571.205 2.478.96 3.554 2.955.605 1.123 1.103 1.713 1.448 1.713.451 0 .517-.229.471-1.627-.03-.895-.39-2.626-.8-3.848-.412-1.221-.673-2.342-.582-2.49.174-.28 4.264-.384 4.534-.114.085.084-.339 1.352-.941 2.816-1.225 2.975-1.575 4.489-1.179 5.088.442.67 1.056.172 1.894-1.536.917-1.871 1.838-2.478 3.76-2.478 1.7 0 2.658.46 3.376 1.618 1.85 2.987.317 6.602-2.953 6.962-1.023.112-1.587-.032-2.958-.754-.932-.491-1.812-.893-1.955-.893-.594 0-.187 1.11.878 2.396 1.91 2.306 2.17 4.109.89 6.2-1.14 1.866-3.357 2.562-5.372 1.686zm-92.211-26.409c-2.24-.744-3.352-1.37-4.798-2.7-4.424-4.067-4.747-10.956-.758-16.146 3.247-4.224 3.11-3.99 2.609-4.49-.416-.414-.66-.349-2.737.731-2.907 1.513-5.25 1.978-7.69 1.525-4.993-.926-8.804-4.645-9.367-9.14-.261-2.082.297-5.194 1.318-7.347 2.249-4.745 7.646-7.28 12.736-5.984 3.936 1.003 6.452 3.204 8.274 7.24 1.138 2.52 1.625 3.016 2.362 2.406.334-.276.386-.738.237-2.099-.494-4.5-2.341-11.463-3.814-14.374-.379-.75-.69-1.497-.69-1.661 0-.196 2.045-.299 5.937-.299 3.265 0 5.936.047 5.936.105 0 .057-.379.937-.84 1.954-1.416 3.113-2.843 7.757-3.33 10.831-.624 3.94-.607 5.213.076 5.577.74.396 1.337-.128 1.78-1.567 1.43-4.634 4.639-7.547 9.17-8.325 3.385-.581 7.67.818 10.212 3.334 5.304 5.248 3.618 15.278-3.097 18.427-3.252 1.525-6.836 1.416-10.399-.315-1.602-.779-1.946-.857-2.285-.519-.467.466-.302.826 1.391 3.029 5.486 7.138 3.986 15.82-3.315 19.188-1.82.84-2.475.987-4.72 1.061-1.937.064-3.015-.05-4.198-.443zm-49.628-47.065c2.541-5.806 3.782-10.206 4.07-14.436.164-2.39.13-2.685-.334-2.862-.821-.315-1.331.216-2.012 2.09-1.753 4.831-5.271 7.581-10.05 7.857-7.803.45-13.51-5.916-12.123-13.52.618-3.379 2.256-5.957 4.84-7.612 3.087-1.978 7.64-2.196 11.198-.535 1.09.509 2.167.925 2.393.925.935 0 .712-.938-.63-2.641-4.004-5.085-4.822-10.067-2.444-14.893 2.677-5.433 10.064-7.673 16.026-4.859 5.462 2.578 7.87 8.712 5.748 14.648-.599 1.675-1.28 2.74-3.467 5.422-1.227 1.504-1.622 2.901-.82 2.901.226 0 1.477-.552 2.78-1.227 2.353-1.22 2.389-1.228 5.452-1.228 2.864 0 3.223.065 5.025.917 5.92 2.798 7.92 9.294 4.807 15.617-3.702 7.518-14.178 8.27-19.389 1.39-.59-.778-1.293-2.01-1.562-2.737-.696-1.881-1.22-2.62-1.854-2.62-.852 0-.942.843-.436 4.088.793 5.073 2.176 9.824 3.794 13.028l.693 1.372H53.28l.475-1.084zm97.999-.1c1.852-3.623 3.548-9.344 4.008-13.528.314-2.851.069-3.864-.901-3.725-.503.073-.804.532-1.395 2.13-1.46 3.955-3.71 6.256-7.187 7.35-4.499 1.415-9.142.213-12.338-3.196-2.2-2.347-2.616-3.56-2.616-7.636 0-3.156.07-3.614.776-5.118 1.087-2.313 3.054-4.31 5.237-5.316 1.63-.752 2.103-.832 4.883-.832 2.906 0 3.19.054 5.11.98 3.22 1.553 3.788.897 1.617-1.868-2.22-2.83-3.326-5.467-3.508-8.362-.324-5.187 1.768-8.989 6.154-11.185 2.847-1.426 5.771-1.704 8.874-.846 3.593.994 6.23 3.161 7.73 6.353.688 1.466.77 1.98.77 4.832 0 3.108-.029 3.25-1.079 5.345-.593 1.183-1.803 2.996-2.689 4.028-2.493 2.906-1.844 4.071 1.23 2.207 2.02-1.226 3.692-1.694 6.056-1.698 3.508-.005 6.988 1.726 9.148 4.552 1.514 1.98 2.06 3.976 1.886 6.902-.425 7.189-5.463 11.868-12.23 11.357-4.789-.361-8.309-3.096-10.3-8.003-.644-1.584-.876-1.883-1.46-1.883-.671 0-.696.073-.675 2.022.04 3.639 1.689 10.19 3.69 14.66l.745 1.66h-12.141l.604-1.183zm-50.767-46.079c-.097-.096.152-.909.554-1.806 2.176-4.862 3.49-9.675 3.773-13.828.163-2.389.128-2.685-.335-2.862-.798-.305-1.364.23-1.896 1.793-1.23 3.607-3.031 5.798-5.942 7.224-1.586.777-1.974.843-4.907.843-2.97 0-3.315-.061-5.103-.906-2.593-1.226-4.101-2.662-5.294-5.04-1.209-2.411-1.522-4.53-1.072-7.25.647-3.907 2.91-6.984 6.257-8.51 3.186-1.452 7.546-1.24 10.458.51.983.59 2.002.706 2.279.259.23-.373-.294-1.33-1.508-2.75-1.546-1.81-2.932-4.91-3.314-7.414-.288-1.89-.267-2.5.15-4.182 1.203-4.868 4.738-8.012 9.91-8.816 3.399-.527 7.444.689 10.176 3.06 2.835 2.46 4.188 7.371 3.146 11.422-.575 2.235-1.308 3.54-3.47 6.17-2.521 3.067-2.014 4.409.958 2.53 5.02-3.172 11.714-1.954 15.37 2.798 1.921 2.496 2.413 5.288 1.604 9.1-.774 3.641-2.984 6.572-6.174 8.184-1.525.77-1.899.835-4.844.835-3.012 0-3.298-.053-5.093-.934-2.366-1.162-4.658-3.51-5.643-5.782-1.16-2.677-1.413-3.097-1.917-3.193-.944-.182-1.127.89-.67 3.925.719 4.774 1.895 8.982 3.597 12.871.337.77.54 1.517.45 1.661-.178.288-11.216.372-11.501.088zM53.51 90.256c-.09-.09.337-1.314.948-2.72 2.694-6.198 4.3-14.552 3.003-15.625-.715-.592-1.314-.008-1.985 1.935-1.556 4.51-4.447 7.11-8.771 7.893-2.246.406-5.035 0-7.29-1.064-1.958-.924-4.309-3.201-5.194-5.033-2.853-5.906-.1-13.596 5.688-15.889 1.296-.514 2.242-.657 4.401-.666 2.516-.01 2.921.07 4.738.928 2.073.98 2.918 1.146 3.233.637.208-.335-.447-1.478-1.487-2.596-1.233-1.327-2.921-4.981-3.28-7.1-1.1-6.508 3.025-12.184 9.727-13.386 2.019-.362 3.511-.215 6.075.6 4.422 1.407 7.449 5.156 7.83 9.7.314 3.735-.9 7.068-3.812 10.47-1.667 1.948-2.072 3.191-1.04 3.191.305 0 1.583-.532 2.839-1.184 3.458-1.793 6.87-1.866 10.377-.221 2.005.94 4.322 3.205 5.225 5.106 1.932 4.07.735 10.14-2.67 13.536-3.236 3.228-8.469 3.98-12.998 1.87-2.92-1.361-4.695-3.532-6.474-7.92-.405-1-1.104-1.293-1.69-.71-.389.388-.4.769-.09 3 .504 3.638 2.094 9.65 3.308 12.513.57 1.346 1.038 2.549 1.038 2.673 0 .254-11.396.315-11.65.062zm97.938-.044c0-.114.592-1.666 1.315-3.45 2.747-6.77 4.066-15.136 2.384-15.116-.726.01-1.093.482-1.67 2.154-1.155 3.351-2.973 5.571-5.649 6.898-5.658 2.806-12.917.414-15.649-5.156-.69-1.407-.854-2.163-.951-4.371-.305-6.96 3.655-11.661 10.244-12.16 2.22-.167 4.737.38 6.39 1.39.496.304 1.246.553 1.665.553 1.067 0 .995-.823-.197-2.246-2.956-3.53-4.076-6.494-3.91-10.35.098-2.247.25-2.904 1.053-4.53 4.224-8.56 17.384-8.42 21.642.23.787 1.601.85 1.968.843 4.908-.01 3.709-.55 5.43-2.447 7.8-2.467 3.08-2.902 3.715-2.902 4.231 0 .819.84.661 3.411-.64 1.885-.955 2.726-1.207 4.465-1.338 4.676-.353 9.086 2.062 11.166 6.114.562 1.095.778 2.028.875 3.774.366 6.623-3.441 11.744-9.56 12.86-3.313.604-7.588-.805-10.047-3.312-.756-.77-1.827-2.408-2.606-3.987-1.011-2.048-1.46-2.68-1.903-2.68-.492 0-.592.22-.665 1.483-.173 2.978 2.056 11.86 3.886 15.478.378.75.688 1.432.688 1.516 0 .085-2.67.155-5.936.155-3.264 0-5.936-.094-5.936-.208zm-134.84-7.52c.088-.278.62-1.676 1.182-3.106 1.03-2.62 1.295-4.286.739-4.63-.453-.278-1.14.417-1.637 1.654-.926 2.308-3.151 3.288-5.465 2.406-1.623-.618-2.441-2.03-2.441-4.212 0-1.903.657-3.008 2.247-3.776 1.48-.714 2.763-.578 4.609.491 2.363 1.369 2.807.66.937-1.494-1.387-1.599-1.712-2.34-1.712-3.901 0-3.626 3.707-5.65 6.852-3.742 1.117.678 1.834 2.205 1.834 3.907 0 1.548-.28 2.183-1.634 3.693-.534.597-.972 1.218-.972 1.382 0 .604.947.63 1.979.054 3.11-1.737 5.933-.57 6.55 2.71.262 1.395-.309 3.178-1.397 4.364-.783.851-1.184 1.045-2.372 1.148-1.87.161-3.003-.54-4.152-2.57-1.453-2.564-1.35-2.461-1.917-1.916-.471.453-.47.603.004 2.745.276 1.246.747 2.915 1.048 3.71.3.794.547 1.477.547 1.516 0 .04-1.123.072-2.495.072-2.245 0-2.48-.05-2.334-.505zm-.59-28.49c-4.506-1.474-7.366-5.238-6.913-9.097.263-2.244 1.12-3.852 2.797-5.254.785-.655 1.427-1.392 1.427-1.637 0-.246-.513-1.002-1.14-1.68-1.895-2.051-2.193-4.733-.842-7.569 2.615-5.486 11.578-5.455 14.744.052.679 1.18.842 1.81.844 3.25.004 2.277-.326 3.124-1.805 4.635l-1.195 1.221 1.906 1.97c2.09 2.16 2.54 3.195 2.543 5.843 0 1.158-.224 2.058-.832 3.322-1.56 3.245-4.33 5.033-8.098 5.228-1.405.073-2.663-.031-3.437-.284zm6.257-2.762c1.432-.73 2.899-2.191 3.401-3.392.574-1.369.493-3.673-.173-4.976-1.2-2.346-3.456-3.564-6.673-3.601-2.596-.03-3.887.538-5.713 2.514-2.604 2.819-2.297 6.52.713 8.578 2.58 1.763 6.005 2.119 8.445.877zm-.902-14.33c3.983-1.66 4.725-5.84 1.523-8.574-2.758-2.356-6.764-2.023-9.218.766-2.967 3.371.07 8.148 5.234 8.234.762.012 1.87-.18 2.461-.426z" fill="#010101"/></svg>