<svg xmlns="http://www.w3.org/2000/svg" height="335.872" width="232.277" viewBox="0 0 217.76 314.88008"><path d="M0 157.44V0h217.76v314.88H0V157.44z" fill="#fdfdfd"/><path d="M0 157.44V0h217.76v314.88H0V157.44zm211.9 155.69c1.94-.967 3.245-2.375 4.042-4.362.476-1.185.503-9.47.503-151.04 0-142.57-.025-149.85-.513-151.25-.625-1.786-2.432-3.732-4.238-4.566l-1.33-.61-101.05-.08c-94.76-.07-101.16-.044-102.65.42-2.204.686-4.408 2.875-5.044 5.009-.415 1.396-.458 15.526-.458 151.09 0 133.05.049 149.69.44 150.79.802 2.268 2.78 4.274 4.989 5.06.9.32 18.503.39 102.31.4l101.23.013 1.773-.884zM3.66 299.08c-.326-.325-.199-.666.25-.666.238 0 .434.122.434.272 0 .364-.453.625-.684.394zm190.36-6.77c-3.92-.655-6.453-3.696-7.265-8.717-.542-3.352-.224-11.563.561-14.496 1.397-5.218 4.117-7.768 8.696-8.15 3.6-.302 6.962 1.402 8.428 4.269.839 1.64.742 2.244-.437 2.735-1.723.718-2.516.54-3.423-.767-1.683-2.426-5.356-2.68-7.359-.509-.78.845-1.707 2.9-1.982 4.392l-.205 1.108 1.268-.674c1.071-.57 1.692-.674 4.018-.674 2.27 0 2.953.11 3.909.625 3.597 1.94 5.344 6.11 4.992 11.913-.177 2.899-.832 4.629-2.42 6.381-2.036 2.25-5.179 3.167-8.78 2.564zm4.616-4.514c1.602-.798 2.606-3.054 2.606-5.855 0-1.9-.127-2.468-.904-4.018-1.112-2.221-2.114-2.906-4.25-2.908-1.805 0-2.83.466-4.038 1.837-1.217 1.383-1.625 2.777-1.382 4.72.549 4.379 2.507 6.709 5.652 6.723.717.003 1.759-.22 2.316-.499zm-142.52-10.33c-5.224-1.435-8.986-5.738-9.408-10.76-.322-3.827 1.04-7.874 3.64-10.814.655-.739 1.19-1.412 1.19-1.495 0-.084-.75.233-1.665.704-3.394 1.743-7.216 1.746-10.938.008-3.158-1.475-5.398-4.033-6.338-7.242-.57-1.942-.575-3.618-.021-6.225.586-2.763 1.67-4.84 3.454-6.62 5.942-5.929 16.078-4.067 20.02 3.677l1.055 2.071-.185-1.74c-.338-3.194-1.552-7.81-2.93-11.14-.75-1.813-1.38-3.622-1.401-4.019l-.038-.722 6.884-.078c6.2-.07 6.903-.03 7.07.404.101.265.043.82-.131 1.233-3.044 7.244-4.035 10.515-4.296 14.18l-.154 2.171.684-1.596c1.924-4.488 5.055-7.048 9.55-7.808 3.882-.657 8.234.742 11.045 3.548 3.444 3.438 4.424 8.45 2.645 13.532-2.172 6.208-9.464 9.326-15.85 6.777-.916-.365-1.666-.614-1.666-.554 0 .06.441.728.98 1.483 5.32 7.456 3.783 16.234-3.502 20-2.719 1.405-6.757 1.832-9.694 1.025zm95.754-.12c-2.073-.601-3.087-1.113-4.622-2.333-2.804-2.229-4.499-5.812-4.499-9.513 0-3.599 1.19-6.7 3.645-9.499.703-.802 1.278-1.525 1.278-1.607 0-.083-.742.223-1.648.68-7.679 3.863-17.225-1.256-17.685-9.484-.39-6.968 3.608-12.536 9.922-13.82 2.733-.557 5.288-.241 7.887.973 2.26 1.057 4.94 3.758 6.1 6.15 1.091 2.25 1.152 1.777.322-2.513-.724-3.744-2.049-7.989-3.213-10.295-.468-.928-.81-1.968-.761-2.311.089-.621.135-.625 7.039-.625h6.95l-.038.722c-.02.397-.634 2.152-1.364 3.9-1.69 4.044-2.768 8.034-2.968 10.977l-.157 2.31.694-1.62c1-2.336 1.779-3.493 3.277-4.87 2.638-2.427 6.65-3.576 10.204-2.924 3.685.677 6.722 2.564 8.519 5.293 1.431 2.176 1.956 3.977 1.956 6.712 0 6.773-3.699 11.44-9.988 12.6-2.557.472-4.516.148-8.083-1.336-.387-.16-.202.239.62 1.336 2.502 3.343 3.382 6.065 3.212 9.941-.101 2.305-.247 2.925-1.096 4.643-2.75 5.574-9.28 8.317-15.503 6.513zm42.566-20.719c-1.292-.705-1.883-1.295-2.492-2.485-.665-1.3-.717-3.598-.114-5.039.24-.57.435-1.062.435-1.092 0-.03-.75-.007-1.665.053-3.155.205-5.108-1.81-5.1-5.258.006-2.4 1.123-4.259 3.198-5.323 1.72-.881 4.516-.114 5.878 1.614.832 1.054.757.284-.237-2.435-.452-1.236-.767-2.41-.7-2.608.088-.262 1.071-.361 3.581-.361 4.152 0 4.242.086 2.907 2.785-.502 1.016-.913 1.972-.913 2.123 0 .151.606-.046 1.346-.439 2.561-1.358 5.664-.568 6.884 1.753.887 1.687.85 4.842-.074 6.134-1.063 1.486-2.72 2.188-4.738 2.005-.924-.083-1.68-.126-1.68-.096 0 .031.26.566.579 1.19 1.162 2.275.418 5.422-1.657 7.001-1.29.981-4.068 1.225-5.438.478zm-136.1-40.17c-6.988-.948-11.69-5.973-11.72-12.524-.014-3.189 1.236-6.42 3.606-9.323.738-.903 1.284-1.643 1.214-1.643-.071 0-.978.397-2.016.881-4.458 2.082-9.775 1.175-13.608-2.32-2.935-2.676-4.06-5.996-3.453-10.191.663-4.59 3.192-8.243 7.006-10.122 1.782-.878 2.042-.925 5.212-.925 3.264 0 3.383.024 5.546 1.078 2.609 1.273 4.66 3.332 6.018 6.043.768 1.533.893 1.665.89.942-.007-2.643-2.268-10.784-3.888-14.003-.916-1.818-.937-2.462-.09-2.688.853-.229 12.484-.234 13.078-.007.667.255.57.945-.45 3.179-2.012 4.408-3.742 10.775-3.71 13.649l.016 1.34.66-1.774c1.232-3.306 3.264-5.492 6.48-6.969 2.348-1.078 6.165-1.249 8.965-.4 5.277 1.599 8.546 6.028 8.56 11.599.015 5.61-2.766 10.006-7.512 11.869-2.382.935-6.773.95-9.076.032-.876-.349-1.613-.635-1.64-.635-.025 0 .516.836 1.204 1.859 2.146 3.193 2.594 4.687 2.601 8.685.006 3.374-.02 3.52-.98 5.43-1.052 2.09-3.303 4.418-5.213 5.39-2.103 1.07-5.776 1.808-7.699 1.548zm94.714-.27c-6.313-1.37-10.314-6.104-10.303-12.195.006-3.469 1.043-6.228 3.466-9.228.8-.99 1.454-1.862 1.454-1.938 0-.076-.424.122-.942.44-1.424.875-4.438 1.724-6.122 1.724-6.365 0-11.847-4.8-12.273-10.743-.403-5.615 2.435-10.826 7.096-13.03 1.854-.875 2.144-.926 5.291-.926 3.136 0 3.44.053 5.213.903 3.113 1.494 5.446 3.98 6.742 7.185.42 1.04.468 1.078.482.376.051-2.707-2.295-11.227-4.044-14.684-1.348-2.664-1.413-2.639 6.713-2.532 3.61.047 6.662.183 6.781.303.265.264-.059 1.257-1.597 4.895-1.404 3.32-2.497 7.294-2.885 10.483-.278 2.278-.222 3.059.143 1.996 1.526-4.45 4.06-7.197 7.866-8.529 1.343-.47 2.22-.562 4.582-.483 2.696.09 3.093.183 5.126 1.185 2.746 1.354 4.661 3.227 5.817 5.69.736 1.567.901 2.326 1 4.578.268 6.075-2.518 10.623-7.69 12.552-2.524.94-6.537.878-9-.142l-1.826-.755.738.911c5.51 6.802 4.656 15.948-1.88 20.132-2.87 1.838-6.682 2.54-9.947 1.832zm-52.58-37.37c-.35-.222-.368-.421-.097-1.08 1.762-4.268 2.868-7.179 3.327-8.75.545-1.867 1.51-7.787 1.302-7.994-.06-.06-.339.512-.62 1.27-2.22 5.975-8.007 9.322-13.955 8.068-3.048-.642-5.08-1.75-7.037-3.838-2.043-2.179-2.922-4.245-3.12-7.338-.441-6.853 3.547-12.14 10.07-13.35 2.057-.381 4.848-.02 7.024.911l1.328.568-1.395-2.076c-1.836-2.732-2.647-4.99-2.836-7.892-.65-9.947 9.966-16.248 19.367-11.496 2.107 1.065 4.168 3.242 5.247 5.542 1.237 2.634 1.45 6.261.545 9.235-.593 1.947-2.357 5.028-3.34 5.833a3.764 3.764 0 0 0-.784.94c-.232.431.04.366 1.46-.355 4.775-2.42 10.586-1.487 14.394 2.312 3.728 3.718 4.36 9.346 1.658 14.736-4.537 9.046-17.84 8.493-22.27-.925-1.207-2.566-1.267-2.004-.295 2.779.83 4.088 1.81 7.21 3.209 10.232.767 1.656.926 2.257.677 2.556-.256.309-1.714.39-6.877.387-3.604-.002-6.746-.126-6.983-.275zm-48.166-25.838c-.086-.225.421-1.736 1.127-3.358 2.054-4.72 3.09-8.512 3.433-12.556.164-1.936.154-1.979-.227-1.003-1.366 3.496-3.052 5.707-5.436 7.129-5.015 2.992-11.405 2.162-15.605-2.028-3.623-3.615-4.45-9.405-2.067-14.483 1.12-2.387 3.04-4.294 5.492-5.453 1.844-.871 2.113-.917 5.415-.917 3.05 0 3.624.08 4.694.65.67.358 1.3.65 1.4.65.1 0-.285-.634-.856-1.409-4.497-6.112-4.367-13.24.326-17.903 3.297-3.275 8.033-4.529 12.624-3.342 9.681 2.503 12.744 13.387 6.03 21.426-.83.993-1.459 1.806-1.399 1.806.06 0 .88-.383 1.82-.85 3.313-1.648 7.414-1.689 10.782-.11 2.398 1.125 5.279 4.092 6.12 6.304 1.36 3.575.64 8.687-1.713 12.176-5.307 7.868-17.217 6.64-21.538-2.22-.578-1.186-1.053-2.017-1.056-1.846-.003.17.253 1.74.568 3.486.752 4.163 1.798 7.721 3.235 10.995.641 1.462 1.082 2.794.979 2.96-.123.198-2.593.303-7.09.303-5.675 0-6.929-.072-7.058-.408zm96.052-.007c-.087-.229.355-1.561.982-2.961 2.05-4.571 3.276-8.962 3.656-13.09.142-1.533.113-1.745-.153-1.156-1.52 3.36-2.166 4.426-3.473 5.73-3.693 3.684-9.389 4.503-14.356 2.063-4.061-1.995-6.419-5.545-6.676-10.054-.322-5.645 2.17-10.15 6.842-12.372 1.359-.646 2.133-.796 4.67-.9 3.079-.129 3.27-.092 6.494 1.248.407.169.27-.145-.503-1.156-4.636-6.057-4.413-13.806.527-18.31 3.611-3.293 8.33-4.3 13.104-2.795 2.952.93 5.18 2.527 6.705 4.805 1.513 2.26 2.143 4.419 2.108 7.222-.044 3.573-1.236 6.408-4.165 9.905-.52.62-.819 1.07-.664.997.155-.072.999-.476 1.875-.897 4.531-2.178 10.12-1.26 13.92 2.286 2.19 2.042 3.23 4.272 3.396 7.28.232 4.204-.941 7.648-3.544 10.397-5.948 6.283-16.339 4.357-20.31-3.765l-1.035-2.117.193 1.588c.53 4.372 2.01 9.662 3.78 13.516.532 1.159.894 2.296.804 2.528-.24.624-13.937.63-14.177.007zm-95.599-61.41c-.358-.144-.651-.332-.651-.418 0-.086.567-1.488 1.26-3.115 2.166-5.082 3.186-8.72 3.5-12.49.137-1.65.107-1.89-.161-1.3-1.64 3.594-2.124 4.372-3.58 5.746-2.277 2.149-4.302 3.003-7.486 3.157-8.535.414-14.47-5.908-13.307-14.177.733-5.205 4.064-8.968 9.143-10.326 2.053-.549 5.581-.233 7.575.677.884.404 1.608.678 1.608.609 0-.07-.443-.705-.984-1.412-1.913-2.5-3.36-6.373-3.36-8.995 0-7.22 5.605-12.648 13.019-12.61 3.835.02 7.176 1.434 9.67 4.094 4.464 4.761 4.245 12.553-.502 17.887-.736.826-1.338 1.568-1.338 1.65 0 .08.554-.173 1.23-.563 7.092-4.09 16.546.03 18.145 7.907.65 3.204-.457 7.815-2.537 10.56-2.543 3.356-6.002 4.91-10.463 4.696-2.231-.106-2.837-.259-4.727-1.19-2.614-1.29-4.866-3.57-6.213-6.294l-.915-1.85.163 1.3c.588 4.692 2.02 9.844 3.803 13.68 1.466 3.153 1.615 3.079-6.143 3.055-3.354-.01-6.39-.136-6.75-.28zm95.924-.095c-.514-.376-.48-.525.777-3.395 2.021-4.615 3.162-8.749 3.538-12.823.174-1.887.25-1.962-1.191 1.192-1.37 2.998-4.194 5.396-7.456 6.332-2.63.754-6.386.476-8.88-.658-4.492-2.043-7.208-6.205-7.208-11.046 0-6.245 3.834-11.274 9.49-12.447 2.352-.487 5.496-.19 7.456.705.883.404 1.547.641 1.476.528a270.38 270.38 0 0 0-1.43-2.136c-2.11-3.133-2.628-4.775-2.628-8.324 0-2.458.122-3.343.646-4.666 1.898-4.794 6.543-7.797 12.064-7.8 9.903-.002 15.842 9.455 11.566 18.419-.539 1.13-1.57 2.708-2.291 3.509-.722.8-1.312 1.52-1.312 1.6 0 .078.944-.33 2.1-.91 2.016-1.01 2.218-1.052 5.139-1.052 2.908 0 3.137.046 5.283 1.068 4.3 2.049 6.65 5.369 6.834 9.655.251 5.851-2.215 10.462-6.805 12.725-1.897.936-2.507 1.09-4.715 1.196-5.5.262-9.923-2.353-12.332-7.292-1.132-2.32-1.181-2.192-.55 1.424.776 4.453 1.894 8.158 3.572 11.84.857 1.88.885 2.04.417 2.382-.745.544-12.81.52-13.56-.026zm-134.51-13.04c0-.403.31-1.345.687-2.095.377-.75.785-1.68.906-2.07l.22-.707-.915.768c-1.053.885-2.452 1.22-4.148.992-2.173-.29-3.777-2.057-4.104-4.521-.284-2.132.197-3.546 1.617-4.758 1.334-1.14 2.576-1.484 4.338-1.203 1.055.168 1.156.134.96-.326-.627-1.478-.984-2.597-.994-3.115-.038-1.972 1.588-4.498 3.374-5.242.515-.215 1.466-.39 2.113-.39 4.066 0 6.726 4.619 4.8 8.335l-.396.764h1.975c2.357 0 3.273.528 4.263 2.461.839 1.639.858 3.719.05 5.385-1.668 3.437-5.417 4.136-8.056 1.504l-1.128-1.125.257 1.143c.142.629.526 1.821.853 2.65.327.827.527 1.68.445 1.893-.113.295-.983.388-3.633.388h-3.484v-.731zm-.79-25.703c-1.672-.846-2.741-1.96-3.63-3.786-.685-1.405-.539-2.024.576-2.448 1.978-.752 2.3-.694 3.095.563.95 1.5 2.226 2.174 4.087 2.157 1.919-.018 3.172-.705 4.183-2.296.779-1.224 1.68-4.027 1.389-4.318-.073-.073-.772.156-1.553.508-1.076.485-1.947.636-3.592.625-4.248-.03-6.812-1.94-8.28-6.17-.428-1.232-.552-2.397-.552-5.199 0-3.125.087-3.799.646-5.006 1.601-3.462 3.976-5.124 7.62-5.335 3.346-.193 5.16.433 7.214 2.49 1.37 1.372 1.753 1.995 2.345 3.807.661 2.026.707 2.568.703 8.377-.004 5.044-.102 6.564-.52 8.089-1.087 3.97-2.61 6.286-5.086 7.733-1.16.679-1.705.791-4.23.876-2.667.09-3.023.036-4.414-.668zm6.383-13.451c1.497-.415 3.269-2.236 3.689-3.792.406-1.506-.025-4.623-.865-6.251-1.633-3.168-5.544-4.117-7.856-1.907-2.385 2.279-2.232 8.53.267 10.92 1.295 1.237 2.824 1.568 4.765 1.03z" fill="#d2d2d2"/><path d="M0 157.44V0h217.76v314.88H0V157.44zm210.27 156.67c2.962-.966 5.25-3.108 6.005-5.621.224-.746.314-44.093.314-151.11V7.319l-.886-1.769c-.929-1.854-2.302-3.164-4.228-4.033-1.049-.473-6.873-.501-102.46-.501-98.713 0-101.38.014-102.77.546-1.829.704-3.491 2.214-4.467 4.057l-.773 1.463v301l.684 1.375c.941 1.89 3.157 3.808 5.193 4.495 1.618.546 3.665.558 101.79.594 92.407.033 100.25 0 101.6-.442zm-16.878-22.145c-2.76-.78-5.02-3.139-5.985-6.248-.736-2.37-.725-13.488.015-16.194 1.582-5.774 4.564-8.386 9.56-8.371 3.178.01 5.88 1.543 7.172 4.071.888 1.735.761 2.156-.808 2.69l-1.371.465-1.308-1.446c-1.398-1.546-2.34-2.031-3.942-2.031-2.13 0-3.958 1.374-4.994 3.755-.557 1.28-1.1 3.756-.823 3.756.078 0 .839-.324 1.69-.72 1.218-.565 2.015-.72 3.721-.72 3.784 0 6.43 1.813 7.844 5.374.586 1.476.676 2.21.686 5.599.01 3.39-.069 4.074-.607 5.235-.834 1.8-2.475 3.554-4.024 4.302-1.6.773-4.959 1.01-6.826.483zm5.806-4.18c.407-.301 1.066-1.12 1.464-1.822.632-1.112.724-1.623.724-4.018 0-2.509-.074-2.879-.868-4.31-1.042-1.879-1.965-2.612-3.554-2.824-1.85-.248-3.174.133-4.445 1.279-1.664 1.499-2.082 2.47-2.04 4.737.092 4.962 2.62 7.982 6.402 7.644.895-.08 1.896-.376 2.317-.687zm-141.48-10.21c-6.14-.991-10.42-5.467-10.756-11.25-.228-3.921.875-7.067 3.604-10.275.852-1.002 1.549-1.965 1.549-2.14 0-.176-.684.069-1.52.543-3.783 2.147-7.582 2.319-11.39.515-5.216-2.472-7.617-7.253-6.505-12.958 1.932-9.91 12.966-13.633 20.37-6.87 1.3 1.186 1.97 2.129 2.96 4.163l1.278 2.63.01-1.213c.022-3-1.774-10.064-3.653-14.359-.549-1.256-.931-2.458-.85-2.672.12-.31 1.507-.388 6.852-.388h6.702l-.153.794c-.084.437-.756 2.252-1.494 4.032-1.63 3.936-2.703 8.022-2.951 11.25-.216 2.805.136 3.16.861.865 2.325-7.356 10.337-10.617 17.378-7.071 7.44 3.747 8.77 14.198 2.54 19.953-2.375 2.194-4.493 2.965-8.139 2.962-2.501-.002-2.932-.088-4.748-.944-1.1-.518-2.046-.894-2.104-.836-.059.058.403.744 1.025 1.524 1.59 1.993 2.886 4.666 3.374 6.963.53 2.5.527 3.138-.032 5.59-1.372 6.018-7.86 10.215-14.209 9.19zm93.948-.523c-2.313-.738-3.935-1.753-5.546-3.472-2.07-2.207-2.884-4.206-3.03-7.435-.188-4.163.896-7.067 3.951-10.58.665-.765 1.208-1.509 1.208-1.654 0-.145-.88.194-1.954.754-1.125.586-2.784 1.16-3.91 1.351-5.02.857-10.28-1.713-12.673-6.193-1.664-3.113-1.55-7.562.293-11.45 3.492-7.365 13.471-8.885 19.425-2.959 1.429 1.422 2.318 2.883 3.618 5.942.582 1.371.41-1.68-.291-5.132-.815-4.012-2.13-8.187-3.342-10.612-.437-.874-.737-1.752-.667-1.95.197-.554 13.357-.52 13.57.035.084.218-.429 1.755-1.14 3.415-2.157 5.04-3.497 10.425-3.297 13.258.092 1.31.15 1.446.358.842.728-2.112 2.584-5.24 3.737-6.3 3.741-3.441 9.183-4.14 13.96-1.795 4.69 2.304 7.268 7.188 6.509 12.33-.702 4.745-2.692 7.615-6.627 9.555-2.104 1.038-2.332 1.086-5.113 1.086-2.686 0-3.065-.073-4.908-.944-1.1-.519-2.055-.887-2.125-.817-.07.07.416.81 1.078 1.646 5.428 6.851 4.544 15.623-1.99 19.738-2.993 1.884-7.632 2.445-11.095 1.34zm42.676-20.727c-1.85-.91-3.15-3.546-2.769-5.614.1-.538.495-1.529.88-2.202l.699-1.225-.753.286c-1.212.46-3.683.346-4.488-.206-2.862-1.963-3.034-6.542-.33-8.812 2.538-2.13 5.1-1.565 7.493 1.654l.64.86-.168-1.01c-.092-.556-.482-1.921-.867-3.034-1.08-3.12-1.28-2.877 2.44-2.97 2.505-.063 3.296.007 3.41.302.081.212-.295 1.353-.836 2.537-.541 1.185-1.071 2.521-1.178 2.97-.194.816-.192.815.729-.23 1.23-1.398 2.256-1.886 3.965-1.886.995 0 1.705.194 2.376.65 1.646 1.117 2.14 2.044 2.264 4.256.096 1.682.012 2.164-.525 3.031-.635 1.025-1.704 1.748-3.225 2.184-.741.212-1.815.078-3.374-.421-.636-.203-.628-.162.217 1.167.707 1.112.876 1.692.876 2.999 0 2.007-1.12 3.975-2.683 4.715-1.295.613-3.545.612-4.794-.001zm-137.52-40.39c-3.95-.856-7.733-3.884-9.095-7.28-.556-1.388-.67-2.21-.676-4.849-.006-3.058.033-3.26 1.034-5.344.572-1.192 1.711-2.947 2.531-3.9.82-.953 1.493-1.882 1.494-2.063.001-.182-1.031.197-2.295.84-1.966 1.003-2.628 1.191-4.585 1.304-5.041.291-9.596-2.231-11.69-6.474-2.232-4.525-.976-10.97 2.84-14.572 3.75-3.537 8.774-4.278 13.63-2.011 3.05 1.424 5.209 3.999 6.91 8.243.482 1.201.455-1.402-.043-4.178-.65-3.632-1.948-7.952-3.224-10.736-.567-1.238-.954-2.451-.86-2.696.252-.655 13.15-.67 13.402-.016.09.236-.424 1.829-1.142 3.54-.719 1.71-1.574 3.986-1.901 5.057-1.117 3.658-1.882 9.463-1.247 9.463.13 0 .453-.685.718-1.523 1.819-5.756 7.561-9.308 13.45-8.319 8.524 1.431 12.82 9.93 9.045 17.893-2.794 5.894-10.278 8.115-16.564 4.916-.602-.306-1.095-.485-1.095-.398 0 .087.54.837 1.2 1.667 1.67 2.098 3.033 5.064 3.444 7.494 1.11 6.562-3.095 12.542-9.818 13.963-2.319.49-3.117.487-5.464-.021zm95.977-.015c-3.967-.96-6.977-3.279-8.647-6.665-1.277-2.586-1.506-6.238-.582-9.272.587-1.926 2.702-5.339 4.06-6.55 1.347-1.2.554-1.232-1.732-.068-2.319 1.182-2.389 1.197-5.43 1.197-2.865 0-3.217-.065-5.037-.925-2.479-1.171-4.799-3.347-5.863-5.498-1.506-3.046-1.318-7.75.452-11.284 2.262-4.515 7.414-7.213 12.32-6.451 4.607.715 8.292 3.615 10.013 7.882.956 2.367 1.204 2.392.982.099-.417-4.294-2.34-11.171-4.083-14.604-.513-1.01-.601-1.428-.353-1.676.23-.229 2.33-.33 6.798-.33 5.57 0 6.49.061 6.638.446.095.246-.227 1.319-.715 2.384-1.341 2.927-2.227 5.43-2.93 8.275-.742 3.01-1.136 7.382-.665 7.382.17 0 .401-.422.513-.939.37-1.703 1.9-4.329 3.34-5.727 6.886-6.691 19.014-2.697 20.528 6.76.548 3.423-.397 7.34-2.408 9.983-3.108 4.085-9.614 5.546-14.512 3.26-1.042-.487-1.894-.835-1.894-.773 0 .061.708 1.096 1.573 2.299 3.522 4.897 4.127 10.066 1.714 14.646-1.747 3.318-4.909 5.545-8.921 6.285-2.144.396-3.058.371-5.16-.137zm-52.2-37.47c-.079-.203.362-1.536.98-2.961 1.431-3.31 2.513-6.634 3.051-9.381.547-2.786.702-5.334.327-5.378-.159-.018-.555.698-.88 1.592-1.566 4.318-4.893 7.119-9.362 7.884-5.334.912-11.01-2.039-13.3-6.914-.713-1.517-.78-1.966-.78-5.143 0-3.438.012-3.509 1.08-5.665 1.296-2.615 2.987-4.274 5.6-5.494 3.322-1.551 7.394-1.412 10.902.373.602.307 1.094.498 1.094.425 0-.073-.694-1.098-1.542-2.278-2.326-3.234-2.946-5.132-2.946-9.018 0-3.01.052-3.288.943-5.095 3.14-6.363 10.604-8.77 17.359-5.597 3.684 1.73 6.1 4.97 6.761 9.07.596 3.695-.866 8.148-3.742 11.395-.817.922-1.486 1.81-1.486 1.97 0 .162.684-.093 1.52-.567 5.336-3.021 11.4-2.083 15.505 2.398 1.912 2.087 2.712 4.18 2.708 7.086-.005 4.106-1.204 7.26-3.712 9.764-2.656 2.652-6.725 3.955-10.288 3.294-4.402-.817-7.596-3.306-9.534-7.433-.632-1.346-1.225-2.447-1.317-2.447-.26 0 .169 3.313.823 6.356.768 3.571 1.789 6.773 3.014 9.457.543 1.188.915 2.276.828 2.418-.088.142-3.153.258-6.812.258-5.131 0-6.684-.085-6.794-.37zm-48.04-25.6c-.089-.144.239-1.152.728-2.24 2.113-4.696 3.468-9.563 3.909-14.037.235-2.389-.197-2.595-.905-.434-2.508 7.65-10.672 10.817-17.867 6.933-1.851-1-4.133-3.463-5.042-5.442-1.398-3.048-1.246-7.581.368-10.985 2.64-5.566 10.12-8.015 15.795-5.171.817.409 1.551.679 1.632.599.08-.08-.38-.831-1.022-1.67-4.522-5.906-4.694-12.81-.435-17.557 6.063-6.758 18.335-4.626 21.52 3.74 1.729 4.537.642 9.553-3.03 13.99-.905 1.094-1.59 2.043-1.522 2.11.067.068.974-.327 2.014-.878 2.616-1.385 4.721-1.79 7.367-1.416 5.348.754 9.828 5.035 10.383 9.922.629 5.534-2.86 11.746-7.621 13.567-6.593 2.521-13.855-.87-16.465-7.688-.27-.705-.603-1.281-.74-1.281-.337 0-.334.027.33 3.943.667 3.929 2.27 9.279 3.522 11.752.472.933.789 1.879.704 2.1-.127.33-1.382.404-6.807.404-3.66 0-6.725-.118-6.814-.262zm96.09-.143c-.086-.222.163-1.035.552-1.805 1.917-3.795 3.544-9.47 4.1-14.301.224-1.935-.219-2.482-.726-.897-1.169 3.648-4.115 7.02-7.145 8.175-2.088.796-5.309 1.044-7.364.567-3.644-.846-6.923-3.42-8.469-6.646-.847-1.768-.899-2.07-.892-5.2.006-2.792.115-3.59.682-5.01 2.007-5.018 7.485-8.087 12.807-7.176 1.11.19 2.678.678 3.483 1.085.806.408 1.525.68 1.599.608.074-.074-.526-1.036-1.333-2.14-2.076-2.838-2.951-5.137-3.133-8.227-.122-2.078-.037-2.86.486-4.478 1.569-4.852 5.779-8.05 11.037-8.387 6.86-.44 12.429 3.733 13.63 10.212.74 3.992-.588 7.813-4.197 12.085-.62.733-1.059 1.401-.976 1.484.083.083.981-.303 1.995-.857 4.827-2.636 10.54-1.8 14.456 2.116 2.707 2.706 3.71 5.666 3.188 9.406-.78 5.6-3.568 9.206-8.358 10.816-6.24 2.097-13.076-1.36-15.545-7.862-.792-2.087-1.137-2.045-.897.11.49 4.397 2.08 10.262 3.81 14.05.543 1.188.915 2.276.828 2.418-.088.142-3.153.258-6.812.258-5.432 0-6.68-.074-6.807-.404zm-95.925-61.39c-.32-.202-.111-.921 1.07-3.679.807-1.885 1.74-4.402 2.073-5.594.592-2.122 1.448-7.019 1.451-8.305.003-1.011-.495-.766-.88.433-2.42 7.562-10.212 10.987-17.242 7.58-2.67-1.294-4.276-2.864-5.541-5.418-1.07-2.159-1.092-2.274-1.076-5.397.019-3.606.589-5.556 2.265-7.749 3.37-4.409 9.743-5.828 14.873-3.312.676.332 1.31.522 1.41.422.1-.1-.276-.713-.834-1.363-2.251-2.625-3.687-6.395-3.687-9.686 0-7.772 7.41-13.531 15.28-11.874 7.308 1.538 11.555 8.097 9.758 15.072-.622 2.415-1.639 4.31-3.476 6.474-.87 1.026-1.582 1.963-1.582 2.083 0 .12 1.037-.32 2.303-.977 2.047-1.061 2.577-1.209 4.755-1.323 7.552-.395 13.487 5.373 12.79 12.43-.631 6.39-4.55 10.867-10.298 11.762-5.872.914-11.582-2.587-13.753-8.434-.682-1.839-1.115-1.767-.869.144.636 4.934 2.11 10.386 3.807 14.07.545 1.184.927 2.321.848 2.527-.113.292-1.575.374-6.596.37-3.549-.002-6.631-.117-6.85-.256zm96.124-.006c-.336-.212-.213-.71.693-2.812 2.2-5.105 3.221-8.833 3.774-13.781.248-2.219-.282-2.096-1.139.264-2.555 7.04-9.94 10-16.899 6.773-2.298-1.065-4.618-3.354-5.709-5.633-.657-1.372-.857-2.25-.957-4.217-.227-4.459.934-7.62 3.753-10.224 2.408-2.224 4.215-2.87 8.06-2.882 2.829-.009 3.176.055 4.995.915 1.075.508 1.954.83 1.954.714 0-.115-.535-.92-1.188-1.787-2.58-3.425-3.57-6.369-3.392-10.083.096-2.013.288-2.85 1.006-4.38 2.317-4.939 8.092-7.88 13.599-6.925 5.637.977 9.56 4.767 10.565 10.207.685 3.707-.73 8.027-3.789 11.57-.8.926-1.454 1.798-1.454 1.937 0 .14 1.04-.286 2.31-.945 2.09-1.083 2.556-1.21 4.851-1.317 2.053-.097 2.89 0 4.372.499 6.097 2.057 9.146 7.042 8.058 13.177-1.022 5.76-4.763 9.667-10.068 10.512-3.815.608-7.499-.574-10.405-3.34-1.62-1.54-3.752-4.99-3.752-6.07 0-.216-.13-.394-.29-.394-.408 0-.366.653.28 4.377.742 4.284 1.809 7.877 3.274 11.029.98 2.11 1.113 2.595.77 2.812-.537.339-12.737.342-13.274.004zm-133.3-12.35c-1.372-.159-1.378-.44-.076-3.416 1.205-2.753 1.298-3.538.264-2.23-1.027 1.3-2.129 1.8-3.968 1.8-2.71 0-4.435-1.704-4.743-4.684-.203-1.96.361-3.348 1.809-4.45.928-.706 1.36-.832 2.854-.832.968 0 2.05.105 2.405.234.625.226.618.18-.217-1.402-.964-1.829-1.077-3.105-.414-4.687.887-2.119 2.479-3.245 4.586-3.245 2.36 0 3.88.951 4.843 3.033.744 1.61.686 3.24-.176 4.935-.397.781-.723 1.45-.724 1.486 0 .036.333-.062.742-.217 1.257-.476 3.37-.331 4.414.303 1.262.768 2.068 2.575 2.076 4.655.005 1.364-.147 1.855-.935 3.026-1.146 1.703-3.001 2.616-4.676 2.303-1.161-.217-2.872-1.566-3.696-2.913-.432-.707-.53-.76-.527-.29.003.722.638 3.034 1.327 4.83.288.748.445 1.439.35 1.534-.228.227-4.13.388-5.519.227zm-.961-26.02c-.808-.287-1.838-.812-2.29-1.167-1.171-.92-2.439-2.727-2.65-3.779-.165-.824-.093-.936.86-1.333 1.6-.667 2.064-.549 2.922.745.916 1.38 2.197 2 4.136 1.999 2.781-.001 4.58-1.72 5.497-5.257.277-1.064.43-2.008.339-2.099-.09-.09-.803.196-1.584.635-1.225.69-1.739.799-3.756.799-2.03 0-2.562-.115-4.047-.873-3.384-1.726-4.95-5.403-4.713-11.06.136-3.232.92-5.338 2.618-7.032 1.548-1.544 2.937-2.09 5.638-2.215 2.961-.138 4.76.409 6.566 1.996 2.773 2.434 3.508 5.486 3.287 13.647-.194 7.195-.978 10.039-3.55 12.88-1.966 2.17-6.322 3.164-9.273 2.115zm6.605-14.114c.595-.38 1.422-1.203 1.836-1.828 1.283-1.934.934-6.11-.735-8.804-1.259-2.032-4.72-2.85-6.967-1.648-3.125 1.672-3.488 8.583-.612 11.659 1.659 1.774 4.279 2.026 6.478.621z" fill="#b0b0b0"/><path d="M0 157.44V0h217.76v314.88H0V157.44zm211.69 156.25c1.97-.922 3.429-2.328 4.35-4.195l.692-1.403v-301l-.681-1.3c-1.037-1.976-2.846-3.68-4.605-4.336-1.527-.57-2.408-.575-102.8-.572L7.386.887 5.94 1.56c-2.114.985-3.186 2.01-4.182 4L.87 7.328v150.13c0 133.57.049 150.27.44 151.38.86 2.432 2.833 4.325 5.448 5.228 1.427.493 6.142.513 102.41.453l100.91-.063 1.617-.757zm-18.88-22.03c-2.534-.903-4.253-2.892-5.26-6.084-.566-1.8-.642-2.668-.642-7.383 0-7.53.821-11.152 3.182-14.026 1.971-2.4 6.044-3.532 9.306-2.586 1.89.548 3.993 2.323 4.758 4.018.617 1.369.494 1.771-.663 2.174-1.392.484-1.769.375-2.477-.715-.985-1.518-2.222-2.151-4.204-2.153-2.72-.002-4.272 1.19-5.353 4.111-.653 1.764-1.047 3.688-.755 3.688.11 0 .931-.357 1.823-.794 1.34-.657 1.999-.793 3.793-.786 2.535.01 4.24.654 5.77 2.182 2.661 2.654 3.683 9.007 2.157 13.409-.65 1.879-3.232 4.499-4.92 4.994-1.548.454-5.18.427-6.515-.049zm6.119-3.591c.712-.37 1.258-1.017 1.858-2.202.722-1.426.849-2.011.843-3.882-.017-6.073-4.755-9.41-8.89-6.265-2.404 1.83-3.012 4.145-2.056 7.828.89 3.426 2.662 5.007 5.639 5.031 1 .008 1.974-.183 2.606-.51zm-142.32-10.87c-2.413-.595-4.118-1.507-5.824-3.117-3.577-3.374-4.695-8.196-3.024-13.041.644-1.869 1.511-3.279 3.304-5.374.74-.864 1.345-1.736 1.345-1.938 0-.225-.9.1-2.343.85l-2.343 1.215h-3.245c-3.166 0-3.297-.026-5.448-1.086-4.301-2.119-6.414-5.443-6.38-10.036.04-5.42 2.513-9.575 7.007-11.78 1.455-.713 1.899-.785 4.79-.778 4.12.011 5.77.618 8.43 3.1 1.448 1.351 2.144 2.301 3.046 4.16 1.815 3.742 2.089 3.23 1.125-2.109-.745-4.13-1.72-7.445-3.174-10.788-.646-1.485-1.099-2.776-1.006-2.869.247-.247 13.065-.205 13.314.043.116.117-.267 1.255-.851 2.531-2.116 4.618-3.527 9.782-3.71 13.58-.088 1.829.201 2.607.645 1.733.121-.239.566-1.293.988-2.343 1.06-2.634 3.122-4.88 5.594-6.095 1.85-.908 2.085-.95 5.272-.95 3.15 0 3.445.05 5.283.92 2.584 1.22 4.632 3.173 5.79 5.52.794 1.607.944 2.264 1.045 4.561.263 5.998-2.622 10.586-7.725 12.285-2.76.919-6.438.707-9.07-.522-1.062-.497-2.002-.832-2.088-.746-.087.086.411.887 1.106 1.78 3.258 4.187 4.401 8.882 3.179 13.053-1.793 6.118-8.57 9.833-15.032 8.241zm95.7-.119c-4.49-1.17-7.702-4.29-8.817-8.564-1.154-4.422-.025-8.507 3.495-12.637 1.352-1.586 1.884-2.54 1.417-2.54-.077 0-.762.377-1.52.838-4.065 2.468-9.406 2.38-13.191-.219-3.976-2.729-5.659-6.747-4.844-11.569.719-4.25 3.345-7.868 6.891-9.493 3.122-1.43 8.093-1.17 11.066.58 2.457 1.446 4.913 4.516 5.78 7.225.199.623.532 1.083.785 1.083.362 0 .405-.268.244-1.516-.64-4.965-2.1-10.342-3.851-14.18-.857-1.876-.963-2.306-.62-2.523.569-.359 12.042-.342 12.717.018.51.273.48.426-.555 2.817-2.081 4.81-3.24 9.014-3.653 13.252-.22 2.252.18 3.095.777 1.643 1.986-4.82 3.526-6.751 6.582-8.252 1.815-.892 2.066-.936 5.242-.936 3.042 0 3.488.07 5.054.802 4.836 2.26 7.348 6.393 7.046 11.593-.316 5.425-2.91 9.08-7.72 10.878-1.327.496-2.124.59-4.374.51-2.376-.082-3.016-.22-4.699-1.016-1.072-.507-2.016-.813-2.098-.68-.082.132.376.872 1.019 1.643 1.521 1.826 3.041 4.868 3.477 6.96 1.116 5.359-1.333 10.715-6.01 13.144-3.283 1.705-6.165 2.046-9.641 1.14zm42.672-20.574c-1.396-.427-2.923-2.295-3.159-3.865-.282-1.874.036-3.144 1.15-4.6l.968-1.266-1.488.566c-2.643 1.005-4.845.344-6.035-1.81-.841-1.523-.625-4.447.442-5.983 1.98-2.85 5.71-2.732 7.641.24.352.542.842 1.245 1.089 1.563.422.543.439.508.27-.578-.097-.635-.556-2.304-1.018-3.707-.462-1.403-.767-2.67-.676-2.816.09-.146 1.463-.265 3.052-.265 3.393 0 3.607.188 2.586 2.269-1.55 3.161-2.467 7.113-.995 4.291 1.257-2.41 3.85-3.358 6.266-2.292 1.872.826 2.681 2.254 2.684 4.737.002 2.237-.514 3.163-2.342 4.206-1.41.804-2.57.82-4.495.064l-1.502-.591.485.663c1.947 2.662 2.303 4.19 1.451 6.23-1.054 2.524-3.722 3.756-6.374 2.945zm-139.1-40.98c-4.96-1.599-7.815-4.756-8.716-9.635-.689-3.727.72-8.037 3.784-11.581 2.175-2.515 2.012-2.747-.87-1.229-1.03.543-2.697 1.147-3.705 1.342-3.673.713-7.993-.734-10.692-3.58-2.628-2.773-3.512-5.51-2.99-9.258.696-4.99 2.999-8.275 7.165-10.222 1.506-.703 2.022-.79 4.746-.79 2.947 0 3.133.039 5.254 1.084 2.892 1.426 5.027 3.686 6.255 6.62.488 1.165.993 2.053 1.124 1.974.365-.222.137-3.015-.501-6.137-.687-3.363-2.048-7.529-3.214-9.835-.465-.92-.768-1.798-.674-1.95.219-.353 13.074-.374 13.292-.021.087.14-.25 1.148-.748 2.238-2.11 4.616-3.624 10.193-3.785 13.941-.107 2.49.414 2.602 1.197.256 1.638-4.912 5.54-7.97 10.535-8.26 5.266-.303 9.727 2.251 12.013 6.88.72 1.458.784 1.871.786 5.055.002 3.294-.043 3.562-.914 5.396-1.754 3.692-4.777 5.97-8.773 6.613-2.33.374-5.252-.064-7.155-1.073-2.045-1.085-2.254-.766-.774 1.182 1.597 2.1 2.5 3.839 3.148 6.067.648 2.22.463 5.733-.422 8.03-.747 1.936-2.97 4.508-4.847 5.605-3.08 1.8-7.322 2.32-10.52 1.289zm96.398.128c-3.567-.982-6.598-3.427-8.007-6.46-2.235-4.812-1.27-10.128 2.682-14.775 2.293-2.696 2.19-2.85-.875-1.308-1.115.56-2.842 1.16-3.837 1.332-4.966.86-10.428-2.028-12.643-6.682-.818-1.719-.89-2.11-.853-4.622.045-3.088.655-5.216 2.17-7.57 4.024-6.258 13.574-6.87 18.766-1.203 1.332 1.454 1.991 2.569 3.041 5.141.34.834.549 1.05.785.813.237-.236.163-1.266-.28-3.879-.728-4.306-1.768-7.974-3.135-11.068-.562-1.27-1.091-2.538-1.176-2.816-.145-.471.297-.506 6.522-.506 3.672 0 6.739.102 6.816.225.076.124-.32 1.262-.88 2.528-2.068 4.67-3.319 9.142-3.726 13.314-.22 2.252.18 3.095.778 1.643 1.205-2.925 2.053-4.495 2.981-5.52 5.625-6.21 16.318-4.58 19.936 3.041.876 1.844.929 2.14.913 5.135-.013 2.608-.136 3.48-.682 4.866-2.477 6.278-9.735 9-16.236 6.09-.965-.432-1.816-.724-1.891-.648-.076.076.466.907 1.205 1.848 6.422 8.173 3.655 18.663-5.554 21.055-2.018.524-4.968.535-6.82.025zm-51.516-37.543c0-.224.397-1.29.883-2.371 1.435-3.191 2.791-7.562 3.31-10.671.487-2.922.507-4.895.047-4.895-.136 0-.547.795-.913 1.768-1.907 5.06-5.553 7.885-10.514 8.146-9.774.514-15.827-8.518-11.764-17.551 2.503-5.565 9.935-8.106 15.65-5.352.812.392 1.626.712 1.81.712.5 0 .4-.426-.235-1-.973-.88-2.869-4.002-3.52-5.801-.891-2.458-.902-6.594-.024-8.798 3.286-8.249 14.554-10.41 20.96-4.018 4.607 4.596 4.525 12.29-.186 17.581-2.231 2.507-2.383 3.536-.315 2.134 2.692-1.825 6.736-2.407 10.039-1.444 4.733 1.38 8.362 5.893 8.362 10.4 0 5.353-2.68 10.043-6.924 12.115-1.798.877-2.092.931-5.093.931-2.98 0-3.311-.06-5.132-.92-2.93-1.384-4.66-3.165-6.214-6.396-.761-1.583-1.412-2.605-1.562-2.455-.729.728 1.56 10.708 3.467 15.115.653 1.51 1.187 2.842 1.188 2.961 0 .12-2.997.217-6.66.217-5.53 0-6.66-.069-6.66-.406zm-47.937-25.4c-.081-.21.255-1.277.748-2.371 2.13-4.738 3.76-10.958 3.76-14.353 0-1.848-.47-1.71-1.236.363-.32.867-1.036 2.262-1.59 3.1-5.804 8.797-20.12 5.618-21.808-4.842-.519-3.213.356-6.964 2.251-9.645 2.986-4.227 9.395-5.747 14.394-3.413 1.086.507 2.024.921 2.086.921.358 0-.047-.757-1.266-2.368-3.468-4.582-4.313-9.808-2.297-14.202 2.342-5.101 8.534-8.034 14.178-6.714 6.131 1.433 9.767 5.852 9.767 11.87 0 3.604-1.21 6.56-4.004 9.771-1.85 2.13-1.572 2.37 1.146.995 2.065-1.045 2.65-1.207 4.755-1.318 5.58-.292 10.482 2.868 12.179 7.848.644 1.891.426 6.046-.437 8.304-1.918 5.02-5.944 7.844-11.177 7.84-5.655-.007-10.143-3.482-12.12-9.387-.283-.85-.766-.563-.766.455 0 3.1 2.124 11.25 3.908 14.996.435.912.714 1.854.622 2.095-.143.371-1.123.436-6.557.436-5.027 0-6.42-.08-6.535-.381zm96.11-.063c-.094-.244.286-1.447.845-2.672 2.003-4.392 3.687-10.836 3.687-14.11 0-1.786-.647-1.629-1.258.306-1.003 3.174-3.78 6.33-6.603 7.508-5.663 2.36-13.004-.228-15.7-5.534-2.437-4.798-1.274-11.317 2.639-14.797 2.39-2.125 4.143-2.735 7.892-2.747 2.842-.009 3.17.053 5.038.935 1.099.52 2.067.874 2.152.79.085-.085-.126-.51-.468-.944-3.573-4.531-4.931-8.709-4.114-12.653 1.833-8.845 12.202-12.721 19.913-7.445 1.841 1.26 2.993 2.658 4.048 4.912.701 1.498.79 2.025.792 4.72.004 4.376-.666 5.91-4.821 11.044-.352.434-.568.86-.481.947.086.087 1.215-.39 2.508-1.061 2.133-1.106 2.587-1.23 4.89-1.338 3.916-.184 6.945 1.031 9.687 3.886 2.533 2.636 3.41 6.443 2.439 10.577-.617 2.622-1.394 4.057-3.251 6-5.746 6.01-15.593 4.26-19.465-3.458-.62-1.235-1.192-2.427-1.273-2.65-.1-.272-.247-.31-.452-.115-.211.2-.145 1.253.218 3.466.72 4.388 1.775 8.174 3.197 11.481.662 1.541 1.122 2.936 1.02 3.1-.116.188-2.5.297-6.546.297-5.458 0-6.386-.064-6.533-.445zm-96.231-61.77c0-.216.408-1.289.907-2.383 2.1-4.609 3.726-10.766 3.726-14.12 0-2.102-.447-1.99-1.285.32-.852 2.347-1.621 3.526-3.355 5.144-2.014 1.88-4.195 2.795-7.103 2.98-8.083.517-14.128-6.038-12.87-13.955.855-5.374 4.527-9.11 9.811-9.98 2.446-.404 4.791-.036 7.159 1.123.85.416 1.63.672 1.733.569.103-.103-.427-1.002-1.177-1.999-2.097-2.782-2.82-4.434-3.341-7.624-.957-5.867 2.964-11.73 8.87-13.264 4.765-1.239 9.71.132 12.953 3.592 2.074 2.213 2.884 4.205 3.03 7.459.19 4.204-.678 6.414-4.229 10.759-.682.835-1.168 1.59-1.08 1.677.088.088 1.102-.322 2.254-.911 2.799-1.432 5.102-1.848 7.647-1.38 3.927.722 7.052 2.908 8.782 6.146.8 1.497.993 2.216 1.102 4.094.43 7.41-4.188 13.176-10.969 13.694-5.68.434-10.65-2.86-12.746-8.448-.327-.873-.716-1.587-.864-1.587-1.11 0 1.037 10.074 3.227 15.138.625 1.445 1.136 2.79 1.137 2.988 0 .279-1.524.361-6.66.361-5.426 0-6.66-.072-6.66-.393zm96.134-.013c0-.223.383-1.26.852-2.302 2.077-4.619 3.78-11.093 3.78-14.37 0-1.928-.462-1.735-1.325.554-1.87 4.962-5.522 7.752-10.57 8.075-3.594.23-6.73-.913-9.388-3.421-3.739-3.528-4.61-9.165-2.206-14.288 2.69-5.736 9.836-8.048 15.822-5.12.864.424 1.655.687 1.756.585.102-.101-.402-.939-1.12-1.862-3.498-4.493-4.47-9.325-2.782-13.825 2.98-7.944 14.135-10.256 20.56-4.26 2.483 2.317 3.733 5.255 3.733 8.775 0 3.446-1.265 6.354-4.499 10.342-.564.696-.958 1.333-.875 1.415.083.082 1.097-.328 2.255-.912 4.085-2.06 7.63-2.05 11.596.028 5.705 2.99 7.59 9.518 4.58 15.865-2.503 5.28-8.02 7.801-13.793 6.301-3.484-.905-6.389-3.35-7.961-6.702-.503-1.072-1-2.122-1.104-2.332-.367-.746-.767-.304-.684.755.32 4.066 2.264 11.407 3.86 14.57 1.366 2.707 1.76 2.535-5.826 2.535-5.53 0-6.66-.068-6.66-.406zm-134.24-12.42c-.086-.222.17-1.046.569-1.83.958-1.886 2.001-5.008 1.75-5.238-.109-.1-.254-.027-.323.164-.271.757-1.432 2.232-2.206 2.804-.61.452-1.246.604-2.512.604-1.9 0-2.863-.523-3.982-2.163-.522-.765-.651-1.356-.651-2.973 0-1.99.016-2.033 1.24-3.254 1.625-1.621 2.906-1.889 5.202-1.087 1.657.578 2.08.502 1.21-.217-1.417-1.174-2.042-4.593-1.152-6.31 1.047-2.02 3.365-3.204 5.421-2.77 2.559.541 4.005 2.446 4.005 5.276 0 1.514-.131 1.923-1.03 3.226l-1.028 1.493.853-.44c.47-.243 1.376-.524 2.013-.626 5.19-.828 7.224 6.553 2.66 9.648-.818.554-1.285.66-2.482.564-1.863-.149-3.05-.973-4.205-2.92l-.883-1.49.18 1.532c.1.843.502 2.419.893 3.502 1.098 3.035 1.199 2.91-2.337 2.91-2.346 0-3.086-.094-3.205-.405zm-.19-25.718c-2.165-.771-4.43-3.11-4.622-4.774-.06-.518.114-.802.642-1.052 1.74-.825 1.954-.791 2.768.435 2.075 3.128 6.653 3.046 8.78-.158.79-1.19 1.906-4.855 1.619-5.318-.067-.107-.874.188-1.794.656-1.546.786-1.86.842-4.134.734-2.928-.14-4.35-.762-5.917-2.588-1.587-1.85-2.32-4.52-2.323-8.466-.002-2.813.083-3.36.742-4.767 1.008-2.148 1.948-3.19 3.782-4.192 1.382-.754 1.818-.843 4.15-.844 2.13-.001 2.856.12 3.975.662 2.088 1.012 3.864 3.17 4.641 5.635.591 1.874.647 2.6.619 7.983-.027 5.025-.123 6.257-.633 8.133-1.579 5.807-4.474 8.356-9.45 8.32-.967-.007-2.247-.186-2.844-.4zm7.092-13.948c.678-.49 1.538-1.457 1.912-2.148.59-1.095.66-1.54.538-3.443-.322-5.011-3.107-7.946-6.99-7.365-2.725.408-4.316 2.928-4.287 6.792.023 3.102 1.432 5.963 3.366 6.837 1.519.686 4.004.38 5.46-.673z" fill="#909090"/><path d="M0 157.44V0h217.76v314.88H0V157.44zm212.14 156.22c1.848-.972 3.687-3.022 4.286-4.775.413-1.209.456-15.592.456-151.45V7.315L216 5.553c-.99-1.977-2.365-3.322-4.315-4.222l-1.318-.608h-101.35c-99.198 0-101.38.011-102.79.554C4.336 2.004 2.25 3.985 1.4 5.86L.717 7.367.64 156.857c-.053 103.83.016 149.93.228 150.93.608 2.866 2.79 5.294 5.638 6.279 1.367.472 7.273.497 102.8.437l101.35-.063 1.484-.781zm-18.769-22.01c-.748-.202-1.595-.544-1.882-.76-3.62-2.733-4.421-5.067-4.428-12.894-.006-7.29.9-11.165 3.226-13.802 1.896-2.149 3.046-2.612 6.492-2.615 2.743-.002 3.002.05 4.343.873 1.563.959 3.387 3.36 3.25 4.277-.056.37-.492.712-1.244.975-1.134.395-1.171.387-1.738-.391-1.527-2.096-3.286-2.92-5.49-2.573-1.89.297-3.18 1.348-4.177 3.397-.86 1.769-1.549 5.04-1.013 4.816.145-.06 1.003-.48 1.907-.93 3.22-1.605 7.494-.883 9.652 1.632 1.801 2.1 2.281 3.838 2.295 8.307.01 3.802-.015 3.97-.863 5.625-1.876 3.661-5.912 5.249-10.33 4.062zm4.738-3.072c4.117-1.14 4.998-9.522 1.355-12.899-2.337-2.168-6.29-1.464-8.28 1.474-.849 1.251-.942 1.597-.942 3.49 0 5.718 3.42 9.168 7.867 7.935zm-140.34-11.29c-3.082-.499-5.972-1.981-7.708-3.954-.506-.575-1.319-1.896-1.807-2.936-.735-1.566-.907-2.34-1-4.492-.172-3.947.872-6.537 4.285-10.64 1.795-2.158 1.499-2.487-.974-1.084-3.765 2.137-7.653 2.299-11.355.473-4.006-1.975-6.195-5.079-6.43-9.119-.509-8.785 6.672-15.212 14.709-13.164 3.903.995 6.558 3.298 8.437 7.32.612 1.31 1.245 2.383 1.405 2.383 1.231 0-1.109-10.78-3.49-16.071-.467-1.042-.85-2.011-.85-2.155 0-.15 2.824-.262 6.548-.262h6.55l-.158.65c-.087.357-.76 2.107-1.495 3.887-1.665 4.03-2.72 8.113-2.957 11.45-.167 2.35-.14 2.552.33 2.458.328-.065.743-.735 1.15-1.857.875-2.414 1.663-3.6 3.51-5.285 4.497-4.1 11.989-3.76 16.509.748 5.468 5.455 3.725 15.868-3.2 19.116-3.232 1.516-7.013 1.533-10.197.046-2.934-1.369-3.054-1.195-1.024 1.487 4.573 6.04 4.619 12.755.12 17.361-1.65 1.69-3.17 2.608-5.266 3.183-2.167.594-3.92.737-5.643.458zm96.265-.004c-4.905-.674-8.994-3.94-10.283-8.211-.601-1.992-.537-5.76.13-7.697.803-2.326 1.258-3.096 3.201-5.417.965-1.151 1.754-2.212 1.754-2.356 0-.487-.852-.268-2.24.577-4.637 2.822-10.622 2.111-14.58-1.732-2.04-1.982-2.94-3.952-3.097-6.775-.39-7.053 3.542-12.414 9.902-13.5 5.21-.89 10.647 2.027 12.903 6.924 1.227 2.662 1.296 2.78 1.74 2.927.31.103.347-.284.192-1.958-.397-4.254-2.234-11.066-3.839-14.232-1.203-2.373-1.525-2.248 5.825-2.248 3.583 0 6.515.103 6.515.23 0 .126-.647 1.792-1.436 3.701-1.815 4.387-2.882 8.467-3.106 11.885-.152 2.31-.115 2.672.278 2.672.27 0 .598-.44.806-1.083 1.112-3.424 3.348-6.347 5.82-7.607 7.382-3.766 16.372.55 17.651 8.473.668 4.136-.952 8.896-3.862 11.351-.522.441-1.797 1.204-2.832 1.695-1.714.813-2.14.893-4.778.893-2.666 0-3.053-.075-4.882-.94-3.015-1.424-3.206-1.217-1.229 1.325 4.532 5.827 4.665 12.716.336 17.333-2.681 2.86-6.894 4.319-10.889 3.77zm40.326-21.247c-2.233-1.098-3.212-4.446-2.015-6.886.156-.318.683-.998 1.17-1.512.488-.514.81-1.01.717-1.104-.093-.093-.727.116-1.41.463-1.596.812-3.792.846-4.854.075-1.058-.768-2.07-2.862-2.062-4.266.018-3.284 2.904-5.84 5.734-5.08 1.271.341 2.87 1.9 3.496 3.41.214.515.522.937.684.937.457 0 .054-2.554-.781-4.953-.407-1.168-.773-2.255-.814-2.414-.044-.175 1.16-.32 3.076-.37 3.629-.096 3.442-.43 1.817 3.26-1.641 3.724-1.786 6.123-.189 3.11.983-1.853 2.276-2.678 4.2-2.678 2.881 0 4.486 1.846 4.487 5.162 0 1.744-.057 1.896-1.096 2.933-1.802 1.798-3.623 2.016-6.114.73-1.17-.602-1.488-.375-.688.493 1.27 1.377 1.815 2.64 1.816 4.202.001 1.812-.466 2.824-1.876 4.059-.908.796-1.245.909-2.693.903-.927-.004-2.073-.212-2.605-.474zm-137.67-40.41c-6.199-1.499-9.74-6.205-9.437-12.539.103-2.135.272-2.816 1.157-4.65.57-1.182 1.642-2.846 2.382-3.697 1.47-1.695 2.044-2.604 1.796-2.85-.088-.089-1.266.399-2.617 1.082-2.13 1.078-2.764 1.26-4.761 1.376-6.907.4-12.488-4.54-12.488-11.052 0-6.502 4.03-11.552 10.062-12.608 5.06-.886 10.557 2.066 12.819 6.886 1.307 2.785 1.303 2.78 1.68 2.904 1.388.462-1.269-11.585-3.543-16.062-1.27-2.502-1.615-2.36 5.766-2.36 5.222 0 6.515.076 6.515.383 0 .211-.507 1.552-1.128 2.98-2.05 4.714-3.505 10.484-3.505 13.897 0 1.87.77 1.54 1.571-.672.838-2.31 1.634-3.555 3.183-4.98 4.627-4.255 11.843-4.16 16.48.215 3.746 3.534 4.663 9.018 2.363 14.13-.973 2.164-3.231 4.384-5.57 5.478-1.493.698-1.997.779-4.851.779-3.02 0-3.282-.049-5.041-.939-2.876-1.455-3.026-1.23-.966 1.455 6.439 8.392 3.46 18.615-6.077 20.859-2.202.518-3.606.514-5.79-.014zm96.094-.009c-3.784-.914-7.02-3.46-8.515-6.7-.598-1.297-.788-2.224-.882-4.306-.193-4.26.646-6.399 4.232-10.787.685-.838 1.135-1.634 1-1.768-.134-.134-1.327.308-2.651.983-2.385 1.216-2.434 1.226-5.488 1.226-2.868 0-3.218-.064-5.043-.926-2.344-1.108-4.719-3.37-5.698-5.429-.834-1.755-1.113-5.301-.608-7.73 1.034-4.968 4.765-8.62 9.678-9.473 5.647-.98 11.37 2.498 13.514 8.217.694 1.85 1.435 2.184 1.435.647 0-2.883-1.581-9.427-3.255-13.471-.624-1.51-1.205-3.037-1.29-3.395l-.156-.65h6.414c4.986 0 6.445.084 6.557.375.08.206-.3 1.343-.844 2.528-2.102 4.581-3.662 10.557-3.662 14.028 0 1.302.085 1.582.456 1.506.251-.052.675-.742.946-1.542 1.171-3.461 3.928-6.517 6.924-7.676 2.264-.877 6.157-.89 8.536-.031 5.617 2.028 8.67 7.177 7.771 13.105-.44 2.904-1.688 5.342-3.647 7.129-2.326 2.12-4.178 2.767-7.961 2.778-2.862.009-3.163-.048-4.959-.93-1.051-.516-1.993-.939-2.093-.939-.446 0-.094.825.863 2.022 2.111 2.644 3.083 4.79 3.584 7.915.998 6.231-3.258 12.075-9.782 13.432-1.956.407-3.255.373-5.377-.14zm-51.842-37.339c-.083-.134.423-1.596 1.124-3.25.7-1.653 1.616-4.176 2.033-5.606.803-2.748 1.665-8.286 1.399-8.978-.34-.885-.945-.328-1.522 1.401-1.496 4.486-4.709 7.287-9.248 8.063-5.174.885-10.597-1.796-12.844-6.349-.915-1.853-.95-2.055-.95-5.412 0-3.447.012-3.513 1.084-5.677 1.277-2.578 2.725-3.994 5.323-5.207 3.338-1.558 7.634-1.389 10.897.43 1.712.953 1.867.309.366-1.517-2.66-3.235-3.78-6.555-3.569-10.571.159-3.02 1.282-5.472 3.422-7.47 7.316-6.826 19.462-2.992 21.164 6.68.643 3.653-.785 7.969-3.789 11.448-2.158 2.5-1.961 3.16.496 1.665 6.918-4.21 16.262-.292 17.731 7.435.428 2.253-.094 5.51-1.292 8.06-4.416 9.396-17.518 8.686-21.867-1.186-1.272-2.889-1.895-2.987-1.615-.254.442 4.307 2.05 10.296 3.788 14.1.53 1.158.887 2.181.796 2.273-.267.266-12.761.191-12.927-.077zm-48.025-25.63c-.094-.093.22-1.036.696-2.094 2.217-4.929 3.644-10.221 3.789-14.058.102-2.695-.517-2.781-1.439-.201-1.745 4.886-5.431 7.766-10.327 8.071-5.226.325-9.926-2.329-11.956-6.751-.885-1.93-1.206-5.54-.7-7.89 1.578-7.342 9.48-11.277 16.24-8.087 1.762.832 2.611 1.042 2.611.648 0-.109-.568-.921-1.263-1.805-5.239-6.664-4.786-14.678 1.074-18.988 4.863-3.578 12.014-3.154 16.437.973 1.716 1.601 2.721 3.269 3.295 5.465 1.142 4.374 0 8.478-3.507 12.591-1.477 1.734-1.884 2.54-1.282 2.54.152 0 1.161-.46 2.244-1.024 4.942-2.574 10.334-1.782 14.216 2.086 2.68 2.67 3.64 5.857 2.967 9.84-1.073 6.348-5.723 10.475-11.802 10.475-2.022 0-4.704-.774-6.403-1.85-2.312-1.46-4.588-4.588-5.663-7.779-.098-.291-.341-.472-.54-.402-1.174.412 1.217 11.268 3.583 16.27.458.968.833 1.846.833 1.95 0 .234-12.87.253-13.103.019zm96.069-.11c-.095-.153.105-.822.445-1.487 1.043-2.04 2.497-6.052 3.129-8.633.703-2.874 1.253-7.03 1.013-7.653-.255-.665-.662-.521-1.016.359-.176.437-.76 1.725-1.3 2.862-1.822 3.845-5.163 6.076-9.559 6.382-5.1.355-9.865-2.365-11.907-6.798-1.02-2.217-1.235-5.922-.499-8.634 1.91-7.035 9.81-10.47 16.42-7.139 1.285.648 2.254.879 2.254.537 0-.083-.714-1.086-1.587-2.23-.873-1.142-1.942-2.927-2.375-3.964-.69-1.654-.79-2.28-.802-5.065-.013-2.968.045-3.301.88-5.055 1.148-2.407 2.17-3.596 4.233-4.927 4.474-2.885 10.892-2.617 15.005.627 3 2.365 4.408 5.286 4.442 9.21.034 3.902-1.031 6.454-4.207 10.08-1.075 1.226-1.41 2.053-.832 2.053.154 0 1.099-.447 2.1-.994 2.491-1.36 5.109-1.82 7.681-1.347 4.777.879 8.411 4.078 9.501 8.365.825 3.241-.178 7.874-2.338 10.802-3.677 4.985-11.336 6.03-16.396 2.236-2.03-1.521-3.16-2.994-4.32-5.625-1.597-3.627-2.073-2.725-1.2 2.274.764 4.376 1.8 7.973 3.228 11.213.61 1.382 1.036 2.585.949 2.672-.289.288-12.761.172-12.942-.12zM52.87 91.03c-.087-.14.295-1.234.848-2.43 2.087-4.505 3.559-9.988 3.696-13.77.055-1.494-.022-1.886-.382-1.96-.321-.066-.592.355-.943 1.464-1.906 6.034-7.652 9.452-13.744 8.177-3.96-.829-6.956-3.11-8.583-6.534-.833-1.755-.891-2.089-.876-5.057.019-3.631.57-5.481 2.316-7.761 3.129-4.088 9.211-5.405 14.249-3.085 2.236 1.03 2.76 1.017 1.984-.05-3.449-4.735-4.218-6.452-4.444-9.918-.425-6.518 3.869-11.64 10.57-12.61 5.657-.818 11.485 2.422 13.363 7.43 1.767 4.711.78 9.39-2.908 13.783-1.581 1.883-2.063 2.823-1.447 2.823.14 0 .992-.443 1.894-.985.902-.542 2.299-1.143 3.104-1.336 2.006-.48 5.513-.213 7.58.577 2.355.9 5.06 3.47 6.163 5.854.752 1.624.836 2.097.804 4.556-.026 2.008-.202 3.21-.658 4.478-2.043 5.692-7.199 8.855-12.94 7.94-4.587-.73-7.935-3.467-9.747-7.964-.88-2.184-1.552-2.307-1.45-.265.185 3.674 1.936 10.386 3.72 14.26.538 1.17.908 2.243.82 2.383-.086.14-3.009.256-6.494.256s-6.407-.115-6.494-.256zm96.13-.006c-.088-.144.221-1.111.689-2.15 1.99-4.429 3.26-8.791 3.78-13 .236-1.911.232-2.657-.018-2.958-.497-.597-.74-.301-1.419 1.736-2.35 7.047-9.834 10.077-16.787 6.797-2.182-1.03-4.32-3.158-5.422-5.397-.76-1.547-.82-1.912-.82-5.132 0-3.278.05-3.57.9-5.358.493-1.04 1.311-2.362 1.817-2.936 3.207-3.644 9.131-4.756 13.78-2.586 2.341 1.093 2.926.874 1.622-.608-3.855-4.38-5.158-10.622-3.134-15.018 2.251-4.889 7.927-7.83 13.33-6.906 4.132.707 7.742 3.226 9.284 6.478 2.306 4.863 1.436 9.964-2.518 14.765-1.395 1.694-1.987 2.78-1.515 2.78.067 0 1.187-.553 2.489-1.228 2.352-1.22 2.387-1.228 5.453-1.228 2.867 0 3.223.065 5.032.92 3.67 1.735 6.299 5.095 6.739 8.613.45 3.603-1.162 8.276-3.717 10.778-6.632 6.493-17.118 3.347-20.273-6.083-.093-.278-.386-.506-.652-.506-.417 0-.458.228-.295 1.661.555 4.889 2.29 11.238 3.988 14.6.465.92.768 1.798.674 1.95-.22.357-12.786.372-13.006.016zM15.06 78.583c-.35-.22-.368-.42-.096-1.079 1.655-4.012 2.14-5.45 2.058-6.107-.086-.703-.159-.643-.875.72-1.012 1.93-2.246 2.703-4.31 2.701-2.068 0-3.296-.757-4.071-2.504-.748-1.686-.625-3.94.283-5.213 1.27-1.78 4.133-2.35 6.215-1.237 1.6.856 1.815.71.813-.552-1.118-1.409-1.758-2.905-1.758-4.114 0-1.424 1.085-3.366 2.347-4.199.967-.638 1.354-.72 2.864-.612 2.1.152 3.074.775 3.983 2.55 1.092 2.133.776 4.268-.933 6.29-.442.523-.746 1.008-.676 1.078.07.07.636-.13 1.256-.445 1.391-.708 3.652-.752 4.77-.094 2.048 1.207 2.703 4.816 1.306 7.195-.746 1.27-2.599 2.436-3.87 2.436-1.702 0-3.71-1.615-4.58-3.683-.389-.928-.969-1.277-.96-.578.009.791.91 4.205 1.493 5.66.52 1.297.554 1.586.212 1.802-.541.342-4.924.33-5.47-.015zm-.32-25.86c-2.245-.721-4.895-3.515-4.895-5.163 0-.277.457-.587 1.188-.805l1.188-.355 1.04 1.248c1.215 1.46 2.424 2.039 4.257 2.039 1.793 0 3.05-.579 4.157-1.914 1.307-1.577 2.66-6.175 1.816-6.175-.14 0-.859.338-1.599.75-1.799 1.003-4.165 1.21-6.422.56-1.369-.393-2.016-.8-3.198-2.011-2.137-2.19-2.572-3.634-2.572-8.543 0-3.68.044-3.983.783-5.38.997-1.886 3.037-3.683 4.712-4.15 1.744-.488 5.788-.26 7.044.395 2.42 1.264 4.04 3.7 4.706 7.077.5 2.535.198 12.635-.444 14.898-.586 2.06-1.583 4.086-2.61 5.304-1.746 2.07-6.232 3.161-9.15 2.225zm6.278-13.368c.93-.504 2.69-2.567 2.9-3.402.103-.411.13-1.75.058-2.974-.163-2.812-1.15-5.103-2.708-6.29-.988-.751-1.32-.835-3.293-.835-1.814 0-2.353.113-3.11.652-3.38 2.406-3.062 10.222.519 12.724 1.241.868 4.143.932 5.634.126z" fill="#6e6e6e"/><path d="M0 157.44V0h217.76v314.88H0V157.44zm212.5 156.15c1.72-.95 2.892-2.217 3.877-4.19l.653-1.308V7.372l-.759-1.615c-.974-2.073-2.852-3.866-4.818-4.6-1.538-.573-2.168-.577-103.1-.503L6.803.728l-1.448.768C3.48 2.492 2.24 3.81 1.322 5.783L.583 7.372.58 157.462c-.002 139.66.031 150.19.483 151.52.676 1.983 3.266 4.548 5.188 5.138 1.257.386 13.145.43 103.06.383l101.64-.053 1.551-.857zm-19.47-22.12c-.457-.136-1.313-.582-1.903-.99-2.926-2.023-4.043-5.415-4.062-12.34-.024-8.775 1.734-13.703 5.589-15.67 1.464-.747 1.994-.857 4.192-.872 1.923-.013 2.755.11 3.53.52 1.423.756 2.845 2.156 3.524 3.472.67 1.295.42 1.775-1.073 2.073-.765.153-.988.027-1.844-1.035-.536-.665-1.409-1.39-1.94-1.612-1.226-.51-3.335-.517-4.545-.012-1.9.792-3.59 3.594-4.076 6.76-.23 1.498.033 1.554 2.026.433 1.236-.695 1.72-.794 3.873-.791 2.78.004 4.086.511 5.687 2.21 1.222 1.296 1.804 2.519 2.292 4.816.587 2.764.523 5.428-.186 7.717-.487 1.572-.895 2.24-2.099 3.434-.944.936-1.934 1.612-2.687 1.834-1.346.397-5.044.428-6.298.053zm6.395-3.337c.443-.32 1.164-1.283 1.602-2.137.687-1.341.796-1.895.796-4.056 0-2.218-.102-2.704-.895-4.288-1.193-2.383-2.408-3.217-4.683-3.217-2.134 0-3.276.482-4.594 1.94-1.405 1.553-1.817 2.896-1.585 5.159.348 3.386 1.56 5.67 3.592 6.771 1.44.78 4.582.686 5.767-.172zm-142.78-11.11c-2.158-.54-4.7-1.973-6.044-3.406-4.63-4.939-4.429-11.841.515-17.654.872-1.026 1.585-2.098 1.585-2.384 0-.285-.054-.519-.12-.519-.068 0-1.143.525-2.39 1.167-4.02 2.068-7.615 2.092-11.46.076-2.296-1.204-4.029-3.003-5.09-5.287-1.52-3.273-.77-8.785 1.658-12.168 2.329-3.244 5.595-4.732 9.95-4.533 2.257.104 2.972.265 4.578 1.036 2.61 1.252 4.624 3.43 6.078 6.57 1.76 3.801 2.37 3.215 1.594-1.535-.72-4.413-1.756-8.16-3.185-11.529-.688-1.622-1.18-3.019-1.094-3.105.268-.268 12.468-.172 12.636.099.087.14-.283 1.213-.822 2.383-1.938 4.206-3.206 8.81-3.771 13.697-.12 1.036-.048 1.621.248 2.022.512.691.832.41 1.33-1.17 1.49-4.73 4.869-7.757 9.478-8.49 5.1-.812 10.667 2.047 12.746 6.545 1.006 2.175 1.245 6.29.512 8.802-2.026 6.94-9.458 10.067-16.316 6.866-2.568-1.199-2.87-.813-1.112 1.419.748.95 1.831 2.717 2.408 3.928.906 1.905 1.067 2.564 1.188 4.885.118 2.236.037 2.993-.483 4.53-1.136 3.364-3.565 5.872-6.979 7.207-1.818.71-5.839 1-7.64.548zm95.696-.154c-3.618-.97-6.944-3.816-8.148-6.971-1.78-4.666-.696-9.632 3.044-13.941 1.479-1.704 2.016-2.897 1.303-2.897-.162 0-.837.342-1.5.759-6.089 3.835-14.003 1.8-17.056-4.386-2.779-5.632.034-13.577 5.753-16.251 1.501-.702 1.982-.777 4.99-.777 3.096 0 3.453.06 5.068.848 2.417 1.178 4.746 3.58 5.901 6.086 1.23 2.667 1.327 2.836 1.685 2.956.643.213.662-1.006.07-4.501-.743-4.393-1.702-7.8-3.062-10.877-.562-1.271-1.043-2.506-1.07-2.745-.042-.37.828-.444 6.024-.511 3.34-.043 6.24-.015 6.443.063.277.106.18.563-.386 1.812-2.104 4.647-3.365 8.947-3.875 13.206-.258 2.158-.256 2.892.012 3.213.568.684.782.498 1.435-1.244 1.471-3.93 3.32-6.15 6.225-7.477 4.115-1.88 8.884-1.298 12.76 1.555 1.532 1.127 3.129 3.55 3.754 5.698.653 2.24.457 5.975-.437 8.322-.881 2.316-3.226 4.795-5.5 5.812-3.607 1.616-6.75 1.577-10.4-.126-2.16-1.008-2.88-.806-1.835.514 1.55 1.96 2.974 4.257 3.583 5.783.538 1.348.663 2.221.67 4.69.01 2.818-.055 3.17-.91 4.969-2.49 5.244-8.7 7.985-14.541 6.418zm42.39-20.75c-3.131-1.388-3.696-5.495-1.166-8.487.442-.523.72-1.035.616-1.138-.103-.103-.774.098-1.491.445-3.49 1.692-6.543-.218-6.543-4.093 0-2.796 1.623-4.794 4.084-5.03 1.921-.184 3.39.739 4.547 2.857 1.579 2.89 1.818.77.395-3.5-.45-1.351-.758-2.554-.685-2.673.072-.12 1.377-.217 2.9-.217 3.233 0 3.124-.287 1.425 3.756-1.549 3.684-1.349 6.001.238 2.764 2.184-4.452 8.05-3.245 8.464 1.741.175 2.114-.46 3.434-2.1 4.373-1.47.84-2.792.818-4.723-.079-.862-.4-1.688-.687-1.836-.638-.148.05.264.733.915 1.52 1.412 1.704 1.886 2.982 1.678 4.528-.435 3.234-3.792 5.169-6.718 3.871zm-138.59-40.75c-3.49-.96-6.925-3.941-8.075-7.01-1.742-4.644-.74-9.217 3.02-13.793 2.502-3.046 2.174-3.441-1.346-1.624-2.57 1.326-4.752 1.698-7.248 1.235-3.855-.715-7.054-3.055-8.68-6.351-.86-1.742-.947-2.16-.923-4.387.015-1.353.19-3.046.388-3.76.987-3.55 3.463-6.594 6.504-7.997 1.586-.73 2.082-.815 4.823-.815 2.95 0 3.132.038 5.262 1.088 2.6 1.282 4.524 3.232 5.77 5.846.453.953.825 1.88.825 2.059 0 .571.855 1.103 1.207.752.394-.393-.069-3.864-1.087-8.15-.808-3.4-1.774-6.225-2.86-8.364-.404-.794-.734-1.514-.734-1.598 0-.085 2.945-.154 6.546-.154 5.132 0 6.51.078 6.38.36-1.185 2.593-2.92 7.286-3.496 9.461-.779 2.937-1.407 7.533-1.13 8.255.352.913 1.095.237 1.715-1.56.746-2.161 2.384-4.633 3.767-5.686 5.353-4.072 13.62-2.87 17.28 2.512 1.62 2.38 2.049 4.083 1.885 7.471-.124 2.583-.246 3.093-1.204 5.025-1.2 2.421-2.68 3.89-5.017 4.978-3.439 1.6-7.103 1.544-10.582-.163-2.67-1.309-2.879-.947-.91 1.578 2.728 3.501 3.759 6.542 3.534 10.424-.288 4.954-3.332 8.675-8.38 10.242-2.02.627-5.21.683-7.234.126zm96.165.005c-5.156-1.433-8.548-5.424-8.893-10.462-.27-3.948.921-7.141 3.957-10.602 2.325-2.65 1.887-3.195-1.208-1.505-4.66 2.546-10.042 1.831-13.946-1.852-2.729-2.575-3.783-5.976-3.102-10.007.705-4.174 3.107-7.496 6.622-9.157 1.804-.853 2.17-.92 4.987-.92 2.826 0 3.18.065 5.014.932 2.433 1.15 4.668 3.359 5.793 5.726 1.41 2.97 1.492 3.114 1.826 3.224.664.22.689-.964.094-4.477-.73-4.308-1.92-8.434-3.31-11.48-.56-1.227-1.02-2.28-1.02-2.34 0-.059 2.882-.108 6.405-.108h6.404l-.152.65c-.084.358-.687 1.91-1.34 3.452-1.927 4.547-3.598 12.13-3.05 13.85.307.969 1.065.463 1.583-1.056 1.246-3.66 3.264-6.093 6.227-7.507 3.235-1.543 8.073-1.29 11.283.592 1.798 1.053 3.804 3.276 4.68 5.185 1.45 3.163 1.249 7.747-.492 11.151-.79 1.545-2.95 3.577-4.724 4.443-3.399 1.658-7.074 1.621-10.781-.11-1.93-.9-2.547-.777-1.728.345 3.786 5.182 4.32 6.487 4.345 10.603.016 2.813-.048 3.171-.881 4.925-1.574 3.314-3.836 5.28-7.3 6.348-2.115.652-5.27.72-7.293.157zm-51.113-37.148c-.101-.163.423-1.793 1.164-3.621 1.645-4.055 2.34-6.404 2.9-9.804.508-3.096.544-4.661.112-4.928-.456-.28-.962.384-1.554 2.04-1.157 3.236-3.32 5.69-6.202 7.038-1.449.678-1.976.761-4.812.761-4.011 0-5.742-.616-8.258-2.94-3.976-3.672-4.893-9.435-2.312-14.535 2.616-5.17 9.56-7.422 15-4.864 2.378 1.118 2.388 1.12 2.547.706.083-.215-.53-1.285-1.36-2.378-4.074-5.36-4.535-11.148-1.265-15.884 2.765-4.006 8.23-5.9 13.255-4.593 5.408 1.405 8.816 5.355 9.119 10.569.226 3.904-.907 6.98-3.823 10.377-.887 1.033-1.614 2.032-1.616 2.222-.01.734.651.678 1.973-.168 4.761-3.048 10.515-2.485 14.672 1.437 2.099 1.98 3.09 4.024 3.265 6.722.35 5.46-2.38 10.479-6.833 12.562-1.467.686-1.985.768-4.829.768-2.981 0-3.31-.059-5.137-.922-2.703-1.278-4.574-3.227-6.09-6.348-1.47-3.022-1.948-3.339-1.948-1.29 0 3.27 1.892 10.753 3.782 14.955.468 1.041.779 2.011.69 2.155-.231.373-12.207.339-12.44-.036zm-48.053-25.68c-.091-.147.282-1.284.83-2.528 2.784-6.321 4.606-15.263 3.22-15.794-.514-.196-.537-.161-1.338 1.998-2.265 6.104-7.7 9.198-13.701 7.8-2.706-.63-4.553-1.692-6.397-3.679-2.162-2.33-2.85-4.208-2.843-7.751.007-3.124.588-5.148 2.111-7.357 2.904-4.21 9.334-5.74 14.3-3.4 1.093.514 2.103.935 2.244.935.573 0 .192-.966-.943-2.391-2.719-3.417-4.071-7.819-3.464-11.272.452-2.567 1.804-5.121 3.532-6.671 7.353-6.596 19.46-2.631 20.786 6.807.557 3.974-.75 7.86-3.865 11.49-.88 1.026-1.6 1.961-1.6 2.078 0 .603.747.425 2.897-.69l2.37-1.23h3.23c3.057 0 3.334.051 5.154.94 2.46 1.2 4.876 3.73 5.725 5.995.713 1.9.807 5.282.21 7.51-1.639 6.11-7.196 9.852-13.106 8.825-4.354-.756-7.45-3.186-9.386-7.369-.76-1.642-1.303-2.468-1.622-2.468-1.329 0 1.125 11.265 3.551 16.303.378.785.687 1.597.687 1.806 0 .301-1.276.38-6.208.38-3.487 0-6.281-.118-6.374-.268zm95.977-.094c0-.199.506-1.531 1.124-2.961 1.514-3.505 2.483-6.673 3.043-9.945.57-3.331.588-4.76.07-5.19-.523-.431-.835-.029-1.458 1.877-2.273 6.954-9.664 10.013-16.484 6.822-6.017-2.815-8.257-10.028-5.107-16.442 1.02-2.076 2.79-3.761 5.166-4.916 1.47-.715 1.938-.792 4.814-.798 3-.006 3.3.048 5.172.932 1.093.517 2.103.94 2.244.94.559 0 .197-.844-1.05-2.447-4.744-6.094-4.723-13.29.052-17.796 6.05-5.707 16.386-3.897 19.885 3.482.721 1.52.91 2.341 1.008 4.362.193 4.029-.682 6.357-3.827 10.183-1.52 1.848-1.978 2.792-1.356 2.792.146 0 1.316-.545 2.6-1.21 2.122-1.1 2.57-1.222 4.914-1.334 2.917-.14 4.786.314 6.987 1.696 3.243 2.035 4.962 4.872 5.151 8.503.206 3.953-.918 7.163-3.44 9.824-1.7 1.792-3.867 2.907-6.536 3.363-5.067.865-10.369-2.026-12.65-6.897-1.27-2.713-1.476-3.072-1.78-3.092-1.376-.094.863 10.746 3.36 16.262.457 1.01.76 1.953.673 2.094-.087.141-2.952.256-6.367.256-4.774 0-6.208-.083-6.208-.36zM53.08 90.482c.089-.278.762-1.963 1.495-3.744.733-1.78 1.656-4.509 2.051-6.062.852-3.35 1.248-7.696.73-8.015-.502-.31-1.12.324-1.343 1.375-.342 1.615-1.903 4.193-3.365 5.557-2.046 1.91-4.197 2.81-7.073 2.961-4.921.26-9.244-1.998-11.34-5.92-2.43-4.55-1.684-10.489 1.783-14.186 3.228-3.443 8.73-4.434 13.154-2.369 2.952 1.379 3.387 1.066 1.61-1.157-3.902-4.886-4.806-10.254-2.511-14.928 3.61-7.355 14.606-8.734 20.32-2.548 3.857 4.174 4.003 11.294.326 15.887-2.22 2.773-2.902 3.7-2.902 3.943 0 .474.86.236 2.81-.78 6.157-3.206 13.223-1.053 16.188 4.933 1.056 2.13 1.058 2.145.913 5.109-.165 3.384-.788 5.338-2.398 7.52-2.853 3.868-8.258 5.527-12.912 3.963-3.957-1.33-6.251-3.7-8.195-8.464-.527-1.294-1.143-1.278-1.274.033-.24 2.413 1.88 10.937 3.743 15.054.46 1.015.835 1.957.835 2.094 0 .137-2.882.25-6.404.25-5.968 0-6.393-.035-6.242-.506zm96.04.317c0-.104.639-1.761 1.42-3.683 1.827-4.5 2.959-9.03 3.02-12.09.04-1.96-.031-2.38-.415-2.458-.337-.068-.642.402-1.117 1.724-1.299 3.617-3.363 6.023-6.347 7.4-1.437.663-2.006.753-4.829.763-3.125.01-3.251-.015-5.402-1.075-3.915-1.93-6.112-5.086-6.511-9.352-.361-3.86 1.008-7.562 3.724-10.07 2.335-2.157 4.23-2.856 7.77-2.866 2.503-.007 2.93.075 4.738.922 3.203 1.5 3.54 1.198 1.527-1.363-3.47-4.415-4.476-9.24-2.826-13.57.85-2.231 1.977-3.714 3.9-5.128 5.429-3.994 13.61-2.897 17.634 2.364 2.567 3.357 2.978 8.51 1.004 12.596-.567 1.173-1.757 2.968-2.645 3.989-2.368 2.722-2.083 3.371.779 1.776 4.383-2.442 8.64-2.278 12.898.499 1.865 1.216 3.3 3.029 4.129 5.213.52 1.37.596 2.052.479 4.233-.402 7.454-5.46 12.356-12.3 11.919-5.048-.322-8.801-3.091-10.771-7.945-.51-1.256-.98-1.989-1.317-2.055-.482-.093-.51.083-.347 2.182.322 4.168 2.13 10.909 3.816 14.229.402.791.73 1.573.73 1.737 0 .196-2.18.298-6.37.298-3.504 0-6.37-.085-6.37-.188zM14.77 78.319c0-.137.437-1.21.971-2.383 1.26-2.772 1.817-4.813 1.42-5.21-.207-.206-.558.174-1.128 1.221-1.162 2.131-2.063 2.72-4.159 2.72-2.85 0-4.356-1.631-4.4-4.768-.028-1.917.377-2.742 1.906-3.88 1.14-.849 3.385-.803 5.17.106.756.384 1.457.615 1.56.514.101-.102-.221-.646-.717-1.21-2.454-2.788-2.581-5.487-.364-7.699 1.715-1.71 4.315-1.859 6.113-.35 2.388 2.005 2.554 5.229.393 7.616-1.333 1.472-1.043 1.901.67.992 2.501-1.326 4.95-.688 6.102 1.591.358.709.651 1.819.651 2.466 0 1.55-1.059 3.59-2.287 4.403-1.337.887-3.406.891-4.55.01-1.084-.835-1.417-1.264-2.131-2.752-1.301-2.708-1.583-.63-.426 3.145 1.28 4.175 1.51 3.716-1.865 3.716-1.611 0-2.93-.111-2.93-.248zm-1.08-26.19c-1.553-.786-3.008-2.324-3.555-3.76-.354-.928-.236-1.086 1.16-1.556.93-.312 1.05-.286 1.445.322 2.343 3.604 7.337 3.672 9.531.13.93-1.502 1.986-5.508 1.526-5.792-.121-.074-1.046.272-2.054.771-2.465 1.22-5.006 1.25-7.385.088-3.275-1.598-4.65-4.552-4.653-9.995-.002-3.192.038-3.41.965-5.288 1.638-3.32 4.43-4.797 8.376-4.43 3.723.348 6.226 2.41 7.385 6.088.582 1.845.645 2.632.635 7.969-.01 6.328-.269 8.023-1.696 11.135-1.584 3.453-3.637 4.804-7.56 4.972-2.367.101-2.744.041-4.12-.654zm7.712-12.944c2.462-1.626 3.32-4.056 2.645-7.485-.45-2.278-1.152-3.65-2.45-4.788-3.004-2.631-7.422-1.526-8.686 2.174-.648 1.897-.592 5.187.121 7.089.601 1.603 1.94 3.14 3.186 3.66 1.293.54 3.871.216 5.184-.65z" fill="#4f4f4f"/><path d="M0 157.44V0h217.76v314.88H0V157.44zm212.43 156.37c1.778-.949 3.799-3.342 4.313-5.108.384-1.316.426-18.95.36-151.7l-.073-150.21-.773-1.463c-.905-1.709-2.705-3.425-4.4-4.193C210.694.61 207.846.594 108.879.59L7.098.586l-1.448.675c-2.113.985-3.185 2.01-4.182 4L.583 7.027v150.41c0 135.27.045 150.54.45 151.72.789 2.31 3.237 4.627 5.445 5.155.5.12 46.776.198 102.84.174l101.93-.044 1.19-.636zm-19.082-22.452c-2.645-.71-4.703-3.068-5.554-6.366-.621-2.409-.616-11.484.01-14.502 1.184-5.722 3.695-8.42 8.096-8.702 2.72-.174 3.837.048 5.353 1.063 1.292.866 2.892 2.957 2.892 3.78 0 .304-.38.603-1.011.796-.975.298-1.044.268-1.914-.827-1.496-1.885-3.689-2.62-5.978-2.005-1.691.454-2.81 1.5-3.824 3.576-.888 1.817-1.509 5.11-.963 5.11.159 0 1.099-.417 2.09-.927 4.55-2.341 9.861-.17 11.33 4.63.18.585.394 2.504.477 4.265.213 4.5-.26 6.06-2.502 8.247-1.364 1.33-1.943 1.686-3.175 1.95-1.916.41-3.572.383-5.326-.088zm5.839-3c1.405-.725 2.63-3.093 2.85-5.508.323-3.544-1.422-7.285-3.874-8.307-2.748-1.145-6.2.279-7.677 3.168-.518 1.012-.582 1.53-.453 3.646.234 3.851 1.75 6.466 4.31 7.434 1.234.467 3.49.264 4.844-.433zm-142.13-11.48c-4.053-.89-6.912-3.052-8.495-6.425-1.243-2.649-1.447-6.227-.512-8.987.615-1.816 2.253-4.684 2.904-5.085.522-.322 2.032-2.503 2.032-2.935 0-.64-.693-.457-3.19.837-2.332 1.21-2.409 1.228-5.321 1.228-2.832 0-3.047-.045-5.158-1.086-4.137-2.039-6.315-5.332-6.308-9.54.007-3.786 1.232-6.956 3.602-9.32 2.616-2.61 6.191-3.731 9.885-3.1 4.239.725 7.153 3.052 9.169 7.323.858 1.819 1.368 2.58 1.73 2.58.412 0 .513-.247.513-1.25 0-3.286-1.909-10.95-3.743-15.027-.49-1.087-.89-2.03-.89-2.094 0-.065 2.802-.118 6.226-.118s6.225.098 6.225.217c0 .12-.51 1.393-1.131 2.831-2.65 6.125-4.388 14.83-3.063 15.337.643.246 1.158-.309 1.574-1.699 1.517-5.067 5.81-8.302 11.018-8.302 4.744 0 9.408 3.018 11.04 7.144.921 2.328.922 6.709 0 9.068-1.828 4.688-5.42 7.038-10.751 7.034-2.498-.002-2.933-.088-4.738-.94-3.269-1.54-3.611-1.117-1.413 1.747 3.637 4.741 4.455 10 2.242 14.426-2.354 4.708-8.07 7.315-13.447 6.135zm96.84.154c-3.618-.56-6.755-2.477-8.528-5.214-1.324-2.044-1.844-3.984-1.815-6.778.035-3.37 1.154-5.85 4.418-9.784 1.787-2.155 1.088-2.864-1.356-1.376-3.656 2.225-8.445 2.33-11.974.26-1.634-.958-3.754-3.139-4.565-4.695-1.005-1.928-1.244-5.87-.51-8.408 1.478-5.11 5.184-8.283 10.161-8.703 5.182-.437 10.142 2.719 12.182 7.75.659 1.624 1.003 2.139 1.428 2.139.5 0 .555-.198.514-1.878-.09-3.629-2.018-11.086-3.752-14.506-.38-.75-.69-1.497-.69-1.66 0-.197 2.144-.3 6.256-.3 4.891 0 6.224.08 6.108.362-2.973 7.231-3.607 9.204-4.25 13.22-.457 2.867-.32 4.725.36 4.854.366.07.638-.22.95-1.009 1.233-3.118 2.087-4.55 3.52-5.902 1.957-1.846 4.13-2.843 6.661-3.054 8.068-.674 14.145 5.75 12.848 13.582-.68 4.108-2.584 6.788-6.032 8.488-2.116 1.044-2.34 1.091-5.124 1.091-2.683 0-3.066-.073-4.898-.939-3.316-1.566-3.666-1.224-1.589 1.555 3.744 5.01 4.56 9.82 2.446 14.426-2.05 4.466-7.593 7.279-12.769 6.48zm41.553-20.847c-3.447-.967-4.454-5.451-1.867-8.308 1.611-1.78 1.292-2.216-.823-1.127-1.514.78-3.601.836-4.687.126-.432-.282-1.049-1.107-1.37-1.832-1.208-2.725-.046-5.903 2.515-6.878 2.318-.884 4.04.027 5.641 2.984.406.749.867 1.297 1.026 1.217.504-.252.206-3.044-.562-5.264-.408-1.18-.742-2.233-.742-2.34 0-.108 1.238-.195 2.75-.195 1.514 0 2.751.046 2.751.103 0 .057-.456 1.09-1.014 2.296-1.177 2.54-1.824 4.995-1.423 5.395.399.398.768.024 1.494-1.514.826-1.75 2.046-2.523 3.984-2.523 2.773 0 4.198 1.65 4.198 4.858 0 2.077-.735 3.17-2.645 3.933-1.384.552-2.344.422-4.367-.596-.751-.377-1.435-.686-1.52-.686-.405 0-.064.773.814 1.848 1.416 1.732 1.638 2.276 1.638 4.012 0 3.223-2.74 5.347-5.792 4.49zm-138.76-40.84c-3.703-.896-6.656-3.181-8.202-6.346-.78-1.599-.843-1.974-.848-5.05-.006-3.231.023-3.38 1.044-5.488.577-1.191 1.782-3.002 2.678-4.023 2.611-2.975 2.134-3.531-1.466-1.71-2.466 1.247-2.502 1.256-5.557 1.256-2.871 0-3.2-.062-4.966-.924-3.843-1.876-6.123-5.132-6.321-9.023-.267-5.243 2.14-9.9 6.128-11.856 4.976-2.44 10.336-1.497 14.109 2.483 1.301 1.373 1.871 2.354 3.125 5.381.206.497.549.795.915.795.495 0 .585-.188.584-1.228 0-3.052-1.75-10.301-3.365-13.938-.564-1.271-1.095-2.539-1.18-2.817-.144-.47.278-.505 6.105-.505 3.442 0 6.259.094 6.259.209 0 .114-.6 1.624-1.331 3.355-2.28 5.386-3.972 13.626-3.032 14.756.585.703 1.11.21 1.732-1.626 1.177-3.476 3.12-5.73 6.19-7.179 4.84-2.283 11.21-.685 14.458 3.629 4.326 5.744 2.127 14.687-4.357 17.72-1.467.686-1.985.768-4.829.768-3.02 0-3.281-.049-5.04-.939-1.022-.516-2.031-.938-2.245-.938-.721 0-.394.923.957 2.704 2.815 3.711 4.003 7.692 3.347 11.214-.885 4.746-4.23 8.188-9.06 9.324-2.244.527-3.639.526-5.833-.004zm96.094-.01c-6.267-1.513-9.96-6.751-9.148-12.973.388-2.97 1.8-5.962 3.62-7.667 1.205-1.13 1.998-2.576 1.62-2.954-.239-.237-.983.016-2.825.96-2.497 1.281-2.505 1.283-5.583 1.283-2.899 0-3.197-.056-5.015-.949-2.489-1.222-4.378-3.071-5.452-5.336-2.014-4.247-.562-10.875 3.082-14.067 2.484-2.176 6.182-3.22 9.402-2.657 4.738.83 7.793 3.53 9.933 8.782.322.789.615 1.083 1.078 1.083.608 0 .629-.084.47-1.95-.362-4.244-2.35-11.633-3.998-14.855-.304-.595-.553-1.217-.553-1.382 0-.199 2.109-.3 6.225-.3 4.091 0 6.226.102 6.226.298 0 .164-.315.918-.7 1.676-2.644 5.206-4.829 15.412-3.53 16.488.483.4 1.334-.29 1.335-1.078 0-.963 1.738-4.123 3.018-5.487 2.514-2.682 6.488-3.948 10.23-3.26 6.654 1.223 10.674 6.742 9.67 13.278-.65 4.233-2.716 7.123-6.378 8.918-1.48.725-1.921.798-4.82.798-3.033 0-3.29-.048-5.155-.964-2.333-1.146-3.053-1.08-2.38.218.243.47.587.943.763 1.051.675.416 2.569 3.707 3.117 5.417.823 2.563.987 4.25.614 6.303-.447 2.456-1.678 4.765-3.397 6.369-1.744 1.627-3.234 2.415-5.636 2.98-2.215.52-3.608.515-5.834-.022zm-51.63-37.456c2.727-6.255 4.034-10.551 4.477-14.722.306-2.88.198-3.467-.62-3.349-.458.067-.788.584-1.363 2.142-1.761 4.768-5.182 7.47-9.904 7.826-7.893.593-13.74-5.616-12.636-13.42.577-4.084 2.78-7.176 6.296-8.838 1.78-.841 2.157-.91 4.967-.91 2.856 0 3.152.056 4.896.939 3.069 1.552 3.604 1.118 1.662-1.347-2.835-3.6-3.788-6.306-3.61-10.25.14-3.093.894-5.013 2.815-7.167 2.439-2.735 7.304-4.362 11.065-3.7 3.958.698 7.229 2.907 8.88 5.998 2.46 4.603 1.647 10.093-2.168 14.66-1.614 1.932-2.183 2.868-1.91 3.14.35.349.954.177 2.326-.66 5.28-3.22 12.55-1.74 15.844 3.225 1.51 2.277 2.02 4.627 1.63 7.52-.844 6.255-4.887 10.321-10.752 10.812-1.34.112-2.405.013-3.62-.337-3.999-1.151-6.422-3.277-8.26-7.248-1.097-2.369-1.802-3.015-2.188-2.01-.504 1.309 1.521 10.411 3.223 14.49.586 1.406 1.135 2.784 1.22 3.062.141.47-.283.505-6.139.505-4.923 0-6.256-.078-6.133-.361zm-47.872-25.6c0-.143.408-1.215.908-2.384 1.948-4.554 2.901-7.95 3.434-12.224.362-2.909.219-3.695-.65-3.566-.458.067-.757.55-1.254 2.024-1.658 4.914-5.228 7.717-10.161 7.976-5.581.294-10.675-3.008-12.118-7.855-.491-1.65-.55-4.935-.122-6.79 1.614-6.983 9.263-10.62 15.86-7.542 2.965 1.385 3.802.993 2.074-.97-3.95-4.488-5.14-10.558-2.942-15.01 1.183-2.399 3.721-4.802 6.047-5.727 2.42-.963 7.3-.963 9.72 0 4.285 1.704 6.96 5.291 7.355 9.861.315 3.645-.95 7.097-3.811 10.392-1.492 1.718-1.873 2.528-1.408 2.991.106.106.985-.25 1.955-.79 4.788-2.668 9.502-2.443 13.607.649 3.568 2.688 4.913 6.781 3.79 11.535-1.377 5.826-5.625 9.31-11.352 9.31-5.372 0-9.828-3.53-11.77-9.322-.231-.69-1.048-.969-1.378-.47-.784 1.19 1.598 11.397 3.804 16.304l.84 1.866h-6.214c-3.465 0-6.213-.114-6.213-.259zm95.845.154c0-.057.442-1.064.983-2.238 1.942-4.214 3.21-8.815 3.775-13.704.304-2.63-1.117-3.368-1.84-.955-1.068 3.562-3.65 6.618-6.597 7.804-1.39.56-2.199.675-4.719.673-2.807-.002-3.188-.072-4.974-.914-2.587-1.22-4.369-2.915-5.522-5.254-.9-1.824-.94-2.057-.931-5.236.013-4.366.628-6.036 3.15-8.551 2.375-2.37 4.216-3.09 7.988-3.126 2.531-.024 2.91.048 4.738.912 2.042.965 3.08 1.176 3.08.626 0-.172-.57-1.05-1.267-1.95-2.72-3.515-3.66-6.014-3.649-9.705.012-3.794 1.642-7.041 4.592-9.15 6.433-4.595 16.181-1.981 18.816 5.045 1.743 4.647.698 9.446-2.993 13.748-1.481 1.726-1.868 2.538-1.422 2.983.097.098 1.254-.39 2.57-1.082 2.773-1.459 4.868-1.844 7.55-1.389 5.959 1.012 10.163 6.192 9.528 11.738-.642 5.604-3.5 9.514-7.97 10.901-6.091 1.892-11.898-.906-14.775-7.12-1.096-2.368-1.8-3.014-2.187-2.009-.501 1.302 1.515 10.387 3.215 14.491.583 1.406 1.131 2.783 1.22 3.06.149.472-.27.506-6.1.506-3.442 0-6.259-.046-6.259-.103zm-95.752-62.07c.086-.357.759-2.105 1.494-3.885 2.123-5.139 3.552-12.594 2.646-13.808-.382-.512-.478-.528-.849-.144-.23.238-.64 1.117-.91 1.953-.272.837-1.004 2.283-1.628 3.216-3.875 5.788-12.427 6.503-17.748 1.483-2.174-2.051-3.145-4.273-3.31-7.57-.38-7.635 4.648-12.727 12.158-12.313 1.971.11 2.737.3 4.21 1.049 3.139 1.595 3.467 1.106 1.234-1.837-1.787-2.355-2.476-3.676-3.036-5.821-2.075-7.946 3.367-14.973 11.584-14.96 2.887.006 5.036.639 7.312 2.155 3.954 2.634 5.855 7.874 4.583 12.639-.604 2.264-1.418 3.744-3.348 6.094-2.616 3.183-2.31 4.07.77 2.219 4.462-2.682 10.301-2.004 14.173 1.644 2.659 2.505 3.712 5.97 3.02 9.938-1.188 6.818-6.931 11.086-13.363 9.93-4.506-.81-7.66-3.51-9.504-8.136-.701-1.76-1.216-2.194-1.789-1.505-.807.97 1.555 11.295 3.615 15.805.546 1.195.918 2.248.826 2.34-.092.09-2.896.166-6.233.166h-6.066l.157-.65zm95.977.487c-.09-.09.33-1.3.935-2.69 2.034-4.678 3.388-9.893 3.55-13.67.123-2.894-1.051-2.975-1.981-.137-1.114 3.399-3.714 6.282-6.71 7.441-2.316.897-6.204.904-8.495.017-3.435-1.33-6.065-3.979-7.048-7.098-.398-1.26-.493-2.313-.406-4.478.104-2.57.214-3.031 1.2-5.02 1.218-2.46 2.598-3.82 5.112-5.038 1.437-.697 1.932-.778 4.788-.786 3.03-.01 3.288.039 5.295.977 1.602.749 2.19.905 2.446.65.255-.255.185-.527-.293-1.13-1.55-1.96-2.974-4.257-3.584-5.783-.547-1.368-.664-2.211-.67-4.84-.008-3.023.04-3.282.941-5.11 3.512-7.115 13.625-8.738 19.56-3.138 3.701 3.492 4.63 8.89 2.374 13.807-.416.906-1.533 2.584-2.482 3.728-1.551 1.871-2.179 3.285-1.459 3.285.147 0 1.317-.545 2.601-1.21 2.122-1.101 2.57-1.223 4.914-1.335 2.967-.141 4.772.318 7.132 1.816 3.858 2.45 5.574 6.419 4.786 11.075-.922 5.453-4.388 9.175-9.47 10.17-3.158.617-7.105-.455-9.765-2.653-1.322-1.092-3.225-3.917-3.697-5.487-.182-.606-.552-1.302-.824-1.546-.444-.402-.531-.4-.885.026-.888 1.068 1.692 12.143 3.806 16.335.45.895.739 1.707.64 1.806-.224.224-12.088.24-12.31.016zM15.212 78.29c-.102-.163.3-1.423.893-2.8 1.247-2.896 1.625-4.99.9-4.99-.261 0-.694.53-1.007 1.237-.984 2.219-2.412 3.025-4.98 2.81-3.482-.29-4.763-6.073-1.82-8.217.44-.32 1.417-.612 2.298-.685 1.248-.103 1.8.013 2.983.63 2.344 1.224 2.695.904 1.029-.936-1.923-2.123-2.333-4.131-1.284-6.293.78-1.607 2.092-2.413 3.927-2.413 1.946 0 3.286.761 4.088 2.322 1.122 2.183.738 4.486-1.062 6.365-.491.512-.893 1.043-.893 1.178 0 .414.816.275 1.951-.332 1.484-.793 3.793-.78 4.82.026 1.15.902 1.626 2.063 1.626 3.961 0 2.822-1.79 4.824-4.314 4.824-1.78 0-3.145-1.002-4.1-3.009-.45-.947-.88-1.469-1.21-1.469-.28 0-.51.202-.51.449 0 .864.95 4.602 1.486 5.852.299.694.47 1.38.38 1.525-.226.365-4.974.333-5.201-.035zm-.438-25.838c-1.623-.52-3.519-2.103-4.176-3.484-.615-1.294-.452-1.757.711-2.012.817-.179 1.016-.075 1.957 1.021 1.234 1.439 2.45 2.012 4.267 2.012 1.827 0 3.035-.575 4.296-2.044 1.452-1.692 2.76-5.986 2.042-6.702-.097-.098-.89.224-1.76.714-3.315 1.867-7.558 1.269-9.91-1.396-1.772-2.01-2.196-3.591-2.196-8.193 0-3.683.044-3.982.785-5.384.976-1.847 2.75-3.391 4.435-3.862 1.714-.479 5.78-.253 7.01.39 2.173 1.135 3.736 3.449 4.383 6.487.477 2.239.415 11.099-.096 13.763-.801 4.177-2.82 7.296-5.423 8.377-1.59.66-4.758.817-6.325.313zm6.046-12.696c1.325-.683 3.173-2.898 3.392-4.066.377-2.004-.024-4.921-.92-6.698-1.171-2.318-2.554-3.343-4.719-3.5-.936-.067-2.166.03-2.732.217-4.443 1.463-4.907 10.568-.694 13.613 1.004.725 1.434.846 3.023.846 1.037 0 2.205-.182 2.65-.412z" fill="#2e2e2e"/><path d="M0 157.44V0h217.76v314.88H0V157.44zm212.75 156.49c1.388-.756 2.878-2.356 3.696-3.967l.724-1.425-.003-150.88-.003-150.88-.677-1.444c-.756-1.614-2.89-3.73-4.392-4.356-.848-.353-15.458-.41-103.43-.408L6.225.573l-1.48.847c-1.624.929-2.733 2.098-3.602 3.798C.583 6.313.577 7.983.65 157.928l.073 151.61 1.014 1.405c1.334 1.85 2.913 3.093 4.263 3.355.601.117 47.156.195 103.45.173 97.282-.039 102.41-.066 103.3-.551zm-19.721-22.879c-2.563-.911-4.401-3.279-5.147-6.627-.56-2.516-.477-11.216.134-13.987 1.305-5.925 3.937-8.452 8.854-8.5 2.454-.024 3.572.387 5.196 1.911.96.902 1.785 2.184 1.785 2.777 0 .17-.347.442-.772.603-.704.267-.873.177-1.954-1.044-1.505-1.7-3.441-2.31-5.772-1.82-2.714.572-4.822 3.604-5.295 7.619-.226 1.922.028 2 2.308.717 2.72-1.532 5.681-1.431 8.395.286 3.332 2.108 4.722 10.121 2.507 14.453-.722 1.412-2.982 3.377-4.304 3.743-1.48.41-4.609.342-5.935-.13zm6.678-2.688c.507-.362 1.284-1.395 1.727-2.296.689-1.406.803-1.991.8-4.11-.004-2.828-.777-4.959-2.38-6.558-2.01-2.004-5.566-1.906-7.987.22-1.765 1.55-2.335 3.109-2.129 5.823.26 3.42 1.43 5.745 3.544 7.039 1.006.616 1.443.698 3.33.624 1.704-.067 2.37-.227 3.095-.742zm-143.03-11.78c-2.26-.546-3.799-1.375-5.498-2.961-1.892-1.766-2.755-3.301-3.288-5.852-.817-3.908.379-7.972 3.336-11.343 1.71-1.95 2.147-2.686 1.93-3.249-.246-.642-.82-.502-3.364.817-2.134 1.107-2.605 1.238-4.784 1.33-6.656.278-11.809-4.35-11.772-10.573.03-5.047 2.384-9.158 6.361-11.112 1.815-.89 2.121-.95 4.98-.95 2.853 0 3.17.06 4.98.944 3.061 1.494 4.715 3.388 6.446 7.383.616 1.42.83 1.667 1.387 1.589.619-.088.655-.214.604-2.123-.1-3.788-1.89-10.872-3.685-14.584-.412-.852-.75-1.59-.75-1.64 0-.05 2.686-.09 5.968-.09 4.663 0 5.933.079 5.812.361-2.738 6.39-3.783 9.896-4.3 14.43-.257 2.26-.246 2.909.056 3.272.74.889 1.472.382 2.148-1.485 1.917-5.297 5.209-7.9 10.296-8.143 5.034-.24 9.205 2.194 11.264 6.573.669 1.423.753 1.96.753 4.795 0 3.112-.028 3.25-1.094 5.401-1.238 2.5-2.68 3.927-5.131 5.082-1.394.657-1.972.752-4.633.76-2.839.007-3.173-.054-5.028-.93-1.093-.517-2.233-.94-2.534-.94-.92 0-.638 1.088.739 2.841 2.631 3.352 3.823 6.744 3.562 10.138-.408 5.307-3.993 9.26-9.422 10.39-1.949.405-3.255.373-5.34-.131zm96.138 0c-4.88-1.18-8.075-4.516-8.981-9.38-.635-3.406.706-7.655 3.357-10.632 1.789-2.01 2.312-2.845 2.11-3.368-.263-.685-1.137-.517-2.934.562-2.07 1.244-4.102 1.711-6.686 1.54-2.806-.188-5.02-1.123-7.014-2.965-2.829-2.613-3.836-5.5-3.264-9.353.646-4.347 2.895-7.66 6.352-9.358 1.789-.879 2.106-.939 4.958-.939 2.849 0 3.17.061 4.97.939 2.547 1.244 4.787 3.643 5.9 6.321 1 2.401 1.214 2.707 1.906 2.707.835 0 .94-1.114.418-4.434-.754-4.796-2.066-9.168-4.11-13.693-.128-.282 1.136-.361 5.803-.361 3.282 0 5.967.049 5.967.108 0 .06-.445 1.083-.989 2.274-1.772 3.879-3.08 8.62-3.507 12.706-.265 2.538-.047 3.4.858 3.4.566 0 .787-.254 1.192-1.372 1.498-4.13 3.34-6.404 6.29-7.764 1.623-.747 2.105-.83 4.843-.83 2.825 0 3.18.066 5.014.933 2.565 1.212 4.83 3.492 5.731 5.77.9 2.277.932 6.732.063 8.924-1.795 4.527-5.561 7.05-10.526 7.05-1.971 0-4.5-.682-5.883-1.586-.781-.51-1.959-.5-2.13.02-.056.17.565 1.21 1.381 2.31 1.87 2.521 2.765 4.27 3.352 6.554 1.337 5.203-1.269 10.78-6.088 13.03-2.84 1.327-5.41 1.6-8.354.888zm42.183-20.755c-3.032-1.318-3.564-5.665-.994-8.12 1.511-1.446.797-2.416-.974-1.323-2.28 1.405-5.042.89-6.053-1.128-1.52-3.035.584-7.222 3.629-7.222 1.68 0 3.557 1.616 4.28 3.686.32.916.965 1.367 1.49 1.042.433-.267.063-2.874-.783-5.518-.395-1.234-.72-2.34-.722-2.46-.004-.25 4.45-.3 4.698-.052.09.091-.21.99-.668 2-1.298 2.855-1.888 5.226-1.437 5.769.594.714.84.538 1.656-1.18 1.194-2.516 3.248-3.467 5.528-2.557 1.472.588 2.277 1.786 2.521 3.75.209 1.684-.367 3.06-1.683 4.021-1.23.9-3.547.803-5.082-.21-2.34-1.545-2.908-.79-1.076 1.43 1.654 2.004 2.13 3.425 1.666 4.973-.855 2.846-3.469 4.197-5.997 3.099zm-138.52-40.78c-6.95-1.864-10.343-8.062-8.206-14.993.57-1.849 1.294-3.078 2.98-5.056.745-.873 1.516-1.891 1.713-2.261.702-1.317-.313-1.978-1.626-1.06-4.808 3.36-10.762 2.96-14.964-1.004-2.243-2.117-3.187-4.331-3.143-7.374.073-4.986 2.272-8.94 6.05-10.878 2.438-1.25 4.678-1.62 7.211-1.19 3.903.662 7.19 3.24 8.848 6.938 1.263 2.816 1.265 2.819 2.024 2.819.663 0 .69-.079.651-1.889-.08-3.75-2.065-11.498-3.824-14.927-.343-.669-.623-1.286-.623-1.372 0-.086 2.671-.156 5.936-.156s5.936.052 5.936.114c0 .063-.409 1.07-.909 2.24-1.931 4.517-3.176 9.026-3.586 12.995-.249 2.403-.037 3.139.901 3.139.74 0 .787-.072 1.71-2.68 1.673-4.72 6.241-7.708 11.249-7.359 6.394.446 10.92 5.084 10.897 11.168-.018 4.84-2.126 8.58-5.872 10.42-3.45 1.693-6.916 1.692-10.605-.004-2.993-1.376-3.473-.667-1.364 2.015 2.678 3.405 3.844 6.768 3.575 10.31-.543 7.162-7.726 11.985-14.96 10.046zm96.066.037c-4.75-1.306-7.805-4.542-8.66-9.174-.683-3.696.59-7.709 3.5-11.025 1.695-1.933 2.132-2.67 1.916-3.232-.245-.637-.83-.5-3.122.725-3.761 2.012-7.176 2.113-10.829.32-3.06-1.502-4.992-3.81-5.787-6.913-.859-3.355.261-8.008 2.619-10.879 5.122-6.236 15.632-4.59 19.12 2.993 1.406 3.054 1.43 3.088 2.177 3.088.96 0 1.025-.677.42-4.3-.848-5.078-1.83-8.352-4.103-13.682-.12-.282 1.156-.361 5.844-.361 4.693 0 5.962.078 5.833.36-2.35 5.138-3.739 9.67-4.281 13.97-.415 3.289-.23 4.229.808 4.103.627-.075.852-.376 1.387-1.856 1.849-5.109 5.09-7.76 9.936-8.125 6.51-.492 11.903 3.981 12.435 10.313.302 3.594-1.173 7.714-3.48 9.72-3.533 3.071-8.377 3.661-12.864 1.566-1.032-.481-2.056-.875-2.277-.875-.771 0-.398 1.386.743 2.764 6.565 7.925 4.046 18.114-5.064 20.481-2.024.526-4.397.533-6.27.018zm-49.754-40.53c1.742-4.28 2.869-8.687 3.098-12.12.16-2.387.124-2.685-.34-2.862-.82-.314-1.33.216-2.01 2.09-1.218 3.355-3.191 5.606-6.1 6.961-1.565.728-2.042.808-4.779.798-2.785-.01-3.203-.086-4.975-.912-5.968-2.778-8.279-9.946-5.144-15.956.998-1.913 1.197-2.161 2.848-3.551 2.957-2.49 8.091-2.981 12.014-1.15 1.09.51 2.167.926 2.393.926.958 0 .682-.947-.864-2.96-3.867-5.04-4.584-9.766-2.211-14.574 2.203-4.465 7.77-6.946 13.082-5.832 3.793.796 6.596 2.895 8.206 6.145 2.397 4.84 1.46 9.53-2.98 14.914-1.325 1.607-1.63 2.885-.687 2.885.3 0 1.282-.443 2.184-.985 4.5-2.703 10.475-1.974 14.19 1.73 2.174 2.17 2.92 4.016 2.907 7.199-.028 6.954-4.289 11.856-10.623 12.221-5.07.293-9.973-2.829-11.678-7.434-.7-1.891-1.22-2.62-1.868-2.62-.853 0-.956.99-.439 4.203.708 4.394 2.158 9.596 3.339 11.973.276.556.592 1.304.703 1.66l.201.65h-11.85l1.384-3.4zm-49.135-22.67c.086-.358.696-1.95 1.356-3.54 1.834-4.41 2.645-7.833 2.705-11.41l.05-3.033h-.713c-.62 0-.813.268-1.467 2.038-1.331 3.597-3.112 5.66-6.048 7.006-4.202 1.927-9.76.929-13.147-2.361-5.564-5.406-3.577-15.99 3.509-18.692 3.27-1.248 7.27-.992 10.223.653 1.151.642 2.089.612 2.22-.071.048-.243-.557-1.242-1.342-2.218-2.637-3.278-3.679-6.343-3.454-10.163.397-6.762 6.69-11.578 13.608-10.414 4.157.7 7.369 3.02 9.131 6.598.727 1.477.8 1.915.8 4.818 0 3.097-.032 3.257-1.066 5.344-.587 1.183-1.792 2.986-2.679 4.007-1.686 1.942-2.101 3.2-1.056 3.2.305 0 1.594-.539 2.863-1.197 1.944-1.008 2.651-1.22 4.485-1.336 6.435-.412 12.076 4.409 12.076 10.322 0 5.141-2.575 9.633-6.603 11.517-1.46.682-2 .77-4.69.77-3.781 0-5.533-.622-7.947-2.821-1.287-1.172-1.962-2.127-3.01-4.255-1.397-2.84-2.152-3.507-2.6-2.298-.644 1.735 1.535 11.402 3.55 15.753.803 1.732.899 2.132.545 2.268-.237.09-2.91.165-5.942.165H53.5l.155-.65zm95.988.494c-.085-.085.334-1.288.931-2.672 2.065-4.784 3.472-10.316 3.472-13.653 0-1.733-.212-2.297-.864-2.297-.656 0-.998.442-1.454 1.878-1.083 3.41-3.22 6.007-6.022 7.317-1.475.69-1.988.772-4.835.772-2.973 0-3.31-.06-5.067-.903-2.665-1.279-4.14-2.671-5.318-5.02-2.93-5.841-.507-13.186 5.21-15.798 3.062-1.398 7.492-1.178 10.37.516 1.113.656 2.283.642 2.408-.028.044-.239-.515-1.148-1.242-2.022-4.758-5.715-4.97-12.98-.51-17.43 2.66-2.654 6.82-3.995 10.484-3.38 5.685.953 9.59 5.004 10.049 10.421.32 3.782-.803 6.84-3.807 10.375-1.62 1.905-2.054 3.191-1.078 3.191.278 0 1.598-.552 2.933-1.227 2.364-1.196 2.5-1.228 5.213-1.217 3.592.015 5.453.708 7.852 2.923 3.093 2.858 4.054 6.15 3.073 10.536-.838 3.75-3.075 6.708-6.258 8.277-1.441.711-1.895.785-4.783.785-3.02 0-3.295-.05-5.117-.945-2.328-1.144-4.5-3.392-5.576-5.772-1.232-2.724-1.46-3.096-1.96-3.192-1.018-.195-1.146.912-.539 4.637.667 4.087 1.665 7.71 3.08 11.184.548 1.345.996 2.548.996 2.673 0 .25-11.392.32-11.642.071zM53.57 90.54c0-.095.594-1.652 1.318-3.46 1.556-3.88 2.612-7.844 2.971-11.16.287-2.64.067-3.695-.771-3.695-.711 0-1.013.406-1.59 2.135-1.956 5.857-7.642 9.067-13.438 7.584-2.407-.615-3.927-1.42-5.564-2.949-4.477-4.177-4.394-12.293.17-16.6 1.878-1.771 3.406-2.486 6.143-2.874 2.533-.358 4.406-.028 6.893 1.214 1.771.885 2.71.92 2.71.104 0-.235-.654-1.29-1.454-2.343-2.53-3.334-3.469-5.837-3.469-9.243 0-2.563.53-4.373 1.867-6.382 4.013-6.03 13.719-6.695 18.79-1.286 1.975 2.106 2.879 4.229 3.032 7.123.203 3.852-.709 6.247-3.824 10.036-2.647 3.22-2.143 4.04 1.378 2.24 3.983-2.034 7.623-2.128 11.236-.29 3.197 1.627 5.43 4.895 5.67 8.293.392 5.59-2.504 10.704-7.094 12.524-2.093.83-6.147.9-8.179.14-3.25-1.214-5.746-3.725-7.13-7.174-.773-1.925-1.354-2.6-2.02-2.345-1.336.511.759 10.922 3.364 16.716l.84 1.866h-5.925c-3.258 0-5.923-.078-5.923-.173zm97.195-2.932c1.683-3.975 2.987-9.028 3.199-12.39.151-2.413.117-2.666-.397-2.94-.82-.438-1.177-.084-1.832 1.816-1.937 5.618-6.332 8.62-11.931 8.152-6.883-.576-11.599-6.713-10.367-13.492.928-5.109 4.136-8.336 9.174-9.23 2.356-.417 4.733-.028 7.146 1.17 3.04 1.51 3.59.779 1.462-1.94-3.8-4.85-4.714-9.838-2.632-14.375 3.394-7.396 14.192-8.791 19.892-2.57 1.668 1.82 2.61 4.085 2.816 6.768.265 3.457-.95 6.736-3.679 9.926-1.584 1.851-2.028 2.87-1.486 3.41.255.256.874.047 2.57-.864 3.822-2.053 7.455-2.229 10.939-.528 5.832 2.847 7.79 9.337 4.726 15.67-2.06 4.256-7.149 6.794-11.87 5.918-4.184-.777-6.969-3.006-8.955-7.17-1.275-2.675-1.566-3.047-2.196-2.806-.704.27-.724 1.226-.104 4.889.733 4.33 1.985 8.692 3.329 11.594l.971 2.097h-12.088l1.314-3.106zm-135.33-9.82c.086-.278.57-1.48 1.076-2.672 1.026-2.416 1.331-5.055.584-5.055-.233 0-.82.702-1.303 1.56-1.054 1.874-1.992 2.624-3.51 2.81-2.5.304-4.463-1.695-4.463-4.547 0-1.467.114-1.81.895-2.698 1.558-1.77 3.958-1.945 6.2-.452 1.93 1.286 2.586.222.88-1.429-2.63-2.542-2.533-5.89.227-7.928 1.107-.818 3.218-.786 4.606.07 1.27.783 1.96 2.168 1.96 3.938 0 1.548-.281 2.183-1.635 3.693-.534.597-.971 1.218-.971 1.382 0 .643 1.004.626 2.22-.037 3.27-1.781 6.226-.067 6.28 3.642.052 3.594-3.48 5.939-6.196 4.112-.548-.369-1.358-1.392-1.873-2.366-1.012-1.915-1.405-2.2-1.86-1.354-.363.678.187 3.675 1.128 6.145.325.851.59 1.58.59 1.62 0 .04-1.123.072-2.495.072-2.242 0-2.48-.052-2.34-.506zm-.445-25.473c-1.399-.453-2.86-1.514-3.724-2.704-1.01-1.39-1.067-2.099-.19-2.334 1.061-.283 1.2-.224 1.912.82 2.074 3.039 7.152 2.848 9.36-.353 1.292-1.873 2.43-6.4 1.72-6.839-.14-.086-1.15.31-2.244.88-1.876.979-2.111 1.03-4.16.91-3.802-.221-5.865-1.857-7.022-5.566-.47-1.51-.63-2.755-.63-4.91 0-2.564.093-3.094.829-4.703.885-1.936 2.23-3.33 3.906-4.044 1.479-.63 5.048-.616 6.727.025 2.026.775 3.82 2.844 4.573 5.277 1.272 4.108 1.056 12.737-.436 17.45-.809 2.555-2.358 4.565-4.267 5.536-1.307.666-5.014.99-6.354.555zm6.668-12.833c.644-.446 1.54-1.342 1.991-1.992.763-1.1.819-1.373.807-3.949-.013-3.059-.609-4.898-2.102-6.486-2.404-2.558-6.823-2.475-8.842.165-2.21 2.89-1.97 8.579.478 11.322 1.398 1.568 2.354 1.953 4.578 1.844 1.535-.075 2.152-.256 3.09-.904z" fill="#010101"/></svg>