<svg xmlns="http://www.w3.org/2000/svg" height="335.872" width="232.277" viewBox="0 0 217.76 314.88"><path d="M0 157.44V0h217.76v314.88H0V157.44z" fill="#fdfdfd"/><path d="M0 157.44V0h217.76v314.88H0V157.44zm211.85 155.64c1.891-.995 3.473-2.834 4.02-4.673.375-1.26.428-19.907.428-150.97 0-134.48-.045-149.67-.45-150.85-.63-1.845-2.172-3.52-4.118-4.473l-1.657-.812h-100.91c-85.458 0-101.13.062-102.3.403-1.753.507-3.958 2.447-4.874 4.288l-.685 1.375-.076 149.35c-.053 104.72.016 149.79.232 150.84.58 2.805 2.738 5.152 5.54 6.027 1.045.326 18.054.382 102.31.337l101.06-.054 1.488-.783zM7.14 306.31c-.426-.425-.202-1.3.308-1.203.278.053.506.345.506.647 0 .575-.472.897-.814.556zm-3.191-2.606c-.282-.281-.236-1.191.07-1.38.505-.311 1.185.195 1.185.881 0 .478-.164.692-.531.692-.292 0-.618-.087-.724-.193zm195.35-5.2c-.73-.293-.749-.358-2.268-7.652-4.133-19.84-4.12-19.787-4.877-19.792-.34 0-.784-.11-.988-.24-.53-.335-.766-2.162-.373-2.893.31-.58.551-.618 3.882-.618 2.376 0 3.667.115 3.9.347.19.19.347.831.347 1.424 0 1.125-.59 1.985-1.362 1.985-.36 0-.415.218-.272 1.083.099.596.18 1.246.183 1.444.002.266.798.361 3.007.361h3.004l.181-.902c.306-1.525.222-1.986-.363-1.986-.868 0-1.234-.712-1.138-2.217l.09-1.394 4.031-.081c4.492-.09 4.499-.087 4.506 1.828.005 1.413-.388 1.863-1.626 1.863-.642 0-.983.159-1.084.506-.18.612-2.353 11.78-4.868 25.01-.26 1.365-.453 1.736-1.02 1.95-.859.326-2.043.315-2.892-.025zm3.378-19.712c.008-.434-.277-.506-2.018-.506-1.704 0-2.027.077-2.027.485 0 .584 1.69 9.011 1.93 9.626.155.394 2.095-8.418 2.115-9.605zm-4.302-17.008c-1.71-2.765-3.837-5.55-5.718-7.483-.854-.878-1.554-1.833-1.554-2.122 0-.288.694-1.325 1.541-2.302 2.26-2.606 4.008-4.97 5.542-7.49 1.641-2.697 2.248-2.881 3.311-1.002 1.312 2.319 2.78 4.41 5.167 7.358 1.316 1.626 2.392 3.124 2.392 3.33 0 .205-.915 1.475-2.033 2.822-2.166 2.606-4.373 5.708-5.496 7.72-1.014 1.818-1.61 1.66-3.152-.831zm-87.703-69.799c-.303-.437-1.375-2.16-2.383-3.828-2.429-4.02-5.695-8.788-8.212-11.988-2.115-2.688-7.847-9.179-9.423-10.67-.494-.466-.897-1.023-.897-1.237 0-.214 1.043-1.471 2.32-2.794 5.132-5.32 10.97-13.158 16.767-22.513 1.165-1.878 2.32-3.493 2.569-3.589.564-.215.75.042 3.337 4.626 3.595 6.369 8.873 13.488 16.22 21.877.903 1.031 1.642 2.121 1.642 2.422 0 .301-.88 1.517-1.954 2.701-7.243 7.982-13.204 16.21-17.583 24.272-.94 1.73-1.57 1.92-2.402.723zm-90.6-105.6c-1.943-3.041-4.178-5.931-5.864-7.583-.81-.794-1.475-1.667-1.477-1.94-.002-.273.857-1.443 1.908-2.6 1.052-1.157 3.015-3.761 4.363-5.787 1.61-2.418 2.628-3.683 2.965-3.683.33 0 .961.748 1.764 2.094 1.56 2.614 4.005 5.952 5.838 7.967.77.847 1.4 1.661 1.4 1.81 0 .147-1.052 1.534-2.34 3.081-1.287 1.548-2.818 3.569-3.402 4.492-2.516 3.977-2.72 4.243-3.263 4.243-.371 0-.994-.69-1.892-2.094zm-7.909-25.9c-.388-.723-.39-1.928-.004-2.646.215-.4.608-.559 1.388-.559h1.089l.652-3.394c.935-4.865 3.466-17.938 4.09-21.125.292-1.49.707-2.82.922-2.956.676-.428 3.062-.295 3.555.198.25.25.455.547.455.662 0 .305 3.808 18.416 4.473 21.272.222.953.571 2.546.776 3.539.342 1.655.435 1.805 1.124 1.805.413 0 .907.156 1.098.347.48.478.44 2.684-.055 3.094-.27.222-1.59.306-3.982.252l-3.578-.081-.087-1.666c-.087-1.653-.08-1.666.803-1.843.64-.127.854-.31.76-.646a25.868 25.868 0 0 1-.318-1.397c-.157-.782-.349-.96-1.206-1.12-.832-.156-4.739.05-4.9.259-.025.032-.133.657-.24 1.39-.19 1.316-.18 1.337.702 1.513.89.178.895.19.808 1.844l-.087 1.666-3.967.08c-3.69.075-3.988.04-4.27-.487zm12.046-10.932c-.077-.278-.563-2.683-1.08-5.345-.518-2.662-1-4.78-1.073-4.707-.285.283-2.056 10.206-1.858 10.404.085.085 1.054.153 2.153.153 1.763 0 1.981-.06 1.858-.505zM5.014 21.315c-.256-.666.104-1.3.738-1.3.717 0 .985.416.749 1.158-.214.673-1.245.772-1.487.142zm205.85.222c-.2-.069-.362-.449-.362-.844 0-.58.126-.7.652-.626.405.057.684.325.739.706.09.63-.39.987-1.029.764z" fill="#e7e7e7"/><path d="M0 157.44V0h217.76v314.88H0V157.44zm159.02 156.93c-27.604-.041-72.689-.041-100.19 0-27.499.041-4.913.074 50.19.074 55.103 0 77.603-.033 49.998-.074zm52.546-.916c1.772-.803 3.421-2.43 4.197-4.142l.686-1.514V7.358l-.814-1.654c-.448-.909-1.346-2.107-1.995-2.662-2.427-2.072 7.172-1.906-105.35-1.824L6.81 1.292l-1.159.625C4.278 2.66 2.597 4.361 1.847 5.77c-.523.982-.541 5.415-.617 151.37-.07 134.75-.033 150.48.367 151.54.84 2.225 2.83 4.233 4.923 4.97.605.213 31.73.311 102.36.322 98.705.016 101.52 0 102.69-.526zM4.196 303.32c-.312-.504.15-.933.602-.56.223.185.334.451.246.592-.21.341-.626.325-.848-.033zm194.82-5.267c-.129-.195-1.544-6.403-3.144-13.794l-2.91-13.438-.853-.098c-1.045-.12-1.28-.457-1.286-1.841-.006-1.455.51-1.672 3.975-1.672 3.506 0 3.916.22 3.786 2.03-.073 1.021-.212 1.309-.67 1.39-.947.168-1.046.45-.709 2.019l.322 1.495h3.025c3.293 0 3.135.089 3.417-1.923.158-1.133.12-1.216-.7-1.501-.806-.28-.868-.403-.868-1.73 0-1.036.126-1.477.458-1.604.252-.097 1.856-.176 3.565-.176 3.775 0 4.163.196 4.032 2.033-.09 1.268-.11 1.292-1.25 1.434l-1.158.144-.643 3.178c-.663 3.276-1.232 6.22-3.267 16.899-.651 3.416-1.305 6.503-1.454 6.86-.234.563-.485.65-1.852.65-.932 0-1.678-.145-1.816-.355zm3.83-19.748c-.105-.325-4.033-.39-4.352-.072-.157.157 1.717 9.98 2.086 10.931.181.468 2.436-10.336 2.266-10.859zm-2.96-14.805c-.161-.104-.858-1.1-1.548-2.212-1.533-2.468-4.484-6.292-5.897-7.64-.574-.547-1.04-1.262-1.036-1.588.004-.327.86-1.569 1.903-2.76 1.043-1.192 2.794-3.532 3.891-5.2a257.575 257.575 0 0 1 2.368-3.558c.477-.672 1.199-.406 1.661.613.61 1.342 3.385 5.299 5.507 7.849 1.12 1.347 2.037 2.683 2.037 2.97 0 .288-.861 1.526-1.914 2.752-1.786 2.08-5.905 7.977-5.905 8.453 0 .319-.733.539-1.068.321zm-89.373-72.192c-.376-.596-1.605-2.58-2.731-4.408-4.314-7.007-8.6-12.637-14.328-18.824-1.872-2.021-3.403-3.83-3.403-4.02 0-.191 1.011-1.4 2.247-2.688 2.258-2.353 5.052-5.645 7.743-9.126 1.47-1.9 8.077-11.762 10.063-15.02.761-1.249 1.237-1.753 1.588-1.686.293.056 1.146 1.296 2.053 2.982 3.103 5.772 8.955 13.923 15.158 21.114 4.292 4.977 4.128 4.27 1.633 7.065-7.026 7.874-11.692 14.221-16.306 22.183-1.35 2.33-2.194 3.5-2.53 3.504-.276 0-.81-.48-1.186-1.077zM21.384 87.89c-.231-.278-.92-1.285-1.533-2.239-1.717-2.675-4.027-5.645-5.493-7.065-.732-.708-1.33-1.515-1.33-1.792 0-.277.793-1.387 1.762-2.467s2.875-3.624 4.237-5.654c1.361-2.03 2.584-3.756 2.716-3.838.352-.217 1.147.733 2.223 2.656 1.09 1.95 3.124 4.71 5.25 7.128.811.922 1.475 1.845 1.475 2.05 0 .204-.844 1.329-1.877 2.499-1.83 2.075-3.362 4.193-5.473 7.567-.572.913-1.151 1.66-1.288 1.66-.136 0-.437-.227-.669-.505zm-8.573-27.236c-.54-.216-.652-.483-.652-1.553 0-1.427.256-1.713 1.505-1.677.606.017.915-.153 1.103-.607.144-.347.807-3.491 1.474-6.987.667-3.495 1.813-9.41 2.547-13.144l1.334-6.788 1.707-.088c.94-.048 1.813.018 1.943.146.129.13.636 2.119 1.126 4.421.49 2.303 1.08 5.032 1.313 6.065a1024.13 1024.13 0 0 1 1.875 8.81c.799 3.813 1.574 7.216 1.723 7.563.168.388.583.664 1.084.722.747.085.819.201.9 1.466.082 1.272.029 1.396-.724 1.687-.467.18-2.02.267-3.653.204-3.093-.118-3.376-.27-3.376-1.82 0-1.07.256-1.488 1.005-1.638.485-.097.57-.322.52-1.38-.099-2.079-.03-2.037-3.394-2.037h-3.036l-.183.973c-.276 1.466-.068 2.328.591 2.451.754.142 1.004.557 1.009 1.683.008 1.59-.52 1.828-3.998 1.807-1.7-.01-3.385-.135-3.743-.28zM24.225 48.89c-.574-3.613-2.066-10.158-2.242-9.84-.23.415-2.005 9.661-2.005 10.44 0 .41.338.483 2.21.483h2.209l-.172-1.083zM5.26 20.9a.861.861 0 0 1 .632-.631c.382-.073.5.045.427.427a.86.86 0 0 1-.632.63c-.382.073-.5-.045-.427-.427zm205.57.08c-.258-.31-.264-.473-.02-.622.472-.292 1.057.355.67.74-.208.21-.408.173-.65-.118z" fill="#f1d1d0"/><path d="M0 157.44V0h217.76v314.88H0V157.44zm159.02 156.93c-27.604-.041-72.689-.041-100.19 0-27.499.041-4.913.074 50.19.074 55.103 0 77.603-.033 49.998-.074zm52.546-.916c1.772-.803 3.421-2.43 4.197-4.142l.686-1.514V7.358l-.814-1.654c-.448-.909-1.346-2.107-1.995-2.662-2.427-2.072 7.172-1.906-105.35-1.824L6.81 1.292l-1.159.625C4.278 2.66 2.597 4.361 1.847 5.77c-.523.982-.541 5.415-.617 151.37-.07 134.75-.033 150.48.367 151.54.84 2.225 2.83 4.233 4.923 4.97.605.213 31.73.311 102.36.322 98.705.016 101.52 0 102.69-.526zM4.196 303.32c-.312-.504.15-.933.602-.56.223.185.334.451.246.592-.21.341-.626.325-.848-.033zm194.74-5.85c-.149-.358-1.329-5.655-2.622-11.772-3.442-16.28-3.12-15.021-3.85-15.026-1.106-.01-1.396-.401-1.299-1.758l.091-1.271h6.95l.087 1.339c.08 1.25.03 1.358-.753 1.63l-.84.293.295 1.619c.264 1.456.37 1.622 1.042 1.656 1.136.057 5.658-.085 5.76-.181.05-.046.166-.813.258-1.704.152-1.467.115-1.619-.394-1.619-.811 0-1.257-.563-1.257-1.589 0-1.445.365-1.588 4.054-1.588s4.054.143 4.054 1.588c0 1.148-.457 1.59-1.645 1.59-.746 0-.984.139-1.106.65-.086.357-1.263 6.369-2.615 13.36-1.353 6.99-2.52 12.872-2.592 13.071-.084.23-.717.361-1.74.361-1.394 0-1.643-.086-1.878-.65zm3.14-13.53c.606-3.084 1.05-5.706.988-5.825-.063-.12-1.142-.217-2.397-.217s-2.341.097-2.413.217c-.13.213 1.968 10.779 2.307 11.627.244.61.282.468 1.514-5.802zm-3.184-22.14c-1.238-2.158-4.801-6.847-6.306-8.298-.652-.628-1.185-1.256-1.185-1.396 0-.14 1.052-1.51 2.338-3.046 1.286-1.537 3.196-4.126 4.243-5.755 1.047-1.628 2.078-2.96 2.29-2.96.212 0 .7.617 1.083 1.371.89 1.751 3.536 5.433 5.72 7.96.935 1.082 1.7 2.072 1.7 2.2 0 .127-.86 1.257-1.912 2.51-1.964 2.342-4.044 5.278-5.452 7.696-.44.755-.973 1.372-1.185 1.372-.212 0-.812-.744-1.334-1.654zm-88.51-71.172c-2.58-4.231-7.984-12.206-10.158-14.991-1.302-1.669-4.025-4.838-6.051-7.044-2.026-2.206-3.729-4.205-3.784-4.442-.056-.237.74-1.292 1.767-2.345 5.382-5.513 11.422-13.678 17.952-24.272.598-.97 1.27-1.763 1.495-1.763.224 0 1.224 1.463 2.221 3.25 3.554 6.371 9.908 15.08 16.185 22.183 1.277 1.445 2.322 2.76 2.322 2.92 0 .162-1.347 1.81-2.993 3.665-6.34 7.14-12.234 15.354-16.147 22.502-.542.989-1.154 1.865-1.361 1.946-.232.09-.79-.53-1.448-1.61zM21.496 87.749c-.161-.199-1.208-1.73-2.327-3.404-1.118-1.674-2.891-3.968-3.94-5.098-1.05-1.131-1.908-2.276-1.908-2.545 0-.27.727-1.29 1.616-2.268.89-.979 2.784-3.501 4.211-5.607 1.427-2.105 2.71-3.827 2.85-3.827.142 0 .666.713 1.166 1.585 1.243 2.168 3.806 5.707 5.683 7.848.857.977 1.558 1.979 1.558 2.225s-.788 1.33-1.75 2.41c-1.487 1.667-3.974 5.156-5.881 8.247-.54.876-.837.977-1.278.434zm-8.93-27.5c-.087-.227-.117-.913-.067-1.525.088-1.063.143-1.118 1.194-1.205.606-.05 1.16-.245 1.233-.433.071-.189 1.28-6.29 2.685-13.558s2.653-13.313 2.773-13.433c.377-.376 3.068-.247 3.32.158.128.207 1.052 4.237 2.053 8.956 3.897 18.363 3.83 18.1 4.642 18.212 1.065.147 1.448.579 1.448 1.633 0 1.46-.422 1.618-4.095 1.526l-3.289-.082-.088-1.376c-.086-1.329-.058-1.382.794-1.552.852-.17.876-.217.698-1.368-.394-2.543-.324-2.493-3.496-2.488-1.557 0-2.98.1-3.163.217-.183.116-.424.94-.535 1.831l-.202 1.62.913.182c.887.177.91.22.824 1.558l-.088 1.376-3.698.081c-2.987.065-3.728 0-3.856-.33zm12.04-10.366c-.003-.568-2.313-11.578-2.46-11.724-.071-.072-.197.05-.279.271-.179.485-2.181 11.033-2.181 11.491 0 .212.844.322 2.46.322 1.778 0 2.462-.1 2.46-.36zM5.257 20.88a.861.861 0 0 1 .632-.63c.382-.074.501.044.427.426a.86.86 0 0 1-.631.63c-.383.073-.502-.045-.428-.426zm205.57.08c-.258-.31-.263-.472-.02-.622.472-.291 1.058.356.671.741-.21.21-.409.173-.651-.118z" fill="#d6d6d6"/><path d="M0 157.44V0h217.76v314.88H0V157.44zm209.57 156.89c.277-.145 1.09-.469 1.81-.72 1.793-.627 3.186-1.846 4.204-3.68l.86-1.548V6.802l-.654-1.22c-.887-1.654-2.471-3.18-4.087-3.932l-1.34-.625H7.382l-1.646.806c-1.864.913-3.224 2.313-4.115 4.235l-.61 1.314v300.44l.69 1.525c.91 2.007 3.038 3.908 5.187 4.634 1.618.546 3.667.558 101.92.594 59.857.022 100.47-.07 100.77-.227zm-10.639-16.853c-.149-.357-1.329-5.655-2.622-11.772-3.442-16.279-3.12-15.021-3.85-15.026-1.106-.01-1.396-.4-1.299-1.757l.091-1.272h6.95l.087 1.34c.08 1.249.03 1.357-.753 1.63l-.84.292.295 1.619c.264 1.456.37 1.623 1.042 1.657 1.136.057 5.658-.085 5.76-.182.05-.046.166-.813.258-1.703.152-1.468.115-1.62-.394-1.62-.811 0-1.257-.563-1.257-1.588 0-1.446.365-1.59 4.054-1.59s4.054.144 4.054 1.59c0 1.147-.457 1.588-1.645 1.588-.746 0-.984.14-1.106.65-.086.358-1.263 6.37-2.615 13.36-1.353 6.991-2.52 12.873-2.592 13.072-.084.23-.717.362-1.74.362-1.394 0-1.643-.086-1.878-.65zm3.14-13.529c.606-3.085 1.05-5.707.988-5.826-.063-.12-1.142-.216-2.397-.216s-2.341.097-2.414.216c-.128.213 1.969 10.78 2.308 11.627.244.61.282.469 1.514-5.801zm-3.184-22.141c-1.238-2.158-4.801-6.847-6.307-8.298-.651-.628-1.184-1.256-1.184-1.395 0-.14 1.052-1.51 2.338-3.047 1.286-1.537 3.196-4.126 4.243-5.755 1.047-1.628 2.078-2.96 2.29-2.96.212 0 .7.617 1.083 1.372.89 1.75 3.536 5.433 5.72 7.96.935 1.082 1.7 2.07 1.7 2.198 0 .128-.86 1.258-1.912 2.512-1.964 2.341-4.044 5.277-5.452 7.695-.44.755-.973 1.372-1.185 1.372-.212 0-.812-.744-1.334-1.654zm-88.51-71.172c-2.58-4.231-7.984-12.206-10.158-14.991-1.302-1.668-4.025-4.838-6.051-7.044-2.026-2.205-3.729-4.204-3.784-4.442-.056-.237.74-1.292 1.767-2.344 5.382-5.513 11.422-13.678 17.952-24.272.598-.97 1.27-1.763 1.495-1.763.224 0 1.224 1.462 2.221 3.25 3.554 6.37 9.908 15.079 16.185 22.183 1.277 1.445 2.322 2.759 2.322 2.92 0 .162-1.347 1.81-2.993 3.664-6.34 7.141-12.234 15.354-16.147 22.502-.542.99-1.154 1.865-1.361 1.946-.232.09-.79-.53-1.448-1.609zM21.491 87.755c-.161-.199-1.208-1.73-2.327-3.404-1.118-1.673-2.891-3.968-3.94-5.098-1.05-1.13-1.908-2.276-1.908-2.545 0-.27.727-1.29 1.616-2.268.89-.978 2.784-3.501 4.211-5.606 1.427-2.105 2.71-3.828 2.85-3.828.142 0 .666.713 1.166 1.585 1.243 2.168 3.806 5.707 5.683 7.848.857.978 1.558 1.979 1.558 2.225s-.788 1.33-1.75 2.41c-1.487 1.667-3.974 5.156-5.881 8.248-.54.876-.837.976-1.278.433zm-8.92-27.4c-.087-.226-.117-.913-.067-1.525.088-1.063.143-1.118 1.194-1.204.606-.05 1.16-.245 1.233-.434.071-.188 1.28-6.29 2.685-13.558s2.653-13.313 2.773-13.433c.377-.375 3.068-.247 3.32.159.128.207 1.052 4.236 2.053 8.955 3.897 18.363 3.83 18.1 4.642 18.212 1.065.147 1.448.579 1.448 1.633 0 1.461-.422 1.618-4.095 1.527l-3.289-.082-.088-1.377c-.086-1.328-.058-1.382.794-1.552.852-.17.876-.217.698-1.368-.394-2.543-.324-2.493-3.496-2.488-1.557 0-2.98.1-3.163.217-.183.117-.424.94-.535 1.832l-.202 1.619.913.182c.887.177.91.22.824 1.558l-.088 1.377-3.698.08c-2.987.066-3.728 0-3.856-.33zm12.04-10.366c-.003-.568-2.313-11.578-2.46-11.724-.071-.072-.197.05-.279.272-.179.484-2.181 11.033-2.181 11.49 0 .212.844.323 2.46.323 1.778 0 2.462-.1 2.46-.361zM5.502 20.885a.29.29 0 0 1 .58 0 .29.29 0 0 1-.58 0z" fill="#eaafaf"/><path d="M0 157.44V0h217.76v314.88H0V157.44zm209.57 156.89c.277-.145 1.09-.469 1.81-.72 1.793-.627 3.186-1.846 4.204-3.68l.86-1.548V6.802l-.654-1.22c-.887-1.654-2.471-3.18-4.087-3.932l-1.34-.625H7.382l-1.646.806c-1.864.913-3.224 2.313-4.115 4.235l-.61 1.314v300.44l.69 1.525c.91 2.007 3.038 3.908 5.187 4.634 1.618.546 3.667.558 101.92.594 59.857.022 100.47-.07 100.77-.227zm-10.294-16.564c-.164-.199-1.563-6.276-3.108-13.505-1.545-7.23-2.934-13.299-3.087-13.488-.154-.19-.628-.384-1.054-.433-.651-.075-.79-.25-.87-1.088-.14-1.465.434-1.746 3.57-1.746 3.128 0 3.71.282 3.57 1.735-.076.775-.251 1.024-.82 1.162-.667.16-.716.286-.63 1.585.159 2.422.204 2.451 3.82 2.451 3.575 0 3.427.108 3.554-2.58.055-1.149-.014-1.298-.663-1.456-.593-.144-.74-.377-.816-1.29-.058-.696.05-1.206.29-1.356.21-.133 1.75-.242 3.421-.242 1.673 0 3.213.109 3.423.242.239.15.347.661.29 1.364-.087 1.052-.161 1.134-1.182 1.298-.599.096-1.141.228-1.204.292-.064.064-1.237 5.967-2.607 13.117-1.37 7.15-2.618 13.292-2.771 13.649-.23.533-.508.65-1.553.65-.7 0-1.409-.163-1.573-.361zm2.845-13.347c.649-3.308 1.111-6.191 1.028-6.408-.23-.599-4.759-.557-4.99.046-.158.408 2.06 11.789 2.406 12.347.085.138.205.201.266.14.061-.06.642-2.817 1.29-6.124zm-4.133-24.207c-1.062-1.629-2.914-4.097-4.117-5.485-1.202-1.389-2.185-2.697-2.185-2.907 0-.21.405-.765.9-1.231 1.235-1.163 3.945-4.731 5.76-7.583.828-1.3 1.676-2.365 1.883-2.365.208 0 .798.747 1.31 1.66 1.206 2.147 2.528 3.987 4.97 6.917 1.084 1.3 1.971 2.506 1.971 2.677 0 .172-1.089 1.653-2.42 3.293-1.332 1.639-3.111 4.106-3.954 5.482-.843 1.377-1.68 2.503-1.86 2.503-.18 0-1.196-1.332-2.258-2.961zm-86.944-68.752c-.254-.357-1.639-2.535-3.079-4.839-4.878-7.806-9.274-13.534-14.658-19.098-1.632-1.687-2.968-3.16-2.968-3.273 0-.114 1.276-1.594 2.835-3.29 4.796-5.215 8.857-10.557 13.393-17.62l3.61-5.614c.64-.992 1.292-1.79 1.449-1.776.157.015 1.245 1.705 2.418 3.756 3.698 6.463 8.647 13.266 15.062 20.7 1.611 1.868 2.93 3.58 2.93 3.805 0 .225-.814 1.298-1.81 2.384-6.305 6.88-12.274 15.018-16.58 22.606-.909 1.6-1.762 2.908-1.897 2.908s-.453-.292-.706-.65zM20.036 85.38c-1.579-2.509-4.617-6.405-5.96-7.641-.418-.385-.76-.812-.76-.948 0-.136.897-1.298 1.994-2.584 1.097-1.285 2.954-3.806 4.126-5.603 1.173-1.797 2.275-3.277 2.45-3.288.174-.011 1.006 1.105 1.85 2.482.843 1.376 2.596 3.814 3.895 5.416 1.3 1.603 2.456 3.067 2.57 3.253.12.2-.461 1.093-1.411 2.167-.89 1.005-2.73 3.485-4.091 5.51-1.361 2.026-2.623 3.681-2.803 3.678-.18 0-1.017-1.102-1.86-2.442zM12.56 59.975c-.086-.225-.115-.776-.063-1.224.08-.695.254-.841 1.183-.99.599-.097 1.161-.248 1.25-.336.088-.088 1.32-6.11 2.735-13.382 1.416-7.272 2.644-13.402 2.729-13.622.11-.286.583-.375 1.668-.312l1.515.087.346 1.3c.19.715 1.473 6.63 2.85 13.144s2.57 12.07 2.65 12.346c.079.276.56.61 1.067.74.84.218.922.34.922 1.376v1.137l-3.394.081c-3.393.081-3.395.081-3.573-.629-.258-1.025.093-1.857.828-1.961.779-.111.957-1.116.499-2.813l-.318-1.178H18.864l-.157.795c-.462 2.35-.268 3.25.701 3.25.635 0 1.017 1.064.72 2-.18.564-.404.6-3.8.6-2.845 0-3.643-.087-3.767-.41zm11.94-9.846c.228-.07.075-1.358-.503-4.239-1.392-6.945-1.75-8.4-2-8.142-.214.22-2.174 9.829-2.377 11.655-.069.62.06.741.934.879.958.151 3.234.063 3.946-.153zM5.497 20.808a.29.29 0 0 1 .58 0 .29.29 0 0 1-.58 0z" fill="#b4b4b4"/><path d="M0 157.44V0h217.76v314.88H0V157.44zm211.67 156.25c1.909-.904 3.489-2.434 4.398-4.26l.67-1.34V7.37l-.692-1.526c-.85-1.875-3.015-3.886-4.864-4.514-1.227-.417-10.76-.46-102.6-.46H7.332l-1.772.883c-2.009 1.002-3.034 2.075-4.014 4.2L.868 7.425l.073 150.48.073 150.48.721 1.409c.949 1.852 2.84 3.476 4.875 4.185 1.627.567 2.63.572 102.56.522l100.91-.05 1.592-.754zm-12.39-15.928c-.164-.199-1.563-6.276-3.108-13.505-1.545-7.23-2.934-13.299-3.087-13.488-.154-.19-.628-.384-1.054-.433-.651-.075-.79-.25-.87-1.088-.14-1.465.434-1.746 3.57-1.746 3.128 0 3.71.282 3.57 1.735-.076.775-.251 1.024-.82 1.162-.667.16-.716.286-.63 1.585.159 2.422.204 2.451 3.82 2.451 3.575 0 3.427.108 3.554-2.58.055-1.149-.014-1.298-.663-1.456-.593-.144-.74-.377-.816-1.29-.058-.696.05-1.206.29-1.356.21-.133 1.75-.242 3.421-.242 1.673 0 3.213.109 3.423.242.239.15.347.661.29 1.364-.087 1.052-.161 1.134-1.182 1.298-.599.096-1.141.228-1.204.292-.064.064-1.237 5.967-2.607 13.117-1.37 7.15-2.618 13.292-2.771 13.649-.23.533-.508.65-1.553.65-.7 0-1.409-.163-1.573-.361zm2.845-13.347c.649-3.308 1.111-6.191 1.028-6.408-.23-.599-4.759-.557-4.99.046-.158.408 2.06 11.789 2.406 12.347.085.138.205.201.266.14.061-.06.642-2.817 1.29-6.124zm-4.133-24.207c-1.062-1.629-2.914-4.097-4.117-5.485-1.202-1.389-2.185-2.697-2.185-2.907 0-.21.405-.765.9-1.231 1.235-1.163 3.945-4.731 5.76-7.583.828-1.3 1.676-2.365 1.883-2.365.208 0 .798.747 1.31 1.66 1.206 2.147 2.528 3.987 4.97 6.917 1.084 1.3 1.971 2.506 1.971 2.677 0 .172-1.089 1.653-2.42 3.293-1.332 1.639-3.111 4.106-3.954 5.482-.843 1.377-1.68 2.503-1.86 2.503-.18 0-1.196-1.332-2.258-2.961zm-86.944-68.752c-.254-.357-1.639-2.535-3.079-4.839-4.878-7.806-9.274-13.534-14.658-19.098-1.632-1.687-2.968-3.16-2.968-3.273 0-.114 1.276-1.594 2.835-3.29 4.796-5.215 8.857-10.557 13.393-17.62l3.61-5.614c.64-.992 1.292-1.79 1.449-1.776.157.015 1.245 1.705 2.418 3.756 3.698 6.463 8.647 13.266 15.062 20.7 1.611 1.868 2.93 3.58 2.93 3.805 0 .225-.814 1.298-1.81 2.384-6.305 6.88-12.274 15.018-16.58 22.606-.909 1.6-1.762 2.908-1.897 2.908s-.453-.292-.706-.65zM20.04 85.376c-1.579-2.509-4.617-6.405-5.96-7.641-.418-.385-.76-.812-.76-.948 0-.136.897-1.298 1.994-2.584 1.097-1.285 2.954-3.806 4.126-5.603 1.173-1.797 2.275-3.277 2.45-3.288.174-.011 1.006 1.105 1.85 2.482.843 1.376 2.596 3.814 3.895 5.416 1.3 1.603 2.456 3.067 2.57 3.253.12.2-.461 1.093-1.411 2.167-.89 1.005-2.73 3.485-4.091 5.51-1.361 2.026-2.623 3.681-2.803 3.678-.18 0-1.017-1.102-1.86-2.442zm-7.475-25.405c-.086-.225-.115-.776-.063-1.224.08-.695.254-.841 1.183-.99.599-.097 1.161-.248 1.25-.336.088-.088 1.32-6.11 2.735-13.382 1.416-7.272 2.644-13.402 2.729-13.622.11-.286.583-.375 1.668-.312l1.515.087.346 1.3c.19.715 1.473 6.63 2.85 13.144s2.57 12.07 2.65 12.346c.079.276.56.61 1.067.74.84.218.922.34.922 1.376v1.137l-3.394.081c-3.393.081-3.395.081-3.573-.629-.258-1.025.093-1.857.828-1.961.779-.111.957-1.116.499-2.813l-.318-1.178H18.868l-.157.795c-.462 2.35-.268 3.25.701 3.25.635 0 1.017 1.064.72 2-.18.564-.404.6-3.8.6-2.845 0-3.643-.087-3.767-.41zm11.94-9.846c.228-.07.075-1.358-.503-4.239-1.392-6.945-1.75-8.4-2-8.142-.214.22-2.174 9.829-2.377 11.655-.069.62.06.741.934.879.958.151 3.234.063 3.946-.153z" fill="#e49090"/><path d="M0 157.44V0h217.76v314.88H0V157.44zm211.67 156.25c1.909-.904 3.489-2.434 4.398-4.26l.67-1.34V7.37l-.692-1.526c-.85-1.875-3.015-3.886-4.864-4.514-1.227-.417-10.76-.46-102.6-.46H7.332l-1.772.883c-2.009 1.002-3.034 2.075-4.014 4.2L.868 7.425l.073 150.48.073 150.48.721 1.409c.949 1.852 2.84 3.476 4.875 4.185 1.627.567 2.63.572 102.56.522l100.91-.05 1.592-.754zm-12.135-15.833c-.26-.165-1.428-5.013-3.245-13.475-1.56-7.27-2.9-13.382-2.977-13.584-.078-.201-.507-.407-.954-.459-.733-.084-.823-.215-.903-1.32l-.089-1.228h6.682l.193.767c.239.947-.176 1.657-1.042 1.785-.627.092-.648.178-.456 1.868.11.974.264 1.873.341 1.997.078.125 1.636.227 3.463.227 3.751 0 3.634.075 3.698-2.37.037-1.367-.021-1.507-.684-1.669-.62-.15-.724-.34-.724-1.318v-1.143H210.077v1.156c0 1.11-.04 1.159-1.014 1.248-.557.051-1.123.2-1.257.33-.135.131-.616 2.17-1.07 4.53-3.244 16.86-4.418 22.51-4.715 22.699-.469.297-1.99.272-2.486-.041zm1.561-7.606c.5-2.146 2.176-11.34 2.176-11.93 0-.699-.035-.708-2.581-.708-1.795 0-2.619.109-2.702.357-.066.197.445 3.075 1.134 6.395.69 3.32 1.254 6.15 1.254 6.287 0 .534.576.213.72-.401zm-2.365-29.176c-1.68-2.617-4.622-6.4-5.998-7.712-.574-.547-1.04-1.132-1.036-1.3.004-.167.864-1.279 1.911-2.47 1.048-1.192 2.89-3.662 4.095-5.49 1.205-1.826 2.247-3.386 2.316-3.466.154-.175.485.274 2.663 3.611.933 1.43 2.62 3.705 3.749 5.056 1.129 1.35 2.053 2.534 2.053 2.631 0 .097-.864 1.202-1.92 2.456-1.057 1.253-2.885 3.741-4.063 5.529-1.178 1.787-2.206 3.25-2.284 3.25-.078 0-.747-.943-1.486-2.095zm-89.936-73.35c-5.234-8.399-9.188-13.65-14.895-19.786-1.797-1.93-3.267-3.663-3.267-3.85 0-.186 1.3-1.725 2.887-3.421 4.866-5.197 10.381-12.69 15.93-21.644 1.01-1.629 1.998-2.961 2.197-2.961.2 0 1.035 1.267 1.858 2.816 3.087 5.81 9.122 14.193 15.427 21.43 1.583 1.817 2.94 3.466 3.017 3.664.076.199-1.123 1.767-2.664 3.486-5.566 6.204-11.41 14.229-15.318 21.035-.913 1.589-1.828 3.062-2.035 3.275-.311.319-.856-.383-3.137-4.045zM19.57 84.505c-1.217-1.822-3.12-4.29-4.231-5.485-1.11-1.195-2.02-2.233-2.02-2.306 0-.073.792-1.018 1.759-2.098.966-1.08 2.878-3.618 4.247-5.641 2.773-4.096 2.67-4.057 4.097-1.535 1.02 1.805 4.858 6.933 5.938 7.935.415.385.754.918.754 1.183s-.66 1.236-1.469 2.157c-1.964 2.24-3.454 4.276-5.06 6.915-.733 1.204-1.438 2.189-1.568 2.189-.13 0-1.23-1.491-2.447-3.314zm-6.774-25.349c.084-1.156.15-1.242 1.009-1.325.506-.05 1.04-.244 1.188-.434.147-.19.605-2.099 1.016-4.244 3.062-15.96 4.378-22.437 4.625-22.749.376-.476 2.374-.464 2.774.016.172.208 1.555 6.22 3.072 13.36 1.518 7.14 2.872 13.178 3.01 13.417.139.238.629.5 1.09.58.759.134.837.256.837 1.3v1.153h-6.66v-1.142c0-.98.104-1.168.724-1.318.655-.16.715-.296.627-1.431-.203-2.626-.177-2.608-3.932-2.608-1.826 0-3.38.098-3.453.216-.072.12-.178.989-.234 1.933-.097 1.627-.065 1.725.622 1.89.62.15.724.338.724 1.318v1.142l-3.564.081-3.565.081.09-1.236zm11.98-8.98c.155-.403-2.294-12.533-2.591-12.83-.098-.097-.233-.122-.3-.054-.25.248-2.493 12.533-2.356 12.89.204.529 5.044.524 5.247-.01z" fill="#e17d81"/><path d="M0 157.44V0h217.76v314.88H0V157.44zm211.67 156.25c1.909-.904 3.489-2.434 4.398-4.26l.67-1.34V7.37l-.692-1.526c-.85-1.875-3.015-3.886-4.864-4.514-1.227-.417-10.76-.46-102.6-.46H7.332l-1.772.883c-2.009 1.002-3.034 2.075-4.014 4.2L.868 7.425l.073 150.48.073 150.48.721 1.409c.949 1.852 2.84 3.476 4.875 4.185 1.627.567 2.63.572 102.56.522l100.91-.05 1.592-.754zm-12.05-15.788c-.438-.288-.562-.74-1.702-6.18a1231.35 1231.35 0 0 0-1.874-8.765 812.764 812.764 0 0 1-1.154-5.344c-1.53-7.371-1.454-7.15-2.532-7.274-.731-.084-.821-.215-.901-1.32l-.09-1.228h6.682l.194.767c.237.945-.16 1.623-1.078 1.84-.777.182-.767.13-.442 2.236.147.95.419 1.62.723 1.782.268.143 1.83.187 3.47.096 3.354-.184 3.515-.308 3.515-2.703 0-.957-.12-1.19-.731-1.421-.869-.33-1.135-.892-.887-1.876.18-.719.194-.721 3.62-.721 3.687 0 3.79.043 3.79 1.581 0 .737-.486 1.019-1.756 1.019-.637 0-.872.156-.975.65-.075.357-.41 2.145-.747 3.972a285.684 285.684 0 0 1-1.034 5.344c-.554 2.646-2.268 11.43-2.874 14.729-.262 1.428-.63 2.693-.817 2.812-.436.277-1.98.279-2.4 0zm1.44-7.217c.161-.572.39-1.76.625-3.25.278-1.759 1.317-7.038 1.584-8.043.435-1.642.232-1.78-2.633-1.78-1.5 0-2.59.122-2.611.29l-.078.65c-.022.198.192 1.4.477 2.672.285 1.27.703 3.286.93 4.477.821 4.31 1.107 5.49 1.333 5.49.127 0 .294-.228.373-.506zm-2.798-30.34c-2.005-3.082-2.07-3.167-4.79-6.31l-1.84-2.123 1.598-1.76c1.508-1.662 5.4-7.008 5.418-7.439.004-.11.384-.652.843-1.205l.836-1.006.532.983c1.108 2.048 3.687 5.674 5.62 7.901 1.103 1.272 2.006 2.404 2.006 2.515 0 .111-.82 1.164-1.822 2.34-2.01 2.36-4.033 5.167-5.226 7.252-.428.746-.9 1.433-1.051 1.526-.151.093-1.107-1.11-2.124-2.674zM110.597 190.6c-1.657-2.803-3.028-4.969-5.062-7.993a3962.345 3962.345 0 0 1-2.483-3.695c-1.87-2.794-6.44-8.263-9.88-11.824-2.306-2.387-2.929-3.361-2.322-3.63.339-.15 4.74-4.86 5.867-6.279.556-.699 1.34-1.674 1.741-2.166.402-.493 1.648-2.13 2.77-3.64 1.86-2.507 2.984-4.18 8.334-12.407.976-1.501 1.91-2.77 2.075-2.82.165-.05.869.983 1.564 2.296 1.534 2.896 4.065 7.01 5.336 8.674a97.072 97.072 0 0 1 2.136 2.957c1.416 2.044 4.618 6.035 8.544 10.65 1.553 1.826 2.823 3.436 2.823 3.578 0 .143-.342.574-.76.96-2.741 2.526-10.73 12.567-13.284 16.697-.159.258-.76 1.184-1.337 2.057-.576.874-1.858 2.986-2.85 4.694-.99 1.707-1.915 3.175-2.055 3.261-.14.086-.661-.53-1.158-1.371zM20.96 86.59c-1.963-3.15-3.428-5.164-5.303-7.295-1.118-1.27-2.036-2.41-2.04-2.53-.004-.12 1.053-1.546 2.348-3.168s3.15-4.17 4.12-5.66c1.608-2.469 1.8-2.663 2.144-2.176.208.294.936 1.38 1.619 2.413a227.37 227.37 0 0 0 2.035 3.029c1.145 1.658 3.76 4.763 4.015 4.767.557.01.115 1.156-.843 2.186-1.488 1.598-5.01 6.44-5.962 8.194-.438.807-.925 1.467-1.082 1.467-.157 0-.63-.552-1.051-1.227zm-8.101-26.615c-.089-.23-.119-.787-.067-1.237.082-.715.239-.838 1.236-.964l1.141-.144.668-3.467.973-5.055c.168-.874.488-2.499.71-3.61.222-1.113.483-2.478.578-3.034a91.88 91.88 0 0 1 .58-2.889c.224-1.033.687-3.372 1.03-5.2.79-4.209.837-4.294 2.295-4.219 1.457.075 1.665.288 2.019 2.063.308 1.547 2.438 11.597 3.06 14.434.794 3.63 1.268 5.862 1.771 8.339.286 1.408.655 2.6.819 2.647.164.048.664.168 1.111.266.736.161.805.28.724 1.252l-.09 1.073h-6.66V59.08c0-.925.115-1.173.58-1.256.973-.175 1.08-.5.727-2.2-.274-1.317-.48-1.69-1.06-1.909-1.127-.427-5.761-.345-6.14.11-.174.21-.353 1.143-.397 2.074-.075 1.595-.038 1.703.644 1.87.62.152.724.34.724 1.32v1.142l-3.408.081c-2.76.066-3.438 0-3.568-.337zm11.923-9.814c.2-.52-2.214-12.434-2.598-12.816-.324-.323-.449.073-1.167 3.693-1.155 5.825-1.649 8.939-1.465 9.236.282.455 5.05.352 5.23-.113z" fill="#e0817d"/><path d="M0 157.44V0h217.76v314.88H0V157.44zm211.67 156.25c1.909-.904 3.489-2.434 4.398-4.26l.67-1.34V7.37l-.692-1.526c-.85-1.875-3.015-3.886-4.864-4.514-1.227-.417-10.76-.46-102.6-.46H7.332l-1.772.883c-2.009 1.002-3.034 2.075-4.014 4.2L.868 7.425l.073 150.48.073 150.48.721 1.409c.949 1.852 2.84 3.476 4.875 4.185 1.627.567 2.63.572 102.56.522l100.91-.05 1.592-.754zm-12.545-16.492c-.142-.575-2.328-10.804-4.71-22.041-.938-4.424-1.057-4.703-2.058-4.818-.738-.085-.812-.197-.812-1.248v-1.156h6.371v1.143c0 .98-.103 1.166-.724 1.313-.806.19-.795.133-.469 2.243.156 1.012.413 1.616.767 1.805.653.349 5.777.371 6.32.027.234-.148.453-1.007.544-2.137.145-1.797.12-1.893-.507-1.986-.87-.128-1.285-.837-1.046-1.786l.193-.767h6.928l.192.767c.27 1.075-.21 1.674-1.427 1.778-.678.058-1.092.26-1.185.577-.078.27-1 4.974-2.051 10.455a2163.026 2163.026 0 0 1-2.55 13.144l-.642 3.178-1.485.086c-1.343.078-1.501.023-1.649-.578zm1.972-6.658c.677-2.888 2.413-12.49 2.293-12.683-.21-.34-5.256-.308-5.468.034-.095.153.419 3.11 1.141 6.572.723 3.461 1.314 6.39 1.314 6.51 0 .51.581.16.72-.433zm-2.32-29.465c-1.424-2.328-3.27-4.778-5.438-7.22l-1.73-1.949 1.305-1.392c1.606-1.714 4.432-5.493 5.86-7.837.586-.963 1.228-1.751 1.426-1.751.198 0 .664.552 1.036 1.228 1.05 1.905 3.1 4.753 5.305 7.37l2.012 2.386-.686.831c-3.351 4.06-4.508 5.597-5.798 7.704-.82 1.34-1.649 2.436-1.84 2.436-.192 0-.846-.813-1.453-1.806zm-89.845-73.243c-4.705-7.747-9.949-14.699-15.243-20.21-1.68-1.75-3.055-3.294-3.055-3.432.001-.137 1.378-1.744 3.061-3.571 5.008-5.437 8.984-10.88 16.483-22.57.637-.992 1.289-1.841 1.448-1.886.16-.044 1.006 1.248 1.881 2.871 3.224 5.98 8.558 13.372 15.426 21.376 2.864 3.337 3.13 3.743 2.775 4.228-.215.295-1.607 1.884-3.093 3.53-5.258 5.83-10.491 13.047-14.584 20.112-1.128 1.946-2.195 3.533-2.372 3.526-.178-.01-1.405-1.795-2.727-3.973zM19.8 84.732c-1.134-1.72-2.991-4.196-4.126-5.503-1.135-1.308-2.06-2.478-2.054-2.6.005-.122.849-1.197 1.874-2.388 1.026-1.192 2.813-3.62 3.972-5.396 1.16-1.776 2.267-3.24 2.462-3.25.195-.012.572.401.839.918.863 1.673 3.241 5.036 5.196 7.347 1.05 1.242 1.973 2.408 2.051 2.591.078.184-.747 1.396-1.833 2.693-1.086 1.298-2.715 3.488-3.62 4.867-.906 1.378-1.883 2.808-2.172 3.177l-.526.67-2.063-3.126zm-6.94-24.758c-.09-.23-.12-.787-.068-1.237.083-.716.239-.837 1.241-.963l1.147-.145.797-4.044c.438-2.224 1.59-8.139 2.56-13.144.97-5.005 1.833-9.333 1.918-9.62.126-.428.413-.504 1.635-.433l1.483.086 2.912 13.577c2.859 13.326 2.926 13.58 3.634 13.677.98.136 1.444.568 1.444 1.345 0 1.133-.595 1.327-3.807 1.238l-2.998-.083v-1.152c0-.924.115-1.172.58-1.255.318-.057.686-.206.817-.33.33-.309-.3-3.532-.746-3.814-.64-.405-6.188-.283-6.544.144-.175.21-.354 1.144-.397 2.075-.075 1.595-.038 1.703.644 1.87.62.152.724.34.724 1.32v1.142l-3.408.08c-2.761.067-3.438 0-3.569-.336zm11.935-9.846c.09-.233-.377-3.06-1.038-6.283-1.425-6.955-1.439-7.007-1.782-6.664-.28.28-2.572 11.611-2.573 12.721 0 .626.096.65 2.615.65 2.032 0 2.651-.094 2.778-.424z" fill="#929292"/><path d="M0 157.44V0h217.76v314.88H0V157.44zm212.14 156.22c1.848-.972 3.687-3.022 4.286-4.775.413-1.209.456-15.59.456-151.43V7.365l-.824-1.736c-.917-1.934-2.394-3.386-4.373-4.3L210.367.72H7.087l-1.303.68c-1.775.928-3.372 2.5-4.296 4.23L.717 7.077l-.078 149.64c-.053 103.98.016 150.08.228 151.07.61 2.866 2.79 5.295 5.639 6.28 1.366.471 7.272.497 102.8.437l101.35-.064 1.483-.781zm-13.015-16.466c-.142-.575-2.328-10.804-4.71-22.041-.938-4.424-1.057-4.703-2.058-4.818-.738-.085-.812-.197-.812-1.248v-1.156h6.371v1.143c0 .98-.103 1.166-.724 1.313-.806.19-.795.133-.469 2.243.156 1.012.413 1.616.767 1.806.653.348 5.777.37 6.32.027.234-.149.453-1.008.544-2.138.145-1.797.12-1.893-.507-1.986-.87-.128-1.285-.837-1.046-1.786l.193-.767h6.928l.192.767c.27 1.075-.21 1.674-1.427 1.778-.678.058-1.092.26-1.185.577-.078.27-1 4.974-2.051 10.455a2163.026 2163.026 0 0 1-2.55 13.144l-.642 3.178-1.485.086c-1.343.078-1.501.023-1.649-.578zm1.972-6.658c.677-2.888 2.413-12.49 2.293-12.683-.21-.34-5.256-.308-5.468.034-.095.153.419 3.11 1.141 6.572.723 3.461 1.314 6.39 1.314 6.51 0 .51.581.16.72-.433zm-2.32-29.465c-1.424-2.328-3.27-4.778-5.438-7.22l-1.73-1.949 1.305-1.392c1.606-1.714 4.432-5.493 5.86-7.837.586-.963 1.228-1.751 1.426-1.751.198 0 .664.552 1.036 1.228 1.05 1.905 3.1 4.753 5.305 7.37l2.012 2.386-.686.831c-3.351 4.06-4.508 5.597-5.798 7.704-.82 1.34-1.649 2.436-1.84 2.436-.192 0-.846-.813-1.453-1.806zm-89.845-73.243c-4.705-7.747-9.949-14.699-15.243-20.21-1.68-1.75-3.055-3.294-3.055-3.432.001-.137 1.378-1.744 3.061-3.571 5.008-5.437 8.984-10.88 16.483-22.57.637-.992 1.289-1.841 1.448-1.886.16-.044 1.006 1.248 1.881 2.871 3.224 5.98 8.558 13.372 15.426 21.376 2.864 3.337 3.13 3.743 2.775 4.228-.215.295-1.607 1.884-3.093 3.53-5.258 5.83-10.491 13.047-14.584 20.112-1.128 1.946-2.195 3.533-2.372 3.526-.178-.01-1.405-1.795-2.727-3.973zM19.8 84.728c-1.134-1.72-2.991-4.196-4.126-5.503-1.135-1.308-2.06-2.478-2.054-2.6.005-.122.849-1.197 1.874-2.388 1.026-1.192 2.813-3.62 3.972-5.396 1.16-1.776 2.267-3.24 2.462-3.25.195-.012.572.401.839.918.863 1.673 3.241 5.036 5.196 7.347 1.05 1.242 1.973 2.408 2.051 2.591.078.184-.747 1.396-1.833 2.693-1.086 1.298-2.715 3.488-3.62 4.867-.906 1.378-1.883 2.808-2.172 3.177l-.526.67-2.063-3.126zM12.86 59.97c-.09-.23-.12-.787-.068-1.237.083-.716.239-.837 1.241-.963l1.147-.145.797-4.044c.438-2.224 1.59-8.139 2.56-13.144.97-5.005 1.833-9.333 1.918-9.62.126-.428.413-.504 1.635-.433l1.483.086 2.912 13.577c2.859 13.326 2.926 13.58 3.634 13.677.98.136 1.444.568 1.444 1.345 0 1.133-.595 1.327-3.807 1.238l-2.998-.083v-1.152c0-.924.115-1.172.58-1.255.318-.057.686-.206.817-.33.33-.309-.3-3.532-.746-3.814-.64-.405-6.188-.283-6.544.144-.175.21-.354 1.144-.397 2.075-.075 1.595-.038 1.703.644 1.87.62.152.724.34.724 1.32v1.142l-3.408.08c-2.761.067-3.438 0-3.569-.336zm11.935-9.846c.09-.233-.377-3.06-1.038-6.283-1.425-6.955-1.439-7.007-1.782-6.664-.28.28-2.572 11.611-2.573 12.721 0 .626.096.65 2.615.65 2.032 0 2.651-.094 2.778-.424z" fill="#d96d6d"/><path d="M0 157.44V0h217.76v314.88H0V157.44zm212.14 156.22c1.848-.972 3.687-3.022 4.286-4.775.413-1.209.456-15.59.456-151.43V7.365l-.824-1.736c-.917-1.934-2.394-3.386-4.373-4.3L210.367.72H7.087l-1.303.68c-1.775.928-3.372 2.5-4.296 4.23L.717 7.077l-.078 149.64c-.053 103.98.016 150.08.228 151.07.61 2.866 2.79 5.295 5.639 6.28 1.366.471 7.272.497 102.8.437l101.35-.064 1.483-.781zm-12.747-16.071c-.082-.133-1.397-6.08-2.923-13.216-1.525-7.136-2.842-13.201-2.926-13.477-.084-.276-.568-.609-1.076-.739-.727-.186-.943-.41-1.018-1.055-.054-.461.073-.925.29-1.062.44-.28 5.173-.342 5.863-.077.288.11.458.525.458 1.119 0 .818-.117.967-.87 1.117-.982.196-1.036.527-.476 2.932l.335 1.445 3.386.08c3.846.093 3.773.135 4.1-2.362.202-1.546-.102-2.196-1.027-2.196-.471 0-.547-.173-.471-1.083l.09-1.084h6.66l.09 1.084c.084 1.02.042 1.083-.741 1.083-1.443 0-1.702.48-2.493 4.622-1.898 9.944-4.284 22.148-4.42 22.605-.112.382-.459.505-1.415.505-.696 0-1.334-.108-1.416-.24zm1.815-7.197c.15-.596.763-3.663 1.36-6.815.916-4.83 1.023-5.773.679-5.99-.544-.344-4.636-.331-5.186.015-.422.266.042 3.069 2.068 12.5.355 1.652.71 1.747 1.079.289zm-2.464-29.61c-1.598-2.498-4.61-6.382-5.864-7.565-.495-.467-.9-.996-.9-1.176 0-.18.786-1.229 1.746-2.33.961-1.1 2.747-3.496 3.968-5.323a306.308 306.308 0 0 1 2.337-3.466c.135-.17.363.143 2.639 3.61.938 1.43 2.565 3.603 3.616 4.83 1.05 1.225 1.91 2.37 1.91 2.544 0 .174-.898 1.38-1.993 2.682-1.096 1.301-2.858 3.699-3.915 5.327-1.057 1.629-1.986 2.961-2.063 2.961-.078 0-.744-.942-1.481-2.094zm-89.018-71.93c-4.937-8.067-10.194-15.15-15.151-20.41a397.48 397.48 0 0 1-3.323-3.558l-.71-.785 2-2.104c5.696-5.992 10.195-12.022 16.925-22.686 1.028-1.629 2-2.96 2.159-2.958.16 0 .941 1.202 1.737 2.67 3.208 5.909 10.355 15.734 16.268 22.365 1.166 1.307 2.117 2.545 2.113 2.752-.003.207-1.065 1.546-2.36 2.976-5.956 6.576-12.067 15.039-16.423 22.743-.515.91-1.046 1.722-1.18 1.805-.134.083-1.059-1.182-2.055-2.81zM19.613 84.282c-1.194-1.788-3.032-4.18-4.087-5.315-1.054-1.136-1.916-2.156-1.916-2.266 0-.11.728-1 1.618-1.979.89-.978 2.738-3.436 4.106-5.462 1.369-2.026 2.563-3.677 2.653-3.67.09.01.86 1.152 1.711 2.545.85 1.394 2.51 3.695 3.686 5.115 3.064 3.698 2.965 3.366 1.48 4.966-1.643 1.771-4.516 5.664-5.69 7.711-.506.883-1.026 1.605-1.156 1.605-.13 0-1.212-1.463-2.406-3.25zm-6.51-24.096c-.433-.175-.486-1.72-.067-1.978.161-.1.65-.246 1.085-.324.436-.078.892-.24 1.014-.36.223-.22.935-3.725 3.675-18.09.818-4.29 1.609-8.092 1.757-8.45.216-.52.5-.65 1.424-.65.806 0 1.234.153 1.418.506.145.278 1.458 6.16 2.918 13.072 1.46 6.911 2.771 12.846 2.913 13.189.15.361.631.704 1.146.817.772.17.887.319.887 1.152 0 1.193-.283 1.308-3.228 1.308-2.674 0-3.432-.295-3.432-1.335 0-.56.216-.818.9-1.074.888-.331.896-.354.717-1.883-.311-2.656-.288-2.641-4.071-2.641-2.098 0-3.375.116-3.5.319-.11.175-.263 1.132-.343 2.125l-.146 1.807.905.315c.69.24.905.487.905 1.042 0 .423-.234.852-.56 1.026-.558.298-5.63.384-6.317.107zm11.904-9.855c.121-.196-2.16-11.738-2.603-13.165-.113-.365-.26-.44-.462-.239-.355.354-2.873 13.038-2.657 13.386.189.305 5.534.322 5.722.018z" fill="#d54e4f"/><path d="M0 157.44V0h217.76v314.88H0V157.44zm212.14 156.22c1.848-.972 3.687-3.022 4.286-4.775.413-1.209.456-15.59.456-151.43V7.365l-.824-1.736c-.917-1.934-2.394-3.386-4.373-4.3L210.367.72H7.087l-1.303.68c-1.775.928-3.372 2.5-4.296 4.23L.717 7.077l-.078 149.64c-.053 103.98.016 150.08.228 151.07.61 2.866 2.79 5.295 5.639 6.28 1.366.471 7.272.497 102.8.437l101.35-.064 1.483-.781zm-12.548-16.191c-.152-.199-.427-1.076-.61-1.95-2.016-9.63-5.35-25.034-5.454-25.204-.074-.12-.517-.217-.986-.217-.78 0-.851-.085-.851-1.01v-1.012h3.016c3.169 0 3.368.086 3.127 1.345a.895.895 0 0 1-.745.734c-.542.077-.619.27-.605 1.532.008.795.108 1.802.222 2.239l.208.794h3.623c4.146 0 3.972.117 4.013-2.695.024-1.633-.021-1.758-.698-1.922-.57-.138-.724-.357-.724-1.029v-.853h6.66v.866c0 .78-.1.876-1.013.96-.558.05-1.113.189-1.235.307-.121.118-1.393 6.244-2.826 13.614-1.496 7.692-2.758 13.496-2.964 13.627-.555.352-1.85.277-2.158-.125zm1.703-6.736c.12-.466.73-3.512 1.355-6.77.783-4.083 1.045-6.033.844-6.282-.353-.437-5.597-.51-5.862-.081-.145.235 2.13 12.048 2.633 13.674.23.74.77.456 1.03-.541zm-3.151-30.978c-.99-1.54-2.793-3.945-4.008-5.343l-2.208-2.542 1.29-1.376c1.573-1.678 4.343-5.384 5.7-7.627.552-.911 1.102-1.657 1.224-1.657.122 0 .445.358.717.795 1.88 3.02 3.412 5.172 5.256 7.383l2.122 2.545-1.106 1.308c-2.165 2.558-4.597 5.855-5.596 7.585-.557.965-1.143 1.75-1.302 1.742-.16-.01-1.1-1.273-2.09-2.813zm-89.06-72.203c-5.062-8.16-9.98-14.63-15.337-20.181-1.553-1.61-2.824-3.017-2.824-3.127 0-.111 1.46-1.822 3.244-3.801 5.08-5.638 10.068-12.437 15.132-20.628.933-1.51 1.854-2.918 2.046-3.13.281-.309.707.256 2.177 2.89 3.472 6.222 8.49 13.163 14.824 20.51 1.872 2.173 3.405 4.024 3.405 4.115 0 .09-.994 1.238-2.209 2.55-3.466 3.744-8.006 9.515-11.08 14.085-2.721 4.046-5.89 9.196-6.276 10.201-.103.268-.289.488-.412.488-.124 0-1.335-1.788-2.69-3.972zM19.908 84.432c-1.038-1.556-2.814-3.898-3.947-5.206-1.133-1.308-2.06-2.452-2.06-2.544 0-.092.792-1.102 1.76-2.244.968-1.143 2.75-3.54 3.962-5.328 2-2.952 2.676-3.709 2.676-2.999 0 .47 3.814 5.946 5.558 7.98.954 1.113 1.801 2.184 1.881 2.38.081.194-.529 1.104-1.354 2.021-.825.917-2.548 3.227-3.828 5.134-1.28 1.907-2.424 3.504-2.544 3.55-.12.046-1.066-1.189-2.104-2.744zm-6.875-25.36c0-.961.05-1.011 1.003-1.011.661 0 1.094-.173 1.27-.506.147-.278 1.42-6.458 2.83-13.733 2.421-12.5 2.598-13.237 3.218-13.392 1.402-.351 1.986.072 2.34 1.698.183.837 1.446 6.787 2.806 13.222 1.361 6.434 2.583 11.894 2.715 12.133.132.238.617.5 1.078.58.704.124.838.285.838 1.011v.864l-3.113.082-3.113.082v-1.02c0-.779.12-1.023.507-1.026 1.147-.01 1.283-.367.926-2.412-.233-1.335-.5-2.016-.866-2.212-.577-.308-5.233-.382-6.289-.1-.743.199-.927.738-1.018 2.995-.063 1.537-.039 1.592.732 1.68.696.08.796.216.796 1.083v.992h-6.66v-1.01zm12.059-8.673c.16-.415-2.316-13.177-2.665-13.741-.235-.38-.622-.323-.79.114-.396 1.027-2.566 13.251-2.42 13.63.247.643 5.628.64 5.875 0z" fill="#6b6b6b"/><path d="M0 157.44V0h217.76v314.88H0V157.44zm213.2 155.91c1.776-1.22 2.856-2.598 3.527-4.498.4-1.133.446-16.895.446-151.25 0-136.41-.042-150.11-.461-151.33-.615-1.8-2.787-4.163-4.6-5.006l-1.454-.675H6.778l-1.504.748c-1.67.83-3.32 2.547-4.14 4.307-.522 1.122-.538 5.59-.538 151.95 0 146 .017 150.83.535 151.97 1.022 2.245 3.298 4.272 5.347 4.762.5.12 46.858.198 103.02.174l102.11-.044 1.6-1.099zm-13.607-15.873c-.152-.199-.427-1.076-.61-1.95-2.016-9.63-5.35-25.034-5.454-25.204-.074-.12-.517-.217-.986-.217-.78 0-.851-.085-.851-1.01v-1.012h3.016c3.169 0 3.368.086 3.127 1.345a.895.895 0 0 1-.745.734c-.542.076-.619.27-.605 1.532.008.795.108 1.802.222 2.239l.208.794h3.623c4.146 0 3.972.117 4.013-2.695.024-1.633-.021-1.758-.698-1.922-.57-.138-.724-.357-.724-1.029v-.853h6.66v.866c0 .78-.1.876-1.013.96-.558.05-1.113.189-1.235.307-.121.118-1.393 6.244-2.826 13.614-1.496 7.692-2.758 13.496-2.964 13.627-.555.352-1.85.277-2.158-.125zm1.703-6.736c.12-.466.73-3.512 1.355-6.77.783-4.083 1.045-6.033.844-6.282-.353-.437-5.597-.51-5.862-.081-.145.235 2.13 12.048 2.633 13.674.23.74.77.456 1.03-.541zm-3.151-30.978c-.99-1.54-2.793-3.945-4.008-5.343l-2.208-2.542 1.29-1.376c1.573-1.678 4.343-5.384 5.7-7.627.552-.911 1.102-1.657 1.224-1.657.122 0 .445.358.717.795 1.88 3.02 3.412 5.172 5.256 7.383l2.122 2.545-1.106 1.308c-2.165 2.558-4.597 5.855-5.596 7.585-.557.965-1.143 1.75-1.302 1.742-.16-.01-1.1-1.273-2.09-2.813zm-89.06-72.203c-5.062-8.16-9.98-14.63-15.337-20.181-1.553-1.61-2.824-3.017-2.824-3.127 0-.111 1.46-1.822 3.244-3.801 5.08-5.638 10.068-12.437 15.132-20.628.933-1.51 1.854-2.918 2.046-3.13.281-.309.707.256 2.177 2.89 3.472 6.222 8.49 13.163 14.824 20.51 1.872 2.173 3.405 4.024 3.405 4.115 0 .09-.994 1.238-2.209 2.55-3.466 3.744-8.006 9.515-11.08 14.085-2.721 4.046-5.89 9.196-6.276 10.201-.103.268-.289.488-.412.488-.124 0-1.335-1.788-2.69-3.972zM19.909 84.44c-1.038-1.556-2.814-3.898-3.947-5.206-1.133-1.308-2.06-2.452-2.06-2.544 0-.092.792-1.102 1.76-2.244.968-1.143 2.75-3.54 3.962-5.328 2-2.952 2.676-3.709 2.676-2.999 0 .47 3.814 5.946 5.558 7.98.954 1.113 1.801 2.184 1.881 2.38.081.194-.529 1.104-1.354 2.021-.825.917-2.548 3.227-3.828 5.134-1.28 1.907-2.424 3.504-2.544 3.55-.12.046-1.066-1.189-2.104-2.744zm-6.875-25.36c0-.961.05-1.011 1.003-1.011.661 0 1.094-.173 1.27-.506.147-.278 1.42-6.458 2.83-13.733 2.421-12.5 2.598-13.237 3.218-13.392 1.402-.351 1.986.072 2.34 1.698.183.837 1.446 6.787 2.806 13.222 1.361 6.434 2.583 11.894 2.715 12.133.132.238.617.5 1.078.58.704.124.838.285.838 1.011v.864l-3.113.082-3.113.082v-1.02c0-.779.12-1.023.507-1.026 1.147-.01 1.283-.367.926-2.412-.233-1.335-.5-2.016-.866-2.212-.577-.308-5.233-.382-6.289-.1-.743.199-.927.738-1.018 2.995-.063 1.537-.039 1.592.732 1.68.696.08.796.216.796 1.083v.992h-6.66v-1.01zm12.059-8.673c.16-.415-2.316-13.177-2.665-13.741-.235-.38-.622-.323-.79.114-.396 1.027-2.566 13.251-2.42 13.63.247.643 5.628.64 5.875 0z" fill="#d22d2e"/><path d="M0 157.44V0h217.76v314.88H0V157.44zm213.2 155.91c1.776-1.22 2.856-2.598 3.527-4.498.4-1.133.446-16.895.446-151.25 0-136.41-.042-150.11-.461-151.33-.615-1.8-2.787-4.163-4.6-5.006l-1.454-.675H6.778l-1.504.748c-1.67.83-3.32 2.547-4.14 4.307-.522 1.122-.538 5.59-.538 151.95 0 146 .017 150.83.535 151.97 1.022 2.245 3.298 4.272 5.347 4.762.5.12 46.858.198 103.02.174l102.11-.044 1.6-1.099zm-13.49-16.017c-.155-.271-.228-.602-3.26-14.804-1.374-6.434-2.62-11.926-2.77-12.205-.149-.279-.592-.507-.985-.507-.568 0-.714-.147-.714-.722v-.722h2.916c2.843 0 2.914.016 2.823.638-.058.401-.361.704-.816.814-.691.167-.721.263-.66 2.109.102 3.107.069 3.083 4.254 3.083 2.506 0 3.664-.108 3.874-.36.166-.2.394-1.304.508-2.456l.206-2.094-.906-.181c-.71-.142-.906-.33-.906-.867 0-.68.026-.686 3.185-.686h3.186v.722c0 .628-.128.722-.978.722-.538 0-1.116.166-1.285.369-.169.203-1.422 6.15-2.786 13.216-1.363 7.066-2.606 13.14-2.763 13.498-.202.464-.53.65-1.142.65-.471 0-.913-.097-.981-.217zm1.495-5.489c.32-.603 2.648-12.67 2.648-13.72 0-.956-.41-1.084-3.463-1.084-1.783 0-2.644.117-2.87.39-.245.293.033 2.117 1.125 7.398.797 3.854 1.521 7.124 1.609 7.265.252.408.66.3.951-.248zm-3.218-32.787c-1.214-1.787-3.005-4.124-3.98-5.193l-1.77-1.944 1.267-1.378c1.565-1.7 3.422-4.168 5.272-7.002 1.239-1.897 1.445-2.093 1.722-1.626 1.29 2.169 3.745 5.61 5.434 7.616l2.013 2.388-2.127 2.528c-1.17 1.391-2.889 3.729-3.82 5.195-.932 1.466-1.719 2.666-1.749 2.666-.03 0-1.048-1.462-2.262-3.25zm-87.37-69.475c-5.096-8.558-10.88-16.323-16.434-22.06-1.633-1.686-2.969-3.157-2.969-3.268 0-.111 1.211-1.526 2.692-3.145 4.889-5.345 9.889-12.04 14.514-19.434 3.454-5.522 2.984-5.315 4.797-2.113 3.653 6.448 9.158 14.056 15.24 21.058l3.03 3.49-.564.784c-.31.431-.98 1.174-1.488 1.65-1.14 1.07-5.374 6.14-7.72 9.244-2.307 3.053-5.912 8.497-8.177 12.35-1.005 1.708-1.85 3.106-1.88 3.106-.028 0-.497-.748-1.04-1.661zM20.449 84.802c-1.417-2.23-4.552-6.234-5.64-7.201-.34-.303-.619-.673-.619-.822 0-.15.701-1.072 1.558-2.05.857-.978 2.607-3.314 3.89-5.192l2.331-3.414.494.814a65.886 65.886 0 0 0 5.167 7.272c1.387 1.68 1.921 2.537 1.738 2.786-.146.197-1.021 1.253-1.945 2.346-.924 1.093-2.488 3.248-3.475 4.789-.987 1.54-1.87 2.807-1.961 2.816-.092.01-.784-.956-1.538-2.144zm-7.256-25.258c-.334-.54.205-1.181.993-1.181.441 0 .967-.198 1.168-.44.201-.242.877-3.07 1.5-6.283.625-3.214 1.772-9.126 2.549-13.138.778-4.012 1.494-7.425 1.592-7.583.303-.49 1.839-.332 2.134.218.15.279.409 1.222.576 2.095.306 1.598 1.134 5.53 3.07 14.587.577 2.7 1.295 6.067 1.595 7.48.56 2.633.828 3.052 1.964 3.06.5 0 .651.17.651.726 0 .722 0 .722-2.896.722-2.895 0-2.895 0-2.895-.722 0-.403.168-.722.379-.722.208 0 .61-.17.894-.376.47-.343.484-.543.159-2.24-.196-1.024-.485-2.024-.64-2.223-.2-.254-1.346-.361-3.875-.361-4.093 0-3.888-.136-4.273 2.843-.217 1.674.079 2.357 1.02 2.357.388 0 .545.208.545.722v.722h-3.024c-1.662 0-3.096-.118-3.186-.263zm12.005-8.842c.299-.359.11-1.68-1.032-7.24-1.39-6.77-1.815-8.074-2.431-7.47-.172.17-.84 3.03-1.486 6.356-1.577 8.128-1.59 8.223-1.106 8.529.222.14 1.593.257 3.047.26 2.015 0 2.73-.1 3.008-.435z" fill="#d30202"/><path d="M0 157.44V0h217.76v314.88H0V157.44zm213.2 155.91c1.776-1.22 2.856-2.598 3.527-4.498.4-1.133.446-16.895.446-151.25 0-136.41-.042-150.11-.461-151.33-.615-1.8-2.787-4.163-4.6-5.006l-1.454-.675H6.778l-1.504.748c-1.67.83-3.32 2.547-4.14 4.307-.522 1.122-.538 5.59-.538 151.95 0 146 .017 150.83.535 151.97 1.022 2.245 3.298 4.272 5.347 4.762.5.12 46.858.198 103.02.174l102.11-.044 1.6-1.099z" fill="#030303"/></svg>