<svg xmlns="http://www.w3.org/2000/svg" width="232.267" height="335.867" viewBox="0 0 217.75 314.875"><defs><clipPath id="a"><path d="M0 0h612v792H0V0z" clip-rule="evenodd"/></clipPath><clipPath id="b"><path d="M0 0h612v792H0V0z" clip-rule="evenodd"/></clipPath><clipPath id="c"><path d="M0 0h612v792H0V0z" clip-rule="evenodd"/></clipPath><clipPath id="d"><path d="M0 0h612v792H0V0z" clip-rule="evenodd"/></clipPath><clipPath id="e"><path d="M0 0h612v792H0V0z" clip-rule="evenodd"/></clipPath><clipPath id="f"><path d="M0 0h612v792H0V0z" clip-rule="evenodd"/></clipPath><clipPath id="g"><path d="M0 0h612v792H0V0z" clip-rule="evenodd"/></clipPath><clipPath id="h"><path d="M0 0h612v792H0V0z" clip-rule="evenodd"/></clipPath><clipPath id="i"><path d="M0 0h612v792H0V0z" clip-rule="evenodd"/></clipPath><clipPath id="j"><path d="M0 0h612v792H0V0z" clip-rule="evenodd"/></clipPath><clipPath id="k"><path d="M0 0h612v792H0V0z" clip-rule="evenodd"/></clipPath><clipPath id="l"><path d="M0 0h612v792H0V0z" clip-rule="evenodd"/></clipPath><clipPath id="m"><path d="M0 0h612v792H0V0z" clip-rule="evenodd"/></clipPath><clipPath id="n"><path d="M0 0h612v792H0V0z" clip-rule="evenodd"/></clipPath><clipPath id="o"><path d="M0 0h612v792H0V0z" clip-rule="evenodd"/></clipPath><clipPath id="p"><path d="M0 0h612v792H0V0z" clip-rule="evenodd"/></clipPath><clipPath id="q"><path d="M0 0h612v792H0V0z" clip-rule="evenodd"/></clipPath><clipPath id="r"><path d="M0 0h612v792H0V0z" clip-rule="evenodd"/></clipPath><clipPath id="s"><path d="M0 0h612v792H0V0z" clip-rule="evenodd"/></clipPath><clipPath id="t"><path d="M0 0h612v792H0V0z" clip-rule="evenodd"/></clipPath><clipPath id="u"><path d="M0 0h612v792H0V0z" clip-rule="evenodd"/></clipPath><clipPath id="v"><path d="M0 0h612v792H0V0z" clip-rule="evenodd"/></clipPath><clipPath id="w"><path d="M0 0h612v792H0V0z" clip-rule="evenodd"/></clipPath><clipPath id="x"><path d="M0 0h612v792H0V0z" clip-rule="evenodd"/></clipPath><clipPath id="y"><path d="M0 0h612v792H0V0z" clip-rule="evenodd"/></clipPath><clipPath id="z"><path d="M0 0h612v792H0V0z" clip-rule="evenodd"/></clipPath><clipPath id="A"><path d="M0 0h612v792H0V0z" clip-rule="evenodd"/></clipPath></defs><path d="M0 157.438V0h217.75v314.875H0V157.437z" fill="#fdfdfd"/><path d="M0 157.438V0h217.75v314.875H0V157.437zm210.688 156.144c1.755-.52 3.61-2.051 4.675-3.859l.794-1.348.074-150.21c.066-134.501.027-150.35-.372-151.547-.617-1.855-2.166-3.546-4.125-4.506l-1.657-.812H7.384l-1.303.61c-1.664.78-3.384 2.496-4.166 4.156l-.612 1.3-.074 147.11-.074 147.11h.59c.324 0 .67.209.768.463.202.527-.386 1.002-.967.78-.298-.114-.388.257-.388 1.601 0 4.014 1.303 6.718 4.014 8.333.854.508 1.897.977 2.317 1.042.42.064 45.987.136 101.261.16 87.894.038 100.678-.01 101.938-.383zM7 305.729c.122-.632.963-.721.963-.102 0 .236-.24.475-.533.532-.387.074-.505-.043-.43-.43zm185.395-10.328c-1.396-.606-2.95-2.629-3.323-4.324-.217-.989-.293-4.83-.23-11.59l.097-10.11.724-1.287c.398-.708 1.27-1.67 1.936-2.137 1.004-.703 1.579-.872 3.33-.98 1.91-.116 2.272-.047 3.7.703 1.292.68 1.732 1.118 2.398 2.39l.816 1.558-.082 11.19-.082 11.19-.872 1.253c-1.242 1.782-2.911 2.555-5.487 2.54-1.12-.01-2.437-.184-2.925-.396zm4.775-4.397c.58-.737.6-1.083.6-10.65 0-9.566-.02-9.913-.6-10.65-.747-.946-2.454-1.048-3.494-.208l-.683.552v20.612l.683.553c1.04.84 2.747.738 3.494-.21zm7.453 4.613c-.106-.106-.193-6.982-.193-15.28 0-16.854-.196-15.438 2.138-15.438.671 0 1.377.156 1.569.347.26.26.347 3.988.347 14.998 0 8.058-.08 14.857-.176 15.108-.132.343-.589.457-1.834.457-.912 0-1.745-.087-1.85-.192zM55.677 282.449c-.153-.199-.975-1.531-1.826-2.961-5.053-8.493-10.626-15.836-17.126-22.57-1.247-1.291-2.267-2.428-2.267-2.526 0-.098 1.122-1.38 2.493-2.851 5.377-5.768 11.086-13.483 16.898-22.837 1.456-2.344 2.261-3.38 2.58-3.319.253.05 1.092 1.258 1.863 2.686 3.805 7.046 9.018 14.275 16.479 22.85 1.398 1.607 2.542 3.149 2.542 3.426 0 .277-1.19 1.822-2.643 3.434-6.397 7.09-12.133 15.07-16.591 23.079-1.08 1.941-1.775 2.4-2.402 1.589zm103.247-3.759c-4.918-8.07-9.804-14.537-15.23-20.16-1.987-2.061-3.546-3.918-3.546-4.224 0-.3.792-1.322 1.76-2.27 4.572-4.479 10.34-12.057 16.078-21.122 1.864-2.945 3.589-5.43 3.833-5.524a.59.59 0 0 1 .689.243c.135.227 1.033 1.842 1.994 3.59 3.425 6.226 8.468 13.194 15.146 20.928 1.845 2.137 3.355 4.055 3.355 4.263 0 .207-1.06 1.514-2.356 2.904-5.545 5.945-13.01 16.204-16.61 22.824-1.082 1.989-1.595 2.662-2.028 2.662-.434 0-1.204-1.027-3.085-4.114zm39.282-18.774c-.252-.357-1.203-1.78-2.112-3.162-.91-1.381-2.664-3.683-3.898-5.115-1.234-1.432-2.244-2.817-2.244-3.077 0-.26.797-1.338 1.772-2.395.974-1.057 2.88-3.59 4.233-5.628 2.463-3.708 3.16-4.412 3.608-3.64 1.749 3.018 4.011 6.297 5.951 8.628 1.314 1.578 2.389 3.003 2.389 3.166 0 .163-.734 1.114-1.63 2.113-1.87 2.081-3.98 4.99-5.667 7.81-.641 1.073-1.34 1.95-1.554 1.95-.213 0-.595-.292-.848-.65zm-92.175-14.01c-5.059-8.265-9.93-14.712-15.42-20.408-1.74-1.807-3.164-3.508-3.164-3.782s.934-1.492 2.075-2.706c5.699-6.067 10.767-12.899 17.023-22.949 1.442-2.316 2.267-3.38 2.577-3.32.251.048 1.03 1.127 1.733 2.397 3.869 7 9.252 14.551 15.651 21.952 1.923 2.225 3.499 4.274 3.502 4.554.003.28-1.373 2.052-3.056 3.938-5.8 6.496-11.055 13.76-15.336 21.19-1.332 2.313-2.118 3.395-2.466 3.395-.346 0-1.347-1.367-3.119-4.261zm-50.13-24.684c-.179-.207-1.461-2.229-2.849-4.493-4.892-7.98-9.364-13.874-15.432-20.34-1.74-1.853-3.162-3.449-3.162-3.546 0-.097 1.19-1.438 2.645-2.98 5.191-5.5 10.122-12.093 15.487-20.701 3.776-6.06 3.913-6.137 5.455-3.083 3.241 6.422 9.195 14.757 16.567 23.193 1.485 1.7 2.7 3.328 2.7 3.619 0 .29-.944 1.565-2.098 2.832-6.34 6.96-10.392 12.44-15.576 21.06-1.522 2.53-2.913 4.65-3.09 4.709-.177.059-.468-.062-.647-.27zm105.605-.035c-.229-.187-1.24-1.706-2.248-3.374-4.992-8.263-10.379-15.425-15.949-21.206-1.739-1.804-3.161-3.437-3.161-3.628 0-.19 1.517-2.019 3.37-4.063 5.271-5.81 10.051-12.327 15.736-21.454 2.676-4.297 2.751-4.302 4.875-.347 3.308 6.159 10.172 15.591 16.817 23.11 1.124 1.271 2.046 2.471 2.05 2.667.004.195-.92 1.365-2.054 2.6-6.45 7.024-13.169 16.307-17.353 23.975-1.058 1.938-1.437 2.251-2.083 1.72zm-107.66-66.351c-4.838-8.042-10.305-15.336-15.799-21.072-1.997-2.085-3.588-3.903-3.537-4.04.05-.138 1.549-1.856 3.329-3.817 6.24-6.878 8.62-10.175 17.648-24.439.686-1.083 1.336-.794 2.277 1.012 3.881 7.452 10.411 16.493 18.17 25.155.758.847 1.379 1.801 1.379 2.12 0 .326-.97 1.62-2.204 2.939-5.877 6.283-12.417 15.315-16.925 23.372-.809 1.444-1.43 2.238-1.753 2.238-.33 0-1.21-1.18-2.586-3.468zm107.526 3.12c-.163-.206-1.67-2.584-3.35-5.285-4.766-7.665-9.37-13.66-15.229-19.83-1.455-1.533-2.645-2.943-2.645-3.134 0-.191 1.122-1.537 2.495-2.991 5.138-5.444 10.244-12.274 15.811-21.152 1.881-2.999 3.151-4.745 3.451-4.746.306 0 1.116 1.158 2.274 3.25 3.653 6.6 8.453 13.3 15.038 20.987 2.096 2.448 3.773 4.61 3.726 4.807-.047.196-1.633 2.094-3.526 4.217a125.51 125.51 0 0 0-14.968 20.759c-1.866 3.25-2.481 3.872-3.077 3.118zm-52.593-29.46a644.693 644.693 0 0 1-2.37-3.846c-4.943-8.062-10.087-14.855-15.519-20.492-1.734-1.8-3.153-3.432-3.153-3.628 0-.196 1.04-1.453 2.313-2.794 5.114-5.39 10.348-12.364 15.785-21.03 2.547-4.062 3.3-5.063 3.759-5 .397.056 1.05.966 2.125 2.969 3.307 6.158 10.171 15.591 16.817 23.11 1.123 1.27 2.045 2.485 2.05 2.698.003.213-1.382 1.934-3.078 3.824-5.743 6.398-11.114 13.78-15.221 20.921-1.188 2.066-2.369 3.796-2.623 3.845-.255.05-.653-.21-.885-.577zM55.49 95.835c-.224-.358-1.453-2.34-2.73-4.405-4.671-7.556-8.916-13.168-14.383-19.019-4.551-4.87-4.337-4.152-1.974-6.616C42.17 59.78 47.56 52.55 54.008 42.176c.939-1.51 1.83-2.83 1.983-2.934.555-.382 1.103.16 2.054 2.032 3.243 6.388 9.18 14.7 16.552 23.171 1.494 1.717 2.714 3.355 2.712 3.642-.002.287-1.127 1.756-2.5 3.266-6.006 6.605-11.538 14.184-15.886 21.76-2.041 3.558-2.62 4.017-3.433 2.722zm104.891-1.011c-1.701-2.986-5.426-8.699-7.824-12.002-3.094-4.26-5.794-7.466-9.458-11.232-1.69-1.737-2.96-3.274-2.904-3.52.053-.239 1.51-1.992 3.237-3.895 5.342-5.886 10.303-12.63 15.794-21.469 2.046-3.294 2.546-3.85 3.117-3.464.154.104.969 1.49 1.81 3.079 3.109 5.872 8.747 13.71 15.479 21.52 1.848 2.146 3.363 4.064 3.366 4.265.003.2-.931 1.37-2.075 2.6-6.115 6.575-12.174 14.857-16.597 22.686-2.13 3.771-2.529 3.916-3.945 1.432zM19.926 84.853c-.243-.196-1.195-1.526-2.117-2.956-1.712-2.658-4.404-6.091-5.76-7.345-.416-.385-.756-.942-.756-1.238 0-.295.862-1.54 1.916-2.766 1.054-1.226 2.971-3.82 4.261-5.767 1.443-2.177 2.532-3.539 2.83-3.539.292 0 .972.826 1.723 2.094 1.405 2.371 3.563 5.326 5.743 7.86.814.946 1.48 1.825 1.48 1.953 0 .128-1.093 1.55-2.429 3.16-1.336 1.61-3.187 4.149-4.113 5.643-1.963 3.165-2.176 3.387-2.778 2.9zm-9.047-27.82c-.401-.401-.455-2.162-.455-14.998 0-8 .08-14.75.176-15.001.133-.345.592-.457 1.872-.457 1.395 0 1.75.102 2.004.573.208.389.281 5.277.227 15.177-.07 12.607-.14 14.64-.514 14.877-.7.441-2.805.333-3.31-.171zm10.114.023c-1.421-.498-3.108-2.315-3.567-3.843-.236-.785-.34-4.353-.336-11.504.006-9.798.04-10.437.596-11.66 1.19-2.62 2.652-3.473 5.949-3.473 2.802 0 4.324.778 5.53 2.825l.805 1.364.085 10.778.086 10.778-.702 1.53c-.39.85-1.137 1.857-1.679 2.266-1.78 1.34-4.53 1.721-6.767.939zm4.357-4.323l.71-.71v-9.94c0-9.619-.019-9.965-.6-10.701-.484-.614-.843-.761-1.86-.761-1.018 0-1.378.147-1.862.76-.58.737-.6 1.083-.6 10.702v9.94l.71.71c.491.49 1.033.709 1.751.709s1.26-.22 1.75-.71zm185.523-31.279c-.439-.152-.48-1.126-.06-1.385.368-.227 1.146.37 1.146.879 0 .426-.563.688-1.086.506z" fill="#fae8e8"/><path d="M0 157.438V0h217.75v314.875H0V157.437zm210.72 156.134c1.94-.574 4.147-2.553 4.965-4.45l.62-1.437-.074-150.448c-.07-143.266-.098-150.493-.586-151.383-.864-1.579-2.261-2.966-3.805-3.778l-1.474-.776H7.384l-1.33.613C4.36 2.696 2.703 4.35 1.919 6.041l-.615 1.325-.074 147.09-.074 147.09.65.092c.964.137 1.05 1.104.098 1.104-.727 0-.745.046-.745 1.97 0 4.528 1.948 7.54 5.757 8.897.849.303 20.158.376 101.69.386 88.935.011 100.814-.038 102.115-.423zm-203.77-7.78c0-.228.115-.487.256-.574.32-.197.968.54.706.8-.344.344-.963.2-.963-.226zm187.2-10.107c-.158-.063-.645-.192-1.08-.288-1.116-.245-2.824-1.83-3.447-3.196-.478-1.051-.527-2.125-.533-11.587-.007-10.99.054-11.588 1.353-13.334 1.065-1.431 2.615-2.092 4.908-2.092 3.358 0 5.416 1.54 6.183 4.628.218.876.296 4.623.235 11.41l-.09 10.106-.724 1.287c-1.043 1.856-2.634 2.868-4.777 3.04-.956.077-1.868.088-2.027.026zm2.953-4.328l.812-.698v-20.61l-.812-.697c-1.096-.94-2.595-.935-3.545.012l-.71.709v10.213c0 7.736.088 10.323.362 10.666.999 1.25 2.702 1.426 3.893.405zm7.782 3.998c-.401-.4-.455-2.16-.455-14.986 0-12.212.066-14.587.412-14.873.23-.191 1.028-.302 1.81-.252l1.398.089.075 15.003c.059 11.81-.003 15.052-.29 15.233-.625.397-2.473.262-2.95-.214zm-43.194-12.761c-.175-.12-1.139-1.583-2.141-3.25-4.898-8.152-10.359-15.427-15.816-21.074-1.813-1.876-3.297-3.632-3.297-3.902s1.368-1.943 3.04-3.718c1.671-1.775 4.157-4.658 5.523-6.405 2.277-2.914 8.899-12.65 11.477-16.874.59-.967 1.242-1.758 1.448-1.758.206 0 1.09 1.333 1.967 2.96 3.534 6.568 9.721 15.074 16.709 22.97 1.162 1.313 2.112 2.577 2.112 2.81 0 .232-1.163 1.692-2.585 3.245-5.38 5.877-10.18 12.351-14.393 19.411-3.087 5.175-3.603 5.886-4.044 5.585zM53.32 278.238c-4.856-7.939-9.882-14.56-15.64-20.605-1.612-1.693-2.932-3.197-2.932-3.344 0-.146.344-.581.764-.967 1.628-1.493 6.922-7.695 9.415-11.03 2.683-3.588 5.972-8.484 9.217-13.719 1.01-1.628 2.004-2.96 2.21-2.96.205 0 .855.877 1.444 1.95 3.987 7.256 9.275 14.745 15.449 21.882 1.787 2.065 3.446 4.045 3.687 4.399.421.619.32.776-2.675 4.112-5.762 6.42-11.857 14.836-15.756 21.757-1.028 1.823-1.754 2.808-2.072 2.808-.32 0-1.397-1.482-3.11-4.283zm143.198-21.21c-1.186-1.788-3.156-4.386-4.38-5.775-1.425-1.618-2.144-2.655-2.004-2.889.12-.2.944-1.174 1.829-2.165.885-.99 2.726-3.46 4.091-5.489 1.365-2.028 2.672-3.724 2.905-3.768.265-.051.887.73 1.655 2.077 1.25 2.191 3.466 5.207 5.746 7.82.691.792 1.256 1.645 1.256 1.897 0 .25-.403.838-.897 1.304-1.335 1.263-4.976 6.162-6.194 8.335-.586 1.046-1.243 1.902-1.459 1.902-.216 0-1.363-1.462-2.548-3.25zm-89.544-9.967c-5-8.361-10.728-16.007-16.42-21.913-2.343-2.432-3.143-3.441-2.944-3.715.15-.208 1.62-1.854 3.267-3.66 5.19-5.69 9.589-11.671 15.328-20.842 1.673-2.673 2.64-3.955 2.939-3.897.245.047 1.148 1.384 2.006 2.971 3.274 6.057 9.051 14.125 15.076 21.054 3.602 4.142 3.766 4.341 3.778 4.595.006.127-1.375 1.78-3.068 3.672-5.764 6.443-11.855 14.86-15.733 21.744-1.01 1.793-1.756 2.808-2.064 2.808-.3 0-1.113-1.057-2.165-2.817zm-51.14-26.287c-.237-.278-1.123-1.676-1.97-3.106-4.312-7.285-9.765-14.582-15.594-20.869-1.937-2.089-3.522-3.884-3.522-3.988 0-.105 1.19-1.444 2.646-2.977 4.872-5.133 9.504-11.282 14.777-19.617 3.248-5.134 3.943-6.135 4.26-6.135.143 0 1.07 1.462 2.06 3.25 3.65 6.596 8.453 13.3 15.025 20.972 2.089 2.44 3.798 4.519 3.798 4.622 0 .103-1.24 1.553-2.754 3.221-5.368 5.912-10.497 12.835-14.468 19.526-3.435 5.788-3.319 5.606-3.588 5.606-.131 0-.432-.227-.67-.505zm103.556-3.178c-5.017-8.255-10.196-15.139-15.75-20.938-1.786-1.863-3.204-3.57-3.152-3.794.052-.223 1.514-1.977 3.248-3.897 5.397-5.976 9.509-11.567 15.329-20.841 1.346-2.145 2.62-3.9 2.83-3.9.21 0 .957 1.04 1.66 2.311 4.307 7.792 9.592 15.07 17.517 24.12.903 1.03 1.642 2.054 1.642 2.273 0 .22-.774 1.224-1.72 2.233-5.942 6.337-12.508 15.265-16.71 22.72-1.569 2.784-2.002 3.381-2.464 3.392-.105 0-1.198-1.653-2.43-3.679zM54.276 155.199c-5.447-9.13-11.632-17.278-17.48-23.03-1.127-1.108-2.049-2.189-2.049-2.402 0-.212 1.208-1.646 2.684-3.185 4.922-5.132 9.427-11.123 15.2-20.215 2.298-3.617 3.498-5.256 3.807-5.196.249.048 1.051 1.19 1.784 2.539 3.876 7.136 9.21 14.519 16.557 22.916 1.394 1.593 2.534 3.007 2.534 3.143 0 .137-.816 1.12-1.813 2.187-6.19 6.62-12.71 15.536-17.106 23.387-.93 1.662-1.673 2.672-1.966 2.672-.288 0-1.124-1.094-2.152-2.816zm106.496 1.49c-5.68-9.541-10.778-16.436-17.315-23.421-1.661-1.775-3.02-3.385-3.02-3.578 0-.193.88-1.276 1.955-2.407 4.867-5.12 8.423-9.714 13.505-17.445 1.955-2.975 3.998-6.157 4.54-7.07.575-.972 1.186-1.661 1.47-1.661.318 0 1.002.968 1.987 2.816 3.214 6.026 8.628 13.6 15.195 21.26 1.993 2.324 3.62 4.39 3.616 4.59-.005.201-1.49 2.021-3.3 4.044-5.615 6.277-11 13.712-15.081 20.827-1.064 1.854-2.121 3.371-2.349 3.371-.228 0-.77-.596-1.203-1.325zm-53.795-31.533c-4.97-8.17-10.39-15.36-15.917-21.114-1.668-1.737-3.033-3.313-3.033-3.502 0-.189 1.17-1.601 2.599-3.138 4.17-4.485 7.877-9.29 12.298-15.939 2.27-3.416 4.57-6.958 5.108-7.872.576-.979 1.179-1.66 1.466-1.66.316 0 .972.89 1.86 2.527 3.87 7.128 9.945 15.474 17.28 23.74.915 1.031 1.665 2.06 1.665 2.287 0 .227-.88 1.385-1.955 2.574-6.492 7.183-12.036 14.742-16.435 22.408-1.064 1.854-2.106 3.372-2.315 3.372-.21 0-1.389-1.658-2.621-3.683zM55.49 95.4c-.38-.596-1.842-2.903-3.247-5.127-4.738-7.499-8.323-12.2-13.731-18.005-1.832-1.965-3.453-3.745-3.603-3.954-.197-.275.376-1.063 2.096-2.875 4.945-5.211 10.268-12.234 15.018-19.812 3.103-4.95 4.073-6.34 4.42-6.34.145 0 .883 1.137 1.638 2.527 3.937 7.24 9.065 14.36 16.554 22.985 1.492 1.718 2.673 3.24 2.623 3.38-.05.14-1.35 1.66-2.89 3.375-5.752 6.41-10.646 13.064-14.724 20.019-2.951 5.032-2.872 4.91-3.182 4.91-.153 0-.59-.487-.972-1.083zm103.531-3.177c-5.06-8.265-9.93-14.712-15.42-20.409-1.74-1.806-3.164-3.51-3.164-3.786 0-.276 1.018-1.56 2.261-2.85 5.55-5.763 11.159-13.37 17.805-24.149.604-.98 1.253-1.73 1.441-1.668.189.063.781.884 1.317 1.825 5.112 8.98 8.974 14.396 16.34 22.917 1.711 1.98 3.112 3.788 3.112 4.017 0 .23-.84 1.305-1.866 2.39-5.535 5.854-11.294 13.61-15.811 21.295-2.305 3.92-2.816 4.679-3.158 4.679-.137 0-1.422-1.918-2.857-4.261zM18.895 83.169c-1.669-2.702-4.135-5.996-5.955-7.955-.906-.975-1.647-1.851-1.647-1.948 0-.097 1.013-1.38 2.252-2.85 2.004-2.38 4.872-6.436 5.822-8.235.611-1.157 1.35-.797 2.47 1.203 1.193 2.128 3.794 5.697 5.765 7.911.745.837 1.354 1.67 1.354 1.85 0 .181-.63 1.054-1.4 1.94-1.77 2.039-4.507 5.785-5.899 8.077-.59.972-1.209 1.768-1.374 1.768-.166 0-.79-.793-1.388-1.76zm-7.988-26.164c-.106-.106-.193-6.84-.193-14.964 0-11.103.086-14.857.347-15.118.45-.449 2.62-.449 3.07 0 .5.5.5 29.428 0 29.928-.366.364-2.892.485-3.224.154zm9.797-.354c-1.402-.645-2.284-1.56-2.882-2.987-.378-.901-.448-2.775-.448-11.867 0-10.744.003-10.803.673-12.07.371-.7 1.23-1.663 1.908-2.14 1.131-.794 1.432-.866 3.644-.866s2.514.072 3.645.867c.678.476 1.537 1.44 1.907 2.14.671 1.268.674 1.316.667 12.132-.006 9.94-.051 10.958-.54 12.015-.647 1.399-1.564 2.279-2.995 2.875-1.462.61-4.144.562-5.58-.099zm4.627-3.61c.38-.38.773-1.127.872-1.661.1-.534.14-5.175.092-10.313l-.09-9.341-.812-.697c-1.096-.94-2.595-.935-3.544.012l-.711.709v10.143c0 6.624.107 10.342.308 10.717.663 1.235 2.837 1.476 3.885.43zm185.18-32.225c0-.778.548-1.039 1.075-.512.528.526.267 1.073-.513 1.073-.363 0-.562-.198-.562-.56z" fill="#e8e8e8"/><path d="M0 157.438V0h217.75v314.875H0V157.437zm158.728 156.931c-27.604-.04-72.689-.04-100.188 0-27.499.041-4.913.074 50.19.074 55.104 0 77.603-.032 49.998-.073zm52.815-.907c1.704-.772 3.236-2.222 4.126-3.905l.778-1.47V7.366l-.814-1.654c-.448-.91-1.346-2.108-1.995-2.663-2.427-2.072 7.172-1.906-105.35-1.824L6.806 1.3l-1.159.626c-1.558.841-3.17 2.559-3.886 4.14l-.589 1.3-.006 150.242-.006 150.242.908 1.813c.94 1.875 2.468 3.254 4.396 3.963.698.257 25.478.342 102.413.354 98.079.015 101.53 0 102.668-.517zM1.593 302.164c.098-.158.301-.288.451-.288.15 0 .272.13.272.288 0 .16-.203.29-.45.29-.25 0-.372-.13-.273-.29zm192.558-6.48c-.16-.062-.646-.191-1.08-.287-1.117-.245-2.825-1.83-3.448-3.196-.478-1.051-.527-2.125-.533-11.587-.007-10.99.054-11.588 1.353-13.334 1.065-1.431 2.615-2.092 4.908-2.092 3.358 0 5.416 1.54 6.183 4.628.218.876.296 4.623.235 11.41l-.09 10.106-.724 1.287c-1.043 1.856-2.634 2.868-4.777 3.04-.956.077-1.868.088-2.027.026zm2.952-4.327l.812-.698v-20.61l-.812-.697c-1.096-.94-2.595-.935-3.545.012l-.71.709v10.213c0 7.737.088 10.323.362 10.666.999 1.25 2.702 1.427 3.893.405zm7.782 3.998c-.401-.4-.455-2.16-.455-14.986 0-12.212.066-14.587.412-14.873.23-.191 1.028-.302 1.81-.252l1.398.089.075 15.003c.059 11.81-.003 15.052-.29 15.234-.625.396-2.473.261-2.95-.215zm-43.194-12.761c-.175-.12-1.139-1.582-2.141-3.25-4.898-8.152-10.359-15.427-15.816-21.073-1.813-1.877-3.297-3.633-3.297-3.903s1.368-1.943 3.04-3.718c1.671-1.775 4.157-4.657 5.523-6.405 2.277-2.914 8.899-12.65 11.477-16.874.59-.967 1.242-1.758 1.448-1.758.206 0 1.09 1.333 1.967 2.96 3.534 6.568 9.721 15.074 16.709 22.97 1.162 1.313 2.112 2.577 2.112 2.81 0 .232-1.163 1.692-2.585 3.245-5.38 5.877-10.18 12.351-14.393 19.411-3.087 5.175-3.603 5.886-4.044 5.585zM53.32 278.238c-4.856-7.939-9.882-14.56-15.64-20.605-1.612-1.693-2.932-3.197-2.932-3.344 0-.146.344-.581.764-.966 1.628-1.494 6.922-7.695 9.415-11.03 2.683-3.589 5.972-8.485 9.217-13.72 1.01-1.628 2.004-2.96 2.21-2.96.205 0 .855.877 1.444 1.95 3.987 7.256 9.275 14.745 15.449 21.882 1.787 2.065 3.446 4.045 3.687 4.399.421.619.32.776-2.675 4.112-5.762 6.42-11.857 14.836-15.756 21.757-1.028 1.823-1.754 2.808-2.072 2.808-.32 0-1.397-1.482-3.11-4.283zm143.198-21.21c-1.186-1.788-3.156-4.386-4.38-5.775-1.425-1.618-2.144-2.655-2.004-2.889.12-.2.944-1.174 1.829-2.165.885-.99 2.726-3.46 4.091-5.489 1.365-2.028 2.672-3.724 2.905-3.768.265-.051.887.73 1.655 2.077 1.25 2.191 3.466 5.207 5.746 7.82.691.792 1.256 1.645 1.256 1.897 0 .25-.403.838-.897 1.305-1.335 1.262-4.976 6.161-6.194 8.334-.586 1.046-1.243 1.902-1.459 1.902-.216 0-1.363-1.462-2.548-3.25zm-89.544-9.967c-5-8.361-10.728-16.007-16.42-21.913-2.343-2.432-3.143-3.441-2.944-3.715.15-.207 1.62-1.854 3.267-3.66 5.19-5.69 9.589-11.671 15.328-20.842 1.673-2.673 2.64-3.955 2.939-3.897.245.047 1.148 1.384 2.006 2.972 3.274 6.056 9.051 14.124 15.076 21.053 3.602 4.142 3.766 4.342 3.778 4.595.006.127-1.375 1.78-3.068 3.672-5.764 6.443-11.855 14.86-15.733 21.744-1.01 1.793-1.756 2.808-2.064 2.808-.3 0-1.113-1.057-2.165-2.817zm-51.14-26.287c-.237-.278-1.123-1.676-1.97-3.106-4.312-7.285-9.765-14.582-15.594-20.869-1.937-2.089-3.522-3.884-3.522-3.988 0-.105 1.19-1.444 2.646-2.977 4.872-5.133 9.504-11.282 14.777-19.617 3.248-5.134 3.943-6.135 4.26-6.135.143 0 1.07 1.462 2.06 3.25 3.65 6.596 8.453 13.3 15.025 20.972 2.089 2.44 3.798 4.519 3.798 4.622 0 .103-1.24 1.553-2.754 3.221-5.368 5.912-10.497 12.835-14.468 19.526-3.435 5.788-3.319 5.606-3.588 5.606-.131 0-.432-.227-.67-.505zm103.556-3.178c-5.017-8.255-10.196-15.139-15.75-20.938-1.786-1.863-3.204-3.57-3.152-3.794.052-.223 1.514-1.977 3.248-3.897 5.397-5.976 9.509-11.566 15.329-20.841 1.346-2.145 2.62-3.9 2.83-3.9.21 0 .957 1.04 1.66 2.311 4.307 7.793 9.592 15.07 17.517 24.12.903 1.03 1.642 2.054 1.642 2.273 0 .22-.774 1.224-1.72 2.233-5.942 6.337-12.508 15.265-16.71 22.72-1.569 2.784-2.002 3.381-2.464 3.392-.105 0-1.198-1.653-2.43-3.679zM54.276 155.199c-5.447-9.13-11.632-17.278-17.48-23.03-1.127-1.108-2.049-2.189-2.049-2.402 0-.212 1.208-1.646 2.684-3.185 4.922-5.132 9.427-11.123 15.2-20.215 2.298-3.617 3.498-5.256 3.807-5.196.249.048 1.051 1.19 1.784 2.539 3.876 7.136 9.21 14.519 16.557 22.916 1.394 1.593 2.534 3.007 2.534 3.143 0 .137-.816 1.12-1.813 2.187-6.19 6.62-12.71 15.536-17.106 23.387-.93 1.662-1.673 2.672-1.966 2.672-.288 0-1.124-1.094-2.152-2.816zm106.496 1.49c-5.68-9.541-10.778-16.436-17.315-23.421-1.661-1.775-3.02-3.385-3.02-3.578 0-.193.88-1.276 1.955-2.407 4.867-5.12 8.423-9.714 13.505-17.445 1.955-2.975 3.998-6.157 4.54-7.07.575-.972 1.186-1.661 1.47-1.661.318 0 1.002.969 1.987 2.816 3.214 6.027 8.628 13.6 15.195 21.26 1.993 2.324 3.62 4.39 3.616 4.59-.005.202-1.49 2.021-3.3 4.044-5.615 6.277-11 13.712-15.081 20.827-1.064 1.854-2.121 3.371-2.349 3.371-.228 0-.77-.596-1.203-1.325zm-53.795-31.533c-4.97-8.17-10.39-15.36-15.917-21.114-1.668-1.737-3.033-3.313-3.033-3.502 0-.189 1.17-1.601 2.599-3.138 4.17-4.485 7.877-9.29 12.298-15.939 2.27-3.416 4.57-6.958 5.108-7.872.576-.979 1.179-1.66 1.466-1.66.316 0 .972.89 1.86 2.527 3.87 7.128 9.945 15.474 17.28 23.74.915 1.031 1.665 2.06 1.665 2.287 0 .227-.88 1.385-1.955 2.574-6.492 7.183-12.036 14.742-16.435 22.408-1.064 1.855-2.106 3.372-2.315 3.372-.21 0-1.389-1.658-2.621-3.683zM55.49 95.4c-.38-.595-1.842-2.903-3.247-5.127-4.738-7.499-8.323-12.2-13.731-18.004-1.832-1.966-3.453-3.746-3.603-3.954-.197-.276.376-1.064 2.096-2.876 4.945-5.211 10.268-12.233 15.018-19.812 3.103-4.95 4.073-6.34 4.42-6.34.145 0 .883 1.137 1.638 2.527 3.937 7.24 9.065 14.36 16.554 22.985 1.492 1.719 2.673 3.24 2.623 3.38-.05.14-1.35 1.66-2.89 3.375-5.752 6.41-10.646 13.064-14.724 20.019-2.951 5.032-2.872 4.91-3.182 4.91-.153 0-.59-.487-.972-1.083zm103.531-3.177c-5.06-8.265-9.93-14.712-15.42-20.408-1.74-1.807-3.164-3.51-3.164-3.787 0-.276 1.018-1.56 2.261-2.85 5.55-5.763 11.159-13.37 17.805-24.148.604-.981 1.253-1.732 1.441-1.67.189.064.781.885 1.317 1.826 5.112 8.98 8.974 14.396 16.34 22.917 1.711 1.98 3.112 3.788 3.112 4.017 0 .23-.84 1.305-1.866 2.39-5.535 5.854-11.294 13.61-15.811 21.295-2.305 3.92-2.816 4.679-3.158 4.679-.137 0-1.422-1.918-2.857-4.261zM18.895 83.17c-1.669-2.703-4.135-5.997-5.955-7.956-.906-.975-1.647-1.851-1.647-1.948 0-.097 1.013-1.38 2.252-2.85 2.004-2.38 4.872-6.436 5.822-8.235.611-1.157 1.35-.797 2.47 1.203 1.193 2.128 3.794 5.697 5.765 7.912.745.836 1.354 1.668 1.354 1.85 0 .18-.63 1.053-1.4 1.94-1.77 2.038-4.507 5.784-5.899 8.076-.59.972-1.209 1.768-1.374 1.768-.166 0-.79-.792-1.388-1.76zm-7.988-26.165c-.106-.106-.193-6.84-.193-14.964 0-11.103.086-14.857.347-15.118.45-.449 2.62-.449 3.07 0 .5.5.5 29.428 0 29.928-.366.364-2.892.485-3.224.154zm9.797-.353c-1.402-.646-2.284-1.56-2.882-2.988-.378-.901-.448-2.775-.448-11.867 0-10.744.003-10.802.673-12.07.371-.7 1.23-1.663 1.908-2.14 1.131-.794 1.432-.866 3.644-.866s2.514.072 3.645.867c.678.476 1.537 1.44 1.907 2.14.671 1.268.674 1.316.667 12.132-.006 9.94-.051 10.958-.54 12.015-.647 1.399-1.564 2.279-2.995 2.875-1.462.61-4.144.563-5.58-.099zm4.627-3.611c.38-.38.773-1.127.872-1.661.1-.534.14-5.175.092-10.313l-.09-9.341-.812-.697c-1.096-.94-2.595-.934-3.544.012l-.711.709v10.143c0 6.624.107 10.342.308 10.717.663 1.235 2.837 1.476 3.885.43zm185.31-31.978c-.3-.482.372-1.034.771-.636.334.334.125.95-.322.95-.14 0-.343-.141-.45-.314z" fill="#f6d1d1"/><path d="M0 157.438V0h217.75v314.875H0V157.437zm158.728 156.931c-27.604-.04-72.689-.04-100.188 0-27.499.041-4.913.074 50.19.074 55.104 0 77.603-.032 49.998-.073zm52.815-.907c1.704-.772 3.236-2.222 4.126-3.905l.778-1.47V7.366l-.814-1.654c-.448-.91-1.346-2.108-1.995-2.663-2.427-2.072 7.172-1.906-105.35-1.824L6.806 1.3l-1.159.626c-1.558.841-3.17 2.559-3.886 4.14l-.589 1.3-.006 150.242-.006 150.242.908 1.813c.94 1.875 2.468 3.254 4.396 3.963.698.257 25.478.342 102.413.354 98.079.015 101.53 0 102.668-.517zM1.593 302.164c.098-.158.301-.288.451-.288.15 0 .272.13.272.288 0 .16-.203.29-.45.29-.25 0-.372-.13-.273-.29zm190.724-7.248c-1.513-.766-2.522-2.204-2.95-4.205-.208-.967-.287-4.908-.229-11.266.087-9.442.112-9.82.729-10.97 1.282-2.391 3.491-3.49 6.415-3.192 1.873.192 3.461 1.162 4.42 2.702l.688 1.103.082 10.977c.081 10.94.08 10.982-.58 12.26-.363.707-1.16 1.681-1.772 2.167-.987.783-1.36.892-3.33.97-1.826.072-2.44-.024-3.473-.546zm5.032-3.571l.71-.71v-10.142c0-6.713-.105-10.34-.312-10.726-.51-.95-2.152-1.492-3.337-1.102-1.812.596-1.852.848-1.852 11.797v9.814l.75.889c.63.748.954.889 2.04.889.984 0 1.46-.169 2.001-.71zm7.564 3.983c-.106-.106-.193-6.775-.193-14.82 0-10.99.086-14.713.347-14.973.191-.19.817-.347 1.39-.347s1.199.156 1.39.347c.261.26.347 3.923.347 14.709 0 7.9-.079 14.568-.175 14.82-.126.327-.564.456-1.545.456-.752 0-1.455-.087-1.561-.192zM55.5 281.456c-.39-.606-1.715-2.727-2.946-4.713-4.274-6.894-8.54-12.488-14.158-18.56-1.874-2.026-3.364-3.799-3.31-3.94.052-.14 1.486-1.797 3.185-3.682 3.778-4.19 5.398-6.199 8.504-10.544 2.169-3.035 7.915-11.845 8.783-13.466.584-1.091 1.103-.746 2.386 1.589 4.125 7.506 9.555 15.041 16.689 23.158 1.315 1.495 2.39 2.868 2.39 3.05 0 .181-1.06 1.492-2.354 2.913-5.69 6.241-11.921 14.778-16.113 22.071-.955 1.663-1.875 3.069-2.043 3.124-.168.056-.624-.394-1.013-1zm104.894-1.013c-4.967-8.55-12.335-18.312-18.05-23.913-1.049-1.028-1.907-1.983-1.907-2.123 0-.14 1.127-1.443 2.504-2.897 4.962-5.238 9.985-11.94 15.517-20.698 1.656-2.621 3.198-4.799 3.426-4.839.261-.046 1.004 1.015 2.008 2.87 3.366 6.218 8.435 13.3 15.023 20.992 2.089 2.439 3.798 4.486 3.798 4.548 0 .063-.826 1.013-1.836 2.11-6.183 6.722-10.736 12.852-15.918 21.433-1.463 2.423-2.813 4.456-3 4.517-.186.06-.89-.839-1.565-2zM197.8 258.76c-1.279-2.263-3.907-5.811-5.74-7.75-1.91-2.019-2.128-2.54-1.339-3.19.982-.81 4.163-4.964 5.938-7.754 1.166-1.831 2.019-2.884 2.34-2.89.28 0 .508.096.508.224 0 .484 4.057 6.365 5.896 8.547 1.057 1.254 1.922 2.46 1.922 2.681 0 .221-.695 1.219-1.544 2.218-2.146 2.523-3.653 4.6-5.115 7.05-.72 1.206-1.446 2.093-1.712 2.091-.253 0-.773-.553-1.154-1.227zm-89.31-9.513c-.23-.368-1.466-2.358-2.745-4.424-4.786-7.726-9.27-13.636-14.836-19.548-1.745-1.854-3.173-3.482-3.173-3.617 0-.135 1.14-1.48 2.534-2.99 5.764-6.242 10.467-12.614 16.577-22.459 1.224-1.972 1.995-2.943 2.293-2.886.246.047 1.15 1.385 2.006 2.972 3.253 6.025 8.868 13.819 15.376 21.344 1.76 2.035 3.2 3.853 3.2 4.04 0 .186-.944 1.376-2.099 2.644-6.325 6.943-11.795 14.418-16.367 22.367-.956 1.663-1.874 3.068-2.041 3.124-.167.055-.493-.2-.724-.567zm-54.05-30.92c-4.732-8.02-10.755-16.08-16.236-21.725-1.742-1.795-3.168-3.421-3.168-3.615 0-.194 1.162-1.61 2.582-3.146 5.712-6.177 11.02-13.425 17.116-23.375.706-1.152 1.434-2.095 1.619-2.095.184 0 1.098 1.398 2.032 3.106 3.428 6.275 9.316 14.405 15.846 21.882 1.527 1.748 2.78 3.34 2.783 3.537.004.197-.985 1.432-2.199 2.744-5.87 6.344-11.846 14.558-16.55 22.751-.776 1.35-1.599 2.492-1.828 2.536-.258.05-1.016-.937-1.997-2.6zm104.384-1.886c-3.01-4.837-5.91-9.046-8.507-12.349-1.987-2.526-6.791-7.955-8.554-9.665-.73-.709-1.327-1.394-1.327-1.523s1.296-1.605 2.88-3.282c1.584-1.676 4.072-4.565 5.528-6.421 2.373-3.023 9.868-14.02 11.94-17.518.441-.746.962-1.303 1.156-1.238.194.065 1.087 1.433 1.983 3.04 3.965 7.11 9.316 14.47 16.291 22.405 1.633 1.858 2.423 2.973 2.281 3.22-.12.207-1.52 1.836-3.113 3.62-5.592 6.262-11.61 14.609-15.355 21.3-.912 1.629-1.818 2.961-2.015 2.961-.196 0-1.63-2.047-3.188-4.55zM54.28 154.91c-5.082-8.528-10.665-15.949-16.703-22.2-1.397-1.445-2.54-2.791-2.54-2.99 0-.2 1.18-1.606 2.622-3.126 4.877-5.142 9.187-10.87 14.652-19.48 1.846-2.907 3.488-5.45 3.649-5.65.419-.521.967.01 1.865 1.791 3.102 6.173 9.873 15.606 16.846 23.47 1.294 1.46 2.353 2.8 2.353 2.976 0 .177-1.385 1.87-3.078 3.762-5.737 6.413-11.407 14.253-15.309 21.167-1.08 1.915-1.915 3.083-2.208 3.088-.293.01-1.108-1.06-2.15-2.808zm106.901 2.166c-.225-.357-1.468-2.364-2.762-4.459-4.58-7.41-9.487-13.815-14.713-19.203-1.798-1.852-3.268-3.46-3.268-3.573 0-.112 1.15-1.456 2.554-2.987 6.037-6.577 10.23-12.235 16.407-22.136 1.974-3.165 2.398-3.688 2.79-3.446.113.07.879 1.394 1.7 2.942 3.123 5.88 9.744 15.032 16.134 22.303 1.193 1.356 2.284 2.683 2.427 2.947.201.375-.258 1.04-2.098 3.033-5.57 6.036-12.417 15.405-16.275 22.268-.916 1.629-1.85 2.961-2.076 2.961-.226 0-.595-.292-.82-.65zm-55.157-33.682c-4.995-7.993-9.464-13.818-15.376-20.045l-2.67-2.813 3.396-3.744c5.304-5.847 10.028-12.29 15.75-21.479 1.165-1.873 2.265-3.357 2.442-3.298.177.06.822 1.007 1.431 2.106 4.344 7.828 9.418 14.88 16.805 23.356 1.376 1.579 2.502 2.959 2.502 3.066 0 .107-.945 1.22-2.1 2.474-6.142 6.664-12.38 15.185-16.567 22.627-.9 1.598-1.805 2.906-2.013 2.906-.208 0-1.828-2.32-3.6-5.156zM55.077 94.43c-2.729-4.485-8.65-13.126-10.964-16.001-1.407-1.748-4.025-4.687-5.817-6.531-1.793-1.844-3.26-3.511-3.26-3.704 0-.192 1.307-1.785 2.904-3.538 5.317-5.836 9.43-11.362 14.854-19.951 1.78-2.819 3.388-5.126 3.575-5.128.186 0 .956 1.136 1.71 2.526 3.9 7.184 10.282 15.939 17.41 23.881.844.94 1.534 1.88 1.534 2.088 0 .207-1.177 1.66-2.617 3.23-6.253 6.816-11.461 14.13-17.366 24.387-.476.828-.834.598-1.963-1.259zm104.31-1.918c-4.961-8.157-10.247-15.17-15.873-21.06-1.692-1.771-3.077-3.308-3.077-3.415 0-.107 1.014-1.257 2.254-2.556 5.556-5.825 11.31-13.628 17.8-24.145.597-.968 1.249-1.757 1.447-1.753.199 0 1.074 1.326 1.946 2.936 3.658 6.759 8.493 13.46 15.8 21.9 1.444 1.668 2.716 3.182 2.827 3.365.117.195-1.224 1.956-3.238 4.25-5.951 6.78-11.445 14.414-15.371 21.361-.87 1.54-1.738 2.8-1.928 2.8-.19 0-1.354-1.658-2.587-3.683zM17.874 81.39c-1.186-1.788-3.086-4.315-4.223-5.616-1.138-1.3-2.069-2.484-2.069-2.629 0-.145.796-1.16 1.77-2.256.972-1.096 2.877-3.65 4.232-5.676 1.355-2.026 2.585-3.683 2.733-3.683.148 0 .49.404.762.898 1.122 2.041 3.726 5.75 5.594 7.967 1.096 1.302 1.994 2.581 1.994 2.844 0 .262-.731 1.277-1.624 2.256-.893.978-2.726 3.436-4.073 5.462-1.348 2.025-2.56 3.683-2.696 3.683-.135 0-1.215-1.463-2.4-3.25zm-6.292-24.404c-.238-.091-.53-.308-.647-.483-.295-.442-.268-28.828.028-29.295.16-.25.721-.348 1.66-.289l1.42.09.076 14.915.075 14.915-.654.175c-.774.207-1.362.198-1.958-.028zm10.425-.058c-.558-.111-1.29-.351-1.626-.533-1.045-.566-2.39-2.315-2.719-3.536-.208-.77-.286-4.743-.23-11.68l.086-10.51.87-1.225c1.526-2.153 2.129-2.435 5.206-2.435 2.582 0 2.751.039 3.795.882.6.485 1.362 1.395 1.691 2.022.57 1.082.604 1.673.686 11.496.073 8.8.018 10.561-.368 11.722-.442 1.326-1.725 2.835-2.903 3.415-.83.408-3.302.618-4.488.382zm3.027-3.377c1.218-.467 1.316-1.336 1.316-11.67 0-6.507-.106-10.053-.313-10.438-.51-.95-2.152-1.492-3.336-1.102-1.81.596-1.853.86-1.853 11.69 0 11.582.01 11.62 2.655 11.676.584.012 1.273-.058 1.531-.156zm185.606-32.49c-.298-.48.373-1.033.772-.635.334.334.125.95-.322.95-.14 0-.343-.141-.45-.314z" fill="#d6d6d6"/><path d="M0 157.438V0h217.75v314.875H0V157.437zm209.574 156.885c.276-.145 1.09-.469 1.81-.72 1.9-.664 3.308-1.961 4.319-3.978l.889-1.775V7.314l-.886-1.769c-.929-1.853-2.302-3.163-4.228-4.032-1.049-.473-6.88-.502-102.603-.502H7.384l-1.514.683c-1.862.84-3.573 2.642-4.305 4.534-.54 1.397-.552 4.595-.552 151.643v150.215l.783 1.48c1.033 1.955 3.069 3.706 5.109 4.395 1.6.54 3.93.554 101.902.589 59.856.022 100.467-.07 100.767-.227zm-17.257-19.407c-1.513-.766-2.522-2.204-2.95-4.205-.208-.967-.287-4.908-.229-11.266.087-9.442.112-9.82.729-10.97 1.282-2.391 3.491-3.49 6.415-3.192 1.873.192 3.461 1.162 4.42 2.702l.688 1.103.082 10.977c.081 10.94.08 10.982-.58 12.26-.363.707-1.16 1.681-1.772 2.167-.987.783-1.36.892-3.33.97-1.826.072-2.44-.024-3.473-.546zm5.032-3.571l.71-.71v-10.142c0-6.713-.105-10.34-.312-10.726-.51-.95-2.152-1.492-3.337-1.102-1.812.596-1.852.848-1.852 11.797v9.814l.75.889c.63.748.954.889 2.04.889.984 0 1.46-.169 2.001-.71zm7.564 3.983c-.106-.106-.193-6.775-.193-14.82 0-10.99.086-14.713.347-14.973.191-.19.817-.347 1.39-.347s1.199.156 1.39.347c.261.26.347 3.923.347 14.709 0 7.9-.079 14.568-.175 14.82-.126.327-.564.456-1.545.456-.752 0-1.455-.087-1.561-.192zM55.5 281.456c-.39-.606-1.715-2.727-2.946-4.713-4.274-6.894-8.54-12.488-14.158-18.56-1.874-2.026-3.364-3.799-3.31-3.94.052-.14 1.486-1.797 3.185-3.682 3.778-4.19 5.398-6.199 8.504-10.544 2.169-3.035 7.915-11.845 8.783-13.466.584-1.091 1.103-.746 2.386 1.589 4.125 7.506 9.555 15.041 16.689 23.158 1.315 1.495 2.39 2.868 2.39 3.05 0 .181-1.06 1.492-2.354 2.913-5.69 6.241-11.921 14.778-16.113 22.071-.955 1.663-1.875 3.069-2.043 3.124-.168.056-.624-.394-1.013-1zm104.894-1.013c-4.967-8.55-12.335-18.312-18.05-23.913-1.049-1.028-1.907-1.983-1.907-2.123 0-.14 1.127-1.443 2.504-2.897 4.962-5.238 9.985-11.94 15.517-20.698 1.656-2.621 3.198-4.799 3.426-4.839.261-.046 1.004 1.015 2.008 2.87 3.366 6.218 8.435 13.3 15.023 20.992 2.089 2.439 3.798 4.486 3.798 4.548 0 .063-.826 1.013-1.836 2.11-6.183 6.722-10.736 12.852-15.918 21.433-1.463 2.423-2.813 4.456-3 4.517-.186.06-.89-.839-1.565-2zM197.8 258.76c-1.279-2.263-3.907-5.811-5.74-7.75-1.91-2.019-2.128-2.54-1.339-3.19.982-.81 4.163-4.964 5.938-7.754 1.166-1.831 2.019-2.884 2.34-2.89.28 0 .508.096.508.224 0 .484 4.057 6.365 5.896 8.547 1.057 1.254 1.922 2.46 1.922 2.681 0 .221-.695 1.219-1.544 2.218-2.146 2.523-3.653 4.6-5.115 7.05-.72 1.206-1.446 2.093-1.712 2.091-.253 0-.773-.553-1.154-1.227zm-89.31-9.513c-.23-.368-1.466-2.358-2.745-4.424-4.786-7.726-9.27-13.636-14.836-19.548-1.745-1.854-3.173-3.482-3.173-3.617 0-.135 1.14-1.48 2.534-2.99 5.764-6.242 10.467-12.614 16.577-22.459 1.224-1.972 1.995-2.943 2.293-2.886.246.047 1.15 1.385 2.006 2.972 3.253 6.025 8.868 13.819 15.376 21.344 1.76 2.035 3.2 3.853 3.2 4.04 0 .186-.944 1.376-2.099 2.644-6.325 6.943-11.795 14.418-16.367 22.367-.956 1.663-1.874 3.068-2.041 3.124-.167.055-.493-.2-.724-.567zm-54.05-30.92c-4.732-8.02-10.755-16.08-16.236-21.725-1.742-1.795-3.168-3.421-3.168-3.615 0-.194 1.162-1.61 2.582-3.146 5.712-6.177 11.02-13.425 17.116-23.375.706-1.152 1.434-2.095 1.619-2.095.184 0 1.098 1.398 2.032 3.106 3.428 6.275 9.316 14.405 15.846 21.882 1.527 1.748 2.78 3.34 2.783 3.537.004.197-.985 1.432-2.199 2.744-5.87 6.344-11.846 14.558-16.55 22.751-.776 1.35-1.599 2.492-1.828 2.536-.258.05-1.016-.937-1.997-2.6zm104.384-1.886c-3.01-4.837-5.91-9.046-8.507-12.349-1.987-2.526-6.791-7.955-8.554-9.665-.73-.709-1.327-1.394-1.327-1.523s1.296-1.605 2.88-3.282c1.584-1.676 4.072-4.565 5.528-6.421 2.373-3.023 9.868-14.02 11.94-17.518.441-.746.962-1.303 1.156-1.238.194.065 1.087 1.433 1.983 3.04 3.965 7.11 9.316 14.47 16.291 22.405 1.633 1.858 2.423 2.973 2.281 3.22-.12.207-1.52 1.836-3.113 3.62-5.592 6.262-11.61 14.609-15.355 21.3-.912 1.629-1.818 2.961-2.015 2.961-.196 0-1.63-2.047-3.188-4.55zM54.28 154.91c-5.082-8.529-10.665-15.949-16.703-22.2-1.397-1.445-2.54-2.791-2.54-2.99 0-.2 1.18-1.606 2.622-3.126 4.877-5.142 9.187-10.87 14.652-19.48 1.846-2.907 3.488-5.45 3.649-5.65.419-.521.967.01 1.865 1.791 3.102 6.173 9.873 15.606 16.846 23.47 1.294 1.46 2.353 2.8 2.353 2.976 0 .177-1.385 1.87-3.078 3.762-5.737 6.413-11.407 14.253-15.309 21.167-1.08 1.915-1.915 3.082-2.208 3.088-.293.01-1.108-1.06-2.15-2.808zm106.901 2.166c-.225-.357-1.468-2.364-2.762-4.459-4.58-7.41-9.487-13.815-14.713-19.203-1.798-1.852-3.268-3.46-3.268-3.573 0-.112 1.15-1.457 2.554-2.987 6.037-6.577 10.23-12.235 16.407-22.136 1.974-3.165 2.398-3.688 2.79-3.446.113.07.879 1.394 1.7 2.942 3.123 5.88 9.744 15.032 16.134 22.302 1.193 1.357 2.284 2.683 2.427 2.948.201.375-.258 1.04-2.098 3.033-5.57 6.035-12.417 15.405-16.275 22.268-.916 1.629-1.85 2.961-2.076 2.961-.226 0-.595-.292-.82-.65zm-55.157-33.682c-4.995-7.993-9.464-13.819-15.376-20.045l-2.67-2.813 3.396-3.744c5.304-5.847 10.028-12.29 15.75-21.479 1.165-1.873 2.265-3.357 2.442-3.298.177.06.822 1.007 1.431 2.106 4.344 7.828 9.418 14.88 16.805 23.356 1.376 1.579 2.502 2.958 2.502 3.066 0 .107-.945 1.22-2.1 2.474-6.142 6.664-12.38 15.185-16.567 22.627-.9 1.598-1.805 2.906-2.013 2.906-.208 0-1.828-2.32-3.6-5.156zM55.077 94.43c-2.729-4.485-8.65-13.126-10.964-16.001-1.407-1.748-4.025-4.687-5.817-6.531-1.793-1.844-3.26-3.511-3.26-3.704 0-.192 1.307-1.785 2.904-3.538 5.317-5.836 9.43-11.362 14.854-19.951 1.78-2.819 3.388-5.126 3.575-5.128.186 0 .956 1.135 1.71 2.526 3.9 7.184 10.282 15.939 17.41 23.881.844.94 1.534 1.88 1.534 2.088 0 .207-1.177 1.66-2.617 3.23-6.253 6.816-11.461 14.13-17.366 24.387-.476.828-.834.598-1.963-1.259zm104.31-1.918c-4.961-8.157-10.247-15.17-15.873-21.06-1.692-1.772-3.077-3.309-3.077-3.415 0-.107 1.014-1.257 2.254-2.557 5.556-5.824 11.31-13.627 17.8-24.144.597-.969 1.249-1.757 1.447-1.753.199 0 1.074 1.326 1.946 2.936 3.658 6.759 8.493 13.46 15.8 21.9 1.444 1.668 2.716 3.182 2.827 3.365.117.195-1.224 1.955-3.238 4.25-5.951 6.78-11.445 14.414-15.371 21.361-.87 1.54-1.738 2.8-1.928 2.8-.19 0-1.354-1.658-2.587-3.683zM17.874 81.39c-1.186-1.788-3.086-4.315-4.223-5.616-1.138-1.3-2.069-2.484-2.069-2.629 0-.145.796-1.16 1.77-2.256.972-1.096 2.877-3.65 4.232-5.676 1.355-2.026 2.585-3.683 2.733-3.683.148 0 .49.404.762.897 1.122 2.042 3.726 5.751 5.594 7.968 1.096 1.302 1.994 2.581 1.994 2.844 0 .262-.731 1.277-1.624 2.256-.893.978-2.726 3.436-4.073 5.461-1.348 2.026-2.56 3.684-2.696 3.684-.135 0-1.215-1.463-2.4-3.25zm-6.292-24.404c-.238-.091-.53-.308-.647-.483-.295-.442-.268-28.828.028-29.295.16-.25.721-.348 1.66-.289l1.42.09.076 14.915.075 14.915-.654.175c-.774.207-1.362.198-1.958-.028zm10.425-.058c-.558-.111-1.29-.351-1.626-.534-1.045-.566-2.39-2.314-2.719-3.535-.208-.77-.286-4.743-.23-11.68l.086-10.51.87-1.225c1.526-2.153 2.129-2.435 5.206-2.435 2.582 0 2.751.039 3.795.882.6.485 1.362 1.395 1.691 2.022.57 1.082.604 1.673.686 11.496.073 8.8.018 10.561-.368 11.721-.442 1.327-1.725 2.836-2.903 3.415-.83.409-3.302.62-4.488.383zm3.027-3.377c1.218-.467 1.316-1.336 1.316-11.67 0-6.507-.106-10.053-.313-10.438-.51-.95-2.152-1.492-3.336-1.102-1.81.596-1.853.86-1.853 11.69 0 11.582.01 11.62 2.655 11.676.584.012 1.273-.058 1.531-.156zm185.911-32.753c-.098-.159-.04-.289.128-.289.169 0 .307.13.307.29 0 .158-.058.288-.128.288s-.208-.13-.307-.289z" fill="#f1afaf"/><path d="M0 157.438V0h217.75v314.875H0V157.437zm209.574 156.885c.276-.145 1.09-.469 1.81-.72 1.9-.664 3.308-1.961 4.319-3.978l.889-1.775V7.314l-.886-1.769c-.929-1.853-2.302-3.163-4.228-4.032-1.049-.473-6.88-.502-102.603-.502H7.384l-1.514.683c-1.862.84-3.573 2.642-4.305 4.534-.54 1.397-.552 4.595-.552 151.643v150.215l.783 1.48c1.033 1.955 3.069 3.706 5.109 4.395 1.6.54 3.93.554 101.902.589 59.856.022 100.467-.07 100.767-.227zm-15.423-18.945c-.16-.053-.638-.172-1.064-.266-1.124-.246-2.558-1.56-3.17-2.902-.484-1.063-.532-2.107-.538-11.727l-.006-10.56.752-1.504c1.048-2.097 2.525-2.942 5.147-2.942 2.394 0 3.579.473 4.756 1.898 1.441 1.744 1.565 2.93 1.458 13.99-.095 9.89-.101 9.976-.786 11.169-.824 1.435-1.85 2.243-3.388 2.669-1.083.3-2.543.381-3.16.175zm3.108-3.878l.946-.843.09-9.629c.06-6.407-.017-9.99-.229-10.71-.591-2.01-3.148-2.618-4.661-1.108l-.847.845v10.213c0 8.913.06 10.297.465 10.876.99 1.41 2.875 1.568 4.236.356zm7.967 3.708c-.471-.274-.506-1.278-.506-14.556 0-7.843.079-14.467.176-14.718.127-.33.567-.457 1.592-.457h1.417v14.846c0 13.272-.049 14.865-.458 15.022-.674.258-1.644.198-2.22-.137zM54.735 279.994c-4.428-7.624-11.073-16.52-16.585-22.204-1.712-1.766-3.113-3.309-3.113-3.43s1.14-1.412 2.534-2.869c4.722-4.936 9.213-10.858 14.375-18.952 1.568-2.46 3.166-4.963 3.55-5.565.386-.601.811-1.025.946-.942.135.083 1.14 1.736 2.233 3.674 3.58 6.345 8.76 13.48 15.146 20.862 2.838 3.281 3.176 3.783 2.85 4.232-.205.28-1.417 1.66-2.695 3.066-5.27 5.796-9.952 12.155-14.378 19.526-1.598 2.662-3.054 4.838-3.237 4.837-.182 0-.914-1.008-1.626-2.235zm104.287-2.023c-4.73-7.73-9.015-13.417-14.893-19.766-1.871-2.02-3.402-3.756-3.402-3.857 0-.101 1.431-1.765 3.18-3.699 5.39-5.957 10.444-12.872 15.807-21.628.944-1.542 1.868-2.866 2.053-2.943.195-.08 1.098 1.22 2.147 3.092 4.127 7.363 9.597 14.831 16.845 22.998.915 1.032 1.659 2.011 1.652 2.176-.007.165-.54.885-1.184 1.6-7.45 8.266-12.872 15.618-17.325 23.49-.87 1.54-1.737 2.798-1.927 2.798-.19 0-1.519-1.917-2.953-4.26zm37.392-21.521c-1.294-1.947-3.223-4.483-4.288-5.636l-1.936-2.097.909-1.08c2.945-3.502 4.441-5.475 5.936-7.828.924-1.453 1.77-2.642 1.88-2.642.111 0 .956 1.217 1.878 2.703.921 1.487 2.778 4.032 4.126 5.657 1.348 1.624 2.386 3.105 2.307 3.291-.079.186-1.018 1.371-2.086 2.635-1.673 1.979-3.66 4.8-5.451 7.741-.266.437-.583.794-.704.794s-1.278-1.592-2.571-3.538zm-87.935-7.511c-.225-.357-1.544-2.47-2.931-4.694-4.778-7.66-9.352-13.627-14.56-18.989-2.17-2.234-3.216-3.514-3.07-3.755.12-.202 1.43-1.666 2.908-3.255 4.973-5.345 9.19-11.012 14.87-19.986 1.674-2.647 3.2-4.864 3.388-4.927.191-.064.816.823 1.41 2 2.872 5.693 8.753 13.996 15.578 21.992 2.008 2.353 3.651 4.335 3.651 4.403 0 .068-.993 1.198-2.207 2.51-5.929 6.408-12.023 14.803-16.883 23.257-.663 1.151-1.326 2.094-1.475 2.094-.148 0-.454-.292-.679-.65zm-54.765-32.058c-4.634-7.659-10.02-14.783-15.603-20.633-1.69-1.772-3.074-3.316-3.074-3.432 0-.115 1.088-1.33 2.417-2.7 3.226-3.325 6.248-7.016 9.543-11.658 2.47-3.48 7.726-11.546 8.568-13.149.187-.357.521-.65.741-.65.22 0 1.02 1.138 1.775 2.528 3.7 6.806 8.602 13.637 15.598 21.739 1.441 1.668 2.786 3.245 2.988 3.503.317.404-.107 1.01-3.077 4.393-5.859 6.674-10.311 12.795-14.535 19.98-1.214 2.065-2.391 3.79-2.616 3.832-.252.047-1.296-1.39-2.725-3.753zm107.479 3.17c-.218-.357-1.026-1.69-1.795-2.96-4.682-7.74-10.171-15.005-15.412-20.398-1.793-1.844-3.26-3.516-3.26-3.715 0-.199.99-1.41 2.2-2.694 4.837-5.129 9.494-11.263 14.427-18.998 1.564-2.453 3.156-4.948 3.537-5.543.836-1.306 1.364-1.372 1.84-.227.63 1.517 4.713 8.165 7.076 11.519 2.603 3.694 6.315 8.359 10.063 12.645 1.405 1.607 2.555 3.07 2.555 3.25 0 .182-1.06 1.467-2.355 2.857-5.794 6.216-13.721 17.257-17.013 23.694-.697 1.363-1.273 1.54-1.863.57zM55.778 157.076c-.226-.357-1.287-2.08-2.359-3.827-4.61-7.52-9.214-13.615-14.987-19.839l-3.438-3.706 2.66-2.869c5.19-5.597 11.01-13.534 17.507-23.877.478-.76 1.017-1.43 1.198-1.486.181-.057 1.01 1.17 1.84 2.727 2.996 5.608 7.645 12.235 13.32 18.982a944.37 944.37 0 0 1 4.565 5.46l.943 1.15-.943 1.088c-.519.599-2.027 2.302-3.351 3.785-4.77 5.34-10.791 13.783-14.377 20.156-.899 1.599-1.755 2.906-1.901 2.906-.147 0-.451-.292-.677-.65zm104.199-2.156c-4.758-7.999-10.728-15.987-16.217-21.701-1.668-1.738-3.033-3.32-3.033-3.516 0-.197 1.14-1.548 2.533-3.002 4.834-5.045 9.105-10.72 14.914-19.817 1.877-2.94 3.57-5.344 3.763-5.344.193 0 .662.585 1.042 1.3 3.944 7.413 9.138 14.726 16.477 23.2 1.632 1.886 2.968 3.557 2.968 3.714 0 .157-1.05 1.428-2.334 2.824-5.328 5.796-10.447 12.715-15.006 20.282-1.553 2.577-2.959 4.732-3.124 4.787-.166.055-1.058-1.172-1.983-2.727zm-50.753-26.732c-.178-.214-1.17-1.782-2.205-3.484-4.882-8.032-10.139-14.993-15.444-20.45-1.792-1.845-3.259-3.519-3.259-3.72 0-.2 1.158-1.574 2.574-3.051 4.744-4.95 10.068-12.08 15.489-20.738 1.558-2.49 2.985-4.522 3.171-4.518.186 0 1.044 1.311 1.905 2.903 3.328 6.15 8.52 13.412 14.903 20.845 2.01 2.342 3.655 4.4 3.655 4.573 0 .173-1.05 1.458-2.334 2.854-5.33 5.799-10.821 13.223-14.968 20.237-2.912 4.926-3.037 5.09-3.487 4.55zm-55.9-36.71c-4.816-7.888-9.499-14.063-15.1-19.914-1.753-1.832-3.187-3.411-3.187-3.51 0-.099 1.296-1.55 2.88-3.227 4.848-5.131 10.629-12.968 16.227-22.001 1.009-1.629 1.993-2.961 2.186-2.961.194 0 1.173 1.462 2.176 3.25 3.573 6.366 8.921 13.776 14.935 20.692 1.572 1.808 3.027 3.515 3.233 3.794.33.446.044.876-2.43 3.645-5.902 6.609-11.765 14.675-15.823 21.772-.863 1.51-1.754 2.777-1.98 2.818-.255.045-1.441-1.614-3.117-4.358zm106.494 1.468c-2.72-4.44-6.767-10.364-9.316-13.631-2.443-3.132-8.854-10.274-9.222-10.274-.124 0-.306-.255-.405-.567-.14-.438.549-1.368 3.048-4.116 5.142-5.653 10.189-12.572 16.268-22.305.752-1.203 1.534-2.186 1.738-2.183.203 0 1.087 1.335 1.963 2.96 3.24 6.012 9.22 14.268 15.74 21.734 1.527 1.747 2.78 3.315 2.784 3.483.004.168-1.052 1.468-2.347 2.889-5.65 6.199-12.042 14.957-16.061 22.01-.928 1.628-1.843 2.96-2.032 2.96-.19 0-1.16-1.332-2.158-2.96zM17.856 81.102c-1.186-1.787-3.091-4.269-4.233-5.514-2.36-2.574-2.4-2.022.375-5.282.93-1.093 2.664-3.45 3.853-5.237 1.19-1.787 2.282-3.25 2.428-3.25.147 0 .484.358.75.795 1.792 2.942 3.779 5.762 5.452 7.741 1.068 1.264 2.008 2.452 2.088 2.64.08.189-.726 1.359-1.792 2.6-1.863 2.17-5.929 8.008-5.929 8.512 0 .135-.188.245-.417.245-.23 0-1.389-1.463-2.575-3.25zM11.21 56.729c-.114-.113-.207-6.8-.207-14.86 0-13.095.049-14.672.458-14.828.798-.305 2.065-.19 2.405.218.237.285.307 4.442.253 14.95l-.075 14.555-1.314.085c-.723.047-1.407-.01-1.52-.12zm9.44-.367c-.748-.348-1.523-1.033-2.027-1.793l-.815-1.23V30.435l.698-1.016c1.068-1.555 2.356-2.294 4.31-2.47 2.846-.258 4.979.824 6.153 3.12.532 1.04.566 1.758.566 11.86 0 10.368-.022 10.8-.614 12.02-.924 1.904-2.455 2.79-5.006 2.894-1.562.064-2.343-.051-3.265-.48zm4.9-3.185l.945-.843V31.729l-.946-.843c-1.227-1.094-2.58-1.128-3.81-.095l-.89.748v20.792l.846.844c1.155 1.153 2.562 1.154 3.854 0zm185.395-32.378c-.098-.159-.04-.289.128-.289.169 0 .307.13.307.29 0 .158-.058.288-.128.288s-.208-.13-.307-.289z" fill="#b5b5b5"/><path d="M0 157.438V0h217.75v314.875H0V157.437zm211.688 156.25a9.26 9.26 0 0 0 4.376-4.252l.673-1.35V7.366l-.691-1.525c-.85-1.876-3.016-3.886-4.864-4.515C209.954.91 200.427.866 108.606.87H7.384l-1.448.675c-2.113.985-3.185 2.01-4.182 4L.87 7.31v150.133c0 133.575.048 150.27.44 151.378.862 2.438 2.827 4.32 5.438 5.21 1.432.487 6.454.51 102.418.46l100.912-.054 1.611-.754zm-17.537-18.31c-.16-.053-.638-.172-1.064-.266-1.124-.246-2.558-1.56-3.17-2.902-.484-1.063-.532-2.107-.538-11.727l-.006-10.56.752-1.504c1.048-2.097 2.525-2.942 5.147-2.942 2.394 0 3.579.473 4.756 1.898 1.441 1.744 1.565 2.93 1.458 13.99-.095 9.89-.101 9.976-.786 11.169-.824 1.435-1.85 2.243-3.388 2.669-1.083.3-2.543.381-3.16.175zm3.108-3.878l.946-.843.09-9.629c.06-6.407-.017-9.99-.229-10.71-.591-2.01-3.148-2.618-4.661-1.108l-.847.845v10.213c0 8.913.06 10.297.465 10.876.99 1.41 2.875 1.568 4.236.356zm7.967 3.708c-.471-.274-.506-1.278-.506-14.556 0-7.843.079-14.467.176-14.718.127-.33.567-.457 1.592-.457h1.417v14.846c0 13.272-.049 14.865-.458 15.022-.674.258-1.644.198-2.22-.137zM54.735 279.994c-4.428-7.624-11.073-16.52-16.585-22.204-1.712-1.766-3.113-3.309-3.113-3.43s1.14-1.412 2.534-2.869c4.722-4.936 9.213-10.858 14.375-18.952 1.568-2.46 3.166-4.963 3.55-5.565.386-.601.811-1.025.946-.942.135.083 1.14 1.736 2.233 3.674 3.58 6.345 8.76 13.48 15.146 20.862 2.838 3.281 3.176 3.783 2.85 4.232-.205.28-1.417 1.66-2.695 3.066-5.27 5.796-9.952 12.155-14.378 19.526-1.598 2.662-3.054 4.838-3.237 4.837-.182 0-.914-1.008-1.626-2.235zm104.287-2.023c-4.73-7.73-9.015-13.417-14.893-19.766-1.871-2.02-3.402-3.756-3.402-3.857 0-.101 1.431-1.765 3.18-3.699 5.39-5.957 10.444-12.872 15.807-21.628.944-1.542 1.868-2.866 2.053-2.943.195-.08 1.098 1.22 2.147 3.092 4.127 7.363 9.597 14.831 16.845 22.998.915 1.032 1.659 2.011 1.652 2.176-.007.165-.54.885-1.184 1.6-7.45 8.266-12.872 15.618-17.325 23.49-.87 1.54-1.737 2.798-1.927 2.798-.19 0-1.519-1.917-2.953-4.26zm37.392-21.521c-1.294-1.947-3.223-4.483-4.288-5.636l-1.936-2.097.909-1.08c2.945-3.502 4.441-5.475 5.936-7.828.924-1.453 1.77-2.642 1.88-2.642.111 0 .956 1.217 1.878 2.703.921 1.487 2.778 4.032 4.126 5.657 1.348 1.624 2.386 3.105 2.307 3.291-.079.186-1.018 1.371-2.086 2.635-1.673 1.979-3.66 4.8-5.451 7.741-.266.437-.583.794-.704.794s-1.278-1.592-2.571-3.538zm-87.935-7.511c-.225-.357-1.544-2.47-2.931-4.694-4.778-7.66-9.352-13.627-14.56-18.989-2.17-2.234-3.216-3.514-3.07-3.755.12-.202 1.43-1.666 2.908-3.255 4.973-5.345 9.19-11.012 14.87-19.986 1.674-2.647 3.2-4.864 3.388-4.927.191-.064.816.823 1.41 2 2.872 5.693 8.753 13.996 15.578 21.992 2.008 2.353 3.651 4.335 3.651 4.403 0 .068-.993 1.198-2.207 2.51-5.929 6.408-12.023 14.803-16.883 23.257-.663 1.151-1.326 2.094-1.475 2.094-.148 0-.454-.292-.679-.65zm-54.765-32.058c-4.634-7.659-10.02-14.783-15.603-20.633-1.69-1.772-3.074-3.316-3.074-3.432 0-.115 1.088-1.33 2.417-2.7 3.226-3.325 6.248-7.016 9.543-11.658 2.47-3.48 7.726-11.546 8.568-13.149.187-.357.521-.65.741-.65.22 0 1.02 1.138 1.775 2.528 3.7 6.806 8.602 13.637 15.598 21.739 1.441 1.668 2.786 3.245 2.988 3.503.317.404-.107 1.01-3.077 4.393-5.859 6.674-10.311 12.795-14.535 19.98-1.214 2.065-2.391 3.79-2.616 3.832-.252.047-1.296-1.39-2.725-3.753zm107.479 3.17c-.218-.357-1.026-1.69-1.795-2.96-4.682-7.74-10.171-15.005-15.412-20.398-1.793-1.844-3.26-3.516-3.26-3.715 0-.199.99-1.41 2.2-2.694 4.837-5.129 9.494-11.263 14.427-18.998 1.564-2.453 3.156-4.948 3.537-5.543.836-1.306 1.364-1.372 1.84-.227.63 1.517 4.713 8.165 7.076 11.519 2.603 3.694 6.315 8.359 10.063 12.645 1.405 1.607 2.555 3.07 2.555 3.25 0 .182-1.06 1.467-2.355 2.857-5.794 6.216-13.721 17.257-17.013 23.694-.697 1.363-1.273 1.54-1.863.57zM55.778 157.076c-.226-.357-1.287-2.08-2.359-3.827-4.61-7.52-9.214-13.615-14.987-19.839l-3.438-3.706 2.66-2.869c5.19-5.597 11.01-13.534 17.507-23.877.478-.76 1.017-1.43 1.198-1.486.181-.057 1.01 1.17 1.84 2.727 2.996 5.608 7.645 12.235 13.32 18.982a944.37 944.37 0 0 1 4.565 5.46l.943 1.15-.943 1.088c-.519.599-2.027 2.302-3.351 3.785-4.77 5.34-10.791 13.783-14.377 20.156-.899 1.599-1.755 2.906-1.901 2.906-.147 0-.451-.292-.677-.65zm104.199-2.156c-4.758-7.999-10.728-15.987-16.217-21.701-1.668-1.738-3.033-3.32-3.033-3.516 0-.197 1.14-1.548 2.533-3.002 4.834-5.045 9.105-10.72 14.914-19.817 1.877-2.94 3.57-5.344 3.763-5.344.193 0 .662.585 1.042 1.3 3.944 7.413 9.138 14.726 16.477 23.2 1.632 1.886 2.968 3.557 2.968 3.714 0 .157-1.05 1.428-2.334 2.824-5.328 5.796-10.447 12.715-15.006 20.282-1.553 2.577-2.959 4.732-3.124 4.787-.166.055-1.058-1.172-1.983-2.727zm-50.753-26.732c-.178-.214-1.17-1.782-2.205-3.484-4.882-8.032-10.139-14.993-15.444-20.45-1.792-1.845-3.259-3.519-3.259-3.72 0-.2 1.158-1.574 2.574-3.051 4.744-4.95 10.068-12.08 15.489-20.738 1.558-2.49 2.985-4.522 3.171-4.518.186 0 1.044 1.311 1.905 2.903 3.328 6.15 8.52 13.412 14.903 20.845 2.01 2.342 3.655 4.4 3.655 4.573 0 .173-1.05 1.458-2.334 2.854-5.33 5.799-10.821 13.223-14.968 20.237-2.912 4.926-3.037 5.09-3.487 4.55zm-55.9-36.71c-4.816-7.888-9.499-14.063-15.1-19.914-1.753-1.832-3.187-3.411-3.187-3.51 0-.099 1.296-1.55 2.88-3.227 4.848-5.131 10.629-12.968 16.227-22.001 1.009-1.629 1.993-2.961 2.186-2.961.194 0 1.173 1.462 2.176 3.25 3.573 6.366 8.921 13.776 14.935 20.692 1.572 1.808 3.027 3.515 3.233 3.794.33.446.044.876-2.43 3.645-5.902 6.609-11.765 14.675-15.823 21.772-.863 1.51-1.754 2.777-1.98 2.818-.255.045-1.441-1.614-3.117-4.358zm106.494 1.468c-2.72-4.44-6.767-10.364-9.316-13.631-2.443-3.132-8.854-10.274-9.222-10.274-.124 0-.306-.255-.405-.567-.14-.438.549-1.368 3.048-4.116 5.142-5.653 10.189-12.572 16.268-22.305.752-1.203 1.534-2.186 1.738-2.183.203 0 1.087 1.335 1.963 2.96 3.24 6.012 9.22 14.268 15.74 21.734 1.527 1.747 2.78 3.315 2.784 3.483.004.168-1.052 1.468-2.347 2.889-5.65 6.199-12.042 14.957-16.061 22.01-.928 1.628-1.843 2.96-2.032 2.96-.19 0-1.16-1.332-2.158-2.96zM17.856 81.102c-1.186-1.787-3.091-4.269-4.233-5.514-2.36-2.574-2.4-2.022.375-5.282.93-1.093 2.664-3.45 3.853-5.237 1.19-1.787 2.282-3.25 2.428-3.25.147 0 .484.358.75.795 1.792 2.942 3.779 5.762 5.452 7.741 1.068 1.264 2.008 2.452 2.088 2.64.08.189-.726 1.359-1.792 2.6-1.863 2.17-5.929 8.008-5.929 8.512 0 .135-.188.245-.417.245-.23 0-1.389-1.463-2.575-3.25zM11.21 56.729c-.114-.113-.207-6.8-.207-14.86 0-13.095.049-14.672.458-14.828.798-.305 2.065-.19 2.405.218.237.285.307 4.442.253 14.95l-.075 14.555-1.314.085c-.723.047-1.407-.01-1.52-.12zm9.44-.367c-.748-.348-1.523-1.033-2.027-1.793l-.815-1.23V30.435l.698-1.016c1.068-1.555 2.356-2.294 4.31-2.47 2.846-.258 4.979.824 6.153 3.12.532 1.04.566 1.758.566 11.86 0 10.368-.022 10.8-.614 12.02-.924 1.904-2.455 2.79-5.006 2.894-1.562.064-2.343-.051-3.265-.48zm4.9-3.185l.945-.843V31.729l-.946-.843c-1.227-1.094-2.58-1.128-3.81-.095l-.89.748v20.792l.846.844c1.155 1.153 2.562 1.154 3.854 0z" fill="#eb8f8f"/><path d="M0 157.438V0h217.75v314.875H0V157.437zm211.688 156.25a9.26 9.26 0 0 0 4.376-4.252l.673-1.35V7.366l-.691-1.525c-.85-1.876-3.016-3.886-4.864-4.515C209.954.91 200.427.866 108.606.87H7.384l-1.448.675c-2.113.985-3.185 2.01-4.182 4L.87 7.31v150.133c0 133.575.048 150.27.44 151.378.862 2.438 2.827 4.32 5.438 5.21 1.432.487 6.454.51 102.418.46l100.912-.054 1.611-.754zm-18.84-18.766c-.947-.394-2.246-1.637-2.85-2.724-.416-.751-.492-2.206-.57-10.972-.061-6.868.015-10.524.239-11.41.74-2.941 3.051-4.521 6.238-4.266 2.138.171 3.334.81 4.406 2.351l.79 1.137.082 10.938c.077 10.252.047 11.017-.473 12.19-.305.687-1.048 1.626-1.652 2.086-.959.73-1.376.844-3.292.903-1.207.038-2.52-.067-2.918-.233zm4.655-3.424l.846-.844V280.44c0-11.32.027-11.154-1.904-11.959-1.416-.59-2.995-.018-3.67 1.328-.45.9-.506 2.043-.506 10.453 0 5.895.114 9.748.304 10.255.45 1.203 1.396 1.81 2.83 1.818 1.004.01 1.422-.161 2.1-.838zm7.645 3.39c-.08-.209-.11-6.879-.07-14.823l.076-14.443h2.606v29.465l-1.233.089c-.817.059-1.282-.039-1.378-.289zM53.612 277.952c-4.8-7.846-9.344-13.852-15.266-20.18-1.66-1.774-3.02-3.314-3.02-3.422 0-.108 1.146-1.45 2.547-2.984 5.964-6.533 9.755-11.672 16.633-22.55.914-1.445 1.761-2.626 1.882-2.624.122 0 .858 1.164 1.637 2.585 3.99 7.28 9.697 15.112 17.044 23.39.915 1.032 1.66 2.011 1.656 2.176-.005.165-1.52 1.99-3.369 4.056-5.367 5.998-11.066 13.883-14.876 20.581-.835 1.469-1.681 2.805-1.88 2.97-.272.225-1.001-.75-2.988-3.998zm107.154 2.519c-5.624-9.222-11.482-17.08-16.871-22.63-1.743-1.794-3.168-3.355-3.168-3.468 0-.113 1.014-1.268 2.253-2.567 5.547-5.814 11.904-14.44 17.55-23.812.598-.993 1.194-1.805 1.324-1.805.13 0 1.131 1.584 2.223 3.52 3.576 6.338 8.76 13.477 15.135 20.847 1.766 2.042 3.212 3.764 3.212 3.826 0 .062-.994 1.186-2.208 2.498-5.84 6.31-11.516 14.088-16.45 22.535-.905 1.549-1.709 2.816-1.786 2.816-.077 0-.623-.792-1.214-1.76zm35.927-23.878c-1.136-1.708-2.983-4.145-4.106-5.416-1.123-1.271-2.045-2.42-2.049-2.555-.004-.133.721-1.043 1.611-2.022.89-.978 2.738-3.436 4.107-5.462 1.368-2.025 2.585-3.683 2.704-3.683.119 0 .706.813 1.305 1.806 1.306 2.165 3.573 5.269 5.421 7.421.743.864 1.35 1.746 1.35 1.96 0 .213-.835 1.365-1.856 2.559-1.597 1.867-3.67 4.78-5.483 7.703-.27.437-.593.795-.716.795s-1.153-1.398-2.288-3.106zM107.6 247.35c-4.71-8.131-10.965-16.494-17.034-22.777-1.397-1.446-2.54-2.72-2.54-2.834 0-.113 1.38-1.725 3.068-3.583 5.217-5.744 9.743-11.926 16.104-21.993.909-1.439 1.777-2.616 1.928-2.616.152 0 .941 1.242 1.754 2.759 3.129 5.841 8.924 13.928 15.2 21.21 1.844 2.142 3.354 4 3.354 4.13 0 .129-1.472 1.9-3.272 3.937-5.625 6.367-11.022 13.843-15.034 20.828-.867 1.51-1.761 2.777-1.987 2.817-.24.042-.878-.735-1.54-1.878zm-51.983-27.587c-5.322-9.096-11.448-17.368-17.81-24.05-1.362-1.43-2.477-2.707-2.478-2.839-.001-.131 1.228-1.561 2.732-3.177 1.504-1.616 3.925-4.434 5.38-6.26 2.38-2.992 8.832-12.408 11.656-17.016.602-.982 1.203-1.719 1.335-1.637.133.082 1.028 1.55 1.99 3.262 3.617 6.436 8.48 13.19 14.655 20.355 2.011 2.333 3.657 4.368 3.657 4.521 0 .154-1.057 1.43-2.35 2.835-6.002 6.532-13.747 17.327-17.018 23.724-.343.671-.753 1.22-.912 1.22-.158 0-.535-.422-.837-.939zm103.786-2.888c-4.664-7.698-10.217-15.033-15.716-20.758l-3.027-3.152 1.698-1.882c4.493-4.98 5.85-6.581 8.07-9.524 2.573-3.411 7.198-10.265 9.698-14.372.846-1.39 1.635-2.528 1.752-2.528.117 0 1.022 1.463 2.011 3.25 3.444 6.223 8.385 13.102 14.558 20.265 1.63 1.891 3.193 3.731 3.474 4.09.507.645.486.678-2.41 3.928-5.687 6.378-10.856 13.451-15.047 20.59-1.207 2.055-2.317 3.777-2.469 3.827-.151.05-1.318-1.63-2.592-3.734zm-104.5-61.393c-4.736-8.165-10.842-16.36-16.753-22.486-1.553-1.61-2.824-3.087-2.824-3.285 0-.197 1.27-1.688 2.824-3.312 4.701-4.92 9.994-12.044 15.419-20.753 1.354-2.174 2.622-3.954 2.818-3.957.197 0 .7.678 1.12 1.512 3.116 6.198 8.976 14.43 16.259 22.84 1.632 1.885 2.968 3.556 2.968 3.713 0 .157-1.05 1.428-2.334 2.824-5.346 5.816-10.704 13.068-15.11 20.454-1.446 2.423-2.77 4.403-2.944 4.4-.174 0-.823-.88-1.444-1.95zm104.634-1.549c-4.727-7.806-9.452-14.103-15.374-20.49l-3.47-3.744 2.615-2.813c4.23-4.549 7.909-9.325 12.432-16.138 2.333-3.515 4.598-6.993 5.032-7.728.434-.734.955-1.334 1.158-1.332.203 0 .955 1.132 1.672 2.511 2.769 5.329 8.72 13.734 14.43 20.38a578.76 578.76 0 0 1 3.597 4.215l.797.959-.797.942a259.5 259.5 0 0 1-3.29 3.712c-4.76 5.292-10.737 13.633-14.326 19.99-.943 1.669-1.858 3.036-2.034 3.038-.176 0-1.275-1.574-2.442-3.502zm-52.544-29.498c-4.657-7.687-10.028-14.785-15.628-20.653l-3.098-3.247 2.663-2.873c4.258-4.592 7.857-9.253 12.286-15.91 2.272-3.416 4.481-6.817 4.908-7.559 1.333-2.31 1.396-2.3 2.939.543 3.363 6.194 7.858 12.578 13.858 19.68 1.924 2.279 3.876 4.593 4.336 5.143l.836 1-.718.78c-7.221 7.838-13.411 16.156-17.773 23.881-.942 1.67-1.844 3.036-2.003 3.037-.16.001-1.332-1.719-2.606-3.822zm-52.576-31.49c-5.171-8.443-9.904-14.792-15.704-21.069-1.863-2.016-3.387-3.749-3.387-3.851 0-.103 1.164-1.443 2.587-2.98 5.155-5.567 9.64-11.567 15.071-20.156 1.681-2.66 3.185-4.875 3.341-4.924.156-.049 1 1.236 1.877 2.855 3.273 6.049 9.007 13.986 15.746 21.794 1.532 1.775 2.786 3.343 2.786 3.483 0 .141-1.06 1.418-2.355 2.839-5.704 6.258-12.264 15.258-16.042 22.01-.911 1.628-1.758 2.96-1.881 2.96-.124 0-1.041-1.332-2.039-2.96zm104.597-1.473c-4.841-7.918-9.68-14.293-15.193-20.016-3.53-3.665-3.475-3.412-1.209-5.592 4.497-4.326 11.038-13.078 17.219-23.038 1.01-1.629 1.93-2.961 2.044-2.961.114 0 1.028 1.462 2.031 3.25 3.621 6.452 8.813 13.644 14.937 20.692 4.132 4.755 3.897 4.074 2.078 6.02-6.194 6.626-12.488 15.163-17.083 23.171-.86 1.498-1.688 2.764-1.84 2.812-.153.048-1.496-1.904-2.984-4.338zM18.96 82.555c-1.533-2.499-3.808-5.545-5.592-7.488-.823-.896-1.496-1.72-1.496-1.833 0-.112.954-1.338 2.12-2.724 1.167-1.387 2.992-3.845 4.058-5.462 1.065-1.617 2.105-2.94 2.31-2.94.205 0 .644.553.975 1.228.771 1.574 3.483 5.345 5.484 7.627.857.978 1.558 1.963 1.558 2.189 0 .225-.73 1.245-1.622 2.266-.893 1.021-2.66 3.416-3.928 5.323-1.268 1.906-2.407 3.503-2.53 3.547-.123.044-.725-.735-1.337-1.733zm-7.634-26.04c-.237-.285-.307-4.404-.253-14.805l.075-14.411 1.376-.088 1.375-.088V41.84c0 13.154-.049 14.737-.458 14.893-.777.298-1.772.195-2.115-.218zm9.996-.012a5.56 5.56 0 0 1-3.233-3.188c-.388-1.012-.44-2.731-.367-11.915l.086-10.73.869-1.223c1.329-1.87 2.434-2.343 5.235-2.237 2.017.076 2.48.195 3.361.866 2.08 1.584 2.108 1.749 2.2 13.308.054 6.646-.026 10.736-.224 11.47-.361 1.336-1.47 2.745-2.637 3.346-1.237.638-3.965.794-5.29.303zm4.055-2.905c1.219-.852 1.289-1.554 1.201-12.057-.078-9.382-.117-10.032-.639-10.606-1.132-1.247-3.406-1.257-4.646-.02-.567.565-.593.971-.673 10.604-.087 10.526-.018 11.227 1.201 12.079.332.232 1.132.422 1.778.422.646 0 1.446-.19 1.778-.422z" fill="#e66f6f"/><path d="M0 157.438V0h217.75v314.875H0V157.437zm211.688 156.25a9.26 9.26 0 0 0 4.376-4.252l.673-1.35V7.366l-.691-1.525c-.85-1.876-3.016-3.886-4.864-4.515C209.954.91 200.427.866 108.606.87H7.384l-1.448.675c-2.113.985-3.185 2.01-4.182 4L.87 7.31v150.133c0 133.575.048 150.27.44 151.378.862 2.438 2.827 4.32 5.438 5.21 1.432.487 6.454.51 102.418.46l100.912-.054 1.611-.754zm-18.985-19c-1.378-.631-1.995-1.275-2.595-2.708-.373-.89-.445-2.771-.445-11.598 0-6.74.11-10.827.308-11.347.377-.996 1.595-2.314 2.645-2.861.466-.243 1.637-.407 2.896-.407 2.514 0 3.565.518 4.78 2.35l.808 1.217.086 10.34c.057 6.881-.02 10.735-.233 11.52-.418 1.55-2.085 3.369-3.428 3.741-1.6.444-3.531.345-4.822-.247zm4.04-2.503c1.733-.82 1.751-.947 1.751-11.96 0-8.868-.055-10.091-.484-10.744-1.102-1.678-3.674-1.789-5-.216l-.741.879v10.194c0 9.976.013 10.21.619 10.979 1.045 1.326 2.295 1.607 3.856.868zm8.399 2.685c-.076-.198-.105-6.796-.063-14.66l.075-14.3 1.129-.092c.707-.057 1.22.05 1.37.29.407.64.315 28.368-.096 28.777-.458.457-2.238.446-2.415-.014zm-149.35-13.577c-.218-.357-1.024-1.69-1.792-2.96-4.507-7.463-10.363-15.195-15.565-20.552-2.13-2.194-3.086-3.376-2.934-3.628.125-.207 1.503-1.74 3.064-3.408 1.56-1.669 3.953-4.464 5.318-6.211 2.55-3.265 8.134-11.444 10.7-15.672.795-1.31 1.576-2.383 1.736-2.382.16 0 1.137 1.517 2.172 3.37 3.42 6.124 8.663 13.346 15.031 20.707 1.766 2.042 3.212 3.764 3.212 3.826 0 .062-.994 1.186-2.207 2.498-5.914 6.39-12.693 15.746-16.76 23.129-.587 1.063-1.181 1.933-1.322 1.933-.141 0-.435-.292-.653-.65zm104.376-1.935c-2.178-3.67-5.897-9.207-8.434-12.558-2.291-3.026-7.532-9.068-9.529-10.987-.654-.628-1.189-1.25-1.189-1.38 0-.132 1.34-1.716 2.976-3.52 5.203-5.736 9.111-10.995 14.669-19.74 1.64-2.582 3.09-4.694 3.22-4.694.13 0 .915 1.202 1.745 2.672 3.822 6.771 8.702 13.583 14.926 20.83 1.89 2.203 3.437 4.17 3.437 4.37 0 .202-1.303 1.828-2.895 3.614-5.447 6.11-11.421 14.357-15.261 21.07-.857 1.498-1.687 2.766-1.843 2.818-.157.052-.977-1.07-1.822-2.495zm38.538-20.02c-.161-.198-1.21-1.726-2.33-3.394-1.12-1.668-2.9-3.971-3.955-5.118l-1.919-2.084 2.24-2.682c1.232-1.475 3.058-3.939 4.059-5.476 1-1.536 1.927-2.86 2.059-2.941.132-.081.817.828 1.521 2.02.705 1.194 2.393 3.544 3.751 5.224 1.359 1.68 2.586 3.21 2.729 3.4.175.232-.543 1.33-2.204 3.376-1.354 1.667-3.152 4.158-3.996 5.534-.843 1.377-1.562 2.503-1.597 2.503-.036 0-.196-.163-.358-.361zm-91.292-12.566c-4.68-7.83-9.732-14.64-15.653-21.097l-3.784-4.127 2.578-2.69c4.894-5.107 10.11-12.092 15.729-21.065 1.552-2.479 2.785-4.168 2.934-4.02.14.14 1.032 1.648 1.98 3.35 3.601 6.46 8.23 12.812 15.563 21.355 1.608 1.874 2.602 3.264 2.478 3.47-.113.188-1.28 1.512-2.593 2.942-5.8 6.315-13.35 16.875-16.58 23.19-.343.671-.74 1.22-.882 1.22-.143 0-.939-1.137-1.77-2.528zm-51.635-27.01c-.225-.357-1.546-2.47-2.935-4.694-4.623-7.4-9.42-13.632-14.73-19.135l-2.86-2.962 1.99-2.179c3.918-4.286 6.826-7.854 9.766-11.978 2.795-3.923 8.443-12.581 8.784-13.468.269-.698.838-.43 1.347.636 2.632 5.506 10.359 16.356 16.956 23.81 1.055 1.191 2.084 2.38 2.286 2.64.318.408-.031.92-2.558 3.755-5.628 6.312-11.875 14.93-15.624 21.553-.832 1.47-1.625 2.672-1.763 2.672-.137 0-.434-.292-.659-.65zm104.185-2.166c-4.637-7.764-9.739-14.613-15.645-21.002-1.816-1.965-3.303-3.662-3.303-3.771 0-.11 1.057-1.323 2.348-2.698 4.999-5.322 10.228-12.319 15.5-20.741 1.528-2.44 2.881-4.436 3.009-4.436.127 0 1.012 1.398 1.966 3.106 3.55 6.352 8.384 13.075 14.64 20.362 2.01 2.341 3.655 4.364 3.655 4.494 0 .13-1.055 1.4-2.345 2.82-6.09 6.709-12.603 15.734-16.505 22.874-.542.99-1.132 1.803-1.311 1.805-.18 0-1.084-1.264-2.009-2.813zM53.882 153.542c-4.773-7.814-9.26-13.78-15.12-20.1l-3.47-3.743 2.616-2.813c5.158-5.548 11.634-14.378 17.19-23.44.601-.982 1.21-1.714 1.351-1.627.142.087.908 1.363 1.703 2.834 3.125 5.782 8.745 13.604 14.944 20.795l3.676 4.265-1.105 1.256c-8.439 9.59-12.805 15.507-17.465 23.67-.876 1.535-1.671 2.792-1.767 2.794-.095 0-1.244-1.749-2.553-3.891zm106.911 2.179c-5.601-9.18-11.469-17.062-16.809-22.581-1.632-1.687-2.968-3.23-2.968-3.427 0-.198 1.27-1.69 2.824-3.314 4.707-4.926 9.55-11.432 15.13-20.327 1.512-2.412 2.846-4.386 2.963-4.387.117 0 .616.795 1.108 1.768 3.104 6.135 9.873 15.57 16.776 23.38 1.274 1.443 2.317 2.76 2.317 2.927 0 .168-.791 1.15-1.759 2.18-5.732 6.114-11.912 14.51-16.324 22.175-.914 1.59-1.773 3.006-1.91 3.15-.141.148-.718-.512-1.348-1.544zm-51.714-28.08c-.235-.374-1.473-2.37-2.75-4.435-2.88-4.657-5.989-9.101-8.857-12.659-2.312-2.867-7.431-8.454-8.335-9.096-.868-.616-.622-1.286 1.085-2.954 4.38-4.28 10.508-12.36 16.054-21.169 1.668-2.65 3.12-4.818 3.225-4.819.106 0 1.009 1.461 2.007 3.249 3.522 6.305 8.594 13.318 15.007 20.75 1.765 2.046 3.208 3.893 3.208 4.105 0 .212-.405.767-.901 1.234-1.537 1.445-6.702 7.617-9.294 11.104a123.61 123.61 0 0 0-7.887 11.988c-.914 1.589-1.768 3-1.898 3.136-.13.136-.428-.059-.664-.433zm-53.3-32.673c-.224-.358-1.467-2.364-2.762-4.46-4.528-7.327-9.294-13.547-14.596-19.052-3.53-3.665-3.475-3.412-1.209-5.592 4.524-4.353 12.42-14.977 17.66-23.759.637-1.067 1.288-1.942 1.448-1.944.159 0 .94 1.197 1.737 2.663 3.234 5.951 9.005 13.973 15.096 20.983 4.132 4.755 3.897 4.074 2.078 6.02-6.173 6.603-12.566 15.262-16.859 22.83-.923 1.629-1.793 2.961-1.931 2.961-.14 0-.437-.293-.661-.65zm104.794-1.226c-1.74-3.105-7.768-11.93-10.36-15.168-1.335-1.668-3.853-4.574-5.595-6.457-1.742-1.883-3.288-3.591-3.436-3.796-.192-.267.49-1.19 2.403-3.253 5.042-5.437 9.67-11.628 15.01-20.076 1.682-2.66 3.16-4.838 3.283-4.838.124 0 1.014 1.41 1.977 3.135 3.49 6.246 8.862 13.642 15.493 21.325 1.532 1.775 2.786 3.336 2.786 3.469 0 .132-1.063 1.41-2.362 2.838-3.221 3.542-7.477 8.882-10.128 12.709-2.319 3.345-7.2 11.301-7.2 11.734 0 .14-.184.254-.41.254-.225 0-.882-.844-1.46-1.876zM18.045 80.957c-1.13-1.707-2.98-4.115-4.113-5.35-1.133-1.234-2.06-2.349-2.06-2.477 0-.128.342-.548.76-.933 1.145-1.054 4.536-5.492 6.06-7.931.741-1.187 1.461-2.158 1.6-2.158s.47.423.736.94c.853 1.65 3.188 4.96 5.347 7.573 1.454 1.76 2.016 2.648 1.832 2.897-.145.197-1.022 1.253-1.947 2.346-1.481 1.75-3.788 5.013-5.234 7.404-.264.437-.581.795-.704.795s-1.148-1.398-2.277-3.106zm-6.682-38.981l.075-14.677h2.316v29.176l-1.233.09-1.233.088.075-14.677zm9.135 14.052c-.653-.344-1.39-1.103-1.882-1.937l-.808-1.371-.096-9.822c-.108-11.005.027-12.263 1.492-13.927 1.16-1.317 2.367-1.817 4.395-1.817 2.584 0 4.479 1.166 5.402 3.322.503 1.178.718 19.446.253 21.608-.673 3.135-2.448 4.544-5.694 4.523-1.396-.01-2.308-.181-3.062-.579zm5.345-2.87l.797-.88-.01-10.323c-.01-10.94.019-10.712-1.43-11.708-1.187-.816-2.527-.637-3.656.49l-.985.982v10.245c0 10.028.013 10.261.62 11.03 1.252 1.59 3.312 1.662 4.665.165z" fill="#929292"/><path d="M0 157.438V0h217.75v314.875H0V157.437zM212.14 313.66c1.847-.973 3.686-3.022 4.285-4.775.413-1.209.456-15.59.456-151.428V7.366l-.823-1.736c-.917-1.934-2.395-3.386-4.374-4.3l-1.318-.608H7.094l-1.303.68c-1.775.928-3.371 2.5-4.296 4.231L.724 7.077v150.36c0 129.727.057 150.5.414 151.372 1.088 2.657 3.084 4.573 5.572 5.35 1.045.325 18.1.381 102.6.336l101.346-.054 1.483-.78zm-19.437-18.973c-1.378-.631-1.995-1.275-2.595-2.708-.373-.89-.445-2.771-.445-11.598 0-6.74.11-10.827.308-11.347.377-.997 1.595-2.314 2.645-2.861.466-.243 1.637-.408 2.896-.407 2.514 0 3.565.518 4.78 2.35l.808 1.217.086 10.34c.057 6.881-.02 10.734-.233 11.52-.418 1.55-2.085 3.369-3.428 3.741-1.6.443-3.531.345-4.822-.247zm4.04-2.503c1.733-.82 1.751-.947 1.751-11.96 0-8.868-.055-10.091-.484-10.744-1.102-1.678-3.674-1.789-5-.216l-.741.878v10.194c0 9.977.013 10.211.619 10.98 1.045 1.326 2.295 1.607 3.856.868zm8.399 2.685c-.076-.198-.105-6.796-.063-14.66l.075-14.3 1.129-.092c.707-.058 1.22.05 1.37.29.407.64.315 28.368-.096 28.777-.458.457-2.238.446-2.415-.014zm-149.35-13.577c-.218-.357-1.024-1.69-1.792-2.96-4.507-7.463-10.363-15.195-15.565-20.552-2.13-2.194-3.086-3.376-2.934-3.629.125-.206 1.503-1.74 3.064-3.408 1.56-1.668 3.953-4.463 5.318-6.21 2.55-3.265 8.134-11.444 10.7-15.672.795-1.31 1.576-2.383 1.736-2.382.16 0 1.137 1.517 2.172 3.37 3.42 6.124 8.663 13.346 15.031 20.707 1.766 2.042 3.212 3.764 3.212 3.826 0 .062-.994 1.186-2.207 2.498-5.914 6.39-12.693 15.746-16.76 23.129-.587 1.063-1.181 1.933-1.322 1.933-.141 0-.435-.292-.653-.65zm104.376-1.935c-2.178-3.67-5.897-9.207-8.434-12.558-2.291-3.026-7.532-9.068-9.529-10.987-.654-.628-1.189-1.25-1.189-1.38 0-.132 1.34-1.716 2.976-3.52 5.203-5.736 9.111-10.996 14.669-19.74 1.64-2.582 3.09-4.694 3.22-4.694.13 0 .915 1.202 1.745 2.672 3.822 6.771 8.702 13.583 14.926 20.83 1.89 2.203 3.437 4.17 3.437 4.37 0 .202-1.303 1.828-2.895 3.614-5.447 6.11-11.421 14.357-15.261 21.07-.857 1.498-1.687 2.766-1.843 2.818-.157.052-.977-1.07-1.822-2.495zm38.538-20.02c-.161-.198-1.21-1.726-2.33-3.394-1.12-1.668-2.9-3.971-3.955-5.118l-1.919-2.084 2.24-2.682c1.232-1.475 3.058-3.939 4.059-5.476 1-1.536 1.927-2.86 2.059-2.941.132-.081.817.828 1.521 2.02.705 1.193 2.393 3.544 3.751 5.224 1.359 1.68 2.586 3.21 2.729 3.4.175.232-.543 1.33-2.204 3.375-1.354 1.668-3.152 4.159-3.996 5.535-.843 1.377-1.562 2.503-1.597 2.503-.036 0-.196-.163-.358-.361zm-91.292-12.566c-4.68-7.83-9.732-14.64-15.653-21.097l-3.784-4.127 2.578-2.69c4.894-5.107 10.11-12.092 15.729-21.065 1.552-2.479 2.785-4.168 2.934-4.02.14.14 1.032 1.648 1.98 3.35 3.601 6.46 8.23 12.812 15.563 21.355 1.608 1.874 2.602 3.264 2.478 3.47-.113.188-1.28 1.512-2.593 2.942-5.8 6.315-13.35 16.875-16.58 23.19-.343.671-.74 1.22-.882 1.22-.143 0-.939-1.137-1.77-2.528zm-51.635-27.01c-.225-.357-1.546-2.47-2.935-4.694-4.623-7.4-9.42-13.632-14.73-19.135l-2.86-2.962 1.99-2.179c3.918-4.286 6.826-7.854 9.766-11.978 2.795-3.923 8.443-12.581 8.784-13.468.269-.698.838-.43 1.347.636 2.632 5.506 10.359 16.356 16.956 23.81 1.055 1.191 2.084 2.38 2.286 2.64.318.408-.031.92-2.558 3.755-5.628 6.312-11.875 14.93-15.624 21.553-.832 1.47-1.625 2.672-1.763 2.672-.137 0-.434-.292-.659-.65zm104.185-2.166c-4.637-7.764-9.739-14.613-15.645-21.002-1.816-1.965-3.303-3.662-3.303-3.771 0-.11 1.057-1.323 2.348-2.698 4.999-5.322 10.228-12.319 15.5-20.741 1.528-2.44 2.881-4.436 3.009-4.436.127 0 1.012 1.398 1.966 3.106 3.55 6.352 8.384 13.075 14.64 20.362 2.01 2.341 3.655 4.364 3.655 4.494 0 .13-1.055 1.4-2.345 2.82-6.09 6.709-12.603 15.734-16.505 22.874-.542.99-1.132 1.803-1.311 1.805-.18 0-1.084-1.264-2.009-2.813zM53.882 153.542c-4.773-7.814-9.26-13.78-15.12-20.1l-3.47-3.743 2.616-2.813c5.158-5.548 11.634-14.378 17.19-23.44.601-.982 1.21-1.714 1.351-1.627.142.087.908 1.363 1.703 2.834 3.125 5.782 8.745 13.604 14.944 20.795l3.676 4.265-1.105 1.256c-8.439 9.59-12.805 15.507-17.465 23.67-.876 1.535-1.671 2.792-1.767 2.794-.095 0-1.244-1.749-2.553-3.891zm106.911 2.179c-5.601-9.18-11.469-17.062-16.809-22.581-1.632-1.687-2.968-3.23-2.968-3.428 0-.197 1.27-1.689 2.824-3.313 4.707-4.926 9.55-11.432 15.13-20.327 1.512-2.412 2.846-4.386 2.963-4.387.117 0 .616.795 1.108 1.768 3.104 6.135 9.873 15.57 16.776 23.38 1.274 1.443 2.317 2.76 2.317 2.927 0 .168-.791 1.15-1.759 2.18-5.732 6.114-11.912 14.51-16.324 22.175-.914 1.59-1.773 3.006-1.91 3.15-.141.148-.718-.512-1.348-1.544zm-51.714-28.08c-.235-.374-1.473-2.37-2.75-4.435-2.88-4.657-5.989-9.101-8.857-12.659-2.312-2.867-7.431-8.454-8.335-9.096-.868-.616-.622-1.286 1.085-2.954 4.38-4.28 10.508-12.36 16.054-21.169 1.668-2.65 3.12-4.818 3.225-4.819.106 0 1.009 1.461 2.007 3.249 3.522 6.305 8.594 13.318 15.007 20.75 1.765 2.046 3.208 3.893 3.208 4.105 0 .212-.405.767-.901 1.234-1.537 1.445-6.702 7.617-9.294 11.104a123.61 123.61 0 0 0-7.887 11.988c-.914 1.589-1.768 3-1.898 3.136-.13.136-.428-.059-.664-.433zm-53.3-32.673c-.224-.358-1.467-2.364-2.762-4.46-4.528-7.327-9.294-13.547-14.596-19.052-3.53-3.665-3.475-3.412-1.209-5.592 4.524-4.353 12.42-14.977 17.66-23.759.637-1.067 1.288-1.942 1.448-1.944.159 0 .94 1.197 1.737 2.663 3.234 5.951 9.005 13.973 15.096 20.983 4.132 4.755 3.897 4.074 2.078 6.02-6.173 6.603-12.566 15.262-16.859 22.83-.923 1.629-1.793 2.961-1.931 2.961-.14 0-.437-.293-.661-.65zm104.794-1.226c-1.74-3.105-7.768-11.93-10.36-15.168-1.335-1.668-3.853-4.574-5.595-6.457-1.742-1.883-3.288-3.591-3.436-3.796-.192-.267.49-1.19 2.403-3.253 5.042-5.437 9.67-11.628 15.01-20.076 1.682-2.66 3.16-4.838 3.283-4.838.124 0 1.014 1.41 1.977 3.135 3.49 6.246 8.862 13.642 15.493 21.325 1.532 1.775 2.786 3.336 2.786 3.469 0 .132-1.063 1.41-2.362 2.838-3.221 3.542-7.477 8.882-10.128 12.709-2.319 3.345-7.2 11.301-7.2 11.734 0 .14-.184.254-.41.254-.225 0-.882-.844-1.46-1.876zM18.045 80.957c-1.13-1.707-2.98-4.115-4.113-5.35-1.133-1.234-2.06-2.349-2.06-2.477 0-.128.342-.548.76-.933 1.145-1.054 4.536-5.492 6.06-7.931.741-1.187 1.461-2.158 1.6-2.158s.47.423.736.94c.853 1.65 3.188 4.96 5.347 7.573 1.454 1.76 2.016 2.648 1.832 2.897-.145.197-1.022 1.253-1.947 2.346-1.481 1.75-3.788 5.013-5.234 7.404-.264.437-.581.795-.704.795s-1.148-1.398-2.277-3.106zm-6.682-38.981l.075-14.677h2.316v29.176l-1.233.09-1.233.088.075-14.677zm9.135 14.052c-.653-.344-1.39-1.103-1.882-1.937l-.808-1.371-.096-9.822c-.108-11.005.027-12.263 1.492-13.927 1.16-1.317 2.367-1.817 4.395-1.817 2.584 0 4.479 1.166 5.402 3.322.503 1.178.718 19.446.253 21.608-.673 3.135-2.448 4.544-5.694 4.523-1.396-.01-2.308-.181-3.062-.579zm5.345-2.87l.797-.88-.01-10.323c-.01-10.94.019-10.712-1.43-11.709-1.187-.816-2.527-.636-3.656.49l-.985.983v10.245c0 10.028.013 10.261.62 11.03 1.252 1.59 3.312 1.662 4.665.165z" fill="#e15050"/><path d="M0 157.438V0h217.75v314.875H0V157.437zM212.14 313.66c1.847-.973 3.686-3.022 4.285-4.775.413-1.209.456-15.59.456-151.428V7.366l-.823-1.736c-.917-1.934-2.395-3.386-4.374-4.3l-1.318-.608H7.094l-1.303.68c-1.775.928-3.371 2.5-4.296 4.231L.724 7.077v150.36c0 129.727.057 150.5.414 151.372 1.088 2.657 3.084 4.573 5.572 5.35 1.045.325 18.1.381 102.6.336l101.346-.054 1.483-.78zm-19.727-19.24c-2.63-1.668-2.723-2.137-2.736-13.778-.012-10.185.102-11.39 1.22-12.96 1.199-1.683 4.754-2.459 6.955-1.52 1.127.482 2.376 1.765 2.795 2.872.198.522.306 4.61.302 11.41-.007 11.857-.065 12.24-2.06 13.66-1.352.962-5.162 1.148-6.476.315zm5.241-2.772l.985-.982v-20.626l-.985-.982c-.82-.818-1.196-.982-2.252-.982-1.52 0-2.473.601-3.02 1.906-.524 1.252-.59 19.139-.076 20.61.41 1.17 1.79 2.036 3.25 2.037.882 0 1.319-.203 2.098-.98zm7.645-11.312V265.73l1.086.09 1.086.09.075 14.516.075 14.516h-2.322v-14.605zm-149.52.667c-.224-.357-1.453-2.34-2.732-4.405-4.45-7.19-9.265-13.472-14.692-19.164-2.065-2.166-2.773-3.09-2.576-3.364.15-.207 1.563-1.788 3.14-3.512 4.752-5.193 8.696-10.5 13.924-18.736 1.714-2.7 3.216-5.02 3.337-5.153.12-.133.905.972 1.743 2.456 3.898 6.9 8.624 13.497 15.01 20.95 1.931 2.255 3.511 4.172 3.511 4.261 0 .09-1.472 1.833-3.27 3.876-5.682 6.45-11.442 14.444-15.08 20.928-.775 1.382-1.522 2.513-1.658 2.513-.136 0-.432-.292-.656-.65zm104.779-1.296c-2.15-3.679-7.911-12.063-10.47-15.238-1.406-1.746-4.022-4.695-5.814-6.554-1.792-1.859-3.258-3.456-3.258-3.548 0-.093 1.296-1.54 2.88-3.216 1.584-1.676 4.068-4.566 5.521-6.422 2.521-3.22 9.239-13.07 11.314-16.59.539-.914 1.051-1.661 1.139-1.661.087 0 .806 1.2 1.597 2.669 3.12 5.788 9.076 14.074 15.084 20.984 1.573 1.808 3.03 3.519 3.239 3.801.337.457.085.835-2.255 3.386-5.299 5.776-9.994 12.094-14.425 19.411-1.583 2.615-2.998 4.794-3.145 4.843-.146.049-.78-.79-1.407-1.865zm36.401-23.146c-1.004-1.554-2.795-3.946-3.981-5.316-1.187-1.37-2.157-2.576-2.157-2.679 0-.103.728-.988 1.618-1.966.89-.978 2.681-3.366 3.981-5.307 1.3-1.94 2.43-3.533 2.512-3.539.08-.01.755.997 1.498 2.229.743 1.231 2.468 3.626 3.833 5.322 1.366 1.697 2.484 3.269 2.484 3.494 0 .226-.279.658-.62.96-1.025.913-4.548 5.575-5.8 7.68-.647 1.083-1.258 1.965-1.36 1.959-.1-.01-1.004-1.284-2.008-2.837zm-89.841-10.512c-5.157-8.42-10.54-15.576-15.834-21.048-1.632-1.687-2.968-3.194-2.968-3.35 0-.156.28-.531.622-.834 1.219-1.077 6.523-7.241 8.7-10.11 2.266-2.985 6.634-9.435 9.617-14.2.92-1.47 1.78-2.608 1.91-2.527.131.08.851 1.283 1.6 2.673 3.123 5.79 9.355 14.398 15.738 21.736 1.45 1.669 2.639 3.132 2.64 3.253 0 .12-1.3 1.68-2.89 3.466-5.549 6.234-11.905 15.026-15.458 21.38-.776 1.387-1.513 2.522-1.637 2.522-.125 0-1.043-1.332-2.04-2.96zm-51.933-27.493c-1.837-3.277-7.823-12.014-10.604-15.477-1.467-1.827-4.085-4.836-5.816-6.687-1.732-1.851-3.149-3.459-3.149-3.574 0-.114 1.092-1.353 2.427-2.752 5.266-5.52 11.187-13.65 18.005-24.722.26-.42.602.026 2.152 2.802 3.559 6.37 8.763 13.57 15.062 20.838 1.75 2.019 3.182 3.775 3.182 3.902 0 .127-1.062 1.4-2.36 2.829-5.413 5.96-10.247 12.474-14.595 19.668-1.528 2.527-2.882 4.702-3.01 4.833-.126.13-.71-.616-1.294-1.66zm106.285 1.205a1571.95 1571.95 0 0 1-2.763-4.459c-4.534-7.336-9.293-13.547-14.614-19.072l-3.15-3.27 2.6-2.812c5.198-5.622 9.805-11.793 15.42-20.65 1.486-2.344 2.803-4.262 2.926-4.262.124 0 .777 1.008 1.452 2.239 4.01 7.318 7.483 12.041 18.021 24.513l.821.972-1.556 1.665c-6.17 6.6-12.564 15.26-16.855 22.825-.923 1.63-1.727 2.961-1.786 2.961-.06 0-.292-.292-.516-.65zM55.132 155.343c-5.688-9.463-11.816-17.61-17.322-23.03-1.207-1.188-2.192-2.293-2.19-2.456.002-.163 1.178-1.569 2.613-3.125 5.01-5.43 9.13-10.923 14.558-19.412 1.821-2.848 3.425-5.214 3.565-5.257.14-.043.782.926 1.429 2.154 3.042 5.779 9.017 14.15 15.302 21.437 1.846 2.141 3.357 4.006 3.357 4.144 0 .137-.992 1.31-2.205 2.606-4.961 5.3-10.76 13.134-14.935 20.173-1.482 2.5-2.783 4.552-2.891 4.559-.108.01-.684-.8-1.281-1.793zm105.465-.15c-2.16-3.738-7.684-11.795-10.44-15.226-1.53-1.904-4.23-5.001-6.003-6.884l-3.223-3.422 1.883-1.928c4.528-4.638 8.506-9.763 13.664-17.607 1.957-2.974 3.916-6.026 4.355-6.78.438-.755.898-1.373 1.02-1.373.123 0 1.015 1.427 1.983 3.17 3.61 6.502 8.578 13.33 15.617 21.463l2.692 3.11-3.277 3.71c-5.602 6.34-10.99 13.763-14.902 20.534-.96 1.662-1.86 3.057-1.996 3.1-.138.042-.755-.798-1.373-1.867zm-51.518-27.84c-.235-.374-1.474-2.37-2.752-4.436-4.587-7.412-9.337-13.615-14.643-19.125l-3.148-3.267 1.99-2.093c4.9-5.155 8.44-9.724 13.542-17.482 1.956-2.975 3.916-6.026 4.354-6.781.439-.755.906-1.372 1.04-1.372.132 0 .793 1.007 1.468 2.239 3.89 7.096 11.164 16.972 18.284 24.821l.57.628-3.016 3.416c-6.286 7.12-11.036 13.636-15.128 20.75-.914 1.588-1.767 3-1.897 3.135-.13.136-.428-.059-.664-.433zM54.6 92.778c-5.601-9.168-12.49-18.184-17.796-23.29-.653-.628-1.187-1.26-1.187-1.405 0-.145 1.065-1.386 2.367-2.758 4.77-5.027 10.199-12.298 15.481-20.736 1.527-2.44 2.816-4.435 2.863-4.435.048 0 .903 1.462 1.901 3.25 3.493 6.255 8.342 12.966 14.812 20.502 1.872 2.181 3.404 4.042 3.404 4.136 0 .094-1.511 1.885-3.358 3.98-5.607 6.358-11.04 13.895-14.88 20.64-.837 1.472-1.608 2.729-1.711 2.793-.104.064-.957-1.14-1.896-2.677zM161.51 95.03c-.247-.392-1.508-2.426-2.803-4.521-4.551-7.365-9.466-13.784-14.606-19.077l-3.16-3.254 2.282-2.495c6.248-6.834 8.883-10.416 17.69-24.044l1-1.548 1.957 3.426c4.134 7.233 9.031 13.972 15.507 21.337 1.118 1.271 2.207 2.532 2.419 2.802.34.432.163.728-1.458 2.455-6.53 6.955-11.362 13.673-18.13 25.208-.203.345-.332.291-.698-.289zM18.404 81.242c-1.067-1.604-2.81-3.917-3.874-5.139-1.064-1.222-2.054-2.386-2.201-2.587-.188-.255.316-1.043 1.687-2.636 1.074-1.25 2.878-3.67 4.008-5.377 1.13-1.708 2.142-3.106 2.25-3.106.107 0 .858 1.073 1.667 2.383.81 1.311 2.361 3.472 3.447 4.802 3.058 3.745 2.975 3.53 1.87 4.842-1.753 2.083-5.102 6.652-6.01 8.197l-.904 1.538-1.94-2.917zm-6.918-24.815c-.106-.106-.193-6.678-.193-14.605V27.41l1.23.089 1.231.089.075 14.122c.055 10.188-.016 14.232-.252 14.516-.338.406-1.75.542-2.091.201zm9.85-.208c-1.452-.54-2.19-1.225-2.839-2.633-.484-1.053-.532-2.087-.538-11.68-.006-10.142.016-10.571.608-11.79.357-.737 1.079-1.573 1.725-2 1.008-.665 1.333-.724 3.512-.63 2.778.118 3.859.681 4.754 2.48.502 1.006.543 1.916.543 12.087V53.05l-.795 1.199c-.437.659-1.208 1.411-1.712 1.671-1.267.654-3.9.803-5.258.298zm4.212-2.478c1.358-1.066 1.409-1.536 1.32-12.253l-.084-10.049-.945-.842c-1.332-1.187-3.147-1.187-4.48 0l-.945.842-.083 10.049c-.06 7.202.012 10.28.256 10.866.519 1.25 1.606 1.955 3.012 1.955.78 0 1.488-.207 1.949-.568z" fill="#6b6b6b"/><path d="M0 157.438V0h217.75v314.875H0V157.437zm212.34 156.456c1.734-.86 3.559-2.871 4.232-4.666l.599-1.597V157.623c0-136.438-.042-150.131-.461-151.359-.615-1.8-2.787-4.163-4.6-5.005l-1.454-.676H108.73C9.012.583 6.778.598 5.586 1.14c-1.6.724-3.557 2.706-4.362 4.415l-.645 1.37.006 150.723c.006 145.924.024 150.762.541 151.9 1.022 2.244 3.299 4.271 5.348 4.761.5.12 46.776.198 102.835.174 99.425-.043 101.953-.057 103.03-.591zm-19.927-19.474c-2.63-1.667-2.723-2.136-2.736-13.777-.012-10.185.102-11.39 1.22-12.96 1.199-1.683 4.754-2.459 6.955-1.52 1.127.482 2.376 1.765 2.795 2.872.198.522.306 4.61.302 11.41-.007 11.857-.065 12.24-2.06 13.66-1.352.962-5.162 1.148-6.476.315zm5.241-2.77l.985-.983v-20.626l-.985-.982c-.82-.818-1.196-.982-2.252-.982-1.52 0-2.473.601-3.02 1.906-.524 1.252-.59 19.139-.076 20.61.41 1.17 1.79 2.036 3.25 2.037.882 0 1.319-.203 2.098-.98zm7.645-11.313V265.73l1.086.09 1.086.09.075 14.516.075 14.516h-2.322v-14.605zm-149.52.667c-.224-.357-1.453-2.34-2.732-4.405-4.45-7.19-9.265-13.472-14.692-19.164-2.065-2.166-2.773-3.09-2.576-3.364.15-.207 1.563-1.787 3.14-3.512 4.752-5.193 8.696-10.5 13.924-18.736 1.714-2.7 3.216-5.02 3.337-5.153.12-.133.905.972 1.743 2.456 3.898 6.9 8.624 13.497 15.01 20.95 1.931 2.255 3.511 4.172 3.511 4.261 0 .09-1.472 1.833-3.27 3.876-5.682 6.45-11.442 14.444-15.08 20.928-.775 1.382-1.522 2.513-1.658 2.513-.136 0-.432-.292-.656-.65zm104.779-1.296c-2.15-3.679-7.911-12.063-10.47-15.238-1.406-1.746-4.022-4.695-5.814-6.554-1.792-1.859-3.258-3.456-3.258-3.548 0-.093 1.296-1.54 2.88-3.216 1.584-1.676 4.068-4.566 5.521-6.422 2.521-3.22 9.239-13.07 11.314-16.59.539-.914 1.051-1.661 1.139-1.661.087 0 .806 1.2 1.597 2.669 3.12 5.788 9.076 14.074 15.084 20.984 1.573 1.808 3.03 3.519 3.239 3.801.337.457.085.835-2.255 3.386-5.299 5.776-9.994 12.094-14.425 19.411-1.583 2.615-2.998 4.794-3.145 4.843-.146.049-.78-.79-1.407-1.865zm36.401-23.146c-1.004-1.554-2.795-3.946-3.981-5.316-1.187-1.37-2.157-2.576-2.157-2.679 0-.103.728-.988 1.618-1.966.89-.978 2.681-3.366 3.981-5.307 1.3-1.94 2.43-3.533 2.512-3.539.08-.01.755.997 1.498 2.229.743 1.231 2.468 3.626 3.833 5.322 1.366 1.697 2.484 3.269 2.484 3.494 0 .226-.279.658-.62.96-1.025.913-4.548 5.575-5.8 7.68-.647 1.083-1.258 1.965-1.36 1.959-.1-.01-1.004-1.284-2.008-2.837zm-89.841-10.512c-5.157-8.42-10.54-15.576-15.834-21.048-1.632-1.687-2.968-3.194-2.968-3.35 0-.156.28-.531.622-.834 1.219-1.077 6.523-7.241 8.7-10.11 2.266-2.985 6.634-9.435 9.617-14.2.92-1.47 1.78-2.608 1.91-2.527.131.08.851 1.283 1.6 2.673 3.123 5.79 9.355 14.398 15.738 21.736 1.45 1.669 2.639 3.132 2.64 3.253 0 .12-1.3 1.68-2.89 3.466-5.549 6.234-11.905 15.026-15.458 21.38-.776 1.387-1.513 2.522-1.637 2.522-.125 0-1.043-1.332-2.04-2.96zm-51.933-27.493c-1.837-3.277-7.823-12.014-10.604-15.477-1.467-1.827-4.085-4.836-5.816-6.687-1.732-1.851-3.149-3.459-3.149-3.573 0-.115 1.092-1.354 2.427-2.753 5.266-5.52 11.187-13.65 18.005-24.721.26-.42.602.026 2.152 2.8 3.559 6.371 8.763 13.571 15.062 20.839 1.75 2.019 3.182 3.775 3.182 3.902 0 .127-1.062 1.4-2.36 2.829-5.413 5.96-10.247 12.474-14.595 19.668-1.528 2.527-2.882 4.702-3.01 4.833-.126.13-.71-.616-1.294-1.66zm106.285 1.206a1571.95 1571.95 0 0 1-2.763-4.46c-4.534-7.336-9.293-13.547-14.614-19.072l-3.15-3.27 2.6-2.812c5.198-5.622 9.805-11.793 15.42-20.65 1.486-2.344 2.803-4.262 2.926-4.262.124 0 .777 1.008 1.452 2.239 4.01 7.318 7.483 12.041 18.021 24.513l.821.972-1.556 1.665c-6.17 6.6-12.564 15.26-16.855 22.825-.923 1.63-1.727 2.961-1.786 2.961-.06 0-.292-.292-.516-.65zm-106.338-64.42c-5.688-9.463-11.816-17.61-17.322-23.03-1.207-1.188-2.192-2.293-2.19-2.456.002-.163 1.178-1.569 2.613-3.125 5.01-5.43 9.13-10.923 14.558-19.412 1.821-2.848 3.425-5.214 3.565-5.257.14-.043.782.926 1.429 2.154 3.042 5.779 9.017 14.15 15.302 21.437 1.846 2.141 3.357 4.006 3.357 4.144 0 .138-.992 1.31-2.205 2.606-4.961 5.3-10.76 13.134-14.935 20.173-1.482 2.5-2.783 4.552-2.891 4.559-.108.01-.684-.8-1.281-1.793zm105.465-.15c-2.16-3.738-7.684-11.795-10.44-15.226-1.53-1.904-4.23-5.001-6.003-6.884l-3.223-3.422 1.883-1.928c4.528-4.638 8.506-9.763 13.664-17.607 1.957-2.974 3.916-6.026 4.355-6.78.438-.755.898-1.373 1.02-1.373.123 0 1.015 1.427 1.983 3.17 3.61 6.502 8.578 13.33 15.617 21.463l2.692 3.11-3.277 3.71c-5.602 6.34-10.99 13.763-14.902 20.534-.96 1.662-1.86 3.057-1.996 3.1-.138.042-.755-.798-1.373-1.867zm-51.518-27.84c-.235-.374-1.474-2.37-2.752-4.436-4.587-7.412-9.337-13.615-14.643-19.124l-3.148-3.268 1.99-2.093c4.9-5.154 8.44-9.724 13.542-17.482 1.956-2.975 3.916-6.026 4.354-6.781.439-.755.906-1.372 1.04-1.372.132 0 .793 1.007 1.468 2.239 3.89 7.096 11.164 16.972 18.284 24.821l.57.628-3.016 3.416c-6.286 7.12-11.036 13.636-15.128 20.75-.914 1.588-1.767 3-1.897 3.135-.13.136-.428-.059-.664-.433zM54.6 92.778c-5.601-9.168-12.49-18.184-17.796-23.29-.653-.628-1.187-1.26-1.187-1.405 0-.145 1.065-1.386 2.367-2.758 4.77-5.027 10.199-12.298 15.481-20.736 1.527-2.44 2.816-4.435 2.863-4.435.048 0 .903 1.462 1.901 3.25 3.493 6.255 8.342 12.966 14.812 20.502 1.872 2.181 3.404 4.042 3.404 4.136 0 .094-1.511 1.885-3.358 3.98-5.607 6.358-11.04 13.895-14.88 20.64-.837 1.472-1.608 2.729-1.711 2.793-.104.064-.957-1.14-1.896-2.677zM161.51 95.03c-.247-.392-1.508-2.426-2.803-4.521-4.551-7.364-9.466-13.784-14.606-19.077l-3.16-3.254 2.282-2.495c6.248-6.834 8.883-10.416 17.69-24.044l1-1.548 1.957 3.426c4.134 7.233 9.031 13.972 15.507 21.337 1.118 1.271 2.207 2.533 2.419 2.802.34.432.163.728-1.458 2.455-6.53 6.955-11.362 13.673-18.13 25.208-.203.345-.332.291-.698-.289zM18.404 81.242c-1.067-1.604-2.81-3.917-3.874-5.139-1.064-1.222-2.054-2.386-2.201-2.586-.188-.256.316-1.043 1.687-2.637 1.074-1.25 2.878-3.67 4.008-5.377 1.13-1.708 2.142-3.106 2.25-3.106.107 0 .858 1.073 1.667 2.384.81 1.31 2.361 3.471 3.447 4.802 3.058 3.744 2.975 3.528 1.87 4.841-1.753 2.084-5.102 6.652-6.01 8.197l-.904 1.538-1.94-2.917zm-6.918-24.815c-.106-.106-.193-6.678-.193-14.605V27.41l1.23.089 1.231.089.075 14.122c.055 10.188-.016 14.232-.252 14.516-.338.407-1.75.542-2.091.201zm9.85-.208c-1.452-.54-2.19-1.225-2.839-2.632-.484-1.054-.532-2.088-.538-11.681-.006-10.142.016-10.571.608-11.79.357-.737 1.079-1.573 1.725-2 1.008-.665 1.333-.724 3.512-.63 2.778.118 3.859.681 4.754 2.48.502 1.006.543 1.916.543 12.087V53.05l-.795 1.199c-.437.659-1.208 1.411-1.712 1.671-1.267.654-3.9.803-5.258.298zm4.212-2.478c1.358-1.066 1.409-1.536 1.32-12.253l-.084-10.048-.945-.843c-1.332-1.187-3.147-1.187-4.48 0l-.945.843-.083 10.048c-.06 7.202.012 10.28.256 10.866.519 1.25 1.606 1.955 3.012 1.955.78 0 1.488-.207 1.949-.568z" fill="#dc2e2e"/><path d="M0 157.438V0h217.75v314.875H0V157.437zm212.34 156.456c1.734-.86 3.559-2.871 4.232-4.666l.599-1.597V157.623c0-136.438-.042-150.131-.461-151.359-.615-1.8-2.787-4.163-4.6-5.005l-1.454-.676H108.73C9.012.583 6.778.598 5.586 1.14c-1.6.724-3.557 2.706-4.362 4.415l-.645 1.37.006 150.723c.006 145.924.024 150.762.541 151.9 1.022 2.244 3.299 4.271 5.348 4.761.5.12 46.776.198 102.835.174 99.425-.043 101.953-.057 103.03-.591zm-19.793-19.617a4.416 4.416 0 0 1-1.928-1.923c-.662-1.248-.667-1.34-.662-11.973.005-10.573.013-10.73.656-11.862 1.061-1.87 2.223-2.464 4.816-2.464 1.862 0 2.37.11 3.246.705 2.082 1.411 2.126 1.666 2.219 13.091.054 6.638-.026 10.588-.23 11.342-.415 1.54-1.821 3.088-3.135 3.452-1.776.492-3.609.357-4.982-.368zm4.197-1.766c2.042-.851 2.04-.837 2.04-12.144 0-11.04.008-10.987-1.684-12.015-1.11-.675-2.246-.717-3.393-.126-1.687.87-1.728 1.156-1.728 12.142 0 11.068.02 11.194 1.867 12.104 1.11.546 1.663.554 2.898.04zm8.762 2.253c-.114-.114-.207-6.628-.207-14.475V266.02l1.086.09 1.086.09V294.8l-.88.086c-.483.047-.972-.01-1.085-.12zM54.88 279.252c-4.568-7.653-9.675-14.547-15.453-20.86l-3.709-4.052 3.002-3.314c5.19-5.733 9.932-12.181 15.555-21.153 1.07-1.708 1.994-3.105 2.052-3.105.057 0 .853 1.332 1.768 2.96 3.578 6.372 9.607 14.64 15.832 21.717 2.493 2.833 2.516 2.874 1.987 3.467-8.314 9.308-13.268 15.956-17.73 23.795-.841 1.477-1.611 2.736-1.711 2.798-.1.062-.817-.952-1.593-2.253zm106.641 1.814c-7.184-11.67-11.164-17.077-17.18-23.34-1.669-1.738-3.035-3.255-3.035-3.37 0-.117 1.065-1.334 2.367-2.706 4.76-5.016 10.284-12.412 15.383-20.598 1.465-2.351 2.73-4.276 2.809-4.277.08 0 .796 1.196 1.592 2.66 3.193 5.873 8.823 13.678 15.179 21.045 1.765 2.045 3.208 3.802 3.208 3.904 0 .103-.749.987-1.665 1.966-6.55 7-11.217 13.495-17.971 25.005-.202.344-.33.29-.687-.289zm35.38-24.858c-1.035-1.588-2.833-3.933-3.996-5.21l-2.114-2.323 1.155-1.25c1.46-1.58 4.315-5.415 5.707-7.665.588-.95 1.147-1.724 1.244-1.72.097 0 .866 1.102 1.709 2.441.843 1.34 2.406 3.498 3.475 4.795 1.068 1.297 2.115 2.595 2.327 2.884.341.466.207.735-1.182 2.369-1.998 2.348-3.58 4.505-4.982 6.787-.61.993-1.187 1.8-1.284 1.792-.097-.01-1.023-1.313-2.058-2.9zm-90.425-11.458c-4.885-7.867-9.788-14.324-15.198-20.013l-2.893-3.041 1.711-1.87c6.335-6.92 10.862-12.998 17.155-23.03.922-1.469 1.768-2.671 1.882-2.671.113 0 .505.617.871 1.372 2.728 5.628 8.94 14.343 16.177 22.7l2.972 3.433-1.457 1.63c-7.148 7.996-12.587 15.373-16.806 22.79-.836 1.47-1.616 2.672-1.734 2.672-.117 0-1.324-1.787-2.68-3.972zm-52.339-28.13c-4.79-7.91-9.827-14.584-15.283-20.251l-3.277-3.404 2.64-2.847c5.006-5.4 9.763-11.761 14.986-20.038 1.63-2.584 3.042-4.672 3.136-4.639.093.033 1.087 1.658 2.207 3.611 3.937 6.867 10.391 15.494 17.385 23.24l.561.621-2.231 2.411c-5.908 6.385-12.975 16.13-16.704 23.036-.521.965-1.027 1.756-1.123 1.759-.096 0-1.13-1.572-2.297-3.5zm107.337 2.854c-6.772-10.889-9.489-14.674-14.984-20.872-1.55-1.747-3.35-3.691-4-4.32-.652-.627-1.184-1.282-1.184-1.454 0-.173.663-.959 1.473-1.747 4.867-4.737 9.313-10.709 18.135-24.362l1.002-1.55 1.738 3.123c3.303 5.937 7.589 11.943 13.554 18.993a641.989 641.989 0 0 1 4.165 4.955l.542.673-3.395 3.843c-5.546 6.276-11.056 13.923-14.91 20.695-.837 1.47-1.568 2.673-1.626 2.673-.058 0-.288-.293-.51-.65zm-107.7-66.586c-5.029-8.097-9.743-14.316-15.112-19.936l-3.107-3.254 2.564-2.678c4.663-4.87 9.306-11.03 14.726-19.538 1.764-2.769 3.347-5.081 3.518-5.138.172-.057.489.324.705.846.657 1.585 4.718 8.12 7.097 11.42 2.82 3.91 5.719 7.552 9.392 11.798l2.873 3.32-3.054 3.422c-5.622 6.297-11.015 13.724-15.063 20.743-.937 1.625-1.786 2.958-1.887 2.96-.101 0-1.294-1.78-2.651-3.965zm104.934-.932c-4.604-7.45-9.22-13.47-14.685-19.156-1.494-1.555-2.717-2.901-2.717-2.992 0-.09 1.085-1.352 2.41-2.805 5.856-6.415 10.355-12.496 16.115-21.78 1.01-1.628 1.936-2.96 2.055-2.96.12 0 .9 1.26 1.732 2.8 3.118 5.771 9.18 14.11 15.71 21.61 1.384 1.588 2.516 2.97 2.516 3.071 0 .101-.995 1.271-2.21 2.6-5.366 5.865-11.144 13.719-15.43 20.977-1.15 1.946-2.18 3.532-2.287 3.523-.109-.01-1.552-2.209-3.209-4.888zm-49.65-24.923a766.182 766.182 0 0 1-1.932-3.105c-5.194-8.386-9.998-14.7-15.859-20.844l-2.421-2.538 3.268-3.627c5.162-5.728 10.689-13.332 16.274-22.39l1.106-1.792 1.952 3.424c4.034 7.076 8.277 12.925 15.02 20.706 1.632 1.884 2.968 3.535 2.968 3.67 0 .136-.88 1.197-1.957 2.358-5.75 6.205-10.928 13.22-15.68 21.25-1.152 1.946-2.147 3.538-2.212 3.538-.065 0-.302-.292-.528-.65zM53.77 91.193c-5.165-8.3-9.684-14.227-15.39-20.19l-2.748-2.87 2.822-3.101c5.27-5.79 9.277-11.146 14.456-19.329 1.68-2.655 3.153-4.935 3.271-5.068.12-.132.774.778 1.456 2.022 3.902 7.118 11.13 16.936 18.279 24.827.55.606.543.618-1.81 3.177-5.222 5.683-10.348 12.576-14.674 19.734-1.497 2.476-2.809 4.59-2.917 4.697-.107.108-1.343-1.646-2.745-3.9zm107.431 3.053c-.37-.596-1.5-2.433-2.514-4.081-4.056-6.599-9.66-13.892-14.702-19.132-1.474-1.531-2.68-2.905-2.68-3.052 0-.146.538-.78 1.194-1.409 1.909-1.826 6.223-6.908 8.803-10.37 2.375-3.186 7.567-10.952 9.427-14.098.54-.914 1.049-1.658 1.131-1.654.082 0 .801 1.197 1.597 2.652 3.605 6.586 8.61 13.49 15.704 21.664 1.476 1.7 2.683 3.163 2.683 3.25 0 .087-1.471 1.83-3.27 3.871-5.681 6.451-11.441 14.445-15.08 20.929-.775 1.382-1.457 2.513-1.516 2.513-.058 0-.408-.487-.777-1.083zM18.325 80.942c-.99-1.54-2.77-3.918-3.956-5.283l-2.156-2.482 1.735-1.996c.954-1.097 2.725-3.458 3.936-5.245 1.21-1.787 2.295-3.25 2.41-3.25.116 0 .567.618 1.004 1.372 1.133 1.96 2.551 3.908 4.854 6.67l2.009 2.41-.544.666-2.309 2.826c-.97 1.188-2.47 3.28-3.33 4.647-.86 1.367-1.63 2.481-1.709 2.476-.08-.01-.954-1.27-1.944-2.811zm-6.743-39.055V27.443h2.027v28.888h-2.027V41.887zm8.974 13.794c-1.273-.864-2.006-1.895-2.326-3.272-.145-.624-.266-5.367-.27-10.542-.008-10.695.135-11.705 1.872-13.227 1.74-1.523 5.343-1.65 7.18-.252 2.028 1.543 2.078 1.832 2.18 12.573.097 10.463-.067 12.182-1.305 13.65-1.112 1.318-2.133 1.72-4.375 1.72-1.596 0-2.192-.131-2.956-.65zm4.441-1.477c1.941-.81 1.932-.752 1.932-12.243 0-11.329.026-11.153-1.74-12.064-1.538-.793-3.485-.324-4.468 1.075-.389.554-.452 2.07-.452 10.85 0 11.3.041 11.577 1.829 12.353 1.177.51 1.73.516 2.9.029z" fill="#d91717"/><path d="M0 157.438V0h217.75v314.875H0V157.437zm212.34 156.456c1.734-.86 3.559-2.871 4.232-4.666l.599-1.597V157.623c0-136.438-.042-150.131-.461-151.359-.615-1.8-2.787-4.163-4.6-5.005l-1.454-.676H108.73C9.012.583 6.778.598 5.586 1.14c-1.6.724-3.557 2.706-4.362 4.415l-.645 1.37.006 150.723c.006 145.924.024 150.762.541 151.9 1.022 2.244 3.299 4.271 5.348 4.761.5.12 46.776.198 102.835.174 99.425-.043 101.953-.057 103.03-.591zm-19.719-19.72c-1.152-.567-1.916-1.588-2.345-3.131-.393-1.417-.433-19.404-.047-21.066.554-2.383 2.091-3.64 4.683-3.83 2.491-.182 4.162.638 5.11 2.508.656 1.293.66 1.355.58 12.184-.078 10.526-.1 10.911-.687 11.7-1.157 1.556-2.331 2.115-4.432 2.108-1.164 0-2.283-.19-2.862-.474zm4.58-1.692c1.726-.89 1.757-1.124 1.666-12.544l-.083-10.37-.705-.75c-1.101-1.168-2.65-1.462-4.17-.792-2.189.966-2.22 1.136-2.22 12.328 0 10.627.061 11.066 1.667 12.06.992.613 2.729.644 3.845.069zm8.387-12.128v-14.3h1.738v28.6h-1.738v-14.3zM54.1 277.65c-4.424-7.296-9.22-13.677-14.903-19.826l-3.225-3.488 2.873-3.168c5.164-5.693 9.888-12.07 14.867-20.063 1.386-2.226 2.556-4.047 2.6-4.047.044 0 .865 1.397 1.825 3.105 3.394 6.04 7.96 12.411 13.693 19.103 1.821 2.126 3.544 4.165 3.83 4.532.514.664.506.68-1.32 2.635-5.734 6.136-11.769 14.3-15.978 21.611-.914 1.59-1.748 2.974-1.852 3.078-.105.103-1.19-1.46-2.41-3.472zm106.291 1.198c-4.712-7.847-10.599-15.718-15.888-21.245-1.6-1.671-2.908-3.157-2.908-3.302 0-.146.47-.713 1.043-1.26 1.65-1.577 5.88-6.528 8.31-9.729 2.284-3.01 7.55-10.844 9.614-14.303.637-1.068 1.223-1.942 1.303-1.943.08 0 .666 1 1.303 2.223 2.716 5.219 8.958 13.907 15.277 21.264 1.71 1.992 3.11 3.707 3.11 3.812 0 .104-1.027 1.315-2.282 2.69-5.249 5.755-10.275 12.559-14.66 19.845l-2.698 4.485-1.524-2.537zm36.537-22.91c-1.02-1.58-2.754-3.846-3.853-5.035l-1.997-2.162 1.896-2.217c1.043-1.22 2.766-3.53 3.828-5.137 2.253-3.405 2.171-3.304 2.325-2.875.318.882 3.722 5.697 5.462 7.726 1.357 1.58 1.877 2.392 1.695 2.644-.144.2-1.149 1.448-2.233 2.774-1.085 1.326-2.648 3.481-3.475 4.79-.826 1.307-1.568 2.374-1.647 2.37-.08 0-.98-1.299-2.001-2.879zm-89.177-9.502c-4.983-8.368-11.24-16.648-17.157-22.701l-1.977-2.024 2.648-2.887c5.146-5.613 9.228-11.063 14.379-19.202 1.662-2.626 3.12-4.884 3.24-5.017.12-.134.951 1.06 1.847 2.652 3.876 6.889 11.158 16.761 16.912 22.929l1.27 1.361-.68.837c-.375.46-1.803 2.082-3.173 3.603-4.61 5.115-10.312 13.026-14.043 19.48-.94 1.626-1.79 2.958-1.892 2.962-.101 0-.72-.894-1.374-1.993zm-52.577-28.529c-2.07-3.56-7.884-12.02-10.488-15.26-1.405-1.747-3.97-4.636-5.7-6.42l-3.145-3.243 2.603-2.823c4.216-4.575 7.677-9.069 12.073-15.679 2.272-3.416 4.486-6.828 4.922-7.583.435-.755.832-1.372.883-1.372.05 0 .743 1.205 1.54 2.677 3.558 6.586 8.113 12.776 17.517 23.807l.817.958-2.471 2.673c-4.96 5.364-10.276 12.512-14.284 19.206-1.31 2.187-2.547 4.214-2.751 4.504-.335.477-.479.34-1.516-1.445zm104.66-1.45c-4.84-7.865-9.744-14.382-15.2-20.2-1.671-1.782-3.039-3.353-3.039-3.49 0-.139.663-.897 1.472-1.685 4.162-4.054 10.634-12.583 15.75-20.756 1.554-2.48 2.938-4.51 3.076-4.51.138 0 .591.67 1.007 1.487 2.965 5.837 9.179 14.507 15.953 22.259 1.486 1.7 2.702 3.172 2.702 3.27 0 .1-1.42 1.794-3.155 3.766a128.456 128.456 0 0 0-14.352 19.771c-1.08 1.827-1.997 3.361-2.04 3.41-.042.047-1.02-1.448-2.174-3.323zM53.93 152.737c-4.512-7.395-9.779-14.32-15.263-20.073l-2.825-2.963 2.438-2.556c4.635-4.86 8.974-10.596 14.231-18.817 1.677-2.622 3.23-5.017 3.45-5.323.37-.513.542-.307 2.262 2.722 3.484 6.138 8.848 13.512 14.889 20.468l3.044 3.506-3.362 3.817c-5.537 6.287-11.442 14.5-14.888 20.705-.714 1.285-1.374 2.34-1.467 2.342-.094 0-1.222-1.72-2.509-3.828zm106.499 1.59c-2.081-3.606-7.311-11.225-10.061-14.656-1.4-1.748-3.948-4.622-5.66-6.388-1.713-1.765-3.114-3.3-3.114-3.412 0-.112 1.366-1.722 3.035-3.579 5.218-5.804 9.937-12.256 15.516-21.214.866-1.39 1.64-2.525 1.719-2.523.08 0 .73 1.067 1.448 2.365 3.886 7.042 8.615 13.47 17.58 23.894.849.987.824 1.208-.245 2.208-4.231 3.961-12.068 14.454-16.761 22.442-1.004 1.708-1.902 3.104-1.996 3.102-.094 0-.752-1.01-1.461-2.239zm-53.562-31.184c-4.844-7.776-9.07-13.336-14.832-19.51l-2.898-3.106 3.04-3.394c5.296-5.91 9.064-10.987 14.259-19.205 1.58-2.5 2.959-4.548 3.064-4.55.106 0 .704.941 1.329 2.097 1.944 3.597 4.733 7.883 7.745 11.905 3.04 4.06 8.568 10.795 9.829 11.977.407.381.74.865.74 1.075 0 .21-.993 1.454-2.207 2.766-4.956 5.356-10.21 12.43-14.52 19.55-1.498 2.476-2.76 4.538-2.806 4.584-.045.046-1.28-1.84-2.743-4.189zm-51.96-30.489C50.333 84.937 44.5 77.13 39.28 71.735l-3.43-3.544 2.572-2.825c5.27-5.789 9.636-11.615 14.568-19.439 1.512-2.399 2.891-4.567 3.064-4.818.259-.375.56 0 1.699 2.111 3.065 5.683 8.98 13.924 14.896 20.753 1.37 1.582 2.724 3.168 3.008 3.525.513.645.5.67-1.702 3.047C68.692 76.23 62.854 84.153 58.514 91.5c-1.15 1.947-2.114 3.538-2.142 3.538-.029-.001-.688-1.074-1.464-2.384zm104.372-1.882c-4.87-7.816-9.852-14.353-15.15-19.883-1.394-1.454-2.535-2.737-2.535-2.85 0-.114 1.179-1.46 2.619-2.99 5.134-5.458 9.1-10.876 16.61-22.69l1.076-1.696 1.729 3.101c3.442 6.176 8.105 12.66 14.284 19.866 2.003 2.336 3.642 4.331 3.642 4.435 0 .103-.951 1.242-2.114 2.531-6.25 6.929-11.334 13.87-15.683 21.41-.916 1.589-1.698 2.924-1.738 2.967-.04.043-1.272-1.847-2.74-4.201zM18.635 80.978c-.924-1.401-2.687-3.736-3.917-5.187l-2.235-2.64 1.734-1.982c.953-1.09 2.668-3.38 3.81-5.089 1.142-1.708 2.147-3.103 2.232-3.1.085 0 .831 1.076 1.658 2.384.826 1.308 2.39 3.463 3.475 4.789 1.084 1.326 2.095 2.584 2.246 2.794.196.275-.052.74-.874 1.633-1.69 1.839-3.752 4.585-5.185 6.904l-1.262 2.042-1.682-2.548zm-6.86-24.84c-.106-.106-.193-6.54-.193-14.3V27.733h1.738v28.599h-.676c-.371 0-.762-.087-.869-.193zm10.145-.074c-1.373-.28-3.008-1.819-3.39-3.187-.161-.582-.285-5.395-.286-11.146-.002-9.924.011-10.147.65-11.408.981-1.938 2.168-2.591 4.705-2.591 2.407 0 3.611.603 4.618 2.312.565.96.599 1.523.68 11.404.075 9.006.025 10.556-.38 11.613-.502 1.312-2.163 2.979-2.973 2.984-.273 0-.953.057-1.51.124-.558.066-1.509.019-2.114-.105zm3.57-1.905c1.69-.87 1.729-1.151 1.728-12.186-.001-9.444-.035-10.108-.564-10.973-.31-.506-.862-1.08-1.228-1.276-.972-.519-2.882-.434-3.805.17-1.61 1.051-1.641 1.28-1.641 11.935 0 6.538.109 10.105.327 10.73.624 1.785 3.253 2.596 5.184 1.6z" fill="#d60000"/><path d="M0 157.438V0h217.75v314.875H0V157.437zm212.34 156.456c1.734-.86 3.559-2.871 4.232-4.666l.599-1.597V157.623c0-136.438-.042-150.131-.461-151.359-.615-1.8-2.787-4.163-4.6-5.005l-1.454-.676H108.73C9.012.583 6.778.598 5.586 1.14c-1.6.724-3.557 2.706-4.362 4.415l-.645 1.37.006 150.723c.006 145.924.024 150.762.541 151.9 1.022 2.244 3.299 4.271 5.348 4.761.5.12 46.776.198 102.835.174 99.425-.043 101.953-.057 103.03-.591z" fill="#020202"/></svg>