<svg xmlns="http://www.w3.org/2000/svg" height="335.872" width="232.267" viewBox="0 0 217.75 314.88"><path d="M0 157.44V0h217.75v314.88H0V157.44z" fill="#fdfdfd"/><path d="M0 157.44V0h217.75v314.88H0V157.44zm211.85 155.64c1.891-.995 3.473-2.834 4.02-4.673.375-1.26.428-19.907.428-150.97 0-134.48-.045-149.67-.45-150.85-.63-1.845-2.172-3.52-4.118-4.473l-1.657-.812h-100.91c-85.458 0-101.13.062-102.3.403-1.753.507-3.958 2.447-4.874 4.288l-.685 1.375-.076 149.35c-.053 104.72.016 149.79.232 150.84.58 2.805 2.738 5.152 5.54 6.027 1.045.326 18.054.382 102.31.337l101.06-.054 1.488-.783zM7.14 306.31c-.426-.425-.202-1.3.308-1.203.278.053.506.345.506.647 0 .575-.472.897-.814.556zm-3.191-2.606c-.282-.281-.236-1.191.07-1.38.505-.311 1.185.195 1.185.881 0 .478-.164.692-.531.692-.292 0-.618-.087-.724-.193zm191.86-5.872c-3.092-.653-5.451-2.425-6.76-5.08-1.009-2.044-1.004-5.537.01-7.199 1.235-2.022 2.342-3.244 4.755-5.246 4.866-4.037 6.61-5.714 7.434-7.146 1.474-2.564 1.557-2.511-3.853-2.42l-4.705.079-.089 1.726c-.049.95-.244 1.825-.434 1.946-.607.385-3.29.257-3.649-.173-.225-.27-.307-1.662-.252-4.261l.08-3.86 9.346-.076c8.152-.066 9.368-.02 9.516.364.264.686-.374 5.343-.96 7.013-.778 2.216-2.613 4.524-5.793 7.287-6.517 5.663-7.594 7.034-7.194 9.161.43 2.282 3.293 3.81 6.15 3.28 2.531-.47 3.651-1.893 3.368-4.28l-.17-1.438 1.39-.473c2.928-.995 3.452-.494 3.252 3.111-.215 3.894-1.742 6.053-5.12 7.24-1.603.563-4.722.783-6.323.445zm-88.401-14.229c-5.182-8.756-10.854-16.283-17.48-23.196-1.211-1.264-2.202-2.5-2.203-2.749 0-.248.405-.833.9-1.3.971-.916 6.215-6.865 7.657-8.687 1.086-1.373 5.526-7.627 6.534-9.205a801.98 801.98 0 0 1 2.62-4.044c1.034-1.589 2.234-3.506 2.666-4.261 1.198-2.094 1.573-1.902 3.68 1.878 3.99 7.158 9.102 14.193 16.264 22.382 1.394 1.593 2.534 3.078 2.534 3.3 0 .223-.945 1.445-2.1 2.718-6.585 7.258-12.528 15.42-16.753 23.008-2.04 3.667-2.237 3.674-4.32.155zm90.275-20.53c-.231-.188-1.175-1.511-2.096-2.941-1.712-2.658-4.405-6.091-5.76-7.345-.416-.385-.756-.955-.756-1.268 0-.312.701-1.364 1.559-2.339 2.163-2.458 3.255-3.933 5.216-7.046 2.135-3.389 2.331-3.39 4.369-.015 1.486 2.46 2.275 3.525 5.285 7.124.838 1.002 1.523 1.999 1.523 2.215 0 .217-.621 1.087-1.381 1.934-2.215 2.468-6.726 8.846-6.726 9.51 0 .393-.819.507-1.233.17zm-89.201-165.36c-.373-.596-1.51-2.448-2.527-4.117-1.018-1.668-2.43-3.878-3.139-4.91a2375.12 2375.12 0 0 1-2.177-3.178c-1.737-2.543-5.927-7.566-9.395-11.265-1.936-2.065-3.52-3.956-3.52-4.204 0-.342 3.269-4.128 4.353-5.041.44-.37 4.731-5.666 6.126-7.56 1.839-2.494 7.805-11.46 9.314-13.997 1.194-2.007 1.678-2.496 2.25-2.276.219.085 1.098 1.464 1.952 3.065 3.351 6.277 8.608 13.546 16.034 22.172 1.554 1.805 2.826 3.472 2.826 3.705 0 .232-.693 1.16-1.54 2.062-6.696 7.134-14.296 17.588-17.812 24.503-.649 1.276-1.37 2.125-1.804 2.125-.145 0-.57-.488-.942-1.083zM19.205 86.302c-2.288-3.648-4.058-6.084-5.886-8.099-1.121-1.237-2.039-2.407-2.039-2.6 0-.193.402-.805.892-1.362 2.63-2.985 4.664-5.724 7.027-9.46 1.071-1.695 1.594-1.589 2.845.577 1.312 2.272 3.939 5.934 5.778 8.056.776.895 1.41 1.896 1.41 2.224 0 .328-.344.96-.765 1.405-.677.715-3.165 3.833-4.682 5.865-.296.397-1.027 1.6-1.624 2.672-1.309 2.35-1.852 2.483-2.956.722zm-8.21-25.776c-.259-.311-.305-.993-.16-2.387.553-5.368 1.967-7.832 7.004-12.207 6.412-5.57 7.247-6.617 6.963-8.727-.47-3.492-5.968-4.92-8.648-2.247-.717.716-.82 1.035-.82 2.539 0 2.008-.18 2.22-2.3 2.708-2.152.496-2.433.09-2.254-3.263.233-4.363 1.956-6.5 6.154-7.633 3.816-1.031 8.431.184 10.687 2.813 1.275 1.486 2.19 3.86 2.19 5.68 0 3.316-1.716 5.795-6.899 9.967-3.753 3.021-5.566 4.877-6.45 6.6-1.024 1.998-1.101 1.962 4.229 1.962h4.777v-1.846c0-2.102.101-2.198 2.305-2.198.832 0 1.523.161 1.722.401.225.27.308 1.661.253 4.261l-.081 3.86-9.155.076c-7.868.065-9.205.015-9.517-.36zm-5.98-39.293c-.257-.666.103-1.3.737-1.3.717 0 .986.415.75 1.158-.215.673-1.246.772-1.488.142zm205.85.222c-.2-.069-.363-.449-.363-.844 0-.58.126-.7.652-.626.405.057.684.324.739.706.09.63-.39.987-1.029.764z" fill="#e7e7e7"/><path d="M0 157.44V0h217.75v314.88H0V157.44zm159.02 156.93c-27.604-.041-72.689-.041-100.19 0-27.499.041-4.914.074 50.19.074 55.103 0 77.603-.033 49.998-.074zm52.546-.917c1.772-.802 3.421-2.43 4.197-4.14l.686-1.515V7.358l-.814-1.654c-.448-.909-1.346-2.107-1.995-2.662-2.427-2.072 7.172-1.906-105.35-1.824L6.81 1.292l-1.158.625C4.278 2.66 2.597 4.361 1.847 5.77c-.523.982-.541 5.415-.617 151.37-.07 134.75-.033 150.48.367 151.54.84 2.225 2.83 4.233 4.923 4.97.605.213 31.73.311 102.36.322 98.705.016 101.52 0 102.69-.526zM4.196 303.32c-.312-.503.15-.932.602-.559.223.185.334.451.246.592-.21.341-.626.325-.848-.033zm190.76-5.907c-4.052-1.264-6.437-4.316-6.444-8.248-.01-3.521 1.55-5.664 7.714-10.622 3.128-2.516 4.562-4.07 5.598-6.062 1.074-2.07.968-2.118-4.41-2.027l-4.713.079-.09 1.58c-.12 2.118-.375 2.364-2.345 2.26l-1.619-.085-.08-3.877c-.062-2.905.011-3.938.289-4.12.388-.253 17.143-.281 17.8-.03.51.195.486 2.85-.048 5.363-.78 3.67-2.311 5.65-8.603 11.127-4.245 3.696-4.725 4.367-4.725 6.6 0 1.367.133 1.925.579 2.425 1.47 1.647 4.732 2.19 7 1.162 1.682-.762 2.241-1.706 2.036-3.437-.09-.758-.063-1.54.059-1.738.122-.197.92-.542 1.773-.767 2.141-.563 2.307-.367 2.307 2.726 0 2.108-.117 2.743-.738 3.985-.406.813-1.203 1.832-1.772 2.264-2.183 1.661-6.687 2.34-9.569 1.441zm-86.497-12.364c-5.219-9.087-11.62-17.763-17.557-23.795-1.583-1.608-2.877-3.143-2.877-3.412 0-.268 1.377-1.992 3.06-3.831 5.093-5.565 12.091-15.183 16.616-22.838.796-1.347 1.421-2.094 1.751-2.094.355 0 1.115 1.078 2.47 3.502 3.939 7.05 9.643 14.823 16.69 22.742.929 1.044 1.69 2.128 1.69 2.408 0 .28-1.179 1.794-2.618 3.362-5.995 6.535-12.484 15.563-16.38 22.794-1.302 2.414-1.969 2.686-2.845 1.16zm87.189-25.132c-1.176-1.788-3.037-4.274-4.135-5.525-1.098-1.25-2.118-2.439-2.265-2.64-.189-.259.205-.915 1.323-2.204a59.73 59.73 0 0 0 5.601-7.542c1.581-2.514 2.197-2.787 2.986-1.323 1.021 1.897 3.675 5.667 5.596 7.95 1.095 1.302 1.991 2.61 1.991 2.907 0 .298-.403.923-.895 1.39-1.28 1.212-4.062 4.946-5.807 7.795-.822 1.343-1.666 2.442-1.876 2.442-.209 0-1.343-1.463-2.519-3.25zm-86.411-161.65c-.17-.105-1.38-1.945-2.69-4.09-5.25-8.594-11.384-16.557-16.904-21.945-.939-.916-1.618-1.831-1.618-2.18 0-.33.534-1.115 1.186-1.743 4.578-4.408 11.022-12.9 16.758-22.085 3.649-5.843 3.6-5.812 4.967-3.106 3.209 6.352 9.386 14.996 16.808 23.52 1.406 1.616 2.557 3.16 2.557 3.43s-.791 1.336-1.759 2.368c-5.744 6.126-12.74 15.665-16.638 22.684-1.705 3.071-2.077 3.51-2.666 3.146zM18.361 84.58c-1.59-2.502-5.219-7.107-6.296-7.988-.808-.662-.558-1.376 1.144-3.276 1.63-1.819 4.056-5.11 5.865-7.955.559-.878 1.177-1.517 1.468-1.517.307 0 .818.578 1.312 1.484 1.24 2.271 3.21 5.062 5.403 7.651 1.093 1.291 1.987 2.487 1.987 2.659 0 .171-.793 1.195-1.763 2.275-1.673 1.863-6.344 8.55-6.344 9.081 0 .137-.244.25-.542.25-.367 0-1.085-.857-2.234-2.664zm-2.436-23.892l-4.778-.165-.092-1.287c-.121-1.694.424-4.749 1.134-6.354.966-2.184 2.838-4.289 7.134-8.024 2.41-2.095 4.434-4.104 4.855-4.822 1.439-2.449.663-5.108-1.788-6.13-1.497-.623-4.095-.496-5.447.267-1.484.84-1.942 1.725-1.795 3.476.1 1.205.026 1.45-.554 1.83-.368.24-1.294.459-2.058.485l-1.388.048-.165-1.429c-.68-5.883 2.702-9.403 9.03-9.403 3.095 0 5.131.783 7.072 2.719 1.752 1.748 2.449 3.496 2.449 6.146 0 3.323-1.662 5.579-7.59 10.3-3.25 2.59-4.848 4.305-5.703 6.118-1.056 2.243-1.222 2.16 4.316 2.16h4.923v-1.676c0-.921.156-1.831.347-2.022.192-.19 1.034-.347 1.872-.347 1.25 0 1.583.11 1.849.604.37.69.276 7.004-.11 7.39-.288.287-6.91.344-13.514.116zM5.26 20.904a.861.861 0 0 1 .631-.63c.383-.074.502.044.428.426a.86.86 0 0 1-.632.63c-.382.073-.501-.045-.427-.426zm205.57.08c-.259-.31-.264-.472-.021-.622.472-.291 1.058.356.671.741-.21.21-.409.173-.651-.118z" fill="#f1d1d0"/><path d="M0 157.44V0h217.75v314.88H0V157.44zm159.02 156.93c-27.604-.041-72.689-.041-100.19 0-27.499.041-4.914.074 50.19.074 55.103 0 77.603-.033 49.998-.074zm52.546-.917c1.772-.802 3.421-2.43 4.197-4.14l.686-1.515V7.358l-.814-1.654c-.448-.909-1.346-2.107-1.995-2.662-2.427-2.072 7.172-1.906-105.35-1.824L6.81 1.292l-1.158.625C4.278 2.66 2.597 4.361 1.847 5.77c-.523.982-.541 5.415-.617 151.37-.07 134.75-.033 150.48.367 151.54.84 2.225 2.83 4.233 4.923 4.97.605.213 31.73.311 102.36.322 98.705.016 101.52 0 102.69-.526zM4.196 303.32c-.312-.503.15-.932.602-.559.223.185.334.451.246.592-.21.341-.626.325-.848-.033zm191.33-5.888c-4.407-1.113-7.432-5.16-6.893-9.218.385-2.891 1.708-4.562 7.255-9.16 2.946-2.44 4.452-3.915 5.313-5.202.662-.988 1.203-1.966 1.203-2.173 0-.207.08-.585.178-.84.16-.417-.345-.456-4.995-.385l-5.173.079-.084 1.589c-.094 1.774-.53 2.31-1.873 2.31-1.82 0-1.952-.263-1.952-3.886 0-1.808.079-3.493.176-3.745.155-.403 1.229-.457 9.101-.457 10.364 0 9.488-.342 8.96 3.498-.69 5.035-1.935 6.808-9.146 13.03-3.393 2.929-4.478 4.343-4.654 6.07-.24 2.368 1.192 4.025 3.984 4.607 1.407.294 1.835.266 3.308-.218 2.276-.746 2.91-1.615 2.843-3.892l-.05-1.702 1.601-.504c1.56-.49 1.612-.489 2.03.064.68.901.372 4.646-.526 6.399-1.576 3.077-6.435 4.788-10.606 3.735zm-86.2-11.7c-.161-.11-.798-1.043-1.414-2.076-5.579-9.348-10.808-16.354-16.851-22.573-1.643-1.69-2.986-3.165-2.986-3.277 0-.112 1.382-1.719 3.073-3.57 5.155-5.649 9.191-11.064 14.608-19.598 3.203-5.048 3.665-5.664 4.06-5.42.107.065.96 1.52 1.895 3.23 3.73 6.826 9.81 15.098 17.12 23.29.836.937 1.52 1.818 1.52 1.959 0 .14-.912 1.236-2.027 2.435-5.983 6.439-12.174 14.911-16.92 23.161-1.473 2.559-1.628 2.742-2.078 2.439zm87.613-24.292c-1.748-2.835-3.169-4.777-5.321-7.276-1.208-1.402-2.197-2.674-2.197-2.826 0-.153.622-.97 1.381-1.818 2.211-2.465 3.338-3.954 5.273-6.968.999-1.556 1.949-2.785 2.112-2.73.162.053 1.09 1.356 2.063 2.894.972 1.537 2.745 3.98 3.94 5.429 1.194 1.448 2.27 2.807 2.391 3.02.144.253-.365 1.065-1.476 2.356-2.044 2.374-4.336 5.558-5.567 7.736-.498.88-1.09 1.6-1.315 1.6-.225 0-.803-.638-1.284-1.417zM107.02 94.52c-5.554-9.11-11.637-17.041-17.327-22.595-.89-.869-1.618-1.696-1.618-1.838 0-.142.98-1.298 2.178-2.568 5.328-5.65 9.287-10.884 15.218-20.12 2.004-3.12 3.855-5.713 4.114-5.763.33-.064.774.511 1.488 1.926 3.071 6.083 8.332 13.516 15.633 22.088 2.005 2.353 3.645 4.332 3.645 4.398 0 .066-1.14 1.39-2.534 2.943-6.186 6.894-11.846 14.648-15.874 21.745-1.459 2.571-2.094 3.466-2.459 3.466-.12 0-1.229-1.657-2.464-3.683zM19.002 85.13c-1.49-2.426-3.084-4.573-5.204-7.005-.97-1.112-1.856-2.177-1.971-2.366-.127-.208.547-1.18 1.7-2.456 1.051-1.161 2.955-3.671 4.231-5.578 1.278-1.908 2.52-3.466 2.763-3.466.244 0 1.202 1.202 2.132 2.678 1.717 2.722 2.9 4.297 5.116 6.814.68.772 1.236 1.596 1.236 1.832s-.73 1.23-1.62 2.208c-1.602 1.757-6.199 8.335-6.199 8.869 0 .151-.242.276-.537.276-.35 0-.929-.636-1.647-1.806zm-7.65-24.903c-.278-.335-.285-.969-.03-2.884.684-5.124 1.843-6.87 8.26-12.446 4.72-4.1 5.513-5.141 5.513-7.241 0-2.786-1.85-4.312-5.212-4.3-3.43.013-4.917 1.27-4.92 4.161-.002 1.748-.271 2.025-2.39 2.469-.843.176-.972.113-1.259-.62-.461-1.179-.127-4.397.622-5.986 1.272-2.7 4.019-4.08 8.092-4.067 2.07.01 2.738.136 4.199.81 2.118.977 3.426 2.185 4.434 4.092.625 1.183.764 1.838.77 3.611.006 1.872-.105 2.358-.822 3.575-1.215 2.062-2.46 3.328-6.34 6.452-3.586 2.887-5.41 4.867-6.33 6.873-.906 1.972-1.09 1.899 4.596 1.812l5.14-.08.09-1.58c.048-.868.227-1.746.396-1.95.415-.497 2.685-.474 3.107.033.223.268.307 1.586.252 3.972l-.081 3.57-8.865.076c-7.551.065-8.918.013-9.222-.352zM5.31 20.886a.861.861 0 0 1 .632-.63c.382-.073.501.045.427.426a.86.86 0 0 1-.631.63c-.383.074-.502-.044-.428-.426zm205.57.081c-.258-.31-.264-.473-.021-.623.472-.29 1.058.356.671.742-.209.209-.408.172-.65-.119z" fill="#d6d6d6"/><path d="M0 157.44V0h217.75v314.88H0V157.44zm209.57 156.89c.277-.145 1.09-.469 1.81-.72 1.793-.627 3.186-1.846 4.204-3.68l.86-1.548V6.802l-.654-1.22c-.887-1.654-2.471-3.18-4.087-3.932l-1.34-.625H7.382l-1.646.806c-1.864.913-3.224 2.313-4.115 4.235l-.61 1.314v300.44l.69 1.525c.91 2.007 3.038 3.908 5.187 4.634 1.618.546 3.667.558 101.92.594 59.857.022 100.47-.07 100.77-.227zm-14.048-16.892c-4.407-1.112-7.432-5.159-6.893-9.217.385-2.892 1.708-4.562 7.255-9.16 2.946-2.441 4.452-3.915 5.313-5.202.662-.988 1.203-1.966 1.203-2.173 0-.208.08-.586.178-.84.16-.418-.345-.457-4.995-.386l-5.173.08-.084 1.588c-.094 1.774-.53 2.311-1.873 2.311-1.82 0-1.952-.264-1.952-3.886 0-1.809.079-3.494.176-3.745.155-.403 1.229-.457 9.101-.457 10.364 0 9.488-.342 8.96 3.497-.69 5.035-1.935 6.809-9.146 13.031-3.393 2.928-4.478 4.342-4.654 6.07-.24 2.367 1.192 4.024 3.984 4.607 1.407.293 1.835.265 3.308-.218 2.276-.747 2.91-1.615 2.844-3.893l-.05-1.702 1.6-.503c1.56-.491 1.612-.49 2.03.064.68.9.372 4.645-.526 6.398-1.576 3.077-6.435 4.789-10.605 3.736zm-86.3-11.7c-.161-.109-.798-1.043-1.414-2.075-5.579-9.348-10.808-16.354-16.851-22.573-1.643-1.69-2.986-3.166-2.986-3.278 0-.112 1.382-1.719 3.073-3.57 5.155-5.648 9.191-11.063 14.608-19.597 3.203-5.048 3.665-5.665 4.06-5.421.107.066.96 1.52 1.895 3.23 3.73 6.826 9.81 15.098 17.12 23.29.836.937 1.52 1.819 1.52 1.96 0 .14-.912 1.236-2.027 2.435-5.983 6.438-12.174 14.91-16.92 23.16-1.473 2.56-1.628 2.742-2.078 2.44zm87.613-24.292c-1.748-2.835-3.169-4.777-5.321-7.275-1.208-1.402-2.197-2.674-2.197-2.827 0-.153.622-.97 1.381-1.817 2.211-2.466 3.338-3.955 5.273-6.969.999-1.556 1.949-2.784 2.112-2.73.162.054 1.09 1.356 2.063 2.894.972 1.538 2.745 3.98 3.94 5.429 1.194 1.448 2.27 2.807 2.391 3.02.144.253-.365 1.066-1.476 2.357-2.044 2.373-4.336 5.558-5.567 7.735-.498.88-1.09 1.6-1.315 1.6-.225 0-.803-.637-1.284-1.417zm-89.919-166.92c-5.554-9.11-11.637-17.041-17.327-22.595-.89-.868-1.618-1.695-1.618-1.837 0-.142.98-1.298 2.178-2.569 5.328-5.65 9.287-10.884 15.218-20.12 2.004-3.12 3.855-5.712 4.114-5.762.33-.064.774.51 1.488 1.925 3.071 6.084 8.332 13.516 15.633 22.088 2.005 2.354 3.645 4.333 3.645 4.398 0 .066-1.14 1.39-2.534 2.943-6.186 6.895-11.846 14.648-15.874 21.745-1.459 2.572-2.094 3.467-2.459 3.467-.12 0-1.229-1.658-2.464-3.683zm-88.018-9.388c-1.49-2.427-3.084-4.573-5.204-7.006-.97-1.112-1.856-2.177-1.971-2.366-.127-.208.547-1.18 1.7-2.455 1.051-1.162 2.955-3.672 4.231-5.578 1.278-1.908 2.52-3.467 2.763-3.467.244 0 1.202 1.203 2.132 2.678 1.717 2.722 2.9 4.297 5.116 6.814.68.772 1.236 1.597 1.236 1.832 0 .236-.73 1.23-1.62 2.208-1.602 1.758-6.199 8.335-6.199 8.87 0 .15-.242.275-.537.275-.35 0-.929-.635-1.647-1.805zm-7.65-24.903c-.278-.335-.285-.97-.03-2.884.684-5.124 1.843-6.87 8.26-12.446 4.72-4.1 5.513-5.142 5.513-7.242 0-2.785-1.85-4.312-5.212-4.3-3.43.014-4.917 1.271-4.92 4.162-.002 1.747-.271 2.025-2.39 2.468-.843.177-.972.113-1.259-.62-.461-1.178-.127-4.397.622-5.986 1.272-2.7 4.019-4.08 8.092-4.067 2.07.01 2.738.136 4.199.81 2.118.978 3.426 2.185 4.434 4.093.625 1.182.764 1.837.77 3.61.006 1.873-.105 2.359-.822 3.576-1.215 2.062-2.46 3.328-6.34 6.452-3.586 2.886-5.41 4.866-6.33 6.872-.906 1.972-1.09 1.9 4.596 1.812l5.14-.079.09-1.58c.048-.869.227-1.746.396-1.95.415-.498 2.685-.475 3.107.032.223.269.307 1.587.252 3.972l-.081 3.57-8.865.077c-7.551.065-8.918.013-9.222-.353zM5.446 20.79a.29.29 0 0 1 .58 0 .29.29 0 0 1-.58 0z" fill="#eab0af"/><path d="M0 157.44V0h217.75v314.88H0V157.44zm209.57 156.89c.277-.145 1.09-.469 1.81-.72 1.793-.627 3.186-1.846 4.204-3.68l.86-1.548V6.802l-.654-1.22c-.887-1.654-2.471-3.18-4.087-3.932l-1.34-.625H7.382l-1.646.806c-1.864.913-3.224 2.313-4.115 4.235l-.61 1.314v300.44l.69 1.525c.91 2.007 3.038 3.908 5.187 4.634 1.618.546 3.667.558 101.92.594 59.857.022 100.47-.07 100.77-.227zm-14.892-17.298c-3.717-1.323-5.855-4.239-5.868-8.004-.011-3.092 1.467-5.174 6.76-9.52 4.874-4.003 7.093-6.736 7.113-8.758l.01-.657-5.14.08-5.14.078-.075 1.3c-.152 2.585-.193 2.64-1.888 2.543l-1.51-.087-.083-3.588c-.06-2.673.013-3.65.29-3.833.38-.25 16.582-.27 17.238-.021.881.334.233 5.01-1.084 7.817-.91 1.94-2.646 3.807-8.365 8.996-1.653 1.5-3.249 3.125-3.546 3.611-.722 1.18-.717 3.483.01 4.672 1.232 2.015 5.153 2.786 7.762 1.526 1.566-.756 2.16-1.834 2.071-3.76-.046-1 .062-1.534.342-1.707.585-.36 2.517-.65 2.872-.432.406.25.381 4.003-.036 5.392-.488 1.624-2.011 3.241-3.778 4.012-2.117.924-5.862 1.084-7.952.34zm-87.121-14.142c-4.744-7.975-10.589-15.797-16.167-21.637-1.692-1.772-3.077-3.402-3.077-3.623 0-.221.602-.981 1.338-1.69 4.76-4.584 10.907-12.724 17.178-22.75 1.32-2.112 2.546-3.792 2.724-3.733.177.06 1.153 1.592 2.168 3.407 3.615 6.46 7.998 12.577 14.131 19.722 1.89 2.2 3.62 4.293 3.846 4.65.39.617.278.797-2.209 3.564-6.309 7.018-11.944 14.805-16.189 22.372-.778 1.386-1.56 2.523-1.74 2.527-.18 0-1.08-1.26-2.002-2.81zm88.105-23.543c-1.193-1.787-3.032-4.18-4.086-5.315-1.054-1.136-1.917-2.285-1.917-2.554 0-.27.73-1.29 1.622-2.268.892-.979 2.732-3.437 4.088-5.462 1.356-2.026 2.584-3.683 2.729-3.683.144 0 .618.601 1.052 1.337 1.278 2.167 3.984 5.892 5.704 7.853.88 1.003 1.6 1.968 1.6 2.144 0 .176-.642 1.056-1.426 1.956-1.796 2.06-4.46 5.745-5.586 7.725-.474.834-1.03 1.517-1.236 1.517-.206 0-1.35-1.463-2.544-3.25zm-88.686-165.09c-5.143-8.465-12.191-17.631-17.48-22.735-.65-.628-1.183-1.252-1.183-1.388 0-.135 1.261-1.636 2.803-3.335 5.327-5.873 10.6-13.051 16.169-22.011 1.758-2.829 2.16-3.3 2.51-2.95.112.113.872 1.44 1.687 2.95 3.245 6.004 9.696 14.9 16.008 22.074 1.386 1.575 2.52 3.032 2.52 3.237 0 .206-.946 1.387-2.103 2.625-5.757 6.161-12.33 15.129-16.418 22.403-.87 1.548-1.738 2.814-1.928 2.814-.19 0-1.353-1.657-2.584-3.683zM18.155 83.713c-1.196-1.787-3.1-4.307-4.23-5.6-1.131-1.292-2.057-2.432-2.057-2.533 0-.1.904-1.226 2.008-2.501s2.998-3.807 4.208-5.628c1.21-1.82 2.314-3.31 2.453-3.31.139 0 .672.748 1.184 1.662 1.254 2.235 3.12 4.832 5.37 7.473 1.047 1.229 1.777 2.332 1.667 2.52-.107.184-.807 1.049-1.556 1.923-1.776 2.073-4.464 5.815-5.55 7.727-.475.834-.966 1.517-1.092 1.517-.127 0-1.209-1.463-2.405-3.25zm.663-23.305l-7.384-.166.054-2.254c.122-5.121 1.202-6.73 9.614-14.325 3.333-3.01 4.134-4.16 4.134-5.936 0-1.812-.775-3.048-2.427-3.869-1.752-.87-3.981-.913-5.798-.111-1.641.724-2.247 1.779-2.247 3.91v1.566l-1.293.362c-2.005.56-2.182.379-2.179-2.227.006-5.102 3.062-7.892 8.623-7.874 3.93.012 6.945 1.685 8.45 4.688 1.125 2.247 1.216 4.82.241 6.84-.76 1.579-3.692 4.558-7.514 7.64-2.9 2.337-4.891 4.674-5.467 6.413-.616 1.863-.574 1.878 4.996 1.79l5.001-.08.077-1.3c.148-2.516.205-2.6 1.794-2.6.784 0 1.52.152 1.634.338.213.343.173 6.923-.043 7.139-.213.212-2.758.226-10.266.057zM5.498 20.81a.29.29 0 0 1 .579 0 .29.29 0 0 1-.58 0z" fill="#b4b4b4"/><path d="M0 157.44V0h217.75v314.88H0V157.44zm211.67 156.25c1.909-.904 3.489-2.434 4.398-4.26l.67-1.34V7.37l-.692-1.526c-.85-1.875-3.015-3.886-4.864-4.514-1.227-.417-10.76-.46-102.6-.46H7.332l-1.772.883c-2.009 1.002-3.034 2.075-4.014 4.2L.868 7.425l.073 150.48.073 150.48.722 1.409c.948 1.852 2.839 3.476 4.874 4.185 1.627.567 2.63.572 102.56.522l100.91-.05 1.592-.754zm-16.988-16.662c-3.717-1.323-5.855-4.239-5.868-8.004-.011-3.092 1.467-5.174 6.76-9.52 4.874-4.003 7.093-6.736 7.113-8.758l.01-.657-5.14.08-5.14.078-.075 1.3c-.152 2.585-.193 2.64-1.888 2.543l-1.51-.087-.083-3.588c-.06-2.673.013-3.65.29-3.833.38-.25 16.582-.27 17.238-.021.881.334.233 5.01-1.084 7.817-.91 1.94-2.646 3.808-8.365 8.996-1.653 1.5-3.249 3.125-3.546 3.611-.722 1.18-.717 3.483.01 4.672 1.232 2.015 5.153 2.786 7.762 1.526 1.566-.756 2.16-1.834 2.071-3.76-.046-1 .062-1.534.342-1.707.585-.36 2.517-.65 2.872-.432.406.25.381 4.003-.036 5.392-.488 1.624-2.011 3.242-3.778 4.012-2.117.924-5.862 1.084-7.952.34zm-87.121-14.142c-4.744-7.975-10.589-15.797-16.167-21.637-1.692-1.772-3.077-3.402-3.077-3.623 0-.221.602-.981 1.338-1.69 4.76-4.584 10.907-12.724 17.178-22.75 1.32-2.112 2.546-3.792 2.724-3.733.177.06 1.153 1.592 2.168 3.407 3.615 6.46 7.998 12.577 14.131 19.722 1.89 2.2 3.62 4.293 3.846 4.65.39.617.278.797-2.209 3.564-6.309 7.018-11.944 14.805-16.189 22.372-.778 1.386-1.56 2.523-1.74 2.527-.18 0-1.08-1.26-2.002-2.81zm88.105-23.543c-1.193-1.787-3.032-4.18-4.086-5.315-1.054-1.136-1.917-2.285-1.917-2.554 0-.27.73-1.29 1.622-2.268.892-.979 2.732-3.437 4.088-5.462 1.356-2.026 2.584-3.683 2.729-3.683.144 0 .618.601 1.052 1.337 1.278 2.167 3.984 5.892 5.704 7.853.88 1.003 1.6 1.968 1.6 2.144 0 .176-.642 1.056-1.426 1.956-1.796 2.06-4.46 5.745-5.586 7.725-.474.834-1.03 1.517-1.236 1.517-.206 0-1.35-1.463-2.544-3.25zM106.98 94.253c-5.143-8.465-12.191-17.631-17.48-22.735-.65-.628-1.183-1.252-1.183-1.388 0-.135 1.261-1.636 2.803-3.335 5.327-5.873 10.6-13.051 16.169-22.011 1.758-2.829 2.16-3.3 2.51-2.95.112.113.872 1.44 1.687 2.95 3.245 6.004 9.696 14.9 16.008 22.074 1.386 1.575 2.52 3.032 2.52 3.237 0 .206-.946 1.387-2.103 2.625-5.757 6.161-12.33 15.129-16.418 22.403-.87 1.548-1.738 2.814-1.928 2.814-.19 0-1.353-1.657-2.584-3.683zM18.159 83.709c-1.196-1.787-3.1-4.307-4.23-5.6-1.132-1.292-2.057-2.432-2.057-2.533 0-.1.904-1.226 2.008-2.501s2.998-3.807 4.208-5.628c1.21-1.82 2.313-3.31 2.453-3.31.139 0 .672.748 1.184 1.662 1.254 2.235 3.12 4.832 5.37 7.473 1.047 1.229 1.777 2.332 1.667 2.52-.107.184-.807 1.049-1.556 1.923-1.776 2.073-4.464 5.815-5.55 7.727-.475.834-.966 1.517-1.092 1.517-.127 0-1.209-1.463-2.405-3.25zm.663-23.305l-7.384-.166.054-2.254c.122-5.121 1.202-6.73 9.613-14.325 3.334-3.01 4.135-4.16 4.135-5.936 0-1.812-.775-3.048-2.427-3.869-1.753-.87-3.981-.913-5.798-.111-1.641.724-2.247 1.779-2.247 3.91v1.566l-1.293.362c-2.005.56-2.182.379-2.179-2.227.006-5.102 3.062-7.892 8.623-7.874 3.93.012 6.945 1.685 8.45 4.688 1.125 2.247 1.216 4.82.241 6.84-.76 1.579-3.692 4.558-7.514 7.64-2.9 2.337-4.891 4.674-5.467 6.413-.616 1.863-.574 1.878 4.996 1.79l5.001-.08.077-1.3c.148-2.516.205-2.6 1.794-2.6.784 0 1.52.152 1.634.338.213.343.173 6.923-.043 7.139-.213.212-2.758.226-10.266.057z" fill="#e4908f"/><path d="M0 157.44V0h217.75v314.88H0V157.44zm211.67 156.25c1.909-.904 3.489-2.434 4.398-4.26l.67-1.34V7.37l-.692-1.526c-.85-1.875-3.015-3.886-4.864-4.514-1.227-.417-10.76-.46-102.6-.46H7.332l-1.772.883c-2.009 1.002-3.034 2.075-4.014 4.2L.868 7.425l.073 150.48.073 150.48.722 1.409c.948 1.852 2.839 3.476 4.874 4.185 1.627.567 2.63.572 102.56.522l100.91-.05 1.592-.754zm-16.097-16.454c-4.147-.995-7.095-4.884-6.69-8.826.296-2.893 2.044-5.087 7.623-9.569 4.108-3.3 6.003-5.687 6.25-7.872l.082-.722-5.277-.08-5.277-.078-.148.656c-.081.361-.183 1.241-.225 1.956-.07 1.196-.143 1.308-.907 1.395-.458.052-1.146.016-1.53-.08-.695-.174-.697-.186-.616-3.706l.081-3.53 8.767-.077c7.83-.068 8.786-.027 8.945.388.27.7-.377 4.729-1.045 6.51-.73 1.946-2.838 4.438-6.243 7.38-4.44 3.836-6.148 5.673-6.506 7-.47 1.739-.104 3.171 1.124 4.402 2.08 2.084 6.302 2.13 8.35.09.93-.925 1.063-1.415.95-3.5-.054-1.006.32-1.323 1.982-1.68 1.242-.266 1.474.078 1.48 2.19.01 1.909-.551 3.924-1.42 5.14-1 1.402-3.88 2.65-6.425 2.784-1.177.062-2.674-.015-3.325-.171zm-87.453-13.629c-5.633-9.358-11.004-16.57-16.726-22.46-1.467-1.51-2.766-2.905-2.887-3.102-.142-.231.927-1.613 3.016-3.9 5.02-5.496 10.752-13.364 16.558-22.732.597-.965 1.249-1.75 1.447-1.745.2 0 1.078 1.336 1.953 2.96 3.238 6.009 9.307 14.383 15.746 21.73 1.532 1.748 2.785 3.282 2.786 3.41 0 .127-.882 1.167-1.96 2.31-5.813 6.162-13.427 16.648-17.293 23.818-.45.834-.983 1.516-1.185 1.516-.202 0-.856-.812-1.454-1.805zm88.624-22.821c-1.598-2.602-3.155-4.694-5.247-7.048-1.009-1.136-1.835-2.147-1.835-2.247 0-.1.956-1.326 2.123-2.725 1.167-1.4 2.986-3.854 4.04-5.456 1.056-1.601 2.035-2.983 2.177-3.071.142-.088 1.01 1.052 1.928 2.533.918 1.481 2.777 4.027 4.13 5.657l2.459 2.965-.538.663c-.296.365-1.265 1.553-2.154 2.638-1.609 1.966-3.285 4.33-4.728 6.669-.416.675-.867 1.228-1.002 1.228-.134 0-.743-.813-1.353-1.806zm-87.56-163.26c-.185-.222-1.43-2.177-2.768-4.344-4.816-7.804-9.596-14.085-14.935-19.626-1.74-1.806-3.164-3.402-3.164-3.546 0-.144.664-.906 1.475-1.695 1.83-1.778 6.511-7.307 8.788-10.379 1.906-2.572 6.412-9.293 8.972-13.383.925-1.476 1.826-2.636 2.004-2.577.177.059 1.121 1.533 2.098 3.277 3.856 6.883 8.165 12.809 15.687 21.572 1.599 1.863 2.602 3.265 2.48 3.47-.111.188-1.195 1.447-2.407 2.798-6.281 6.997-12.035 14.905-16.043 22.048-.778 1.386-1.512 2.58-1.632 2.654-.12.074-.37-.047-.554-.27zM19.131 85.001c-1.358-2.259-3.658-5.33-5.639-7.53l-1.65-1.834.667-.809c.366-.444 1.391-1.662 2.277-2.706.885-1.044 2.449-3.2 3.474-4.79 1.026-1.59 2.005-2.895 2.176-2.898.171 0 1.065 1.208 1.986 2.694.921 1.485 2.7 3.923 3.952 5.416 1.252 1.494 2.28 2.87 2.285 3.058.005.189-.72 1.164-1.609 2.167s-2.676 3.416-3.972 5.363c-1.295 1.946-2.49 3.535-2.654 3.53-.164 0-.746-.752-1.293-1.661zm-7.7-24.919c-.264-.426.099-3.56.634-5.474.87-3.116 2.447-5.033 8.367-10.176 3.268-2.838 4.572-4.374 4.919-5.79.54-2.21-.975-4.542-3.424-5.267-2.498-.74-4.504-.41-6.088 1.002-.829.738-.941 1.031-1.07 2.786l-.146 1.96-1.395.432c-1.72.53-1.924.317-1.93-2.014-.007-2.417.707-4.445 2.026-5.762 3.071-3.064 10.053-2.94 13.415.237 1.171 1.107 2.242 3.355 2.42 5.079.35 3.41-1.092 5.594-6.889 10.432-2.284 1.906-4.645 4.116-5.245 4.91-1.107 1.464-2.087 3.763-1.8 4.225.086.14 2.492.253 5.346.253 5.881 0 5.392.229 5.558-2.6l.077-1.3H29.1v7.222l-8.74.076c-5.962.052-8.8-.022-8.93-.232z" fill="#df827d"/><path d="M0 157.44V0h217.75v314.88H0V157.44zm211.67 156.25c1.909-.904 3.489-2.434 4.398-4.26l.67-1.34V7.37l-.692-1.526c-.85-1.875-3.015-3.886-4.864-4.514-1.227-.417-10.76-.46-102.6-.46H7.332l-1.772.883c-2.009 1.002-3.034 2.075-4.014 4.2L.868 7.425l.073 150.48.073 150.48.722 1.409c.948 1.852 2.839 3.476 4.874 4.185 1.627.567 2.63.572 102.56.522l100.91-.05 1.592-.754zm-16.343-16.572c-2.32-.66-4.501-2.345-5.429-4.194-2.373-4.731-1.115-7.639 5.787-13.37 2.277-1.89 4.63-4.054 5.228-4.81 1.322-1.668 2.277-3.973 1.83-4.419-.385-.384-7.557-.614-9.316-.299l-1.303.234-.144 1.869c-.16 2.067-.355 2.232-2.21 1.885l-.993-.186.08-3.524.082-3.524h17.663l-.08 2.023c-.178 4.593-1.379 6.734-6.328 11.29-6.348 5.844-6.972 6.514-7.342 7.894-.758 2.827.794 5.16 3.854 5.793 4.029.834 7.006-1.24 6.783-4.727-.07-1.088-.033-1.135 1.205-1.554 1.197-.405 1.305-.398 1.692.113.307.404.376 1.084.266 2.63-.245 3.436-1.783 5.567-4.752 6.588-1.774.61-4.953.749-6.573.288zm-87.798-14.522c-4.727-8.045-11.114-16.449-17.258-22.705-1.075-1.095-1.954-2.078-1.954-2.185 0-.107.6-.774 1.333-1.482 1.623-1.568 6.312-7.09 8.697-10.243 1.842-2.436 6.72-9.686 9.319-13.852.847-1.359 1.694-2.47 1.882-2.469.187 0 .895 1.085 1.573 2.409 2.798 5.464 8.702 13.722 15.269 21.352l3.669 4.262-.964 1.116c-.53.613-2.25 2.595-3.823 4.403-5.481 6.305-10.687 13.75-14.669 20.982-.371.676-.843 1.228-1.047 1.228-.205 0-1.116-1.267-2.027-2.816zm89.421-21.599c-1.333-2.223-4.973-7.017-6.235-8.211-.579-.548-1.052-1.143-1.052-1.322 0-.18.335-.64.744-1.024.97-.908 4.315-5.34 6.026-7.983.741-1.145 1.452-2.145 1.58-2.223.126-.078.471.272.765.78 1.25 2.16 3.553 5.405 5.403 7.615 1.093 1.305 1.987 2.62 1.987 2.923 0 .303-.277.798-.616 1.1-.951.852-4.037 4.912-5.741 7.557-.845 1.31-1.619 2.383-1.72 2.383-.102 0-.615-.718-1.141-1.595zm-88.346-164.34c-.488-.707-.887-1.365-.887-1.462 0-.097-.243-.529-.54-.96-.298-.43-1.684-2.537-3.08-4.682-4.344-6.674-9.811-13.464-14.404-17.887-.755-.727-1.374-1.458-1.375-1.622-.001-.165.66-.945 1.469-1.734 4.9-4.776 11.58-13.653 17.338-23.037 1.093-1.782 2.155-3.24 2.36-3.24.204 0 .82.845 1.367 1.878 1.207 2.274 4.374 7.405 5.796 9.388 3.352 4.677 6.384 8.565 9.463 12.133 1.919 2.225 3.59 4.21 3.715 4.41.148.238-.369.994-1.48 2.167-6.004 6.339-13.067 16.014-17.304 23.704-.584 1.06-1.172 1.995-1.307 2.078-.135.083-.644-.427-1.132-1.134zM18.387 83.775c-1.03-1.59-2.827-3.962-3.992-5.272s-2.207-2.529-2.316-2.709c-.112-.185.687-1.313 1.843-2.6 1.122-1.25 2.977-3.733 4.122-5.518 1.145-1.784 2.24-3.247 2.436-3.25.195 0 .572.418.839.935.833 1.615 3.164 4.929 5.298 7.533 1.127 1.377 2.05 2.626 2.05 2.777 0 .15-.467.768-1.04 1.373-1.44 1.524-3.8 4.719-5.45 7.382-.763 1.232-1.507 2.24-1.652 2.24-.145 0-1.107-1.301-2.138-2.891zM11.385 59.91c-.266-.693.706-5.837 1.36-7.19.796-1.647 3.24-4.41 5.923-6.698 6.745-5.75 7.77-7.485 6.218-10.52-1.428-2.793-6.474-3.423-9.047-1.13-.826.736-.941 1.034-1.07 2.766l-.145 1.94-1.38.438c-.76.24-1.475.343-1.592.227-.286-.285-.27-3.796.023-5.181.152-.716.706-1.617 1.546-2.513 1.698-1.81 3.414-2.423 6.76-2.41 4.038.013 6.769 1.573 8.443 4.82.658 1.275.895 4.204.464 5.732-.423 1.504-2.77 4.205-5.605 6.449-5.208 4.124-7.752 7.08-7.99 9.284l-.09.842h10.714l.144-1.877.145-1.878h2.896V60.233l-8.767.076c-7.917.069-8.784.03-8.95-.4z" fill="#df7d81"/><path d="M0 157.44V0h217.75v314.88H0V157.44zm211.67 156.25c1.909-.904 3.489-2.434 4.398-4.26l.67-1.34V7.37l-.692-1.526c-.85-1.875-3.015-3.886-4.864-4.514-1.227-.417-10.76-.46-102.6-.46H7.332l-1.772.883c-2.009 1.002-3.034 2.075-4.014 4.2L.868 7.425l.073 150.48.073 150.48.722 1.409c.948 1.852 2.839 3.476 4.874 4.185 1.627.567 2.63.572 102.56.522l100.91-.05 1.592-.754zm-15.598-16.446c-4.248-.866-7.082-4.095-7.088-8.076 0-3.21 1.786-5.633 7.629-10.316 2.948-2.363 4.814-4.416 5.659-6.226.877-1.88.89-2.409.06-2.63-1.113-.298-9.197-.201-9.792.116-.459.245-.56.615-.56 2.038v1.738l-1.52-.087-1.52-.087v-6.933l8.667-.077c4.768-.042 8.782.037 8.92.175.531.53-.352 5.308-1.37 7.413-1.018 2.11-2.47 3.653-8.813 9.37-2.857 2.577-3.767 3.98-3.779 5.825-.012 2.008 2.094 4.106 4.48 4.463 3.77.564 6.626-1.482 6.452-4.62l-.08-1.425 1.304-.383c1.166-.342 1.34-.33 1.665.11.96 1.304.06 5.53-1.56 7.319-1.685 1.86-5.707 2.915-8.754 2.293zm-87.223-12.481c-.882-1.7-4.715-7.69-7.163-11.194-3.051-4.367-6.759-8.878-10.733-13.057l-2.665-2.802 2.653-2.831c4.965-5.3 9.402-11.2 14.773-19.645 1.95-3.066 3.647-5.574 3.771-5.574.125 0 .971 1.332 1.88 2.96 3.886 6.958 8.627 13.482 15.824 21.772 1.395 1.607 2.536 3.105 2.536 3.33 0 .225-.945 1.45-2.1 2.722-6.363 7.014-11.782 14.424-15.998 21.88-.955 1.69-1.895 3.077-2.089 3.081-.193 0-.503-.284-.689-.641zm89-22.52c-.167-.205-1.218-1.743-2.337-3.416-1.118-1.674-2.891-3.968-3.94-5.098-1.05-1.131-1.908-2.137-1.908-2.235 0-.098.9-1.22 2.002-2.49 1.1-1.272 2.944-3.74 4.095-5.484 1.152-1.744 2.203-3.172 2.335-3.172.133 0 .457.358.722.795 1.55 2.564 3.8 5.722 5.454 7.656 1.043 1.22 1.897 2.394 1.897 2.61 0 .216-.73 1.228-1.62 2.25-.891 1.02-2.609 3.35-3.817 5.177-2.686 4.061-2.515 3.86-2.883 3.407zm-90.324-167.42c-4.957-8.3-10.531-15.71-16.134-21.449-1.474-1.51-2.775-2.904-2.89-3.1-.134-.225.798-1.42 2.525-3.24 5.023-5.295 8.928-10.49 14.81-19.702 3.934-6.16 3.563-5.673 3.916-5.157.163.239 1.32 2.194 2.571 4.346 3.65 6.276 8.097 12.36 14.324 19.595 1.693 1.966 3.077 3.768 3.077 4.004 0 .236-.962 1.45-2.139 2.698-5.026 5.33-10.98 13.382-15.196 20.552-1.375 2.338-2.653 4.255-2.84 4.26-.189.01-1.1-1.257-2.024-2.806zm-88.058-9.497c-1.223-2.07-4.8-6.77-6.118-8.039-.652-.628-1.186-1.31-1.186-1.517 0-.207.851-1.383 1.892-2.614 1.04-1.23 2.869-3.7 4.063-5.487 1.194-1.788 2.264-3.25 2.379-3.248.114 0 .945 1.204 1.847 2.673.9 1.468 2.693 3.935 3.981 5.482 1.289 1.547 2.343 2.902 2.343 3.01 0 .11-.642.935-1.426 1.835-1.796 2.059-4.46 5.745-5.586 7.725-.474.834-.983 1.516-1.13 1.516-.149 0-.625-.601-1.059-1.336zm-7.826-25.315c-.21-.253-.226-1.03-.049-2.44.67-5.325 1.526-6.536 9.916-14.041 3.172-2.837 4.097-4.313 3.911-6.242-.245-2.546-2.011-4.04-5.084-4.3-1.88-.16-3.687.473-4.866 1.702-.749.782-.841 1.075-.813 2.582l.031 1.7-1.318.447c-1.71.582-1.933.337-1.918-2.097.029-4.332 1.983-6.67 6.324-7.563 5.96-1.227 11.343 2.619 11.318 8.083-.006 1.236-.194 2.258-.552 2.988-.774 1.58-3.007 3.922-6.373 6.684-3.73 3.062-5.515 4.979-6.398 6.87-1.248 2.674-1.49 2.548 4.718 2.458l5.429-.079.089-1.726c.096-1.88.317-2.162 1.685-2.17 1.424-.01 1.585.434 1.493 4.082l-.082 3.28-8.575.077c-6.719.06-8.643 0-8.886-.296z" fill="#929292"/><path d="M0 157.44V0h217.75v314.88H0V157.44zm212.14 156.22c1.848-.972 3.687-3.022 4.286-4.775.413-1.209.456-15.59.456-151.43V7.365l-.824-1.736c-.917-1.934-2.394-3.386-4.373-4.3L210.367.72H7.087l-1.303.68c-1.776.928-3.372 2.5-4.296 4.23L.717 7.077l-.078 149.64c-.053 103.98.016 150.08.228 151.07.609 2.866 2.79 5.295 5.639 6.28 1.366.471 7.272.497 102.8.437l101.35-.064 1.483-.781zm-16.068-16.42c-4.248-.866-7.082-4.095-7.088-8.076 0-3.21 1.786-5.633 7.629-10.316 2.948-2.363 4.814-4.416 5.659-6.226.877-1.88.89-2.409.06-2.63-1.113-.298-9.197-.201-9.792.116-.459.245-.56.615-.56 2.038v1.738l-1.52-.087-1.52-.087v-6.933l8.667-.077c4.768-.042 8.782.037 8.92.175.531.53-.352 5.308-1.37 7.413-1.018 2.11-2.47 3.653-8.813 9.37-2.857 2.577-3.767 3.98-3.779 5.825-.012 2.008 2.094 4.106 4.48 4.463 3.77.564 6.626-1.482 6.452-4.62l-.08-1.425 1.304-.383c1.166-.342 1.34-.33 1.665.11.96 1.304.06 5.53-1.56 7.319-1.685 1.86-5.707 2.915-8.754 2.293zm-87.223-12.481c-.882-1.7-4.715-7.69-7.163-11.194-3.051-4.367-6.759-8.878-10.733-13.057l-2.665-2.802 2.653-2.831c4.965-5.3 9.402-11.2 14.773-19.645 1.95-3.066 3.647-5.574 3.771-5.574.125 0 .971 1.332 1.88 2.96 3.886 6.958 8.627 13.482 15.824 21.772 1.395 1.607 2.536 3.105 2.536 3.33 0 .225-.945 1.45-2.1 2.722-6.363 7.014-11.782 14.424-15.998 21.88-.955 1.69-1.895 3.077-2.089 3.081-.193 0-.503-.284-.689-.641zm89-22.52c-.167-.205-1.218-1.743-2.337-3.416-1.118-1.674-2.891-3.968-3.94-5.098-1.05-1.131-1.908-2.137-1.908-2.235 0-.098.9-1.22 2.002-2.49 1.1-1.272 2.944-3.74 4.095-5.484 1.152-1.744 2.203-3.172 2.335-3.172.133 0 .457.358.722.795 1.55 2.564 3.8 5.722 5.454 7.656 1.043 1.22 1.897 2.394 1.897 2.61 0 .216-.73 1.228-1.62 2.25-.891 1.02-2.609 3.35-3.817 5.177-2.686 4.061-2.515 3.86-2.883 3.407zm-90.324-167.42c-4.957-8.3-10.531-15.71-16.134-21.449-1.474-1.51-2.775-2.904-2.89-3.1-.134-.225.798-1.42 2.525-3.24 5.023-5.295 8.928-10.49 14.81-19.702 3.934-6.16 3.563-5.673 3.916-5.157.163.239 1.32 2.194 2.571 4.346 3.65 6.276 8.097 12.36 14.324 19.595 1.693 1.966 3.077 3.768 3.077 4.004 0 .236-.962 1.45-2.139 2.698-5.026 5.33-10.98 13.382-15.196 20.552-1.375 2.338-2.653 4.255-2.84 4.26-.189.01-1.1-1.257-2.024-2.806zm-88.058-9.497c-1.223-2.07-4.8-6.77-6.118-8.039-.652-.628-1.186-1.31-1.186-1.517 0-.207.851-1.383 1.892-2.614 1.04-1.23 2.869-3.7 4.063-5.487 1.194-1.788 2.264-3.25 2.379-3.248.114 0 .945 1.204 1.847 2.673.9 1.468 2.693 3.935 3.981 5.482 1.289 1.547 2.343 2.902 2.343 3.01 0 .11-.642.935-1.426 1.835-1.796 2.059-4.46 5.745-5.586 7.725-.474.834-.983 1.516-1.13 1.516-.149 0-.625-.601-1.059-1.336zm-7.826-25.315c-.21-.253-.226-1.03-.049-2.44.67-5.325 1.526-6.536 9.916-14.041 3.172-2.837 4.097-4.313 3.911-6.242-.245-2.546-2.011-4.04-5.084-4.3-1.88-.16-3.687.473-4.866 1.702-.749.782-.841 1.075-.813 2.582l.031 1.7-1.318.447c-1.71.582-1.933.337-1.918-2.097.029-4.332 1.983-6.67 6.324-7.563 5.96-1.227 11.343 2.619 11.318 8.083-.006 1.236-.194 2.258-.552 2.988-.774 1.58-3.007 3.922-6.373 6.684-3.73 3.062-5.515 4.979-6.398 6.87-1.248 2.674-1.49 2.548 4.718 2.458l5.429-.079.089-1.726c.096-1.88.317-2.162 1.685-2.17 1.424-.01 1.585.434 1.493 4.082l-.082 3.28-8.575.077c-6.719.06-8.643 0-8.886-.296z" fill="#da6d6e"/><path d="M0 157.44V0h217.75v314.88H0V157.44zm212.14 156.22c1.848-.972 3.687-3.022 4.286-4.775.413-1.209.456-15.59.456-151.43V7.365l-.824-1.736c-.917-1.934-2.394-3.386-4.373-4.3L210.367.72H7.087l-1.303.68c-1.776.928-3.372 2.5-4.296 4.23L.717 7.077l-.078 149.64c-.053 103.98.016 150.08.228 151.07.609 2.866 2.79 5.295 5.639 6.28 1.366.471 7.272.497 102.8.437l101.35-.064 1.483-.781zm-17.495-16.954c-3.272-1.128-5.329-3.73-5.513-6.975-.209-3.69.848-5.252 7.007-10.356 2.966-2.458 4.49-3.947 5.342-5.221 1.224-1.828 1.787-3.598 1.3-4.084-.16-.159-2.462-.241-5.466-.195l-5.19.079-.145 1.878-.145 1.877-1.385.09-1.384.087.08-3.555.083-3.555h17.084l.093 1.136c.14 1.717-.469 4.688-1.301 6.343-1.126 2.238-2.31 3.537-6.74 7.395-4.798 4.179-5.806 5.51-5.806 7.665 0 2.797 1.93 4.484 5.39 4.708 3.492.226 5.7-1.53 5.563-4.424-.06-1.275.014-1.484.643-1.8a4.032 4.032 0 0 1 1.507-.364h.796v2.26c0 3.882-1.568 6.108-5.022 7.131-1.96.58-4.915.53-6.79-.116zm-85.871-12.38a620.699 620.699 0 0 1-2.653-4.26c-4.44-7.184-10.623-15.167-15.318-19.782-1.208-1.187-2.193-2.292-2.189-2.455 0-.163 1.256-1.661 2.781-3.33 5.11-5.59 9.508-11.462 14.295-19.086 1.513-2.41 3.022-4.71 3.353-5.113l.602-.732 1.501 2.803c3.122 5.829 9.097 14.187 14.861 20.789 4.352 4.983 4.173 4.39 2.016 6.69-5.868 6.258-12.222 14.94-16.959 23.176-.754 1.31-1.423 2.383-1.486 2.383-.063 0-.425-.487-.804-1.083zm88.258-23.399c-1.18-2.038-2.595-3.969-4.96-6.764-1.166-1.377-2.12-2.643-2.12-2.814 0-.17.62-.995 1.376-1.832 1.568-1.736 3.781-4.727 5.448-7.364.627-.992 1.225-1.804 1.33-1.806.103 0 .575.68 1.047 1.515.852 1.505 4.432 6.364 6.12 8.304.484.556.883 1.117.887 1.245 0 .129-.881 1.299-1.968 2.6a59.488 59.488 0 0 0-5.092 7.06c-.417.676-.874 1.228-1.016 1.228-.142 0-.615-.617-1.052-1.372zm-87.915-163.8c-.228-.274-.92-1.344-1.536-2.376-5.096-8.542-12.12-17.734-17.648-23.098-.73-.709-1.327-1.436-1.327-1.617 0-.18.28-.576.622-.878.342-.303 1.942-2.046 3.554-3.873 4.633-5.248 8.533-10.589 13.765-18.849 1.485-2.343 2.806-4.26 2.936-4.26.13 0 .584.617 1.008 1.372 4.452 7.912 9.372 14.862 15.591 22.027 1.863 2.144 3.455 4.055 3.539 4.244.084.19-1.331 2.024-3.144 4.076-5.675 6.422-11.446 14.425-15.107 20.95-.778 1.386-1.51 2.579-1.626 2.65-.117.073-.4-.093-.628-.367zM19.43 85.143c-1.093-1.926-3.044-4.571-5.244-7.111-1.113-1.285-2.023-2.444-2.023-2.577 0-.132.403-.622.897-1.089 1.163-1.1 4.82-5.93 6.077-8.026.539-.898 1.13-1.633 1.313-1.633.183 0 .862.888 1.508 1.972.995 1.672 3.407 4.904 6.065 8.128l.658.799-2.052 2.423c-1.128 1.332-2.918 3.754-3.978 5.383s-2.061 2.96-2.226 2.959c-.165 0-.613-.554-.995-1.228zM16 60.158l-4.417-.088v-1.253c0-3.251 1.214-6.53 3.332-9.003.71-.83 2.996-2.986 5.079-4.79 4.528-3.925 5.488-5.208 5.488-7.334 0-2.88-2.235-4.765-5.635-4.753-3.454.013-5.365 1.62-5.367 4.515 0 1.41-.05 1.505-.913 1.806-1.885.655-1.984.559-1.977-1.922.01-3.486.987-5.29 3.613-6.675 1.311-.691 1.748-.763 4.633-.763 2.894 0 3.32.07 4.652.772 3.102 1.633 4.617 4.277 4.422 7.72-.181 3.196-1.38 4.663-8.637 10.574-2.378 1.936-4.459 4.544-4.96 6.216-.605 2.012-.592 2.017 5.02 2.012 2.753 0 5.16-.103 5.35-.223.19-.121.386-.996.435-1.946l.088-1.726 1.275-.091c.823-.06 1.36.043 1.516.289.386.608.304 6.132-.098 6.533-.348.347-1.445.358-12.9.13z" fill="#d54f50"/><path d="M0 157.44V0h217.75v314.88H0V157.44zm212.14 156.22c1.848-.972 3.687-3.022 4.286-4.775.413-1.209.456-15.59.456-151.43V7.365l-.824-1.736c-.917-1.934-2.394-3.386-4.373-4.3L210.367.72H7.087l-1.303.68c-1.776.928-3.372 2.5-4.296 4.23L.717 7.077l-.078 149.64c-.053 103.98.016 150.08.228 151.07.609 2.866 2.79 5.295 5.639 6.28 1.366.471 7.272.497 102.8.437l101.35-.064 1.483-.781zm-16.568-16.814c-2.892-.7-5.27-2.83-6.038-5.406-1.224-4.113.21-6.722 6.499-11.814 3.635-2.945 5.662-5.132 6.552-7.072 1.223-2.666 1.365-2.589-4.942-2.68-4.188-.06-5.532.01-5.71.29-.129.202-.236 1.047-.239 1.878 0 1.357-.076 1.529-.707 1.687-.387.097-.973.091-1.303-.014-.561-.177-.6-.405-.6-3.492v-3.303H206.457l-.01.794c-.023 1.79-.84 5.255-1.585 6.723-.827 1.628-3.116 4.03-8.511 8.935-4.105 3.73-4.809 5.395-3.43 8.106.91 1.79 2.813 2.747 5.426 2.725 1.437-.012 2.188-.18 3.12-.703 1.582-.887 2.483-2.61 2.22-4.248-.18-1.128-.174-1.138 1.01-1.492.657-.196 1.337-.268 1.512-.16.206.127.272.973.188 2.396-.242 4.074-1.976 6.088-5.962 6.931-1.884.399-2.955.38-4.863-.082zm-87.216-13.495c-2.77-4.566-8.135-12.401-10.503-15.342-1.442-1.79-4.124-4.85-5.96-6.799l-3.338-3.543 2.004-2.09c5.744-5.991 10.562-12.472 17.179-23.105.864-1.39 1.668-2.527 1.785-2.528.117 0 .603.771 1.08 1.714 2.948 5.825 8.605 13.818 15.2 21.476 1.997 2.318 3.631 4.369 3.631 4.556 0 .187-1.273 1.788-2.83 3.557-6.544 7.442-10.52 12.904-15.11 20.766-.998 1.708-1.87 3.106-1.94 3.106-.068 0-.608-.796-1.198-1.769zm87.495-24.448c-1.135-1.707-2.927-4.033-3.982-5.169-1.054-1.136-1.917-2.155-1.917-2.265 0-.11.73-1.001 1.62-1.98.892-.978 2.666-3.338 3.944-5.245 1.278-1.906 2.423-3.504 2.544-3.551.12-.047.61.603 1.086 1.444 1.054 1.859 3.822 5.61 5.683 7.7l1.37 1.538-1.042 1.201c-1.837 2.119-4.734 6.054-5.713 7.76-.522.912-1.08 1.66-1.24 1.664-.159 0-1.218-1.39-2.353-3.097zm-87.104-162.49c-4.897-8.444-10.48-16.056-16.67-22.733l-3.385-3.651 1.043-1.162c.574-.638 2.177-2.426 3.562-3.972 4.047-4.516 8.775-11.087 14.661-20.378l1.535-2.423 2.04 3.578c3.725 6.533 9.406 14.328 15.407 21.144 1.372 1.559 2.494 3.024 2.494 3.257 0 .232-1.003 1.492-2.229 2.8-4.953 5.28-11.894 14.766-15.783 21.567-.857 1.498-1.686 2.767-1.843 2.819-.157.052-.531-.329-.832-.847zM19.525 85c-1.132-1.94-3.716-5.406-5.53-7.416-.848-.94-1.543-1.822-1.543-1.96 0-.137.858-1.252 1.907-2.478 1.048-1.226 2.827-3.622 3.952-5.325 1.125-1.702 2.14-3.037 2.256-2.966.115.071.755 1.045 1.42 2.163.666 1.118 2.279 3.348 3.584 4.957a278.692 278.692 0 0 1 2.643 3.29c.191.256-.265.99-1.544 2.486-.999 1.167-2.796 3.584-3.995 5.371-1.199 1.788-2.218 3.25-2.265 3.25-.046 0-.445-.617-.885-1.372zm-7.794-25.2c-.425-.685.47-5.102 1.436-7.085 1.025-2.106 2.122-3.273 8.61-9.161 3.282-2.978 4.167-4.454 3.889-6.481-.377-2.743-2.45-4.264-5.83-4.279-1.698-.01-2.246.12-3.378.784-1.506.883-2.31 2.445-2.19 4.255.061.93-.016 1.03-1.07 1.38-1.501.5-1.685.206-1.512-2.417.285-4.304 2.68-6.56 7.378-6.954 5.047-.422 9.34 2.74 9.804 7.222.341 3.297-1.21 5.653-6.675 10.141-3.868 3.176-5.846 5.304-6.737 7.246-1.225 2.669-1.376 2.588 5.028 2.679l5.563.078.148-.656c.081-.361.182-1.242.224-1.957l.077-1.3h2.316l.082 3.395.081 3.394h-8.534c-5.29 0-8.601-.108-8.71-.284z" fill="#6b6b6b"/><path d="M0 157.44V0h217.75v314.88H0V157.44zm213.2 155.91c1.776-1.22 2.856-2.598 3.527-4.498.4-1.133.446-16.895.446-151.25 0-136.41-.042-150.11-.461-151.33-.615-1.8-2.787-4.163-4.6-5.006l-1.454-.675H6.778l-1.504.748c-1.67.83-3.32 2.547-4.14 4.307-.522 1.122-.538 5.59-.538 151.95 0 146 .017 150.83.535 151.97 1.022 2.245 3.298 4.272 5.347 4.762.5.12 46.858.198 103.02.174l102.11-.044 1.6-1.099zm-17.626-16.496c-2.892-.7-5.27-2.83-6.038-5.406-1.224-4.113.21-6.722 6.499-11.814 3.635-2.945 5.662-5.132 6.552-7.072 1.223-2.666 1.365-2.589-4.942-2.68-4.188-.06-5.532.01-5.71.29-.129.202-.236 1.047-.239 1.878 0 1.357-.076 1.529-.707 1.687-.387.097-.973.091-1.303-.014-.561-.178-.6-.405-.6-3.493v-3.302H206.459l-.01.794c-.023 1.79-.84 5.255-1.585 6.723-.827 1.628-3.116 4.03-8.511 8.935-4.105 3.73-4.809 5.395-3.43 8.106.91 1.79 2.813 2.747 5.426 2.725 1.438-.012 2.188-.18 3.12-.703 1.583-.887 2.483-2.61 2.22-4.248-.18-1.128-.174-1.138 1.01-1.492.657-.196 1.337-.268 1.512-.16.206.127.272.973.188 2.396-.242 4.074-1.976 6.088-5.962 6.931-1.884.399-2.955.38-4.863-.082zm-87.216-13.495c-2.77-4.566-8.135-12.401-10.503-15.342-1.442-1.79-4.124-4.85-5.96-6.799l-3.338-3.543 2.004-2.09c5.744-5.991 10.562-12.472 17.179-23.105.865-1.39 1.668-2.527 1.785-2.528.117 0 .603.771 1.08 1.714 2.948 5.825 8.605 13.818 15.2 21.476 1.997 2.318 3.631 4.369 3.631 4.556 0 .187-1.273 1.788-2.83 3.557-6.544 7.442-10.52 12.904-15.11 20.766-.998 1.708-1.87 3.106-1.94 3.106-.068 0-.608-.796-1.198-1.769zm87.495-24.448c-1.135-1.707-2.927-4.033-3.982-5.169-1.054-1.136-1.917-2.155-1.917-2.265 0-.11.73-1.001 1.62-1.98.892-.978 2.666-3.338 3.944-5.245 1.278-1.906 2.423-3.504 2.544-3.551.12-.047.61.603 1.086 1.444 1.054 1.859 3.822 5.61 5.683 7.7l1.37 1.538-1.042 1.201c-1.837 2.119-4.734 6.054-5.713 7.76-.522.912-1.08 1.66-1.24 1.664-.159 0-1.218-1.39-2.353-3.097zm-87.104-162.49c-4.897-8.444-10.48-16.056-16.67-22.733l-3.385-3.651 1.043-1.162c.574-.638 2.177-2.426 3.562-3.972 4.047-4.516 8.775-11.087 14.661-20.378l1.535-2.423 2.04 3.578c3.725 6.533 9.406 14.328 15.407 21.144 1.372 1.559 2.494 3.024 2.494 3.257 0 .232-1.003 1.492-2.229 2.8-4.953 5.28-11.894 14.766-15.783 21.567-.857 1.498-1.686 2.767-1.843 2.819-.157.052-.531-.329-.832-.847zM19.527 85.008c-1.132-1.94-3.716-5.406-5.53-7.416-.848-.94-1.543-1.822-1.543-1.96 0-.137.858-1.252 1.907-2.478 1.048-1.226 2.827-3.622 3.952-5.325 1.125-1.702 2.14-3.037 2.256-2.966.115.071.755 1.045 1.42 2.163.666 1.118 2.279 3.348 3.584 4.957a278.692 278.692 0 0 1 2.643 3.29c.191.256-.265.99-1.544 2.486-.999 1.167-2.796 3.584-3.995 5.371-1.199 1.788-2.218 3.25-2.265 3.25-.046 0-.445-.617-.885-1.372zm-7.794-25.2c-.425-.685.47-5.102 1.436-7.085 1.025-2.106 2.122-3.273 8.61-9.161 3.282-2.978 4.167-4.454 3.889-6.481-.377-2.743-2.45-4.264-5.83-4.279-1.698-.01-2.246.12-3.378.784-1.506.883-2.31 2.445-2.19 4.255.061.93-.016 1.03-1.07 1.38-1.501.5-1.685.206-1.512-2.417.285-4.304 2.68-6.56 7.378-6.954 5.047-.422 9.34 2.74 9.804 7.222.341 3.297-1.21 5.653-6.675 10.141-3.868 3.176-5.846 5.304-6.737 7.246-1.225 2.669-1.376 2.588 5.028 2.679l5.563.078.148-.656c.081-.361.182-1.242.224-1.957l.077-1.3h2.316l.082 3.395.081 3.394h-8.534c-5.29 0-8.601-.108-8.71-.284z" fill="#d12d2e"/><path d="M0 157.44V0h217.75v314.88H0V157.44zm213.2 155.91c1.776-1.22 2.856-2.598 3.527-4.498.4-1.133.446-16.895.446-151.25 0-136.41-.042-150.11-.461-151.33-.615-1.8-2.787-4.163-4.6-5.006l-1.454-.675H6.778l-1.504.748c-1.67.83-3.32 2.547-4.14 4.307-.522 1.122-.538 5.59-.538 151.95 0 146 .017 150.83.535 151.97 1.022 2.245 3.298 4.272 5.347 4.762.5.12 46.858.198 103.02.174l102.11-.044 1.6-1.099zm-17.536-16.675c-4.507-1.134-7.158-5.378-5.987-9.584.463-1.664 2.301-3.733 6.15-6.922 4.42-3.661 4.842-4.073 6.114-5.967 1.26-1.874 1.812-3.665 1.315-4.262-.468-.562-11.114-.609-11.472-.05-.127.199-.298 1.076-.38 1.95-.142 1.54-.174 1.589-1.016 1.589h-.868l-.082-3.106-.082-3.105h16.814v.939c-.01 1.69-.821 4.827-1.637 6.322-1.132 2.076-2.471 3.503-6.726 7.168-3.982 3.432-5.147 4.812-5.543 6.57-.299 1.325.052 3.084.819 4.109 1.562 2.087 5.553 2.802 8.284 1.483 1.77-.855 2.489-2 2.49-3.97 0-1.643.016-1.664 1.377-1.955l.94-.202v1.684c0 3.445-1.117 5.49-3.611 6.63-1.714.782-5.14 1.12-6.892.68zm-87.075-13.352c-1.12-2.011-4.612-7.37-6.915-10.616-3.075-4.334-6.386-8.342-9.834-11.904l-2.995-3.093 2.56-2.69c4.861-5.11 9.7-11.54 14.835-19.715 1.65-2.626 3.101-4.774 3.226-4.774s.842 1.134 1.593 2.52c3.355 6.19 8.53 13.319 15.54 21.403l2.834 3.268-2.388 2.654c-6.355 7.062-10.632 12.893-15.666 21.359-.921 1.549-1.772 2.816-1.89 2.816-.119 0-.524-.552-.9-1.228zm87.533-24.418c-.988-1.545-2.714-3.847-3.837-5.116-1.122-1.269-2.04-2.4-2.04-2.513 0-.113.17-.31.377-.437.678-.414 3.379-3.85 5.462-6.947l2.038-3.03.69 1.213c.966 1.696 3.574 5.296 5.442 7.512l1.575 1.868-1.377 1.599c-1.77 2.055-4.332 5.55-5.355 7.304-.44.754-.885 1.368-.99 1.364-.104 0-.997-1.272-1.985-2.817zm-87.058-162.48c-.223-.357-1.415-2.275-2.647-4.26-4.819-7.767-11.167-15.934-16.046-20.642-.65-.628-1.183-1.263-1.183-1.41 0-.149 1.078-1.455 2.396-2.903 5.784-6.358 10.144-12.27 16.156-21.91.865-1.387 1.638-2.524 1.717-2.527.08 0 .78 1.132 1.557 2.522 3.369 6.03 7.692 12.128 13.33 18.802a4007.56 4007.56 0 0 1 4.267 5.056l.767.913-2.734 3.033c-5.366 5.954-12.528 15.85-15.732 21.738-.67 1.231-1.268 2.239-1.33 2.239-.062 0-.294-.293-.518-.65zm-89.403-11.7c-1.075-1.767-3.703-5.285-5.419-7.253-1.122-1.287-1.52-1.945-1.332-2.2.147-.201 1.024-1.26 1.948-2.353.924-1.093 2.535-3.255 3.58-4.804 1.044-1.55 1.982-2.813 2.084-2.808.102 0 .617.762 1.146 1.683.795 1.386 3.143 4.536 5.946 7.978.537.659.535.663-1.346 2.902-1.036 1.233-2.711 3.515-3.722 5.07-1.012 1.556-1.926 2.837-2.033 2.848-.106.011-.49-.467-.852-1.063zm-7.784-25.566c.005-1.556.664-4.528 1.322-5.97.992-2.17 2.72-4.09 7.164-7.963 2.1-1.83 4.124-3.775 4.498-4.324 1.437-2.111 1.391-4.693-.116-6.48-1.661-1.97-5.902-2.51-8.37-1.067-1.59.929-2.183 1.984-2.183 3.879 0 1.341-.057 1.45-.902 1.744-.496.173-1.034.233-1.194.134-.553-.341-.085-4.236.674-5.607 2.075-3.75 8.413-4.595 12.787-1.705 1.702 1.125 3.114 3.728 3.111 5.74-.004 3.31-1.192 4.957-7.12 9.87-4.407 3.652-6.148 5.737-6.796 8.135-.515 1.91-.387 1.953 5.835 1.953 6.236 0 6.056.077 6.056-2.58v-1.464h2.027v6.355H11.875l.002-.65z" fill="#d40101"/><path d="M0 157.44V0h217.75v314.88H0V157.44zm213.2 155.91c1.776-1.22 2.856-2.598 3.527-4.498.4-1.133.446-16.895.446-151.25 0-136.41-.042-150.11-.461-151.33-.615-1.8-2.787-4.163-4.6-5.006l-1.454-.675H6.778l-1.504.748c-1.67.83-3.32 2.547-4.14 4.307-.522 1.122-.538 5.59-.538 151.95 0 146 .017 150.83.535 151.97 1.022 2.245 3.298 4.272 5.347 4.762.5.12 46.858.198 103.02.174l102.11-.044 1.6-1.099z" fill="#030303"/></svg>