<svg xmlns="http://www.w3.org/2000/svg" height="335.872" width="232.277" viewBox="0 0 217.76 314.88"><path d="M0 157.44V0h217.76v314.88H0V157.44z" fill="#fdfdfd"/><path d="M0 157.44V0h217.76v314.88H0V157.44zm211.88 155.77c1.56-.831 3.003-2.271 3.718-3.71.552-1.11.562-3.422.634-151.58l.073-150.45-.611-1.416c-.342-.794-1.221-1.987-1.997-2.71-2.59-2.418 7.892-2.207-105.55-2.124l-101.05.074-1.483.78c-1.61.847-2.677 1.954-3.67 3.808l-.639 1.19-.073 149.92c-.066 135.52-.03 150.07.381 151.48.571 1.958 2.835 4.345 4.768 5.027 1.173.414 10.902.452 102.79.407l101.49-.05 1.223-.652zM7.15 306.022c-.231-.23.03-.682.395-.682.15 0 .273.195.273.433 0 .447-.342.574-.668.249zm-3.096-3.014c0-.413.155-.57.503-.502.755.145.839 1.1.097 1.1-.414 0-.6-.185-.6-.598zm183.93-5.814c-.192-.19-.348-.907-.348-1.592 0-1.137.17-1.428 1.955-3.348 2.928-3.15 3.955-4.515 3.499-4.648-3.545-1.035-5.797-2.93-6.864-5.775-1.05-2.798-.756-7.799.611-10.434.763-1.469 3.167-3.597 5.143-4.552 1.697-.821 2.141-.91 4.537-.902 2.393.01 2.84.099 4.538.932 2.005.985 4.226 3.128 5.258 5.073l.579 1.092-1.134.984c-.624.541-1.321.984-1.55.984-.227 0-1.346-.965-2.485-2.145-2.108-2.185-3.196-2.76-5.222-2.764-2.79-.01-5.585 2.201-6.421 5.07-.871 2.99-.204 5.398 1.983 7.161.904.73 1.416.905 2.917 1 1.53.097 2.058 0 3.31-.637.818-.413 1.664-.752 1.878-.752.58 0 1.947 1.535 1.944 2.182 0 .31-1.63 2.41-3.62 4.667-1.99 2.258-3.617 4.175-3.617 4.26 0 .087 1.564.157 3.475.157h3.475v-1.716c0-.944.132-1.798.293-1.898.522-.321 2.633-.404 3.352-.132.688.261.698.32.698 3.997 0 3.136-.073 3.76-.458 3.907-.252.096-4.265.175-8.919.175-6.194 0-8.553-.093-8.807-.347zm-79.444-12.87c-.235-.278-1.677-2.52-3.205-4.983-4.864-7.838-8.423-12.54-14.367-18.98-1.936-2.096-3.52-3.994-3.52-4.215 0-.222.281-.651.625-.954 1.294-1.141 7.07-7.895 9.364-10.95 2.648-3.527 5.906-8.356 9.118-13.518 1.446-2.323 2.266-3.379 2.578-3.319.252.048 1.076 1.228 1.832 2.62 3.865 7.122 8.43 13.488 16.032 22.359 1.66 1.936 3.017 3.695 3.017 3.908 0 .213-.945 1.425-2.1 2.692-6.02 6.61-11.224 13.604-15.422 20.727-.862 1.464-1.895 3.215-2.296 3.89-.807 1.362-1.034 1.461-1.657.722zm87.815-22.68c-1.174-2.075-3.643-5.445-5.796-7.908-1.13-1.292-2.054-2.432-2.054-2.533 0-.1.928-1.253 2.062-2.56 1.135-1.309 3.048-3.873 4.253-5.7 2.09-3.171 2.549-3.742 3.011-3.752.113 0 .562.613.997 1.368 1.421 2.463 3.48 5.37 5.574 7.872 1.13 1.35 2.055 2.624 2.056 2.829 0 .205-.566.985-1.257 1.733-1.838 1.988-4.265 5.267-5.719 7.728-1.528 2.585-2.094 2.753-3.127.924zm-88.572-71.453c-5.751-9.703-10.67-16.397-16.883-22.98-1.899-2.012-3.452-3.868-3.452-4.126 0-.258 1.214-1.749 2.698-3.313 5.45-5.745 11.97-14.664 17.636-24.129 1.102-1.84 1.606-1.727 2.814.633 3.283 6.413 8.942 14.349 16.304 22.866 1.712 1.98 3.113 3.791 3.113 4.024 0 .234-1.013 1.542-2.251 2.908-4.554 5.023-8.271 9.723-11.586 14.65-1.477 2.194-5.085 8.14-5.864 9.665-.797 1.559-1.522 1.502-2.53-.198zm.726-91.923c-.232-.267-.788-1.136-1.235-1.93-1.661-2.95-7.987-12.234-10.345-15.18-1.34-1.675-4.022-4.755-5.96-6.845-1.936-2.09-3.521-3.952-3.521-4.14 0-.188.814-1.205 1.81-2.26 5.596-5.932 12.062-14.64 17.443-23.491 1.666-2.74 2.301-3.392 2.811-2.883.138.137 1.041 1.669 2.007 3.403 3.91 7.023 9.69 14.907 16.704 22.786.984 1.106 1.79 2.19 1.79 2.408 0 .218-1.343 1.913-2.985 3.766-6.508 7.348-11.905 14.871-16.231 22.626-1.178 2.113-1.654 2.474-2.289 1.741zM19.79 86.444c-1.996-3.219-4.043-6.036-5.963-8.207-1.235-1.395-2.245-2.677-2.245-2.847 0-.17.562-.921 1.248-1.67 2.432-2.648 7.15-9.213 7.15-9.948 0-.144.283-.22.629-.17.43.064 1.022.757 1.875 2.2 1.324 2.24 3.017 4.545 5.517 7.514.843 1.002 1.534 1.956 1.534 2.119 0 .163-.958 1.423-2.129 2.8a54.199 54.199 0 0 0-5.465 7.663c-.904 1.536-1.452 1.675-2.151.546zm-.757-26.651c-2.866-.498-5.458-2.294-7.294-5.053-1.208-1.816-1.174-2.303.222-3.25 1.362-.922 2.066-.834 2.8.353 1.792 2.89 4.672 4.242 7.704 3.614 4.733-.98 6.988-7.546 3.826-11.139-1.247-1.417-2.246-1.855-4.227-1.855-1.267 0-2.061.187-3.07.722-.75.398-1.542.723-1.761.723-.523 0-1.597-1.518-1.597-2.256 0-.323 1.577-2.409 3.571-4.722l3.571-4.144-1.472-.159c-1.25-.135-2.71-.138-5.15-.01-.399.02-.509.369-.579 1.83l-.086 1.806h-4.054v-7.8H29.68l.086 1.456c.084 1.436.057 1.488-1.882 3.616-1.083 1.188-2.394 2.7-2.916 3.36l-.947 1.2 1.566.455c1.952.566 4.248 2.55 5.34 4.615.727 1.374.78 1.722.78 5.086 0 4.39-.446 5.791-2.548 8.009-2.807 2.961-6.347 4.2-10.125 3.544zM5.386 21.45c-.416-.415-.146-1.232.406-1.232.375 0 .579.193.579.547 0 .549-.661 1.008-.985.685zm205.32-.27c-.399-.397-.172-.962.386-.962.386 0 .579.193.579.578 0 .556-.567.783-.965.385z" fill="#f1d0cf"/><path d="M0 157.44V0h217.76v314.88H0V157.44zm211.88 155.77c1.56-.831 3.003-2.271 3.718-3.71.552-1.11.562-3.422.634-151.58l.073-150.45-.611-1.416c-.342-.794-1.221-1.987-1.997-2.71-2.59-2.418 7.892-2.207-105.55-2.124l-101.05.074-1.483.78c-1.61.847-2.677 1.954-3.67 3.808l-.639 1.19-.073 149.92c-.066 135.52-.03 150.07.381 151.48.571 1.958 2.835 4.345 4.768 5.027 1.173.414 10.902.452 102.79.407l101.49-.05 1.223-.652zM7.15 306.022c-.231-.23.03-.682.395-.682.15 0 .273.195.273.433 0 .447-.342.574-.668.249zm-3.096-3.014c0-.413.155-.57.503-.502.755.145.839 1.1.097 1.1-.414 0-.6-.185-.6-.598zm184.06-5.949c-.107-.106-.193-.709-.193-1.34 0-.987.232-1.41 1.665-3.02 2.263-2.548 4.101-4.795 4.115-5.032.01-.108-.682-.397-1.528-.642-2.008-.583-3.78-1.889-4.853-3.575-1.243-1.955-1.508-3.265-1.366-6.744.105-2.589.246-3.316.904-4.657.967-1.972 3.162-4.058 5.343-5.077 1.417-.663 2.031-.774 4.262-.768 2.213.01 2.859.124 4.288.786 1.85.858 4.338 3.198 5.267 4.954l.58 1.095-1.003.84c-.552.462-1.222.84-1.49.84-.267 0-.989-.658-1.603-1.463-2.1-2.753-4.602-3.802-7.516-3.154-2.909.648-4.733 2.644-5.342 5.843-1.043 5.488 3.874 9.447 8.7 7.007.786-.397 1.62-.722 1.852-.722.494 0 1.623 1.339 1.623 1.925 0 .22-1.694 2.335-3.764 4.697-2.07 2.363-3.764 4.378-3.764 4.479 0 .1 1.726.146 3.836.101l3.837-.08.09-1.727c.048-.95.243-1.825.434-1.945.487-.31 2.577-.273 3.096.054.556.35.804 5.98.305 6.91-.32.596-.486.607-8.954.607-4.745 0-8.715-.087-8.821-.193zm-80.701-14.901c-4.604-7.812-10.82-16.182-16.5-22.215-1.75-1.858-3.18-3.557-3.18-3.777 0-.22.47-.847 1.046-1.395 1.649-1.568 6.268-6.952 8.605-10.032 2.127-2.802 5.842-8.287 9.52-14.053 1.217-1.91 2.082-2.991 2.316-2.9.206.082.96 1.279 1.677 2.661 2.928 5.649 9.419 14.658 16.058 22.287 1.52 1.747 2.764 3.322 2.764 3.5 0 .18-1.011 1.454-2.248 2.833-6.584 7.347-11.988 14.748-16.154 22.128-1.086 1.924-1.897 3.052-2.196 3.054-.283 0-.97-.84-1.708-2.092zm87.948-22.532c-1.053-1.628-2.864-4.05-4.026-5.38-1.161-1.331-2.236-2.59-2.387-2.797-.198-.27.092-.772 1.02-1.77 1.768-1.898 3.64-4.371 5.588-7.385.898-1.39 1.825-2.528 2.06-2.528.234 0 .645.357.912.794 2 3.262 3.619 5.561 5.47 7.767 1.181 1.408 2.148 2.69 2.148 2.85 0 .158-.967 1.44-2.149 2.85-1.85 2.205-3.47 4.504-5.469 7.766-.267.437-.66.794-.87.794-.211 0-1.245-1.332-2.297-2.961zm-89.38-72.872c-4.865-7.953-9.632-14.237-15.135-19.952-1.713-1.777-3.113-3.383-3.113-3.567 0-.184 1.318-1.792 2.929-3.572 5.463-6.04 9.422-11.357 14.828-19.918 1.78-2.82 3.385-5.127 3.566-5.128.182 0 1.141 1.46 2.132 3.247 3.954 7.136 9.79 15.046 17.723 24.028.431.489.79 1.068.796 1.287.01.219-.802 1.262-1.798 2.318-5.676 6.02-11.438 13.809-16.158 21.838-1.214 2.065-2.391 3.789-2.616 3.83-.253.046-1.457-1.638-3.153-4.411zm1.31-90.855c-1.889-3.268-7.26-11.231-9.444-14.004-2.316-2.94-6.731-7.953-8.64-9.81-.811-.79-1.475-1.616-1.475-1.838 0-.222.99-1.454 2.2-2.736 4.667-4.95 9.413-11.16 14.017-18.34 1.353-2.11 2.981-4.646 3.618-5.633.637-.988 1.32-1.796 1.517-1.796.197 0 1.154 1.43 2.127 3.177 3.657 6.568 8.582 13.436 14.851 20.708 2.011 2.334 3.657 4.383 3.657 4.554 0 .17-1.371 1.846-3.047 3.723-5.614 6.29-9.78 11.964-14.35 19.546-1.533 2.542-2.986 4.662-3.23 4.71-.292.056-.908-.717-1.8-2.261zm-87.767-10.32c-1.452-2.507-3.997-5.95-5.839-7.897-1-1.057-1.818-2.06-1.818-2.226 0-.166.631-.995 1.402-1.842 1.73-1.9 4.55-5.687 5.971-8.022.586-.963 1.24-1.751 1.452-1.751.212 0 .805.748 1.317 1.661 1.254 2.235 3.12 4.832 5.37 7.473 1.024 1.202 1.862 2.29 1.862 2.417 0 .126-.911 1.306-2.025 2.621-1.998 2.36-4.674 6.173-5.614 8-.266.516-.664.938-.883.938-.22 0-.757-.617-1.195-1.372zm-1.287-26.243c-2.218-.588-4.44-2.2-5.956-4.32-.706-.986-1.283-1.927-1.283-2.091 0-.432 1.7-1.795 2.239-1.795.251 0 1.17.786 2.04 1.745 2.048 2.258 3.39 2.945 5.732 2.931 2.162-.012 3.625-.674 5.104-2.306 1.32-1.458 1.809-2.9 1.8-5.307-.01-1.621-.142-2.144-.86-3.3-1.659-2.671-5.157-3.538-8.064-1.996-.749.397-1.535.722-1.747.722-.477 0-1.322-1.241-1.32-1.94.001-.283 1.626-2.4 3.611-4.704 1.985-2.304 3.613-4.29 3.618-4.414 0-.123-1.718-.188-3.828-.144l-3.836.081-.145 1.733-.145 1.734-1.819.086-1.818.086.08-3.698.082-3.697h17.663l.09 1.248c.085 1.181-.015 1.364-1.882 3.445-2.298 2.56-3.848 4.47-3.852 4.745 0 .107.421.285.939.397 2.691.58 4.934 2.44 6.154 5.105.65 1.42.756 2.04.75 4.412-.012 4.098-.59 5.847-2.683 8.112-1.452 1.572-3.181 2.592-5.342 3.154-2.048.532-3.245.527-5.322-.024zM5.38 21.452c-.415-.414-.146-1.232.406-1.232.376 0 .58.193.58.547 0 .549-.661 1.008-.986.685zm205.32-.269c-.398-.398-.171-.963.387-.963.386 0 .579.193.579.578 0 .557-.567.783-.966.385z" fill="#d6d6d6"/><path d="M0 157.44V0h217.76v314.88H0V157.44zm209.57 156.89c.277-.145 1.09-.469 1.81-.72 1.793-.627 3.186-1.846 4.204-3.68l.86-1.548V6.802l-.654-1.22c-.886-1.654-2.471-3.18-4.087-3.932l-1.34-.625H7.382l-1.646.806c-1.864.913-3.224 2.313-4.115 4.235l-.61 1.314v300.44l.69 1.525c.91 2.007 3.038 3.908 5.187 4.634 1.619.546 3.667.558 101.92.594 59.857.022 100.47-.07 100.77-.227zm-21.456-17.262c-.106-.106-.193-.709-.193-1.34 0-.987.233-1.41 1.665-3.02 2.264-2.548 4.102-4.795 4.115-5.032.01-.108-.681-.397-1.527-.642-2.008-.583-3.781-1.889-4.853-3.575-1.243-1.955-1.509-3.265-1.367-6.744.106-2.589.247-3.316.905-4.657.966-1.972 3.162-4.058 5.342-5.077 1.417-.663 2.032-.774 4.262-.768 2.214.01 2.86.124 4.288.786 1.85.858 4.339 3.198 5.268 4.954l.579 1.095-1.003.84c-.551.462-1.221.84-1.489.84s-.99-.658-1.603-1.463c-2.101-2.753-4.602-3.802-7.516-3.154-2.91.648-4.734 2.644-5.342 5.843-1.043 5.488 3.873 9.447 8.7 7.007.786-.397 1.62-.722 1.852-.722.494 0 1.623 1.339 1.623 1.925 0 .22-1.694 2.335-3.764 4.697-2.07 2.363-3.765 4.378-3.765 4.479 0 .1 1.727.146 3.837.101l3.837-.08.089-1.727c.049-.95.244-1.825.434-1.945.488-.31 2.577-.273 3.096.054.556.35.805 5.98.305 6.91-.319.596-.486.607-8.953.607-4.746 0-8.716-.087-8.822-.193zm-80.701-14.901c-4.603-7.812-10.82-16.182-16.5-22.215-1.75-1.858-3.18-3.557-3.18-3.777 0-.22.47-.847 1.047-1.395 1.649-1.568 6.267-6.952 8.605-10.032 2.126-2.802 5.842-8.287 9.519-14.053 1.218-1.91 2.082-2.991 2.317-2.9.205.082.96 1.279 1.677 2.661 2.927 5.649 9.418 14.658 16.058 22.287 1.52 1.747 2.763 3.322 2.763 3.5 0 .18-1.011 1.454-2.247 2.833-6.585 7.347-11.988 14.748-16.154 22.128-1.086 1.924-1.898 3.052-2.196 3.054-.283 0-.971-.84-1.708-2.092zm87.948-22.532c-1.052-1.628-2.864-4.05-4.025-5.38-1.162-1.331-2.236-2.59-2.388-2.797-.197-.27.092-.772 1.021-1.77 1.768-1.898 3.639-4.371 5.587-7.385.899-1.39 1.826-2.528 2.06-2.528.234 0 .645.357.913.794 2 3.262 3.618 5.561 5.469 7.767 1.182 1.408 2.148 2.69 2.148 2.85 0 .158-.966 1.44-2.148 2.85-1.85 2.205-3.47 4.504-5.47 7.766-.267.436-.659.794-.87.794-.21 0-1.245-1.332-2.297-2.961zm-89.379-72.872c-4.865-7.953-9.632-14.237-15.136-19.952-1.712-1.777-3.113-3.383-3.113-3.567 0-.184 1.318-1.792 2.93-3.572 5.462-6.04 9.422-11.357 14.827-19.918 1.78-2.82 3.385-5.127 3.567-5.128.181 0 1.14 1.46 2.131 3.247 3.955 7.136 9.79 15.046 17.723 24.028.432.489.79 1.068.797 1.287.01.219-.803 1.262-1.798 2.318-5.676 6.02-11.438 13.809-16.158 21.838-1.215 2.065-2.392 3.789-2.617 3.83-.253.046-1.456-1.638-3.153-4.411zm1.31-90.855c-1.89-3.268-7.26-11.231-9.444-14.004-2.317-2.94-6.732-7.953-8.641-9.81-.81-.79-1.474-1.616-1.474-1.838 0-.222.99-1.454 2.2-2.736 4.666-4.95 9.412-11.16 14.016-18.34 1.353-2.11 2.981-4.646 3.619-5.633.637-.988 1.319-1.796 1.516-1.796.197 0 1.154 1.43 2.127 3.177 3.657 6.568 8.582 13.436 14.851 20.708 2.012 2.334 3.657 4.383 3.657 4.554 0 .17-1.37 1.846-3.046 3.723-5.615 6.29-9.781 11.964-14.351 19.546-1.532 2.542-2.986 4.662-3.23 4.71-.291.056-.908-.717-1.8-2.261zm-87.767-10.32c-1.453-2.507-3.998-5.95-5.84-7.897-1-1.057-1.818-2.06-1.818-2.226 0-.166.632-.995 1.403-1.842 1.73-1.9 4.549-5.687 5.97-8.022.587-.963 1.24-1.751 1.452-1.751.213 0 .805.748 1.318 1.661 1.253 2.235 3.12 4.832 5.369 7.473 1.024 1.202 1.862 2.29 1.862 2.417 0 .126-.91 1.306-2.024 2.621-1.998 2.36-4.674 6.173-5.615 8-.266.516-.663.938-.883.938-.22 0-.757-.617-1.194-1.372zm-1.287-26.243c-2.219-.588-4.44-2.2-5.957-4.32-.705-.986-1.282-1.927-1.282-2.091 0-.432 1.7-1.795 2.238-1.795.252 0 1.17.786 2.04 1.745 2.048 2.258 3.39 2.945 5.732 2.931 2.162-.012 3.626-.674 5.104-2.306 1.32-1.458 1.81-2.9 1.8-5.307-.01-1.621-.142-2.144-.86-3.3-1.658-2.671-5.157-3.538-8.063-1.996-.75.397-1.536.722-1.748.722-.476 0-1.321-1.241-1.32-1.94.002-.283 1.626-2.4 3.612-4.704 1.985-2.304 3.613-4.29 3.618-4.414 0-.123-1.718-.188-3.828-.144l-3.837.081-.145 1.733-.145 1.734-1.818.086-1.819.086.081-3.698.081-3.697h17.664l.09 1.248c.085 1.181-.015 1.364-1.883 3.445-2.297 2.56-3.847 4.47-3.851 4.745 0 .107.42.285.938.397 2.692.58 4.934 2.44 6.155 5.105.65 1.42.755 2.04.749 4.412-.011 4.098-.59 5.847-2.682 8.112-1.453 1.572-3.182 2.592-5.342 3.154-2.049.532-3.245.527-5.322-.024zM5.497 20.807a.29.29 0 0 1 .579 0 .29.29 0 0 1-.58 0z" fill="#eab0af"/><path d="M0 157.44V0h217.76v314.88H0V157.44zm209.57 156.89c.277-.145 1.09-.469 1.81-.72 1.793-.627 3.186-1.846 4.204-3.68l.86-1.548V6.802l-.654-1.22c-.886-1.654-2.471-3.18-4.087-3.932l-1.34-.625H7.382l-1.646.806c-1.864.913-3.224 2.313-4.115 4.235l-.61 1.314v300.44l.69 1.525c.91 2.007 3.038 3.908 5.187 4.634 1.619.546 3.667.558 101.92.594 59.857.022 100.47-.07 100.77-.227zm-21.223-17.553c-.855-.853-.358-2.305 1.41-4.12 2.147-2.206 4.288-4.916 4.11-5.204-.081-.13-.632-.328-1.223-.439-2.468-.462-4.81-2.437-5.957-5.024-1.128-2.545-.93-7.615.398-10.214.8-1.564 2.961-3.555 4.879-4.495 1.28-.627 2.102-.806 4.065-.883 3.454-.136 5.329.588 7.675 2.96 2.817 2.85 2.994 3.575 1.2 4.911l-.78.581-1.79-1.98c-2.027-2.239-3.48-3.037-5.547-3.046-2.213-.01-3.655.558-5.125 2.017-3.042 3.022-3.098 8.163-.115 10.616 1.967 1.618 4.434 1.838 6.86.613 1.452-.733 2.102-.683 2.813.219.33.418.598.84.596.939 0 .098-1.765 2.183-3.915 4.634-2.155 2.456-3.8 4.568-3.664 4.704.136.135 1.93.21 3.988.165l3.74-.081.076-1.3c.154-2.615.173-2.64 2.032-2.542l1.656.086.082 3.318c.071 2.87.015 3.368-.417 3.683-.374.273-2.522.365-8.532.365-7.124 0-8.086-.055-8.516-.483zm-79.868-13.166a2822.59 2822.59 0 0 1-2.645-4.261c-2.663-4.296-6.203-9.375-8.757-12.566-2.37-2.96-8.193-9.388-8.505-9.388-.131 0-.378-.26-.549-.579-.271-.506.06-.985 2.626-3.804 5.33-5.855 9.28-11.132 14.555-19.45 3.217-5.07 3.61-5.632 3.945-5.632.138 0 .927 1.267 1.753 2.816 3.497 6.552 9.407 14.673 16.767 23.038 2.317 2.633 2.32 2.373-.056 4.951-6.133 6.655-11.864 14.452-16.283 22.154-1.064 1.854-2.05 3.372-2.19 3.372-.14 0-.438-.293-.662-.65zm86.869-24.253c-1.202-1.794-3.104-4.3-4.227-5.57-1.122-1.268-2.04-2.417-2.04-2.552 0-.135.86-1.242 1.91-2.46 1.052-1.217 2.88-3.67 4.064-5.451 1.183-1.782 2.27-3.312 2.414-3.4.287-.177.373-.065 2.883 3.75.94 1.43 2.569 3.625 3.617 4.878 1.049 1.254 1.906 2.499 1.906 2.767 0 .267-.34.802-.754 1.187-1.08 1.002-4.917 6.13-5.938 7.935-1.446 2.556-1.384 2.573-3.835-1.084zm-87.659-70.049c-4.446-7.812-10.877-16.498-16.901-22.827-3.475-3.65-3.423-3.401-1.168-5.57 4.527-4.356 11.726-14.012 17.498-23.472.849-1.39 1.71-2.527 1.915-2.527.204 0 .99 1.137 1.746 2.527 3.708 6.821 8.631 13.662 15.773 21.915 1.583 1.831 2.875 3.548 2.869 3.815-.01.267-1.249 1.851-2.762 3.52-5.306 5.847-9.825 11.987-14.348 19.494-1.534 2.545-2.986 4.666-3.228 4.714-.278.055-.79-.528-1.394-1.589zm.788-91.734c-.224-.357-1.453-2.34-2.73-4.405-4.723-7.638-8.691-12.872-14.558-19.196l-3.516-3.79 2.57-2.807c6.017-6.57 11.367-13.81 16.75-22.666.943-1.549 1.87-2.816 2.062-2.816.192 0 .922 1.072 1.622 2.383 3.247 6.08 9.095 14.309 15.14 21.305a7062.84 7062.84 0 0 1 3.546 4.104c.469.545.783.113-4.055 5.565-4.624 5.211-10.155 12.958-13.98 19.58-1.077 1.866-2.068 3.394-2.201 3.394s-.425-.293-.65-.65zm-88.95-12.277c-1.235-2.134-3.513-5.216-5.53-7.482-1.01-1.136-1.838-2.25-1.838-2.477 0-.227.34-.727.757-1.112 1.145-1.06 4.175-5.027 5.885-7.706.837-1.31 1.684-2.383 1.882-2.383.199 0 .923.942 1.609 2.094 1.361 2.286 3.112 4.667 5.272 7.172.764.886 1.39 1.786 1.39 2 0 .214-.643 1.125-1.427 2.024-1.786 2.049-4.334 5.58-5.525 7.657-.5.872-1.083 1.585-1.295 1.585-.212 0-.743-.617-1.18-1.372zm-1.432-26.072c-1.667-.518-4.036-2.177-5.267-3.689-1.609-1.974-1.817-2.775-.918-3.525 1.155-.962 1.764-1.034 2.247-.262.916 1.464 3.372 3.593 4.55 3.944 2.736.815 5.159.244 7.085-1.67 1.555-1.544 2.295-3.407 2.286-5.754-.02-5.1-5.059-7.92-9.504-5.322l-1.305.763-.673-.78c-.37-.43-.673-.954-.673-1.165 0-.212 1.694-2.359 3.764-4.772 2.07-2.413 3.765-4.511 3.765-4.663 0-.165-1.594-.243-3.982-.195l-3.981.08-.09 1.58c-.119 2.087-.39 2.367-2.201 2.261l-1.474-.086-.082-3.28c-.054-2.172.031-3.417.253-3.684.454-.546 16.746-.598 17.29-.056.19.19.347.766.347 1.278 0 .738-.374 1.338-1.81 2.904-2.992 3.263-4.058 4.677-3.878 5.146.092.24.4.44.684.443.936.012 3.103 1.163 4.233 2.248 2.405 2.312 3.337 6.085 2.521 10.218-.482 2.445-1.115 3.584-2.95 5.31-2.276 2.14-3.904 2.828-6.903 2.92-1.356.043-2.857-.044-3.335-.193zM5.499 20.806a.29.29 0 0 1 .579 0 .29.29 0 0 1-.58 0z" fill="#b4b4b4"/><path d="M0 157.44V0h217.76v314.88H0V157.44zm211.67 156.25c1.909-.904 3.489-2.434 4.399-4.26l.668-1.34V7.37l-.69-1.526c-.85-1.875-3.016-3.886-4.865-4.514-1.227-.417-10.76-.46-102.6-.46H7.332l-1.772.883c-2.009 1.002-3.034 2.075-4.014 4.2L.868 7.425l.073 150.48.073 150.48.721 1.409c.948 1.852 2.84 3.476 4.874 4.185 1.628.567 2.631.572 102.56.522l100.91-.05 1.593-.754zm-23.319-16.917c-.855-.853-.357-2.305 1.41-4.12 2.147-2.206 4.288-4.916 4.11-5.204-.081-.13-.632-.328-1.223-.439-2.468-.462-4.81-2.437-5.957-5.024-1.128-2.545-.93-7.615.398-10.214.8-1.564 2.961-3.555 4.879-4.495 1.28-.627 2.102-.806 4.065-.883 3.454-.136 5.329.588 7.675 2.96 2.817 2.85 2.994 3.575 1.2 4.911l-.78.581-1.79-1.98c-2.027-2.239-3.48-3.037-5.547-3.046-2.213-.01-3.655.558-5.125 2.017-3.042 3.022-3.098 8.163-.115 10.616 1.967 1.618 4.434 1.838 6.86.613 1.452-.733 2.102-.683 2.813.219.33.418.598.84.596.939 0 .098-1.765 2.183-3.915 4.634-2.155 2.456-3.8 4.568-3.664 4.704.136.135 1.93.21 3.988.165l3.74-.081.076-1.3c.154-2.615.173-2.64 2.032-2.542l1.656.086.082 3.318c.071 2.87.015 3.368-.417 3.683-.374.273-2.522.365-8.532.365-7.124 0-8.086-.055-8.516-.483zm-79.868-13.166a2822.59 2822.59 0 0 1-2.645-4.261c-2.663-4.296-6.203-9.375-8.757-12.566-2.37-2.96-8.193-9.388-8.505-9.388-.131 0-.378-.26-.549-.579-.271-.506.06-.985 2.626-3.804 5.33-5.855 9.28-11.132 14.555-19.45 3.217-5.07 3.61-5.633 3.945-5.633.138 0 .927 1.268 1.753 2.817 3.497 6.552 9.407 14.673 16.767 23.038 2.317 2.633 2.32 2.373-.056 4.951-6.133 6.655-11.864 14.452-16.283 22.154-1.064 1.854-2.05 3.372-2.19 3.372-.14 0-.438-.293-.662-.65zm86.869-24.253c-1.202-1.794-3.104-4.3-4.227-5.57-1.122-1.268-2.04-2.417-2.04-2.552 0-.135.86-1.242 1.91-2.46 1.052-1.217 2.88-3.67 4.064-5.451 1.183-1.782 2.27-3.312 2.414-3.4.287-.177.373-.065 2.883 3.75.94 1.43 2.569 3.625 3.617 4.878 1.049 1.254 1.906 2.499 1.906 2.767 0 .267-.34.802-.754 1.187-1.08 1.002-4.917 6.13-5.938 7.935-1.446 2.556-1.384 2.573-3.835-1.084zm-87.659-70.049c-4.446-7.812-10.877-16.498-16.901-22.827-3.475-3.65-3.423-3.401-1.168-5.57 4.527-4.356 11.726-14.012 17.498-23.472.849-1.39 1.71-2.527 1.915-2.527.204 0 .99 1.137 1.746 2.527 3.708 6.821 8.631 13.662 15.773 21.915 1.584 1.831 2.875 3.548 2.869 3.815-.01.267-1.249 1.851-2.762 3.52-5.306 5.847-9.825 11.987-14.348 19.494-1.533 2.545-2.986 4.666-3.228 4.714-.278.055-.79-.528-1.394-1.589zm.788-91.734c-.224-.357-1.453-2.34-2.73-4.405-4.723-7.638-8.691-12.872-14.558-19.196l-3.516-3.79 2.57-2.807c6.017-6.57 11.367-13.81 16.75-22.666.943-1.549 1.87-2.816 2.062-2.816.192 0 .922 1.072 1.622 2.383 3.247 6.08 9.095 14.309 15.14 21.305a7062.84 7062.84 0 0 1 3.546 4.104c.469.545.783.113-4.055 5.565-4.624 5.211-10.155 12.958-13.98 19.58-1.077 1.866-2.068 3.394-2.201 3.394s-.425-.293-.65-.65zm-88.95-12.277c-1.235-2.134-3.513-5.216-5.53-7.482-1.01-1.136-1.838-2.25-1.838-2.477 0-.227.34-.727.757-1.112 1.145-1.06 4.176-5.027 5.885-7.706.837-1.31 1.684-2.383 1.882-2.383.199 0 .923.942 1.609 2.094 1.362 2.286 3.112 4.667 5.272 7.172.764.886 1.39 1.786 1.39 2 0 .214-.642 1.125-1.427 2.024-1.786 2.049-4.334 5.58-5.525 7.657-.5.872-1.083 1.585-1.295 1.585-.212 0-.743-.617-1.18-1.372zM18.1 59.222c-1.667-.518-4.036-2.177-5.267-3.689-1.609-1.974-1.817-2.775-.918-3.525 1.155-.962 1.764-1.034 2.247-.262.917 1.464 3.372 3.593 4.55 3.944 2.736.815 5.159.244 7.085-1.67 1.556-1.544 2.296-3.407 2.286-5.754-.02-5.1-5.059-7.92-9.504-5.322l-1.305.763-.673-.78c-.37-.43-.673-.954-.673-1.165 0-.212 1.694-2.359 3.764-4.772 2.07-2.413 3.765-4.511 3.765-4.663 0-.165-1.594-.243-3.982-.195l-3.981.08-.09 1.58c-.119 2.087-.39 2.367-2.201 2.261l-1.474-.086-.082-3.28c-.054-2.172.031-3.417.253-3.684.454-.546 16.746-.598 17.29-.056.19.19.347.766.347 1.278 0 .738-.374 1.338-1.81 2.904-2.992 3.263-4.058 4.677-3.878 5.146.092.24.4.44.684.443.936.012 3.103 1.163 4.233 2.248 2.406 2.312 3.337 6.085 2.522 10.218-.483 2.445-1.116 3.584-2.951 5.31-2.276 2.14-3.904 2.828-6.903 2.92-1.356.043-2.857-.044-3.334-.193z" fill="#e49090"/><path d="M0 157.44V0h217.76v314.88H0V157.44zm211.67 156.25c1.909-.904 3.489-2.434 4.399-4.26l.668-1.34V7.37l-.69-1.526c-.85-1.875-3.016-3.886-4.865-4.514-1.227-.417-10.76-.46-102.6-.46H7.332l-1.772.883c-2.009 1.002-3.034 2.075-4.014 4.2L.868 7.425l.073 150.48.073 150.48.721 1.409c.948 1.852 2.84 3.476 4.874 4.185 1.628.567 2.631.572 102.56.522l100.91-.05 1.593-.754zm-23.454-17.919c0-1.08.203-1.432 1.964-3.398 2.417-2.7 3.827-4.496 3.827-4.875 0-.158-.482-.378-1.072-.488-4.883-.914-7.532-5.473-6.72-11.563.514-3.851 2.488-6.543 6.004-8.187 1.398-.654 2.033-.768 4.25-.768 2.225 0 2.849.113 4.272.779 1.791.837 4.103 3.016 5.017 4.727l.555 1.04-.868.697c-1.207.97-1.678.882-2.63-.49-2.442-3.514-6.53-4.53-10.019-2.49-2.374 1.389-3.546 3.913-3.377 7.27.137 2.705.992 4.1 3.178 5.186 1.987.988 3.585.983 5.819-.017 1.91-.855 2.481-.748 2.947.556.239.667-.078 1.115-3.544 5.025-2.094 2.361-3.808 4.456-3.81 4.654 0 .272 1 .361 4.052.361 2.23 0 4.057-.032 4.06-.072.237-2.423.345-3.317.44-3.61.16-.503 2.578-.47 3.003.041.22.266.307 1.475.253 3.54l-.082 3.135-8.76.077-8.759.076v-1.205zm-80.623-13.758c-4.47-7.634-11.206-16.69-16.641-22.369-1.609-1.68-2.925-3.216-2.925-3.411 0-.195 1.133-1.542 2.517-2.993 4.509-4.726 9.377-11.189 14.606-19.392 1.52-2.383 2.918-4.626 3.11-4.983.19-.358.529-.65.751-.65.222 0 1.09 1.267 1.93 2.817 3.236 5.98 10.245 15.618 16.268 22.372 1.224 1.372 2.225 2.64 2.225 2.818 0 .178-1.173 1.629-2.607 3.224-6.145 6.835-10.915 13.405-15.762 21.706-.904 1.549-1.8 2.814-1.99 2.811-.189 0-.857-.88-1.483-1.95zm88.166-22.231c-1.486-2.362-5.122-6.968-6.19-7.842-.266-.218-.484-.505-.484-.636 0-.132.79-1.124 1.757-2.204.966-1.08 2.82-3.556 4.12-5.502 1.3-1.947 2.526-3.54 2.724-3.54.199 0 .579.423.845.94.846 1.64 3.182 4.953 5.3 7.516 1.127 1.364 2.045 2.587 2.04 2.718 0 .13-1.033 1.46-2.285 2.953-1.252 1.493-3.03 3.93-3.951 5.416-.921 1.486-1.815 2.699-1.986 2.696-.171 0-1.022-1.135-1.89-2.515zm-87.564-69.915a495.15 495.15 0 0 1-2.784-4.492c-4.195-6.833-9.238-13.4-14.26-18.572-1.717-1.769-3.122-3.38-3.122-3.582 0-.201.814-1.229 1.81-2.284 5.65-5.988 10.928-13.122 17.65-23.854.749-1.196 1.465-2.173 1.592-2.172.127 0 .741.943 1.365 2.094 3.923 7.24 9.822 15.415 16.936 23.469 1.122 1.271 2.044 2.479 2.048 2.684 0 .204-.812 1.244-1.813 2.31-5.719 6.092-12.273 15.053-16.684 22.81-.836 1.47-1.638 2.673-1.783 2.673-.145 0-.574-.488-.954-1.084zm-.758-94.167c-4.29-7.406-10.912-16.3-16.354-21.966-1.68-1.749-3.054-3.337-3.054-3.53 0-.193 1.116-1.533 2.479-2.978 4.761-5.046 9.054-10.723 14.14-18.698a7774.9 7774.9 0 0 1 3.551-5.565c.385-.601.807-1.027.938-.946.131.08 1.058 1.606 2.059 3.39 3.574 6.368 8.799 13.587 15.058 20.809 1.75 2.019 3.182 3.822 3.182 4.007 0 .186-.75 1.138-1.665 2.116-5.819 6.219-11.998 14.61-16.508 22.415-.964 1.669-1.928 3.067-2.142 3.108-.22.042-.951-.896-1.685-2.162zM19.213 84.571c-1.722-2.682-4.406-6.182-5.594-7.294-1.693-1.585-1.685-1.66.433-4.125 1.055-1.227 2.892-3.69 4.083-5.472 1.191-1.783 2.285-3.315 2.43-3.405.146-.09.613.394 1.037 1.075 1.974 3.167 3.417 5.18 5.308 7.408 1.127 1.329 2.049 2.519 2.049 2.646 0 .127-.871 1.25-1.935 2.496s-2.893 3.728-4.063 5.516c-1.17 1.787-2.19 3.25-2.266 3.25-.076 0-.743-.943-1.482-2.095zm-.983-25.435c-.724-.205-1.791-.666-2.371-1.023-1.202-.74-3.63-3.304-4.267-4.503-.406-.765-.388-.84.378-1.496.443-.38 1-.692 1.239-.692.238 0 1.165.789 2.06 1.753 2.1 2.263 3.296 2.87 5.658 2.87 4.315 0 7.256-3.176 7.258-7.836 0-4.846-4.476-7.667-8.936-5.63-.91.415-1.786.755-1.948.755-.438 0-1.063-.927-1.074-1.591-.01-.335 1.52-2.35 3.607-4.767 1.99-2.302 3.618-4.349 3.62-4.547 0-.272-1-.361-4.05-.361h-4.055v1.568c0 1.854-.472 2.476-1.882 2.476-1.602 0-1.882-.538-1.882-3.608 0-1.485.079-2.906.176-3.157.155-.403 1.205-.457 8.831-.457h8.656v1.18c0 1.055-.221 1.428-2.103 3.538-2.896 3.25-3.824 4.512-3.515 4.78.143.124.836.39 1.538.59 4.633 1.316 6.875 5.413 6.138 11.211-.494 3.884-2.256 6.434-5.623 8.14-2.164 1.095-5.253 1.43-7.453.808z" fill="#e17d81"/><path d="M0 157.44V0h217.76v314.88H0V157.44zm211.67 156.25c1.909-.904 3.489-2.434 4.399-4.26l.668-1.34V7.37l-.69-1.526c-.85-1.875-3.016-3.886-4.865-4.514-1.227-.417-10.76-.46-102.6-.46H7.332l-1.772.883c-2.009 1.002-3.034 2.075-4.014 4.2L.868 7.425l.073 150.48.073 150.48.721 1.409c.948 1.852 2.84 3.476 4.874 4.185 1.628.567 2.631.572 102.56.522l100.91-.05 1.593-.754zm-23.261-16.915c-.106-.106-.19-.658-.186-1.228.01-.88.313-1.36 2.042-3.201 1.995-2.124 3.742-4.41 3.742-4.897 0-.135-.634-.397-1.408-.583-2.12-.507-4.001-1.909-5.215-3.886l-1.05-1.711.01-3.923c.014-4.566.339-5.488 2.767-7.847 2.962-2.878 6.78-3.81 10.577-2.579 1.744.565 2.25.91 4.065 2.76 2.551 2.6 2.772 3.144 1.65 4.06-.455.37-1.023.67-1.262.663-.239-.01-.96-.682-1.605-1.501-1.773-2.257-3.422-3.154-5.843-3.178-4.528-.046-7.32 3.01-7.32 8.013 0 1.8.113 2.251.855 3.418 1.735 2.73 5.005 3.519 8.432 2.036l1.796-.777.54.665c.297.365.54.847.54 1.071 0 .224-1.419 1.997-3.152 3.94-4.656 5.22-4.783 5.384-4.315 5.564.22.085 2.154.117 4.296.073l3.894-.081.085-1.732c.047-.953.178-1.809.29-1.902.112-.094.81-.115 1.553-.047 1.6.147 1.682.32 1.687 3.627.01 3.658.755 3.375-8.934 3.375-4.586 0-8.426-.087-8.532-.192zm-79.822-13.012c0-.136-.423-.92-.941-1.743l-2.968-4.719c-4.377-6.962-8.953-12.804-14.268-18.217-1.348-1.373-2.403-2.63-2.344-2.794.059-.165 1.483-1.836 3.165-3.715 3.04-3.397 6.322-7.432 8.064-9.916 1.78-2.538 6.893-10.287 8.15-12.35.701-1.152 1.43-2.095 1.62-2.095.19 0 .986 1.213 1.768 2.695 3.105 5.884 9.513 14.691 16.648 22.882 1.075 1.234 1.955 2.36 1.955 2.5 0 .141-.815 1.13-1.81 2.2-5.704 6.125-12.285 15.095-16.43 22.394-.919 1.616-1.881 2.98-2.14 3.031-.257.051-.469-.018-.469-.154zm87.757-23.13c-1.436-2.388-3.726-5.434-5.616-7.47-.903-.974-1.643-1.845-1.643-1.935 0-.09.789-1.048 1.753-2.128.963-1.08 2.82-3.554 4.126-5.497 1.306-1.943 2.513-3.536 2.683-3.539.17 0 .613.537.987 1.2 1.152 2.045 3.197 4.9 5.266 7.352 1.09 1.29 1.98 2.44 1.98 2.553 0 .113-.858 1.202-1.907 2.42-1.97 2.286-5.21 6.91-5.648 8.06-.392 1.03-.91.765-1.981-1.016zm-87.689-70.044c-.161-.199-.983-1.531-1.825-2.96-4.888-8.294-11.296-16.694-17.258-22.624-.848-.844-1.543-1.699-1.543-1.9 0-.2.344-.679.764-1.064 1.585-1.454 6.722-7.47 9.108-10.667 3.236-4.336 6.607-9.355 9.89-14.727.596-.976 1.207-1.699 1.357-1.606.15.093 1.06 1.594 2.022 3.336 3.65 6.615 9.81 15.023 16.167 22.065 1.155 1.28 2.1 2.49 2.1 2.69 0 .202-.699 1.115-1.553 2.031-6.67 7.157-13.21 16.153-17.856 24.56-.726 1.313-.914 1.431-1.373.866zm-.758-94.178c-.787-1.426-1.63-2.768-4.763-7.579-3.368-5.172-7.844-10.75-12.423-15.482-1.475-1.524-2.682-2.929-2.682-3.12 0-.193 1.14-1.547 2.533-3.01 5.145-5.403 10.89-13.206 16.571-22.513.85-1.39 1.701-2.528 1.894-2.528.193 0 1.143 1.426 2.11 3.17 3.773 6.795 9.734 14.952 16.188 22.149 1.161 1.294 2.11 2.51 2.11 2.7 0 .19-.818 1.212-1.819 2.269-5.74 6.063-14.322 17.916-17.546 24.238-.344.675-.786 1.226-.982 1.223-.196 0-.732-.684-1.191-1.516zM19.734 85.329c-1.657-2.674-4.366-6.324-5.965-8.039-.882-.946-1.605-1.774-1.605-1.839 0-.065.759-.98 1.686-2.035 1.628-1.85 4.433-5.673 5.805-7.91.365-.596.817-1.083 1.003-1.083.186 0 1.023 1.09 1.86 2.422.838 1.332 2.637 3.802 4 5.488 1.572 1.946 2.395 3.198 2.256 3.427-.121.2-1.055 1.319-2.074 2.489-1.02 1.17-2.705 3.445-3.744 5.055-1.039 1.61-1.992 3.042-2.119 3.18-.127.139-.623-.38-1.103-1.155zm-1.292-26.117c-2.33-.585-5.598-3.275-6.878-5.662-.375-.7-.345-.792.462-1.436 1.122-.896 1.693-.87 2.324.103.764 1.18 2.363 2.617 3.625 3.26 1.245.634 4.306.78 5.65.27 1.444-.548 2.893-1.955 3.747-3.639.698-1.376.847-2.027.846-3.705 0-2.602-.832-4.23-2.843-5.574-1.209-.809-1.654-.94-3.204-.94-1.346 0-2.16.183-3.225.722-1.697.859-1.828.87-2.325.218-.707-.93-.409-1.646 1.654-3.972 3.118-3.518 5.182-6.094 5.182-6.468 0-.245-1.13-.315-4.126-.257l-4.126.08-.042 1.698c-.026 1.07-.187 1.791-.435 1.952-.312.204-2.499.076-2.775-.162-.134-.116-.17-1.245-.124-3.998l.046-2.82 8.614.076 8.614.077.09.932c.113 1.167.055 1.263-2.387 3.954-2.076 2.288-3.35 3.982-3.35 4.455 0 .15.485.362 1.077.473 3.39.634 5.964 3.342 6.778 7.127.403 1.874-.124 6.219-.95 7.843-1.572 3.085-5.175 5.374-8.758 5.562-1.13.06-2.553-.017-3.162-.17z" fill="#df817c"/><path d="M0 157.44V0h217.76v314.88H0V157.44zm211.67 156.25c1.909-.904 3.489-2.434 4.399-4.26l.668-1.34V7.37l-.69-1.526c-.85-1.875-3.016-3.886-4.865-4.514-1.227-.417-10.76-.46-102.6-.46H7.332l-1.772.883c-2.009 1.002-3.034 2.075-4.014 4.2L.868 7.425l.073 150.48.073 150.48.721 1.409c.948 1.852 2.84 3.476 4.874 4.185 1.628.567 2.631.572 102.56.522l100.91-.05 1.593-.754zm-23.257-16.91c-.109-.108-.197-.628-.197-1.154 0-.768.352-1.343 1.782-2.913 2.43-2.665 4.009-4.68 4.009-5.112 0-.198-.797-.58-1.771-.851-1.462-.405-2.061-.78-3.429-2.145-2.263-2.258-2.735-3.699-2.56-7.823.157-3.677.713-5.153 2.684-7.119 4.078-4.068 10.226-4.328 14.259-.601.922.851 1.972 2.076 2.335 2.72l.66 1.172-.802.74c-.44.408-.946.742-1.122.742-.177 0-1.005-.783-1.84-1.741-2.438-2.797-4.865-3.655-7.863-2.78-3.283.959-5.313 3.842-5.311 7.544 0 1.62.146 2.294.716 3.32 1.655 2.98 5.212 4.021 8.543 2.5.909-.415 1.696-.754 1.75-.754.243 0 1.28 1.298 1.28 1.603 0 .186-1.76 2.334-3.91 4.773-2.15 2.439-3.908 4.54-3.908 4.67 0 .13 1.922.2 4.27.155l4.272-.08.086-1.805.086-1.806h3.176l-.082 3.394-.082 3.395-8.418.077c-4.629.042-8.505-.012-8.614-.12zm-79.932-13.461c-.225-.357-1.453-2.34-2.73-4.405-4.657-7.531-9.392-13.721-14.608-19.098-1.713-1.766-3.115-3.311-3.115-3.434 0-.123.88-1.194 1.955-2.378 3.72-4.1 5.077-5.728 7.889-9.467 2.692-3.58 6.821-9.71 9.581-14.225.703-1.15 1.436-2.093 1.627-2.094.192 0 .97 1.2 1.73 2.67 2.871 5.55 9.57 14.83 15.987 22.145 1.451 1.653 2.638 3.117 2.638 3.252 0 .136-.903 1.218-2.008 2.406-5.85 6.294-12.156 14.924-16.519 22.606-.834 1.47-1.63 2.672-1.768 2.672-.137 0-.434-.293-.658-.65zm86.877-24.266c-1.186-1.787-3.089-4.266-4.228-5.508l-2.07-2.258.895-1.064c2.913-3.461 4.407-5.432 5.808-7.659.865-1.377 1.704-2.498 1.863-2.492.16.01.981 1.144 1.826 2.528.845 1.383 2.444 3.62 3.553 4.97 3.325 4.048 3.215 3.378.983 5.978-1.862 2.169-5.927 8.006-5.927 8.51 0 .76-.78-.108-2.703-3.005zm-87.968-70.63c-5.488-9.099-9.663-14.698-16.238-21.781-1.718-1.85-3.124-3.482-3.124-3.624 0-.143.537-.774 1.193-1.402 4.635-4.434 11.455-13.526 18.046-24.055 1.001-1.599 1.791-2.586 1.946-2.431.144.143 1.043 1.662 1.998 3.375 3.757 6.74 9.075 13.997 16.258 22.187 1.08 1.233 1.962 2.338 1.96 2.456 0 .118-1.067 1.385-2.363 2.815-5.714 6.305-12.344 15.407-16.153 22.176-.87 1.546-1.676 2.811-1.79 2.811-.115 0-.894-1.137-1.733-2.528zm1.278-90.852c-.154-.199-.974-1.531-1.822-2.961-4.52-7.619-10.206-15.177-15.56-20.686-1.793-1.844-3.259-3.504-3.259-3.689 0-.184 1.276-1.686 2.836-3.337 4.822-5.102 10.326-12.523 15.47-20.854 1.313-2.126 2.54-3.865 2.728-3.865.188 0 1.007 1.241 1.82 2.758 3.527 6.587 9.315 14.541 16.442 22.594 1.161 1.313 2.112 2.516 2.112 2.674 0 .157-1.06 1.423-2.355 2.812-5.691 6.107-12.521 15.554-16.613 22.981-1.098 1.994-1.323 2.19-1.8 1.573zM19.53 85.005c-1.236-2.134-3.514-5.216-5.53-7.48l-1.837-2.065 2.047-2.413c1.127-1.328 2.978-3.811 4.115-5.519 1.137-1.708 2.203-3.105 2.368-3.105.166 0 .934 1.037 1.708 2.304.774 1.268 2.566 3.739 3.984 5.491l2.576 3.186-2.4 2.959c-1.32 1.627-3.113 4.094-3.984 5.48-.871 1.388-1.735 2.525-1.919 2.528-.184 0-.692-.611-1.128-1.366zm-.645-25.786c-2.627-.547-5.912-3.08-7.189-5.544-.4-.772-.38-.857.353-1.535 1.056-.977 1.688-.902 2.425.289 1.687 2.723 4.776 4.175 7.725 3.631 3.098-.57 5.217-2.737 5.915-6.046 1.232-5.841-3.994-9.982-9.281-7.354l-1.55.77-.534-.657c-.294-.362-.534-.843-.534-1.07 0-.226 1.694-2.381 3.764-4.79 2.07-2.409 3.764-4.488 3.764-4.62 0-.132-1.921-.204-4.27-.16l-4.272.08-.086 1.805-.086 1.805h-3.175l.082-3.394.082-3.394h17.084l.088 1.06c.079.947-.103 1.27-1.71 3.033-2.4 2.633-4.025 4.694-4.025 5.105 0 .184.755.556 1.678.826 2.21.648 4.068 2.104 5.132 4.021.834 1.501.863 1.682.862 5.31 0 3.238-.088 3.942-.629 5.112-1.84 3.983-7.22 6.632-11.612 5.717z" fill="#929292"/><path d="M0 157.44V0h217.76v314.88H0V157.44zm212.14 156.22c1.848-.972 3.687-3.022 4.286-4.775.413-1.209.456-15.59.456-151.43V7.365l-.824-1.736c-.917-1.934-2.394-3.386-4.373-4.3L210.367.72H7.087l-1.303.68c-1.775.928-3.372 2.5-4.296 4.23L.717 7.077.64 156.716c-.054 103.98.016 150.08.227 151.07.61 2.866 2.79 5.295 5.639 6.28 1.366.471 7.272.497 102.8.437l101.35-.064 1.483-.781zm-23.727-16.884c-.109-.108-.197-.628-.197-1.154 0-.768.352-1.343 1.782-2.913 2.43-2.665 4.009-4.68 4.009-5.112 0-.198-.797-.58-1.771-.851-1.462-.405-2.061-.78-3.429-2.145-2.263-2.258-2.735-3.699-2.56-7.823.157-3.677.713-5.153 2.684-7.119 4.078-4.068 10.226-4.328 14.259-.601.922.851 1.972 2.076 2.335 2.72l.66 1.172-.802.74c-.44.408-.946.742-1.122.742-.177 0-1.005-.783-1.84-1.741-2.438-2.797-4.865-3.655-7.863-2.78-3.283.959-5.313 3.842-5.311 7.544 0 1.62.146 2.294.716 3.32 1.655 2.98 5.212 4.021 8.543 2.5.909-.415 1.696-.754 1.75-.754.243 0 1.28 1.298 1.28 1.603 0 .186-1.76 2.334-3.91 4.773-2.15 2.439-3.908 4.54-3.908 4.67 0 .13 1.922.2 4.27.155l4.272-.08.086-1.805.086-1.806h3.176l-.082 3.394-.082 3.395-8.418.077c-4.629.042-8.505-.012-8.614-.12zm-79.932-13.461c-.225-.357-1.453-2.34-2.73-4.405-4.657-7.531-9.392-13.721-14.608-19.098-1.713-1.766-3.115-3.311-3.115-3.434 0-.123.88-1.194 1.955-2.378 3.72-4.1 5.077-5.728 7.889-9.467 2.692-3.58 6.821-9.71 9.581-14.225.703-1.15 1.436-2.093 1.627-2.094.192 0 .97 1.2 1.73 2.67 2.871 5.55 9.57 14.83 15.987 22.145 1.451 1.653 2.638 3.117 2.638 3.252 0 .136-.903 1.218-2.008 2.407-5.85 6.293-12.156 14.923-16.519 22.605-.834 1.47-1.63 2.672-1.768 2.672-.137 0-.434-.293-.658-.65zm86.877-24.266c-1.186-1.787-3.089-4.266-4.228-5.508l-2.07-2.258.895-1.064c2.913-3.461 4.407-5.432 5.808-7.659.865-1.377 1.704-2.498 1.863-2.492.16.01.981 1.144 1.826 2.528.845 1.383 2.444 3.62 3.553 4.97 3.325 4.048 3.215 3.378.983 5.978-1.862 2.169-5.927 8.006-5.927 8.51 0 .76-.78-.108-2.703-3.005zm-87.968-70.63c-5.488-9.099-9.663-14.698-16.238-21.781-1.718-1.85-3.124-3.482-3.124-3.624 0-.143.537-.774 1.193-1.402 4.635-4.434 11.455-13.526 18.046-24.055 1.001-1.599 1.791-2.586 1.946-2.431.144.143 1.043 1.662 1.998 3.376 3.757 6.74 9.075 13.997 16.258 22.187 1.08 1.232 1.962 2.337 1.96 2.455 0 .118-1.067 1.385-2.363 2.815-5.714 6.305-12.344 15.407-16.153 22.176-.87 1.546-1.676 2.811-1.79 2.811-.115 0-.894-1.137-1.733-2.528zm1.278-90.852c-.154-.199-.974-1.531-1.822-2.961-4.52-7.619-10.206-15.177-15.56-20.686-1.793-1.844-3.259-3.504-3.259-3.689 0-.184 1.276-1.686 2.836-3.337 4.822-5.102 10.326-12.523 15.47-20.854 1.313-2.126 2.54-3.865 2.728-3.865.188 0 1.007 1.241 1.82 2.758 3.527 6.587 9.315 14.541 16.442 22.594 1.161 1.313 2.112 2.516 2.112 2.674 0 .157-1.06 1.423-2.355 2.812-5.691 6.107-12.521 15.554-16.613 22.981-1.098 1.994-1.323 2.19-1.8 1.573zM19.53 85.001c-1.236-2.134-3.514-5.216-5.53-7.48l-1.837-2.065 2.047-2.413c1.127-1.328 2.978-3.811 4.115-5.519 1.137-1.708 2.203-3.105 2.368-3.105.166 0 .934 1.037 1.708 2.304.774 1.268 2.566 3.739 3.984 5.491l2.576 3.186-2.4 2.959c-1.32 1.627-3.113 4.094-3.984 5.48-.871 1.388-1.735 2.525-1.919 2.529-.184 0-.692-.612-1.128-1.367zm-.645-25.786c-2.627-.547-5.912-3.08-7.189-5.544-.4-.772-.38-.857.353-1.535 1.056-.977 1.688-.901 2.425.289 1.687 2.723 4.776 4.175 7.725 3.631 3.098-.57 5.217-2.737 5.915-6.045 1.232-5.842-3.994-9.983-9.281-7.355l-1.55.77-.534-.657c-.294-.362-.534-.843-.534-1.07 0-.225 1.694-2.381 3.764-4.79 2.07-2.409 3.764-4.488 3.764-4.62 0-.132-1.921-.204-4.27-.16l-4.272.08-.086 1.805-.086 1.805h-3.175l.082-3.394.082-3.394h17.084l.088 1.06c.079.947-.103 1.27-1.71 3.033-2.4 2.633-4.025 4.694-4.025 5.105 0 .184.755.556 1.678.826 2.21.648 4.068 2.104 5.132 4.021.834 1.501.863 1.682.862 5.31 0 3.238-.088 3.942-.629 5.112-1.84 3.983-7.22 6.632-11.612 5.717z" fill="#da6d6e"/><path d="M0 157.44V0h217.76v314.88H0V157.44zm212.14 156.22c1.848-.972 3.687-3.022 4.286-4.775.413-1.209.456-15.59.456-151.43V7.365l-.824-1.736c-.917-1.934-2.394-3.386-4.373-4.3L210.367.72H7.087l-1.303.68c-1.775.928-3.372 2.5-4.296 4.23L.717 7.077.64 156.716c-.054 103.98.016 150.08.227 151.07.61 2.866 2.79 5.295 5.639 6.28 1.366.471 7.272.497 102.8.437l101.35-.064 1.483-.781zm-23.573-17.038c-.652-.65-.359-1.623.959-3.172 2.838-3.337 4.77-5.78 4.77-6.032 0-.145-.358-.341-.796-.434-5.583-1.192-8.28-5.92-7.037-12.333.444-2.291 1.35-3.848 3.206-5.514 3.602-3.23 9.269-3.45 13-.502 1.316 1.04 3.21 3.492 3.21 4.155 0 .246-.397.73-.882 1.073l-.88.626-1.791-1.95c-2.043-2.223-3.488-3.002-5.59-3.011-5.201-.023-8.778 4.976-7.332 10.249.472 1.72 2.663 3.724 4.572 4.181 1.63.39 3.602.088 4.774-.73.328-.23.887-.418 1.24-.418.742 0 1.619 1.076 1.316 1.614-.113.2-1.878 2.268-3.921 4.593-2.307 2.625-3.656 4.386-3.557 4.644.128.333.925.414 4.006.41 2.115 0 4.001-.102 4.191-.223.19-.12.386-.996.435-1.945l.089-1.727h2.895v6.645l-8.262.077c-6.184.057-8.351-.012-8.615-.275zm-80.857-14.733c-5.327-8.98-11.488-17.156-17.739-23.539l-2.029-2.072 2.78-2.983c5.73-6.153 9.865-11.824 17.4-23.866.426-.681.89-1.168 1.03-1.081.14.087.93 1.404 1.752 2.927 3.1 5.737 8.74 13.568 15.131 21.01 1.71 1.992 3.108 3.792 3.106 4.001 0 .21-.947 1.42-2.1 2.693-6.12 6.758-11.5 14.086-15.687 21.375-.913 1.589-1.825 3.06-2.025 3.268-.298.31-.597-.012-1.618-1.733zm87.831-22.703c-.988-1.545-2.8-3.963-4.028-5.374-1.55-1.78-2.152-2.675-1.969-2.923.145-.197 1.025-1.252 1.955-2.346.93-1.093 2.665-3.45 3.854-5.237s2.21-3.25 2.27-3.25c.058 0 .596.813 1.195 1.806 1.306 2.165 3.573 5.269 5.421 7.42.743.865 1.35 1.735 1.35 1.934 0 .2-.779 1.247-1.73 2.328-.952 1.082-2.679 3.423-3.837 5.203-1.158 1.78-2.236 3.239-2.396 3.242-.159 0-1.097-1.258-2.085-2.803zm-87.06-69.178c-.225-.357-1.454-2.34-2.732-4.405-4.576-7.395-9.162-13.388-14.556-19.022l-3.21-3.354 3.192-3.545c5.5-6.105 8.875-10.629 14.337-19.21 1.783-2.801 3.366-5.131 3.52-5.18.153-.047.995 1.235 1.87 2.85 3.246 5.983 8.576 13.405 14.89 20.734 1.844 2.14 3.353 4.074 3.353 4.296 0 .222-.75 1.206-1.665 2.188-5.762 6.175-12.249 15.014-16.446 22.408-.902 1.59-1.754 2.89-1.893 2.89s-.436-.292-.66-.65zm-1.045-94.61c-4.58-7.9-10.823-16.216-16.907-22.522l-2.572-2.665 2.11-2.246c5.754-6.126 11.399-13.779 17.732-24.04.602-.975 1.209-1.702 1.35-1.615.14.087.87 1.294 1.623 2.684.753 1.39 2.345 4.021 3.538 5.848 3.584 5.488 6.123 8.77 13.607 17.595l1.522 1.795-2.648 2.944c-5.752 6.392-10.466 12.79-14.888 20.204-1.398 2.343-2.683 4.259-2.856 4.257-.173 0-.898-1.01-1.61-2.239zM19.216 84.28c-1.598-2.497-4.609-6.381-5.864-7.565-.495-.466-.9-1.024-.9-1.24 0-.215.567-1.003 1.261-1.751 1.544-1.664 4.475-5.605 5.75-7.733.52-.866 1.067-1.533 1.218-1.482.152.05.957 1.188 1.79 2.529.834 1.34 2.57 3.703 3.856 5.25 1.287 1.547 2.34 2.958 2.34 3.135 0 .178-.805 1.252-1.789 2.387-.983 1.136-2.754 3.527-3.933 5.315-1.18 1.787-2.2 3.25-2.267 3.25-.067 0-.725-.943-1.462-2.095zm-.975-25.314a10.831 10.831 0 0 1-5.657-4.224c-1.154-1.67-1.158-2.15-.026-2.89.708-.463.74-.444 2.838 1.661 1.52 1.525 2.462 2.228 3.315 2.474 5.031 1.452 9.667-2.242 9.667-7.704 0-5.159-4.933-8.118-9.553-5.73l-1.568.811-.514-.666c-.283-.367-.517-.804-.52-.972 0-.167 1.7-2.281 3.787-4.697 2.439-2.822 3.735-4.546 3.629-4.822-.224-.583-7.758-.638-8.239-.06-.169.203-.348 1.08-.397 1.95l-.09 1.58h-2.896v-6.644l7.963-.081c4.38-.045 8.256-.01 8.615.078.5.121.651.365.651 1.045 0 .703-.519 1.475-2.498 3.717-1.374 1.557-2.753 3.233-3.065 3.725l-.568.894.677.266c.372.147 1.315.493 2.096.769 1.802.636 3.476 2.14 4.466 4.012.717 1.355.773 1.719.763 4.93-.013 4.07-.435 5.322-2.565 7.594-2.009 2.142-4.054 3.047-7.098 3.143-1.368.043-2.814-.028-3.213-.158z" fill="#d64e4f"/><path d="M0 157.44V0h217.76v314.88H0V157.44zm212.14 156.22c1.848-.972 3.687-3.022 4.286-4.775.413-1.209.456-15.59.456-151.43V7.365l-.824-1.736c-.917-1.934-2.394-3.386-4.373-4.3L210.367.72H7.087l-1.303.68c-1.775.928-3.372 2.5-4.296 4.23L.717 7.077.64 156.716c-.054 103.98.016 150.08.227 151.07.61 2.866 2.79 5.295 5.639 6.28 1.366.471 7.272.497 102.8.437l101.35-.064 1.483-.781zm-23.635-17.986c0-.832.313-1.353 1.782-2.965 2.67-2.93 4.045-4.737 3.95-5.193-.047-.225-.97-.704-2.05-1.066-2.183-.732-3.568-1.867-4.793-3.93-.729-1.229-.771-1.505-.771-5.055 0-3.25.085-3.94.631-5.119.82-1.77 2.871-3.74 4.953-4.756 1.438-.703 1.996-.809 4.261-.81 2.05 0 2.892.13 3.945.615 1.62.746 3.47 2.37 4.65 4.081l.874 1.267-.658.7c-.363.385-.8.698-.971.696-.171 0-.937-.715-1.702-1.585-2.053-2.336-3.621-3.158-5.976-3.131-4.007.045-6.768 2.42-7.5 6.453-.517 2.849.27 5.33 2.192 6.914 2.006 1.653 4.8 1.882 7.433.61 1.304-.629 1.383-.635 1.925-.145.311.28.566.659.566.84 0 .182-1.76 2.338-3.91 4.792-2.15 2.454-3.866 4.592-3.813 4.752.14.421 8.259.543 8.755.131.218-.18.426-1.04.474-1.958l.086-1.637 1.038-.087c1.55-.13 1.748.302 1.652 3.596l-.083 2.846-8.47.077-8.47.077v-1.01zm-80.801-14.093c-5.122-8.666-11.619-17.259-17.192-22.742-1.207-1.188-2.195-2.278-2.195-2.422 0-.145 1.01-1.365 2.244-2.712 5.972-6.517 10.923-13.255 17.237-23.46.602-.973 1.21-1.697 1.352-1.61.141.087.94 1.422 1.774 2.966 3.07 5.68 9.153 14.056 15.581 21.454 1.45 1.668 2.637 3.132 2.638 3.253 0 .12-.934 1.225-2.078 2.455-5.866 6.307-12.236 15.031-16.344 22.384-.777 1.39-1.495 2.527-1.596 2.528-.101 0-.741-.942-1.422-2.094zm87.828-22.69c-1.127-1.7-2.977-4.12-4.11-5.377-2.043-2.264-2.057-2.29-1.52-2.889 2.106-2.347 4.175-5.03 5.77-7.483 1.024-1.573 1.957-2.75 2.074-2.613.116.137 1.07 1.549 2.12 3.138 1.05 1.588 2.766 3.914 3.815 5.168 1.05 1.253 1.908 2.37 1.908 2.483 0 .112-.279.45-.619.753-1.027.913-4.549 5.575-5.804 7.684-.648 1.087-1.27 2.033-1.381 2.102-.112.07-1.126-1.266-2.253-2.966zm-86.864-68.883c-.153-.199-.78-1.206-1.392-2.239-4.707-7.931-10.6-15.716-16.86-22.275-1.155-1.21-2.1-2.32-2.1-2.468 0-.148.597-.848 1.327-1.557 1.99-1.932 5.828-6.412 8.28-9.665 2.327-3.088 7.753-11.163 9.654-14.366.634-1.07 1.284-1.945 1.443-1.944.16 0 1.006 1.322 1.882 2.937 3.402 6.275 9.138 14.12 16.277 22.258 1.08 1.233 1.965 2.315 1.965 2.405 0 .09-1.45 1.812-3.222 3.826-5.81 6.603-11.163 13.995-14.894 20.57-.9 1.584-1.735 2.88-1.858 2.88s-.349-.162-.502-.361zm-2.225-96.495c-4.852-7.9-9.865-14.498-15.516-20.419-1.436-1.505-2.61-2.805-2.607-2.889 0-.084 1.31-1.582 2.907-3.33 5.103-5.583 9.903-12.05 14.94-20.129 1.374-2.204 2.612-4.078 2.751-4.163.139-.085.479.26.756.768 4.266 7.816 9.968 15.8 16.972 23.766 1.374 1.563 2.499 2.951 2.499 3.086 0 .134-1.033 1.356-2.295 2.715-5.45 5.87-11.238 13.757-15.652 21.332-.996 1.71-1.906 3.167-2.022 3.239-.116.07-1.345-1.718-2.732-3.976zM19.72 84.855c-1.08-1.908-3.864-5.665-5.657-7.634l-1.627-1.788 1.34-1.506c1.578-1.772 3.88-4.88 5.491-7.41.63-.992 1.271-1.763 1.423-1.714.152.049.834.99 1.516 2.091.682 1.102 2.421 3.474 3.864 5.273l2.624 3.27-1.776 2.074c-.976 1.14-2.756 3.537-3.955 5.324-1.198 1.788-2.262 3.25-2.364 3.248-.102 0-.497-.554-.879-1.228zm-1.209-26.03c-2.543-.684-4.53-2.174-6.18-4.636l-.759-1.131.635-.674c.349-.371.778-.675.954-.675.176 0 .996.767 1.822 1.703 1.937 2.195 3.415 2.92 5.96 2.92 3.261 0 5.58-1.54 6.943-4.608.82-1.845.816-4.95-.01-6.514-1.782-3.388-5.558-4.575-9.043-2.842-1.49.74-1.562.749-1.94.233-.215-.294-.392-.71-.392-.923 0-.213 1.694-2.354 3.765-4.756 2.07-2.402 3.764-4.543 3.764-4.756 0-.309-.9-.389-4.35-.389h-4.351l-.283.741c-.155.408-.282 1.253-.282 1.878v1.136h-2.606l-.048-1.227c-.042-1.062-.03-2.854.031-4.622.016-.47.617-.506 8.415-.506h8.397v1.004c0 .845-.344 1.38-2.18 3.394-2.667 2.922-3.729 4.413-3.524 4.946.086.223.65.497 1.252.61 2.52.472 4.68 2.233 5.85 4.77.619 1.34.726 1.98.707 4.233-.03 3.672-.63 5.572-2.34 7.4-2.96 3.167-6.468 4.298-10.21 3.291z" fill="#6b6b6b"/><path d="M0 157.44V0h217.76v314.88H0V157.44zm213.2 155.91c1.776-1.22 2.856-2.598 3.527-4.498.4-1.133.446-16.895.446-151.25 0-136.41-.042-150.11-.461-151.33-.615-1.8-2.787-4.163-4.6-5.006l-1.454-.675H6.778l-1.504.748c-1.67.83-3.32 2.547-4.14 4.307-.522 1.122-.538 5.59-.538 151.95 0 146 .017 150.83.535 151.97 1.022 2.245 3.298 4.272 5.347 4.762.5.12 46.858.198 103.02.174l102.11-.044 1.6-1.099zm-24.694-17.668c0-.832.313-1.353 1.782-2.965 2.67-2.93 4.045-4.737 3.95-5.193-.047-.225-.97-.704-2.05-1.066-2.183-.732-3.568-1.867-4.792-3.93-.73-1.229-.772-1.505-.772-5.055 0-3.25.085-3.94.631-5.119.82-1.77 2.871-3.74 4.953-4.756 1.438-.703 1.996-.809 4.261-.81 2.05 0 2.892.13 3.945.615 1.62.746 3.47 2.37 4.65 4.081l.874 1.267-.658.7c-.363.385-.8.698-.971.696-.171 0-.937-.715-1.702-1.585-2.053-2.336-3.621-3.158-5.976-3.131-4.007.045-6.768 2.42-7.5 6.453-.517 2.849.27 5.33 2.192 6.914 2.006 1.653 4.8 1.882 7.433.61 1.304-.629 1.383-.635 1.925-.145.311.28.566.659.566.84 0 .182-1.76 2.338-3.91 4.792-2.15 2.454-3.866 4.592-3.813 4.752.14.421 8.259.543 8.755.131.218-.18.426-1.04.474-1.958l.086-1.637 1.038-.087c1.55-.13 1.748.302 1.652 3.596l-.083 2.846-8.47.077-8.47.077v-1.01zm-80.801-14.093c-5.122-8.666-11.619-17.259-17.192-22.742-1.207-1.188-2.195-2.278-2.195-2.422 0-.145 1.01-1.365 2.244-2.712 5.972-6.517 10.923-13.255 17.237-23.46.602-.973 1.21-1.697 1.352-1.61.141.087.94 1.422 1.774 2.966 3.07 5.68 9.153 14.056 15.581 21.454 1.45 1.668 2.637 3.132 2.638 3.253 0 .12-.934 1.225-2.078 2.455-5.866 6.307-12.236 15.031-16.344 22.384-.777 1.39-1.495 2.527-1.596 2.528-.101 0-.741-.942-1.422-2.094zm87.828-22.69c-1.127-1.7-2.977-4.12-4.11-5.377-2.043-2.264-2.057-2.29-1.52-2.889 2.106-2.347 4.175-5.03 5.77-7.483 1.024-1.573 1.957-2.75 2.074-2.613.116.137 1.07 1.549 2.12 3.138 1.05 1.588 2.766 3.914 3.815 5.168 1.05 1.253 1.908 2.37 1.908 2.483 0 .112-.279.45-.619.753-1.027.913-4.549 5.575-5.804 7.684-.648 1.087-1.27 2.033-1.381 2.102-.112.07-1.126-1.266-2.253-2.966zm-86.864-68.883c-.153-.199-.78-1.206-1.392-2.239-4.707-7.931-10.6-15.716-16.86-22.275-1.155-1.21-2.1-2.32-2.1-2.468 0-.148.597-.848 1.327-1.557 1.99-1.932 5.828-6.412 8.28-9.665 2.327-3.088 7.753-11.163 9.654-14.366.634-1.07 1.284-1.945 1.443-1.944.16 0 1.006 1.322 1.882 2.937 3.402 6.275 9.138 14.12 16.277 22.258 1.08 1.233 1.965 2.315 1.965 2.405 0 .09-1.45 1.812-3.222 3.826-5.81 6.603-11.163 13.995-14.894 20.57-.9 1.584-1.735 2.88-1.858 2.88s-.349-.163-.502-.361zm-2.224-96.495c-4.853-7.9-9.866-14.498-15.516-20.419-1.437-1.505-2.61-2.805-2.608-2.889 0-.084 1.31-1.582 2.907-3.33 5.103-5.583 9.903-12.05 14.94-20.129 1.374-2.204 2.612-4.078 2.751-4.163.139-.085.479.26.756.768 4.266 7.816 9.968 15.8 16.972 23.766 1.374 1.563 2.499 2.951 2.499 3.086 0 .134-1.033 1.356-2.295 2.714-5.45 5.87-11.238 13.757-15.652 21.332-.996 1.71-1.906 3.168-2.022 3.24-.116.07-1.345-1.718-2.732-3.976zm-86.723-8.658c-1.08-1.908-3.865-5.665-5.658-7.634l-1.627-1.788 1.34-1.506c1.578-1.772 3.88-4.88 5.491-7.41.63-.992 1.271-1.763 1.423-1.714.152.049.834.99 1.516 2.091.682 1.102 2.421 3.474 3.864 5.273l2.624 3.27-1.776 2.074c-.976 1.14-2.756 3.537-3.955 5.324-1.198 1.788-2.262 3.25-2.364 3.248-.102 0-.497-.554-.878-1.228zm-1.21-26.03c-2.543-.684-4.53-2.174-6.18-4.636l-.759-1.131.635-.674c.349-.371.778-.675.954-.675.176 0 .996.767 1.822 1.703 1.937 2.195 3.415 2.92 5.96 2.92 3.261 0 5.58-1.54 6.943-4.608.82-1.845.817-4.95-.01-6.514-1.782-3.388-5.558-4.575-9.043-2.842-1.49.74-1.561.749-1.94.233-.215-.294-.391-.71-.391-.923 0-.213 1.693-2.354 3.764-4.756 2.07-2.402 3.764-4.543 3.764-4.756 0-.309-.9-.389-4.35-.389H15.33l-.282.741c-.156.408-.283 1.253-.283 1.878v1.136H12.16l-.048-1.227c-.042-1.062-.03-2.854.031-4.622.016-.47.617-.506 8.415-.506h8.397v1.004c0 .845-.344 1.38-2.18 3.394-2.667 2.922-3.729 4.413-3.524 4.946.086.223.65.497 1.252.61 2.52.471 4.68 2.233 5.85 4.77.619 1.34.726 1.98.707 4.233-.03 3.672-.63 5.572-2.34 7.4-2.96 3.167-6.468 4.298-10.21 3.291z" fill="#d22d2f"/><path d="M0 157.44V0h217.76v314.88H0V157.44zm213.2 155.91c1.776-1.22 2.856-2.598 3.527-4.498.4-1.133.446-16.895.446-151.25 0-136.41-.042-150.11-.461-151.33-.615-1.8-2.787-4.163-4.6-5.006l-1.454-.675H6.778l-1.504.748c-1.67.83-3.32 2.547-4.14 4.307-.522 1.122-.538 5.59-.538 151.95 0 146 .017 150.83.535 151.97 1.022 2.245 3.298 4.272 5.347 4.762.5.12 46.858.198 103.02.174l102.11-.044 1.6-1.099zm-24.483-17.317c-.234-.664.39-1.793 1.795-3.25 2.201-2.282 4.075-4.739 4.075-5.344 0-.412-.317-.636-1.23-.866-2.128-.538-3.39-1.215-4.459-2.397-2.006-2.216-2.677-4.924-2.152-8.691.392-2.812 1.036-4.058 3.048-5.892 4.634-4.225 11.338-3.393 14.959 1.859.855 1.24.871 1.316.385 1.851-.278.308-.623.559-.766.559-.143 0-.976-.771-1.85-1.714-2.005-2.16-3.499-2.908-5.803-2.908-2.584 0-4.214.666-5.722 2.338-1.5 1.666-2.202 3.492-2.2 5.73 0 2.536.473 3.763 2.013 5.254 2.212 2.14 4.98 2.512 7.958 1.069 1.069-.518 1.363-.56 1.738-.25.248.205.451.525.451.71 0 .185-1.764 2.338-3.92 4.784-2.174 2.466-3.881 4.648-3.833 4.9.073.38.732.466 4.137.536 5.476.112 5.307.176 5.412-2.035l.086-1.804h2.317l.082 2.961.083 2.961h-8.239c-6.33 0-8.268-.084-8.366-.361zm-81.123-15.051c-5.205-8.58-9.514-14.382-15.644-21.062l-3.383-3.687 2.704-2.957c5.125-5.605 9.571-11.573 14.684-19.713 1.646-2.621 3.026-4.765 3.066-4.765.04 0 .893 1.462 1.896 3.248 3.51 6.252 8.882 13.632 15.3 21.017 1.449 1.669 2.636 3.1 2.637 3.182 0 .082-1.445 1.772-3.212 3.755-5.347 6.002-11.955 15.185-15.065 20.937-.644 1.19-1.257 2.217-1.364 2.282-.106.064-.835-.942-1.62-2.236zm88.038-22.358c-1.033-1.55-2.781-3.848-3.886-5.108l-2.009-2.291 1.87-2.186c1.028-1.203 2.787-3.575 3.908-5.271l2.039-3.085 2.157 3.221c1.187 1.772 2.841 4.005 3.677 4.963.836.957 1.616 1.905 1.735 2.105.136.23-.423 1.083-1.514 2.31-1.683 1.895-5.548 7.403-5.548 7.907 0 .747-.748-.044-2.429-2.565zm-88.237-71.064c-5.005-8.321-10.363-15.437-16.36-21.723l-2.479-2.599.578-.802c.318-.441.994-1.192 1.502-1.67 3.787-3.55 10.504-12.572 16.615-22.315.922-1.47 1.716-2.672 1.765-2.672.049 0 .843 1.332 1.765 2.96 3.495 6.17 8.82 13.532 14.797 20.453 1.585 1.835 2.98 3.494 3.099 3.688.138.223-1.021 1.75-3.169 4.175-5.545 6.259-10.676 13.369-14.606 20.24-.876 1.532-1.681 2.787-1.79 2.789-.109 0-.882-1.133-1.718-2.524zm-1.107-94.764c-4.814-7.724-9.831-14.293-15.277-20.002l-2.46-2.58 3.04-3.398c5.52-6.172 8.885-10.677 13.998-18.748 2.384-3.763 3.482-5.264 3.645-4.984.13.22 1.241 2.126 2.472 4.238 3.458 5.932 7.675 11.67 14.254 19.39 1.513 1.775 2.75 3.342 2.75 3.481 0 .14-1.237 1.645-2.75 3.346-5.392 6.06-11.646 14.711-15.19 21.009-.78 1.387-1.509 2.522-1.62 2.522-.11 0-1.398-1.923-2.863-4.274zm-86.6-8.486c-1.369-2.219-3.723-5.331-5.477-7.242l-1.523-1.658 1.642-1.808c.903-.995 2.688-3.348 3.967-5.23 1.279-1.88 2.418-3.31 2.532-3.177.114.134 1.066 1.543 2.117 3.132 1.05 1.589 2.716 3.831 3.701 4.983l1.792 2.094-1.792 2.095c-.985 1.152-2.65 3.394-3.7 4.983-1.052 1.589-2.001 2.995-2.112 3.126-.11.13-.627-.454-1.147-1.298zm-1.734-25.802c-1.743-.568-3.932-2.284-5.123-4.016-.918-1.336-.945-1.444-.486-1.95.267-.295.629-.535.803-.533.175 0 .959.734 1.743 1.626 1.816 2.065 3.7 2.987 6.103 2.987 3.233 0 6.187-2.1 7.223-5.135.62-1.815.573-4.818-.1-6.294-1.59-3.496-5.684-4.823-9.375-3.04-1.436.693-1.947.625-1.947-.26 0-.3 1.7-2.525 3.776-4.944 2.076-2.42 3.736-4.604 3.688-4.855-.075-.39-.736-.454-4.717-.454h-4.629l-.145 1.877-.145 1.878h-2.316l-.082-2.942-.082-2.941 1.24-.183c.683-.1 4.34-.141 8.13-.09 7.473.098 7.68.146 7.113 1.655-.154.41-.907 1.396-1.674 2.19-2.173 2.252-4.076 4.737-4.076 5.322 0 .392.354.62 1.342.869 3.94.99 6.321 3.774 6.69 7.82.18 1.993-.335 5.184-1.07 6.622-.721 1.41-3.02 3.505-4.77 4.347-1.79.863-5.18 1.074-7.114.444z" fill="#cd0504"/><path d="M0 157.44V0h217.76v314.88H0V157.44zm213.2 155.91c1.776-1.22 2.856-2.598 3.527-4.498.4-1.133.446-16.895.446-151.25 0-136.41-.042-150.11-.461-151.33-.615-1.8-2.787-4.163-4.6-5.006l-1.454-.675H6.778l-1.504.748c-1.67.83-3.32 2.547-4.14 4.307-.522 1.122-.538 5.59-.538 151.95 0 146 .017 150.83.535 151.97 1.022 2.245 3.298 4.272 5.347 4.762.5.12 46.858.198 103.02.174l102.11-.044 1.6-1.099zm-23.48-17.407c-.209-.236-.502-.353-.651-.26-.676.416-.167-.507.874-1.589a47.727 47.727 0 0 0 1.98-2.199c1.415-1.712 2.32-.687 1.033 1.169-.495.712-.512 1.586-.033 1.627 1.143.098 8.887-.067 9.555-.203.77-.157.797-.226.82-2.09.013-1.06.088-1.764.168-1.566.09.223.413.294.846.186l.7-.176v5.552l-7.456-.011c-6.219-.01-7.52-.082-7.836-.44zm2.129-.724c.311-.503-.043-.61-.44-.132-.23.274-.251.44-.059.44.17 0 .394-.139.499-.308zm2.284-4.346c-.11-.177-.033-.424.17-.549.203-.125.294-.423.201-.663-.092-.24.08-.658.382-.93.503-.455.513-.565.118-1.328-.237-.457-.625-.831-.862-.831s-.657-.122-.934-.272c-.276-.149-.852-.344-1.279-.433-1.14-.239-1.751-.942-1.395-1.607.444-.828.358-.952-.54-.773-.66.132-.992 0-1.63-.669-.54-.562-.751-1.029-.646-1.43.103-.394.017-.594-.258-.594-.676 0-.466-6.406.263-8.014.306-.674.672-1.154.815-1.066.142.088.258-.112.258-.445 0-.332.228-.674.507-.76.943-.29 1.375-.609 1.375-1.012 0-.525 2.664-1.937 3.711-1.967.449-.013 1.059-.154 1.356-.312.595-.318 3.476.202 3.476.627 0 .131.269.239.598.239.848 0 1.718.522 1.718 1.03 0 .734-.773.78-2.463.15-1.586-.593-5.065-.758-5.065-.241 0 .119-.229.22-.507.223-.28 0-.833.26-1.231.571-.398.31-.876.568-1.062.571-.312.01-.832.826-1.928 3.04-.683 1.38-1.177 4.648-.84 5.567.158.434.454 1.34.658 2.016.203.675.446 1.229.54 1.23.094 0 .628.436 1.188.964 1.133 1.073 1.935 1.348 4.508 1.544 1.416.108 1.97.017 2.832-.466.59-.33 1.263-.6 1.497-.6.75 0 .456 1.075-.588 2.147-.558.573-1.014 1.169-1.014 1.325 0 .156-.2.284-.443.284-.244 0-.523.227-.62.505-.097.278-.711 1.024-1.366 1.657-.655.633-1.158 1.25-1.118 1.372.11.334-.156.264-.382-.1zm-85.397-9.465c-.547-.117-.905-.396-.975-.76-.06-.317-.355-.92-.655-1.343-.3-.421-.545-.909-.545-1.083 0-.174-.13-.316-.29-.316-.159 0-.29-.183-.29-.406 0-.224-.455-.951-1.013-1.617-1.005-1.2-1.071-1.344-1.128-2.45a.76.76 0 0 0-.592-.681c-.31-.06-.813-.427-1.118-.814-1.025-1.3-2.519-3.55-2.519-3.793 0-.133-.394-.532-.876-.888-.862-.635-.923-1.392-.086-1.072.289.111.395 0 .33-.33-.057-.3-.492-.573-1.106-.697-1.162-.236-2.848-1.975-3.092-3.19-.095-.472-.396-.83-.779-.927-.343-.086-1.653-1.205-2.912-2.488l-2.288-2.331.974-1.002c.535-.551 1.146-1.002 1.358-1.002.211 0 .503-.312.649-.694.196-.514.565-.744 1.425-.89 1.102-.185 1.146-.232.879-.934-.232-.608-.178-.812.305-1.15.323-.225.587-.546.587-.712 0-.504 3.526-4.521 4.099-4.67.294-.078.534-.398.534-.714 0-.377.258-.638.755-.762.632-.159.731-.314.608-.96-.21-1.09 1.39-3.436 1.998-2.932.572.473.892.07.475-.596-.242-.387-.249-.575-.023-.65.175-.058.528-.671.786-1.363.257-.69.719-1.4 1.024-1.576 1.247-.715 1.588-1.132 1.324-1.622-.336-.626 1.587-3.593 2.115-3.262.192.12.544.186.783.148.54-.087 1.829 2.255 1.587 2.884-.109.282.21.87.846 1.563.562.612 1.254 1.57 1.538 2.13.284.56.598 1.083.697 1.162.647.52 2.86 3.356 2.86 3.666 0 .208.261.639.58.956.318.318.579.764.579.992 0 .228.228.495.507.595.616.22 2.388 2.588 2.388 3.192 0 .24.34.565.757.722.56.213.717.436.606.86-.12.455-.01.572.554.572.554 0 .742.19.882.889.123.613.523 1.105 1.29 1.589.712.448 1.171.987 1.275 1.495.089.437.426 1.33.75 1.985l.587 1.19-1.747 1.776c-.962.977-2.09 2.224-2.508 2.77-.418.547-1 1.07-1.295 1.164-.294.093-.576.452-.625.798-.05.346-.414.79-.807.984-.394.195-.72.589-.724.874-.01.57-2.977 4.708-3.378 4.708-.137 0-.25.149-.25.331 0 .67-2.084 3.464-2.473 3.315-.274-.105-.415.164-.478.908-.072.853-.228 1.09-.813 1.23-.616.147-.71.313-.63 1.116.076.76-.025.973-.521 1.103-.388.1-.678.47-.783.995-.092.46-.281.906-.42.991-.138.086-.252.408-.252.716 0 .309-.098.546-.217.527a36.93 36.93 0 0 1-1.082-.22zm1.01-2.203c0-.238-.122-.433-.272-.433-.365 0-.627.451-.396.682.326.325.668.198.668-.249zm1.79-3.962c-.207-.207-.342-.224-.342-.043 0 .386.342.727.536.535.082-.082 0-.304-.193-.492zm-5.711-.784c.092-.148.034-.35-.128-.45-.162-.1-.294.02-.294.269 0 .507.173.582.422.181zm12.713-7.097c.092-.239.04-.434-.114-.434s-.28.195-.28.434c0 .238.05.433.113.433.062 0 .189-.195.28-.433zm-16.9-1.445c0-.238-.13-.433-.289-.433-.16 0-.29.195-.29.433 0 .239.13.434.29.434.16 0 .29-.196.29-.434zm-7.528-6.21c0-.16-.138-.29-.307-.29-.168 0-.226.13-.127.29.099.158.236.288.306.288s.128-.13.128-.289zm-2.027-2.023c0-.159-.138-.289-.307-.289-.168 0-.226.13-.127.29.098.158.236.288.306.288s.128-.13.128-.289zm-.588-2.239c.015-.588-.47-.413-.971.351-.257.392-.468.788-.468.88 0 .341 1.43-.882 1.439-1.23zm4.063-1.533c0-.15-.196-.272-.435-.272-.447 0-.575.34-.249.666.232.23.684-.03.684-.394zm27.943-.01c0-.225-.293-.451-.652-.502-.717-.101-.843.219-.3.76.433.433.952.292.952-.258zm-6.805-10.953a.29.29 0 0 0-.579 0 .29.29 0 0 0 .58 0zm-4.054-3.16c0-.15-.13-.353-.29-.451-.158-.098-.289.024-.289.272 0 .247.13.45.29.45.159 0 .29-.122.29-.272zm-.868-1.445c0-.15-.13-.352-.29-.45-.16-.099-.29.023-.29.271 0 .248.13.45.29.45.16 0 .29-.122.29-.271zm-5.212-2.328a.29.29 0 0 0-.58 0 .29.29 0 0 0 .58 0zm96.896 36.629c-.426-.463-.461-.637-.164-.82.31-.192.308-.317-.01-.696-.669-.804-.055-.858.74-.065.578.577.717.935.578 1.488-.217.864-.423.88-1.147.093zm-1.62-1.806c-.427-.514-.127-1.603.443-1.603.481 0 .553.459.113.73-.166.102-.222.435-.125.74.21.659.049.709-.43.133zm-4.934-11.424c0-.631-.137-.867-.506-.87-.552 0-1.81-1.725-1.81-2.475 0-.255-.25-.53-.556-.61-.585-.152-1.38-1.686-1.228-2.367.061-.273-.095-.353-.488-.25-.39.102-.838-.118-1.369-.672l-.79-.823 1.12-1.383c.615-.76 1.197-1.448 1.29-1.527.095-.08.393-.466.662-.859.27-.393.49-.555.49-.36 0 .193.196.352.434.352.51 0 .563-.334.122-.774-.224-.223.064-.699 1.014-1.673.73-.75 1.257-1.475 1.172-1.612-.186-.3.475-1.43.836-1.43.14 0 .186.26.102.578-.163.625.34.786.853.273.215-.214.413-.048.664.557.197.474.606 1.086.91 1.36.304.275.553.675.553.888 0 .214.13.389.29.389.159 0 .29.296.29.658 0 .64.474 1.176 1.615 1.825.306.174.933.848 1.393 1.497l.838 1.181-1.92 2.114c-1.056 1.162-1.922 2.276-1.924 2.474 0 .199-.264.361-.582.361-.443 0-.58.193-.58.822 0 .455-.258 1.056-.578 1.345-.319.288-.58.651-.58.807 0 .359-.895 1.05-1.375 1.062-.211.01-.362-.352-.362-.858zm.283-1.66c0-.287-.452-.727-1.033-1.016-1.081-.537-1.08-.303.01.866.724.78 1.036.824 1.026.15zm.535-2.191c.055-.285-.092-.482-.362-.482-.269 0-.456.247-.456.602 0 .704.677.604.818-.12zm-4.742-4.95c-1.036-.78-1.195-.463-.328.653.2.258.382.28.59.073.208-.208.127-.432-.262-.726zm-84.987-62.754c-.23-.445-.777-1.347-1.215-2.006-.438-.658-.796-1.29-.796-1.403 0-.112-.326-.591-.724-1.063-.398-.472-.724-1.108-.724-1.414 0-.306-.116-.556-.258-.556-.142 0-.338-.316-.435-.703-.097-.386-.405-.78-.683-.875-.557-.19-1.92-2.024-2.23-3.001-.109-.341-.327-.62-.486-.62-.158 0-.265-.228-.236-.506.1-.99-.025-1.19-.812-1.28-.66-.077-.788-.223-.746-.854.039-.599-.06-.733-.465-.627-.48.125-1.14-.648-2.187-2.566-.158-.287-.442-.523-.632-.523s-.43-.26-.53-.578c-.102-.317-.632-.918-1.178-1.334-.547-.416-.994-.875-.994-1.02 0-.145-.521-.741-1.158-1.326-.736-.675-1.159-1.316-1.159-1.758 0-.553-.118-.664-.579-.544-.342.09-.579.01-.579-.198 0-.546.634-1.041 1.333-1.041.449 0 .728-.258.942-.87.167-.48.505-.948.752-1.043.246-.094.448-.373.448-.619s.332-.882.739-1.413c.543-.71.964-.966 1.592-.966.867 0 1.22-.683.492-.953-.263-.097-.219-.281.161-.674.489-.504.542-.507.804-.047.312.549 1.134.388 1.134-.22 0-.214-.208-.505-.463-.648-.403-.225-.336-.434.506-1.581 1.132-1.541 1.523-1.767 2.322-1.34.528.281.565.246.375-.363-.116-.37-.34-.757-.496-.857-.157-.1.121-.482.618-.849.496-.366.903-.84.903-1.05 0-.213.348-.912.775-1.554.634-.956.896-1.137 1.447-1 .763.192.815.087.335-.679-.284-.454-.191-.718.58-1.65.504-.611.917-1.29.917-1.51 0-.245.176-.33.46-.222.707.271.995-.058.708-.809-.206-.541-.038-1.029.856-2.479 1.434-2.326 1.666-2.553 1.924-1.885.111.29.641 1.254 1.178 2.143.571.946.943 1.915.896 2.338-.044.402.06.697.236.664.187-.034.26.232.18.65-.136.713.31.977.67.397.186-.301 2.158 2.316 2.158 2.864 0 .146.195.427.434.625s.434.604.434.902c0 .298.2.542.444.542s.537.241.652.535c.114.295.598 1.022 1.076 1.617.478.595.869 1.362.869 1.704 0 .408.205.651.596.707.713.102 1.648 1.556 1.406 2.186-.256.666.13 1.154.604.762.482-.4.602-.186.85 1.517.109.754.321 1.372.47 1.372.15 0 .272-.187.272-.416 0-1.338 1.556-.127 2.668 2.077.341.675.793 1.228 1.003 1.228.21 0 .383.198.383.44s.326.564.724.715c.398.151.724.464.724.695 0 .595-.81 1.327-1.468 1.327-.497 0-.72.476-.586 1.25.023.13-.092.155-.255.054-.163-.1-.301-.013-.306.196-.013.529-1.33 1.967-1.801 1.967-.215 0-.552.447-.75.993-.199.547-.746 1.406-1.217 1.909-.47.503-.856 1.036-.856 1.185 0 .15-.163.25-.362.224-.8-.104-1.086.048-1.086.576 0 .813-.304 1.468-.682 1.468-.473 0-1.989 1.973-1.778 2.313.097.156-.157.436-.564.62-.499.228-.74.567-.74 1.04 0 .836-1.084 2.462-1.478 2.22-.5-.31-1.435 1.113-1.286 1.956.076.431-.02.951-.214 1.156-.195.205-.612.861-.927 1.46-.316.597-.856 1.39-1.2 1.76-.345.37-.674.921-.731 1.224-.064.338-.389.583-.843.636-.56.065-.837-.107-1.155-.722zm4.36-4.616c0-.368-.082-.385-.432-.095-.237.196-.358.474-.27.618.229.368.701.016.701-.524zm-12.163-11.681c0-.16-.13-.209-.29-.11-.159.097-.29.308-.29.467 0 .159.131.208.29.11.16-.098.29-.308.29-.467zm17.663-.128a.427.427 0 0 0-.434-.416c-.436 0-.595.61-.25.955.27.27.684-.056.684-.539zm8.11-8.068c-.196-.236-.475-.357-.619-.269-.37.228-.016.7.525.7.368 0 .385-.08.095-.431zm-29.956-2.195c.248-.401-.303-.966-.702-.72-.333.205-.12 1.034.265 1.034.133 0 .33-.141.437-.314zm28.301-1.843c-.51-.7-.958-.943-.95-.515.01.5.573.99 1.385 1.205.047.013-.148-.298-.435-.69zm-30.086-.033c.272-.707.213-.8-.258-.41-.482.399-.576.867-.176.867.142 0 .338-.206.434-.457zm22.327-8.499c-.14-.226-.306-.242-.5-.05a.537.537 0 0 0-.08.628c.14.227.307.243.5.05a.535.535 0 0 0 .08-.628zm-3.964-3.394c-.117-.609-.631-.57-.762.057-.055.262.105.449.383.449.298 0 .44-.19.38-.506zm-3.275-9.027c-.098-.16-.366-.29-.596-.29-.23 0-.417.13-.417.29 0 .159.268.289.596.289.328 0 .516-.13.417-.29zm-.628-43.044c-.62-.249-3.088-4.104-3.088-4.826 0-.205-.142-.372-.316-.372-.504 0-1.013-1.033-.838-1.7.126-.481.03-.612-.455-.612-.439 0-.98-.556-1.897-1.95a180.558 180.558 0 0 0-2.179-3.233c-.766-1.099-.83-1.32-.446-1.534.247-.138.37-.38.272-.536-.111-.18-.331-.157-.598.064-.346.287-.651.096-1.71-1.07-.71-.78-1.29-1.645-1.29-1.923s-.188-.506-.416-.506c-.703 0-1.655-1.608-1.446-2.44.142-.562.074-.737-.28-.737a.478.478 0 0 0-.466.487c0 .381-.188.307-.866-.34-.778-.744-.823-.878-.434-1.305.644-.711.548-.823-.795-.92-1.09-.079-1.227-.17-1.23-.811 0-.51-.154-.71-.511-.682-.63.05-.63-.026 0-.801 2.779-3.418 6.045-6.894 6.478-6.894.34 0 .468-.148.364-.42-.166-.432 1.091-2.322 1.99-2.991.278-.208.506-.513.506-.678 0-.165.273-.682.607-1.15.435-.61.761-.8 1.158-.675.382.121.551.036.551-.278 0-.249-.12-.453-.267-.453-.427 0 .524-1.665 1.299-2.273.388-.305.706-.763.706-1.018s.126-.464.28-.464c.597 0 2.036-1.734 2.036-2.455 0-.407.203-.819.451-.913.248-.095.38-.36.29-.59-.159-.415 1.406-2.975 1.82-2.975.118 0 .34-.402.492-.894.324-1.045.814-1.148.954-.2.054.363.334.92.623 1.238.512.563 1.301 1.857 2.372 3.89.29.549.527 1.296.527 1.66 0 .408.174.661.455.661.572 0 1.282.691 1.282 1.249 0 .232.19.495.422.584.231.089.702.72 1.046 1.403.344.683.964 1.518 1.378 1.855.464.38.765.931.788 1.445.022.506.196.83.445.83.225 0 .99.715 1.7 1.59.71.873 1.377 1.653 1.482 1.733.464.35 3.257 3.981 3.666 4.766.606 1.162 1.528 2.143 2.318 2.464.57.232.609.352.323.979-.356.78-1.19 1.25-1.352.762-.056-.168-.287-.305-.513-.305-.38 0-.543.513-.432 1.369.075.581-.543 1.52-1.001 1.52-.234 0-.425.179-.425.398 0 1.1-1.55 1.222-1.892.149-.097-.306-.288-.487-.425-.402-.137.084-.063.509.164.943.58 1.11.529 2.114-.116 2.282-.293.076-.922.812-1.397 1.634-.812 1.405-.928 1.492-1.929 1.432-1.06-.063-1.456.365-.63.681.62.238.537.787-.24 1.582-.371.379-.767.884-.88 1.122-.502 1.06-1 1.74-2.003 2.74-.592.59-1.076 1.31-1.076 1.598 0 .29-.098.569-.217.621-.208.092-.606.765-2.228 3.764-.403.745-.916 1.46-1.139 1.589-.223.128-.452.482-.51.786-.126.669-.477.79-1.312.456zm3.09-5.632c0-.238-.13-.433-.29-.433-.16 0-.29.195-.29.433 0 .239.13.434.29.434.16 0 .29-.195.29-.434zm-8.222-4.068c-.097-.251-.176-.511-.176-.578 0-.065-.195-.12-.434-.12-.524 0-.56.337-.087.809.495.493.904.428.697-.11zm1.996-1.276c-.098-.159-.31-.289-.468-.289-.16 0-.21.13-.111.289.098.159.31.289.468.289.16 0 .21-.13.111-.29zm-3.62-3.917c0-.229-.13-.416-.289-.416-.16 0-.29.268-.29.595 0 .327.13.514.29.416.16-.098.29-.366.29-.595zm-9.265-10.977c0-.834-.442-.924-.845-.172-.195.364-.184.636.036.855.451.451.808.15.808-.683zm12.74-15.31a.427.427 0 0 0-.434-.416c-.436 0-.595.61-.249.955.27.27.684-.056.684-.539zm1.17-.862c.287-.346.292-.522.022-.792-.27-.269-.408-.25-.62.084-.62.98-.121 1.57.597.708zm2.595-7.354a.29.29 0 0 0-.58 0 .29.29 0 0 0 .58 0zM20.618 84.3c-.191-.19-.348-.516-.348-.722 0-.207-.228-.381-.506-.388-.483-.012-1.81-1.728-1.81-2.34 0-.16-.39-.682-.869-1.158-.642-.642-.825-1.041-.7-1.536.092-.367.027-.755-.145-.861-.173-.107-.313.01-.313.257 0 .6-.382.57-.969-.078-.6-.661-.606-.916-.024-.916.663 0 .384-.982-.314-1.108-.316-.057-.684-.205-.816-.33-.308-.29 1.379-2.028 1.968-2.028.28 0 .444-.265.444-.712 0-.417.24-.84.58-1.022.318-.17.579-.548.579-.841 0-.595.672-1.28.967-.986.105.105.19-.132.19-.525 0-.394.244-.976.54-1.294a7 7 0 0 0 .88-1.21c.186-.348.463-.632.615-.632.152 0 .76.747 1.35 1.66.592.914 1.338 1.96 1.658 2.324.486.551.524.757.232 1.224-.482.77-.456.819.384.727.644-.071.776.073 1.068 1.162.277 1.033.415 1.198.82.981.351-.187.632-.102.998.301.436.481.458.684.152 1.421-.197.473-.67 1.064-1.052 1.314s-.695.703-.695 1.008c0 .597-.462 1.002-1.158 1.014-.263 0-.446.298-.463.742-.029.744-1.454 3.166-1.864 3.166-.122 0-.359.39-.525.866-.342.98-.374.999-.854.52zm3.127-7.903c0-.248-.13-.37-.29-.272-.159.098-.289.3-.289.45 0 .15.13.272.29.272.159 0 .29-.203.29-.45zm1.29-2.17c-.091-.148-.37-.269-.618-.269-.369 0-.386.08-.095.43.373.45 1.004.308.714-.16zm-3.164-5.77c.231-.373-.412-1.196-.765-.978-.14.087-.256.41-.256.719 0 .592.704.77 1.02.26zm-2.236-10.005c-.305-.08-.425-.3-.318-.578.144-.374.073-.395-.431-.126-.333.177-.776.322-.985.32-.72 0-3.711-2.135-3.711-2.646 0-.275-.224-.625-.497-.778-.311-.174-.51-.663-.532-1.314-.02-.57.02-1.037.088-1.037.197 0 1.21 1.275 1.22 1.536.026.617 1.583 2.22 2.158 2.22.348 0 .792.159.987.354.495.493 5.97.498 6.464.01.691-.69 2.893-.262 2.438.473-.11.177-.47.321-.801.321-.332 0-.751.202-.932.45-.55.75-3.559 1.216-5.148.799zm7.006-3.14c0-.405.308-1.022.686-1.372.377-.35.784-1.084.904-1.63.12-.548.412-1.19.65-1.427.352-.35.394-.917.23-3.05-.112-1.44-.323-2.66-.468-2.714-.146-.053-.265-.248-.265-.433 0-.494-1.145-1.717-2.387-2.55-.597-.4-1.027-.785-.956-.855.07-.07-1.103-.157-2.608-.191-1.671-.038-2.736.05-2.736.226 0 .47-.92.328-1.309-.202-.306-.418-.2-.654.72-1.59.593-.603 1.232-1.097 1.42-1.097.187 0 .488-.325.67-.722.181-.398.437-.723.569-.723.131 0 .423-.439.648-.975.52-1.24.78-1.372 1.409-.712.278.293.376.532.217.532-.16 0-.29.175-.29.388 0 .214-.267.63-.593.924-.817.738-.65 1.929.304 2.171.72.183.72.185.06.3-.364.064-.662.247-.662.406 0 .508 1.214.497 1.59-.013.511-.699 1.584-.082 1.81 1.04.093.468.345.85.559.85.227 0 .32-.18.222-.433-.398-1.034.836-.218 1.856 1.228.46.653.603 1.151.475 1.661-.137.544-.083.691.21.581.974-.365 1.498 3.534.809 6.01-.244.877-.387 1.037-.697.781-.533-.44-.684-.092-.66 1.52.016 1.059-.133 1.537-.654 2.09-.904.96-1.733.951-1.733-.019zM12.959 35.057c.417-.168.497-1.253.093-1.253-.148 0-.272-.896-.276-1.992-.01-1.811.051-2.007.631-2.163.351-.094 3.873-.172 7.828-.174h7.19l-.2.939c-.11.516-.406 1.171-.658 1.455-.402.455-.486.464-.706.072-.351-.627-.8-.552-.8.134 0 .317.136.577.3.577.206 0 .204.18 0 .567-.177.332-.481.5-.732.403-.271-.104-.527.085-.7.517-.15.374-.282.504-.292.288-.011-.227-.201-.322-.453-.226-.545.209-.547.226.128-1.136.518-1.044.525-1.164.09-1.496-.291-.222-1.4-.361-2.88-.361-1.578 0-2.406-.11-2.406-.323 0-.21-.278-.25-.796-.114-.438.115-1.511.228-2.386.25l-1.589.043.095 2.094.095 2.094-.967-.023c-.532-.013-.804-.088-.605-.168z" fill="#d40000"/><path d="M0 157.44V0h217.76v314.88H0V157.44zm213.2 155.91c1.776-1.22 2.856-2.598 3.527-4.498.4-1.133.446-16.895.446-151.25 0-136.41-.042-150.11-.461-151.33-.615-1.8-2.787-4.163-4.6-5.006l-1.454-.675H6.778l-1.504.748c-1.67.83-3.32 2.547-4.14 4.307-.522 1.122-.538 5.59-.538 151.95 0 146 .017 150.83.535 151.97 1.022 2.245 3.298 4.272 5.347 4.762.5.12 46.858.198 103.02.174l102.11-.044 1.6-1.099z" fill="#030303"/></svg>