<svg xmlns="http://www.w3.org/2000/svg" height="335.872" width="232.277" viewBox="0 0 217.76001 314.88001"><path d="M0 157.44V0h217.76v314.88H0V157.44z" fill="#fdfdfd"/><path d="M0 157.44V0h217.76v314.88H0V157.44zm211.88 155.77c1.56-.831 3.003-2.271 3.718-3.71.552-1.11.562-3.422.634-151.58l.073-150.45-.611-1.416c-.342-.794-1.221-1.987-1.997-2.71-2.59-2.418 7.892-2.207-105.55-2.124l-101.05.074-1.483.78c-1.61.847-2.676 1.954-3.67 3.808l-.638 1.19-.074 149.92c-.066 135.52-.03 150.07.381 151.48.57 1.958 2.835 4.345 4.768 5.027 1.172.414 10.9.452 102.79.407l101.49-.05 1.223-.652zM7.15 306.022c-.231-.23.03-.682.395-.682.15 0 .273.195.273.433 0 .447-.342.574-.668.249zm-3.096-3.014c0-.413.155-.57.503-.502.755.145.839 1.1.097 1.1-.415 0-.6-.185-.6-.598zm186.69-8.09c-.467-.272-.507-1.06-.507-9.958v-9.663h-1.583c-1.853 0-2.182-.365-2.182-2.426 0-1.554.452-1.907 2.443-1.907h1.322v-1.589c0-1.496-.042-1.589-.714-1.589-.804 0-1.313-.728-1.313-1.877 0-.419.135-1.012.3-1.32.272-.507.638-.558 3.996-.558 2.488 0 3.81.113 4.043.346.191.191.348.957.348 1.703 0 1.437-.255 1.706-1.617 1.706-.655 0-.7.101-.7 1.589v1.589h5.626c6.666 0 6.673 0 6.472 2.58-.12 1.54-.404 2.027-6.688 11.471-3.61 5.424-6.77 9.941-7.024 10.038-.676.26-1.645.2-2.223-.136zm6.648-13.699a341.805 341.805 0 0 0 3.082-4.694l.773-1.227h-6.667v4.968c0 2.837.108 4.851.252 4.694.139-.15 1.29-1.834 2.56-3.74zm-35.742.768c-.166-.104-1.25-1.75-2.41-3.656-5.334-8.776-9.867-14.77-15.962-21.115-1.724-1.795-3.135-3.406-3.135-3.58 0-.175 1.089-1.45 2.419-2.833 5.58-5.803 10.384-12.31 17.625-23.875.751-1.201 1.552-2.183 1.778-2.183.226 0 1.217 1.462 2.202 3.25 3.676 6.673 9.11 14.165 16.133 22.243 1.484 1.707 2.698 3.235 2.698 3.394 0 .16-1.088 1.493-2.418 2.962-6.164 6.81-12.089 14.972-16.448 22.656-1.51 2.662-1.907 3.1-2.482 2.738zm-106.15-.695c-6.519-10.824-10.93-16.826-17.604-23.952-1.735-1.853-3.155-3.524-3.155-3.714 0-.19.93-1.338 2.068-2.553 5.89-6.29 10.754-12.836 17.2-23.152.944-1.51 1.848-2.84 2.01-2.957.669-.482.654-.502 3.66 4.835 3.111 5.525 8.99 13.533 14.724 20.059 1.596 1.817 2.903 3.539 2.903 3.825 0 .287-.995 1.595-2.21 2.907-5.934 6.402-11.4 13.892-16.448 22.534-1.745 2.988-2.386 3.43-3.147 2.166zm138.05-23.688c-1.868-2.848-4.897-6.696-6.175-7.845-.337-.302-.613-.734-.613-.96 0-.224.815-1.311 1.81-2.415.995-1.103 2.926-3.661 4.291-5.684 1.652-2.449 2.657-3.679 3.007-3.679.35 0 1.038.85 2.073 2.56 1.453 2.404 3.603 5.278 5.81 7.768.53.597.962 1.202.962 1.346 0 .143-.866 1.277-1.924 2.52-1.634 1.918-4.114 5.453-6.003 8.555-.266.437-.666.795-.89.795-.223 0-1.28-1.333-2.348-2.961zM55.74 93.804c-.258-.358-1.617-2.498-3.02-4.756-4.897-7.88-9.633-14.055-15.465-20.16-1.366-1.43-2.487-2.778-2.492-2.996-.005-.217 1.067-1.524 2.38-2.904 5.052-5.304 9.657-11.413 15.284-20.272 1.822-2.868 3.472-5.346 3.666-5.507.53-.438.881-.089 1.864 1.854 3.02 5.969 9.122 14.54 16.306 22.906 1.681 1.958 3.057 3.774 3.057 4.035 0 .262-1.16 1.733-2.579 3.269-5.55 6.01-11.75 14.498-15.655 21.425-1.596 2.832-2.247 3.755-2.646 3.755-.127 0-.442-.292-.7-.65zm105.19-.415c-.375-.606-1.52-2.467-2.542-4.135-4.757-7.757-9.527-14.016-15.105-19.822-2.227-2.318-3.09-3.405-2.926-3.688.128-.221 1.34-1.602 2.693-3.07 4.177-4.526 7.692-9.11 12.292-16.03 2.43-3.653 4.775-7.26 5.211-8.015.437-.755.9-1.438 1.03-1.518.503-.31 1.046.216 1.87 1.81 3.64 7.037 9.086 14.678 16.582 23.265 1.637 1.874 2.975 3.55 2.975 3.722 0 .173-.88 1.289-1.954 2.48-6.952 7.697-13.034 16.044-17.204 23.608-.7 1.27-1.49 2.35-1.756 2.402-.304.058-.736-.316-1.166-1.009zm-143.49-8.92c-1.493-2.507-4.069-5.998-5.97-8.093-1.05-1.156-1.91-2.238-1.91-2.403 0-.164.861-1.246 1.913-2.403 1.051-1.157 3.014-3.762 4.362-5.787 1.348-2.026 2.635-3.683 2.86-3.683.224 0 .627.357.895.794 2.164 3.53 3.755 5.792 5.68 8.072 1.234 1.463 2.244 2.809 2.244 2.99 0 .182-.987 1.504-2.192 2.938-1.976 2.349-2.976 3.758-5.44 7.666-.426.675-.972 1.227-1.215 1.227-.243 0-.795-.593-1.227-1.318zm1.442-26.373c-.255-.162-.35-.747-.29-1.801l.09-1.562 1.1-.09 1.1-.09-.087-1.643-.086-1.643-5.936-.145-5.936-.144-.087-1.654c-.047-.909.058-1.922.234-2.251 1.166-2.172 12.868-19.398 13.355-19.658.767-.41 2.46-.104 2.686.485.095.247.173 4.657.173 9.8v9.35l1.665.087 1.665.087v3.755l-1.59.145-1.589.144-.201 1.156c-.276 1.58-.059 2.166.8 2.166.505 0 .797.224 1.006.773.326.856.088 2.432-.417 2.761-.45.293-7.186.269-7.654-.027zm1.972-15.991c0-4.277-.057-4.914-.407-4.55-.474.494-6.253 9.158-6.253 9.376 0 .08 1.498.147 3.33.147h3.33v-4.973zM5.39 21.444c-.416-.414-.146-1.232.406-1.232.375 0 .579.193.579.547 0 .549-.661 1.008-.985.685zm205.32-.269c-.399-.398-.172-.963.386-.963.386 0 .579.193.579.578 0 .557-.567.783-.965.385z" fill="#f2d2d0"/><path d="M0 157.44V0h217.76v314.88H0V157.44zm211.88 155.77c1.56-.831 3.003-2.271 3.718-3.71.552-1.11.562-3.422.634-151.58l.073-150.45-.611-1.416c-.342-.794-1.221-1.987-1.997-2.71-2.59-2.418 7.892-2.207-105.55-2.124l-101.05.074-1.483.78c-1.61.847-2.676 1.954-3.67 3.808l-.638 1.19-.074 149.92c-.066 135.52-.03 150.07.381 151.48.57 1.958 2.835 4.345 4.768 5.027 1.172.414 10.9.452 102.79.407l101.49-.05 1.223-.652zM7.15 306.022c-.231-.23.03-.682.395-.682.15 0 .273.195.273.433 0 .447-.342.574-.668.249zm-3.096-3.014c0-.413.155-.57.503-.502.755.145.839 1.1.097 1.1-.415 0-.6-.185-.6-.598zm186.81-8.453c-.218-.261-.346-3.466-.398-9.894l-.076-9.508-1.44-.091c-1.833-.116-2.18-.42-2.18-1.91 0-1.58.378-1.9 2.244-1.9h1.548l-.086-1.805c-.08-1.678-.137-1.813-.81-1.907-.884-.124-1.15-.501-1.15-1.632 0-1.563.142-1.614 4.213-1.525l3.741.08V267.353l-1.085.09-1.086.09v3.72h5.733c4.073 0 5.834.101 6.08.348.192.19.348 1.003.348 1.806 0 1.421-.17 1.716-6.558 11.28-3.607 5.402-6.702 9.917-6.877 10.034-.523.348-1.817.25-2.161-.165zm7.178-13.858c1.78-2.671 3.31-5.043 3.398-5.272.134-.35-.431-.417-3.49-.417h-3.651v5.547c0 3.18.108 5.43.253 5.272.139-.151 1.71-2.46 3.49-5.13zm-144.61-3.286c-5.09-8.257-10.095-14.832-15.705-20.63-1.475-1.524-2.682-2.937-2.682-3.14 0-.202 1.133-1.555 2.518-3.005 4.953-5.188 10.925-13.301 17.236-23.413.752-1.205 1.494-2.19 1.65-2.19.155 0 .903 1.137 1.66 2.527 3.919 7.188 9.81 15.337 16.867 23.327 1.123 1.271 2.04 2.506 2.036 2.744-.003.239-.532 1.019-1.177 1.734-7.495 8.316-12.512 15.11-17.222 23.327-.991 1.729-1.88 2.958-2.136 2.954-.25 0-1.561-1.828-3.045-4.235zm107.35 2.92c-5.904-9.882-11.265-17.098-17.259-23.233-1.475-1.51-2.781-2.913-2.903-3.118-.146-.246.648-1.313 2.336-3.138 5.844-6.315 10.353-12.412 16.587-22.426 1.166-1.873 2.265-3.357 2.441-3.299.176.06 1.274 1.77 2.44 3.803 4.223 7.369 9.208 14.157 16.186 22.043 1.162 1.313 2.113 2.512 2.113 2.665 0 .153-.989 1.354-2.197 2.668-6.438 7.007-11.942 14.697-17.787 24.851-.484.843-1.127.575-1.958-.815zm33.385-22.294c-1.6-2.593-4.549-6.418-6.056-7.857-.574-.547-1.044-1.163-1.044-1.369 0-.205.66-1.1 1.467-1.99 1.742-1.918 4.333-5.412 5.846-7.881.597-.976 1.27-1.775 1.495-1.775.225 0 .876.834 1.447 1.854 1.134 2.022 3.64 5.478 5.767 7.95.744.865 1.352 1.67 1.352 1.79 0 .119-.664.972-1.477 1.895-1.896 2.154-4.558 5.839-5.752 7.96-.514.914-1.098 1.661-1.299 1.661-.2 0-.986-1.007-1.746-2.238zm-138.77-165c-5.77-9.692-11.486-17.398-17.75-23.935-1.429-1.491-2.598-2.87-2.598-3.064 0-.194 1.29-1.71 2.865-3.368 4.801-5.054 9.29-11.063 15.021-20.11 1.897-2.994 3.244-4.84 3.533-4.84.277 0 .779.635 1.234 1.561 2.882 5.864 9.436 15.033 16.779 23.476 1.405 1.616 2.554 3.13 2.554 3.366 0 .236-1.057 1.579-2.349 2.984-5.93 6.453-11.272 13.763-15.89 21.746-1.05 1.817-2.064 3.354-2.253 3.417-.189.063-.705-.493-1.146-1.234zm106.22.909c-.184-.22-1.542-2.338-3.02-4.705-5.053-8.099-9.43-13.839-14.803-19.413-1.841-1.91-3.347-3.555-3.347-3.657 0-.102 1.232-1.508 2.738-3.124 5.016-5.382 9.313-11.104 14.762-19.661 1.71-2.684 3.176-5.056 3.259-5.272.083-.216.383-.393.668-.393.358 0 1.067.995 2.316 3.25 3.916 7.069 9.102 14.142 16.89 23.036.903 1.032 1.643 1.975 1.643 2.096s-1.197 1.552-2.66 3.18c-5.79 6.442-11.888 14.8-15.71 21.537-1.872 3.297-2.242 3.72-2.736 3.127zm-143.41-8.777c-.235-.278-1.286-1.806-2.336-3.395-1.05-1.589-2.833-3.884-3.961-5.101-1.13-1.217-2.053-2.3-2.053-2.408 0-.108.861-1.192 1.914-2.41 1.052-1.217 2.97-3.806 4.261-5.752 1.292-1.947 2.503-3.54 2.692-3.54.19 0 .764.748 1.277 1.662 1.19 2.118 3.394 5.164 5.545 7.663.927 1.076 1.685 2.096 1.685 2.266 0 .17-.701 1.11-1.559 2.087-1.876 2.141-4.439 5.68-5.682 7.848-.5.872-1.01 1.585-1.133 1.585s-.415-.227-.65-.505zm.684-27.284c-.456-.456-.446-2.101.015-2.482.199-.164.753-.342 1.23-.396.852-.096.87-.134.955-1.903l.087-1.806H15.54c-3.1 0-5.843-.079-6.095-.175-.345-.133-.458-.591-.458-1.868v-1.693l6.4-9.615c3.52-5.288 6.606-9.777 6.86-9.976.585-.458 1.866-.466 2.319-.014.256.256.347 2.87.347 9.967v9.62h1.583c1.757 0 2.181.384 2.181 1.982 0 1.266-.668 1.773-2.337 1.773h-1.427v1.858c0 1.81.02 1.86.791 1.95 1.004.116 1.502 1.301 1.004 2.39-.332.729-.363.735-3.903.735-2.388 0-3.682-.115-3.915-.347zm2.193-15.758c.05-3.32-.027-5.272-.206-5.272-.31 0-6.967 9.958-6.967 10.423 0 .174 1.364.252 3.547.202l3.547-.081.079-5.272zM5.397 21.62c-.415-.415-.146-1.232.406-1.232.375 0 .58.192.58.547 0 .548-.662 1.008-.986.685zm205.32-.27c-.399-.397-.172-.962.386-.962.386 0 .58.192.58.577 0 .557-.567.783-.966.386z" fill="#d6d6d6"/><path d="M0 157.44V0h217.76v314.88H0V157.44zm209.57 156.89c.277-.145 1.09-.469 1.81-.72 1.793-.627 3.186-1.846 4.204-3.68l.86-1.548V6.802l-.654-1.22c-.887-1.654-2.471-3.18-4.087-3.932l-1.34-.625H7.382l-1.646.806c-1.864.913-3.224 2.313-4.115 4.235l-.61 1.314v300.44l.69 1.525c.91 2.007 3.038 3.908 5.187 4.634 1.618.546 3.667.558 101.92.594 59.857.022 100.47-.07 100.77-.227zm-18.714-19.766c-.217-.26-.346-3.465-.397-9.894l-.077-9.508-1.44-.091c-1.832-.116-2.18-.42-2.18-1.91 0-1.58.379-1.9 2.244-1.9h1.549l-.087-1.805c-.08-1.678-.137-1.812-.81-1.907-.883-.123-1.15-.5-1.15-1.631 0-1.563.142-1.614 4.213-1.526l3.742.08v2.89l-1.086.09-1.086.09v3.72h5.734c4.073 0 5.833.1 6.08.347.191.19.348 1.003.348 1.806 0 1.421-.171 1.716-6.559 11.281-3.607 5.402-6.701 9.917-6.877 10.033-.522.348-1.816.25-2.16-.165zm7.179-13.858c1.78-2.67 3.31-5.043 3.397-5.272.134-.349-.43-.416-3.49-.416h-3.65v5.546c0 3.18.107 5.43.252 5.272.14-.15 1.71-2.46 3.49-5.13zm-144.61-3.285c-5.09-8.258-10.095-14.832-15.705-20.63-1.476-1.525-2.682-2.938-2.682-3.14 0-.203 1.133-1.555 2.518-3.006 4.952-5.188 10.925-13.301 17.236-23.413.751-1.205 1.494-2.19 1.65-2.19.155 0 .902 1.137 1.66 2.527 3.918 7.189 9.81 15.337 16.867 23.327 1.123 1.271 2.039 2.506 2.036 2.745-.003.238-.533 1.018-1.177 1.733-7.495 8.316-12.512 15.11-17.222 23.327-.991 1.729-1.88 2.958-2.136 2.954-.25 0-1.562-1.827-3.045-4.234zm107.35 2.92c-5.904-9.882-11.265-17.1-17.26-23.234-1.474-1.51-2.78-2.912-2.903-3.118-.146-.246.649-1.313 2.337-3.138 5.843-6.315 10.353-12.412 16.587-22.426 1.166-1.873 2.264-3.357 2.44-3.298.177.059 1.275 1.77 2.44 3.803 4.224 7.368 9.209 14.157 16.187 22.043 1.162 1.313 2.112 2.512 2.112 2.664 0 .153-.988 1.354-2.196 2.669-6.438 7.007-11.942 14.697-17.787 24.85-.485.843-1.128.575-1.958-.815zm33.385-22.295c-1.6-2.593-4.55-6.418-6.057-7.856-.574-.548-1.043-1.164-1.043-1.37 0-.205.66-1.1 1.467-1.99 1.741-1.917 4.333-5.412 5.845-7.881.598-.976 1.27-1.774 1.495-1.774.225 0 .876.834 1.448 1.853 1.133 2.022 3.64 5.479 5.767 7.951.743.864 1.351 1.67 1.351 1.789 0 .12-.664.972-1.476 1.895-1.896 2.155-4.558 5.84-5.752 7.96-.514.914-1.099 1.662-1.3 1.662-.2 0-.986-1.008-1.746-2.24zm-138.77-165c-5.771-9.691-11.486-17.398-17.75-23.935-1.43-1.491-2.598-2.87-2.598-3.063 0-.194 1.29-1.71 2.865-3.37 4.8-5.053 9.289-11.062 15.021-20.11 1.896-2.993 3.244-4.838 3.532-4.838.278 0 .78.634 1.234 1.56 2.883 5.864 9.436 15.033 16.78 23.476 1.404 1.616 2.554 3.13 2.554 3.366 0 .236-1.057 1.579-2.35 2.985-5.93 6.453-11.271 13.763-15.89 21.746-1.05 1.816-2.064 3.353-2.253 3.416-.188.063-.704-.492-1.146-1.234zm106.22.91c-.184-.222-1.543-2.339-3.02-4.706-5.054-8.099-9.431-13.839-14.804-19.413-1.84-1.91-3.347-3.555-3.347-3.657 0-.102 1.233-1.508 2.739-3.124 5.016-5.381 9.312-11.104 14.762-19.66 1.709-2.684 3.175-5.057 3.258-5.273.083-.216.384-.393.668-.393.358 0 1.068.995 2.317 3.25 3.915 7.07 9.101 14.142 16.89 23.036.903 1.032 1.642 1.975 1.642 2.096s-1.197 1.552-2.66 3.18c-5.79 6.442-11.888 14.801-15.71 21.537-1.871 3.297-2.242 3.721-2.735 3.128zM18.2 85.177c-.235-.278-1.286-1.806-2.336-3.394-1.05-1.59-2.833-3.885-3.962-5.102-1.129-1.217-2.052-2.3-2.052-2.408 0-.108.86-1.192 1.913-2.41 1.053-1.217 2.97-3.806 4.262-5.752 1.291-1.946 2.502-3.539 2.692-3.539.189 0 .763.748 1.277 1.661 1.19 2.118 3.394 5.164 5.545 7.663.926 1.077 1.684 2.096 1.684 2.267 0 .17-.7 1.109-1.558 2.087-1.877 2.14-4.44 5.68-5.683 7.848-.5.871-1.01 1.584-1.132 1.584-.123 0-.416-.227-.65-.505zm.684-27.284c-.456-.455-.447-2.101.014-2.481.2-.165.753-.343 1.231-.397.851-.096.87-.134.955-1.903l.086-1.806h-5.637c-3.1 0-5.842-.079-6.094-.175-.346-.132-.458-.591-.458-1.868V47.57l6.4-9.615c3.519-5.288 6.606-9.777 6.86-9.975.584-.459 1.865-.467 2.318-.014.256.255.348 2.87.348 9.966v9.62h1.582c1.758 0 2.182.385 2.182 1.982 0 1.266-.668 1.773-2.337 1.773h-1.427v1.858c0 1.81.02 1.861.79 1.95 1.005.116 1.503 1.302 1.005 2.391-.333.728-.363.734-3.903.734-2.389 0-3.683-.115-3.915-.347zm2.193-15.758c.05-3.32-.027-5.272-.207-5.272-.31 0-6.967 9.958-6.967 10.423 0 .174 1.365.252 3.548.202l3.547-.08.079-5.273zm-15.57-21.16a.29.29 0 0 1 .579 0 .29.29 0 0 1-.58 0z" fill="#eab0af"/><path d="M0 157.44V0h217.76v314.88H0V157.44zm209.57 156.89c.277-.145 1.09-.469 1.81-.72 1.793-.627 3.186-1.846 4.204-3.68l.86-1.548V6.802l-.654-1.22c-.887-1.654-2.471-3.18-4.087-3.932l-1.34-.625H7.382l-1.646.806c-1.864.913-3.224 2.313-4.115 4.235l-.61 1.314v300.44l.69 1.525c.91 2.007 3.038 3.908 5.187 4.634 1.618.546 3.667.558 101.92.594 59.857.022 100.47-.07 100.77-.227zm-18.816-19.741c-.035-.04-.132-4.492-.217-9.894l-.155-9.822-1.665-.087-1.665-.087v-3.149h1.583c1.887 0 2.26-.443 2.125-2.52-.082-1.249-.156-1.363-1.03-1.587-.88-.227-.94-.323-.94-1.503 0-.883.137-1.313.458-1.436.252-.096 1.79-.176 3.42-.176 3.464 0 4.034.253 3.89 1.722-.084.863-.227 1.011-1.253 1.295-1.148.318-1.16.335-1.247 1.853-.05.882.057 1.707.253 1.943.273.328 1.477.41 6.074.41h5.732l.191.866c.105.477.1 1.277-.01 1.779-.11.501-3.135 5.311-6.722 10.688l-6.522 9.776h-1.119c-.615 0-1.146-.033-1.18-.072zm7.566-14.021c1.937-2.905 3.444-5.408 3.349-5.56-.259-.419-6.894-.357-7.32.067-.378.378-.517 10.653-.15 11.021.27.268.15.429 4.12-5.528zm-143.9-1.855c-5.693-9.28-9.86-14.835-16.261-21.681l-3.177-3.397 2.094-2.236c5.91-6.31 10.348-12.282 17.428-23.448.914-1.441 1.783-2.62 1.931-2.62.148 0 .887 1.129 1.641 2.51 3.884 7.108 9.236 14.522 16.31 22.595 1.45 1.654 2.635 3.128 2.635 3.275 0 .147-.76 1.07-1.688 2.049-5.916 6.242-12.059 14.569-16.816 22.794-.935 1.617-1.83 2.984-1.987 3.036-.158.052-1.107-1.243-2.11-2.878zm107.18 2.545c-.188-.226-1.436-2.184-2.774-4.351-4.827-7.822-9.747-14.286-14.987-19.687-1.712-1.766-3.113-3.36-3.113-3.545 0-.184 1.302-1.712 2.894-3.397 4.812-5.092 9.666-11.628 15.258-20.542 1.52-2.423 2.928-4.405 3.13-4.405.2 0 .526.385.721.857.63 1.517 4.714 8.165 7.077 11.519 2.568 3.645 6.238 8.263 10.063 12.66 1.405 1.616 2.55 3.111 2.545 3.323-.005.211-1.133 1.619-2.507 3.128-6.023 6.62-12.225 15.187-16.148 22.308-1.265 2.298-1.68 2.708-2.159 2.132zm32.032-24.223c-1.05-1.629-2.895-4.097-4.098-5.486-1.203-1.388-2.188-2.661-2.188-2.828 0-.168.857-1.285 1.904-2.483 1.047-1.198 2.883-3.662 4.078-5.476 1.196-1.814 2.326-3.297 2.512-3.296.186 0 1.075 1.204 1.976 2.672.902 1.468 2.693 3.936 3.982 5.483 1.288 1.547 2.342 2.952 2.342 3.122 0 .17-.895 1.375-1.989 2.676-2 2.38-4.468 5.895-5.362 7.638-.265.516-.654.939-.865.939-.21 0-1.242-1.333-2.292-2.961zM55.382 92.585c-5.763-9.677-11.125-16.914-17.155-23.153-1.561-1.615-2.924-3.074-3.028-3.243-.105-.169.775-1.337 1.956-2.597 6.074-6.48 10.653-12.672 17.633-23.846.752-1.203 1.5-2.188 1.66-2.188.162 0 .685.771 1.162 1.714 3.098 6.124 9.072 14.527 16.198 22.786 1.687 1.955 3.108 3.669 3.157 3.807.05.139-.787 1.203-1.86 2.366-6.09 6.607-11.345 13.726-16.046 21.74-1.206 2.054-2.346 3.787-2.533 3.849-.188.062-.703-.493-1.144-1.234zm104.62-1.516c-5.662-9.284-10.556-15.8-16.481-21.94-1.568-1.624-2.806-3.079-2.751-3.232.055-.153 1.507-1.83 3.226-3.725 5.221-5.755 10.213-12.581 15.84-21.661 1.012-1.632 1.977-2.922 2.145-2.867.168.056 1.133 1.587 2.146 3.402 3.725 6.68 8.458 13.17 15.612 21.413 1.475 1.7 2.681 3.26 2.679 3.466-.002.207-.947 1.417-2.1 2.689-6.598 7.286-12.135 14.91-16.726 23.036-.696 1.231-1.402 2.238-1.57 2.236-.167 0-1.076-1.269-2.02-2.816zm-142.64-7.451c-1.189-2.073-3.83-5.611-5.732-7.68-.824-.896-1.498-1.786-1.498-1.978 0-.192.798-1.214 1.773-2.27.975-1.058 2.828-3.515 4.117-5.461 1.289-1.947 2.498-3.54 2.687-3.54.19 0 .732.683 1.205 1.517 1.126 1.98 3.79 5.666 5.586 7.726.784.9 1.424 1.82 1.422 2.046-.002.226-.729 1.256-1.614 2.289-1.809 2.109-4.265 5.52-5.46 7.583-.437.755-.969 1.372-1.18 1.372-.213 0-.8-.722-1.307-1.604zm1.658-26.023c-.11-.11-.201-.685-.201-1.278 0-1.14.326-1.427 1.629-1.427.696 0 .711-.047.628-1.95l-.086-1.95-5.936-.144-5.936-.144-.085-1.465-.086-1.464 6.279-9.513c3.453-5.232 6.476-9.74 6.718-10.018.276-.317.852-.506 1.549-.506h1.11l.075 9.75.076 9.75 1.514.151c.832.083 1.654.294 1.828.467.173.173.274.884.224 1.581l-.09 1.267-1.738.144-1.738.145-.086 1.81c-.073 1.533-.007 1.833.434 1.97 1.18.366 1.39.63 1.39 1.74v1.124l-3.636.08c-2 .044-3.726-.01-3.836-.12zm2.115-15.848c0-3.098-.063-5.633-.14-5.633-.17 0-7.063 10.26-7.29 10.85-.135.349.454.416 3.635.416h3.795v-5.633zM5.499 20.803a.29.29 0 0 1 .58 0 .29.29 0 0 1-.58 0z" fill="#b4b4b4"/><path d="M0 157.44V0h217.76v314.88H0V157.44zm211.67 156.25c1.909-.904 3.489-2.434 4.398-4.26l.67-1.34V7.37l-.692-1.526c-.85-1.875-3.015-3.886-4.864-4.514-1.227-.417-10.76-.46-102.6-.46H7.332l-1.772.883c-2.009 1.002-3.034 2.075-4.014 4.2L.868 7.425l.073 150.48.073 150.48.721 1.409c.949 1.852 2.84 3.476 4.875 4.185 1.627.567 2.63.572 102.56.522l100.91-.05 1.592-.754zm-20.911-19.105c-.035-.04-.132-4.492-.217-9.894l-.155-9.822-1.665-.087-1.665-.087v-3.149h1.583c1.887 0 2.26-.443 2.125-2.52-.082-1.249-.156-1.363-1.03-1.587-.88-.227-.94-.323-.94-1.503 0-.883.137-1.313.458-1.436.252-.096 1.79-.176 3.42-.176 3.464 0 4.034.253 3.89 1.722-.084.863-.227 1.011-1.253 1.295-1.148.318-1.16.335-1.247 1.853-.05.882.057 1.707.253 1.942.273.33 1.477.41 6.074.41h5.732l.191.867c.105.477.1 1.277-.01 1.779-.11.501-3.135 5.311-6.722 10.688l-6.522 9.776h-1.119c-.615 0-1.146-.033-1.18-.072zm7.566-14.021c1.937-2.905 3.444-5.408 3.349-5.56-.259-.419-6.894-.357-7.32.067-.378.377-.517 10.653-.15 11.021.27.268.15.429 4.12-5.528zm-143.9-1.855c-5.693-9.28-9.86-14.835-16.261-21.681l-3.177-3.397 2.094-2.236c5.91-6.31 10.348-12.282 17.428-23.448.914-1.441 1.783-2.62 1.931-2.62.148 0 .887 1.129 1.641 2.51 3.884 7.108 9.236 14.522 16.31 22.595 1.45 1.654 2.635 3.128 2.635 3.275 0 .147-.76 1.07-1.688 2.049-5.916 6.242-12.059 14.569-16.816 22.794-.935 1.617-1.83 2.984-1.987 3.036-.158.052-1.107-1.243-2.11-2.878zm107.18 2.545c-.188-.226-1.436-2.184-2.774-4.351-4.827-7.822-9.747-14.286-14.987-19.687-1.712-1.766-3.113-3.36-3.113-3.545 0-.184 1.302-1.712 2.894-3.397 4.812-5.092 9.666-11.628 15.258-20.542 1.52-2.423 2.928-4.405 3.13-4.405.2 0 .526.385.721.857.63 1.517 4.714 8.165 7.077 11.519 2.568 3.645 6.238 8.263 10.063 12.66 1.405 1.616 2.55 3.111 2.545 3.323-.005.211-1.133 1.619-2.507 3.128-6.023 6.62-12.225 15.187-16.148 22.308-1.265 2.298-1.68 2.708-2.159 2.132zm32.032-24.223c-1.05-1.629-2.895-4.097-4.098-5.486-1.203-1.388-2.188-2.661-2.188-2.828 0-.168.857-1.285 1.904-2.483 1.047-1.198 2.883-3.662 4.078-5.476 1.196-1.814 2.326-3.297 2.512-3.296.186 0 1.075 1.204 1.976 2.672.902 1.468 2.693 3.936 3.982 5.483 1.288 1.547 2.342 2.952 2.342 3.122 0 .17-.895 1.374-1.989 2.676-2 2.38-4.468 5.895-5.362 7.638-.265.516-.654.939-.865.939-.21 0-1.242-1.333-2.292-2.961zM55.387 92.58c-5.763-9.677-11.125-16.914-17.155-23.153-1.561-1.615-2.924-3.074-3.028-3.243-.105-.169.775-1.337 1.956-2.597 6.074-6.48 10.653-12.672 17.633-23.846.752-1.203 1.5-2.188 1.66-2.188.162 0 .685.771 1.162 1.714 3.098 6.124 9.072 14.527 16.198 22.786 1.687 1.955 3.108 3.669 3.157 3.807.05.139-.787 1.203-1.86 2.366-6.09 6.607-11.345 13.726-16.046 21.74-1.206 2.054-2.346 3.787-2.533 3.849-.188.062-.703-.493-1.144-1.234zm104.62-1.516c-5.662-9.284-10.556-15.8-16.481-21.94-1.568-1.624-2.806-3.079-2.751-3.232.055-.153 1.507-1.83 3.226-3.725 5.221-5.755 10.213-12.581 15.84-21.661 1.012-1.632 1.977-2.922 2.145-2.867.168.056 1.133 1.587 2.146 3.402 3.725 6.68 8.458 13.17 15.612 21.413 1.475 1.7 2.681 3.26 2.679 3.466-.002.207-.947 1.417-2.1 2.689-6.598 7.286-12.135 14.91-16.726 23.036-.696 1.231-1.402 2.237-1.57 2.236-.167 0-1.076-1.269-2.02-2.817zm-142.64-7.451c-1.189-2.073-3.83-5.611-5.732-7.68-.824-.896-1.498-1.786-1.498-1.978 0-.192.798-1.214 1.773-2.27.975-1.058 2.828-3.515 4.117-5.461 1.289-1.947 2.498-3.54 2.687-3.54.19 0 .732.683 1.205 1.517 1.126 1.98 3.79 5.666 5.586 7.726.784.9 1.424 1.82 1.422 2.046-.002.226-.729 1.256-1.614 2.289-1.809 2.109-4.265 5.52-5.46 7.583-.437.755-.969 1.372-1.18 1.372-.213 0-.8-.722-1.307-1.604zm1.658-26.023c-.11-.11-.201-.685-.201-1.278 0-1.14.326-1.427 1.629-1.427.696 0 .711-.047.628-1.95l-.086-1.95-5.936-.144-5.936-.144-.085-1.465-.086-1.464 6.279-9.513c3.453-5.232 6.476-9.74 6.718-10.018.276-.317.852-.506 1.549-.506h1.11l.075 9.75.076 9.75 1.514.151c.832.083 1.654.294 1.828.467.173.173.274.884.224 1.581l-.09 1.267-1.738.144-1.738.145-.086 1.81c-.073 1.533-.007 1.833.434 1.97 1.18.366 1.39.63 1.39 1.74v1.124l-3.636.08c-2 .044-3.726-.01-3.836-.12zm2.115-15.848c0-3.098-.063-5.633-.14-5.633-.17 0-7.063 10.26-7.29 10.85-.135.349.454.416 3.635.416h3.795v-5.633z" fill="#e49090"/><path d="M0 157.44V0h217.76v314.88H0V157.44zm211.67 156.25c1.909-.904 3.489-2.434 4.398-4.26l.67-1.34V7.37l-.692-1.526c-.85-1.875-3.015-3.886-4.864-4.514-1.227-.417-10.76-.46-102.6-.46H7.332l-1.772.883c-2.009 1.002-3.034 2.075-4.014 4.2L.868 7.425l.073 150.48.073 150.48.721 1.409c.949 1.852 2.84 3.476 4.875 4.185 1.627.567 2.63.572 102.56.522l100.91-.05 1.592-.754zm-20.705-19.376c-.078-.209-.175-4.67-.215-9.912l-.073-9.533-1.738-.145-1.737-.144V271.69l1.737-.144 1.738-.145v-2.02c0-2.017 0-2.019-.869-2.169-.795-.137-.869-.247-.869-1.302v-1.153l3.71-.081 3.708-.081-.09 1.237c-.084 1.17-.142 1.244-1.102 1.38l-1.014.145v4.044l5.936.145 5.936.144.076 1.589.075 1.589-6.59 9.821c-6.229 9.283-6.643 9.827-7.534 9.913-.584.056-.997-.054-1.085-.289zm7.134-13.292c1.936-2.891 3.583-5.495 3.66-5.786.13-.497-.101-.525-3.735-.449l-3.873.081-.078 5.706c-.05 3.691.024 5.705.213 5.705.16 0 1.876-2.366 3.813-5.257zm-142.3-.286c-4.01-6.403-5.281-8.373-7.094-10.984a102.016 102.016 0 0 0-10.21-12.475c-1.74-1.806-3.164-3.445-3.164-3.643 0-.197 1.14-1.549 2.534-3.004 4.775-4.988 9.721-11.584 15.13-20.18 1.672-2.658 3.197-4.833 3.388-4.834.192 0 .837.876 1.434 1.949 4.329 7.777 9.127 14.442 16.505 22.93 1.33 1.53 2.417 2.93 2.417 3.112 0 .18-1.508 2.049-3.35 4.15-5.833 6.652-10.47 13.067-14.689 20.313-.996 1.71-1.962 3.16-2.147 3.222-.184.061-.524-.189-.753-.556zm104.17-2.185c-5.188-8.673-10.4-15.555-17.17-22.665l-2.132-2.24 2.108-2.244c5.648-6.013 10.896-13.064 16.778-22.544 1.012-1.632 2-3.099 2.194-3.26.262-.217.82.544 2.172 2.968 3.626 6.497 8.883 13.766 15.398 21.292 1.712 1.978 3.113 3.701 3.113 3.83 0 .128-.997 1.306-2.216 2.618-5.793 6.237-12.696 15.768-16.752 23.129-.586 1.063-1.232 1.933-1.437 1.933-.205 0-1.13-1.267-2.057-2.816zm35.434-19.073c-.234-.274-.855-1.213-1.38-2.087-1.185-1.972-4.234-5.878-5.627-7.207-.574-.547-1.043-1.139-1.043-1.314 0-.175.63-1.027 1.398-1.893 1.733-1.95 4.218-5.323 5.69-7.722.612-.998 1.245-1.77 1.407-1.716.163.054.935 1.126 1.716 2.382 1.22 1.96 2.938 4.252 5.979 7.974.802.982 1.105.392-2.344 4.565-1.065 1.287-2.616 3.448-3.449 4.803-.832 1.354-1.605 2.518-1.718 2.588-.113.069-.396-.098-.63-.373zm-140.49-167.7c-4.76-8.19-10.971-16.494-17.035-22.772-1.397-1.445-2.54-2.73-2.54-2.856 0-.125.88-1.197 1.955-2.381 6.518-7.182 11.602-14.063 17.301-23.414.796-1.306 1.591-2.375 1.767-2.375.177 0 1.22 1.584 2.318 3.52 3.601 6.35 8.897 13.647 15.025 20.702 1.673 1.927 3.043 3.68 3.043 3.894 0 .215-.88 1.357-1.955 2.539-6.568 7.22-11.86 14.434-16.143 22.009-.994 1.757-1.923 3.073-2.172 3.075-.238 0-.942-.872-1.564-1.941zm105.21-.572c-5.339-8.879-10.582-15.869-16.307-21.738-1.473-1.51-2.776-2.91-2.896-3.112-.142-.24.661-1.297 2.301-3.033 4.917-5.201 9.6-11.438 15.178-20.215 1.793-2.82 3.408-5.127 3.589-5.127.18.001 1.045 1.326 1.92 2.946 3.65 6.747 8.05 12.723 17.776 24.139.976 1.146 1.27.6-2.799 5.194-5.493 6.203-11.213 14.146-14.979 20.802-.83 1.47-1.68 2.672-1.888 2.672-.207 0-1.06-1.137-1.896-2.528zm-143.7-9.1c-1.187-1.787-3.084-4.26-4.216-5.494-1.132-1.234-2.058-2.311-2.058-2.393 0-.082.86-1.152 1.912-2.378 1.052-1.225 2.892-3.693 4.09-5.483 1.197-1.79 2.285-3.322 2.418-3.403.133-.082.466.212.74.654 1.834 2.956 3.863 5.8 5.61 7.863 1.113 1.316 2.025 2.553 2.025 2.75 0 .196-.277.604-.616.907-.995.89-4.105 4.972-5.865 7.7-.897 1.39-1.687 2.527-1.757 2.527-.07 0-1.097-1.462-2.283-3.25zm2.53-24.593c-.088-.23-.118-.787-.066-1.237.078-.684.245-.833 1.013-.908 1.299-.125 1.585-.62 1.485-2.558l-.088-1.686-5.936-.144-5.936-.145-.086-1.64-.086-1.642 6.585-9.856 6.586-9.856 1.029.086 1.03.086.144 9.822.145 9.822 1.586.09c1.74.098 2.022.332 2.03 1.68.005 1.178-.425 1.496-2.176 1.606l-1.44.091v2.02c0 2.017 0 2.019.869 2.169.795.137.868.248.868 1.303v1.152l-3.697.081c-3.012.066-3.728 0-3.859-.336zm2.17-10.11c.438-.525.314-10.917-.13-11.064-.358-.119-7.687 10.895-7.477 11.234.078.126 1.747.23 3.709.23 2.68 0 3.65-.1 3.899-.4z" fill="#e17d81"/><path d="M0 157.44V0h217.76v314.88H0V157.44zm211.67 156.25c1.909-.904 3.489-2.434 4.398-4.26l.67-1.34V7.37l-.692-1.526c-.85-1.875-3.015-3.886-4.864-4.514-1.227-.417-10.76-.46-102.6-.46H7.332l-1.772.883c-2.009 1.002-3.034 2.075-4.014 4.2L.868 7.425l.073 150.48.073 150.48.721 1.409c.949 1.852 2.84 3.476 4.875 4.185 1.627.567 2.63.572 102.56.522l100.91-.05 1.592-.754zm-20.705-19.376c-.078-.209-.175-4.67-.215-9.912l-.073-9.533-1.738-.145-1.737-.144-.088-1.363c-.097-1.512-.006-1.578 2.404-1.738l1.159-.077v-2.02c0-2.017-.001-2.019-.87-2.169-.794-.137-.868-.247-.868-1.302v-1.153h7.24v1.156c0 1.1-.05 1.162-1.014 1.3l-1.014.144-.085 2.094-.085 2.095h5.732c3.152 0 5.911.118 6.131.257.292.184.362.673.256 1.801-.135 1.447-.57 2.182-6.626 11.225-6.125 9.146-6.533 9.682-7.424 9.768-.584.056-.997-.054-1.085-.289zm7.366-13.515c2.074-3.094 3.666-5.73 3.537-5.859-.13-.128-1.918-.197-3.976-.152l-3.74.08-.079 5.876c-.05 3.738.025 5.84.205 5.778.155-.054 1.98-2.63 4.053-5.723zm-144.49-3.3c-6.122-9.743-9.937-14.75-15.94-20.916-1.417-1.455-2.575-2.732-2.575-2.84 0-.106 1.636-2.027 3.636-4.267 4.98-5.581 8.519-10.34 13.49-18.145a899.97 899.97 0 0 1 2.494-3.9c.2-.307.516-.855.703-1.219.532-1.037 1.05-.661 2.31 1.673 1.207 2.237 4.57 7.682 5.533 8.955.3.397 1.508 2.022 2.684 3.61 2.802 3.786 4.622 6.05 7.879 9.807 1.473 1.698 2.678 3.229 2.678 3.402 0 .172-1.017 1.43-2.26 2.796-6.853 7.527-12.297 15.116-17.2 23.98-.271.49-.613.892-.76.892-.147 0-1.35-1.722-2.672-3.827zm106.42 1.444c-4.792-8.204-11.196-16.687-17.325-22.952l-2.317-2.369 2.15-2.255c5.764-6.04 10.475-12.422 17.55-23.772.645-1.032 1.35-1.877 1.57-1.877.22 0 1.248 1.502 2.285 3.338 3.27 5.79 7.343 11.586 12.144 17.284 1.524 1.81 3.534 4.193 4.465 5.298l1.694 2.01-.707.767c-5.42 5.889-9.397 10.935-13.466 17.088-1.313 1.987-2.56 3.872-2.772 4.19-.21.318-1.026 1.715-1.81 3.104-.785 1.389-1.572 2.526-1.748 2.527-.176 0-.947-1.07-1.713-2.381zm33.357-22.24c-1.191-1.79-3.098-4.319-4.237-5.621l-2.07-2.369 2.03-2.398c1.117-1.319 2.98-3.856 4.142-5.638 1.161-1.782 2.215-3.244 2.342-3.25.127-.01.453.4.724.902.97 1.794 3.647 5.62 5.224 7.466a542.318 542.318 0 0 1 2.012 2.365c.365.435.149.805-2.009 3.44-2.327 2.843-3.623 4.695-4.865 6.958-.322.585-.706 1.138-.855 1.23-.149.092-1.246-1.297-2.437-3.086zm-138.09-164.2c-.398-.596-1.36-2.123-2.138-3.393-1.706-2.786-6.001-9.16-7.206-10.693-3.291-4.192-4.72-5.853-7.601-8.834-1.792-1.854-3.258-3.47-3.258-3.593 0-.123 1.148-1.47 2.55-2.996 4.358-4.74 9.091-10.804 12.084-15.484l2.588-4.044c.51-.795 1.332-2.095 1.83-2.89 1.352-2.162 1.796-2.743 2.096-2.743.15 0 .669.784 1.154 1.743 2.563 5.066 10.062 15.826 14.298 20.517 2.764 3.06 4.39 4.99 4.632 5.496.21.437-.123.964-1.737 2.752-6.679 7.402-11.624 14.141-16.457 22.428-.904 1.55-1.748 2.817-1.876 2.817-.129 0-.56-.488-.958-1.084zm105.3-.29c-4.592-7.847-9.61-14.806-15.1-20.942-1.813-2.025-3.546-3.815-3.851-3.978-.306-.163-.693-.551-.86-.862-.26-.487.06-.952 2.341-3.387 5.594-5.974 11.67-14.254 17.183-23.42.602-1.001 1.243-1.771 1.423-1.71.181.06 1.445 2.048 2.808 4.419 3.846 6.684 8.376 12.807 15.714 21.234 2.15 2.469 2.171 2.602.625 4.019-.433.397-2.378 2.607-4.32 4.91-5.086 6.031-9.49 12.328-13.181 18.85-.698 1.231-1.428 2.239-1.623 2.239-.195 0-.717-.618-1.158-1.372zm-143.15-8.377c-.886-1.656-4.011-5.888-5.906-7.997l-1.696-1.887 1.291-1.433c1.54-1.71 4.171-5.231 5.827-7.802.658-1.022 1.322-1.851 1.475-1.842.153.01.813.892 1.467 1.963 1.439 2.357 4.07 5.907 5.642 7.612.636.689 1.155 1.387 1.155 1.55 0 .164-.7 1.054-1.558 1.977-1.632 1.758-4.17 5.238-5.52 7.57-.437.755-.975 1.372-1.196 1.372-.22 0-.662-.487-.98-1.083zm1.295-26.355c-.097-.156-.09-.741.015-1.3.174-.923.28-1.016 1.167-1.016 1.143 0 1.366-.503 1.222-2.763l-.09-1.426-5.936-.16c-3.265-.087-5.969-.184-6.009-.216-.04-.03-.072-.747-.072-1.59 0-1.516.077-1.65 6.325-11.05 3.479-5.234 6.533-9.688 6.787-9.898.254-.21.829-.34 1.276-.29l.814.094.145 9.822.145 9.821 1.665.087 1.665.087v1.4c0 1.591-.2 1.75-2.209 1.75h-1.292l.086 2.094c.083 2.045.103 2.096.88 2.185.873.1 1.286.995.949 2.055-.18.563-.404.598-3.774.598-2.035 0-3.659-.123-3.759-.284zm2.111-10.173c.407-.405.505-11.077.105-11.324-.296-.182-.945.697-4.843 6.56-1.67 2.51-2.96 4.688-2.867 4.838.256.414 7.183.347 7.605-.074z" fill="#de817c"/><path d="M0 157.44V0h217.76v314.88H0V157.44zm211.67 156.25c1.909-.904 3.489-2.434 4.398-4.26l.67-1.34V7.37l-.692-1.526c-.85-1.875-3.015-3.886-4.864-4.514-1.227-.417-10.76-.46-102.6-.46H7.332l-1.772.883c-2.009 1.002-3.034 2.075-4.014 4.2L.868 7.425l.073 150.48.073 150.48.721 1.409c.949 1.852 2.84 3.476 4.875 4.185 1.627.567 2.63.572 102.56.522l100.91-.05 1.592-.754zm-20.482-19.269c-.27-.171-.377-2.6-.434-9.89l-.077-9.662-1.737-.145-1.738-.144-.087-1.363c-.098-1.512-.006-1.578 2.404-1.738l1.158-.077v-2.02c0-2.017 0-2.019-.869-2.169-.794-.137-.868-.247-.868-1.302v-1.153H196.179v1.156c0 1.1-.049 1.162-1.014 1.3l-1.013.144-.085 2.094-.085 2.095h5.635c3.1 0 5.842.079 6.093.175.331.127.459.566.459 1.58 0 1.35-.258 1.79-6.658 11.38-6.86 10.278-7.076 10.53-8.323 9.74zm7.157-13.622c2.067-3.093 3.652-5.73 3.523-5.858-.129-.13-1.918-.198-3.975-.153l-3.741.08-.079 5.877c-.052 3.914.021 5.843.219 5.777.163-.054 1.987-2.63 4.053-5.723zm-144.75-3.691c-5.198-8.33-10.049-14.702-15.657-20.565-1.434-1.5-2.604-2.8-2.598-2.889.005-.089 1.384-1.657 3.066-3.484 5.074-5.514 10.446-12.845 16.389-22.365.752-1.204 1.499-2.19 1.66-2.19.161 0 .639.683 1.061 1.517 3.164 6.243 9.357 14.93 16.378 22.973 1.564 1.792 2.843 3.396 2.843 3.565 0 .17-.923 1.304-2.052 2.52-6.013 6.48-12.195 15.05-17.172 23.807-.428.754-.887 1.372-1.02 1.372-.13 0-1.435-1.917-2.898-4.261zm107.4 3.033c-1.485-2.651-5.704-9.113-8.037-12.308-3.063-4.195-5.812-7.472-9.262-11.044-1.473-1.525-2.679-2.962-2.679-3.193 0-.23.534-.933 1.186-1.561 4.793-4.614 12.582-15.077 18.336-24.627.603-1.001 1.244-1.771 1.423-1.711.18.06 1.142 1.562 2.137 3.34 3.824 6.825 9.473 14.464 17.122 23.156.49.557.895 1.206.902 1.445.006.238-1.165 1.733-2.603 3.322-5.861 6.475-12.331 15.492-16.221 22.605-.544.993-1.13 1.805-1.302 1.805-.173 0-.624-.552-1.002-1.227zm32.65-23.399c-1.063-1.629-2.921-4.09-4.129-5.471l-2.195-2.51 2.26-2.69c1.242-1.48 3.075-3.951 4.072-5.493.998-1.542 1.922-2.87 2.053-2.95.131-.082.99 1.063 1.907 2.543.918 1.48 2.693 3.912 3.945 5.406 1.252 1.493 2.28 2.913 2.285 3.154.005.24-.554 1.086-1.241 1.877-2.034 2.342-4.036 5.063-5.256 7.145-.629 1.073-1.283 1.95-1.455 1.95-.171 0-1.182-1.332-2.246-2.961zm-139.88-167.1c-5.344-8.606-9.878-14.593-15.183-20.048-1.793-1.844-3.26-3.447-3.26-3.562 0-.115 1.163-1.466 2.585-3.002 5.228-5.646 9.087-10.788 14.824-19.753 1.852-2.893 3.507-5.307 3.678-5.364.172-.057.707.676 1.189 1.63 3.382 6.685 10.972 17.164 17.747 24.504.76.824 1.384 1.638 1.384 1.809 0 .17-1.378 1.853-3.062 3.739-5.623 6.299-10.516 13.033-14.876 20.472-1.085 1.851-2.103 3.41-2.262 3.463-.16.053-1.403-1.697-2.764-3.888zm107.39 3.02c-1.813-3.126-5.226-8.383-7.548-11.626-3.185-4.45-5.482-7.235-9.571-11.604-1.661-1.775-3.02-3.405-3.02-3.622 0-.218.663-1.04 1.473-1.83 4.757-4.629 11.056-13.04 17.355-23.17 1.013-1.629 1.944-2.961 2.069-2.961.264 0 .359.152 2.977 4.766 3.24 5.71 8.06 12.261 14.735 20.024l2.81 3.27-.657.806c-.362.444-1.765 2.039-3.119 3.544-5.044 5.608-11.1 14.035-14.757 20.532-.87 1.546-1.721 2.811-1.892 2.811-.17 0-.555-.422-.854-.938zm-144.6-10.59c-1.008-1.56-2.867-4.017-4.132-5.46l-2.299-2.622 1.36-1.527c1.72-1.931 4.388-5.517 5.774-7.756.587-.95 1.233-1.727 1.434-1.727.2 0 .788.748 1.304 1.661 1.094 1.934 3.317 4.975 5.437 7.439.821.953 1.494 1.826 1.495 1.939.001.113-.726 1.02-1.617 2.017-1.73 1.935-4.158 5.282-5.459 7.527-.437.755-.945 1.367-1.129 1.36-.184-.01-1.16-1.29-2.168-2.85zm2.6-24.674c-.193-.231-.258-.779-.155-1.294.156-.778.314-.903 1.232-.98l1.052-.088v-4.044l-5.936-.16c-3.264-.088-5.968-.185-6.008-.216-.04-.031-.072-.73-.072-1.552 0-1.461.137-1.703 6.124-10.761 3.368-5.096 6.388-9.559 6.71-9.916.655-.726 1.695-.852 2.183-.264.217.26.346 3.465.398 9.894l.076 9.508 1.593.144 1.592.145.091 1.271c.11 1.516-.161 1.752-2.017 1.758h-1.347l-.202 1.74c-.221 1.9.027 2.494 1.107 2.648.528.075.63.278.63 1.245v1.155l-3.359.081c-2.588.062-3.436-.01-3.693-.32zm2.13-15.577c0-3.328-.114-5.736-.274-5.778-.38-.1-7.748 11.011-7.531 11.36.104.17 1.713.252 3.99.204l3.814-.081V41.82z" fill="#929292"/><path d="M0 157.44V0h217.76v314.88H0V157.44zm212.14 156.22c1.848-.972 3.687-3.022 4.286-4.775.413-1.209.456-15.59.456-151.43V7.365l-.824-1.736c-.917-1.934-2.394-3.386-4.373-4.3L210.367.72H7.087l-1.303.68c-1.775.928-3.372 2.5-4.296 4.23L.717 7.077l-.078 149.64c-.053 103.98.016 150.08.228 151.07.61 2.866 2.79 5.295 5.639 6.28 1.366.471 7.272.497 102.8.437l101.35-.064 1.483-.781zm-20.953-19.243c-.27-.171-.377-2.6-.434-9.89l-.077-9.662-1.737-.145-1.738-.144-.087-1.363c-.098-1.512-.006-1.578 2.404-1.738l1.158-.077v-2.02c0-2.017 0-2.019-.869-2.169-.794-.137-.868-.247-.868-1.302v-1.153H196.178v1.156c0 1.1-.049 1.162-1.014 1.3l-1.013.144-.085 2.094-.085 2.095h5.635c3.1 0 5.842.079 6.093.175.331.127.459.566.459 1.58 0 1.35-.258 1.79-6.658 11.38-6.86 10.278-7.076 10.53-8.323 9.74zm7.157-13.622c2.067-3.093 3.652-5.73 3.523-5.858-.129-.13-1.918-.198-3.975-.153l-3.741.08-.079 5.877c-.052 3.914.021 5.843.219 5.777.163-.054 1.987-2.63 4.053-5.723zm-144.75-3.691c-5.198-8.33-10.049-14.702-15.657-20.565-1.434-1.5-2.604-2.8-2.598-2.889.005-.089 1.384-1.657 3.066-3.484 5.074-5.514 10.446-12.845 16.389-22.365.752-1.204 1.499-2.19 1.66-2.19.161 0 .639.683 1.061 1.517 3.164 6.243 9.357 14.93 16.378 22.973 1.564 1.792 2.843 3.396 2.843 3.565 0 .17-.923 1.304-2.053 2.52-6.012 6.48-12.194 15.05-17.17 23.807-.43.755-.888 1.372-1.02 1.372s-1.436-1.917-2.899-4.261zm107.4 3.033c-1.485-2.651-5.704-9.113-8.037-12.308-3.063-4.195-5.812-7.472-9.262-11.044-1.473-1.525-2.679-2.962-2.679-3.193 0-.23.534-.933 1.186-1.561 4.793-4.614 12.582-15.077 18.336-24.627.603-1.001 1.244-1.771 1.423-1.711.18.06 1.142 1.562 2.137 3.34 3.824 6.825 9.473 14.464 17.122 23.156.49.557.896 1.206.902 1.445.006.238-1.165 1.733-2.603 3.322-5.861 6.475-12.331 15.492-16.221 22.605-.543.993-1.13 1.805-1.302 1.805-.173 0-.624-.552-1.002-1.227zm32.65-23.399c-1.063-1.629-2.921-4.09-4.129-5.471l-2.195-2.51 2.26-2.69c1.242-1.48 3.074-3.951 4.072-5.493.998-1.542 1.922-2.87 2.053-2.95.131-.082.99 1.063 1.907 2.543.918 1.48 2.693 3.912 3.945 5.406 1.252 1.493 2.28 2.913 2.285 3.154.005.24-.554 1.086-1.241 1.877-2.034 2.342-4.036 5.063-5.256 7.145-.629 1.073-1.283 1.95-1.455 1.95-.171 0-1.182-1.332-2.246-2.961zm-139.88-167.1c-5.344-8.606-9.878-14.593-15.183-20.048-1.793-1.844-3.26-3.447-3.26-3.562 0-.115 1.163-1.466 2.585-3.002 5.228-5.646 9.087-10.788 14.824-19.753 1.852-2.893 3.507-5.307 3.678-5.364.172-.057.707.676 1.189 1.63 3.382 6.685 10.972 17.164 17.747 24.504.76.824 1.384 1.638 1.384 1.809 0 .17-1.378 1.853-3.062 3.739C68.043 75.89 63.15 82.624 58.79 90.063c-1.085 1.851-2.103 3.41-2.262 3.463-.16.053-1.403-1.697-2.764-3.888zm107.39 3.02c-1.813-3.126-5.226-8.383-7.548-11.626-3.185-4.45-5.482-7.235-9.571-11.604-1.661-1.775-3.02-3.405-3.02-3.622 0-.218.663-1.04 1.473-1.83 4.757-4.629 11.056-13.04 17.355-23.17 1.013-1.629 1.944-2.961 2.069-2.961.264 0 .359.152 2.977 4.766 3.24 5.71 8.06 12.261 14.735 20.024l2.81 3.27-.657.806c-.362.444-1.765 2.039-3.119 3.544-5.044 5.608-11.1 14.035-14.757 20.532-.87 1.546-1.721 2.811-1.892 2.811-.17 0-.555-.422-.854-.938zm-144.6-10.59c-1.008-1.56-2.868-4.017-4.132-5.46l-2.299-2.622 1.36-1.527c1.72-1.931 4.388-5.517 5.774-7.756.587-.95 1.233-1.727 1.434-1.727.2 0 .788.748 1.304 1.661 1.093 1.934 3.316 4.975 5.437 7.439.821.953 1.494 1.826 1.495 1.939.001.113-.726 1.02-1.618 2.017-1.73 1.935-4.157 5.282-5.458 7.527-.437.755-.945 1.367-1.129 1.36-.184-.01-1.16-1.29-2.168-2.85zm2.6-24.674c-.193-.231-.258-.779-.155-1.294.156-.778.314-.903 1.232-.98l1.052-.088v-4.044l-5.936-.16c-3.264-.088-5.968-.185-6.008-.216-.04-.031-.072-.73-.072-1.552 0-1.461.137-1.703 6.124-10.761 3.368-5.096 6.388-9.559 6.71-9.916.655-.726 1.695-.852 2.183-.264.217.26.346 3.465.398 9.894l.076 9.508 1.593.144 1.592.145.091 1.271c.11 1.516-.162 1.752-2.017 1.758H24.67l-.202 1.74c-.221 1.9.027 2.494 1.107 2.648.528.075.63.278.63 1.245v1.155l-3.359.081c-2.588.062-3.436-.01-3.693-.32zm2.13-15.577c0-3.328-.114-5.736-.274-5.778-.38-.1-7.748 11.011-7.532 11.36.105.17 1.714.252 3.99.204l3.815-.081v-5.706z" fill="#da6d6d"/><path d="M0 157.44V0h217.76v314.88H0V157.44zm212.14 156.22c1.848-.972 3.687-3.022 4.286-4.775.413-1.209.456-15.59.456-151.43V7.365l-.824-1.736c-.917-1.934-2.394-3.386-4.373-4.3L210.367.72H7.087l-1.303.68c-1.775.928-3.372 2.5-4.296 4.23L.717 7.077l-.078 149.64c-.053 103.98.016 150.08.228 151.07.61 2.866 2.79 5.295 5.639 6.28 1.366.471 7.272.497 102.8.437l101.35-.064 1.483-.781zm-21.125-19.489c-.106-.106-.193-4.523-.193-9.816v-9.624l-.652-.145c-.358-.08-1.171-.18-1.807-.222-1.245-.083-1.516-.503-1.18-1.833.154-.616.339-.7 1.545-.704.753 0 1.514-.1 1.69-.217.389-.257.778-3.545.475-4.01-.119-.183-.542-.378-.94-.434-.634-.089-.724-.244-.724-1.257v-1.155l2.896-.084c3.72-.109 4.198.01 4.198 1.043 0 1.013-.477 1.497-1.474 1.497-.921 0-1.132.423-1.132 2.28 0 2.35-.068 2.325 6.516 2.41l5.79.077-.017 1.444c-.017 1.39-.259 1.807-6.515 11.187-6.18 9.268-6.541 9.743-7.39 9.75-.491 0-.98-.08-1.086-.186zm7.353-13.266c2.135-3.19 3.72-5.837 3.632-6.066-.241-.627-7.194-.586-7.827.047-.38.378-.456 1.307-.456 5.609 0 5.07.1 6.07.607 6.07.14 0 1.96-2.547 4.044-5.66zm-37.306-.883c-5.326-9.058-11.26-17.032-17.338-23.299-1.51-1.557-2.705-2.94-2.654-3.072.05-.133 1.525-1.829 3.277-3.768 5.003-5.54 9.314-11.414 15.323-20.882 1.085-1.71 2.073-3.17 2.195-3.246.122-.075 1.04 1.322 2.042 3.106 3.692 6.578 8.78 13.585 15.53 21.39 1.483 1.715 2.697 3.254 2.697 3.42 0 .166-.925 1.298-2.056 2.515-5.86 6.304-12.136 15.012-17.164 23.806-.432.754-.848 1.372-.924 1.372-.077 0-.495-.604-.93-1.343zm-105.27.421c-.232-.367-1.434-2.292-2.67-4.278-4.711-7.57-9.512-13.845-14.817-19.368l-3.011-3.136 2.527-2.687c4.965-5.278 10.397-12.544 15.644-20.925 1.526-2.438 2.88-4.368 3.01-4.288.129.08.72 1.02 1.314 2.092 4.121 7.427 8.532 13.584 15.743 21.97 1.683 1.958 3.096 3.658 3.14 3.78.044.122-.868 1.25-2.027 2.508-6.09 6.61-11.762 14.33-16.202 22.055-.862 1.499-1.715 2.774-1.897 2.835-.183.06-.522-.19-.754-.558zm138.23-23.356c-2.035-3.067-4.146-5.78-5.484-7.047-1.125-1.067-1.125-1.571.001-2.637 1.12-1.06 4.446-5.457 5.94-7.853.618-.993 1.22-1.806 1.336-1.806.116 0 .428.358.692.795 1.55 2.563 3.8 5.721 5.455 7.656 1.043 1.22 1.896 2.357 1.896 2.526 0 .17-.86 1.312-1.912 2.538-1.051 1.226-2.673 3.399-3.604 4.829-.931 1.43-1.876 2.855-2.1 3.166-.382.531-.52.397-2.22-2.167zm-139.43-166.1c-5.384-8.868-10.374-15.495-16.63-22.083l-2.658-2.8 3.048-3.266c5.046-5.408 10.356-12.619 16.097-21.858 2.137-3.44 1.74-3.505 4.097.682 3.46 6.15 8.506 13.137 14.548 20.145 4.02 4.665 3.957 4.485 2.192 6.143-2.107 1.98-7.689 8.808-10.743 13.144-1.765 2.505-5.055 7.704-6.628 10.472-.7 1.231-1.348 2.239-1.442 2.239-.093 0-.94-1.268-1.88-2.817zm106.89 2.176c-.228-.362-1.474-2.373-2.769-4.468-4.54-7.345-9.467-13.785-14.569-19.038-1.717-1.769-3.122-3.311-3.122-3.428 0-.117 1.148-1.467 2.552-3.001 5.419-5.921 9.189-10.934 14.483-19.255 1.82-2.86 3.468-5.37 3.662-5.58.286-.306.687.228 2.063 2.744 3.3 6.037 8.534 13.301 15.15 21.026 1.764 2.06 3.208 3.854 3.208 3.984 0 .13-1.348 1.76-2.996 3.62-5.822 6.573-11.72 14.728-15.358 21.233-.778 1.39-1.522 2.595-1.652 2.676-.131.08-.425-.15-.653-.513zm-144.57-10.55c-1.681-2.6-4.386-6.04-5.721-7.275-.416-.385-.753-.84-.747-1.011.005-.171.796-1.22 1.757-2.333.96-1.112 2.803-3.573 4.093-5.469 2.177-3.199 2.374-3.406 2.743-2.889.22.307 1.124 1.663 2.012 3.014.887 1.35 2.51 3.52 3.607 4.821 1.096 1.302 1.989 2.537 1.984 2.745-.005.208-.8 1.288-1.765 2.4-.965 1.112-2.727 3.485-3.916 5.272-1.189 1.787-2.218 3.25-2.288 3.25-.07 0-.86-1.137-1.76-2.526zm2.55-24.88c-.231-.147-.347-.634-.29-1.224.084-.877.2-.996 1.107-1.125l1.013-.145.086-2.094c.046-1.152.046-2.12 0-2.152-.047-.03-2.757-.128-6.022-.216l-5.936-.16-.086-1.339c-.086-1.312.043-1.534 6.472-11.174 3.608-5.41 6.76-9.912 7.005-10.006.245-.094.686-.094.98 0 .503.16.539.731.61 9.9l.077 9.732 1.158.077c2.341.156 2.461.237 2.461 1.662v1.294H26.54c-1.998 0-2.26.323-2.15 2.646.085 1.782.11 1.832.956 1.976.74.126.883.292.963 1.127.056.589-.06 1.076-.29 1.222-.21.133-1.686.243-3.279.243-1.592 0-3.068-.11-3.279-.243zm1.909-15.855c.063-4.72.004-5.85-.308-5.85-.39 0-7.414 10.394-7.668 11.347-.128.478.149.509 3.88.434l4.017-.081.079-5.85z" fill="#d64f50"/><path d="M0 157.44V0h217.76v314.88H0V157.44zm212.14 156.22c1.848-.972 3.687-3.022 4.286-4.775.413-1.209.456-15.59.456-151.43V7.365l-.824-1.736c-.917-1.934-2.394-3.386-4.373-4.3L210.367.72H7.087l-1.303.68c-1.775.928-3.372 2.5-4.296 4.23L.717 7.077l-.078 149.64c-.053 103.98.016 150.08.228 151.07.61 2.866 2.79 5.295 5.639 6.28 1.366.471 7.272.497 102.8.437l101.35-.064 1.483-.781zm-20.836-19.489c-.106-.106-.193-4.385-.193-9.51 0-5.123-.08-9.522-.176-9.773-.133-.346-.595-.457-1.899-.457h-1.723l.09-1.228.088-1.227 1.587-.09c.872-.05 1.684-.245 1.805-.434.12-.189.221-1.217.223-2.285l.004-1.942-.94-.241c-.784-.201-.957-.396-1.032-1.164l-.091-.922h6.986v1.01c0 .91-.08 1.012-.796 1.016-1.396.01-1.555.294-1.462 2.621l.086 2.141 5.936.145 5.936.144.088 1.346c.085 1.322-.032 1.525-6.483 11.194-5.31 7.96-6.691 9.848-7.205 9.848-.35 0-.723-.087-.83-.192zm7.24-13.247c2.655-3.973 3.866-6.025 3.67-6.22-.175-.174-1.894-.258-4.321-.209l-4.031.081-.078 6.139c-.068 5.329-.02 6.138.36 6.138.25 0 2.149-2.557 4.401-5.929zm-143.39-1.798c-2.062-3.53-7.868-12.004-10.34-15.094-1.333-1.669-3.955-4.689-5.824-6.712l-3.399-3.678 2.988-3.294c5.192-5.724 9.03-10.885 14.691-19.754 1.648-2.582 3.073-4.694 3.168-4.694.094.001.593.815 1.108 1.81 3.164 6.105 8.983 14.236 15.93 22.257 1.633 1.885 2.968 3.586 2.968 3.78 0 .195-.403.736-.895 1.203-4.475 4.241-13.157 15.922-17.337 23.323-.87 1.54-1.657 2.802-1.75 2.802-.092 0-.68-.878-1.307-1.95zm106.31 1.3c-.224-.358-1.452-2.34-2.73-4.406-4.494-7.272-9.572-13.895-14.748-19.238-1.477-1.524-2.685-2.959-2.685-3.188 0-.23.662-1.062 1.472-1.85 4.205-4.097 10.82-12.837 16.047-21.199 1.592-2.548 2.977-4.636 3.076-4.64.1 0 .966 1.392 1.925 3.1 3.38 6.02 7.813 12.257 13.361 18.8 1.526 1.8 3.268 3.867 3.87 4.596l1.096 1.323-.675.749c-.371.411-1.5 1.65-2.51 2.75-4.696 5.124-10.562 13.194-14.766 20.314-1.149 1.946-2.142 3.538-2.207 3.538-.064 0-.301-.292-.526-.65zm32.336-23.84c-.987-1.545-2.787-3.955-4-5.356l-2.208-2.546 1.16-1.255c1.463-1.584 4.317-5.417 5.71-7.67.588-.949 1.178-1.726 1.31-1.726.134 0 .465.358.737.795 1.817 2.919 3.315 5.033 5.191 7.326l2.151 2.628-1.4 1.63c-1.939 2.257-4.048 5.11-5.338 7.22-.598.978-1.184 1.774-1.303 1.77-.12 0-1.024-1.272-2.01-2.817zM54.57 90.485c-2.512-4.208-6.687-10.314-9.464-13.843-2.363-3.002-7.884-9.075-8.966-9.862-.285-.208-.519-.518-.519-.689 0-.171.892-1.247 1.98-2.391 5.407-5.678 10.583-12.625 16.556-22.221 2.455-3.944 2.015-3.97 4.383.257 3.635 6.492 9.81 14.837 16.53 22.34.758.846 1.379 1.661 1.379 1.81 0 .15-1.309 1.732-2.908 3.516-6.007 6.702-11.826 14.806-15.77 21.965-.586 1.064-1.167 1.934-1.292 1.934-.126 0-.985-1.268-1.91-2.817zm106.64 1.743c-7.158-11.558-10.78-16.438-17.25-23.235-1.459-1.532-2.652-2.967-2.652-3.188 0-.221.663-1.047 1.473-1.835 4.661-4.537 10.768-12.674 17.17-22.881.922-1.47 1.79-2.741 1.93-2.828.14-.086.603.53 1.029 1.37 3.11 6.138 9.185 14.64 16.536 23.14l2.702 3.126-.947 1.084c-.52.596-1.924 2.192-3.118 3.546-4.94 5.599-10.592 13.47-14.022 19.527-.924 1.63-1.79 3.032-1.926 3.116-.136.084-.552-.34-.925-.942zM16.64 81.75c-1.06-1.587-2.891-3.987-4.07-5.333l-2.146-2.448 1.355-1.522c1.742-1.956 4.453-5.606 5.658-7.615.519-.865 1.036-1.573 1.15-1.573.114 0 .99 1.204 1.945 2.676.956 1.472 2.718 3.845 3.916 5.272 1.197 1.428 2.181 2.67 2.186 2.762.005.091-.72 1.001-1.61 2.022-1.776 2.038-4.28 5.5-5.363 7.415-.38.674-.783 1.227-.894 1.228-.11 0-1.068-1.297-2.127-2.884zm2.588-24.676c-.33-.86.02-1.468.901-1.568.477-.054 1.03-.232 1.228-.396.401-.33.5-3.609.128-4.194-.164-.257-1.826-.377-6.004-.433l-5.778-.08-.077-1.444c-.076-1.44-.06-1.467 6.37-11.122 6.083-9.13 6.496-9.677 7.316-9.677h.869l.076 9.745.076 9.745.648.144c.356.08 1.168.179 1.803.221 1.242.083 1.516.503 1.185 1.819-.153.607-.362.695-1.836.772l-1.663.087v4.616l.869.15c.738.128.868.28.868 1.014v.864l-3.407.08c-2.788.068-3.438 0-3.572-.343zm2.173-9.524c.23-.276.307-2.147.252-6.134-.066-4.831-.147-5.75-.513-5.814-.546-.097-8.214 11.366-7.99 11.946.223.58 7.768.583 8.25 0z" fill="#6b6b6b"/><path d="M0 157.44V0h217.76v314.88H0V157.44zm213.2 155.91c1.776-1.22 2.856-2.598 3.527-4.498.4-1.133.446-16.895.446-151.25 0-136.41-.042-150.11-.461-151.33-.615-1.8-2.787-4.163-4.6-5.006l-1.454-.675H6.778l-1.504.748c-1.67.83-3.32 2.547-4.14 4.307-.522 1.122-.538 5.59-.538 151.95 0 146 .017 150.83.535 151.97 1.022 2.245 3.298 4.272 5.347 4.762.5.12 46.858.198 103.02.174l102.11-.044 1.6-1.099zm-21.895-19.171c-.106-.106-.193-4.385-.193-9.51 0-5.123-.08-9.522-.176-9.773-.133-.346-.595-.457-1.899-.457h-1.723l.09-1.228.088-1.227 1.587-.09c.872-.05 1.684-.245 1.805-.434.12-.189.221-1.217.223-2.285l.004-1.942-.94-.241c-.784-.201-.957-.396-1.032-1.164l-.091-.922h6.986v1.01c0 .91-.08 1.012-.796 1.016-1.396.01-1.555.294-1.462 2.621l.086 2.141 5.936.145 5.936.144.088 1.346c.085 1.322-.032 1.525-6.483 11.194-5.31 7.96-6.691 9.848-7.205 9.848-.35 0-.723-.087-.83-.192zm7.24-13.247c2.655-3.973 3.866-6.025 3.67-6.22-.175-.174-1.894-.258-4.321-.209l-4.031.081-.078 6.139c-.068 5.329-.02 6.138.36 6.138.25 0 2.149-2.557 4.401-5.929zm-143.39-1.798c-2.062-3.53-7.868-12.004-10.34-15.094-1.333-1.669-3.955-4.689-5.824-6.712l-3.399-3.678 2.988-3.294c5.192-5.724 9.03-10.885 14.691-19.754 1.648-2.582 3.073-4.694 3.168-4.694.094.001.593.815 1.108 1.81 3.164 6.105 8.984 14.236 15.93 22.257 1.633 1.885 2.968 3.586 2.968 3.78 0 .195-.403.736-.895 1.203-4.475 4.241-13.157 15.922-17.337 23.323-.87 1.54-1.657 2.801-1.75 2.801-.092 0-.68-.877-1.307-1.95zm106.31 1.3c-.224-.358-1.452-2.34-2.73-4.406-4.494-7.272-9.572-13.895-14.748-19.238-1.477-1.524-2.685-2.959-2.685-3.188 0-.23.662-1.062 1.472-1.85 4.205-4.097 10.82-12.837 16.047-21.199 1.592-2.548 2.977-4.636 3.076-4.64.1 0 .966 1.392 1.925 3.1 3.38 6.02 7.813 12.257 13.361 18.8 1.526 1.8 3.268 3.867 3.87 4.596l1.096 1.323-.675.749c-.371.411-1.5 1.65-2.51 2.75-4.696 5.124-10.562 13.194-14.766 20.314-1.149 1.946-2.142 3.538-2.207 3.538-.064 0-.301-.292-.526-.65zm32.336-23.84c-.987-1.545-2.787-3.955-4-5.356l-2.208-2.546 1.16-1.255c1.463-1.584 4.317-5.417 5.71-7.67.588-.949 1.178-1.726 1.31-1.726.134 0 .465.358.737.795 1.817 2.919 3.315 5.033 5.191 7.326l2.151 2.628-1.4 1.63c-1.939 2.257-4.048 5.11-5.338 7.22-.598.978-1.184 1.774-1.303 1.77-.12 0-1.024-1.272-2.01-2.817zM54.57 90.493c-2.512-4.208-6.687-10.314-9.464-13.843-2.363-3.002-7.884-9.075-8.966-9.862-.285-.208-.519-.518-.519-.689 0-.171.892-1.247 1.98-2.391 5.407-5.678 10.583-12.625 16.556-22.221 2.455-3.944 2.015-3.97 4.383.257 3.635 6.492 9.81 14.837 16.53 22.34.758.846 1.379 1.661 1.379 1.81 0 .15-1.309 1.732-2.908 3.516-6.007 6.702-11.826 14.806-15.77 21.965-.586 1.064-1.167 1.934-1.292 1.934-.126 0-.985-1.268-1.91-2.817zm106.64 1.743c-7.158-11.558-10.78-16.438-17.25-23.235-1.459-1.532-2.652-2.967-2.652-3.188 0-.221.663-1.047 1.473-1.835 4.661-4.537 10.768-12.674 17.17-22.881.922-1.47 1.79-2.741 1.93-2.828.14-.086.603.53 1.029 1.37 3.11 6.138 9.185 14.64 16.536 23.14l2.702 3.126-.947 1.084c-.52.596-1.924 2.192-3.118 3.546-4.94 5.599-10.592 13.47-14.022 19.527-.924 1.63-1.79 3.032-1.926 3.116-.136.084-.552-.34-.925-.942zM16.64 81.758c-1.06-1.587-2.891-3.987-4.07-5.333l-2.146-2.448 1.355-1.522c1.742-1.956 4.453-5.606 5.658-7.615.519-.865 1.036-1.573 1.15-1.573.114 0 .99 1.204 1.945 2.676.956 1.472 2.718 3.845 3.916 5.272 1.197 1.428 2.181 2.67 2.186 2.762.005.091-.72 1.001-1.61 2.022-1.776 2.038-4.28 5.5-5.363 7.415-.38.674-.783 1.227-.894 1.228-.11 0-1.068-1.297-2.127-2.884zm2.588-24.676c-.33-.86.02-1.468.901-1.568.477-.054 1.03-.232 1.228-.396.401-.33.5-3.609.128-4.194-.164-.257-1.826-.377-6.004-.433l-5.778-.08-.077-1.444c-.076-1.44-.06-1.467 6.37-11.122 6.083-9.13 6.496-9.677 7.316-9.677h.869l.076 9.745.076 9.745.648.144c.356.08 1.168.179 1.803.221 1.242.083 1.516.503 1.185 1.819-.153.607-.362.695-1.836.772l-1.663.087v4.616l.869.15c.738.128.868.28.868 1.014v.864l-3.407.08c-2.788.068-3.438 0-3.572-.343zm2.173-9.524c.23-.276.307-2.147.252-6.134-.066-4.831-.147-5.75-.513-5.814-.546-.097-8.214 11.366-7.99 11.946.223.58 7.768.583 8.25 0z" fill="#d12d2e"/><path d="M0 157.44V0h217.76v314.88H0V157.44zm213.2 155.91c1.776-1.22 2.856-2.598 3.527-4.498.4-1.133.446-16.895.446-151.25 0-136.41-.042-150.11-.461-151.33-.615-1.8-2.787-4.163-4.6-5.006l-1.454-.675H6.778l-1.504.748c-1.67.83-3.32 2.547-4.14 4.307-.522 1.122-.538 5.59-.538 151.95 0 146 .017 150.83.535 151.97 1.022 2.245 3.298 4.272 5.347 4.762.5.12 46.858.198 103.02.174l102.11-.044 1.6-1.099zm-21.798-28.492c0-5.295-.12-9.54-.282-9.966-.256-.672-.432-.741-1.883-.741h-1.6v-2.022h1.583c1.97 0 2.242-.398 2.123-3.111-.085-1.918-.099-1.948-1.027-2.221-.708-.208-.941-.44-.941-.939 0-.65.06-.662 3.137-.662 1.725 0 3.21.072 3.298.16.348.348-.16 1.284-.697 1.284-1.388 0-1.684.474-1.684 2.697 0 1.247.14 2.239.347 2.445.247.246 2.008.347 6.081.347h5.733v1.293c0 1.202-.45 1.97-6.442 10.976-5.28 7.935-6.56 9.683-7.095 9.684h-.651v-9.225zm7.351-3.779c3.381-5.087 3.964-6.12 3.657-6.49-.294-.353-1.137-.438-4.326-.438-2.694 0-4.071.11-4.308.346-.247.248-.347 2.055-.347 6.298 0 5.877.14 6.805.976 6.467.18-.072 2.137-2.855 4.348-6.183zm-39.215-4.239c-4.654-7.62-11.087-16.014-15.89-20.736-1.128-1.108-2.05-2.182-2.05-2.386 0-.205 1.22-1.67 2.712-3.258 4.598-4.892 10.018-12.182 14.87-20.002 1.356-2.184 2.573-3.972 2.705-3.972.132 0 .96 1.28 1.838 2.842 3.695 6.568 8.907 13.721 15.363 21.087 1.44 1.642 2.617 3.09 2.617 3.22 0 .128-.936 1.265-2.08 2.525-6.08 6.695-12.13 14.996-16.125 22.12-.776 1.384-1.44 2.516-1.477 2.516-.036 0-1.153-1.78-2.482-3.955zm-104.1 2.294c-1.42-2.446-5.638-8.806-7.881-11.885-2.593-3.559-4.881-6.289-8.795-10.495l-2.882-3.098 3.092-3.402c5.106-5.618 9.52-11.633 15.652-21.327l1.775-2.805 1.093 1.987c4.001 7.275 10.293 15.91 17.417 23.901.688.772 1.25 1.537 1.25 1.7 0 .163-.879 1.222-1.954 2.353-5.242 5.514-11.864 14.535-16.009 21.807-.826 1.45-1.605 2.635-1.731 2.635-.126 0-.588-.617-1.026-1.372zm138.49-22.821c-1.022-1.55-2.793-3.89-3.935-5.2l-2.076-2.383 1.96-2.268c1.077-1.247 2.806-3.581 3.84-5.187 1.036-1.606 1.971-2.926 2.079-2.933.108-.01.591.678 1.075 1.522 1.05 1.83 3.316 4.912 5.3 7.21l1.44 1.666-1.416 1.656c-2.112 2.47-3.921 4.905-5.148 6.928-.602.993-1.132 1.805-1.177 1.805-.045 0-.919-1.267-1.941-2.816zm-139.96-167.2c-5.01-8.15-9.774-14.375-16.139-21.095l-1.988-2.1 2.403-2.53c4.565-4.806 9.359-11.164 14.612-19.38 1.788-2.795 3.364-5.118 3.503-5.163.14-.045.905 1.118 1.702 2.584 3.07 5.65 8.569 13.269 14.783 20.479 1.692 1.964 3.145 3.734 3.228 3.934.082.2-.656 1.222-1.64 2.272-5.563 5.932-11.507 13.978-15.927 21.558-.995 1.708-1.917 3.105-2.047 3.105-.13 0-1.25-1.649-2.49-3.664zm106.19 1.053c-4.796-8.083-11.655-17.066-17.06-22.347l-1.745-1.703 3.223-3.576c4.96-5.505 10.888-13.616 15.851-21.688.708-1.152 1.384-2.095 1.503-2.095.118 0 .43.423.693.94 3.023 5.948 9.514 15.04 16.406 22.978l2.832 3.263-2.85 3.237c-6.002 6.815-9.924 12.132-14.246 19.317-1.355 2.252-2.596 4.138-2.759 4.192-.162.054-.993-1.079-1.847-2.518zm-142.52-7.283c-1.403-2.223-3.914-5.536-5.54-7.311l-1.422-1.553 1.272-1.381c1.653-1.797 3.566-4.33 5.24-6.943.74-1.152 1.391-2.094 1.45-2.094.057 0 .603.812 1.212 1.805 1.12 1.826 3.582 5.11 5.53 7.375l1.062 1.235-.915 1.076c-1.91 2.246-4.339 5.48-5.523 7.358-.677 1.073-1.27 1.95-1.32 1.95-.048 0-.519-.682-1.046-1.517zm1.766-26.36c0-.594.141-.723.796-.726.438 0 .973-.116 1.19-.253.493-.312.736-3.445.346-4.47l-.286-.75-5.873-.077-5.873-.078-.09-.926c-.05-.509.066-1.215.256-1.57.19-.353 3.127-4.844 6.526-9.979 5.399-8.154 6.274-9.336 6.911-9.336h.73v9.668c0 10.962-.166 10.265 2.442 10.265 1.318 0 1.322 0 1.322 1.01v1.012h-1.557c-2.04 0-2.254.294-2.148 2.934.086 2.118.087 2.122 1.027 2.398.708.207.941.44.941.938 0 .653-.051.663-3.33.663h-3.33v-.722zm2.025-8.514c.35-.221.451-1.266.535-5.557.106-5.406-.111-7.305-.835-7.305-.333 0-7.732 10.638-8.29 11.92-.088.2.001.558.198.794.283.34 1.143.429 4.158.425 2.091 0 3.996-.127 4.234-.277z" fill="#cd0504"/><path d="M0 157.44V0h217.76v314.88H0V157.44zm213.2 155.91c1.776-1.22 2.856-2.598 3.527-4.498.4-1.133.446-16.895.446-151.25 0-136.41-.042-150.11-.461-151.33-.615-1.8-2.787-4.163-4.6-5.006l-1.454-.675H6.778l-1.504.748c-1.67.83-3.32 2.547-4.14 4.307-.522 1.122-.538 5.59-.538 151.95 0 146 .017 150.83.535 151.97 1.022 2.245 3.298 4.272 5.347 4.762.5.12 46.858.198 103.02.174l102.11-.044 1.6-1.099zm-21.345-20.78c-.093-.836-.2-5.42-.238-10.187l-.07-8.666-.825.088c-.535.057-.965-.096-1.222-.434-.371-.488-.396-.49-.405-.015-.012.662-1.457.717-1.457.055 0-.247.107-.384.238-.303.13.08.602-.042 1.047-.272.444-.23 1.122-.419 1.506-.419.907 0 1.263-.93 1.263-3.296 0-1.82-.483-2.77-1.408-2.77-.261 0-.27-.148-.037-.583.275-.513.57-.576 2.489-.527 1.773.046 2.228.154 2.458.583.237.442.17.527-.416.527-.384 0-.86.194-1.056.43-.197.237-.447.375-.556.308-.48-.296-.867.39-.932 1.655-.085 1.636.437 2.409.904 1.339.295-.678.3-.675.144.108-.096.486.025 1.12.303 1.59l.462.78 5.161-.076 5.161-.078.597 1.01c.561.948.567 1.031.099 1.377-.274.202-.822.985-1.217 1.74-.394.754-.815 1.372-.935 1.372-.12 0-.218.162-.219.36 0 .2-.268.799-.594 1.332-.573.938-.612.953-1.157.461-.824-.743-.735-1.386.167-1.214.622.118.704.054.55-.431-.179-.56.725-2.741 1.546-3.73.217-.262.29-.54.16-.62-.13-.079-2.208-.237-4.617-.353-4.222-.201-4.403-.187-4.995.404-.338.337-.614.91-.614 1.271 0 .362-.213.961-.473 1.332-.323.459-.373.735-.158.867.2.124.352 1.983.417 5.096.056 2.696.192 4.935.303 4.974.852.307 1.565-.017 2.062-.938.377-.698.75-1.011 1.201-1.011.487 0 .703-.215.84-.836.1-.46.567-1.439 1.036-2.177.469-.737.853-1.523.853-1.747 0-.53.656-.932.803-.491.062.187.298.34.524.34.225 0 .41.058.41.127 0 .351-1.252 2.184-1.491 2.184-.152 0-.455.422-.673.939-.385.908-3.328 5.457-4.768 7.368-.388.515-.877.937-1.085.937-.21 0-.38.316-.38.705 0 1.38-.54 1.01-.706-.485zm1.787-2.044c.195-.43.207-.844.032-1.156-.466-.83-.824-.54-.824.668 0 1.292.331 1.496.792.487zm-.792-16.248c0-.248-.13-.37-.29-.272-.159.098-.289.3-.289.45 0 .15.13.272.29.272.159 0 .29-.203.29-.45zm-137.69 3.311c-.314-.81-.788-1.589-1.054-1.731-.514-.276-1.187-1.954-1.048-2.613.05-.235-.208-.43-.64-.48-.838-.1-2.162-1.892-1.9-2.574.117-.303.036-.388-.26-.274-.542.208-.856-.295-.87-1.394-.008-.65-.239-1.003-.944-1.444-.514-.321-1.1-.942-1.302-1.379-.202-.436-.46-.794-.575-.794-.284 0-1.125-.926-2.212-2.436-.825-1.147-.853-1.25-.294-1.104.445.117.577.048.475-.244-.083-.236-.449-.372-.878-.326-.588.063-.974-.227-1.92-1.444-.65-.838-1.32-1.653-1.485-1.812-.166-.16-.613-.577-.994-.928-.457-.422-.64-.84-.537-1.228.108-.413.014-.589-.314-.589-.257 0-.473.163-.479.362-.006.198-.323-.021-.705-.487-.57-.696-.637-.956-.376-1.445.414-.776 1.109-1.298 1.743-1.31.326-.01.511-.24.519-.658.014-.8 1.58-2.708 1.856-2.263.28.454.738.383.738-.114 0-.235.326-.64.724-.9.409-.267.724-.75.724-1.108 0-.35.384-1.002.854-1.45.47-.45.893-1.091.94-1.427.056-.389.298-.61.667-.61.372 0 .594-.207.62-.578.024-.318.056-.711.073-.874.03-.286 1.149-1.662 2.352-2.891.316-.324.575-.789.575-1.033 0-.245.337-.76.749-1.146.412-.385.916-1.09 1.12-1.567.204-.476.876-1.38 1.495-2.01.618-.629 1.14-1.246 1.16-1.372.02-.126.053-.465.072-.753.02-.29.556-.816 1.195-1.174 1.055-.592 1.576-1.48.869-1.48-.36 0-.368-.584-.016-1.14.219-.344.368-.294.854.29.325.388.594 1.003.6 1.365.005.363.205.734.444.826.239.09.697.705 1.017 1.363.813 1.669 1.502 2.79 2.095 3.411.28.291.507.733.507.982 0 .248.39.78.868 1.18.807.677.837.772.434 1.346-.642.914-.534 1.146.462 1 .64-.093.945 0 1.067.329.094.253.4.624.681.826.981.704 1.845 2.224 1.845 3.244 0 .88.09 1.008.69.984.44-.017 1.04.348 1.66 1.011.803.857.942 1.189.794 1.9-.154.739-.118.81.252.503.36-.298.722-.038 2.21 1.595.977 1.073 1.78 2.146 1.783 2.385.003.238.328.739.724 1.113.395.374.719.776.719.893 0 .116-.424.6-.941 1.073-.518.474-1.382 1.405-1.92 2.069-.539.664-1.156 1.207-1.372 1.207-.216 0-.583.455-.816 1.01-.276.66-.617 1.012-.982 1.012-.78 0-1.296.664-.856 1.103.452.45-1.076 2.075-1.95 2.075-.843 0-1.044.26-.697.907.24.448.162.591-.445.822-.47.178-.735.5-.735.896 0 .34-.283 1.12-.629 1.734-.536.951-.734 1.089-1.347.936-.684-.172-.71-.132-.526.784.159.793.048 1.147-.625 1.992-.45.566-1.311 1.776-1.914 2.69-.603.913-1.2 1.66-1.325 1.66-.127 0-.31.433-.41.96-.21 1.117-1.133 2.218-1.859 2.218-.338 0-.691-.484-1.074-1.472zm1.307-2.662c.002-.128-.126-.153-.285-.055-.16.098-.287.399-.285.667.004.421.043.429.285.055.155-.238.283-.538.285-.667zm.74-1.913c-.104-.17-.329-.308-.498-.308-.192 0-.17.165.058.44.397.477.752.37.44-.132zm-6.382-7.53c.099-.16.041-.29-.127-.29-.169 0-.307.13-.307.29 0 .159.058.289.128.289s.208-.13.306-.29zm15.202-4.206a.427.427 0 0 0-.434-.416c-.436 0-.595.61-.25.955.271.27.684-.056.684-.539zm-24.323-8.36c0-.45-.164-.722-.434-.722-.467 0-.537.264-.259.987.271.703.693.542.693-.265zm31.155-1.633c.275-.443-.77-1.208-1.143-.836-.178.178-.145.438.093.723.441.53.77.566 1.05.113zM44.6 249.307c0-.16-.195-.29-.434-.29s-.434.13-.434.29c0 .159.195.289.434.289s.434-.13.434-.29zm1.738-3.356c0-.239-.13-.353-.29-.255-.159.098-.29.373-.29.612 0 .238.131.353.29.254.16-.098.29-.373.29-.611zm15.853-6.346c-.276-.275-.83.17-.624.503.122.197.284.192.492-.015.17-.17.23-.39.132-.488zm-5.14-8.77c0-.149-.13-.351-.29-.45-.159-.098-.289.024-.289.272 0 .248.13.45.29.45.159 0 .29-.122.29-.271zm104.64 47.215c-.092-.239-.394-.434-.671-.434-.467 0-2.33-2.555-2.33-3.196 0-.149-.132-.27-.295-.27-.163 0-.454-.358-.648-.794-.194-.437-.712-1.185-1.15-1.662-.44-.476-.8-1.033-.8-1.237-.002-.404-.786-1.764-1.285-2.23-.677-.63-2.056-2.616-2.201-3.168-.085-.323-.446-.716-.802-.874-.357-.159-.626-.483-.598-.722.078-.673-.346-1.446-.793-1.446-.47 0-1.97-1.458-4.023-3.906-.796-.95-1.549-1.771-1.672-1.825-.538-.237-2.232-2.254-2.235-2.66-.004-.668.597-1.142 1.446-1.142.744 0 1.447-.458 1.447-.944 0-.137-.277-.163-.615-.056-.663.21-.586-.1.27-1.094.547-.636.924-.648.924-.027 0 .426.065.42.593-.057.367-.332.56-.814.507-1.267-.066-.558.104-.824.71-1.115.438-.21.797-.618.797-.905 0-.758 1.106-2.046 1.758-2.046.358 0 .558-.2.558-.557 0-.359.233-.591.652-.65.52-.074.651-.278.651-1.018 0-.652.305-1.267 1.034-2.083.569-.636 1.185-1.487 1.37-1.891.184-.404.522-.734.752-.734.23 0 .505-.395.611-.88.284-1.287 1.604-3.164 2.226-3.164.422 0 .496-.148.354-.712-.141-.561.233-1.325 1.77-3.614l1.95-2.902 1.736 3.108c2.12 3.796 4.793 7.938 5.324 8.25.215.128.391.49.391.807 0 .316.537 1.084 1.193 1.707.98.93 1.16 1.262 1.008 1.866-.107.426-.061.734.11.734.163 0 .295-.13.295-.289 0-.486.42-.322.823.323.267.427.291.704.08.915-.387.386.957 1.697 1.52 1.482.213-.082.595.168.85.555.515.785.388 1.107-.333.845-.413-.15-.406-.091.05.427.29.33.834.678 1.208.771.45.113.793.513 1.015 1.184.185.558.468.933.629.833.336-.207 2.89 2.181 2.685 2.512-.074.12.093.445.372.723.432.43.443.526.075.646-.686.222-3.339 3.168-4.027 4.472-.226.428-.51.778-.629.778-.12 0-.84.845-1.6 1.878-.76 1.033-1.559 1.878-1.775 1.878-.216 0-.53.39-.696.866-.167.477-.486.867-.71.867-.222 0-.405.27-.405.6 0 .33-.565 1.337-1.255 2.238a95.21 95.21 0 0 0-2.753 3.87c-.825 1.226-1.771 2.375-2.103 2.552-.382.204-.553.515-.466.848.152.58-.736 2.143-1.044 1.836-.106-.106-.276.218-.376.72-.197.983-1.14 1.294-1.454.48zm1.054-2.998c0-.702-.757-1.381-.939-.842-.202.6.103 1.384.538 1.384.22 0 .4-.244.4-.542zm-2.896-.613a.29.29 0 0 0-.58 0 .29.29 0 0 0 .58 0zm1.737-1.445a.29.29 0 0 0-.579 0 .29.29 0 0 0 .58 0zm5.786-2.75c-.202-.243-.442-.366-.534-.274-.092.092.024.288.258.436.613.387.694.34.276-.163zm2.322-3.189c0-.229-.13-.416-.29-.416-.159 0-.289.268-.289.595 0 .327.13.514.29.416.159-.098.29-.366.29-.595zm-.362-2.607c-.276-.275-.83.171-.623.503.122.197.284.192.492-.015.17-.17.23-.39.131-.487zm-16.433-3.73c0-.24-.13-.434-.29-.434-.159 0-.289.195-.289.433s.13.433.29.433c.159 0 .29-.195.29-.433zm-2.414-1.426c-.095-.249-.312-.453-.481-.453-.498 0-.7.903-.262 1.173.514.317.972-.126.743-.72zm22.973-.164c0-.159-.057-.289-.127-.289s-.209.13-.307.29c-.098.158-.041.288.128.288.168 0 .306-.13.306-.289zm3.268-2.595c.1-.38.011-.582-.254-.582-.244 0-.408.296-.408.739 0 .833.43.73.662-.157zm1.365-2.171c0-.238-.13-.433-.29-.433-.158 0-.289.195-.289.433s.13.433.29.433c.16 0 .29-.195.29-.433zm-25.192-9.677a.29.29 0 0 0-.579 0 .29.29 0 0 0 .58 0zm14.541-6.409c-.188-.188-.426-.258-.528-.157-.102.102-.1.408.005.68.145.376.27.413.528.156s.257-.418-.005-.679zm-4.985-4.28a.29.29 0 0 0-.579 0 .29.29 0 0 0 .58 0zm1.867-1.758a.322.322 0 1 0-.105.443.322.322 0 0 0 .105-.443zm31.184 25.64c-.193-.233-.256-.78-.15-1.308.141-.706.082-.908-.268-.908-.573 0-3.097-2.396-3.097-2.94 0-.226.145-.556.322-.733.553-.552-.015-1.054-.598-.528-.47.425-.595.364-1.709-.842-1.338-1.449-1.474-2.003-.621-2.535.318-.198.579-.527.579-.73 0-.565 2.893-4.114 3.353-4.114.222 0 .374-.227.338-.505-.08-.61 1.51-3.463 2.047-3.674.269-.106.327.019.197.426-.14.44-.05.576.382.576.31 0 .645.227.743.505.158.451 1.192 2.017 1.87 2.833.14.168.565.844.944 1.501.38.658.919 1.256 1.2 1.329.494.129.675.993.576 2.738-.038.666-.03.668.743.166.682-.443.636-.327-.358.915-.628.783-1.344 1.645-1.593 1.917-.249.271-.843 1.03-1.321 1.687s-1.162 1.513-1.52 1.903c-.359.39-.652.943-.652 1.229 0 .286-.242.738-.537 1.005-.454.41-.59.423-.87.086zm1.118-3.389c0-.15-.196-.271-.435-.271-.447 0-.575.34-.249.666.232.23.684-.03.684-.395zm-2.606-1.765c0-.186.208-.568.462-.849.255-.28.378-.648.273-.817-.337-.543-.735-.328-.735.398 0 .388-.13.786-.29.884-.159.098-.29.3-.29.45 0 .15.131.272.29.272.16 0 .29-.152.29-.338zm-.058-3.764c.51-.51.425-.809-.232-.809-.386 0-.579.193-.579.578 0 .655.3.74.81.231zm6.139-1.693c0-.15-.13-.271-.29-.271-.16 0-.29.202-.29.45s.13.37.29.272c.16-.098.29-.301.29-.45zM56.189 91.707c0-.406-.12-.665-.265-.576-.145.09-.438-.227-.65-.705-.212-.477-.484-.868-.604-.868s-.219-.246-.219-.547c0-.3-.195-.622-.434-.713-.239-.091-.434-.323-.434-.514 0-.19-.228-.598-.506-.904-.484-.534-.472-.583.29-1.19.437-.347.795-.724.795-.837 0-.37-.667-.216-1.218.281-.508.459-.57.455-1.057-.072-.284-.307-1.219-1.664-2.077-3.015-.859-1.35-1.958-2.91-2.442-3.466-.484-.556-1.127-1.564-1.43-2.239-.303-.675-.698-1.228-.878-1.228-.18 0-.479-.402-.665-.893-.186-.49-.467-.813-.625-.715-.159.098-.555-.118-.88-.48-1.822-2.019-3.206-3.743-3.206-3.994 0-.157-.326-.433-.724-.614-.398-.181-.724-.546-.724-.81 0-.265-.326-.787-.724-1.16-.398-.373-.724-.78-.724-.902 0-.354 1.843-1.984 2.244-1.985.2-.001.362-.188.362-.415 0-.228.391-.692.869-1.031.478-.34.869-.778.869-.974 0-.196.456-.798 1.013-1.337.557-.54 1.014-1.155 1.014-1.37 0-.214.293-.682.652-1.04.359-.358.874-.989 1.145-1.402.271-.412.727-.731 1.013-.708.38.031.543-.197.607-.85.056-.578.394-1.14.956-1.59 2.117-1.695 2.632-2.31 2.471-2.95-.105-.418.133-1.067.697-1.905.47-.7.856-1.38.856-1.511 0-.132.329-.323.731-.423.517-.13.65-.283.451-.521a.66.66 0 0 1-.044-.72c.19-.306.4-.276 1.07.155l.832.536-.507-.785c-.714-1.105-.643-1.485.507-2.702.558-.59 1.014-1.298 1.014-1.574s.2-.667.443-.869c.367-.303.516-.272.86.181.228.302.423.744.431.982.01.238.27.758.582 1.156.75.955.726 1.886-.06 2.436-.51.356-.567.52-.28.806.286.286.392.231.523-.266.307-1.17 1.48-.942 1.666.325.036.243.327.737.647 1.098.821.925 1.558 2.157 1.558 2.604 0 .209.465.858 1.034 1.442 1.228 1.26 2.718 3.396 2.725 3.904.003.199.193.361.423.361.61 0 .843.54.44 1.024-.477.573.125 1.287 1.085 1.287.523 0 .799.226 1.034.846.175.465.609.977.963 1.138.354.16.728.56.832.887.105.328.3.596.434.596s1.09 1.02 2.123 2.266c2.467 2.974 2.507 3.635.365 5.932-.833.893-1.667 1.623-1.853 1.623-.187 0-.34.26-.34.578 0 .517-.3.713-.94.612-.12-.019-.217.234-.217.56 0 .328-.41 1.103-.909 1.723-.777.964-.991 1.083-1.484.82-.435-.232-.638-.212-.825.083-.33.52-.32.935.034 1.288.195.195.12.475-.227.852-.285.309-.91 1.147-1.388 1.862-.478.715-1.055 1.3-1.281 1.3-.235 0-.498.419-.612.976-.11.537-.329 1.057-.487 1.155-.157.1-.567.719-.91 1.377-.344.659-.88 1.264-1.19 1.345-.367.096-.566.396-.566.854 0 .389-.317 1.149-.704 1.688-.917 1.28-2.012 3.141-2.513 4.27-.485 1.093-.837 1.16-.837.161zm5.501-10.11c0-.248-.13-.37-.29-.272-.159.098-.289.3-.289.45 0 .15.13.272.29.272.159 0 .29-.203.29-.45zM42.58 71.357a.29.29 0 0 0-.58 0 .29.29 0 0 0 .58 0zm-.746-4.237c.237-.617-.293-1.198-.712-.78-.315.315-.09 1.262.299 1.262.125 0 .311-.217.413-.482zm-1.716-2.407c.098-.159.041-.289-.128-.289-.168 0-.306.13-.306.29 0 .158.057.288.127.288s.209-.13.307-.289zm9.794-10.012c.262-.26-.387-.997-.706-.8-.399.246-.302.99.13.99.212 0 .472-.086.576-.19zm1.06-1.904c-.003-.507-.063-.558-.27-.23-.147.23-.202.523-.124.65.252.405.399.248.394-.42zm9.85-4.295c0-.159-.13-.208-.29-.11-.16.098-.29.308-.29.467 0 .159.13.209.29.11.16-.098.29-.308.29-.467zm100.61 42.282c-.285-1.711-.386-1.883-1.008-1.72-.453.117-.576.01-.576-.526 0-.425-.217-.745-.585-.861-.321-.102-.905-.817-1.297-1.588-.392-.771-.845-1.485-1.008-1.585-.162-.1-.299-.401-.304-.67-.005-.269-.444-.92-.975-1.447-.53-.527-1.145-1.307-1.366-1.733-.22-.426-.474-.84-.565-.92-.786-.684-3.165-4.152-3.165-4.613 0-.322-.189-.586-.419-.586-.23 0-1.518-1.268-2.862-2.817-1.343-1.549-2.842-3.192-3.33-3.65-.716-.673-.856-.994-.722-1.661.14-.694.07-.827-.425-.827-.325 0-.657.162-.738.36-.113.28-.15.278-.168-.013-.013-.206.352-.59.81-.852.459-.263 1.334-1.166 1.946-2.009.612-.842 1.336-1.531 1.608-1.531.327 0 .528-.272.588-.795.068-.585.231-.77.62-.704.725.123 1.354-.46 1.354-1.253 0-.618 1.112-2.195 2.76-3.916.393-.41.715-.933.715-1.16 0-.228.597-.99 1.326-1.696.729-.705 1.514-1.645 1.745-2.09.23-.444.545-.808.7-.808.156 0 .283-.37.283-.822 0-.471.261-1.056.613-1.372.337-.302.71-.807.827-1.121.126-.336.485-.574.874-.578.764-.01 1.536-1.008.943-1.223-.42-.153-.494-.95-.09-.95.15 0 .358.136.46.303.28.451 1.009-.248.806-.774a.452.452 0 0 0-.576-.272c-.316.122-.292-.058.107-.777.91-1.644.942-1.669 1.634-1.284.844.469 1.052.793 1.057 1.652.003.473.232.825.656 1.011.505.221.672.565.741 1.527.077 1.063.168 1.217.632 1.07.773-.245 2.053 1.973 1.82 3.152-.142.72-.091.813.348.645.636-.243 1.331.287 1.114.85-.088.23.002.809.2 1.287.27.65.496.826.896.7.416-.132.646.088 1.043 1.003.29.669.708 1.173.971 1.173.576 0 1.276 1.25 1.042 1.858-.119.309-.007.453.35.453.29 0 .761.259 1.048.576.508.56.494.602-.534 1.569-1.213 1.141-1.278 1.321-.477 1.321.318 0 .579-.148.579-.329 0-.18.228-.502.507-.713.593-.45 1.52-.525 1.52-.123 0 .153.398.686.885 1.183.706.72.85 1.066.71 1.703-.154.702-.051.859.838 1.28l1.014.48-.594 1.004c-.705 1.193-.265 1.337.81.265.705-.704.768-.715 1.29-.244.697.63.69.919-.037 1.515-.322.263-.64.772-.707 1.13-.186.989-.414 1.227-1.176 1.227-.724 0-1.296.725-1.296 1.642 0 .289-.503 1.074-1.118 1.745-.615.67-1.299 1.466-1.52 1.767-1.575 2.142-3.922 5.135-4.157 5.302a.328.328 0 0 1-.473-.103c-.247-.4-.43-.05-.67 1.276-.127.7-.455 1.255-.922 1.56-.398.26-.658.647-.576.86.082.212-.094.515-.39.673-.295.158-.669.664-.83 1.125-.37 1.057-1.222 2.063-1.748 2.063-.28 0-.36.233-.26.755.1.52-.167 1.305-.858 2.525-1.441 2.543-1.987 2.814-2.269 1.126zm.733-2.528c0-.238-.13-.433-.29-.433-.159 0-.29.195-.29.433 0 .239.131.434.29.434.16 0 .29-.195.29-.434zm-1.613-1.91c-.198-.32-1.283-.34-1.283-.025 0 .127.154.384.34.57.387.386 1.22-.096.943-.545zm-1.572-.545c0-.159-.138-.289-.307-.289-.169 0-.226.13-.128.289.099.159.237.289.307.289s.128-.13.128-.29zm4.343-.595c0-.327-.13-.514-.29-.416-.159.098-.289.366-.289.595 0 .229.13.416.29.416.159 0 .29-.268.29-.595zm-2.657-.657c.055-.285-.092-.481-.362-.481-.269 0-.456.247-.456.602 0 .704.677.604.818-.12zm3.764-.866c.056-.285-.092-.482-.362-.482-.268 0-.455.247-.455.602 0 .704.676.604.817-.12zm-8.346-3.84c0-.456-.26-.498-.838-.133-.237.15-.326.46-.214.75.155.403.27.428.621.138.237-.196.431-.535.431-.754zm-3.33-5.308c.099-.16.041-.29-.128-.29-.168 0-.306.13-.306.29 0 .159.057.289.127.289s.209-.13.307-.29zm-4.607-4.26c-.312-.31-.477.125-.258.68.205.52.22.521.322.019.058-.29.03-.605-.064-.698zm29.365-3.667c0-.07-.13-.208-.29-.306-.16-.098-.29-.041-.29.127s.13.306.29.306c.16 0 .29-.057.29-.127zm-31.562-2.456c0-.15-.13-.352-.29-.45-.16-.098-.29.024-.29.272 0 .247.13.45.29.45.16 0 .29-.122.29-.272zm6.66-5.505c0-.16-.058-.29-.128-.29s-.208.13-.307.29c-.098.158-.04.288.128.288.169 0 .307-.13.307-.288zm19.019-1.21c-.093-.23-.161-.162-.175.174-.013.305.056.476.152.38.096-.096.106-.346.023-.554zm-4.252-4.024c0-.16-.13-.209-.29-.11-.159.097-.29.308-.29.467 0 .159.131.208.29.11.16-.098.29-.308.29-.467zM17.727 82.408c-.51-.642-.926-1.316-.926-1.498 0-.357.012-.341-1.73-2.42-.641-.764-1.166-1.633-1.166-1.93 0-.297-.394-.82-.877-1.163-.785-.558-.857-.734-.69-1.681.103-.582.465-1.278.805-1.547.34-.269.634-.626.654-.794.02-.168.052-.407.072-.53.02-.124.427-.652.905-1.174.478-.521.869-1.066.869-1.21 0-.37.946.028 1.351.568.187.248.446.344.577.213.131-.131.012-.365-.266-.52-.767-.428-.629-1.861.292-3.012.438-.548.937-.996 1.109-.996.171 0 .888 1.038 1.592 2.306.705 1.269 1.434 2.309 1.622 2.311.187 0 .669.423 1.07.934.522.666.644 1.03.43 1.287-.34.409-.058 1.057.35.805.552-.34 1.283.586 1.283 1.625 0 1.255-.54 1.992-1.313 1.79-.383-.1-.569 0-.569.295 0 .243.138.489.307.545.169.056-.222.673-.869 1.372-.646.698-1.175 1.423-1.175 1.61 0 .188-.26.576-.58.864-.318.287-.578.67-.578.85 0 .18-.365.763-.812 1.297l-.811.97-.926-1.167zm.811-1.39c0-.247-.132-.368-.294-.268-.162.1-.22.302-.128.45.249.4.422.326.422-.182zm.29-13.832c0-.387-.131-.786-.292-.885-.366-.226-.695.579-.472 1.157.263.684.764.505.764-.272zm.869-10.419c0-.237.241-.43.536-.43.788 0 2.07-1.309 2.07-2.113 0-.382.08-1.285.18-2.006.163-1.19.11-1.356-.574-1.804-.626-.408-1.432-.487-4.716-.46-3.828.03-3.944.014-3.479-.5.265-.292.395-.618.289-.724-.107-.106 1.506-.193 3.583-.193 3.024 0 3.85-.087 4.142-.438.239-.287.413-1.86.506-4.55.078-2.262.26-4.26.404-4.442.166-.208.113-.481-.145-.738-.238-.238-.395-.926-.376-1.649.026-.976-.112-1.357-.647-1.79-.994-.802-2.063-.73-2.063.139 0 .915-.737 2.63-1.783 4.145-.953 1.383-1.242 1.494-1.693.654-.258-.48-.148-.79.641-1.805.524-.674 1.018-1.29 1.098-1.37.08-.08.454-.76.833-1.51.379-.752.792-1.303.918-1.226.38.234 1.144-.725 1.144-1.434 0-.365.29-1.03.642-1.477.353-.448.842-1.212 1.086-1.7.244-.486.672-.927.95-.979.475-.088.507.519.507 9.48 0 6.3.107 9.772.313 10.155.247.46.567.57 1.52.52 1.711-.089 1.932-.039 1.932.438 0 .571-.912 1.02-2.08 1.026-1.505.01-1.682.262-1.712 2.468-.024 1.795.076 2.643.5 4.217.111.414-.181.481-2.199.503-1.881.02-2.327-.058-2.327-.406zm3.33-9.674c.098-.16-.025-.29-.273-.29-.248 0-.451.13-.451.29 0 .158.122.288.272.288.15 0 .353-.13.452-.288zm-.435-14.3c0-.449-.164-.722-.434-.722-.434 0-.606.889-.241 1.252.393.393.675.172.675-.53zm2.232 23.83c-.098-.373-.007-.575.257-.575.447 0 .56.739.15.99-.141.088-.324-.1-.407-.415zm-14.83-7.6c.116-.727.657-1.877 1.326-2.817a52.103 52.103 0 0 0 2.024-3.107c.898-1.527 1.777-2.269 2.303-1.945.431.267.338 1.005-.151 1.192-.24.091-.435.404-.435.693 0 .327-.247.562-.651.62-.448.062-.678.317-.736.814-.128 1.095-.702 2.06-1.128 1.897-.47-.18-1.249.097-1.249.445 0 .142.186.258.413.258.418 0 1.324 1.504 1.324 2.197 0 .37-1.67.976-2.703.979-.464 0-.508-.156-.337-1.226zm1.738-.217c-.099-.159-.302-.289-.452-.289-.15 0-.272.13-.272.289 0 .159.203.289.451.289s.371-.13.273-.29z" fill="#d40000"/><path d="M0 157.44V0h217.76v314.88H0V157.44zm213.2 155.91c1.776-1.22 2.856-2.598 3.527-4.498.4-1.133.446-16.895.446-151.25 0-136.41-.042-150.11-.461-151.33-.615-1.8-2.787-4.163-4.6-5.006l-1.454-.675H6.778l-1.504.748c-1.67.83-3.32 2.547-4.14 4.307-.522 1.122-.538 5.59-.538 151.95 0 146 .017 150.83.535 151.97 1.022 2.245 3.298 4.272 5.347 4.762.5.12 46.858.198 103.02.174l102.11-.044 1.6-1.099z" fill="#030303"/></svg>