<svg xmlns="http://www.w3.org/2000/svg" height="335.872" width="232.277" viewBox="0 0 217.76001 314.87998"><path d="M0 157.44V0h217.76v314.88H0V157.44z" fill="#fdfdfd"/><path d="M0 157.44V0h217.76v314.88H0V157.44zm211.88 155.77c1.56-.831 3.003-2.271 3.718-3.71.552-1.11.562-3.422.634-151.58l.073-150.45-.611-1.416c-.342-.794-1.221-1.987-1.997-2.71-2.59-2.418 7.891-2.207-105.55-2.124l-101.05.074-1.483.78c-1.61.847-2.677 1.954-3.671 3.808l-.638 1.19-.073 149.92c-.067 135.52-.03 150.07.38 151.48.572 1.958 2.835 4.345 4.769 5.027 1.172.414 10.9.452 102.79.407l101.49-.05 1.223-.652zM7.15 306.022c-.231-.23.03-.682.395-.682.15 0 .273.195.273.433 0 .447-.342.574-.668.249zm-3.096-3.014c0-.413.155-.57.503-.502.755.145.839 1.1.097 1.1-.415 0-.6-.185-.6-.598zm185.35-10.062c-.434-.274-.517-3.128-.103-3.54.126-.126 2.636-.264 5.578-.308l5.35-.079.086-1.83c.078-1.65.036-1.813-.434-1.665-4.25 1.334-8.11.339-11.024-2.843-1.94-2.117-2.72-4.153-2.893-7.541-.3-5.894 2.304-10.922 6.522-12.596 2.433-.965 6.82-.96 8.982.012 2.645 1.19 4.986 4.486 4.986 7.024 0 .616-1.062 1.098-2.408 1.091-1.199-.01-1.447-.191-2.173-1.62-1.189-2.339-3.04-3.26-5.793-2.886-2.012.275-3.736 1.48-4.797 3.355-.832 1.468-.9 1.797-.9 4.333 0 2.476.085 2.912.87 4.465 1.215 2.4 2.787 3.485 5.02 3.462 2.009-.02 3.247-.623 4.912-2.387l1.247-1.321 1.002.538c.55.296 1.15.717 1.33.934.462.554-.59 12.72-1.147 13.275-.304.304-1.86.388-7.101.384-3.692 0-6.892-.118-7.112-.257zm-29.948-15.391a344.03 344.03 0 0 1-2.684-4.28c-4.601-7.45-9.201-13.431-15.14-19.686-1.456-1.533-2.646-2.94-2.646-3.126 0-.187 1.507-1.988 3.35-4.002 5.201-5.685 9.875-12.067 15.756-21.513 1.405-2.257 2.27-3.378 2.565-3.322.244.047 1.369 1.71 2.5 3.696 4.162 7.306 10.717 16.205 16.986 23.061.775.847 1.408 1.789 1.408 2.094 0 .304-.884 1.496-1.965 2.648-5.889 6.276-10.647 12.671-15.686 21.083-1.535 2.564-2.941 4.712-3.124 4.772-.182.061-.777-.58-1.321-1.425zm-105.75-1.594c-5.224-8.779-10.55-15.858-16.715-22.212-1.555-1.603-2.827-3.079-2.827-3.28 0-.2 1.18-1.607 2.62-3.127 4.818-5.077 9.149-10.814 14.557-19.277 1.827-2.86 3.564-5.5 3.859-5.869.713-.89 1.341-.61 2.02.9.852 1.896 4.877 8.437 7.126 11.582 2.557 3.576 6.927 9.035 10.019 12.518 1.356 1.528 2.365 2.921 2.365 3.268 0 .359-1.093 1.8-2.69 3.547-5.988 6.554-11.37 13.978-16.055 22.153-1.937 3.378-2.155 3.368-4.279-.202zm141.55-19.224c-2.34-3.679-3.645-5.465-5.67-7.764-1.235-1.4-2.245-2.688-2.245-2.86 0-.174.624-.99 1.386-1.815 2.09-2.261 3.28-3.822 5.392-7.069 1.056-1.623 2.12-2.952 2.363-2.952.243 0 .664.403.935.896 1.174 2.131 3.948 6.074 5.835 8.295 1.123 1.322 2.042 2.532 2.042 2.689 0 .158-.777 1.208-1.728 2.334-1.82 2.157-4.542 5.946-5.862 8.158-.432.724-.984 1.316-1.226 1.316-.243 0-.793-.552-1.223-1.228zm-87.485-70.199c-.178-.213-1.186-1.811-2.24-3.55-5.157-8.511-9.881-14.698-16.752-21.94-1.206-1.272-2.195-2.447-2.199-2.613-.003-.165.593-.88 1.324-1.588 5.035-4.876 10.751-12.532 18.794-25.172.637-1.002 1.37-1.86 1.627-1.91.33-.062.965.792 2.146 2.887 4.335 7.683 8.558 13.556 15.676 21.795 1.805 2.089 3.282 3.942 3.282 4.117 0 .176-1.064 1.456-2.364 2.846-5.368 5.736-11.898 14.656-16.23 22.167-1.802 3.125-2.427 3.728-3.065 2.961zM55.074 92.511c-.307-.436-1.376-2.159-2.376-3.827A117.708 117.708 0 0 0 36.487 67.5c-1.198-1.244-2.218-2.435-2.267-2.647-.049-.213 1.125-1.667 2.607-3.232 5.519-5.825 10.558-12.666 17.146-23.277.766-1.232 1.514-2.316 1.663-2.408.476-.293 1.053.444 2.578 3.29 3.53 6.591 8.333 13.234 16.022 22.158 1.369 1.59 2.49 3.122 2.491 3.407.001.284-1.343 2.039-2.987 3.9-6.808 7.702-11.443 14.195-16.385 22.953-.516.914-1.114 1.661-1.33 1.661-.217 0-.645-.357-.952-.794zm104.67-.144c-.387-.516-.869-1.264-1.071-1.661-.203-.397-1.408-2.34-2.677-4.316-4.512-7.024-9.267-13.14-14.386-18.506-1.44-1.51-2.62-2.923-2.62-3.14 0-.22 1.147-1.597 2.552-3.062 4.84-5.05 10.146-12.153 15.547-20.808 2.7-4.327 3.396-5.226 3.839-4.953.154.095 1.132 1.724 2.174 3.62 3.44 6.26 8.46 13.245 14.797 20.59 2.01 2.33 3.655 4.455 3.655 4.722 0 .268-1.153 1.742-2.562 3.276-5.415 5.894-10.429 12.647-14.619 19.688-3.74 6.283-3.505 6.053-4.63 4.55zM18.314 80.84c-1.602-2.618-5.037-7.157-6.407-8.465-.657-.628-1.195-1.322-1.195-1.541 0-.22.767-1.266 1.705-2.325 1.98-2.234 4.523-5.725 5.825-7.995 1.035-1.804 1.744-2.03 2.492-.791 1.55 2.567 4.39 6.585 6.034 8.536 1.043 1.24 1.896 2.365 1.896 2.501 0 .137-.902 1.292-2.006 2.568-1.986 2.297-4.102 5.263-5.647 7.916-.44.755-.981 1.372-1.205 1.372-.223 0-.895-.799-1.492-1.776zm-1.99-26.23c-2.673-.637-4.912-2.443-5.908-4.767-1.228-2.863-.886-3.914 1.274-3.914 1.466 0 1.87.292 2.896 2.093 1.018 1.786 2.122 2.362 4.546 2.375 1.624.01 2.113-.12 3.322-.865a7.484 7.484 0 0 0 2.294-2.287c.768-1.239.888-1.727.977-3.95.125-3.154-.444-5.056-2.026-6.767-2.455-2.658-6.005-2.386-8.823.675l-1.192 1.295-1.183-.663c-.65-.365-1.257-.854-1.346-1.087-.09-.233.032-2.52.271-5.082.24-2.562.495-5.361.568-6.22.073-.86.303-1.67.511-1.801.208-.132 3.468-.242 7.245-.244 6.495 0 6.883.026 7.167.554.408.762.379 2.714-.048 3.14-.245.243-1.903.346-5.61.346h-5.263l-.18.903c-.1.496-.182 1.355-.182 1.908 0 .84.084.974.507.81 4.095-1.58 9.14-.076 11.778 3.513 2.395 3.258 2.977 8.199 1.489 12.623-1.002 2.978-2.17 4.609-4.263 5.959-2.43 1.567-5.925 2.143-8.821 1.453zM5.383 21.45c-.415-.414-.146-1.231.406-1.231.375 0 .58.193.58.547 0 .549-.662 1.008-.986.685zm205.32-.268c-.399-.398-.172-.963.386-.963.386 0 .58.193.58.578 0 .557-.567.783-.966.385z" fill="#f2d1d0"/><path d="M0 157.44V0h217.76v314.88H0V157.44zm211.88 155.77c1.56-.831 3.003-2.271 3.718-3.71.552-1.11.562-3.422.634-151.58l.073-150.45-.611-1.416c-.342-.794-1.221-1.987-1.997-2.71-2.59-2.418 7.891-2.207-105.55-2.124l-101.05.074-1.483.78c-1.61.847-2.677 1.954-3.671 3.808l-.638 1.19-.073 149.92c-.067 135.52-.03 150.07.38 151.48.572 1.958 2.835 4.345 4.769 5.027 1.172.414 10.9.452 102.79.407l101.49-.05 1.223-.652zM7.15 306.022c-.231-.23.03-.682.395-.682.15 0 .273.195.273.433 0 .447-.342.574-.668.249zm-3.096-3.014c0-.413.155-.57.503-.502.755.145.839 1.1.097 1.1-.415 0-.6-.185-.6-.598zm185.29-10.881c-.24-.63-.164-2.494.111-2.725.033-.027 2.535-.125 5.561-.217l5.502-.166.086-1.95c.047-1.073.025-1.95-.049-1.95-.074 0-.947.207-1.939.46-3.437.88-7.145-.308-9.653-3.09-1.839-2.042-2.572-4.085-2.716-7.574-.102-2.453-.015-3.163.638-5.254 1.683-5.383 5.248-7.877 10.854-7.592 1.954.099 2.81.29 3.978.888 1.9.973 3.451 2.784 4.075 4.759.634 2.007.36 2.494-1.47 2.614-1.264.082-1.383.028-1.853-.85-.978-1.823-2.448-3.15-3.831-3.46-3.108-.694-6.139.688-7.674 3.5-.793 1.452-.866 1.824-.86 4.333.01 2.4.107 2.95.806 4.385 1.469 3.013 3.87 4.374 6.54 3.704 1.6-.4 2.952-1.197 3.856-2.269 1.031-1.222 1.307-1.293 2.403-.618.807.498 1.008.805 1.01 1.537 0 2.144-.977 11.635-1.237 11.965-.212.271-1.983.361-7.06.361h-6.776l-.302-.79zM54.913 277.39a555.12 555.12 0 0 1-2.647-4.261c-4.373-7.096-9.562-13.834-14.825-19.251-1.643-1.69-2.987-3.22-2.987-3.4 0-.18 1.303-1.704 2.894-3.389 5.374-5.687 9.963-11.989 17.495-24.027.43-.685.933-1.195 1.12-1.133.188.062 1.173 1.598 2.188 3.413 4.06 7.255 8.978 13.982 16.324 22.328 1.24 1.41 2.255 2.648 2.255 2.753 0 .104-.944 1.227-2.099 2.495-6.394 7.02-11.773 14.336-16.292 22.16-1.078 1.868-2.135 3.395-2.35 3.395-.213 0-.698-.487-1.077-1.083zm103.47-2.023c-5.506-9.084-11.827-17.353-17.494-22.883-.89-.868-1.618-1.759-1.618-1.979 0-.22 1.124-1.589 2.498-3.043 4.626-4.895 9.45-11.264 14.315-18.899 3.993-6.267 4.166-6.522 4.51-6.632.183-.058.953 1.038 1.711 2.436 3.848 7.088 9.907 15.44 17.036 23.48 1.054 1.189 1.917 2.337 1.917 2.552 0 .215-1.344 1.907-2.986 3.76-6.015 6.793-10.142 12.42-14.388 19.625-1.579 2.679-2.935 4.671-3.185 4.677-.248.01-1.241-1.32-2.316-3.094zm36.902-19.065c-1.286-2.218-3.987-5.848-5.89-7.916-.972-1.057-1.767-2.011-1.767-2.12 0-.108.861-1.193 1.914-2.41 1.052-1.218 2.97-3.807 4.261-5.753 1.292-1.946 2.503-3.539 2.692-3.539.189 0 .763.748 1.275 1.661 1.254 2.235 3.12 4.832 5.37 7.473 1.024 1.202 1.862 2.316 1.862 2.476 0 .16-.702 1.09-1.559 2.067-1.877 2.141-4.44 5.68-5.683 7.848-.5.872-1.082 1.585-1.294 1.585-.212 0-.744-.617-1.182-1.372zm-88.766-72.219c-5.428-9.033-10.774-16.155-17.004-22.652-1.804-1.88-2.628-2.942-2.479-3.191.124-.205 1.502-1.738 3.062-3.406 1.56-1.668 3.958-4.463 5.328-6.21 2.263-2.89 8.79-12.47 11.488-16.863.597-.973 1.249-1.769 1.447-1.767.199 0 1.208 1.53 2.242 3.394 3.563 6.425 8.438 13.205 14.842 20.642 2.052 2.383 3.664 4.48 3.584 4.662-.08.182-1.577 1.927-3.327 3.877-5.447 6.07-10.784 13.439-14.955 20.65-1.08 1.866-2.13 3.392-2.336 3.392-.206 0-1.057-1.137-1.892-2.528zM55.558 92.648c-.222-.225-1.554-2.289-2.96-4.587-4.688-7.664-9.571-14.068-15.18-19.91-1.632-1.7-2.968-3.187-2.968-3.303 0-.117 1.15-1.464 2.554-2.994 6.072-6.615 11.013-13.343 17.157-23.362.794-1.296 1.474-2.093 1.785-2.094.327 0 .82.627 1.415 1.803 3.188 6.31 9.183 14.748 16.162 22.749 1.652 1.893 2.901 3.582 2.906 3.927.005.333-.268.853-.606 1.155-1.344 1.205-6.115 6.823-8.807 10.372-3.155 4.16-6.245 8.802-8.703 13.076-1.994 3.467-2.212 3.718-2.755 3.167zm104.46-.283c-.225-.357-1.454-2.34-2.73-4.405-4.706-7.61-9.675-14.143-15.087-19.832-1.61-1.693-2.927-3.236-2.927-3.43 0-.193 1.018-1.408 2.261-2.7 5.443-5.651 10.258-12.116 16.54-22.207 1.306-2.1 2.293-3.394 2.587-3.393.298 0 .889.807 1.588 2.165 1.715 3.332 4.893 8.267 8.092 12.566 3.029 4.07 3.825 5.055 8.24 10.196 1.474 1.716 2.679 3.305 2.679 3.533 0 .227-1.178 1.696-2.617 3.265-6.217 6.776-11.497 14.191-17.366 24.388-.391.68-.77.637-1.26-.144zm-140.62-10.4c-.17-.198-1.203-1.726-2.297-3.394-1.094-1.668-2.916-4.043-4.048-5.278-1.132-1.234-2.058-2.412-2.058-2.618 0-.205.405-.755.9-1.222 1.224-1.152 3.907-4.68 5.876-7.725.894-1.382 1.807-2.512 2.03-2.512.222 0 .826.748 1.34 1.661 1.213 2.15 2.948 4.565 5.323 7.407 1.047 1.254 1.904 2.368 1.904 2.476 0 .109-.79 1.098-1.758 2.199-.966 1.1-2.864 3.659-4.218 5.684-1.353 2.026-2.511 3.683-2.574 3.683-.062 0-.252-.162-.42-.36zm-3.77-27.832c-2.744-.99-4.632-2.932-5.394-5.546-.56-1.918-.272-2.37 1.508-2.37 1.372 0 1.484.085 2.721 2.078 1.085 1.748 2.22 2.327 4.556 2.327 3.136 0 5.93-2.041 6.73-4.918.483-1.735.364-4.818-.255-6.572-1.8-5.113-6.542-6.216-10.505-2.446-1.418 1.35-1.513 1.393-2.252 1.011-1.534-.791-1.533-.785-1.013-6.989.264-3.148.596-6.016.738-6.374.257-.648.276-.65 7.033-.65 7.621 0 7.522-.028 7.37 2.073l-.09 1.25-5.5.144-5.503.144-.228 1.852c-.126 1.018-.123 1.957.006 2.086.129.129.883.033 1.676-.213 3.107-.963 7.105.137 9.524 2.62 5.536 5.683 3.704 17.088-3.238 20.152-1.859.82-6.055 1.002-7.884.342zM5.375 21.45c-.415-.414-.146-1.232.407-1.232.375 0 .579.193.579.547 0 .549-.661 1.009-.986.685zm205.32-.269c-.398-.397-.172-.963.387-.963.386 0 .579.193.579.578 0 .557-.567.783-.966.385z" fill="#d6d6d6"/><path d="M0 157.44V0h217.76v314.88H0V157.44zm209.57 156.89c.277-.145 1.09-.469 1.81-.72 1.793-.627 3.186-1.846 4.204-3.68l.86-1.548V6.802l-.654-1.22c-.886-1.654-2.471-3.18-4.087-3.932l-1.34-.625H7.382l-1.646.806c-1.864.913-3.224 2.313-4.115 4.235l-.61 1.314v300.44l.69 1.525c.91 2.007 3.038 3.908 5.187 4.634 1.618.546 3.667.558 101.92.594 59.857.022 100.47-.07 100.77-.227zm-20.227-22.194c-.24-.63-.164-2.494.112-2.725.033-.027 2.535-.125 5.56-.216l5.502-.167.086-1.95c.047-1.073.025-1.95-.049-1.95-.074 0-.946.207-1.939.46-3.437.88-7.144-.308-9.652-3.09-1.84-2.042-2.573-4.085-2.717-7.574-.101-2.453-.015-3.163.639-5.254 1.682-5.383 5.248-7.877 10.854-7.592 1.953.099 2.81.29 3.977.888 1.9.973 3.452 2.784 4.075 4.759.635 2.007.36 2.494-1.47 2.614-1.264.082-1.383.028-1.853-.85-.977-1.823-2.447-3.15-3.83-3.46-3.109-.694-6.14.688-7.674 3.5-.793 1.452-.867 1.824-.86 4.333.01 2.4.106 2.95.806 4.385 1.468 3.013 3.87 4.374 6.54 3.704 1.599-.4 2.952-1.197 3.856-2.268 1.031-1.223 1.306-1.294 2.402-.618.807.497 1.009.804 1.01 1.536 0 2.144-.977 11.635-1.236 11.965-.213.271-1.984.362-7.06.362h-6.777l-.302-.792zM54.913 277.4a555.12 555.12 0 0 1-2.647-4.26c-4.373-7.097-9.562-13.835-14.825-19.252-1.642-1.69-2.986-3.22-2.986-3.4 0-.18 1.302-1.704 2.894-3.389 5.374-5.687 9.962-11.989 17.495-24.027.429-.685.933-1.195 1.12-1.133.188.062 1.172 1.598 2.188 3.413 4.06 7.255 8.978 13.982 16.324 22.328 1.24 1.41 2.255 2.648 2.255 2.753 0 .104-.945 1.227-2.1 2.495-6.394 7.02-11.773 14.336-16.292 22.16-1.078 1.868-2.135 3.395-2.349 3.395-.214 0-.698-.487-1.077-1.083zm103.47-2.023c-5.506-9.084-11.827-17.353-17.494-22.883-.89-.868-1.618-1.759-1.618-1.979 0-.22 1.124-1.589 2.498-3.043 4.627-4.894 9.45-11.264 14.315-18.899 3.993-6.267 4.166-6.522 4.511-6.632.182-.058.952 1.038 1.71 2.436 3.848 7.088 9.908 15.44 17.037 23.48 1.054 1.189 1.916 2.337 1.916 2.552 0 .215-1.343 1.907-2.985 3.76-6.016 6.793-10.142 12.42-14.388 19.625-1.58 2.679-2.936 4.671-3.185 4.677-.248.01-1.242-1.32-2.316-3.094zm36.902-19.065c-1.286-2.217-3.987-5.848-5.889-7.916-.972-1.057-1.768-2.011-1.768-2.12 0-.108.861-1.193 1.914-2.41 1.052-1.218 2.97-3.807 4.262-5.753 1.291-1.946 2.502-3.539 2.691-3.539.19 0 .763.748 1.276 1.661 1.253 2.235 3.12 4.832 5.369 7.473 1.024 1.202 1.862 2.317 1.862 2.476 0 .16-.701 1.09-1.558 2.067-1.877 2.141-4.44 5.68-5.683 7.848-.5.872-1.083 1.585-1.295 1.585-.212 0-.743-.617-1.181-1.372zm-88.766-72.219c-5.427-9.033-10.774-16.155-17.004-22.652-1.803-1.88-2.628-2.942-2.478-3.191.124-.205 1.501-1.738 3.062-3.406 1.56-1.668 3.958-4.463 5.327-6.21 2.263-2.89 8.791-12.47 11.488-16.863.598-.973 1.25-1.769 1.448-1.767.198 0 1.207 1.53 2.241 3.394 3.563 6.425 8.438 13.205 14.842 20.642 2.052 2.383 3.665 4.48 3.585 4.662-.08.182-1.578 1.927-3.328 3.877-5.446 6.07-10.784 13.44-14.955 20.65-1.08 1.866-2.13 3.392-2.336 3.392-.205 0-1.057-1.137-1.892-2.527zM55.557 92.657c-.222-.225-1.554-2.289-2.96-4.587-4.688-7.664-9.57-14.068-15.18-19.91-1.632-1.7-2.967-3.186-2.967-3.303 0-.116 1.149-1.464 2.553-2.994 6.072-6.615 11.013-13.343 17.157-23.362.795-1.296 1.474-2.093 1.786-2.094.327 0 .82.627 1.414 1.803 3.189 6.31 9.183 14.748 16.162 22.749 1.652 1.893 2.902 3.582 2.906 3.927.005.333-.268.853-.606 1.156-1.344 1.204-6.114 6.822-8.807 10.372-3.155 4.159-6.245 8.801-8.703 13.076-1.993 3.466-2.211 3.717-2.755 3.166zm104.46-.283c-.225-.357-1.453-2.34-2.73-4.405-4.706-7.61-9.675-14.143-15.086-19.832-1.61-1.693-2.927-3.236-2.927-3.43 0-.193 1.017-1.408 2.26-2.7 5.444-5.651 10.259-12.116 16.54-22.207 1.307-2.1 2.293-3.394 2.587-3.393.298 0 .89.807 1.589 2.166 1.714 3.332 4.892 8.267 8.092 12.566 3.028 4.069 3.825 5.054 8.24 10.196 1.473 1.715 2.678 3.304 2.678 3.532 0 .227-1.177 1.696-2.617 3.265-6.216 6.776-11.497 14.191-17.366 24.388-.391.68-.77.637-1.26-.144zm-140.62-10.4c-.169-.198-1.202-1.726-2.297-3.394-1.094-1.668-2.916-4.043-4.048-5.277-1.132-1.235-2.058-2.413-2.058-2.619 0-.205.405-.755.9-1.222 1.224-1.152 3.908-4.68 5.877-7.725.893-1.381 1.806-2.512 2.029-2.512.222 0 .826.748 1.341 1.661 1.212 2.15 2.948 4.565 5.323 7.407 1.047 1.254 1.904 2.368 1.904 2.477 0 .108-.791 1.097-1.758 2.198-.967 1.1-2.865 3.659-4.218 5.684-1.353 2.026-2.512 3.684-2.574 3.684-.063 0-.252-.163-.421-.362zm-3.77-27.832c-2.743-.99-4.631-2.932-5.394-5.546-.56-1.918-.271-2.37 1.509-2.37 1.371 0 1.483.085 2.72 2.078 1.085 1.748 2.22 2.327 4.556 2.327 3.136 0 5.93-2.041 6.73-4.918.483-1.735.364-4.818-.254-6.572-1.801-5.113-6.543-6.216-10.505-2.446-1.419 1.35-1.513 1.393-2.252 1.012-1.534-.792-1.534-.786-1.014-6.99.264-3.148.596-6.016.738-6.374.257-.648.277-.65 7.034-.65 7.62 0 7.522-.028 7.37 2.073l-.09 1.25-5.501.144-5.502.144-.229 1.852c-.126 1.019-.123 1.957.006 2.086.13.129.884.033 1.677-.213 3.107-.963 7.105.137 9.524 2.62 5.536 5.683 3.703 17.088-3.238 20.152-1.86.82-6.056 1.002-7.885.342zM5.492 20.804a.29.29 0 0 1 .58 0 .29.29 0 0 1-.58 0z" fill="#eab0af"/><path d="M0 157.44V0h217.76v314.88H0V157.44zm209.57 156.89c.277-.145 1.09-.469 1.81-.72 1.793-.627 3.186-1.846 4.204-3.68l.86-1.548V6.802l-.654-1.22c-.886-1.654-2.471-3.18-4.087-3.932l-1.34-.625H7.382l-1.646.806c-1.864.913-3.224 2.313-4.115 4.235l-.61 1.314v300.44l.69 1.525c.91 2.007 3.038 3.908 5.187 4.634 1.618.546 3.667.558 101.92.594 59.857.022 100.47-.07 100.77-.227zm-20.084-22.094c-.085-.222-.114-.904-.063-1.517l.092-1.113 5.502-.145 5.501-.144.085-2.275c.076-2.027.033-2.254-.399-2.089-2.665 1.02-5.855.941-8.115-.201-2.05-1.036-4.205-3.48-5.061-5.737-.557-1.467-.694-2.376-.692-4.575.01-6.383 2.883-10.727 7.956-12.014 3.637-.923 7.375.01 9.572 2.387 1.378 1.492 2.011 2.837 2.011 4.274v1.02h-1.461c-1.339 0-1.503-.076-1.955-.903-1.407-2.577-2.78-3.434-5.479-3.424-4.767.018-7.892 4.356-7.021 9.743.87 5.387 4.919 8.054 9.116 6.005.882-.43 1.958-1.226 2.392-1.769.924-1.155 1.368-1.215 2.464-.334l.806.648-.561 5.977c-.309 3.287-.647 6.115-.751 6.283-.125.202-2.51.306-6.987.306-5.546 0-6.825-.074-6.951-.403zm-133.97-14.264c-.242-.274-1.372-2.027-2.513-3.895-4.969-8.137-9.902-14.618-15.574-20.463-1.48-1.524-2.69-2.932-2.69-3.128 0-.196 1.231-1.679 2.735-3.295 1.504-1.616 3.925-4.433 5.38-6.26 2.36-2.962 8.722-12.254 11.649-17.011.597-.972 1.222-1.766 1.389-1.766.166 0 .497.357.737.794 4.67 8.52 9.004 14.698 16.056 22.887 2.063 2.396 3.75 4.492 3.75 4.658 0 .167-1.103 1.495-2.451 2.953-5.375 5.809-12 14.881-15.913 21.791-.924 1.63-1.777 3.024-1.898 3.099-.12.074-.416-.09-.658-.364zm103.41-2.015c-5.47-9.094-11.394-16.925-17.579-23.24l-2.178-2.223 2.747-2.976c3.25-3.522 5.82-6.633 8.42-10.198 2.006-2.749 7.269-10.708 8.93-13.505.543-.914 1.136-1.661 1.318-1.661.181 0 1.149 1.462 2.15 3.25 3.975 7.102 10.5 15.97 17.125 23.278.768.847 1.397 1.65 1.397 1.786 0 .135-1.067 1.392-2.37 2.793-5.344 5.741-11.65 14.352-15.988 21.83-1.083 1.867-2.078 3.394-2.21 3.394-.133 0-.926-1.137-1.762-2.527zm36.348-19.932c-1.32-2.25-3.556-5.283-5.517-7.482-1.012-1.136-1.84-2.25-1.84-2.474 0-.224.408-.79.908-1.256 1.144-1.07 4.736-5.835 6.16-8.175.595-.975 1.243-1.774 1.441-1.774.198 0 .665.542 1.038 1.205 1.17 2.076 3.196 4.917 5.26 7.372 1.092 1.302 1.985 2.537 1.983 2.745 0 .208-.729 1.223-1.615 2.256-1.808 2.108-4.264 5.519-5.46 7.583-.437.754-.965 1.372-1.174 1.372-.208 0-.741-.618-1.184-1.372zm-89.682-73.663c-5.348-8.591-9.127-13.624-14.804-19.716-1.999-2.145-3.635-4.015-3.636-4.156-.001-.14.889-1.191 1.978-2.335 5.48-5.756 11.473-13.878 17.783-24.102.598-.969 1.25-1.757 1.448-1.751.199.01 1.466 1.95 2.816 4.324 3.612 6.346 8.296 12.75 14.894 20.365 1.515 1.747 2.759 3.339 2.765 3.536.01.198-.983 1.433-2.198 2.745-5.34 5.766-11.741 14.499-15.885 21.668-1.08 1.867-2.125 3.394-2.325 3.394-.2 0-1.475-1.787-2.835-3.972zM53.042 88.49c-4.744-7.754-9.036-13.457-14.822-19.698-1.915-2.065-3.481-3.912-3.481-4.104 0-.191 1.146-1.53 2.547-2.976 4.619-4.766 9.068-10.683 14.9-19.816 1.877-2.94 3.552-5.344 3.723-5.344.17 0 1.027 1.3 1.903 2.888 3.485 6.32 9.094 14.097 15.522 21.521 1.582 1.828 2.938 3.479 3.015 3.67.076.191-1.277 1.946-3.007 3.9-6.47 7.308-10.45 12.858-16.107 22.454-.508.863-1.072 1.616-1.252 1.674-.18.057-1.503-1.819-2.941-4.17zm106.98 3.616c-.231-.367-1.48-2.382-2.774-4.477-4.58-7.41-9.487-13.815-14.713-19.203-1.797-1.853-3.268-3.446-3.268-3.54 0-.094 1.187-1.438 2.638-2.987 5.103-5.448 9.645-11.522 15.32-20.49 1.676-2.648 3.192-4.862 3.37-4.921.178-.06 1.003 1.166 1.834 2.722 3.15 5.903 8.807 13.827 14.911 20.884 1.855 2.145 3.496 4.123 3.648 4.395.22.396-.137.943-1.793 2.744-6.094 6.627-12.012 14.743-16.687 22.883-.77 1.34-1.549 2.485-1.732 2.546-.184.06-.523-.19-.754-.557zM18.482 80.395c-1.196-2.085-4.789-6.84-6.16-8.152-.573-.547-1.041-1.17-1.041-1.382 0-.213.86-1.39 1.913-2.615 1.052-1.226 2.88-3.686 4.063-5.468 1.182-1.78 2.27-3.312 2.417-3.403.147-.091.448.131.667.494 1.847 3.048 3.299 5.129 5.344 7.659 1.315 1.625 2.39 3.13 2.39 3.344 0 .213-.34.703-.754 1.089-1.116 1.035-4.834 6.026-6.103 8.192-.608 1.037-1.26 1.888-1.447 1.89-.187 0-.767-.738-1.289-1.648zM16.9 54.325c-3.723-.787-6.44-3.438-6.576-6.414l-.057-1.249 1.485-.086 1.484-.086.888 1.57c1.098 1.94 2.624 2.791 5.01 2.791 5.44 0 8.588-5.774 6.477-11.882-.574-1.658-2.256-3.662-3.517-4.187-2.338-.975-5.432-.145-7.403 1.985l-1.116 1.205-1.002-.539c-.931-.5-1.003-.638-1.003-1.933 0-1.599.817-10.609 1.011-11.153.098-.275 1.786-.361 7.103-.361h6.973l-.087 1.517-.088 1.516-5.501.145-5.502.144-.085 2.239c-.046 1.231-.03 2.239.036 2.239.067 0 .675-.195 1.352-.434 1.417-.498 4.29-.565 5.843-.135 1.598.443 3.707 1.98 4.94 3.602 1.45 1.906 2.247 4.51 2.247 7.336 0 5.66-2.738 10.301-6.917 11.723-1.632.556-4.48.768-5.995.448zM5.489 20.808a.29.29 0 0 1 .58 0 .29.29 0 0 1-.58 0z" fill="#b4b4b4"/><path d="M0 157.44V0h217.76v314.88H0V157.44zm211.67 156.25c1.909-.904 3.489-2.434 4.398-4.26l.67-1.34V7.37l-.691-1.526c-.85-1.875-3.016-3.886-4.865-4.514-1.227-.417-10.76-.46-102.6-.46H7.332l-1.772.883c-2.009 1.002-3.034 2.075-4.014 4.2L.868 7.425l.073 150.48.073 150.48.722 1.409c.948 1.852 2.839 3.476 4.874 4.185 1.627.567 2.63.572 102.56.522l100.91-.05 1.592-.754zm-22.18-21.458c-.085-.222-.114-.904-.063-1.517l.092-1.113 5.502-.145 5.501-.144.085-2.275c.076-2.027.033-2.254-.399-2.089-2.665 1.02-5.855.941-8.115-.201-2.05-1.036-4.205-3.48-5.061-5.737-.557-1.467-.694-2.376-.692-4.575.01-6.383 2.883-10.727 7.956-12.014 3.637-.923 7.375.01 9.572 2.387 1.378 1.492 2.011 2.837 2.011 4.274v1.02h-1.461c-1.339 0-1.503-.076-1.955-.903-1.407-2.577-2.78-3.434-5.479-3.424-4.767.018-7.893 4.356-7.022 9.743.871 5.387 4.92 8.054 9.117 6.005.882-.43 1.958-1.226 2.392-1.769.924-1.155 1.368-1.215 2.464-.334l.806.648-.561 5.977c-.309 3.287-.647 6.115-.751 6.283-.125.202-2.51.306-6.987.306-5.547 0-6.825-.074-6.952-.403zM55.52 277.968c-.242-.274-1.372-2.027-2.513-3.895-4.969-8.137-9.902-14.618-15.574-20.463-1.48-1.524-2.69-2.932-2.69-3.128 0-.196 1.231-1.679 2.735-3.295 1.504-1.616 3.925-4.433 5.38-6.26 2.36-2.962 8.722-12.254 11.649-17.011.597-.972 1.222-1.766 1.388-1.766.167 0 .498.357.738.794 4.67 8.52 9.004 14.698 16.056 22.887 2.063 2.396 3.75 4.492 3.75 4.658 0 .167-1.103 1.495-2.451 2.953-5.375 5.809-12 14.881-15.913 21.791-.924 1.63-1.777 3.024-1.898 3.099-.12.074-.416-.09-.658-.364zm103.41-2.015c-5.47-9.094-11.394-16.925-17.579-23.24l-2.178-2.223 2.747-2.976c3.25-3.522 5.82-6.633 8.42-10.198 2.006-2.749 7.269-10.708 8.93-13.505.543-.914 1.136-1.661 1.318-1.661.181 0 1.149 1.462 2.15 3.25 3.975 7.102 10.5 15.97 17.125 23.278.768.847 1.397 1.65 1.397 1.786 0 .135-1.067 1.392-2.37 2.793-5.344 5.741-11.65 14.352-15.988 21.83-1.083 1.867-2.078 3.394-2.21 3.394-.133 0-.926-1.137-1.762-2.527zm36.348-19.932c-1.32-2.25-3.556-5.283-5.517-7.482-1.012-1.136-1.84-2.25-1.84-2.474 0-.224.408-.79.908-1.256 1.144-1.07 4.736-5.835 6.16-8.175.595-.975 1.243-1.774 1.441-1.774.198 0 .665.542 1.038 1.205 1.17 2.076 3.196 4.917 5.26 7.372 1.092 1.302 1.985 2.537 1.983 2.745 0 .208-.729 1.223-1.615 2.256-1.808 2.108-4.264 5.519-5.46 7.583-.437.754-.965 1.372-1.174 1.372-.208 0-.741-.618-1.184-1.372zm-89.682-73.663c-5.348-8.591-9.127-13.624-14.804-19.716-1.999-2.145-3.635-4.015-3.636-4.156-.001-.14.889-1.191 1.978-2.335 5.48-5.756 11.473-13.878 17.783-24.102.598-.969 1.25-1.757 1.448-1.751.199.01 1.466 1.95 2.816 4.324 3.612 6.346 8.296 12.75 14.894 20.365 1.515 1.748 2.759 3.339 2.765 3.536.01.198-.983 1.433-2.198 2.745-5.34 5.766-11.741 14.499-15.885 21.668-1.08 1.867-2.125 3.394-2.325 3.394-.2 0-1.475-1.787-2.835-3.972zm-52.55-93.872c-4.744-7.754-9.036-13.457-14.822-19.698-1.915-2.065-3.481-3.912-3.481-4.104 0-.191 1.146-1.53 2.547-2.976 4.619-4.766 9.068-10.683 14.9-19.816 1.877-2.94 3.552-5.344 3.722-5.344.171 0 1.027 1.3 1.904 2.888 3.485 6.32 9.094 14.097 15.522 21.521 1.581 1.828 2.938 3.479 3.014 3.67.077.191-1.276 1.946-3.006 3.9-6.47 7.308-10.45 12.858-16.107 22.454-.508.863-1.072 1.616-1.252 1.674-.18.057-1.503-1.819-2.941-4.17zm106.98 3.616c-.231-.367-1.48-2.382-2.774-4.477-4.58-7.41-9.487-13.815-14.713-19.203-1.797-1.853-3.268-3.446-3.268-3.54 0-.094 1.187-1.438 2.638-2.987 5.103-5.448 9.645-11.522 15.32-20.49 1.676-2.648 3.192-4.862 3.37-4.921.178-.06 1.003 1.166 1.834 2.722 3.15 5.903 8.807 13.827 14.911 20.884 1.855 2.145 3.496 4.123 3.648 4.395.22.396-.137.943-1.793 2.744-6.094 6.627-12.012 14.743-16.687 22.883-.77 1.34-1.549 2.485-1.732 2.546-.184.06-.523-.19-.754-.557zM18.486 80.391c-1.196-2.085-4.789-6.84-6.16-8.152-.573-.547-1.041-1.17-1.041-1.382 0-.213.86-1.39 1.913-2.615 1.052-1.226 2.88-3.686 4.063-5.468 1.182-1.78 2.27-3.312 2.417-3.403.147-.091.448.131.667.494 1.847 3.048 3.299 5.129 5.344 7.659 1.315 1.625 2.39 3.13 2.39 3.344 0 .213-.34.703-.754 1.089-1.116 1.035-4.834 6.026-6.103 8.192-.608 1.037-1.26 1.888-1.447 1.89-.187 0-.767-.738-1.289-1.648zm-1.582-26.07c-3.723-.787-6.44-3.438-6.576-6.414l-.057-1.249 1.485-.086 1.484-.086.888 1.57c1.098 1.94 2.624 2.791 5.01 2.791 5.44 0 8.588-5.774 6.477-11.882-.574-1.658-2.256-3.662-3.517-4.187-2.338-.975-5.432-.145-7.403 1.985l-1.116 1.205-1.002-.539c-.931-.5-1.003-.638-1.003-1.933 0-1.599.817-10.609 1.011-11.153.098-.275 1.786-.361 7.103-.361h6.973l-.087 1.517-.088 1.516-5.501.145-5.502.144-.085 2.239c-.046 1.231-.03 2.239.036 2.239.067 0 .675-.195 1.352-.434 1.417-.498 4.29-.565 5.843-.135 1.598.443 3.707 1.98 4.94 3.602 1.45 1.906 2.247 4.51 2.247 7.336 0 5.66-2.738 10.301-6.917 11.723-1.632.556-4.48.768-5.995.448z" fill="#e49090"/><path d="M0 157.44V0h217.76v314.88H0V157.44zm211.67 156.25c1.909-.904 3.489-2.434 4.398-4.26l.67-1.34V7.37l-.691-1.526c-.85-1.875-3.016-3.886-4.865-4.514-1.227-.417-10.76-.46-102.6-.46H7.332l-1.772.883c-2.009 1.002-3.034 2.075-4.014 4.2L.868 7.425l.073 150.48.073 150.48.722 1.409c.948 1.852 2.839 3.476 4.874 4.185 1.627.567 2.63.572 102.56.522l100.91-.05 1.592-.754zm-21.949-21.402c-.191-.19-.347-.75-.347-1.242 0-1.528.229-1.589 5.96-1.589 5.215 0 5.267-.01 5.44-.65.303-1.128.206-3.972-.135-3.972-.175 0-1.046.211-1.935.469-3.214.932-7.151-.252-9.514-2.86-4.392-4.851-3.493-14.672 1.686-18.415 2.709-1.957 7.236-2.406 10.273-1.02.928.425 1.994 1.056 2.368 1.405 1.143 1.065 2.1 2.967 2.16 4.296l.057 1.248-1.362.087c-1.316.085-1.38.05-1.929-1.011-1.28-2.48-2.556-3.29-5.182-3.3-3.215-.01-5.256 1.188-6.648 3.9-.635 1.236-.763 1.882-.782 3.934-.028 2.965.568 4.892 2.043 6.611 1.36 1.586 2.343 2.056 4.3 2.056 2.078 0 3.27-.513 5.05-2.175l1.44-1.342.883.52c.773.456.884.681.884 1.795 0 1.494-.833 10.711-1.015 11.24-.176.508-13.186.522-13.694.014zm-136.31-17.78c-4.669-7.672-9.105-13.6-14.831-19.815-2.026-2.2-3.723-4.105-3.772-4.235-.048-.129.882-1.254 2.067-2.5 5.6-5.888 10.783-12.862 16.98-22.848 1.01-1.628 1.935-2.96 2.054-2.96.12 0 .826 1.124 1.571 2.498 3.817 7.043 9.18 14.47 16.434 22.76 1.394 1.592 2.53 2.962 2.525 3.045-.005.083-1.489 1.806-3.299 3.83-5.63 6.293-11.286 14.103-15.079 20.825-.955 1.693-1.888 3.08-2.073 3.081-.184 0-1.344-1.654-2.577-3.68zm106.36 2.619c-7.462-12.027-11.089-16.91-17.365-23.372-1.557-1.603-2.83-3.105-2.83-3.336 0-.231.536-.934 1.193-1.562 3.281-3.14 8.897-10.174 12.904-16.164 1.972-2.949 3.08-4.672 6.37-9.914.548-.874.927-.56 2.14 1.772 3.184 6.119 8.629 13.737 15.709 21.982 1.7 1.98 3.09 3.75 3.09 3.932 0 .183-1.076 1.524-2.392 2.98a128.7 128.7 0 0 0-16.064 22.125c-.769 1.339-1.55 2.485-1.734 2.546-.185.062-.644-.384-1.02-.99zm35.536-21.333c-1.657-2.608-4.862-6.782-6.192-8.066-.65-.628-1.183-1.247-1.183-1.376 0-.128.88-1.27 1.954-2.537 1.075-1.267 2.941-3.767 4.146-5.557 1.206-1.79 2.3-3.254 2.43-3.254.132 0 .883 1.036 1.67 2.302 1.23 1.976 2.924 4.237 5.999 8.002.798.977.898.742-1.526 3.597-.928 1.093-2.455 3.157-3.393 4.587-.938 1.43-1.954 2.92-2.258 3.313l-.552.712-1.095-1.723zm-87.712-70.401c-5.133-8.85-11.549-17.52-17.606-23.795-1.925-1.994-2.8-3.1-2.649-3.35.124-.206 1.502-1.739 3.063-3.407 4.786-5.117 10.348-12.686 15.873-21.601 1.011-1.632 1.98-2.923 2.15-2.867.171.056 1.01 1.391 1.865 2.968 3.285 6.058 8.634 13.475 15.154 21.013 1.899 2.195 3.412 4.099 3.362 4.232-.05.132-1.393 1.7-2.986 3.483-5.916 6.624-10.737 13.299-15.734 21.786-.742 1.261-1.484 2.335-1.648 2.386-.164.051-.543-.33-.844-.848zm-52.388-93.6a1548.82 1548.82 0 0 1-2.763-4.458c-4.523-7.32-9.294-13.55-14.578-19.034-1.712-1.778-3.112-3.323-3.112-3.433 0-.111 1.272-1.589 2.827-3.284 5.759-6.28 10.457-12.7 16.949-23.161.604-.974 1.253-1.72 1.442-1.657.189.063 1.164 1.58 2.168 3.37 3.507 6.261 8.162 12.717 14.66 20.333 2.008 2.353 3.65 4.347 3.65 4.43 0 .083-.757.953-1.682 1.932-6.395 6.766-13.105 15.996-17.727 24.385-.76 1.38-1.236 1.53-1.834.578zm103.94-1.305c-4.804-8.268-12.544-18.483-18.1-23.888-.81-.788-1.474-1.575-1.474-1.748 0-.173 1.077-1.478 2.393-2.9 5.876-6.347 11.12-13.464 16.862-22.887.796-1.306 1.599-2.374 1.784-2.374.185 0 .95 1.137 1.702 2.528 3.537 6.546 10.401 15.939 17.356 23.752.72.809 1.31 1.637 1.31 1.84 0 .202-1.055 1.53-2.345 2.95-6.068 6.684-12.846 16.074-16.542 22.919-.52.965-1.143 1.754-1.382 1.753-.239 0-.942-.876-1.564-1.945zM17.457 78.65c-1.134-1.708-2.985-4.143-4.113-5.412-1.128-1.27-2.05-2.447-2.05-2.618 0-.171.408-.693.908-1.16 1.144-1.069 4.736-5.834 6.16-8.174.595-.975 1.19-1.774 1.325-1.774.134 0 1.216 1.463 2.403 3.25 1.188 1.788 3.023 4.276 4.078 5.53 1.056 1.253 1.918 2.358 1.916 2.455-.002.097-.786 1.086-1.742 2.198-1.835 2.134-4.795 6.291-5.606 7.872-.265.516-.647.939-.85.939-.201 0-1.295-1.398-2.43-3.106zm-2.234-24.904c-2.56-1.027-4.746-3.72-4.88-6.012l-.063-1.076 1.38-.088c1.29-.082 1.412-.028 1.882.83 1.447 2.647 2.704 3.446 5.42 3.446 3.051 0 4.873-1.05 6.451-3.721 1.518-2.57 1.132-7.487-.808-10.3-2.296-3.33-6.25-3.51-9.621-.437l-1.564 1.427-.919-.558c-.595-.361-.918-.787-.92-1.211-.001-.99.875-10.67 1.035-11.42l.139-.655 6.87.077 6.87.078v1.288c0 1.237-.04 1.297-1.013 1.51-.558.124-3.007.21-5.443.195-2.436-.016-4.48.022-4.543.085-.19.188-.25 4.284-.067 4.467.094.093.85-.056 1.682-.332 2.025-.67 4.89-.441 6.849.55 1.938.979 4.224 3.533 4.989 5.57 2.288 6.102-.314 13.765-5.459 16.076-1.963.883-6.317.994-8.267.212z" fill="#e07d81"/><path d="M0 157.44V0h217.76v314.88H0V157.44zm211.67 156.25c1.909-.904 3.489-2.434 4.398-4.26l.67-1.34V7.37l-.691-1.526c-.85-1.875-3.016-3.886-4.865-4.514-1.227-.417-10.76-.46-102.6-.46H7.332l-1.772.883c-2.009 1.002-3.034 2.075-4.014 4.2L.868 7.425l.073 150.48.073 150.48.722 1.409c.948 1.852 2.839 3.476 4.874 4.185 1.627.567 2.63.572 102.56.522l100.91-.05 1.592-.754zm-21.885-21.338c-.156-.155-.233-.805-.172-1.444l.11-1.162h5.11c2.81 0 5.302-.126 5.537-.274.298-.188.462-.936.539-2.451.125-2.48.029-2.557-2.22-1.765-1.954.687-4.578.405-6.695-.721-2.062-1.097-3.422-2.607-4.554-5.06-.632-1.37-.814-2.254-.912-4.412-.362-8.03 4.11-13.115 11.172-12.698 2.383.14 4.603.92 5.79 2.033 1.122 1.051 2.132 3.058 2.19 4.347l.053 1.217h-1.279c-1.206 0-1.337-.082-2.296-1.445-1.695-2.405-2.17-2.7-4.588-2.85-2.19-.135-4.266.62-5.643 2.054-1.742 1.814-2.068 2.748-2.095 5.996-.022 2.617.053 3.047.8 4.563.972 1.975 2.403 3.453 3.739 3.862.55.168 1.7.207 2.687.091 1.861-.219 3.204-.952 4.642-2.536l.848-.935.977.6.977.601-.189 2.655c-.252 3.543-.791 9.21-.92 9.66-.129.451-13.159.527-13.608.079zm-134.99-15.588c-.515-.785-.936-1.497-.936-1.583 0-.315-3.693-5.96-6.285-9.607-3.308-4.654-6.049-7.923-10.724-12.789-1.153-1.2-2.097-2.246-2.099-2.326 0-.079 1.049-1.25 2.334-2.6 1.983-2.085 5.918-6.807 8.305-9.969.979-1.296 7.633-11.288 8.905-13.37.61-1.001 1.236-1.897 1.39-1.992.336-.207.961.58 1.934 2.437 2.072 3.954 6.623 10.726 10.122 15.064a704.04 704.04 0 0 1 3.057 3.812c.478.604 1.878 2.265 3.113 3.691 1.234 1.426 2.244 2.774 2.244 2.996 0 .222-.565.98-1.255 1.684-1.41 1.438-5.062 5.737-7.471 8.792-2.746 3.482-9.806 14.134-9.806 14.794 0 .35-1.434 2.393-1.68 2.393-.116 0-.633-.642-1.148-1.427zm104.02-1.245c-3.978-6.52-8.988-13.7-11.337-16.25a27.478 27.478 0 0 1-1.205-1.443c-.37-.477-1.949-2.188-3.51-3.803-1.56-1.614-2.928-3.082-3.04-3.262-.115-.187.643-1.254 1.778-2.5 3.29-3.615 4.947-5.564 6.607-7.774a90.385 90.385 0 0 1 1.212-1.583c1.058-1.318 2.554-3.454 4.853-6.933l3.34-5.055c.42-.636 1.21-1.907 1.757-2.825.58-.977 1.164-1.636 1.407-1.589.228.044.93 1.056 1.561 2.247 2.122 4.008 5.547 9.268 8.248 12.664.674.849 1.23 1.629 1.233 1.733 0 .105.427.67.94 1.257.515.587 1.652 1.936 2.528 2.998a300.042 300.042 0 0 0 3.692 4.36c1.154 1.336 2.1 2.55 2.1 2.698 0 .248-2.243 2.946-3.001 3.61-.48.422-2.222 2.439-3.226 3.737a77.597 77.597 0 0 1-1.974 2.418c-.608.711-1.322 1.633-1.586 2.047-.264.415-.551.819-.638.898-.087.08-.416.517-.73.972-.316.455-.964 1.38-1.442 2.056-1.554 2.2-3.594 5.324-4.2 6.433a55.878 55.878 0 0 1-1.31 2.239 50.489 50.489 0 0 0-1.302 2.239c-.32.596-.705 1.083-.854 1.083-.149 0-1.004-1.202-1.9-2.672zm36.701-19.436c-2.123-3.43-6.387-8.902-7.171-9.202-.68-.26-.485-.867.618-1.927 1.13-1.086 4.706-5.875 6.19-8.29.512-.833 1.088-1.516 1.28-1.516.19 0 .831.84 1.423 1.867.592 1.027 2.38 3.496 3.971 5.487 1.592 1.99 2.895 3.73 2.895 3.865 0 .136-.279.494-.619.797-.993.884-3.499 4.108-5.255 6.76-2.684 4.055-2.309 3.812-3.332 2.159zm-87.92-70.691c-1.327-2.311-5.884-9.455-6.954-10.902a704.3 704.3 0 0 1-2.092-2.843c-2.729-3.735-4.765-6.117-8.703-10.182-1.319-1.36-2.398-2.635-2.398-2.831 0-.282 3.093-3.973 4.782-5.707.284-.292 1.138-1.327 2.922-3.542 3.306-4.104 9.398-13.017 12.118-17.728.436-.754.902-1.372 1.037-1.372.214 0 2.885 4.463 2.885 4.821 0 .323 5.128 7.983 6.926 10.345a100.251 100.251 0 0 0 2.974 3.777c.527.647 1.415 1.741 1.972 2.431 1.63 2.019 2.65 3.195 4.309 4.968 1.765 1.888 1.773 1.815-.42 4.135-1.48 1.565-5.647 6.466-7.66 9.01-1.14 1.438-7.27 10.588-8.095 12.079-1.546 2.799-2.489 4.293-2.765 4.383-.164.054-.541-.325-.838-.843zM54.271 90.205c-2.34-3.83-2.56-4.177-4.748-7.439-3.986-5.946-7.911-10.765-13.003-15.964-.974-.995-1.772-1.91-1.772-2.034 0-.124.597-.804 1.327-1.513 2.337-2.27 6.553-7.258 8.63-10.212.458-.652.927-1.252 1.04-1.331.114-.08 1.38-1.9 2.813-4.044 2.493-3.73 3.043-4.575 5.884-9.036.686-1.078 1.38-1.915 1.543-1.86.283.093 1.326 1.834 2.98 4.974a32.766 32.766 0 0 0 1.548 2.6c.433.635.97 1.436 1.193 1.78 2.877 4.424 6.33 8.886 11.215 14.492 1.326 1.522 2.665 3.123 2.975 3.557.548.768.549.804.028 1.313-2.718 2.653-7.972 9.011-11.415 13.812-2.312 3.222-7.464 11.487-7.464 11.973 0 .247-.973 1.17-1.233 1.17-.095 0-.789-1.007-1.541-2.238zm105.16.722c-.94-1.69-2.736-4.53-4.793-7.583-2.072-3.075-2.653-3.897-4.066-5.746a462.79 462.79 0 0 1-1.865-2.455c-1.299-1.732-5.177-6.094-7.085-7.968-1.128-1.108-2.048-2.148-2.045-2.311 0-.163.864-1.207 1.915-2.319 2.711-2.871 5.068-5.608 6.51-7.56a115.1 115.1 0 0 1 1.48-1.973c1.006-1.238 3.34-4.551 4.987-7.077 1.087-1.669 2.19-3.359 2.452-3.756.262-.397 1.123-1.794 1.914-3.105.791-1.311 1.578-2.383 1.748-2.383.17 0 .578.487.906 1.083l1.548 2.816c1.704 3.107 5.72 9.078 7.81 11.617.16.193.599.805.977 1.36.795 1.17 3.357 4.271 6.766 8.192 1.314 1.511 2.386 2.891 2.382 3.067 0 .175-.803 1.164-1.778 2.197-.974 1.033-2.307 2.539-2.962 3.346a354.76 354.76 0 0 1-2.637 3.206c-.797.955-1.615 1.984-1.82 2.286-.203.303-1.22 1.72-2.257 3.15-1.84 2.536-2.132 2.961-3.464 5.056-.353.556-1.227 1.92-1.94 3.033-.714 1.112-1.674 2.766-2.134 3.675-.46.91-1.032 1.657-1.27 1.66-.24 0-.815-.674-1.279-1.508zM17.301 78.36c-1.237-1.866-2.726-3.913-3.308-4.549a427.763 427.763 0 0 0-1.91-2.07l-.852-.915 2.434-2.985c1.34-1.642 3.211-4.185 4.16-5.653.949-1.467 1.807-2.67 1.907-2.672.1 0 1.1 1.413 2.222 3.144 1.866 2.878 5.057 6.97 5.618 7.203.612.256.071 1.425-1.534 3.315-1.75 2.06-5.764 7.863-5.764 8.333 0 .876-1.021-.207-2.973-3.151zm-1.835-24.621c-2.227-.728-4.13-2.629-4.876-4.869-.666-2.001-.496-2.358 1.127-2.358 1.217 0 1.345.074 1.866 1.083.871 1.687 2.31 2.889 3.874 3.237 4.722 1.05 8.888-2.488 8.895-7.556.004-2.81-.473-4.608-1.681-6.326-1.47-2.093-3.14-2.967-5.218-2.733-1.951.219-3.04.765-4.68 2.349l-1.303 1.258-.97-.613-.97-.614.172-2.048c.475-5.658.82-9.334.933-9.924l.125-.656 6.87.077 6.87.078.092 1.122c.05.616-.05 1.264-.225 1.438-.206.205-2.145.32-5.504.33-2.852.01-5.276.102-5.387.212-.11.11-.226 1.18-.257 2.377-.062 2.43-.062 2.43 1.906 1.719 1.668-.602 4.57-.356 6.657.565 1.819.803 3.991 2.976 4.835 4.836 1.53 3.375 1.38 8.22-.369 11.955-1.071 2.29-2.22 3.488-4.44 4.63-2.11 1.085-5.762 1.274-8.342.43z" fill="#de827d"/><path d="M0 157.44V0h217.76v314.88H0V157.44zm211.67 156.25c1.909-.904 3.489-2.434 4.398-4.26l.67-1.34V7.37l-.691-1.526c-.85-1.875-3.016-3.886-4.865-4.514-1.227-.417-10.76-.46-102.6-.46H7.332l-1.772.883c-2.009 1.002-3.034 2.075-4.014 4.2L.868 7.425l.073 150.48.073 150.48.722 1.409c.948 1.852 2.839 3.476 4.874 4.185 1.627.567 2.63.572 102.56.522l100.91-.05 1.592-.754zm-21.814-21.248c-.106-.106-.193-.756-.193-1.444v-1.252h5.086c2.953 0 5.322-.126 5.647-.3.475-.253.56-.618.56-2.406 0-1.16-.077-2.185-.171-2.28-.094-.093-.713.034-1.376.282-.665.25-2.118.455-3.247.458-3.732.012-6.872-2.108-8.617-5.819-.772-1.643-.921-2.332-1.019-4.724-.31-7.596 3.895-12.654 10.52-12.654 4.557 0 7.969 2.518 8.693 6.414.18.975.134 1.087-.526 1.252-1.436.36-2.037.043-3.17-1.667-1.4-2.112-2.387-2.637-4.997-2.653-2.251-.014-3.393.432-5.02 1.958-1.764 1.655-2.2 2.86-2.21 6.106-.01 2.522.087 3.094.747 4.497 1.523 3.24 4.07 4.736 6.939 4.075 1.622-.373 3.5-1.515 4.17-2.534.544-.829 1.298-.885 2.191-.164l.656.53-.517 5.898c-.285 3.244-.646 6.06-.804 6.259-.214.27-1.919.36-6.718.36-3.537 0-6.518-.086-6.624-.192zm-135.99-17.314c-5.379-8.914-10.828-16.084-17.032-22.407l-2.174-2.216 2.681-2.892c4.245-4.578 7.864-9.256 12.126-15.674 2.175-3.275 4.444-6.752 5.042-7.728.598-.975 1.211-1.773 1.363-1.773.152 0 .625.618 1.051 1.372 4.95 8.765 9.485 15.114 16.68 23.358 1.402 1.606 2.55 3.118 2.55 3.36 0 .24-.213.614-.473.83-.76.629-5.306 5.924-7.909 9.212-2.743 3.464-7.619 10.698-9.918 14.713-.858 1.498-1.69 2.767-1.848 2.82-.158.053-1.121-1.286-2.14-2.975zm105.07.536c-4.904-8.157-10.034-15.072-15.802-21.301l-3.626-3.916 1.985-2.178c3.617-3.97 5.33-6.01 7.812-9.3 2.325-3.082 7.813-11.258 9.975-14.862.546-.91 1.14-1.657 1.321-1.661.182 0 1.094 1.384 2.027 3.086 3.661 6.674 9.037 14.024 16.382 22.4 1.081 1.233 1.965 2.371 1.965 2.53 0 .16-.925 1.287-2.057 2.505-5.914 6.362-12.644 15.638-16.888 23.274-.596 1.072-1.194 1.95-1.33 1.95-.134 0-.928-1.138-1.764-2.528zm36.375-19.882c-1.314-2.238-3.184-4.78-5.346-7.27l-2.067-2.381 1.275-1.375c1.571-1.693 4.41-5.514 5.835-7.856.587-.963 1.232-1.75 1.434-1.75.202 0 .721.648 1.154 1.44.931 1.708 3.74 5.542 5.774 7.884l1.45 1.669-.557.682-2.532 3.097c-1.086 1.328-2.638 3.488-3.447 4.799-.81 1.31-1.635 2.383-1.834 2.383-.2 0-.712-.595-1.139-1.322zM107.208 184.6c-6.447-10.488-10.91-16.498-16.648-22.422-1.712-1.767-3.113-3.373-3.113-3.567 0-.195 1.26-1.74 2.8-3.435 5.158-5.673 8.744-10.463 14.043-18.756 1.7-2.659 3.336-5.145 3.637-5.525l.548-.69 1.72 3.134c3.336 6.081 8.788 13.672 14.807 20.62 4.444 5.128 4.167 4.314 2.194 6.432-5.999 6.442-12.56 15.372-16.894 22.99-.84 1.477-1.636 2.753-1.769 2.835-.132.082-.729-.646-1.325-1.616zM52.855 87.884c-4.702-7.655-9.151-13.486-15.446-20.244l-2.695-2.894 2.652-2.833c5.128-5.479 9.363-11.123 14.968-19.949 1.841-2.9 3.442-5.272 3.558-5.272.115 0 1.028 1.463 2.028 3.25 3.844 6.873 9.154 14.134 16.269 22.245 1.08 1.232 1.964 2.402 1.963 2.6-.001.198-1.057 1.53-2.345 2.96-5.657 6.28-10.356 12.613-14.666 19.77-1.573 2.61-2.997 4.794-3.165 4.85-.168.055-1.572-1.962-3.121-4.483zm107.18 3.929c-.231-.367-1.48-2.382-2.774-4.477-4.558-7.375-9.387-13.675-14.636-19.098-2.344-2.42-3.1-3.377-2.896-3.662.152-.213 1.452-1.666 2.89-3.23 5.034-5.476 9.26-11.157 14.669-19.72 1.648-2.61 3.136-4.79 3.308-4.848.171-.057.95 1.096 1.73 2.56 3.652 6.863 7.797 12.507 17.917 24.396.61.716.778 1.119.58 1.39-.154.211-1.762 2.057-3.574 4.103-5.179 5.848-10.548 13.296-14.44 20.03-.96 1.663-1.883 3.068-2.05 3.124-.167.055-.493-.2-.724-.567zM18.525 80.152c-1.194-2.082-3.832-5.614-5.756-7.706l-1.522-1.656 2.363-2.822c1.299-1.552 3.166-4.088 4.15-5.636.983-1.547 1.866-2.815 1.96-2.816.096 0 1.032 1.33 2.08 2.958 1.049 1.628 2.827 4.066 3.953 5.416 1.125 1.35 2.046 2.626 2.047 2.833 0 .208-.794 1.313-1.765 2.456-1.75 2.06-5.764 7.863-5.764 8.333 0 .134-.185.244-.413.244-.227 0-.827-.722-1.333-1.604zm-2.452-26.226c-1.93-.637-2.932-1.272-4.031-2.553-1.125-1.312-1.733-2.861-1.571-4.006.086-.607.275-.722 1.317-.797 1.15-.083 1.248-.028 1.784 1.01 1.307 2.532 3.737 3.794 6.488 3.373 3.86-.591 6.284-3.646 6.29-7.926.004-3.974-1.455-6.963-4.056-8.306-2.293-1.184-5.338-.454-7.509 1.8-1.116 1.16-1.595 1.257-2.562.514l-.664-.51.495-5.622c.272-3.092.6-5.914.73-6.272.234-.648.25-.65 6.896-.65h6.661l.175.693c.095.38.13.998.077 1.372l-.096.68-5.5.144-5.498.144-.186.867c-.102.477-.2 1.564-.22 2.416-.038 1.746-.204 1.693 2.862.909 2.752-.705 6.536.502 8.744 2.788 2.02 2.09 3.388 6.51 2.972 9.598-.923 6.86-4.296 10.402-10.124 10.627-1.39.054-2.78-.063-3.474-.293z" fill="#929292"/><path d="M0 157.44V0h217.76v314.88H0V157.44zm212.14 156.22c1.848-.972 3.687-3.022 4.286-4.775.413-1.209.456-15.59.456-151.43V7.365l-.824-1.736c-.917-1.934-2.394-3.386-4.373-4.3L210.367.72H7.087l-1.303.68c-1.775.928-3.372 2.5-4.296 4.23L.717 7.077.64 156.716c-.054 103.98.015 150.08.227 151.07.61 2.866 2.79 5.295 5.639 6.28 1.366.471 7.272.497 102.8.437l101.35-.064 1.483-.781zm-22.284-21.222c-.106-.106-.193-.756-.193-1.444v-1.252h5.086c2.953 0 5.322-.126 5.647-.3.475-.253.56-.618.56-2.406 0-1.16-.077-2.185-.171-2.28-.094-.093-.713.034-1.376.282-.665.25-2.118.455-3.247.458-3.732.012-6.872-2.108-8.617-5.819-.772-1.643-.921-2.332-1.019-4.724-.31-7.596 3.895-12.654 10.52-12.654 4.557 0 7.969 2.518 8.693 6.415.18.974.134 1.086-.526 1.251-1.436.36-2.037.043-3.17-1.667-1.4-2.112-2.387-2.637-4.997-2.653-2.251-.014-3.393.432-5.02 1.958-1.764 1.655-2.2 2.86-2.21 6.107-.01 2.521.087 3.093.747 4.496 1.523 3.24 4.07 4.736 6.939 4.075 1.622-.373 3.5-1.515 4.17-2.534.544-.829 1.298-.885 2.191-.164l.656.53-.517 5.898c-.285 3.244-.646 6.06-.804 6.259-.214.27-1.919.36-6.718.36-3.537 0-6.518-.086-6.624-.192zm-135.99-17.314c-5.379-8.914-10.828-16.084-17.032-22.407l-2.174-2.216 2.681-2.892c4.245-4.578 7.864-9.256 12.126-15.674 2.175-3.275 4.444-6.752 5.042-7.728.598-.975 1.211-1.773 1.363-1.773.152 0 .625.618 1.051 1.372 4.95 8.765 9.485 15.114 16.68 23.358 1.402 1.606 2.55 3.118 2.55 3.36 0 .24-.213.614-.473.83-.76.629-5.306 5.924-7.909 9.212-2.743 3.464-7.619 10.698-9.918 14.713-.858 1.498-1.69 2.767-1.848 2.82-.158.053-1.121-1.286-2.14-2.975zm105.07.536c-4.904-8.157-10.034-15.072-15.802-21.301l-3.626-3.916 1.985-2.178c3.617-3.97 5.33-6.01 7.812-9.3 2.325-3.082 7.813-11.258 9.975-14.862.546-.91 1.14-1.657 1.321-1.661.182 0 1.094 1.384 2.027 3.086 3.661 6.674 9.037 14.024 16.382 22.4 1.081 1.233 1.965 2.371 1.965 2.53 0 .16-.925 1.287-2.057 2.505-5.914 6.362-12.644 15.638-16.888 23.274-.596 1.072-1.194 1.95-1.33 1.95-.134 0-.928-1.138-1.764-2.528zm36.375-19.882c-1.314-2.238-3.184-4.78-5.346-7.27l-2.067-2.381 1.275-1.375c1.571-1.693 4.41-5.514 5.835-7.856.587-.963 1.232-1.75 1.434-1.75.202 0 .721.648 1.154 1.44.931 1.708 3.74 5.542 5.774 7.884l1.45 1.669-.557.682-2.532 3.097c-1.086 1.328-2.638 3.488-3.447 4.799-.81 1.31-1.635 2.383-1.834 2.383-.2 0-.712-.595-1.139-1.322zm-88.103-71.181c-6.447-10.488-10.91-16.498-16.648-22.422-1.712-1.767-3.113-3.373-3.113-3.567 0-.195 1.26-1.74 2.8-3.435 5.158-5.673 8.744-10.463 14.043-18.756 1.7-2.659 3.336-5.145 3.637-5.525l.548-.69 1.72 3.134c3.336 6.081 8.788 13.672 14.807 20.62 4.444 5.128 4.167 4.314 2.194 6.432-5.999 6.442-12.56 15.372-16.894 22.99-.84 1.477-1.636 2.753-1.769 2.835-.132.082-.729-.646-1.325-1.616zM52.855 87.88c-4.702-7.655-9.151-13.486-15.446-20.244l-2.695-2.894 2.652-2.833c5.128-5.479 9.363-11.123 14.968-19.949 1.841-2.9 3.442-5.272 3.558-5.272.115 0 1.028 1.463 2.028 3.25 3.844 6.873 9.154 14.134 16.269 22.245 1.08 1.232 1.964 2.402 1.963 2.6-.001.198-1.057 1.53-2.345 2.96-5.657 6.28-10.356 12.613-14.666 19.77-1.573 2.61-2.997 4.794-3.165 4.85-.168.055-1.572-1.962-3.121-4.483zm107.18 3.929c-.231-.367-1.48-2.382-2.774-4.477-4.558-7.375-9.387-13.675-14.636-19.098-2.344-2.42-3.1-3.377-2.896-3.662.152-.213 1.452-1.666 2.89-3.23 5.034-5.476 9.26-11.157 14.669-19.72 1.648-2.61 3.136-4.79 3.308-4.848.171-.057.95 1.096 1.73 2.56 3.652 6.863 7.797 12.507 17.917 24.396.61.716.778 1.119.58 1.39-.154.211-1.762 2.057-3.574 4.103-5.179 5.848-10.548 13.296-14.44 20.03-.96 1.663-1.883 3.068-2.05 3.124-.167.055-.493-.2-.724-.567zM18.525 80.148c-1.194-2.082-3.832-5.614-5.756-7.706l-1.522-1.656 2.363-2.822c1.299-1.552 3.166-4.088 4.15-5.636.983-1.547 1.866-2.815 1.96-2.816.096 0 1.032 1.33 2.08 2.958 1.049 1.628 2.827 4.066 3.953 5.416 1.125 1.35 2.046 2.626 2.047 2.833 0 .208-.794 1.313-1.765 2.456-1.75 2.06-5.764 7.863-5.764 8.333 0 .134-.185.244-.413.244-.227 0-.827-.722-1.333-1.604zm-2.452-26.226c-1.93-.637-2.932-1.272-4.031-2.553-1.125-1.312-1.733-2.861-1.571-4.006.086-.607.275-.722 1.317-.797 1.15-.083 1.248-.028 1.784 1.01 1.307 2.532 3.737 3.794 6.488 3.373 3.86-.591 6.284-3.646 6.29-7.926.004-3.974-1.455-6.963-4.056-8.306-2.293-1.184-5.338-.454-7.509 1.8-1.116 1.16-1.595 1.257-2.562.514l-.664-.51.495-5.622c.272-3.092.6-5.914.73-6.272.234-.648.25-.65 6.896-.65h6.661l.175.693c.095.38.13.998.077 1.372l-.096.68-5.5.144-5.498.144-.186.867c-.102.477-.2 1.564-.22 2.416-.038 1.746-.204 1.693 2.862.909 2.752-.705 6.536.502 8.744 2.788 2.02 2.09 3.388 6.51 2.972 9.598-.923 6.86-4.296 10.402-10.124 10.627-1.39.054-2.78-.063-3.474-.293z" fill="#da6d6d"/><path d="M0 157.44V0h217.76v314.88H0V157.44zm212.14 156.22c1.848-.972 3.687-3.022 4.286-4.775.413-1.209.456-15.59.456-151.43V7.365l-.824-1.736c-.917-1.934-2.394-3.386-4.373-4.3L210.367.72H7.087l-1.303.68c-1.775.928-3.372 2.5-4.296 4.23L.717 7.077.64 156.716c-.054 103.98.015 150.08.227 151.07.61 2.866 2.79 5.295 5.639 6.28 1.366.471 7.272.497 102.8.437l101.35-.064 1.483-.781zm-22.363-21.727c-.086-.225-.115-.777-.063-1.228l.094-.819 5.502-.144 5.501-.144.084-2.528c.046-1.39-.028-2.528-.165-2.528s-.871.212-1.631.47c-1.876.638-5.08.428-6.786-.445-5.631-2.879-7.47-10.284-4.219-16.983 2.18-4.489 8.2-6.527 13.077-4.426 2.433 1.048 4.419 3.644 4.419 5.776 0 .845-.046.876-1.298.876-1.206 0-1.336-.076-1.855-1.084-.68-1.317-1.923-2.529-3.02-2.942-1.51-.57-4.003-.375-5.643.44-2.836 1.41-4.11 3.79-4.11 7.67 0 2.705.703 4.814 2.177 6.532 2.448 2.853 6.752 2.704 9.679-.336 1.133-1.177 1.346-1.225 2.275-.512l.666.512-.458 5.187c-.253 2.853-.526 5.61-.608 6.126l-.148.939h-6.656c-5.473 0-6.684-.073-6.813-.409zM54.127 275.37c-5.284-8.817-11.671-17.218-17.179-22.596-1.053-1.028-1.915-2.045-1.915-2.26 0-.216 1.302-1.78 2.893-3.475 4.821-5.14 10.367-12.676 15.924-21.644 1.01-1.629 1.942-2.961 2.074-2.961.131 0 .641.796 1.133 1.768 3.111 6.148 9.79 15.454 16.722 23.304 1.305 1.477 2.372 2.802 2.372 2.944 0 .143-.881 1.21-1.957 2.371-5.886 6.35-12.016 14.702-16.141 21.99-.956 1.689-1.89 3.074-2.075 3.079-.185 0-1.018-1.13-1.851-2.52zm105.5 1.224c-5.668-9.52-11.263-16.991-17.695-23.626l-2.464-2.542 1.89-1.936c5.343-5.472 10.84-12.844 17.439-23.386.92-1.47 1.773-2.61 1.896-2.535.122.076 1.01 1.538 1.972 3.25 3.376 6.009 8.663 13.368 14.15 19.697a352.2 352.2 0 0 1 3.53 4.117l.673.821-3.006 3.394c-6.196 6.996-11.028 13.624-15.206 20.86-.96 1.662-1.887 3.07-2.06 3.128-.174.058-.678-.502-1.119-1.243zm34.857-22.312c-1.026-1.55-2.759-3.84-3.85-5.091-1.092-1.25-2.106-2.441-2.255-2.645-.192-.262.256-.988 1.539-2.492.995-1.167 2.865-3.673 4.156-5.568 2.169-3.185 2.376-3.405 2.736-2.889.214.307 1.157 1.728 2.095 3.158.939 1.43 2.566 3.603 3.616 4.828 1.05 1.226 1.91 2.371 1.91 2.545 0 .173-.794 1.25-1.765 2.393-1.75 2.06-5.764 7.863-5.764 8.333 0 .742-.754-.06-2.418-2.572zm-87.885-70.832c-2.178-3.67-5.896-9.207-8.434-12.557-2.291-3.026-7.532-9.068-9.529-10.987-.653-.628-1.188-1.284-1.188-1.458 0-.174.533-.83 1.186-1.458 4.71-4.536 11.443-13.487 17.642-23.458 1.012-1.629 1.939-2.961 2.059-2.961.12 0 .965 1.332 1.878 2.96 3.965 7.073 8.882 13.848 15.801 21.772 1.403 1.607 2.551 3.048 2.551 3.204 0 .155-.88 1.246-1.955 2.424-6.036 6.613-10.768 13-15.55 20.987-1.295 2.163-2.483 3.975-2.64 4.028-.156.052-.976-1.071-1.821-2.496zM55.628 92.045c-.192-.231-1.443-2.193-2.78-4.36-4.761-7.714-9.411-13.838-14.759-19.436-1.706-1.786-3.058-3.364-3.004-3.506.053-.142 1.53-1.845 3.282-3.784 5.05-5.59 10.607-13.24 16.144-22.22.598-.97 1.21-1.763 1.36-1.763.149 0 1.016 1.332 1.926 2.96 3.498 6.26 8.764 13.57 14.72 20.439 1.86 2.145 3.458 4.073 3.55 4.284.097.221-.44 1.016-1.268 1.878-5.513 5.735-11.844 14.22-16.31 21.859-2.51 4.291-2.42 4.178-2.86 3.649zm102.8-3.035c-4.773-7.88-9.938-14.76-15.65-20.84l-3.227-3.435 3.045-3.264c1.675-1.795 4.167-4.693 5.538-6.441 2.376-3.029 9.066-12.864 11.151-16.394.54-.914 1.135-1.661 1.323-1.661.188 0 .997 1.213 1.798 2.695 3.12 5.775 8.436 13.19 14.917 20.812 3.617 4.254 3.649 4.302 3.148 4.947-.277.359-1.663 1.935-3.079 3.504-5.389 5.97-10.95 13.736-15.234 21.268-.7 1.231-1.358 2.239-1.463 2.239-.104 0-1.124-1.544-2.267-3.43zM17.588 78.527c-1.193-1.801-3.032-4.204-4.087-5.34-1.055-1.136-1.918-2.253-1.918-2.483 0-.23.278-.665.619-.968.981-.872 4.436-5.42 5.911-7.782.741-1.186 1.462-2.157 1.6-2.157.14 0 .475.358.746.795 1.717 2.769 3.816 5.717 5.451 7.653 1.039 1.231 1.888 2.36 1.888 2.51 0 .15-.725 1.092-1.612 2.095-.887 1.003-2.605 3.32-3.817 5.146-1.213 1.827-2.297 3.431-2.409 3.564-.112.133-1.18-1.232-2.372-3.033zm-1.295-24.645c-2.67-.75-4.675-2.503-5.563-4.864-.516-1.375-.386-2.137.398-2.334 1.108-.277 2.118.28 2.751 1.52 1.092 2.133 3.057 3.1 5.802 2.85 2.912-.263 4.907-1.726 6.198-4.545.84-1.835.815-5.595-.051-7.803-.704-1.79-2.343-3.644-3.74-4.229-2.273-.951-5.102-.22-7.43 1.92-1.107 1.018-1.388 1.15-1.886.884-.322-.172-.693-.504-.824-.738-.22-.393.651-11.943.921-12.213.169-.168 11.397-.27 12.555-.113.923.124.953.17.869 1.316l-.087 1.188-5.19.079c-3.23.049-5.336.199-5.575.396-.427.353-.554 4.44-.147 4.692.13.08.815-.055 1.52-.3 1.687-.586 5.512-.41 6.93.318 2.116 1.085 3.43 2.44 4.542 4.687.986 1.99 1.098 2.457 1.2 5.005.232 5.747-2.29 10.384-6.493 11.934-1.958.722-4.837.872-6.7.35z" fill="#d64e4f"/><path d="M0 157.44V0h217.76v314.88H0V157.44zm212.14 156.22c1.848-.972 3.687-3.022 4.286-4.775.413-1.209.456-15.59.456-151.43V7.365l-.824-1.736c-.917-1.934-2.394-3.386-4.373-4.3L210.367.72H7.087l-1.303.68c-1.775.928-3.372 2.5-4.296 4.23L.717 7.077.64 156.716c-.054 103.98.015 150.08.227 151.07.61 2.866 2.79 5.295 5.639 6.28 1.366.471 7.272.497 102.8.437l101.35-.064 1.483-.781zm-22.334-22.197c-.36-1.634-.064-1.721 5.795-1.721 5.24 0 5.29-.01 5.463-.65.27-1.007.213-4.497-.076-4.676-.143-.088-.762.057-1.376.323-1.728.746-5.109.676-6.908-.143-1.983-.903-3.99-2.954-4.968-5.078-1.138-2.47-1.305-6.456-.397-9.495 1.485-4.976 4.727-7.468 9.713-7.468 2.914 0 4.966.819 6.602 2.633 1.254 1.392 2.206 3.663 1.805 4.31-.106.17-.647.311-1.203.311-.832 0-1.096-.158-1.503-.903-1.47-2.69-2.82-3.524-5.705-3.522-2.37 0-3.756.59-5.415 2.306-1.342 1.387-1.948 2.818-2.162 5.103-.494 5.28 2.596 9.81 6.693 9.81 1.893 0 4.383-1.102 5.51-2.439.592-.702.892-.844 1.474-.699.401.1.814.402.916.67.186.482-.719 11.568-.978 11.987-.075.12-3.05.22-6.611.22H190l-.194-.88zm-135.02-15.334c-5.305-8.742-11.241-16.714-16.695-22.421l-3.102-3.246 2.622-2.82c5.172-5.562 10.817-13.193 16.244-21.958 1.009-1.629 1.941-2.961 2.072-2.961.132 0 .63.77 1.106 1.713 3.041 6.01 9.3 14.75 16.277 22.73 1.405 1.606 2.555 3.113 2.555 3.349 0 .235-.278.676-.617.978-1.016.908-5.499 6.13-7.91 9.217-2.838 3.631-7.35 10.357-9.545 14.227-.924 1.628-1.737 2.96-1.806 2.96-.07 0-.61-.795-1.2-1.768zm104.35-.604c-5.127-8.604-11.31-16.79-17.344-22.96l-2.033-2.08 2.294-2.493c3.202-3.48 4.7-5.274 7.552-9.047 2.246-2.972 8.042-11.598 10.01-14.899.434-.728.89-1.32 1.013-1.316.124 0 .933 1.318 1.799 2.917 3.394 6.271 8.98 13.93 16.16 22.153 1.155 1.323 2.1 2.533 2.1 2.69 0 .156-.882 1.22-1.961 2.363-5.28 5.598-12.483 15.403-16.114 21.935-1.962 3.53-1.83 3.501-3.476.737zm36.349-19.93c-1.16-2.027-3.486-5.17-5.472-7.398l-1.884-2.113 1.312-1.353c1.508-1.555 4.405-5.424 5.785-7.725.518-.865 1.047-1.573 1.174-1.573.128 0 .518.488.868 1.084 1.287 2.191 3.24 4.899 5.203 7.217l2.014 2.379-.534.697c-.294.383-1.14 1.392-1.88 2.243-1.417 1.626-5.169 7.075-5.169 7.506 0 .662-.797.12-1.417-.964zm-88.764-72.232c-3.43-5.74-8.964-13.553-12.327-17.405-.832-.953-2.67-2.925-4.085-4.383-1.414-1.457-2.572-2.798-2.572-2.98 0-.18 1.208-1.653 2.684-3.271 5.566-6.104 10.13-12.297 15.842-21.503 1.01-1.63 1.94-2.961 2.064-2.961.124 0 .971 1.332 1.881 2.96 3.336 5.97 8.064 12.595 13.844 19.4 1.607 1.892 3.284 3.869 3.728 4.393l.806.952-2.219 2.397c-5.347 5.776-12.297 15.282-16.055 21.962-.87 1.546-1.712 2.813-1.873 2.816-.161 0-.934-1.066-1.717-2.377zM54.748 90.491c-3.534-5.965-8.554-13.188-11.997-17.262-.806-.953-2.879-3.255-4.606-5.116l-3.142-3.383 2.593-2.747c4.883-5.175 9.435-11.215 14.6-19.374 1.61-2.543 3.118-4.849 3.351-5.126.388-.46.599-.198 2.442 3.033 3.76 6.59 8.632 13.285 15.04 20.672 1.56 1.798 2.837 3.408 2.837 3.577 0 .168-1.337 1.817-2.971 3.663-6.007 6.788-10.743 13.31-14.911 20.534-.96 1.663-1.858 3.06-1.998 3.107-.139.046-.696-.663-1.238-1.578zm104.22-.868c-5.775-9.488-11.38-16.864-17.062-22.452-1.127-1.108-2.048-2.132-2.048-2.277 0-.145.88-1.19 1.954-2.322 5.143-5.418 10.33-12.305 15.67-20.81 1.651-2.628 3.107-4.714 3.234-4.636.128.08.883 1.347 1.678 2.818 3.428 6.345 9.223 14.26 16.65 22.74.903 1.03 1.642 1.983 1.642 2.115 0 .132-.97 1.303-2.156 2.602-6.127 6.714-13.754 17.289-16.816 23.316-.4.789-.836 1.434-.968 1.434s-.932-1.138-1.778-2.528zm-140.79-10.51c-1.71-2.641-3.71-5.216-5.502-7.082l-1.15-1.198 2.172-2.604c1.194-1.432 3.056-3.94 4.135-5.574 1.711-2.588 2.004-2.903 2.275-2.44 1.338 2.285 3.887 5.918 5.616 8.006l2.072 2.503-1.9 2.264c-1.045 1.245-2.76 3.564-3.812 5.152-1.052 1.59-2.009 3.002-2.127 3.14-.118.138-.918-.837-1.779-2.167zM16.22 53.765c-1.604-.524-3.176-1.52-4.034-2.554-.9-1.085-1.89-3.676-1.59-4.16.086-.14.662-.254 1.28-.254 1.052 0 1.174.093 1.923 1.466 1.12 2.053 2.578 2.868 5.135 2.868 3.132 0 5.275-1.22 6.723-3.827.78-1.406.843-1.741.843-4.55 0-2.733-.08-3.196-.805-4.67-2.354-4.78-7.331-5.61-11.008-1.833-1.074 1.103-1.51 1.212-2.34.585-.526-.398-.528-.568-.063-5.84.264-2.987.543-5.726.622-6.086l.143-.656 6.58.078 6.581.078.09 1.084.09 1.083h-5.174c-3.703 0-5.305.103-5.631.36-.31.245-.518 1.087-.647 2.605-.227 2.678-.117 2.777 2.313 2.073 4.425-1.284 9.078.882 10.98 5.11 1.581 3.515 1.632 7.115.155 11.022-.938 2.48-2.196 3.955-4.355 5.104-1.682.895-2.142 1.005-4.48 1.075-1.434.043-2.932-.03-3.33-.16z" fill="#6b6b6b"/><path d="M0 157.44V0h217.76v314.88H0V157.44zm213.2 155.91c1.776-1.22 2.856-2.598 3.527-4.498.4-1.133.446-16.895.446-151.25 0-136.41-.042-150.11-.461-151.33-.615-1.8-2.787-4.163-4.6-5.006l-1.454-.675H6.778l-1.504.748c-1.67.83-3.32 2.547-4.14 4.307-.522 1.122-.538 5.59-.538 151.95 0 146 .017 150.83.535 151.97 1.022 2.245 3.298 4.272 5.347 4.762.5.12 46.858.198 103.02.174l102.11-.044 1.6-1.099zm-23.393-21.879c-.36-1.634-.064-1.721 5.795-1.721 5.24 0 5.29-.01 5.463-.65.27-1.007.213-4.497-.076-4.676-.143-.088-.762.057-1.376.323-1.728.746-5.109.676-6.908-.143-1.983-.903-3.99-2.954-4.968-5.078-1.138-2.47-1.305-6.456-.397-9.495 1.485-4.976 4.727-7.468 9.713-7.468 2.914 0 4.966.819 6.602 2.633 1.254 1.392 2.206 3.663 1.805 4.31-.106.17-.647.311-1.203.311-.832 0-1.096-.158-1.503-.903-1.47-2.69-2.82-3.524-5.705-3.522-2.37 0-3.756.59-5.415 2.306-1.342 1.387-1.948 2.818-2.162 5.103-.494 5.28 2.596 9.81 6.693 9.81 1.893 0 4.383-1.102 5.51-2.439.592-.702.892-.844 1.474-.699.401.1.814.402.916.67.186.482-.719 11.568-.978 11.987-.075.12-3.05.22-6.611.22H190l-.194-.88zm-135.02-15.334c-5.305-8.742-11.241-16.714-16.695-22.421l-3.102-3.246 2.622-2.82c5.172-5.562 10.817-13.193 16.244-21.958 1.009-1.629 1.941-2.961 2.072-2.961.132 0 .63.77 1.106 1.713 3.041 6.01 9.3 14.75 16.277 22.73 1.405 1.606 2.555 3.113 2.555 3.349 0 .235-.278.676-.617.978-1.016.908-5.499 6.13-7.91 9.217-2.838 3.631-7.35 10.357-9.545 14.227-.924 1.628-1.737 2.96-1.806 2.96-.07 0-.61-.795-1.2-1.768zm104.35-.604c-5.127-8.604-11.31-16.79-17.344-22.96l-2.033-2.08 2.294-2.493c3.202-3.48 4.7-5.274 7.552-9.047 2.246-2.972 8.042-11.598 10.01-14.899.434-.728.89-1.32 1.013-1.316.124 0 .933 1.317 1.799 2.917 3.394 6.271 8.98 13.93 16.16 22.153 1.155 1.323 2.1 2.533 2.1 2.69 0 .156-.882 1.22-1.961 2.363-5.28 5.598-12.483 15.403-16.114 21.935-1.962 3.53-1.83 3.501-3.476.737zm36.349-19.93c-1.16-2.027-3.486-5.17-5.472-7.398l-1.884-2.113 1.312-1.353c1.508-1.555 4.405-5.425 5.785-7.725.518-.865 1.047-1.573 1.174-1.573.128 0 .518.488.868 1.084 1.287 2.191 3.24 4.899 5.203 7.217l2.014 2.379-.534.697c-.294.383-1.14 1.392-1.88 2.243-1.417 1.626-5.169 7.075-5.169 7.506 0 .662-.797.12-1.417-.964zm-88.764-72.232c-3.43-5.74-8.964-13.553-12.327-17.405-.832-.953-2.67-2.925-4.085-4.383-1.414-1.457-2.572-2.798-2.572-2.98 0-.18 1.208-1.653 2.684-3.272 5.566-6.103 10.13-12.297 15.842-21.503 1.01-1.628 1.94-2.96 2.064-2.96.124 0 .971 1.332 1.881 2.96 3.336 5.97 8.064 12.594 13.844 19.4 1.607 1.892 3.284 3.869 3.728 4.393l.806.952-2.219 2.397c-5.347 5.775-12.297 15.282-16.055 21.962-.87 1.546-1.712 2.813-1.873 2.816-.161 0-.934-1.066-1.717-2.377zM54.749 90.5c-3.534-5.965-8.554-13.188-11.997-17.262-.806-.953-2.879-3.255-4.606-5.116l-3.142-3.383 2.593-2.748c4.883-5.175 9.435-11.215 14.6-19.374 1.61-2.542 3.118-4.848 3.351-5.125.388-.46.599-.198 2.442 3.033 3.76 6.59 8.632 13.285 15.04 20.672 1.56 1.798 2.837 3.408 2.837 3.576 0 .17-1.337 1.818-2.971 3.664-6.007 6.788-10.743 13.31-14.911 20.534-.96 1.663-1.858 3.06-1.998 3.107-.139.046-.696-.664-1.238-1.578zm104.22-.868c-5.775-9.488-11.38-16.864-17.062-22.452-1.127-1.108-2.048-2.133-2.048-2.277 0-.145.88-1.19 1.954-2.322 5.143-5.418 10.33-12.305 15.67-20.81 1.651-2.628 3.107-4.715 3.234-4.636.128.08.883 1.347 1.678 2.818 3.428 6.345 9.223 14.26 16.65 22.74.903 1.03 1.642 1.983 1.642 2.115 0 .132-.97 1.302-2.156 2.602-6.127 6.714-13.754 17.289-16.816 23.316-.4.789-.836 1.434-.968 1.434s-.932-1.138-1.778-2.528zm-140.79-10.51c-1.71-2.641-3.71-5.216-5.502-7.082l-1.15-1.198 2.172-2.604c1.194-1.432 3.056-3.94 4.135-5.574 1.711-2.589 2.004-2.903 2.275-2.44 1.338 2.285 3.887 5.918 5.616 8.006l2.072 2.503-1.9 2.264c-1.045 1.245-2.76 3.564-3.812 5.152-1.052 1.59-2.009 3.002-2.127 3.14-.118.138-.918-.837-1.779-2.167zm-1.958-25.348c-1.604-.524-3.176-1.52-4.034-2.554-.9-1.085-1.89-3.676-1.59-4.16.086-.14.662-.254 1.28-.254 1.052 0 1.174.093 1.923 1.466 1.12 2.053 2.578 2.867 5.135 2.867 3.132 0 5.275-1.22 6.723-3.826.78-1.406.843-1.741.843-4.55 0-2.733-.08-3.197-.805-4.67-2.354-4.78-7.331-5.61-11.008-1.833-1.074 1.103-1.51 1.212-2.34.585-.526-.398-.528-.569-.063-5.84.264-2.987.543-5.726.622-6.086l.143-.656 6.58.078 6.581.078.09 1.083.09 1.084h-5.174c-3.703 0-5.305.102-5.631.36-.31.245-.518 1.087-.647 2.605-.227 2.678-.117 2.777 2.313 2.073 4.425-1.284 9.078.882 10.98 5.11 1.581 3.515 1.632 7.115.155 11.022-.938 2.48-2.196 3.955-4.355 5.104-1.682.895-2.142 1.005-4.48 1.075-1.434.043-2.932-.03-3.33-.16z" fill="#d12d2f"/><path d="M0 157.44V0h217.76v314.88H0V157.44zm213.2 155.91c1.776-1.22 2.856-2.598 3.527-4.498.4-1.133.446-16.895.446-151.25 0-136.41-.042-150.11-.461-151.33-.615-1.8-2.787-4.163-4.6-5.006l-1.454-.675H6.778l-1.504.748c-1.67.83-3.32 2.547-4.14 4.307-.522 1.122-.538 5.59-.538 151.95 0 146 .017 150.83.535 151.97 1.022 2.245 3.298 4.272 5.347 4.762.5.12 46.858.198 103.02.174l102.11-.044 1.6-1.099zm-23.135-21.706c-.088-.229-.115-.651-.06-.939.092-.478.555-.529 5.446-.601 2.94-.043 5.432-.174 5.537-.29.105-.115.277-1.249.382-2.52.145-1.744.095-2.443-.204-2.85-.384-.524-.425-.525-1.388-.013-.731.388-1.643.53-3.454.538-2.123.01-2.665-.096-3.94-.766-4.436-2.329-6.51-7.807-5.057-13.35 1.439-5.484 4.538-8.058 9.72-8.075 1.81-.01 2.652.14 3.848.667 1.786.787 3.683 2.778 4.11 4.314.448 1.606.387 1.769-.66 1.769-.828 0-1.086-.198-1.954-1.499-1.486-2.228-2.23-2.66-4.797-2.79-2.744-.138-4.288.412-6.026 2.146-1.67 1.665-2.324 3.552-2.296 6.62.048 5.267 2.902 8.822 7.07 8.805 1.944-.01 3.58-.718 5.302-2.302l1.301-1.197.583.582c.422.42.547.844.455 1.536-.123.918-1 10.084-1 10.452 0 .099-2.87.18-6.379.18-5.288 0-6.407-.072-6.54-.417zm-136.76-18.286c-4.796-7.779-9.644-14.159-14.979-19.713l-3.057-3.182 2.402-2.528c4.798-5.05 9.387-11.16 15.048-20.038 3.036-4.76 3.147-4.894 3.546-4.246.226.368 1.035 1.774 1.798 3.124 3.482 6.17 8.004 12.331 14.983 20.415 1.394 1.616 2.535 3.12 2.535 3.344 0 .223-.338.721-.752 1.107-4.155 3.867-13.416 16.352-17.423 23.487-.68 1.21-1.331 2.198-1.448 2.196-.116 0-1.31-1.787-2.653-3.965zm105.67 1.442c-5.382-8.83-10.935-16.153-16.754-22.096l-2.19-2.236 1.172-1.23c6.209-6.525 11.022-12.908 17.046-22.607 1.085-1.748 2.067-3.285 2.182-3.415.115-.13.694.642 1.286 1.717 3.881 7.044 9.787 15.189 16.577 22.862 1.162 1.313 2.112 2.51 2.112 2.659 0 .15-.293.57-.651.936-2.096 2.139-7.435 8.456-9.1 10.766-2.295 3.186-6.944 10.26-8.216 12.5-.835 1.47-1.608 2.673-1.72 2.673-.111 0-.896-1.138-1.743-2.528zm36.917-19.008c-1.748-2.816-3.435-5.126-5.314-7.276l-2.133-2.442 1.293-1.344c1.577-1.642 3.46-4.118 5.247-6.906.739-1.152 1.39-2.095 1.447-2.095.057 0 .796 1.108 1.64 2.461.845 1.353 2.568 3.704 3.83 5.224 2.047 2.466 2.25 2.815 1.882 3.245-2.584 3.02-3.934 4.766-5.13 6.635-2.346 3.671-2.146 3.49-2.762 2.498zm-88.23-71.358c-.396-.624-1.746-2.76-3.001-4.746-4.394-6.954-8.133-11.832-13.44-17.533-1.746-1.876-3.177-3.52-3.18-3.654-.003-.134.985-1.304 2.196-2.6 4.916-5.264 10.242-12.404 15.26-20.46 1.465-2.351 2.75-4.277 2.856-4.28.105 0 .875 1.263 1.71 2.812 3.417 6.342 8.805 13.662 17.292 23.494l.953 1.104-2.228 2.398c-5.031 5.413-12.598 15.735-15.841 21.608-1.768 3.2-1.738 3.18-2.577 1.857zM55.52 91.245c-4.263-6.832-5.73-9.067-8.025-12.22-2.547-3.5-5.796-7.538-7.677-9.543-.448-.476-1.65-1.733-2.673-2.793l-1.859-1.927 2.812-2.984c4.685-4.972 9.752-11.759 14.9-19.956 1.472-2.344 2.77-4.26 2.887-4.26.116 0 .785 1.071 1.486 2.381 2.932 5.478 9.089 14.025 15.124 20.998 1.573 1.817 2.924 3.471 3.003 3.676.079.205-1.209 1.903-2.861 3.774-5.835 6.606-10.401 12.878-14.57 20.012-1.067 1.827-1.982 3.366-2.033 3.42-.05.053-.282-.207-.513-.578zm102.18-4.043c-4.785-7.762-8.921-13.192-14.285-18.752-1.792-1.857-3.257-3.474-3.257-3.594 0-.12.88-1.143 1.955-2.274 5.008-5.266 9.39-11.045 14.94-19.702 1.815-2.833 3.415-5.187 3.555-5.232.14-.044.774.911 1.411 2.124 3.142 5.98 10.113 15.509 16.856 23.043.842.94 1.531 1.832 1.531 1.98 0 .149-.93 1.264-2.068 2.479-5.017 5.355-12.764 15.99-16.174 22.205-.717 1.306-1.369 2.376-1.448 2.378-.08 0-1.437-2.093-3.016-4.655zm-138.47-6.85c-.993-1.788-3.744-5.515-5.581-7.563l-1.817-2.024 1.05-1.16c1.432-1.58 5.166-6.61 5.977-8.05.363-.645.761-1.173.884-1.173s.756.896 1.408 1.99c.652 1.094 2.353 3.444 3.78 5.221l2.595 3.232-1.71 1.928c-1.427 1.61-4.432 5.822-5.717 8.014-.307.523-.363.496-.869-.415zm-1.989-26.607c-3.483-.742-5.752-2.778-6.365-5.712-.194-.93-.187-.938.913-.929 1.026.01 1.173.12 1.977 1.5 1.274 2.184 2.773 2.911 5.68 2.754 1.743-.094 2.491-.286 3.56-.91 3.449-2.017 4.822-6.713 3.308-11.314-.75-2.28-2.626-4.537-4.203-5.057-2.526-.831-6.112.132-7.759 2.085-.602.714-.887.845-1.5.692l-.755-.19.207-2.945c.113-1.62.359-4.311.545-5.98l.338-3.033 6.462-.078 6.461-.078-.09.945-.092.944-5.502.145-5.501.144-.083 2.817c-.095 3.201-.153 3.141 2.286 2.345 1.904-.621 4.876-.422 6.569.44 3.259 1.66 5.23 4.926 5.481 9.082.243 4.004-1.293 8.257-3.703 10.258-2.014 1.671-5.731 2.608-8.234 2.074z" fill="#cd0504"/><path d="M0 157.44V0h217.76v314.88H0V157.44zm213.2 155.91c1.776-1.22 2.856-2.598 3.527-4.498.4-1.133.446-16.895.446-151.25 0-136.41-.042-150.11-.461-151.33-.615-1.8-2.787-4.163-4.6-5.006l-1.454-.675H6.778l-1.504.748c-1.67.83-3.32 2.547-4.14 4.307-.522 1.122-.538 5.59-.538 151.95 0 146 .017 150.83.535 151.97 1.022 2.245 3.298 4.272 5.347 4.762.5.12 46.858.198 103.02.174l102.11-.044 1.6-1.099zm-22.763-21.771c-.106-.106-.193-.355-.193-.554 0-.273 1.272-.386 5.168-.458 5.725-.106 6.125-.225 6.125-1.837 0-.806.087-.926.579-.798.324.084.58.01.58-.171 0-.177-.262-.323-.58-.323-.857 0-.703-.669.29-1.253l.868-.512v1.438c0 1.113-.164 1.633-.724 2.297-.824.977-.92 1.345-.29 1.104.314-.12.435.032.435.547v.713h-6.032c-3.318 0-6.12-.087-6.226-.193zm11.1-6.56c0-1.177-.722-1.513-1.968-.917-.59.281-1.814.58-2.72.663-1.503.137-1.868.044-4.143-1.065-2.57-1.252-2.64-1.33-3.35-3.712-.216-.721-.512-1.185-.709-1.11-.558.214-.855-.179-1.23-1.627-.508-1.953-.472-3.679.076-3.679.485 0 .564-.32.183-.736-.139-.151-.188-.774-.11-1.384l.141-1.11.543.82c.36.546.543 1.344.544 2.377 0 .855.125 2.025.275 2.6.15.574.43 1.673.623 2.442.194.769.592 1.547.886 1.73.294.184.535.546.535.806 0 .697.606 1.085 2.44 1.562 2.307.6 4.28.545 5.523-.151.567-.318 1.162-.578 1.323-.578.161 0 .669-.278 1.129-.617.46-.339 1.022-.545 1.25-.458.502.193.929 2.038.503 2.18-.163.054-.296.517-.296 1.028 0 .97-.43 1.622-1.072 1.622-.207 0-.376-.309-.376-.687zm-41.697-9.325c0-.263-.358-.946-.796-1.517-1.007-1.313-1.702-2.478-2.298-3.854-.258-.596-.636-1.084-.84-1.084-.598 0-.793-1.103-.284-1.61.515-.514.594-.99.164-.99-.16 0-.29.112-.29.25 0 .136-.325.186-.723.11-.447-.085-.724-.334-.724-.648 0-.28-.416-.915-.924-1.41-.508-.496-.84-.902-.737-.902.103 0-.1-.308-.452-.686-1.975-2.123-2.253-2.543-2.068-3.124.118-.373.078-.527-.107-.412-.376.231-2.082-1.182-2.082-1.725 0-.224-.133-.408-.294-.408-.477 0-1.442-1.808-1.443-2.703 0-.747-.074-.808-.759-.636-.893.223-1.937-.544-1.712-1.259.096-.306-.221-.665-.962-1.088-.931-.532-1.112-.791-1.144-1.643-.032-.838.072-1.026.604-1.102.415-.059.676-.327.737-.756.079-.554.244-.65.985-.578.521.052.942-.062 1.015-.273.069-.199-.081-.361-.333-.361-.8 0-.492-.676 1.054-2.311a44.878 44.878 0 0 0 2.745-3.25c.683-.914 1.438-1.661 1.677-1.661.245 0 .848-.815 1.376-1.858 1.078-2.126 3.432-5.638 3.786-5.647.13 0 .45.206.71.466.367.365.502.386.6.094.07-.208-.166-.615-.523-.903-.568-.459-.59-.548-.172-.708.263-.1.862-.914 1.33-1.807.469-.894 1.147-2.084 1.506-2.645.36-.561.915-1.438 1.233-1.948.319-.51.728-.93.91-.93.181-.001.605.583.942 1.298.337.715.742 1.3.9 1.3.159 0 .289.253.289.562 0 .748 1.354 3.263 1.93 3.584.352.197.373.306.089.48-.22.136-.284.44-.16.761.199.516.217.516.502.01.286-.508.31-.508.695 0 .22.29.404.822.41 1.183.01.43.258.752.732.932.398.15.724.479.724.729s.452.92 1.005 1.487c.798.82.947 1.14.724 1.555-.42.784-.34 1.182.226 1.124.98-.099 1.23.021 1.23.59 0 .317.26.738.58.937.318.198.579.524.579.724 0 .2.246.364.548.364.64 0 1.033.792.631 1.274-.167.202-.174.502-.017.756.213.343.33.352.633.05.302-.302.507-.212 1.098.482.4.47 1.355 1.572 2.123 2.451l1.396 1.598-.652.88c-.827 1.116-.427 1.594.435.519l.641-.8.639.677.638.678-.799.756c-.44.415-1.516 1.664-2.392 2.775-1.694 2.15-2.378 2.607-3.054 2.047-.507-.42-.528-.251-.087.714.302.662.217.854-.931 2.108-.696.758-1.495 1.471-1.776 1.584-.312.126-.445.38-.34.654.218.565-.381 1.307-1.055 1.307-.536 0-.873.553-1.019 1.675-.122.938-.726 1.606-1.107 1.226-.576-.575-.828-.295-.64.71.16.843.068 1.134-.546 1.746-.406.405-.737.852-.737.993 0 .142-.571 1.09-1.269 2.106-.697 1.016-1.36 2.139-1.473 2.495-.127.397-.364.586-.614.49-.26-.1-.408.036-.408.37 0 .577-1.24 2.055-1.724 2.055-.167 0-.303-.215-.303-.478zm-8.976-15.699c0-.159-.138-.289-.307-.289-.169 0-.226.13-.128.289.098.159.237.289.307.289s.128-.13.128-.289zm18.233-.271c.414-.772-.238-1.15-.759-.44-.505.689-.494 1 .034 1 .233 0 .56-.252.725-.56zm7.538-7.529a.29.29 0 0 0-.58 0 .29.29 0 0 0 .58 0zm-8.253-12.133c.098-.159.041-.289-.128-.289-.168 0-.306.13-.306.29 0 .158.058.288.127.288.07 0 .209-.13.307-.289zm-1.013-1.877c0-.714-.393-.969-.708-.46-.21.338.111 1.182.449 1.182.142 0 .259-.325.259-.722zm-2.706-4.096c-.083-.083-.297-.061-.474.048-.232.143-.217.327.053.652.338.407.385.402.474-.048.054-.276.03-.57-.053-.652zm-108.63 41.5a.49.49 0 0 0-.57-.182c-.45.172-1.128-1.156-.72-1.408a.659.659 0 0 0 .274-.516c-.003-.207-.113-.172-.277.087-.355.56-.95.019-1.02-.926-.027-.363-.196-.66-.375-.66-.51 0-1.153-1.054-1-1.639.1-.385-.023-.528-.455-.528a.848.848 0 0 1-.776-.576c-.101-.316-.703-1.231-1.339-2.033-.799-1.008-1.1-1.63-.978-2.014.238-.75-.364-1.821-.908-1.613-.69.264-1.932-1.171-1.725-1.994.186-.742-.233-1.241-.577-.686-.263.424-.99-.49-.99-1.244 0-.302-.283-.588-.68-.688-.762-.19-2.794-2.676-2.794-3.418 0-.264-.316-.6-.702-.747-.392-.149-.743-.549-.796-.906-.052-.351-.33-.673-.616-.714-.837-.12-1.413-.722-1.077-1.126.339-.407.102-.725-.55-.738-.251-.01-.713-.202-1.026-.438-.561-.424-.56-.436.077-1.074 2.52-2.523 5.058-5.35 5.36-5.973.26-.533.583-.736 1.156-.727.572.01.751-.104.638-.399-.172-.446.943-2.53 2.142-4.002a46.62 46.62 0 0 0 1.764-2.392c.558-.809 1.566-2.214 2.241-3.122.676-.909 1.23-1.799 1.231-1.978.002-.179.183-.475.404-.657.308-.256.439-.231.57.109.191.497 1.056.606 1.056.133 0-.17-.119-.53-.264-.8-.335-.625.865-3.343 1.706-3.867.322-.2.585-.513.585-.695 0-.182.372-.386.826-.452.667-.098.892.022 1.162.617.184.406.498.998.697 1.316.2.318.744 1.228 1.21 2.022.466.794 1.14 1.801 1.497 2.237.357.436.736 1.067.842 1.4.107.335.441.856.744 1.158.303.302.556.777.563 1.055.007.278.657 1.155 1.445 1.95.788.794 1.434 1.64 1.436 1.88 0 .24.263.599.582.797.419.261.56.622.507 1.298-.065.835.008.936.684.936.547 0 1.054.361 1.824 1.3.586.714 1.52 1.82 2.075 2.455.554.635 1.08 1.432 1.166 1.77.087.337.463.751.835.92.372.17.762.576.866.903.104.328.38.596.613.596.233 0 .502.203.598.451.209.543-.967 1.457-1.712 1.331-.28-.047-.507.053-.507.222 0 .168.13.307.29.307.471 0 .33.74-.24 1.255-.292.263-.756.478-1.031.478-.276 0-.43.115-.342.256.087.141-.054.239-.314.217-.316-.026-.618.389-.912 1.255-.242.712-.735 1.527-1.095 1.81-.361.282-1.149 1.195-1.75 2.027-.603.832-1.46 1.895-1.905 2.362-.445.467-.814.987-.82 1.155-.015.454-1.215 1.778-1.799 1.986-.278.099-.507.45-.507.782 0 .331-.325 1.08-.723 1.665-.399.585-.724 1.22-.724 1.413 0 .193-.359.524-.797.735-.583.282-.77.56-.702 1.044.114.807-.411 1.492-1.143 1.492-.299 0-.543.13-.543.289 0 .159.13.289.29.289.447 0 .342.524-.218 1.088-.279.28-.637.887-.796 1.348-.316.914-.844 1.249-1.161.737zm2.17-7.017c.002-.129-.126-.153-.286-.055-.159.098-.287.398-.285.667.004.421.044.429.285.055.155-.238.283-.539.286-.667zm2.61-2.944c0-.397-.12-.722-.265-.722-.34 0-.558.615-.385 1.083.23.626.65.392.65-.36zm-16.784-8.365c-.204-.245-.55-.446-.77-.446-.569 0-.493.785.108 1.124.68.382 1.147-.095.662-.678zm27.673-7.59c-.294-.293-.537.15-.296.539.183.294.251.295.35 0 .066-.2.042-.444-.054-.54zm-30.579-1.635c0-.222-.195-.478-.434-.57-.436-.166-.614.408-.242.78.325.323.676.214.676-.21zm2.534-3.426c-.183-.546-1.086-.624-1.086-.093 0 .268.247.455.603.455.354 0 .554-.15.483-.361zm5.574-5.56c0-.239-.13-.434-.29-.434-.159 0-.29.195-.29.433 0 .239.131.434.29.434.16 0 .29-.195.29-.434zm-.29-2.17c0-.622-.54-.48-1.112.291-.852 1.15-.785 1.31.244.579.477-.34.868-.731.868-.87zm139.77 33c-.727-.801-.636-1.184.807-3.388.762-1.164.981-1.29 2.243-1.295.944 0 1.073-.086 1.013-.645-.055-.513.161-.718 1.09-1.03 3.157-1.064 6.075-.628 8.759 1.31 1.126.812 1.158 1.013.24 1.503-.605.324-.811.297-1.52-.194-2.401-1.665-4.127-1.907-6.756-.949-.871.318-1.886.578-2.254.578-.483 0-.78.263-1.064.939a8.813 8.813 0 0 1-.998 1.705c-.332.422-.708 1.047-.835 1.389-.225.608-.242.61-.725.077zm1.533-2.954a.29.29 0 0 0-.58 0 .29.29 0 0 0 .58 0zm12.106-1.373c-.118-.609-.632-.57-.763.057-.055.262.105.449.384.449.298 0 .44-.19.379-.506zm1.122 3.481c-.08-.13-.234-.704-.341-1.276-.145-.77-.088-1.082.217-1.199.58-.222.973.102 1.146.944.082.397.199.914.26 1.149.12.457-1.024.798-1.282.382zm-8.01-14.35c-.163-.162-.299-.432-.303-.599 0-.167-.26-.628-.572-1.025-.312-.398-.57-.88-.573-1.07 0-.192-.332-.673-.73-1.07-.41-.41-.724-1.057-.724-1.494 0-.63-.074-.709-.41-.431-.325.27-.56.175-1.152-.462-.485-.521-.645-.898-.46-1.082.185-.185.024-.553-.461-1.058l-.745-.776 2.041-2.307c1.123-1.27 2.38-2.53 2.795-2.8.466-.305.69-.658.587-.926-.25-.65.373-1.622.909-1.417.354.135.382.088.127-.218-.244-.294-.223-.53.086-.946.381-.512.447-.519.892-.082.38.373.413.597.162 1.066-.363.675-.04 1.016.695.734.358-.137.47-.042.427.36-.104.97 0 1.253.404 1.099.494-.19 1.646 1.154 2.5 2.913.394.812 1.092 1.63 1.773 2.08.617.408 1.123.831 1.123.94 0 .11-.294.46-.652.78-.358.32-1.078 1.058-1.6 1.64-.52.583-1.075 1.06-1.23 1.06-.155 0-.283.272-.283.605a.77.77 0 0 1-.579.756c-.318.083-.59.234-.603.334-.013.1-.056.467-.095.815-.122 1.09-1.382 2.632-2.252 2.76-.44.064-.934-.016-1.097-.179zm2.02-1.786c0-.424-.618-.57-.962-.226-.262.261.387.997.706.8.14-.086.256-.345.256-.574zm-.579-2.022a.427.427 0 0 0-.434-.416c-.436 0-.595.61-.25.955.271.27.684-.056.684-.539zm3.863-3.177c-.13-.34-.254-.358-.58-.09-.324.27-.336.392-.052.567.494.304.834.047.632-.478zm-7.917-1.734c0-.248-.13-.37-.29-.272-.158.098-.289.301-.289.45 0 .15.13.273.29.273.16 0 .29-.203.29-.45zm8.108-.705a.29.29 0 0 0-.579 0 .29.29 0 0 0 .58 0zm-.869-2.311a.29.29 0 0 0-.579 0 .29.29 0 0 0 .58 0zm-6.269-.731c-.207-.54-.572-.545-.778-.01-.088.228 0 .47.187.538.514.185.776-.05.591-.529zm-86.402-58.8c-.177-.33-.25-.79-.16-1.02.098-.257-.097-.537-.503-.722-.365-.166-.917-.77-1.225-1.342-.308-.572-.691-1.183-.85-1.358-.515-.565-1.593-2.151-1.593-2.343 0-.103-.39-.68-.869-1.281-.477-.602-.874-1.206-.88-1.342-.006-.136-.397-.697-.869-1.247-.49-.572-.857-1.334-.857-1.779 0-.62-.11-.75-.545-.636-.351.092-.712-.095-1.013-.524-.59-.841-.591-1.117-.003-1.117.368 0 .323-.148-.218-.717-.375-.394-.903-.72-1.174-.722-.27 0-.596-.188-.724-.412-.271-.478-4.947-5.61-6.526-7.164-1.264-1.244-1.316-1.482-.452-2.085.574-.402.705-.4 1.328.01.855.559 1.191.305.543-.41-.265-.292-.481-.662-.481-.824 0-.513 1.2-1.397 1.768-1.304.302.05.558-.08.57-.288.08-1.35 1.201-3.008 1.79-2.645.365.225.784-.45.79-1.273.003-.463.177-.65.6-.65.328 0 .517-.129.42-.286-.187-.302 1.277-2.314 1.683-2.314.448 0 1.066-.825 1.066-1.422 0-.327.26-.758.579-.956.318-.199.579-.59.579-.87 0-.279.26-.768.579-1.085.319-.318.58-.708.58-.867 0-.159.335-.289.746-.289.68 0 .73-.078.556-.867-.19-.86-.028-1.013.941-.888.2.026.362-.255.362-.624 0-1.246 3.373-7.213 4.28-7.573.213-.084.492.167.652.589.155.405.632 1.196 1.061 1.757.43.561.859 1.56.954 2.22.099.686.317 1.168.51 1.13.186-.038.56.396.83.964.27.569.663 1.1.872 1.18.21.08.464.586.565 1.125.129.685.469 1.154 1.132 1.563.521.322 1.11.974 1.307 1.449.197.475.459.864.58.864.123 0 .205.226.183.502-.022.277.24.627.582.778.342.152.853.673 1.134 1.16.68 1.171 1.791 2.593 2.969 3.797.67.686.907 1.15.785 1.536-.138.434 0 .592.637.732.527.115.946.477 1.191 1.03.209.47.727 1.02 1.153 1.223.43.205.816.657.867 1.016.051.356.214.648.362.648s.27.184.27.409c0 .225.148.459.33.52.59.195-.3 1.421-2.573 3.548-1.189 1.112-2.411 2.51-2.716 3.106-.305.595-.674 1.083-.819 1.083-.145 0-.34.227-.435.505-.094.278-.55.96-1.015 1.517-.647.775-.924.932-1.187.673-.464-.458-1.141-.158-1.141.504 0 .36.144.483.434.372.24-.091.435-.048.435.096 0 .457-.635.916-1.049.757-.285-.109-.4.097-.4.721 0 .688-.216 1.008-1.013 1.5-.557.343-1.013.751-1.013.907 0 .155.13.202.29.103.78-.481-.233 1.37-1.567 2.862-.412.461-.75.954-.75 1.094 0 .653-2.218 3.966-2.662 3.977-.576.014-1.392 1.074-1.392 1.809 0 .705-.776.647-1.17-.087zm6.962-9.257c0-.14-.267-.254-.592-.254-.525 0-.57-.12-.395-1.053.142-.754.105-.995-.131-.85-.433.268-.425 2.27.01 2.705.356.354 1.108-.018 1.108-.548zm-17.084-11.086c0-.239-.13-.434-.29-.434-.159 0-.29.195-.29.434 0 .238.131.433.29.433.16 0 .29-.195.29-.433zm-3.04-.723c.098-.158.048-.288-.111-.288-.16 0-.37.13-.469.288-.098.16-.048.29.111.29.16 0 .37-.13.469-.29zm-2.462-1.842c0-.06-.228-.287-.506-.505-.46-.36-.47-.35-.11.109.378.48.616.634.616.396zm29.535-4.496c0-.34-.565-.705-.772-.498-.207.207.158.77.5.77.15 0 .272-.122.272-.272zm-9.319-14.655c-.133-1.124-.815-1.224-.815-.118 0 .616.14.89.453.89.322 0 .427-.225.362-.772zm-5.738-.85c0-.239-.13-.353-.29-.255-.159.098-.29.373-.29.612 0 .238.131.353.29.254.16-.098.29-.373.29-.612zm2.606-3.773c0-.596.112-.71.58-.587.65.17.8-.226.176-.465-.776-.297-2.01 1.344-1.44 1.914.334.333.684-.108.684-.862zM55.598 90.694c0-.169.13-.55.29-.849.32-.596-.108-1.103-.456-.541-.136.22-.489.01-1.034-.612-.455-.52-.843-1.058-.863-1.195a28.51 28.51 0 0 1-.073-.55c-.02-.164-.182-.392-.361-.505-.502-.317-2.136-3.007-2.136-3.515 0-.249-.273-.622-.608-.83-.405-.253-.557-.572-.456-.957.1-.382-.086-.785-.55-1.188-.386-.335-.702-.784-.702-.997 0-.214-.32-.51-.71-.658-.391-.148-.916-.665-1.166-1.148-.25-.484-.574-.88-.719-.88-.144 0-.304-.357-.354-.794-.066-.569-.277-.82-.743-.886-.359-.051-.667-.246-.685-.434-.019-.187-.051-.534-.073-.77-.021-.235-.395-.599-.83-.807-.436-.21-1.15-.861-1.586-1.45a17.367 17.367 0 0 0-1.814-2.01c-.646-.595-.988-1.152-.93-1.516.065-.418-.073-.576-.503-.576-.762 0-2.719-2.074-2.242-2.377.186-.118.625-.216.976-.219.351 0 .973-.338 1.381-.745.76-.759.76-1.385-.002-1.093-.695.265-.502-.113 1.017-2.004.793-.988 1.836-1.969 2.317-2.18.48-.213.874-.565.874-.785 0-.22.26-.538.58-.708.318-.17.578-.456.578-.635 0-.785 1.015-2.543 1.468-2.543.304 0 .549-.31.653-.83.092-.456.564-1.226 1.05-1.71.486-.485.883-1.022.883-1.193 0-.17.26-.31.58-.31.553 0 .706-.28.597-1.096-.027-.206.29-.776.704-1.267.414-.49 1.013-1.402 1.332-2.025.484-.946.683-1.1 1.217-.937.35.107.8.325 1 .484.617.493.423-.401-.24-1.106-.567-.602-.576-.69-.147-1.517.25-.483.588-.96.75-1.06.164-.1.483-.596.711-1.102.228-.505.622-1.178.876-1.495.396-.495.5-.515.732-.145.202.323.127.455-.301.525-.727.117-.72.395.026 1.247.41.468.645.57.748.321.225-.54.681-.435.681.156 0 .284.386.966.857 1.516s.862 1.262.869 1.58c.006.32.24.727.518.904.279.178.764.827 1.078 1.442.314.615.873 1.434 1.242 1.82.37.385.602.88.518 1.1-.09.23.418.937 1.21 1.683.928.875 1.375 1.537 1.403 2.078.027.535.182.768.477.717.634-.11 1.242.705.866 1.16-.215.259-.102.603.403 1.227.515.636.764.769.936.499.351-.551 1.234.54 1.138 1.405-.06.53.078.716.581.788.363.052.884.44 1.159.863.274.423.933 1.151 1.464 1.619 1.202 1.058 3.022 3.855 2.772 4.26-.103.165-.85 1.01-1.66 1.879-1.007 1.08-1.636 1.535-1.992 1.443-.382-.1-.519.03-.519.495 0 .89-.794 1.915-1.484 1.915-.457 0-.541.128-.391.598.123.388.003.806-.343 1.188-.532.588-.533.587-.706-.238l-.173-.826-.471 1.057c-.26.581-.638 1.117-.84 1.19-.295.106-.298.255-.014.735.383.647.094 1.039-.777 1.055-.245 0-.507.422-.626.996-.202.982-2.02 2.877-2.782 2.9-.234.01-.299.29-.191.827.192.96-1.064 3.145-2.48 4.316-.486.401-.883.943-.883 1.204s-.261.985-.58 1.608c-.318.624-.579 1.268-.579 1.434 0 .34-1.274 1.888-1.554 1.888-.1 0-.183-.138-.183-.308zm.724-4.843c0-.523-.567-.427-.68.114-.062.301.047.433.29.352.215-.07.39-.28.39-.466zm1.303-1.799c0-.15-.13-.272-.29-.272-.159 0-.29.203-.29.45 0 .248.131.37.29.273.16-.098.29-.301.29-.45zm8.397-12.422c0-.15-.13-.272-.29-.272-.159 0-.289.203-.289.45 0 .249.13.37.29.273.159-.098.29-.301.29-.45zm-19.69-.56c0-.16-.057-.29-.127-.29s-.209.13-.307.29c-.098.158-.041.288.128.288.168 0 .306-.13.306-.288zm-2.316-1.025c0-.543-.572-.832-.933-.472-.432.432-.052 1.234.487 1.027.245-.094.446-.343.446-.555zm-2.371-3.868c.072-.217-.036-.325-.253-.253a.906.906 0 0 0-.507.506c-.073.216.036.324.253.252a.903.903 0 0 0 .507-.505zm30.145-1.198c-.332-.33-.676-.529-.765-.44-.24.239.507 1.042.97 1.042.273 0 .208-.19-.205-.602zm-1.424-1.372c0-.376-.344-.626-.624-.454-.3.185-.041.695.352.695.15 0 .272-.109.272-.241zM46.332 56.77c0-.238-.13-.433-.29-.433-.159 0-.289.195-.289.433 0 .239.13.434.29.434.159 0 .29-.195.29-.434zm4.633-8.105c0-.248-.132-.369-.294-.27-.162.1-.22.303-.128.451.248.4.422.326.422-.181zm6.491-5.513c.1-.261.123-.534.05-.607-.23-.23-.75.231-.75.665 0 .567.475.527.7-.058zm102.93 47.073a13.192 13.192 0 0 1-.52-1.679c-.142-.638-.36-.866-.824-.866-.742 0-1.492-.95-1.579-2.001-.034-.41-.21-.744-.39-.744-.278 0-2.04-2.43-2.407-3.322-.065-.159-.458-.7-.873-1.204-1.662-2.018-2.636-3.502-2.64-4.024 0-.302-.62-1.061-1.375-1.687-.754-.625-2.088-1.969-2.964-2.985a188.017 188.017 0 0 0-2.821-3.196c-.676-.741-1.309-1.64-1.407-1.998-.106-.384-.404-.65-.73-.65-.836 0-.642-1.677.303-2.626.41-.411 1.312-1.425 2.004-2.251 1.081-1.293 1.322-1.451 1.715-1.13.399.326.435.287.28-.309-.195-.757.303-1.772.87-1.772.201 0 .365-.172.365-.381 0-.21.47-.93 1.044-1.599.752-.875 1.194-1.17 1.577-1.049.462.147.512.043.377-.788-.119-.73-.014-1.084.445-1.498.519-.47.666-.488 1.09-.141.44.36.472.33.311-.292-.192-.744.573-2.538 1.36-3.19.251-.207.456-.534.456-.726 0-.192.32-.52.71-.728.392-.21.792-.75.892-1.205.121-.551.362-.825.727-.825.668 0 1.146-.826 1.146-1.982 0-.578.24-1.053.724-1.433.398-.312.724-.707.724-.877 0-.576.973-2.352 1.284-2.343.551.016 1.245.707 1.796 1.788.296.582.915 1.672 1.375 2.422.704 1.147.781 1.453.487 1.923-.192.307-.275.632-.185.723.091.09.165.013.165-.173 0-.646.884-.33 1.236.44.196.428.78 1.227 1.297 1.775.528.558.942 1.303.942 1.694 0 .385.12.625.267.534.285-.175 1.47 1.305 1.47 1.837 0 .174.163.32.362.326.21.01.133.182-.18.419-.36.271-.476.586-.342.93.192.493.22.494.575.014.205-.278.44-.506.523-.506.234 0 2.537 3.118 2.537 3.435 0 .155.27.367.598.471.468.148.579.388.507 1.103-.078.784.011.927.629 1.014.396.056.986.381 1.31.723.938.985 2.168 2.72 2.168 3.057 0 .17.124.308.276.308.152 0 .254.782.227 1.738-.042 1.492-.163 1.848-.855 2.51-.443.424-.806.937-.806 1.14 0 .203-.408.832-.906 1.398-.643.731-1.062.98-1.448.857-.46-.146-.542-.017-.542.868 0 .609-.163 1.102-.392 1.19-.216.083-1.02 1.02-1.787 2.083-.766 1.063-1.447 1.772-1.513 1.574-.131-.392-.94-.502-.94-.128 0 .127.162.404.361.614.29.306.29.41 0 .515-.199.073-.362.288-.362.478s-.39.687-.868 1.105c-.478.418-.87 1.032-.87 1.364 0 .332-.114.604-.254.604s-.418.395-.618.878c-.2.482-.608 1.007-.904 1.165-.297.159-.54.544-.54.856 0 .42-.197.568-.76.568-.69 0-.744.08-.587.863.133.664-.027 1.16-.693 2.145-.476.704-1.057 1.736-1.29 2.294-.576 1.373-.952 1.532-1.34.565zm2.639-3.484c0-.12-.126-.408-.274-.642-.334-.526-.725-.197-.49.413.173.45.772.63.764.229zm-6.996-6.62c-.141-.725-.818-.825-.818-.12 0 .354.187.601.456.601.27 0 .417-.196.362-.481zm16.122-8.474c-.14-.226-.307-.243-.5-.05a.535.535 0 0 0-.079.628c.14.226.307.243.5.05a.535.535 0 0 0 .079-.628zm1.303-1.86c0-.07-.13-.208-.29-.307-.159-.098-.29-.04-.29.128s.131.306.29.306c.16 0 .29-.057.29-.128zm-29.535-5.397c0-.299-.196-.543-.435-.543-.293 0-.434.293-.434.902 0 .77.064.85.434.543.24-.198.435-.604.435-.902zm33.01-.526c0-.15-.13-.352-.29-.45-.159-.098-.29.024-.29.272 0 .247.131.45.29.45.16 0 .29-.122.29-.272zm-4.41-6.318c.063-.189-.092-.343-.344-.343a.46.46 0 0 0-.458.458c0 .51.623.42.802-.115zm-16.294-7.28c0-.619-.841-.53-.963.103-.074.386.043.503.43.429.293-.056.533-.296.533-.532zm1.294-2.235c-.01-.752-.031-.765-.425-.246-.419.552-.343 1.04.162 1.04.15 0 .268-.357.263-.794zm5.221-4.116c0-.318-.116-.578-.258-.578-.326 0-.63.751-.398.983.35.348.656.158.656-.405zM18.58 78.575c-.502-.955-.913-1.998-.913-2.316 0-.335-.3-.716-.709-.902-.39-.178-.748-.597-.796-.933-.05-.345-.3-.612-.579-.614-.27 0-.885-.38-1.367-.84-.749-.717-.868-1.029-.822-2.164.029-.729.227-1.504.44-1.722.214-.218 1.079-1.323 1.923-2.456.844-1.132 1.87-2.389 2.28-2.793.411-.404.836-1.086.944-1.517.108-.43.257-.782.33-.782.073 0 .582.342 1.13.76.756.575.923.85.689 1.133-.407.489.244 1.574.944 1.574.653 0 1.451 1.223 1.21 1.853-.12.31.037.701.427 1.063.339.315.616.755.616.979 0 .607 1.189 1.35 1.607 1.004.233-.193.459-.145.704.149.46.553.179 1.304-.492 1.316-.946.017-1.617.76-1.414 1.565.191.761.037.863-1.129.745-.467-.047-.509.014-.217.314.49.503.458 1.123-.059 1.123-.231 0-.63.442-.888.982-.257.54-.719 1.048-1.027 1.128-.31.081-.56.396-.56.707 0 .668-.816 2.382-1.135 2.382-.123 0-.635-.782-1.137-1.737zm2.3-4.217c.336-.404.315-.452-.157-.361-.3.058-.6.268-.667.467-.172.515.365.446.824-.106zm-2.489-.111c.099-.159.041-.289-.127-.289-.17 0-.307.13-.307.289 0 .159.057.289.128.289.07 0 .208-.13.306-.289zm5.647-3.178c-.17-.317-.436-.577-.59-.577-.153 0-.279.26-.279.577 0 .389.193.578.59.578.499 0 .541-.088.279-.578zm-5.792-2.31c0-.16-.057-.29-.127-.29s-.208.13-.307.29c-.098.158-.04.288.128.288s.306-.13.306-.289zm-1.882-.867c.099-.16-.032-.29-.29-.29-.257 0-.387.13-.289.29.099.159.229.289.29.289.06 0 .19-.13.29-.29zm8.276.409c.014-.337.082-.405.175-.175.083.209.073.458-.023.554-.096.096-.165-.075-.152-.38zm154.47-2.995c-.25-.404.069-.88.587-.88.532 0 .536.408.01.844-.279.232-.468.243-.596.035zM37.36 63.414a.43.43 0 0 1 .425-.433c.259 0 .36.17.259.433-.092.238-.283.433-.426.433-.142 0-.258-.195-.258-.433zm-19.69-9.95c-.24-.163-.858-.298-1.376-.3-.746 0-.94-.124-.94-.583 0-.412-.194-.578-.676-.578-.372 0-.758-.082-.859-.182-.15-.15.192-1.1.543-1.51.05-.057.469.166.933.495.464.33 1.386.686 2.05.792.663.106 1.276.305 1.362.443.274.443 2.44.292 2.622-.182.092-.238.36-.433.597-.433s.761-.26 1.166-.578c1.108-.869 1.74-.76 1.703.295-.028.776-.112.856-.756.715-.56-.122-.79-.01-1.013.497-.199.45-.652.725-1.447.879-2.34.453-3.485.52-3.91.23zm-5.416-3.266c-1.188-2.197-1.325-2.817-.626-2.817.128 0 .157.195.066.434-.113.294.015.433.398.433.924 0 1.555.927 1.345 1.975-.233 1.162-.544 1.155-1.183-.025zm13.051-.578c.096-.357.177-.756.179-.886.002-.13.278-.15.612-.043.551.175.59.11.416-.681-.124-.565-.032-1.184.26-1.748.518-1 .648-5.948.164-6.246-.16-.098-.285-.529-.28-.956l.01-.778.414.723c.378.658.415.67.425.128.006-.326-.446-1.034-1.004-1.573-.557-.539-1.013-1.093-1.013-1.23 0-.139-.384-.574-.853-.968-.47-.394-.926-.944-1.015-1.223-.285-.895-1.898-1.258-4.06-.913-1.059.168-2.17.459-2.469.645-.42.262-.7.256-1.224-.024-.494-.263-.894-.282-1.46-.068-.9.342-.814 1.209.096.971.308-.08.56-.024.56.124 0 .46-1.42 1.53-2.03 1.53-.553 0-.57-.128-.384-2.96.23-3.496.698-5.561 1.26-5.561.294 0 .42.52.477 1.95.06 1.552-.01 1.95-.347 1.95-.837 0-.401.555.58.739.636.12 1.589 0 2.607-.316 2.149-.674 4.535-.452 6.656.62 1.221.616 1.606.964 1.606 1.451 0 .353.326.897.724 1.21.398.312.724.696.724.854 0 .157.325.5.724.76.647.423.723.668.723 2.326 0 1.02.13 1.935.29 2.033.16.098.29.828.29 1.623 0 .89-.112 1.376-.29 1.266-.177-.11-.29.328-.29 1.121 0 .715-.113 1.37-.252 1.456-.138.085-.325.52-.414.964-.196.976-1.437 2.38-2.104 2.38-.359 0-.438-.166-.308-.65zM13.437 26.743c-.314-.817.039-1.456.906-1.641 1.33-.284 10.948-.277 11.4.01 1.077.681-.152.894-5.156.894-4.717 0-5.218.05-5.892.578-.877.688-1.046.71-1.257.161z" fill="#d40000"/><path d="M0 157.44V0h217.76v314.88H0V157.44zm213.2 155.91c1.776-1.22 2.856-2.598 3.527-4.498.4-1.133.446-16.895.446-151.25 0-136.41-.042-150.11-.461-151.33-.615-1.8-2.787-4.163-4.6-5.006l-1.454-.675H6.778l-1.504.748c-1.67.83-3.32 2.547-4.14 4.307-.522 1.122-.538 5.59-.538 151.95 0 146 .017 150.83.535 151.97 1.022 2.245 3.298 4.272 5.347 4.762.5.12 46.858.198 103.02.174l102.11-.044 1.6-1.099z" fill="#030303"/></svg>