<svg xmlns="http://www.w3.org/2000/svg" height="335.872" width="232.277" viewBox="0 0 217.76 314.88"><path d="M0 157.44V0h217.76v314.88H0V157.44z" fill="#fdfdfd"/><path d="M0 157.44V0h217.76v314.88H0V157.44zm211.88 155.77c1.56-.831 3.003-2.271 3.718-3.71.552-1.11.562-3.422.634-151.58l.073-150.45-.611-1.416c-.342-.794-1.221-1.987-1.997-2.71-2.59-2.418 7.892-2.207-105.55-2.124l-101.05.074-1.483.78c-1.61.847-2.677 1.954-3.67 3.808l-.639 1.19-.073 149.92c-.066 135.52-.03 150.07.381 151.48.571 1.958 2.835 4.345 4.768 5.027 1.173.414 10.902.452 102.79.407l101.49-.05 1.223-.652zM7.15 306.022c-.231-.23.03-.682.395-.682.15 0 .273.195.273.433 0 .447-.342.574-.668.249zm-3.096-3.014c0-.413.155-.57.503-.502.755.145.839 1.1.097 1.1-.414 0-.6-.185-.6-.598zm187.47-9.732c-2.26-.804-3.66-2.075-4.449-4.036-.607-1.51-.303-1.81 1.834-1.81 1.745 0 1.913.058 2.485.86 1.133 1.587 3.507 1.781 6.443.526 1.15-.492 1.484-.825 2.077-2.07.389-.815.788-1.885.887-2.377l.18-.894-1.793.859c-3.853 1.844-7.441 1.225-10.427-1.8-2.4-2.429-2.988-4.112-2.987-8.537 0-3.991.462-5.933 1.93-8.124 2.366-3.53 7.093-4.723 11.657-2.94 2.833 1.107 4.205 2.647 5.394 6.058.895 2.566 1.146 11.927.417 15.588-.857 4.312-2.736 7.123-5.611 8.4-1.932.858-6.037 1.01-8.038.297zm6.212-13.052c2.524-1.284 3.997-4.179 3.643-7.161-.341-2.871-1.59-5.098-3.378-6.027-1.088-.564-3.639-.512-4.857.1-3.134 1.574-4.409 6.909-2.562 10.721 1.25 2.582 4.573 3.681 7.154 2.368zm-143.51.2c-.153-.199-.778-1.206-1.39-2.239-5.502-9.3-12.056-17.94-18.069-23.823-.969-.948-1.762-1.895-1.762-2.104 0-.209 1.237-1.683 2.748-3.276 5.502-5.799 10.226-12.196 16.777-22.72.914-1.47 1.787-2.748 1.94-2.842.48-.296.998.376 2.831 3.678 3.73 6.72 9.335 14.377 16.274 22.237.894 1.012 1.777 2.131 1.963 2.487.361.69.535.444-3.196 4.547-5.237 5.761-11.38 14.322-15.449 21.527-1.643 2.91-2.065 3.31-2.668 2.528zm105.55-.137c-.248-.282-1.072-1.553-1.833-2.824-4.684-7.83-10.869-16.073-16.474-21.954-1.514-1.589-2.757-3.069-2.763-3.289-.01-.22.87-1.326 1.944-2.458 5.39-5.678 11.385-13.67 16.293-21.717 2.331-3.823 2.99-4.746 3.387-4.746.22 0 .621.404.892.897 5.03 9.137 10.341 16.594 17.983 25.247 1.123 1.27 2.045 2.53 2.049 2.796 0 .268-1.038 1.612-2.315 2.987-5.409 5.824-10.576 12.817-15.35 20.772-1.519 2.53-2.897 4.646-3.063 4.701-.165.055-.503-.13-.75-.412zm36.32-23.262c-.162-.2-1.244-1.784-2.406-3.522-1.162-1.74-3-4.094-4.086-5.234-1.085-1.14-1.973-2.296-1.973-2.569 0-.273.768-1.363 1.706-2.422 1.98-2.234 4.523-5.725 5.825-7.995 1.216-2.12 1.699-2.077 3.014.268 1.133 2.023 3.64 5.479 5.767 7.951 1.542 1.794 1.665 2.514.597 3.506-1.124 1.043-4.812 5.999-6.202 8.333-1.207 2.027-1.677 2.38-2.242 1.684zm-143.96-73.086c-4.689-7.83-10.112-15.031-15.787-20.961-1.841-1.924-3.348-3.65-3.348-3.835 0-.185 1.19-1.578 2.646-3.097 4.7-4.905 9.548-11.345 15.163-20.14 1.699-2.663 3.157-5.017 3.24-5.233.083-.216.39-.393.684-.393.38 0 1.002.874 2.17 3.047 3.576 6.65 8.912 14.037 16.116 22.31 1.56 1.79 2.837 3.394 2.837 3.563 0 .169-.756 1.108-1.68 2.087-6.524 6.913-11.636 13.942-18.075 24.853-.481.815-.996 1.337-1.318 1.337-.368 0-1.174-1.077-2.648-3.538zm107.3 2.888c-.225-.357-1.456-2.34-2.735-4.405-4.785-7.727-9.27-13.636-14.835-19.549-1.745-1.854-3.173-3.522-3.173-3.705 0-.184 1.317-1.787 2.927-3.562 5.467-6.028 9.606-11.59 15.03-20.199 1.783-2.83 3.42-5.128 3.653-5.128.233 0 .645.402.916.892 5.074 9.173 9.596 15.547 17.4 24.53 1.45 1.668 2.633 3.227 2.628 3.466 0 .238-1.58 2.188-3.5 4.333-5.483 6.12-11.159 14.004-15.169 21.069-1.749 3.081-2.352 3.515-3.142 2.258zM53.726 93.231c-5.598-9.745-13.79-20.555-19.903-26.259-.452-.42-.821-.926-.821-1.123 0-.197.945-1.348 2.1-2.558 5.75-6.027 11.784-14.172 17.734-23.942.88-1.443 1.636-2.376 1.928-2.376.302 0 .938.835 1.706 2.239 3.816 6.98 7.492 12.248 13.73 19.677 1.917 2.283 3.974 4.735 4.571 5.45.598.716 1.086 1.414 1.086 1.551 0 .138-1.227 1.585-2.726 3.216-1.5 1.631-3.195 3.55-3.768 4.265-4.836 6.04-7.944 10.483-11.316 16.177a666.131 666.131 0 0 1-2.364 3.973c-.562.919-1.328.806-1.957-.29zm104.77-1.3c-6.32-10.323-10.89-16.452-16.986-22.777-1.553-1.61-2.824-3.118-2.824-3.348 0-.23 1.24-1.754 2.755-3.387 5.83-6.28 10.65-12.879 17.298-23.68.666-1.083 1.283-1.765 1.593-1.763.335 0 .935.806 1.78 2.384 3.984 7.434 10.213 16.003 17.76 24.429.759.847 1.38 1.729 1.38 1.96 0 .231-1.17 1.722-2.6 3.313-5.862 6.52-11.124 13.709-15.368 20.99-1.65 2.832-2.559 4.117-2.909 4.117-.325 0-1.007-.812-1.88-2.238zM17.216 81.387a184.84 184.84 0 0 1-2.165-3.25c-.937-1.43-2.69-3.73-3.896-5.111-1.206-1.381-2.192-2.661-2.192-2.844 0-.183 1.003-1.522 2.228-2.977 1.226-1.455 3.132-4.042 4.237-5.75 1.326-2.05 2.186-3.106 2.528-3.106.327 0 .858.59 1.429 1.585 1.18 2.057 3.68 5.527 5.666 7.862.866 1.019 1.575 2.118 1.575 2.442 0 .324-.795 1.454-1.766 2.51-.972 1.058-2.532 3.093-3.468 4.523-3.552 5.429-3.371 5.25-4.176 4.116zm.01-25.943c-4.5-.76-7.044-3.144-8.159-7.645-.748-3.021-.746-12.786 0-15.593.727-2.723 1.772-4.579 3.404-6.042 1.717-1.541 3.683-2.191 6.622-2.191 3.632 0 5.944 1.127 7.402 3.61.414.704.71 1.577.658 1.94-.084.59-.274.67-1.8.749-1.552.08-1.79.01-2.607-.76-1.722-1.624-2.73-1.822-5.346-1.047-2.037.604-3.078 1.636-3.77 3.738-.315.952-.524 1.778-.466 1.835.058.058.852-.248 1.765-.679 5.47-2.582 11.254.238 13.013 6.345.675 2.341.448 7.331-.45 9.904-1.497 4.288-5.606 6.624-10.27 5.836zm4.07-5.038c3.057-1.787 4.02-7.826 1.779-11.144-1.054-1.56-2.375-2.29-4.144-2.29-1.9 0-2.656.28-4.046 1.498-2.48 2.172-2.948 6.187-1.138 9.768 1.113 2.203 2.168 2.84 4.748 2.87 1.172.015 1.878-.163 2.802-.703zm189.4-29.225c-.398-.398-.171-.963.387-.963.386 0 .579.192.579.577 0 .557-.567.783-.965.386z" fill="#f2d1d0"/><path d="M0 157.44V0h217.76v314.88H0V157.44zm211.88 155.77c1.56-.831 3.003-2.271 3.718-3.71.552-1.11.562-3.422.634-151.58l.073-150.45-.611-1.416c-.342-.794-1.221-1.987-1.997-2.71-2.59-2.418 7.892-2.207-105.55-2.124l-101.05.074-1.483.78c-1.61.847-2.677 1.954-3.67 3.808l-.639 1.19-.073 149.92c-.066 135.52-.03 150.07.381 151.48.571 1.958 2.835 4.345 4.768 5.027 1.173.414 10.902.452 102.79.407l101.49-.05 1.223-.652zM7.15 306.022c-.231-.23.03-.682.395-.682.15 0 .273.195.273.433 0 .447-.342.574-.668.249zm-3.096-3.014c0-.413.155-.57.503-.502.755.145.839 1.1.097 1.1-.414 0-.6-.185-.6-.598zm187.22-10.094c-1.71-.666-3.103-1.947-3.804-3.497-.641-1.418-.358-1.777 1.434-1.815 1.1-.024 1.453.12 2.294.933 1.2 1.16 2.708 1.552 4.59 1.196 2.152-.407 3.628-1.29 4.276-2.556.619-1.21 1.332-3.73 1.116-3.946-.074-.074-.97.284-1.992.794-3.698 1.849-7.37 1.266-10.274-1.63-2.248-2.242-2.862-4.04-2.87-8.396-.01-3.983.452-5.9 1.945-8.116 3.575-5.305 12.993-4.428 15.858 1.476 1.077 2.218 1.436 4.85 1.44 10.566.01 7.775-.88 10.835-3.915 13.501-.728.64-1.926 1.367-2.662 1.617-1.892.643-5.624.58-7.437-.127zm6.735-12.593c2.742-1.364 4.073-4.316 3.516-7.799-.69-4.31-2.745-6.317-6.26-6.115-3.253.187-4.99 2.05-5.658 6.067-.248 1.493-.216 2.176.17 3.684 1.11 4.322 4.482 6.027 8.232 4.163zm-143.45-.052c-.17-.113-1.01-1.376-1.867-2.806-5.545-9.249-10.348-15.616-16.693-22.131-1.488-1.527-2.704-2.873-2.704-2.992 0-.118 1.324-1.664 2.943-3.434 5.322-5.822 9.845-11.897 15.058-20.224 2.855-4.562 3.326-5.19 3.713-4.952.132.082.856 1.286 1.608 2.675 3.414 6.311 9.047 14.184 15.449 21.592 1.922 2.224 3.496 4.147 3.5 4.272 0 .126-.811 1.1-1.808 2.167-6.012 6.43-12.092 14.682-16.625 22.566-1.8 3.131-2.138 3.56-2.575 3.267zm103.37-3.312c-4.778-7.938-10.471-15.528-16.016-21.349-1.613-1.692-2.932-3.235-2.932-3.428 0-.194 1.092-1.497 2.427-2.896 4.26-4.465 9.585-11.431 13.792-18.041 5.492-8.628 5.217-8.35 6.197-6.27 2.615 5.548 9.24 14.94 16.362 23.194 1.764 2.045 3.207 3.884 3.206 4.086 0 .202-1.01 1.475-2.244 2.83-6.198 6.808-11.309 13.777-15.851 21.615-1.29 2.225-2.201 3.5-2.506 3.504-.305 0-1.191-1.177-2.435-3.244zm36.279-23.11c-1.185-1.787-3.086-4.314-4.223-5.615-1.138-1.301-2.069-2.546-2.069-2.766 0-.22.341-.716.758-1.101 1.166-1.079 4.2-5.043 6.025-7.87.904-1.4 1.786-2.499 1.961-2.44.175.057 1.062 1.285 1.972 2.728 1.434 2.272 3.365 4.837 5.707 7.576.352.412.646.99.651 1.282.01.293-.72 1.333-1.613 2.311s-2.726 3.436-4.073 5.462c-1.348 2.026-2.56 3.683-2.696 3.683-.135 0-1.215-1.462-2.4-3.25zM54.028 186.54a677.73 677.73 0 0 1-2.359-3.827c-4.66-7.602-9.019-13.375-14.882-19.714-2.272-2.456-3.462-3.956-3.326-4.189.117-.2 1.094-1.273 2.171-2.386 4.829-4.983 10.114-12.01 15.713-20.89 1.73-2.744 3.294-4.941 3.475-4.882.18.06 1.086 1.463 2.012 3.119 4.064 7.265 9.205 14.335 16.23 22.318 1.375 1.563 2.5 2.947 2.5 3.077 0 .129-1.057 1.385-2.35 2.79-5.615 6.107-11.74 14.486-16.179 22.128-.991 1.708-1.981 3.105-2.199 3.105-.218 0-.58-.292-.806-.65zm104.19-2.166c-5.102-8.569-10.682-16.004-16.553-22.054-1.48-1.525-2.69-2.933-2.69-3.13 0-.196 1.187-1.637 2.639-3.202 5.245-5.658 10.196-12.407 17.196-23.446.637-1.005 1.32-1.827 1.516-1.827.197 0 1.15 1.43 2.12 3.178 3.537 6.385 10.244 15.573 16.447 22.532 1.133 1.27 2.062 2.475 2.064 2.676 0 .2-1.373 1.907-3.057 3.794-5.751 6.442-11.168 13.93-15.217 21.035-1.146 2.01-2.025 3.243-2.317 3.25-.294.01-1.104-1.053-2.148-2.807zm-104.18-91.14l-1.796-2.961c-4.642-7.663-10.23-15.093-15.798-21.007-2.087-2.216-3.123-3.524-2.98-3.762.12-.2 1.493-1.729 3.05-3.397 1.558-1.668 3.955-4.463 5.328-6.21 2.264-2.884 8.777-12.439 11.494-16.863.598-.973 1.25-1.768 1.448-1.765.198 0 1.077 1.334 1.953 2.958 3.264 6.05 8.767 13.716 15.205 21.179 1.75 2.029 3.288 3.864 3.417 4.078.258.428.018.742-3.884 5.08-4.766 5.3-10.356 13.085-14.307 19.926-1.079 1.866-2.135 3.394-2.347 3.394-.212 0-.564-.293-.782-.65zm103.9-2.718c-4.782-7.965-10.454-15.489-15.998-21.219-1.633-1.687-2.968-3.224-2.968-3.416 0-.191 1.306-1.782 2.903-3.536 5.335-5.856 9.688-11.71 14.946-20.098 1.718-2.74 3.275-4.983 3.46-4.983.184 0 1.264 1.633 2.4 3.628 4.26 7.486 9.338 14.426 16.364 22.365 1.052 1.189 1.913 2.367 1.913 2.618 0 .252-.406.839-.902 1.306-1.12 1.053-6.315 7.132-8.255 9.659-2.633 3.428-5.434 7.594-8.253 12.273-1.534 2.544-2.967 4.66-3.186 4.703-.237.046-1.215-1.286-2.424-3.3zM16.508 79.827c-1.306-2.177-4.926-6.931-6.224-8.173-.572-.547-1.04-1.169-1.04-1.38 0-.213.91-1.453 2.024-2.757 1.113-1.305 2.97-3.83 4.126-5.611 1.156-1.782 2.298-3.244 2.537-3.25.242-.01 1.007.978 1.73 2.226.714 1.229 2.503 3.73 3.976 5.557 1.474 1.827 2.682 3.507 2.685 3.733 0 .226-.636 1.147-1.42 2.047-1.786 2.048-4.335 5.58-5.526 7.657-.539.939-1.108 1.585-1.399 1.585-.287 0-.896-.676-1.47-1.634zm.364-24.666c-4.702-.928-7.121-3.792-7.896-9.349-.462-3.312-.39-9.914.136-12.533 1.217-6.066 4.516-9.128 9.832-9.127 3.442 0 6.15 1.342 7.38 3.657.946 1.778.694 2.232-1.238 2.232-1.304 0-1.652-.117-2.198-.744-.976-1.12-2.499-1.653-4.067-1.423-1.72.25-3.485 1.045-4.249 1.911-.769.873-1.564 2.904-1.564 3.995v.837l1.81-.916c1.584-.801 2.098-.915 4.126-.915 2.742 0 4.26.615 6.166 2.498 2.442 2.412 3.423 5.88 2.924 10.334-.627 5.592-2.716 8.475-6.845 9.444-1.845.434-2.544.45-4.317.1zm4.252-4.393c3.22-1.622 4.447-7.03 2.494-10.98-.982-1.986-2.317-2.887-4.507-3.045-2.594-.188-4.969 1.299-6.138 3.842-1.586 3.448.379 9.667 3.322 10.517 1.651.477 3.469.351 4.83-.334zm189.56-29.586c-.398-.398-.171-.963.387-.963.386 0 .579.193.579.578 0 .556-.567.783-.965.385z" fill="#d6d6d6"/><path d="M0 157.44V0h217.76v314.88H0V157.44zm209.57 156.89c.277-.145 1.09-.469 1.81-.72 1.793-.627 3.186-1.846 4.204-3.68l.86-1.548V6.802l-.654-1.22c-.886-1.654-2.471-3.18-4.087-3.932l-1.34-.625H7.382l-1.646.806c-1.864.913-3.224 2.313-4.115 4.235l-.61 1.314v300.44l.69 1.525c.91 2.007 3.038 3.908 5.187 4.634 1.619.546 3.667.558 101.92.594 59.857.022 100.47-.07 100.77-.227zm-18.295-21.407c-1.71-.666-3.103-1.947-3.804-3.497-.64-1.418-.358-1.776 1.434-1.815 1.101-.024 1.453.12 2.295.933 1.199 1.16 2.707 1.552 4.59 1.196 2.152-.407 3.628-1.29 4.275-2.555.62-1.212 1.332-3.732 1.116-3.947-.074-.074-.97.284-1.991.794-3.699 1.849-7.37 1.266-10.274-1.63-2.248-2.242-2.862-4.04-2.87-8.396-.01-3.983.451-5.9 1.945-8.116 3.575-5.305 12.993-4.428 15.858 1.476 1.076 2.218 1.435 4.851 1.44 10.566.01 7.775-.88 10.835-3.915 13.501-.728.64-1.926 1.367-2.662 1.617-1.892.644-5.624.58-7.438-.126zm6.735-12.593c2.743-1.364 4.074-4.316 3.516-7.799-.69-4.31-2.745-6.317-6.26-6.115-3.253.187-4.99 2.05-5.657 6.067-.248 1.493-.217 2.176.17 3.684 1.11 4.322 4.482 6.027 8.231 4.163zm-143.45-.052c-.17-.113-1.01-1.376-1.867-2.806-5.544-9.248-10.348-15.616-16.693-22.131-1.487-1.527-2.704-2.873-2.704-2.992 0-.118 1.324-1.664 2.943-3.434 5.322-5.822 9.846-11.897 15.058-20.224 2.856-4.562 3.327-5.19 3.714-4.952.132.082.855 1.286 1.607 2.675 3.415 6.311 9.048 14.184 15.45 21.592 1.921 2.225 3.496 4.147 3.499 4.273 0 .125-.81 1.1-1.807 2.166-6.013 6.43-12.092 14.682-16.625 22.566-1.8 3.131-2.138 3.56-2.575 3.267zm103.37-3.312c-4.777-7.938-10.47-15.528-16.016-21.349-1.612-1.692-2.931-3.235-2.931-3.428 0-.193 1.092-1.496 2.427-2.896 4.259-4.465 9.585-11.431 13.792-18.041 5.492-8.628 5.216-8.35 6.196-6.27 2.615 5.548 9.24 14.94 16.362 23.194 1.765 2.045 3.208 3.884 3.207 4.086 0 .202-1.011 1.476-2.245 2.83-6.198 6.808-11.309 13.777-15.85 21.615-1.29 2.225-2.202 3.5-2.507 3.504-.304 0-1.19-1.177-2.435-3.244zm36.28-23.11c-1.186-1.787-3.086-4.314-4.224-5.615-1.137-1.301-2.068-2.546-2.068-2.766 0-.22.34-.716.757-1.101 1.166-1.079 4.201-5.043 6.025-7.87.904-1.4 1.787-2.499 1.962-2.44.174.057 1.062 1.285 1.972 2.728 1.433 2.272 3.365 4.837 5.706 7.576.353.412.646.99.652 1.282.01.293-.72 1.333-1.614 2.311-.893.978-2.726 3.436-4.073 5.462-1.347 2.026-2.56 3.683-2.695 3.683-.135 0-1.216-1.462-2.4-3.25zM54.03 186.548a677.73 677.73 0 0 1-2.36-3.827c-4.66-7.601-9.018-13.375-14.881-19.714-2.272-2.456-3.463-3.955-3.327-4.189.117-.2 1.094-1.273 2.171-2.385 4.83-4.984 10.114-12.011 15.713-20.89 1.73-2.745 3.295-4.942 3.475-4.883.18.06 1.086 1.463 2.013 3.119 4.064 7.266 9.204 14.335 16.23 22.318 1.375 1.563 2.5 2.947 2.5 3.077 0 .13-1.058 1.385-2.35 2.791-5.615 6.106-11.741 14.485-16.18 22.127-.991 1.708-1.98 3.105-2.199 3.105-.217 0-.58-.292-.806-.65zm104.19-2.166c-5.102-8.569-10.683-16.004-16.554-22.054-1.48-1.524-2.69-2.933-2.69-3.13 0-.196 1.188-1.637 2.64-3.202 5.245-5.658 10.195-12.407 17.195-23.446.637-1.005 1.32-1.827 1.517-1.827.197 0 1.15 1.43 2.119 3.178 3.538 6.385 10.245 15.573 16.448 22.532 1.133 1.271 2.061 2.475 2.063 2.676 0 .2-1.373 1.908-3.057 3.794-5.75 6.442-11.168 13.93-15.217 21.035-1.146 2.01-2.025 3.243-2.317 3.25-.293.01-1.104-1.053-2.148-2.807zM54.04 93.242c-.219-.358-1.027-1.69-1.797-2.961-4.642-7.663-10.23-15.093-15.798-21.007-2.086-2.216-3.123-3.524-2.98-3.762.12-.2 1.493-1.729 3.05-3.397 1.558-1.668 3.956-4.463 5.328-6.21 2.265-2.883 8.777-12.439 11.494-16.863.598-.973 1.25-1.767 1.448-1.765.199 0 1.078 1.334 1.954 2.958 3.264 6.05 8.767 13.716 15.205 21.179 1.75 2.029 3.287 3.864 3.416 4.078.258.428.018.742-3.884 5.08-4.766 5.3-10.356 13.085-14.307 19.926-1.078 1.866-2.134 3.394-2.347 3.394-.212 0-.564-.293-.782-.65zm103.9-2.718c-4.782-7.965-10.455-15.489-15.999-21.219-1.632-1.687-2.968-3.224-2.968-3.415 0-.192 1.307-1.783 2.904-3.537 5.334-5.856 9.688-11.71 14.946-20.098 1.718-2.74 3.274-4.983 3.459-4.983.184 0 1.264 1.633 2.4 3.628 4.26 7.486 9.339 14.426 16.365 22.365 1.052 1.189 1.913 2.367 1.913 2.618 0 .252-.406.84-.902 1.306-1.12 1.053-6.316 7.132-8.256 9.659-2.632 3.429-5.433 7.594-8.253 12.273-1.533 2.544-2.966 4.66-3.185 4.703-.237.046-1.216-1.286-2.425-3.3zM16.51 79.836c-1.306-2.177-4.926-6.931-6.224-8.173-.572-.547-1.04-1.169-1.04-1.38 0-.212.91-1.453 2.023-2.757 1.114-1.305 2.97-3.83 4.127-5.611 1.156-1.782 2.297-3.244 2.536-3.25.242-.01 1.008.978 1.731 2.226.714 1.23 2.503 3.73 3.976 5.557 1.473 1.827 2.681 3.507 2.684 3.733 0 .226-.635 1.147-1.42 2.047-1.786 2.048-4.334 5.58-5.525 7.657-.54.94-1.109 1.585-1.4 1.585-.287 0-.895-.676-1.469-1.634zm.363-24.666c-4.701-.928-7.12-3.792-7.895-9.349-.462-3.312-.39-9.914.135-12.533 1.218-6.066 4.516-9.128 9.833-9.127 3.441 0 6.15 1.343 7.38 3.657.946 1.778.694 2.232-1.238 2.232-1.304 0-1.653-.117-2.198-.744-.976-1.12-2.5-1.653-4.068-1.423-1.72.25-3.485 1.045-4.248 1.912-.77.872-1.564 2.903-1.564 3.994v.837l1.81-.915c1.584-.802 2.098-.916 4.126-.916 2.741 0 4.26.615 6.166 2.498 2.442 2.412 3.423 5.88 2.923 10.334-.627 5.593-2.716 8.475-6.844 9.445-1.846.433-2.544.449-4.318.099zm4.253-4.393c3.219-1.622 4.447-7.03 2.494-10.979-.983-1.986-2.317-2.888-4.507-3.046-2.594-.187-4.97 1.299-6.139 3.842-1.585 3.448.38 9.667 3.322 10.517 1.652.477 3.47.351 4.83-.334z" fill="#eab0af"/><path d="M0 157.44V0h217.76v314.88H0V157.44zm209.57 156.89c.277-.145 1.09-.469 1.81-.72 1.793-.627 3.186-1.846 4.204-3.68l.86-1.548V6.802l-.654-1.22c-.886-1.654-2.471-3.18-4.087-3.932l-1.34-.625H7.382l-1.646.806c-1.864.913-3.224 2.313-4.115 4.235l-.61 1.314v300.44l.69 1.525c.91 2.007 3.038 3.908 5.187 4.634 1.619.546 3.667.558 101.92.594 59.857.022 100.47-.07 100.77-.227zm-17.097-21.14c-1.63-.383-2.594-.96-3.77-2.259-1.075-1.188-1.566-2.348-1.226-2.898.104-.168.749-.305 1.432-.305.99 0 1.431.179 2.163.877 1.668 1.59 3.54 1.847 6.202.853 2.358-.88 3.557-2.5 3.883-5.25l.174-1.468-1.275.738c-2.198 1.272-4.426 1.766-6.284 1.393-5.402-1.082-8.442-6.184-7.63-12.803.601-4.907 2.563-7.956 5.812-9.032 2.36-.782 5.73-.523 7.985.613 3.927 1.979 5.328 5.714 5.345 14.257.018 9.156-2.112 13.624-7.216 15.136-1.69.5-3.85.558-5.595.148zm5.579-12.682c1.49-.758 3.043-2.636 3.486-4.214.475-1.693.202-4.586-.61-6.47-.762-1.766-2.157-3.048-3.797-3.488-4.237-1.139-7.761 2.279-7.761 7.526 0 5.73 4.185 8.935 8.682 6.646zm-145.21-3.097c-4.603-7.755-10.847-16.107-16.23-21.71-1.663-1.733-3.024-3.31-3.024-3.507 0-.197 1.159-1.567 2.575-3.045 4.85-5.06 9.847-11.738 15.402-20.578 1.626-2.587 3.1-4.658 3.275-4.6.176.056.631.678 1.011 1.381 4.131 7.636 9.226 14.796 16.553 23.266 1.584 1.83 2.88 3.464 2.88 3.63 0 .164-1.179 1.606-2.62 3.204-6.378 7.072-10.801 13.212-16.58 23.013-.508.863-1.068 1.615-1.244 1.67-.177.057-1.076-1.17-1.999-2.724zm106.48 1.5c-5.941-9.889-11.506-17.37-17.706-23.805-1.443-1.498-2.624-2.776-2.624-2.84 0-.064 1.187-1.397 2.638-2.963 5.24-5.651 9.604-11.574 16.864-22.889.892-1.39 1.754-2.527 1.914-2.527.16 0 .671.747 1.134 1.66 3.213 6.336 9.32 14.913 16.506 23.183 1.45 1.668 2.637 3.275 2.638 3.57 0 .296-.989 1.588-2.2 2.872-5.132 5.443-11.522 14.163-15.866 21.65-1.083 1.868-2.092 3.395-2.241 3.395-.15 0-.625-.588-1.057-1.307zm34.893-25.343c-1.196-1.787-3.1-4.26-4.23-5.494-1.132-1.235-2.058-2.293-2.058-2.352 0-.06.921-1.194 2.046-2.522 1.126-1.328 3.019-3.877 4.208-5.664 1.189-1.788 2.285-3.25 2.435-3.25.151 0 .496.357.767.794 1.86 3.002 3.812 5.757 5.578 7.872 1.127 1.35 2.05 2.557 2.05 2.682s-.86 1.23-1.913 2.456c-1.052 1.225-2.884 3.69-4.07 5.478-1.187 1.788-2.266 3.25-2.398 3.25-.133 0-1.22-1.462-2.415-3.25zm-139.76-66.78c-.185-.222-1.43-2.177-2.768-4.344-4.816-7.804-9.596-14.085-14.935-19.626-1.74-1.806-3.164-3.468-3.164-3.693 0-.225.533-.922 1.186-1.55 4.664-4.491 10.745-12.532 17.136-22.663 1.353-2.145 2.638-3.933 2.855-3.974.238-.044.996 1.06 1.91 2.782 3.44 6.482 10.357 15.906 17.412 23.724.645.715 1.179 1.475 1.186 1.69.01.214-.853 1.32-1.91 2.455-5.867 6.308-11.526 14.016-16.311 22.218-.998 1.71-1.915 3.171-2.037 3.247-.123.076-.374-.044-.56-.267zm105.46.05c-.154-.2-.973-1.532-1.822-2.962-4.401-7.417-10.314-15.313-15.949-21.298l-3.2-3.4 2.947-3.25c5.473-6.035 9.657-11.651 14.954-20.076 1.723-2.74 3.284-4.982 3.468-4.983.185 0 .946 1.123 1.69 2.498 3.782 6.976 8.749 13.869 16.194 22.47 1.366 1.578 2.48 3.073 2.473 3.322-.01.248-.43.922-.94 1.497-7.858 8.834-12.467 15.055-17.149 23.15-1.08 1.866-2.058 3.392-2.175 3.392-.117 0-.338-.162-.492-.36zM54.045 92.951c-.222-.357-1.156-1.885-2.078-3.394-4.596-7.53-9.858-14.51-14.786-19.612-1.977-2.048-3.595-3.885-3.595-4.083 0-.197.891-1.295 1.98-2.44 5.481-5.755 11.474-13.877 17.784-24.101.597-.969 1.249-1.761 1.447-1.76.199 0 .741.725 1.205 1.61 3.586 6.847 10.282 16.163 17.216 23.954 1.131 1.272 2.059 2.488 2.06 2.704 0 .217-.996 1.452-2.22 2.745-5.069 5.36-12.167 15.065-16.137 22.067-.924 1.628-1.858 2.96-2.076 2.96-.219 0-.579-.292-.8-.65zm103.63-3.148c-4.68-7.72-10.37-15.209-16.014-21.076-1.473-1.531-2.679-2.876-2.679-2.99 0-.112 1.082-1.331 2.404-2.708 3.333-3.472 6.361-7.17 9.557-11.671 2.47-3.48 7.726-11.546 8.567-13.148.574-1.094 1.097-.744 2.376 1.589 4.01 7.32 9.524 14.958 16.589 22.982 1.372 1.558 2.494 2.886 2.494 2.951 0 .065-1.188 1.455-2.64 3.089-6.102 6.865-11.385 14.097-15.312 20.96-1.244 2.174-2.358 3.801-2.606 3.807-.253.01-1.397-1.577-2.736-3.785zm-140.5-9.13c-1.943-3.133-3.982-5.955-5.814-8.046l-2.138-2.44 2.183-2.596c1.201-1.428 3.12-4.024 4.262-5.77 1.143-1.746 2.179-3.174 2.3-3.174.123 0 .632.713 1.131 1.585 1.18 2.057 3.68 5.526 5.667 7.862.866 1.019 1.575 1.969 1.575 2.11 0 .143-.788 1.143-1.751 2.223-1.486 1.666-3.974 5.155-5.88 8.247-.27.437-.615.794-.766.794-.152 0-.498-.357-.77-.794zm-1.403-25.896c-1.855-.585-2.866-1.21-4.024-2.49-2.239-2.472-2.857-5.19-2.856-12.561 0-4.35.098-5.563.599-7.415 1.216-4.498 3.023-6.6 6.547-7.616 3.534-1.018 7.844 0 9.525 2.244 1.744 2.33 1.616 3.11-.51 3.11-.937 0-1.379-.173-1.92-.75-1.202-1.285-2.215-1.647-4.166-1.49-1.84.147-3.7.91-4.578 1.878-.578.638-1.658 3.503-1.658 4.398 0 .678.498.752 1.311.194 1.421-.974 4.032-1.687 5.542-1.514 3.383.388 6.405 2.704 7.663 5.874.96 2.418.966 7.414.014 10.442-.872 2.774-2.895 4.938-5.273 5.643-1.825.54-4.596.564-6.216.053zm5.846-4.098c1.825-1.055 3.022-3.63 3.033-6.524.011-2.86-.5-4.433-1.922-5.905-1.907-1.975-4.038-2.318-6.541-1.052-1.803.913-3.276 2.666-3.77 4.49-.428 1.576 0 4.755.894 6.647 1.49 3.152 5.131 4.18 8.306 2.344z" fill="#b4b4b4"/><path d="M0 157.44V0h217.76v314.88H0V157.44zm211.67 156.25c1.909-.904 3.489-2.434 4.399-4.26l.668-1.34V7.37l-.69-1.526c-.85-1.875-3.016-3.886-4.865-4.514-1.227-.417-10.76-.46-102.6-.46H7.332l-1.772.883c-2.009 1.002-3.034 2.075-4.014 4.2L.868 7.425l.073 150.48.073 150.48.721 1.409c.948 1.852 2.84 3.476 4.874 4.185 1.628.567 2.631.572 102.56.522l100.91-.05 1.593-.754zm-19.193-20.504c-1.63-.383-2.594-.96-3.77-2.259-1.075-1.188-1.566-2.348-1.226-2.898.104-.168.749-.305 1.432-.305.99 0 1.431.179 2.163.877 1.668 1.59 3.54 1.847 6.202.853 2.358-.88 3.557-2.5 3.883-5.25l.174-1.468-1.275.738c-2.198 1.272-4.426 1.766-6.284 1.393-5.402-1.082-8.442-6.184-7.63-12.804.601-4.906 2.563-7.955 5.812-9.031 2.36-.782 5.73-.523 7.985.613 3.927 1.979 5.328 5.714 5.345 14.257.018 9.156-2.112 13.624-7.216 15.136-1.69.5-3.85.558-5.595.148zm5.579-12.682c1.49-.758 3.043-2.636 3.486-4.214.475-1.693.202-4.586-.61-6.47-.762-1.766-2.157-3.048-3.797-3.488-4.237-1.139-7.761 2.279-7.761 7.526 0 5.73 4.185 8.935 8.682 6.646zm-145.21-3.098c-4.603-7.754-10.847-16.107-16.23-21.71-1.663-1.732-3.024-3.31-3.024-3.506 0-.197 1.159-1.567 2.575-3.045 4.85-5.06 9.847-11.738 15.402-20.578 1.626-2.587 3.1-4.658 3.275-4.6.176.056.631.678 1.011 1.381 4.131 7.636 9.226 14.796 16.553 23.266 1.584 1.83 2.88 3.464 2.88 3.63 0 .164-1.179 1.606-2.62 3.204-6.378 7.072-10.801 13.212-16.58 23.013-.508.863-1.068 1.615-1.244 1.67-.177.057-1.076-1.17-1.999-2.724zm106.48 1.5c-5.941-9.888-11.506-17.37-17.706-23.804-1.443-1.498-2.624-2.776-2.624-2.84 0-.064 1.187-1.397 2.638-2.963 5.24-5.651 9.604-11.574 16.864-22.889.892-1.39 1.754-2.527 1.914-2.527.16 0 .671.747 1.134 1.66 3.213 6.336 9.32 14.913 16.506 23.183 1.45 1.668 2.637 3.275 2.638 3.57 0 .296-.989 1.588-2.2 2.872-5.132 5.443-11.522 14.163-15.866 21.65-1.083 1.868-2.092 3.395-2.241 3.395-.15 0-.625-.588-1.057-1.307zm34.893-25.342c-1.196-1.787-3.1-4.26-4.23-5.494-1.132-1.235-2.058-2.293-2.058-2.352 0-.06.921-1.194 2.046-2.522 1.126-1.328 3.019-3.877 4.208-5.665 1.189-1.787 2.285-3.25 2.435-3.25.151 0 .496.358.767.795 1.86 3.002 3.812 5.757 5.578 7.872 1.127 1.35 2.05 2.557 2.05 2.682s-.86 1.23-1.913 2.456c-1.052 1.225-2.884 3.69-4.07 5.478-1.187 1.788-2.266 3.25-2.398 3.25-.133 0-1.22-1.462-2.415-3.25zm-139.76-66.78c-.185-.222-1.43-2.177-2.768-4.344-4.816-7.804-9.596-14.085-14.935-19.626-1.74-1.806-3.164-3.468-3.164-3.693 0-.225.533-.922 1.186-1.55 4.664-4.491 10.745-12.532 17.136-22.663 1.353-2.145 2.638-3.933 2.855-3.974.238-.044.996 1.06 1.91 2.782 3.44 6.482 10.357 15.906 17.412 23.724.645.715 1.179 1.475 1.186 1.69.01.214-.853 1.32-1.91 2.455-5.867 6.308-11.526 14.016-16.311 22.218-.998 1.71-1.915 3.171-2.037 3.247-.123.076-.374-.044-.56-.267zm105.46.05c-.154-.2-.973-1.532-1.822-2.962-4.401-7.418-10.314-15.313-15.949-21.298l-3.2-3.4 2.947-3.25c5.473-6.035 9.657-11.651 14.954-20.076 1.723-2.74 3.284-4.982 3.468-4.983.185 0 .946 1.123 1.69 2.498 3.782 6.976 8.749 13.869 16.194 22.47 1.366 1.578 2.48 3.073 2.473 3.322-.01.248-.43.922-.94 1.497-7.858 8.834-12.467 15.055-17.149 23.15-1.08 1.866-2.058 3.392-2.175 3.392-.117 0-.338-.162-.492-.36zM54.049 92.947c-.221-.357-1.156-1.885-2.078-3.394-4.596-7.53-9.858-14.51-14.786-19.612-1.977-2.048-3.595-3.885-3.595-4.083 0-.197.891-1.295 1.98-2.44 5.481-5.755 11.474-13.877 17.784-24.101.597-.969 1.249-1.761 1.447-1.76.199 0 .741.725 1.205 1.61 3.586 6.847 10.282 16.163 17.216 23.954 1.131 1.272 2.059 2.488 2.06 2.704 0 .217-.996 1.452-2.22 2.745-5.069 5.36-12.167 15.065-16.137 22.067-.924 1.628-1.858 2.96-2.076 2.96-.219 0-.579-.292-.8-.65zm103.63-3.148c-4.68-7.72-10.37-15.209-16.014-21.076-1.473-1.531-2.679-2.876-2.679-2.99 0-.112 1.082-1.331 2.404-2.708 3.333-3.472 6.361-7.17 9.557-11.671 2.47-3.48 7.726-11.546 8.567-13.148.574-1.094 1.097-.744 2.376 1.589 4.01 7.32 9.524 14.958 16.589 22.982 1.372 1.558 2.494 2.886 2.494 2.951 0 .065-1.188 1.455-2.64 3.089-6.102 6.864-11.385 14.097-15.312 20.96-1.244 2.174-2.358 3.801-2.606 3.807-.253.01-1.397-1.577-2.736-3.785zm-140.5-9.13c-1.943-3.133-3.982-5.955-5.814-8.046l-2.138-2.44 2.183-2.596c1.201-1.428 3.12-4.024 4.262-5.77 1.143-1.746 2.179-3.174 2.3-3.174.123 0 .632.713 1.131 1.585 1.18 2.057 3.68 5.526 5.667 7.862.866 1.019 1.575 1.968 1.575 2.11 0 .143-.788 1.143-1.751 2.223-1.486 1.666-3.974 5.155-5.88 8.247-.27.437-.615.794-.766.794-.152 0-.498-.357-.77-.794zm-1.403-25.896c-1.855-.585-2.866-1.21-4.024-2.49-2.239-2.472-2.857-5.19-2.856-12.561 0-4.35.098-5.563.599-7.415 1.216-4.498 3.023-6.6 6.547-7.616 3.534-1.018 7.844 0 9.525 2.244 1.744 2.33 1.616 3.11-.51 3.11-.937 0-1.379-.173-1.92-.75-1.202-1.285-2.215-1.647-4.166-1.49-1.84.147-3.7.91-4.578 1.878-.578.638-1.658 3.503-1.658 4.398 0 .678.498.752 1.311.194 1.421-.974 4.032-1.687 5.542-1.514 3.383.388 6.405 2.704 7.663 5.874.96 2.418.966 7.414.014 10.442-.872 2.774-2.895 4.938-5.273 5.643-1.825.54-4.596.564-6.216.053zm5.846-4.098c1.825-1.055 3.022-3.63 3.033-6.524.011-2.86-.5-4.433-1.922-5.905-1.907-1.975-4.038-2.318-6.541-1.052-1.803.913-3.275 2.666-3.77 4.49-.428 1.576 0 4.755.894 6.647 1.49 3.152 5.131 4.18 8.306 2.344z" fill="#e49090"/><path d="M0 157.44V0h217.76v314.88H0V157.44zm211.67 156.25c1.909-.904 3.489-2.434 4.399-4.26l.668-1.34V7.37l-.69-1.526c-.85-1.875-3.016-3.886-4.865-4.514-1.227-.417-10.76-.46-102.6-.46H7.332l-1.772.883c-2.009 1.002-3.034 2.075-4.014 4.2L.868 7.425l.073 150.48.073 150.48.721 1.409c.948 1.852 2.84 3.476 4.874 4.185 1.628.567 2.631.572 102.56.522l100.91-.05 1.593-.754zm-18.966-20.579c-2.025-.521-3.138-1.161-4.151-2.388-1.042-1.26-1.401-2.409-.86-2.75.807-.512 2.234-.255 3.191.575 1.444 1.252 2.065 1.487 3.92 1.487 2.295 0 4.598-1.134 5.459-2.689.67-1.212 1.465-4.148 1.195-4.418-.094-.094-1.058.264-2.142.796-1.739.853-2.243.967-4.291.965-2.026 0-2.517-.109-3.861-.85-1.875-1.035-3.08-2.36-4.077-4.48-.697-1.482-.752-1.891-.742-5.501.01-3.327.106-4.136.65-5.503.97-2.432 2.189-3.895 3.97-4.764 3.736-1.824 8.65-.994 11.275 1.905 2.246 2.48 2.838 5.09 2.846 12.55.01 4.476-.083 5.522-.631 7.511-.777 2.82-1.668 4.395-3.247 5.744-2.051 1.751-5.708 2.53-8.504 1.81zm5.843-12.784c.845-.521 1.72-1.401 2.257-2.268.826-1.336.876-1.582.864-4.326-.01-2.556-.103-3.084-.765-4.353-.414-.794-1-1.667-1.301-1.939-1.555-1.4-4.555-1.776-6.642-.83-2.35 1.064-3.588 3.604-3.583 7.355.01 4.693 2.472 7.564 6.282 7.312 1.037-.069 1.938-.365 2.888-.951zm-145.59-2.93c-5.318-8.845-10.604-15.897-16.296-21.739-1.47-1.51-2.771-2.908-2.891-3.108-.14-.234.793-1.462 2.636-3.466 5.61-6.1 10.748-13.121 16.947-23.154.598-.968 1.25-1.759 1.448-1.758.198 0 .813.874 1.367 1.942 2.943 5.678 8.532 13.558 15.084 21.267 2.14 2.517 3.926 4.674 3.971 4.794.045.12-.974 1.375-2.265 2.79-6.097 6.68-12.124 14.98-16.5 22.72-.697 1.232-1.427 2.24-1.623 2.24-.197 0-1.042-1.138-1.878-2.528zm105.45-.14c-4.46-7.557-10.738-15.95-16.199-21.657-1.608-1.68-2.925-3.237-2.925-3.458 0-.222.728-1.114 1.618-1.982 4.707-4.595 10.89-12.885 17.498-23.461.869-1.39 1.728-2.528 1.91-2.528.181 0 1.114 1.398 2.073 3.106 3.986 7.099 8.435 13.223 15.625 21.507 1.476 1.7 2.683 3.232 2.683 3.406 0 .173-1.348 1.837-2.996 3.697-5.737 6.478-11.384 14.274-15.316 21.148-.863 1.51-1.754 2.78-1.98 2.822-.25.047-1.029-.969-1.99-2.6zm36.114-23.404c-1.062-1.628-2.914-4.097-4.116-5.485-1.202-1.388-2.186-2.65-2.186-2.803 0-.153.79-1.162 1.757-2.242.966-1.08 2.82-3.556 4.12-5.502 1.3-1.946 2.455-3.539 2.566-3.539.11 0 .61.713 1.11 1.585 1.192 2.077 3.74 5.608 5.526 7.657.784.9 1.426 1.82 1.426 2.047 0 .226-.921 1.516-2.047 2.866-1.125 1.35-2.904 3.788-3.952 5.416-1.049 1.629-1.99 2.961-2.09 2.961-.101 0-1.052-1.332-2.114-2.96zM52.831 184.09c-5.035-8.438-10.601-15.786-17.177-22.675l-2.136-2.237 2.28-2.49c6.293-6.867 10.819-13.038 17.932-24.45.47-.755.936-1.373 1.036-1.373.1 0 .996 1.452 1.993 3.228 4.028 7.175 8.696 13.589 16.034 22.03 1.373 1.578 2.495 2.944 2.495 3.035 0 .091-1.063 1.334-2.363 2.763-5.692 6.255-12.062 14.998-16.168 22.189-.876 1.534-1.74 2.79-1.919 2.793-.18 0-1.082-1.264-2.007-2.813zm106.22 1.078c-2.311-3.794-7.297-11.233-9.193-13.716-2.452-3.21-6.46-7.809-8.807-10.102-.97-.949-1.765-1.901-1.765-2.117 0-.216 1.232-1.715 2.737-3.331 4.911-5.273 8.817-10.454 13.95-18.504 1.531-2.402 3.1-4.86 3.484-5.46.385-.602.808-1.028.94-.946.131.08 1.185 1.808 2.341 3.837 3.658 6.422 8.274 12.782 14.672 20.215 1.806 2.098 3.283 3.966 3.283 4.152 0 .186-.791 1.182-1.758 2.214-5.681 6.059-11.913 14.53-16.41 22.308-.96 1.662-1.89 3.07-2.067 3.129-.176.058-.81-.698-1.407-1.68zM52.841 90.783c-5.085-8.535-10.469-15.69-16.696-22.187-2.923-3.05-2.9-2.884-.66-5.04 4.497-4.327 11.037-13.076 17.223-23.044 1.013-1.633 1.963-2.928 2.112-2.879.15.05.984 1.386 1.856 2.969 3.38 6.135 9.01 13.925 15.43 21.348 1.766 2.041 3.173 3.81 3.128 3.93-.045.12-1.34 1.629-2.876 3.353-6.393 7.173-12.268 15.36-16.192 22.562-.541.993-1.133 1.805-1.316 1.805-.182 0-1.087-1.267-2.01-2.816zm106.9 2.166c-.225-.357-1.453-2.34-2.73-4.405-4.657-7.53-9.392-13.721-14.61-19.098-1.712-1.765-3.114-3.368-3.114-3.562 0-.194 1.168-1.613 2.596-3.152 4.98-5.371 9.196-10.987 14.59-19.434 1.953-3.057 3.678-5.6 3.833-5.653.156-.052.79.85 1.41 2.004 3.813 7.106 9.645 15.18 17.061 23.619 1.048 1.191 1.907 2.345 1.911 2.564 0 .22-.808 1.26-1.803 2.314-5.523 5.844-11.388 13.773-15.997 21.626-1.236 2.105-2.357 3.827-2.493 3.827-.135 0-.43-.292-.654-.65zm-144.2-15.022c-1.196-1.787-3.03-4.18-4.074-5.318s-1.899-2.255-1.899-2.483c0-.228.277-.662.616-.965.995-.89 4.104-4.972 5.864-7.7.897-1.39 1.747-2.527 1.89-2.527.141 0 .88 1.007 1.643 2.239 1.502 2.425 3.109 4.605 5.176 7.021.724.846 1.316 1.716 1.316 1.933 0 .217-.794 1.33-1.765 2.473-1.75 2.06-5.764 7.863-5.764 8.333 0 .134-.186.244-.414.244-.228 0-1.393-1.462-2.589-3.25zm1.071-23.033c-3.524-.746-5.899-3.041-6.95-6.717-.681-2.383-.857-12.177-.268-14.953.938-4.422 3.001-7.235 6.078-8.285 1.758-.6 5.017-.67 6.78-.144 1.969.586 4.4 3.082 4.4 4.515 0 .35-.346.448-1.582.448-1.283 0-1.64-.109-1.89-.575-.887-1.652-4.33-2.026-7.082-.769-1.477.674-1.695.9-2.482 2.558-.756 1.594-1.174 3.985-.697 3.985.09 0 .71-.318 1.375-.707.666-.389 1.988-.909 2.938-1.156 1.554-.403 1.902-.404 3.451-.01 5.235 1.338 7.895 5.979 7.165 12.5-.515 4.598-1.962 7.202-4.763 8.569-1.713.836-4.509 1.156-6.473.74zm4.394-3.728c2.491-1.147 3.733-3.547 3.752-7.254.01-2.129-.097-2.678-.813-4.13-1.045-2.125-2.477-3.138-4.69-3.321-2.938-.243-5.658 1.68-6.703 4.742-.87 2.546-.017 6.836 1.736 8.738 1.548 1.68 4.543 2.226 6.718 1.225z" fill="#e07d81"/><path d="M0 157.44V0h217.76v314.88H0V157.44zm211.67 156.25c1.909-.904 3.489-2.434 4.399-4.26l.668-1.34V7.37l-.69-1.526c-.85-1.875-3.016-3.886-4.865-4.514-1.227-.417-10.76-.46-102.6-.46H7.332l-1.772.883c-2.009 1.002-3.034 2.075-4.014 4.2L.868 7.425l.073 150.48.073 150.48.721 1.409c.948 1.852 2.84 3.476 4.874 4.185 1.628.567 2.631.572 102.56.522l100.91-.05 1.593-.754zm-18.822-20.607c-.717-.2-1.767-.562-2.335-.803-1.058-.448-2.65-2.2-2.99-3.288-.48-1.538 2.072-1.606 3.79-.101 1.548 1.356 2.906 1.616 5.222 1 2.557-.68 3.801-1.903 4.503-4.42.523-1.878.616-2.658.315-2.658-.1 0-1.043.422-2.095.939-1.653.81-2.21.937-4.09.93-3.68-.015-6.292-1.712-7.984-5.188-.723-1.485-.857-2.144-.95-4.664-.159-4.26.764-7.517 2.772-9.783 2.29-2.586 7.61-3.167 11.063-1.21 3.956 2.243 5.052 5.41 5.021 14.499-.026 7.702-1.505 11.675-5.11 13.729-.816.464-2.07.918-2.787 1.009l-2.174.27c-.477.057-1.455-.06-2.171-.26zm5.085-12.401c1.497-.695 3.041-2.32 3.6-3.787.358-.938.466-4.309.172-5.35-1.099-3.888-2.891-5.487-6.153-5.487-2.46 0-4.275 1.148-5.477 3.466-.771 1.487-.938 6.232-.28 7.953.528 1.378 2.652 3.482 3.726 3.69 1.599.31 3.04.152 4.412-.485zm-143.89-1.46c-.262-.397-.475-.802-.475-.9 0-.098-.474-.915-1.053-1.816-6.883-10.703-11.552-16.753-17.381-22.52-.85-.841-1.545-1.603-1.545-1.693 0-.09 1.212-1.482 2.694-3.093 2.701-2.937 5.305-5.982 6.471-7.57.343-.467 1.268-1.706 2.054-2.754 1.79-2.385 4.597-6.595 7.395-11.094 1.186-1.906 2.34-3.503 2.563-3.547.25-.05.77.654 1.348 1.823 2.607 5.274 9.275 14.668 15.555 21.914a260.579 260.579 0 0 1 2.827 3.307l.796.966-.761.912c-.419.502-1.466 1.665-2.326 2.585-4.762 5.088-10.818 13.444-15.522 21.416-.837 1.418-1.666 2.625-1.843 2.682-.177.058-.536-.22-.797-.618zm104.36-1.965c-2.602-4.4-8.766-13.506-9.538-14.088-.106-.079-.709-.792-1.34-1.584-1.746-2.188-2.653-3.205-5.492-6.154-1.434-1.489-2.65-2.897-2.703-3.13-.053-.233 1-1.555 2.339-2.939a91.751 91.751 0 0 0 7.366-8.68c1.306-1.761 7.236-10.535 8.72-12.9 1.49-2.376 2.398-3.611 2.654-3.611.133 0 .662.812 1.176 1.805 3.098 5.984 8.913 14.106 16.308 22.778 1.41 1.653 2.632 3.177 2.719 3.389.088.217-.531 1.097-1.424 2.022-1.388 1.439-3.554 3.927-4.945 5.682-.252.318-1.103 1.364-1.89 2.325-2.937 3.58-9.264 13.148-11.049 16.708-.757 1.51-1.194 1.266-2.902-1.622zm37.453-21.378c-1.157-2.23-3.983-6.024-6.404-8.595-.675-.716-1.23-1.463-1.231-1.658 0-.195.797-1.235 1.774-2.311.978-1.076 2.053-2.364 2.39-2.863.335-.5 1.357-2.027 2.269-3.395.912-1.367 1.824-2.486 2.027-2.486.202 0 .746.683 1.208 1.517 1.13 2.038 2.5 3.94 4.862 6.751 1.084 1.29 1.971 2.54 1.971 2.777 0 .237-.298.741-.663 1.12-1.734 1.802-6.865 8.933-6.865 9.542 0 .102-.195.26-.432.35-.285.11-.594-.145-.906-.749zm-142.73-71.356c-1.396-2.432-5.131-8.109-7.552-11.479-1.257-1.749-6.518-8.171-7.22-8.814-.174-.16-1.33-1.369-2.57-2.688l-2.254-2.399 1.842-1.934c3.548-3.724 5.21-5.713 8.26-9.879.757-1.032 1.511-2.035 1.677-2.227.74-.857 4.466-6.513 7.75-11.764.752-1.202 1.534-2.183 1.737-2.18.204 0 1.007 1.205 1.785 2.672 1.416 2.67 4.742 7.9 6.688 10.518 3.474 4.671 4.788 6.32 7.675 9.625 2.66 3.046 4.058 4.828 4.058 5.172 0 .19-.947 1.412-2.103 2.715a161 161 0 0 0-3.971 4.68c-1.028 1.27-1.95 2.375-2.049 2.455-1.025.821-8.73 12.397-11.337 17.033-.271.482-.618.877-.77.877-.153 0-.894-1.072-1.646-2.383zm106.08.879a71.47 71.47 0 0 1-1.823-2.973c-.772-1.351-3.509-5.46-6.063-9.1-1.133-1.615-3.988-5.239-4.79-6.081a33.756 33.756 0 0 1-1.147-1.308c-.387-.464-1.918-2.098-3.402-3.632-1.484-1.534-2.698-2.928-2.698-3.099 0-.17 1.53-1.978 3.402-4.016 3.73-4.063 8.162-9.793 11.221-14.506 1.083-1.668 2.666-4.105 3.518-5.414.852-1.309 1.55-2.479 1.55-2.6.001-.12.308-.6.682-1.067l.68-.849.45.704c.407.638.853 1.427 2.844 5.037 1.025 1.856 4.106 6.454 6.002 8.955 3.468 4.574 4.015 5.252 7.548 9.362 4.084 4.751 3.973 4.169 1.338 7.02-3.495 3.783-7.849 9.19-10.182 12.644-2.366 3.504-5.407 8.38-6.842 10.972-.393.709-.843 1.332-1.002 1.384-.158.053-.737-.592-1.286-1.433zM54.396 93.087c-.544-.652-1.979-2.898-1.979-3.096 0-.239-6.917-10.542-7.85-11.692-.455-.561-1.66-2.06-2.677-3.332-1.018-1.27-3.313-3.849-5.1-5.73l-3.25-3.417.68-.752a77.781 77.781 0 0 1 1.563-1.662c1.634-1.682 6.983-8.064 8.348-9.96 1.947-2.702 7.67-11.361 9.02-13.644.631-1.07 1.346-1.947 1.588-1.95.245 0 .876.797 1.422 1.8 3.924 7.216 8.517 13.688 15.605 21.993 1.644 1.926 3.1 3.702 3.236 3.948.179.323-.054.763-.84 1.589-2.188 2.3-5.726 6.467-7.701 9.069-1.115 1.468-2.16 2.82-2.322 3.005-.727.827-6.004 8.974-7.376 11.389-.837 1.472-1.618 2.736-1.736 2.81-.119.072-.403-.092-.632-.367zm105.33-.138c-.233-.357-.925-1.494-1.54-2.527-2.405-4.04-2.905-4.815-5.107-7.915-2.707-3.812-4.349-6.019-5.5-7.396-2.129-2.545-4.545-5.17-6.339-6.884-1.075-1.028-1.954-2.066-1.954-2.306 0-.241.75-1.233 1.665-2.205 3.434-3.643 4.363-4.718 6.747-7.796 3.746-4.836 7.403-10.198 11.606-17.014.998-1.618 1.28-1.542 2.314.624.354.742 1.077 2.034 1.607 2.871.53.838.964 1.566.964 1.62 0 .427 8.012 11.792 8.68 12.313.102.08 1.087 1.25 2.188 2.6a141.32 141.32 0 0 0 3.82 4.466c.999 1.106 1.817 2.217 1.817 2.468 0 .251-.6 1.036-1.334 1.744-1.35 1.304-5.934 6.676-7.507 8.799-.471.636-.931 1.22-1.023 1.3-.217.188-2.593 3.6-4.452 6.391-1.85 2.78-3.248 5.065-4.617 7.547-.592 1.073-1.196 1.95-1.344 1.95-.148 0-.459-.292-.69-.65zM15.566 77.927c-1.196-1.787-3.035-4.222-4.087-5.41-1.051-1.19-1.912-2.277-1.912-2.417 0-.141.715-1.026 1.589-1.968.874-.941 2.713-3.396 4.088-5.455 1.374-2.059 2.61-3.743 2.744-3.743.135 0 .397.292.581.65.48.93 3.976 6.114 4.555 6.755 2.046 2.264 2.948 3.426 2.948 3.797 0 .239-.696 1.228-1.548 2.199-1.74 1.983-4.696 6.117-5.549 7.759-.31.596-.714 1.083-.9 1.083-.184 0-1.314-1.462-2.51-3.25zm.993-23.068c-2.676-.507-5.458-2.835-6.406-5.363-1.292-3.445-1.6-12.47-.576-16.826 1.098-4.664 3.172-7.047 6.936-7.967 1.833-.448 2.333-.464 4.25-.137 2.479.423 3.575 1.055 4.949 2.852 1.257 1.645 1.153 2.169-.456 2.285-1.076.077-1.396-.045-2.34-.895-1.876-1.692-5.21-1.627-7.855.153-1.383.93-2.98 5.134-2.233 5.88.09.09.776-.178 1.524-.595.748-.416 2.09-.947 2.983-1.179 2.734-.71 5.791.34 7.96 2.736 1.958 2.162 2.34 3.43 2.356 7.82.012 3.327-.082 4.179-.642 5.794-1.458 4.205-5.598 6.362-10.45 5.443zm4.056-3.443c2.453-.68 4.432-4.38 4.243-7.937-.215-4.058-2.256-6.765-5.29-7.016-5.53-.458-8.85 4.907-6.746 10.905.736 2.098 2.041 3.607 3.48 4.021 1.278.369 3.04.38 4.313.026z" fill="#e0817d"/><path d="M0 157.44V0h217.76v314.88H0V157.44zm211.67 156.25c1.909-.904 3.489-2.434 4.399-4.26l.668-1.34V7.37l-.69-1.526c-.85-1.875-3.016-3.886-4.865-4.514-1.227-.417-10.76-.46-102.6-.46H7.332l-1.772.883c-2.009 1.002-3.034 2.075-4.014 4.2L.868 7.425l.073 150.48.073 150.48.721 1.409c.948 1.852 2.84 3.476 4.874 4.185 1.628.567 2.631.572 102.56.522l100.91-.05 1.593-.754zm-19.956-20.936c-.704-.255-1.661-.743-2.128-1.086-.992-.728-2.367-2.927-2.1-3.358.102-.164.796-.298 1.544-.298 1.132 0 1.495.144 2.17.858.752.794 2.296 1.448 3.428 1.452.262 0 1.33-.262 2.373-.583 1.42-.438 2.107-.838 2.73-1.592 1.206-1.46 2.33-5.335 1.547-5.335-.141 0-1.129.407-2.195.905-1.066.498-2.51.97-3.208 1.048-4.027.453-8.121-2.646-9.242-6.996-.774-3-.433-7.45.788-10.307 1.484-3.475 5.467-5.393 9.538-4.594 3.482.683 5.435 2.115 6.717 4.923 1.022 2.24 1.33 4.612 1.332 10.28 0 8.251-1.403 12.03-5.258 14.13-1.325.722-1.915.854-4.15.929-1.853.062-2.977-.047-3.886-.376zm6.254-11.989c2.63-1.27 4.416-4.58 4.015-7.441-.362-2.587-1.036-4.386-2.07-5.529-1.268-1.399-2.538-1.835-4.91-1.684-2.332.148-3.667 1.117-4.895 3.551-.755 1.497-.857 2-.85 4.176.01 3.65 1.258 6.028 3.735 7.124 1.32.583 3.541.496 4.975-.197zm-144.4-2.49c-1.505-2.674-6.233-9.77-8.845-13.277-2.59-3.476-5.31-6.652-8.915-10.412l-2.273-2.371 2.14-2.25c5.536-5.82 10.725-12.773 16.724-22.412 1.165-1.873 2.265-3.358 2.442-3.3.178.057.633.68 1.012 1.383 4.11 7.631 9.315 14.928 16.595 23.266 1.403 1.607 2.55 3.102 2.55 3.324 0 .222-1.062 1.572-2.36 3-5.365 5.9-10.353 12.634-14.682 19.82-1.557 2.583-2.969 4.744-3.138 4.8-.17.056-.732-.65-1.25-1.571zm106.17.999c-.224-.358-1.467-2.364-2.762-4.46-4.54-7.345-9.467-13.784-14.57-19.037-1.716-1.769-3.121-3.316-3.121-3.44 0-.122 1.01-1.328 2.244-2.678 6.197-6.778 8.907-10.463 17.63-23.972.54-.834 1.08-1.516 1.204-1.516.123 0 .87 1.2 1.662 2.669 3.19 5.92 8.865 13.8 15.489 21.51 1.747 2.033 3.177 3.837 3.177 4.008.001.17-.341.626-.76 1.01-1.133 1.044-5.811 6.468-7.971 9.245-3.44 4.42-8.817 12.594-10.791 16.402-.559 1.077-.88 1.135-1.43.258zm34.475-26c-1.199-1.787-3.037-4.18-4.086-5.318-1.048-1.138-1.906-2.148-1.906-2.246 0-.098.964-1.333 2.142-2.745 1.177-1.411 3.008-3.878 4.067-5.48 1.06-1.604 2.047-2.915 2.195-2.915.149 0 .486.358.75.794 1.55 2.564 3.8 5.722 5.455 7.657 1.043 1.22 1.896 2.36 1.896 2.533 0 .174-.794 1.25-1.764 2.393-1.75 2.06-5.764 7.864-5.764 8.333 0 .135-.181.245-.403.245-.22 0-1.383-1.463-2.582-3.25zm-141.22-69.038c-4.457-7.565-10.948-16.24-16.287-21.77-1.554-1.61-2.826-3.091-2.826-3.291 0-.2.815-1.226 1.81-2.28 5.616-5.943 10.664-12.743 17.128-23.07.92-1.47 1.824-2.67 2.009-2.668.185 0 .922 1.13 1.639 2.509 3.172 6.1 9.659 15.038 16.619 22.904 1.052 1.188 1.912 2.325 1.912 2.527 0 .201-1.471 2.037-3.27 4.08-5.615 6.375-9.256 11.36-13.84 18.95-1.53 2.534-2.903 4.647-3.05 4.696-.148.05-.978-1.114-1.844-2.585zm105.38-.292c-5.66-9.228-10.389-15.502-16.222-21.518-1.577-1.626-2.867-3.087-2.867-3.247 0-.16 1.366-1.754 3.035-3.542 1.67-1.79 4.154-4.683 5.521-6.43 2.393-3.06 8.221-11.613 10.872-15.958.702-1.151 1.437-2.093 1.633-2.095.197 0 .7.68 1.12 1.514 3.116 6.199 8.976 14.431 16.259 22.84 1.632 1.885 2.968 3.541 2.968 3.68 0 .139-.757 1.07-1.683 2.069a124.631 124.631 0 0 0-16.42 22.254c-1.078 1.866-2.06 3.394-2.18 3.394-.121 0-1.037-1.333-2.036-2.961zM53.683 91.91c-5.611-9.189-11.322-16.86-16.87-22.662l-3.257-3.406 2.575-2.804c6.096-6.642 10.902-13.177 17.23-23.431.599-.97 1.262-1.762 1.474-1.762.213 0 .548.358.744.795.196.437 1.204 2.257 2.241 4.045 3.304 5.698 8.674 12.967 14.671 19.86 1.383 1.588 2.514 3.066 2.514 3.284 0 .219-.749 1.198-1.664 2.176-5.642 6.03-11.256 13.602-15.722 21.203-3.003 5.113-2.623 4.852-3.936 2.702zm104.27-1.995c-2.776-4.57-6.772-10.33-9.663-13.927-2.159-2.688-7.572-8.73-8.518-9.507-.73-.6-.602-.956.844-2.36 4.69-4.553 10.808-12.631 16.91-22.321 1.585-2.518 2.8-4.172 2.952-4.02.143.142 1.035 1.649 1.982 3.349 3.464 6.215 8.357 12.997 14.546 20.164 2.03 2.35 3.692 4.386 3.692 4.523 0 .136-1.065 1.406-2.366 2.821-5.468 5.947-12.016 14.925-16.05 22.001-.928 1.629-1.778 2.961-1.888 2.961-.111 0-1.209-1.657-2.44-3.683zM15.723 78.074c-1.141-1.71-2.994-4.146-4.117-5.415-1.124-1.27-2.043-2.42-2.043-2.556 0-.137.795-1.113 1.766-2.17.97-1.057 2.82-3.515 4.108-5.461 1.288-1.946 2.436-3.539 2.55-3.539.114 0 .596.683 1.07 1.517 1.125 1.98 3.79 5.666 5.585 7.725.785.9 1.426 1.83 1.426 2.069 0 .238-.337.748-.75 1.133-1.073 1.001-4.512 5.572-5.839 7.76-.62 1.024-1.252 1.903-1.404 1.953-.152.051-1.21-1.306-2.352-3.016zm1.291-23.182c-2.92-.52-5.407-2.34-6.569-4.807-1.1-2.333-1.313-4.034-1.303-10.362.01-5.828.04-6.157.796-8.377 1.417-4.162 3.586-6.147 7.385-6.757 3.498-.562 6.59.48 8.383 2.826 1.26 1.647 1.155 2.171-.454 2.287-1.08.078-1.395-.044-2.364-.918-1.454-1.31-3.072-1.581-5.4-.906-2.129.617-3.154 1.344-3.87 2.745-.745 1.455-1.26 3.77-.917 4.113.161.16.993-.102 2.111-.666 2.602-1.313 5.089-1.482 7.255-.493 2.239 1.023 3.563 2.306 4.647 4.505.93 1.886.947 1.987.935 5.825-.01 3.388-.1 4.134-.688 5.638-1.573 4.027-5.502 6.14-9.947 5.348zm3.942-3.577c.522-.217 1.434-.961 2.028-1.653 2.878-3.355 2.48-9.587-.78-12.22-1.032-.833-1.275-.898-3.377-.898-2.053 0-2.38.082-3.513.876-1.871 1.312-2.95 3.245-3.097 5.553-.24 3.77 1.118 6.953 3.462 8.11 1.476.73 3.834.833 5.277.232z" fill="#929292"/><path d="M0 157.44V0h217.76v314.88H0V157.44zm212.14 156.22c1.848-.972 3.687-3.022 4.286-4.775.413-1.209.456-15.59.456-151.43V7.365l-.824-1.736c-.917-1.934-2.394-3.386-4.373-4.3L210.367.72H7.087l-1.303.68c-1.775.928-3.372 2.5-4.296 4.23L.717 7.077.64 156.716c-.054 103.98.016 150.08.227 151.07.61 2.866 2.79 5.295 5.639 6.28 1.366.471 7.272.497 102.8.437l101.35-.064 1.483-.781zm-20.426-20.91c-.704-.255-1.661-.743-2.128-1.086-.992-.728-2.367-2.927-2.1-3.358.102-.164.796-.298 1.544-.298 1.132 0 1.495.144 2.17.858.752.794 2.296 1.448 3.428 1.452.262 0 1.33-.262 2.373-.583 1.42-.438 2.107-.838 2.73-1.592 1.206-1.46 2.33-5.335 1.547-5.335-.141 0-1.129.407-2.195.905-1.066.498-2.51.97-3.208 1.048-4.027.452-8.121-2.646-9.242-6.997-.774-2.999-.433-7.45.788-10.307 1.484-3.474 5.467-5.392 9.538-4.593 3.482.683 5.435 2.115 6.717 4.923 1.022 2.24 1.33 4.612 1.332 10.28 0 8.251-1.403 12.03-5.258 14.13-1.325.722-1.915.854-4.15.929-1.853.062-2.977-.047-3.886-.376zm6.254-11.989c2.63-1.27 4.416-4.58 4.015-7.441-.362-2.587-1.036-4.386-2.07-5.529-1.268-1.399-2.538-1.835-4.91-1.684-2.332.148-3.667 1.117-4.895 3.551-.755 1.497-.857 2-.85 4.176.01 3.65 1.258 6.028 3.735 7.124 1.32.583 3.541.496 4.975-.197zm-144.4-2.49c-1.505-2.674-6.233-9.77-8.845-13.277-2.59-3.476-5.31-6.652-8.915-10.412l-2.273-2.371 2.14-2.25c5.536-5.82 10.725-12.773 16.724-22.412 1.165-1.873 2.265-3.358 2.442-3.3.178.057.633.68 1.012 1.383 4.11 7.631 9.315 14.928 16.595 23.266 1.403 1.607 2.55 3.102 2.55 3.324 0 .222-1.062 1.572-2.36 3-5.365 5.9-10.353 12.634-14.682 19.82-1.557 2.583-2.969 4.744-3.138 4.8-.17.056-.732-.65-1.25-1.571zm106.17.999c-.224-.358-1.467-2.364-2.762-4.46-4.54-7.345-9.467-13.784-14.57-19.037-1.716-1.769-3.121-3.316-3.121-3.44 0-.122 1.01-1.328 2.244-2.678 6.197-6.778 8.907-10.463 17.63-23.972.54-.834 1.08-1.516 1.204-1.516.123 0 .87 1.2 1.662 2.668 3.19 5.92 8.865 13.801 15.489 21.51 1.747 2.034 3.177 3.838 3.177 4.009.001.17-.341.625-.76 1.01-1.133 1.044-5.811 6.468-7.971 9.245-3.44 4.42-8.817 12.594-10.791 16.402-.559 1.077-.88 1.135-1.43.258zm34.475-26c-1.199-1.787-3.037-4.18-4.086-5.318-1.048-1.138-1.906-2.148-1.906-2.246 0-.098.964-1.333 2.142-2.745 1.177-1.411 3.008-3.878 4.067-5.48 1.06-1.604 2.047-2.915 2.195-2.915.149 0 .486.358.75.794 1.55 2.564 3.8 5.722 5.455 7.657 1.043 1.22 1.896 2.36 1.896 2.533 0 .174-.794 1.25-1.764 2.393-1.75 2.06-5.764 7.864-5.764 8.333 0 .135-.181.245-.403.245-.22 0-1.383-1.463-2.582-3.25zm-141.22-69.038c-4.457-7.565-10.948-16.24-16.287-21.77-1.554-1.61-2.826-3.091-2.826-3.291 0-.2.815-1.226 1.81-2.28 5.616-5.943 10.664-12.743 17.128-23.07.92-1.47 1.824-2.67 2.009-2.668.185 0 .922 1.13 1.639 2.509 3.172 6.1 9.659 15.038 16.619 22.904 1.052 1.188 1.912 2.325 1.912 2.527 0 .201-1.471 2.037-3.27 4.08-5.615 6.375-9.256 11.36-13.84 18.95-1.53 2.534-2.903 4.647-3.05 4.696-.148.05-.978-1.114-1.844-2.585zm105.38-.292c-5.66-9.228-10.389-15.502-16.222-21.518-1.577-1.626-2.867-3.087-2.867-3.247 0-.16 1.366-1.754 3.035-3.542 1.67-1.79 4.154-4.683 5.521-6.43 2.393-3.06 8.221-11.613 10.872-15.958.702-1.151 1.437-2.093 1.633-2.095.197 0 .7.68 1.12 1.514 3.116 6.199 8.976 14.431 16.259 22.84 1.632 1.885 2.968 3.541 2.968 3.68 0 .139-.757 1.07-1.683 2.068a124.631 124.631 0 0 0-16.42 22.254c-1.078 1.867-2.06 3.395-2.18 3.395-.121 0-1.037-1.333-2.036-2.961zM53.683 91.906c-5.611-9.189-11.322-16.86-16.87-22.662l-3.257-3.406 2.575-2.804c6.096-6.642 10.902-13.177 17.23-23.431.599-.97 1.262-1.762 1.474-1.762.213 0 .548.358.744.795.196.437 1.204 2.257 2.241 4.045 3.304 5.698 8.674 12.967 14.671 19.86 1.383 1.588 2.514 3.066 2.514 3.284 0 .219-.749 1.198-1.664 2.176-5.642 6.03-11.256 13.602-15.722 21.203-3.003 5.113-2.623 4.852-3.936 2.702zm104.27-1.995c-2.776-4.57-6.772-10.33-9.663-13.927-2.159-2.688-7.572-8.73-8.518-9.507-.73-.6-.602-.956.844-2.36 4.69-4.553 10.808-12.631 16.91-22.321 1.585-2.518 2.8-4.172 2.952-4.02.143.142 1.035 1.649 1.982 3.349 3.464 6.215 8.357 12.997 14.546 20.164 2.03 2.35 3.692 4.386 3.692 4.523 0 .136-1.065 1.406-2.366 2.821-5.468 5.947-12.016 14.925-16.05 22.001-.928 1.629-1.778 2.961-1.888 2.961-.111 0-1.209-1.657-2.44-3.683zM15.723 78.07c-1.141-1.71-2.994-4.146-4.117-5.415-1.124-1.27-2.043-2.42-2.043-2.556 0-.137.795-1.113 1.766-2.17.97-1.057 2.82-3.515 4.108-5.461 1.288-1.946 2.436-3.539 2.55-3.539.114 0 .596.683 1.07 1.517 1.125 1.98 3.79 5.666 5.585 7.725.785.9 1.426 1.83 1.426 2.069 0 .238-.337.748-.75 1.133-1.073 1.001-4.512 5.572-5.839 7.76-.62 1.024-1.252 1.903-1.404 1.953-.152.051-1.21-1.307-2.352-3.016zm1.291-23.182c-2.92-.52-5.407-2.34-6.569-4.807-1.1-2.333-1.313-4.034-1.303-10.362.01-5.828.04-6.157.796-8.377 1.417-4.162 3.586-6.147 7.385-6.757 3.498-.562 6.59.48 8.383 2.826 1.26 1.647 1.155 2.171-.454 2.287-1.08.078-1.395-.044-2.364-.918-1.454-1.31-3.072-1.582-5.4-.906-2.129.617-3.154 1.344-3.87 2.745-.745 1.455-1.26 3.77-.917 4.113.161.16.993-.102 2.111-.666 2.602-1.313 5.089-1.482 7.255-.493 2.239 1.023 3.563 2.306 4.647 4.504.93 1.887.947 1.988.935 5.826-.01 3.388-.1 4.134-.688 5.638-1.573 4.027-5.502 6.14-9.947 5.348zm3.942-3.577c.522-.217 1.434-.961 2.028-1.653 2.878-3.355 2.48-9.587-.78-12.22-1.032-.833-1.275-.898-3.377-.898-2.053 0-2.38.082-3.513.876-1.871 1.312-2.95 3.245-3.097 5.553-.24 3.77 1.118 6.953 3.462 8.11 1.476.73 3.834.833 5.277.232z" fill="#db6d6d"/><path d="M0 157.44V0h217.76v314.88H0V157.44zm212.14 156.22c1.848-.972 3.687-3.022 4.286-4.775.413-1.209.456-15.59.456-151.43V7.365l-.824-1.736c-.917-1.934-2.394-3.386-4.373-4.3L210.367.72H7.087l-1.303.68c-1.775.928-3.372 2.5-4.296 4.23L.717 7.077.64 156.716c-.054 103.98.016 150.08.227 151.07.61 2.866 2.79 5.295 5.639 6.28 1.366.471 7.272.497 102.8.437l101.35-.064 1.483-.781zm-20.393-20.982c-1.632-.58-3.031-1.712-3.702-2.994-.703-1.34-.546-1.675.787-1.675.956 0 1.417.2 2.3.995 1.783 1.607 4.043 1.726 7.016.368 1.383-.631 1.673-.92 2.38-2.363.775-1.578 1.327-4.489.852-4.489-.125 0-.76.308-1.412.683-1.992 1.149-4.1 1.71-5.62 1.498-3.242-.456-6.1-2.753-7.333-5.893-.52-1.322-.64-2.208-.634-4.665.017-7.55 2.923-11.266 8.81-11.266 4.72 0 7.929 2.43 9.153 6.933.76 2.789.751 13.266-.01 15.731-1.158 3.74-2.648 5.678-5.26 6.835-2.023.897-5.278 1.03-7.327.302zm6.65-12.102c2.57-1.37 3.902-4.08 3.625-7.374-.388-4.618-2.75-7.289-6.445-7.291-3.67 0-6.066 2.658-6.404 7.109-.23 3.032.401 5.093 2.067 6.755 1.996 1.992 4.414 2.262 7.156.801zm-144.06-1.306c-.226-.357-1.53-2.443-2.899-4.634-4.787-7.664-9.168-13.388-14.409-18.827-1.73-1.796-3.141-3.377-3.136-3.515.01-.138.791-1.096 1.746-2.128 6.19-6.695 10.915-13.025 16.774-22.467 1.013-1.633 2-3.1 2.194-3.26.263-.218.744.432 1.877 2.534 3.22 5.972 8.88 13.873 15.162 21.164 1.845 2.141 3.355 4.01 3.355 4.152 0 .142-.75 1.059-1.665 2.037-5.938 6.34-11.716 14.186-16.565 22.489-.998 1.708-1.861 3.105-1.92 3.105-.059 0-.29-.292-.516-.65zm104.18-2.17c-5.193-8.694-10.957-16.272-17.448-22.943l-1.879-1.93 2.544-2.692c4.94-5.228 9.614-11.45 15.201-20.238 1.792-2.819 3.363-5.06 3.492-4.98.129.079.908 1.39 1.73 2.913 3.19 5.902 8.395 13.116 15.262 21.151l3.288 3.849-1.18 1.351c-.649.744-2.16 2.457-3.358 3.807-4.992 5.628-10.182 12.997-14.689 20.856-.428.747-.892 1.427-1.03 1.513-.14.086-1.01-1.11-1.933-2.657zm35.884-23.686c-1.137-1.707-2.996-4.17-4.13-5.473l-2.061-2.37 1.357-1.524c1.762-1.98 4.387-5.518 5.733-7.73.587-.962 1.164-1.75 1.284-1.75.12 0 .972 1.215 1.893 2.7.921 1.486 2.7 3.924 3.951 5.417 1.253 1.494 2.28 2.799 2.285 2.9 0 .103-.912 1.273-2.039 2.6-1.126 1.329-2.904 3.748-3.953 5.376-1.048 1.629-1.983 2.96-2.078 2.96-.095-.001-1.104-1.399-2.242-3.106zm-142-70.305c-2.55-4.211-6.83-10.429-9.279-13.483-2.365-2.948-8.124-9.3-8.432-9.3-.134 0-.392-.327-.574-.726-.31-.679-.183-.88 1.976-3.106 4.9-5.053 9.958-11.767 15.452-20.506 1.672-2.66 3.126-4.837 3.23-4.838.106 0 .808 1.137 1.561 2.527 3.655 6.746 8.53 13.509 15.84 21.974 1.553 1.798 2.823 3.39 2.823 3.536 0 .147-.994 1.341-2.208 2.653-5.32 5.745-12.396 15.454-16.21 22.237-.78 1.386-1.56 2.523-1.737 2.528-.175 0-1.274-1.57-2.442-3.496zm106.92 2.176c-5.233-8.807-11.406-17.092-17.228-23.122l-2.882-2.984 2.107-2.243c5.751-6.123 11.397-13.778 17.73-24.037.601-.976 1.202-1.707 1.334-1.625.133.082 1.06 1.608 2.062 3.392 3.524 6.279 9.918 15.012 16.032 21.899 1.055 1.189 1.918 2.344 1.918 2.567 0 .223-.951 1.46-2.114 2.75-6.279 6.961-11.149 13.616-15.826 21.626-.997 1.708-1.933 3.106-2.078 3.106-.146 0-.62-.598-1.055-1.328zM53.411 91.356c-2.172-3.716-7.92-12.076-10.574-15.383-1.467-1.827-4.084-4.836-5.816-6.687-1.732-1.85-3.149-3.453-3.149-3.56 0-.108 1.3-1.584 2.887-3.28 4.866-5.196 10.381-12.69 15.93-21.643 1.01-1.628 1.928-2.96 2.042-2.96.114 0 .992 1.397 1.952 3.105 3.596 6.4 8.42 13.104 14.652 20.362 2.01 2.341 3.655 4.375 3.655 4.52 0 .144-1.176 1.543-2.613 3.109-5.024 5.472-10.188 12.443-14.381 19.41-1.483 2.465-2.696 4.589-2.696 4.72 0 .13-.169.238-.374.238-.206 0-.888-.878-1.515-1.95zm103.97-2.513c-5.05-8.107-9.419-13.84-14.946-19.614l-3.21-3.354 3.193-3.545c5.526-6.135 9.195-11.057 14.51-19.464 1.68-2.659 3.184-4.876 3.34-4.926.157-.051.74.776 1.298 1.838 3.031 5.772 8.61 13.688 14.497 20.567a530.75 530.75 0 0 1 3.968 4.674l.657.804-2.54 2.837c-5.902 6.593-10.336 12.59-14.752 19.952-1.548 2.582-2.91 4.694-3.025 4.694-.115 0-1.46-2.008-2.99-4.464zm-139.74-8.148c-.245-.293-.948-1.312-1.562-2.266-1.533-2.377-3.488-4.91-5.169-6.698l-1.409-1.498 1.936-2.257c1.065-1.242 2.915-3.72 4.111-5.507 1.196-1.788 2.271-3.25 2.39-3.25.12 0 .712.812 1.317 1.805 1.447 2.373 2.684 4.07 4.943 6.78 1.021 1.226 1.857 2.298 1.856 2.382 0 .085-.794 1.065-1.763 2.177-1.46 1.674-4.735 6.303-5.912 8.355-.278.484-.315.483-.738-.023zm-2.204-26.344c-4.009-1.382-5.656-4.138-6.22-10.407-1.186-13.168 2.4-19.797 10.456-19.331 2.895.167 4.968 1.239 6.194 3.202.454.727.74 1.46.634 1.63-.105.17-.71.309-1.346.309-.84 0-1.329-.186-1.792-.68-.351-.375-1.086-.911-1.633-1.192-1.946-.997-5.798-.147-7.48 1.65-.733.785-1.805 3.57-1.805 4.692 0 .962.48.934 2.64-.153 2.284-1.15 4.112-1.365 6.104-.716 4.582 1.494 6.87 5.475 6.52 11.345-.407 6.823-3.355 10.204-8.872 10.176-1.05-.01-2.574-.24-3.4-.525zm5.985-3.224c1.24-.627 1.764-1.204 2.624-2.885.821-1.606 1.123-5.667.55-7.405-1.572-4.764-6.418-6.12-10.092-2.824-1.82 1.633-2.445 3.126-2.426 5.797.018 2.623.69 4.647 2.05 6.174 1.745 1.96 4.747 2.43 7.294 1.143z" fill="#d64e4f"/><path d="M0 157.44V0h217.76v314.88H0V157.44zm212.14 156.22c1.848-.972 3.687-3.022 4.286-4.775.413-1.209.456-15.59.456-151.43V7.365l-.824-1.736c-.917-1.934-2.394-3.386-4.373-4.3L210.367.72H7.087l-1.303.68c-1.775.928-3.372 2.5-4.296 4.23L.717 7.077.64 156.716c-.054 103.98.016 150.08.227 151.07.61 2.866 2.79 5.295 5.639 6.28 1.366.471 7.272.497 102.8.437l101.35-.064 1.483-.781zm-18.423-20.655c-2.59-.422-4.517-1.577-5.48-3.286-.363-.644-.586-1.244-.497-1.333.09-.09.7-.176 1.355-.193.833-.022 1.274.113 1.461.447 1.296 2.31 6.635 2.254 9.142-.097.816-.764 1.797-3.048 2.026-4.715.223-1.63-.042-1.669-2.569-.385-3.657 1.858-6.966 1.354-9.824-1.497-1.355-1.352-1.746-1.978-2.247-3.596-1.156-3.734-.59-9.234 1.228-11.93 1.864-2.764 5.026-3.985 8.599-3.322 4.318.8 6.411 2.917 7.376 7.46.59 2.782.583 12.015-.012 14.534-.556 2.35-2.007 5.08-3.172 5.967-1.9 1.446-5.168 2.307-7.386 1.945zm3.53-11.692c1.52-.454 3.513-2.251 4.304-3.882.48-.99.64-1.831.631-3.316-.032-5.046-2.613-8.36-6.499-8.344-4.019.017-6.665 3.206-6.695 8.067-.034 5.53 3.641 8.856 8.26 7.475zm-143.62-3.441c-5.969-9.783-11.536-17.198-17.365-23.126l-2.455-2.497 2.61-2.767c4.939-5.233 10.606-12.832 15.704-21.054 1.353-2.182 2.556-3.969 2.673-3.97.116 0 .558.68.98 1.513 3.161 6.237 9.303 14.835 16.377 22.926 1.405 1.607 2.555 3.084 2.555 3.283 0 .2-1.278 1.81-2.839 3.579-6.393 7.244-10.99 13.607-15.53 21.488-.755 1.31-1.432 2.383-1.504 2.383-.073 0-.615-.792-1.206-1.76zm105.3-.336c-4.841-8.271-10.95-16.43-16.626-22.207-1.503-1.529-2.732-2.876-2.732-2.995 0-.119 1.15-1.468 2.554-2.998a116.177 116.177 0 0 0 8.023-9.715c1.717-2.332 7.683-11.334 9.221-13.912.987-1.654.743-1.863 3.51 3.01 3.337 5.878 8.641 13.11 14.88 20.29 1.45 1.669 2.637 3.145 2.638 3.282.001.137-.96 1.27-2.137 2.517-5.087 5.394-11.276 13.787-15.446 20.946-1.237 2.124-2.342 3.865-2.454 3.87-.113 0-.756-.936-1.43-2.088zm35.477-24.412c-1.136-1.707-2.927-4.033-3.982-5.168-1.054-1.136-1.917-2.155-1.917-2.264 0-.11.846-1.184 1.88-2.388 1.033-1.204 2.813-3.598 3.955-5.32 1.143-1.72 2.166-3.13 2.275-3.13.109 0 .86 1.073 1.67 2.384.81 1.31 2.36 3.472 3.447 4.802 3.174 3.888 3.087 3.368.982 5.844-.999 1.175-2.742 3.534-3.873 5.242-1.132 1.708-2.128 3.105-2.215 3.104-.087-.001-1.087-1.399-2.222-3.106zm-140.05-67.137c-.234-.371-1.485-2.389-2.78-4.484-4.472-7.237-9.18-13.385-14.613-19.087l-3.15-3.304 1.877-1.922c4.522-4.632 8.502-9.76 13.659-17.6 1.956-2.975 3.916-6.027 4.354-6.782.439-.754.9-1.372 1.023-1.372.125 0 1.045 1.463 2.046 3.25 3.765 6.724 9.07 13.967 16.025 21.882 1.047 1.192 1.907 2.33 1.91 2.53 0 .2-1.293 1.825-2.883 3.611-5.534 6.217-9.997 12.318-14.381 19.658-1.333 2.23-2.477 4.11-2.542 4.175-.066.066-.31-.184-.545-.555zm104.17-2.195c-4.47-7.521-9.789-14.667-15.592-20.948l-3.411-3.691 1.486-1.653c6.758-7.513 10.132-11.952 15.675-20.62 1.856-2.901 3.495-5.315 3.643-5.364.149-.05.501.4.785.999 2.604 5.509 10.106 16.014 17.035 23.855 1.239 1.402 2.252 2.65 2.252 2.772 0 .123-.88 1.187-1.954 2.365-6.09 6.672-11.536 14.067-15.992 21.714-.997 1.71-1.912 3.17-2.034 3.246-.122.075-.974-1.129-1.894-2.676zM53.114 90.633c-4.53-7.66-10.478-15.626-15.82-21.19l-3.449-3.593 2.357-2.522C41.32 57.853 46.713 50.64 51.858 42.39c1.462-2.343 2.756-4.26 2.876-4.26.12 0 1.176 1.689 2.345 3.754 3.432 6.06 8.805 13.4 15.116 20.656 1.383 1.589 2.514 3.065 2.514 3.28 0 .216-.93 1.386-2.069 2.6-5.299 5.655-12.443 15.473-16.173 22.227-.716 1.298-1.447 2.362-1.623 2.364-.177 0-.955-1.067-1.73-2.378zm106.62 1.733c-.225-.357-1.412-2.275-2.639-4.26-4.375-7.084-8.864-12.958-14.5-18.973-1.664-1.775-3.026-3.34-3.026-3.477s.663-.895 1.473-1.683c4.202-4.09 10.028-11.686 15.41-20.093 1.96-3.063 3.687-5.609 3.838-5.657.15-.048.907 1.096 1.684 2.543 3.325 6.2 9.827 15.095 16.464 22.522 1.077 1.207 1.96 2.294 1.96 2.417 0 .122-1.28 1.67-2.844 3.44-5.871 6.64-10.51 12.966-14.531 19.812-1.312 2.233-2.497 4.06-2.633 4.06-.137 0-.432-.293-.657-.65zM15.874 77.907c-1.063-1.62-2.855-4.003-3.982-5.296-1.127-1.293-2.05-2.424-2.05-2.514 0-.09.79-1.047 1.755-2.127.964-1.08 2.737-3.433 3.938-5.228 1.202-1.795 2.287-3.225 2.411-3.178.125.048 1.143 1.452 2.263 3.12 1.12 1.668 2.829 3.968 3.798 5.11.969 1.144 1.761 2.258 1.761 2.478 0 .22-.339.715-.754 1.1-1.086 1.008-4.92 6.135-5.951 7.959-.483.853-.964 1.545-1.068 1.537-.104-.01-1.059-1.34-2.121-2.96zm1.063-23.3c-3.594-.766-5.795-2.745-6.879-6.184-.59-1.874-.65-2.636-.65-8.416s.06-6.542.65-8.415c.975-3.093 2.194-4.674 4.523-5.868 1.74-.89 2.188-.995 4.32-1.004 3.054-.013 5.216.89 6.558 2.739 1.208 1.664 1.156 2.004-.304 2.004-.908 0-1.425-.204-2.168-.855-1.868-1.636-4.51-1.748-7.335-.31-1.789.91-2.699 2.463-3.35 5.715-.275 1.37.285 1.416 2.768.229 2.881-1.378 4.899-1.415 7.463-.137 3.835 1.912 5.614 5.978 4.985 11.396-.528 4.545-2.02 7.187-4.792 8.487-1.504.705-4.09.982-5.79.62zm4.359-3.334c1.72-.868 2.794-2.296 3.47-4.616.571-1.961.453-4.832-.27-6.543-2.334-5.523-9.48-5.255-12.08.452-1.21 2.658-.3 7.631 1.775 9.702 1.87 1.864 4.627 2.254 7.105 1.005z" fill="#6b6b6b"/><path d="M0 157.44V0h217.76v314.88H0V157.44zm213.2 155.91c1.776-1.22 2.856-2.598 3.527-4.498.4-1.133.446-16.895.446-151.25 0-136.41-.042-150.11-.461-151.33-.615-1.8-2.787-4.163-4.6-5.006l-1.454-.675H6.778l-1.504.748c-1.67.83-3.32 2.547-4.14 4.307-.522 1.122-.538 5.59-.538 151.95 0 146 .017 150.83.535 151.97 1.022 2.245 3.298 4.272 5.347 4.762.5.12 46.858.198 103.02.174l102.11-.044 1.6-1.099zm-19.482-20.337c-2.59-.422-4.517-1.577-5.48-3.286-.363-.644-.586-1.244-.497-1.333.09-.09.7-.176 1.355-.193.833-.022 1.274.113 1.461.447 1.296 2.31 6.635 2.254 9.142-.097.816-.764 1.797-3.048 2.026-4.715.223-1.63-.042-1.669-2.569-.385-3.657 1.858-6.966 1.354-9.824-1.497-1.355-1.352-1.746-1.978-2.247-3.596-1.156-3.734-.59-9.234 1.228-11.93 1.864-2.764 5.026-3.985 8.599-3.322 4.318.8 6.411 2.917 7.376 7.46.59 2.782.583 12.015-.012 14.534-.556 2.35-2.007 5.08-3.172 5.967-1.9 1.446-5.168 2.307-7.386 1.945zm3.53-11.692c1.52-.454 3.513-2.251 4.304-3.882.48-.99.64-1.831.631-3.316-.032-5.046-2.613-8.36-6.499-8.344-4.019.017-6.665 3.206-6.695 8.067-.034 5.53 3.641 8.856 8.26 7.475zm-143.62-3.442c-5.969-9.782-11.536-17.198-17.365-23.126l-2.455-2.496 2.61-2.767c4.939-5.233 10.606-12.832 15.704-21.054 1.353-2.182 2.556-3.969 2.673-3.97.116 0 .558.68.98 1.513 3.161 6.237 9.303 14.835 16.377 22.926 1.405 1.607 2.555 3.084 2.555 3.283 0 .2-1.278 1.81-2.839 3.578-6.393 7.245-10.99 13.607-15.53 21.488-.755 1.311-1.432 2.384-1.504 2.384-.073 0-.615-.792-1.206-1.76zm105.3-.335c-4.841-8.271-10.95-16.43-16.626-22.207-1.503-1.529-2.732-2.876-2.732-2.995 0-.119 1.15-1.468 2.554-2.998a116.177 116.177 0 0 0 8.023-9.715c1.717-2.332 7.683-11.334 9.221-13.912.987-1.654.743-1.863 3.51 3.01 3.337 5.878 8.641 13.11 14.88 20.29 1.45 1.669 2.637 3.145 2.638 3.282.001.137-.96 1.27-2.137 2.517-5.087 5.394-11.276 13.787-15.446 20.946-1.237 2.124-2.342 3.865-2.454 3.87-.113 0-.756-.936-1.43-2.088zm35.477-24.412c-1.136-1.707-2.927-4.033-3.982-5.168-1.054-1.136-1.917-2.155-1.917-2.264 0-.11.846-1.184 1.88-2.388 1.033-1.204 2.814-3.598 3.956-5.32 1.142-1.72 2.165-3.13 2.274-3.13.109 0 .86 1.073 1.67 2.384.81 1.31 2.36 3.471 3.447 4.802 3.174 3.887 3.087 3.368.982 5.844-.999 1.175-2.742 3.534-3.873 5.242-1.132 1.708-2.128 3.105-2.215 3.104-.087-.001-1.087-1.399-2.222-3.106zm-140.05-67.137c-.234-.371-1.485-2.389-2.78-4.484-4.472-7.237-9.18-13.385-14.613-19.087l-3.15-3.304 1.877-1.922c4.522-4.632 8.502-9.76 13.659-17.6 1.956-2.975 3.916-6.027 4.354-6.782.439-.754.9-1.372 1.023-1.372.125 0 1.045 1.463 2.046 3.25 3.765 6.724 9.07 13.967 16.025 21.882 1.047 1.192 1.907 2.33 1.91 2.53 0 .2-1.293 1.825-2.883 3.611-5.534 6.217-9.997 12.318-14.381 19.658-1.333 2.23-2.477 4.11-2.542 4.175-.066.066-.31-.184-.545-.555zm104.17-2.195c-4.47-7.521-9.789-14.667-15.592-20.948l-3.411-3.691 1.486-1.653c6.758-7.513 10.132-11.952 15.675-20.62 1.856-2.901 3.495-5.315 3.643-5.365.149-.048.502.4.785 1 2.604 5.509 10.106 16.014 17.035 23.855 1.239 1.402 2.252 2.65 2.252 2.772 0 .123-.88 1.187-1.954 2.365-6.09 6.672-11.536 14.067-15.992 21.714-.996 1.71-1.912 3.17-2.034 3.246-.122.075-.974-1.129-1.894-2.676zM53.115 90.641c-4.53-7.66-10.478-15.626-15.82-21.19l-3.449-3.593 2.357-2.522c5.118-5.475 10.511-12.689 15.656-20.938 1.462-2.343 2.756-4.26 2.876-4.26.12 0 1.176 1.689 2.345 3.754 3.432 6.06 8.805 13.4 15.116 20.656 1.383 1.589 2.514 3.065 2.514 3.28 0 .216-.93 1.386-2.069 2.6-5.299 5.655-12.443 15.473-16.173 22.227-.716 1.298-1.447 2.362-1.623 2.364-.177 0-.955-1.067-1.73-2.378zm106.62 1.733c-.225-.357-1.412-2.275-2.639-4.26-4.374-7.084-8.864-12.958-14.5-18.973-1.664-1.775-3.025-3.34-3.025-3.477s.662-.895 1.473-1.683c4.201-4.09 10.028-11.686 15.409-20.093 1.96-3.063 3.688-5.609 3.838-5.657.15-.048.908 1.096 1.684 2.543 3.325 6.2 9.827 15.095 16.464 22.522 1.078 1.207 1.96 2.294 1.96 2.417 0 .122-1.28 1.67-2.844 3.44-5.871 6.64-10.51 12.966-14.531 19.812-1.312 2.232-2.497 4.06-2.633 4.06-.137 0-.432-.293-.657-.65zM15.875 77.915c-1.063-1.62-2.855-4.004-3.982-5.296-1.127-1.293-2.05-2.424-2.05-2.514 0-.09.79-1.047 1.755-2.127.964-1.08 2.737-3.433 3.938-5.228 1.202-1.796 2.287-3.226 2.411-3.178.125.048 1.143 1.452 2.263 3.12 1.12 1.668 2.829 3.968 3.798 5.11.969 1.143 1.761 2.258 1.761 2.478 0 .22-.339.715-.754 1.1-1.086 1.008-4.92 6.135-5.951 7.959-.483.853-.964 1.545-1.068 1.537-.104-.01-1.059-1.34-2.121-2.96zm1.063-23.3c-3.594-.766-5.795-2.745-6.879-6.184-.59-1.874-.65-2.636-.65-8.416s.06-6.542.65-8.415c.975-3.093 2.194-4.674 4.523-5.868 1.74-.89 2.188-.995 4.32-1.004 3.054-.013 5.216.89 6.558 2.739 1.208 1.664 1.156 2.004-.304 2.004-.908 0-1.425-.204-2.168-.855-1.868-1.636-4.51-1.748-7.335-.31-1.789.91-2.699 2.463-3.35 5.715-.275 1.37.285 1.416 2.768.229 2.881-1.378 4.899-1.415 7.463-.137 3.835 1.912 5.614 5.978 4.985 11.396-.528 4.545-2.02 7.187-4.792 8.487-1.504.705-4.09.982-5.79.62zm4.359-3.334c1.72-.868 2.794-2.296 3.47-4.616.571-1.961.453-4.832-.27-6.543-2.334-5.523-9.48-5.255-12.08.452-1.21 2.658-.3 7.631 1.775 9.702 1.87 1.864 4.627 2.254 7.105 1.005z" fill="#d22d2f"/><path d="M0 157.44V0h217.76v314.88H0V157.44zm213.2 155.91c1.776-1.22 2.856-2.598 3.527-4.498.4-1.133.446-16.895.446-151.25 0-136.41-.042-150.11-.461-151.33-.615-1.8-2.787-4.163-4.6-5.006l-1.454-.675H6.778l-1.504.748c-1.67.83-3.32 2.547-4.14 4.307-.522 1.122-.538 5.59-.538 151.95 0 146 .017 150.83.535 151.97 1.022 2.245 3.298 4.272 5.347 4.762.5.12 46.858.198 103.02.174l102.11-.044 1.6-1.099zm-19.916-20.619c-1.624-.364-2.604-.813-3.514-1.61-1.07-.936-1.939-2.334-1.638-2.634.429-.428 1.765-.134 2.386.525.987 1.049 2.384 1.605 4.03 1.605 1.792 0 4.354-.917 5.356-1.917.81-.808 1.808-3.192 2.1-5.014.25-1.562-.39-1.797-2.177-.801-2.273 1.266-4.188 1.698-5.916 1.333-2.08-.44-3.379-1.157-4.66-2.572-1.998-2.206-2.339-3.347-2.326-7.784.014-4.728.59-6.612 2.624-8.58 3.5-3.388 10.533-2.56 13.144 1.546 1.14 1.794 1.717 4.57 1.93 9.283.365 8.136-1.12 13.207-4.494 15.333-1.878 1.184-4.828 1.739-6.845 1.287zm4.995-11.61c1.5-.764 3.058-2.53 3.692-4.186.401-1.049.482-1.853.36-3.618-.334-4.862-2.88-7.82-6.73-7.82-1.869 0-3.494.753-4.84 2.242-2.926 3.238-2.527 10.372.72 12.842 1.923 1.463 4.57 1.674 6.798.54zm-145.3-4.719c-4.987-8.159-10.494-15.479-15.811-21.015l-3.048-3.173 2.556-2.685c5.33-5.596 9.67-11.51 17.297-23.576l.794-1.255 1.669 2.988c3.76 6.735 8.48 13.252 15.29 21.114 1.479 1.708 2.688 3.248 2.688 3.425 0 .176-.955 1.379-2.122 2.673-5.653 6.268-10.317 12.571-14.673 19.83a497.778 497.778 0 0 1-2.755 4.563c-.037.046-.886-1.254-1.885-2.89zm106.58 1.748c-1.22-2.183-5.821-9.238-7.788-11.94-2.396-3.295-6.544-8.242-9.568-11.413-1.288-1.35-2.343-2.5-2.345-2.555 0-.055.986-1.159 2.196-2.455 4.998-5.35 10.525-12.781 15.668-21.061 1.357-2.185 2.506-3.972 2.554-3.972.047 0 .902 1.462 1.9 3.25 3.466 6.208 8.846 13.604 15.287 21.016 1.45 1.668 2.637 3.145 2.638 3.282 0 .136-.99 1.3-2.203 2.585-4.822 5.114-10.973 13.403-14.876 20.046-2.915 4.964-2.634 4.702-3.464 3.218zm35.879-23.857c-1.3-2.15-3.484-5.03-5.248-6.918-.77-.824-1.4-1.576-1.4-1.67 0-.095.827-1.14 1.839-2.323 1.011-1.183 2.738-3.516 3.836-5.185 1.099-1.669 2.063-3.034 2.142-3.033.08 0 .636.838 1.237 1.862 1.146 1.956 3.32 4.911 5.186 7.05.608.698 1.106 1.388 1.106 1.534 0 .145-.845 1.265-1.878 2.487-1.033 1.222-2.694 3.486-3.692 5.032-.998 1.545-1.884 2.813-1.97 2.816-.086 0-.607-.74-1.158-1.652zm-142.28-70.64c-4.847-8.085-10.31-15.4-15.613-20.907l-3.471-3.604 2.03-2.076c5.305-5.425 8.925-10.31 17.664-23.836l.994-1.539 2.027 3.53c3.96 6.894 8.929 13.66 15.58 21.212 1.12 1.272 2.038 2.515 2.042 2.763 0 .248-.398.833-.893 1.3-1.284 1.21-6.115 6.986-8.685 10.381-2.83 3.74-5.162 7.232-7.763 11.627-1.151 1.946-2.182 3.535-2.29 3.531-.109 0-.838-1.076-1.621-2.383zm105.49-.137c-4.906-8.19-10.927-16.108-17.014-22.373l-1.88-1.935 2.445-2.687c5.98-6.571 11.585-14.204 16.876-22.98.6-.994 1.137-1.806 1.197-1.806.059 0 .856 1.332 1.771 2.96 3.875 6.894 10.406 15.792 16.664 22.7.767.848 1.395 1.637 1.395 1.755 0 .119-1.178 1.505-2.618 3.082-5.603 6.138-12.395 15.571-16.05 22.294-.454.835-.925 1.517-1.049 1.517-.123 0-.905-1.137-1.738-2.527zm-105.2-92.735c-4.663-8.016-10.33-15.612-16.066-21.536l-3.306-3.414 1.73-1.786c2.75-2.838 5.334-5.872 7.915-9.296 2.388-3.168 8-11.507 9.865-14.66.54-.914 1.05-1.661 1.132-1.66.082 0 .855 1.267 1.716 2.816 3.622 6.514 9.039 13.98 15.446 21.29 1.393 1.59 2.534 3.073 2.534 3.296 0 .223-.907 1.359-2.016 2.523-4.477 4.702-11.007 13.531-15.095 20.41-1.298 2.185-2.442 3.97-2.542 3.966-.1 0-.692-.88-1.314-1.95zm105.5-.139c-1.866-3.155-7.37-11.26-9.34-13.756a114.305 114.305 0 0 0-7.691-8.766l-2.177-2.23 1.141-1.29c.628-.71 2.17-2.437 3.426-3.837 4.003-4.465 8.998-11.388 14.213-19.7 1.94-3.093 1.761-3.108 3.483.272 2.3 4.513 9.113 13.924 14.803 20.447 1.573 1.803 2.983 3.45 3.133 3.66.199.278-.32 1.042-1.897 2.789-5.83 6.463-10.83 13.21-14.922 20.139-1.41 2.388-2.648 4.348-2.749 4.354-.101.01-.741-.93-1.423-2.083zM16.018 77.683c-1.088-1.625-2.868-3.982-3.957-5.239-1.768-2.042-1.935-2.336-1.565-2.768 2.43-2.84 3.84-4.677 5.413-7.055 1.024-1.549 1.935-2.81 2.024-2.804.089.01.976 1.274 1.973 2.816.996 1.543 2.658 3.812 3.692 5.042 1.034 1.23 1.88 2.36 1.88 2.51 0 .15-.543.898-1.206 1.663-1.785 2.057-4.118 5.208-5.265 7.112l-1.012 1.678-1.977-2.955zm-.342-23.63c-2.691-.928-4.255-2.512-5.31-5.38-.557-1.513-.649-2.45-.753-7.695-.07-3.582 0-6.54.187-7.394.89-4.138 2.882-7.063 5.498-8.07 2.106-.81 5.865-.708 7.695.21 1.396.702 3.18 2.676 2.976 3.296-.214.65-1.625.503-2.38-.25-1.149-1.146-2.289-1.608-3.96-1.607-4.062 0-6.425 1.91-7.32 5.9-.56 2.497-.096 3.022 1.697 1.923 1.684-1.031 4.508-1.81 5.783-1.596 3.107.524 5.736 2.643 6.887 5.552.527 1.334.656 2.238.666 4.686.017 4.22-.77 6.736-2.715 8.676-2.235 2.23-5.63 2.892-8.951 1.748zm6.295-2.837c1.037-.638 1.554-1.249 2.311-2.73.888-1.736.978-2.143.989-4.483.01-2.165-.105-2.823-.723-4.146-1.338-2.865-2.822-3.866-5.73-3.864-5.838 0-8.947 6.335-6.104 12.433 1.298 2.783 3.31 3.963 6.361 3.731a6.275 6.275 0 0 0 2.896-.94z" fill="#cd0404"/><path d="M0 157.44V0h217.76v314.88H0V157.44zm213.2 155.91c1.776-1.22 2.856-2.598 3.527-4.498.4-1.133.446-16.895.446-151.25 0-136.41-.042-150.11-.461-151.33-.615-1.8-2.787-4.163-4.6-5.006l-1.454-.675H6.778l-1.504.748c-1.67.83-3.32 2.547-4.14 4.307-.522 1.122-.538 5.59-.538 151.95 0 146 .017 150.83.535 151.97 1.022 2.245 3.298 4.272 5.347 4.762.5.12 46.858.198 103.02.174l102.11-.044 1.6-1.099zm-21.798-21.472c-1.066-.454-1.805-1.26-2.15-2.345-.168-.531-.095-.65.393-.65.536 0 .735.295.633.939-.019.119.219.216.528.216.309 0 .642.13.74.29.099.158.472.288.829.288s.787.138.957.308c.28.279 3.307-.139 5.474-.755.655-.187 1.456.512 1.15 1.004-.535.865-6.94 1.393-8.554.705zm1.9-.26c-.775-.584-1.486-.585-.97 0 .205.232.634.423.952.424.572 0 .572 0 .017-.422zm7.134-1.637c-.507-.507-.425-1.227.206-1.797.304-.275.64-.847.745-1.272.106-.426.476-1.076.823-1.447.346-.37.647-1.02.669-1.444.02-.424.14-1.084.263-1.467.2-.624.154-.677-.447-.52-.432.112-.914-.016-1.353-.36-.383-.3-.933-.47-1.257-.385-.72.188-.8-.635-.089-.908.323-.124.69.06 1.086.545.419.512.72.655 1.001.475.324-.207.254-.417-.362-1.079-.803-.863-.954-1.261-.48-1.261.156 0 .364-.315.46-.701.098-.386.423-.923.724-1.195s.63-.928.73-1.458c.186-.996-.258-3.514-.826-4.674-.26-.53-.22-.837.194-1.537.562-.95.358-1.585-.246-.762-.451.616-.74.648-.74.082 0-.709-1.76-2.473-3.09-3.096-.69-.324-1.254-.704-1.254-.846 0-.141-.268-.257-.596-.257-.378 0-.52.123-.39.335.152.243-.15.285-1.113.153-.979-.133-1.412-.07-1.673.244-.194.233-.525.424-.735.424-.746 0-2.443 1.214-2.443 1.747 0 .294-.172.64-.384.766-.21.127-.553.846-.76 1.598-.436 1.586-1.07 2.297-1.472 1.65-.15-.244-.142-.525.022-.689.153-.152.278-.783.278-1.402 0-.89.123-1.157.594-1.28.473-.123.559-.312.423-.929-.191-.868.34-1.51 1.662-2.012.437-.166.796-.5.796-.742 0-.29.277-.44.81-.44.446 0 .953-.142 1.127-.315.193-.193 1.03-.262 2.157-.177 2.468.185 3.504.477 3.957 1.115.208.292.61.532.891.532.563 0 1.462.9 2.02 2.022.197.397.574 1.112.837 1.59.666 1.204.942 3.306 1.13 8.591.145 4.088.096 4.804-.487 7.078-.837 3.26-1.026 3.618-1.786 3.378-.53-.168-.578-.102-.41.57.188.744-.204 1.903-.643 1.903-.122 0-.378-.156-.57-.346zm-6.132-6.146c-.195-.234-.83-.505-1.41-.603-2.168-.364-3.749-1.424-3.416-2.29.114-.296-.01-.437-.388-.437-.531 0-.735-.322-1.701-2.685-.182-.445-.313-1.94-.291-3.322.022-1.383.096-2.222.165-1.865.069.358.312.65.54.65.296 0 .414.36.414 1.265 0 1.596 1.405 5.218 2.23 5.747.19.123.52.395.73.604 1.157 1.155 3.52 1.553 6.14 1.033 1.528-.303 1.951-.302 2.322 0 .395.327.282.466-.883 1.084-.868.462-1.578.65-2.028.536-.503-.126-.693-.053-.693.266 0 .57-1.259.58-1.731.013zm-139.75-5.485c-.12-.31-.87-1.546-1.666-2.744-.796-1.198-1.781-2.774-2.19-3.503-.408-.729-1.557-2.41-2.552-3.735-.995-1.325-1.81-2.576-1.81-2.78 0-.204-.236-.603-.524-.887-.96-.946-2.66-3.172-2.66-3.484 0-.169.154-.359.343-.421.248-.082.218-.294-.108-.758-.445-.635-.454-.636-.606-.054-.085.324-.301.589-.48.589-.34 0-.435-.198-.721-1.506-.126-.573-.298-.736-.64-.605-.3.114-.663-.072-1.005-.516-.64-.83-.699-1.248-.147-1.036.289.11.358-.015.245-.446-.153-.583-.167-.584-.563-.05-.389.523-.448.502-1.33-.49a52.628 52.628 0 0 1-1.646-1.95c-.396-.502-.889-.912-1.095-.912-.867 0-.597-.876.68-2.201.746-.776 1.558-1.714 1.804-2.086.246-.372.746-.79 1.112-.93.366-.138.862-.723 1.104-1.299.24-.576.7-1.115 1.021-1.2.321-.083.584-.364.584-.623 0-.755 1.293-2.098 1.664-1.729.49.489 1.009-.024.813-.802-.204-.812.262-1.84.834-1.84.218 0 .54-.412.715-.914.176-.503.401-.832.5-.733.1.1.447.04.77-.132.531-.284.541-.34.105-.583-.592-.33-.378-.801 1.447-3.178.693-.901 1.259-1.758 1.259-1.905 0-.146.26-.501.58-.789.318-.287.578-.681.578-.876 0-.194.18-.502.4-.684.31-.256.44-.231.57.109.094.242.386.44.65.44.377 0 .443-.183.308-.856-.215-1.073.467-3.056 1.356-3.943l.674-.673.651 1.436c.358.79.754 1.436.881 1.436.38 0 .961 1.685.797 2.31-.159.605.242.829.437.243.131-.392 1.384 1.618 1.384 2.22 0 .224.248.54.55.7.304.163.821.85 1.151 1.528.33.678.873 1.402 1.207 1.609.452.28.583.61.515 1.295-.074.732.025.94.486 1.022.862.152 3.897 3.559 4.908 5.511.28.54.887 1.3 1.348 1.687.461.387.838.949.838 1.248 0 .303.356.728.8.957.914.472 3.346 3.234 3.204 3.64-.052.148-.943 1.152-1.98 2.232-1.037 1.08-2.319 2.516-2.848 3.192-.529.675-1.195 1.227-1.481 1.227-.716 0-1.177.633-.987 1.355.18.691-.423 1.214-.765.662-.125-.202-.442-.286-.704-.185-.385.147-.414.297-.154.782.267.497.194.77-.421 1.574-.41.535-1.005 1.056-1.323 1.156a.847.847 0 0 0-.58.773c0 .324-.373 1.062-.83 1.641-.456.58-.924 1.354-1.039 1.722-.115.367-.485.77-.823.895-.426.157-.618.481-.626 1.055-.01.586-.222.933-.736 1.19-.398.2-.737.595-.753.877-.062 1.087-.129 1.236-.55 1.236-.394 0-.564.347-.466.947.02.123-.16.3-.4.392-.24.092-.437.463-.437.825 0 .415-.214.713-.58.809-.376.098-.52.307-.41.594.094.243.038.677-.124.965-.28.498-.305.496-.513-.043zm.18-4.2c0-.159-.138-.289-.307-.289-.169 0-.226.13-.128.29.098.158.237.288.307.288s.128-.13.128-.289zm2.316-2.761c0-.248-.132-.369-.294-.27-.162.1-.22.303-.128.451.248.4.422.326.422-.181zm.983-2.318c.233-.606.222-.699-.08-.699-.141 0-.324.26-.408.578-.179.683.232.784.487.121zm-9.093-2.232c0-.19-.391-.566-.868-.836-1.033-.586-1.163-.149-.246.825.62.658 1.118.663 1.114.011zm.577-2.294c0-.12-.191-.217-.43-.217-.443 0-.593.612-.237.968.195.194.658-.328.667-.751zm11.297.65c0-.159-.057-.289-.128-.289-.07 0-.208.13-.306.289-.098.159-.041.289.127.289.17 0 .307-.13.307-.29zm1.448-1.444a.29.29 0 0 0-.58 0 .29.29 0 0 0 .58 0zm-15.926-3.883c0-.23-.13-.497-.29-.595-.159-.098-.29.089-.29.416 0 .327.131.595.29.595.16 0 .29-.187.29-.416zm-9.266-6.974c0-.51-.623-.422-.802.114-.063.189.092.343.344.343a.46.46 0 0 0 .458-.457zm35.875-.469c.284-.453.304-.668.07-.746-.181-.06-.33-.28-.33-.488 0-.649-.837-.748-1.164-.138-.236.44-.187.733.212 1.28.64.878.717.884 1.212.092zm-29.505-7.74c0-.16-.196-.29-.434-.29-.24 0-.435.13-.435.29 0 .159.196.289.435.289.238 0 .434-.13.434-.29zm2.972-.462c.282-.281-.105-.983-.542-.983-.455 0-.474.058-.227.699.182.474.471.581.77.284zm19.324-1.272a.29.29 0 0 0-.579 0 .29.29 0 0 0 .58 0zm-3.837-2.96a.57.57 0 0 0-.506-.362.57.57 0 0 0-.507.362c-.072.214.134.36.507.36s.578-.146.506-.36zm-13.012-3.088c.072-.217-.036-.325-.253-.253a.903.903 0 0 0-.507.506c-.072.217.036.325.254.253a.906.906 0 0 0 .506-.506zm1.213-.035c0-.15-.13-.272-.29-.272-.159 0-.29.203-.29.45 0 .248.131.37.29.273.16-.098.29-.301.29-.45zm6.37-3.125c0-.14-.195-.415-.434-.613-.471-.39-.53-.297-.259.41.187.483.693.632.693.203zm102.85 42.8c-.99-.968-1.561-1.818-1.812-2.697-.201-.707-.553-1.439-.781-1.627-.23-.188-.33-.48-.225-.65.112-.18-.061-.308-.42-.308-.702 0-1.596-1.686-1.14-2.152.467-.478.293-.737-.496-.737-.988 0-1.531-.737-1.543-2.094-.01-.738-.14-1.083-.42-1.083-.225 0-.464.162-.53.36-.074.222-.254.111-.468-.289-.224-.416-.241-.649-.048-.649.164 0 .3-.275.3-.611 0-.47-.135-.577-.58-.46-.422.11-.579.01-.579-.373 0-.372-.16-.482-.548-.381-.404.105-.787-.205-1.463-1.185-.504-.73-.836-1.457-.738-1.614.098-.158 0-.287-.224-.287-.435 0-1.652-1.17-1.672-1.607-.01-.149-.659-.767-1.448-1.375-.79-.607-1.436-1.215-1.436-1.35s-.544-.778-1.21-1.429c-.93-.91-1.131-1.262-.869-1.524.188-.188.343-.543.344-.789 0-.246.31-.834.69-1.306.582-.726.757-.8 1.137-.485.392.324.462.23.541-.731.072-.873.212-1.107.67-1.121.938-.03 1.639-.458 1.47-.899-.185-.48.89-2.252 1.97-3.25.418-.385.761-.84.764-1.011.01-.613.533-1.127 1.2-1.174.517-.037.7-.246.775-.883.054-.46.477-1.266.941-1.793.464-.527.844-1.117.845-1.31 0-.51 1.69-2.228 2.19-2.228.298 0 .376-.197.26-.657-.183-.73 1.313-3.243 1.93-3.243.195 0 .453-.366.572-.813.258-.96.81-1.693 1.13-1.497.123.077.307-.185.406-.581.1-.396.36-.72.58-.72.516 0 .753-.643.538-1.462l-.17-.652.602.602c.827.824 1.226 1.63 1.226 2.473 0 .39.196.785.435.876.239.091.434.033.434-.13s.13-.217.29-.118c.159.098.29.44.29.758 0 .32.31.994.69 1.5.38.505.775 1.2.88 1.542.103.343.379.697.612.786.233.089.425.328.428.532 0 .204.524.88 1.158 1.504 1.162 1.142 1.532 2.026.72 1.715-.65-.248-.525.405.144.762.319.17.58.23.58.134s.195.02.434.258c.239.239.434.506.434.594 0 .088.649.845 1.442 1.682.81.855 1.445 1.797 1.448 2.15 0 .432.211.66.657.723.515.073.64.262.595.9-.044.628.118.884.724 1.15.43.187.887.511 1.018.719.13.208.652.81 1.158 1.337 2.753 2.867 3.167 3.417 2.766 3.675-.336.216-.336.295 0 .512.22.141.305.407.191.592-.157.254-.305.254-.612 0-.562-.465-1.39-.104-1.157.503.102.264.041.568-.134.676-.279.172-.475.724-.547 1.545-.012.137-.347.188-.744.112-.905-.172-1.557.48-.865.866.418.233.384.369-.3 1.18-.425.503-.892.841-1.038.751-.146-.09-.533-.079-.86.024-.484.153-.56.344-.409 1.03.159.719.098.841-.416.841-.456 0-.603.183-.603.75 0 .961-1.04 2.428-1.722 2.428-.375 0-.616.35-.842 1.228-.174.675-.739 1.673-1.255 2.218-.517.545-.966 1.168-.998 1.386-.032.217-.525.964-1.095 1.658s-1.037 1.436-1.037 1.647c-.001.719-1.345 1.974-2.114 1.974-.87 0-1.209.739-.927 2.021.122.553.037 1.068-.24 1.463-.423.602-.448.592-1.875-.802zm-.056-2.433c0-.181.228-.496.507-.699.278-.203.419-.456.312-.563-.26-.259-1.996 1.038-1.804 1.348.224.36.985.294.985-.086zm4.923-3.148c0-.323.212-.91.47-1.305.436-.662.436-.703 0-.536-.258.099-.47.355-.47.568 0 .213-.216.508-.48.656-.288.16-.406.454-.298.736.255.663.778.583.778-.119zm-14.768-9.939c0-.07-.13-.208-.29-.306-.159-.098-.29-.04-.29.128s.131.306.29.306c.16 0 .29-.057.29-.128zm-1.448-4.092c0-.221-.195-.402-.434-.402-.24 0-.435.255-.435.568 0 .387.14.516.435.403.239-.091.434-.348.434-.57zm24.323-.275a.427.427 0 0 0-.434-.416c-.436 0-.596.61-.25.955.27.27.684-.056.684-.54zm-26.3-1.472c.614-.554.687-.97.168-.957-.59.015-1.45.794-1.243 1.127.26.42.456.389 1.075-.17zm28.56-5.935c.921-.92-.257-1.116-1.39-.231l-.725.565.883.01c.486 0 1.04-.15 1.231-.34zm-26.583-.689c0-.251-.155-.406-.344-.343-.537.179-.626.8-.114.8a.46.46 0 0 0 .458-.457zm3.646-4.236c.692-.655.883-1.085.48-1.083-.513 0-2.112 1.189-1.952 1.448.278.449.73.337 1.472-.365zm1.009-2.608c-.036-.345-.433-.278-.558.094-.064.191.041.295.232.232.191-.064.338-.21.326-.325zm11.216-6.492c-.118-.609-.632-.57-.763.057-.055.262.105.448.384.448.298 0 .44-.189.379-.505zm-6.895-.956c0-.15-.195-.272-.434-.272-.448 0-.575.341-.25.666.232.231.684-.03.684-.394zm5.792-.56c0-.61-.422-.778-.724-.29-.211.341.063.867.451.867.15 0 .273-.26.273-.578zm-2.317-3.034c0-.238-.13-.433-.29-.433-.159 0-.289.195-.289.433s.13.433.29.433c.159 0 .29-.195.29-.433zm35.897 23.76c-.205-.437-.534-.794-.73-.794-.562 0-.793-.942-.299-1.218.514-.286.288-1.093-.305-1.093-.227 0-.49-.203-.586-.45-.095-.248-.348-.383-.562-.301-.541.207-1.274-.601-1.274-1.406 0-.368-.195-.745-.434-.837-.466-.178-.614-1.628-.166-1.628.39 0 1.18-1.7.876-1.886-.14-.087-.554.299-.917.857-.364.559-.843 1.087-1.066 1.174-.445.174-1.478-.623-1.478-1.141 0-.181.664-1.104 1.476-2.05.812-.946 1.8-2.223 2.196-2.837.53-.821.806-1.032 1.044-.795.45.45.786.402.786-.111 0-.238-.218-.433-.485-.433-.405 0-.376-.115.176-.702.363-.385.841-.632 1.062-.547.304.117.367-.047.256-.67-.091-.509.027-1.047.307-1.403.524-.666.36-.843 2.076 2.238.513.92 1.327 2.092 1.81 2.605.485.514.963 1.194 1.063 1.512.101.318.5.896.887 1.286.41.413.646.924.567 1.227-.103.395.032.52.56.52.384 0 .695.098.693.217 0 .119-.842 1.1-1.867 2.18-1.024 1.08-1.943 2.217-2.042 2.527-.099.31-.502.644-.896.743-.428.107-.699.37-.671.65.086.886-.021 1.168-.702 1.847-.375.374-.749.867-.831 1.097-.105.292-.262.179-.524-.378zm-1.729-7.022c0-.477-.457-.557-.724-.128-.236.382.11.923.455.71.148-.09.27-.353.27-.582zm6.66-2.762c0-.158-.13-.208-.29-.11-.159.098-.289.309-.289.468 0 .158.13.208.29.11.159-.098.29-.309.29-.468zm-8.098-1.338l.54-1.083c.135-.276-.408.077-1.484.965-.275.227-.43.525-.345.663.304.489.898.238 1.29-.545zm3.996-4.099c.066-.448-.027-.618-.29-.532-.212.07-.43.424-.482.786-.066.448.027.62.29.533.212-.07.43-.424.482-.787zm-142.66-54.832c.085-.971.028-1.076-.549-1.015a.956.956 0 0 1-.95-.506c-.248-.46-.217-.573.156-.573.335 0 .438-.22.372-.794-.075-.65-.265-.821-1.038-.94-1.064-.162-2.094-1.52-2.094-2.758 0-.493-.217-.804-.683-.981-.434-.165-.747-.576-.857-1.125-.103-.512-.41-.94-.75-1.049-.88-.278-3.334-3.847-2.957-4.3.37-.444-.45-1.254-1.134-1.12-.25.048-.818-.433-1.303-1.107a44.67 44.67 0 0 0-1.655-2.141c-.857-1.022-.987-1.484-.468-1.656.212-.07.149-.289-.175-.612-.303-.303-.722-.433-1.054-.328-.62.196-1.82-.853-2.714-2.375-.298-.506-.844-.996-1.214-1.089-.621-.155-1.016-1.313-.448-1.313.124 0 .743-.527 1.376-1.17.633-.644 1.695-1.416 2.36-1.715 1.33-.597 2.084-1.6 1.581-2.101-.48-.479.131-1.346.821-1.166.47.123.69-.106 1.166-1.215.79-1.839 1.668-3.02 2.468-3.324.393-.149.737-.586.844-1.07.099-.451.697-1.501 1.33-2.335.632-.833 1.15-1.642 1.15-1.798 0-.399.679-.352 1.137.078.317.298.353.155.206-.82-.16-1.06-.059-1.34.977-2.724.635-.849 1.154-1.625 1.154-1.726 0-.1.232-.434.516-.742.284-.308.742-1.04 1.019-1.625.276-.586.752-1.145 1.057-1.241.306-.097.611-.398.679-.668.089-.354.223-.23.481.447.197.516.476.938.62.938.143 0 .261.17.261.38 0 .208.288.686.64 1.063.423.453.52.723.289.8-.564.188-.401.646.23.646.58 0 .634.111.692 1.445.019.431.206.725.465.73.903.015 1.216.463 1.027 1.468-.168.89-.125.97.478.906.495-.053.784.17 1.144.888.266.527.69 1.187.944 1.467.648.714.575 1.27-.263 1.997-.807.7-.937 1.21-.309 1.21.228 0 .498-.26.599-.578.272-.854 1.52-.764 1.932.139.18.394.536.788.79.876.66.228 2.345 2.604 2.345 3.306 0 .325.173.59.384.59.605 0 1.571 1.203 1.857 2.311.19.736.42 1.011.845 1.011.847 0 1.512.65 1.339 1.31-.114.434 0 .568.473.568.342 0 .706.217.808.483.102.266.429.726.726 1.022.526.525.513.57-.53 1.84-.632.769-1.23 1.239-1.46 1.146l-.808-.328c-.334-.135-.388.029-.263.8.14.86-.018 1.17-1.39 2.734a88.919 88.919 0 0 0-2.313 2.739c-.686.871-.831.936-1.376.61-.334-.2-.608-.24-.608-.088 0 .15.13.354.29.453.159.098.289.367.289.597 0 .449-2.794 4.352-3.581 5.004-.26.215-.473.564-.473.775 0 .21-.586 1.002-1.303 1.76-.717.756-1.303 1.547-1.303 1.756 0 .21-.195.456-.434.547-.24.091-.435.47-.435.84 0 .372-.13.755-.29.853-.159.098-.289.415-.289.704 0 .29-.178.673-.396.854-.314.26-.5.132-.89-.615-.358-.682-.436-.743-.285-.22.353 1.224.25 2.508-.266 3.294-.706 1.074-1.12.938-1.009-.333zm1.977-6.482c0-.377-.808-.268-.946.127-.07.199-.06.542.023.763.117.316.23.289.536-.128.213-.29.388-.634.388-.762zm1.159-1.262a.427.427 0 0 0-.435-.416c-.436 0-.595.61-.249.955.27.27.684-.056.684-.54zM50.8 173.53c.149-.421.17-.865.049-.987-.293-.293-1.044.747-1.044 1.445 0 .77.669.463.995-.458zm-2.58-1.481c.36-.388.586-.774.5-.859-.174-.173-1.509 1.011-1.516 1.346-.01.399.357.223 1.017-.487zm13.89.415c.099-.159.042-.289-.127-.289s-.307.13-.307.29c0 .158.057.288.128.288.07 0 .208-.13.307-.289zm4.2-6.644c0-.159-.058-.289-.128-.289s-.209.13-.307.289c-.099.159-.04.289.128.289s.306-.13.306-.289zm-27.22-3.755c0-.16-.195-.29-.434-.29s-.434.13-.434.29c0 .159.195.289.434.289s.434-.13.434-.29zm34.2-2.961c-.315-.85-1.19-1.042-1.19-.262 0 .556.346.842 1.077.889.246.016.28-.175.112-.627zm-2.927-.055c0-.07-.13-.208-.29-.306-.159-.098-.289-.041-.289.127s.13.306.29.306c.16 0 .29-.057.29-.127zm-25.536-7.023c-.054-.278-.29-.505-.524-.505-.234 0-.47.227-.524.505-.069.355.088.506.524.506.436 0 .593-.151.524-.506zm15.981-6.733c0-.603-.426-.753-.732-.258-.263.424.087 1.216.44.998.161-.099.292-.432.292-.74zm-2.842-2.934c-.208-.208-.343-.225-.343-.043 0 .385.343.727.536.534.082-.082 0-.303-.193-.491zm-1.501-.227c0-.159-.138-.289-.307-.289-.168 0-.226.13-.127.29.098.158.236.288.306.288s.128-.13.128-.289zm-.58-5.616c0-.07-.13-.207-.289-.306-.159-.098-.29-.04-.29.128s.131.306.29.306c.16 0 .29-.057.29-.128zm103.27 47.181c-.235-.336-.366-.772-.29-.968.075-.197-.195-.575-.602-.84-.406-.266-.738-.729-.738-1.03 0-.3-.397-.915-.882-1.365-.762-.709-.856-.955-.698-1.83.101-.556.323-1.18.493-1.384.22-.265.22-.464 0-.684-.22-.22-.453-.035-.805.645l-.494.954-.822-.993c-.85-1.03-1.25-1.864-1.553-3.243-.115-.526-.336-.776-.637-.722-.494.089-.755-.282-1.16-1.65-.174-.587-.473-.898-.924-.962-.405-.058-.97-.567-1.442-1.3-.426-.663-1.343-1.747-2.038-2.408-1.21-1.152-1.372-1.83-.437-1.83.284 0 .405-.22.345-.628-.132-.891-.647-.95-1.09-.124l-.379.706-1.411-1.345c-.776-.74-1.412-1.505-1.412-1.7 0-.196-.24-.483-.533-.64-.833-.445-.65-2.173.326-3.076.586-.542.787-.614.787-.282 0 .244.195.445.434.445.27 0 .434-.273.434-.723 0-.5.159-.722.516-.722.286 0 .668-.353.858-.794.188-.437.463-.99.61-1.228.146-.238.432-.789.635-1.223.203-.434.58-.856.839-.938.258-.082.605-.506.771-.944.42-1.102 3.299-4.983 3.698-4.984.179-.001.565-.58.856-1.288.292-.708.78-1.367 1.086-1.463.306-.097.556-.4.556-.673s.385-.947.857-1.497c.47-.55.862-1.167.868-1.372.017-.528.882-1.853 1.586-2.428.329-.27.614-.627.634-.795.02-.168.053-.49.072-.716.062-.705 1.48-2.172 1.932-2 .231.09.42.018.42-.158s-.13-.32-.29-.32c-.158 0-.289-.195-.289-.433 0-.239.13-.434.29-.434.16 0 .29.18.29.398 0 .22.186.553.415.742.228.19.669.83.979 1.423.488.934.51 1.152.164 1.624-.587.8-.492 1.047.324.843.547-.137.724-.068.724.283 0 .256.202.465.449.465s.627.422.844.939c.218.516.798 1.49 1.289 2.164.49.674.892 1.308.892 1.41 0 .1.465.696 1.032 1.323.812.897.96 1.223.699 1.538-.4.482-.09 1.102.45.896.21-.081.526.025.701.235.238.286.207.425-.123.552-.733.28-.513.845.27.696.981-.187 2.02.92 1.824 1.942-.096.501.02.863.356 1.098.275.193.582.611.682.93.241.76 1.353 1.47 1.623 1.034.248-.401 1.343.792 2.354 2.565.41.72.887 1.31 1.06 1.31.534 0 1.639 1.643 1.7 2.529.048.692-.09.894-.774 1.132-.459.16-.807.376-.776.481.121.399-1.066 2.034-1.573 2.166-.29.076-.528.345-.528.598 0 .254-.125.46-.278.46-.383 0-1.75 1.505-1.75 1.927 0 .189-.166.515-.37.725-.205.21-.682.837-1.062 1.393-.379.556-1.32 1.748-2.09 2.65-.77.9-1.4 1.763-1.4 1.915 0 .153-.26.346-.579.43-.37.097-.58.395-.58.828 0 .409-.575 1.296-1.449 2.242-.795.861-1.446 1.79-1.446 2.064 0 .275-.323.805-.719 1.18-.395.373-.72.896-.724 1.161-.01.85-.33 1.364-.752 1.203-.289-.11-.41.063-.41.584 0 .834-1.005 1.92-1.776 1.92-.28 0-.701-.275-.937-.61zm.976-2.567a.29.29 0 0 0-.579 0 .29.29 0 0 0 .58 0zm2.474-3.734c-.285-.46-.743-.085-.54.441.11.29.268.345.454.16.156-.155.195-.426.086-.601zm1.508-1.249c-.183-.546-1.086-.624-1.086-.093 0 .268.247.455.603.455.354 0 .553-.15.483-.361zm6.442-7.798c0-.161-.192-.13-.434.071-.239.198-.434.49-.434.649 0 .16.192.13.434-.071.239-.198.434-.49.434-.649zm-17.663.071c0-.318-.13-.578-.29-.578-.159 0-.289.26-.289.578 0 .318.13.578.29.578.159 0 .29-.26.29-.578zm15.347-.883c0-.15-.13-.272-.29-.272-.159 0-.289.202-.289.45s.13.37.29.272c.159-.098.29-.301.29-.45zm-17.712-.518c.074-.52-.024-.65-.434-.571-.295.056-.573.4-.626.773-.074.52.024.65.434.572.295-.056.573-.4.626-.774zm21.715-2.547c-.14-.725-.817-.824-.817-.12 0 .355.187.602.455.602.27 0 .418-.197.362-.482zm1.784-1.63c0-.189-.127-.538-.277-.775-.417-.657-.87.001-.559.81.253.66.845.635.836-.035zm-30.689-2.8c0-.158-.203-.288-.451-.288s-.371.13-.273.289c.098.159.302.289.452.289.15 0 .272-.13.272-.29zm5.116-5.899c-.302-.785-.772-.497-.772.473 0 .86.035.894.474.456.26-.26.395-.678.298-.929zm27.315.989a.29.29 0 0 0-.579 0 .29.29 0 0 0 .58 0zm-23.219-3.68c-.145-.753-1.103-.837-1.103-.097 0 .413.186.599.6.599s.57-.156.503-.502zm-2.84-.774c0-.066.078-.326.175-.578.256-.664-.39-.56-.755.121-.247.461-.22.578.135.578.244 0 .444-.054.444-.121zm14.871-9.676c-.296-.64-.669-1.125-.828-1.078-.452.136-.532 1.342-.09 1.342.212 0 .556.273.764.606.624.997.733.381.154-.87zm-8.037.342c-.294-.294-.537.149-.295.538.182.295.25.295.348 0 .067-.2.043-.443-.053-.539zm3.59-6.145c0-.158-.123-.288-.273-.288-.15 0-.353.13-.451.288-.098.16.024.29.272.29.248 0 .452-.13.452-.29zm-.548-44.015c-.18-.217-.294-.7-.252-1.075.049-.441-.076-.684-.355-.689-.237 0-.615-.397-.84-.874-.226-.477-.716-1.234-1.09-1.683-.374-.45-.68-.99-.68-1.204 0-.213-.098-.43-.217-.483-.51-.226-2.444-3.053-2.592-3.79-.09-.442-.406-.934-.704-1.093-.297-.16-.541-.512-.542-.784-.001-.273-.392-.717-.869-.988-.994-.564-1.202-1.419-.288-1.18.756.197.73-.012-.11-.917-.406-.438-.868-.673-1.127-.574-.298.114-.954-.463-2.045-1.8-1.107-1.357-1.477-1.999-1.19-2.063a.561.561 0 0 0 .418-.523c0-.314-.23-.393-.856-.295-.959.15-1.802-.485-1.033-.78.584-.223.565-1.024-.028-1.251-.287-.11-.58.014-.75.319-.266.473-.31.473-.833 0-.304-.275-.553-.749-.553-1.053 0-.668-.658-1.38-1.276-1.38-.246 0-.662-.325-.923-.723-.383-.583-.406-.807-.116-1.155.197-.238.54-.432.762-.432.524 0 2.113-1.744 2.124-2.332.01-.52 2.444-3.153 3.326-3.598.323-.163.654-.639.734-1.057.081-.418.733-1.412 1.45-2.21a45.329 45.329 0 0 0 2.278-2.77c.536-.727 1.09-1.321 1.23-1.321.14 0 .256-.243.256-.54 0-.296.243-.848.54-1.227.296-.379.82-1.242 1.164-1.918.345-.677.884-1.39 1.198-1.587.315-.196.573-.52.573-.72 0-.2.26-.364.579-.364.475 0 .58-.193.582-1.083 0-.826.277-1.427 1.155-2.528.634-.794 1.154-1.617 1.155-1.83 0-.57.684-.25 1.013.477.157.347.385.631.507.631.121 0 .22.152.22.338 0 .187.207.566.458.843.354.39.387.637.145 1.087-.437.815-.402 1.005.35 1.879.47.546.754.68.973.461.382-.38 2.129 2.2 2.129 3.145 0 .367.182.624.441.624.243 0 .567.329.72.73.153.401.475.805.717.898.24.092.438.349.438.57 0 .221.133.402.296.402.163 0 .453.358.646.795.192.437 1.232 1.802 2.31 3.035 1.078 1.232 1.961 2.337 1.963 2.455 0 .118.71.983 1.574 1.923.978 1.062 1.711 2.177 1.94 2.951.316 1.066.459 1.221 1 1.086.713-.179 1.255.41.695.755-.524.323-.035.943.612.774.613-.16.691.15.247.978-.193.36-.606.559-1.158.559-.812 0-1.05.342-.881 1.264.026.14-.22.44-.545.666-.325.228-.591.582-.591.789 0 .206-.372.686-.826 1.067-.454.38-.9.886-.99 1.125-.132.345-.17.33-.188-.072-.013-.278-.218-.506-.457-.506-.492 0-.583.453-.145.722.471.291.34.651-.58 1.59-.477.487-.868 1.011-.868 1.165 0 .153-.31.279-.688.279-.537 0-.727.195-.866.893-.112.559-.397.95-.76 1.045-.382.1-.582.393-.582.857 0 .388-.115.634-.256.547-.393-.242-.935.568-.733 1.095.125.325-.049.552-.574.751-.519.197-.753.499-.753.97 0 .377-.521 1.49-1.158 2.473-.637.983-1.159 1.912-1.159 2.064 0 .153-.26.44-.579.638-.318.198-.579.53-.579.737 0 .207-.327.728-.727 1.158-.4.43-.799 1.042-.887 1.36-.487 1.762-1.37 2.38-2.118 1.483zm-4.441-9.192a.818.818 0 0 0-.459-.457c-.212-.07-.276.062-.168.343.202.525.8.634.627.114zm13.676-7.408c0-.376-.345-.627-.625-.454-.299.185-.04.694.352.694.15 0 .273-.108.273-.24zm7.963-8.426c.098-.159-.024-.289-.273-.289-.248 0-.451.13-.451.29 0 .158.122.288.272.288.15 0 .353-.13.452-.289zm-35.182-.578c0-.158-.057-.288-.128-.288-.07 0-.208.13-.307.288-.099.16-.04.29.128.29.169 0 .307-.13.307-.29zm4.922-2.507c0-.368-.08-.385-.431-.095-.237.196-.358.474-.27.617.229.369.701.016.701-.523zm-.735-1.349c.712-.519.333-1.17-.44-.756-.31.165-.562.49-.562.723 0 .527.312.537 1.002.034zm5.658-6.688c0-.238-.13-.433-.29-.433-.16 0-.29.195-.29.433 0 .239.13.434.29.434.16 0 .29-.195.29-.434zm5.387-4.694c.086-.278.28-.735.43-1.015.202-.376.106-.737-.365-1.373-.692-.934-1.109-1.102-1.109-.448 0 .228.26.497.58.597.676.215.777 1.243.144 1.485-.486.186-.602 1.26-.136 1.26.165 0 .37-.228.456-.506zm7.353-.65c0-.159-.195-.289-.434-.289s-.434.13-.434.29c0 .158.195.288.434.288s.434-.13.434-.289zm-1.162-.794c0-.12-.126-.408-.274-.642-.334-.526-.725-.197-.49.413.173.45.772.63.764.229zm-109.35 41.5c-.098-.49-.356-.958-.572-1.041-.216-.083-.393-.307-.393-.499 0-.191-.228-.606-.507-.922-.77-.874-1.23-1.775-1.23-2.41 0-.313-.261-.71-.58-.88-.318-.17-.579-.55-.579-.843a.737.737 0 0 0-.527-.671c-.29-.076-.74-.586-1-1.133-.43-.905-.98-1.64-2.447-3.268-.741-.822-1.274-2.183-1.087-2.772.09-.28.026-.592-.14-.694-.165-.102-.3.017-.3.264 0 .761-.459.508-1.482-.82-1.482-1.921-1.84-2.465-1.874-2.853a25.676 25.676 0 0 0-.076-.726c-.027-.226-.356-.34-.84-.289-.63.066-.797-.037-.797-.49 0-.346-.328-.731-.823-.968-.452-.216-1.084-.835-1.403-1.376-.32-.54-.744-.982-.942-.982-.544 0-1.406-1.072-1.17-1.454.115-.184.521-.274.905-.201.81.155 1.16-.227.707-.772-.241-.29-.024-.685.916-1.667.677-.708 1.572-1.544 1.988-1.857.417-.314.972-.984 1.234-1.49s.74-1.06 1.061-1.232c.321-.171.504-.44.406-.599-.323-.52.737-1.774 1.363-1.61.34.088.636-.018.73-.263.087-.226.34-.41.561-.41.501 0 .537-1.063.041-1.23-.28-.093-.27-.233.047-.615.294-.355.468-.398.62-.154.347.56.854 0 .854-.938 0-.53.329-1.3.826-1.933.455-.579.997-1.377 1.205-1.775.207-.397.617-.892.91-1.1.293-.207.533-.564.533-.794 0-.229.193-.417.43-.417.235 0 .51-.325.61-.722.1-.397.289-.722.42-.722.132 0 .28-.348.33-.773.06-.506.393-.938.961-1.25.687-.379.92-.757 1.114-1.807.235-1.277.787-1.86 1.4-1.481.16.099.23.499.155.89-.093.483.015.765.335.878.728.257 1.752 1.594 1.764 2.302.01.35.321.983.701 1.405 1.333 1.482 1.625 1.86 1.625 2.102 0 .135.263.481.583.77.354.32.553.817.507 1.266-.055.533.063.742.418.747.565.01 1.967 1.763 1.967 2.464 0 .257.365.736.81 1.064.446.329 1.125 1.19 1.51 1.915.386.725.934 1.378 1.218 1.452.284.074.516.4.516.723 0 .324.26.77.577.992.318.222.492.49.386.594-.105.105.011.19.26.19.527 0 2.686 2.39 3.198 3.54.194.436.488.794.653.794.5 0 1.857 1.733 1.692 2.163-.085.221-.47.608-.854.86-.385.251-.7.595-.7.764 0 .168-.456.71-1.013 1.202-.558.492-1.014 1.081-1.014 1.309 0 .275-.199.362-.597.258-.398-.104-.647 0-.75.327-.374 1.18-.816 1.783-1.308 1.783-.385 0-.53.218-.531.795-.001.47-.333 1.148-.812 1.66-.446.477-1.362 1.68-2.036 2.673-.675.993-1.326 1.805-1.447 1.805s-.387.46-.591 1.023c-.204.563-.621 1.18-.927 1.37-.306.19-.556.51-.556.71 0 .2-.13.364-.29.364-.16 0-.29.157-.29.348 0 .192-.52 1.09-1.158 1.996-.637.906-1.158 1.785-1.158 1.953 0 .167-.369.732-.82 1.254-.45.522-.903 1.176-1.004 1.454-.102.278-.37.506-.597.506-.227 0-.488.195-.58.433-.294.766-1.057.486-1.246-.458zm3.957-4.307a.29.29 0 0 0-.579 0 .29.29 0 0 0 .58 0zm.869-1.768c0-.159-.13-.208-.29-.11-.159.098-.29.308-.29.467 0 .16.131.209.29.11.16-.097.29-.308.29-.467zm2.316-3.45c0-.149-.13-.271-.29-.271-.159 0-.289.203-.289.45 0 .248.13.37.29.272.159-.098.29-.3.29-.45zm-11.293-.721c0-.248-.13-.37-.29-.272-.159.098-.289.3-.289.45 0 .15.13.272.29.272.159 0 .29-.203.29-.45zm16.067-8.8c-.3-.484-.72-.012-.72.81v.769l.45-.643c.249-.353.37-.774.27-.935zm1.306-1.583c0-.238-.13-.433-.289-.433-.16 0-.29.195-.29.433s.13.433.29.433c.16 0 .29-.195.29-.433zm3.765-2.04c0-.247-.13-.37-.29-.271-.159.098-.29.3-.29.45 0 .15.131.272.29.272.16 0 .29-.202.29-.45zM38.81 64.299c0-.07-.13-.207-.29-.305-.159-.098-.29-.041-.29.127s.131.306.29.306c.16 0 .29-.057.29-.128zm31.273-1.877c0-.15-.13-.352-.29-.45-.159-.099-.29.023-.29.271 0 .248.131.45.29.45.16 0 .29-.122.29-.271zM54.099 46.169c.19-.19.347-.601.347-.912 0-.546-.019-.547-.579-.042-.578.522-.786 1.3-.347 1.3.127 0 .388-.156.579-.346zm3.12-1.028c-.294-.294-.827.432-.594.809.16.257.291.22.494-.141.152-.271.197-.572.1-.668zm-1.204-1.122c.264-.688.01-.802-.702-.308-.447.312-.512.474-.236.584.633.253.747.219.938-.276zM17.15 78.812c-.191-.191-.35-.483-.354-.65 0-.167-.261-.629-.573-1.026-.675-.86-.72-1.155-.176-1.155.48 0 .842-.78.47-1.009-.143-.088-.542.136-.887.497l-.627.656.199-.939c.136-.643.09-.939-.145-.939-.189 0-.269.195-.177.434.282.733-.25.48-.935-.444-.378-.51-.58-1.094-.485-1.396.2-.625-.794-1.623-1.39-1.396-.41.157-1.059-.286-1.059-.722 0-.127.195-.231.434-.231.24 0 .435-.144.435-.32 0-.199-.28-.25-.737-.136-.728.182-.73.176-.256-.546.528-.805 1.282-.98 1.282-.298 0 .238.212.433.47.433.369 0 .434-.188.298-.863-.134-.672.032-1.168.751-2.23.508-.751 1.124-1.576 1.368-1.834.244-.257.601-.716.795-1.02.345-.542.36-.541.83.025.457.552.471.52.321-.693-.108-.88-.019-1.48.29-1.95.528-.804 1.068-.903.83-.152-.093.29.031.926.276 1.415.331.662.591.85 1.017.74.606-.158.649-.056.692 1.64.02.844.162 1.048.894 1.298.478.163 1.018.493 1.2.733.182.24.884.996 1.56 1.681.865.877 1.138 1.336.922 1.552-.169.168-.243.472-.165.674.078.203-.109.544-.414.76-.306.215-.757.78-1.004 1.257-.246.477-.983 1.345-1.636 1.929-.653.584-1.187 1.311-1.187 1.616 0 .305-.26.79-.58 1.077-.318.288-.578.677-.578.865 0 .188-.332.493-.738.678-.897.408-.81.409-1.231-.011zm3.416-4.228c0-.376-.344-.626-.624-.453-.3.184-.04.694.352.694.15 0 .272-.108.272-.24zm-3.33-20.558c-.097-.158-.594-.289-1.102-.29-.772 0-2.807-.905-2.807-1.248 0-.056 1.792-.049 3.982.015 4.224.125 5.425-.086 5.428-.952 0-.293.457-.839 1.015-1.213 1.163-.78 1.365-1.494 1.637-5.782.115-1.821.047-3.119-.212-4.044-.373-1.331-1.896-3.818-2.338-3.818-.122 0-.54-.343-.93-.761-.584-.63-.99-.771-2.333-.818-1.089-.038-1.736.075-1.958.342-.247.297-.728.35-1.877.207-1.558-.194-2.07.13-1.078.684.398.222.337.353-.414.886-.484.344-1.176 1.11-1.537 1.704-.362.593-.777 1.16-.923 1.26-.146.1-.266 1.692-.266 3.538 0 2.536.118 3.604.484 4.372.299.629.45 1.537.395 2.384l-.088 1.368-.65-1.011c-.358-.557-.651-1.43-.652-1.943 0-.513-.261-1.358-.579-1.878-.53-.868-.578-1.46-.579-7.212 0-3.867.11-6.334.288-6.444.16-.098.29-.496.29-.884 0-.875.191-.887.88-.055.406.49.496.922.366 1.763-.12.786-.053 1.187.232 1.367.522.33 1.707.339 1.707.013 0-.36 2.833-1.483 3.745-1.483.425 0 .932-.159 1.127-.353.28-.28.474-.28.923 0 .312.194.876.353 1.252.353 1.044 0 2.509.589 2.509 1.008 0 .206.317.454.704.55.388.098.782.42.876.716.094.296.43.771.744 1.055.314.284.571.886.571 1.338 0 .452.13.822.29.822.391 0 .368.962-.033 1.362-.412.41-.038 1.038.496.833.697-.266.552 4.06-.175 5.25-.318.52-.58 1.43-.584 2.023-.01 1.198-.705 2.267-1.587 2.433-.343.064-.546.3-.5.579.045.259-.324.757-.817 1.108-.7.496-1.172.606-2.138.498-.744-.084-1.517.014-1.933.243-.833.461-1.607.509-1.85.115zM12.75 37.433c0-.503-.474-.837-.856-.602-.385.237-.038 1.019.453 1.019a.411.411 0 0 0 .403-.417zm-1.404-.883c0-.151-.14-.321-.311-.378-.172-.057-.312.113-.312.378s.14.435.312.378c.17-.057.311-.227.311-.378zm-.623-1.462c0-.247-.132-.368-.294-.269-.162.1-.22.303-.128.45.249.401.422.327.422-.18zm2.785 16.32c-.288-.488-.443-.969-.343-1.069.286-.285 1.707 1.28 1.486 1.636-.316.51-.582.378-1.143-.568zm149.38-7.203c-.098-.158-.04-.288.128-.288.169 0 .307.13.307.288 0 .16-.058.29-.128.29s-.208-.13-.306-.29zM11.737 32.072c-.1-.317-.305-.577-.453-.577-.149 0-.27-.26-.27-.578 0-.318.13-.578.29-.578.158 0 .289-.268.289-.597 0-.328.141-.86.314-1.183l.315-.586.554.593c.305.326.554.778.554 1.004 0 .524-.758 1.16-1.118.938-.165-.101-.213.293-.12.987.164 1.218-.043 1.556-.355.577zm1.683-3.733c-.086-.33-.28-.6-.43-.6-.15 0-.187-.139-.082-.308.105-.17.373-.24.596-.154.225.086.405-.02.405-.24 0-.602 1.893-1.587 3.114-1.622 3.94-.112 6.125.222 5.72.874-.086.14-.01.349.182.464.212.13.262.084.133-.125-.12-.194-.03-.333.22-.333.386 0 2.213 2.002 2.213 2.425 0 .096-.382.175-.848.175-.655 0-.87-.146-.941-.64-.067-.464-.36-.693-1.071-.837-.538-.11-1.29-.365-1.673-.57-.539-.287-.998-.298-2.062-.047-.752.177-1.843.4-2.424.493-.582.094-1.222.37-1.424.613a3.677 3.677 0 0 1-.92.736c-.45.24-.58.184-.709-.304zm7.583-2.333c.098-.159-.024-.289-.272-.289-.248 0-.451.13-.451.289 0 .159.122.289.272.289.15 0 .353-.13.451-.289z" fill="#d40000"/><path d="M0 157.44V0h217.76v314.88H0V157.44zm213.2 155.91c1.776-1.22 2.856-2.598 3.527-4.498.4-1.133.446-16.895.446-151.25 0-136.41-.042-150.11-.461-151.33-.615-1.8-2.787-4.163-4.6-5.006l-1.454-.675H6.778l-1.504.748c-1.67.83-3.32 2.547-4.14 4.307-.522 1.122-.538 5.59-.538 151.95 0 146 .017 150.83.535 151.97 1.022 2.245 3.298 4.272 5.347 4.762.5.12 46.858.198 103.02.174l102.11-.044 1.6-1.099z" fill="#030303"/></svg>