<svg xmlns="http://www.w3.org/2000/svg" height="335.872" width="232.277" viewBox="0 0 217.76 314.88"><path d="M0 157.44V0h217.76v314.88H0V157.44z" fill="#fdfdfd"/><path d="M0 157.44V0h217.76v314.88H0V157.44zm211.88 155.77c1.56-.831 3.003-2.271 3.718-3.71.552-1.11.562-3.422.634-151.58l.073-150.45-.611-1.416c-.342-.794-1.221-1.987-1.997-2.71-2.59-2.418 7.892-2.207-105.55-2.124l-101.05.074-1.483.78c-1.61.847-2.676 1.954-3.67 3.808l-.638 1.19-.074 149.92c-.066 135.52-.03 150.07.381 151.48.57 1.958 2.835 4.345 4.768 5.027 1.172.414 10.9.452 102.79.407l101.49-.05 1.223-.652zM7.15 306.022c-.231-.23.03-.682.395-.682.15 0 .273.195.273.433 0 .447-.342.574-.668.249zm-3.096-3.014c0-.413.155-.57.503-.502.755.145.839 1.1.097 1.1-.415 0-.6-.185-.6-.598zm184.36-12.637c-.45-.087-2.516-3.15-2.516-3.726 0-.152.444-.85.986-1.551 3.114-4.026 7.563-15.23 9.31-23.446.354-1.668.598-2.247.954-2.268 4.32-.258 4.173-.54 2.82 5.413-1.822 8.024-4.399 14.91-7.4 19.777-.462.747-.76 1.436-.666 1.531.095.095 2.302.173 4.903.173h4.73v-1.42c0-2.215.106-2.335 2.064-2.335 1.513 0 1.742.076 1.955.65.325.876.224 6.498-.124 6.843-.251.249-15.887.58-17.017.359zm-135.82-10.38c-.384-.596-1.752-2.79-3.04-4.876-4.222-6.839-9.86-14.139-15.163-19.635-1.394-1.445-2.536-2.774-2.536-2.953 0-.18 1.206-1.6 2.679-3.156 5.21-5.504 10.354-12.417 16.123-21.666 1.312-2.104 2.518-3.907 2.678-4.006.444-.273.902.34 2.719 3.644 3.661 6.66 9.045 13.998 16.969 23.132.768.886 1.397 1.835 1.397 2.108 0 .274-1.385 2.046-3.078 3.938-5.797 6.48-11.146 13.873-15.307 21.158-1.066 1.867-2.12 3.394-2.341 3.394-.222 0-.717-.487-1.1-1.083zm103.65-3.018c-4.94-8.143-11.22-16.4-16.207-21.313-1.369-1.348-2.487-2.693-2.487-2.992 0-.298.93-1.536 2.068-2.75 5.866-6.264 10.36-12.295 16.606-22.285 1.242-1.986 2.39-3.697 2.552-3.801.527-.34.912.025 1.794 1.708 3.529 6.728 8.78 14.132 15.997 22.556 1.952 2.278 3.549 4.305 3.549 4.504 0 .199-.88 1.326-1.955 2.506-6.698 7.35-11.467 13.83-16.425 22.318-1.124 1.925-2.256 3.54-2.515 3.59-.334.065-1.197-1.106-2.977-4.04zm38.388-21.472c-1.64-2.61-4.003-5.752-5.781-7.688-.823-.896-1.496-1.85-1.496-2.122 0-.271.796-1.358 1.77-2.415.973-1.057 2.88-3.582 4.237-5.612 1.357-2.03 2.603-3.774 2.77-3.876.344-.212.377-.169 3.084 3.955 1.094 1.668 2.848 4.054 3.896 5.302 1.048 1.247 1.906 2.46 1.906 2.695 0 .235-1.048 1.68-2.33 3.21-1.28 1.532-3.116 4.056-4.08 5.61-1.164 1.88-1.924 2.827-2.27 2.827-.328 0-.962-.702-1.706-1.886zm-36-67.943c-.246-.282-1.62-2.418-3.051-4.748-4.9-7.97-9.243-13.64-14.917-19.477-1.712-1.76-3.113-3.436-3.113-3.722 0-.286 1.01-1.624 2.244-2.973 5.811-6.352 10.186-12.186 15.777-21.043 1.744-2.764 3.34-5.025 3.546-5.025.205 0 1.356 1.724 2.556 3.831 4.027 7.065 8.342 13.034 15.027 20.783 1.879 2.178 3.416 4.103 3.416 4.278 0 .176-1.566 2.082-3.48 4.237-5.734 6.457-10.165 12.588-14.77 20.438-1.206 2.055-2.326 3.78-2.489 3.835-.163.054-.498-.133-.744-.414zm-107.53-3.04c-5.567-9.17-10.373-15.532-16.551-21.91-1.477-1.525-2.685-2.92-2.685-3.103 0-.182 1.375-1.809 3.055-3.615 1.68-1.806 4.166-4.7 5.523-6.43 2.4-3.06 8.204-11.572 10.946-16.052 1.509-2.465 1.934-2.92 2.518-2.695.22.084 1.013 1.355 1.762 2.823 3.13 6.132 11.037 16.952 17.506 23.958 1.458 1.579 1.58 2.428.498 3.429-1.286 1.188-5.678 6.316-8.27 9.656-2.562 3.3-6.262 8.807-8.93 13.288-.85 1.43-1.722 2.892-1.936 3.25-.76 1.27-1.36.815-3.435-2.6zm53.986-46.365c-5.739-9.522-11.922-17.73-17.458-23.175-1.208-1.188-2.196-2.396-2.196-2.686 0-.29 1.45-2.112 3.223-4.051 4.937-5.4 11.135-13.917 16.49-22.658 1.29-2.106 1.684-2.493 2.185-2.145.15.104 1.27 1.945 2.488 4.09 3.69 6.498 8.378 12.953 14.976 20.62 1.762 2.046 3.203 3.866 3.203 4.044 0 .178-1.181 1.623-2.624 3.212-5.576 6.14-10.579 12.89-14.647 19.76-3.385 5.717-3.25 5.516-3.71 5.516-.224 0-1.093-1.138-1.931-2.528zM52.964 92.81c-.242-.284-1.266-1.882-2.277-3.55-5.232-8.634-8.92-13.53-15.701-20.842-1.717-1.85-3.12-3.51-3.12-3.686 0-.177 1.209-1.587 2.687-3.135 5.35-5.601 9.901-11.718 16.116-21.663 1.621-2.594 2.559-3.827 2.91-3.827.36 0 1.034.946 2.214 3.105 3.36 6.15 8.88 13.805 15.581 21.608 1.681 1.958 3.057 3.775 3.057 4.039 0 .264-1.404 2.06-3.119 3.99-6.348 7.147-10.874 13.429-15.433 21.422-.906 1.588-1.834 2.926-2.062 2.971-.229.046-.613-.15-.854-.433zm105.21-.41c-1.373-2.515-6.895-10.92-9.182-13.973-2.731-3.647-7.456-9.125-9.955-11.544-.815-.788-1.481-1.683-1.481-1.988 0-.306.88-1.48 1.954-2.611 5.866-6.17 11.348-13.563 17.322-23.357 1.35-2.214 1.856-2.815 2.368-2.817.359 0 .652.098.652.22 0 .457 3.537 6.549 5.538 9.54 3.055 4.566 6.5 9.045 10.857 14.115 2.13 2.48 3.875 4.698 3.875 4.929 0 .23-.759 1.22-1.685 2.2-5.67 5.99-11.568 13.87-15.824 21.135-3.32 5.668-3.513 5.848-4.439 4.151zM15.764 79.7c-1.63-2.636-4.557-6.45-6.031-7.856-.574-.547-1.043-1.235-1.043-1.529 0-.293.818-1.47 1.82-2.615 1-1.145 2.907-3.707 4.237-5.693 1.33-1.986 2.612-3.611 2.848-3.611.235 0 1.188 1.205 2.117 2.678 1.693 2.684 2.695 4.02 5.262 7.022.759.886 1.379 1.834 1.379 2.106 0 .272-.816 1.432-1.812 2.577-2.099 2.412-4.06 5.136-5.398 7.5-.607 1.07-1.128 1.66-1.468 1.66-.347 0-1.004-.77-1.911-2.239zm-3.489-26.488c-.312-.813 2.174-11.022 3.691-15.152 1.156-3.146 2.775-6.664 4.125-8.962.577-.983 1.05-1.91 1.05-2.06 0-.161-1.966-.274-4.778-.274h-4.778v1.319c0 2.022-.343 2.436-2.016 2.436-2.117 0-2.327-.343-2.327-3.795 0-1.588.135-3.138.3-3.445.285-.533.69-.56 8.759-.555 4.652 0 8.59.1 8.752.217.582.423 1.879 2.67 1.879 3.255 0 .33-.535 1.386-1.189 2.346-2.805 4.12-6.76 13.96-8.341 20.754-1.072 4.605-.77 4.176-3.003 4.274-1.544.068-1.989-.01-2.124-.358zm198.43-32.13c-.398-.397-.172-.963.386-.963.387 0 .58.193.58.578 0 .557-.567.783-.966.385z" fill="#f1d1cf"/><path d="M0 157.44V0h217.76v314.88H0V157.44zm211.88 155.77c1.56-.831 3.003-2.271 3.718-3.71.552-1.11.562-3.422.634-151.58l.073-150.45-.611-1.416c-.342-.794-1.221-1.987-1.997-2.71-2.59-2.418 7.892-2.207-105.55-2.124l-101.05.074-1.483.78c-1.61.847-2.676 1.954-3.67 3.808l-.638 1.19-.074 149.92c-.066 135.52-.03 150.07.381 151.48.57 1.958 2.835 4.345 4.768 5.027 1.172.414 10.9.452 102.79.407l101.49-.05 1.223-.652zM7.15 306.022c-.231-.23.03-.682.395-.682.15 0 .273.195.273.433 0 .447-.342.574-.668.249zm-3.096-3.014c0-.413.155-.57.503-.502.755.145.839 1.1.097 1.1-.415 0-.6-.185-.6-.598zm183.91-13.513a10.53 10.53 0 0 1-1.31-1.822l-.54-1 1.358-1.978c2.259-3.291 4.437-8.05 6.484-14.164 1.253-3.745 2.654-8.988 2.654-9.937 0-.755.822-1.185 2.262-1.185 1.974 0 2.012.27.792 5.566-1.863 8.087-3.796 13.344-6.861 18.658-.773 1.34-1.405 2.482-1.405 2.538 0 .057 2.34.103 5.198.103h5.197l.087-1.66.087-1.662 1.398-.089c2.078-.132 2.222.1 2.222 3.57 0 2.322-.1 3.078-.455 3.432-.392.39-1.566.454-8.426.454h-7.971l-.772-.824zm-136.87-12.392c-4.97-8.17-10.39-15.36-15.917-21.113-1.669-1.737-3.034-3.25-3.034-3.363 0-.113 1.36-1.7 3.023-3.528 5.286-5.808 10.282-12.566 15.508-20.973 1.43-2.298 2.647-3.959 2.905-3.959.262 0 1.02 1.058 1.841 2.57 3.529 6.494 8.842 13.933 15.186 21.262 1.988 2.296 3.506 4.304 3.512 4.644.006.33-.33.915-.747 1.3-1.196 1.105-5.594 6.215-7.928 9.211-2.762 3.545-6.425 8.936-8.544 12.577-2.386 4.099-3.012 5.056-3.307 5.056-.142 0-1.267-1.658-2.5-3.684zm107.53 3.178c-.24-.278-1.128-1.676-1.976-3.106-4.465-7.529-10.595-15.692-15.786-21.02-1.667-1.71-3.031-3.342-3.031-3.625 0-.283.533-1.028 1.186-1.656 4.635-4.463 10.564-12.285 16.848-22.23 1.506-2.384 2.935-4.373 3.177-4.42.294-.058 1.01.937 2.182 3.033 3.963 7.092 10.117 15.462 17.345 23.589.686.772 1.248 1.536 1.248 1.698 0 .162-1.341 1.806-2.98 3.652-6.592 7.427-11.197 13.81-15.812 21.917-.836 1.47-1.621 2.672-1.744 2.672s-.418-.227-.657-.505zm36.31-24.755c-1.289-2.15-3.994-5.746-5.802-7.713-.824-.896-1.498-1.796-1.498-2 0-.203.63-1.095 1.398-1.98 1.79-2.064 4.27-5.445 5.685-7.75.635-1.037 1.306-1.8 1.573-1.794.269.01 1.137 1.114 2.058 2.623.876 1.436 2.666 3.932 3.979 5.548 1.312 1.616 2.387 3.114 2.388 3.327.002.214-.695 1.19-1.548 2.167-2.022 2.317-3.883 4.874-5.27 7.24-.62 1.055-1.318 1.904-1.568 1.904-.249 0-.876-.708-1.394-1.572zm-143.1-70.284c-4.418-7.609-10.91-16.313-16.457-22.066-1.782-1.849-3.24-3.508-3.24-3.687 0-.18 1.38-1.787 3.066-3.573 4.764-5.043 11.25-13.936 17-23.305.604-.985 1.255-1.74 1.447-1.677.192.062 1.045 1.403 1.897 2.98 3.287 6.086 9.438 14.608 15.934 22.077 1.451 1.669 2.639 3.256 2.64 3.528 0 .273-.753 1.313-1.676 2.311-4.556 4.932-8.33 9.702-11.836 14.96-2.093 3.14-5.15 8.11-5.996 9.75-.755 1.462-1.332 1.193-2.779-1.299zm104.27-2.046c-4.807-7.858-8.925-13.31-15.022-19.889-1.793-1.934-3.26-3.67-3.26-3.855 0-.186 1.057-1.463 2.35-2.838 4.843-5.152 10.38-12.563 15.465-20.7 3.017-4.827 3.281-5.16 3.776-4.75.202.168 1.127 1.69 2.056 3.383 3.377 6.157 8.121 12.742 14.792 20.531 1.95 2.279 3.547 4.277 3.547 4.441 0 .164-.75 1.1-1.665 2.078-6.05 6.466-12.927 15.894-17.156 23.523-.81 1.46-1.484 2.352-1.783 2.355-.309 0-1.41-1.517-3.1-4.279zm-49.61-43.3c-.226-.267-1.236-1.85-2.244-3.52-4.862-8.04-9.83-14.613-15.441-20.43-2.23-2.31-3.345-3.67-3.203-3.906.12-.2 1.425-1.662 2.9-3.251 4.961-5.341 8.89-10.595 14.593-19.517 3.61-5.646 3.727-5.81 4.051-5.61.128.079 1.049 1.605 2.046 3.391 3.61 6.469 8.58 13.346 15.285 21.15 1.77 2.06 3.219 3.853 3.219 3.982s-1.574 2.017-3.497 4.197c-5.869 6.65-10.955 13.706-14.89 20.658-.956 1.687-1.888 3.13-2.072 3.205-.185.075-.52-.082-.746-.349zm-53.593-47.5c-.218-.358-1.028-1.69-1.799-2.962-5.236-8.628-12.217-17.718-17.626-22.954-.732-.708-1.33-1.404-1.33-1.547 0-.142.933-1.253 2.074-2.467C39.952 56.364 45.882 48.33 51.69 38.8c.796-1.306 1.643-2.373 1.882-2.37.251 0 1.107 1.245 2.027 2.942 3.364 6.2 8.489 13.369 14.877 20.81 2.01 2.341 3.656 4.47 3.656 4.73 0 .26-.75 1.273-1.665 2.251-5.558 5.94-11.232 13.565-15.714 21.116-3.153 5.311-3.136 5.293-3.853 4.117zm105.81.252c-.191-.23-1.441-2.19-2.779-4.357-4.827-7.822-9.748-14.286-14.987-19.687-1.712-1.766-3.113-3.44-3.113-3.72 0-.28 1.14-1.7 2.534-3.155 4.787-5 9.463-11.23 15.034-20.03 1.835-2.9 3.513-5.273 3.728-5.273.215 0 1.007 1.138 1.76 2.528 3.757 6.928 9.113 14.344 16.503 22.846 1.334 1.535 2.426 2.922 2.425 3.08 0 .16-.995 1.394-2.21 2.745-6.656 7.402-11.677 14.27-16.255 22.233-.956 1.662-1.863 3.064-2.016 3.115-.153.05-.435-.095-.626-.324zM15.22 78.516c-1.194-1.795-3.087-4.268-4.208-5.495-1.121-1.227-2.038-2.435-2.038-2.685s.727-1.255 1.616-2.233c.889-.978 2.784-3.501 4.21-5.606 1.428-2.105 2.697-3.828 2.822-3.828s.98 1.217 1.903 2.703c.921 1.487 2.768 4.02 4.104 5.63 1.336 1.61 2.429 3.119 2.429 3.353 0 .234-.686 1.192-1.525 2.13-1.616 1.807-4.465 5.729-5.78 7.957-.434.735-.918 1.337-1.076 1.337-.159 0-1.264-1.468-2.457-3.263zM12.567 53.07c-.24-.624 1.83-9.472 3.117-13.322 1.142-3.416 3.405-8.411 5.12-11.298l.877-1.477-1.937-.182c-2.491-.235-5.406-.236-7.11 0l-1.343.183v1.237c0 1.938-.17 2.151-1.71 2.151-.748 0-1.516-.156-1.707-.346-.517-.516-.474-6.41.05-6.845.281-.233 2.792-.306 8.61-.252l8.212.077 1.129 1.638 1.128 1.638-1.345 2.017c-1.774 2.663-4.17 7.714-5.777 12.184-1.123 3.123-3.03 9.73-3.52 12.205-.152.762-.231.795-1.9.795-1.215 0-1.786-.12-1.894-.4zm198.14-31.858c-.399-.398-.172-.963.386-.963.386 0 .58.192.58.577 0 .557-.568.783-.966.386z" fill="#d6d6d6"/><path d="M0 157.44V0h217.76v314.88H0V157.44zm209.57 156.89c.277-.145 1.09-.469 1.81-.72 1.793-.627 3.186-1.846 4.204-3.68l.86-1.548V6.802l-.654-1.22c-.887-1.654-2.471-3.18-4.087-3.932l-1.34-.625H7.382l-1.646.806c-1.864.913-3.224 2.313-4.115 4.235l-.61 1.314v300.44l.69 1.525c.91 2.007 3.038 3.908 5.187 4.634 1.618.546 3.667.558 101.92.594 59.857.022 100.47-.07 100.77-.227zm-21.609-24.826a10.53 10.53 0 0 1-1.31-1.822l-.54-.999 1.359-1.98c2.258-3.29 4.437-8.05 6.483-14.163 1.254-3.745 2.655-8.988 2.655-9.937 0-.754.821-1.185 2.262-1.185 1.973 0 2.012.27.791 5.566-1.863 8.087-3.796 13.344-6.86 18.658-.773 1.34-1.405 2.482-1.405 2.538 0 .057 2.339.103 5.197.103h5.198l.087-1.66.087-1.662 1.397-.089c2.078-.132 2.222.1 2.222 3.57 0 2.322-.1 3.078-.455 3.432-.392.39-1.566.454-8.426.454h-7.97l-.772-.824zm-136.87-12.392c-4.97-8.17-10.389-15.359-15.917-21.113-1.669-1.737-3.034-3.25-3.034-3.363 0-.113 1.36-1.7 3.024-3.528 5.285-5.808 10.282-12.566 15.508-20.973 1.429-2.298 2.647-3.959 2.905-3.959.261 0 1.02 1.059 1.84 2.57 3.53 6.494 8.842 13.933 15.187 21.262 1.987 2.296 3.505 4.304 3.511 4.644.006.33-.33.915-.746 1.3-1.196 1.105-5.594 6.215-7.929 9.211-2.761 3.545-6.424 8.936-8.544 12.577-2.386 4.1-3.011 5.056-3.306 5.056-.143 0-1.267-1.658-2.5-3.684zm107.53 3.178c-.239-.278-1.128-1.676-1.976-3.106-4.464-7.529-10.595-15.692-15.786-21.02-1.667-1.71-3.03-3.342-3.03-3.625 0-.283.533-1.028 1.185-1.656 4.635-4.463 10.564-12.285 16.848-22.23 1.506-2.384 2.936-4.373 3.177-4.42.295-.058 1.011.937 2.182 3.033 3.963 7.092 10.117 15.462 17.345 23.589.687.772 1.248 1.536 1.248 1.698 0 .162-1.34 1.806-2.98 3.652-6.591 7.427-11.196 13.81-15.811 21.917-.837 1.47-1.622 2.672-1.744 2.672-.123 0-.419-.227-.658-.505zm36.311-24.755c-1.29-2.15-3.994-5.746-5.802-7.712-.824-.897-1.498-1.796-1.498-2 0-.204.629-1.096 1.398-1.982 1.79-2.063 4.27-5.444 5.684-7.75.636-1.035 1.306-1.8 1.573-1.793.27.01 1.138 1.114 2.058 2.623.876 1.436 2.667 3.932 3.979 5.548 1.312 1.616 2.387 3.114 2.389 3.328.002.213-.695 1.188-1.548 2.166-2.022 2.317-3.884 4.874-5.271 7.24-.619 1.056-1.318 1.904-1.568 1.904-.248 0-.875-.707-1.394-1.572zm-143.1-70.284c-4.419-7.609-10.911-16.313-16.458-22.066-1.782-1.848-3.24-3.507-3.24-3.687 0-.18 1.38-1.787 3.067-3.573 4.763-5.043 11.25-13.936 16.999-23.305.604-.985 1.256-1.74 1.447-1.677.192.062 1.046 1.403 1.898 2.98 3.286 6.086 9.438 14.608 15.934 22.077 1.45 1.669 2.638 3.256 2.64 3.529 0 .272-.754 1.312-1.677 2.31-4.555 4.932-8.33 9.702-11.836 14.96-2.093 3.14-5.15 8.11-5.996 9.75-.754 1.463-1.331 1.193-2.778-1.299zm104.27-2.046c-4.807-7.858-8.926-13.31-15.023-19.889-1.793-1.934-3.26-3.67-3.26-3.855 0-.186 1.058-1.463 2.35-2.838 4.844-5.152 10.381-12.563 15.465-20.7 3.018-4.827 3.282-5.16 3.777-4.75.201.168 1.126 1.69 2.055 3.384 3.377 6.156 8.122 12.742 14.792 20.53 1.951 2.279 3.547 4.277 3.547 4.441 0 .164-.749 1.1-1.665 2.078-6.05 6.466-12.926 15.894-17.155 23.523-.81 1.46-1.485 2.352-1.783 2.355-.31 0-1.41-1.517-3.1-4.279zm-49.61-43.3c-.226-.267-1.237-1.85-2.245-3.519-4.861-8.041-9.829-14.614-15.441-20.43-2.23-2.31-3.345-3.67-3.202-3.907.12-.2 1.425-1.662 2.9-3.251 4.96-5.341 8.889-10.595 14.592-19.517 3.61-5.646 3.728-5.81 4.051-5.61.128.079 1.049 1.605 2.046 3.391 3.611 6.469 8.581 13.346 15.285 21.15 1.77 2.061 3.22 3.853 3.22 3.982s-1.574 2.017-3.498 4.197c-5.868 6.65-10.955 13.706-14.89 20.658-.955 1.688-1.888 3.13-2.072 3.206-.184.075-.52-.082-.746-.35zm-53.594-47.5l-1.799-2.962c-5.236-8.628-12.217-17.718-17.626-22.954-.731-.708-1.33-1.404-1.33-1.547 0-.142.933-1.253 2.074-2.467 5.732-6.102 11.662-14.135 17.47-23.666.796-1.306 1.643-2.372 1.882-2.37.252 0 1.107 1.245 2.028 2.942 3.363 6.2 8.488 13.369 14.877 20.81 2.01 2.341 3.655 4.47 3.655 4.73 0 .26-.75 1.273-1.665 2.251-5.557 5.94-11.232 13.565-15.714 21.116-3.152 5.311-3.136 5.293-3.852 4.117zm105.81.252c-.19-.23-1.441-2.19-2.779-4.357-4.827-7.822-9.747-14.286-14.987-19.687-1.712-1.766-3.113-3.44-3.113-3.72 0-.28 1.14-1.7 2.534-3.155 4.787-4.999 9.463-11.23 15.034-20.03 1.835-2.9 3.513-5.273 3.728-5.273.215 0 1.008 1.138 1.761 2.528 3.756 6.929 9.112 14.344 16.502 22.846 1.335 1.536 2.426 2.922 2.426 3.08 0 .16-.995 1.394-2.21 2.745-6.657 7.402-11.678 14.27-16.256 22.233-.955 1.662-1.862 3.064-2.016 3.115-.153.05-.434-.095-.625-.324zM15.218 78.525c-1.193-1.795-3.087-4.268-4.208-5.495-1.12-1.226-2.038-2.435-2.038-2.685s.727-1.255 1.616-2.233c.89-.978 2.784-3.5 4.211-5.606 1.427-2.105 2.697-3.828 2.821-3.828.125 0 .981 1.217 1.903 2.703.922 1.487 2.769 4.02 4.105 5.63 1.335 1.61 2.428 3.119 2.428 3.353 0 .234-.686 1.192-1.525 2.13-1.616 1.807-4.465 5.73-5.78 7.957-.433.736-.918 1.337-1.076 1.337-.158 0-1.264-1.468-2.457-3.263zm-2.654-25.446c-.24-.624 1.831-9.472 3.118-13.322 1.141-3.416 3.405-8.411 5.12-11.298l.877-1.477-1.938-.182c-2.49-.235-5.405-.236-7.109 0l-1.343.183v1.238c0 1.937-.17 2.15-1.71 2.15-.748 0-1.516-.156-1.707-.346-.518-.516-.475-6.41.05-6.845.28-.233 2.792-.306 8.61-.252l8.212.077 1.128 1.638L27 26.281l-1.344 2.018c-1.775 2.662-4.17 7.714-5.777 12.184-1.123 3.122-3.03 9.73-3.521 12.205-.151.76-.23.794-1.899.794-1.215 0-1.787-.12-1.894-.4z" fill="#ebb1b0"/><path d="M0 157.44V0h217.76v314.88H0V157.44zm209.57 156.89c.277-.145 1.09-.469 1.81-.72 1.793-.627 3.186-1.846 4.204-3.68l.86-1.548V6.802l-.654-1.22c-.887-1.654-2.471-3.18-4.087-3.932l-1.34-.625H7.382l-1.646.806c-1.864.913-3.224 2.313-4.115 4.235l-.61 1.314v300.44l.69 1.525c.91 2.007 3.038 3.908 5.187 4.634 1.618.546 3.667.558 101.92.594 59.857.022 100.47-.07 100.77-.227zm-21.561-24.845c-.287-.31-.777-1.038-1.088-1.619-.507-.945-.522-1.126-.145-1.726 2.217-3.522 3.14-5.199 4.336-7.873 1.863-4.165 3.57-9.14 4.88-14.227l1.08-4.189H200.227l-.059 1.445c-.078 1.926-2.199 10.292-3.479 13.722-1.048 2.809-3.351 7.607-4.597 9.575-1.268 2.004-1.323 1.98 4.51 1.98 5.876 0 5.396.211 5.574-2.456.07-1.036.163-1.165.909-1.25.457-.052 1.145-.016 1.53.08.693.174.697.194.616 3.561l-.082 3.387-8.31.077c-7.916.073-8.334.05-8.831-.486zm-136.93-12.662c-4.746-7.779-9.448-14.064-15.079-20.157-1.966-2.127-3.575-4.04-3.575-4.25 0-.211.728-1.094 1.617-1.962 4.507-4.4 10.43-12.257 16.597-22.017 1.481-2.344 2.798-4.261 2.928-4.261.13 0 1.02 1.404 1.978 3.12 4.035 7.223 10.401 15.894 17.186 23.407.765.847 1.391 1.666 1.391 1.82 0 .154-1.379 1.82-3.064 3.704-5.444 6.085-10.07 12.336-13.8 18.646-2.87 4.856-3.378 5.633-3.673 5.633-.142 0-1.27-1.657-2.506-3.683zm106.15 1.01c-5.155-8.677-11.936-17.605-17.491-23.028-1.053-1.028-1.915-1.981-1.915-2.117 0-.136 1.272-1.635 2.827-3.33 5.017-5.471 8.749-10.377 13.39-17.602 1.353-2.106 2.983-4.641 3.623-5.633.639-.991 1.29-1.789 1.447-1.772.157.017 1.33 1.838 2.607 4.045 3.86 6.676 8.151 12.576 14.516 19.96 1.808 2.097 3.287 4.016 3.287 4.264 0 .247-.912 1.43-2.026 2.63-5.878 6.324-12.013 14.734-16.477 22.585-.836 1.47-1.673 2.672-1.86 2.672-.187 0-1.054-1.203-1.927-2.672zm36.865-23.831c-1.127-1.708-3.043-4.238-4.258-5.621-1.215-1.384-2.208-2.58-2.208-2.658 0-.078.792-1.027 1.761-2.107.97-1.08 2.874-3.621 4.233-5.647 1.36-2.026 2.576-3.683 2.705-3.683.13 0 .644.713 1.143 1.585 1.19 2.075 3.569 5.37 5.608 7.768.899 1.056 1.634 2 1.634 2.098 0 .097-.885 1.234-1.966 2.524-2.402 2.867-3.042 3.745-4.815 6.607-.763 1.232-1.477 2.24-1.587 2.24-.11 0-1.123-1.398-2.25-3.106zm-142.02-68.608c-5.003-8.586-12.644-18.668-18.326-24.181-.73-.709-1.327-1.495-1.327-1.747s.533-.973 1.186-1.601c4.803-4.624 12-14.289 18.59-24.966.604-.98 1.256-1.73 1.447-1.667.192.062 1.045 1.404 1.896 2.98 3.15 5.839 8.799 13.703 14.89 20.73 4.31 4.97 4.14 4.476 2.218 6.468-5.369 5.564-11.424 13.66-16.048 21.456-2.78 4.688-2.737 4.622-3.036 4.622-.148 0-.819-.942-1.49-2.094zm105.79.321c-2.62-4.328-8.628-13.088-10.967-15.99-1.407-1.745-4.024-4.695-5.815-6.553-1.792-1.86-3.258-3.486-3.258-3.615 0-.13 1.26-1.6 2.8-3.268 5.196-5.628 10.139-12.28 15.614-21.013 1.419-2.263 2.715-4.116 2.88-4.117.166 0 .808.94 1.427 2.092 3.72 6.921 9.24 14.64 16.062 22.46 1.594 1.827 2.9 3.517 2.902 3.755.003.239-1.394 2.005-3.104 3.926-5.85 6.571-10.643 13.178-14.86 20.487-1.146 1.985-2.2 3.609-2.345 3.609-.144 0-.745-.798-1.336-1.773zm-53.868-50.029c-4.823-7.887-9.946-14.614-15.464-20.299-1.556-1.603-2.829-3.011-2.829-3.13 0-.117 1.492-1.86 3.316-3.873 5.283-5.83 11.047-13.747 16.39-22.51.703-1.152 1.41-2.052 1.57-1.999.16.053 1.253 1.777 2.429 3.83 3.78 6.601 8.406 12.975 14.784 20.366 1.764 2.045 3.208 3.911 3.208 4.148 0 .236-.757 1.246-1.682 2.245a125.24 125.24 0 0 0-16.418 22.254c-1.08 1.867-2.106 3.392-2.282 3.39-.177 0-1.536-1.992-3.022-4.422zM52.979 92.231c-5.935-10.035-11.853-18.034-17.817-24.08-1.506-1.526-2.738-2.994-2.738-3.261 0-.268 1.27-1.82 2.824-3.45 4.693-4.926 10.43-12.678 15.709-21.224 1.225-1.985 2.36-3.515 2.606-3.513.252 0 1.101 1.24 2.026 2.958 3.192 5.92 8.76 13.643 15.32 21.246 1.687 1.955 3.11 3.673 3.16 3.816.051.143-1.388 1.937-3.199 3.986-5.748 6.505-10.655 13.286-14.846 20.519-1.115 1.924-2.189 3.5-2.386 3.504-.198 0-.494-.221-.659-.5zm105.28-.425c-5.131-8.845-11.551-17.525-17.585-23.774-1.567-1.623-2.85-3.075-2.85-3.227 0-.152.344-.592.764-.977 1.452-1.332 6.643-7.356 8.89-10.314 1.928-2.54 7.604-10.982 10.471-15.572.478-.765 1-1.378 1.159-1.362.159.016 1.115 1.5 2.123 3.296 3.843 6.844 8.52 13.266 15.607 21.432 1.476 1.7 2.684 3.335 2.684 3.633 0 .298-.343.857-.761 1.242-1.55 1.426-6.384 7.173-9.214 10.955a124.15 124.15 0 0 0-8.367 12.71c-.87 1.51-1.758 2.781-1.976 2.826-.218.044-.643-.346-.946-.867zM15.119 78.207c-1.155-1.78-3.012-4.232-4.126-5.45-1.114-1.216-2.026-2.293-2.026-2.391 0-.098.898-1.23 1.995-2.515 1.097-1.285 2.954-3.807 4.126-5.604 1.173-1.797 2.275-3.276 2.45-3.288.174-.01.976 1.052 1.781 2.363.806 1.31 2.655 3.85 4.11 5.644 1.614 1.992 2.56 3.397 2.432 3.61-.116.193-.99 1.257-1.94 2.364-.951 1.107-2.696 3.479-3.878 5.272-1.181 1.792-2.3 3.253-2.486 3.245-.185-.01-1.283-1.47-2.438-3.25zM12.938 53.27c-.379-.378-.207-1.667.786-5.887 1.755-7.455 3.682-12.665 6.545-17.69.792-1.39 1.44-2.66 1.44-2.824 0-.196-1.8-.27-5.285-.219l-5.285.08-.09 1.582c-.098 1.727-.337 2.02-1.647 2.02-1.549 0-1.62-.176-1.53-3.77l.082-3.3 8.442-.076 8.442-.076.896 1.453c.493.8.897 1.588.897 1.753 0 .166-.504 1.041-1.12 1.946-3.292 4.838-7.172 14.818-9.063 23.31l-.386 1.734-1.46.085c-.802.047-1.55-.01-1.664-.12z" fill="#b4b4b4"/><path d="M0 157.44V0h217.76v314.88H0V157.44zm211.67 156.25c1.909-.904 3.489-2.434 4.398-4.26l.67-1.34V7.37l-.692-1.526c-.85-1.875-3.015-3.886-4.864-4.514-1.227-.417-10.76-.46-102.6-.46H7.332l-1.772.883c-2.009 1.002-3.034 2.075-4.014 4.2L.868 7.425l.073 150.48.073 150.48.721 1.409c.949 1.852 2.84 3.476 4.875 4.185 1.627.567 2.63.572 102.56.522l100.91-.05 1.592-.754zm-23.656-24.209c-.287-.31-.777-1.038-1.088-1.619-.507-.945-.522-1.126-.145-1.726 2.217-3.522 3.14-5.199 4.336-7.873 1.863-4.165 3.57-9.14 4.88-14.227l1.08-4.189H200.232l-.059 1.445c-.078 1.926-2.199 10.292-3.479 13.722-1.048 2.809-3.351 7.607-4.597 9.575-1.268 2.004-1.323 1.98 4.51 1.98 5.876 0 5.396.211 5.574-2.456.07-1.036.163-1.165.909-1.25.457-.052 1.145-.016 1.53.08.693.174.697.194.616 3.561l-.082 3.387-8.31.077c-7.916.073-8.334.05-8.831-.486zm-136.93-12.662c-4.746-7.779-9.448-14.064-15.079-20.157-1.966-2.127-3.575-4.04-3.575-4.25 0-.211.728-1.094 1.617-1.962 4.507-4.4 10.43-12.257 16.597-22.017 1.481-2.344 2.798-4.261 2.928-4.261.13 0 1.02 1.404 1.978 3.12 4.035 7.223 10.401 15.894 17.186 23.407.765.847 1.391 1.666 1.391 1.82 0 .154-1.379 1.82-3.064 3.704-5.444 6.085-10.07 12.336-13.8 18.646-2.87 4.856-3.378 5.633-3.673 5.633-.142 0-1.27-1.657-2.506-3.683zm106.15 1.01c-5.155-8.677-11.936-17.605-17.491-23.028-1.053-1.028-1.915-1.981-1.915-2.117 0-.136 1.272-1.635 2.827-3.33 5.017-5.471 8.749-10.377 13.39-17.602 1.353-2.106 2.983-4.641 3.623-5.633.639-.991 1.29-1.789 1.447-1.772.157.017 1.33 1.838 2.607 4.045 3.86 6.676 8.151 12.576 14.516 19.96 1.808 2.097 3.287 4.016 3.287 4.264 0 .247-.912 1.43-2.026 2.63-5.878 6.324-12.013 14.734-16.477 22.585-.836 1.47-1.673 2.672-1.86 2.672-.187 0-1.054-1.203-1.927-2.672zm36.865-23.831c-1.127-1.708-3.043-4.238-4.258-5.621-1.215-1.384-2.208-2.58-2.208-2.658 0-.078.792-1.027 1.761-2.107.97-1.08 2.874-3.621 4.233-5.647 1.36-2.026 2.576-3.683 2.705-3.683.13 0 .644.713 1.143 1.585 1.19 2.075 3.569 5.37 5.608 7.768.899 1.056 1.634 2 1.634 2.098 0 .097-.885 1.234-1.966 2.524-2.402 2.867-3.042 3.745-4.815 6.607-.763 1.232-1.477 2.24-1.587 2.24-.11 0-1.123-1.398-2.25-3.106zM52.079 185.39c-5.003-8.586-12.644-18.668-18.326-24.181-.73-.709-1.327-1.495-1.327-1.747s.533-.973 1.186-1.601c4.803-4.624 12-14.289 18.59-24.966.604-.98 1.256-1.73 1.447-1.667.192.062 1.045 1.404 1.896 2.98 3.15 5.839 8.799 13.703 14.89 20.73 4.31 4.97 4.14 4.476 2.218 6.468-5.369 5.564-11.424 13.66-16.048 21.456-2.78 4.688-2.737 4.622-3.036 4.622-.148 0-.819-.942-1.49-2.094zm105.79.321c-2.62-4.328-8.628-13.088-10.967-15.99-1.407-1.745-4.024-4.695-5.815-6.553-1.792-1.86-3.258-3.486-3.258-3.615 0-.13 1.26-1.6 2.8-3.268 5.196-5.628 10.139-12.28 15.614-21.013 1.419-2.263 2.715-4.116 2.88-4.117.166 0 .808.94 1.427 2.092 3.72 6.921 9.24 14.64 16.062 22.46 1.594 1.827 2.9 3.517 2.902 3.755.003.239-1.394 2.005-3.104 3.926-5.85 6.571-10.643 13.178-14.86 20.487-1.146 1.985-2.2 3.609-2.345 3.609-.144 0-.745-.798-1.336-1.773zm-53.868-50.029c-4.823-7.887-9.946-14.614-15.464-20.299-1.556-1.603-2.829-3.011-2.829-3.13 0-.117 1.492-1.86 3.316-3.873 5.283-5.83 11.047-13.747 16.39-22.51.703-1.152 1.41-2.052 1.57-1.999.16.053 1.253 1.777 2.429 3.83 3.78 6.601 8.406 12.975 14.784 20.366 1.764 2.045 3.208 3.911 3.208 4.148 0 .236-.757 1.246-1.682 2.245a125.24 125.24 0 0 0-16.418 22.254c-1.08 1.867-2.106 3.392-2.283 3.39-.176 0-1.535-1.992-3.02-4.422zM52.984 92.227c-5.935-10.035-11.853-18.034-17.817-24.08-1.506-1.526-2.738-2.994-2.738-3.261 0-.268 1.27-1.82 2.824-3.45 4.693-4.926 10.43-12.678 15.709-21.224 1.225-1.985 2.36-3.515 2.606-3.513.252 0 1.101 1.24 2.026 2.958 3.192 5.92 8.76 13.643 15.32 21.246 1.687 1.955 3.11 3.673 3.16 3.816.051.143-1.388 1.937-3.199 3.986C65.127 75.21 60.22 81.991 56.03 89.224c-1.115 1.924-2.189 3.5-2.386 3.504-.198 0-.494-.221-.659-.5zm105.28-.425c-5.131-8.845-11.551-17.525-17.585-23.774-1.567-1.623-2.85-3.075-2.85-3.227 0-.152.344-.592.764-.977 1.452-1.332 6.643-7.356 8.89-10.314 1.928-2.54 7.604-10.982 10.471-15.572.478-.765 1-1.378 1.159-1.362.159.016 1.115 1.5 2.123 3.296 3.843 6.844 8.52 13.266 15.607 21.432 1.476 1.7 2.684 3.335 2.684 3.633 0 .298-.343.857-.761 1.242-1.55 1.426-6.384 7.173-9.214 10.955a124.15 124.15 0 0 0-8.367 12.71c-.87 1.51-1.758 2.781-1.976 2.826-.218.044-.643-.346-.946-.867zM15.124 78.203c-1.156-1.78-3.012-4.232-4.126-5.45-1.114-1.216-2.026-2.293-2.026-2.391 0-.098.898-1.23 1.995-2.515 1.097-1.285 2.954-3.807 4.126-5.604 1.173-1.797 2.275-3.276 2.45-3.288.174-.01.976 1.052 1.781 2.363.806 1.31 2.655 3.85 4.11 5.644 1.614 1.992 2.56 3.397 2.432 3.61-.116.193-.99 1.257-1.94 2.364-.951 1.107-2.696 3.479-3.878 5.272-1.181 1.792-2.3 3.253-2.486 3.245-.185-.01-1.283-1.47-2.438-3.25zm-2.181-24.937c-.379-.378-.207-1.667.786-5.887 1.755-7.455 3.682-12.665 6.545-17.69.792-1.39 1.44-2.66 1.44-2.824 0-.196-1.8-.27-5.285-.219l-5.285.08-.09 1.582c-.098 1.727-.337 2.02-1.647 2.02-1.549 0-1.62-.176-1.53-3.77l.082-3.3 8.442-.076 8.442-.076.896 1.453c.493.8.897 1.588.897 1.753 0 .166-.504 1.041-1.12 1.946-3.292 4.838-7.172 14.818-9.063 23.31l-.386 1.734-1.46.085c-.802.047-1.55-.01-1.664-.12z" fill="#e49090"/><path d="M0 157.44V0h217.76v314.88H0V157.44zm211.67 156.25c1.909-.904 3.489-2.434 4.398-4.26l.67-1.34V7.37l-.692-1.526c-.85-1.875-3.015-3.886-4.864-4.514-1.227-.417-10.76-.46-102.6-.46H7.332l-1.772.883c-2.009 1.002-3.034 2.075-4.014 4.2L.868 7.425l.073 150.48.073 150.48.721 1.409c.949 1.852 2.84 3.476 4.875 4.185 1.627.567 2.63.572 102.56.522l100.91-.05 1.592-.754zm-23.559-24.361c-.36-.388-.885-1.136-1.165-1.661l-.51-.955 1.573-2.373c.865-1.306 2.259-3.905 3.098-5.778 1.792-3.995 4.647-12.47 5.381-15.97.284-1.35.656-2.55.827-2.668.473-.322 2.713-.262 2.924.08.244.392-1.112 6.736-2.357 11.026-1.412 4.866-4.199 11.18-6.242 14.14-.291.421-.53.911-.53 1.089 0 .23 1.575.3 5.43.244l5.43-.079.144-1.589.145-1.588h2.895l.083 2.99c.054 1.958-.033 3.131-.252 3.395-.273.327-1.834.403-8.277.403h-7.941l-.656-.706zm-134.8-9.222c-.192-.23-1.443-2.193-2.78-4.36-4.817-7.804-9.597-14.085-14.936-19.626-1.74-1.806-3.164-3.37-3.164-3.475 0-.105 1.273-1.59 2.83-3.3 5.31-5.833 9.466-11.403 14.838-19.888 1.675-2.645 3.196-4.86 3.38-4.921.184-.061.688.514 1.12 1.278 4.99 8.832 8.977 14.417 16.724 23.428 1.542 1.794 2.804 3.322 2.804 3.395 0 .073-1.06 1.27-2.356 2.66-5.383 5.772-11.997 14.8-16.032 21.881-1.956 3.433-1.982 3.464-2.428 2.927zm105.46.048c-.16-.207-.985-1.546-1.834-2.976-4.423-7.455-10.112-15.05-15.848-21.16l-3.323-3.54 2.154-2.238c5.533-5.75 10.873-12.911 17.015-22.82 1.01-1.629 1.987-2.961 2.173-2.961.186 0 1.101 1.397 2.033 3.105 3.314 6.073 8.987 13.888 15.883 21.882 1.371 1.59 2.494 2.985 2.497 3.103.002.118-1.57 2.002-3.493 4.189-5.561 6.32-10.786 13.544-14.578 20.152-1.969 3.43-2.268 3.795-2.68 3.264zm35.144-26.591c-1.199-1.788-3.038-4.18-4.086-5.319-1.048-1.137-1.906-2.217-1.906-2.4 0-.182.843-1.33 1.874-2.553 1.031-1.222 2.823-3.675 3.982-5.451 1.159-1.776 2.25-3.238 2.425-3.25.175-.011 1.176 1.312 2.224 2.94 1.049 1.629 2.827 4.066 3.953 5.417 1.125 1.35 2.046 2.622 2.046 2.826 0 .204-.858 1.374-1.909 2.6-1.64 1.914-3.512 4.55-5.43 7.645-.27.437-.604.795-.742.795s-1.232-1.463-2.431-3.25zm-141.01-66.9c-6.745-11.102-11.161-17.102-17.189-23.356-1.803-1.87-3.275-3.506-3.271-3.636.004-.129 1.32-1.664 2.928-3.412 1.606-1.748 4.046-4.608 5.42-6.355 2.5-3.18 9.021-12.725 11.194-16.39.635-1.069 1.35-1.945 1.589-1.946.253 0 .977 1.043 1.737 2.506 2.834 5.454 8.19 12.97 14.748 20.693 2.002 2.358 3.727 4.44 3.833 4.627.113.198-.84 1.49-2.27 3.08-6.353 7.061-12.593 15.713-16.612 23.033-1.066 1.943-1.489 2.174-2.107 1.156zm103.42-3.479c-4.649-7.631-9.768-14.385-15.407-20.327-1.532-1.613-2.785-3.09-2.785-3.281 0-.192.99-1.398 2.2-2.68 5.02-5.324 10.366-12.467 15.666-20.931 1.518-2.423 2.925-4.406 3.128-4.406.203 0 1.132 1.398 2.066 3.105 3.321 6.075 8.725 13.563 15.136 20.973 1.766 2.042 3.212 3.843 3.212 4.003 0 .16-.931 1.284-2.069 2.498-5.053 5.394-10.974 13.393-15.375 20.768-1.446 2.423-2.77 4.404-2.944 4.403-.174 0-1.446-1.858-2.827-4.126zm-49.854-43.599c-.228-.362-1.46-2.349-2.736-4.414-4.71-7.616-8.737-12.93-14.567-19.218l-3.461-3.733 2.646-2.824c5.129-5.471 9.241-10.948 15.044-20.036 1.767-2.767 3.37-5.067 3.56-5.111.192-.044.997 1.124 1.79 2.596 3.2 5.937 8.926 13.905 15.298 21.288 1.728 2.002 3.206 3.796 3.283 3.987.078.19-1.255 1.908-2.962 3.815-5.65 6.317-10.884 13.52-15.184 20.901-.996 1.71-1.92 3.177-2.054 3.26-.133.082-.43-.147-.657-.51zM53.421 92.63c-.168-.116-1.003-1.382-1.857-2.812-5.035-8.43-11.964-17.536-17.358-22.812-.97-.948-1.763-1.836-1.763-1.973 0-.136 1.23-1.57 2.735-3.186 1.504-1.616 3.924-4.433 5.379-6.26 2.379-2.989 8.834-12.41 11.649-17.005.598-.975 1.202-1.773 1.344-1.773.141 0 1.15 1.584 2.243 3.52 3.576 6.338 8.76 13.478 15.135 20.847 1.766 2.042 3.212 3.764 3.212 3.826 0 .062-.992 1.186-2.204 2.498-5.396 5.84-10.718 13.012-15.221 20.511-1.599 2.662-2.925 4.838-2.948 4.835-.023 0-.179-.1-.346-.216zm105.18-.41c-.232-.367-1.466-2.358-2.743-4.424-4.72-7.634-9.248-13.556-14.61-19.112-1.871-1.939-3.402-3.603-3.402-3.699 0-.096 1.259-1.5 2.797-3.122 5.072-5.346 9.373-11.074 14.96-19.923 1.78-2.82 3.366-5.126 3.525-5.128.16 0 .869 1.07 1.577 2.381 3.401 6.299 9.064 14.223 15.327 21.45 1.928 2.224 3.503 4.174 3.501 4.332-.002.16-1.12 1.524-2.486 3.034-6.03 6.669-11.939 14.774-15.848 21.74-1.731 3.085-2.032 3.372-2.598 2.472zM16.911 80.79c-1.841-2.969-3.842-5.736-5.588-7.727-1.114-1.27-2.03-2.518-2.033-2.771-.004-.254.273-.709.616-1.012 1.048-.925 3.765-4.448 5.718-7.413 1.02-1.548 1.943-2.814 2.053-2.814.11 0 .538.617.95 1.372 1.03 1.884 3.27 5.005 5.39 7.508.973 1.15 1.77 2.266 1.77 2.477 0 .212-.726 1.22-1.615 2.241-1.833 2.107-3.568 4.494-5.18 7.129-.608.993-1.214 1.805-1.347 1.805s-.463-.357-.734-.794zM13.076 53.3c-.483-.305-.255-1.693 1.288-7.852 1.607-6.411 3.623-11.522 6.453-16.356.663-1.133 1.206-2.138 1.206-2.233 0-.095-2.443-.137-5.43-.094l-5.428.079-.145 1.589-.145 1.589H7.979v-6.645l8.32-.077 8.318-.077 1.051 1.58 1.051 1.579-1.301 1.964c-3.31 4.994-6.983 14.292-8.764 22.185-.287 1.27-.72 2.473-.962 2.672-.507.416-2.021.472-2.616.096z" fill="#e17c81"/><path d="M0 157.44V0h217.76v314.88H0V157.44zm211.67 156.25c1.909-.904 3.489-2.434 4.398-4.26l.67-1.34V7.37l-.692-1.526c-.85-1.875-3.015-3.886-4.864-4.514-1.227-.417-10.76-.46-102.6-.46H7.332l-1.772.883c-2.009 1.002-3.034 2.075-4.014 4.2L.868 7.425l.073 150.48.073 150.48.721 1.409c.949 1.852 2.84 3.476 4.875 4.185 1.627.567 2.63.572 102.56.522l100.91-.05 1.592-.754zm-23.294-24.089c-.185-.159-.706-.842-1.158-1.518l-.822-1.23 1.153-1.66c3.325-4.784 7.1-14.403 9.155-23.324l.399-1.733 1.637-.087c.9-.048 1.637.028 1.637.168 0 .547-2.093 9.562-2.664 11.473-1.124 3.765-4.508 11.31-6.026 13.436-.781 1.095-.73 1.338.328 1.55 1.722.343 9.087.204 9.597-.181.305-.231.507-.882.562-1.806l.085-1.444h2.895l.043 3.033c.023 1.672-.088 3.193-.248 3.39-.368.449-16.046.385-16.573-.068zm-135.61-10.327c-.458-.675-1.533-2.398-2.388-3.828-4.18-6.983-10.604-15.302-15.618-20.22-2.749-2.697-2.802-2.275.771-6.172 3.418-3.728 6.99-8.17 9.353-11.634 1.155-1.692 4.072-6.078 4.777-7.182l2.177-3.404c.842-1.316 1.658-2.35 1.815-2.299.156.052.705.869 1.22 1.815 3.342 6.136 7.79 12.692 11.865 17.485a228.68 228.68 0 0 1 1.459 1.734c3.159 3.811 4.761 5.676 5.164 6.009.264.218.48.59.48.827s-1.28 1.879-2.844 3.648c-6.8 7.692-10.856 13.406-16.377 23.077-.43.755-.837 1.372-.902 1.372-.065 0-.493-.552-.951-1.228zm105.35-.286c-5.964-10.015-11.459-17.337-18.187-24.23l-2.148-2.202.71-.688c.39-.378 1.946-2.052 3.456-3.72 2.593-2.865 3.553-4.035 6.385-7.783 1.693-2.241 8.365-12.272 9.475-14.245.513-.913 1.091-1.66 1.284-1.66.192 0 .714.682 1.16 1.516 3.933 7.363 8.506 13.807 16.325 23.002 3.184 3.745 3.211 3.822 1.79 5.094-1.242 1.113-8.429 9.835-10.07 12.223-3.457 5.027-5.136 7.61-6.85 10.538-1.097 1.875-2.092 3.469-2.21 3.542-.118.073-.622-.552-1.12-1.387zm35.876-25.406c-1.183-1.778-3.027-4.15-4.097-5.272-2.028-2.126-2.286-2.714-1.484-3.376 1.228-1.017 7.338-9.436 7.338-10.112 0-.138.17-.25.378-.25.207 0 1.146 1.202 2.086 2.671 1.492 2.332 2.58 3.788 5.61 7.503.791.97.667 1.394-.926 3.155-1.98 2.19-4.458 5.637-5.759 8.012-.27.496-.606.902-.744.902s-1.219-1.455-2.402-3.233zm-140.88-66.738c-.145-.204-.512-.826-.815-1.382-.669-1.227-6.175-9.69-7.612-11.7-2.413-3.374-7.176-8.945-10.564-12.357-.925-.93-1.679-1.781-1.676-1.89.003-.108.933-1.171 2.067-2.363 2.078-2.185 5.69-6.413 6.76-7.914a83.428 83.428 0 0 1 1.623-2.154c1.478-1.9 6.764-9.819 8.656-12.966.876-1.458 1.79-2.656 2.03-2.663.262-.01.837.804 1.424 2.01 1.457 2.99 5.643 9.36 9.576 14.57 1.05 1.392 4.432 5.479 7.022 8.487 1.234 1.433 2.244 2.783 2.244 2.999 0 .216-.428.844-.952 1.395-3.173 3.342-8.667 10.101-11.265 13.858-1.453 2.103-5.112 7.912-6.626 10.52-1.051 1.812-1.465 2.151-1.892 1.55zm104.91-1.165a465.566 465.566 0 0 1-3.258-5.128c-4.398-7.005-8.48-12.215-14.386-18.359-1.235-1.284-2.244-2.507-2.244-2.717 0-.21 1.01-1.437 2.244-2.725 1.839-1.919 6.497-7.546 8.993-10.864 1.146-1.522 6.407-9.504 7.854-11.916.835-1.39 1.704-2.527 1.933-2.527.229 0 .573.357.765.794.614 1.392 3.985 7.059 5.801 9.75 2.634 3.902 6.327 8.624 10.73 13.722 1.578 1.827 2.931 3.48 3.007 3.675.075.195-1.127 1.709-2.67 3.365-1.544 1.656-3.348 3.72-4.01 4.585-6.253 8.183-8.601 11.617-11.752 17.19-.831 1.47-1.625 2.672-1.763 2.672-.139 0-.699-.682-1.244-1.516zm-51.779-46.655c-6.089-10.191-11.786-17.84-18.237-24.48-1.08-1.112-1.967-2.152-1.97-2.311-.004-.159 1.218-1.654 2.714-3.322a945.177 945.177 0 0 0 3.483-3.9c2.991-3.398 10.257-13.894 14.212-20.529.17-.284.444-.432.611-.329.167.103 1.09 1.589 2.052 3.3 1.58 2.815 4.276 6.997 6.756 10.48 1.356 1.906 6.369 8.101 9.145 11.305 1.326 1.53 2.411 2.863 2.411 2.963 0 .165-4.339 5.126-5.082 5.81-.795.733-5.811 7.232-7.357 9.533-2.027 3.018-5.44 8.454-6.483 10.327-.597 1.072-1.242 1.949-1.433 1.948-.192 0-.561-.358-.822-.794zM52.241 90.639c-5.812-9.594-10.889-16.354-17.11-22.781-1.478-1.527-2.687-2.87-2.687-2.985 0-.114 1.077-1.335 2.393-2.712 2.477-2.592 2.656-2.803 6.641-7.848 2.63-3.33 7.161-10.06 11.426-16.972.22-.358.52-.65.663-.65.144 0 1.066 1.462 2.048 3.25 2.691 4.898 5.097 8.387 11.64 16.878.434.563 1.998 2.39 3.475 4.06 1.478 1.669 2.863 3.275 3.078 3.569.353.481.167.771-1.882 2.948-5.857 6.22-13.351 16.55-17.07 23.531-.445.834-.969 1.517-1.165 1.517-.196 0-.848-.813-1.45-1.806zm106.2 1.188a48.125 48.125 0 0 1-.91-1.547c-.288-.511-1.389-2.28-2.447-3.932-5.166-8.065-10.51-14.808-15.29-19.29-1.061-.996-1.665-1.795-1.665-2.206 0-.399.525-1.126 1.376-1.908 3.47-3.187 8.96-10.14 13.545-17.154l4.411-6.747c1.827-2.794 1.692-2.82 3.546.681 3.154 5.954 8.817 13.697 16.74 22.887 1.007 1.168 1.789 2.238 1.738 2.38-.051.14-1.423 1.728-3.048 3.527-1.625 1.799-3.319 3.749-3.764 4.333a928.65 928.65 0 0 1-2.668 3.466c-3.058 3.957-7.443 10.681-9.928 15.224-.577 1.055-1.097 1.146-1.636.285zM16.531 79.951c-1.406-2.373-3.468-5.145-5.442-7.317-.995-1.095-1.81-2.162-1.81-2.37 0-.21.471-.861 1.047-1.45 1.334-1.361 3.639-4.446 5.602-7.495.844-1.311 1.568-2.384 1.609-2.384.041 0 1.067 1.486 2.279 3.301 1.212 1.816 2.366 3.477 2.566 3.69 1.611 1.731 3.402 4.01 3.402 4.332 0 .214-.652 1.102-1.45 1.972-1.322 1.444-5.258 7.024-6.056 8.588-.183.357-.448.65-.59.65-.142 0-.663-.683-1.157-1.517zm-3.488-26.938c-.38-.458-.383-.444 1.058-6.5.549-2.303 1.528-5.683 2.176-7.51 1.081-3.047 3.807-8.896 5.224-11.209.322-.525.517-1.022.433-1.105-.279-.278-6.11-.452-8.515-.254l-2.375.196-.086 1.636-.086 1.637-1.274.09c-.824.06-1.36-.042-1.516-.288-.133-.209-.244-1.698-.246-3.31-.004-2.408.077-2.961.453-3.105.252-.096 3.941-.176 8.198-.176 5.767 0 7.849.092 8.171.361.238.199.802.915 1.254 1.59l.822 1.23-1.191 1.695c-1.14 1.621-3.282 5.57-4.015 7.401-.19.477-.8 1.997-1.353 3.377-1.379 3.437-3.914 12.177-3.938 13.578-.011.636-.353.827-1.725.964-.737.073-1.247-.03-1.47-.297z" fill="#df817c"/><path d="M0 157.44V0h217.76v314.88H0V157.44zm211.67 156.25c1.909-.904 3.489-2.434 4.398-4.26l.67-1.34V7.37l-.692-1.526c-.85-1.875-3.015-3.886-4.864-4.514-1.227-.417-10.76-.46-102.6-.46H7.332l-1.772.883c-2.009 1.002-3.034 2.075-4.014 4.2L.868 7.425l.073 150.48.073 150.48.721 1.409c.949 1.852 2.84 3.476 4.875 4.185 1.627.567 2.63.572 102.56.522l100.91-.05 1.592-.754zm-21.227-23.944l-2.26-.144-.843-1.459-.842-1.458 1.13-1.59c3.018-4.244 7.116-14.49 8.826-22.07l.652-2.889 1.386-.09c.763-.049 1.496.02 1.63.153.338.338-1.591 8.755-2.965 12.936-1.074 3.267-3.572 8.735-5.37 11.754-.445.745-.703 1.46-.574 1.589.286.286 8.614.491 9.93.245.92-.172.945-.216 1.03-1.827l.086-1.65 1.333-.087 1.332-.086.175 1.676c.254 2.434-.058 4.95-.636 5.12-.568.169-10.88.077-14.02-.123zm-138.63-12c-5.323-8.856-10.557-15.842-16.3-21.753-1.467-1.51-2.763-2.902-2.882-3.094-.135-.22.814-1.452 2.56-3.322 4.855-5.2 9.892-11.95 15.097-20.233 1.673-2.661 3.15-4.839 3.285-4.839.134 0 .862 1.138 1.617 2.528 3.735 6.87 9.52 14.864 16.308 22.538 1.29 1.457 2.345 2.799 2.345 2.98 0 .182-1.28 1.778-2.845 3.547-6.012 6.797-9.757 11.882-14.268 19.372-1.53 2.539-2.917 4.661-3.085 4.717-.167.056-.992-1.043-1.833-2.441zm104.61-1.472c-4.684-7.71-9.777-14.461-15.227-20.182-1.69-1.773-3.071-3.333-3.071-3.467 0-.134 1.259-1.608 2.798-3.276 5.47-5.929 11.878-14.713 16.909-23.182.858-1.444 1.72-2.158 1.72-1.424 0 .546 4.315 7.706 6.821 11.318 3.02 4.353 5.48 7.487 10.077 12.841 1.984 2.31 3.036 3.757 2.898 3.987-.119.198-1.241 1.48-2.495 2.85-5.269 5.755-12.322 15.475-15.96 21.994-.777 1.39-1.558 2.52-1.738 2.514-.18-.01-1.41-1.795-2.732-3.972zm37.678-22.519c-1.13-1.708-3.004-4.19-4.166-5.517-1.5-1.71-2.034-2.517-1.842-2.778.149-.203 1.035-1.263 1.97-2.356.936-1.093 2.673-3.45 3.862-5.237 1.188-1.788 2.26-3.25 2.38-3.25.122 0 .911 1.126 1.754 2.503.843 1.376 2.623 3.843 3.954 5.482 1.332 1.64 2.421 3.093 2.421 3.23 0 .138-.619.957-1.375 1.82-1.898 2.168-4.153 5.251-5.414 7.403-.581.993-1.154 1.805-1.274 1.805-.119 0-1.14-1.397-2.27-3.105zm-142.42-69.32c-4.712-7.89-10.253-15.304-16.038-21.463l-3.266-3.477 1.985-2.09c5.717-6.022 11.384-13.696 17.839-24.155.597-.97 1.205-1.762 1.35-1.762.145 0 1.08 1.463 2.078 3.25 3.509 6.282 8.514 13.207 14.996 20.751 1.77 2.06 3.22 3.879 3.22 4.04 0 .162-1.3 1.751-2.89 3.532a128.212 128.212 0 0 0-14.78 20.262c-1.207 2.054-2.332 3.781-2.5 3.837-.168.056-1.065-1.17-1.994-2.725zm106.49 1.489c-5.484-9.158-11.245-16.926-16.922-22.817-1.718-1.783-3.123-3.423-3.123-3.646 0-.223.727-1.115 1.616-1.984 4.379-4.278 10.705-12.624 16.144-21.294 1.62-2.582 3.075-4.69 3.234-4.687.16 0 1.006 1.319 1.882 2.922 3.349 6.127 8.656 13.506 15.034 20.903 1.918 2.224 3.49 4.129 3.493 4.232.003.104-1.056 1.339-2.352 2.745-5.8 6.29-12.57 15.636-16.447 22.705-.675 1.23-1.35 2.238-1.498 2.238-.15 0-.626-.593-1.06-1.317zm-52.877-48.451c-4.761-7.99-10.816-16.1-16.382-21.943-1.626-1.707-2.913-3.23-2.86-3.385.054-.154 1.45-1.773 3.1-3.597 1.652-1.824 4.104-4.72 5.45-6.437 2.356-3.007 8.186-11.567 10.83-15.901.702-1.15 1.38-2.093 1.507-2.095.127 0 .453.405.724.903 4.354 7.986 9.798 15.627 17.194 24.132 1.405 1.615 2.555 3.012 2.555 3.103 0 .09-.998 1.239-2.217 2.55-5.73 6.166-12.564 15.59-16.654 22.969-.639 1.152-1.312 2.09-1.497 2.084-.185-.01-.972-1.078-1.75-2.383zM51.529 89.53c-5.196-8.491-10.246-15.214-15.744-20.96-1.842-1.925-3.348-3.572-3.348-3.661 0-.09 1.302-1.54 2.893-3.225 4.812-5.092 9.667-11.628 15.258-20.542 1.52-2.423 2.868-4.405 2.996-4.405.128 0 .806 1.072 1.506 2.383 3.27 6.124 9.191 14.426 15.388 21.578 1.851 2.137 3.366 4.033 3.366 4.215 0 .181-1.06 1.488-2.357 2.904-5.885 6.426-12.59 15.72-16.493 22.864-.542.99-1.135 1.803-1.319 1.805-.183 0-1.149-1.329-2.146-2.957zm106.58 1.733c-1.352-2.414-5.329-8.507-7.684-11.772-2.972-4.12-5.372-7.013-9.27-11.172-1.663-1.776-3.024-3.307-3.024-3.403 0-.096 1.371-1.687 3.047-3.535 5.208-5.74 9.7-11.876 16.157-22.06 1.081-1.705 1.786-2.559 1.965-2.38.153.153 1.069 1.697 2.035 3.431 3.314 5.951 7.665 12.004 13.999 19.475 2.087 2.463 3.898 4.645 4.024 4.85.15.244-.349.987-1.46 2.174-5.943 6.345-11.625 14.03-16.433 22.225-1.096 1.867-2.144 3.394-2.33 3.394-.186 0-.647-.552-1.025-1.228zm-141.56-11.2c-1.132-1.977-3.924-5.756-5.654-7.652-.892-.978-1.618-1.888-1.612-2.022.005-.134.849-1.218 1.874-2.41 1.026-1.191 2.813-3.619 3.972-5.395 1.159-1.777 2.26-3.24 2.448-3.25.187-.012.754.7 1.26 1.583 1.051 1.832 3.605 5.315 5.59 7.622.743.865 1.351 1.688 1.351 1.83 0 .143-.837 1.235-1.86 2.427-1.722 2.005-3.283 4.18-5.198 7.243-.422.676-.929 1.227-1.126 1.226-.197 0-.667-.542-1.045-1.202zm-3.632-27.066c-.339-.547 1.893-9.691 3.47-14.21 1.04-2.985 3.456-8.097 4.915-10.403 1.236-1.954 1.12-2.004-4.564-2-2.752 0-5.159.103-5.348.224-.19.12-.385.93-.434 1.8l-.09 1.583-1.275.091c-.823.06-1.36-.043-1.515-.289-.386-.606-.304-5.844.097-6.244.507-.505 15.867-.492 16.492.014.557.452 1.692 2.333 1.692 2.804 0 .194-.77 1.578-1.711 3.075-2.827 4.498-6.301 13.446-7.84 20.192a216.188 216.188 0 0 1-.756 3.25c-.113.414-2.885.512-3.133.112z" fill="#929292"/><path d="M0 157.44V0h217.76v314.88H0V157.44zm212.14 156.22c1.848-.972 3.687-3.022 4.286-4.775.413-1.209.456-15.59.456-151.43V7.365l-.824-1.736c-.917-1.934-2.394-3.386-4.373-4.3L210.367.72H7.087l-1.303.68c-1.775.928-3.372 2.5-4.296 4.23L.717 7.077l-.078 149.64c-.053 103.98.016 150.08.228 151.07.61 2.866 2.79 5.295 5.639 6.28 1.366.471 7.272.497 102.8.437l101.35-.064 1.483-.781zm-21.697-23.918l-2.26-.144-.843-1.459-.842-1.458 1.13-1.59c3.018-4.244 7.116-14.49 8.826-22.07l.652-2.889 1.386-.09c.763-.049 1.496.02 1.63.153.338.338-1.591 8.755-2.965 12.936-1.074 3.267-3.572 8.735-5.37 11.754-.445.745-.703 1.46-.574 1.589.286.286 8.614.491 9.93.245.92-.172.945-.216 1.03-1.827l.086-1.65 1.333-.087 1.332-.086.175 1.676c.254 2.434-.058 4.95-.636 5.12-.568.169-10.88.077-14.02-.123zm-138.63-12c-5.323-8.856-10.557-15.842-16.3-21.753-1.467-1.51-2.763-2.902-2.882-3.094-.135-.22.814-1.452 2.56-3.322 4.855-5.2 9.892-11.95 15.097-20.233 1.673-2.661 3.15-4.839 3.285-4.839.134 0 .862 1.138 1.617 2.528 3.735 6.87 9.52 14.864 16.308 22.538 1.29 1.457 2.345 2.799 2.345 2.98 0 .182-1.28 1.778-2.845 3.547-6.012 6.797-9.757 11.882-14.268 19.372-1.53 2.539-2.917 4.661-3.085 4.717-.167.056-.992-1.043-1.833-2.441zm104.61-1.472c-4.684-7.71-9.777-14.461-15.227-20.182-1.69-1.773-3.071-3.333-3.071-3.467 0-.134 1.259-1.608 2.798-3.276 5.47-5.929 11.878-14.713 16.909-23.182.858-1.444 1.72-2.158 1.72-1.424 0 .546 4.315 7.706 6.821 11.318 3.02 4.353 5.48 7.487 10.077 12.841 1.984 2.31 3.036 3.757 2.898 3.987-.119.198-1.241 1.48-2.495 2.85-5.269 5.755-12.322 15.475-15.96 21.994-.777 1.39-1.558 2.52-1.738 2.514-.18-.01-1.41-1.795-2.732-3.972zm37.678-22.519c-1.13-1.708-3.004-4.19-4.166-5.517-1.5-1.71-2.034-2.517-1.842-2.778.149-.203 1.035-1.263 1.97-2.356.936-1.093 2.673-3.45 3.862-5.237 1.188-1.788 2.26-3.25 2.38-3.25.122 0 .911 1.126 1.754 2.503.843 1.376 2.623 3.843 3.954 5.482 1.332 1.64 2.421 3.093 2.421 3.23 0 .138-.619.957-1.375 1.82-1.898 2.168-4.153 5.251-5.414 7.403-.581.993-1.154 1.805-1.274 1.805-.119 0-1.14-1.397-2.27-3.105zm-142.42-69.32c-4.712-7.89-10.253-15.304-16.038-21.463l-3.266-3.477 1.985-2.09c5.717-6.022 11.384-13.696 17.839-24.155.597-.97 1.205-1.762 1.35-1.762.145 0 1.08 1.463 2.078 3.25 3.509 6.282 8.514 13.207 14.996 20.751 1.77 2.06 3.22 3.879 3.22 4.04 0 .162-1.3 1.751-2.89 3.532a128.212 128.212 0 0 0-14.78 20.262c-1.207 2.054-2.332 3.781-2.5 3.837-.168.056-1.065-1.17-1.994-2.725zm106.49 1.489c-5.484-9.158-11.245-16.926-16.922-22.817-1.718-1.783-3.123-3.423-3.123-3.646 0-.223.727-1.115 1.616-1.984 4.379-4.278 10.705-12.624 16.144-21.294 1.62-2.582 3.075-4.69 3.234-4.687.16 0 1.006 1.319 1.882 2.922 3.349 6.127 8.656 13.506 15.034 20.903 1.918 2.224 3.49 4.129 3.493 4.232.003.104-1.056 1.339-2.352 2.745-5.8 6.29-12.57 15.636-16.447 22.705-.675 1.23-1.35 2.238-1.498 2.238-.15 0-.626-.593-1.06-1.317zm-52.877-48.451c-4.761-7.99-10.816-16.1-16.382-21.943-1.626-1.707-2.913-3.23-2.86-3.385.054-.154 1.45-1.773 3.1-3.597 1.652-1.824 4.104-4.72 5.45-6.437 2.356-3.007 8.186-11.567 10.83-15.901.702-1.15 1.38-2.093 1.507-2.095.127 0 .453.405.724.903 4.354 7.986 9.798 15.627 17.194 24.132 1.405 1.615 2.555 3.012 2.555 3.103 0 .09-.998 1.239-2.217 2.55-5.73 6.166-12.564 15.59-16.654 22.969-.639 1.152-1.312 2.09-1.497 2.084-.185-.01-.972-1.078-1.75-2.383zM51.529 89.526c-5.196-8.491-10.246-15.214-15.744-20.96-1.842-1.925-3.348-3.572-3.348-3.661 0-.09 1.302-1.54 2.893-3.225 4.812-5.092 9.667-11.628 15.258-20.542 1.52-2.423 2.868-4.405 2.996-4.405.128 0 .806 1.072 1.506 2.383 3.27 6.124 9.191 14.426 15.388 21.578 1.851 2.137 3.366 4.033 3.366 4.215 0 .181-1.06 1.488-2.357 2.904-5.885 6.426-12.59 15.72-16.493 22.864-.542.99-1.135 1.803-1.319 1.805-.183 0-1.149-1.329-2.146-2.957zm106.58 1.733c-1.352-2.414-5.329-8.507-7.684-11.772-2.972-4.12-5.372-7.013-9.27-11.172-1.663-1.776-3.024-3.307-3.024-3.403 0-.096 1.371-1.687 3.047-3.535 5.208-5.74 9.7-11.876 16.157-22.06 1.081-1.705 1.786-2.559 1.965-2.38.153.153 1.069 1.697 2.035 3.431 3.314 5.951 7.665 12.004 13.999 19.475 2.087 2.463 3.898 4.645 4.024 4.85.15.244-.349.987-1.46 2.174-5.943 6.345-11.625 14.03-16.433 22.225-1.096 1.867-2.144 3.394-2.33 3.394-.186 0-.647-.552-1.025-1.228zm-141.56-11.2c-1.132-1.977-3.924-5.756-5.654-7.652-.892-.978-1.618-1.888-1.612-2.022.005-.134.849-1.218 1.874-2.41 1.026-1.191 2.813-3.619 3.972-5.395 1.159-1.777 2.26-3.24 2.448-3.25.187-.012.754.7 1.26 1.583 1.051 1.832 3.605 5.315 5.59 7.622.743.865 1.351 1.688 1.351 1.83 0 .143-.837 1.235-1.86 2.427-1.722 2.005-3.283 4.18-5.198 7.243-.422.676-.929 1.227-1.126 1.226-.197 0-.667-.542-1.045-1.202zm-3.632-27.066c-.339-.547 1.893-9.691 3.47-14.21 1.04-2.985 3.456-8.097 4.915-10.403 1.236-1.954 1.12-2.004-4.564-2-2.752 0-5.159.103-5.348.224-.19.12-.385.93-.434 1.8l-.09 1.583-1.275.091c-.823.06-1.36-.043-1.515-.289-.386-.606-.304-5.844.097-6.244.507-.505 15.867-.492 16.492.014.557.452 1.692 2.333 1.692 2.804 0 .194-.77 1.578-1.711 3.075-2.827 4.498-6.301 13.446-7.84 20.192a216.188 216.188 0 0 1-.756 3.25c-.113.414-2.885.512-3.133.112z" fill="#db6d6d"/><path d="M0 157.44V0h217.76v314.88H0V157.44zm212.14 156.22c1.848-.972 3.687-3.022 4.286-4.775.413-1.209.456-15.59.456-151.43V7.365l-.824-1.736c-.917-1.934-2.394-3.386-4.373-4.3L210.367.72H7.087l-1.303.68c-1.775.928-3.372 2.5-4.296 4.23L.717 7.077l-.078 149.64c-.053 103.98.016 150.08.228 151.07.61 2.866 2.79 5.295 5.639 6.28 1.366.471 7.272.497 102.8.437l101.35-.064 1.483-.781zm-24.487-25.193c-.487-.706-.886-1.438-.886-1.627 0-.188.572-1.204 1.27-2.259 3.51-5.298 7.33-15.424 9.035-23.943.115-.572.307-.65 1.61-.65h1.48l-.196 1.475c-.33 2.471-2.475 10.636-3.561 13.547-1.11 2.978-3.034 6.974-4.621 9.602-.55.912-.92 1.79-.82 1.95.281.454 10.765.389 11.055-.069.126-.198.296-1.01.379-1.805l.15-1.445h2.316v6.356l-8.163.077-8.163.077-.886-1.285zm-134.42-8.756c-.24-.282-1.434-2.153-2.655-4.157-4.429-7.274-9.486-13.927-14.957-19.68-1.624-1.707-2.908-3.225-2.855-3.373.054-.149 1.428-1.742 3.055-3.541 5.133-5.678 8.693-10.455 14.159-19.003 1.774-2.774 3.36-5.088 3.526-5.143.165-.055 1.052 1.24 1.971 2.876 3.923 6.991 9.395 14.483 16.309 22.331 1.12 1.272 2.04 2.451 2.043 2.622.004.171-.334.626-.75 1.011-1.137 1.05-5.498 6.119-7.895 9.175-2.872 3.663-6.468 8.983-9.014 13.335-1.161 1.986-2.2 3.712-2.306 3.835-.107.123-.391-.01-.63-.289zm103.98-2.463c-5.273-8.617-10.46-15.519-15.83-21.062-1.795-1.852-3.263-3.483-3.263-3.624 0-.141.532-.77 1.182-1.398 4.716-4.555 11.518-13.591 17.494-23.241.935-1.51 1.854-2.918 2.042-3.13.274-.307.696.249 2.1 2.76 3.904 6.99 8.137 12.827 15.621 21.542 1.474 1.716 2.678 3.276 2.677 3.467-.001.191-1.057 1.518-2.345 2.948-6.217 6.902-11.46 14.11-16.02 22.024-.754 1.31-1.478 2.447-1.609 2.527-.13.081-1.053-1.186-2.049-2.814zm37.491-22.82c-1.754-2.708-3.655-5.185-5.416-7.057l-1.407-1.495 2.416-2.983c1.328-1.64 3.163-4.12 4.077-5.51.914-1.39 1.775-2.527 1.913-2.527.137 0 .99 1.166 1.896 2.591.906 1.425 2.52 3.65 3.585 4.945 1.066 1.294 2.105 2.58 2.309 2.857.323.44.126.796-1.536 2.783-1.677 2.004-4 5.278-5.462 7.695-.264.437-.601.795-.75.795-.147 0-.879-.943-1.625-2.095zm-38.288-71.498c-4.741-7.748-9.007-13.406-14.915-19.779l-3.424-3.693 2.642-2.849c5.034-5.43 10.138-12.275 15.212-20.404 1.388-2.224 2.689-4.219 2.89-4.432.3-.318.762.311 2.556 3.482 3.489 6.167 8.101 12.526 14.458 19.935 1.871 2.181 3.402 4.114 3.402 4.296 0 .181-.684 1.068-1.52 1.97-5.8 6.255-11.979 14.625-16.287 22.063-1.084 1.873-2.07 3.465-2.19 3.54-.12.073-1.391-1.784-2.825-4.127zm-104.9 1.011c-5.386-8.785-10.149-15.12-15.742-20.945-1.681-1.75-3.057-3.365-3.057-3.588 0-.222.663-1.05 1.473-1.838 4.723-4.597 11.909-14.216 17.634-23.605.848-1.39 1.645-2.528 1.772-2.528s.853 1.203 1.613 2.673c2.853 5.514 9.359 14.534 15.991 22.17 1.45 1.667 2.634 3.12 2.634 3.227 0 .107-.814 1.084-1.81 2.17-6.31 6.885-12.109 14.769-16.289 22.145-.954 1.684-1.886 3.066-2.07 3.07-.183 0-1.15-1.323-2.149-2.952zm53.576-47.065c-5.35-8.716-10.699-15.819-15.966-21.207-1.722-1.761-3.13-3.299-3.13-3.417 0-.118 1.231-1.537 2.737-3.153 4.997-5.363 8.927-10.614 14.648-19.573 1.767-2.767 3.317-5.138 3.445-5.268.128-.13.79.78 1.47 2.022 3.923 7.164 8.74 13.873 15.994 22.28 1.553 1.8 2.821 3.427 2.819 3.615-.002.188-.947 1.382-2.1 2.654-6.14 6.78-10.808 13.093-15.27 20.653-1.171 1.986-2.284 3.784-2.473 3.995-.273.306-.71-.216-2.173-2.6zM50.311 87.421c-4.765-7.667-8.723-12.864-14.587-19.152-1.655-1.774-3.009-3.31-3.009-3.413 0-.102 1.208-1.51 2.684-3.129 5.645-6.19 10.655-13.05 16.79-22.99.598-.97 1.205-1.762 1.35-1.762.145 0 1.044 1.398 1.998 3.106 3.575 6.396 8.441 13.157 14.686 20.402 2.6 3.015 3.626 4.405 3.44 4.657-.146.198-1.747 2.034-3.56 4.08a124.954 124.954 0 0 0-14.438 20.03c-.961 1.662-1.86 3.056-1.997 3.097-.138.041-1.649-2.175-3.358-4.926zm108.26 4.368a1548.82 1548.82 0 0 1-2.763-4.46c-4.539-7.344-9.387-13.675-14.577-19.037-1.712-1.769-3.113-3.3-3.113-3.401 0-.102 1.186-1.453 2.635-3.001 4.983-5.323 9.728-11.666 15.041-20.105 1.665-2.644 3.157-4.804 3.317-4.8.159 0 1.006 1.33 1.882 2.949 3.158 5.834 8.437 13.162 15.034 20.865 1.764 2.06 3.208 3.9 3.208 4.086 0 .187-.931 1.361-2.07 2.609-6.202 6.8-11.74 14.384-16.172 22.148-.876 1.534-1.688 2.791-1.804 2.794-.115 0-.394-.289-.619-.646zm-143.14-13.5c-1.141-1.708-2.993-4.118-4.116-5.355-1.122-1.237-2.041-2.312-2.041-2.388 0-.077.89-1.168 1.98-2.426 1.088-1.257 2.934-3.724 4.1-5.483 1.167-1.758 2.198-3.192 2.292-3.185.093.01.87 1.161 1.728 2.565.856 1.403 2.662 3.883 4.012 5.51 2.455 2.959 2.455 2.959 1.917 3.614-3.74 4.562-4.698 5.828-5.96 7.87-.81 1.31-1.554 2.383-1.654 2.383-.101 0-1.117-1.397-2.258-3.105zm-2.392-25.71c.002-1.148 1.815-8.682 2.903-12.061 1.218-3.784 2.987-7.767 4.855-10.932.829-1.405 1.435-2.673 1.345-2.817-.267-.431-10.713-.33-11.077.107-.168.203-.347 1.016-.397 1.806l-.09 1.437H8.26l-.082-3.25-.082-3.25h16.496l.883 1.28c.485.704.882 1.42.882 1.592 0 .172-.506 1.058-1.126 1.97-1.47 2.164-3.56 6.359-4.988 10.008-1.405 3.59-3.601 10.794-3.884 12.74-.274 1.887-.537 2.164-2.054 2.164-1.19 0-1.267-.049-1.266-.794z" fill="#d74e4f"/><path d="M0 157.44V0h217.76v314.88H0V157.44zm212.14 156.22c1.848-.972 3.687-3.022 4.286-4.775.413-1.209.456-15.59.456-151.43V7.365l-.824-1.736c-.917-1.934-2.394-3.386-4.373-4.3L210.367.72H7.087l-1.303.68c-1.775.928-3.372 2.5-4.296 4.23L.717 7.077l-.078 149.64c-.053 103.98.016 150.08.228 151.07.61 2.866 2.79 5.295 5.639 6.28 1.366.471 7.272.497 102.8.437l101.35-.064 1.483-.781zm-23.82-24.5a13.065 13.065 0 0 1-1.078-1.456c-.5-.802-.496-.817.781-2.744 3.164-4.776 6.321-12.624 8.45-21.004l.954-3.756.969-.075c1.773-.138 1.803.018.84 4.288-1.058 4.696-1.254 5.43-2.387 8.931-.979 3.025-3.394 8.319-4.996 10.95-1.687 2.77-1.904 2.652 4.688 2.561l5.719-.078.087-1.677.087-1.677 1.216.088 1.216.088.083 2.702c.054 1.743-.035 2.844-.252 3.105-.273.328-1.796.404-8.069.404-7.655 0-7.738-.01-8.308-.65zM52 277.605a126.721 126.721 0 0 0-15.545-20.96l-3.784-4.133 2.273-2.367c5.195-5.408 10.627-12.737 16.902-22.804.867-1.39 1.641-2.525 1.72-2.523.08 0 .914 1.4 1.853 3.105 3.337 6.058 7.713 12.187 13.713 19.208 2.03 2.375 3.876 4.611 4.104 4.97.394.624.276.81-2.502 3.947-5.796 6.545-10.603 13.119-14.706 20.113-1.235 2.105-2.328 3.827-2.429 3.827-.1 0-.82-1.072-1.6-2.383zm106.58 1.733c-6.847-11.193-11.024-16.867-17.098-23.226-1.692-1.772-3.077-3.308-3.077-3.413 0-.106 1.46-1.812 3.243-3.792 5.08-5.637 10.068-12.437 15.132-20.628.934-1.51 1.851-2.914 2.04-3.121.27-.3.777.388 2.446 3.322 3.66 6.434 8.284 12.799 14.685 20.212 1.805 2.09 3.282 3.88 3.282 3.975 0 .095-.912 1.154-2.026 2.353-5.826 6.268-12.637 15.595-16.505 22.6-.717 1.298-1.398 2.362-1.514 2.364-.116 0-.39-.287-.608-.645zm35.768-25.598c-1.004-1.553-2.816-3.97-4.028-5.37-1.529-1.765-2.123-2.655-1.94-2.903.145-.196 1.029-1.252 1.963-2.345.935-1.093 2.608-3.352 3.718-5.02 1.11-1.669 2.105-3.061 2.21-3.095.105-.034.83.996 1.61 2.289.78 1.292 2.506 3.69 3.836 5.327 1.33 1.638 2.418 3.09 2.418 3.227 0 .138-.618.957-1.375 1.82-1.788 2.041-4.075 5.169-5.308 7.258-.54.914-1.048 1.656-1.13 1.65-.082-.01-.97-1.284-1.974-2.838zm-141.71-68.149c-1.365-2.424-6.13-9.651-8.234-12.487a114.343 114.343 0 0 0-9.108-10.808l-2.669-2.784 2.007-2.087c5.372-5.586 10.871-12.966 16.891-22.669 1.01-1.628 1.915-2.96 2.01-2.96.096 0 .947 1.397 1.893 3.105 3.348 6.047 9.117 14.005 15.284 21.08 1.554 1.784 2.826 3.421 2.826 3.639 0 .218-.279.643-.62.946-1.204 1.07-6.092 6.853-8.67 10.26-3.003 3.968-6.746 9.605-8.946 13.473-.836 1.47-1.602 2.672-1.704 2.672-.101 0-.534-.621-.96-1.38zm104.84-1.144c-5.368-8.92-11.725-17.29-17.164-22.6-1.053-1.029-1.915-2.031-1.915-2.228 0-.197 1.193-1.624 2.65-3.171 4.788-5.084 9.45-11.302 14.583-19.453 1.55-2.463 2.98-4.65 3.177-4.861.29-.31.73.264 2.318 3.033 4.173 7.274 9.112 14.003 16.182 22.049 1.047 1.192 1.907 2.24 1.91 2.328.005.089-1.049 1.324-2.34 2.744-6.013 6.618-11.462 14.075-15.877 21.73-.85 1.473-1.649 2.742-1.774 2.82-.125.077-.913-1-1.75-2.392zm-53.377-49.313c-4.925-7.906-9.902-14.425-15.138-19.832-1.477-1.525-2.685-2.871-2.685-2.992s1.192-1.54 2.65-3.15c5.364-5.934 9.443-11.384 14.42-19.267 1.65-2.613 3.154-4.922 3.344-5.13.274-.3.717.288 2.17 2.875 3.571 6.363 8.642 13.371 15.036 20.782 1.764 2.045 3.208 3.788 3.208 3.872 0 .085-.912 1.135-2.026 2.335-5.743 6.179-11.453 13.919-15.918 21.578-.997 1.71-1.918 3.173-2.046 3.252-.127.08-1.484-1.866-3.015-4.323zM52.8 91.28c-.886-1.723-4.723-7.635-7.39-11.386-3.27-4.599-5.866-7.721-9.742-11.716-1.98-2.042-2.93-3.223-2.785-3.467.12-.203 1.096-1.28 2.17-2.392 5.084-5.271 10.943-13.216 17.13-23.229.598-.967 1.208-1.759 1.355-1.759.148 0 .82 1.008 1.496 2.239 3.403 6.21 9.04 14.09 15.133 21.16 1.848 2.145 3.363 4.033 3.366 4.197.003.163-.94 1.333-2.095 2.6-6.356 6.978-11.984 14.772-16.836 23.318-.428.755-.9 1.372-1.049 1.372-.148 0-.487-.422-.753-.939zm105.76.288l-2.649-4.26c-4.537-7.307-9.66-14.004-14.796-19.341-1.497-1.556-2.721-2.915-2.721-3.02 0-.104 1.384-1.713 3.077-3.575 5.075-5.584 9.954-12.248 15.857-21.657.922-1.47 1.718-2.672 1.77-2.672.052 0 .745 1.205 1.54 2.677 1.777 3.288 4.831 7.943 8.1 12.344 2.548 3.43 3.267 4.315 7.805 9.61 1.473 1.72 2.679 3.226 2.679 3.348 0 .122-.406.604-.902 1.07-1.546 1.455-6.705 7.622-9.413 11.253-2.658 3.565-6 8.683-8.248 12.63-.7 1.23-1.367 2.238-1.483 2.24-.116 0-.393-.29-.617-.647zM15.55 78.14c-1.026-1.561-2.7-3.792-3.723-4.956-1.021-1.165-1.976-2.28-2.12-2.48-.184-.252.29-1.016 1.545-2.496.996-1.173 2.79-3.595 3.988-5.383 1.937-2.89 2.693-3.739 2.693-3.024 0 .436 3.275 5.151 5.389 7.757 1.176 1.45 2.14 2.725 2.14 2.832 0 .107-.801 1.122-1.78 2.257-.978 1.134-2.684 3.434-3.79 5.111-1.106 1.678-2.116 3.089-2.244 3.136-.128.047-1.072-1.192-2.098-2.754zm-2.538-25.426c.005-.528 2.017-9.093 2.597-11.05 1.028-3.47 3.406-9 5.1-11.862.862-1.454 1.567-2.816 1.567-3.025 0-.554-.414-.582-6.193-.423l-5.245.144-.144 1.59-.145 1.588H8.232V23.61l7.674-.081c4.22-.045 7.934-.017 8.252.062.319.079.938.738 1.377 1.467l.798 1.324-1.133 1.664c-3.253 4.779-7.606 15.857-9.013 22.935l-.387 1.95h-1.395c-.767 0-1.394-.098-1.393-.217z" fill="#6b6b6b"/><path d="M0 157.44V0h217.76v314.88H0V157.44zm213.2 155.91c1.776-1.22 2.856-2.598 3.527-4.498.4-1.133.446-16.895.446-151.25 0-136.41-.042-150.11-.461-151.33-.615-1.8-2.787-4.163-4.6-5.006l-1.454-.675H6.778l-1.504.748c-1.67.83-3.32 2.547-4.14 4.307-.522 1.122-.538 5.59-.538 151.95 0 146 .017 150.83.535 151.97 1.022 2.245 3.298 4.272 5.347 4.762.5.12 46.858.198 103.02.174l102.11-.044 1.6-1.099zm-24.88-24.2a13.065 13.065 0 0 1-1.078-1.456c-.5-.802-.496-.817.781-2.744 3.164-4.776 6.321-12.624 8.45-21.004l.954-3.756.969-.075c1.773-.138 1.803.018.84 4.288-1.058 4.696-1.254 5.43-2.387 8.931-.979 3.025-3.394 8.319-4.996 10.95-1.687 2.77-1.904 2.652 4.688 2.561l5.719-.078.087-1.677.087-1.677 1.216.088 1.216.088.083 2.702c.054 1.743-.035 2.844-.252 3.105-.273.328-1.796.404-8.069.404-7.655 0-7.738-.01-8.308-.65zM52 277.595a126.721 126.721 0 0 0-15.545-20.96l-3.784-4.133 2.273-2.367c5.195-5.408 10.627-12.737 16.902-22.804.867-1.39 1.641-2.525 1.72-2.523.08 0 .914 1.4 1.853 3.105 3.337 6.058 7.713 12.187 13.713 19.208 2.03 2.375 3.876 4.611 4.104 4.97.394.624.276.81-2.502 3.947-5.796 6.545-10.603 13.119-14.706 20.113-1.235 2.105-2.328 3.827-2.429 3.827-.1 0-.82-1.072-1.6-2.383zm106.58 1.733c-6.847-11.193-11.024-16.867-17.098-23.226-1.692-1.772-3.077-3.308-3.077-3.413 0-.106 1.46-1.812 3.243-3.792 5.08-5.637 10.068-12.437 15.132-20.628.934-1.51 1.851-2.914 2.04-3.121.27-.3.777.388 2.446 3.322 3.66 6.434 8.284 12.799 14.685 20.212 1.805 2.09 3.282 3.88 3.282 3.975 0 .095-.912 1.154-2.026 2.353-5.826 6.268-12.637 15.595-16.505 22.6-.717 1.298-1.398 2.362-1.514 2.364-.116 0-.39-.287-.608-.645zm35.768-25.598c-1.004-1.553-2.816-3.97-4.028-5.37-1.529-1.765-2.123-2.655-1.94-2.903.145-.196 1.029-1.252 1.963-2.345.935-1.093 2.608-3.353 3.718-5.02 1.11-1.669 2.105-3.061 2.21-3.095.105-.034.83.996 1.61 2.289.78 1.292 2.506 3.69 3.836 5.327 1.33 1.638 2.418 3.09 2.418 3.227 0 .138-.618.957-1.375 1.82-1.788 2.041-4.075 5.169-5.308 7.258-.54.914-1.048 1.656-1.13 1.65-.082-.01-.97-1.284-1.974-2.838zm-141.71-68.149c-1.365-2.424-6.13-9.651-8.234-12.487a114.343 114.343 0 0 0-9.108-10.808l-2.669-2.784 2.007-2.087c5.372-5.586 10.871-12.966 16.891-22.669 1.01-1.628 1.915-2.96 2.01-2.96.096 0 .947 1.397 1.893 3.104 3.348 6.048 9.117 14.006 15.284 21.082 1.554 1.783 2.826 3.42 2.826 3.638 0 .217-.279.643-.62.946-1.204 1.07-6.092 6.853-8.67 10.26-3.003 3.968-6.746 9.605-8.946 13.473-.836 1.47-1.602 2.672-1.704 2.672-.101 0-.534-.621-.96-1.38zm104.84-1.144c-5.368-8.92-11.725-17.29-17.164-22.6-1.053-1.029-1.915-2.031-1.915-2.228 0-.197 1.193-1.624 2.65-3.171 4.788-5.084 9.45-11.302 14.583-19.453 1.55-2.463 2.98-4.65 3.177-4.861.29-.31.73.264 2.318 3.033 4.173 7.274 9.112 14.003 16.182 22.049 1.047 1.192 1.907 2.24 1.91 2.328.005.089-1.049 1.324-2.34 2.744-6.013 6.618-11.462 14.075-15.877 21.73-.85 1.473-1.649 2.742-1.774 2.82-.125.077-.913-1-1.75-2.392zm-53.377-49.313c-4.925-7.906-9.902-14.425-15.138-19.832-1.477-1.525-2.685-2.871-2.685-2.992s1.192-1.54 2.65-3.15c5.364-5.934 9.443-11.384 14.42-19.267 1.65-2.613 3.154-4.922 3.344-5.13.274-.3.717.288 2.17 2.875 3.571 6.363 8.642 13.371 15.036 20.782 1.764 2.045 3.208 3.788 3.208 3.872 0 .085-.912 1.135-2.026 2.335-5.743 6.179-11.453 13.919-15.918 21.578-.997 1.71-1.918 3.173-2.046 3.252-.127.08-1.484-1.866-3.015-4.323zM52.8 91.27c-.886-1.723-4.723-7.635-7.39-11.386-3.27-4.599-5.866-7.721-9.742-11.716-1.98-2.042-2.93-3.223-2.785-3.467.12-.203 1.096-1.28 2.17-2.392 5.084-5.271 10.943-13.216 17.13-23.229.598-.967 1.208-1.759 1.355-1.759.148 0 .82 1.008 1.496 2.239 3.403 6.21 9.04 14.09 15.133 21.16 1.848 2.145 3.363 4.033 3.366 4.197.003.163-.94 1.333-2.095 2.6-6.356 6.978-11.984 14.772-16.836 23.318-.428.755-.9 1.372-1.049 1.372-.148 0-.487-.422-.753-.939zm105.76.288l-2.649-4.26c-4.537-7.307-9.66-14.004-14.796-19.341-1.497-1.556-2.721-2.915-2.721-3.02 0-.104 1.384-1.713 3.077-3.575 5.075-5.584 9.954-12.248 15.857-21.657.922-1.47 1.718-2.672 1.77-2.672.052 0 .745 1.205 1.54 2.677 1.777 3.288 4.831 7.943 8.1 12.344 2.548 3.43 3.267 4.315 7.805 9.61 1.473 1.72 2.679 3.226 2.679 3.348 0 .122-.406.604-.902 1.07-1.546 1.455-6.705 7.622-9.413 11.253-2.658 3.565-6 8.683-8.248 12.63-.7 1.23-1.367 2.238-1.483 2.24-.116 0-.393-.29-.617-.647zM15.55 78.13c-1.026-1.561-2.7-3.792-3.723-4.956-1.021-1.165-1.976-2.28-2.12-2.48-.184-.252.29-1.016 1.545-2.496.996-1.173 2.79-3.595 3.988-5.383 1.937-2.89 2.693-3.739 2.693-3.024 0 .436 3.275 5.151 5.389 7.757 1.176 1.45 2.14 2.725 2.14 2.832 0 .107-.801 1.122-1.78 2.257-.978 1.134-2.684 3.434-3.79 5.111-1.106 1.678-2.116 3.089-2.244 3.136-.128.047-1.072-1.192-2.098-2.754zm-2.538-25.426c.005-.528 2.017-9.093 2.597-11.05 1.028-3.47 3.406-9 5.1-11.862.862-1.454 1.567-2.816 1.567-3.025 0-.554-.414-.582-6.193-.423l-5.245.144-.144 1.59-.145 1.588H8.232V23.6l7.674-.081c4.22-.045 7.934-.017 8.252.062.319.079.938.738 1.377 1.467l.798 1.324-1.133 1.664c-3.253 4.779-7.606 15.857-9.013 22.935l-.387 1.95h-1.395c-.767 0-1.394-.098-1.393-.217z" fill="#d22d2f"/><path d="M0 157.44V0h217.76v314.88H0V157.44zm213.2 155.91c1.776-1.22 2.856-2.598 3.527-4.498.4-1.133.446-16.895.446-151.25 0-136.41-.042-150.11-.461-151.33-.615-1.8-2.787-4.163-4.6-5.006l-1.454-.675H6.778l-1.504.748c-1.67.83-3.32 2.547-4.14 4.307-.522 1.122-.538 5.59-.538 151.95 0 146 .017 150.83.535 151.97 1.022 2.245 3.298 4.272 5.347 4.762.5.12 46.858.198 103.02.174l102.11-.044 1.6-1.099zm-24.735-24.39c-.236-.28-.657-.875-.935-1.32-.506-.81-.505-.814.92-3.034.785-1.222 1.85-3.061 2.368-4.086 2.017-3.994 4.92-12.298 6.095-17.434l.648-2.832 1.047.087c1.007.084 1.043.126.953 1.099-.125 1.36-1.627 7.655-2.544 10.664-1.027 3.372-3.283 8.52-5.036 11.49-.81 1.373-1.432 2.702-1.383 2.954.076.396.847.468 5.693.536 3.89.055 5.728-.023 6.005-.252.238-.197.399-.892.399-1.722 0-1.559.217-1.817 1.3-1.546.746.187.747.191.665 2.97l-.083 2.783-7.841.077c-7.196.07-7.877.035-8.271-.433zm-135.96-11.044c-6.356-10.271-10.913-16.365-17.044-22.793l-2.549-2.672 2.171-2.222c5.152-5.272 9.985-11.748 16.587-22.227.927-1.47 1.78-2.672 1.896-2.672.116 0 .643.813 1.17 1.806 3.562 6.703 10.834 16.67 17.273 23.675.687.748 1.25 1.506 1.25 1.685 0 .179-1.34 1.842-2.978 3.695-6.063 6.863-11.254 14.04-14.975 20.703-1.742 3.121-1.547 3.05-2.802 1.021zm104.23-2.098c-4.7-7.695-9.712-14.318-14.994-19.818-1.67-1.738-3.036-3.246-3.036-3.35 0-.105 1.298-1.616 2.884-3.358 4.855-5.333 10.327-12.772 15.35-20.867l2.113-3.405 1.784 3.12c3.812 6.664 8.326 12.929 14.483 20.103 3.222 3.753 3.627 4.34 3.296 4.766-.208.268-1.212 1.397-2.231 2.509-5.239 5.717-11.342 14.057-15.223 20.799-.915 1.589-1.758 2.989-1.874 3.112-.116.122-1.264-1.503-2.553-3.611zm38.752-20.808c-1.1-1.939-3.195-4.798-5.211-7.115-1.279-1.47-1.776-2.245-1.595-2.49.144-.195 1.022-1.25 1.951-2.343s2.539-3.255 3.577-4.804c1.039-1.55 1.973-2.814 2.076-2.811.103 0 .863 1.075 1.69 2.383s2.39 3.463 3.475 4.789c1.084 1.326 2.095 2.583 2.245 2.793.194.271-.105.823-1.045 1.921-1.812 2.12-5.066 6.66-5.655 7.891-.267.559-.559 1.015-.649 1.014-.09 0-.476-.554-.859-1.228zm-142.68-69.674c-5.316-9.005-11.553-17.339-17.568-23.473l-2.324-2.369 2.153-2.253c4.99-5.222 10.271-12.248 15.47-20.58 3.308-5.3 2.774-5.193 5.117-1.027 3.345 5.95 9.15 13.902 14.993 20.54 1.441 1.637 2.62 3.126 2.62 3.308 0 .182-.844 1.242-1.877 2.355-5.77 6.218-12.342 15.3-16.874 23.32l-.888 1.57-.821-1.391zm105.32-.382c-4.913-8.305-10.993-16.46-16.642-22.322-1.308-1.358-2.479-2.63-2.601-2.829-.144-.232.482-1.139 1.755-2.542 6.237-6.873 10.078-12.014 16-21.41 1.326-2.105 2.458-3.828 2.516-3.828.057 0 .511.804 1.008 1.787 2.953 5.835 9.856 15.402 16.74 23.201 1.123 1.271 2.044 2.377 2.048 2.458.004.08-1.054 1.315-2.35 2.744-5.805 6.4-11.323 13.939-15.436 21.086-.915 1.589-1.752 2.983-1.861 3.1-.109.115-.639-.535-1.177-1.445zm-53.153-48.958c-4.587-7.555-10.574-15.47-15.699-20.754-1.478-1.525-2.688-2.867-2.688-2.983 0-.117 1.314-1.665 2.92-3.44 5.075-5.61 10.008-12.349 15.871-21.682l1.563-2.487 2.017 3.538c3.578 6.275 8.758 13.396 14.835 20.393 1.674 1.927 3.043 3.577 3.043 3.666 0 .09-.883 1.098-1.962 2.242-5.42 5.744-11.516 14.008-15.97 21.65-.997 1.709-1.844 3.106-1.884 3.106-.04 0-.961-1.462-2.046-3.25zM52.306 89.915c-1.69-2.917-6.217-9.691-8.442-12.633-2.846-3.762-4.738-5.969-8.01-9.341l-2.897-2.985.7-.77c.386-.424 1.699-1.86 2.919-3.193 4.348-4.75 9.512-11.772 14.288-19.432 1.372-2.2 2.576-4 2.676-3.998.1 0 .691.943 1.314 2.094 3.513 6.49 10.114 15.564 16.743 23.014.919 1.032 1.669 2.012 1.667 2.177-.002.165-1.126 1.535-2.498 3.045C65.062 74.17 59.18 82.29 55.02 89.63c-.698 1.23-1.34 2.236-1.428 2.233-.088 0-.667-.88-1.286-1.95zm105.23-.526c-4.713-7.847-10.804-15.976-16.064-21.437-2.11-2.19-2.807-3.092-2.606-3.372.151-.21 1.553-1.778 3.116-3.487 1.563-1.708 3.959-4.55 5.324-6.314 2.365-3.056 9.366-13.389 10.833-15.988.38-.674.776-1.226.878-1.227.103 0 .941 1.33 1.863 2.959 3.42 6.042 8.99 13.678 15.519 21.269 2.977 3.461 2.885 2.963.923 5.024-5.286 5.552-10.792 12.893-15.179 20.24-1.25 2.091-2.45 4.052-2.666 4.355-.365.51-.511.358-1.94-2.022zM15.856 78.061c-.901-1.398-2.523-3.56-3.604-4.802-1.082-1.243-2.085-2.421-2.23-2.619-.182-.248.295-1.018 1.547-2.492.996-1.173 2.743-3.534 3.883-5.247 1.863-2.8 2.11-3.062 2.45-2.6.208.283.973 1.424 1.7 2.537.726 1.112 2.306 3.238 3.51 4.723 1.548 1.91 2.111 2.81 1.92 3.072-.147.203-1.128 1.412-2.178 2.688-1.05 1.275-2.615 3.43-3.475 4.787-.86 1.357-1.637 2.474-1.725 2.481-.088.01-.897-1.13-1.798-2.528zM13.481 52.6c-.452-.73 2.262-11.104 4.187-16.005.982-2.497 3.21-6.856 4.62-9.033.217-.337.314-.824.214-1.084-.16-.414-.882-.471-5.95-.471-6.46 0-6.122-.121-6.122 2.19 0 1.266-.008 1.276-1.013 1.276H8.403V23.695H24.478l.796 1.314.795 1.313-1.12 1.648c-1.456 2.14-3.283 5.781-4.846 9.66-1.36 3.376-3.687 10.848-4.026 12.93-.304 1.86-.613 2.31-1.586 2.31-.463 0-.917-.122-1.01-.271z" fill="#cd0504"/><path d="M0 157.44V0h217.76v314.88H0V157.44zm213.2 155.91c1.776-1.22 2.856-2.598 3.527-4.498.4-1.133.446-16.895.446-151.25 0-136.41-.042-150.11-.461-151.33-.615-1.8-2.787-4.163-4.6-5.006l-1.454-.675H6.778l-1.504.748c-1.67.83-3.32 2.547-4.14 4.307-.522 1.122-.538 5.59-.538 151.95 0 146 .017 150.83.535 151.97 1.022 2.245 3.298 4.272 5.347 4.762.5.12 46.858.198 103.02.174l102.11-.044 1.6-1.099zm-24.006-24.654c-1.459-.755-2.144-2.412-.997-2.412.358 0 .592-.233.651-.647.124-.865 1-1.01 1.255-.207.109.342.055.766-.12.94-.895.893-.072 1.032 6.967 1.181 5.677.12 6.034.051 6.034-1.157 0-.352.15-.69.331-.75.244-.081.237-.286-.026-.777-.414-.771-.072-1.298.66-1.017.39.149.483.59.483 2.285 0 1.33-.132 2.207-.362 2.393-.21.171-3.231.352-7.23.432-5.514.111-7.022.06-7.646-.264zm.918-4.42c-.492-.543-.472-.644.534-2.675.575-1.161 1.045-2.263 1.045-2.449 0-.186.447-.81.993-1.388.847-.895.968-1.195.83-2.042-.09-.56-.038-.993.12-.993.155 0 .455-.721.667-1.603.212-.88.493-1.669.625-1.75.132-.081.24-.403.24-.715 0-.528.047-.537.675-.127.37.243.739.377.818.298.079-.079.087.238.019.704-.069.466-.358 1.058-.644 1.315-.393.356-.481.744-.365 1.607.094.7.035 1.137-.153 1.137-.168 0-.451.488-.63 1.084-.266.89-1.315 3.253-1.698 3.827-.053.079-.277-.103-.498-.404-.332-.453-.478-.485-.845-.181-.607.502-.556.743.169.797.336.025.691.125.788.222.19.19-1.72 3.898-2.007 3.899-.095 0-.402-.253-.683-.563zm3.317-5.792c0-.159-.138-.289-.307-.289-.168 0-.226.13-.127.289.098.159.236.289.306.289s.128-.13.128-.289zm-34.695-.064c-.715-1.392-1.472-2.604-1.97-3.153-.441-.486-.462-.66-.14-1.173.341-.546.32-.588-.217-.448-.688.18-.947-.283-.57-1.016.263-.509.245-.525-1.018-.908-.214-.065-.885-.877-1.491-1.805a67.59 67.59 0 0 0-2.25-3.201c-.713-.94-1.08-1.688-.97-1.974.112-.294.045-.418-.185-.341-.398.132-2.133-1.646-2.408-2.469-.096-.286 0-.73.212-.985.35-.423.323-.428-.29-.058-.618.372-.718.348-1.158-.277-.266-.377-1.102-1.365-1.858-2.195-.757-.83-1.376-1.728-1.376-1.995 0-.266-.338-.613-.752-.77-.413-.156-.82-.543-.902-.859-.083-.316-.315-.574-.516-.574-.2 0-.544-.22-.762-.488-.35-.43-.334-.463.146-.284.539.202 1.339-.221 1.339-.708 0-.14-.264-.253-.586-.253-.556 0-.562-.037-.12-.71.256-.39.383-.843.282-1.006-.101-.164.278-.759.844-1.323.565-.564 1.027-1.15 1.027-1.304 0-.154.384-.28.852-.28.468 0 .932-.13 1.03-.288.099-.16-.024-.29-.272-.29-.248 0-.451-.107-.451-.238 0-.323 1.186-1.367 1.798-1.582.272-.096.606-.602.742-1.126.172-.663.417-.951.808-.952.413-.001.569-.213.59-.802.029-.786 1.467-2.875 2.492-3.62.286-.209.52-.56.52-.783 0-.59 2.33-3.607 2.786-3.607.213 0 .467-.357.564-.794.195-.878.59-1.755 1.442-3.192.43-.727.72-.924 1.223-.833.82.15 1.054-.194.647-.952-.332-.62-.11-1.27.795-2.325.433-.505.487-.508.837-.05.205.27.378.719.383.997.005.278.14.505.299.505.159 0 .29.195.29.434 0 .238.115.433.257.433.142 0 .455.487.696 1.083.24.596.723 1.409 1.073 1.806s.833 1.21 1.073 1.805c.24.596.542 1.083.669 1.083.398 0 2.312 2.862 2.312 3.457 0 .312.26.707.579.877.318.17.58.495.58.722 0 .227.241.542.537.7.296.158.77.64 1.052 1.07.493.75.492.797-.01 1.164-.288.21-.418.48-.288.602.13.12.293.057.365-.142.07-.198.248-.36.393-.36.351 0 2.869 2.662 2.871 3.035.001.16.262.454.58.652.331.206.58.674.58 1.09 0 .4.195.804.434.895.24.091.435.347.435.569 0 .23.291.402.679.402.98 0 1.71.913 1.475 1.844-.169.67-.105.756.565.756.416 0 .755.07.755.156 0 .606-1.378 2.59-2.865 4.123-.972 1.003-1.768 1.892-1.768 1.974 0 .494-3.625 4.416-4.15 4.49-.484.07-.65.322-.723 1.1-.114 1.195-.512 1.76-1.084 1.542-.286-.11-.413.052-.414.522 0 .375-.264 1.112-.586 1.638-.444.727-.72.913-1.153.776-.508-.161-.55-.08-.383.75.17.846.13.916-.433.769-.51-.133-.573-.076-.36.323.382.71-.18 1.625-.723 1.175-.224-.185-.596-.265-.827-.176-.346.132-.36.32-.076 1.078.31.83.281.96-.308 1.351-.36.24-.652.73-.652 1.095 0 .374-.362.965-.832 1.36-.917.77-1.588 1.84-1.372 2.19.077.123.04.384-.081.58-.156.25-.32.162-.558-.303zm1.106-5.28a.435.435 0 0 0-.869 0 .435.435 0 0 0 .87 0zm-2.431-2.955c-.294-.294-.537.148-.296.538.183.295.25.295.349 0 .067-.2.043-.443-.053-.54zm-1.333-.821c0-.091-.202-.366-.448-.612-.558-.557-.927-.265-.427.337.362.434.875.596.875.275zm12.992-9.756c.177-.213.238-.472.134-.575-.217-.217-.965.333-.965.71 0 .38.465.305.83-.135zm4.092-2.518c0-.15-.196-.272-.435-.272-.448 0-.575.341-.249.667.231.23.684-.03.684-.395zm.868-.85c0-.158-.057-.288-.127-.288s-.209.13-.307.289c-.098.158-.041.288.128.288.168 0 .306-.13.306-.288zm-30.26-1.441c.198-.62-.012-1.158-.45-1.158-.15 0-.273.39-.273.866 0 .981.447 1.161.723.292zm2.607-5.491c.105-.169-.19-.29-.707-.29-.487 0-.885.13-.885.29 0 .158.318.288.706.288.39 0 .788-.13.886-.288zm25.916-2.047c0-.704-.676-.604-.817.12-.056.286.092.482.362.482.268 0 .455-.247.455-.602zm-20.559-7.342a.435.435 0 0 0-.869 0 .435.435 0 0 0 .87 0zm12.741-1.011a.29.29 0 0 0-.579 0 .29.29 0 0 0 .58 0zm1.158-1.579c0-.232-.252-.558-.561-.723-.774-.413-1.153.238-.441.757.69.504 1.002.493 1.002-.034zm-8.976-2.176a.29.29 0 0 0-.58 0 .29.29 0 0 0 .58 0zm-.29-2.89a.29.29 0 0 0-.579 0 .29.29 0 0 0 .58 0zm-103.36 45.529c-.145-.38-.374-.738-.51-.795-.422-.175-1.528-1.901-1.528-2.385 0-.254-.117-.461-.261-.461-.375 0-1.476-1.952-1.476-2.617 0-.308-.142-.561-.316-.561-.504 0-1.402-1.24-1.412-1.95-.005-.357-.178-.65-.383-.65-.376 0-2.522-2.946-2.522-3.463 0-.154-.326-.492-.724-.752-.398-.26-.724-.648-.724-.862 0-.213-.521-.87-1.158-1.457-.637-.588-1.159-1.304-1.159-1.59 0-.287-.264-.663-.587-.835-.323-.173-.52-.423-.437-.556.082-.132-.045-.402-.282-.598-.237-.197-.431-.264-.431-.15 0 .418-4.282-4.056-4.468-4.668-.106-.347-.414-.677-.685-.734-.37-.077-.277-.209.375-.528.552-.27.88-.66.902-1.066.044-.863.667-1.563 1.239-1.39.329.098.625-.217 1.012-1.078.646-1.438 2.996-3.972 3.504-3.778.326.125 1.063-1.202 1.207-2.17.094-.632.723-1.12.883-.685.073.199.232.361.352.361.32 0 .891-1.365.891-2.13 0-.362.326-.963.724-1.336.398-.373.724-.887.724-1.142 0-.254.42-.914.933-1.466.512-.552 1.216-1.588 1.563-2.303.347-.715.994-1.679 1.439-2.141a9.447 9.447 0 0 0 1.332-1.866c.288-.564.714-1.131.946-1.261.233-.13.348-.43.258-.665-.091-.237-.016-.61.167-.83.62-.746 2.335.188 2.753 1.5.1.315.438.868.752 1.228.314.361.57.898.57 1.192 0 .295.314.808.698 1.14.383.333.78 1.047.882 1.587.101.54.291.982.421.982.64 0 1.764 1.58 1.764 2.478 0 1.015.497 1.588.864.997.158-.255.353-.167.69.313.422.602.424.694.02.92-.383.214-.34.352.295.939.41.378.925.619 1.145.534.22-.084.612.148.87.516.436.62.434.696-.02 1.028-.44.32-.398.39.41.672.497.173 1.235.748 1.64 1.278.405.53.902 1.138 1.103 1.35 2.675 2.822 4.013 4.613 3.844 5.144-.151.476-.058.586.5.586.686 0 1.38.474 1.38.944 0 .138-.266.167-.59.064-.514-.162-.568-.093-.41.535.142.565.035.8-.495 1.083-.373.198-.742.332-.822.297-.08-.035-.191.17-.248.457-.164.825-.659 1.27-1.216 1.093-.283-.09-.598-.027-.7.138-.103.165.017.3.265.3s.446.099.439.217c-.022.382-2.303 2.83-2.303 2.473 0-.19.131-.426.293-.526a.337.337 0 0 0 .122-.46c-.095-.153-.443.064-.772.482-.386.489-.49.828-.293.95.305.188-1.503 2.857-2.98 4.4-.393.41-.715.853-.715.983s-.306.64-.68 1.132c-1.491 1.961-3.953 5.634-3.953 5.898 0 .439-1.534 2.073-1.946 2.073-.204 0-.37.33-.37.734 0 .403-.278 1.28-.618 1.95-.915 1.8-1.54 2.103-1.977.957zm.692-1.94c-.087-.142-.33-.257-.54-.257-.21 0-.547-.198-.748-.44-.656-.789-.654-.196.003.724.508.712.722.827 1.042.562.221-.184.331-.449.244-.59zm.455-1.863a.427.427 0 0 0-.434-.416c-.436 0-.596.61-.25.955.27.27.684-.056.684-.539zm3.475-3.16a.435.435 0 0 0-.435-.434c-.452 0-.574.342-.24.674.332.333.675.21.675-.24zm-11.872-7.078a.29.29 0 0 0-.58 0 .29.29 0 0 0 .58 0zm-6.081-9.244c0-.159-.26-.289-.58-.289-.318 0-.578.13-.578.289 0 .159.26.289.579.289.318 0 .579-.13.579-.289zm30.983-2.455a.435.435 0 0 0-.869 0 .435.435 0 0 0 .869 0zm-32.141-2.745a.29.29 0 0 0-.58 0 .29.29 0 0 0 .58 0zm3.185-.866a.29.29 0 0 0-.579 0 .29.29 0 0 0 .58 0zm-1.158-2.167c.391-.47.298-.53-.41-.258-.253.096-.459.292-.459.433 0 .4.47.305.869-.175zm5.545-4.622c0-.15-.14-.321-.311-.378-.171-.057-.311.113-.311.378s.14.435.31.378c.172-.057.312-.227.312-.378zm4.3-7.383c0-.592-.704-.771-1.021-.26-.231.373.412 1.196.764.979.142-.087.257-.411.257-.72zm4.343-3.418c0-.513-1.52-.66-1.989-.193-.408.408-.336.45.77.45.67 0 1.22-.116 1.22-.257zm142.07 39.11c-.09-.238-.365-.432-.609-.432-.689 0-.443-2.04.46-3.824.14-.276.255-.804.255-1.173 0-.37.26-.95.579-1.292.624-.668.755-1.222.29-1.222-.16 0-.29-.325-.29-.722 0-.61.135-.722.869-.722.812 0 .868.07.868 1.097 0 .604-.117 1.222-.261 1.373-.144.15-.328.859-.409 1.574-.08.715-.297 1.885-.48 2.6-.183.715-.405 1.659-.493 2.098-.191.95-.548 1.245-.779.645zm.965-4.404c-.009-.753-.03-.766-.425-.246-.419.552-.343 1.04.162 1.04.15 0 .268-.357.263-.794zm-2.33-11.555c-.226-.437-.64-1.047-.918-1.355-.279-.308-.507-.734-.507-.948 0-.213-.195-.462-.434-.554-.242-.092-.434-.521-.434-.966 0-.82-.618-1.604-.978-1.244-.11.11-.52-.142-.909-.561-.669-.72-.676-.766-.142-.853.44-.07.498-.187.262-.524-.23-.326-.34-.344-.451-.072-.175.43-.952.485-1.004.072-.02-.16-.052-.408-.072-.554a1 1 0 0 0-.254-.482c-.4-.398-.222-.946.367-1.132.32-.102.517-.291.437-.42-.08-.13.503-1.045 1.295-2.034.793-.99 1.714-2.239 2.048-2.777.343-.555.844-.979 1.154-.979.447 0 .518-.15.386-.81-.11-.545-.012-.936.297-1.191.35-.29.46-.296.46-.025 0 .197.193.28.434.189.258-.1.449.01.47.257.02.234.069.555.109.714.04.159.088.422.108.585.02.162.362.42.76.57.444.168.724.502.724.86 0 .321.126.585.279.585.43 0 1.459 1.21 1.459 1.718 0 .25.26.616.579.814.318.199.579.62.579.936 0 .38.194.576.572.576.663 0 1.602 1.262 1.301 1.748-.112.18-.514.269-.894.197-.597-.114-.69-.02-.69.7 0 .602-.195.922-.7 1.152-.386.176-.64.48-.564.676.212.552-1.288 2.173-1.823 1.968-.354-.135-.412-.04-.262.43.233.732-.376 1.795-1.027 1.795-.295 0-.54.328-.647.867-.217 1.082-.831 1.114-1.37.072zm1.47-3.972a.435.435 0 0 0-.868 0 .435.435 0 0 0 .869 0zm2.897-2.617c0-.248-.133-.369-.295-.27-.162.1-.22.303-.127.451.248.4.422.326.422-.181zm-7.323-2.043c.06-.18-.28-.383-.755-.453-.77-.112-.831-.068-.572.416.306.57 1.14.594 1.327.037zm.083-1.84c0-.159-.195-.289-.434-.289s-.434.13-.434.289c0 .159.195.289.434.289s.434-.13.434-.289zm4.019-3.15c.518-.327.162-.894-.56-.894-.545 0-.764.57-.37.963.253.252.446.237.93-.068zm-57.244 11.798a.905.905 0 0 1 .507-.505c.217-.072.325.036.253.253a.905.905 0 0 1-.507.505c-.217.072-.325-.036-.253-.253zm18.937-67.547c-.464-.732-1.286-2.177-1.827-3.21-.54-1.032-1.188-2.034-1.438-2.225a.913.913 0 0 1-.305-.917c.102-.39.03-.524-.23-.424-.21.08-.608-.221-.887-.672-.28-.45-.868-1.402-1.309-2.117-.898-1.458-1.403-2.108-3.255-4.188-.707-.795-1.33-1.769-1.387-2.164-.062-.441-.41-.867-.897-1.1-.438-.208-.797-.558-.797-.777 0-.219-.228-.474-.506-.566-.28-.093-.963-.832-1.52-1.643-.997-1.45-2.228-2.747-3.874-4.085-.982-.797-.862-1.777.279-2.295.384-.175.699-.43.699-.568 0-.137.326-.373.724-.524.398-.151.724-.464.724-.696 0-.232.79-1.415 1.757-2.628 2.525-3.17 2.933-3.607 3.209-3.438.135.083.39.063.566-.046.229-.14.219-.26-.034-.416-.41-.252 1.54-3.327 3.02-4.764.49-.476.862-.958.824-1.07-.037-.112.327-.435.808-.72.62-.365.852-.7.793-1.15-.074-.562 1.034-2.147 2.637-3.772.223-.226.419-.694.435-1.039.017-.345.455-1.356.975-2.247.778-1.336 1.058-1.598 1.591-1.493.633.124 1.66 1.693 1.66 2.533 0 .224.189.512.419.64.55.308 2.708 3.65 2.933 4.543.097.385.36.77.584.856.225.086.408.341.408.568 0 .226.163.474.362.55.2.076.882.903 1.517 1.836.634.934 1.286 1.791 1.447 1.905.162.114.294.57.294 1.011 0 .62.153.826.669.899.368.052.745.312.838.577.16.457.584.976 1.997 2.449 1.133 1.18 3.59 4.218 3.598 4.45.004.125.59.737 1.303 1.359.712.621 1.295 1.337 1.295 1.589 0 .59-3.278 3.78-3.884 3.78-.266 0-.46.243-.46.578 0 .318-.227.817-.506 1.109-.279.292-.652.78-.829 1.083-.177.304-.557.553-.845.554-.287 0-.577.163-.643.36-.066.199.032.36.22.36.288 0-.5 1.18-1.447 2.167-.523.546-1.018 1.054-1.668 1.715-.359.364-.652.855-.652 1.09 0 .236-.26.729-.579 1.095-.318.366-.579.77-.579.898 0 .127-.326.556-.724.953-.398.398-.724.874-.724 1.058 0 .194-.245.272-.579.185-.504-.132-.579-.01-.579.942 0 .643-.188 1.249-.457 1.471-.251.208-.79 1.037-1.199 1.841-.761 1.5-1.646 2.474-2.247 2.474-.211 0-.293.32-.216.847.07.466-.051 1.098-.267 1.404-.37.525-.44.48-1.235-.775zm1.165-3.57c-.174-.279-.415-.506-.536-.506-.338 0-.26.809.139 1.447.33.528.372.533.536.068.097-.277.035-.732-.139-1.01zm-4.23-5.128c0-.159-.058-.289-.128-.289s-.209.13-.307.289c-.098.159-.041.289.128.289.168 0 .306-.13.306-.29zm-2.493-3.253c.438-.693-.044-.993-.542-.337-.232.306-.426.665-.431.797-.015.376.64.066.973-.46zm15.114-4.472c-.2-.2-.75.206-.75.555 0 .192.166.17.441-.058.243-.2.382-.424.31-.497zm-21.878-3.385c-.204-.245-.55-.445-.77-.445-.568 0-.493.784.108 1.123.68.383 1.147-.095.662-.678zm-2.67-4.471c.072-.217-.037-.325-.254-.253a.906.906 0 0 0-.506.505c-.073.217.036.325.253.253a.906.906 0 0 0 .507-.505zm4.331-3.828c-.179-.536-.802-.624-.802-.114a.46.46 0 0 0 .458.457c.252 0 .407-.154.344-.343zm26.35-1.444a.819.819 0 0 0-.459-.458c-.211-.07-.276.062-.168.343.202.525.8.635.627.115zm-6.593-5.163c0-.15-.13-.272-.29-.272-.16 0-.29.203-.29.45 0 .248.13.37.29.272.16-.098.29-.3.29-.45zm-11.003-7.518c0-.704-.677-.604-.818.12-.055.285.092.482.362.482.269 0 .456-.247.456-.602zm6.225-1.131c.099-.16.041-.29-.128-.29-.168 0-.306.13-.306.29 0 .159.057.289.127.289s.209-.13.307-.29zm-5.067-.578a.29.29 0 0 0-.58 0 .29.29 0 0 0 .58 0zm2-5.446c-.429-.147-.646.15-.4.547.155.251.273.237.454-.053.143-.23.12-.434-.055-.494zm-106.24 50.222a.29.29 0 0 1 .579 0 .29.29 0 0 1-.58 0zm-.436-.87c-.1-.16.097-.68.437-1.155.719-1.007.638-1.09-.284-.293l-.66.571-.832-1.044c-.478-.6-.832-1.395-.832-1.871 0-.455-.12-.827-.27-.827-.147 0-.31-.293-.361-.65-.05-.358-.255-.666-.454-.686-.2-.02-.48-.052-.624-.072-.39-.054-.899-1.716-.69-2.258.126-.33.072-.406-.179-.25-.66.406-1.765-.973-1.765-2.2 0-.79-.124-1.106-.434-1.106-.24 0-.439.163-.444.361-.005.199-.272.047-.592-.336-.408-.489-.482-.759-.25-.903.54-.332-.55-1.775-1.19-1.573-.519.165-1.433-.779-1.433-1.479 0-.184-.491-.838-1.09-1.452-2.95-3.023-5.978-6.503-6.058-6.96-.314-1.8.765-3.671 2.847-4.936 1.127-.686 1.984-1.77 1.984-2.509 0-.249.195-.527.434-.619.24-.09.435-.287.435-.435 0-.816 4.077-5.988 4.736-6.008.364-.01.482-.161.365-.465-.195-.506.223-1.227 2.204-3.804.76-.988 1.382-1.94 1.382-2.114 0-.175.402-.9.893-1.613.732-1.061.968-1.232 1.31-.95.518.43.926.092.456-.377-.477-.476-.428-1.24.108-1.684.248-.206.636-.816.863-1.357.474-1.132 1.003-1.01 1.003.232 0 .553.147.85.424.85.504 0 1.023.875 1.023 1.723 0 .333.196.68.435.772.239.09.434.324.434.517s.387.862.86 1.486c.474.624.865 1.284.87 1.466.007.314.335.73 2.54 3.226.518.586.942 1.263.942 1.505s.92 1.542 2.043 2.889c1.744 2.09 2.019 2.569 1.883 3.273-.135.698-.081.795.346.629.947-.368 1.085-.299 1.028.517-.049.684.108.885.972 1.245.665.277 1.144.73 1.352 1.279.19.502.532.85.837.85.283 0 .532.13.552.288.02.16.052.405.072.547.02.142.616.771 1.325 1.399l1.29 1.141-1.724 1.925c-.948 1.059-1.885 1.864-2.083 1.789-.198-.075-.558.245-.8.711-.241.467-.706.991-1.033 1.166-.326.174-.539.47-.472.658.185.524-.927 1.93-1.527 1.93-.372 0-.49.159-.394.527.183.697-3.153 4.962-3.88 4.962-.205 0-.368.35-.371.794-.005.736-.6 1.662-2.24 3.479-.357.397-.65.887-.65 1.089 0 .202-.387.73-.86 1.175-.616.581-.813.987-.699 1.441.096.381-.003.73-.25.877-.414.248-1.2 1.557-1.49 2.483-.172.55-1.466.707-1.77.215zm-.549-3.22c-.318-.454-.463-.523-.463-.221 0 .463.6 1.209.806 1.002.067-.067-.087-.418-.343-.781zm3.735-3.71c.099-.16.041-.289-.127-.289-.17 0-.307.13-.307.289 0 .159.057.289.128.289.07 0 .208-.13.306-.29zm-5.501-.867c.098-.159.04-.289-.128-.289-.169 0-.307.13-.307.29 0 .158.058.288.128.288s.208-.13.307-.289zm7.043-.674c.063-.324-.102-.481-.507-.481-.33 0-.6.173-.6.385 0 .885.938.966 1.107.096zm-16.164-11.493c0-.159-.13-.208-.29-.11-.16.098-.29.309-.29.467 0 .16.13.209.29.11.16-.097.29-.308.29-.467zm24.27-.494c.052-.345-.042-.627-.206-.627-.384 0-.939 1.02-.69 1.268.336.335.802 0 .897-.64zm-26.586-1.494a.29.29 0 0 0-.58 0 .29.29 0 0 0 .58 0zm27.798-.144c.295-.355.275-.433-.11-.433-.258 0-.47.195-.47.433s.05.433.11.433.271-.195.47-.433zm1.013-5.633c.099-.16.041-.29-.128-.29-.168 0-.306.13-.306.29 0 .159.057.289.128.289.07 0 .208-.13.306-.29zm-2.461-1.445a.29.29 0 0 0-.58 0 .29.29 0 0 0 .58 0zm-23.744-.994c0-.229-.117-.488-.26-.576-.297-.183-.657.56-.396.82.31.31.656.182.656-.244zm3.345-2.497c.249-.401-.302-.967-.701-.72-.333.204-.12 1.034.265 1.034.133 0 .33-.142.436-.314zm-1.708-1.865c.27-.701-.046-.77-.622-.134-.48.529-.483.58-.037.58.268 0 .565-.201.66-.446zm13.84-7.379a.322.322 0 1 0-.105.443.322.322 0 0 0 .104-.443zm-.999-1.275c0-.238-.123-.433-.272-.433-.366 0-.627.45-.396.682.326.325.668.198.668-.25zm50.573-3.167c-.095-.248-.102-.871-.015-1.386.141-.842.116-.885-.254-.435-.562.685-.832.314-.614-.844.165-.882.124-.955-.504-.887-.494.054-.673-.063-.645-.422.021-.273-.202-.573-.497-.666-.328-.104-.61-.563-.726-1.185-.124-.66-.407-1.098-.807-1.25-.565-.214-2.191-2.613-1.771-2.613.101 0-.249-.43-.778-.956-1.055-1.049-1.76-1.944-2.491-3.16-.263-.437-.58-.795-.705-.795-.354 0-.267-1 .12-1.387.242-.24.25-.346.025-.346-.178 0-.38.162-.45.36-.157.448-1.224-.424-1.944-1.588-.27-.436-1-1.34-1.623-2.007s-1.203-1.48-1.29-1.805c-.085-.327-.444-.635-.796-.686-.351-.05-.64-.27-.64-.486 0-.216-.248-.472-.552-.569a1.843 1.843 0 0 1-1.297-1.67c-.02-.399-.251-.68-.611-.745-1.205-.217-1.084-.627.72-2.42 1.004-1 1.734-1.654 1.621-1.456-.244.433.577.503.844.072.098-.159.04-.289-.128-.289-.624 0-.243-.763 1.132-2.27.777-.85 1.553-1.46 1.725-1.354.171.105.311-.01.311-.258s.21-.45.465-.45c.302 0 .405-.159.293-.45-.103-.267.12-.741.548-1.169.397-.395.721-.884.721-1.085 0-.427 1.062-1.63 1.439-1.63.142 0 .3-.291.35-.647.053-.365.44-.813.89-1.027.437-.209.796-.568.796-.797 0-.253.285-.418.724-.418.611 0 .724-.135.724-.866 0-.477.145-.867.323-.867.187 0 .256-.258.163-.611-.172-.656.14-1.356 1.19-2.673a9.176 9.176 0 0 0 1.07-1.806c.287-.684.598-.976 1.037-.976.513 0 .602-.132.49-.722-.077-.397.034-.95.246-1.228.364-.478.385-.476.394.035.008.448.084.479.443.181.24-.197.435-.538.435-.757 0-.22.195-.398.434-.398.503 0 .576.61.125 1.06-.219.218-.176.358.145.481.252.096.454.024.454-.161 0-.54.85.736.86 1.292.005.278.13.505.279.505.148 0 .358.293.467.65.108.358.5.975.873 1.373.74.79 1.622 2.678 1.504 3.219-.04.187.212.417.561.51.357.095 1.3 1.122 2.147 2.337.832 1.192 1.784 2.508 2.116 2.925.332.417.864 1.12 1.183 1.564.318.443.718.947.889 1.12.17.172.888 1.093 1.596 2.046 1.166 1.572 1.681 2.173 3.482 4.065.317.332.493.797.398 1.046-.175.454.567.945 1.012.67.127-.077.407.07.622.328.336.405.3.53-.257.899-.356.236-.648.657-.648.935 0 .686-1.906 2.741-2.16 2.33-.29-.468-.735-.076-.736.65 0 .347-.394 1.087-.874 1.643a27.53 27.53 0 0 0-1.52 1.948c-.355.516-.874.938-1.152.94-.28 0-.517.098-.53.218-.09.895-.293 1.364-.683 1.581-.249.14-.452.375-.452.525 0 .15-.475.89-1.054 1.647-1.115 1.454-1.649 1.592-2.468.636-.514-.6-1.111-.747-1.111-.273 0 .16.228.54.506.846 1.41 1.55 1.4 1.487.408 2.3-.506.415-.918.99-.917 1.279.003.688-.545 1.695-.828 1.52-.122-.074-.385.312-.583.86-.199.547-.469.995-.6.995-.132 0-.438.495-.681 1.1-.243.604-.648 1.27-.9 1.48-.253.208-.46.565-.46.793 0 .227-.309.867-.687 1.422-.528.776-.728.906-.86.56zm-1.715-7.84c-.096-.096-.346-.107-.555-.023-.231.092-.162.16.175.174.305.013.476-.056.38-.152zm18.463-16.344c.4-.347.726-.816.726-1.042 0-.242-.359-.03-.869.516-.477.51-.868.979-.868 1.041 0 .248.317.086 1.01-.515zm-32.43-3.126c.1-.159.042-.289-.127-.289-.168 0-.306.13-.306.289 0 .159.057.289.127.289s.208-.13.307-.29zm5.647-7.927c0-.07-.13-.208-.29-.306-.159-.098-.289-.041-.289.127 0 .169.13.306.29.306.159 0 .29-.057.29-.127zm3.842-1.895c.273-.318.358-.578.19-.578-.492 0-1.426.574-1.426.877 0 .479.718.305 1.236-.299zm12.19-.722c-.092-.238-.284-.433-.426-.433-.142 0-.259.195-.259.433a.43.43 0 0 0 .426.433c.259 0 .36-.17.258-.433zm2.5-.712c0-.153-.27-.423-.6-.6-.55-.293-.574-.27-.28.279.33.617.88.817.88.32zm-13.32-1.472c0-.15-.195-.271-.434-.271-.448 0-.575.34-.249.666.231.23.684-.03.684-.395zm11.876-.124c-.197-.236-.476-.357-.62-.269-.37.228-.016.7.525.7.368 0 .385-.08.095-.43zm-13.621-2.442c.165-.31.444-.65.619-.758.175-.108.094.145-.18.562-.58.882-.88 1.016-.44.196zm58.69-4.545c-.104-.104-.19-.385-.19-.624 0-.238-.663-1.34-1.474-2.448l-1.474-2.016.356-1.266c.406-1.447.132-1.995-.515-1.034-.463.686-.947.86-.947.342 0-.17-.586-1.026-1.302-1.903-.992-1.214-1.262-1.755-1.133-2.268.138-.547.042-.692-.507-.77-.373-.052-.695-.29-.716-.528a85.329 85.329 0 0 0-.073-.763c-.018-.182-.359-.412-.757-.511-.522-.13-.724-.376-.724-.877 0-.383-.179-.738-.397-.789-.615-.145-4.815-5.184-4.815-5.777 0-.316-.21-.527-.525-.527-.594 0-1.907-1.603-1.65-2.016.091-.148.38-.189.639-.089.316.121.403.07.263-.157-.115-.186-.377-.338-.582-.338-.204 0-.615-.268-.913-.596-.476-.525-.561-.54-.707-.127-.141.403-.281.364-.97-.273l-.804-.744.893-1.08c.738-.893 1.078-1.08 1.966-1.08.791 0 1.1-.133 1.174-.505.07-.354-.084-.506-.511-.506-.508 0-.286-.377 1.32-2.239 1.061-1.23 2.076-2.371 2.254-2.534.179-.162.467-.55.641-.86.175-.31.626-.637 1.004-.726.47-.111.743-.432.864-1.018.255-1.234.903-2.152 1.652-2.342.358-.091.652-.272.652-.402s.226-.463.502-.738c.276-.276.464-.792.417-1.146-.05-.39.208-.937.656-1.384.408-.407.746-.908.752-1.114.006-.205.333-.764.727-1.24.6-.725.764-.796.999-.434.207.319.282.115.286-.768.004-.962.235-1.494 1.162-2.664.637-.804 1.163-1.628 1.168-1.831.02-.818.78-1.412 1.557-1.217.877.22 1.908 1.4 1.908 2.186 0 .296.115.539.255.539.274 0 .75 1.1 1.03 2.383.096.437.345.794.554.794.361 0 2.215 2.314 2.215 2.765 0 .118.326.64.724 1.16.398.522.724 1.147.724 1.39 0 .244.26.582.58.752.318.17.578.5.578.732 0 .233.191.423.424.423.55 0 1.14 1.05.73 1.303-.416.256-.042.75.495.655.245-.044.594.165.774.464.18.3.589.826.907 1.17 1.643 1.775 2.597 3.161 2.516 3.656-.055.335.077.552.337.552.581 0 2.794 2.549 2.794 3.218 0 .296.186.537.413.537.525 0 1.324.786 1.324 1.301 0 .217-.262.477-.582.578-.32.101-.783.57-1.028 1.043-.245.472-.755 1-1.135 1.173-.38.172-.846.687-1.035 1.143-.19.456-.528.829-.752.829-.225 0-.496.227-.603.505-.226.592-1.943 2.893-2.671 3.582-.277.261-.751.523-1.054.581-.365.07-.55.348-.55.824 0 .395-.131.864-.29 1.041-.96 1.07-1.53 1.888-2.172 3.119-.398.763-.887 1.453-1.086 1.532-.199.079-.362.26-.362.402 0 .142-.228.508-.507.815-1.01 1.11-1.23 1.448-1.23 1.886a.441.441 0 0 1-.434.445c-.245 0-.435.259-.435.593 0 .803-.746 2.188-1.292 2.397-.245.094-.445.438-.445.766s-.196.67-.435.762c-.238.091-.434.461-.434.822 0 .693-.645 1.432-.968 1.11zm-7.14-36.492c0-.609-.42-.777-.723-.289-.212.341.062.867.451.867.15 0 .273-.26.273-.578zm1.23-1.516c.187-.508-.068-1.12-.386-.924-.34.21-.346 1.285-.006 1.285.143 0 .319-.163.392-.361zm10.643-2.69c0-.247-.133-.368-.294-.268-.162.1-.22.302-.128.45.248.4.422.326.422-.181zm.29-3.016a.29.29 0 0 0-.58 0 .29.29 0 0 0 .58 0zm-4.127-6.523c-.276-.276-.829.17-.623.502.122.197.284.192.492-.015.17-.17.23-.39.131-.487zM52.823 90.307c-.086-.224.058-.821.32-1.327.575-1.11.39-1.384-.58-.866-.397.212-.765.332-.817.265-.85-1.09-1.326-2.067-1.404-2.878-.073-.768-.24-1.019-.724-1.087-.483-.07-.674-.354-.822-1.228-.145-.861-.327-1.138-.746-1.138-.333 0-.555-.202-.557-.506-.002-.278-.524-1.064-1.159-1.746-.635-.682-1.157-1.332-1.16-1.444-.005-.112-.262-.53-.573-.926-.667-.85-.761-1.377-.158-.878.232.192.558.266.724.163.535-.33.323-.73-.388-.73-.456 0-.743-.204-.848-.603-.116-.443-.309-.556-.72-.426-.412.13-.788-.089-1.397-.817-1.328-1.587-1.97-2.567-2.28-3.485-.188-.554-.546-.915-1.014-1.022-.444-.102-1.096-.721-1.685-1.6-.529-.79-1.198-1.546-1.487-1.681-.302-.141-.597-.684-.693-1.273-.149-.913-.04-1.153.98-2.171.631-.63 1.147-1.255 1.147-1.39 0-.422 1.779-2.287 2.182-2.287.211 0 .426-.292.478-.65.072-.5.258-.631.804-.57.39.044.806.235.924.425s.31.25.426.134c.116-.116.002-.372-.254-.57-.77-.592-.691-1.155.368-2.616 1.478-2.041 3.557-4.405 3.743-4.258.089.07.227-.253.308-.72.116-.667.33-.879 1.01-.996.543-.094.902-.352.968-.695.078-.401-.017-.498-.358-.368-.255.098-.464.068-.464-.067 0-.383.768-.922 1.183-.83.207.044.423-.178.482-.496s.16-.742.226-.942c.066-.2.12-.43.121-.51.001-.276 1.52-2.883 2.014-3.459.273-.318.655-.948.848-1.4.22-.516.503-.765.758-.668.224.086.562-.032.753-.26.19-.229.479-.416.64-.416.448 0 1.063.934 1.074 1.63.005.34.193.69.419.776.383.147.795.77 1.658 2.505.197.397.61 1.007.919 1.357.518.587.524.67.087 1.106-.26.26-.4.592-.309.738.259.417.71.31.71-.168 0-.238.083-.433.185-.433.395 0 .955 1.048.964 1.805.005.437.14.81.298.83.16.02.451.053.648.073.197.02.405.296.461.613.057.318.56 1.052 1.12 1.631.794.824.97 1.195.808 1.705-.164.515-.114.616.239.48.57-.218 1.133.446.897 1.059-.118.308-.028.47.263.47.75 0 2.284 1.476 2.132 2.053-.163.622.408 1.492.894 1.361.378-.1 3.254 2.875 3.847 3.98.312.583.295.77-.113 1.22-.504.555-.642 1.207-.256 1.207.123 0 .448-.26.72-.577.273-.318.614-.578.758-.578.545 0 .554.846.016 1.465-.309.355-.561.743-.561.862s-.391.352-.87.518c-.477.167-.868.493-.868.725 0 .233-.39.751-.869 1.152-.477.401-.868.852-.868 1.001 0 .15-.215.45-.479.669-.263.218-.984 1.078-1.601 1.913-.618.834-1.303 1.517-1.522 1.517-.254 0-.344.207-.247.574.095.364-.02.64-.317.753-.257.098-.472.328-.479.51-.017.465-1.48 2.075-2.088 2.294-.296.108-.506.48-.506.899 0 .393-.246.886-.547 1.097-.301.21-.743.85-.983 1.423-.24.572-1.374 2.454-2.52 4.182-1.145 1.728-2.26 3.565-2.476 4.082-.416.994-1.458 1.31-1.757.533zm5.797-8.734c.153-.396.11-.414-.259-.109-.502.416-.554.584-.182.584.142 0 .34-.214.441-.475zm-9.097-2.583c0-.251-.154-.406-.344-.343-.536.179-.626.8-.114.8a.46.46 0 0 0 .458-.457zm-12.35-14.122c.183-.476-.243-.856-.667-.594-.308.189-.082 1.018.277 1.018.125 0 .3-.19.39-.424zm24.735-9.74c-.179-.536-.802-.625-.802-.115a.46.46 0 0 0 .458.458c.253 0 .407-.155.344-.343zm-17.203-1.246c-.176-.458-.684-.601-.684-.193 0 .306.317.626.619.626.127 0 .157-.195.065-.433zm5.542-4.189c.098-.159-.024-.289-.273-.289-.248 0-.45.13-.45.29 0 .158.122.288.272.288.15 0 .353-.13.451-.289zm7.963.048c0-.376-.344-.626-.624-.453-.3.184-.042.694.351.694.15 0 .273-.108.273-.24zm-7.306-2.124c-.179-.536-.802-.625-.802-.115a.46.46 0 0 0 .459.458c.252 0 .407-.155.343-.343zM17.31 79.046c-.278-.212-.506-.501-.506-.644 0-.143-.26-.422-.58-.621-.318-.198-.579-.617-.579-.93 0-.312-.32-.778-.712-1.034-.392-.256-.802-.747-.91-1.09-.109-.343-.446-.798-.75-1.011-.424-.298-.476-.478-.222-.782.399-.48.08-1.094-.46-.887-.215.082-.461-.073-.548-.344-.086-.272-.45-.623-.809-.78-.825-.362-1.114-1.434-.32-1.188.809.252 1.368-.232 1.165-1.008a1.275 1.275 0 0 1 .29-1.183c.442-.487.485-.487.838-.01.308.415.439.437.754.122.316-.315.285-.452-.178-.793-.547-.402-.544-.429.145-1.207.387-.437.79-.835.894-.884.105-.049.557-.811 1.005-1.695.83-1.635 1.7-2.286 2.352-1.76.2.16.362.533.362.83 0 .296.654 1.26 1.453 2.14 1.277 1.406 1.414 1.675 1.125 2.213-.282.525-.26.586.158.427.343-.132.863.217 1.763 1.183 1.235 1.326 1.695 2.67.914 2.67-.208 0-.623.553-.921 1.228-.601 1.36-.918 1.746-1.669 2.03-.278.105-.506.44-.506.742 0 .304-.198.716-.44.916-.242.2-.633.769-.87 1.263a9.859 9.859 0 0 1-1.08 1.685c-.566.683-.717.736-1.157.401zm.362-1.94c0-.143-.195-.259-.434-.259a.43.43 0 0 0-.434.425c0 .258.17.359.434.258.239-.091.434-.283.434-.425zm0-13.963c0-.305-.555-.433-.72-.166-.1.162.02.294.269.294.248 0 .451-.057.451-.128zm-3.9-11.789c.112-.675.319-1.446.46-1.714.14-.267.255-.942.255-1.5 0-.557.13-1.093.29-1.191.16-.098.29-.618.29-1.155 0-.538.104-1.042.232-1.12.127-.08.411-.802.631-1.606.22-.805.506-1.463.637-1.463.13 0 .237-.571.237-1.27 0-.86.14-1.322.434-1.435.239-.09.434-.425.434-.741 0-.317.268-.824.594-1.128.44-.409.545-.75.402-1.314-.152-.607-.102-.729.246-.595.24.092.539 0 .663-.197.128-.207.078-.412-.116-.477-.492-.164-.42-.932.088-.932.236 0 .504-.357.596-.794.093-.437.29-.99.439-1.228.148-.238.54-.973.87-1.633.75-1.502 1.495-2.19 2.113-1.954.537.206.6.638.186 1.276-.204.315-.282.33-.285.055-.009-.736-.508-.055-.664.907-.088.537-.498 1.341-.912 1.788-.491.528-.694.999-.582 1.351.098.307-.089.982-.43 1.559-.33.56-.602 1.27-.602 1.578 0 .309-.13.562-.29.562-.158 0-.29.292-.29.65-.001.418-.31.825-.87 1.142-.813.462-.866.6-.866 2.252 0 1.452-.117 1.876-.668 2.426-.367.366-.856.731-1.086.811-.343.12-.32.256.135.766.475.534.508.771.238 1.703-.173.595-.478 2.08-.678 3.301-.3 1.832-.468 2.247-.962 2.38-1.272.34-1.385.238-1.17-1.06zM9.057 29.04c-.212-.24-.362-1.202-.362-2.32 0-2.432.324-2.797 2.384-2.678 1.33.076 1.537.17 1.618.737.078.548-.042.65-.761.65-1.132 0-1.608.64-1.789 2.4-.156 1.527-.486 1.894-1.09 1.211zm.652-3.322c.098-.16.04-.29-.128-.29-.169 0-.307.13-.307.29 0 .159.058.289.128.289s.208-.13.307-.29zm14.147 1.486c-.342-.285-.67-.768-.73-1.074-.075-.377-.35-.557-.854-.557-.41 0-.966-.183-1.237-.406-.373-.308-.574-.326-.828-.072-.214.214-1.515.334-3.607.334-3.08 0-3.272-.034-3.272-.578 0-.547.193-.577 3.706-.577 2.186 0 3.83-.124 4.009-.301.209-.21.415-.165.672.144.478.575.849.562 1.53-.053.526-.475.577-.465 1.095.217 1.042 1.369 1.2 1.846.883 2.675-.348.914-.528.947-1.367.247z" fill="#d40000"/><path d="M0 157.44V0h217.76v314.88H0V157.44zm213.2 155.91c1.776-1.22 2.856-2.598 3.527-4.498.4-1.133.446-16.895.446-151.25 0-136.41-.042-150.11-.461-151.33-.615-1.8-2.787-4.163-4.6-5.006l-1.454-.675H6.778l-1.504.748c-1.67.83-3.32 2.547-4.14 4.307-.522 1.122-.538 5.59-.538 151.95 0 146 .017 150.83.535 151.97 1.022 2.245 3.298 4.272 5.347 4.762.5.12 46.858.198 103.02.174l102.11-.044 1.6-1.099z" fill="#030303"/></svg>