<svg xmlns="http://www.w3.org/2000/svg" height="335.872" width="232.277" viewBox="0 0 217.76 314.88"><path d="M0 157.44V0h217.76v314.88H0V157.44z" fill="#fdfdfd"/><path d="M0 157.44V0h217.76v314.88H0V157.44zm210.69 156.14c1.755-.52 3.61-2.05 4.675-3.858l.794-1.348.073-150.21c.066-134.5.027-150.35-.371-151.55-.618-1.855-2.167-3.547-4.126-4.506l-1.657-.813H7.378l-1.303.611c-1.664.78-3.384 2.496-4.166 4.156l-.612 1.3-.074 147.11-.073 147.11h.59c.323 0 .669.208.767.462.202.527-.386 1.002-.966.78-.299-.114-.389.257-.389 1.601 0 4.014 1.303 6.719 4.014 8.333.855.508 1.897.977 2.317 1.042.42.064 45.988.136 101.26.16 87.894.038 100.68-.01 101.94-.383zM7 305.728c.122-.632.963-.722.963-.103 0 .237-.24.476-.533.532-.387.074-.505-.043-.43-.43zm-2.935-2.252c-.475-.572-.156-1.383.495-1.258.316.06.508.36.508.791 0 .837-.5 1.07-1.003.467zm187.17-10.487c-2.632-.942-4.784-2.893-5.81-5.27-.518-1.2-.59-4.422-.124-5.603.18-.46.73-1.34 1.22-1.958l.891-1.123-1.303-1.39c-2.1-2.24-2.379-2.957-2.377-6.103 0-2.44.09-2.914.806-4.271 2.718-5.156 9.088-7.1 14.653-4.474 2.08.981 4.214 3.124 5.155 5.176.658 1.434.727 1.882.592 3.847-.185 2.688-.912 4.28-2.743 5.997l-1.3 1.22.801.947c2.557 3.021 2.428 7.363-.312 10.557-2.146 2.5-6.839 3.632-10.148 2.448zm5.679-4.476c1.41-.71 2.597-2.22 2.597-3.302 0-2.222-2.096-4.143-4.762-4.364-1.993-.165-3.291.28-4.525 1.549-.844.869-.992 1.225-.992 2.378 0 3.489 4.16 5.514 7.682 3.74zm-.196-12.169c2.425-1.01 4.208-3.694 3.863-5.814-.238-1.462-1.098-2.508-2.858-3.479-1.292-.712-1.87-.85-3.569-.852-2.546 0-4.377.947-5.494 2.848-2.146 3.654.69 7.67 5.431 7.688.921 0 2.103-.172 2.627-.39zm-147.07 2.78c-5.381-9.029-11.78-17.462-17.47-23.03-1.133-1.107-2.06-2.255-2.06-2.55 0-.295 1.272-1.923 2.827-3.618 5.753-6.274 10.087-12.157 16.262-22.076 1.43-2.299 2.282-3.395 2.635-3.395.369 0 1.006.913 2.168 3.106 1.96 3.7 4.534 7.675 7.901 12.205 2.553 3.433 8.877 11.114 9.741 11.829.27.223.676.763.902 1.2.408.786.378.833-2.82 4.432-6.007 6.758-11.14 13.841-15.448 21.32-1.312 2.278-2.12 3.394-2.457 3.394-.327 0-1.087-.98-2.18-2.816zm106.63 1.752a465.257 465.257 0 0 1-2.745-4.43c-4.38-7.136-9.44-13.751-14.946-19.54-1.686-1.772-3.066-3.381-3.066-3.575 0-.193 1.205-1.606 2.678-3.14 4.824-5.019 9.334-11.012 15.13-20.103 2.591-4.064 3.647-5.489 4.066-5.489.393 0 .82.487 1.395 1.589 3.777 7.236 8.682 14.162 16.304 23.024 1.805 2.098 3.281 4.004 3.281 4.237 0 .232-.997 1.506-2.217 2.83a125.066 125.066 0 0 0-16.206 22.048c-1.104 1.908-2.222 3.505-2.488 3.557-.303.058-.747-.32-1.187-1.009zm37.062-22.695c-1.184-1.788-3.146-4.382-4.36-5.766-1.213-1.383-2.207-2.755-2.207-3.048 0-.294.47-.981 1.045-1.529 1.368-1.304 3.96-4.7 5.998-7.856.897-1.39 1.818-2.528 2.047-2.528.229 0 .884.834 1.455 1.853 1.164 2.077 3.66 5.504 5.909 8.113.822.954 1.495 1.899 1.496 2.1 0 .202-.924 1.437-2.058 2.744-1.867 2.155-4.539 5.955-5.816 8.272-.271.492-.687.895-.924.895s-1.4-1.463-2.585-3.25zm-89.594-24.068c-5.665-9.606-11.469-17.44-17.668-23.846-1.632-1.687-2.968-3.22-2.968-3.405 0-.186 1.226-1.629 2.723-3.207 5.086-5.361 9.75-11.588 15.516-20.715 1.722-2.727 3.28-4.888 3.56-4.942.31-.06.67.214.948.72 4.94 8.998 9.903 16.024 17.316 24.504 1.528 1.747 2.781 3.392 2.785 3.654 0 .263-1.053 1.628-2.35 3.034-5.49 5.949-10.573 12.83-15.33 20.753-1.527 2.543-2.991 4.665-3.253 4.716-.31.06-.754-.38-1.277-1.267zm-52.538-45.696c-.236-.278-1.436-2.158-2.666-4.178-2.694-4.424-6.447-9.807-9.381-13.456-2.693-3.35-8.04-9.192-8.613-9.411-.975-.374-.37-1.522 2.379-4.515 5.404-5.885 9.459-11.313 15.052-20.15 2.405-3.8 3.489-5.271 3.883-5.271.38 0 .824.55 1.46 1.805 3.236 6.407 8.644 14.063 15.816 22.392 2.323 2.698 3.548 4.351 3.548 4.788 0 .368-.34.983-.757 1.368-1.209 1.117-5.612 6.226-8.027 9.312-2.914 3.724-7.5 10.592-9.754 14.61-.992 1.766-1.962 3.211-2.156 3.211-.195 0-.547-.227-.783-.505zm105.54.157c-.159-.206-.984-1.544-1.833-2.974-4.672-7.864-10.687-15.882-16.234-21.639-1.74-1.804-3.162-3.464-3.162-3.688 0-.224.598-.987 1.33-1.695 5.016-4.857 12.452-14.812 18.505-24.776 1.902-3.13 2.126-3.095 4.147.667 3.307 6.159 10.172 15.591 16.817 23.11 1.123 1.271 2.044 2.506 2.045 2.745 0 .238-1.124 1.668-2.501 3.177-5.776 6.328-11.148 13.658-15.67 21.377-2.222 3.796-2.847 4.466-3.444 3.696zm-52.42-47.388c-.154-.199-.976-1.531-1.827-2.961-5-8.404-10.605-15.826-16.708-22.126-1.476-1.525-2.684-2.926-2.684-3.114 0-.188 1.353-1.767 3.006-3.508 1.654-1.742 4.203-4.696 5.666-6.564 2.477-3.165 8.203-11.55 11.384-16.671.979-1.576 1.525-2.194 1.877-2.126.288.055 1.155 1.313 2.056 2.981 3.689 6.831 8.69 13.732 16.459 22.711 1.324 1.53 2.407 2.993 2.407 3.251s-1.06 1.606-2.356 2.996c-5.161 5.535-11.305 13.815-15.162 20.437-2.543 4.364-3.014 5.055-3.444 5.055-.217 0-.52-.162-.673-.36zm-54.263-49.11c-4.955-8.53-12.33-18.3-18.04-23.895-1.049-1.028-1.907-2.118-1.907-2.422 0-.304.88-1.478 1.955-2.609 5.738-6.036 11.092-13.25 17.45-23.515 1.186-1.914 1.995-2.942 2.275-2.888.239.046.878.863 1.421 1.816 5.107 8.969 9.578 15.217 16.95 23.688 1.383 1.589 2.514 3.134 2.515 3.434 0 .3-.88 1.518-1.954 2.707-6.486 7.176-11.3 13.724-16.138 21.952-1.586 2.697-2.408 3.828-2.78 3.828-.353 0-.937-.7-1.747-2.094zm105.61.14c-5.037-8.661-10.333-15.804-17-22.935-1.733-1.853-3.151-3.514-3.151-3.692 0-.177 1.353-1.747 3.006-3.488 1.654-1.742 4.204-4.696 5.666-6.564 2.474-3.16 8.206-11.553 11.371-16.651.752-1.211 1.552-2.202 1.779-2.202.226 0 1.22 1.463 2.21 3.25 4.028 7.272 10.028 15.493 16.842 23.076 1.09 1.213 1.98 2.414 1.98 2.67 0 .256-.993 1.539-2.208 2.85-6.234 6.734-12.906 15.975-17.206 23.835-1.324 2.419-1.807 2.397-3.288-.15zm-138.94-6.514c-.227-.188-.851-1.057-1.387-1.93-1.458-2.377-4.707-6.636-6.049-7.931-1.417-1.368-1.481-2.08-.286-3.21 1.208-1.142 4.747-5.847 6.34-8.43.799-1.294 1.484-2.095 1.793-2.095.312 0 .936.745 1.662 1.985 1.36 2.324 3.988 5.913 5.907 8.069.744.836 1.353 1.69 1.353 1.899 0 .208-.675 1.146-1.5 2.085-2.044 2.325-4.517 5.711-5.739 7.857-1.099 1.931-1.46 2.224-2.094 1.7zM12.844 56.65c-3.63-1.337-6.31-4.19-7.08-7.54-.298-1.29.18-4.37.89-5.742.3-.578 1.141-1.63 1.87-2.336l1.325-1.286-.684-.737c-2.941-3.162-2.686-7.926.591-11.032 2.021-1.917 3.35-2.413 6.467-2.413 3.172-.001 4.622.507 6.64 2.325 1.788 1.613 2.669 3.292 2.838 5.413.184 2.32-.298 4.036-1.502 5.347l-.967 1.052 1.373 1.499c2.061 2.25 2.474 3.278 2.475 6.173.001 2.246-.082 2.61-.982 4.266-1.18 2.168-2.717 3.622-4.917 4.647-2.189 1.02-6.093 1.19-8.337.363zm6.762-4.61c4.358-2.23 4.157-7.735-.345-9.45-1.911-.728-4.863-.482-6.368.53-2.537 1.706-3.497 4.82-2.113 6.853.716 1.052 2.565 2.236 4.11 2.631 1.318.337 3.452.081 4.716-.565zm-.58-14.514c1.733-.837 2.41-1.784 2.41-3.374 0-1.658-.778-2.925-2.327-3.794-.99-.555-1.511-.65-3.02-.555-3.126.199-5.046 2.064-4.709 4.575.4 2.977 4.503 4.666 7.646 3.148zm191.85-16.074c-.438-.153-.48-1.126-.06-1.385.368-.227 1.146.37 1.146.878 0 .426-.563.69-1.086.507z" fill="#fae8e8"/><path d="M0 157.44V0h217.76v314.88H0V157.44zm210.72 156.13c1.94-.574 4.147-2.553 4.965-4.45l.62-1.437-.073-150.45c-.07-143.27-.098-150.49-.586-151.38-.865-1.578-2.262-2.965-3.805-3.778l-1.474-.776H7.387l-1.329.614c-1.696.782-3.353 2.435-4.137 4.127l-.615 1.326-.074 147.09-.073 147.09.65.092c.963.137 1.049 1.103.098 1.103-.728 0-.746.046-.746 1.97 0 4.53 1.948 7.54 5.757 8.898.85.302 20.158.376 101.69.386 88.935.01 100.81-.038 102.11-.424zM6.95 305.79c0-.229.116-.487.257-.574.319-.197.968.54.706.8-.345.344-.963.199-.963-.226zm-2.888-2.318c-.286-.345-.291-.535-.022-.86.47-.565 1.224-.226 1.115.503-.112.758-.621.924-1.093.357zm186.29-11.082c-5.194-2.502-6.863-7.927-3.707-12.051l1.023-1.337-1.48-1.56c-.813-.859-1.652-1.984-1.864-2.503-2.135-5.222 1.238-11.336 7.072-12.813 3.773-.955 7.868.188 10.648 2.972 2.309 2.312 3.12 4.687 2.633 7.704-.356 2.208-.868 3.156-2.626 4.864l-1.438 1.398.93 1.057c1.243 1.412 1.772 2.764 1.788 4.57.029 3.218-1.587 5.945-4.446 7.503-1.323.72-1.937.86-4.158.946-2.402.094-2.744.035-4.374-.75zm6.73-3.712c3.174-1.634 3.24-5.72.118-7.308-1.735-.883-3.528-1.046-5.066-.46-2.872 1.094-3.911 3.738-2.422 6.163 1.358 2.213 4.753 2.953 7.37 1.605zm-.184-12.25c2.135-.965 3.285-2.345 3.783-4.54.953-4.198-5.37-7.525-9.764-5.139-1.728.939-2.572 1.968-3.028 3.693-.494 1.875.021 3.386 1.642 4.81 2.053 1.802 4.957 2.266 7.367 1.176zm-148.01 1.105c-4.888-8.021-9.72-14.424-15.22-20.168-1.956-2.042-3.556-3.796-3.556-3.899 0-.102 1.22-1.504 2.713-3.116 5.37-5.8 10.05-12.084 15.68-21.057 1.712-2.728 3.036-4.548 3.307-4.546.268 0 .922.905 1.61 2.222 3.453 6.615 9.56 15.104 16.758 23.293 1.373 1.563 2.497 2.962 2.497 3.109 0 .147-1.377 1.81-3.06 3.696-5.819 6.518-11.439 14.268-15.473 21.335-1.113 1.951-2.033 3.249-2.302 3.247-.264 0-1.476-1.69-2.955-4.116zm107.66 3.47c-.225-.358-1.032-1.69-1.793-2.962-4.78-7.983-10.14-15.073-16.302-21.564-1.455-1.532-2.646-2.946-2.646-3.14 0-.196 1.149-1.554 2.553-3.02 4.9-5.114 9.561-11.339 15.419-20.595 1.683-2.659 3.264-4.873 3.513-4.921.31-.06.885.71 1.815 2.426 3.884 7.166 8.652 13.807 16.192 22.554 1.531 1.776 2.783 3.434 2.783 3.685 0 .25-1.06 1.593-2.354 2.983-6.059 6.5-11.717 14.428-17.628 24.698-.4.694-1.061.633-1.552-.145zm36.792-23.11c-1.174-1.788-3.132-4.383-4.352-5.766-1.22-1.384-2.218-2.582-2.218-2.663 0-.08.86-1.093 1.912-2.25 1.052-1.158 3.015-3.762 4.363-5.788 1.348-2.025 2.635-3.683 2.86-3.683.225 0 .69.553 1.036 1.228.958 1.879 3.16 5.009 5.436 7.727 1.13 1.35 2.056 2.63 2.056 2.845 0 .214-.7 1.189-1.558 2.166-1.877 2.141-4.44 5.68-5.683 7.848-.5.872-1.09 1.585-1.313 1.585-.222 0-1.365-1.462-2.539-3.25zm-91.547-27.312c-4.997-8.136-9.741-14.378-15.429-20.302-1.632-1.7-2.968-3.274-2.968-3.497 0-.223.602-.986 1.338-1.694 1.927-1.856 6.015-6.624 8.618-10.053 2.054-2.706 7.441-10.73 10.098-15.037.598-.97 1.273-1.763 1.5-1.763.227 0 .967 1.007 1.643 2.239 4.213 7.666 9.61 15.109 17.437 24.047.904 1.031 1.643 2.1 1.643 2.376 0 .276-1.178 1.785-2.617 3.353-5.858 6.386-11.405 14.046-16.141 22.294-.776 1.35-1.611 2.495-1.856 2.542-.303.058-1.352-1.39-3.265-4.504zm-50.48-42.4c-.172-.206-1.148-1.75-2.17-3.43-5.351-8.806-10.311-15.296-16.817-22.004-1.21-1.247-2.199-2.354-2.199-2.459 0-.105 1.142-1.424 2.538-2.932 3.331-3.6 4.996-5.581 7.707-9.176 2.173-2.881 7.643-11.06 9.849-14.725.648-1.078 1.282-1.804 1.572-1.8.317 0 1.04 1.032 2.078 2.957 3.276 6.073 8.829 13.799 15.335 21.34 1.772 2.054 3.29 3.912 3.373 4.13.089.23-.777 1.41-2.063 2.81-6.144 6.687-12.342 15.216-16.812 23.136-1.423 2.522-1.802 2.863-2.391 2.154zm103.46-3.293c-4.979-8.185-10.394-15.37-15.925-21.128-1.668-1.737-3.033-3.316-3.033-3.509 0-.193 1.124-1.54 2.498-2.994 5.012-5.303 10.102-12.115 15.377-20.58 1.971-3.163 3.295-5.008 3.6-5.016.318-.01 1.093 1.087 2.29 3.238 3.701 6.645 8.584 13.435 15.007 20.87 1.92 2.225 3.495 4.244 3.498 4.486 0 .243-.94 1.479-2.094 2.746-6.382 7.007-11.769 14.371-16.372 22.378-.959 1.669-1.935 3.073-2.17 3.12-.277.056-1.215-1.21-2.676-3.61zm-52.789-47.976c-4.874-7.967-9.999-14.72-15.658-20.634-1.607-1.68-2.923-3.235-2.923-3.457 0-.221.728-1.113 1.618-1.982 4.999-4.88 11.767-13.986 18.436-24.804.597-.97 1.27-1.763 1.495-1.763.224 0 1.222 1.463 2.218 3.25 3.709 6.66 8.678 13.58 14.988 20.871 1.924 2.225 3.504 4.286 3.51 4.582.01.296-.979 1.588-2.19 2.871-5.15 5.462-11.294 13.814-15.768 21.435-1.213 2.066-2.406 3.795-2.651 3.842-.302.06-1.294-1.3-3.074-4.21zM50.36 92.144C45.77 84.078 39.19 75.23 33.092 68.93c-1.632-1.687-2.968-3.162-2.968-3.278 0-.117 1.059-1.337 2.353-2.711 5.265-5.596 10.309-12.315 15.745-20.976 2.008-3.201 3.339-5.047 3.602-4.999.229.042 1.253 1.572 2.275 3.399 3.658 6.536 8.785 13.66 14.971 20.798 1.859 2.145 3.448 4.064 3.532 4.264.084.2-.742 1.353-1.834 2.56-3.447 3.809-7.28 8.514-9.738 11.952-2.4 3.357-6.844 10.383-7.995 12.64-.88 1.726-1.504 1.625-2.675-.434zm106.21 1.03a649.738 649.738 0 0 1-2.37-3.846c-4.669-7.615-9.105-13.498-14.853-19.694-1.941-2.093-3.53-3.982-3.53-4.199 0-.216.728-1.103 1.618-1.972 5.029-4.91 11.726-13.92 18.436-24.804.597-.97 1.27-1.763 1.494-1.763.224 0 1.081 1.268 1.905 2.817 3.155 5.933 9.066 14.172 15.615 21.762 1.765 2.045 3.209 3.926 3.209 4.18 0 .254-1.104 1.654-2.452 3.112-5.423 5.861-11.045 13.519-15.518 21.138-1.213 2.066-2.414 3.796-2.668 3.845-.255.05-.653-.21-.885-.577zM16 84.38c-1.423-2.413-4.102-6.049-6.026-8.18-1.668-1.848-1.846-2.154-1.512-2.607.208-.282 1.19-1.472 2.183-2.644.992-1.172 2.751-3.588 3.909-5.367 1.194-1.836 2.305-3.243 2.566-3.25.272-.01.975.846 1.712 2.08 1.473 2.468 2.839 4.348 5.213 7.177.954 1.136 1.735 2.239 1.735 2.45 0 .211-.793 1.268-1.762 2.348-.97 1.08-2.659 3.329-3.753 4.997-2.675 4.075-2.865 4.333-3.192 4.333-.156 0-.639-.602-1.073-1.337zm-1.947-27.652c-3.157-.817-5.78-2.786-7.26-5.449-.747-1.345-.846-1.803-.828-3.838.024-2.885.484-3.988 2.574-6.173l1.6-1.675-.75-.698c-1.39-1.295-1.984-2.813-1.966-5.031.038-4.875 3.728-8.282 8.983-8.293 2.699-.01 5.068 1.01 6.892 2.956 1.69 1.803 2.192 3.07 2.192 5.528 0 2.195-.547 3.625-1.85 4.84l-.75.697 1.462 1.54c2.133 2.25 2.683 3.681 2.531 6.575-.15 2.845-1.071 4.766-3.205 6.68-2.413 2.164-6.48 3.153-9.625 2.34zm5.65-4.604c.69-.364 1.65-1.149 2.132-1.744 1.157-1.426 1.407-4.155.51-5.578-2.167-3.442-7.407-4.033-10.427-1.174-1.133 1.072-2.049 2.878-2.058 4.058-.015 1.9 1.645 3.857 3.975 4.687 1.77.63 4.413.518 5.868-.25zm-.363-14.575c3.515-1.81 2.98-6.27-.933-7.78-3.502-1.35-7.877 1.439-7.275 4.638.591 3.146 4.955 4.816 8.208 3.142zm191.18-16.812c0-.778.547-1.039 1.075-.512.528.526.266 1.072-.513 1.072-.364 0-.562-.198-.562-.56z" fill="#e8e8e8"/><path d="M0 157.44V0h217.76v314.88H0V157.44zm158.73 156.93c-27.604-.041-72.689-.041-100.19 0-27.499.041-4.913.074 50.19.074 55.104 0 77.603-.033 49.998-.074zm52.815-.907c1.704-.772 3.235-2.222 4.126-3.906l.778-1.47V7.367l-.814-1.654c-.448-.91-1.346-2.107-1.996-2.662-2.426-2.072 7.173-1.906-105.35-1.824L6.81 1.3l-1.158.625c-1.558.842-3.17 2.56-3.887 4.141l-.588 1.3-.006 150.24-.006 150.24.908 1.813c.94 1.876 2.468 3.254 4.395 3.963.7.257 25.478.343 102.41.354 98.08.015 101.53 0 102.67-.517zm-207.35-10.1c-.107-.173-.044-.464.14-.648.252-.252.397-.232.592.084.276.446.137.878-.282.878-.14 0-.343-.141-.45-.314zm-2.59-1.13c.098-.16.301-.29.451-.29.15 0 .273.13.273.29 0 .158-.204.288-.452.288-.248 0-.37-.13-.272-.289zm188.76-9.773c-5.195-2.503-6.864-7.927-3.708-12.051l1.023-1.338-1.48-1.56c-.813-.858-1.651-1.984-1.863-2.502-2.136-5.223 1.238-11.336 7.071-12.813 3.773-.955 7.868.188 10.648 2.972 2.31 2.312 3.12 4.687 2.634 7.704-.357 2.208-.869 3.156-2.627 4.864l-1.438 1.398.93 1.056c1.243 1.413 1.772 2.765 1.788 4.57.03 3.219-1.587 5.946-4.446 7.503-1.323.72-1.936.86-4.158.947-2.402.094-2.744.035-4.374-.75zm6.73-3.712c3.174-1.634 3.24-5.72.117-7.308-1.735-.884-3.528-1.046-5.066-.46-2.871 1.094-3.91 3.738-2.422 6.162 1.359 2.214 4.753 2.953 7.37 1.606zm-.184-12.25c2.135-.966 3.284-2.346 3.782-4.54.953-4.198-5.369-7.526-9.764-5.139-1.728.938-2.572 1.967-3.027 3.693-.495 1.874.02 3.386 1.642 4.81 2.053 1.802 4.957 2.266 7.367 1.176zM48.9 277.603c-4.888-8.021-9.721-14.424-15.221-20.168-1.956-2.042-3.556-3.797-3.556-3.9 0-.102 1.221-1.504 2.713-3.115 5.37-5.8 10.05-12.084 15.68-21.057 1.712-2.728 3.036-4.549 3.307-4.547.268 0 .922.906 1.61 2.222 3.453 6.616 9.56 15.104 16.758 23.293 1.374 1.563 2.498 2.962 2.498 3.11 0 .146-1.378 1.81-3.062 3.696-5.818 6.518-11.438 14.268-15.472 21.335-1.113 1.951-2.033 3.249-2.302 3.247-.264 0-1.476-1.69-2.954-4.117zm107.66 3.47c-.226-.358-1.033-1.69-1.794-2.962-4.78-7.984-10.14-15.073-16.302-21.564-1.455-1.533-2.646-2.946-2.646-3.141 0-.195 1.149-1.554 2.553-3.019 4.901-5.114 9.561-11.339 15.42-20.595 1.682-2.659 3.263-4.874 3.512-4.922.31-.06.885.71 1.816 2.427 3.883 7.166 8.651 13.807 16.192 22.554 1.53 1.775 2.783 3.433 2.783 3.684 0 .251-1.06 1.594-2.355 2.983-6.058 6.5-11.717 14.428-17.628 24.698-.4.695-1.06.634-1.552-.144zm36.792-23.11c-1.175-1.788-3.133-4.383-4.353-5.766-1.22-1.384-2.218-2.582-2.218-2.663 0-.08.86-1.094 1.912-2.25 1.052-1.158 3.015-3.762 4.363-5.788 1.348-2.026 2.635-3.683 2.86-3.683.225 0 .691.552 1.036 1.228.958 1.878 3.16 5.008 5.436 7.727 1.13 1.35 2.056 2.63 2.056 2.844 0 .214-.7 1.19-1.558 2.167-1.877 2.141-4.44 5.68-5.683 7.848-.5.872-1.09 1.585-1.313 1.585-.222 0-1.364-1.463-2.538-3.25zm-91.547-27.312c-4.998-8.136-9.742-14.378-15.43-20.302-1.632-1.7-2.967-3.274-2.967-3.497 0-.224.601-.986 1.337-1.694 1.927-1.856 6.015-6.624 8.618-10.053 2.054-2.707 7.442-10.73 10.098-15.037.598-.97 1.273-1.763 1.5-1.763.227 0 .967 1.007 1.643 2.239 4.213 7.665 9.61 15.109 17.437 24.047.904 1.031 1.643 2.1 1.643 2.376 0 .275-1.178 1.784-2.617 3.353-5.858 6.385-11.405 14.046-16.141 22.294-.776 1.35-1.61 2.494-1.856 2.541-.302.058-1.352-1.39-3.265-4.503zm-50.48-42.4c-.172-.207-1.149-1.75-2.17-3.43-5.352-8.806-10.312-15.297-16.818-22.005-1.21-1.247-2.199-2.353-2.199-2.458 0-.105 1.142-1.424 2.538-2.932 3.332-3.6 4.996-5.581 7.708-9.177 2.172-2.88 7.642-11.06 9.848-14.725.648-1.077 1.282-1.803 1.572-1.8.317 0 1.04 1.032 2.078 2.957 3.277 6.073 8.829 13.8 15.335 21.341 1.772 2.053 3.29 3.912 3.374 4.13.088.23-.778 1.41-2.064 2.809-6.144 6.687-12.342 15.217-16.812 23.137-1.423 2.522-1.802 2.862-2.391 2.154zm103.46-3.293c-4.98-8.185-10.394-15.37-15.925-21.128-1.669-1.737-3.034-3.316-3.034-3.509 0-.193 1.124-1.54 2.498-2.994 5.013-5.303 10.102-12.115 15.377-20.58 1.971-3.163 3.295-5.008 3.6-5.016.318-.01 1.093 1.087 2.29 3.237 3.702 6.645 8.584 13.435 15.007 20.871 1.921 2.225 3.496 4.243 3.498 4.486 0 .243-.94 1.479-2.094 2.746-6.381 7.006-11.769 14.371-16.372 22.378-.958 1.668-1.935 3.072-2.17 3.12-.276.056-1.215-1.21-2.675-3.61zm-52.79-47.976c-4.874-7.968-9.998-14.72-15.657-20.634-1.608-1.68-2.923-3.235-2.923-3.457 0-.222.727-1.113 1.617-1.982 4.999-4.88 11.767-13.986 18.436-24.804.598-.97 1.27-1.763 1.495-1.763.224 0 1.222 1.463 2.218 3.25 3.71 6.66 8.678 13.58 14.988 20.871 1.925 2.224 3.504 4.286 3.51 4.582.01.295-.979 1.587-2.19 2.871-5.15 5.462-11.294 13.814-15.768 21.435-1.213 2.066-2.406 3.794-2.65 3.842-.303.059-1.294-1.3-3.075-4.21zM50.373 92.214C45.782 84.147 39.2 75.3 33.105 69c-1.633-1.687-2.968-3.162-2.968-3.279 0-.116 1.058-1.336 2.352-2.71 5.266-5.596 10.309-12.316 15.745-20.977 2.009-3.2 3.34-5.047 3.602-4.998.229.042 1.253 1.572 2.275 3.399 3.658 6.536 8.785 13.66 14.971 20.798 1.859 2.144 3.448 4.063 3.532 4.264.084.2-.741 1.353-1.834 2.56-3.447 3.809-7.28 8.514-9.738 11.951-2.4 3.358-6.844 10.383-7.995 12.64-.88 1.727-1.504 1.626-2.675-.433zm106.21 1.029a649.738 649.738 0 0 1-2.37-3.845c-4.67-7.616-9.106-13.498-14.854-19.694-1.941-2.093-3.53-3.983-3.53-4.199 0-.216.728-1.104 1.618-1.972 5.03-4.91 11.726-13.92 18.436-24.804.598-.97 1.27-1.763 1.494-1.763.224 0 1.082 1.267 1.905 2.817 3.155 5.933 9.066 14.172 15.615 21.762 1.765 2.045 3.209 3.926 3.209 4.18 0 .254-1.103 1.654-2.452 3.112-5.423 5.86-11.045 13.519-15.518 21.138-1.213 2.065-2.413 3.796-2.668 3.845-.255.05-.653-.21-.885-.578zm-140.57-8.794c-1.424-2.413-4.103-6.048-6.027-8.18-1.668-1.848-1.846-2.154-1.512-2.606.209-.282 1.19-1.472 2.183-2.644.992-1.173 2.751-3.588 3.909-5.368 1.194-1.835 2.305-3.242 2.566-3.25.272-.01.975.846 1.712 2.081 1.473 2.468 2.839 4.348 5.214 7.176.954 1.137 1.734 2.24 1.734 2.45 0 .212-.793 1.269-1.762 2.349-.97 1.08-2.658 3.328-3.753 4.997-2.674 4.074-2.865 4.333-3.192 4.333-.156 0-.638-.602-1.072-1.338zm-1.948-27.652c-3.157-.816-5.78-2.785-7.26-5.448-.747-1.345-.845-1.803-.828-3.839.024-2.884.484-3.987 2.574-6.173l1.6-1.674-.75-.698c-1.39-1.295-1.983-2.814-1.966-5.032.038-4.875 3.729-8.282 8.983-8.293 2.699-.01 5.068 1.011 6.892 2.957 1.69 1.802 2.193 3.07 2.193 5.528 0 2.194-.547 3.625-1.851 4.839l-.75.697 1.462 1.541c2.133 2.25 2.683 3.68 2.531 6.575-.15 2.844-1.071 4.765-3.205 6.68-2.413 2.164-6.48 3.153-9.625 2.34zm5.65-4.604c.69-.363 1.65-1.148 2.132-1.744 1.157-1.426 1.407-4.154.51-5.577-2.167-3.443-7.407-4.033-10.427-1.174-1.133 1.072-2.049 2.878-2.058 4.058-.014 1.9 1.645 3.857 3.975 4.687 1.771.63 4.413.518 5.868-.25zm-.363-14.575c3.515-1.81 2.98-6.27-.933-7.78-3.501-1.35-7.877 1.44-7.275 4.639.591 3.145 4.956 4.816 8.208 3.141zm191.33-16.4c-.299-.481.372-1.034.772-.635.334.333.125.95-.322.95-.14 0-.343-.142-.45-.315z" fill="#f6d0d0"/><path d="M0 157.44V0h217.76v314.88H0V157.44zm158.73 156.93c-27.604-.041-72.689-.041-100.19 0-27.499.041-4.913.074 50.19.074 55.104 0 77.603-.033 49.998-.074zm52.815-.907c1.704-.772 3.235-2.222 4.126-3.906l.778-1.47V7.367l-.814-1.654c-.448-.91-1.346-2.107-1.996-2.662-2.426-2.072 7.173-1.906-105.35-1.824L6.81 1.3l-1.158.625c-1.558.842-3.17 2.56-3.887 4.141l-.588 1.3-.006 150.24-.006 150.24.908 1.813c.94 1.876 2.468 3.254 4.395 3.963.7.257 25.478.343 102.41.354 98.08.015 101.53 0 102.67-.517zm-207.35-10.1c-.107-.173-.044-.464.14-.648.252-.252.397-.232.592.084.276.446.137.878-.282.878-.14 0-.343-.141-.45-.314zm-2.59-1.13c.098-.16.301-.29.451-.29.15 0 .273.13.273.29 0 .158-.204.288-.452.288-.248 0-.37-.13-.272-.289zm190.18-9.356c-4.108-1.343-6.434-4.2-6.447-7.914-.01-2.119.534-3.594 1.796-4.895l.904-.932-1.592-1.668c-2.04-2.135-2.668-3.721-2.515-6.347.198-3.41 2.026-6.182 5.215-7.907 1.756-.95 1.958-.99 4.872-.99 2.687 0 3.232.088 4.684.768 3.443 1.61 6.03 5.12 6.03 8.18 0 2.668-.72 4.382-2.65 6.306l-1.728 1.725.87.899c1.159 1.197 2.046 3.224 2.054 4.692.016 3.097-2.122 6.39-4.933 7.596-1.865.8-4.91 1.026-6.56.487zm5.325-3.958c1.546-.746 2.45-1.97 2.61-3.54.18-1.74-.63-3.035-2.51-4.018-5.307-2.773-10.86 2.133-7.164 6.331.507.576 1.314 1.218 1.795 1.427 1.356.59 3.829.496 5.269-.2zm.528-12.677c2.403-1.312 3.777-3.968 3.213-6.209-.322-1.28-2.112-2.97-3.826-3.609-2.849-1.063-5.375-.658-7.492 1.201-.703.618-1.418 1.573-1.609 2.15-.457 1.382-.204 3.718.507 4.675 1.426 1.918 4.202 3.035 6.746 2.712.557-.071 1.665-.485 2.46-.92zm-40.712 5c-.25-.292-1.148-1.7-1.995-3.13-2.198-3.71-6.404-9.879-9.048-13.27-2.404-3.083-8.876-10.275-9.247-10.275-.12 0-.358-.257-.527-.571-.265-.495.012-.913 2.06-3.106 5.25-5.623 10.137-12.13 15.609-20.787 1.688-2.67 3.269-4.895 3.512-4.941.298-.057 1.025.967 2.245 3.165 3.927 7.073 9.656 14.888 16.892 23.042.916 1.032 1.665 1.975 1.665 2.096 0 .122-.988 1.297-2.196 2.611-5.455 5.937-10.622 12.876-14.795 19.868-1.47 2.463-2.909 4.782-3.197 5.154-.505.65-.541.656-.979.144zm-107.81-3.599c-4.741-7.822-10.17-14.997-15.703-20.759-1.647-1.714-2.994-3.273-2.994-3.465 0-.19 1.143-1.538 2.54-2.994 5.302-5.524 10.367-12.36 16.567-22.362 1.088-1.756 2.022-2.96 2.295-2.957.284 0 .959.967 1.763 2.52 2.854 5.514 9.085 14.2 15.613 21.766 1.765 2.046 3.209 3.888 3.209 4.095 0 .206-.945 1.412-2.1 2.68-6.39 7.017-12.098 14.825-16.422 22.47-.928 1.641-1.765 2.796-2.026 2.796-.26 0-1.399-1.575-2.741-3.789zm144.23-19.97c-1.186-1.787-3.083-4.26-4.215-5.494-1.133-1.234-2.059-2.414-2.059-2.622 0-.207.34-.692.757-1.077 1.164-1.076 4.2-5.04 6.013-7.85.897-1.39 1.823-2.528 2.059-2.528.235 0 .741.618 1.125 1.372.873 1.716 3.538 5.447 5.52 7.728.829.953 1.6 1.891 1.714 2.084.126.213-.751 1.506-2.232 3.291-1.342 1.617-3.194 4.157-4.115 5.643-.922 1.487-1.842 2.703-2.043 2.703-.202 0-1.338-1.462-2.524-3.25zm-91.358-27.022c-4.803-7.851-9.346-13.856-15.27-20.186-1.66-1.774-3.019-3.38-3.019-3.57 0-.19.99-1.394 2.2-2.677 4.86-5.153 9.396-11.13 14.406-18.98 4.065-6.37 4.502-6.987 4.804-6.8.143.088 1.075 1.621 2.073 3.407 3.667 6.569 9.543 14.638 16.003 21.978 1.375 1.563 2.5 2.957 2.5 3.098 0 .14-1.14 1.507-2.532 3.036-6.056 6.652-11.548 14.222-16.226 22.367-.776 1.351-1.612 2.495-1.86 2.542-.305.06-1.286-1.283-3.08-4.215zm-51.87-44.474c-4.427-7.621-11.084-16.543-16.53-22.152-1.743-1.794-3.168-3.426-3.168-3.627 0-.2 1.149-1.564 2.553-3.029 4.897-5.11 9.561-11.339 15.405-20.573 1.675-2.647 3.189-4.86 3.364-4.918.175-.058 1.127 1.361 2.116 3.155 3.6 6.532 9.307 14.398 16.124 22.22 1.333 1.53 2.424 2.945 2.424 3.144 0 .2-.955 1.418-2.122 2.707-6.508 7.188-12.22 15.037-16.58 22.78-.804 1.427-1.611 2.525-1.857 2.524-.238 0-1.017-1.005-1.73-2.232zm104.3-2.009c-5.187-8.477-9.794-14.49-16.376-21.372l-2.27-2.373 3.216-3.525c5.416-5.937 9.775-11.847 15.59-21.138 1.37-2.188 2.629-3.932 2.799-3.876.17.057 1.156 1.594 2.19 3.417 4.209 7.409 8.886 13.84 16.032 22.041 1.375 1.579 2.5 2.977 2.5 3.107 0 .13-1.06 1.373-2.355 2.762-5.413 5.805-11.95 14.735-16.122 22.026-.955 1.669-1.928 3.072-2.162 3.12-.278.056-1.336-1.4-3.042-4.189zm-50.52-44.332c-.533-.848-1.94-3.1-3.125-5.005-4.02-6.456-8.185-11.884-13.667-17.813-1.872-2.024-3.403-3.83-3.403-4.013 0-.184 1.125-1.523 2.499-2.977 4.835-5.115 9.335-11.119 14.923-19.908 3.392-5.336 3.69-5.752 3.984-5.57.127.078 1.05 1.608 2.053 3.4 3.454 6.176 8.003 12.566 13.793 19.376 1.728 2.033 3.529 4.152 4 4.708 1.001 1.179 1.182.81-2.273 4.634-5.582 6.178-11.507 14.325-15.345 21.101-.917 1.619-1.847 3.092-2.069 3.275-.324.269-.59.033-1.37-1.208zM51.165 93.302c-.226-.357-1.033-1.69-1.794-2.96-4.943-8.257-12.198-17.71-17.617-22.955-.732-.708-1.33-1.404-1.33-1.547 0-.142 1.318-1.703 2.929-3.469 5.318-5.828 9.635-11.628 14.93-20.06 2.042-3.25 3.283-4.96 3.564-4.908.236.044.74.664 1.12 1.377 3.935 7.397 9.027 14.557 16.613 23.355 1.556 1.805 2.83 3.45 2.83 3.655 0 .205-1.058 1.523-2.35 2.929-6.273 6.825-11.75 14.506-17.634 24.727-.391.68-.77.636-1.262-.145zm105.75.144c-.236-.278-1.427-2.145-2.648-4.15-4.578-7.517-9.498-14.006-14.884-19.63-1.956-2.042-3.556-3.797-3.556-3.899 0-.102.89-1.114 1.979-2.25 5.767-6.015 11.52-13.788 18.075-24.421.597-.97 1.27-1.763 1.494-1.763.224 0 1.084 1.267 1.91 2.816 3.52 6.596 8.64 13.66 16.412 22.642 1.323 1.53 2.407 2.866 2.407 2.969 0 .102-1.367 1.71-3.037 3.573-5.644 6.296-11.534 14.395-15.314 21.061-1.958 3.453-2.24 3.756-2.838 3.051zM16.335 84.78c-2.049-3.306-3.847-5.801-5.727-7.946-1.205-1.376-2.192-2.583-2.192-2.683 0-.1.86-1.178 1.912-2.395 1.052-1.218 2.95-3.774 4.218-5.68 1.268-1.907 2.419-3.507 2.558-3.557.138-.05.473.275.744.722 1.577 2.606 4.4 6.6 6.045 8.554 1.044 1.24 1.897 2.307 1.897 2.374 0 .066-.609.805-1.353 1.641-1.896 2.13-4.402 5.549-5.741 7.831-.624 1.064-1.3 1.934-1.501 1.934-.203 0-.59-.358-.86-.795zm-2.913-28.207c-2.9-.943-5.679-3.34-6.798-5.864-.463-1.045-.56-1.765-.47-3.518.136-2.688.692-3.915 2.63-5.808l1.447-1.415-.911-1.148c-2.072-2.61-2.365-5.411-.878-8.38 3.818-7.624 16.215-5.298 16.986 3.186.185 2.032-.405 3.803-1.67 5.011-.475.454-.863.946-.863 1.094 0 .148.714 1.038 1.588 1.98 3.367 3.628 3.25 8.286-.3 12.073-1.964 2.094-3.996 2.983-7.08 3.096-1.542.056-2.916-.058-3.68-.307zm6.728-4.352c4.776-2.792 3.522-9.116-2.036-10.267-3.267-.677-6.31.758-7.782 3.67-.625 1.234-.6 3.49.047 4.47 1.921 2.906 6.67 3.94 9.771 2.127zm-1.4-14.04c1.156-.435 2.63-1.94 3.003-3.067.235-.71.229-1.229-.025-1.995-1.334-4.033-6.766-4.996-9.813-1.74-.993 1.062-1.154 3.422-.324 4.741 1.157 1.84 4.89 2.914 7.158 2.061zm191.96-17c-.299-.482.372-1.034.772-.636.334.334.125.95-.323.95-.14 0-.343-.141-.45-.314z" fill="#d6d6d6"/><path d="M0 157.44V0h217.76v314.88H0V157.44zm209.57 156.89c.277-.145 1.09-.469 1.81-.72 1.9-.664 3.309-1.961 4.319-3.978l.889-1.775V7.317l-.886-1.769c-.929-1.854-2.302-3.164-4.228-4.033-1.048-.473-6.88-.501-102.6-.501H7.384l-1.514.682c-1.863.84-3.573 2.642-4.305 4.534-.54 1.398-.552 4.595-.552 151.64v150.22l.783 1.48c1.033 1.955 3.069 3.706 5.108 4.395 1.6.54 3.93.554 101.9.589 59.857.022 100.47-.07 100.77-.227zm-17.802-21.514c-4.107-1.343-6.434-4.199-6.447-7.914-.01-2.118.534-3.594 1.796-4.895l.905-.932-1.593-1.668c-2.039-2.135-2.667-3.72-2.515-6.346.198-3.41 2.027-6.183 5.216-7.908 1.755-.95 1.958-.99 4.872-.99 2.687 0 3.231.088 4.683.768 3.443 1.61 6.03 5.12 6.03 8.18 0 2.668-.72 4.382-2.649 6.307l-1.729 1.725.87.898c1.16 1.197 2.046 3.224 2.054 4.693.016 3.096-2.122 6.39-4.933 7.596-1.864.8-4.91 1.026-6.56.486zm5.325-3.957c1.547-.747 2.45-1.971 2.611-3.54.18-1.74-.63-3.035-2.511-4.019-5.307-2.773-10.86 2.134-7.164 6.332.507.576 1.315 1.218 1.796 1.427 1.355.589 3.828.495 5.268-.2zm.528-12.677c2.403-1.313 3.778-3.969 3.214-6.21-.322-1.28-2.113-2.969-3.826-3.608-2.85-1.064-5.375-.659-7.492 1.2-.704.618-1.419 1.573-1.61 2.15-.457 1.383-.204 3.718.507 4.675 1.427 1.919 4.203 3.035 6.746 2.712.557-.07 1.665-.484 2.461-.92zm-40.712 5c-.25-.292-1.147-1.701-1.994-3.131-2.198-3.71-6.405-9.878-9.049-13.27-2.403-3.083-8.875-10.274-9.246-10.274-.121 0-.358-.257-.527-.572-.266-.495.012-.912 2.059-3.105 5.25-5.623 10.137-12.13 15.609-20.787 1.689-2.672 3.27-4.895 3.512-4.942.299-.057 1.026.968 2.246 3.165 3.926 7.073 9.656 14.888 16.892 23.042.915 1.032 1.665 1.975 1.665 2.097 0 .121-.989 1.296-2.197 2.61-5.455 5.938-10.622 12.877-14.795 19.869-1.47 2.463-2.908 4.781-3.197 5.153-.505.65-.54.656-.978.144zm-107.81-3.6c-4.741-7.821-10.169-14.996-15.703-20.758-1.647-1.715-2.994-3.274-2.994-3.465 0-.192 1.143-1.539 2.54-2.994 5.302-5.524 10.367-12.361 16.567-22.362 1.088-1.756 2.023-2.96 2.295-2.958.284 0 .96.967 1.763 2.52 2.855 5.515 9.086 14.2 15.613 21.767 1.765 2.045 3.21 3.887 3.21 4.094 0 .206-.946 1.413-2.1 2.68-6.391 7.017-12.098 14.825-16.422 22.47-.929 1.642-1.766 2.797-2.027 2.796-.26 0-1.398-1.574-2.74-3.789zm144.23-19.97c-1.186-1.787-3.083-4.26-4.215-5.493-1.132-1.235-2.058-2.415-2.058-2.622 0-.208.34-.693.757-1.078 1.163-1.076 4.2-5.04 6.012-7.85.897-1.39 1.824-2.528 2.059-2.528.235 0 .742.618 1.125 1.373.873 1.716 3.538 5.447 5.52 7.727.829.953 1.6 1.891 1.714 2.084.126.214-.75 1.507-2.232 3.292-1.341 1.617-3.193 4.156-4.115 5.643-.922 1.486-1.841 2.703-2.043 2.703-.202 0-1.337-1.463-2.524-3.25zm-91.358-27.021c-4.803-7.852-9.345-13.856-15.269-20.186-1.66-1.775-3.02-3.381-3.02-3.57 0-.19.99-1.394 2.2-2.677 4.86-5.154 9.396-11.131 14.407-18.981 4.065-6.369 4.5-6.986 4.803-6.8.143.088 1.075 1.621 2.073 3.408 3.667 6.568 9.544 14.638 16.003 21.978 1.375 1.563 2.5 2.956 2.5 3.097 0 .14-1.139 1.507-2.532 3.037-6.056 6.651-11.548 14.222-16.226 22.367-.775 1.35-1.612 2.494-1.859 2.542-.306.059-1.287-1.283-3.08-4.215zm-51.87-44.474c-4.426-7.622-11.084-16.543-16.53-22.152-1.742-1.795-3.168-3.427-3.168-3.628 0-.2 1.149-1.563 2.553-3.029 4.897-5.11 9.562-11.339 15.405-20.573 1.675-2.646 3.19-4.86 3.365-4.918.175-.058 1.127 1.362 2.115 3.155 3.6 6.533 9.307 14.398 16.124 22.22 1.334 1.53 2.424 2.945 2.424 3.145 0 .2-.955 1.417-2.122 2.707-6.508 7.188-12.22 15.037-16.58 22.78-.803 1.426-1.61 2.525-1.856 2.524-.24-.001-1.018-1.006-1.73-2.232zm104.3-2.01c-5.187-8.477-9.794-14.49-16.376-21.371l-2.27-2.374 3.216-3.524c5.417-5.937 9.775-11.847 15.59-21.138 1.37-2.189 2.63-3.933 2.8-3.876.17.057 1.155 1.594 2.19 3.416 4.208 7.41 8.886 13.84 16.031 22.041 1.376 1.579 2.501 2.977 2.501 3.107 0 .13-1.06 1.373-2.356 2.763-5.413 5.805-11.95 14.735-16.122 22.026-.954 1.668-1.927 3.072-2.161 3.12-.278.055-1.336-1.401-3.042-4.19zm-50.52-44.331c-.532-.848-1.939-3.1-3.125-5.006-4.02-6.455-8.185-11.884-13.667-17.813-1.871-2.024-3.402-3.83-3.402-4.013 0-.183 1.124-1.523 2.498-2.976 4.835-5.116 9.335-11.12 14.923-19.908 3.392-5.336 3.69-5.752 3.984-5.571.127.078 1.05 1.608 2.053 3.4 3.455 6.177 8.003 12.566 13.793 19.376 1.729 2.033 3.53 4.152 4.001 4.708 1 1.18 1.181.81-2.274 4.635-5.581 6.177-11.507 14.325-15.345 21.1-.916 1.619-1.847 3.093-2.068 3.276-.324.268-.59.033-1.37-1.209zM51.148 93.242c-.225-.358-1.033-1.69-1.794-2.961-4.943-8.256-12.198-17.71-17.617-22.954-.731-.709-1.33-1.405-1.33-1.547 0-.143 1.318-1.704 2.93-3.47 5.317-5.827 9.635-11.628 14.93-20.06 2.042-3.25 3.282-4.96 3.563-4.907.237.044.74.663 1.12 1.376 3.935 7.398 9.028 14.557 16.613 23.355 1.556 1.805 2.83 3.45 2.83 3.655 0 .205-1.058 1.523-2.35 2.93-6.273 6.825-11.75 14.505-17.634 24.726-.39.68-.769.637-1.262-.144zm105.75.143c-.236-.277-1.427-2.144-2.648-4.15-4.578-7.517-9.497-14.006-14.884-19.63-1.955-2.042-3.555-3.796-3.555-3.899 0-.102.89-1.114 1.978-2.249 5.767-6.016 11.52-13.789 18.075-24.422.598-.97 1.27-1.763 1.494-1.763.225 0 1.084 1.268 1.911 2.817 3.52 6.595 8.64 13.659 16.411 22.642 1.324 1.53 2.407 2.866 2.407 2.968 0 .103-1.366 1.71-3.036 3.574-5.645 6.296-11.534 14.395-15.314 21.06-1.959 3.454-2.24 3.756-2.839 3.052zM16.318 84.72c-2.049-3.306-3.847-5.802-5.726-7.946C9.386 75.398 8.4 74.19 8.4 74.09c0-.1.86-1.178 1.912-2.396 1.051-1.217 2.95-3.773 4.217-5.68 1.268-1.906 2.42-3.507 2.558-3.557.139-.05.474.276.744.723 1.577 2.605 4.4 6.6 6.046 8.554 1.043 1.239 1.897 2.307 1.897 2.373 0 .066-.61.805-1.354 1.641-1.896 2.13-4.402 5.549-5.74 7.832-.624 1.063-1.3 1.933-1.502 1.933-.202 0-.589-.357-.86-.794zm-2.913-28.207c-2.9-.944-5.678-3.341-6.797-5.865-.464-1.045-.56-1.765-.471-3.517.136-2.689.692-3.916 2.63-5.809l1.448-1.414-.912-1.148c-2.072-2.61-2.365-5.412-.877-8.382 3.818-7.622 16.215-5.296 16.986 3.188.184 2.03-.406 3.802-1.67 5.01-.475.455-.864.947-.864 1.094 0 .148.715 1.039 1.588 1.98 3.367 3.628 3.251 8.286-.3 12.074-1.963 2.094-3.996 2.983-7.079 3.095-1.542.056-2.917-.058-3.681-.306zm6.729-4.353c4.776-2.792 3.522-9.116-2.036-10.267-3.268-.676-6.311.759-7.783 3.67-.624 1.235-.6 3.49.048 4.47 1.92 2.907 6.67 3.94 9.77 2.127zm-1.401-14.04c1.157-.435 2.631-1.94 3.004-3.066.235-.71.228-1.23-.026-1.996-1.334-4.033-6.766-4.996-9.813-1.739-.992 1.061-1.154 3.421-.324 4.74 1.157 1.84 4.89 2.914 7.159 2.061zm192.22-17.315c-.098-.159-.041-.289.127-.289.17 0 .307.13.307.29 0 .158-.057.288-.128.288-.07 0-.208-.13-.306-.289z" fill="#f1afaf"/><path d="M0 157.44V0h217.76v314.88H0V157.44zm209.57 156.89c.277-.145 1.09-.469 1.81-.72 1.9-.664 3.309-1.961 4.319-3.978l.889-1.775V7.317l-.886-1.769c-.929-1.854-2.302-3.164-4.228-4.033-1.048-.473-6.88-.501-102.6-.501H7.384l-1.514.682c-1.863.84-3.573 2.642-4.305 4.534-.54 1.398-.552 4.595-.552 151.64v150.22l.783 1.48c1.033 1.955 3.069 3.706 5.108 4.395 1.6.54 3.93.554 101.9.589 59.857.022 100.47-.07 100.77-.227zm-19.187-22.224c-2.83-1.338-4.699-3.78-4.979-6.505-.214-2.091.324-3.772 1.68-5.239l1.151-1.246-1.273-1.19c-.7-.656-1.647-1.87-2.103-2.7-.711-1.295-.827-1.816-.812-3.675.021-2.658.7-4.329 2.567-6.32 3.046-3.25 8.253-4.084 12.424-1.991 1.667.836 3.896 3.045 4.739 4.694.531 1.042.74 1.908.743 3.074 0 2.73-.572 4.17-2.489 6.214l-1.717 1.831.767.91c1.874 2.222 2.439 4.817 1.6 7.358-1.194 3.62-4.118 5.57-8.39 5.594-1.801.01-2.467-.127-3.908-.809zm5.747-2.71c.65-.193 1.74-.886 2.423-1.538 1.139-1.09 1.24-1.306 1.24-2.638 0-2.593-2.054-4.54-5.182-4.909-1.218-.144-1.723-.042-3.084.623-1.928.94-2.734 2.074-2.735 3.847 0 3.46 3.608 5.73 7.339 4.616zm.929-12.753c2.787-1.295 4.515-4.299 3.852-6.696-.963-3.478-6.387-5.411-9.99-3.561-1.686.865-3.163 2.698-3.426 4.252-.784 4.628 4.877 8.182 9.564 6.005zm-146.04 3.842c-1.182-2.127-5.642-8.968-7.954-12.202-3.014-4.214-5.584-7.32-9.655-11.67l-3.032-3.24 2.647-2.827c4.94-5.276 9.246-10.964 14.285-18.867 1.568-2.46 3.163-4.959 3.545-5.555.38-.595.806-1.083.945-1.083.14 0 1.017 1.398 1.95 3.106 3.416 6.25 8.746 13.644 15.428 21.394 1.686 1.955 3.106 3.668 3.155 3.806.05.138-.911 1.333-2.135 2.655-6.278 6.786-11.943 14.701-17.793 24.864-.423.735-.826.624-1.385-.382zm103.36-3.546c-4.843-7.922-9.68-14.293-15.201-20.026-1.727-1.793-3.095-3.378-3.04-3.522.054-.144 1.489-1.805 3.188-3.69 3.778-4.19 5.397-6.198 8.503-10.544 2.18-3.05 7.917-11.848 8.793-13.483.48-.898.909-.692 1.732.833 4.133 7.653 9.461 15.114 16.752 23.458 1.497 1.713 2.68 3.292 2.63 3.51-.052.218-1.396 1.854-2.989 3.637-5.582 6.249-11.66 14.671-15.48 21.452-.87 1.544-1.718 2.806-1.883 2.804-.165 0-1.517-1.996-3.005-4.43zm40.166-17.73c-1.196-2.085-4.789-6.84-6.16-8.152-.573-.548-1.041-1.169-1.041-1.38 0-.211.944-1.521 2.099-2.911 1.155-1.39 2.945-3.823 3.979-5.409 1.915-2.937 2.28-3.373 2.64-3.151.111.069.62.872 1.132 1.786 1.057 1.892 3.497 5.235 5.55 7.605.766.886 1.394 1.767 1.394 1.957 0 .19-.506.894-1.126 1.566-1.436 1.558-4.49 5.69-5.897 7.976-.597.972-1.207 1.767-1.354 1.767-.147 0-.694-.744-1.216-1.654zm-90.825-26.11c-2.728-4.485-8.649-13.125-10.964-16-1.407-1.748-4.037-4.7-5.845-6.56-1.808-1.86-3.242-3.503-3.187-3.65.056-.148 1.52-1.84 3.254-3.76 5.402-5.98 10.884-13.493 16.102-22.067.846-1.39 1.68-2.526 1.855-2.524.175 0 .893 1.075 1.596 2.383 3.74 6.964 9.046 14.332 16.295 22.633 1.403 1.607 2.55 3.082 2.55 3.278 0 .195-1.514 2.065-3.366 4.156-5.577 6.295-10.911 13.697-14.902 20.678-1.006 1.759-1.938 3.198-2.072 3.198-.134 0-.726-.794-1.316-1.764zm-54.739-49.014c-4.881-7.98-9.997-14.72-15.683-20.66l-2.949-3.08 2.765-2.967c5.138-5.513 8.877-10.49 14.66-19.515 1.991-3.106 3.768-5.697 3.949-5.756.18-.06.885.905 1.564 2.143 4.067 7.41 9.596 15.087 16.605 23.054 1.373 1.56 2.496 2.932 2.496 3.05 0 .117-1.062 1.363-2.36 2.768-5.493 5.955-11.984 14.833-16.114 22.044-.952 1.663-1.86 3.066-2.018 3.118-.158.053-1.47-1.837-2.915-4.2zm107.18 2.551c-2.707-4.447-8.67-13.145-10.998-16.046-1.403-1.748-4.018-4.687-5.81-6.531-1.793-1.845-3.26-3.516-3.26-3.715 0-.2 1.28-1.7 2.843-3.333 4.694-4.905 9.68-11.61 15.308-20.581 1.52-2.423 2.912-4.402 3.092-4.397.181 0 1.034 1.31 1.896 2.903 3.328 6.15 8.52 13.412 14.902 20.845 2.01 2.341 3.655 4.39 3.655 4.553 0 .163-1.377 1.84-3.061 3.726-5.627 6.303-11.094 13.83-15.024 20.685-2.359 4.114-2.232 4.047-3.543 1.892zm-52.439-47.416c-5.624-9.222-11.482-17.08-16.871-22.63-1.742-1.794-3.168-3.354-3.168-3.467 0-.113 1.306-1.64 2.903-3.393 5.317-5.836 9.662-11.675 14.957-20.097 1.723-2.74 3.263-4.98 3.422-4.978.16 0 1.007 1.333 1.883 2.956 3.277 6.076 8.828 13.8 15.342 21.348 1.774 2.057 3.186 3.92 3.136 4.141-.05.22-1.285 1.742-2.743 3.38-3.696 4.15-6.66 7.879-9.488 11.934-2.37 3.398-5.98 9.188-7.127 11.432-.319.623-.713 1.134-.876 1.134-.163 0-.78-.792-1.37-1.76zM51.158 92.972a1435.3 1435.3 0 0 1-2.742-4.424c-2.767-4.474-6.023-9.117-8.973-12.79-2.2-2.74-7.012-7.997-7.94-8.673-1.399-1.02-1.285-1.307 1.81-4.602 5.455-5.803 10.503-12.754 17.838-24.56.222-.357.52-.65.66-.65.142 0 .934 1.268 1.76 2.817 3.188 5.973 8.843 13.883 15.189 21.245 3.322 3.854 3.645 4.326 3.294 4.805-.214.293-1.758 2.074-3.433 3.96-5.413 6.096-9.97 12.382-14.188 19.574-1.208 2.06-2.345 3.796-2.526 3.856-.181.06-.519-.19-.75-.558zm104.49-1.701c-4.234-7.323-10.952-16.346-16.472-22.121-1.693-1.772-3.078-3.302-3.078-3.401 0-.1 1.447-1.77 3.215-3.712 3.83-4.207 9.031-11.039 12.425-16.324 4.848-7.548 5.357-8.296 5.636-8.296.156 0 .884 1.105 1.617 2.455 3.851 7.091 9.296 14.637 16.414 22.75 1.314 1.497 2.388 2.873 2.387 3.058 0 .184-1.06 1.505-2.35 2.935-6.366 7.048-13.717 17.317-17.02 23.778-.341.665-.8 1.21-1.022 1.21-.222 0-1.01-1.05-1.752-2.333zm-140.96-9.295c-1.196-1.787-3.102-4.262-4.235-5.499-2.206-2.407-2.25-2.599-.885-3.82 1.03-.92 4.132-4.994 5.774-7.58.833-1.31 1.628-2.383 1.767-2.383.14 0 .476.357.747.794 1.86 3.002 3.812 5.757 5.578 7.872 1.127 1.35 2.05 2.568 2.05 2.705 0 .138-.634.983-1.41 1.878-1.79 2.065-4.484 5.801-5.601 7.767-.474.834-1.03 1.516-1.236 1.516-.206 0-1.353-1.462-2.549-3.25zm-.713-25.49c-2.213-.618-3.727-1.466-5.148-2.884-2.025-2.02-2.594-3.362-2.58-6.074.016-2.84.85-4.681 2.917-6.444l1.365-1.164-.914-1.039c-1.563-1.776-1.928-2.715-1.913-4.93.011-1.601.174-2.332.78-3.507 3.155-6.123 12.57-6.031 15.946.157.647 1.185.796 1.829.801 3.462.007 2.196-.349 3.138-1.814 4.802l-.9 1.023 1.497 1.432c1.942 1.857 2.616 3.351 2.625 5.81.007 2.213-.476 3.778-1.728 5.592-2.2 3.192-7.032 4.855-10.934 3.764zm5.574-3.874c5.234-2.423 4.685-9.166-.873-10.718-3.837-1.072-7.77.986-8.867 4.641-.795 2.644 1.072 5.352 4.38 6.356 1.391.422 4.156.278 5.36-.279zm-1.274-14.224c2.46-.822 3.894-2.682 3.66-4.748-.266-2.362-2.222-4.088-4.953-4.369-2.66-.274-5.403 1.352-6.11 3.621-1.012 3.249 3.687 6.737 7.403 5.496zm192.67-17.582c-.098-.159-.041-.289.127-.289.169 0 .307.13.307.289 0 .159-.057.289-.128.289-.07 0-.208-.13-.306-.29z" fill="#b5b5b5"/><path d="M0 157.44V0h217.76v314.88H0V157.44zm211.69 156.25a9.26 9.26 0 0 0 4.375-4.251l.673-1.35V7.369l-.69-1.525c-.85-1.876-3.017-3.887-4.865-4.515-1.227-.417-10.754-.46-102.58-.457H7.383l-1.448.675c-2.113.984-3.185 2.01-4.182 4L.868 7.313v150.13c0 133.57.049 150.27.44 151.38.862 2.438 2.827 4.32 5.438 5.21 1.432.487 6.454.51 102.42.46l100.91-.053 1.612-.755zm-21.302-21.589c-2.83-1.338-4.699-3.78-4.979-6.505-.214-2.091.325-3.772 1.68-5.239l1.151-1.246-1.273-1.19c-.7-.656-1.647-1.87-2.103-2.7-.711-1.295-.827-1.816-.812-3.675.021-2.658.7-4.329 2.567-6.32 3.046-3.25 8.253-4.084 12.424-1.991 1.667.836 3.896 3.045 4.739 4.694.531 1.042.74 1.908.743 3.074 0 2.73-.572 4.17-2.489 6.214l-1.717 1.831.767.91c1.874 2.222 2.439 4.817 1.6 7.358-1.194 3.62-4.118 5.57-8.39 5.594-1.801.01-2.467-.127-3.908-.809zm5.747-2.71c.65-.193 1.74-.886 2.423-1.538 1.139-1.09 1.24-1.306 1.24-2.638 0-2.593-2.054-4.54-5.182-4.909-1.218-.144-1.723-.042-3.084.623-1.928.94-2.734 2.074-2.735 3.847 0 3.46 3.608 5.73 7.339 4.616zm.929-12.753c2.787-1.295 4.515-4.299 3.852-6.696-.963-3.478-6.387-5.411-9.99-3.561-1.686.865-3.163 2.698-3.426 4.252-.783 4.628 4.877 8.182 9.564 6.005zm-146.04 3.842c-1.182-2.127-5.642-8.968-7.954-12.202-3.014-4.214-5.584-7.32-9.655-11.67l-3.032-3.24 2.647-2.827c4.94-5.276 9.246-10.964 14.285-18.867l3.545-5.555c.38-.595.806-1.083.945-1.083.14 0 1.017 1.398 1.95 3.106 3.416 6.25 8.746 13.644 15.428 21.394 1.686 1.955 3.106 3.668 3.155 3.806.05.138-.911 1.333-2.135 2.655-6.278 6.786-11.943 14.701-17.793 24.864-.423.735-.826.624-1.385-.382zm103.36-3.546c-4.843-7.922-9.68-14.293-15.201-20.026-1.727-1.793-3.095-3.378-3.04-3.522.054-.144 1.489-1.805 3.188-3.69 3.778-4.19 5.397-6.198 8.503-10.544 2.18-3.05 7.917-11.848 8.793-13.483.48-.898.909-.692 1.732.833 4.133 7.653 9.461 15.114 16.752 23.458 1.497 1.713 2.68 3.292 2.63 3.51-.052.218-1.396 1.854-2.989 3.637-5.582 6.249-11.66 14.671-15.48 21.452-.87 1.544-1.718 2.806-1.883 2.804-.165 0-1.517-1.996-3.005-4.43zm40.166-17.73c-1.196-2.085-4.789-6.84-6.16-8.152-.573-.548-1.041-1.169-1.041-1.38 0-.211.944-1.521 2.099-2.911 1.155-1.39 2.945-3.823 3.979-5.409 1.915-2.937 2.28-3.373 2.64-3.151.111.069.62.872 1.132 1.786 1.057 1.892 3.497 5.235 5.55 7.605.766.886 1.394 1.767 1.394 1.957 0 .19-.506.894-1.126 1.566-1.436 1.558-4.49 5.69-5.897 7.976-.597.972-1.207 1.767-1.354 1.767-.147 0-.694-.744-1.216-1.654zm-90.825-26.11c-2.728-4.485-8.649-13.125-10.964-16-1.407-1.748-4.037-4.7-5.845-6.56-1.808-1.86-3.242-3.503-3.187-3.65.056-.148 1.52-1.84 3.254-3.76 5.402-5.98 10.884-13.493 16.102-22.067.846-1.39 1.68-2.526 1.855-2.524.175 0 .893 1.075 1.596 2.383 3.74 6.964 9.046 14.332 16.295 22.633 1.403 1.607 2.55 3.082 2.55 3.278 0 .195-1.514 2.065-3.366 4.156-5.577 6.295-10.911 13.697-14.902 20.678-1.006 1.759-1.938 3.198-2.072 3.198-.134 0-.726-.794-1.316-1.764zM48.986 184.08c-4.881-7.98-9.997-14.72-15.683-20.66l-2.949-3.08 2.765-2.967c5.138-5.513 8.877-10.49 14.66-19.515 1.991-3.106 3.768-5.697 3.949-5.756.18-.06.885.905 1.564 2.143 4.067 7.41 9.596 15.087 16.605 23.054 1.373 1.56 2.496 2.932 2.496 3.05 0 .117-1.062 1.363-2.36 2.768-5.493 5.955-11.984 14.833-16.114 22.044-.952 1.663-1.86 3.066-2.018 3.118-.158.053-1.47-1.837-2.915-4.2zm107.18 2.551c-2.707-4.447-8.67-13.145-10.998-16.046-1.403-1.748-4.018-4.687-5.81-6.531-1.793-1.845-3.26-3.516-3.26-3.715 0-.2 1.28-1.7 2.843-3.333 4.694-4.905 9.68-11.61 15.308-20.581 1.52-2.423 2.912-4.402 3.092-4.397.181 0 1.034 1.31 1.896 2.903 3.328 6.15 8.52 13.412 14.902 20.845 2.01 2.341 3.655 4.39 3.655 4.553 0 .163-1.377 1.84-3.061 3.726-5.627 6.303-11.094 13.83-15.024 20.685-2.359 4.114-2.232 4.047-3.543 1.892zm-52.439-47.416c-5.624-9.222-11.482-17.08-16.871-22.63-1.742-1.794-3.168-3.354-3.168-3.467 0-.113 1.306-1.64 2.903-3.393 5.317-5.836 9.662-11.675 14.957-20.097 1.723-2.74 3.263-4.98 3.422-4.978.16 0 1.007 1.333 1.883 2.956 3.277 6.076 8.828 13.8 15.342 21.348 1.774 2.057 3.186 3.92 3.136 4.141-.05.22-1.285 1.742-2.743 3.38-3.696 4.15-6.66 7.879-9.488 11.934-2.37 3.398-5.98 9.188-7.127 11.432-.319.623-.713 1.134-.876 1.134-.163 0-.78-.792-1.37-1.76zM51.163 92.967a1435.3 1435.3 0 0 1-2.742-4.424c-2.767-4.474-6.023-9.117-8.973-12.79-2.2-2.74-7.012-7.997-7.94-8.673-1.399-1.02-1.285-1.307 1.81-4.602 5.455-5.803 10.503-12.754 17.838-24.56.222-.357.52-.65.66-.65.142 0 .934 1.268 1.76 2.817 3.188 5.973 8.843 13.883 15.189 21.245 3.322 3.854 3.645 4.326 3.294 4.805-.214.293-1.758 2.074-3.433 3.96-5.413 6.096-9.97 12.382-14.188 19.574-1.208 2.06-2.345 3.796-2.526 3.856-.181.06-.519-.19-.75-.558zm104.49-1.701c-4.234-7.323-10.952-16.346-16.472-22.121-1.693-1.772-3.079-3.302-3.079-3.401 0-.1 1.448-1.77 3.216-3.712 3.83-4.207 9.031-11.039 12.425-16.324 4.848-7.548 5.357-8.296 5.636-8.296.156 0 .884 1.105 1.617 2.455 3.851 7.091 9.296 14.637 16.414 22.75 1.314 1.497 2.388 2.873 2.387 3.058 0 .184-1.06 1.505-2.35 2.935-6.366 7.048-13.717 17.317-17.02 23.778-.341.665-.8 1.21-1.022 1.21-.222 0-1.01-1.05-1.752-2.333zm-140.96-9.295c-1.196-1.787-3.102-4.262-4.235-5.499-2.206-2.407-2.25-2.599-.885-3.82 1.03-.92 4.132-4.994 5.774-7.58.833-1.31 1.628-2.383 1.767-2.383.14 0 .476.357.747.794 1.86 3.002 3.812 5.757 5.578 7.872 1.127 1.35 2.05 2.568 2.05 2.705 0 .138-.634.983-1.41 1.878-1.79 2.065-4.484 5.801-5.601 7.767-.474.834-1.03 1.516-1.236 1.516-.206 0-1.353-1.462-2.549-3.25zm-.713-25.49c-2.213-.618-3.727-1.466-5.148-2.884-2.025-2.02-2.594-3.362-2.58-6.074.016-2.84.85-4.681 2.917-6.444l1.365-1.164-.914-1.039c-1.563-1.776-1.928-2.715-1.913-4.93.011-1.601.174-2.332.78-3.507 3.155-6.123 12.57-6.031 15.946.157.647 1.185.796 1.829.801 3.462.007 2.196-.349 3.138-1.814 4.802l-.9 1.023 1.497 1.432c1.942 1.857 2.616 3.351 2.625 5.81.007 2.213-.476 3.778-1.728 5.592-2.2 3.192-7.032 4.855-10.934 3.764zm5.574-3.874c5.234-2.423 4.685-9.166-.873-10.718-3.837-1.072-7.77.986-8.867 4.641-.795 2.644 1.072 5.352 4.38 6.356 1.391.422 4.156.278 5.36-.279zM18.28 38.383c2.46-.822 3.894-2.682 3.66-4.748-.266-2.362-2.222-4.088-4.953-4.369-2.66-.274-5.403 1.352-6.11 3.621-1.012 3.249 3.687 6.737 7.403 5.496z" fill="#eb8f8f"/><path d="M0 157.44V0h217.76v314.88H0V157.44zm211.69 156.25a9.26 9.26 0 0 0 4.375-4.251l.673-1.35V7.369l-.69-1.525c-.85-1.876-3.017-3.887-4.865-4.515-1.227-.417-10.754-.46-102.58-.457H7.383l-1.448.675c-2.113.984-3.185 2.01-4.182 4L.868 7.313v150.13c0 133.57.049 150.27.44 151.38.862 2.438 2.827 4.32 5.438 5.21 1.432.487 6.454.51 102.42.46l100.91-.053 1.612-.755zm-19.565-21.021c-1.461-.385-3.26-1.43-4.37-2.535-1.539-1.536-2.131-3.048-2.139-5.46-.01-1.773.106-2.214.862-3.403.477-.75 1.063-1.44 1.303-1.531.712-.273.52-.663-1.253-2.554-1.966-2.097-2.495-3.53-2.318-6.278.21-3.269 2.104-6.036 5.227-7.638 2.191-1.124 6.006-1.3 8.434-.387 3.712 1.396 6.56 4.957 6.56 8.203 0 2.7-.695 4.338-2.664 6.272l-1.762 1.73.894.924c4.616 4.767 1.031 12.46-5.962 12.794-1.069.05-2.334-.01-2.812-.137zm4.984-3.531c3.834-1.852 3.89-6.218.104-8.131-2.796-1.413-5.837-.922-7.658 1.237-1.34 1.59-1.357 3.25-.054 5.216 1.438 2.167 4.978 2.948 7.608 1.678zm.379-12.609c4.862-2.48 4.9-8.112.069-10.243-2.946-1.3-5.853-.931-8.081 1.025-1.524 1.338-2.13 2.542-2.13 4.235 0 4.508 5.64 7.279 10.142 4.983zm-146.33 3.918c-.231-.368-1.48-2.382-2.775-4.477-4.523-7.32-9.294-13.55-14.578-19.034-1.712-1.778-3.112-3.323-3.112-3.434 0-.11 1.431-1.783 3.18-3.717 5.39-5.956 10.5-12.947 15.81-21.628.942-1.541 1.865-2.809 2.05-2.816.184-.01.951 1.123 1.704 2.513 3.635 6.709 9.612 14.96 16.31 22.514 1.294 1.46 2.353 2.797 2.353 2.973 0 .176-1.472 1.985-3.271 4.022-5.62 6.36-11.022 13.842-15.023 20.808-.861 1.498-1.714 2.774-1.896 2.834-.182.061-.52-.19-.752-.558zm104.78-1.245c-1.84-3.282-7.83-12.014-10.651-15.525-1.498-1.865-4.186-4.946-5.972-6.848l-3.249-3.458 2.653-2.829c5.14-5.48 9.847-11.776 15.342-20.522 1.623-2.581 3.097-4.69 3.276-4.686.18 0 1.042 1.336 1.918 2.957 3.297 6.104 8.6 13.458 15.32 21.245 1.687 1.956 3.111 3.679 3.164 3.828.053.15-.674 1.084-1.615 2.077-6.127 6.463-12.98 15.855-17.334 23.76-.57 1.032-1.208 1.878-1.418 1.878-.21 0-.856-.845-1.435-1.877zm37.59-21.74c-1.138-1.708-2.994-4.169-4.126-5.47-1.133-1.301-2.059-2.451-2.059-2.556 0-.104.797-1.054 1.772-2.111.974-1.058 2.808-3.482 4.075-5.389 1.267-1.907 2.443-3.466 2.612-3.466.17 0 .82.844 1.447 1.877 1.065 1.756 4.016 5.722 6.055 8.136l.894 1.058-1.943 2.264c-1.868 2.176-5.935 8.014-5.935 8.52 0 .853-.996-.167-2.792-2.864zm-90.273-25.276c-4.686-7.903-10.89-16.224-16.36-21.94-1.609-1.68-2.925-3.238-2.925-3.462 0-.224.534-.92 1.186-1.549 4.671-4.497 11.513-13.602 17.63-23.458 1.01-1.628 1.978-2.96 2.152-2.959.173 0 .826.944 1.45 2.095 3.87 7.129 9.503 14.938 16.599 23.01 1.315 1.497 2.39 2.826 2.39 2.955s-1.163 1.505-2.585 3.058c-5.97 6.522-12.304 15.297-16.383 22.7-.585 1.063-1.217 1.933-1.403 1.933-.186 0-.974-1.072-1.752-2.383zM49.79 185.111c-5.294-8.65-10.47-15.532-15.841-21.059-1.793-1.844-3.26-3.504-3.26-3.688 0-.185 1.297-1.707 2.88-3.384 1.584-1.676 4.07-4.565 5.522-6.421 2.521-3.22 9.238-13.07 11.314-16.59.539-.914 1.133-1.661 1.32-1.661.189 0 1.123 1.397 2.077 3.105 3.55 6.352 8.384 13.076 14.64 20.362 2.01 2.342 3.656 4.405 3.656 4.585 0 .18-.75 1.13-1.665 2.108-5.811 6.21-11.691 14.18-16.316 22.115-1.062 1.82-2.06 3.354-2.219 3.406-.158.053-1.107-1.241-2.108-2.877zm104.98-.877c-4.657-7.686-10.028-14.785-15.627-20.653l-3.098-3.246 2.763-2.964c5.088-5.46 9.496-11.333 14.796-19.72 1.707-2.7 3.268-5.082 3.468-5.291.296-.31.7.227 2.17 2.879 3.908 7.047 9.198 14.265 16.905 23.065.903 1.031 1.642 1.956 1.642 2.054 0 .098-.945 1.205-2.1 2.458-6.135 6.658-12.109 14.823-16.422 22.447-.87 1.538-1.717 2.796-1.882 2.796-.165 0-1.342-1.722-2.616-3.825zm-52.605-47.678c-4.649-7.631-9.768-14.385-15.407-20.327-1.532-1.613-2.785-3.086-2.785-3.271 0-.186 1.302-1.726 2.893-3.422 4.821-5.139 10.367-12.676 15.924-21.644 1.01-1.628 1.977-2.958 2.15-2.954.174 0 .967 1.2 1.763 2.66 3.48 6.374 8.778 13.765 15.172 21.165 1.922 2.225 3.497 4.139 3.5 4.253 0 .115-1.134 1.46-2.527 2.99-5.644 6.199-11.886 14.762-15.83 21.717-.923 1.629-1.827 2.96-2.01 2.958-.182 0-1.461-1.858-2.842-4.125zm54.678-43.599c-.228-.362-1.46-2.349-2.737-4.414-2.652-4.29-5.981-9.06-8.67-12.422-2.295-2.872-8.46-9.678-8.765-9.678-.124 0-.303-.2-.396-.444-.115-.297.78-1.451 2.703-3.486 4.846-5.128 10.626-12.966 16.227-22.003 1.012-1.633 1.977-2.923 2.145-2.867.168.056 1.118 1.552 2.11 3.324 3.516 6.274 8.31 12.917 14.719 20.389 2.26 2.637 3.555 4.372 3.424 4.591-.116.194-1.236 1.472-2.49 2.841-5.305 5.795-11.857 14.8-15.687 21.562-.923 1.63-1.789 3.032-1.923 3.115-.135.083-.432-.146-.66-.508zm-106.29-1.165c-4.065-7.289-11.158-16.835-17.035-22.925-1.553-1.609-2.823-3.018-2.823-3.131 0-.114 1.163-1.463 2.586-3 5.155-5.567 9.641-11.566 15.072-20.156 1.68-2.66 3.203-4.884 3.382-4.943.179-.06.902.97 1.608 2.288 3.636 6.795 9.249 14.575 16.37 22.691 1.314 1.498 2.389 2.875 2.389 3.06 0 .187-1.063 1.508-2.363 2.937-3.22 3.541-7.476 8.882-10.128 12.708-2.318 3.345-7.2 11.302-7.2 11.734 0 .14-.227.253-.506.253-.31 0-.834-.587-1.352-1.516zm-35.427-9.4c-.998-1.55-2.757-3.903-3.91-5.23-1.151-1.327-2.211-2.573-2.355-2.769-.18-.243.352-1.07 1.695-2.635 1.076-1.255 2.935-3.743 4.13-5.53 1.196-1.788 2.335-3.25 2.53-3.25.196 0 .504.324.686.721.64 1.401 3.12 4.94 5.344 7.624 1.958 2.364 2.202 2.782 1.882 3.215-.203.274-1.128 1.392-2.056 2.485-1.453 1.711-3.42 4.503-5.218 7.403-.27.437-.587.792-.703.788-.115 0-1.027-1.274-2.025-2.823zm-1.722-26.173c-2.836-.923-5.382-3.077-6.475-5.48-.638-1.401-.735-4.288-.203-6.072.228-.764.952-1.804 2.027-2.91.92-.946 1.673-1.864 1.673-2.04 0-.176-.389-.691-.864-1.145-1.264-1.209-1.836-2.941-1.689-5.12.145-2.132.823-3.684 2.219-5.077 1.664-1.66 3.261-2.227 6.27-2.225 2.262 0 2.797.102 4.053.768 1.818.962 3.415 2.6 4.177 4.283 1.13 2.496.58 5.814-1.243 7.489-.419.385-.762.822-.762.972 0 .15.715 1.042 1.588 1.983 1.904 2.052 2.631 4.054 2.374 6.54-.327 3.162-2.652 6.31-5.648 7.649-1.708.763-5.706.968-7.497.385zm6.48-3.68c3.85-1.975 4.656-6.569 1.62-9.228-1.456-1.275-2.825-1.78-4.853-1.79-2.048-.01-3.66.6-5.02 1.9-2.704 2.585-2.76 6.211-.127 8.214 2.464 1.875 5.79 2.235 8.38.905zm.089-14.8c1.673-1.103 2.474-2.89 2.032-4.53-.4-1.483-2.045-3.32-3.362-3.753a6.625 6.625 0 0 0-6.89 1.712c-.659.691-.871 1.221-.967 2.41-.161 2.006.639 3.24 2.825 4.36 2.124 1.087 4.53 1.012 6.362-.198z" fill="#e66f6f"/><path d="M0 157.44V0h217.76v314.88H0V157.44zm211.69 156.25a9.26 9.26 0 0 0 4.375-4.251l.673-1.35V7.369l-.69-1.525c-.85-1.876-3.017-3.887-4.865-4.515-1.227-.417-10.754-.46-102.58-.457H7.383l-1.448.675c-2.113.984-3.185 2.01-4.182 4L.868 7.313v150.13c0 133.57.049 150.27.44 151.38.862 2.438 2.827 4.32 5.438 5.21 1.432.487 6.454.51 102.42.46l100.91-.053 1.612-.755zm-19.031-21.06c-3.82-.78-6.652-3.697-6.968-7.176-.197-2.169.268-3.561 1.71-5.123l1.137-1.23-1.542-1.539c-2.143-2.138-2.68-3.346-2.678-6.016 0-1.581.164-2.522.605-3.481 2.886-6.286 11.27-7.687 16.545-2.766 2.063 1.925 2.824 3.6 2.79 6.138-.037 2.596-.79 4.243-2.745 5.996-.783.703-1.425 1.353-1.425 1.445 0 .092.515.845 1.143 1.673 2.48 3.269 2.137 7.045-.906 9.974-1.817 1.748-5.057 2.638-7.666 2.105zm3.26-2.923c1.928-.484 3.875-2.353 4.081-3.917.207-1.572-.028-2.44-.962-3.546-1.897-2.25-5.466-2.855-8.017-1.36-1.737 1.02-2.513 2.24-2.513 3.95 0 2.14 1.715 4.198 4.051 4.86 1.38.391 1.849.393 3.36.013zm1.44-12.904c2.34-1.203 3.888-3.491 3.886-5.748 0-5.436-8.932-7.637-12.662-3.122-3.478 4.21.146 9.963 6.024 9.564.888-.06 2.126-.372 2.751-.694zm-147.06 2.037c-4.532-7.83-10.662-16.014-16.976-22.665l-2.663-2.805 2.66-2.819c5.028-5.328 9.828-11.75 15.343-20.527 1.621-2.58 3.044-4.63 3.163-4.558.118.073 1.037 1.6 2.043 3.39 3.5 6.238 8.466 13.076 15.023 20.68 1.686 1.957 3.105 3.668 3.153 3.804.05.136-1.096 1.539-2.544 3.117-3.193 3.481-6.168 7.173-9.23 11.455-2.307 3.228-6.375 9.677-7.537 11.947-.343.672-.74 1.22-.882 1.22-.142 0-.841-1.007-1.554-2.238zm106.55 1.598c-.229-.362-1.475-2.373-2.77-4.468-4.539-7.345-9.387-13.676-14.577-19.038-1.713-1.769-3.113-3.314-3.113-3.435 0-.12 1.15-1.47 2.558-3 5.232-5.691 9.314-11.136 14.677-19.577 1.702-2.68 3.258-5.043 3.456-5.252.293-.31.7.228 2.154 2.853 3.422 6.17 8.061 12.652 14.121 19.728 1.885 2.2 3.61 4.29 3.834 4.642.385.609.234.838-2.909 4.407-5.729 6.505-11.475 14.476-15.128 20.986-.778 1.386-1.521 2.587-1.652 2.667-.131.081-.425-.15-.653-.512zm37.553-21.964c-1.688-2.632-3.566-5.086-5.531-7.224l-1.529-1.664 2.136-2.525c1.175-1.389 3.07-3.923 4.21-5.63 1.14-1.708 2.124-3.106 2.184-3.106.061 0 .53.748 1.04 1.661 1.054 1.886 3.477 5.216 5.545 7.622.77.896 1.4 1.769 1.4 1.94 0 .172-.6.987-1.334 1.81-1.719 1.931-4.058 5.116-5.438 7.405-.599.993-1.145 1.806-1.214 1.806-.07 0-.73-.943-1.469-2.095zm-91.333-26.866c-2.716-4.435-6.765-10.36-9.315-13.63-2.334-2.995-8.87-10.275-9.225-10.275-.11 0-.28-.209-.378-.464-.123-.321.617-1.328 2.39-3.25 5.142-5.574 9.84-11.868 15.233-20.407 1.404-2.225 2.716-4.22 2.915-4.435.296-.32.666.154 2.037 2.6 3.727 6.654 8.422 13.207 14.715 20.536 2.01 2.341 3.655 4.394 3.655 4.562 0 .167-1.512 2.016-3.36 4.107-5.513 6.239-11.03 13.899-14.877 20.66-.838 1.472-1.626 2.74-1.75 2.816-.124.077-1.042-1.192-2.04-2.821zm53.648-44.435c-1.04-1.87-5.415-8.635-7.513-11.616-2.7-3.836-6.417-8.314-10.07-12.13-1.522-1.59-2.73-2.999-2.684-3.13.046-.13 1.434-1.73 3.086-3.554 1.652-1.824 4.103-4.721 5.447-6.438 2.51-3.205 8.092-11.38 10.662-15.615.795-1.31 1.533-2.383 1.639-2.383.106 0 1.01 1.463 2.007 3.25 3.522 6.305 8.594 13.318 15.006 20.751 1.765 2.045 3.21 3.863 3.21 4.04 0 .177-.926 1.317-2.057 2.534-5.676 6.108-11.407 13.964-16.312 22.362-.905 1.55-1.709 2.817-1.787 2.817-.078 0-.363-.4-.634-.887zm-105.55-.034a1539.63 1539.63 0 0 1-2.744-4.423c-4.501-7.274-9.566-13.861-14.93-19.42l-2.855-2.958 2.53-2.677c4.944-5.23 9.717-11.586 15.194-20.23 1.786-2.818 3.331-5.12 3.434-5.116.104 0 1.031 1.515 2.061 3.358 3.398 6.081 7.68 12.093 13.514 18.977 1.73 2.04 3.52 4.158 3.977 4.705l.833.994-1.484 1.65c-7.08 7.876-12.442 15.139-16.882 22.864-.861 1.498-1.715 2.773-1.897 2.834-.182.06-.52-.19-.751-.558zm53.301-47.074c-6.949-11.396-11.273-17.267-17.226-23.389-1.793-1.844-3.26-3.44-3.26-3.546 0-.105 1.442-1.781 3.206-3.724C92.22 103.862 97.407 96.82 102.5 88.61c1.16-1.87 2.21-3.46 2.333-3.537.123-.076 1.117 1.445 2.21 3.38 3.553 6.299 8.86 13.616 15.012 20.7 1.674 1.928 3.043 3.645 3.043 3.818 0 .172-1.452 1.96-3.227 3.975-5.64 6.399-9.556 11.753-13.983 19.117-1.385 2.304-2.628 4.3-2.762 4.436-.134.136-.43-.06-.658-.433zm-54.956-50.26c-4.729-7.81-9.397-14.025-15.432-20.547l-3.426-3.703 2.285-2.373c2.95-3.063 4.957-5.427 7.703-9.072 2.304-3.059 7.593-10.941 9.605-14.314.638-1.068 1.31-1.944 1.496-1.947.185 0 1.018 1.256 1.85 2.796 3.103 5.742 8.917 13.793 15.32 21.214 2.01 2.33 3.141 3.866 3.01 4.087-.117.194-1.238 1.473-2.492 2.842-5.304 5.794-11.857 14.8-15.685 21.56-.922 1.629-1.774 2.961-1.894 2.961-.119 0-1.172-1.577-2.339-3.504zm106.66 1.778c-5.423-8.93-11.322-16.849-16.799-22.551-2.245-2.337-3.014-3.319-2.816-3.592.15-.206 1.623-1.853 3.273-3.658 4.746-5.192 9.846-12.142 15.078-20.548 1.164-1.87 2.216-3.461 2.339-3.537.123-.076.977 1.236 1.898 2.915 3.418 6.227 8.7 13.584 15.021 20.92 1.848 2.145 3.325 4.054 3.281 4.243-.043.19-1.272 1.684-2.731 3.322-5.734 6.439-9.985 12.216-14.415 19.59-1.384 2.303-2.632 4.305-2.773 4.448-.15.152-.712-.492-1.356-1.552zm-140.89-9.18c-1.588-2.45-2.787-4.01-5.35-6.965l-1.23-1.416 1.519-1.701c1.725-1.934 3.918-4.89 5.59-7.537.627-.991 1.223-1.804 1.324-1.805.101 0 .726.907 1.387 2.018 1.286 2.158 3.398 5.022 5.431 7.363.688.792 1.25 1.547 1.25 1.678 0 .13-.792 1.173-1.761 2.316-1.831 2.159-5.767 7.826-5.767 8.304 0 .862-.956-.038-2.393-2.255zm-1.155-26.096c-4.19-.985-7.735-4.885-7.742-8.517-.005-2.642.702-4.3 2.648-6.211l1.748-1.718-.934-1.062c-2.588-2.94-2.642-6.91-.134-9.833 3.011-3.51 8.962-3.78 12.753-.58 2.54 2.143 3.364 6.27 1.787 8.947-.443.752-1.062 1.504-1.375 1.671-.866.463-.705.898.912 2.462 1.953 1.888 2.623 3.398 2.623 5.91 0 6.012-6.038 10.4-12.286 8.931zm5.437-3.404c5.766-2.613 4.907-10.056-1.31-11.35-2.16-.448-4.03-.12-5.703 1.002-2.28 1.529-3.512 3.983-3.099 6.178.28 1.489 2.13 3.398 3.98 4.108 1.923.738 4.581.765 6.132.062zM18.109 38.68c1.43-.39 2.911-1.478 3.643-2.676 1.95-3.19-1.807-7.584-5.996-7.011-4.239.58-6.374 4.082-4.434 7.272.608 1.001 2.276 2.026 3.925 2.412 1.536.36 1.552.36 2.862 0z" fill="#929292"/><path d="M0 157.44V0h217.76v314.88H0V157.44zm212.14 156.22c1.848-.972 3.687-3.022 4.286-4.775.413-1.209.456-15.59.456-151.43V7.365l-.824-1.736c-.917-1.934-2.394-3.386-4.373-4.3L210.367.72H7.087l-1.303.68c-1.775.928-3.372 2.5-4.296 4.23L.717 7.077v150.36c0 129.73.057 150.5.414 151.37 1.088 2.657 3.084 4.573 5.572 5.35 1.045.326 18.099.382 102.6.337l101.35-.054 1.483-.781zm-19.482-21.033c-3.82-.78-6.652-3.697-6.968-7.176-.197-2.169.268-3.561 1.71-5.123l1.137-1.23-1.542-1.539c-2.143-2.138-2.68-3.346-2.678-6.016 0-1.581.164-2.522.605-3.481 2.886-6.286 11.27-7.687 16.545-2.766 2.063 1.925 2.824 3.6 2.79 6.138-.037 2.596-.79 4.243-2.745 5.996-.783.703-1.425 1.353-1.425 1.445 0 .092.515.845 1.143 1.673 2.48 3.269 2.137 7.045-.906 9.974-1.817 1.748-5.057 2.638-7.666 2.105zm3.26-2.923c1.928-.484 3.875-2.353 4.081-3.917.207-1.572-.028-2.44-.962-3.546-1.897-2.25-5.466-2.855-8.017-1.36-1.737 1.02-2.513 2.24-2.513 3.95 0 2.14 1.715 4.198 4.051 4.86 1.38.391 1.849.393 3.36.013zm1.44-12.904c2.34-1.203 3.888-3.491 3.886-5.748 0-5.436-8.932-7.637-12.662-3.122-3.478 4.21.146 9.963 6.025 9.564.887-.06 2.125-.372 2.75-.694zm-147.06 2.037c-4.532-7.83-10.662-16.014-16.976-22.665l-2.663-2.805 2.66-2.819c5.028-5.328 9.828-11.75 15.343-20.527 1.621-2.58 3.044-4.63 3.163-4.558.118.073 1.037 1.6 2.043 3.39 3.5 6.238 8.467 13.076 15.023 20.68 1.686 1.957 3.105 3.668 3.154 3.804.048.136-1.097 1.539-2.545 3.118-3.193 3.48-6.168 7.173-9.23 11.455-2.307 3.227-6.375 9.676-7.537 11.946-.343.672-.74 1.22-.882 1.22-.142 0-.841-1.007-1.554-2.238zm106.55 1.598c-.229-.362-1.475-2.373-2.77-4.468-4.539-7.345-9.387-13.676-14.577-19.038-1.713-1.769-3.113-3.314-3.113-3.435 0-.12 1.15-1.47 2.558-3 5.232-5.691 9.314-11.136 14.677-19.577 1.702-2.68 3.258-5.043 3.456-5.252.293-.31.7.228 2.154 2.853 3.422 6.17 8.061 12.652 14.121 19.728 1.885 2.2 3.61 4.29 3.834 4.642.386.609.234.838-2.909 4.407-5.729 6.505-11.475 14.476-15.128 20.986-.778 1.386-1.521 2.587-1.652 2.667-.131.081-.425-.15-.653-.512zm37.553-21.964c-1.688-2.632-3.566-5.086-5.531-7.224l-1.529-1.664 2.136-2.525c1.175-1.389 3.07-3.923 4.21-5.63 1.14-1.708 2.124-3.106 2.184-3.106.061 0 .53.748 1.04 1.661 1.054 1.886 3.477 5.216 5.545 7.622.77.896 1.4 1.769 1.4 1.94 0 .172-.6.987-1.334 1.81-1.719 1.931-4.058 5.116-5.438 7.405-.599.993-1.145 1.806-1.214 1.806-.07 0-.73-.943-1.469-2.095zm-91.333-26.866c-2.716-4.435-6.765-10.36-9.315-13.63-2.334-2.995-8.87-10.275-9.225-10.275-.11 0-.28-.209-.378-.464-.123-.321.617-1.328 2.39-3.25 5.142-5.574 9.84-11.868 15.233-20.407 1.404-2.225 2.716-4.22 2.915-4.435.296-.32.666.154 2.037 2.6 3.727 6.654 8.422 13.207 14.715 20.536 2.01 2.341 3.655 4.394 3.655 4.562 0 .167-1.512 2.016-3.36 4.107-5.513 6.239-11.03 13.899-14.877 20.66-.838 1.472-1.626 2.74-1.75 2.816-.124.077-1.042-1.192-2.04-2.821zm53.648-44.435c-1.04-1.87-5.415-8.635-7.513-11.616-2.7-3.836-6.417-8.314-10.07-12.13-1.522-1.59-2.73-2.999-2.684-3.13.046-.13 1.434-1.73 3.086-3.554 1.652-1.824 4.103-4.721 5.447-6.438 2.51-3.205 8.092-11.38 10.662-15.615.795-1.31 1.533-2.383 1.639-2.383.106 0 1.01 1.463 2.008 3.25 3.521 6.305 8.593 13.318 15.006 20.751 1.764 2.045 3.208 3.863 3.208 4.04 0 .177-.925 1.317-2.056 2.534-5.676 6.108-11.407 13.964-16.312 22.362-.905 1.55-1.709 2.817-1.787 2.817-.078 0-.363-.4-.634-.887zm-105.55-.034a1539.63 1539.63 0 0 1-2.744-4.423c-4.501-7.274-9.566-13.861-14.93-19.42l-2.855-2.958 2.53-2.677c4.944-5.23 9.717-11.586 15.194-20.23 1.786-2.818 3.331-5.12 3.434-5.116.104 0 1.031 1.515 2.061 3.358 3.398 6.081 7.68 12.093 13.514 18.977 1.73 2.04 3.52 4.158 3.977 4.705l.833.994-1.484 1.65c-7.08 7.876-12.442 15.139-16.882 22.864-.861 1.498-1.715 2.773-1.897 2.834-.182.06-.52-.19-.751-.558zm53.301-47.074c-6.949-11.396-11.273-17.267-17.226-23.389-1.793-1.844-3.26-3.44-3.26-3.546 0-.105 1.442-1.781 3.206-3.724 5.033-5.544 10.219-12.586 15.313-20.797 1.16-1.87 2.21-3.46 2.333-3.537.123-.076 1.117 1.445 2.21 3.38 3.553 6.299 8.86 13.616 15.012 20.7 1.674 1.928 3.043 3.645 3.043 3.818 0 .172-1.452 1.96-3.227 3.975-5.64 6.399-9.556 11.753-13.983 19.117-1.385 2.304-2.628 4.3-2.762 4.436-.134.136-.43-.06-.658-.433zm-54.956-50.26c-4.729-7.81-9.397-14.025-15.432-20.547l-3.426-3.703 2.285-2.373c2.95-3.063 4.957-5.427 7.703-9.072 2.304-3.059 7.593-10.941 9.605-14.314.638-1.068 1.31-1.944 1.496-1.947.185 0 1.018 1.256 1.85 2.796 3.103 5.742 8.917 13.793 15.32 21.214 2.01 2.33 3.141 3.866 3.01 4.087-.117.194-1.238 1.473-2.492 2.842-5.304 5.794-11.857 14.8-15.685 21.56-.922 1.629-1.774 2.961-1.894 2.961-.119 0-1.172-1.577-2.339-3.504zm106.66 1.778c-5.423-8.93-11.322-16.849-16.799-22.551-2.245-2.337-3.014-3.319-2.816-3.592.15-.206 1.623-1.853 3.273-3.658 4.746-5.192 9.846-12.142 15.078-20.548 1.164-1.87 2.216-3.461 2.339-3.537.123-.076.977 1.236 1.898 2.915 3.418 6.227 8.7 13.584 15.021 20.92 1.848 2.145 3.325 4.054 3.281 4.243-.043.19-1.272 1.684-2.731 3.322-5.734 6.439-9.985 12.216-14.415 19.59-1.384 2.303-2.632 4.305-2.773 4.448-.15.152-.712-.492-1.356-1.552zM15.281 82.4c-1.588-2.45-2.787-4.01-5.35-6.965L8.7 74.02l1.519-1.701c1.725-1.934 3.918-4.89 5.59-7.537.627-.991 1.223-1.804 1.324-1.805.101 0 .726.907 1.387 2.018 1.286 2.158 3.398 5.022 5.431 7.363.688.792 1.25 1.547 1.25 1.678 0 .13-.792 1.173-1.761 2.316-1.831 2.159-5.767 7.826-5.767 8.304 0 .862-.956-.038-2.393-2.255zm-1.155-26.096c-4.19-.985-7.735-4.885-7.742-8.517-.005-2.642.702-4.3 2.648-6.211l1.748-1.718-.934-1.062c-2.588-2.94-2.642-6.91-.134-9.833 3.011-3.51 8.962-3.78 12.753-.58 2.54 2.143 3.364 6.27 1.787 8.947-.443.752-1.062 1.504-1.375 1.671-.866.463-.705.898.912 2.462 1.953 1.888 2.623 3.398 2.623 5.91 0 6.012-6.038 10.4-12.286 8.931zm5.437-3.404c5.766-2.613 4.907-10.056-1.31-11.35-2.16-.448-4.03-.12-5.703 1.002-2.28 1.529-3.511 3.983-3.099 6.178.28 1.489 2.13 3.398 3.98 4.108 1.923.738 4.581.765 6.132.062zm-1.455-14.222c1.43-.39 2.911-1.478 3.644-2.676 1.95-3.19-1.808-7.584-5.997-7.011-4.238.58-6.374 4.082-4.434 7.272.608 1.001 2.276 2.026 3.925 2.412 1.536.36 1.552.36 2.862 0z" fill="#e14f4f"/><path d="M0 157.44V0h217.76v314.88H0V157.44zm212.14 156.22c1.848-.972 3.687-3.022 4.286-4.775.413-1.209.456-15.59.456-151.43V7.365l-.824-1.736c-.917-1.934-2.394-3.386-4.373-4.3L210.367.72H7.087l-1.303.68c-1.775.928-3.372 2.5-4.296 4.23L.717 7.077v150.36c0 129.73.057 150.5.414 151.37 1.088 2.657 3.084 4.573 5.572 5.35 1.045.326 18.099.382 102.6.337l101.35-.054 1.483-.781zm-20.16-21.282c-2.514-.825-4.82-2.78-5.668-4.802-.62-1.48-.632-4.372-.025-5.544.254-.488.856-1.26 1.34-1.715.483-.456.879-.942.879-1.081 0-.14-.754-1.057-1.675-2.039-1.853-1.976-2.38-3.239-2.38-5.708 0-2.272.72-4.07 2.336-5.833 1.968-2.149 4.192-3.118 7.168-3.123 5.64-.01 10.186 3.879 10.186 8.712 0 2.542-.717 4.175-2.663 6.063l-1.772 1.719 1.053 1.162c1.337 1.477 1.935 2.906 1.935 4.626 0 4.384-3.199 7.5-7.913 7.709-1.143.05-2.403-.015-2.801-.146zm4.455-2.702c1.568-.468 3.556-2.445 3.808-3.79.396-2.107-.865-4.205-3.173-5.277-2.738-1.272-5.73-.71-7.612 1.426-1.201 1.366-1.457 2.73-.822 4.39 1.111 2.9 4.388 4.267 7.799 3.25zm.904-12.746a7.327 7.327 0 0 0 3.765-4.054c1.002-2.619-.207-5.158-3.179-6.674-1.421-.725-2.046-.87-3.753-.87-1.75 0-2.274.128-3.609.884-.871.493-1.959 1.43-2.461 2.122-.795 1.095-.9 1.467-.9 3.186 0 1.648.121 2.12.79 3.083 1.93 2.779 6.123 3.82 9.347 2.323zm-148.04.029c-4.726-7.74-9.757-14.397-14.915-19.734-1.871-1.937-3.402-3.608-3.402-3.714 0-.106 1.289-1.609 2.864-3.34 5.256-5.772 9.023-10.813 14.417-19.287 1.846-2.9 3.436-5.272 3.534-5.272.098 0 .568.748 1.045 1.661 3.379 6.476 8.899 14.205 16 22.406 1.633 1.885 2.969 3.547 2.969 3.693 0 .146-1.301 1.727-2.891 3.513-5.55 6.234-11.906 15.025-15.46 21.38-.775 1.387-1.503 2.522-1.616 2.522-.114 0-1.26-1.722-2.544-3.827zm106.95 2.31c-1.41-2.543-6.694-10.461-9.067-13.586a102.221 102.221 0 0 0-8.555-9.921l-2.302-2.348 3.065-3.285c1.686-1.807 4.184-4.716 5.55-6.463 2.549-3.26 8.128-11.43 10.702-15.672.796-1.311 1.528-2.383 1.628-2.383.1 0 .967 1.397 1.927 3.105 3.961 7.05 8.513 13.29 15.805 21.67l2.581 2.968-.546.64c-.3.354-1.379 1.554-2.396 2.667-4.82 5.278-9.93 12.205-14.163 19.2-1.582 2.615-2.992 4.792-3.132 4.839-.141.047-.635-.598-1.097-1.432zm37.555-21.825c-.988-1.54-2.79-3.948-4.002-5.35l-2.206-2.548.673-.814c3.23-3.909 4.415-5.474 5.768-7.624.86-1.368 1.645-2.489 1.743-2.492.099 0 .668.829 1.266 1.849 1.073 1.83 3.573 5.216 5.758 7.799l1.121 1.326-1.175 1.272c-1.52 1.644-4.332 5.432-5.69 7.663-.587.963-1.155 1.744-1.263 1.735-.108-.01-1.005-1.276-1.993-2.816zm-89.375-23.816a1548.82 1548.82 0 0 1-2.762-4.46c-4.47-7.23-9.267-13.51-14.433-18.889-1.633-1.7-2.968-3.248-2.968-3.442 0-.194 1.215-1.628 2.7-3.186 1.484-1.558 3.906-4.371 5.38-6.252 2.648-3.378 8.934-12.57 11.177-16.342.636-1.07 1.242-1.947 1.346-1.95.104 0 1.066 1.522 2.137 3.39 4.2 7.32 9.409 14.391 16.422 22.294.916 1.032 1.665 1.966 1.665 2.076 0 .11-1.057 1.35-2.349 2.755-5.87 6.387-12.82 16.006-16.538 22.891-.521.965-1.042 1.756-1.158 1.759-.116 0-.394-.288-.619-.645zm-53.91-47.7c-1.736-3.098-7.765-11.926-10.358-15.167-1.334-1.669-3.962-4.696-5.839-6.727l-3.413-3.693 2.27-2.486c3.475-3.802 4.601-5.15 7.424-8.875 2.346-3.097 8.092-11.634 10.115-15.027.434-.728.89-1.321 1.013-1.317.123 0 1.071 1.523 2.107 3.376 3.381 6.053 8.768 13.477 14.91 20.55 1.673 1.927 3.043 3.65 3.043 3.827 0 .177-.93 1.316-2.068 2.53-5.52 5.897-12.165 15.032-16.472 22.646-.696 1.232-1.36 2.24-1.473 2.24-.114 0-.68-.845-1.259-1.877zm106.3 1.235c-.228-.362-1.474-2.373-2.769-4.468-4.532-7.334-9.293-13.548-14.608-19.066l-3.142-3.263 2.528-2.675c4.933-5.22 9.957-11.913 15.24-20.304 1.648-2.616 3.08-4.757 3.182-4.757.103-.001.94 1.33 1.86 2.96 4.127 7.305 10.847 16.372 17.865 24.106l.576.636-3.361 3.798c-5.7 6.44-11.386 14.321-15.066 20.878-.778 1.386-1.522 2.587-1.652 2.667-.131.081-.425-.15-.653-.512zm-52.417-47.385c-.225-.357-1.454-2.34-2.732-4.405-4.438-7.17-9.531-13.814-14.752-19.241-1.474-1.532-2.68-2.969-2.68-3.194 0-.225.663-1.054 1.474-1.842 4.748-4.621 12.497-15.032 17.783-23.892.637-1.068 1.248-1.944 1.359-1.947.11 0 .947 1.328 1.859 2.956 3.61 6.446 8.644 13.431 14.832 20.582 1.925 2.225 3.505 4.143 3.51 4.264.01.12-.9 1.2-2.015 2.4-5.866 6.312-11.907 14.538-16.073 21.888-.955 1.684-1.83 3.066-1.946 3.071-.116 0-.394-.284-.619-.641zm-54.349-49.24c-5.398-8.96-11.608-17.127-17.19-22.609-1.047-1.028-1.904-1.983-1.904-2.122 0-.14 1.057-1.378 2.348-2.753 4.999-5.322 10.227-12.319 15.5-20.74 1.528-2.44 2.86-4.433 2.961-4.428.102 0 .89 1.31 1.751 2.903 3.585 6.625 10.192 15.644 16.876 23.038.766.847 1.392 1.67 1.392 1.827 0 .158-1.452 1.935-3.227 3.949C62.92 76 59.006 81.353 54.576 88.72c-1.386 2.304-2.626 4.227-2.756 4.274-.13.047-.926-1.058-1.767-2.456zm105.88.56c-1.94-3.352-6.946-10.778-9.296-13.789-2.465-3.158-4.95-6.018-8.17-9.4l-2.087-2.193 2.52-2.731c5.71-6.183 10.142-12.171 16.39-22.144.921-1.469 1.777-2.734 1.903-2.811.125-.077 1.019 1.283 1.985 3.024 3.708 6.679 8.428 13.16 15.612 21.437 1.476 1.7 2.683 3.161 2.683 3.247 0 .086-.994 1.23-2.208 2.542-5.369 5.798-12.815 16.014-16.323 22.394-.717 1.304-1.434 2.37-1.593 2.369-.16 0-.796-.876-1.415-1.945zM15.713 82.87c-1.598-2.498-4.609-6.382-5.864-7.565-.495-.467-.9-.96-.9-1.095 0-.136.854-1.225 1.898-2.419s2.815-3.561 3.935-5.26c1.12-1.698 2.14-3.126 2.266-3.173.126-.047.591.539 1.034 1.3 1.197 2.059 3.234 4.862 5.281 7.267l1.819 2.136-.66.797c-3.245 3.92-4.487 5.571-5.773 7.67-.82 1.34-1.538 2.436-1.594 2.436-.056 0-.705-.942-1.442-2.094zm-3.078-27.204c-4.317-1.771-6.649-5.333-6.016-9.19.377-2.302 1.014-3.493 2.655-4.965.777-.697 1.413-1.452 1.413-1.678 0-.226-.339-.726-.753-1.111-3.616-3.368-1.937-9.973 3.009-11.834 3.298-1.242 7.482-.355 9.816 2.08 2.681 2.797 2.81 7.421.272 9.754-1.031.947-.963 1.383.398 2.546.638.545 1.518 1.597 1.955 2.338.687 1.167.794 1.66.794 3.66 0 1.947-.128 2.57-.813 3.961-.996 2.025-2.917 3.766-5.019 4.55-2.257.843-5.5.796-7.71-.111zm5.947-2.3c3.59-1.077 5.679-4.291 4.838-7.44-.436-1.635-2.552-3.726-4.296-4.248-3.79-1.132-7.39.225-9.148 3.448-1.89 3.463.057 7.06 4.46 8.246 1.753.471 2.561.47 4.147-.01zm-.048-14.663c2.345-.783 3.735-2.495 3.735-4.6 0-4.026-4.784-6.448-8.832-4.472-3.575 1.745-4.06 5.73-.978 8.026 1.666 1.241 4.19 1.676 6.075 1.046z" fill="#6b6b6b"/><path d="M0 157.44V0h217.76v314.88H0V157.44zM212.34 313.9c1.734-.86 3.559-2.871 4.232-4.666l.599-1.597v-150.01c0-136.44-.042-150.13-.461-151.36-.615-1.8-2.787-4.162-4.6-5.005l-1.454-.675h-101.93c-99.718 0-101.95.015-103.14.555-1.6.725-3.558 2.706-4.363 4.416L.58 6.927l.006 150.72c.006 145.92.023 150.76.54 151.9 1.023 2.244 3.3 4.272 5.349 4.761.5.12 46.776.198 102.84.174 99.425-.043 101.95-.057 103.03-.591zm-20.361-21.516c-2.514-.825-4.82-2.78-5.668-4.802-.62-1.48-.632-4.372-.024-5.544.253-.488.855-1.26 1.339-1.715.483-.456.879-.942.879-1.081 0-.14-.754-1.057-1.675-2.039-1.853-1.976-2.38-3.239-2.38-5.708 0-2.272.72-4.07 2.336-5.833 1.968-2.149 4.192-3.118 7.168-3.123 5.64-.01 10.186 3.879 10.186 8.712 0 2.542-.717 4.175-2.663 6.063l-1.772 1.719 1.053 1.162c1.337 1.477 1.935 2.906 1.935 4.626 0 4.384-3.199 7.5-7.913 7.709-1.143.05-2.403-.015-2.801-.146zm4.455-2.702c1.568-.468 3.556-2.445 3.808-3.79.397-2.107-.865-4.205-3.173-5.277-2.738-1.272-5.73-.71-7.612 1.426-1.201 1.366-1.457 2.73-.822 4.39 1.111 2.9 4.389 4.267 7.799 3.25zm.904-12.746a7.327 7.327 0 0 0 3.765-4.054c1.002-2.619-.207-5.158-3.179-6.674-1.421-.725-2.046-.87-3.753-.87-1.75 0-2.274.128-3.609.884-.871.493-1.959 1.43-2.461 2.122-.795 1.095-.9 1.467-.9 3.186 0 1.648.121 2.12.79 3.083 1.93 2.779 6.123 3.82 9.347 2.323zm-148.04.029c-4.726-7.74-9.757-14.397-14.915-19.734-1.871-1.937-3.402-3.608-3.402-3.714 0-.106 1.289-1.609 2.864-3.34 5.256-5.772 9.023-10.813 14.417-19.287 1.846-2.9 3.436-5.272 3.534-5.272.098 0 .568.748 1.045 1.661 3.379 6.476 8.899 14.205 16 22.406 1.633 1.885 2.969 3.547 2.969 3.693 0 .146-1.301 1.727-2.891 3.513-5.55 6.234-11.906 15.025-15.46 21.38-.775 1.387-1.503 2.522-1.616 2.522-.114 0-1.26-1.722-2.544-3.827zm106.95 2.31c-1.41-2.543-6.694-10.461-9.067-13.586a102.221 102.221 0 0 0-8.555-9.921l-2.302-2.348 3.065-3.285c1.686-1.807 4.184-4.716 5.55-6.463 2.549-3.26 8.128-11.43 10.702-15.672.796-1.311 1.528-2.383 1.628-2.383.1 0 .967 1.397 1.927 3.105 3.961 7.05 8.513 13.29 15.805 21.67l2.581 2.968-.546.64c-.3.354-1.379 1.554-2.396 2.667-4.82 5.278-9.93 12.205-14.163 19.2-1.582 2.615-2.992 4.792-3.132 4.839-.141.047-.635-.598-1.097-1.432zm37.555-21.825c-.988-1.54-2.79-3.948-4.002-5.35l-2.206-2.548.673-.814c3.23-3.909 4.415-5.474 5.768-7.624.86-1.368 1.645-2.489 1.743-2.492.099 0 .668.829 1.266 1.849 1.073 1.83 3.573 5.216 5.758 7.799l1.121 1.326-1.175 1.272c-1.52 1.644-4.332 5.432-5.69 7.663-.587.963-1.155 1.744-1.263 1.735-.108-.01-1.005-1.276-1.993-2.816zm-89.375-23.816a1548.82 1548.82 0 0 1-2.762-4.46c-4.47-7.23-9.267-13.51-14.433-18.889-1.633-1.7-2.968-3.248-2.968-3.442 0-.194 1.215-1.628 2.7-3.186 1.484-1.558 3.906-4.371 5.38-6.252 2.648-3.378 8.934-12.57 11.177-16.342.636-1.07 1.242-1.947 1.346-1.95.104 0 1.066 1.522 2.137 3.39 4.2 7.32 9.409 14.391 16.422 22.294.916 1.032 1.665 1.966 1.665 2.076 0 .11-1.057 1.35-2.349 2.755-5.87 6.387-12.82 16.006-16.538 22.891-.521.965-1.042 1.756-1.158 1.759-.116 0-.394-.288-.619-.645zm-53.91-47.8c-1.736-3.098-7.765-11.926-10.358-15.167-1.334-1.669-3.962-4.696-5.839-6.727l-3.413-3.693 2.27-2.486c3.475-3.802 4.601-5.15 7.424-8.875 2.346-3.097 8.092-11.634 10.115-15.027.434-.728.89-1.321 1.013-1.317.123 0 1.071 1.523 2.107 3.376 3.381 6.053 8.768 13.477 14.91 20.55 1.673 1.927 3.043 3.65 3.043 3.827 0 .177-.93 1.316-2.068 2.53-5.52 5.897-12.165 15.032-16.472 22.646-.696 1.232-1.36 2.24-1.473 2.24-.114 0-.68-.845-1.259-1.877zm106.3 1.235c-.228-.362-1.474-2.373-2.769-4.468-4.532-7.334-9.293-13.548-14.608-19.066l-3.142-3.263 2.528-2.675c4.933-5.22 9.957-11.913 15.24-20.304 1.648-2.616 3.08-4.757 3.182-4.757.103-.001.94 1.33 1.86 2.96 4.127 7.305 10.847 16.372 17.865 24.106l.576.636-3.361 3.798c-5.7 6.44-11.386 14.321-15.066 20.878-.778 1.386-1.522 2.587-1.652 2.667-.131.081-.425-.15-.653-.512zm-52.417-47.385c-.225-.357-1.454-2.34-2.732-4.405-4.438-7.17-9.531-13.814-14.752-19.241-1.474-1.532-2.68-2.969-2.68-3.194 0-.225.663-1.054 1.474-1.842 4.748-4.621 12.497-15.032 17.783-23.892.637-1.068 1.248-1.944 1.359-1.947.11 0 .947 1.328 1.859 2.956 3.61 6.446 8.644 13.431 14.832 20.582 1.925 2.225 3.505 4.143 3.51 4.264.01.12-.9 1.2-2.015 2.4-5.866 6.312-11.907 14.538-16.073 21.888-.955 1.684-1.83 3.066-1.946 3.071-.116 0-.394-.284-.619-.641zm-54.349-49.24c-5.398-8.96-11.608-17.127-17.19-22.609-1.047-1.028-1.904-1.983-1.904-2.122 0-.14 1.057-1.378 2.348-2.753 4.999-5.322 10.227-12.319 15.5-20.74 1.528-2.44 2.86-4.433 2.961-4.428.102 0 .89 1.31 1.751 2.903C57.103 47.32 63.71 56.34 70.394 63.733c.766.847 1.392 1.67 1.392 1.827 0 .158-1.452 1.935-3.227 3.949-5.64 6.398-9.554 11.75-13.984 19.117-1.386 2.304-2.626 4.227-2.756 4.274-.13.047-.926-1.058-1.767-2.456zm105.88.56c-1.94-3.352-6.946-10.778-9.296-13.789-2.465-3.158-4.95-6.018-8.17-9.4l-2.087-2.193 2.52-2.731c5.71-6.183 10.142-12.171 16.39-22.144.921-1.469 1.777-2.734 1.903-2.811.125-.077 1.019 1.283 1.985 3.024 3.708 6.679 8.428 13.16 15.612 21.437 1.476 1.7 2.683 3.161 2.683 3.247 0 .086-.994 1.23-2.208 2.542-5.369 5.798-12.815 16.014-16.323 22.394-.717 1.304-1.434 2.37-1.593 2.369-.16 0-.796-.876-1.415-1.945zm-140.22-8.228c-1.598-2.498-4.609-6.382-5.864-7.565-.495-.467-.9-.96-.9-1.095 0-.136.854-1.225 1.898-2.419s2.815-3.561 3.935-5.26c1.12-1.698 2.14-3.126 2.266-3.173.126-.047.591.539 1.034 1.3 1.197 2.059 3.234 4.862 5.281 7.267l1.819 2.136-.66.797c-3.245 3.92-4.487 5.571-5.773 7.67-.82 1.34-1.538 2.436-1.594 2.436-.056 0-.705-.942-1.442-2.094zm-3.078-27.204c-4.317-1.771-6.649-5.333-6.016-9.19.377-2.302 1.014-3.493 2.655-4.965.777-.697 1.413-1.452 1.413-1.678 0-.226-.339-.726-.753-1.111-3.616-3.368-1.937-9.973 3.009-11.834 3.298-1.242 7.482-.355 9.816 2.08 2.681 2.797 2.81 7.421.272 9.754-1.031.947-.963 1.383.398 2.546.638.545 1.518 1.597 1.955 2.338.687 1.167.794 1.66.794 3.66 0 1.947-.128 2.57-.813 3.961-.996 2.025-2.917 3.766-5.019 4.55-2.257.843-5.5.796-7.71-.111zm5.947-2.3c3.59-1.077 5.679-4.291 4.838-7.44-.436-1.635-2.552-3.726-4.296-4.248-3.79-1.132-7.39.225-9.148 3.448-1.89 3.463.057 7.06 4.46 8.246 1.753.471 2.561.47 4.147-.01zm-.048-14.663c2.345-.783 3.735-2.495 3.735-4.6 0-4.026-4.784-6.448-8.832-4.472-3.575 1.745-4.06 5.73-.978 8.026 1.666 1.241 4.19 1.676 6.075 1.046z" fill="#dc2e2e"/><path d="M0 157.44V0h217.76v314.88H0V157.44zM212.34 313.9c1.734-.86 3.559-2.871 4.232-4.666l.599-1.597v-150.01c0-136.44-.042-150.13-.461-151.36-.615-1.8-2.787-4.162-4.6-5.005l-1.454-.675h-101.93c-99.718 0-101.95.015-103.14.555-1.6.725-3.558 2.706-4.363 4.416L.58 6.927l.006 150.72c.006 145.92.023 150.76.54 151.9 1.023 2.244 3.3 4.272 5.349 4.761.5.12 46.776.198 102.84.174 99.425-.043 101.95-.057 103.03-.591zm-19.717-21.561c-2.821-.574-5.45-2.712-6.319-5.14-.895-2.5-.219-5.446 1.626-7.086.475-.423.864-.87.864-.993 0-.124-.662-.87-1.471-1.66-1.802-1.755-2.584-3.207-2.787-5.174-.357-3.444 1.613-6.831 4.964-8.536 1.84-.936 2.182-1.011 4.622-1.011 2.242 0 2.878.113 4.262.761 2.11.987 3.7 2.441 4.761 4.35.73 1.313.847 1.823.82 3.555-.043 2.61-.862 4.388-2.759 5.983-.775.652-1.408 1.402-1.408 1.667 0 .265.338.798.752 1.183 1.903 1.772 2.536 5.078 1.448 7.567-1.467 3.356-5.522 5.318-9.375 4.534zm4.78-2.911c2.58-1.246 3.716-4.305 2.458-6.612-.682-1.25-3.095-2.757-4.832-3.017-3.412-.51-6.816 1.992-6.812 5.01 0 4.173 4.954 6.662 9.186 4.619zm-.012-12.344c2.706-1.377 4.143-3.435 4.143-5.929 0-1.605-.457-2.588-1.785-3.834-1.513-1.421-2.776-1.923-5.164-2.056-2.6-.144-3.79.275-5.666 2-2.026 1.863-2.578 4.599-1.397 6.928.586 1.155 2.683 2.812 4.159 3.285 1.693.544 4.208.37 5.71-.394zm-147.72.17c-4.62-7.63-10.126-14.941-15.358-20.388-1.67-1.739-3.036-3.273-3.035-3.41.001-.138 1.194-1.55 2.65-3.14 5.04-5.497 9.384-11.318 14.71-19.715 1.637-2.582 3.059-4.693 3.16-4.691.1 0 .704 1.004 1.34 2.228 2.752 5.286 9.453 14.584 15.67 21.744l3.033 3.491-1.099 1.249c-8.3 9.43-12.806 15.518-17.18 23.21-.837 1.47-1.612 2.673-1.723 2.673-.11 0-1.087-1.463-2.168-3.25zm106.59 1.734c-1.536-2.79-7.926-12.17-10.38-15.238-1.335-1.669-3.96-4.693-5.835-6.722l-3.408-3.688 2.37-2.523c5.01-5.335 10.325-12.442 15.423-20.626 1.465-2.351 2.745-4.277 2.845-4.28.1 0 .966 1.393 1.926 3.101 3.443 6.128 8.624 13.311 14.533 20.15 1.785 2.065 3.312 3.916 3.395 4.114.083.198-.794 1.367-1.948 2.6-4.954 5.292-10.374 12.569-14.784 19.849-1.535 2.535-2.907 4.647-3.047 4.694-.14.047-.632-.598-1.09-1.432zm37.52-21.844c-1.003-1.555-2.73-3.855-3.836-5.112-1.106-1.257-2.011-2.427-2.011-2.6 0-.173.34-.63.754-1.015 1.024-.95 4.724-5.867 5.93-7.878.539-.898 1.067-1.633 1.174-1.633.107 0 .59.699 1.072 1.552 1.032 1.824 4.866 6.95 5.952 7.959.414.385.75.84.744 1.011-.01.17-.8 1.22-1.766 2.333-.966 1.112-2.682 3.42-3.814 5.127-1.131 1.708-2.128 3.1-2.215 3.094-.087-.01-.98-1.284-1.983-2.838zm-89.346-23.8c-.225-.357-1.41-2.27-2.636-4.252-4.424-7.157-8.893-13.015-14.387-18.863l-3.194-3.4 2.398-2.522c4.83-5.082 12.622-15.688 17.08-23.249.54-.913 1.067-1.661 1.174-1.661.108 0 1.07 1.527 2.139 3.394 3.676 6.42 8.663 13.274 14.833 20.39 1.632 1.882 2.968 3.552 2.968 3.711 0 .16-.925 1.285-2.056 2.502-5.723 6.158-12.843 15.988-16.542 22.837-.521.965-1.042 1.756-1.158 1.759-.116 0-.394-.288-.619-.645zM50.548 185.61c-1.773-3.163-7.798-11.956-10.49-15.312-1.403-1.748-3.952-4.622-5.664-6.388-1.712-1.765-3.113-3.367-3.113-3.56 0-.193 1.301-1.739 2.892-3.435 1.592-1.696 4.011-4.513 5.377-6.261 2.288-2.927 8.336-11.789 10.915-15.994.598-.975 1.184-1.771 1.303-1.77.12 0 .727.944 1.352 2.094 3.713 6.84 9.03 14.194 16.181 22.384l2.584 2.96-2.293 2.529c-6.224 6.864-11.442 13.982-15.883 21.668-.942 1.629-1.801 2.961-1.91 2.961-.11 0-.672-.844-1.25-1.876zm106.29 1.226c-.226-.357-1.285-2.08-2.354-3.828-4.583-7.493-9.776-14.233-15.73-20.416l-2.135-2.216 3.004-3.312c5.227-5.762 9.21-11.119 14.591-19.622 1.582-2.5 2.96-4.547 3.063-4.55.103 0 .938 1.329 1.857 2.957 3.894 6.9 10.836 16.31 16.827 22.809.69.748 1.254 1.495 1.254 1.659 0 .165-.998 1.373-2.217 2.685-5.14 5.532-11.099 13.622-15.424 20.946-1.15 1.946-2.143 3.538-2.208 3.538-.065 0-.302-.292-.527-.65zm-52.405-47.376c-7.49-12.027-10.532-16.146-17.195-23.277l-3.058-3.272 1.883-1.928c5.33-5.458 12.228-14.752 17.459-23.52.637-1.068 1.242-1.944 1.344-1.946.103 0 .942 1.327 1.865 2.956 3.943 6.957 9.26 14.242 15.826 21.685 1.236 1.4 2.247 2.713 2.247 2.916 0 .203-.277.616-.616.919-1.02.911-5.512 6.137-7.92 9.216-2.69 3.436-7.88 11.203-9.706 14.522-.717 1.302-1.398 2.37-1.513 2.373-.116 0-.393-.288-.616-.646zm50.56-50.264c-4.726-7.74-9.757-14.397-14.915-19.734-1.872-1.936-3.403-3.612-3.403-3.723 0-.111 1.302-1.59 2.893-3.286 1.591-1.696 4.013-4.513 5.381-6.26 2.492-3.184 8.812-12.448 10.984-16.1.636-1.07 1.243-1.948 1.348-1.95.106 0 .843 1.199 1.64 2.671 3.414 6.32 9.358 14.47 16.375 22.455 1.047 1.192 1.907 2.277 1.91 2.41 0 .135-1.008 1.37-2.25 2.745-6.212 6.882-11.715 14.418-15.853 21.709-.902 1.59-1.67 2.89-1.707 2.89-.037 0-1.118-1.722-2.404-3.827zm-104.92 1.011c-5.216-8.672-12.668-18.364-18.017-23.435l-1.029-.975 2.843-3.123c5.226-5.74 9.714-11.76 14.794-19.842 1.623-2.582 3.04-4.694 3.147-4.694.108 0 .495.617.86 1.372 2.729 5.626 8.94 14.343 16.174 22.696l2.968 3.427-.652.8c-.358.44-1.811 2.086-3.228 3.657-4.743 5.26-11.077 14.163-14.928 20.984-.516.914-1.044 1.661-1.175 1.661-.13 0-.92-1.137-1.757-2.527zm-34.785-8.321c-1.045-1.58-2.827-3.943-3.96-5.25-1.134-1.308-2.06-2.453-2.06-2.545 0-.092.792-1.101 1.761-2.244.97-1.143 2.68-3.443 3.802-5.111 1.123-1.668 2.137-3.033 2.254-3.033.118 0 1.132 1.365 2.254 3.033 1.123 1.668 2.855 3.993 3.85 5.166 1.246 1.47 1.726 2.244 1.544 2.49-.145.196-1.024 1.251-1.953 2.345-1.404 1.65-3.938 5.25-5.282 7.5-.27.452-.565.138-2.21-2.351zM13.88 55.941c-3.98-1.07-7.197-4.67-7.212-8.071-.013-2.694.514-3.941 2.505-5.932 1.007-1.008 1.832-1.99 1.832-2.182 0-.193-.455-.79-1.01-1.327-2.134-2.063-2.442-5.253-.79-8.171 2.55-4.503 9.24-5.225 13.19-1.423 2.946 2.836 3.257 6.723.753 9.433-.627.678-1.14 1.337-1.14 1.464s.722.985 1.603 1.907c1.996 2.088 2.502 3.263 2.502 5.81 0 1.563-.163 2.322-.764 3.546-1.99 4.058-6.9 6.175-11.469 4.946zm6.555-3.226c3.945-2.434 4.455-7.144 1.075-9.938-1.43-1.182-3.791-1.868-5.741-1.667-4.174.43-7.458 4.46-6.507 7.985 1.056 3.912 7.378 5.96 11.173 3.62zm-2.108-13.823c1.64-.492 2.755-1.335 3.607-2.727 1.131-1.847.786-3.761-1.01-5.605-1.884-1.934-4.947-2.434-7.39-1.206-4.893 2.459-4.158 8.027 1.251 9.478 2.002.537 1.957.536 3.542.06z" fill="#d91616"/><path d="M0 157.44V0h217.76v314.88H0V157.44zM212.34 313.9c1.734-.86 3.559-2.871 4.232-4.666l.599-1.597v-150.01c0-136.44-.042-150.13-.461-151.36-.615-1.8-2.787-4.162-4.6-5.005l-1.454-.675h-101.93c-99.718 0-101.95.015-103.14.555-1.6.725-3.558 2.706-4.363 4.416L.58 6.927l.006 150.72c.006 145.92.023 150.76.54 151.9 1.023 2.244 3.3 4.272 5.349 4.761.5.12 46.776.198 102.84.174 99.425-.043 101.95-.057 103.03-.591zm-20.801-22.072c-3.121-1.077-5.096-3.379-5.299-6.179-.18-2.499.123-3.555 1.41-4.905.63-.66 1.144-1.411 1.144-1.67 0-.258-.666-1.114-1.48-1.902-1.941-1.878-2.56-3.239-2.567-5.649-.012-3.567 2.273-6.775 5.762-8.088 2.174-.818 5.904-.69 7.892.27 2.004.967 3.872 2.754 4.749 4.541.676 1.38.76 1.841.638 3.529-.177 2.465-.956 4.002-2.827 5.576-.8.672-1.453 1.436-1.453 1.698 0 .261.455.915 1.01 1.452 1.386 1.34 2.008 3.071 1.806 5.024-.52 5.033-5.697 8.058-10.785 6.303zm5.905-2.26c4.1-2.038 4.173-7.114.129-9.1-1.1-.54-1.864-.686-3.614-.686-2 0-2.34.086-3.448.867-1.557 1.1-2.267 2.056-2.476 3.34-.74 4.545 4.837 7.852 9.409 5.58zm.775-12.667c2.777-1.624 4.26-5.027 3.298-7.572-.444-1.176-1.936-2.628-3.602-3.505-1.948-1.027-5.459-1.097-7.239-.145-3.246 1.737-4.701 5.152-3.459 8.118 1.611 3.849 7.086 5.393 11.002 3.104zm-149.09-.825c-4.763-7.69-9.644-14.107-14.877-19.555l-2.954-3.076 2.895-3.153c5.05-5.499 9.843-11.956 14.883-20.049 1.386-2.226 2.622-4.048 2.746-4.048.124 0 .393.402.597.893.668 1.61 4.296 7.498 6.716 10.9 2.728 3.837 6.154 8.15 9.865 12.416l2.589 2.978-.568.633c-7.938 8.861-12.929 15.551-17.35 23.257-.93 1.619-1.756 2.94-1.838 2.936-.082 0-1.3-1.864-2.705-4.133zm107.32 2.858c-5.16-8.641-10.15-15.397-16.278-22.041l-3.261-3.535 2.476-2.676c5.072-5.482 12.124-15.087 16.542-22.531.635-1.07 1.24-1.948 1.347-1.95.105 0 .875 1.259 1.71 2.804 3.04 5.628 9.145 14.047 15.439 21.293 1.371 1.579 2.493 2.99 2.493 3.135 0 .145-.865 1.193-1.921 2.33-4.846 5.208-10.58 12.922-14.746 19.836-1.387 2.3-2.626 4.299-2.755 4.44-.128.142-.6-.356-1.047-1.105zm37.264-22.168c-1.035-1.594-2.762-3.861-3.837-5.04l-1.954-2.142 1.994-2.303c1.097-1.267 2.824-3.597 3.837-5.178 1.013-1.582 1.907-2.88 1.987-2.884.08 0 .954 1.256 1.943 2.801.989 1.545 2.65 3.815 3.692 5.046 1.041 1.23 1.891 2.336 1.89 2.455 0 .12-.73 1.063-1.616 2.096-.886 1.033-2.528 3.243-3.649 4.91-1.12 1.67-2.12 3.057-2.221 3.085-.101.028-1.031-1.253-2.066-2.846zm-90.624-25.976c-4.872-7.962-9.994-14.788-15.511-20.671l-3.087-3.292 1.838-1.945a105.771 105.771 0 0 0 7.583-8.957c2.283-3.007 8.629-12.453 9.988-14.866.425-.754.854-1.372.953-1.372.1 0 .967 1.397 1.927 3.105 3.453 6.146 8.537 13.15 14.803 20.392l3.208 3.71-2.33 2.535c-5.11 5.558-10.817 13.245-14.7 19.8-1.13 1.907-2.229 3.714-2.443 4.016-.358.505-.538.307-2.228-2.455zm-52.837-45.975c-5.09-8.517-10.675-15.91-16.462-21.786l-2.608-2.649 2.936-3.129c4.792-5.108 10.076-12.266 15.798-21.401.92-1.47 1.76-2.67 1.865-2.669.105 0 .713 1 1.35 2.216 3.127 5.977 9.143 14.204 17.035 23.295l1.398 1.612-3.28 3.714c-5.555 6.288-10.913 13.707-14.719 20.38-.875 1.535-1.659 2.794-1.74 2.796-.081 0-.789-1.069-1.572-2.38zm104.39-1.878c-4.859-7.782-9.086-13.34-14.828-19.494l-2.893-3.1 2.776-3.068c5.187-5.731 9.69-11.782 14.544-19.54 1.563-2.5 2.928-4.547 3.033-4.55.106 0 .704.94 1.329 2.095 1.944 3.597 4.733 7.883 7.745 11.905 3.041 4.06 8.568 10.795 9.829 11.976.407.382.74.88.74 1.108 0 .227-.934 1.407-2.076 2.621-4.867 5.175-11.471 14.164-15.576 21.202-.997 1.708-1.846 3.106-1.887 3.106-.042 0-1.273-1.918-2.736-4.261zm-51.858-46.51c-4.814-7.82-9.18-13.628-14.892-19.812l-3.425-3.708 1.734-1.78c5.13-5.268 11.175-13.375 17.002-22.8.762-1.232 1.49-2.305 1.618-2.384.128-.08.743.8 1.367 1.952 3.611 6.666 9.242 14.44 16.222 22.394l2.394 2.728-1.67 1.784c-5.734 6.128-12.209 14.899-16.342 22.136-.824 1.443-1.593 2.681-1.709 2.753-.116.072-1.151-1.397-2.3-3.263zm53.449-45.553c-1.78-3.176-7.8-11.964-10.5-15.327-1.402-1.748-3.95-4.622-5.663-6.388-1.712-1.765-3.113-3.302-3.113-3.415 0-.114 1.235-1.53 2.745-3.146 4.582-4.906 9.166-11.036 14.189-18.972 1.558-2.463 2.98-4.637 3.16-4.831.249-.27.68.276 1.82 2.31 3.61 6.438 8.611 13.406 14.56 20.287 1.785 2.065 3.31 3.906 3.387 4.091.078.185-1.334 2.013-3.138 4.061-5.516 6.266-10.709 13.452-14.565 20.157-.914 1.59-1.698 2.928-1.742 2.976-.044.048-.557-.764-1.14-1.804zm-106.94-2.26c-4.487-7.353-9.772-14.311-15.19-20l-2.752-2.889 3.018-3.322c4.91-5.405 10.249-12.674 15.276-20.799.934-1.51 1.79-2.852 1.904-2.984.114-.131 1.037 1.224 2.052 3.011 3.468 6.11 8.842 13.496 14.872 20.44 1.673 1.927 3.043 3.57 3.043 3.65 0 .08-.998 1.218-2.217 2.53-5.189 5.583-12.265 15.261-15.843 21.67-.776 1.39-1.504 2.526-1.618 2.526-.113 0-1.259-1.725-2.545-3.833zm-34.034-7.073c-1.034-1.55-2.783-3.86-3.888-5.135l-2.008-2.318 1.705-2.015c.938-1.108 2.63-3.38 3.76-5.048 1.13-1.668 2.115-3.098 2.187-3.177.072-.08.28.099.46.395 1.384 2.278 3.74 5.597 5.286 7.447 1.015 1.215 1.846 2.288 1.846 2.385 0 .097-.795 1.118-1.768 2.269-.972 1.15-2.653 3.424-3.734 5.053l-1.967 2.96-1.88-2.816zm-1.85-25.892c-1.72-.56-3.027-1.429-4.425-2.942-1.598-1.73-2.041-2.873-2.033-5.244.008-2.528.619-3.84 2.706-5.81.897-.847 1.63-1.634 1.63-1.749 0-.115-.474-.722-1.053-1.349-1.397-1.511-1.842-2.647-1.842-4.708 0-5.305 5.667-8.708 11.115-6.674 3.007 1.122 5.082 3.915 5.094 6.858.008 1.903-.496 3.102-1.841 4.38-.577.548-1.048 1.117-1.048 1.265 0 .148.83 1.147 1.845 2.22 1.489 1.575 1.915 2.243 2.208 3.462.922 3.832-1.03 7.819-4.777 9.755-1.759.91-5.6 1.18-7.58.536zm6.884-2.677c4.958-2.69 4.878-8.705-.15-11.21-1.4-.698-2.061-.85-3.62-.834-2.246.024-3.624.56-5.287 2.056-3.213 2.89-2.97 7.448.504 9.48 3.055 1.786 5.888 1.954 8.553.508zm-1.036-14.22c3.59-1.626 4.543-5.235 2.11-7.999-2.274-2.584-6.101-2.997-8.916-.963-2.229 1.61-2.925 3.959-1.847 6.226 1.271 2.672 5.703 4.074 8.653 2.737z" fill="#d60000"/><path d="M0 157.44V0h217.76v314.88H0V157.44zM212.34 313.9c1.734-.86 3.559-2.871 4.232-4.666l.599-1.597v-150.01c0-136.44-.042-150.13-.461-151.36-.615-1.8-2.787-4.162-4.6-5.005l-1.454-.675h-101.93c-99.718 0-101.95.015-103.14.555-1.6.725-3.558 2.706-4.363 4.416L.58 6.927l.006 150.72c.006 145.92.023 150.76.54 151.9 1.023 2.244 3.3 4.272 5.349 4.761.5.12 46.776.198 102.84.174 99.425-.043 101.95-.057 103.03-.591z" fill="#020202"/></svg>