<svg xmlns="http://www.w3.org/2000/svg" height="335.872" width="232.277" viewBox="0 0 217.76 314.88"><path d="M0 157.44V0h217.76v314.88H0V157.44z" fill="#fdfdfd"/><path d="M0 157.44V0h217.76v314.88H0V157.44zm210.69 156.14c1.755-.52 3.61-2.05 4.675-3.858l.794-1.348.073-150.21c.066-134.5.027-150.35-.371-151.55-.618-1.855-2.167-3.547-4.126-4.506l-1.657-.813H7.378l-1.303.611c-1.664.78-3.384 2.496-4.166 4.156l-.612 1.3-.074 147.11-.074 147.11h.59c.324 0 .67.208.767.462.203.527-.385 1.002-.966.78-.298-.114-.388.257-.388 1.601 0 4.014 1.303 6.719 4.014 8.333.854.508 1.897.977 2.317 1.042.42.064 45.988.136 101.26.16 87.894.038 100.68-.01 101.94-.383zM7 305.728c.122-.632.963-.722.963-.103 0 .237-.24.476-.533.532-.387.074-.505-.043-.43-.43zm187.35-8.793c-3.652-.62-6.04-3.008-7.193-7.194-.714-2.592-.709-11.832.01-15.019 1.298-5.767 3.921-8.63 8.5-9.277 2.414-.341 4.441.04 6.23 1.172 1.518.96 3.08 3.071 3.307 4.472.186 1.144-.288 1.513-2.299 1.788-1.221.167-1.277.14-2.057-1.038-1.834-2.764-5.685-2.745-7.8.04-.684.9-1.852 4.18-1.583 4.449.067.066.697-.17 1.402-.524 1.747-.878 5.316-.893 7.231-.029 3.7 1.668 5.487 5.224 5.487 10.916 0 7.257-4.524 11.382-11.234 10.244zm4.811-4.892c1.409-.856 2.188-2.79 2.208-5.48.02-2.73-.638-4.52-2.173-5.903-1.02-.92-1.314-1.03-2.748-1.03-1.876 0-2.893.455-4.11 1.839-1.34 1.521-1.625 2.694-1.248 5.118.362 2.327 1.042 3.825 2.234 4.924 1.05.968 1.352 1.069 3.284 1.095 1.118.015 1.878-.152 2.553-.563zm-39.532-8.323c-.163-.104-1.415-2.016-2.781-4.249-4.955-8.092-9.792-14.487-15.184-20.077-1.951-2.022-3.548-3.83-3.548-4.017 0-.188 1.327-1.795 2.948-3.571 5.46-5.982 10.796-13.235 16.44-22.35 1.002-1.62 2-3.012 2.218-3.096.537-.205.74.067 2.758 3.729 3.457 6.268 8.503 13.245 15.137 20.928 1.845 2.136 3.354 4.07 3.354 4.298 0 .227-.814 1.277-1.81 2.333-5.889 6.247-11.872 14.37-16.576 22.503-2.015 3.483-2.388 3.933-2.955 3.57zm-106.15-.677a2013.56 2013.56 0 0 1-1.81-2.98c-2.275-3.75-5.745-8.905-8.007-11.894-2.288-3.024-7.478-8.991-9.617-11.06-.733-.707-1.333-1.533-1.333-1.834 0-.302 1.19-1.802 2.645-3.335 4.965-5.23 10.03-12.01 15.46-20.697 2.908-4.652 3.233-5.071 3.774-4.864.218.084 1.042 1.342 1.831 2.797 3.833 7.067 9.084 14.35 16.302 22.61 1.404 1.607 2.553 3.178 2.553 3.492 0 .315-1.065 1.73-2.366 3.145-5.5 5.981-12.007 14.897-16.111 22.073-1.862 3.255-2.561 3.79-3.321 2.546zm142.03-25.583c-1.596-2.68-3.615-5.378-5.568-7.44-.904-.952-1.725-1.962-1.826-2.243-.128-.357.229-.965 1.187-2.022 1.926-2.126 3.774-4.569 5.655-7.48.889-1.375 1.742-2.578 1.895-2.672.545-.336 1.067.147 1.924 1.782.956 1.825 3.432 5.253 5.833 8.076.853 1.003 1.55 1.947 1.55 2.097 0 .151-.733 1.092-1.63 2.09-1.869 2.082-3.98 4.992-5.666 7.812-.74 1.235-1.354 1.95-1.68 1.95-.325 0-.937-.713-1.674-1.95zm-141.71-35.532c-.236-.278-1.254-1.871-2.263-3.54-4.717-7.802-9.447-14.12-15.304-20.435-1.937-2.09-3.522-4.038-3.522-4.33 0-.292.728-1.242 1.617-2.11 4.882-4.766 10.233-11.84 16.706-22.089 3.292-5.213 3.527-5.343 4.868-2.69 3.315 6.561 9.312 14.979 16.674 23.403 1.618 1.852 2.7 3.34 2.7 3.715 0 .379-.854 1.53-2.182 2.938-5.574 5.912-12.623 15.608-16.647 22.898-1.006 1.821-1.684 2.744-2.019 2.744-.11 0-.392-.227-.628-.505zm105.54.156c-.16-.205-.984-1.543-1.834-2.973-4.672-7.865-10.687-15.882-16.234-21.639-1.739-1.805-3.162-3.439-3.162-3.632 0-.193 1.059-1.475 2.353-2.85 5.269-5.6 10.316-12.324 15.745-20.98 2.548-4.061 3.3-5.062 3.759-4.998.397.055 1.05.966 2.127 2.968 3.304 6.142 9.516 14.736 16.079 22.243 1.527 1.747 2.78 3.346 2.785 3.553 0 .206-1.377 1.923-3.07 3.815-5.775 6.455-11.133 13.823-15.227 20.941-2.103 3.656-2.724 4.32-3.32 3.551zm-54.375-35.525c-5.065-8.356-10.027-14.93-15.573-20.63-1.871-1.924-3.402-3.665-3.402-3.868 0-.203 1.01-1.467 2.244-2.808 6.096-6.624 12.324-15.094 17.845-24.27.595-.99 1.193-1.868 1.329-1.951.521-.322 1.085.217 1.844 1.76 2.998 6.1 9.895 15.746 17.086 23.897 1.379 1.563 2.507 3.027 2.507 3.253 0 .226-.904 1.383-2.008 2.57-6.183 6.654-13.224 16.379-17.41 24.05-1.455 2.667-1.697 2.558-4.462-2.003zm-52.729-30.206c-4.992-8.35-10.887-16.229-16.357-21.862-1.742-1.794-3.168-3.49-3.168-3.766 0-.277.933-1.498 2.074-2.712 5.697-6.065 10.768-12.9 17.015-22.935 1.316-2.115 2.292-3.393 2.588-3.39.302 0 1.052 1.075 2.067 2.955 3.733 6.911 10.455 16.11 17.434 23.857.763.847 1.387 1.796 1.387 2.108 0 .314-1.377 2.109-3.078 4.01-5.733 6.407-11.068 13.776-15.319 21.157-1.312 2.278-2.12 3.395-2.457 3.395-.327 0-1.09-.983-2.186-2.817zm107.09 2.468c-.165-.205-1.37-2.128-2.68-4.273-2.74-4.49-6.156-9.408-9.129-13.144-2.007-2.522-7.533-8.68-8.79-9.795-.341-.302-.62-.741-.62-.975 0-.234 1.205-1.68 2.678-3.213 4.895-5.094 9.196-10.81 15.126-20.103 1.926-3.018 3.71-5.527 3.963-5.576.324-.062 1.003.883 2.28 3.176 4.119 7.396 8.841 13.917 16.11 22.244 1.484 1.7 2.698 3.282 2.698 3.514 0 .233-.998 1.507-2.217 2.831a125.066 125.066 0 0 0-16.206 22.048c-1.953 3.375-2.599 4.031-3.213 3.265zM53.795 97.133c-.236-.278-1.254-1.87-2.263-3.538-4.728-7.822-9.908-14.722-15.59-20.77-1.78-1.895-3.236-3.666-3.236-3.936s1.273-1.82 2.83-3.446c1.555-1.626 4.043-4.504 5.527-6.396 2.432-3.1 8.902-12.572 11.697-17.124 1.531-2.494 1.855-2.402 3.689 1.047 3.154 5.933 9.066 14.172 15.615 21.762 1.803 2.09 3.208 3.975 3.208 4.304 0 .332-1.016 1.675-2.354 3.111-5.087 5.458-10.332 12.51-14.557 19.57-3.928 6.564-3.76 6.366-4.566 5.417zm105.36-.144c-7.576-12.414-11.344-17.544-17.787-24.216-1.792-1.856-3.258-3.562-3.258-3.792 0-.23.341-.733.757-1.118 1.679-1.553 6.955-7.73 9.423-11.031 2.695-3.605 6.778-9.684 9.505-14.151 2.028-3.322 2.34-3.333 3.983-.143 3 5.826 9.085 14.385 15.56 21.88 1.99 2.305 3.62 4.355 3.622 4.558 0 .203-1.36 1.893-3.03 3.756-5.64 6.289-11.583 14.49-15.647 21.586-2.043 3.568-2.397 3.87-3.128 2.672zM17.795 83.412c-.254-.358-1.223-1.82-2.154-3.25-.932-1.43-2.75-3.813-4.04-5.296-1.292-1.483-2.348-2.737-2.348-2.786 0-.049.926-1.175 2.057-2.503 1.132-1.328 3.115-4.007 4.407-5.953 1.47-2.215 2.532-3.539 2.84-3.539.303 0 .89.71 1.53 1.854 1.125 2.006 3.687 5.549 5.617 7.766 2.035 2.338 2.038 2.192-.108 4.736-1.046 1.24-2.805 3.62-3.91 5.288-2.805 4.24-2.874 4.333-3.167 4.333-.145 0-.47-.293-.724-.65zm-1.963-25.393c-1.553-.224-3.44-1.23-4.61-2.458-.966-1.016-2.031-3.356-1.8-3.956.183-.478 2.863-1.39 3.411-1.161.181.075.692.659 1.136 1.297 1.002 1.44 2.464 2.095 4.287 1.92 1.684-.16 2.987-1.065 3.788-2.628.552-1.076 1.47-3.948 1.263-3.948-.045 0-.717.286-1.494.636-1.98.891-5.2.885-7.203-.014-3.162-1.42-4.816-4.104-5.387-8.74-.82-6.656 1.932-11.46 7.112-12.414 1.905-.35 4.395-.145 5.926.49 2.823 1.172 4.9 4.17 5.548 8.008.477 2.824.192 12.222-.438 14.49-1.099 3.952-2.857 6.508-5.282 7.68-1.522.734-4.268 1.085-6.257.798zm5.702-15.083c1.713-1.304 2.299-2.79 2.121-5.38-.25-3.632-1.742-5.97-4.242-6.64-3.304-.888-5.755 1.229-6.041 5.22-.244 3.406.891 6.29 2.873 7.298 1.476.75 3.956.516 5.289-.498zm189.33-21.483c-.439-.153-.48-1.126-.06-1.386.367-.226 1.145.37 1.145.88 0 .425-.563.688-1.086.506z" fill="#fae8e8"/><path d="M0 157.44V0h217.76v314.88H0V157.44zm210.72 156.13c1.94-.574 4.147-2.553 4.965-4.45l.62-1.437-.073-150.45c-.07-143.27-.098-150.49-.586-151.38-.865-1.578-2.261-2.965-3.805-3.778l-1.474-.776H7.387l-1.329.614c-1.696.782-3.353 2.435-4.137 4.127l-.615 1.326-.074 147.09-.074 147.09.65.092c.963.137 1.05 1.103.098 1.103-.728 0-.745.046-.745 1.97 0 4.53 1.948 7.54 5.757 8.898.849.302 20.158.376 101.69.386 88.935.01 100.81-.038 102.11-.424zM6.95 305.79c0-.229.115-.487.257-.574.319-.197.967.54.706.8-.345.344-.963.199-.963-.226zm186.91-9.08c-3.737-.991-6.092-3.993-6.827-8.703-.446-2.858-.177-11.349.438-13.815 1.376-5.513 4.14-8.24 8.736-8.619 2.36-.195 3.819.147 5.697 1.335 1.538.974 3.104 3.176 3.104 4.366 0 .793-.547 1.16-2.354 1.58-.659.153-.876.01-1.6-1.066-.58-.863-1.244-1.412-2.169-1.794-3.163-1.308-5.992.415-7.201 4.385-.352 1.157-.573 2.171-.491 2.253.082.082.716-.139 1.408-.492 2.699-1.374 7.052-.952 9.295.902 2.338 1.933 3.395 4.857 3.44 9.521.022 2.453-.09 3.345-.594 4.665-.776 2.034-2.523 4.048-4.23 4.871-1.42.687-5.095 1.024-6.652.611zm5.067-4.298c.71-.354 1.258-.98 1.832-2.094.756-1.468.81-1.786.705-4.188-.084-1.93-.273-2.907-.733-3.792-2.049-3.937-6.612-3.992-9.26-.11-.515.754-.651 1.358-.651 2.88 0 3.546 1.418 6.453 3.614 7.408 1.236.537 3.303.49 4.493-.104zm-145.45-9.802a930.28 930.28 0 0 1-3.035-4.858c-4.56-7.333-9.238-13.423-14.793-19.255-1.613-1.693-2.932-3.169-2.932-3.28 0-.112.89-1.132 1.978-2.267 5.842-6.094 10.176-11.947 18.146-24.504.637-1.004 1.354-1.825 1.593-1.825.241 0 .869.834 1.411 1.878 3.5 6.727 8.992 14.453 16.148 22.72 1.81 2.09 3.29 3.924 3.29 4.076 0 .153-.946 1.304-2.1 2.557-6.154 6.678-11.33 13.698-16.15 21.903-1.206 2.055-2.343 3.786-2.525 3.846-.182.061-.647-.385-1.032-.991zm106.17.82c-.151-.104-1.105-1.554-2.12-3.222-5.139-8.455-10.394-15.451-15.827-21.073-1.814-1.877-3.297-3.572-3.297-3.766 0-.195 1.318-1.8 2.93-3.565 5.325-5.837 9.584-11.56 15.027-20.2 1.777-2.82 3.33-5.127 3.45-5.127.399 0 1.067.977 2.468 3.61 3.306 6.213 8.822 13.77 16.301 22.335 1.155 1.322 2.1 2.6 2.1 2.84 0 .24-1.05 1.579-2.335 2.975-3.002 3.267-7.161 8.464-10.028 12.531-2.134 3.028-7.617 11.922-7.617 12.355 0 .306-.74.523-1.052.308zm36.112-25.971c-1.466-2.485-3.707-5.47-5.74-7.644-.997-1.066-1.812-2.083-1.812-2.26 0-.177.814-1.218 1.81-2.313.995-1.096 2.926-3.653 4.291-5.684 1.365-2.031 2.65-3.693 2.857-3.693.206 0 1.175 1.27 2.154 2.82.979 1.552 2.853 4.11 4.165 5.687 1.313 1.577 2.386 3.001 2.386 3.165 0 .164-.609.982-1.353 1.818-1.972 2.214-4.572 5.783-5.765 7.911-.635 1.132-1.229 1.854-1.526 1.854-.285 0-.891-.686-1.467-1.661zm-142.72-37.08c-2.625-4.315-8.62-13.086-10.838-15.857-1.335-1.668-4.017-4.746-5.96-6.839-1.942-2.093-3.53-3.884-3.53-3.981 0-.097 1.262-1.505 2.804-3.128 5.043-5.306 10.055-12.027 15.72-21.078 1.709-2.732 2.838-4.259 3.146-4.256.31 0 1.048 1.05 2.074 2.942 3.38 6.232 8.444 13.306 15.023 20.987 2.089 2.439 3.798 4.548 3.798 4.687 0 .14-1.178 1.537-2.617 3.106-6.203 6.76-10.542 12.808-17.188 23.954-.403.675-.873 1.227-1.045 1.227-.172 0-.796-.794-1.387-1.764zm103.94-2.497c-5.052-8.253-9.775-14.506-15.36-20.336-1.773-1.85-3.223-3.518-3.223-3.706 0-.189 1.187-1.623 2.638-3.188 4.237-4.57 7.842-9.241 12.26-15.884 2.27-3.416 4.569-6.958 5.107-7.872.56-.95 1.182-1.661 1.453-1.661.305 0 1.213 1.296 2.539 3.626 4.278 7.517 8.96 13.893 16.636 22.66.903 1.03 1.642 2.056 1.642 2.278 0 .221-.88 1.375-1.954 2.563-6.502 7.187-12.01 14.697-16.435 22.41-1.064 1.854-2.106 3.371-2.315 3.371-.209 0-1.553-1.917-2.988-4.26zm-49.444-27.749c-.16-.11-1.122-1.565-2.136-3.233-5.2-8.553-10.465-15.562-15.866-21.119-1.792-1.844-3.259-3.534-3.259-3.756 0-.221 1.26-1.767 2.8-3.435 5.923-6.415 10.22-12.346 17.947-24.771.223-.358.575-.65.784-.65.208 0 1.132 1.397 2.052 3.105 3.351 6.22 8.892 13.931 15.493 21.563 1.76 2.035 3.2 3.924 3.2 4.198 0 .274-.341.813-.758 1.199-1.208 1.116-5.612 6.225-8.027 9.311-2.789 3.566-7.385 10.418-9.566 14.263-1.765 3.113-2.193 3.648-2.664 3.325zM53.373 157.94c-.994-1.923-5.453-8.826-7.875-12.19-3.197-4.44-6.072-7.885-9.816-11.764-1.637-1.695-2.976-3.172-2.976-3.28 0-.109.93-1.191 2.068-2.405 6.015-6.424 10.496-12.441 17.023-22.863 1.294-2.067 2.262-3.323 2.56-3.323.302 0 .95.86 1.746 2.311 4.119 7.523 10.282 15.992 17.553 24.122.888.994 1.615 1.926 1.615 2.073 0 .146-1.385 1.815-3.078 3.707-5.8 6.483-11.41 14.216-15.455 21.302-2.027 3.552-2.541 3.905-3.365 2.31zm105.36-.386c-5.68-9.542-10.777-16.437-17.315-23.422-1.66-1.775-3.02-3.383-3.02-3.575 0-.191 1.15-1.547 2.554-3.012 4.9-5.115 9.56-11.34 15.419-20.594 1.683-2.66 3.264-4.874 3.513-4.922.314-.06.92.784 1.965 2.744 3.176 5.953 8.786 13.807 15.17 21.243 2.01 2.341 3.655 4.45 3.655 4.687 0 .237-1.178 1.714-2.617 3.283-6.253 6.816-11.462 14.13-17.366 24.388-.485.843-1.128.574-1.958-.82zm-105.27-61.27a853.852 853.852 0 0 1-3.23-5.147c-4.42-7.08-8.637-12.564-14.367-18.68-1.736-1.853-3.157-3.45-3.157-3.548 0-.099 1.214-1.459 2.698-3.023 4.963-5.231 9.02-10.624 14.965-19.898 1.991-3.105 3.768-5.695 3.949-5.755.181-.06 1.149 1.36 2.15 3.154 4.036 7.233 9.21 14.376 16.103 22.228 1.485 1.692 2.7 3.22 2.7 3.396 0 .175-1.06 1.455-2.355 2.844-5.395 5.786-10.527 12.72-15.322 20.704-1.52 2.533-2.914 4.654-3.096 4.715-.183.061-.65-.386-1.038-.992zm104.17-2.186c-5.386-8.932-11.723-17.249-17.326-22.74-1.049-1.029-1.907-2.045-1.907-2.258 0-.214 1.206-1.712 2.68-3.33 6.047-6.638 9.929-11.875 15.993-21.576 1.242-1.986 2.402-3.703 2.578-3.817.458-.294.8.15 2.491 3.24 3.375 6.162 9.121 14.11 15.541 21.497 1.646 1.893 2.992 3.621 2.992 3.841 0 .22-1.385 1.948-3.078 3.84a128.558 128.558 0 0 0-15.314 21.159c-1.078 1.866-2.124 3.394-2.325 3.394-.201 0-1.248-1.463-2.325-3.25zM16.113 80.521c-1.186-1.787-3.05-4.273-4.143-5.524-1.092-1.25-2.101-2.431-2.242-2.623-.174-.235.484-1.23 2.03-3.07 1.257-1.496 3.192-4.118 4.3-5.826 1.179-1.818 2.206-3.106 2.478-3.106.254 0 .769.553 1.143 1.228 1.176 2.126 3.975 6.061 5.789 8.14.96 1.1 1.745 2.125 1.745 2.276 0 .15-.89 1.33-1.98 2.62-1.99 2.359-3.456 4.397-5.374 7.474-.57.914-1.16 1.661-1.312 1.661-.152 0-1.247-1.462-2.434-3.25zm-1.462-22.915c-2.59-.828-5.812-4.841-4.832-6.02.177-.212.93-.556 1.672-.763 1.247-.348 1.375-.335 1.66.174 2.04 3.641 6.694 3.91 8.854.512.814-1.28 1.705-4.26 1.374-4.592-.09-.09-.726.124-1.414.474-1.684.858-4.341 1.047-6.38.456-4.299-1.247-6.648-5.857-6.247-12.262.127-2.027.32-2.777 1.124-4.348 1.756-3.433 4.587-4.9 8.84-4.58 3.72.281 6.598 2.543 7.745 6.086.84 2.59 1.142 6.984.797 11.536-.563 7.425-2.386 11.232-6.177 12.902-1.842.811-5.176 1.013-7.016.425zm6.892-14.489c.626-.44 1.453-1.384 1.838-2.1.604-1.12.678-1.557.54-3.177-.282-3.278-1.126-5.175-2.882-6.473-.657-.485-1.24-.604-2.963-.604-2.067 0-2.183.037-3.155 1.01-1.466 1.469-2.141 4.169-1.694 6.774.666 3.876 2.7 5.835 5.732 5.52a5.57 5.57 0 0 0 2.584-.95zm188.96-22.304c0-.777.548-1.038 1.075-.512.528.527.267 1.073-.513 1.073-.363 0-.562-.198-.562-.56z" fill="#e8e8e8"/><path d="M0 157.44V0h217.76v314.88H0V157.44zm158.73 156.93c-27.604-.041-72.689-.041-100.19 0-27.499.041-4.914.074 50.19.074 55.103 0 77.603-.033 49.998-.074zm52.815-.907c1.704-.772 3.235-2.222 4.126-3.906l.778-1.47V7.367l-.814-1.654c-.448-.91-1.346-2.107-1.996-2.662-2.427-2.072 7.173-1.906-105.35-1.824L6.81 1.3l-1.158.625c-1.558.842-3.17 2.56-3.887 4.141l-.588 1.3-.01 150.24-.01 150.24.908 1.813c.94 1.876 2.468 3.254 4.395 3.963.7.257 25.478.343 102.41.355 98.08.015 101.53 0 102.67-.518zM1.595 302.165c.098-.159.302-.289.451-.289.15 0 .273.13.273.289 0 .159-.203.289-.452.289-.248 0-.37-.13-.272-.29zm192.27-5.452c-3.737-.991-6.092-3.994-6.827-8.703-.446-2.859-.177-11.35.438-13.815 1.376-5.513 4.14-8.241 8.736-8.62 2.36-.194 3.819.148 5.697 1.336 1.538.973 3.104 3.176 3.104 4.366 0 .793-.547 1.16-2.354 1.58-.659.153-.876.01-1.6-1.066-.58-.864-1.244-1.412-2.169-1.795-3.163-1.307-5.992.416-7.201 4.386-.352 1.157-.573 2.17-.491 2.253.082.082.716-.14 1.408-.492 2.699-1.375 7.052-.952 9.295.901 2.338 1.934 3.395 4.857 3.44 9.522.022 2.453-.09 3.345-.594 4.664-.776 2.035-2.523 4.048-4.23 4.872-1.42.686-5.095 1.024-6.652.61zm5.067-4.298c.71-.354 1.259-.98 1.832-2.094.756-1.468.81-1.787.705-4.189-.084-1.93-.273-2.907-.733-3.791-2.049-3.937-6.612-3.992-9.26-.111-.515.754-.651 1.359-.651 2.881 0 3.545 1.418 6.453 3.614 7.407 1.236.538 3.303.49 4.493-.103zm-145.45-9.803a930.28 930.28 0 0 1-3.035-4.857c-4.56-7.333-9.238-13.423-14.793-19.255-1.612-1.693-2.932-3.17-2.932-3.28 0-.112.89-1.132 1.979-2.267 5.841-6.094 10.176-11.947 18.146-24.504.637-1.004 1.353-1.825 1.592-1.825.241 0 .869.834 1.411 1.877 3.5 6.728 8.992 14.453 16.148 22.72 1.81 2.09 3.29 3.924 3.29 4.077 0 .153-.946 1.304-2.1 2.557-6.154 6.678-11.33 13.698-16.15 21.903-1.206 2.055-2.343 3.785-2.525 3.846-.182.06-.647-.386-1.032-.992zm106.17.821c-.151-.104-1.105-1.554-2.12-3.223-5.139-8.454-10.394-15.45-15.827-21.073-1.814-1.876-3.297-3.571-3.297-3.766 0-.195 1.318-1.799 2.93-3.564 5.325-5.837 9.584-11.561 15.027-20.2 1.777-2.82 3.33-5.128 3.45-5.128.399 0 1.067.978 2.468 3.611 3.306 6.212 8.822 13.77 16.301 22.334 1.155 1.322 2.1 2.6 2.1 2.84 0 .24-1.05 1.58-2.335 2.976-3.002 3.266-7.161 8.464-10.028 12.531-2.134 3.028-7.617 11.922-7.617 12.355 0 .306-.74.522-1.052.308zm36.112-25.972c-1.466-2.484-3.707-5.468-5.74-7.643-.997-1.067-1.812-2.084-1.812-2.26 0-.177.815-1.218 1.81-2.314.995-1.095 2.926-3.653 4.291-5.684 1.365-2.03 2.65-3.692 2.857-3.692.206 0 1.175 1.269 2.154 2.82.979 1.551 2.853 4.11 4.165 5.687 1.313 1.577 2.386 3 2.386 3.165 0 .163-.609.981-1.353 1.818-1.972 2.214-4.572 5.783-5.765 7.91-.635 1.133-1.229 1.854-1.526 1.854-.285 0-.891-.686-1.467-1.66zm-142.72-37.08c-2.625-4.315-8.62-13.086-10.838-15.857-1.335-1.668-4.017-4.745-5.96-6.838-1.941-2.093-3.53-3.885-3.53-3.982 0-.097 1.262-1.504 2.804-3.127 5.043-5.306 10.055-12.027 15.72-21.078 1.709-2.732 2.838-4.26 3.147-4.256.31 0 1.047 1.05 2.073 2.941 3.38 6.233 8.444 13.306 15.023 20.987 2.089 2.44 3.798 4.549 3.798 4.688 0 .139-1.177 1.536-2.617 3.105-6.203 6.761-10.542 12.808-17.188 23.954-.403.675-.873 1.228-1.045 1.228-.172 0-.796-.794-1.387-1.765zm103.94-2.496c-5.052-8.253-9.775-14.506-15.36-20.336-1.773-1.85-3.223-3.519-3.223-3.707 0-.188 1.187-1.622 2.638-3.187 4.238-4.57 7.843-9.242 12.26-15.884 2.27-3.416 4.569-6.959 5.107-7.872.56-.95 1.182-1.661 1.453-1.661.305 0 1.213 1.296 2.539 3.626 4.278 7.516 8.96 13.893 16.636 22.659.903 1.031 1.642 2.057 1.642 2.278 0 .222-.88 1.375-1.954 2.563-6.502 7.188-12.01 14.697-16.435 22.41-1.064 1.855-2.106 3.372-2.315 3.372-.208 0-1.553-1.917-2.988-4.261zm-49.444-27.75c-.16-.11-1.121-1.564-2.136-3.232-5.2-8.553-10.465-15.562-15.866-21.12-1.792-1.844-3.259-3.534-3.259-3.755 0-.222 1.26-1.768 2.8-3.436 5.924-6.415 10.22-12.346 17.948-24.77.222-.358.574-.65.783-.65.208 0 1.132 1.397 2.052 3.105 3.351 6.22 8.892 13.93 15.493 21.563 1.76 2.035 3.2 3.924 3.2 4.198 0 .274-.341.813-.758 1.198-1.208 1.117-5.612 6.225-8.027 9.312-2.789 3.565-7.385 10.418-9.566 14.263-1.765 3.113-2.193 3.647-2.664 3.325zm-54.162-32.192c-.994-1.924-5.453-8.826-7.875-12.19-3.197-4.44-6.072-7.885-9.816-11.764-1.637-1.696-2.976-3.172-2.976-3.28 0-.109.93-1.191 2.068-2.406 6.015-6.424 10.496-12.44 17.023-22.863 1.294-2.067 2.262-3.322 2.56-3.322.302 0 .95.859 1.746 2.311 4.119 7.523 10.282 15.992 17.553 24.122.888.993 1.615 1.926 1.615 2.072 0 .147-1.385 1.815-3.078 3.707-5.8 6.484-11.41 14.216-15.455 21.302-2.027 3.553-2.541 3.906-3.365 2.311zm105.36-.387c-5.68-9.542-10.777-16.437-17.315-23.422-1.66-1.774-3.02-3.383-3.02-3.574 0-.192 1.15-1.547 2.554-3.013 4.9-5.114 9.56-11.339 15.419-20.594 1.683-2.659 3.264-4.874 3.513-4.922.314-.06.92.785 1.965 2.745 3.176 5.952 8.786 13.807 15.17 21.243 2.01 2.34 3.655 4.45 3.655 4.687 0 .236-1.178 1.714-2.617 3.283-6.253 6.816-11.462 14.13-17.366 24.388-.485.843-1.128.574-1.958-.82zm-105.27-61.27a853.852 853.852 0 0 1-3.23-5.146c-4.42-7.08-8.637-12.564-14.367-18.68-1.736-1.853-3.157-3.45-3.157-3.548 0-.1 1.214-1.46 2.698-3.023 4.963-5.231 9.02-10.624 14.965-19.898 1.991-3.106 3.768-5.695 3.949-5.755.181-.06 1.149 1.359 2.15 3.154 4.036 7.233 9.21 14.376 16.103 22.228 1.486 1.692 2.7 3.22 2.7 3.395 0 .175-1.06 1.455-2.355 2.845-5.395 5.785-10.527 12.72-15.322 20.704-1.52 2.532-2.914 4.654-3.096 4.715-.183.06-.65-.386-1.038-.992zm104.17-2.185c-5.386-8.932-11.723-17.25-17.326-22.741-1.049-1.028-1.907-2.044-1.907-2.258 0-.213 1.206-1.712 2.68-3.33 6.047-6.638 9.929-11.874 15.993-21.575 1.242-1.986 2.402-3.704 2.579-3.817.457-.294.799.15 2.49 3.24 3.375 6.161 9.121 14.11 15.542 21.496 1.645 1.893 2.991 3.622 2.991 3.842 0 .22-1.385 1.948-3.078 3.84a128.558 128.558 0 0 0-15.314 21.158c-1.078 1.867-2.124 3.395-2.325 3.395-.201 0-1.247-1.463-2.325-3.25zM16.118 80.524c-1.186-1.787-3.05-4.273-4.143-5.524-1.092-1.251-2.101-2.431-2.242-2.623-.174-.236.484-1.23 2.03-3.07 1.257-1.497 3.193-4.119 4.3-5.827 1.179-1.817 2.206-3.105 2.478-3.105.255 0 .769.552 1.143 1.228 1.176 2.125 3.975 6.06 5.789 8.14.96 1.1 1.746 2.124 1.746 2.275 0 .15-.892 1.33-1.98 2.62-1.991 2.36-3.457 4.398-5.375 7.475-.57.913-1.16 1.66-1.312 1.66-.152 0-1.247-1.462-2.434-3.25zm-1.462-22.915c-2.59-.828-5.812-4.842-4.832-6.02.177-.213.93-.556 1.672-.764 1.247-.348 1.375-.335 1.66.174 2.04 3.642 6.694 3.911 8.854.512.814-1.28 1.706-4.26 1.374-4.591-.09-.09-.726.124-1.413.474-1.685.857-4.342 1.047-6.381.456-4.299-1.247-6.647-5.857-6.247-12.262.127-2.027.32-2.778 1.124-4.348 1.756-3.434 4.587-4.9 8.84-4.58 3.72.28 6.598 2.542 7.745 6.085.84 2.591 1.143 6.984.797 11.536-.563 7.425-2.386 11.232-6.177 12.902-1.842.812-5.175 1.014-7.016.426zm6.892-14.49c.626-.439 1.453-1.384 1.838-2.099.604-1.121.678-1.558.54-3.177-.282-3.279-1.126-5.176-2.882-6.473-.657-.486-1.24-.605-2.963-.605-2.067 0-2.183.037-3.155 1.011-1.466 1.469-2.141 4.168-1.694 6.773.666 3.877 2.7 5.835 5.732 5.52a5.57 5.57 0 0 0 2.584-.95zm189.09-22.056c-.299-.482.373-1.034.772-.636.334.334.125.95-.322.95-.14 0-.343-.141-.45-.314z" fill="#f6d0d0"/><path d="M0 157.44V0h217.76v314.88H0V157.44zm158.73 156.93c-27.604-.041-72.689-.041-100.19 0-27.499.041-4.914.074 50.19.074 55.103 0 77.603-.033 49.998-.074zm52.815-.907c1.704-.772 3.235-2.222 4.126-3.906l.778-1.47V7.367l-.814-1.654c-.448-.91-1.346-2.107-1.996-2.662-2.427-2.072 7.173-1.906-105.35-1.824L6.81 1.3l-1.158.625c-1.558.842-3.17 2.56-3.887 4.141l-.588 1.3-.01 150.24-.01 150.24.908 1.813c.94 1.876 2.468 3.254 4.395 3.963.7.257 25.478.343 102.41.355 98.08.015 101.53 0 102.67-.518zM1.595 302.165c.098-.159.302-.289.451-.289.15 0 .273.13.273.289 0 .159-.203.289-.452.289-.248 0-.37-.13-.272-.29zm190.82-6.17c-4.421-2.063-5.942-6.772-5.353-16.568.378-6.296 1.745-10.006 4.44-12.057 2.293-1.745 6.62-2.174 9.312-.924 1.58.734 3.172 2.343 3.799 3.84.568 1.357.516 1.528-.606 1.995-1.572.655-2.099.531-2.905-.685-.89-1.34-2.33-2.074-4.073-2.074-2.437 0-3.943 1.052-5.036 3.516-.65 1.468-1.132 4.15-.709 3.947 2.996-1.44 3.228-1.508 5.185-1.505 5.897.01 9.239 4.726 8.76 12.367-.194 3.116-1.009 4.97-2.967 6.755-1.807 1.648-3.07 2.075-6.116 2.072-1.783 0-2.6-.151-3.731-.679zm7.001-3.688c1.497-.916 2.253-2.838 2.26-5.741 0-2.157-.1-2.667-.864-4.19-1.165-2.324-2.251-3.032-4.653-3.032-1.602 0-1.965.11-3.07.943-.69.518-1.556 1.526-1.926 2.238-.579 1.114-.65 1.569-.506 3.239.326 3.766 1.726 6.16 4.114 7.034 1.372.502 3.367.29 4.645-.491zm-145.93-9.984a985.049 985.049 0 0 1-3.114-4.982c-4.254-6.841-8.178-11.972-13.907-18.187-1.897-2.058-3.449-3.828-3.449-3.933 0-.105 1.187-1.471 2.638-3.036 5.278-5.692 11.725-14.477 16.908-23.04.82-1.354 1.615-2.355 1.836-2.311.214.043 1.105 1.378 1.979 2.967 3.502 6.364 9.794 15.044 16.106 22.219 1.386 1.575 2.52 3.047 2.52 3.271 0 .225-1.104 1.6-2.452 3.058-5.358 5.792-11.12 13.637-15.51 21.12-1.205 2.054-2.34 3.785-2.523 3.846-.182.06-.646-.386-1.031-.992zm103.64-3.052c-5.018-8.17-10.132-14.932-15.528-20.532-1.751-1.817-3.185-3.395-3.185-3.507 0-.11 1.082-1.329 2.404-2.706 5.107-5.319 9.736-11.464 15.56-20.656 1.778-2.806 3.383-5.1 3.566-5.1.183 0 .984 1.2 1.78 2.662 3.571 6.557 8.573 13.57 15.178 21.282 2.095 2.446 3.772 4.545 3.726 4.665-.045.12-1.38 1.671-2.966 3.447-3.626 4.06-6.156 7.204-8.872 11.022-2.22 3.12-6.672 10.188-7.755 12.312-.344.675-.795 1.227-1.003 1.227-.207 0-1.514-1.852-2.905-4.116zm37.491-23.767c-1.178-1.815-3.035-4.267-4.126-5.448-1.09-1.181-1.983-2.293-1.983-2.471 0-.178.91-1.391 2.024-2.695 1.113-1.305 2.97-3.83 4.126-5.611 1.19-1.835 2.302-3.245 2.563-3.253.253-.01.622.344.82.78.637 1.405 3.391 5.346 5.5 7.872 1.128 1.351 2.05 2.631 2.05 2.845 0 .214-.696 1.189-1.549 2.166-1.832 2.102-4.054 5.17-5.422 7.483-.54.914-1.18 1.655-1.42 1.648-.242-.01-1.404-1.5-2.583-3.316zm-141.91-35.89c-2.172-3.746-7.934-12.164-10.592-15.47-1.38-1.72-3.995-4.661-5.808-6.538-1.814-1.876-3.297-3.573-3.297-3.77 0-.197 1.1-1.512 2.446-2.923 4.793-5.024 9.72-11.577 15.066-20.043 1.707-2.701 3.298-5.106 3.537-5.344.517-.515.213-.922 3.07 4.11 3.502 6.17 9.537 14.36 15.81 21.455 1.124 1.271 2.046 2.475 2.05 2.676 0 .2-1.37 1.908-3.054 3.794-5.803 6.5-11.396 14.238-15.326 21.2-.99 1.755-1.924 3.08-2.172 3.083-.24 0-1.015-.996-1.73-2.23zm104.27-2.045c-4.87-7.96-9.92-14.598-15.817-20.784l-2.822-2.96 2.574-2.811c6.192-6.762 10.376-12.408 16.592-22.393 1.166-1.873 2.259-3.36 2.428-3.303.17.056 1.275 1.784 2.458 3.839 4 6.954 9.384 14.317 15.794 21.6 1.375 1.562 2.5 2.942 2.5 3.065 0 .123-.944 1.25-2.099 2.503-6.186 6.713-12.353 15.136-16.567 22.627-.9 1.598-1.81 2.906-2.026 2.906-.215 0-1.57-1.93-3.013-4.288zm-51.162-30.306c-4.88-8.173-10.8-16.079-16.375-21.864-1.734-1.8-3.153-3.353-3.153-3.452 0-.099 1.313-1.576 2.917-3.284 5.448-5.795 10.498-12.75 17.83-24.553.222-.357.564-.648.76-.647.195 0 1.006 1.195 1.802 2.652 3.914 7.16 8.858 14.013 16.27 22.549 1.483 1.707 2.696 3.176 2.696 3.264 0 .088-1.385 1.707-3.078 3.6-5.794 6.476-11.66 14.57-15.44 21.306-1.003 1.785-1.986 3.246-2.186 3.246-.2 0-1.119-1.267-2.044-2.817zm-51.9-28.9c-.224-.367-1.037-1.707-1.807-2.978-4.792-7.91-10.47-15.465-15.883-21.132-1.693-1.772-3.077-3.332-3.077-3.467 0-.136 1.25-1.604 2.778-3.263 3.574-3.88 5.5-6.246 8.713-10.704 2.297-3.188 8.084-12.027 9.03-13.794.594-1.111 1.295-.792 2.17.989 2.979 6.058 9.945 15.8 16.942 23.692 1.294 1.46 2.353 2.828 2.353 3.041 0 .213-.945 1.425-2.1 2.692-6.324 6.944-11.794 14.418-16.366 22.368-.956 1.662-1.875 3.068-2.042 3.124-.167.055-.487-.2-.711-.567zm105.65.03c-.277-.384-1.668-2.57-3.09-4.86-4.8-7.722-9.215-13.495-14.529-18.996-1.871-1.937-3.402-3.61-3.402-3.716 0-.106 1.123-1.383 2.495-2.836 5.064-5.365 9.987-11.928 15.526-20.698 1.656-2.622 3.215-4.806 3.464-4.854.315-.06.916.782 1.958 2.744 3.146 5.926 8.827 13.815 15.623 21.698 1.686 1.956 3.105 3.667 3.153 3.803.05.136-.907 1.33-2.124 2.655-5.472 5.956-10.634 12.886-14.81 19.885-1.47 2.463-2.917 4.792-3.216 5.175l-.543.698-.505-.698zM53.195 95.448C46.783 85.003 42.177 78.81 36.44 72.913c-1.814-1.863-3.298-3.575-3.298-3.804 0-.228.534-.93 1.186-1.557 4.756-4.58 11.116-13.066 18.275-24.383.91-1.437 1.777-2.613 1.93-2.613.151 0 1.091 1.462 2.088 3.25 4.084 7.326 9.563 14.815 16.843 23.017.915 1.031 1.665 2.053 1.665 2.27 0 .218-1.05 1.538-2.334 2.934C67.454 77.836 62.2 84.938 57.74 92.38c-1.521 2.537-2.92 4.664-3.11 4.728-.191.063-.836-.683-1.434-1.658zm105.02-.802c-4.94-8.273-10.918-16.269-16.632-22.248l-3.11-3.254 1.697-1.88c4.6-5.1 5.886-6.628 8.492-10.1 3.061-4.077 5.668-7.92 8.964-13.215 1.162-1.867 2.261-3.392 2.442-3.39.182 0 1.047 1.335 1.923 2.958 3.289 6.096 9.08 14.142 15.62 21.706 1.76 2.035 3.197 3.784 3.192 3.888 0 .103-1.489 1.842-3.299 3.865-5.613 6.274-10.917 13.59-15.084 20.804-1.078 1.867-2.126 3.394-2.328 3.394-.202 0-1.047-1.137-1.878-2.527zM16.235 80.348c-1.191-1.787-3.088-4.288-4.215-5.557-1.127-1.269-2.049-2.465-2.049-2.658 0-.193.793-1.235 1.762-2.315.969-1.08 2.873-3.62 4.232-5.647 1.36-2.025 2.577-3.683 2.706-3.683.128 0 .643.713 1.143 1.585 1.243 2.168 3.806 5.707 5.683 7.848.857.978 1.558 1.988 1.558 2.245 0 .258-.507 1.018-1.126 1.69-1.44 1.562-4.5 5.712-5.883 7.982-.59.968-1.202 1.76-1.359 1.76-.157 0-1.26-1.462-2.452-3.25zM14.17 57.215c-2.15-1.04-4.199-3.409-4.199-4.852 0-.608.195-.842.912-1.091 1.56-.542 2.123-.397 2.876.74 1.806 2.727 5.733 2.87 8.003.29 1.037-1.178 2.621-5.68 1.998-5.68-.06 0-.875.35-1.81.776-3.8 1.736-8.391.529-10.508-2.761-1.223-1.903-1.76-4.266-1.76-7.742 0-3.547.592-5.439 2.314-7.391 1.626-1.843 3.56-2.61 6.55-2.597 5.145.021 8.205 2.959 9.11 8.746.445 2.839.177 11.343-.435 13.79-.894 3.582-2.811 6.387-5.234 7.656-.86.45-1.83.634-3.764.712-2.295.093-2.778.022-4.054-.596zm7.286-13.666c.647-.418 1.53-1.296 1.963-1.95.73-1.105.778-1.362.676-3.667-.187-4.246-1.982-6.88-5.015-7.357-3.592-.566-5.926 1.987-5.922 6.478 0 3.215.899 5.275 2.871 6.6 1.434.965 3.847.918 5.427-.104zm189.31-22.374c-.298-.481.373-1.034.772-.635.334.333.125.95-.322.95-.14 0-.343-.142-.45-.315z" fill="#d6d6d6"/><path d="M0 157.44V0h217.76v314.88H0V157.44zm209.57 156.89c.277-.145 1.09-.469 1.81-.72 1.9-.664 3.309-1.961 4.319-3.978l.889-1.775V7.317l-.886-1.769c-.929-1.854-2.302-3.164-4.228-4.033-1.048-.473-6.88-.501-102.6-.501H7.384l-1.514.682c-1.862.84-3.573 2.642-4.305 4.534-.54 1.398-.551 4.595-.551 151.64v150.22l.782 1.48c1.033 1.955 3.069 3.706 5.109 4.395 1.6.54 3.93.554 101.9.589 59.857.022 100.47-.07 100.77-.227zm-17.16-18.328c-4.421-2.063-5.942-6.772-5.353-16.568.378-6.296 1.745-10.006 4.44-12.057 2.293-1.745 6.62-2.174 9.312-.924 1.58.734 3.172 2.343 3.799 3.84.568 1.357.516 1.528-.606 1.995-1.572.655-2.099.531-2.905-.685-.89-1.34-2.33-2.074-4.073-2.074-2.437 0-3.943 1.052-5.036 3.516-.65 1.468-1.132 4.15-.709 3.947 2.996-1.44 3.228-1.508 5.185-1.505 5.897.01 9.239 4.726 8.76 12.367-.194 3.116-1.009 4.97-2.967 6.755-1.807 1.648-3.07 2.075-6.116 2.072-1.783 0-2.6-.151-3.731-.679zm7.001-3.688c1.497-.916 2.253-2.838 2.26-5.741 0-2.157-.1-2.667-.864-4.19-1.165-2.324-2.251-3.032-4.653-3.032-1.602 0-1.965.11-3.07.943-.69.518-1.556 1.526-1.926 2.238-.579 1.114-.65 1.569-.506 3.239.326 3.766 1.726 6.16 4.114 7.034 1.372.502 3.367.29 4.645-.491zm-145.93-9.984a985.049 985.049 0 0 1-3.114-4.982c-4.254-6.841-8.178-11.972-13.907-18.187-1.897-2.058-3.449-3.828-3.449-3.933 0-.105 1.187-1.471 2.638-3.036 5.278-5.692 11.725-14.477 16.908-23.04.82-1.354 1.615-2.355 1.836-2.311.214.043 1.105 1.378 1.979 2.967 3.502 6.364 9.794 15.044 16.106 22.219 1.386 1.575 2.52 3.047 2.52 3.272 0 .224-1.104 1.6-2.452 3.057-5.358 5.792-11.12 13.637-15.51 21.12-1.205 2.054-2.34 3.785-2.523 3.846-.182.06-.646-.386-1.031-.992zm103.64-3.052c-5.018-8.17-10.132-14.932-15.528-20.532-1.751-1.817-3.185-3.395-3.185-3.507 0-.11 1.082-1.329 2.404-2.706 5.107-5.319 9.736-11.464 15.56-20.656 1.778-2.806 3.383-5.1 3.566-5.1.183 0 .984 1.2 1.78 2.662 3.571 6.557 8.574 13.57 15.178 21.282 2.095 2.446 3.772 4.545 3.726 4.665-.045.12-1.38 1.671-2.966 3.447-3.626 4.06-6.156 7.204-8.872 11.022-2.22 3.12-6.672 10.188-7.755 12.312-.344.675-.795 1.227-1.003 1.227-.207 0-1.514-1.852-2.905-4.116zm37.491-23.767c-1.178-1.815-3.035-4.267-4.126-5.448-1.09-1.181-1.983-2.293-1.983-2.471 0-.178.91-1.391 2.024-2.695 1.113-1.305 2.97-3.83 4.126-5.611 1.19-1.835 2.302-3.245 2.563-3.253.253-.01.622.344.82.78.637 1.405 3.391 5.346 5.5 7.873 1.128 1.35 2.05 2.63 2.05 2.844 0 .214-.696 1.189-1.549 2.166-1.832 2.102-4.054 5.17-5.422 7.483-.54.914-1.18 1.655-1.42 1.648-.242-.01-1.404-1.5-2.583-3.316zm-141.91-35.89c-2.172-3.746-7.934-12.164-10.592-15.47-1.38-1.72-3.995-4.661-5.808-6.538-1.814-1.876-3.297-3.573-3.297-3.77 0-.197 1.1-1.512 2.446-2.923 4.793-5.024 9.72-11.577 15.066-20.043 1.707-2.701 3.298-5.106 3.537-5.344.517-.515.213-.922 3.07 4.11 3.502 6.17 9.537 14.36 15.81 21.455 1.124 1.271 2.046 2.475 2.05 2.676 0 .2-1.37 1.908-3.054 3.794-5.803 6.5-11.396 14.238-15.326 21.2-.99 1.755-1.924 3.08-2.172 3.083-.24 0-1.015-.996-1.73-2.23zm104.27-2.045c-4.87-7.96-9.92-14.598-15.817-20.784l-2.822-2.96 2.574-2.811c6.192-6.762 10.376-12.408 16.592-22.393 1.166-1.873 2.259-3.36 2.428-3.303.17.056 1.275 1.784 2.458 3.839 4 6.954 9.384 14.317 15.794 21.6 1.375 1.562 2.5 2.942 2.5 3.065 0 .123-.944 1.25-2.099 2.503-6.186 6.713-12.353 15.136-16.567 22.627-.9 1.598-1.81 2.906-2.026 2.906-.215 0-1.57-1.93-3.013-4.288zM105.81 187.27c-4.88-8.173-10.8-16.079-16.375-21.864-1.734-1.8-3.153-3.353-3.153-3.452 0-.099 1.313-1.576 2.917-3.284 5.448-5.795 10.498-12.75 17.83-24.553.222-.357.564-.648.76-.647.195 0 1.006 1.195 1.802 2.652 3.914 7.16 8.858 14.013 16.27 22.549 1.483 1.707 2.696 3.176 2.696 3.264 0 .088-1.385 1.707-3.078 3.6-5.794 6.476-11.66 14.57-15.44 21.306-1.003 1.785-1.986 3.246-2.186 3.246-.2 0-1.119-1.267-2.044-2.817zm-52-29c-.224-.367-1.037-1.707-1.807-2.978-4.792-7.91-10.47-15.465-15.883-21.132-1.693-1.772-3.077-3.332-3.077-3.467 0-.136 1.25-1.604 2.778-3.263 3.574-3.88 5.5-6.246 8.713-10.704 2.297-3.188 8.084-12.027 9.03-13.794.594-1.111 1.295-.792 2.17.989 2.979 6.058 9.945 15.8 16.942 23.692 1.294 1.46 2.353 2.828 2.353 3.041 0 .213-.945 1.425-2.1 2.692-6.324 6.944-11.794 14.418-16.366 22.368-.956 1.662-1.875 3.068-2.042 3.124-.167.055-.487-.2-.711-.567zm105.65.03c-.277-.384-1.668-2.57-3.09-4.86-4.8-7.722-9.215-13.495-14.529-18.996-1.871-1.937-3.402-3.61-3.402-3.716 0-.106 1.123-1.383 2.495-2.836 5.064-5.365 9.987-11.928 15.526-20.698 1.656-2.622 3.215-4.806 3.464-4.854.315-.06.916.782 1.958 2.744 3.146 5.926 8.827 13.815 15.623 21.698 1.686 1.956 3.105 3.667 3.153 3.803.05.136-.907 1.33-2.124 2.655-5.471 5.956-10.634 12.886-14.81 19.885-1.47 2.463-2.917 4.792-3.216 5.175l-.543.698-.505-.698zM53.09 95.355C46.678 84.91 42.072 78.716 36.334 72.82c-1.814-1.863-3.298-3.575-3.298-3.804 0-.228.534-.93 1.186-1.557 4.756-4.58 11.116-13.066 18.275-24.383.91-1.437 1.777-2.613 1.93-2.613.151 0 1.091 1.462 2.088 3.25 4.084 7.326 9.563 14.815 16.843 23.017.915 1.031 1.665 2.053 1.665 2.27 0 .218-1.05 1.538-2.334 2.934-5.34 5.809-10.593 12.911-15.054 20.352-1.521 2.537-2.92 4.664-3.11 4.728-.191.063-.836-.683-1.434-1.658zm105.02-.802c-4.94-8.273-10.918-16.269-16.632-22.248l-3.11-3.254 1.697-1.88c4.6-5.1 5.886-6.628 8.492-10.1 3.061-4.077 5.668-7.92 8.964-13.215 1.162-1.867 2.261-3.392 2.442-3.39.182 0 1.047 1.335 1.923 2.958 3.289 6.096 9.08 14.142 15.62 21.706 1.76 2.035 3.197 3.784 3.192 3.888 0 .103-1.489 1.842-3.299 3.865-5.613 6.274-10.917 13.59-15.084 20.804-1.078 1.867-2.126 3.394-2.328 3.394-.202 0-1.047-1.137-1.878-2.527zM16.13 80.255c-1.191-1.787-3.088-4.288-4.215-5.557-1.127-1.269-2.049-2.465-2.049-2.658 0-.193.793-1.235 1.762-2.315.969-1.08 2.873-3.62 4.232-5.647 1.36-2.025 2.577-3.683 2.706-3.683.128 0 .643.713 1.143 1.585 1.243 2.168 3.806 5.707 5.683 7.848.857.978 1.558 1.988 1.558 2.245 0 .258-.507 1.018-1.126 1.69-1.44 1.562-4.5 5.712-5.883 7.982-.59.968-1.202 1.76-1.359 1.76-.157 0-1.26-1.462-2.452-3.25zm-2.065-23.133c-2.15-1.04-4.199-3.409-4.199-4.852 0-.608.195-.842.912-1.091 1.56-.542 2.123-.397 2.876.74 1.806 2.727 5.733 2.87 8.003.29 1.037-1.178 2.621-5.68 1.998-5.68-.06 0-.875.35-1.81.776-3.8 1.736-8.391.529-10.508-2.761-1.223-1.903-1.76-4.266-1.76-7.742 0-3.547.592-5.439 2.314-7.391 1.626-1.843 3.56-2.61 6.55-2.597 5.145.021 8.205 2.959 9.11 8.746.445 2.839.177 11.343-.435 13.79-.894 3.582-2.811 6.387-5.234 7.656-.86.45-1.83.634-3.764.712-2.295.093-2.778.022-4.054-.596zm7.286-13.666c.647-.418 1.53-1.296 1.963-1.95.73-1.105.778-1.362.676-3.667-.187-4.246-1.982-6.88-5.015-7.357-3.592-.566-5.926 1.987-5.922 6.478 0 3.215.899 5.275 2.871 6.6 1.434.965 3.847.918 5.427-.104zm189.62-22.638c-.098-.158-.04-.288.128-.288.169 0 .307.13.307.288 0 .16-.058.29-.128.29s-.208-.13-.307-.29z" fill="#f1afaf"/><path d="M0 157.44V0h217.76v314.88H0V157.44zm209.57 156.89c.277-.145 1.09-.469 1.81-.72 1.9-.664 3.309-1.961 4.319-3.978l.889-1.775V7.317l-.886-1.769c-.929-1.854-2.302-3.164-4.228-4.033-1.048-.473-6.88-.501-102.6-.501H7.384l-1.514.682c-1.862.84-3.573 2.642-4.305 4.534-.54 1.398-.551 4.595-.551 151.64v150.22l.782 1.48c1.033 1.955 3.069 3.706 5.109 4.395 1.6.54 3.93.554 101.9.589 59.857.022 100.47-.07 100.77-.227zm-15.608-17.833c-1.452-.257-3.839-1.939-4.813-3.391-1.703-2.54-1.953-3.922-1.94-10.722.011-6.611.324-8.672 1.75-11.524.983-1.968 2.835-3.814 4.45-4.436 1.97-.758 5.873-.694 7.41.123 1.423.755 3.519 2.963 3.773 3.975.272 1.08.027 1.45-1.21 1.829-1.104.338-1.112.335-2.42-1.06-1.517-1.616-2.97-2.206-4.746-1.927-1.783.281-3.19 1.345-4.046 3.061-.76 1.52-1.568 4.496-1.296 4.768.083.082.848-.211 1.7-.652 1.341-.693 1.887-.802 4.023-.802 2.193 0 2.645.096 4.007.849 3.024 1.67 4.424 4.81 4.455 9.984.015 2.48-.102 3.345-.635 4.74-.736 1.922-2.42 3.79-4.158 4.612-1.116.527-4.716.854-6.304.573zm4.581-3.588c2.312-.871 3.418-3.293 3.221-7.046-.103-1.961-.277-2.648-.997-3.939-2.087-3.741-6.81-3.813-9.299-.141-.83 1.225-.941 1.616-.941 3.331 0 3.59 1.321 6.395 3.523 7.482 1.36.672 3.2.8 4.493.313zm-145.84-12.041c-4.41-7.594-10.962-16.37-16.61-22.25l-3.157-3.285.704-.774c.387-.426 1.756-1.915 3.04-3.308 4.479-4.854 9.814-12.123 14.854-20.234 1.351-2.175 2.612-3.954 2.802-3.954.19 0 1.283 1.655 2.43 3.679 3.559 6.277 7.432 11.686 13.49 18.836a646.132 646.132 0 0 1 4.266 5.067l.543.674-3.1 3.466c-3.48 3.89-6.77 8.031-9.654 12.15-2.07 2.956-7.298 11.494-7.298 11.917 0 .139-.228.251-.507.25-.325 0-.97-.803-1.802-2.235zm106.07.865c-4.907-8.438-10.323-15.797-16.673-22.654-1.87-2.02-3.402-3.763-3.402-3.873 0-.109.88-1.124 1.955-2.254 5.704-6.001 11.307-13.59 17.809-24.127.597-.969 1.249-1.758 1.447-1.754.199 0 1.208 1.523 2.244 3.377 3.907 6.997 9.5 14.62 16.577 22.594.915 1.031 1.665 2.042 1.665 2.246 0 .203-.997 1.443-2.216 2.755-5.818 6.265-12.483 15.472-16.73 23.112-.596 1.073-1.263 1.95-1.481 1.95-.218 0-.756-.617-1.195-1.372zm37.103-24.644c-1.443-2.37-4.05-5.837-5.907-7.857-1.734-1.887-1.808-1.482.8-4.402.852-.953 2.604-3.326 3.894-5.272 1.29-1.946 2.448-3.539 2.574-3.539.125 0 .446.423.712.939.895 1.735 3.373 5.252 5.514 7.826 1.169 1.405 2.12 2.64 2.116 2.744 0 .105-.975 1.343-2.157 2.751-1.85 2.206-3.47 4.505-5.469 7.767-.267.437-.604.794-.749.794-.144 0-.741-.788-1.328-1.75zm-144.28-39.486c-4.947-8.085-9.818-14.515-15.54-20.51l-3.101-3.251 2.74-2.96c1.508-1.628 3.943-4.455 5.412-6.283 2.63-3.272 9.51-13.307 11.734-17.116.626-1.072 1.295-1.95 1.487-1.95.191 0 .9 1.008 1.577 2.24 4.085 7.437 9.11 14.406 16.597 23.02 1.373 1.578 2.495 2.947 2.495 3.04 0 .095-.944 1.209-2.099 2.476-6.4 7.026-11.858 14.46-16.29 22.184-1.064 1.855-2.04 3.372-2.17 3.372-.129 0-1.408-1.918-2.842-4.261zm107.17 2.543c-2.765-4.543-8.669-13.162-10.992-16.047-1.407-1.748-4.024-4.687-5.817-6.531-1.792-1.845-3.259-3.515-3.259-3.713 0-.198 1.191-1.614 2.647-3.147 4.871-5.128 10.004-12.004 15.416-20.648 1.559-2.49 2.986-4.524 3.172-4.522.186 0 .913 1.075 1.616 2.383 3.741 6.964 9.046 14.332 16.295 22.633 1.403 1.607 2.551 3.08 2.551 3.273 0 .193-1.05 1.494-2.334 2.89-5.33 5.799-10.822 13.223-14.968 20.237-1.362 2.304-2.644 4.372-2.85 4.596-.315.342-.55.117-1.477-1.404zm-53.224-33.596c-5.317-8.754-10.36-15.388-16.924-22.263-1.58-1.656-2.083-2.363-1.882-2.646.152-.212 1.452-1.665 2.89-3.23 5.041-5.483 9.685-11.735 14.868-20.02 1.49-2.38 2.876-4.468 3.082-4.638.29-.24.654.2 1.611 1.942 4.118 7.493 9.246 14.619 16.66 23.148 1.334 1.535 2.426 2.952 2.426 3.147 0 .196-.821 1.236-1.826 2.311-6.17 6.605-12.886 15.842-17.171 23.62-.57 1.034-1.198 1.879-1.398 1.879-.2 0-1.25-1.462-2.336-3.25zm-52.055-29.032c-5.582-9.45-10.847-16.571-17.527-23.713l-2.984-3.191 2.65-2.834c5.036-5.384 9.178-10.853 14.292-18.872l3.544-5.554c.382-.596.81-1.083.953-1.083.143 0 .936 1.267 1.763 2.816 3.52 6.596 8.64 13.659 16.41 22.642 1.324 1.53 2.407 2.862 2.407 2.959 0 .097-.993 1.25-2.207 2.562-6.26 6.766-11.932 14.692-17.776 24.846-.438.762-.818.618-1.525-.578zm105.59.144c-.81-1.581-5.876-9.427-7.873-12.193-2.77-3.837-6.478-8.275-9.713-11.627-1.568-1.625-2.806-3.073-2.75-3.22.054-.146 1.49-1.807 3.189-3.692 3.777-4.19 5.397-6.199 8.503-10.544 2.18-3.051 7.917-11.848 8.792-13.483.481-.899.91-.692 1.728.833 4.055 7.56 9.14 14.715 16.484 23.195 1.64 1.893 2.943 3.606 2.896 3.805-.047.2-1.389 1.822-2.981 3.605-5.583 6.248-11.661 14.67-15.481 21.452-.87 1.544-1.747 2.808-1.947 2.808-.201 0-.582-.423-.846-.939zm.263-61.362c-.311-.45-1.07-1.664-1.683-2.697-4.735-7.961-10.318-15.31-16.9-22.244-1.13-1.191-2.057-2.277-2.059-2.412 0-.135 1.122-1.435 2.496-2.888 4.894-5.179 9.586-11.43 15.157-20.192 1.792-2.82 3.407-5.128 3.588-5.127.18 0 .718.748 1.195 1.66 3.478 6.667 10.078 15.838 17.203 23.905 1.122 1.27 2.044 2.483 2.048 2.694 0 .21-1.097 1.576-2.445 3.033-5.338 5.77-10.921 13.369-15.211 20.705-2.707 4.629-2.675 4.595-3.39 3.563zM51.59 92.796c-4.77-7.854-9.997-14.764-15.44-20.412l-3.22-3.343 2.575-2.812c6.176-6.745 11.248-13.638 17.212-23.393.703-1.151 1.43-2.093 1.615-2.095.186 0 1.122 1.402 2.08 3.119 3.97 7.107 10.59 16.107 17.208 23.399.772.849 1.362 1.651 1.313 1.782-.049.131-1.346 1.649-2.883 3.373-6.415 7.198-12.233 15.299-16.2 22.558-.544.993-1.18 1.798-1.42 1.792-.243-.01-1.493-1.753-2.84-3.968zM17.1 81.534c-1.392-2.323-4.673-6.638-6.08-7.994-.65-.628-1.183-1.288-1.183-1.467 0-.178.341-.64.757-1.024 1.164-1.076 4.2-5.04 6.013-7.85.897-1.39 1.755-2.528 1.907-2.528.151 0 .629.618 1.06 1.372 1.242 2.168 3.226 4.93 5.37 7.474 1.087 1.29 1.977 2.433 1.977 2.538 0 .105-.86 1.194-1.913 2.42-1.844 2.148-5.905 7.982-5.905 8.484 0 .134-.228.24-.507.236-.303 0-.903-.67-1.497-1.66zm-2.137-24.15c-2.55-.952-4.791-3.205-4.921-4.949-.053-.706.09-.852 1.2-1.227l1.26-.427 1.27 1.449c1.018 1.16 1.552 1.516 2.687 1.787 2.73.654 5.183-.68 6.388-3.473.59-1.37 1.151-4.317.821-4.317-.082 0-.76.34-1.506.757-2.788 1.554-6.967 1.134-9.403-.946-2.207-1.885-3.42-5.881-3.14-10.353.237-3.776 1.822-6.485 4.706-8.043 1.671-.902 6.407-.897 8.108.01 2.413 1.285 4.098 3.695 4.808 6.877.553 2.475.47 11.194-.134 13.983-.529 2.445-1.759 5.234-2.904 6.584-1.765 2.083-6.59 3.278-9.24 2.29zm5.09-13.197c2.249-.623 4.242-3.213 4.256-5.53 0-.587-.14-1.757-.319-2.6-.87-4.095-3.207-6.048-6.76-5.648-2.83.318-4.32 2.583-4.327 6.574-.01 3.646 1.106 5.893 3.45 6.967 1.331.61 2.161.663 3.7.237zm190.89-23.382c-.099-.159-.042-.289.127-.289s.307.13.307.29c0 .158-.058.288-.128.288s-.208-.13-.307-.289z" fill="#b5b5b5"/><path d="M0 157.44V0h217.76v314.88H0V157.44zm211.69 156.25a9.26 9.26 0 0 0 4.375-4.251l.673-1.35V7.369l-.69-1.525c-.85-1.876-3.017-3.887-4.865-4.515-1.227-.417-10.754-.46-102.58-.457H7.383l-1.448.675c-2.113.984-3.185 2.01-4.182 4L.868 7.313v150.13c0 133.57.048 150.27.44 151.38.862 2.438 2.827 4.32 5.438 5.21 1.432.487 6.454.51 102.42.46l100.91-.053 1.612-.755zm-17.722-17.197c-1.452-.257-3.839-1.939-4.813-3.391-1.703-2.54-1.953-3.922-1.94-10.722.011-6.611.324-8.672 1.75-11.524.983-1.968 2.835-3.814 4.45-4.436 1.97-.758 5.873-.694 7.41.123 1.423.755 3.519 2.963 3.773 3.975.272 1.08.027 1.45-1.21 1.829-1.104.338-1.112.335-2.42-1.06-1.517-1.616-2.97-2.206-4.746-1.927-1.783.281-3.19 1.345-4.046 3.061-.76 1.52-1.568 4.496-1.296 4.768.083.082.848-.211 1.7-.652 1.341-.693 1.887-.802 4.023-.802 2.193 0 2.645.096 4.007.849 3.024 1.67 4.424 4.81 4.455 9.984.015 2.48-.102 3.345-.635 4.74-.736 1.922-2.42 3.79-4.158 4.612-1.116.527-4.716.854-6.304.573zm4.581-3.588c2.312-.871 3.418-3.293 3.221-7.046-.103-1.961-.277-2.648-.997-3.939-2.087-3.741-6.81-3.813-9.299-.141-.83 1.225-.941 1.616-.941 3.331 0 3.59 1.321 6.395 3.523 7.482 1.36.672 3.2.8 4.493.313zM52.71 280.864c-4.41-7.594-10.962-16.37-16.61-22.25l-3.157-3.285.704-.774c.387-.426 1.756-1.915 3.04-3.308 4.479-4.854 9.814-12.123 14.854-20.234 1.351-2.175 2.612-3.954 2.802-3.954.19 0 1.283 1.655 2.43 3.679 3.559 6.277 7.432 11.686 13.49 18.836a646.132 646.132 0 0 1 4.266 5.067l.543.674-3.1 3.466c-3.48 3.89-6.77 8.031-9.654 12.15-2.07 2.956-7.298 11.494-7.298 11.917 0 .139-.228.251-.507.25-.325 0-.97-.803-1.802-2.235zm106.07.865c-4.907-8.438-10.323-15.797-16.673-22.654-1.87-2.02-3.402-3.763-3.402-3.873 0-.109.88-1.124 1.955-2.254 5.704-6.001 11.307-13.59 17.809-24.127.597-.969 1.249-1.758 1.447-1.754.199 0 1.208 1.523 2.244 3.377 3.907 6.997 9.5 14.62 16.577 22.594.915 1.031 1.665 2.042 1.665 2.246 0 .203-.997 1.443-2.216 2.755-5.818 6.265-12.483 15.472-16.73 23.112-.596 1.073-1.263 1.95-1.481 1.95-.218 0-.756-.617-1.195-1.372zm37.103-24.644c-1.443-2.37-4.05-5.837-5.907-7.857-1.734-1.887-1.808-1.482.8-4.402.852-.953 2.604-3.326 3.894-5.272 1.29-1.946 2.448-3.539 2.574-3.539.125 0 .446.423.712.939.895 1.735 3.373 5.252 5.514 7.826 1.169 1.405 2.12 2.64 2.116 2.744 0 .105-.975 1.343-2.157 2.751-1.85 2.206-3.47 4.505-5.469 7.767-.267.437-.604.794-.749.794-.144 0-.741-.788-1.328-1.75zM51.602 217.6c-4.947-8.085-9.818-14.515-15.54-20.51l-3.101-3.251 2.74-2.96c1.508-1.628 3.943-4.455 5.412-6.283 2.63-3.272 9.51-13.307 11.734-17.116.626-1.072 1.295-1.95 1.487-1.95.191 0 .9 1.008 1.577 2.24 4.085 7.437 9.11 14.406 16.597 23.02 1.373 1.578 2.495 2.947 2.495 3.04 0 .095-.944 1.209-2.099 2.476-6.4 7.026-11.858 14.46-16.29 22.184-1.064 1.855-2.04 3.372-2.17 3.372-.129 0-1.408-1.918-2.842-4.261zm107.17 2.543c-2.765-4.543-8.669-13.162-10.992-16.047-1.407-1.748-4.024-4.687-5.817-6.531-1.792-1.845-3.259-3.515-3.259-3.713 0-.198 1.191-1.614 2.647-3.147 4.871-5.128 10.004-12.004 15.416-20.648 1.559-2.49 2.986-4.524 3.172-4.522.186 0 .913 1.075 1.616 2.383 3.741 6.964 9.046 14.332 16.295 22.633 1.403 1.607 2.551 3.08 2.551 3.273 0 .193-1.05 1.494-2.334 2.89-5.33 5.799-10.822 13.223-14.968 20.237-1.362 2.304-2.644 4.372-2.85 4.596-.315.342-.55.117-1.477-1.404zm-53.224-33.596c-5.317-8.754-10.36-15.388-16.924-22.263-1.58-1.656-2.083-2.363-1.882-2.646.152-.212 1.452-1.665 2.89-3.23 5.041-5.483 9.685-11.735 14.868-20.02 1.49-2.38 2.877-4.468 3.082-4.638.29-.24.654.2 1.611 1.942 4.118 7.493 9.247 14.619 16.66 23.148 1.334 1.535 2.426 2.952 2.426 3.147 0 .196-.821 1.236-1.826 2.311-6.17 6.605-12.886 15.842-17.171 23.62-.57 1.034-1.198 1.879-1.398 1.879-.2 0-1.25-1.462-2.336-3.25zm-52.055-29.032c-5.582-9.45-10.847-16.571-17.527-23.713l-2.984-3.191 2.65-2.834c5.037-5.384 9.178-10.853 14.292-18.872l3.544-5.554c.382-.596.81-1.083.953-1.083.143 0 .936 1.267 1.763 2.816 3.52 6.596 8.64 13.659 16.41 22.642 1.325 1.53 2.408 2.862 2.408 2.959 0 .097-.994 1.25-2.208 2.562-6.26 6.766-11.932 14.692-17.776 24.846-.438.762-.818.618-1.524-.578zm105.59.144c-.81-1.581-5.876-9.427-7.873-12.193-2.77-3.837-6.478-8.275-9.713-11.627-1.568-1.625-2.806-3.073-2.75-3.22.054-.146 1.49-1.807 3.189-3.692 3.777-4.19 5.397-6.199 8.503-10.544 2.18-3.051 7.917-11.848 8.793-13.483.48-.899.91-.692 1.727.833 4.056 7.56 9.14 14.715 16.484 23.195 1.64 1.893 2.943 3.606 2.896 3.805-.047.2-1.389 1.822-2.981 3.605-5.583 6.248-11.661 14.67-15.481 21.452-.87 1.544-1.747 2.808-1.947 2.808-.201 0-.582-.423-.846-.939zm.264-61.362c-.312-.45-1.07-1.664-1.684-2.697-4.735-7.961-10.318-15.31-16.9-22.244-1.13-1.191-2.057-2.277-2.059-2.412 0-.135 1.122-1.435 2.496-2.888 4.894-5.179 9.586-11.43 15.157-20.192 1.793-2.82 3.407-5.128 3.588-5.127.18 0 .718.748 1.195 1.66 3.478 6.667 10.078 15.838 17.203 23.905 1.122 1.27 2.044 2.483 2.048 2.694 0 .21-1.096 1.576-2.445 3.033-5.338 5.77-10.921 13.369-15.211 20.705-2.707 4.629-2.675 4.595-3.39 3.563zm-107.75-3.504c-4.771-7.854-9.998-14.764-15.44-20.412l-3.222-3.343 2.576-2.812c6.177-6.745 11.248-13.638 17.212-23.393.703-1.151 1.43-2.093 1.615-2.095.186 0 1.122 1.402 2.08 3.119 3.97 7.107 10.59 16.107 17.208 23.399.772.849 1.362 1.651 1.313 1.782-.049.131-1.346 1.649-2.883 3.373-6.415 7.198-12.233 15.299-16.2 22.558-.544.993-1.18 1.798-1.42 1.792-.243-.01-1.493-1.753-2.84-3.968zM17.106 81.53c-1.392-2.323-4.673-6.638-6.08-7.994-.65-.628-1.183-1.288-1.183-1.467 0-.178.341-.64.758-1.024 1.163-1.076 4.2-5.04 6.012-7.85.897-1.39 1.755-2.528 1.907-2.528.151 0 .629.618 1.06 1.372 1.242 2.168 3.226 4.93 5.37 7.474 1.088 1.29 1.977 2.433 1.977 2.538 0 .105-.86 1.194-1.913 2.42-1.844 2.148-5.905 7.982-5.905 8.484 0 .134-.228.24-.506.236-.304 0-.904-.67-1.497-1.66zm-2.137-24.15c-2.55-.952-4.791-3.205-4.921-4.949-.053-.706.09-.852 1.2-1.227l1.26-.427 1.27 1.449c1.018 1.16 1.552 1.516 2.687 1.787 2.73.654 5.183-.68 6.388-3.473.59-1.37 1.151-4.317.821-4.317-.082 0-.76.34-1.506.757-2.787 1.554-6.967 1.134-9.402-.946-2.208-1.885-3.42-5.881-3.14-10.353.236-3.776 1.82-6.485 4.706-8.043 1.67-.902 6.406-.897 8.107.01 2.413 1.285 4.098 3.695 4.808 6.877.553 2.475.47 11.194-.134 13.983-.529 2.445-1.759 5.234-2.903 6.584-1.766 2.083-6.59 3.278-9.24 2.29zm5.09-13.197c2.249-.623 4.242-3.213 4.256-5.53 0-.587-.14-1.757-.319-2.6-.87-4.095-3.207-6.048-6.76-5.648-2.83.318-4.32 2.583-4.327 6.574-.01 3.646 1.106 5.893 3.45 6.967 1.331.61 2.161.663 3.7.237z" fill="#eb8f8f"/><path d="M0 157.44V0h217.76v314.88H0V157.44zm211.69 156.25a9.26 9.26 0 0 0 4.375-4.251l.673-1.35V7.369l-.69-1.525c-.85-1.876-3.017-3.887-4.865-4.515-1.227-.417-10.754-.46-102.58-.457H7.383l-1.448.675c-2.113.984-3.185 2.01-4.182 4L.868 7.313v150.13c0 133.57.048 150.27.44 151.38.862 2.438 2.827 4.32 5.438 5.21 1.432.487 6.454.51 102.42.46l100.91-.053 1.612-.755zm-19.275-17.98c-4.215-1.962-5.863-7.299-5.123-16.588.518-6.501 2.12-10.312 5.053-12.027 1.406-.822 4.447-1.363 6.28-1.117 1.767.236 4.061 1.734 5.155 3.365 1.192 1.777 1.198 2.347.03 2.754-1.447.503-1.888.384-2.516-.679-1.119-1.891-4.24-2.748-6.5-1.784-1.977.844-3.59 3.501-3.89 6.412l-.163 1.567 1.825-.938c1.554-.8 2.129-.94 3.877-.94 1.701 0 2.35.149 3.79.867 3.375 1.684 4.633 4.429 4.633 10.111 0 3.214-.06 3.587-.813 5.118-.94 1.91-2.983 3.843-4.508 4.266-.577.16-2.092.29-3.366.29-1.818 0-2.628-.147-3.764-.676zm5.875-2.651c1.811-.537 2.697-1.582 3.401-4.016 1.066-3.684-.389-8.168-3.108-9.58-1.049-.544-3.535-.514-4.742.057-1.38.653-2.93 2.47-3.31 3.878-.393 1.453-.133 3.906.63 5.964.62 1.668 2.35 3.44 3.636 3.723.442.097.933.22 1.093.274.554.184.917.139 2.4-.3zM52.51 280.285c-5.144-8.622-10.519-15.731-17.11-22.636-1.154-1.21-2.099-2.321-2.099-2.47 0-.149.534-.784 1.186-1.412 1.818-1.75 5.975-6.608 8.488-9.918 2.065-2.72 8.473-12.275 10.37-15.464.435-.729.896-1.325 1.026-1.325s.742.942 1.361 2.094c3.941 7.33 9.824 15.447 17.311 23.884.916 1.032 1.665 2.045 1.665 2.251 0 .206-.912 1.356-2.026 2.556-5.865 6.31-12.074 14.79-16.364 22.349-.908 1.599-1.758 2.907-1.889 2.907-.13 0-.994-1.267-1.919-2.816zm106.26 1.1c-5.647-9.255-11.34-16.9-16.869-22.655l-3.244-3.377 2.123-2.327c6.395-7.01 11.04-13.255 16.898-22.717 1.106-1.787 2.102-3.25 2.213-3.25.11 0 1.178 1.723 2.372 3.828 3.645 6.428 8.513 13.125 14.927 20.54 1.766 2.042 3.212 3.769 3.212 3.838 0 .069-1.197 1.453-2.659 3.076-5.618 6.235-10.245 12.497-14.662 19.842-1.483 2.467-2.812 4.603-2.953 4.746-.15.152-.712-.488-1.357-1.544zm36.038-26.077c-1.197-1.794-3.039-4.19-4.093-5.326-1.054-1.136-1.917-2.214-1.917-2.396 0-.181.857-1.31 1.905-2.508 1.047-1.198 2.882-3.663 4.078-5.477 1.196-1.814 2.284-3.298 2.418-3.298.134 0 .663.73 1.174 1.623.922 1.606 4.337 6.247 6.035 8.199 1.046 1.202 1.107 1.743.28 2.483-1.034.924-4.176 5.06-5.678 7.475-.781 1.257-1.557 2.33-1.723 2.385-.166.055-1.281-1.367-2.478-3.16zM52.398 218.61c-5.682-9.28-10.079-15.072-17.045-22.46-1.123-1.192-2.043-2.28-2.044-2.42 0-.138 1.139-1.444 2.532-2.9 4.9-5.123 9.33-11.017 15.05-20.022 1.838-2.896 3.445-5.202 3.57-5.126.124.077 1.006 1.536 1.96 3.243 3.822 6.84 8.78 13.651 15.743 21.624 1.403 1.607 2.55 3.11 2.55 3.34 0 .23-.405.801-.901 1.268-1.536 1.445-6.702 7.616-9.294 11.104-2.858 3.844-5.465 7.805-8.034 12.205-.997 1.708-1.917 3.105-2.043 3.105-.127 0-1.046-1.332-2.043-2.961zm105.01-.83c-4.749-7.835-10.167-14.996-15.73-20.786l-3.02-3.145 2.665-2.875c4.26-4.595 7.859-9.255 12.288-15.913 2.272-3.416 4.481-6.817 4.909-7.558 1.348-2.339 1.32-2.35 3.523 1.53 4.335 7.639 7.687 12.168 17.613 23.803l.84.984-1.999 2.211c-6.524 7.22-12.386 15.212-16.5 22.498-.942 1.67-1.844 3.037-2.003 3.037-.16.001-1.323-1.703-2.585-3.786zm-50.767-29.732c-2.658-4.369-8.644-13.108-10.893-15.903-1.354-1.684-3.969-4.636-5.81-6.56-1.842-1.925-3.348-3.58-3.348-3.68 0-.098 1.08-1.306 2.399-2.683 3.275-3.418 6.014-6.74 9.091-11.026 2.525-3.517 7-10.31 8.612-13.072.44-.755.912-1.373 1.047-1.373.135 0 .988 1.333 1.895 2.961 3.616 6.491 9.02 13.982 15.452 21.418 1.846 2.134 3.116 3.84 3.002 4.032-.108.183-1.189 1.437-2.401 2.788-6.25 6.962-11.69 14.42-15.802 21.666-.903 1.591-1.759 2.965-1.901 3.053-.142.088-.747-.642-1.343-1.623zm-52.864-30.373l-2.955-4.713c-4.718-7.523-9.24-13.42-14.454-18.85-1.682-1.75-3.057-3.27-3.057-3.377 0-.107 1.38-1.714 3.067-3.572 5.207-5.733 9.789-11.985 16.113-21.983.914-1.444 1.776-2.626 1.915-2.626.14 0 1.066 1.462 2.057 3.25 3.555 6.407 8.544 13.312 15.068 20.855 1.767 2.044 3.175 3.877 3.128 4.075-.047.198-1.388 1.819-2.98 3.601-5.484 6.139-11.345 14.227-15.26 21.063-.858 1.499-1.71 2.774-1.891 2.835-.182.06-.52-.19-.75-.558zm104.17-2.185c-4.69-7.852-9.796-14.7-15.738-21.109l-3.545-3.822 2-2.087c5.76-6.006 12.105-14.579 17.848-24.113.598-.993 1.24-1.804 1.428-1.802.188 0 .928 1.131 1.644 2.509 2.897 5.57 8.855 13.909 15.181 21.249 2.352 2.728 3.596 4.391 3.457 4.622-.12.198-1.291 1.53-2.605 2.96-5.8 6.316-13.35 16.875-16.579 23.19-.343.671-.8 1.22-1.017 1.22-.216 0-1.15-1.267-2.075-2.816zM52.667 94.248c-5.526-9.16-9.54-14.531-16.383-21.923-1.64-1.77-2.98-3.31-2.98-3.421 0-.112 1.233-1.507 2.74-3.101 4.677-4.946 9.406-11.268 14.917-19.941 1.792-2.82 3.34-5.127 3.442-5.126.1 0 .694.943 1.317 2.094 3.923 7.24 9.823 15.415 16.936 23.47 1.123 1.27 2.045 2.483 2.049 2.693 0 .21-1.097 1.576-2.445 3.033-5.396 5.832-11.275 13.871-15.616 21.355-1.083 1.867-2.078 3.395-2.21 3.395-.134 0-.928-1.138-1.767-2.528zm105.44-.145c-5.166-8.694-10.881-16.266-16.881-22.36l-2.604-2.644 3.25-3.566c5.022-5.511 10.438-12.871 15.648-21.267 1.013-1.633 2-3.1 2.194-3.26.262-.217.82.544 2.172 2.968 3.58 6.412 8.782 13.626 14.931 20.702 1.572 1.808 3.033 3.526 3.248 3.818.353.48.096.864-2.627 3.935-6.612 7.454-10.873 13.369-16.167 22.445-.548.94-1.127 1.752-1.287 1.805-.159.053-1.004-1.106-1.877-2.576zm-141.8-14.01c-1.13-1.708-2.98-4.17-4.113-5.47-1.134-1.302-2.057-2.472-2.051-2.6.01-.13.848-1.21 1.874-2.4 1.026-1.192 2.813-3.62 3.972-5.396 1.159-1.777 2.25-3.24 2.425-3.25.175-.013 1.18 1.31 2.235 2.94 1.055 1.628 2.833 4.051 3.953 5.384 1.12 1.333 2.035 2.568 2.033 2.745 0 .176-.62 1.04-1.375 1.92-1.812 2.112-4.06 5.192-5.423 7.427-.605.993-1.185 1.806-1.289 1.806-.104 0-1.113-1.398-2.242-3.106zm-2.265-23.276c-2.022-.977-3.91-3.128-3.91-4.455 0-1.264 2.585-1.708 3.12-.536.59 1.294 2.28 2.297 4.076 2.42 3.144.213 5.277-1.71 6.284-5.662.66-2.595.521-2.745-1.58-1.706-3.345 1.654-6.96 1.125-9.485-1.39-2.006-1.998-2.728-4.22-2.763-8.51-.02-2.443.094-3.341.59-4.621.816-2.106 1.972-3.45 3.836-4.463 1.342-.728 1.843-.834 4.026-.847 2.154-.013 2.716.093 4.131.784 2.67 1.303 4.206 3.675 4.868 7.518.466 2.699.192 11.55-.433 14.023-.907 3.589-2.604 6.106-4.942 7.329-.859.449-1.832.633-3.764.71-2.294.094-2.78.023-4.054-.594zm7.121-12.994c.793-.414 1.644-1.207 2.247-2.094.949-1.395.968-1.484.846-3.883-.277-5.457-3.2-8.456-7.342-7.531-2.718.607-4.175 2.996-4.175 6.844 0 1.928.759 4.385 1.7 5.503 1.6 1.901 4.386 2.382 6.724 1.161z" fill="#e66f6f"/><path d="M0 157.44V0h217.76v314.88H0V157.44zm211.69 156.25a9.26 9.26 0 0 0 4.375-4.251l.673-1.35V7.369l-.69-1.525c-.85-1.876-3.017-3.887-4.865-4.515-1.227-.417-10.754-.46-102.58-.457H7.383l-1.448.675c-2.113.984-3.185 2.01-4.182 4L.868 7.313v150.13c0 133.57.048 150.27.44 151.38.862 2.438 2.827 4.32 5.438 5.21 1.432.487 6.454.51 102.42.46l100.91-.053 1.612-.755zm-18.343-17.716c-2.623-.934-4.425-2.93-5.359-5.934-.402-1.296-.495-2.758-.495-7.806 0-5.627.063-6.428.669-8.522 1.548-5.352 4.317-7.666 9.156-7.648 2.76.01 5.54 1.588 6.704 3.806.69 1.314.528 1.881-.648 2.268-1.044.344-1.071.333-2.058-.853-1.34-1.608-2.46-2.143-4.494-2.145-2.212 0-3.772 1.042-4.911 3.284-.817 1.608-1.609 4.765-1.278 5.096.1.1 1.021-.242 2.046-.761 1.726-.874 2.028-.935 4.13-.83 4.83.244 7.266 2.873 7.974 8.61.903 7.32-2.405 11.882-8.584 11.838-.966-.01-2.25-.188-2.852-.403zm4.98-2.756c2.187-.625 3.53-2.817 3.724-6.073.152-2.561-.184-3.989-1.382-5.873-2.92-4.593-9.963-2.337-10.373 3.323-.156 2.161.582 5.029 1.687 6.55 1.418 1.954 3.913 2.77 6.345 2.073zm-145.93-13.367c-5.203-8.502-10.245-15.213-15.766-20.982l-3.37-3.521 2.41-2.611c5.278-5.716 10.089-12.134 15.423-20.572 1.609-2.545 3.07-4.676 3.249-4.736.178-.059 1.003 1.166 1.833 2.722 3.084 5.78 8.651 13.528 14.995 20.868 1.709 1.977 3.21 3.761 3.334 3.965.151.246-.804 1.525-2.844 3.81-5.7 6.387-10.938 13.597-15.188 20.913-.992 1.708-1.907 3.106-2.034 3.106-.126 0-1.045-1.333-2.042-2.961zm104.79-1.171c-4.641-7.62-9.319-13.8-15.165-20.038-1.663-1.776-3.024-3.342-3.024-3.48 0-.14.533-.767 1.186-1.395 4.67-4.497 11.513-13.602 17.629-23.458 1.01-1.628 1.952-2.96 2.093-2.96.141 0 .452.357.692.794 4.567 8.331 9.106 14.788 15.996 22.749 1.925 2.224 3.505 4.204 3.51 4.4.01.195-.81 1.235-1.815 2.31-5.887 6.302-12.058 14.694-16.272 22.13-.955 1.685-1.866 3.066-2.025 3.069-.16 0-1.421-1.852-2.804-4.121zm38.843-21.79c-1.376-2.274-3.927-5.667-5.755-7.656l-1.524-1.658 2.164-2.573c1.19-1.416 3.033-3.888 4.094-5.493 1.06-1.605 2.036-2.918 2.167-2.918.13 0 .979 1.166 1.885 2.591.905 1.426 2.518 3.65 3.584 4.945 3.09 3.752 2.954 3.206 1.275 5.132-1.83 2.1-4.49 5.774-5.624 7.77-.474.834-.952 1.517-1.063 1.517-.11 0-.652-.746-1.203-1.657zm-36.566-35.97c-.218-.357-1.025-1.69-1.794-2.96-4.49-7.422-9.685-14.36-15.287-20.412-1.861-2.012-3.384-3.771-3.384-3.91 0-.139.727-.963 1.616-1.831 4.38-4.28 10.574-12.443 16.047-21.15 1.672-2.66 3.126-4.838 3.232-4.838.105-.001.973 1.396 1.927 3.104 3.55 6.352 8.384 13.076 14.64 20.362 2.01 2.341 3.655 4.4 3.655 4.576 0 .176-.992 1.38-2.205 2.676-4.948 5.286-10.691 13.041-15.06 20.336-1.548 2.584-2.853 4.698-2.902 4.698-.05 0-.266-.293-.484-.65zm-105.7-.288c-.224-.358-1.468-2.364-2.762-4.46-4.524-7.32-9.118-13.32-14.528-18.97l-3.213-3.357 2.664-2.872c4.304-4.643 7.878-9.28 12.4-16.091 2.333-3.516 4.597-6.993 5.031-7.728.435-.735.89-1.336 1.014-1.336s.55.617.949 1.372c3.652 6.928 9.925 15.686 16.976 23.7 1.34 1.522 2.4 2.86 2.358 2.974-.043.113-1.382 1.664-2.974 3.446-5.49 6.145-10.538 13.073-14.89 20.433-1.15 1.947-2.21 3.54-2.353 3.54-.145 0-.447-.293-.671-.65zm52.41-33.511c-4.58-7.735-10.462-15.632-16.114-21.635-1.749-1.858-3.18-3.466-3.18-3.573 0-.107 1.058-1.32 2.351-2.695 4.934-5.246 10.128-12.196 15.528-20.777 1.473-2.34 2.838-4.255 3.034-4.255.197 0 .99 1.17 1.765 2.6 3.515 6.492 9.793 15.078 16.774 22.945.916 1.032 1.664 2.011 1.663 2.176 0 .165-1.056 1.47-2.345 2.9-5.625 6.245-10.369 12.632-14.576 19.622-1.522 2.53-2.768 4.708-2.768 4.839 0 .13-.163.237-.362.236-.199 0-.996-1.073-1.772-2.383zm-53.628-31.63c-5.184-8.668-10.4-15.556-17.158-22.654l-2.122-2.229 2.666-2.824c5.033-5.334 9.83-11.753 15.348-20.532 1.62-2.58 3.05-4.627 3.177-4.549.127.078.846 1.28 1.598 2.669 3.207 5.922 8.82 13.747 15.023 20.943 2.352 2.728 3.596 4.391 3.457 4.622-.12.198-1.291 1.53-2.605 2.96-5.702 6.209-12.155 15.173-16.18 22.477-.585 1.063-1.167 1.933-1.292 1.933s-.985-1.267-1.912-2.816zm106.51 1.538c-5.994-9.887-11.334-17.08-17.083-23.02-1.632-1.687-2.968-3.158-2.968-3.268 0-.11 1.352-1.69 3.005-3.51 5.205-5.732 8.894-10.684 14.298-19.189 1.665-2.621 3.188-4.935 3.384-5.142.287-.303.71.262 2.168 2.888 3.501 6.312 8.395 13.117 14.576 20.27 4.4 5.094 4.345 4.083.464 8.475-5.7 6.45-11.464 14.442-15.131 20.977-.778 1.387-1.527 2.59-1.665 2.676-.138.085-.61-.436-1.047-1.158zM53.776 95.84C46.86 84.531 42.571 78.72 36.457 72.376l-3.183-3.304 3.231-3.552c5.082-5.587 10.99-13.694 16.57-22.735.598-.97 1.189-1.762 1.313-1.762.124 0 .873 1.201 1.664 2.67 3.12 5.788 9.076 14.073 15.084 20.984 1.572 1.808 3.033 3.524 3.245 3.812.347.47.075.876-2.628 3.934-3.754 4.247-6.219 7.291-8.61 10.636-1.963 2.747-6.27 9.525-7.608 11.972-.887 1.623-1.179 1.757-1.76.807zm104.22-2.17c-5.393-8.857-9.496-14.34-15.866-21.201-1.718-1.85-3.124-3.484-3.124-3.63 0-.144.407-.645.905-1.112 4.625-4.333 12.402-14.663 18.202-24.175.848-1.39 1.645-2.527 1.77-2.527.126 0 .976 1.332 1.89 2.96 3.894 6.938 8.703 13.57 15.728 21.689 1.443 1.666 2.622 3.17 2.622 3.343 0 .172-.993 1.387-2.208 2.699-5.347 5.775-12.053 14.96-16.034 21.964-.876 1.54-1.723 2.802-1.882 2.803-.16 0-1.061-1.265-2.003-2.813zM17.456 81.575c-1.222-2.07-4.8-6.77-6.118-8.039-.652-.628-1.186-1.288-1.186-1.466 0-.179.342-.64.76-1.025 1.145-1.054 4.536-5.492 6.06-7.931.741-1.187 1.44-2.158 1.554-2.158.113 0 .51.553.882 1.228 1.038 1.884 3.084 4.732 5.318 7.405 1.399 1.673 1.943 2.532 1.76 2.779-.145.196-1.025 1.251-1.956 2.345-.931 1.093-2.62 3.385-3.751 5.093-1.132 1.708-2.165 3.105-2.296 3.105-.13 0-.593-.601-1.027-1.336zm-2.54-24.451c-1.604-.648-2.936-1.64-3.681-2.738-1.395-2.058-1.284-2.699.535-3.086.806-.172.968-.08 1.64.932.948 1.43 2.322 2.08 4.401 2.08 3.023 0 4.87-1.685 5.844-5.33.412-1.544.518-3.047.214-3.047-.1 0-1.005.404-2.012.899-1.646.808-2.044.888-3.957.791-2.643-.133-4.593-1.056-5.933-2.809-1.459-1.907-1.96-3.948-1.96-7.981 0-3.026.087-3.659.685-4.976.831-1.836 2.646-3.566 4.465-4.26 1.843-.702 5.635-.514 7.338.363 3.822 1.968 5.277 6.342 4.923 14.795-.426 10.161-3.137 14.378-9.408 14.633-1.3.053-2.576-.057-3.094-.266zm6.257-13.076c1.209-.623 2.82-2.607 3.17-3.899.39-1.445.133-3.903-.62-5.931-1.309-3.53-4.723-5.085-7.953-3.62-1.511.684-2.31 1.811-2.893 4.084-1.068 4.159.659 8.526 3.83 9.686 1.24.453 3.245.31 4.466-.32z" fill="#929292"/><path d="M0 157.44V0h217.76v314.88H0V157.44zm212.14 156.22c1.848-.972 3.687-3.022 4.286-4.775.413-1.209.456-15.59.456-151.43V7.365l-.824-1.736c-.917-1.934-2.394-3.386-4.373-4.3L210.367.72H7.087l-1.303.68c-1.775.928-3.372 2.5-4.296 4.23L.717 7.077v150.36c0 129.73.057 150.5.414 151.37 1.088 2.657 3.084 4.573 5.572 5.35 1.044.326 18.099.382 102.6.337l101.35-.054 1.483-.781zm-18.794-17.689c-2.623-.934-4.425-2.93-5.359-5.934-.403-1.296-.495-2.758-.495-7.806 0-5.627.063-6.428.669-8.522 1.548-5.352 4.317-7.666 9.156-7.648 2.76.01 5.54 1.588 6.704 3.806.69 1.314.528 1.881-.648 2.268-1.044.344-1.071.333-2.058-.853-1.34-1.608-2.46-2.143-4.494-2.145-2.212 0-3.772 1.042-4.911 3.284-.817 1.608-1.609 4.765-1.278 5.096.1.1 1.021-.242 2.046-.761 1.726-.874 2.028-.935 4.13-.83 4.83.244 7.266 2.873 7.974 8.61.903 7.32-2.405 11.882-8.584 11.838-.966-.01-2.25-.188-2.852-.403zm4.98-2.756c2.187-.625 3.53-2.817 3.724-6.073.152-2.561-.184-3.989-1.382-5.873-2.92-4.593-9.963-2.337-10.373 3.323-.156 2.161.582 5.029 1.687 6.55 1.418 1.954 3.913 2.77 6.345 2.073zm-145.93-13.367c-5.203-8.502-10.245-15.213-15.766-20.982l-3.37-3.521 2.41-2.611c5.278-5.716 10.089-12.134 15.423-20.572 1.609-2.545 3.07-4.676 3.249-4.736.178-.059 1.003 1.166 1.833 2.722 3.084 5.78 8.651 13.528 14.995 20.868 1.709 1.977 3.21 3.761 3.334 3.965.151.246-.804 1.525-2.844 3.81-5.7 6.387-10.938 13.597-15.188 20.913-.992 1.708-1.907 3.106-2.034 3.106-.126 0-1.045-1.333-2.042-2.961zm104.79-1.171c-4.641-7.62-9.319-13.8-15.165-20.038-1.663-1.776-3.024-3.342-3.024-3.48 0-.14.533-.767 1.185-1.395 4.671-4.497 11.514-13.602 17.63-23.458 1.01-1.628 1.952-2.96 2.093-2.96.141 0 .452.357.692.794 4.567 8.331 9.106 14.788 15.996 22.749 1.925 2.224 3.505 4.204 3.51 4.4.01.195-.81 1.235-1.815 2.31-5.887 6.302-12.058 14.694-16.272 22.13-.955 1.685-1.866 3.066-2.025 3.069-.16 0-1.421-1.852-2.804-4.121zm38.843-21.79c-1.376-2.274-3.927-5.667-5.755-7.656l-1.524-1.658 2.164-2.573c1.19-1.416 3.033-3.888 4.094-5.493 1.06-1.605 2.036-2.918 2.167-2.918.13 0 .979 1.166 1.885 2.591.905 1.426 2.518 3.65 3.584 4.945 3.09 3.752 2.954 3.206 1.275 5.132-1.83 2.1-4.49 5.774-5.624 7.77-.474.834-.952 1.517-1.063 1.517-.11 0-.652-.746-1.203-1.657zm-36.566-35.97c-.218-.357-1.025-1.69-1.794-2.96-4.49-7.422-9.685-14.36-15.287-20.412-1.861-2.012-3.384-3.771-3.384-3.91 0-.139.727-.963 1.616-1.831 4.38-4.28 10.574-12.443 16.047-21.15 1.672-2.66 3.126-4.838 3.232-4.838.105-.001.973 1.396 1.927 3.104 3.55 6.352 8.384 13.076 14.64 20.362 2.01 2.341 3.655 4.4 3.655 4.576 0 .176-.992 1.38-2.205 2.676-4.948 5.286-10.691 13.041-15.06 20.336-1.548 2.584-2.853 4.698-2.902 4.698-.05 0-.266-.293-.484-.65zm-105.7-.288c-.224-.358-1.468-2.364-2.762-4.46-4.524-7.32-9.119-13.32-14.528-18.97l-3.213-3.357 2.664-2.872c4.304-4.643 7.877-9.28 12.4-16.091 2.333-3.516 4.597-6.993 5.031-7.728.434-.735.89-1.336 1.014-1.336s.55.617.949 1.372c3.652 6.928 9.925 15.686 16.976 23.7 1.34 1.522 2.4 2.86 2.358 2.974-.043.113-1.382 1.664-2.974 3.446-5.49 6.145-10.538 13.073-14.89 20.433-1.15 1.947-2.21 3.54-2.354 3.54-.144 0-.446-.293-.67-.65zm52.41-33.511c-4.58-7.735-10.462-15.632-16.114-21.635-1.749-1.858-3.18-3.466-3.18-3.573 0-.107 1.058-1.32 2.351-2.695 4.934-5.246 10.128-12.196 15.528-20.777 1.473-2.34 2.838-4.255 3.034-4.255.197 0 .99 1.17 1.765 2.6 3.515 6.492 9.793 15.078 16.774 22.945.916 1.032 1.664 2.011 1.663 2.176 0 .165-1.056 1.47-2.345 2.9-5.625 6.245-10.369 12.632-14.576 19.622-1.522 2.53-2.768 4.708-2.768 4.839 0 .13-.163.237-.362.236-.199 0-.996-1.073-1.772-2.383zm-53.628-31.63c-5.184-8.668-10.4-15.556-17.158-22.654l-2.122-2.229 2.665-2.824c5.034-5.334 9.832-11.753 15.349-20.532 1.62-2.58 3.05-4.627 3.177-4.549.127.078.846 1.28 1.598 2.669 3.207 5.922 8.82 13.747 15.023 20.943 2.352 2.728 3.596 4.391 3.457 4.622-.12.198-1.291 1.53-2.605 2.96-5.702 6.209-12.155 15.173-16.18 22.477-.585 1.063-1.167 1.933-1.292 1.933s-.985-1.267-1.912-2.816zm106.51 1.538c-5.994-9.887-11.334-17.08-17.083-23.02-1.632-1.687-2.968-3.158-2.968-3.268 0-.11 1.352-1.69 3.005-3.51 5.205-5.732 8.894-10.684 14.298-19.189 1.665-2.621 3.188-4.935 3.384-5.142.287-.303.71.262 2.168 2.889 3.501 6.311 8.395 13.116 14.576 20.27 4.4 5.093 4.345 4.082.464 8.474-5.7 6.45-11.464 14.442-15.131 20.977-.778 1.387-1.527 2.59-1.665 2.676-.138.085-.61-.436-1.047-1.158zm-105.28-61.19C46.86 84.528 42.57 78.717 36.456 72.373l-3.183-3.304 3.231-3.552c5.082-5.587 10.99-13.694 16.57-22.735.598-.97 1.189-1.762 1.313-1.762.124 0 .873 1.201 1.664 2.67 3.12 5.788 9.076 14.073 15.084 20.984 1.572 1.808 3.033 3.524 3.245 3.812.347.47.075.876-2.628 3.934-3.754 4.247-6.219 7.291-8.61 10.636-1.963 2.747-6.27 9.525-7.608 11.972-.887 1.623-1.179 1.757-1.76.807zm104.22-2.17c-5.393-8.857-9.496-14.34-15.866-21.201-1.718-1.85-3.124-3.484-3.124-3.63 0-.144.407-.645.905-1.112 4.625-4.333 12.402-14.663 18.202-24.175.848-1.39 1.645-2.527 1.77-2.527.126 0 .976 1.332 1.89 2.96 3.894 6.938 8.703 13.57 15.728 21.689 1.443 1.666 2.622 3.17 2.622 3.343 0 .172-.993 1.387-2.208 2.699-5.347 5.775-12.053 14.96-16.034 21.964-.876 1.54-1.723 2.802-1.882 2.803-.16 0-1.061-1.265-2.003-2.813zM17.455 81.572c-1.222-2.07-4.8-6.77-6.118-8.039-.652-.628-1.186-1.288-1.186-1.466 0-.179.342-.64.76-1.025 1.145-1.054 4.536-5.492 6.06-7.931.741-1.187 1.44-2.158 1.554-2.158.113 0 .51.553.882 1.228 1.038 1.884 3.084 4.732 5.318 7.405 1.399 1.673 1.943 2.532 1.76 2.779-.145.196-1.025 1.251-1.956 2.345-.931 1.093-2.62 3.385-3.751 5.093-1.132 1.708-2.165 3.105-2.296 3.105-.13 0-.593-.601-1.027-1.336zm-2.54-24.451c-1.604-.648-2.936-1.64-3.681-2.738-1.395-2.058-1.284-2.699.535-3.086.806-.172.968-.08 1.64.932.948 1.43 2.322 2.08 4.401 2.08 3.023 0 4.87-1.685 5.844-5.33.412-1.544.518-3.047.214-3.047-.1 0-1.005.404-2.012.899-1.646.808-2.044.888-3.957.791-2.643-.133-4.593-1.056-5.933-2.809-1.459-1.907-1.96-3.948-1.96-7.981 0-3.026.087-3.659.685-4.976.831-1.836 2.646-3.566 4.465-4.26 1.843-.702 5.635-.514 7.338.363 3.822 1.968 5.277 6.342 4.923 14.795-.426 10.161-3.137 14.378-9.408 14.633-1.3.053-2.576-.057-3.094-.266zm6.257-13.076c1.209-.623 2.82-2.607 3.17-3.899.39-1.445.133-3.903-.62-5.931-1.309-3.53-4.723-5.085-7.953-3.62-1.511.684-2.31 1.811-2.893 4.084-1.068 4.159.659 8.526 3.83 9.686 1.24.453 3.245.31 4.466-.32z" fill="#e14f4f"/><path d="M0 157.44V0h217.76v314.88H0V157.44zm212.14 156.22c1.848-.972 3.687-3.022 4.286-4.775.413-1.209.456-15.59.456-151.43V7.365l-.824-1.736c-.917-1.934-2.394-3.386-4.373-4.3L210.367.72H7.087l-1.303.68c-1.775.928-3.372 2.5-4.296 4.23L.717 7.077v150.36c0 129.73.057 150.5.414 151.37 1.088 2.657 3.084 4.573 5.572 5.35 1.044.326 18.099.382 102.6.337l101.35-.054 1.483-.781zm-17.664-17.581c-2.777-.458-5.452-2.897-6.261-5.708-1.013-3.52-1.07-11.473-.113-15.73 1.301-5.787 3.98-8.312 8.904-8.391 2.11-.034 2.523.053 3.928.822 2.093 1.147 4.012 3.783 3.283 4.51-.149.15-.716.335-1.26.413-.873.126-1.054.033-1.567-.805-1.101-1.802-4.257-2.755-6.424-1.94-1.02.383-2.602 1.874-3.201 3.015-.909 1.732-1.659 5.867-1.012 5.585.12-.053 1-.486 1.954-.963 3.302-1.65 7.636-.958 9.711 1.552 1.65 1.997 2.131 3.784 2.145 7.981.01 3.226-.073 3.94-.597 5.07-1.714 3.695-5.07 5.318-9.49 4.589zm4.569-2.984c2.925-1.22 4.195-6.652 2.466-10.552-1.128-2.545-2.82-3.778-5.183-3.778-1.806 0-3.038.503-4.297 1.753-1.514 1.505-1.92 2.492-1.892 4.61.047 3.613 1.375 6.41 3.723 7.839 1.06.645 3.782.712 5.183.128zm-40.951-13.228c-5.271-8.613-10.392-15.426-15.865-21.103l-3.276-3.398 2.922-3.208c5.28-5.797 9.688-11.705 14.8-19.838 1.626-2.586 3.048-4.76 3.16-4.829.112-.069.942 1.224 1.843 2.873 3.195 5.849 8.313 13.016 14.105 19.755a445.793 445.793 0 0 1 3.858 4.529l.547.676-2.374 2.583c-5.368 5.84-10.845 13.24-15.01 20.28-1.363 2.305-2.57 4.295-2.683 4.425-.112.129-1.025-1.106-2.027-2.745zm-104.33 2.004c-6.952-11.325-11.062-16.885-17.38-23.512-1.536-1.612-2.793-3.02-2.793-3.128 0-.108 1.301-1.584 2.892-3.28 1.591-1.696 4.014-4.514 5.383-6.261 2.341-2.987 9.8-13.951 11.545-16.972.437-.755.914-1.298 1.062-1.207.148.09.674.968 1.17 1.95 2.705 5.35 8.812 13.944 15.267 21.482 1.93 2.254 3.509 4.213 3.509 4.353 0 .14-.997 1.35-2.215 2.69a127.829 127.829 0 0 0-15.726 21.429c-.997 1.708-1.925 3.105-2.064 3.105-.138 0-.43-.292-.65-.65zm142.4-24.988c-1.236-2.126-3.083-4.632-5.163-7.005-1.045-1.192-1.902-2.277-1.906-2.41 0-.134.723-1.044 1.614-2.023.891-.978 2.666-3.338 3.944-5.245 1.278-1.906 2.405-3.494 2.505-3.527.1-.034.821.996 1.601 2.288.78 1.293 2.507 3.69 3.837 5.328 1.33 1.637 2.418 3.155 2.418 3.371 0 .217-.278.642-.619.945-1.026.912-4.548 5.574-5.801 7.678-.646 1.085-1.277 1.972-1.403 1.972-.126 0-.588-.618-1.027-1.372zm-143.03-37.554c-2.173-3.717-7.92-12.076-10.574-15.383-1.467-1.827-4.102-4.855-5.855-6.729l-3.188-3.407.69-.779c.38-.428 1.567-1.719 2.636-2.867 4.226-4.537 8.734-10.601 14.011-18.85 1.775-2.773 3.341-5.079 3.48-5.124.14-.045.906 1.117 1.702 2.581 3.193 5.873 8.823 13.678 15.178 21.043 1.765 2.046 3.209 3.866 3.209 4.046 0 .18-.963 1.348-2.14 2.596-5.015 5.32-10.86 13.224-15.163 20.512-1.393 2.358-2.603 4.293-2.69 4.299-.085.01-.67-.866-1.296-1.939zm106.33 1.33c-.236-.374-1.488-2.394-2.783-4.49-4.533-7.335-9.293-13.547-14.613-19.07l-3.147-3.267 1.989-2.093a100.595 100.595 0 0 0 8.094-9.61c2.323-3.117 8.21-11.918 9.802-14.653.439-.754.904-1.372 1.033-1.372.129 0 1.11 1.528 2.182 3.394 3.695 6.442 7.275 11.466 12.99 18.231l4.324 5.122.82.973-2.272 2.534c-6.44 7.186-11.647 14.277-15.859 21.6-.914 1.588-1.767 3-1.897 3.136-.129.136-.428-.06-.664-.433zm-53.503-34.117c-5.692-9.295-10.106-15.126-16.407-21.68l-2.722-2.83 2.118-2.323c6.263-6.87 9.72-11.456 15.43-20.47 1.56-2.464 2.997-4.652 3.194-4.863.29-.312.639.142 1.847 2.398 3.519 6.57 10.53 16.15 17.19 23.487.835.92 1.31 1.675 1.185 1.884-.114.191-1.234 1.468-2.487 2.837-5.305 5.794-11.857 14.8-15.685 21.56-.923 1.629-1.716 2.961-1.763 2.961-.047 0-.903-1.332-1.9-2.96zm-54.345-32.788c-4.934-7.974-9.611-14.121-14.913-19.598-1.712-1.769-3.113-3.344-3.113-3.5 0-.156.28-.532.622-.835 1.388-1.227 6.813-7.597 9.271-10.886 2.529-3.382 6.45-9.202 9.338-13.858.763-1.231 1.472-2.235 1.575-2.23.103 0 .892 1.31 1.754 2.903 3.212 5.934 8.606 13.446 14.915 20.77 1.845 2.141 3.354 3.995 3.354 4.119 0 .124-1.301 1.687-2.891 3.473-5.55 6.234-11.906 15.026-15.46 21.38-.775 1.388-1.5 2.523-1.612 2.523-.112 0-1.39-1.918-2.84-4.261zm106.95 2.305c-2.16-3.738-7.684-11.794-10.44-15.226-1.529-1.904-4.217-4.987-5.973-6.853l-3.194-3.392 2.893-3.061c1.591-1.684 4.082-4.58 5.535-6.436 2.52-3.22 9.238-13.07 11.314-16.59.539-.914 1.068-1.661 1.176-1.661.108 0 .871 1.247 1.695 2.772 3.144 5.817 8.871 13.75 15.344 21.253 2.833 3.283 3.183 3.802 2.85 4.23-.208.269-1.278 1.463-2.377 2.655-4.786 5.188-10.034 12.282-14.31 19.342-1.583 2.614-2.993 4.79-3.134 4.833-.14.043-.76-.796-1.378-1.865zM52.736 93.896c-2.176-3.668-5.895-9.205-8.432-12.555-2.292-3.027-7.532-9.069-9.53-10.987-.653-.628-1.188-1.283-1.188-1.455 0-.171.729-1.023 1.62-1.891 4.288-4.182 9.949-11.61 15.605-20.48 1.766-2.77 3.337-5.076 3.49-5.127.153-.051.985 1.175 1.85 2.724 3.838 6.88 8.712 13.594 15.71 21.642 1.404 1.615 2.554 3.063 2.554 3.216 0 .154-.995 1.367-2.211 2.696-5.46 5.966-12.097 15.073-16.031 21.995-.876 1.54-1.662 2.803-1.747 2.805-.085 0-.845-1.16-1.69-2.584zm106.73 1.968c-.232-.374-1.342-2.178-2.467-4.008-4.503-7.328-9.537-13.947-14.64-19.25l-3.432-3.564 2.103-2.24c5.643-6.007 10.894-13.063 16.77-22.533 1.01-1.628 1.94-2.96 2.064-2.96.125 0 .975 1.332 1.89 2.96 3.498 6.228 10.008 15.178 15.706 21.594 1.058 1.192 2.095 2.386 2.303 2.654.333.427 0 .908-2.687 3.921-5.6 6.275-10.112 12.422-14.36 19.568-1.322 2.225-2.5 4.156-2.616 4.292-.117.136-.403-.059-.635-.433zM16.546 80.032c-1.013-1.567-2.804-3.965-3.982-5.328-1.177-1.364-2.14-2.55-2.14-2.635 0-.085.945-1.292 2.1-2.682 1.154-1.39 2.93-3.79 3.947-5.336 1.016-1.546 1.957-2.81 2.092-2.81.134 0 .461.422.728.939.845 1.637 3.222 5.013 5.173 7.344 1.037 1.24 1.886 2.367 1.886 2.504s-.828 1.244-1.84 2.459c-1.95 2.34-3.995 5.224-5.117 7.215-.373.663-.752 1.2-.842 1.192-.09-.01-.993-1.294-2.005-2.862zm-.186-22.775c-2.003-.193-3.816-1.272-5.093-3.03-1.152-1.587-1.111-2.34.15-2.726.95-.29 1.03-.256 1.92.85 2.316 2.875 6.649 2.938 8.797.128 1.365-1.785 2.67-6.217 1.96-6.655-.155-.096-1.101.246-2.101.76-1.559.802-2.112.934-3.87.924-5.212-.029-8.08-3.758-8.1-10.533 0-1.509.152-3.285.346-3.946.572-1.947 2.067-3.839 3.81-4.821 1.404-.791 1.83-.886 4.047-.897 2.154-.011 2.697.095 4.162.812 2.028.994 3.373 2.688 4.151 5.228.764 2.496.778 13.258.021 16.012-1.005 3.655-2.515 5.916-4.698 7.038-1.157.594-3.86 1.015-5.502.857zm5.32-13.435c.655-.431 1.55-1.328 1.989-1.991.728-1.1.798-1.439.785-3.825-.015-2.905-.643-4.797-2.101-6.328-2.138-2.246-5.916-2.415-7.978-.358-3.13 3.122-2.241 10.86 1.478 12.874 1.583.857 4.221.689 5.828-.371z" fill="#6b6b6b"/><path d="M0 157.44V0h217.76v314.88H0V157.44zM212.34 313.9c1.734-.86 3.559-2.871 4.232-4.666l.599-1.597v-150.01c0-136.44-.042-150.13-.461-151.36-.615-1.8-2.787-4.162-4.6-5.005l-1.454-.675h-101.93c-99.718 0-101.95.015-103.14.555-1.6.725-3.557 2.706-4.362 4.416L.579 6.927l.01 150.72c.01 145.92.023 150.76.541 151.9 1.022 2.244 3.299 4.272 5.348 4.761.5.12 46.776.198 102.84.174 99.425-.043 101.95-.057 103.03-.591zm-17.864-17.815c-2.777-.458-5.452-2.897-6.261-5.708-1.013-3.52-1.07-11.473-.113-15.73 1.301-5.787 3.98-8.312 8.904-8.391 2.11-.034 2.523.053 3.928.822 2.093 1.147 4.012 3.783 3.283 4.51-.149.15-.716.335-1.26.413-.873.126-1.054.033-1.567-.805-1.101-1.802-4.257-2.755-6.424-1.94-1.02.383-2.602 1.874-3.201 3.015-.909 1.732-1.659 5.867-1.012 5.585.12-.053 1-.486 1.954-.963 3.302-1.65 7.636-.958 9.711 1.553 1.65 1.996 2.131 3.783 2.145 7.98.01 3.226-.073 3.94-.597 5.07-1.714 3.695-5.07 5.318-9.49 4.589zm4.569-2.984c2.925-1.22 4.195-6.652 2.466-10.552-1.128-2.545-2.82-3.778-5.183-3.778-1.806 0-3.038.503-4.297 1.753-1.514 1.505-1.92 2.492-1.892 4.61.047 3.613 1.375 6.41 3.723 7.839 1.06.645 3.782.712 5.183.128zm-40.951-13.228c-5.271-8.613-10.392-15.426-15.865-21.103l-3.276-3.398 2.922-3.208c5.28-5.797 9.688-11.705 14.8-19.838 1.626-2.586 3.048-4.76 3.16-4.829.112-.069.942 1.224 1.843 2.873 3.195 5.849 8.313 13.016 14.105 19.755a445.793 445.793 0 0 1 3.858 4.529l.547.676-2.374 2.583c-5.368 5.84-10.845 13.24-15.01 20.28-1.363 2.305-2.57 4.295-2.683 4.425-.112.129-1.025-1.106-2.027-2.745zm-104.33 2.004c-6.952-11.325-11.062-16.885-17.38-23.512-1.536-1.612-2.793-3.02-2.793-3.128 0-.108 1.301-1.584 2.892-3.28 1.591-1.696 4.014-4.514 5.383-6.261 2.341-2.987 9.8-13.951 11.545-16.972.437-.755.914-1.298 1.062-1.207.148.09.674.968 1.17 1.95 2.705 5.35 8.812 13.944 15.267 21.482 1.93 2.254 3.509 4.213 3.509 4.353 0 .14-.997 1.35-2.215 2.69a127.829 127.829 0 0 0-15.726 21.429c-.997 1.708-1.925 3.105-2.064 3.105-.138 0-.43-.292-.65-.65zm142.4-24.988c-1.236-2.126-3.083-4.632-5.163-7.005-1.045-1.192-1.902-2.277-1.906-2.41 0-.134.723-1.044 1.614-2.023.891-.978 2.666-3.338 3.944-5.245 1.278-1.906 2.405-3.494 2.505-3.527.1-.034.821.996 1.601 2.288.78 1.293 2.507 3.69 3.837 5.328 1.33 1.637 2.418 3.155 2.418 3.371 0 .217-.278.642-.619.945-1.026.912-4.548 5.574-5.801 7.678-.646 1.085-1.277 1.972-1.403 1.972-.126 0-.588-.618-1.027-1.372zm-143.03-37.554c-2.173-3.717-7.92-12.076-10.574-15.383-1.467-1.827-4.102-4.855-5.855-6.729l-3.188-3.407.69-.779c.38-.428 1.567-1.719 2.636-2.867 4.226-4.537 8.734-10.601 14.011-18.85 1.775-2.773 3.341-5.079 3.48-5.124.14-.045.906 1.117 1.702 2.581 3.193 5.873 8.823 13.678 15.178 21.043 1.765 2.046 3.209 3.866 3.209 4.046 0 .18-.963 1.348-2.14 2.596-5.015 5.32-10.86 13.224-15.163 20.512-1.393 2.358-2.603 4.293-2.69 4.299-.085.01-.67-.866-1.296-1.939zm106.33 1.33c-.236-.374-1.488-2.394-2.783-4.49-4.533-7.335-9.293-13.547-14.613-19.07l-3.147-3.267 1.989-2.093a100.595 100.595 0 0 0 8.094-9.61c2.323-3.117 8.21-11.918 9.802-14.653.439-.754.904-1.372 1.033-1.372.129 0 1.11 1.528 2.182 3.394 3.695 6.442 7.275 11.466 12.99 18.231l4.324 5.122.82.973-2.272 2.534c-6.44 7.186-11.647 14.277-15.859 21.6-.914 1.588-1.767 3-1.897 3.136-.129.136-.428-.06-.664-.433zm-53.503-34.117c-5.692-9.295-10.106-15.126-16.407-21.68l-2.722-2.83 2.118-2.323c6.263-6.87 9.72-11.456 15.43-20.47 1.56-2.464 2.997-4.652 3.194-4.863.29-.312.639.142 1.847 2.398 3.519 6.57 10.53 16.15 17.19 23.487.835.92 1.31 1.675 1.185 1.884-.114.191-1.234 1.468-2.487 2.837-5.305 5.794-11.857 14.8-15.685 21.56-.923 1.629-1.716 2.961-1.763 2.961-.047 0-.903-1.332-1.9-2.96zM51.616 153.76c-4.934-7.974-9.611-14.121-14.913-19.598-1.712-1.769-3.113-3.344-3.113-3.5 0-.156.28-.532.622-.835 1.388-1.227 6.813-7.597 9.271-10.886 2.529-3.382 6.45-9.202 9.338-13.858.763-1.231 1.472-2.235 1.575-2.23.103 0 .892 1.31 1.754 2.903 3.212 5.934 8.606 13.446 14.915 20.77 1.845 2.141 3.354 3.995 3.354 4.119 0 .124-1.301 1.687-2.891 3.473-5.55 6.234-11.906 15.026-15.46 21.38-.775 1.388-1.5 2.523-1.612 2.523-.112 0-1.39-1.918-2.84-4.261zm106.95 2.305c-2.16-3.738-7.684-11.794-10.44-15.226-1.529-1.904-4.217-4.987-5.973-6.853l-3.194-3.392 2.893-3.061c1.591-1.684 4.082-4.58 5.535-6.436 2.52-3.22 9.238-13.07 11.314-16.59.539-.914 1.068-1.661 1.176-1.661.108 0 .871 1.247 1.695 2.772 3.144 5.817 8.871 13.75 15.344 21.253 2.833 3.283 3.183 3.802 2.85 4.23-.208.269-1.278 1.463-2.377 2.655-4.786 5.188-10.034 12.282-14.31 19.342-1.583 2.614-2.993 4.79-3.134 4.833-.14.043-.76-.796-1.378-1.865zM52.736 93.902c-2.176-3.668-5.895-9.205-8.432-12.555-2.292-3.027-7.532-9.069-9.53-10.987-.653-.628-1.188-1.283-1.188-1.455 0-.171.729-1.023 1.62-1.891 4.288-4.182 9.949-11.61 15.605-20.48 1.766-2.77 3.337-5.076 3.49-5.127.153-.051.985 1.175 1.85 2.724 3.838 6.88 8.712 13.594 15.71 21.642 1.404 1.615 2.554 3.063 2.554 3.216 0 .154-.995 1.367-2.211 2.696-5.46 5.966-12.097 15.073-16.031 21.995-.876 1.54-1.662 2.803-1.747 2.805-.085 0-.845-1.16-1.69-2.584zm106.73 1.968c-.232-.374-1.342-2.178-2.467-4.008-4.503-7.328-9.537-13.947-14.64-19.25l-3.432-3.564 2.103-2.24c5.643-6.007 10.894-13.063 16.77-22.533 1.01-1.628 1.94-2.96 2.064-2.96.125 0 .975 1.332 1.89 2.96 3.498 6.228 10.008 15.178 15.706 21.594 1.058 1.192 2.095 2.386 2.303 2.654.333.427 0 .908-2.687 3.921-5.6 6.275-10.112 12.422-14.36 19.568-1.322 2.225-2.5 4.156-2.616 4.292-.117.136-.403-.059-.635-.433zM16.546 80.038c-1.013-1.567-2.804-3.965-3.982-5.328-1.177-1.364-2.14-2.55-2.14-2.635 0-.085.945-1.292 2.1-2.682 1.154-1.39 2.93-3.79 3.947-5.336 1.016-1.546 1.957-2.81 2.092-2.81.134 0 .461.422.728.939.845 1.637 3.222 5.013 5.173 7.344 1.037 1.24 1.886 2.367 1.886 2.504s-.828 1.244-1.84 2.459c-1.95 2.34-3.995 5.224-5.117 7.215-.373.663-.752 1.2-.842 1.192-.09-.01-.993-1.294-2.005-2.862zm-.186-22.775c-2.003-.193-3.816-1.272-5.093-3.03-1.152-1.587-1.111-2.34.15-2.726.95-.29 1.03-.256 1.92.85 2.316 2.875 6.649 2.938 8.797.128 1.365-1.785 2.67-6.217 1.96-6.655-.155-.096-1.101.246-2.101.76-1.559.802-2.112.934-3.87.924-5.212-.029-8.08-3.758-8.1-10.533 0-1.509.152-3.285.346-3.946.572-1.947 2.067-3.839 3.81-4.821 1.404-.791 1.83-.886 4.047-.897 2.154-.011 2.697.095 4.162.812 2.028.994 3.373 2.688 4.151 5.228.764 2.496.778 13.258.021 16.012-1.005 3.655-2.515 5.916-4.698 7.038-1.157.594-3.86 1.015-5.502.857zm5.32-13.435c.655-.431 1.55-1.328 1.989-1.991.728-1.1.798-1.439.785-3.825-.015-2.905-.643-4.797-2.101-6.328-2.138-2.246-5.916-2.415-7.978-.358-3.13 3.122-2.241 10.86 1.478 12.874 1.583.857 4.221.689 5.828-.371z" fill="#dc2e2e"/><path d="M0 157.44V0h217.76v314.88H0V157.44zM212.34 313.9c1.734-.86 3.559-2.871 4.232-4.666l.599-1.597v-150.01c0-136.44-.042-150.13-.461-151.36-.615-1.8-2.787-4.162-4.6-5.005l-1.454-.675h-101.93c-99.718 0-101.95.015-103.14.555-1.6.725-3.557 2.706-4.362 4.416L.579 6.927l.01 150.72c.01 145.92.023 150.76.541 151.9 1.022 2.244 3.299 4.272 5.348 4.761.5.12 46.776.198 102.84.174 99.425-.043 101.95-.057 103.03-.591zm-18.626-18.066c-1.988-.603-3.82-2.147-4.764-4.016-.9-1.781-1.305-4.654-1.308-9.291-.01-6.7.809-10.474 2.836-13.148 1.473-1.944 3.236-2.802 6.093-2.967 1.87-.108 2.488-.022 3.758.523 2.22.953 4.463 3.805 3.63 4.616-.139.136-.589.33-.999.43-.636.157-.855.018-1.494-.945-.955-1.44-2.51-2.182-4.565-2.18-2.697 0-4.62 1.515-5.748 4.523-.736 1.962-1.09 4.382-.678 4.636.164.101.982-.24 1.816-.757 1.303-.808 1.834-.956 3.74-1.042 5.015-.228 7.735 2.456 8.463 8.35.362 2.937.029 5.614-.936 7.499-.788 1.542-2.942 3.333-4.471 3.717-1.436.36-4.266.388-5.373.053zm6.067-3.007c1.805-1.192 2.477-2.93 2.477-6.4 0-2.58-.084-3.047-.782-4.368-2.042-3.863-5.967-4.688-9.194-1.933-1.576 1.346-2.317 2.943-2.32 5-.01 3.901 1.63 7.008 4.333 8.224 1.468.661 4.068.413 5.486-.523zM53.56 281.299c-4.108-7.322-10.293-15.727-16.53-22.461l-3.356-3.626 2.308-2.448c4.919-5.217 11.053-13.49 16.273-21.947.932-1.509 1.785-2.85 1.897-2.98.111-.13 1.083 1.3 2.158 3.178 4.18 7.3 8.828 13.546 17.73 23.826.372.43.182.732-1.815 2.888-5.39 5.822-12.831 16.026-16.345 22.418-.717 1.304-1.377 2.372-1.467 2.375-.09 0-.474-.548-.853-1.223zm103.88-2.736c-5.036-8.106-9.884-14.504-15.128-19.965-1.67-1.738-3.036-3.247-3.036-3.353 0-.106 1.167-1.415 2.593-2.91 4.638-4.855 9.738-11.67 14.92-19.93 1.396-2.223 2.686-4.203 2.867-4.397.253-.271.693.302 1.885 2.455 3.45 6.23 8.714 13.528 15.065 20.888 1.764 2.046 3.208 3.795 3.208 3.889 0 .093-1.233 1.559-2.74 3.256-5.715 6.436-10.03 12.308-14.472 19.693-1.385 2.301-2.556 4.223-2.603 4.27-.047.047-1.199-1.706-2.559-3.896zm37.539-23.699c-1.135-1.707-2.941-4.048-4.014-5.203l-1.95-2.1 1.173-1.268c1.475-1.596 4.326-5.423 5.724-7.683.588-.95 1.148-1.726 1.244-1.726.097 0 .552.667 1.011 1.483.788 1.399 4.025 5.766 6.004 8.1l.9 1.06-1.715 1.989c-1.922 2.227-3.952 5.024-5.141 7.083-.436.755-.878 1.372-.983 1.37-.104 0-1.118-1.398-2.253-3.105zM53.13 219.045c-2.104-3.6-7.9-12.03-10.473-15.238-1.403-1.747-3.951-4.622-5.664-6.387-1.712-1.765-3.113-3.373-3.113-3.572 0-.2 1.047-1.465 2.326-2.813 4.69-4.943 9.596-11.484 14.903-19.87 1.71-2.701 3.143-4.95 3.185-4.998.043-.048.87 1.33 1.837 3.063 3.502 6.268 8.864 13.648 15.521 21.362l2.806 3.251-2.354 2.56c-5.374 5.848-10.802 13.195-15.01 20.32-1.381 2.337-2.581 4.254-2.668 4.26-.086.01-.67-.865-1.297-1.938zm106.07.9c-.38-.614-1.521-2.465-2.535-4.114-4.06-6.605-9.401-13.557-14.62-19.032l-2.826-2.965 2.44-2.668c5.974-6.535 10.88-13.22 17.114-23.32l1.102-1.786 2.043 3.563c3.774 6.579 8.404 12.957 14.83 20.426 1.69 1.966 3.074 3.668 3.074 3.782 0 .113-.88 1.17-1.954 2.348-6.013 6.588-11.7 14.306-15.838 21.494-.915 1.589-1.77 3.001-1.9 3.138-.132.138-.55-.252-.93-.866zm-53.235-33.687c-5.157-8.421-10.54-15.576-15.834-21.048-1.633-1.687-2.968-3.187-2.968-3.334 0-.146.663-.911 1.473-1.7 4.726-4.6 11.49-13.635 17.227-23.013.943-1.541 1.78-2.809 1.862-2.816.08-.01.915 1.368 1.854 3.059 3.396 6.116 8.322 12.94 14.719 20.39 1.872 2.181 3.404 4.033 3.404 4.117 0 .083-1.513 1.868-3.361 3.967-5.533 6.282-11.058 13.944-14.762 20.47-.896 1.578-1.667 2.87-1.715 2.87-.047 0-.902-1.333-1.899-2.962zm-52.992-30.62c-4.588-7.711-10.971-16.242-16.312-21.802l-3-3.124 2.765-3.028c5.251-5.75 9.291-11.165 14.813-19.856 1.64-2.582 3.072-4.694 3.18-4.694.109 0 .487.593.84 1.317 2.69 5.524 8.938 14.31 16.085 22.618l3.07 3.57-1.081 1.229c-8.263 9.385-12.793 15.505-17.164 23.19-.836 1.47-1.617 2.673-1.735 2.673-.118 0-.775-.943-1.46-2.094zm105.6.138c-4.552-7.855-10.948-16.331-17.236-22.846-1.128-1.17-2.052-2.192-2.052-2.272 0-.081 1.066-1.27 2.367-2.641 4.76-5.017 10.284-12.412 15.383-20.598 1.465-2.352 2.75-4.278 2.856-4.28.106 0 .874 1.255 1.706 2.796 3.093 5.724 9.264 14.213 15.877 21.841 1.213 1.399 2.248 2.666 2.301 2.817.053.15-.84 1.28-1.984 2.512-5.107 5.497-10.392 12.59-14.789 19.847-1.535 2.535-2.907 4.645-3.047 4.688-.14.043-.763-.795-1.383-1.864zM53.733 95.262c-1.59-2.752-5.8-9.167-8.01-12.205-3.075-4.23-5.445-7.076-9.075-10.905-1.522-1.605-2.767-3.065-2.767-3.244 0-.18.47-.774 1.043-1.321 4.527-4.324 10.956-12.911 17.914-23.925l1.528-2.42 1.679 2.997c4.047 7.226 10.791 16.337 17.863 24.134l.568.627-1.694 1.829c-6.064 6.544-12.224 14.92-16.605 22.58-.876 1.531-1.663 2.786-1.748 2.788-.085 0-.399-.418-.697-.934zm105.72.289c-6.96-11.34-11.318-17.227-17.53-23.683l-2.715-2.822 1.99-2.18c6.243-6.841 11.445-13.894 17.576-23.825l1.108-1.795 2.01 3.52c3.97 6.958 8.242 12.807 15.243 20.872 1.476 1.7 2.683 3.174 2.683 3.276 0 .191-.338.59-4.123 4.878-4.561 5.167-10.054 12.838-13.82 19.303-.996 1.708-1.858 3.106-1.917 3.106-.059 0-.286-.293-.505-.65zM17.463 81.1c-1.18-1.967-3.597-5.2-5.501-7.356l-1.502-1.7 1.742-2.005c.958-1.102 2.732-3.466 3.943-5.254 1.211-1.787 2.276-3.247 2.366-3.244.091 0 .841 1.076 1.669 2.383.827 1.308 2.39 3.47 3.474 4.803a180.4 180.4 0 0 1 2.35 2.933c.33.444.209.698-.972 2.024-1.734 1.947-4.1 5.162-5.36 7.278-.542.914-1.056 1.661-1.141 1.661-.085 0-.566-.685-1.068-1.523zM14.33 56.524c-1.515-.704-3.168-2.33-3.648-3.589-.328-.861-.145-1.093 1.065-1.346.754-.158.938-.08 1.21.517.177.387.805 1.072 1.396 1.521.88.67 1.429.837 3.037.928 1.64.092 2.158 0 3.14-.55 2.04-1.143 3.41-3.718 3.716-6.985.086-.914.091-1.661.012-1.661s-1.018.455-2.088 1.011c-1.598.831-2.257 1.011-3.7 1.011-2.648 0-3.932-.498-5.634-2.186-1.847-1.831-2.412-3.448-2.623-7.512-.114-2.196-.036-3.306.322-4.53 1.056-3.625 3.807-5.706 7.54-5.703 2.6 0 3.892.365 5.443 1.527 2.772 2.076 3.922 6.465 3.613 13.787-.272 6.412-1.492 10.296-3.926 12.49-2.178 1.962-6.158 2.532-8.875 1.27zM19.78 44.8c1.6-.37 3.305-1.66 4.198-3.177.657-1.115.774-1.637.75-3.353-.084-5.972-3.8-9.57-8.497-8.227-2.432.696-3.91 3.443-3.886 7.227.022 3.593 1.693 6.434 4.34 7.375 1.334.474 1.648.49 3.095.155z" fill="#d91616"/><path d="M0 157.44V0h217.76v314.88H0V157.44zM212.34 313.9c1.734-.86 3.559-2.871 4.232-4.666l.599-1.597v-150.01c0-136.44-.042-150.13-.461-151.36-.615-1.8-2.787-4.162-4.6-5.005l-1.454-.675h-101.93c-99.718 0-101.95.015-103.14.555-1.6.725-3.557 2.706-4.362 4.416L.579 6.927l.01 150.72c.01 145.92.023 150.76.541 151.9 1.022 2.244 3.299 4.272 5.348 4.761.5.12 46.776.198 102.84.174 99.425-.043 101.95-.057 103.03-.591zm-19.713-18.695c-1.601-.79-3.378-2.821-3.966-4.534-1.172-3.41-1.162-13.142.017-17.108 1.443-4.855 3.897-6.91 8.307-6.955 2.413-.025 3.663.392 5.19 1.73.955.836 2.17 2.815 1.897 3.088-.065.065-.5.19-.966.278-.728.138-.936.022-1.478-.828-.836-1.31-2.75-2.215-4.684-2.215-2.929 0-5.05 1.801-6.08 5.163-1.376 4.487-1.102 5.02 1.777 3.47 1.51-.812 2.103-.969 3.682-.973 3.69-.01 6.287 1.833 7.414 5.26.747 2.27.76 8.076.02 9.69-.708 1.55-2.46 3.39-3.815 4.005-1.719.781-5.667.743-7.315-.07zm7.016-2.087c1.54-.84 2.708-3.103 2.95-5.718.327-3.54-1.476-7.53-3.85-8.52-1.408-.587-3.971-.504-5.297.17-1.51.769-3.056 2.64-3.506 4.244-.482 1.714 0 5.007 1.02 7.021 1.72 3.386 5.422 4.581 8.683 2.803zM53.173 280.27c-2.138-3.678-7.672-11.767-10.173-14.87-1.381-1.714-3.993-4.72-5.805-6.68l-3.293-3.563.612-.541c1.359-1.201 6.794-7.576 9.162-10.745 2.385-3.193 5.766-8.207 9.16-13.585l1.522-2.412 1.242 2.267c3.28 5.99 7.868 12.475 13.729 19.406a746.718 746.718 0 0 1 4.184 4.978l.685.84-2.1 2.243c-4.934 5.27-10.395 12.594-14.703 19.721-1.488 2.463-2.795 4.567-2.902 4.676-.108.109-.702-.671-1.32-1.733zm106.35 1.319c-.751-1.432-5.958-9.452-7.73-11.904-2.704-3.746-6.445-8.237-9.539-11.453-1.473-1.532-2.68-2.88-2.68-2.997 0-.117 1.216-1.487 2.7-3.045 1.486-1.558 3.905-4.372 5.377-6.252 2.45-3.13 8.44-11.885 11.123-16.26l1.102-1.796 2.045 3.562c3.66 6.378 8.251 12.701 14.525 20.006 1.722 2.006 3.09 3.766 3.038 3.91-.052.145-1.333 1.653-2.846 3.352-5.345 6-11.708 14.81-15.165 21-.775 1.39-1.455 2.526-1.51 2.526-.055 0-.253-.292-.44-.65zm36.84-25.06c-.957-1.7-3.985-5.703-5.61-7.417l-1.416-1.494 1.792-2.117c.985-1.164 2.707-3.481 3.827-5.15 2.377-3.541 2.282-3.428 2.453-2.95.305.854 3.619 5.572 5.398 7.685 1.055 1.254 1.919 2.334 1.919 2.4 0 .066-.845 1.12-1.878 2.343-1.033 1.222-2.694 3.484-3.692 5.026-.998 1.543-1.888 2.81-1.978 2.817-.09.01-.457-.508-.815-1.143zm-142.79-37.05c-1.354-2.419-5.26-8.39-7.569-11.567-3.135-4.318-5.838-7.536-9.319-11.094l-2.882-2.947 2.536-2.686c5.45-5.775 10.957-13.316 17.43-23.873l.593-.966 1.382 2.555c3.016 5.576 8.175 12.85 13.878 19.57l3.727 4.395.808.955-2.902 3.26c-5.554 6.24-12.045 15.218-15.364 21.25-.717 1.302-1.377 2.37-1.467 2.373-.09 0-.474-.548-.852-1.223zm104.52-1.72c-4.85-7.928-9.982-14.765-15.492-20.64l-3.087-3.292 1.984-2.18c5.663-6.226 10.112-12.148 15.328-20.405 1.579-2.5 2.966-4.548 3.083-4.55.116 0 .556.673.977 1.5 2.913 5.737 9.273 14.609 15.944 22.24 1.485 1.7 2.701 3.227 2.701 3.393 0 .166-.993 1.374-2.207 2.686-4.956 5.356-10.21 12.43-14.52 19.55-1.498 2.476-2.762 4.54-2.808 4.586-.046.047-.902-1.254-1.903-2.89zm-52.998-33.223c-4.89-7.85-9.79-14.272-14.96-19.61-1.476-1.523-2.684-2.871-2.684-2.995 0-.123 1.075-1.35 2.389-2.728 4.287-4.496 9.482-11.34 13.893-18.304 1.13-1.784 2.495-3.939 3.035-4.788l.98-1.544 2.02 3.517c3.614 6.292 8.138 12.552 14.135 19.557 1.93 2.254 3.508 4.181 3.508 4.283 0 .1-1.42 1.796-3.155 3.768a128.412 128.412 0 0 0-14.352 19.772 268.754 268.754 0 0 1-2.019 3.389c-.03.037-1.286-1.906-2.789-4.318zm-52.82-30.342c-4.557-7.52-10.045-14.792-15.438-20.456l-2.905-3.051 2.882-3.16c5.119-5.611 9.867-12.015 14.896-20.091 2.895-4.648 2.481-4.571 4.517-.835 2.927 5.37 8.478 13.022 14.701 20.264l3.235 3.765-.956 1.105c-.527.607-2.138 2.455-3.582 4.105-4.72 5.396-10.452 13.449-13.642 19.164-.749 1.342-1.446 2.44-1.55 2.44-.104 0-1.076-1.463-2.159-3.25zm106.76 1.91c-2.042-3.47-8.385-12.709-10.68-15.56-1.408-1.747-3.987-4.649-5.731-6.447-2.329-2.401-3.098-3.371-2.896-3.65.151-.21 1.626-1.858 3.276-3.664 4.626-5.06 11.141-14.06 15.701-21.69.544-.909 1.056-1.656 1.139-1.66.083 0 .594.804 1.137 1.797 3.944 7.216 8.984 14.108 17.886 24.459.352.41.646.846.651.969.01.123-1.214 1.591-2.712 3.263-5.303 5.922-10.03 12.348-14.23 19.348-1.378 2.296-2.56 4.175-2.628 4.175-.068 0-.479-.603-.913-1.34zM52.044 92.175c-4.535-7.494-9.597-14.19-14.797-19.57l-3.434-3.555 2.231-2.367c4.966-5.266 9.978-11.926 15.178-20.17a805.678 805.678 0 0 1 3.07-4.847c.035-.044.886 1.386 1.89 3.178 3.933 7.008 8.56 13.238 17.606 23.705.41.474.33.633-1.003 2.022-5.534 5.763-13.098 16.035-16.902 22.953-.716 1.303-1.368 2.369-1.447 2.368-.08 0-1.157-1.673-2.394-3.717zm105.23-.5c-4.93-7.91-9.654-14.12-15.033-19.763l-2.737-2.873 1.344-1.513c.739-.833 2.27-2.554 3.402-3.825 3.866-4.34 10.926-14.26 14.807-20.805l.812-1.369 1.73 3.105c3.725 6.682 8.11 12.704 15.392 21.14 1.395 1.616 2.536 3.055 2.536 3.198 0 .143-.998 1.356-2.217 2.695-6.216 6.826-10.968 13.47-17.113 23.924-.166.281-1.036-.884-2.924-3.913zM16.504 79.399c-1.036-1.594-2.592-3.697-3.458-4.675a178.661 178.661 0 0 1-1.983-2.265c-.362-.432-.263-.643.882-1.877 1.539-1.658 4.41-5.505 5.523-7.4.711-1.21 1.352-1.748 1.352-1.134 0 .446 3.38 5.28 5.284 7.557 1.075 1.285 1.955 2.443 1.955 2.572 0 .13-.345.551-.766.936-1.037.95-4.791 5.978-5.8 7.77-.45.799-.883 1.443-.963 1.432-.08-.01-.991-1.323-2.027-2.916zm-2.172-23.023c-2.053-.933-4.21-3.822-3.289-4.404.747-.472 1.34-.253 2.137.788 1.657 2.168 5.517 2.794 7.762 1.26 1.872-1.28 3.26-4.032 3.586-7.104.203-1.921-.162-2.119-1.882-1.02-1.835 1.175-3.754 1.582-5.734 1.216-4.56-.84-6.49-3.885-6.529-10.306-.027-4.391 1.326-7.083 4.275-8.508 1.895-.915 5.555-.917 7.443-.01 2.467 1.192 3.926 3.457 4.555 7.075.466 2.677.19 11.496-.44 14.012-.897 3.594-3.126 6.456-5.603 7.196-1.734.519-4.925.417-6.281-.199zm7.652-12.378c.686-.504 1.587-1.411 2.002-2.016 1.492-2.18 1.054-7.28-.851-9.905-2.043-2.813-6.255-3.355-8.793-1.132-2.829 2.478-2.937 8.952-.202 12.14 1.375 1.602 2.382 2.012 4.697 1.911 1.604-.07 2.092-.224 3.147-.998z" fill="#d60000"/><path d="M0 157.44V0h217.76v314.88H0V157.44zM212.34 313.9c1.734-.86 3.559-2.871 4.232-4.666l.599-1.597v-150.01c0-136.44-.042-150.13-.461-151.36-.615-1.8-2.787-4.162-4.6-5.005l-1.454-.675h-101.93c-99.718 0-101.95.015-103.14.555-1.6.725-3.557 2.706-4.362 4.416L.579 6.927l.01 150.72c.01 145.92.023 150.76.541 151.9 1.022 2.244 3.299 4.272 5.348 4.761.5.12 46.776.198 102.84.174 99.425-.043 101.95-.057 103.03-.591z" fill="#020202"/></svg>