<svg xmlns="http://www.w3.org/2000/svg" height="335.872" width="232.277" viewBox="0 0 217.76 314.88"><path d="M0 157.44V0h217.76v314.88H0V157.44z" fill="#fdfdfd"/><path d="M0 157.44V0h217.76v314.88H0V157.44zm211.85 155.64c1.891-.995 3.473-2.834 4.02-4.673.375-1.26.428-19.907.428-150.97 0-134.48-.045-149.67-.45-150.85-.63-1.845-2.172-3.52-4.118-4.473l-1.657-.812h-100.91c-85.458 0-101.13.062-102.3.403-1.753.507-3.958 2.447-4.874 4.288l-.685 1.375-.076 149.35c-.053 104.72.016 149.79.232 150.84.58 2.805 2.738 5.152 5.54 6.027 1.045.326 18.054.382 102.31.337l101.06-.054 1.488-.783zm-208.4-14c-.113-.182-.068-.466.098-.632.39-.388 1.296-.05 1.138.425-.161.483-.98.62-1.236.207zm190.58-8.875c-.13-.208-.602-2.37-4.12-18.84-1.877-8.784-1.76-8.386-2.459-8.386-.308 0-.834-.274-1.17-.61-.505-.502-.578-.817-.421-1.796.104-.653.347-1.287.538-1.408.524-.332 6.53-.274 7.172.069.42.224.56.605.556 1.517-.01 1.432-.195 1.788-1.102 2.07-.61.19-.654.324-.474 1.412.11.66.257 1.3.328 1.418.071.12 1.409.217 2.973.217 2.706 0 2.854-.032 3.02-.65.367-1.368.206-2.193-.47-2.403-.885-.275-1.076-.64-1.08-2.064-.01-1.644.412-1.816 4.409-1.816 4.037 0 4.346.16 4.219 2.176-.091 1.431-.094 1.435-1.32 1.707-.69.152-1.284.469-1.355.722-.069.247-.535 2.595-1.035 5.217-.5 2.621-1.423 7.431-2.052 10.688-.628 3.257-1.283 6.702-1.455 7.655-.584 3.251-.643 3.322-2.737 3.322-1.007 0-1.89-.098-1.965-.218zm3.845-19.354c.019-.614-.092-.65-2.007-.65-1.115 0-2.027.098-2.027.217 0 .466 1.376 7.28 1.94 9.605.119.495.473-.735 1.124-3.9.522-2.542.959-4.914.97-5.272zm-9.39-14.924c-1.974-.874-2.821-2.541-2.805-5.514.019-3.447.355-4.135 8.938-18.27.622-1.026 1.443-.817 2.138.542.335.656 1.682 2.964 2.993 5.128 4.567 7.537 5.194 9.016 5.222 12.319.034 3.868-2.03 6.203-5.486 6.203-1.212 0-1.736-.168-2.705-.868-.66-.478-1.202-.998-1.202-1.156 0-.53-.483-.293-.795.39-.66 1.445-4.235 2.142-6.299 1.227zm-82.443-72.895c-.243-.278-1.852-2.585-3.576-5.127s-3.86-5.624-4.744-6.85c-5.137-7.111-6.452-9.004-7.906-11.373-2.327-3.795-3.586-6.406-4.77-9.896-.899-2.647-1.064-3.55-1.176-6.427-.156-3.986.163-5.712 1.581-8.579 1.647-3.327 4.362-5.361 8.404-6.297 4.777-1.105 9.388 1.353 11.775 6.275l.988 2.037.479-1.438c.866-2.601 3.016-5.048 5.667-6.45 1.135-.6 1.694-.688 4.343-.686 2.98 0 3.082.025 5.174 1.137 3.403 1.81 5.82 5.152 6.837 9.455.775 3.28.403 6.874-1.16 11.215-1.275 3.537-2.593 5.933-6.165 11.2-1.86 2.744-3.652 5.44-3.981 5.991-.33.551-.864 1.296-1.19 1.655-1.307 1.445-7.524 11.192-8.662 13.58-.561 1.179-1.22 1.377-1.918.578zm-89.51-102.7c-4.723-7.668-7.29-12.013-8.066-13.649-.875-1.846-.958-2.26-.958-4.766 0-2.396.088-2.886.697-3.862.838-1.346 2.526-2.19 4.4-2.198 1.876-.01 3.005.46 3.763 1.563l.654.953.707-.839c.97-1.15 2.116-1.685 3.591-1.677 1.833.01 3.527.89 4.484 2.333.755 1.14.814 1.434.8 3.995-.02 3.498-.465 4.606-4.557 11.356-1.662 2.742-3.303 5.538-3.646 6.214-.697 1.37-1.272 1.547-1.869.577zm-8.89-27.817c-.352-.423-.494-2.902-.183-3.212.08-.08.678-.217 1.328-.304s1.183-.232 1.183-.322.32-1.795.711-3.79c1.425-7.26 3.676-18.978 3.97-20.67.454-2.6.453-2.6 2.72-2.6h1.983l.358 1.734c.197.953.83 3.943 1.408 6.644l2.187 10.255c1.902 8.926 1.754 8.451 2.71 8.706 1.076.287 1.316.686 1.322 2.19 0 .91-.137 1.292-.556 1.516-.801.428-6.763.388-7.2-.048-.45-.45-.45-2.902 0-3.351.191-.19.584-.347.874-.347.41 0 .493-.162.377-.722l-.304-1.455-.152-.732-2.96.082-2.96.082-.086 1.32c-.077 1.173 0 1.357.651 1.655.658.299.738.503.738 1.9 0 1.159-.119 1.609-.458 1.739-.252.096-1.995.175-3.874.175-2.724 0-3.49-.09-3.786-.446zm11.788-11.47c-.087-.357-.562-2.659-1.056-5.114-.494-2.456-.943-4.51-.999-4.566-.135-.135-.606 1.974-1.339 5.997-.332 1.827-.67 3.55-.749 3.828-.128.45.1.505 2.079.505 2.158 0 2.218-.019 2.064-.65z" fill="#e7e7e7"/><path d="M0 157.44V0h217.76v314.88H0V157.44zm159.02 156.93c-27.604-.041-72.689-.041-100.19 0-27.499.041-4.913.074 50.19.074 55.104 0 77.603-.033 49.998-.074zm52.546-.917c1.772-.802 3.421-2.43 4.197-4.14l.686-1.515V7.358l-.814-1.654c-.448-.909-1.346-2.107-1.995-2.662-2.427-2.072 7.172-1.906-105.35-1.824L6.81 1.292l-1.159.625C4.278 2.66 2.597 4.361 1.847 5.77c-.523.982-.541 5.415-.617 151.37-.07 134.75-.032 150.48.367 151.54.84 2.225 2.83 4.233 4.923 4.97.605.213 31.73.311 102.36.322 98.705.016 101.52 0 102.69-.526zm-17.038-23.329a1.02 1.02 0 0 1-.643-.616c-.137-.45-2.835-12.956-4.832-22.406-.466-2.204-.918-4.122-1.004-4.26-.086-.14-.448-.254-.805-.254-.896 0-1.344-.53-1.344-1.591 0-1.758.338-1.904 4.202-1.813l3.471.082v1.576c0 1.441-.062 1.591-.724 1.753-.398.097-.702.363-.676.59.026.228.13.902.23 1.498l.183 1.083h3.172c3.146 0 3.172-.01 3.172-.686 0-.377.08-1.082.177-1.566.16-.804.104-.89-.652-.975-.799-.091-.828-.15-.828-1.684v-1.589l3.741-.08c2.057-.046 3.855.032 3.995.172.14.14.276.8.303 1.47.054 1.352-.309 1.75-1.605 1.756-.443 0-.865.167-.938.366-.132.363-1.356 6.616-3.8 19.427-1.054 5.515-1.443 7.036-1.904 7.438-.544.475-1.765.605-2.891.31zm2.495-14.524c.571-2.932 1.038-5.435 1.038-5.56 0-.126-1.042-.23-2.316-.23-1.274 0-2.316.044-2.316.096 0 .249 2.055 10.225 2.202 10.687.092.29.209.485.26.433.05-.052.56-2.493 1.132-5.426zm-8.395-19.915c-3.332-1.51-3.99-5.785-1.62-10.522 1.578-3.153 7.945-13.558 8.387-13.705.192-.064.578.298.856.803.28.505 1.723 2.953 3.21 5.44 4.728 7.914 5.462 9.788 5.185 13.231-.25 3.105-1.972 4.91-4.98 5.217-1.442.148-2.957-.607-3.776-1.881-.319-.495-.645-.906-.726-.912-.08-.01-.316.371-.523.838-.449 1.012-2.394 2.043-3.838 2.034-.547 0-1.525-.248-2.175-.542zm-82.7-73.043c-.238-.278-1.812-2.52-3.497-4.983a661.901 661.901 0 0 0-5.53-7.944c-7.488-10.528-9.404-13.658-11.199-18.294-3.338-8.623-2.227-16.485 2.902-20.53 2.182-1.72 4.29-2.434 7.271-2.462 2.297-.022 2.644.055 4.477.988 2.437 1.24 4.424 3.541 5.399 6.252l.657 1.828.532-1.636c.982-3.016 3.308-5.71 5.991-6.937 1.317-.603 2.004-.724 3.966-.7 3.703.044 6.467 1.326 8.751 4.058 4.102 4.908 4.587 11.32 1.449 19.133-1.325 3.3-2.78 5.68-8.67 14.184-5.738 8.288-8.702 12.86-10.203 15.742-.978 1.88-1.532 2.194-2.295 1.301zM16.592 80.232c-.151-.198-.643-1.01-1.094-1.805-.45-.794-2.014-3.394-3.476-5.777-3.32-5.414-4.142-7.102-4.488-9.22-.729-4.47 1.163-7.371 4.862-7.455 1.897-.043 3.1.488 3.851 1.701l.614.991.998-1.163c1.189-1.385 2.671-1.893 4.397-1.507 3.158.708 4.662 3.524 4.082 7.641-.302 2.146-1.343 4.342-4.722 9.966-1.498 2.494-3.002 5.087-3.343 5.762-.627 1.241-1.179 1.526-1.681.866zM7.588 52.226c-.45-.448-.45-2.324 0-2.773.191-.19.769-.346 1.284-.346 1.103 0 .99.285 1.987-5.056.415-2.224 1.258-6.579 1.875-9.677a1008.75 1008.75 0 0 0 1.755-9.035c.714-3.82.96-4.143 2.963-3.875 1.821.243 1.19-1.83 5.288 17.388 1.05 4.925 1.98 9.24 2.064 9.589.112.458.408.658 1.068.722.904.087.914.106.914 1.677v1.589l-3.55.08c-3.478.08-3.555.069-3.858-.596-.46-1.009.034-2.637.838-2.754.671-.098.766-.711.382-2.492l-.183-.852-2.937-.109c-1.857-.069-3.007 0-3.126.195-.103.167-.265.956-.36 1.754-.154 1.303-.115 1.452.39 1.452.84 0 1.256.573 1.256 1.733 0 1.613-.292 1.733-4.199 1.733-2.339 0-3.619-.115-3.85-.346zM19.4 41.234c0-.754-1.947-10.347-2.135-10.534-.069-.069-.197.112-.284.402-.275.92-1.922 9.704-1.922 10.255 0 .464.262.528 2.172.528 2.06 0 2.172-.033 2.17-.65z" fill="#f1d0d0"/><path d="M0 157.44V0h217.76v314.88H0V157.44zm159.02 156.93c-27.604-.041-72.689-.041-100.19 0-27.499.041-4.913.074 50.19.074 55.104 0 77.603-.033 49.998-.074zm52.546-.917c1.772-.802 3.421-2.43 4.197-4.14l.686-1.515V7.358l-.814-1.654c-.448-.909-1.346-2.107-1.995-2.662-2.427-2.072 7.172-1.906-105.35-1.824L6.81 1.292l-1.159.625C4.278 2.66 2.597 4.361 1.847 5.77c-.523.982-.541 5.415-.617 151.37-.07 134.75-.032 150.48.367 151.54.84 2.225 2.83 4.233 4.923 4.97.605.213 31.73.311 102.36.322 98.705.016 101.52 0 102.69-.526zm-17.389-23.67c-.085-.136-1.4-6.084-2.923-13.216-1.522-7.131-2.837-13.193-2.921-13.469-.084-.276-.569-.608-1.076-.738-.807-.208-.934-.374-1.014-1.324-.145-1.735.189-1.913 3.58-1.913 3.292 0 3.899.262 3.89 1.682-.01.98-.278 1.398-1.008 1.544-.491.098-.572.327-.531 1.497.08 2.268-.014 2.21 3.549 2.21h3.18l.182-.966c.31-1.647.072-2.633-.661-2.737-1.236-.175-1.24-2.717 0-3.047.36-.096 1.9-.177 3.423-.18 3.343 0 3.83.244 3.695 1.883-.088 1.078-.154 1.15-1.21 1.32-.613.099-1.213.337-1.332.529s-.382 1.283-.584 2.424c-1.406 7.935-4.678 24.014-4.954 24.346-.37.445-3.024.57-3.281.155zm3.008-14.086c.835-4.258 1.037-5.789.783-5.95-.187-.119-1.225-.218-2.305-.22-1.517 0-2.003.097-2.137.447-.153.397 1.691 10.548 2.122 11.68.236.622.284.434 1.537-5.956zm-8.534-20.16c-1.91-.847-2.752-2.43-2.75-5.171 0-2.377.38-3.649 1.907-6.41 2.138-3.868 7.222-12.087 7.543-12.193.255-.085 6.545 10.193 8.053 13.16.736 1.448 1.368 4.856 1.158 6.25-.423 2.816-2.484 4.76-5.053 4.767-1.55 0-3.006-.789-3.709-2.02-.269-.473-.563-.86-.653-.86-.09-.002-.371.432-.625.963-.816 1.707-3.738 2.461-5.871 1.515zM106.07 182.49c-.316-.352-1.854-2.526-3.417-4.83-1.564-2.303-4.716-6.816-7.005-10.027-6.021-8.45-8.299-12.294-10.099-17.048-3.192-8.433-1.501-16.67 4.16-20.254 2.888-1.83 6.778-2.289 9.809-1.157 2.863 1.068 5.516 4.246 6.458 7.737.252.936.412 1.164.604.862.143-.226.262-.682.265-1.015.01-1.033 1.788-4.224 3.072-5.505 2.64-2.633 6.291-3.586 9.84-2.569 4.656 1.336 7.919 5.251 9.02 10.826 1.128 5.716-1.144 12.316-7.389 21.457-9.162 13.413-10.847 15.944-12.505 18.791-.996 1.71-1.908 3.169-2.025 3.241-.118.072-.472-.157-.788-.51zM13.2 74.25c-5.131-8.477-5.525-9.363-5.525-12.426 0-2.09.103-2.62.696-3.572 1.78-2.858 6.486-2.923 7.927-.11l.555 1.083.63-.932c1.443-2.136 3.54-2.745 5.85-1.698 2.249 1.018 3.193 2.993 2.93 6.127-.227 2.7-1.018 4.475-4.783 10.743-1.79 2.98-3.403 5.74-3.582 6.133-.18.393-.485.714-.678.714-.193 0-2.003-2.727-4.02-6.061zM7.648 51.893c-.088-.227-.117-.847-.067-1.377.084-.867.202-.98 1.182-1.138.6-.096 1.14-.228 1.201-.292.123-.13.532-2.161 2.927-14.561 2.193-11.356 2.364-12.183 2.587-12.542.268-.433 2.918-.394 3.278.049.162.198 1.558 6.276 3.103 13.505 1.544 7.229 2.942 13.306 3.106 13.505.164.198.606.36.982.36.739 0 1.111.823.935 2.066-.095.672-.137.68-3.716.68h-3.62V50.85c0-1.068.102-1.314.58-1.4.971-.175 1.08-.5.73-2.184l-.337-1.62h-3.174c-3.522 0-3.378-.088-3.507 2.148-.076 1.31-.025 1.44.641 1.602.637.155.724.33.724 1.463v1.287l-3.698.081c-2.999.066-3.728 0-3.857-.333zm11.995-10.147c.138-.137-1.903-10.51-2.272-11.55-.203-.57-.204-.57-.376 0-.095.316-.644 3.03-1.22 6.033-.847 4.42-.974 5.506-.665 5.71.371.242 4.263.077 4.533-.193z" fill="#d6d6d6"/><path d="M0 157.44V0h217.76v314.88H0V157.44zm209.57 156.89c.277-.145 1.09-.469 1.81-.72 1.793-.627 3.186-1.846 4.204-3.68l.86-1.548V6.802l-.654-1.22c-.886-1.654-2.471-3.18-4.087-3.932l-1.34-.625H7.382l-1.646.806c-1.864.913-3.224 2.313-4.115 4.234l-.61 1.315v300.44l.69 1.525c.91 2.007 3.038 3.908 5.187 4.634 1.619.546 3.667.558 101.92.594 59.857.022 100.47-.07 100.77-.228zm-15.398-24.54c-.085-.137-1.4-6.084-2.923-13.216-1.522-7.132-2.837-13.193-2.921-13.469-.084-.276-.569-.609-1.076-.739-.807-.207-.934-.374-1.014-1.324-.145-1.734.189-1.913 3.58-1.913 3.292 0 3.899.263 3.89 1.682-.01.981-.278 1.399-1.008 1.545-.491.098-.572.326-.531 1.496.08 2.269-.014 2.21 3.549 2.21h3.18l.182-.965c.31-1.648.072-2.634-.661-2.738-1.236-.175-1.24-2.716 0-3.047.36-.096 1.9-.177 3.423-.179 3.343 0 3.83.244 3.695 1.882-.088 1.078-.154 1.15-1.21 1.32-.613.1-1.213.337-1.332.53-.119.192-.382 1.282-.584 2.423-1.406 7.935-4.678 24.014-4.954 24.346-.37.445-3.024.57-3.281.156zm3.008-14.086c.835-4.258 1.037-5.79.783-5.95-.187-.12-1.225-.219-2.305-.221-1.517 0-2.003.098-2.137.447-.153.397 1.691 10.548 2.122 11.681.236.621.284.433 1.537-5.957zm-8.534-20.16c-1.91-.847-2.752-2.43-2.75-5.172 0-2.377.38-3.648 1.907-6.409 2.138-3.868 7.222-12.088 7.543-12.194.255-.085 6.545 10.193 8.053 13.16.736 1.448 1.368 4.857 1.158 6.25-.423 2.816-2.484 4.76-5.053 4.768-1.55 0-3.006-.79-3.709-2.02-.269-.473-.563-.86-.653-.861-.09-.001-.371.432-.625.963-.816 1.707-3.738 2.462-5.871 1.516zm-82.581-73.048c-.316-.353-1.854-2.526-3.417-4.83-1.564-2.304-4.716-6.816-7.005-10.028-6.021-8.45-8.299-12.294-10.099-17.048-3.192-8.432-1.501-16.669 4.16-20.254 2.888-1.83 6.778-2.288 9.809-1.157 2.863 1.069 5.516 4.247 6.458 7.738.252.935.412 1.163.604.861.143-.225.262-.682.265-1.014.01-1.033 1.788-4.225 3.072-5.505 2.64-2.633 6.291-3.587 9.84-2.57 4.656 1.336 7.919 5.252 9.02 10.827 1.128 5.715-1.144 12.316-7.389 21.457-9.162 13.413-10.847 15.944-12.505 18.79-.996 1.71-1.908 3.17-2.025 3.242-.118.072-.472-.157-.788-.51zm-92.87-108.24C8.064 65.778 7.67 64.892 7.67 61.83c0-2.09.103-2.621.696-3.573 1.78-2.858 6.486-2.923 7.927-.11l.555 1.084.63-.933c1.443-2.136 3.54-2.744 5.85-1.698 2.249 1.019 3.193 2.994 2.93 6.127-.227 2.7-1.018 4.476-4.783 10.743-1.79 2.98-3.403 5.74-3.582 6.134-.18.392-.485.714-.678.714-.193 0-2.003-2.728-4.02-6.062zM7.643 51.9c-.088-.228-.117-.848-.067-1.378.084-.866.202-.98 1.182-1.138.6-.096 1.14-.227 1.201-.292.123-.129.532-2.16 2.927-14.56 2.193-11.357 2.364-12.184 2.587-12.543.268-.433 2.918-.393 3.278.05.162.198 1.558 6.275 3.103 13.504 1.544 7.23 2.942 13.306 3.106 13.505.164.199.606.361.982.361.739 0 1.111.822.935 2.065-.095.672-.137.68-3.716.68h-3.62v-1.296c0-1.069.102-1.315.58-1.4.971-.175 1.08-.5.73-2.184l-.337-1.62H17.34c-3.522 0-3.378-.088-3.507 2.147-.076 1.311-.025 1.44.641 1.602.637.156.724.33.724 1.464v1.287l-3.698.08c-2.999.067-3.728 0-3.857-.333zm11.995-10.147c.138-.137-1.903-10.51-2.272-11.55-.203-.571-.204-.571-.376 0-.095.315-.644 3.03-1.22 6.032-.847 4.42-.974 5.507-.665 5.71.371.243 4.263.078 4.533-.192z" fill="#eab0af"/><path d="M0 157.44V0h217.76v314.88H0V157.44zm209.57 156.89c.277-.145 1.09-.469 1.81-.72 1.793-.627 3.186-1.846 4.204-3.68l.86-1.548V6.802l-.654-1.22c-.886-1.654-2.471-3.18-4.087-3.932l-1.34-.625H7.382l-1.646.806c-1.864.913-3.224 2.313-4.115 4.234l-.61 1.315v300.44l.69 1.525c.91 2.007 3.038 3.908 5.187 4.634 1.619.546 3.667.558 101.92.594 59.857.022 100.47-.07 100.77-.228zm-15.472-25.374c-.112-.437-1.45-6.58-2.974-13.649-2.718-12.622-2.782-12.857-3.493-12.955-1.019-.14-1.448-.573-1.443-1.452.01-1.426.224-1.507 3.783-1.419l3.307.082v1.296c0 1.069-.102 1.314-.58 1.4-.318.057-.677.197-.799.31-.313.294.3 3.274.73 3.547.626.396 5.898.28 6.245-.138.171-.205.35-1.074.398-1.93.08-1.453.038-1.569-.637-1.734-.638-.156-.724-.331-.724-1.464v-1.287H205.15v1.3c0 1.297 0 1.3-1.102 1.39-.606.05-1.158.245-1.226.434-.068.188-1.238 6.127-2.601 13.198-1.363 7.07-2.547 13.082-2.63 13.36-.122.4-.48.505-1.721.505-1.468 0-1.58-.05-1.772-.794zm2.071-7.366c.423-1.815 2.175-11.117 2.175-11.555.001-.445-.316-.506-2.605-.506-1.89 0-2.607.099-2.608.361-.01.9 2.463 12.35 2.663 12.35.123 0 .292-.292.375-.65zm-6.999-25.941c-1.954-.596-3.276-2.777-3.276-5.405 0-2.15 1.083-4.753 3.938-9.464 1.538-2.539 3.334-5.515 3.99-6.614.656-1.1 1.335-2.046 1.509-2.103.454-.15 7.66 12.119 8.432 14.357 1.183 3.425.683 6.833-1.22 8.326-1.2.942-2.938 1.328-4.232.941-1.107-.33-2.861-2.034-2.861-2.778 0-.787-.532-.43-.867.583-.184.554-.704 1.27-1.156 1.591-.977.694-2.968.958-4.256.566zm-84.786-75.743c-1.084-1.629-4.31-6.262-7.171-10.296-6.485-9.144-7.599-10.846-9.414-14.385-1.942-3.785-3.108-7.199-3.522-10.313-.94-7.076 1.668-12.743 7.006-15.224 1.869-.87 2.364-.975 4.558-.97 2.931.01 4.468.588 6.514 2.469 1.595 1.467 2.636 3.151 3.33 5.388.279.9.636 1.678.793 1.73.158.053.356-.42.44-1.051.418-3.105 2.873-6.384 5.89-7.865 1.74-.855 1.973-.895 4.523-.776 3.426.16 5.367 1.043 7.619 3.47 4.434 4.778 5.07 11.133 1.904 18.996-1.471 3.654-2.847 5.918-8.932 14.696-5.067 7.309-8.809 13.072-10.21 15.722-.397.753-.866 1.369-1.04 1.369-.176 0-1.206-1.333-2.289-2.961zM13.236 74.036c-4.48-7.424-5.04-8.533-5.385-10.667-.7-4.344 1.057-7.029 4.596-7.022 2.08 0 2.913.45 3.62 1.935.318.67.665 1.222.772 1.227.106.01.432-.477.724-1.073.704-1.439 2.758-2.507 4.275-2.223 1.257.235 2.641 1.132 3.468 2.246.52.702.605 1.226.605 3.755 0 3.545-.099 3.788-4.606 11.272-1.708 2.836-3.248 5.468-3.422 5.85-.175.381-.477.694-.673.694-.195 0-1.984-2.698-3.974-5.994zM7.872 51.95c-.448-.447-.448-1.749 0-2.196.19-.19.775-.347 1.297-.347 1.112 0 .908.59 2.252-6.5 2.061-10.877 3.966-20.492 4.103-20.713.078-.127.837-.23 1.686-.23 1.36 0 1.564.078 1.707.65.09.357 1.345 6.24 2.79 13.072 1.446 6.832 2.748 12.705 2.894 13.051.165.39.574.665 1.077.722.756.087.812.184.812 1.393v1.3l-3.18.083c-3.595.093-3.986-.094-3.649-1.748.141-.69.369-.96.87-1.032.641-.092.67-.184.515-1.68-.24-2.314-.388-2.412-3.64-2.407-1.533 0-2.961.114-3.173.248-.219.139-.456 1.014-.547 2.018-.147 1.618-.112 1.774.4 1.774.775 0 1.256.553 1.256 1.444 0 1.28-.446 1.445-3.909 1.445-2.114 0-3.333-.119-3.561-.347zm11.924-9.996c.147-.238-1.946-10.895-2.394-12.19l-.25-.722-.228.856c-.527 1.984-2.375 11.872-2.256 12.071.175.292 4.946.278 5.128-.015z" fill="#b4b4b4"/><path d="M0 157.44V0h217.76v314.88H0V157.44zm211.67 156.25c1.909-.905 3.489-2.435 4.399-4.26l.668-1.34V7.37l-.69-1.526c-.85-1.875-3.016-3.886-4.865-4.514-1.227-.417-10.76-.46-102.6-.46H7.332l-1.772.883c-2.009 1.002-3.034 2.075-4.014 4.2L.868 7.425l.073 150.48.073 150.48.721 1.409c.948 1.852 2.84 3.476 4.874 4.185 1.628.567 2.631.572 102.56.522l100.91-.05 1.593-.754zm-17.567-24.738c-.112-.437-1.45-6.58-2.974-13.649-2.718-12.622-2.782-12.857-3.493-12.955-1.019-.14-1.448-.573-1.443-1.452.01-1.426.224-1.507 3.783-1.419l3.307.082v1.296c0 1.069-.102 1.314-.58 1.4-.318.057-.677.197-.799.31-.313.294.3 3.274.73 3.547.626.396 5.898.28 6.245-.138.171-.205.35-1.074.398-1.93.08-1.453.038-1.569-.637-1.734-.638-.156-.724-.331-.724-1.464v-1.287H205.155v1.3c0 1.297 0 1.3-1.102 1.39-.606.05-1.158.245-1.226.434-.068.188-1.238 6.127-2.601 13.198-1.363 7.07-2.547 13.082-2.63 13.36-.122.4-.48.505-1.721.505-1.468 0-1.58-.05-1.772-.794zm2.071-7.366c.423-1.815 2.175-11.117 2.175-11.555.001-.445-.316-.506-2.605-.506-1.89 0-2.607.099-2.608.361-.01.9 2.463 12.35 2.663 12.35.123 0 .292-.292.375-.65zm-6.999-25.941c-1.954-.596-3.276-2.777-3.276-5.405 0-2.15 1.083-4.753 3.938-9.464 1.538-2.539 3.334-5.515 3.99-6.614.656-1.1 1.335-2.046 1.509-2.103.454-.15 7.66 12.119 8.432 14.357 1.183 3.425.683 6.833-1.22 8.326-1.2.942-2.938 1.328-4.232.941-1.107-.33-2.861-2.034-2.861-2.778 0-.787-.532-.43-.867.583-.184.554-.704 1.27-1.156 1.591-.977.694-2.968.958-4.256.566zm-84.787-75.743c-1.083-1.629-4.31-6.262-7.17-10.296-6.485-9.144-7.599-10.846-9.414-14.385-1.942-3.785-3.108-7.199-3.522-10.313-.94-7.076 1.668-12.743 7.006-15.224 1.869-.87 2.364-.975 4.558-.97 2.931.01 4.468.588 6.514 2.469 1.595 1.468 2.636 3.151 3.33 5.388.279.9.636 1.678.793 1.73.158.053.356-.42.44-1.051.418-3.105 2.873-6.384 5.89-7.865 1.74-.855 1.973-.895 4.523-.776 3.426.16 5.367 1.043 7.619 3.47 4.434 4.778 5.07 11.133 1.904 18.996-1.471 3.654-2.847 5.918-8.932 14.696-5.067 7.309-8.809 13.072-10.21 15.722-.397.753-.866 1.369-1.04 1.369-.176 0-1.206-1.333-2.289-2.961zM13.241 74.032c-4.48-7.424-5.04-8.533-5.385-10.667-.7-4.344 1.057-7.029 4.596-7.022 2.08 0 2.913.45 3.62 1.935.318.67.665 1.222.772 1.227.106.01.432-.477.724-1.073.704-1.439 2.758-2.507 4.275-2.223 1.257.235 2.641 1.132 3.468 2.246.52.702.605 1.226.605 3.755 0 3.545-.099 3.788-4.606 11.272-1.708 2.836-3.248 5.468-3.422 5.85-.175.381-.477.694-.673.694-.195 0-1.984-2.698-3.974-5.994zM7.877 51.947c-.448-.447-.448-1.749 0-2.196.19-.19.775-.347 1.297-.347 1.112 0 .908.59 2.252-6.5 2.061-10.877 3.966-20.492 4.103-20.713.078-.127.837-.23 1.686-.23 1.36 0 1.564.078 1.707.65.09.357 1.345 6.24 2.79 13.072 1.446 6.832 2.748 12.705 2.894 13.051.165.39.574.665 1.077.722.756.087.812.184.812 1.393v1.3l-3.18.083c-3.595.093-3.986-.094-3.649-1.748.141-.69.369-.96.87-1.032.641-.092.67-.184.515-1.68-.24-2.314-.388-2.412-3.64-2.407-1.533 0-2.961.114-3.173.248-.219.139-.456 1.014-.547 2.018-.147 1.618-.112 1.774.4 1.774.775 0 1.256.553 1.256 1.444 0 1.28-.446 1.445-3.909 1.445-2.114 0-3.333-.119-3.561-.347zM19.8 41.95c.147-.238-1.946-10.895-2.394-12.19l-.25-.722-.228.856c-.527 1.984-2.375 11.872-2.256 12.071.175.292 4.946.278 5.128-.015z" fill="#e48f90"/><path d="M0 157.44V0h217.76v314.88H0V157.44zm211.67 156.25c1.909-.905 3.489-2.435 4.399-4.26l.668-1.34V7.37l-.69-1.526c-.85-1.875-3.016-3.886-4.865-4.514-1.227-.417-10.76-.46-102.6-.46H7.332l-1.772.883c-2.009 1.002-3.034 2.075-4.014 4.2L.868 7.425l.073 150.48.073 150.48.721 1.409c.948 1.852 2.84 3.476 4.874 4.185 1.628.567 2.631.572 102.56.522l100.91-.05 1.593-.754zm-17.374-24.594c-.152-.358-1.197-5.005-2.321-10.327-1.125-5.323-2.228-10.457-2.452-11.411a61.242 61.242 0 0 1-.606-2.889c-.286-1.662-.568-2.068-1.577-2.269-.852-.17-.892-.239-.807-1.41l.09-1.232 2.997-.083c3.321-.092 3.807.091 3.807 1.433 0 .687-.17.905-.897 1.159-.897.311-.897.313-.696 1.934.11.893.335 1.786.498 1.984.38.463 6.47.51 6.754.053.105-.17.257-1.047.339-1.95.146-1.623.138-1.645-.753-1.977-.723-.27-.902-.501-.902-1.17 0-.459.157-.99.348-1.18.364-.364 5.855-.504 6.723-.172.292.112.458.527.458 1.146 0 1.024-.59 1.568-1.701 1.568-.32 0-.661.13-.76.287-.177.286-2.008 9.45-4.042 20.222-.585 3.098-1.182 5.926-1.328 6.283-.22.54-.487.65-1.58.65-1.089 0-1.363-.112-1.592-.65zm3.047-12.846c.677-3.46 1.173-6.39 1.102-6.51-.071-.118-1.294-.216-2.718-.216-2.527 0-2.59.016-2.59.681 0 .657 2.177 11.467 2.475 12.288.08.221.225.323.322.226s.731-3.008 1.409-6.469zm-9.157-21.246c-1.426-.948-2.122-2.556-2.09-4.835.035-2.565.74-4.257 4.047-9.705a687.414 687.414 0 0 0 3.93-6.544c.628-1.073 1.258-1.95 1.401-1.95.143 0 .575.617.96 1.372.385.755 2.01 3.56 3.612 6.234 1.602 2.675 3.195 5.6 3.54 6.5.877 2.288.92 5.55.095 7.126-1.674 3.199-6.567 3.283-7.891.136-.264-.628-.568-1.142-.675-1.144-.107 0-.344.448-.526.999-.182.55-.724 1.33-1.203 1.733-1.194 1.002-3.752 1.04-5.2.078zm-84.98-76.982a745.159 745.159 0 0 0-7.267-10.389c-6.468-9.072-8.736-13.008-10.595-18.389-.848-2.456-.912-2.915-.924-6.681-.01-3.571.07-4.271.688-5.982 1.757-4.858 6.054-7.889 11.086-7.82 4.406.06 7.908 3.053 9.494 8.112.264.843.594 1.532.734 1.533.139 0 .464-.768.721-1.706.886-3.229 3.091-6.038 5.777-7.358 1.087-.535 1.783-.643 4.063-.632 2.374.011 2.969.119 4.343.785 3.11 1.506 5.229 3.958 6.544 7.572 1.45 3.985 1.166 8.132-.931 13.583-1.382 3.593-2.88 6.091-8.68 14.468-5.467 7.9-8.929 13.2-10.313 15.79-.49.915-1.058 1.664-1.263 1.664-.206 0-1.771-2.047-3.478-4.55zM16.253 78.938c-.305-.596-1.798-3.117-3.318-5.603-4.195-6.865-4.86-8.31-5.042-10.961-.131-1.914-.06-2.418.496-3.567 1.077-2.22 3.892-3.13 6.24-2.018.872.413 1.877 1.855 1.877 2.694 0 .657.586.282.972-.622.673-1.575 1.723-2.321 3.441-2.443 3.96-.282 6.077 3.478 4.749 8.437-.492 1.835-1.083 2.979-4.5 8.703-1.529 2.561-3.002 5.064-3.273 5.56-.642 1.175-.967 1.14-1.642-.18zM8.18 52.098c-.203-.082-.362-.642-.362-1.277 0-1.048.06-1.132.813-1.132.448 0 1.018-.162 1.269-.36.32-.255 1.196-4.205 2.963-13.36 1.38-7.15 2.577-13.228 2.66-13.506.118-.391.47-.505 1.563-.505.776 0 1.482.113 1.568.252.086.14 1.401 6.087 2.922 13.216 1.52 7.13 2.835 13.191 2.92 13.47.087.284.438.505.802.505.899 0 1.341.533 1.341 1.616 0 1.168-.286 1.273-3.474 1.273-3.272 0-3.475-.084-3.475-1.44 0-.978.088-1.105.869-1.261.969-.194 1.003-.382.477-2.643l-.336-1.445-3.24-.082c-3.68-.093-3.63-.122-3.954 2.346-.177 1.353-.155 1.409.684 1.725.746.28.867.474.867 1.387 0 .702-.155 1.121-.458 1.237-.543.208-5.896.194-6.42-.016zm11.8-10.328c0-.446-2.236-11.534-2.5-12.403-.09-.294-.271-.424-.402-.289-.192.198-2.6 12.137-2.6 12.892 0 .115 1.238.21 2.751.21 2.18 0 2.75-.086 2.75-.41z" fill="#df7d81"/><path d="M0 157.44V0h217.76v314.88H0V157.44zm211.67 156.25c1.909-.905 3.489-2.435 4.399-4.26l.668-1.34V7.37l-.69-1.526c-.85-1.875-3.016-3.886-4.865-4.514-1.227-.417-10.76-.46-102.6-.46H7.332l-1.772.883c-2.009 1.002-3.034 2.075-4.014 4.2L.868 7.425l.073 150.48.073 150.48.721 1.409c.948 1.852 2.84 3.476 4.874 4.185 1.628.567 2.631.572 102.56.522l100.91-.05 1.593-.754zm-17.182-24.161c-.222-.365-.914-3.37-2.377-10.327a699.238 699.238 0 0 0-1.427-6.644l-.712-3.178a195.17 195.17 0 0 1-.716-3.466 151.393 151.393 0 0 0-.601-2.929c-.102-.435-.45-.674-1.177-.81-1.007-.189-1.03-.222-.943-1.405l.088-1.212h3.155c2.563 0 3.21.09 3.445.461.454.718.014 1.938-.737 2.044-.602.085-.645.221-.572 1.805.044.941.223 1.884.398 2.094.228.274 1.21.382 3.474.382h3.157l.296-.777c.163-.427.258-1.37.21-2.094-.073-1.126-.183-1.331-.755-1.412-.782-.11-1.054-.646-.815-1.598.153-.608.376-.695 2.13-.835 1.079-.085 2.677-.072 3.553.03 1.59.186 1.593.188 1.593 1.192 0 .94-.072 1.018-1.09 1.183-.598.097-1.145.233-1.213.3-.068.069-.394 1.487-.723 3.151-.329 1.665-.73 3.676-.892 4.47-.64 3.15-2.022 10.33-2.751 14.3-1.024 5.573-.984 5.488-2.574 5.488-.71 0-1.352-.098-1.424-.216zm1.648-7.222c.196-.699 1.2-5.643 1.916-9.44.473-2.507.52-3.206.23-3.387-.201-.126-1.409-.189-2.683-.14-2.228.087-2.32.118-2.403.815-.048.398.44 3.316 1.085 6.483.646 3.168 1.174 5.853 1.174 5.967 0 .427.545.188.681-.298zm-7.486-27.088c-.477-.257-1.08-.66-1.341-.896-.743-.67-1.199-2.784-1.065-4.934.157-2.512.583-3.413 5.29-11.209 3.03-5.016 3.541-5.777 3.879-5.777.202 0 .586.39.854.866.268.477 1.54 2.622 2.83 4.767 4.859 8.089 5.438 9.605 5.009 13.123-.27 2.22-1.043 3.36-2.779 4.1-2.235.955-4.881-.012-5.621-2.054-.46-1.266-.7-1.276-1.106-.046-.53 1.601-1.52 2.302-3.42 2.422-1.15.073-1.929-.039-2.53-.363zm-84.809-76.33a407.106 407.106 0 0 0-4.243-6.139c-.96-1.35-2.334-3.3-3.05-4.333-1.822-2.625-3.235-4.604-4.078-5.713-1.329-1.746-4.292-6.83-5.416-9.289-1.983-4.34-2.553-6.467-2.716-10.13-.174-3.926.268-6.085 1.812-8.839 1.86-3.32 5.147-5.316 9.13-5.546 3.087-.178 4.728.404 6.966 2.47 1.914 1.77 2.368 2.49 3.309 5.257.348 1.026.764 1.908.925 1.962.16.053.38-.454.487-1.128.556-3.468 3.51-7.113 6.76-8.341 3.713-1.403 8.856.09 11.431 3.317 5.855 7.338 4.63 15.754-4.16 28.603-1.81 2.645-4.645 6.785-6.301 9.199-3.08 4.49-7.559 11.654-7.559 12.09 0 .133-.18.243-.4.243-.22 0-1.523-1.658-2.896-3.683zM16.695 79.38c-7.32-11.654-8.537-13.986-8.777-16.822-.165-1.945-.109-2.301.582-3.711.957-1.95 2.277-2.665 4.527-2.45 1.68.162 2.697.926 3.246 2.44.191.53.442.962.556.962.114 0 .446-.486.738-1.08.796-1.62 2.236-2.468 3.924-2.311 3.942.366 5.607 4.323 3.877 9.212-.374 1.057-1.987 4.112-3.585 6.789-1.598 2.677-3.193 5.42-3.543 6.096-.808 1.56-1.034 1.688-1.545.875zm-5.909-27.318l-2.968-.082v-1.01c0-.564.16-1.052.362-1.106 1.986-.527 2.034-.57 2.413-2.197.203-.874.65-3.149.99-5.055.342-1.907.808-4.312 1.036-5.344.446-2.016 1.865-9.256 2.464-12.566.201-1.113.49-2.185.64-2.384.426-.561 2.707-.465 2.934.125.289.751 1.373 5.708 4.526 20.696 1.291 6.138 1.276 6.096 2.365 6.416.825.242.958.418 1.037 1.362.049.595-.016 1.092-.145 1.102-.13.011-1.582.043-3.228.072-3.26.058-3.627-.094-3.47-1.435.067-.578.294-.847.817-.968.883-.204.993-.824.488-2.744l-.38-1.444-3.224-.082c-3.652-.092-3.617-.113-3.98 2.298-.195 1.303-.171 1.365.713 1.821.77.398.901.614.826 1.364-.116 1.15-.526 1.263-4.216 1.16zm9.102-10.06c.094-.245-.373-3.1-1.036-6.345-1.255-6.135-1.416-6.767-1.728-6.767-.171 0-2.665 12.132-2.652 12.906.01.447.588.56 3.132.609 1.66.032 2.15-.055 2.284-.404z" fill="#df817c"/><path d="M0 157.44V0h217.76v314.88H0V157.44zm211.67 156.25c1.909-.905 3.489-2.435 4.399-4.26l.668-1.34V7.37l-.69-1.526c-.85-1.875-3.016-3.886-4.865-4.514-1.227-.417-10.76-.46-102.6-.46H7.332l-1.772.883c-2.009 1.002-3.034 2.075-4.014 4.2L.868 7.425l.073 150.48.073 150.48.721 1.409c.948 1.852 2.84 3.476 4.874 4.185 1.628.567 2.631.572 102.56.522l100.91-.05 1.593-.754zm-17.214-24.209c-.09-.146-1.145-4.858-2.344-10.472-3.014-14.106-3.342-15.625-3.503-16.198-.077-.276-.556-.609-1.064-.739-.802-.206-.934-.376-1.012-1.303l-.09-1.067h3.328c3.073 0 3.342.044 3.512.578.276.869-.093 1.685-.81 1.787-.553.078-.636.264-.62 1.39.01.715.11 1.658.223 2.095l.204.794h3.307c2.328 0 3.374-.106 3.53-.36.394-.635.623-3.233.32-3.612-.16-.198-.524-.36-.812-.36-.568 0-.8-.634-.613-1.67.117-.649.174-.658 3.63-.578l3.513.08v1.007c0 .94-.072 1.018-1.09 1.183-.598.097-1.159.246-1.244.332-.086.085-1.322 6.118-2.746 13.406-1.425 7.287-2.652 13.412-2.728 13.61-.16.42-2.64.503-2.891.097zm2.97-13.309c1.001-5.172 1.173-6.496.869-6.688-.623-.394-4.755-.299-5.102.118-.218.262.06 2.123.978 6.565.706 3.41 1.283 6.31 1.283 6.447 0 .135.163.192.361.126.22-.073.85-2.643 1.61-6.568zm-8.926-21.041c-.62-.324-1.267-1.02-1.68-1.806-.58-1.103-.657-1.594-.556-3.59.098-1.942.28-2.633 1.15-4.339 1.125-2.21 7.319-12.526 7.802-12.993.2-.194.386-.146.563.145 5.118 8.361 7.314 12.274 7.916 14.102.7 2.123.543 5.754-.297 6.876-.975 1.303-2.026 1.916-3.506 2.045-1.857.162-3.228-.587-4.003-2.186-.673-1.39-.991-1.394-1.452-.02-.694 2.071-3.661 2.954-5.937 1.766zm-84.906-76.675c-1.529-2.264-4.82-6.976-7.314-10.472-7.013-9.83-8.895-13.07-10.794-18.586-1.02-2.963-1.06-3.227-1.048-6.98.014-4.326.434-6.01 2.173-8.714 1.793-2.788 5.061-4.595 8.687-4.805 2.901-.167 4.681.417 6.651 2.184 1.824 1.636 2.753 3.068 3.583 5.521.35 1.034.77 1.925.932 1.98.164.053.508-.752.765-1.791.6-2.425 1.625-4.152 3.424-5.765 3.012-2.702 7.04-3.197 10.84-1.331 4.959 2.435 8.017 8.807 7.09 14.77-.813 5.224-3.026 9.956-8.05 17.214-6.015 8.688-10.905 16.083-12.236 18.504-.716 1.304-1.442 2.374-1.612 2.379-.17 0-1.56-1.844-3.09-4.108zM16.725 79.433C14.293 75.617 9.581 67.664 8.91 66.24c-1.209-2.566-1.396-5.513-.462-7.29.906-1.725 1.907-2.398 3.774-2.536 2.007-.148 3.223.58 4.003 2.396.613 1.427.998 1.465 1.293.128.375-1.706 2.722-2.91 4.789-2.458 1.406.308 3.037 1.941 3.466 3.471.88 3.132.01 5.69-4.584 13.426a6471.912 6471.912 0 0 0-3.762 6.345c-.202.345-.332.292-.702-.289zM7.873 50.926c.082-.993.174-1.1 1.01-1.181.506-.05 1.061-.26 1.234-.467.299-.36.956-3.56 3.948-19.232.713-3.734 1.42-7.082 1.573-7.439.227-.534.503-.65 1.554-.65.917 0 1.33.134 1.46.473.1.26 1.416 6.273 2.924 13.36 1.507 7.088 2.854 13.082 2.992 13.321.139.239.629.5 1.09.58.735.13.837.27.837 1.156v1.009h-6.66v-.999c0-.824.126-1.028.724-1.175.674-.164.718-.283.639-1.717-.144-2.596-.164-2.61-3.973-2.61-3.763 0-3.607-.116-3.71 2.763-.045 1.26.017 1.404.674 1.565.598.146.724.35.724 1.174v.999l-3.565.08-3.565.082.09-1.093zm12.01-8.911c.204-.53-2.144-12.563-2.528-12.961-.143-.148-.317-.213-.386-.144s-.684 3.025-1.367 6.57c-1.064 5.521-1.182 6.485-.82 6.713.23.146 1.435.268 2.674.27 1.78 0 2.29-.09 2.427-.448z" fill="#929292"/><path d="M0 157.44V0h217.76v314.88H0V157.44zm212.14 156.22c1.848-.972 3.687-3.022 4.286-4.775.413-1.209.456-15.59.456-151.43V7.365l-.824-1.736c-.917-1.934-2.394-3.386-4.373-4.3L210.367.72H7.087l-1.303.68c-1.775.927-3.372 2.5-4.296 4.23L.717 7.076.64 156.716c-.054 103.98.016 150.08.227 151.07.61 2.866 2.79 5.295 5.639 6.28 1.366.471 7.272.496 102.8.436l101.35-.064 1.483-.78zm-17.684-24.183c-.09-.145-1.145-4.858-2.344-10.472-3.014-14.106-3.342-15.625-3.503-16.198-.077-.276-.556-.609-1.064-.739-.802-.206-.934-.376-1.012-1.303l-.09-1.067h3.328c3.073 0 3.342.044 3.512.578.276.869-.093 1.685-.81 1.787-.553.078-.636.264-.62 1.39.01.715.11 1.658.223 2.095l.204.794h3.307c2.328 0 3.374-.106 3.53-.36.394-.635.623-3.233.32-3.612-.16-.198-.524-.36-.812-.36-.568 0-.8-.634-.613-1.67.117-.649.174-.658 3.63-.578l3.513.08v1.007c0 .94-.072 1.018-1.09 1.183-.598.097-1.159.246-1.244.332-.086.085-1.322 6.118-2.746 13.406-1.425 7.287-2.652 13.412-2.728 13.61-.16.42-2.64.503-2.891.097zm2.97-13.309c1.001-5.172 1.173-6.496.869-6.688-.623-.394-4.755-.299-5.102.118-.218.262.06 2.123.978 6.565.706 3.41 1.283 6.31 1.283 6.447 0 .135.163.192.361.126.22-.073.85-2.643 1.61-6.568zm-8.926-21.041c-.62-.324-1.267-1.02-1.68-1.806-.58-1.103-.657-1.594-.556-3.59.098-1.942.28-2.633 1.15-4.339 1.125-2.21 7.319-12.526 7.802-12.993.2-.194.386-.146.563.145 5.118 8.361 7.314 12.274 7.916 14.102.7 2.123.543 5.754-.297 6.876-.975 1.303-2.026 1.916-3.506 2.045-1.857.162-3.228-.587-4.003-2.186-.673-1.39-.991-1.394-1.452-.02-.694 2.072-3.661 2.954-5.937 1.766zm-84.906-76.675c-1.529-2.264-4.82-6.976-7.314-10.472-7.013-9.83-8.895-13.07-10.794-18.586-1.02-2.963-1.06-3.227-1.048-6.98.014-4.326.434-6.01 2.173-8.714 1.793-2.788 5.061-4.595 8.687-4.805 2.901-.167 4.681.417 6.651 2.184 1.824 1.636 2.753 3.068 3.583 5.521.35 1.034.77 1.925.932 1.98.164.053.508-.752.765-1.791.6-2.425 1.625-4.152 3.424-5.765 3.012-2.702 7.04-3.197 10.84-1.331 4.959 2.435 8.017 8.807 7.09 14.77-.813 5.224-3.026 9.956-8.05 17.214-6.015 8.688-10.905 16.083-12.236 18.504-.716 1.304-1.442 2.374-1.612 2.379-.17 0-1.56-1.844-3.09-4.108zM16.725 79.429C14.293 75.613 9.581 67.66 8.91 66.236c-1.209-2.566-1.396-5.513-.462-7.29.906-1.725 1.907-2.398 3.774-2.536 2.007-.148 3.223.58 4.003 2.396.613 1.427.998 1.465 1.293.128.375-1.706 2.722-2.91 4.789-2.458 1.406.308 3.037 1.941 3.466 3.471.88 3.132.01 5.69-4.584 13.426a6471.912 6471.912 0 0 0-3.762 6.345c-.202.345-.332.292-.702-.289zM7.873 50.922c.082-.993.174-1.1 1.01-1.181.506-.05 1.061-.26 1.234-.467.299-.36.956-3.56 3.948-19.232.713-3.734 1.42-7.082 1.573-7.439.227-.534.503-.65 1.554-.65.917 0 1.33.134 1.46.473.1.26 1.416 6.273 2.924 13.36 1.507 7.088 2.854 13.082 2.992 13.321.139.239.629.5 1.09.58.735.13.837.27.837 1.156v1.009h-6.66v-.999c0-.824.126-1.028.724-1.175.674-.164.718-.283.639-1.717-.144-2.596-.164-2.61-3.973-2.61-3.763 0-3.607-.116-3.71 2.763-.045 1.26.017 1.404.674 1.565.598.146.724.35.724 1.174v.999l-3.565.08-3.565.082.09-1.093zm12.01-8.911c.204-.53-2.144-12.563-2.528-12.961-.143-.148-.317-.213-.386-.144s-.684 3.025-1.367 6.57c-1.064 5.521-1.182 6.485-.82 6.713.23.146 1.435.268 2.674.27 1.78 0 2.29-.09 2.427-.448z" fill="#d96d6e"/><path d="M0 157.44V0h217.76v314.88H0V157.44zm212.14 156.22c1.848-.972 3.687-3.022 4.286-4.775.413-1.209.456-15.59.456-151.43V7.365l-.824-1.736c-.917-1.934-2.394-3.386-4.373-4.3L210.367.72H7.087l-1.303.68c-1.775.927-3.372 2.5-4.296 4.23L.717 7.076.64 156.716c-.054 103.98.016 150.08.227 151.07.61 2.866 2.79 5.295 5.639 6.28 1.366.471 7.272.496 102.8.436l101.35-.064 1.483-.78zm-17.505-24.293c-.171-.206-1.554-6.218-3.072-13.36-1.517-7.142-2.873-13.181-3.012-13.419-.139-.238-.63-.5-1.09-.58-.736-.13-.838-.27-.838-1.156v-1.008l3.276-.082 3.275-.082-.09 1.081c-.074.88-.225 1.114-.814 1.255-.669.16-.716.28-.622 1.587.202 2.792.125 2.74 4.084 2.74 3.943 0 3.714.161 3.853-2.724.063-1.305.01-1.44-.655-1.602-.598-.147-.724-.35-.724-1.176v-.998l3.42-.082 3.42-.082-.09 1.093c-.082.998-.175 1.105-1.073 1.237-.541.08-1.093.34-1.227.578-.134.238-1.366 6.283-2.738 13.433-1.373 7.15-2.628 13.162-2.79 13.36-.388.474-2.094.464-2.492-.014zm2.81-12.852c.695-3.518 1.188-6.596 1.094-6.84-.24-.623-5.338-.653-5.577-.033-.087.226.439 3.285 1.168 6.799.729 3.514 1.325 6.46 1.325 6.547 0 .087.163.105.362.04.22-.07.857-2.621 1.627-6.513zm-8.185-21.146c-1.192-.377-2.447-1.675-2.782-2.876-.736-2.644-.053-5.402 2.366-9.55 2.718-4.66 6.35-10.54 6.558-10.615.109-.04.582.61 1.051 1.444.47.834 2.134 3.661 3.7 6.283 1.593 2.67 3.097 5.574 3.417 6.602 1.223 3.927.454 7.09-2.034 8.365-2.318 1.188-4.534.438-5.64-1.91-.668-1.42-.93-1.503-1.323-.419-.495 1.365-.87 1.965-1.458 2.331-.776.483-2.836.667-3.856.345zm-83.362-73.739c-.381-.516-1.842-2.629-3.247-4.694-1.406-2.066-4.427-6.384-6.715-9.595-2.288-3.212-4.794-6.86-5.569-8.107-5.443-8.755-7.15-15.95-5.238-22.08 1.092-3.5 3.009-5.696 6.338-7.26 1.673-.786 2.232-.902 4.379-.907 2.117 0 2.693.108 4.116.806 2.666 1.306 4.578 3.783 5.583 7.23.606 2.078 1.318 2.165 1.654.203.682-3.985 3.973-7.51 7.815-8.369 1.637-.366 4.712.06 6.532.906 1.98.919 4.433 3.476 5.49 5.719 1.29 2.74 1.628 4.543 1.456 7.761-.27 5.083-2.412 10.18-7.218 17.184-8.001 11.66-11.036 16.216-12.68 19.036-.994 1.708-1.852 3.106-1.907 3.106-.054 0-.41-.423-.79-.94zM13.27 73.58c-2.019-3.37-3.926-6.648-4.238-7.284-.926-1.886-1.306-4.269-.948-5.938.57-2.646 1.874-3.794 4.347-3.823 1.919-.023 3.051.672 3.653 2.244.574 1.499 1.16 1.687 1.43.46.102-.464.515-1.173.917-1.574 2.457-2.45 6.525-.958 7.307 2.682.36 1.674.064 4.19-.709 6.036-.546 1.305-7.693 13.348-7.913 13.335-.097-.01-1.828-2.768-3.846-6.138zM7.936 51.594c-.09-.232-.12-.723-.067-1.093.077-.54.315-.699 1.23-.815.895-.114 1.185-.298 1.365-.867.125-.397 1.349-6.504 2.719-13.57 1.37-7.068 2.645-12.948 2.834-13.068.66-.418 2.196-.245 2.474.279.147.278 1.53 6.42 3.072 13.649 1.542 7.23 2.893 13.23 3 13.336.108.106.521.236.92.289.606.08.738.272.813 1.18l.09 1.083h-3.183c-2.929 0-3.198-.046-3.367-.578-.3-.944.104-1.733.888-1.733.604 0 .704-.135.698-.939-.01-1.047-.428-3.057-.695-3.324-.318-.317-6.276-.257-6.721.067-.291.213-.448.912-.485 2.164-.052 1.753-.017 1.86.669 2.026.598.146.724.35.724 1.175v.998l-3.408.08c-2.773.067-3.438 0-3.57-.34zm12.174-9.393c.207-.334-2.405-13.077-2.755-13.439-.143-.148-.33-.2-.415-.115-.085.085-.615 2.546-1.178 5.47l-1.257 6.525c-.15.775-.124 1.32.073 1.516.374.374 5.303.412 5.531.043z" fill="#d64e4f"/><path d="M0 157.44V0h217.76v314.88H0V157.44zm212.14 156.22c1.848-.972 3.687-3.022 4.286-4.775.413-1.209.456-15.59.456-151.43V7.365l-.824-1.736c-.917-1.934-2.394-3.386-4.373-4.3L210.367.72H7.087l-1.303.68c-1.775.927-3.372 2.5-4.296 4.23L.717 7.076.64 156.716c-.054 103.98.016 150.08.227 151.07.61 2.866 2.79 5.295 5.639 6.28 1.366.471 7.272.496 102.8.436l101.35-.064 1.483-.78zm-17.663-24.712c-.081-.278-1.271-5.794-2.643-12.258-3.34-15.727-2.99-14.478-4.139-14.815-.84-.246-.944-.386-.868-1.155l.086-.876h6.08l.093.803c.078.677-.051.852-.83 1.123l-.921.32.198 1.752c.322 2.837.257 2.791 4.004 2.786 1.786 0 3.416-.11 3.622-.241.218-.138.447-1.09.545-2.265l.17-2.028-.906-.315c-.594-.207-.908-.508-.908-.873 0-1.033.66-1.231 3.807-1.144l2.998.083.091.938c.083.863.023.94-.74.94-.458 0-1.05.162-1.314.36-.358.268-1.084 3.464-2.807 12.35a3682.955 3682.955 0 0 1-2.634 13.504l-.31 1.517h-1.263c-.953 0-1.3-.124-1.411-.506zm3.134-12.494c1.551-7.945 1.661-7.51-1.901-7.51-3.39 0-3.308-.324-1.815 7.132 1.307 6.529 1.693 7.874 2.134 7.427.14-.143.853-3.315 1.582-7.049zm-9.088-21.616c-1.428-.764-2.045-2.104-2.045-4.44 0-3.146.493-4.219 6.346-13.809 1.309-2.145 2.469-3.927 2.578-3.961.327-.103 7.38 12.072 7.983 13.783.782 2.214.786 5.323.01 6.65-1.402 2.396-4.417 3.09-6.292 1.447-.538-.471-1.101-1.284-1.251-1.805-.382-1.328-1.042-1.195-1.517.305-.496 1.563-1.678 2.355-3.516 2.357-.72 0-1.752-.237-2.295-.527zm-82.968-73.917c-.473-.747-2.875-4.224-5.338-7.727-2.462-3.503-5.753-8.189-7.312-10.413-3.636-5.187-6.665-11.132-7.634-14.986-2.549-10.132 1.82-18.227 10.049-18.621 2.83-.135 4.647.442 6.489 2.059 1.78 1.564 2.888 3.333 3.62 5.782.736 2.47 1.38 2.558 1.892.26.753-3.38 2.754-6.079 5.653-7.622 1.069-.569 1.676-.669 4.01-.66 2.45.01 2.936.1 4.438.851 2.068 1.033 4.485 3.56 5.546 5.797 3.249 6.85 1.281 14.51-6.675 25.985-6.043 8.716-10.39 15.247-11.972 17.982-.849 1.47-1.625 2.672-1.725 2.671-.1 0-.568-.611-1.04-1.358zM13.257 73.291c-4.374-7.276-4.902-8.411-5.082-10.913-.16-2.242.552-4.237 1.806-5.057 1.11-.725 3.328-.873 4.446-.296.899.464 1.79 1.756 1.79 2.596 0 .593.561.886.952.497.177-.177.459-.74.626-1.25.47-1.433 2.01-2.33 3.728-2.17 2.538.235 4.018 1.876 4.195 4.653.203 3.175-.41 4.716-4.717 11.878a355.397 355.397 0 0 0-2.867 4.839c-.43.755-.875 1.367-.988 1.362-.113-.01-1.863-2.768-3.889-6.139zm-4.64-21.493c-.338-.088-.508-.415-.508-.978 0-.742.104-.845.848-.845.467 0 1.03-.18 1.25-.401.224-.223 1.013-3.537 1.772-7.439l2.6-13.392 1.231-6.355 1.11-.092c.611-.051 1.223.02 1.36.156.136.136 1.485 6.027 2.996 13.09 1.512 7.065 2.817 13.13 2.9 13.482.11.452.447.692 1.165.826.867.163 1.01.304 1.01.993 0 .466-.192.877-.457.98-.595.227-4.86.227-5.455 0-.687-.264-.614-1.848.086-1.848 1.062 0 1.302-.702.913-2.674-.195-.992-.505-1.899-.689-2.016-.183-.116-1.794-.214-3.58-.216-3.702-.01-3.635-.048-3.967 2.55-.214 1.674.083 2.356 1.024 2.356.848 0 .754 1.61-.108 1.84-.736.197-4.728.185-5.502-.017zm11.652-9.984c0-1.073-2.607-13.334-2.891-13.618-.16-.158-.383.013-.561.43-.456 1.064-2.68 12.993-2.508 13.443.115.299.864.396 3.057.396 2.82 0 2.905-.02 2.903-.65z" fill="#6b6b6b"/><path d="M0 157.44V0h217.76v314.88H0V157.44zm213.2 155.91c1.776-1.22 2.856-2.598 3.527-4.498.4-1.133.446-16.895.446-151.25 0-136.41-.042-150.11-.461-151.33-.615-1.8-2.787-4.163-4.6-5.006l-1.454-.675H6.778l-1.504.748c-1.67.83-3.32 2.547-4.14 4.307-.522 1.122-.538 5.59-.538 151.95 0 146 .017 150.83.535 151.97 1.022 2.245 3.298 4.272 5.347 4.762.5.12 46.858.198 103.02.174l102.11-.044 1.6-1.099zm-18.722-24.394c-.081-.278-1.271-5.794-2.643-12.258-3.34-15.727-2.99-14.478-4.139-14.815-.84-.246-.944-.386-.868-1.156l.086-.875h6.08l.093.803c.078.677-.051.852-.83 1.123l-.921.32.198 1.752c.322 2.837.257 2.791 4.004 2.786 1.786 0 3.416-.11 3.622-.241.218-.138.447-1.09.545-2.265l.17-2.028-.906-.315c-.594-.207-.908-.509-.908-.873 0-1.033.66-1.231 3.807-1.145l2.998.083.091.94c.083.862.023.938-.74.938-.458 0-1.05.163-1.314.361-.358.268-1.084 3.464-2.807 12.35a3682.955 3682.955 0 0 1-2.634 13.504l-.31 1.517h-1.263c-.953 0-1.3-.124-1.411-.506zm3.134-12.494c1.551-7.945 1.661-7.51-1.901-7.51-3.39 0-3.308-.324-1.815 7.132 1.307 6.529 1.693 7.874 2.134 7.427.14-.143.853-3.315 1.582-7.049zm-9.088-21.616c-1.428-.764-2.045-2.104-2.045-4.44 0-3.146.493-4.219 6.346-13.809 1.309-2.145 2.469-3.927 2.578-3.961.327-.103 7.38 12.072 7.983 13.783.782 2.214.786 5.323.01 6.65-1.402 2.396-4.417 3.09-6.292 1.447-.538-.471-1.101-1.284-1.251-1.805-.382-1.328-1.042-1.195-1.517.305-.496 1.563-1.678 2.355-3.516 2.357-.72 0-1.752-.237-2.295-.527zm-82.968-73.917c-.473-.747-2.875-4.224-5.337-7.727-2.463-3.503-5.754-8.189-7.313-10.413-3.636-5.187-6.665-11.132-7.634-14.986-2.549-10.132 1.82-18.227 10.049-18.621 2.83-.135 4.647.442 6.489 2.059 1.78 1.564 2.888 3.333 3.62 5.782.736 2.47 1.38 2.558 1.892.26.753-3.38 2.754-6.079 5.653-7.622 1.069-.569 1.676-.669 4.01-.66 2.45.01 2.936.1 4.438.851 2.068 1.033 4.485 3.56 5.546 5.797 3.249 6.85 1.281 14.51-6.675 25.985-6.043 8.716-10.39 15.247-11.972 17.982-.849 1.47-1.625 2.672-1.725 2.671-.1 0-.568-.611-1.04-1.358zM13.258 73.299c-4.374-7.276-4.902-8.411-5.082-10.913-.16-2.242.552-4.237 1.806-5.057 1.11-.725 3.328-.873 4.446-.296.899.464 1.79 1.756 1.79 2.596 0 .593.561.886.952.497.177-.177.459-.74.626-1.25.47-1.433 2.01-2.33 3.728-2.17 2.538.235 4.018 1.876 4.195 4.653.203 3.175-.41 4.716-4.717 11.878a355.397 355.397 0 0 0-2.867 4.839c-.43.755-.875 1.367-.988 1.362-.113-.01-1.863-2.768-3.889-6.139zm-4.64-21.493c-.338-.088-.508-.415-.508-.978 0-.742.104-.845.848-.845.467 0 1.03-.18 1.25-.401.224-.223 1.013-3.537 1.772-7.439l2.6-13.392 1.231-6.355 1.11-.092c.611-.051 1.223.02 1.36.156.136.136 1.485 6.027 2.996 13.09 1.512 7.065 2.817 13.13 2.9 13.482.11.452.447.692 1.165.826.867.163 1.01.304 1.01.993 0 .466-.192.877-.457.98-.595.227-4.86.227-5.455 0-.687-.264-.614-1.848.086-1.848 1.062 0 1.302-.702.913-2.674-.195-.992-.505-1.899-.689-2.016-.183-.116-1.794-.214-3.58-.216-3.702-.01-3.635-.048-3.967 2.55-.214 1.674.083 2.356 1.024 2.356.848 0 .754 1.61-.108 1.84-.736.197-4.728.185-5.502-.017zm11.652-9.984c0-1.073-2.607-13.334-2.891-13.618-.16-.158-.383.013-.561.43-.456 1.064-2.68 12.993-2.508 13.443.115.299.864.396 3.057.396 2.82 0 2.905-.02 2.903-.65z" fill="#d22e2f"/><path d="M0 157.44V0h217.76v314.88H0V157.44zm213.2 155.91c1.776-1.22 2.856-2.598 3.527-4.498.4-1.133.446-16.895.446-151.25 0-136.41-.042-150.11-.461-151.33-.615-1.8-2.787-4.163-4.6-5.006l-1.454-.675H6.778l-1.504.748c-1.67.83-3.32 2.547-4.14 4.307-.522 1.122-.538 5.59-.538 151.95 0 146 .017 150.83.535 151.97 1.022 2.245 3.298 4.272 5.347 4.762.5.12 46.858.198 103.02.174l102.11-.044 1.6-1.099zm-18.462-24.521c-.177-.498-1.164-5.044-3.47-15.978-2.42-11.48-2.163-10.611-3.274-11.102-.672-.297-.935-.605-.935-1.094 0-.674.027-.68 2.823-.598 2.678.078 2.828.116 2.916.733.057.404-.058.65-.307.65-.22 0-.629.168-.91.373-.437.319-.481.637-.303 2.208.309 2.722.59 2.908 4.412 2.908 4 0 4.11-.075 4.191-2.874.061-2.07.038-2.15-.66-2.32-.528-.129-.725-.369-.725-.886 0-.704.022-.71 3.133-.791l3.133-.082-.093.804c-.08.7-.232.816-1.172.894-1.302.108-1.171-.282-2.832 8.432-.652 3.416-1.736 9.071-2.41 12.566l-1.227 6.356-1.078.09c-.696.058-1.126-.045-1.213-.29zm1.716-5.386c.426-1.339 2.68-13.801 2.555-14.126-.101-.264-1.016-.366-3.294-.366h-3.155v.813c0 .91 2.495 13.507 2.76 13.935.284.458.955.306 1.134-.256zm-8.354-29.24c-.758-.663-1.093-1.266-1.357-2.445-.687-3.059.1-4.934 6.328-15.096l2.35-3.835 1.226 2.102a666.352 666.352 0 0 0 3.61 6.066c1.313 2.18 2.622 4.65 2.911 5.488.685 1.99.702 5.243.033 6.48-1.56 2.888-6.37 2.767-7.018-.176-.212-.96-.838-1.587-1.378-1.38-.202.077-.528.737-.724 1.467-.43 1.61-1.39 2.211-3.523 2.211-1.206 0-1.623-.149-2.458-.88zm-85.732-78.332a1562.676 1562.676 0 0 0-7.838-11.204c-7.157-10.105-9.687-15.958-9.687-22.408 0-5.756 2.085-9.66 6.288-11.78 3.879-1.955 7.804-1.551 10.753 1.107 1.549 1.396 2.336 2.696 3.239 5.349.586 1.72.867 2.185 1.367 2.257.487.071.67-.093.81-.722.86-3.886 2.004-5.917 4.299-7.64 1.843-1.385 3.41-1.805 6.088-1.633 2.808.18 4.86 1.17 6.787 3.273 3.25 3.548 4.456 8.298 3.383 13.329-1.047 4.912-3.153 9.048-8.615 16.922-5.259 7.58-9.034 13.271-11.022 16.616l-1.595 2.682-4.257-6.149zM16.732 78.554c-7.87-12.85-8.096-13.29-8.27-16.177-.216-3.573 1.141-5.457 3.933-5.46 1.658 0 2.794.63 3.226 1.791.574 1.543.775 1.82 1.327 1.82.36 0 .654-.392.942-1.252 1.046-3.13 5.48-3.157 7.104-.043.413.792.5 1.494.415 3.316-.132 2.777-.633 3.921-4.68 10.688-1.52 2.542-2.946 4.934-3.168 5.316l-.404.694-.425-.694zM8.507 51.293c-.272-.707.021-1.1.89-1.191 1.453-.155.995 1.507 4.334-15.717A2047.43 2047.43 0 0 0 15.8 23.624c.183-1.031.246-1.084 1.307-1.084 1.342 0 .888-1.513 4.028 13.433 3.053 14.527 2.857 13.828 3.923 14.011.677.116.879.316.95.94l.093.793h-5.868l.092-.792c.06-.523.287-.826.67-.894.319-.056.684-.201.813-.322.34-.32-.368-4.007-.865-4.502-.614-.613-6.816-.609-7.327.01-.369.443-.817 3.392-.645 4.248.054.269.382.529.73.578.449.064.661.323.726.884l.092.795h-2.924c-2.302 0-2.958-.09-3.087-.424zm11.955-8.982c.176-.457-2.426-13.683-2.816-14.312-.117-.189-.402-.27-.635-.181-.47.18-3.28 13.799-2.997 14.532.242.63 6.204.595 6.448-.04z" fill="#d40101"/><path d="M0 157.44V0h217.76v314.88H0V157.44zm213.2 155.91c1.776-1.22 2.856-2.598 3.527-4.498.4-1.133.446-16.895.446-151.25 0-136.41-.042-150.11-.461-151.33-.615-1.8-2.787-4.163-4.6-5.006l-1.454-.675H6.778l-1.504.748c-1.67.83-3.32 2.547-4.14 4.307-.522 1.122-.538 5.59-.538 151.95 0 146 .017 150.83.535 151.97 1.022 2.245 3.298 4.272 5.347 4.762.5.12 46.858.198 103.02.174l102.11-.044 1.6-1.099z" fill="#030303"/></svg>