<svg xmlns="http://www.w3.org/2000/svg" height="335.872" width="232.277" viewBox="0 0 217.76 314.88"><path d="M0 157.44V0h217.76v314.88H0V157.44z" fill="#fdfdfd"/><path d="M0 157.44V0h217.76v314.88H0V157.44zm211.88 155.77c1.56-.831 3.003-2.271 3.718-3.71.552-1.11.562-3.422.634-151.58l.073-150.45-.611-1.416c-.342-.794-1.221-1.987-1.997-2.71-2.59-2.418 7.892-2.207-105.55-2.124l-101.05.074-1.483.78c-1.61.847-2.676 1.954-3.67 3.808l-.638 1.19-.074 149.92c-.066 135.52-.03 150.07.381 151.48.57 1.958 2.835 4.345 4.768 5.027 1.172.414 10.9.452 102.79.407l101.49-.05 1.223-.652zM3.66 299.073c-.326-.325-.199-.666.25-.666.238 0 .434.122.434.272 0 .364-.453.625-.684.394zm189.04-9.141c-3.957-1.316-6.266-3.901-6.69-7.49-.423-3.594 1.335-6.37 6.835-10.795 3.779-3.04 5.609-4.93 6.394-6.605 1.044-2.224 1.157-2.166-4.223-2.166h-4.777v1.463c0 2.213-.306 2.58-2.147 2.58-.967 0-1.672-.15-1.88-.4-.225-.27-.308-1.624-.253-4.117l.081-3.715h18.532l.086 1.63c.112 2.127-.598 5.114-1.711 7.198-.895 1.676-2.833 3.682-8.336 8.633-1.491 1.34-2.954 2.836-3.251 3.322-.65 1.064-.705 3.052-.116 4.19 1.276 2.461 7.192 2.778 8.71.465.34-.516.483-1.283.457-2.444-.037-1.636-.01-1.703.867-2.065.498-.206 1.443-.384 2.1-.397l1.194-.022.088 2.311c.048 1.271-.067 2.865-.256 3.542-.478 1.713-2.237 3.605-4.092 4.402-1.893.813-5.858 1.064-7.612.48zm-99.078-12.718c-4.948-1.253-8.424-5.013-9.395-10.161-.542-2.872-.161-7.624.86-10.716 1.658-5.025 4.073-9.295 9.698-17.15 3.664-5.115 9.864-14.063 10.858-15.672 1.048-1.694 1.51-1.453 3.325 1.733 1.77 3.106 4.77 7.654 11.39 17.26 4.75 6.895 6.872 10.758 8.105 14.76 1.03 3.348 1.154 8.5.267 11.198-1.158 3.522-3.667 6.499-6.783 8.046-2.294 1.138-5.817 1.45-8.002.707-2.948-1.002-5.611-3.797-6.787-7.124-.446-1.262-.601-1.47-.755-1.01-1.195 3.562-4.044 6.865-6.704 7.775-1.94.662-4.309.8-6.077.352zm95.014-21.442c-1.619-.835-2.74-3.088-2.74-5.503 0-2.412 1.074-4.81 5.307-11.848 2.302-3.826 4.354-6.93 4.616-6.98.321-.062.72.401 1.25 1.445.427.844 1.86 3.314 3.185 5.488 3.084 5.062 4.08 7.045 4.65 9.264 1.207 4.703-1.06 8.595-5.004 8.592-1.58 0-2.977-.697-3.743-1.863l-.483-.736-1.081 1.216c-1.052 1.183-1.135 1.218-3.08 1.297-1.385.056-2.268-.058-2.877-.372zm-82.51-166.8c-.255-.358-2.252-3.25-4.437-6.428a960.054 960.054 0 0 0-7.478-10.697c-5.912-8.298-9.134-14.629-9.926-19.5-.438-2.692-.378-6.247.14-8.235 1.107-4.255 3.002-6.74 6.432-8.431 2.134-1.053 2.315-1.09 5.266-1.09 2.656 0 3.223.09 4.337.682 2.503 1.331 4.854 4.257 5.952 7.407.16.457.341.196.872-1.25 1.16-3.165 4.077-6.018 7.028-6.874 2.045-.593 4.75-.407 7.163.492 3.228 1.204 6.26 4.967 7.539 9.358.383 1.314.46 2.383.345 4.751-.288 5.914-2.38 10.691-8.612 19.666-5.946 8.564-10.587 15.613-11.949 18.153-1.543 2.877-1.87 3.122-2.672 1.997zm-88.411-9.261c-.65-.787-6.86-11.211-7.949-13.343-1.073-2.103-1.189-2.546-1.285-4.911-.094-2.304-.03-2.73.563-3.747 1.028-1.762 2.283-2.465 4.395-2.46 2.063 0 2.994.4 3.787 1.608l.574.873 1.02-1.068c1.956-2.05 5.165-2.009 7.135.092 1.342 1.431 1.647 2.494 1.504 5.223-.153 2.896-.723 4.224-4.515 10.51-1.439 2.385-2.948 4.99-3.354 5.789-.777 1.529-1.402 2.007-1.875 1.435zM8.49 52.46c-.27-.704.426-5.417 1.039-7.025.849-2.23 2.958-4.672 7.25-8.392 5.355-4.643 6.316-6.116 5.533-8.484-1.044-3.157-6.427-4.017-8.734-1.395-.831.945-.891 1.15-.746 2.549.186 1.8.032 1.982-2.098 2.473-2.129.49-2.436.07-2.25-3.084.22-3.773 1.497-5.786 4.548-7.175 1.042-.474 1.918-.597 4.346-.61 2.776-.013 3.187.057 4.728.812 3.297 1.615 4.842 3.887 5.055 7.431.104 1.751.017 2.448-.436 3.467-.753 1.694-3.03 4.132-6.58 7.047-3.587 2.943-5.524 4.983-6.252 6.582-.93 2.045-1.107 1.968 4.281 1.88l4.85-.08.145-1.877.145-1.878 1.73-.088c1.38-.07 1.803.013 2.099.416.446.61.512 6.05.087 7.165l-.282.74H17.81c-8.205 0-9.156-.047-9.32-.474z" fill="#f1d0cf"/><path d="M0 157.44V0h217.76v314.88H0V157.44zm211.88 155.77c1.56-.831 3.003-2.271 3.718-3.71.552-1.11.562-3.422.634-151.58l.073-150.45-.611-1.416c-.342-.794-1.221-1.987-1.997-2.71-2.59-2.418 7.892-2.207-105.55-2.124l-101.05.074-1.483.78c-1.61.847-2.676 1.954-3.67 3.808l-.638 1.19-.074 149.92c-.066 135.52-.03 150.07.381 151.48.57 1.958 2.835 4.345 4.768 5.027 1.172.414 10.9.452 102.79.407l101.49-.05 1.223-.652zM3.66 299.073c-.326-.325-.199-.666.25-.666.238 0 .434.122.434.272 0 .364-.453.625-.684.394zm188.85-9.43c-3.783-1.407-5.935-3.953-6.244-7.388-.321-3.565 1.151-5.824 6.886-10.562 5.07-4.188 6.932-6.478 6.932-8.526 0-.58-.123-.592-4.995-.515l-4.995.079-.145 1.878-.145 1.877h-3.475l-.08-3.668c-.077-3.476-.05-3.686.528-3.994.772-.412 17.41-.061 17.69.373.459.708-.477 5.73-1.41 7.568-1.097 2.161-2.436 3.654-6.296 7.019-5.366 4.678-6.23 5.77-6.23 7.868 0 2.668 2.013 4.315 5.291 4.327 3.305.013 4.84-1.278 4.84-4.067 0-1.933.352-2.283 2.387-2.373 1.164-.052 1.2-.025 1.433 1.06.243 1.135-.059 3.761-.59 5.138-.507 1.311-2.006 2.749-3.589 3.441-1.889.826-6.14 1.08-7.793.465zm-99.267-12.769c-3.336-.933-5.886-2.988-7.364-5.935-1.365-2.722-1.712-4.649-1.556-8.632.109-2.75.29-3.796 1.037-5.988 1.788-5.248 3.897-8.92 10.336-17.992 2.426-3.42 5.843-8.297 7.593-10.84 1.75-2.541 3.364-4.657 3.586-4.7.246-.049.917.848 1.708 2.283 1.489 2.7 5.826 9.288 11.77 17.875 2.254 3.256 4.701 7.09 5.438 8.52 1.637 3.173 3.029 7.398 3.332 10.11.703 6.301-2.187 12.166-7.282 14.774-1.215.622-2.046.81-4.032.91-3.3.168-4.931-.366-7.068-2.314-1.841-1.679-2.877-3.304-3.6-5.65-.402-1.304-.553-1.531-.716-1.075-1.533 4.305-3.391 6.781-6.07 8.089-1.963.958-4.879 1.19-7.112.565zm105.25-21.087c-1.036-.353-2.75-1.916-2.75-2.506 0-.543-.48-.157-.775.625-.48 1.265-1.947 2.034-3.888 2.035-2.035 0-3.32-.783-4.263-2.601-.571-1.104-.654-1.621-.555-3.464.074-1.388.346-2.686.755-3.611.927-2.097 8.223-14.237 8.668-14.424.221-.093.58.208.869.729.27.488 1.71 2.924 3.2 5.413 4.313 7.21 5.245 9.347 5.249 12.037.006 4.12-3.148 6.915-6.51 5.767zm-94.154-169.64c-1.14-1.702-4.508-6.54-7.483-10.75-8.008-11.335-9.78-14.382-11.587-19.936-.948-2.913-1.298-8.046-.733-10.759.477-2.292 1.85-4.889 3.403-6.44 3.246-3.237 8.744-4.38 12.313-2.557 2.495 1.273 4.743 3.948 5.626 6.694.242.751.507 1.56.59 1.799.084.238.376-.366.65-1.343.877-3.12 3.09-5.902 5.87-7.383 1.058-.564 1.674-.662 4.138-.662 2.618 0 3.063.082 4.633.85 3.254 1.59 6.099 5.314 7.076 9.26 1.42 5.734-1.02 13.494-6.9 21.955-5.763 8.29-12.222 18.034-13.358 20.15-.77 1.435-1.374 2.234-1.683 2.228-.285-.01-1.33-1.277-2.555-3.105zM16.785 78.07c-.513-.914-1.959-3.315-3.213-5.336-4.405-7.098-5.462-9.906-4.88-12.965.513-2.702 2.132-4.105 4.771-4.137 1.864-.023 3.04.58 3.765 1.93.318.593.644 1.077.724 1.073.08 0 .346-.425.592-.938.637-1.325 2.759-2.352 4.315-2.09 1.35.227 2.749 1.105 3.608 2.263.521.703.606 1.227.606 3.756 0 2.781-.056 3.055-1.044 5.105-.574 1.192-2.268 4.2-3.764 6.686-1.496 2.485-2.943 4.923-3.214 5.416-.271.494-.682.898-.913.898-.232 0-.84-.748-1.353-1.661zm-3.032-25.194l-4.922-.155.072-2.167c.16-4.763 1.877-7.763 6.936-12.12 4.621-3.982 6.373-5.853 6.736-7.199.589-2.181-.563-4.416-2.688-5.217-1.367-.516-4.14-.376-5.416.273-1.534.781-2.138 1.991-1.897 3.802.178 1.338.15 1.416-.62 1.713-1.473.567-2.728.664-3.003.23-.405-.637-.307-3.768.166-5.36.519-1.741 2.032-3.396 3.892-4.254 1.928-.89 6.815-.883 8.758.014 3.27 1.507 5.234 4.453 5.215 7.817-.02 3.328-1.405 5.238-7.349 10.13-3.676 3.024-5.372 4.9-6.183 6.836-.783 1.87-.728 1.891 4.769 1.891h4.918l.156-.938a26.63 26.63 0 0 0 .23-1.95c.074-.992.102-1.013 1.473-1.1 2.105-.134 2.222.069 2.222 3.859 0 2.584-.095 3.36-.455 3.72-.49.488-2.316.512-13.01.176z" fill="#d6d6d6"/><path d="M0 157.44V0h217.76v314.88H0V157.44zm209.57 156.89c.277-.145 1.09-.469 1.81-.72 1.793-.627 3.186-1.846 4.204-3.68l.86-1.548V6.802l-.654-1.22c-.887-1.654-2.471-3.18-4.087-3.932l-1.34-.625H7.382l-1.646.806c-1.864.913-3.224 2.313-4.115 4.235l-.61 1.314v300.44l.69 1.525c.91 2.007 3.038 3.908 5.187 4.634 1.618.546 3.667.558 101.92.594 59.857.022 100.47-.07 100.77-.227zm-17.061-24.677c-3.783-1.407-5.935-3.954-6.244-7.388-.321-3.566 1.151-5.824 6.886-10.562 5.07-4.188 6.932-6.479 6.932-8.527 0-.579-.123-.591-4.995-.514l-4.995.079-.145 1.877-.145 1.878h-3.475l-.08-3.668c-.077-3.477-.05-3.686.528-3.994.772-.412 17.41-.061 17.69.373.459.708-.477 5.73-1.41 7.568-1.097 2.161-2.436 3.654-6.296 7.019-5.366 4.677-6.23 5.77-6.23 7.868 0 2.668 2.013 4.314 5.291 4.327 3.305.013 4.84-1.278 4.84-4.067 0-1.934.352-2.283 2.387-2.374 1.164-.052 1.2-.025 1.433 1.06.243 1.135-.059 3.762-.59 5.138-.507 1.312-2.006 2.75-3.589 3.442-1.889.826-6.14 1.08-7.793.465zm-99.267-12.769c-3.336-.933-5.886-2.988-7.364-5.935-1.365-2.722-1.712-4.649-1.556-8.632.109-2.75.29-3.796 1.037-5.988 1.788-5.248 3.897-8.92 10.336-17.992 2.426-3.42 5.843-8.298 7.593-10.84s3.364-4.657 3.586-4.701c.246-.048.917.849 1.708 2.284 1.489 2.7 5.826 9.288 11.77 17.875 2.254 3.255 4.701 7.089 5.438 8.519 1.637 3.174 3.029 7.399 3.332 10.11.703 6.302-2.187 12.167-7.282 14.775-1.215.622-2.046.81-4.032.91-3.3.168-4.931-.366-7.068-2.314-1.841-1.679-2.877-3.304-3.6-5.65-.402-1.305-.553-1.532-.716-1.076-1.533 4.306-3.391 6.782-6.07 8.09-1.963.958-4.879 1.19-7.112.565zm105.25-21.087c-1.036-.354-2.75-1.916-2.75-2.506 0-.543-.48-.157-.775.624-.48 1.266-1.947 2.035-3.888 2.036-2.035 0-3.32-.784-4.263-2.601-.571-1.104-.654-1.621-.555-3.464.074-1.388.346-2.687.755-3.611.927-2.098 8.223-14.237 8.668-14.424.221-.093.58.208.869.728.27.488 1.71 2.924 3.2 5.414 4.313 7.21 5.245 9.346 5.249 12.037.006 4.12-3.148 6.914-6.51 5.767zm-94.154-169.64c-1.14-1.702-4.508-6.54-7.483-10.751-8.008-11.334-9.78-14.381-11.587-19.935-.948-2.913-1.298-8.047-.733-10.759.477-2.292 1.85-4.89 3.403-6.44 3.246-3.237 8.744-4.38 12.313-2.558 2.495 1.274 4.743 3.948 5.626 6.695.242.75.507 1.56.59 1.799.084.238.376-.366.65-1.343.877-3.12 3.09-5.902 5.87-7.383 1.058-.564 1.674-.663 4.138-.663 2.618 0 3.063.082 4.633.85 3.254 1.591 6.099 5.315 7.076 9.26 1.42 5.735-1.02 13.495-6.9 21.956-5.763 8.29-12.222 18.034-13.358 20.149-.77 1.436-1.374 2.235-1.683 2.229-.285-.01-1.33-1.277-2.555-3.106zm-87.554-8.078c-.513-.914-1.959-3.315-3.213-5.337-4.405-7.097-5.462-9.905-4.88-12.965.513-2.701 2.132-4.105 4.771-4.137 1.864-.023 3.04.58 3.765 1.93.318.594.644 1.077.724 1.074.08 0 .346-.425.592-.938.637-1.325 2.759-2.353 4.315-2.09 1.35.227 2.749 1.105 3.608 2.263.521.703.606 1.226.606 3.755 0 2.782-.056 3.055-1.044 5.106-.574 1.192-2.268 4.2-3.764 6.686-1.496 2.485-2.943 4.922-3.214 5.416-.271.494-.682.897-.913.897-.232 0-.84-.747-1.353-1.66zm-3.032-25.194l-4.922-.156.072-2.166c.16-4.763 1.877-7.764 6.936-12.121 4.621-3.981 6.373-5.852 6.736-7.198.589-2.181-.563-4.416-2.688-5.217-1.367-.516-4.14-.376-5.416.273-1.534.78-2.138 1.99-1.897 3.802.178 1.338.15 1.415-.62 1.712-1.473.568-2.728.664-3.003.23-.405-.636-.307-3.767.166-5.358.519-1.743 2.032-3.398 3.892-4.256 1.928-.89 6.815-.882 8.758.014 3.27 1.508 5.234 4.453 5.215 7.818-.02 3.327-1.405 5.237-7.349 10.13-3.676 3.024-5.372 4.9-6.183 6.836-.783 1.87-.728 1.891 4.769 1.891h4.918l.156-.939a26.63 26.63 0 0 0 .23-1.95c.074-.991.102-1.012 1.473-1.1 2.105-.134 2.222.07 2.222 3.86 0 2.583-.095 3.36-.455 3.72-.49.487-2.316.512-13.01.175z" fill="#eab0af"/><path d="M0 157.44V0h217.76v314.88H0V157.44zm209.57 156.89c.277-.145 1.09-.469 1.81-.72 1.793-.627 3.186-1.846 4.204-3.68l.86-1.548V6.802l-.654-1.22c-.887-1.654-2.471-3.18-4.087-3.932l-1.34-.625H7.382l-1.646.806c-1.864.913-3.224 2.313-4.115 4.235l-.61 1.314v300.44l.69 1.525c.91 2.007 3.038 3.908 5.187 4.634 1.618.546 3.667.558 101.92.594 59.857.022 100.47-.07 100.77-.227zm-16.044-24.574c-4.279-.907-7.13-4.222-7.106-8.263.02-3.408 1.334-5.226 7.272-10.059 3.658-2.977 5.409-4.916 6.248-6.92.832-1.986.998-1.919-4.746-1.919-5.856 0-5.522-.15-5.531 2.497-.004 1.293-.291 1.548-1.744 1.548-1.477 0-1.735-.579-1.735-3.897 0-1.644.08-3.195.176-3.446.155-.403 1.22-.457 8.985-.457 7.694 0 8.832.057 8.983.448.36.937-.465 5.414-1.344 7.286-.917 1.955-3.572 4.807-8.642 9.283-3.063 2.704-3.926 3.97-3.926 5.764 0 1.704.733 2.973 2.19 3.79 2.557 1.433 6.333.867 7.714-1.156.561-.823.657-1.25.53-2.355-.178-1.549-.023-1.747 1.79-2.284 1.66-.491 1.846-.19 1.707 2.767-.119 2.537-.587 3.749-2.037 5.273-1.636 1.72-5.839 2.724-8.784 2.1zm-79.328-12.819c-1.63-.535-3.54-1.9-4.727-3.378-1.038-1.293-2.315-4.051-2.335-5.042-.006-.318-.132-.769-.28-1.003-.238-.374-.286-.374-.406 0-.857 2.687-1.147 3.422-1.763 4.472-.395.671-1.437 1.877-2.317 2.68-2.109 1.922-3.785 2.483-6.925 2.318-8.842-.466-13.397-9.76-9.991-20.385 1.672-5.22 3.91-9.133 10.526-18.416 2.49-3.494 5.855-8.33 7.479-10.746 1.623-2.417 3.146-4.396 3.385-4.398.246 0 1.05 1.089 1.854 2.517 1.436 2.55 5.56 8.793 12.272 18.577 6.033 8.794 7.962 13.42 8.003 19.186.027 3.801-.612 6.018-2.523 8.753-2.297 3.286-5.157 4.95-8.835 5.14-1.397.073-2.672-.03-3.417-.274zm74.715-21.569c-1.75-.865-2.537-2.436-2.516-5.028.01-1.338.224-2.585.617-3.612.674-1.757 8.394-14.754 8.765-14.754.13 0 .413.293.629.65 7.468 12.386 8.101 13.69 8.242 16.966.136 3.149-.539 4.668-2.54 5.72-2.313 1.217-4.692.51-5.936-1.765-.698-1.277-.91-1.32-1.15-.23-.496 2.254-3.594 3.295-6.111 2.052zm-85.56-170.9a907.919 907.919 0 0 0-7.746-11.056c-6.437-9.035-9.205-14.069-10.65-19.368-.78-2.855-.737-7.936.087-10.548 1.179-3.737 3.531-6.335 6.961-7.689 2.296-.905 6.02-.94 7.906-.074 2.682 1.233 4.932 3.925 5.986 7.165.296.909.663 1.649.816 1.645.153 0 .371-.548.486-1.21.46-2.665 2.778-5.889 5.29-7.357 2.553-1.493 6.352-1.54 9.3-.117 4.532 2.189 7.61 7.934 7.267 13.562-.341 5.595-2.639 10.763-8.603 19.355-5.889 8.482-10.45 15.39-11.91 18.032-.694 1.259-1.401 2.334-1.571 2.39-.17.056-1.798-2.073-3.62-4.73zm-85.765-5.33c-1.207-1.962-6.595-10.973-7.232-12.095-3.209-5.646-1.63-11.269 3.165-11.265 1.84 0 3.15.815 3.81 2.364l.512 1.201.586-1.133c1.92-3.711 7.17-3 8.501 1.152.485 1.512.196 4.36-.657 6.466-.668 1.65-7.155 12.836-7.887 13.598-.317.331-.445.285-.798-.289zM9.033 52.524c-.214-.257-.222-1.063-.028-2.625.625-5.02 1.822-6.896 7.636-11.965 5.391-4.702 6.233-5.796 6.233-8.105 0-3.11-4.189-5.295-7.635-3.982-1.99.759-2.62 1.629-2.79 3.852l-.144 1.898-1.414.41c-1.799.522-2.015.309-2.034-2.006-.044-5.293 2.945-8.156 8.515-8.156 3.91 0 6.933 1.592 8.548 4.5.757 1.364.862 1.837.859 3.866-.003 1.698-.147 2.574-.543 3.305-.783 1.444-3.097 3.8-6.403 6.519-4.556 3.747-6.55 6.144-6.847 8.232l-.102.72h10.424l.09-1.58c.11-1.932.404-2.32 1.755-2.315 1.766.01 1.802.093 1.711 4.063l-.081 3.588-8.72.076c-6.824.06-8.788 0-9.03-.295z" fill="#b4b4b4"/><path d="M0 157.44V0h217.76v314.88H0V157.44zm211.67 156.25c1.909-.904 3.489-2.434 4.398-4.26l.67-1.34V7.37l-.692-1.526c-.85-1.875-3.015-3.886-4.864-4.514-1.227-.417-10.76-.46-102.6-.46H7.332l-1.772.883c-2.009 1.002-3.034 2.075-4.014 4.2L.868 7.425l.073 150.48.073 150.48.721 1.409c.949 1.852 2.84 3.476 4.875 4.185 1.627.567 2.63.572 102.56.522l100.91-.05 1.592-.754zm-18.14-23.938c-4.279-.907-7.13-4.222-7.106-8.263.02-3.408 1.334-5.226 7.272-10.059 3.658-2.977 5.409-4.916 6.248-6.92.832-1.986.998-1.919-4.746-1.919-5.856 0-5.522-.15-5.531 2.497-.004 1.293-.291 1.548-1.744 1.548-1.477 0-1.735-.579-1.735-3.897 0-1.644.08-3.195.176-3.446.155-.403 1.22-.457 8.985-.457 7.694 0 8.832.057 8.983.448.36.937-.465 5.414-1.344 7.286-.917 1.955-3.572 4.807-8.642 9.283-3.063 2.704-3.926 3.97-3.926 5.764 0 1.704.733 2.973 2.19 3.79 2.557 1.433 6.333.868 7.714-1.156.561-.823.657-1.25.53-2.355-.178-1.549-.023-1.747 1.79-2.284 1.66-.491 1.846-.19 1.707 2.767-.119 2.537-.587 3.749-2.037 5.273-1.636 1.72-5.839 2.725-8.784 2.1zm-79.328-12.819c-1.63-.535-3.54-1.9-4.727-3.378-1.038-1.292-2.315-4.051-2.335-5.042-.006-.318-.132-.769-.28-1.003-.238-.374-.286-.374-.406 0-.857 2.687-1.147 3.422-1.763 4.472-.395.671-1.437 1.877-2.317 2.68-2.109 1.922-3.785 2.483-6.925 2.318-8.842-.466-13.397-9.76-9.991-20.385 1.672-5.22 3.91-9.133 10.526-18.416 2.49-3.494 5.855-8.33 7.479-10.746 1.623-2.417 3.146-4.396 3.385-4.398.246 0 1.05 1.089 1.854 2.517 1.436 2.55 5.56 8.793 12.272 18.577 6.033 8.794 7.962 13.42 8.003 19.186.027 3.801-.612 6.018-2.523 8.753-2.297 3.286-5.157 4.95-8.835 5.14-1.397.073-2.672-.03-3.417-.274zm74.715-21.569c-1.75-.865-2.537-2.436-2.516-5.028.01-1.338.224-2.585.617-3.612.674-1.757 8.394-14.754 8.765-14.754.13 0 .413.293.629.65 7.468 12.386 8.101 13.69 8.242 16.966.136 3.149-.539 4.668-2.54 5.72-2.313 1.217-4.692.51-5.936-1.765-.698-1.277-.91-1.32-1.15-.23-.496 2.254-3.594 3.295-6.11 2.052zm-85.56-171a907.919 907.919 0 0 0-7.746-11.056c-6.437-9.035-9.205-14.069-10.65-19.368-.78-2.855-.737-7.936.087-10.548 1.179-3.737 3.531-6.335 6.961-7.689 2.296-.905 6.02-.94 7.906-.074 2.682 1.233 4.932 3.925 5.986 7.165.296.909.663 1.649.816 1.645.153 0 .371-.548.486-1.21.46-2.665 2.778-5.889 5.29-7.357 2.553-1.493 6.352-1.54 9.3-.117 4.532 2.189 7.61 7.934 7.267 13.562-.341 5.595-2.639 10.763-8.603 19.355-5.889 8.482-10.45 15.39-11.91 18.032-.694 1.259-1.401 2.334-1.571 2.39-.17.056-1.798-2.073-3.62-4.73zm-85.765-5.33c-1.207-1.962-6.595-10.973-7.232-12.095-3.209-5.646-1.63-11.269 3.165-11.265 1.84 0 3.15.815 3.81 2.364l.512 1.201.586-1.133c1.92-3.711 7.17-3 8.501 1.152.485 1.512.196 4.36-.657 6.466-.668 1.65-7.155 12.836-7.887 13.598-.317.331-.445.285-.798-.289zM9.037 52.42c-.214-.257-.222-1.063-.028-2.625.625-5.02 1.822-6.896 7.636-11.965 5.391-4.702 6.233-5.796 6.233-8.105 0-3.11-4.189-5.295-7.635-3.982-1.99.759-2.62 1.629-2.79 3.852l-.144 1.898-1.414.41c-1.799.522-2.015.309-2.034-2.006-.044-5.293 2.945-8.156 8.515-8.156 3.91 0 6.933 1.592 8.548 4.5.757 1.364.862 1.837.859 3.866-.003 1.698-.147 2.574-.543 3.305-.783 1.444-3.097 3.8-6.403 6.519-4.556 3.747-6.55 6.144-6.847 8.232l-.102.72h10.424l.09-1.58c.11-1.932.404-2.32 1.755-2.315 1.766.01 1.802.093 1.711 4.063l-.081 3.588-8.72.076c-6.824.06-8.788 0-9.03-.295z" fill="#e49090"/><path d="M0 157.44V0h217.76v314.88H0V157.44zm211.67 156.25c1.909-.904 3.489-2.434 4.398-4.26l.67-1.34V7.37l-.692-1.526c-.85-1.875-3.015-3.886-4.864-4.514-1.227-.417-10.76-.46-102.6-.46H7.332l-1.772.883c-2.009 1.002-3.034 2.075-4.014 4.2L.868 7.425l.073 150.48.073 150.48.721 1.409c.949 1.852 2.84 3.476 4.875 4.185 1.627.567 2.63.572 102.56.522l100.91-.05 1.592-.754zm-19.459-24.448c-3.58-1.333-5.733-4.23-5.733-7.718 0-3.217 1.58-5.409 7.115-9.878 4.547-3.67 6.986-6.764 6.733-8.54-.093-.654-.13-.66-5.226-.737-5.826-.09-5.337-.315-5.505 2.534l-.076 1.3-1.53.088-1.528.088.081-3.699.081-3.698 8.576-.077c6.95-.062 8.637 0 8.902.316.237.285.247 1.022.037 2.677-.641 5.053-1.744 6.72-8.115 12.269-4.91 4.276-5.636 5.245-5.636 7.518 0 1.223.158 1.88.596 2.48 1.892 2.588 7.02 2.85 9.118.467.74-.84.855-1.201.855-2.667 0-1.641.03-1.705.912-2.012 1.696-.59 2.225-.432 2.443.724.108.573.053 1.901-.122 2.953-.43 2.593-1.436 3.993-3.667 5.106-1.486.741-2.114.877-4.343.94-1.92.054-2.965-.06-3.968-.433zm-77.558-12.298c-3.47-.968-6.317-4.096-7.332-8.055-.212-.826-.519-1.546-.681-1.6-.162-.054-.448.508-.635 1.248-1.951 7.73-9.553 10.765-16.21 6.473-2.438-1.572-4.124-4.089-4.933-7.363-.634-2.567-.445-7.154.417-10.111 1.607-5.51 3.861-9.548 10.725-19.217 2.54-3.578 5.792-8.24 7.226-10.36 3.329-4.921 3.456-5.08 3.867-4.825.188.116.663.841 1.054 1.612 1.188 2.338 4.582 7.565 9.897 15.239 6.082 8.782 7.12 10.449 8.54 13.711 2.188 5.027 2.89 9.155 2.15 12.65-1.037 4.91-3.915 8.642-7.847 10.175-1.685.657-4.672.859-6.238.422zm83.403-21.646c-.94-.475-1.444-.98-1.87-1.878-.322-.675-.663-1.227-.757-1.227-.094 0-.326.513-.514 1.14-.513 1.708-1.484 2.326-3.655 2.326-2.186 0-3.496-.748-4.308-2.46-.773-1.63-.556-4.91.475-7.156 1.301-2.835 8.036-13.783 8.48-13.783.229 0 .417.11.417.243s1.121 2.115 2.492 4.405c4.205 7.026 5.024 8.566 5.473 10.284.817 3.129.332 6.013-1.245 7.412-.622.551-2.476 1.31-3.256 1.332-.245.01-1.025-.28-1.732-.637zm-94.284-170.44a1039.998 1039.998 0 0 0-7.446-10.616C86.96 61.057 84.533 55.801 84.53 48.676c-.002-4.663.916-7.337 3.447-10.036 1.53-1.632 3.321-2.63 5.9-3.29 5.122-1.309 9.963 1.727 11.899 7.46.351 1.042.76 1.916.906 1.943.146.026.475-.776.729-1.784.838-3.322 3.028-5.993 6.04-7.37 1.376-.627 1.865-.698 4.091-.592 3.866.185 6.692 1.775 8.81 4.957 2.208 3.32 3.095 7.156 2.511 10.862-.816 5.174-2.96 9.869-7.526 16.483-6.013 8.709-12.063 17.86-13.04 19.726-.558 1.064-1.167 1.936-1.355 1.937-.188 0-1.615-1.85-3.17-4.114zM13.949 72.936c-4.527-7.59-5.05-8.779-5.088-11.549-.036-2.654.66-4.076 2.44-4.983 1.478-.754 2.78-.824 4.213-.226.791.329 1.167.762 1.693 1.95l.677 1.526.434-1.011c1.03-2.401 3.212-3.37 5.567-2.473 1.691.644 2.638 1.813 3.042 3.755.658 3.162-.22 5.595-4.73 13.106-1.498 2.493-2.938 4.956-3.2 5.472-.263.517-.638.932-.833.923-.195-.01-2.092-2.93-4.215-6.49zM9.284 52.593c-.668-.422.017-5.407 1.03-7.491.83-1.705 3.882-4.932 8.975-9.488 1.45-1.297 2.862-2.831 3.137-3.409.973-2.045.499-4.451-1.108-5.627-2.45-1.793-7.078-1.38-8.48.757-.343.522-.53 1.34-.53 2.32 0 .834-.143 1.658-.317 1.832-.175.174-.891.343-1.593.376l-1.275.059-.087-1.978c-.221-5.086 2.806-7.989 8.331-7.989 4.059 0 7.014 1.627 8.627 4.749 1.08 2.088 1.068 5.028-.027 6.892-1.222 2.081-2.103 2.98-6.415 6.555-4.114 3.409-5.774 5.334-6.558 7.602-.324.94-.318 1.14.046 1.372.236.15 2.62.24 5.349.2l4.922-.071.077-1.3c.151-2.585.192-2.64 1.887-2.543l1.51.087.083 3.281c.055 2.172-.03 3.417-.252 3.683-.273.327-1.888.402-8.625.398-4.559 0-8.477-.123-8.706-.267z" fill="#e17d81"/><path d="M0 157.44V0h217.76v314.88H0V157.44zm211.67 156.25c1.909-.904 3.489-2.434 4.398-4.26l.67-1.34V7.37l-.692-1.526c-.85-1.875-3.015-3.886-4.864-4.514-1.227-.417-10.76-.46-102.6-.46H7.332l-1.772.883c-2.009 1.002-3.034 2.075-4.014 4.2L.868 7.425l.073 150.48.073 150.48.721 1.409c.949 1.852 2.84 3.476 4.875 4.185 1.627.567 2.63.572 102.56.522l100.91-.05 1.592-.754zm-19.156-24.347c-.582-.207-1.667-.733-2.411-1.168-3.302-1.93-4.601-7.057-2.636-10.401.918-1.564 3.408-4.047 6.057-6.042 2.874-2.164 5.439-4.93 6.401-6.903 1.218-2.496 1.157-2.527-4.935-2.527-5.694 0-5.229-.224-5.395 2.6l-.076 1.3h-2.896v-7.222l1.376.012c.756.01 4.698.039 8.759.072l7.383.06-.004 1.517c-.003.834-.197 2.42-.432 3.523-.695 3.275-2.387 5.394-8.573 10.74-1.678 1.451-3.475 3.271-3.994 4.045-.833 1.244-.929 1.586-.822 2.936.148 1.865.831 2.874 2.539 3.744 2.512 1.28 6.465.58 7.607-1.348.306-.518.494-1.446.494-2.439v-1.603l1.086-.3c1.674-.464 2.01-.387 2.188.498.236 1.175-.234 4.44-.814 5.66-1.09 2.29-3.949 3.656-7.61 3.636-1.228-.01-2.71-.183-3.292-.39zM92.95 276.49c-1.867-.602-4.234-2.005-5.143-3.049-1.035-1.187-2.304-3.643-2.83-5.474-.793-2.76-.484-8.227.654-11.587 1.433-4.23 3.73-8.572 6.952-13.14a524.673 524.673 0 0 0 2.104-2.998 413.3 413.3 0 0 1 2.462-3.46c2.864-3.994 3.993-5.622 6.903-9.955 1.409-2.096 2.656-3.812 2.773-3.812.117 0 1.042 1.398 2.055 3.106a176.174 176.174 0 0 0 7.071 10.905c6.302 8.966 8.332 12.068 9.738 14.877 2.01 4.015 3.465 8.914 3.451 11.615-.016 3.109-1.549 7.085-3.747 9.72-2.035 2.439-4.508 3.62-7.86 3.753-2.249.089-2.717.014-4.283-.688-2.976-1.332-5.471-4.632-6-7.935-.25-1.555-.823-1.457-1.278.217-1.747 6.428-7.25 9.768-13.022 7.905zm105.86-20.9c-1.095-.331-2.184-1.354-2.682-2.52-.53-1.242-.883-1.185-1.258.202-.475 1.761-1.612 2.419-3.928 2.272-3.003-.191-4.135-1.397-4.398-4.685-.21-2.645.707-4.95 4.413-11.082a932.192 932.192 0 0 0 3.859-6.424c.37-.635.826-1.153 1.013-1.151.187 0 .601.547.92 1.212.318.665.912 1.736 1.32 2.38 3.662 5.784 5.422 8.988 6.047 11.008 1.135 3.665.533 6.636-1.626 8.028-1.322.852-2.542 1.104-3.68.76zM105.2 86.79c-.796-1.152-2.537-3.654-3.868-5.56a406.38 406.38 0 0 1-3.287-4.767 45.247 45.247 0 0 0-1.542-2.167l-.897-1.155c-.123-.16-.853-1.228-1.622-2.376-.77-1.147-1.579-2.236-1.8-2.418-.22-.183-.4-.432-.4-.553 0-.121-.51-.983-1.133-1.915-1.228-1.836-3.31-5.861-4.462-8.627-2.09-5.017-2.211-11.793-.281-15.743 1.61-3.296 4.55-5.485 8.554-6.369 2.92-.645 6.03.364 8.207 2.662 1.692 1.786 2.266 2.716 3.089 5.007.399 1.112.828 2.022.954 2.022.125 0 .402-.764.614-1.699.46-2.024 2.012-4.681 3.486-5.973 4.511-3.95 11.806-2.675 15.486 2.708 2.634 3.853 3.23 8.418 1.824 13.954-1.175 4.622-3.41 8.647-10.008 18.02-4.553 6.467-10.694 16.063-10.694 16.709 0 .862-.901.148-2.22-1.76zm-88.044-8.702c-.338-.695-1.231-2.223-1.985-3.394-2.335-3.635-4.587-7.542-5.412-9.39-1.014-2.271-1.114-5.564-.22-7.31.751-1.47 2.729-2.479 4.353-2.22 2.037.326 2.51.65 3.266 2.234l.722 1.516.604-1.18c1.162-2.273 2.98-3.056 5.238-2.255 1.585.561 2.249 1.14 2.82 2.457.568 1.313.533 4.536-.07 6.306-.451 1.327-3.788 7.403-5.687 10.356-.526.819-1.312 2.086-1.747 2.816-.434.73-.896 1.328-1.028 1.328-.131 0-.516-.569-.854-1.264zM9.294 52.517c-.31-.198-.355-.703-.201-2.238.47-4.71 1.64-6.855 5.813-10.663 6.269-5.72 7.611-7.143 7.946-8.415.371-1.413.042-3.31-.72-4.15-1.974-2.176-6.994-2.327-8.969-.27-.729.759-.841 1.099-.852 2.587-.007.942-.155 1.855-.33 2.029-.174.174-.89.343-1.592.375l-1.275.06-.096-1.59c-.32-5.292 2.708-8.377 8.222-8.377 3.89 0 6.875 1.554 8.535 4.441.744 1.293.852 1.77.854 3.758.002 1.825-.121 2.484-.624 3.322-1.26 2.099-2.664 3.551-6.409 6.635-4.2 3.459-5.442 4.825-6.337 6.973-.968 2.324-.989 2.314 4.764 2.314 3.517 0 5.122-.104 5.366-.346.191-.191.348-1.108.348-2.038v-1.69l1.52.087 1.52.087.082 3.28c.053 2.103-.033 3.42-.24 3.669-.256.307-2.047.39-8.624.401-4.566.01-8.482-.101-8.701-.242z" fill="#df817d"/><path d="M0 157.44V0h217.76v314.88H0V157.44zm211.67 156.25c1.909-.904 3.489-2.434 4.398-4.26l.67-1.34V7.37l-.692-1.526c-.85-1.875-3.015-3.886-4.864-4.514-1.227-.417-10.76-.46-102.6-.46H7.332l-1.772.883c-2.009 1.002-3.034 2.075-4.014 4.2L.868 7.425l.073 150.48.073 150.48.721 1.409c.949 1.852 2.84 3.476 4.875 4.185 1.627.567 2.63.572 102.56.522l100.91-.05 1.592-.754zm-18.966-24.348c-2.939-.927-5.06-2.968-5.83-5.607-1.178-4.044.294-6.779 6.244-11.6 3.718-3.013 5.971-5.435 6.863-7.38 1.156-2.516 1.235-2.477-4.882-2.386l-5.29.079-.145 1.877-.145 1.878h-2.896l-.08-3.504c-.062-2.65.008-3.534.289-3.625.204-.066 4.182-.07 8.84-.01l8.47.115v1.376c0 2.143-.504 4.328-1.437 6.231-.898 1.83-3.57 4.644-8.373 8.814-1.335 1.158-2.81 2.702-3.28 3.43-.745 1.157-.838 1.532-.74 2.987.096 1.407.259 1.814 1.053 2.632 1.653 1.7 5.097 2.17 7.481 1.019 1.544-.746 2.11-1.77 2.11-3.81V280.3l1.12-.335c2.06-.615 2.066-.61 2.066 2.065 0 3.969-1.456 6.079-5.005 7.253-1.638.542-4.803.569-6.433.054zm-99.03-12.697c-2.248-.583-4.23-1.729-5.698-3.295-2.45-2.613-3.424-5.427-3.421-9.88.005-6.879 2.671-12.733 11.32-24.855 2.55-3.575 6.023-8.547 7.717-11.05 1.694-2.502 3.17-4.55 3.28-4.55.11 0 .884 1.203 1.72 2.672 1.829 3.22 5.428 8.671 11.108 16.827 6.746 9.684 8.822 14.308 9.081 20.221.127 2.89.07 3.386-.636 5.478-1.42 4.217-4.351 7.358-7.843 8.406-.761.229-2.32.416-3.463.416-1.741 0-2.369-.145-3.855-.885-2.8-1.396-4.744-3.945-5.618-7.364-.205-.803-.503-1.498-.662-1.544-.16-.046-.568.761-.909 1.795-.742 2.256-2.359 4.773-3.74 5.823-2.38 1.812-5.618 2.5-8.381 1.784zm95.116-21.524c-1.317-.703-2.023-1.948-2.228-3.934-.297-2.866.429-4.66 4.885-12.074 2.218-3.69 4.147-6.748 4.287-6.797.14-.05.616.536 1.056 1.3.44.763 2.07 3.502 3.621 6.084 3.55 5.909 4.107 7.301 4.137 10.326.037 3.672-1.303 5.35-4.456 5.577-1.448.104-1.73.029-2.592-.694-.531-.446-1.146-1.24-1.365-1.764-.22-.524-.51-.952-.645-.952-.136 0-.46.557-.72 1.237-.287.748-.807 1.434-1.315 1.734-1.12.66-3.386.64-4.665-.043zm-84.838-170.12a899.697 899.697 0 0 0-6.923-9.894c-7.51-10.581-9.564-14.09-11.348-19.391-1.584-4.705-1.5-10.404.206-14.01 2.383-5.038 8.337-7.72 13.409-6.039 2.856.947 5.803 4.481 6.7 8.036.191.762.483 1.34.647 1.285.165-.055.515-.873.78-1.817.98-3.516 2.898-6.01 5.659-7.366 1.21-.595 1.854-.706 4.046-.698 2.2.01 2.866.13 4.272.779 3.268 1.51 5.88 4.75 7.03 8.722.382 1.32.463 2.41.352 4.767-.256 5.475-2.236 10.202-7.465 17.822-7.775 11.33-10.736 15.78-12.427 18.672-.998 1.707-1.906 3.104-2.017 3.104-.11 0-1.426-1.787-2.921-3.972zm-86.491-6.407c-.286-.518-1.8-3.029-3.361-5.578-4.457-7.274-4.91-8.281-5.063-11.241-.112-2.188-.048-2.643.513-3.637 1.801-3.198 6.89-2.953 7.783.375.319 1.189.692 1.125 1.345-.229.77-1.6 1.902-2.388 3.423-2.384 2.993.01 4.83 2.154 4.83 5.646 0 3.133-.496 4.255-5.791 13.128-3.094 5.184-3.023 5.108-3.679 3.92zm-8.363-26.41c-.082-.214-.013-1.474.153-2.8.582-4.625 1.681-6.14 9.836-13.552 3.45-3.137 4.256-4.468 3.947-6.524-.372-2.473-2.385-3.87-5.596-3.881-2.086-.01-3.373.45-4.407 1.568-.601.65-.728 1.084-.747 2.565l-.023 1.783-1.212.39c-1.988.639-2.177.416-2.003-2.36.303-4.849 2.696-7.078 7.894-7.356 5.62-.3 9.7 3.104 9.7 8.094 0 3.405-1.063 4.933-6.678 9.59-2.16 1.79-4.392 3.828-4.96 4.527-1.336 1.643-2.319 3.603-2.205 4.397.088.614.205.63 5.119.707 3.463.054 5.154-.024 5.429-.252.257-.213.4-.937.4-2.03v-1.697h1.417c1.025 0 1.465.127 1.592.457.229.594.229 5.714 0 6.308-.154.403-1.206.457-8.84.457-7.01 0-8.694-.075-8.815-.39z" fill="#da6e6e"/><path d="M0 157.44V0h217.76v314.88H0V157.44zm211.67 156.25c1.909-.904 3.489-2.434 4.398-4.26l.67-1.34V7.37l-.692-1.526c-.85-1.875-3.015-3.886-4.864-4.514-1.227-.417-10.76-.46-102.6-.46H7.332l-1.772.883c-2.009 1.002-3.034 2.075-4.014 4.2L.868 7.425l.073 150.48.073 150.48.721 1.409c.949 1.852 2.84 3.476 4.875 4.185 1.627.567 2.63.572 102.56.522l100.91-.05 1.592-.754zm-18.413-24.254c-4.41-1.057-7.336-5.3-6.482-9.401.477-2.294 2.052-4.194 6.679-8.055 4.303-3.592 6.012-5.49 6.814-7.572.813-2.11.825-2.106-5.239-2.106h-5.366v1.676c0 1.91-.312 2.369-1.615 2.369-1.431 0-1.6-.441-1.508-3.942l.083-3.136 8.622-.076c7.698-.068 8.64-.027 8.8.388.343.892-.472 5.127-1.345 6.988-.923 1.966-3.114 4.326-7.97 8.578-4.238 3.712-5.137 5.261-4.475 7.712.448 1.66 1.603 2.707 3.637 3.299 1.426.415 1.964.443 3.268.171 2.836-.59 3.94-1.805 3.944-4.342.003-1.573.004-1.574 1.15-1.97 1.825-.63 1.979-.437 1.83 2.295-.2 3.649-1.414 5.525-4.266 6.59-1.871.698-4.862.942-6.561.535zm-99.149-12.799c-8.33-1.782-11.701-10.521-8.094-20.979 1.53-4.439 4.143-8.91 9.921-16.979a782.325 782.325 0 0 0 7.295-10.392c1.882-2.74 3.517-4.983 3.633-4.983.117 0 1.002 1.351 1.968 3.003 1.889 3.23 4.769 7.569 11.238 16.93 6.118 8.852 8.357 13.831 8.704 19.354.36 5.746-2.478 11.083-7.1 13.354-1.744.857-2.172.946-4.538.946-3.187 0-4.642-.626-6.84-2.946-1.579-1.665-2.387-3.214-2.885-5.53-.425-1.978-.974-1.922-1.581.162-1.74 5.972-6.425 9.194-11.721 8.06zm94.982-21.468c-2.801-1.45-3.308-5.718-1.174-9.891.849-1.66 7.252-12.226 7.693-12.694.314-.333.477-.198 1 .824.344.672 1.794 3.156 3.223 5.521 3.888 6.433 4.41 7.677 4.543 10.808.099 2.353.045 2.693-.569 3.584-1.006 1.46-2.06 2.115-3.624 2.25-1.842.158-3.112-.617-3.892-2.375-.315-.71-.685-1.292-.821-1.292-.137 0-.424.54-.638 1.202-.215.66-.739 1.459-1.165 1.773-1.092.806-3.308.947-4.576.29zm-87.45-173.6a1756.153 1756.153 0 0 0-7.555-10.772c-7.03-9.885-9.858-16.836-9.453-23.244.453-7.192 4.56-11.782 10.916-12.204 4.796-.318 8.404 2.473 10.183 7.876.336 1.024.77 1.862.964 1.862.194 0 .566-.866.828-1.925 1.056-4.27 4.436-7.54 8.34-8.072 1.595-.217 4.31.279 6.016 1.1 1.829.879 4.134 3.262 5.206 5.382 2.322 4.589 2.33 8.77.027 15.118-1.23 3.39-3.066 6.496-8.255 13.962-5.339 7.68-8.425 12.354-10.241 15.507-.749 1.299-1.502 2.409-1.675 2.466-.173.057-2.558-3.118-5.3-7.057zm-84.498-3.721c-.434-.73-1.868-3.08-3.185-5.221-3.762-6.113-4.722-8.193-4.907-10.631-.285-3.764 1.325-5.93 4.407-5.93 1.976 0 3.147.75 3.684 2.358.23.688.524 1.251.652 1.251.235 0 .327-.148 1.06-1.708.628-1.337 1.87-1.954 3.665-1.822 1.87.138 2.877.816 3.752 2.525 1.405 2.743.642 6.034-2.71 11.694a1156.74 1156.74 0 0 0-3.696 6.283c-.808 1.39-1.574 2.528-1.701 2.528-.128 0-.587-.597-1.02-1.327zM9.22 52.24c-.097-.911.088-3.093.374-4.41.743-3.42 2.5-5.654 8.685-11.051 3.626-3.163 4.56-4.357 4.798-6.128.208-1.547-.06-2.42-1.113-3.616-1.626-1.848-5.081-2.351-7.684-1.12-1.388.658-1.955 1.646-2.126 3.702-.144 1.736-.152 1.749-1.28 2.116-1.542.503-1.77.192-1.716-2.336.104-4.885 2.917-7.29 8.498-7.264 2.89.014 4.696.68 6.467 2.384 1.83 1.761 2.354 3.028 2.36 5.698.004 2.12-.075 2.44-.923 3.755-1.062 1.647-3.047 3.617-6.167 6.123-4.262 3.422-6.66 6.466-6.66 8.454v.884l5.43-.079 5.429-.079.145-1.877.144-1.878h2.606v6.933l-8.614.077c-6.777.06-8.623 0-8.653-.289z" fill="#929292"/><path d="M0 157.44V0h217.76v314.88H0V157.44zm212.14 156.22c1.848-.972 3.687-3.022 4.286-4.775.413-1.209.456-15.59.456-151.43V7.365l-.824-1.736c-.917-1.934-2.394-3.386-4.373-4.3L210.367.72H7.087l-1.303.68c-1.775.928-3.372 2.5-4.296 4.23L.717 7.077l-.078 149.64c-.053 103.98.016 150.08.228 151.07.61 2.866 2.79 5.295 5.639 6.28 1.366.471 7.272.497 102.8.437l101.35-.064 1.483-.781zm-18.883-24.228c-4.41-1.057-7.336-5.3-6.482-9.401.477-2.294 2.052-4.193 6.679-8.055 4.303-3.592 6.012-5.49 6.814-7.572.813-2.11.825-2.106-5.239-2.106h-5.366v1.676c0 1.91-.312 2.369-1.615 2.369-1.431 0-1.6-.441-1.508-3.942l.083-3.136 8.622-.076c7.698-.068 8.64-.027 8.8.388.343.892-.472 5.127-1.345 6.988-.923 1.966-3.114 4.326-7.97 8.578-4.238 3.712-5.137 5.261-4.475 7.712.448 1.66 1.603 2.707 3.637 3.299 1.426.415 1.964.443 3.268.171 2.836-.59 3.94-1.805 3.944-4.342.003-1.573.004-1.574 1.15-1.97 1.825-.63 1.979-.437 1.83 2.295-.2 3.649-1.414 5.525-4.266 6.59-1.871.698-4.862.942-6.561.535zm-99.149-12.799c-8.33-1.782-11.701-10.521-8.094-20.979 1.53-4.439 4.143-8.91 9.921-16.979a782.325 782.325 0 0 0 7.295-10.392c1.882-2.74 3.517-4.983 3.633-4.983.117 0 1.002 1.351 1.968 3.003 1.889 3.23 4.769 7.569 11.238 16.93 6.118 8.852 8.357 13.831 8.704 19.354.36 5.746-2.478 11.083-7.1 13.354-1.744.857-2.172.946-4.538.946-3.187 0-4.642-.626-6.84-2.946-1.579-1.665-2.387-3.214-2.885-5.53-.425-1.978-.974-1.922-1.581.162-1.74 5.972-6.425 9.194-11.721 8.06zm94.982-21.468c-2.801-1.45-3.308-5.718-1.174-9.891.849-1.66 7.252-12.226 7.693-12.694.314-.333.477-.198 1 .824.344.672 1.794 3.156 3.223 5.521 3.888 6.433 4.41 7.677 4.543 10.808.099 2.353.045 2.693-.569 3.584-1.006 1.46-2.06 2.115-3.624 2.25-1.842.158-3.112-.617-3.892-2.375-.315-.71-.685-1.292-.821-1.292-.137 0-.424.54-.638 1.202-.215.66-.739 1.459-1.165 1.773-1.092.806-3.308.947-4.576.29zm-87.45-173.6a1756.153 1756.153 0 0 0-7.555-10.772c-7.03-9.885-9.858-16.836-9.453-23.244.453-7.192 4.56-11.782 10.916-12.204 4.796-.318 8.404 2.473 10.183 7.876.336 1.024.77 1.862.964 1.862.194 0 .566-.866.828-1.925 1.056-4.27 4.436-7.54 8.34-8.072 1.595-.217 4.31.279 6.016 1.1 1.829.879 4.134 3.262 5.206 5.382 2.322 4.589 2.33 8.77.027 15.118-1.23 3.39-3.066 6.496-8.255 13.962-5.339 7.68-8.425 12.354-10.241 15.507-.749 1.299-1.502 2.409-1.675 2.466-.173.057-2.558-3.118-5.3-7.057zm-84.498-3.721c-.434-.73-1.868-3.08-3.185-5.221-3.762-6.113-4.722-8.193-4.907-10.631-.285-3.764 1.325-5.93 4.407-5.93 1.976 0 3.147.75 3.684 2.358.23.688.524 1.251.652 1.251.235 0 .327-.148 1.06-1.708.628-1.337 1.87-1.954 3.665-1.822 1.87.138 2.877.816 3.752 2.525 1.405 2.743.642 6.034-2.71 11.694a1156.74 1156.74 0 0 0-3.696 6.283c-.808 1.39-1.574 2.528-1.701 2.528-.128 0-.587-.597-1.02-1.327zM9.22 52.237c-.097-.911.088-3.093.374-4.41.743-3.42 2.5-5.654 8.685-11.051 3.626-3.163 4.56-4.357 4.798-6.128.208-1.547-.06-2.42-1.113-3.616-1.626-1.848-5.081-2.351-7.684-1.12-1.388.658-1.955 1.646-2.126 3.702-.144 1.736-.152 1.749-1.28 2.116-1.542.503-1.77.192-1.716-2.336.104-4.885 2.917-7.29 8.498-7.264 2.89.014 4.696.68 6.467 2.384 1.83 1.761 2.354 3.028 2.36 5.698.004 2.12-.075 2.44-.923 3.755-1.062 1.647-3.047 3.617-6.167 6.123-4.262 3.422-6.66 6.466-6.66 8.454v.884l5.43-.079 5.429-.079.145-1.877.144-1.878h2.606v6.933l-8.614.077c-6.777.06-8.623 0-8.653-.289z" fill="#d64e4f"/><path d="M0 157.44V0h217.76v314.88H0V157.44zm212.14 156.22c1.848-.972 3.687-3.022 4.286-4.775.413-1.209.456-15.59.456-151.43V7.365l-.824-1.736c-.917-1.934-2.394-3.386-4.373-4.3L210.367.72H7.087l-1.303.68c-1.775.928-3.372 2.5-4.296 4.23L.717 7.077l-.078 149.64c-.053 103.98.016 150.08.228 151.07.61 2.866 2.79 5.295 5.639 6.28 1.366.471 7.272.497 102.8.437l101.35-.064 1.483-.781zm-19.293-24.477c-3.572-1.084-5.758-3.725-6.013-7.264-.236-3.28 1.124-5.324 6.349-9.546 4.826-3.9 6.77-6.144 7.491-8.655.47-1.632.225-1.708-5.486-1.708-3.595 0-5.222.103-5.466.346-.192.191-.348 1.1-.348 2.022v1.676h-2.624l.081-3.394.082-3.395 8.217-.077c5.556-.052 8.34.024 8.594.235.39.323.36.96-.2 4.175-.613 3.516-1.962 5.21-9.717 12.197-2.831 2.551-3.854 4.134-3.854 5.963 0 3.723 4.998 6.079 8.9 4.195 1.644-.794 2.216-1.713 2.393-3.844l.145-1.737 1.102-.259c.605-.142 1.192-.167 1.303-.056.382.384.147 3.876-.35 5.171-.65 1.699-2.356 3.21-4.262 3.775-1.572.466-5.068.565-6.337.18zm-77.601-12.417c-1.567-.307-4.01-1.76-5.124-3.048-1.552-1.795-2.052-2.912-2.815-6.292-.326-1.444-.955-.899-1.766 1.532-.745 2.232-2.122 4.46-3.432 5.556-1.202 1.004-3.35 1.932-4.893 2.113-4.165.488-8.948-2.084-10.872-5.847-1.248-2.439-1.575-4.297-1.44-8.163.11-3.117.259-4.023 1.036-6.297 1.756-5.139 4.062-9.112 10.594-18.251 2.2-3.079 5.365-7.596 7.032-10.038 1.668-2.443 3.136-4.442 3.264-4.442.127 0 1.098 1.463 2.158 3.25 1.06 1.788 3.324 5.291 5.033 7.786 1.709 2.495 4.703 6.872 6.654 9.726 5.695 8.331 7.953 13.746 7.968 19.103.02 6.838-4.086 12.324-9.931 13.27-2.043.33-1.998.33-3.467.043zm83.58-21.42c-1.163-.332-1.911-1.079-2.544-2.54-.447-1.034-.619-1.2-.957-.92-.227.188-.495.72-.597 1.18-.101.462-.576 1.168-1.054 1.57-.7.587-1.181.73-2.468.73-.994 0-1.918-.189-2.445-.5-1.823-1.074-2.5-4.336-1.558-7.503.326-1.094 7.669-13.929 8.478-14.819.072-.079.248.051.39.29 7.932 13.252 8.357 14.141 8.35 17.476-.007 3.428-2.708 5.859-5.595 5.036zm-95.249-171.26a525.646 525.646 0 0 0-6.928-9.894c-6.38-8.866-9.172-13.707-10.802-18.724-1.048-3.228-1.322-8.43-.593-11.268.89-3.461 2.931-6.117 5.772-7.506 6.55-3.2 12.366-.454 14.68 6.93.37 1.18.637 1.59 1.038 1.59.358 0 .569-.242.627-.723.41-3.351 2.553-6.572 5.539-8.323 1.2-.705 1.59-.776 4.218-.768 2.607.01 3.063.09 4.565.843 4.176 2.09 6.985 7.106 6.964 12.437-.022 5.301-2.117 10.405-7.53 18.344-8.456 12.4-11.338 16.744-12.704 19.148-.786 1.383-1.496 2.515-1.577 2.516-.082 0-1.553-2.07-3.27-4.6zM14.431 73.144c-1.858-3.128-3.72-6.376-4.139-7.22-2.327-4.683-1.166-9.187 2.51-9.735 2.172-.324 3.788.624 4.3 2.521.365 1.353 1.095 1.392 1.517.081.374-1.163 1.027-1.877 2.148-2.35 1.268-.536 2.005-.496 3.412.184 1.683.813 2.534 2.405 2.534 4.744 0 2.656-.673 4.518-3.139 8.688a1337.308 1337.308 0 0 0-3.692 6.283c-.809 1.39-1.607 2.52-1.772 2.51-.166-.01-1.821-2.578-3.679-5.705zm-3.934-20.776c-1.116-.1-1.23-.183-1.228-.888.005-1.663.64-4.604 1.311-6.075 1.027-2.248 2.099-3.465 6.47-7.346 4.346-3.859 5.748-5.384 5.997-6.525.092-.42.223-.941.29-1.157.198-.627-.408-2.496-1.09-3.362-1.746-2.213-6.717-2.555-8.881-.61-1.124 1.008-1.577 2.158-1.39 3.521.16 1.171.128 1.24-.735 1.54-1.802.627-1.974.502-1.974-1.435 0-5.225 2.723-7.783 8.282-7.783 5.237 0 8.936 3.307 8.892 7.951-.03 3.189-1.447 5.153-6.895 9.559-3.666 2.965-5.488 4.915-6.382 6.831-.82 1.755-.9 2.68-.254 2.927.597.228 9.78.228 10.377 0 .335-.129.46-.576.462-1.662.006-1.96.237-2.268 1.618-2.155l1.129.092.083 2.99c.054 1.958-.033 3.131-.253 3.395-.273.328-1.671.394-7.467.353-3.922-.028-7.685-.1-8.361-.161z" fill="#6b6b6b"/><path d="M0 157.44V0h217.76v314.88H0V157.44zm213.2 155.91c1.776-1.22 2.856-2.598 3.527-4.498.4-1.133.446-16.895.446-151.25 0-136.41-.042-150.11-.461-151.33-.615-1.8-2.787-4.163-4.6-5.006l-1.454-.675H6.778l-1.504.748c-1.67.83-3.32 2.547-4.14 4.307-.522 1.122-.538 5.59-.538 151.95 0 146 .017 150.83.535 151.97 1.022 2.245 3.298 4.272 5.347 4.762.5.12 46.858.198 103.02.174l102.11-.044 1.6-1.099zm-20.352-24.159c-3.572-1.084-5.758-3.725-6.013-7.264-.236-3.28 1.124-5.324 6.349-9.546 4.826-3.9 6.77-6.144 7.491-8.655.47-1.632.225-1.708-5.486-1.708-3.595 0-5.222.103-5.466.346-.192.191-.348 1.1-.348 2.022v1.676h-2.624l.081-3.394.082-3.395 8.217-.077c5.556-.052 8.34.024 8.594.235.39.323.36.96-.2 4.175-.613 3.516-1.962 5.21-9.717 12.197-2.831 2.551-3.854 4.134-3.854 5.963 0 3.723 4.998 6.079 8.9 4.195 1.644-.794 2.216-1.713 2.393-3.844l.145-1.737 1.102-.259c.605-.142 1.192-.167 1.303-.056.382.384.147 3.876-.35 5.171-.65 1.699-2.356 3.21-4.262 3.775-1.572.466-5.068.565-6.337.18zm-77.601-12.417c-1.567-.307-4.01-1.76-5.124-3.048-1.552-1.795-2.052-2.912-2.815-6.292-.326-1.444-.955-.899-1.766 1.532-.745 2.232-2.122 4.46-3.432 5.556-1.202 1.004-3.35 1.932-4.893 2.113-4.165.488-8.948-2.084-10.872-5.847-1.248-2.439-1.575-4.297-1.44-8.163.11-3.117.259-4.023 1.036-6.297 1.756-5.139 4.062-9.112 10.594-18.251 2.2-3.079 5.365-7.596 7.032-10.038 1.668-2.443 3.136-4.442 3.264-4.442.127 0 1.098 1.463 2.158 3.25 1.06 1.788 3.324 5.291 5.033 7.786 1.709 2.495 4.703 6.872 6.654 9.726 5.695 8.331 7.953 13.746 7.968 19.103.02 6.838-4.086 12.324-9.931 13.27-2.043.33-1.998.33-3.467.043zm83.58-21.42c-1.163-.332-1.911-1.079-2.544-2.54-.447-1.034-.619-1.2-.957-.92-.227.188-.495.72-.597 1.18-.101.462-.576 1.168-1.054 1.57-.7.587-1.181.73-2.468.73-.994 0-1.918-.189-2.445-.5-1.823-1.074-2.5-4.336-1.558-7.503.326-1.094 7.669-13.929 8.478-14.819.072-.079.248.051.39.29 7.932 13.252 8.357 14.141 8.35 17.476-.007 3.428-2.708 5.859-5.595 5.036zm-95.249-171.26A525.646 525.646 0 0 0 96.65 74.2c-6.38-8.866-9.172-13.707-10.802-18.724-1.048-3.228-1.322-8.43-.593-11.268.89-3.461 2.931-6.117 5.772-7.506 6.55-3.2 12.366-.454 14.68 6.93.37 1.18.637 1.59 1.038 1.59.358 0 .569-.242.627-.723.41-3.351 2.553-6.572 5.539-8.323 1.2-.705 1.59-.776 4.218-.768 2.607.01 3.063.09 4.565.843 4.176 2.09 6.985 7.106 6.964 12.437-.022 5.301-2.117 10.405-7.53 18.344-8.456 12.4-11.338 16.744-12.704 19.148-.786 1.383-1.496 2.515-1.577 2.516-.082 0-1.553-2.07-3.27-4.6zM14.432 73.152c-1.858-3.128-3.72-6.376-4.139-7.22-2.327-4.683-1.166-9.187 2.51-9.735 2.172-.324 3.788.624 4.3 2.521.365 1.353 1.095 1.392 1.517.081.374-1.163 1.027-1.877 2.149-2.35 1.267-.536 2.004-.496 3.411.184 1.684.813 2.534 2.405 2.534 4.744 0 2.656-.673 4.518-3.139 8.688a1337.308 1337.308 0 0 0-3.692 6.283c-.809 1.39-1.607 2.52-1.772 2.51-.166-.01-1.821-2.578-3.679-5.705zm-3.934-20.776c-1.116-.1-1.23-.183-1.228-.888.005-1.663.64-4.604 1.311-6.075 1.027-2.248 2.099-3.465 6.47-7.346 4.346-3.859 5.748-5.384 5.997-6.525.092-.42.223-.941.29-1.157.198-.627-.408-2.496-1.09-3.362-1.746-2.213-6.717-2.555-8.881-.61-1.124 1.008-1.577 2.158-1.39 3.521.16 1.171.128 1.24-.735 1.54-1.802.627-1.974.502-1.974-1.435 0-5.225 2.723-7.783 8.282-7.783 5.237 0 8.936 3.307 8.892 7.951-.03 3.189-1.447 5.153-6.895 9.559-3.666 2.965-5.488 4.915-6.382 6.831-.82 1.755-.9 2.68-.254 2.927.597.228 9.78.228 10.377 0 .335-.129.46-.576.462-1.662.006-1.96.237-2.268 1.618-2.155l1.129.092.083 2.99c.054 1.958-.033 3.131-.253 3.395-.273.328-1.671.394-7.467.353-3.922-.028-7.685-.1-8.361-.161z" fill="#d22e30"/><path d="M0 157.44V0h217.76v314.88H0V157.44zm213.2 155.91c1.776-1.22 2.856-2.598 3.527-4.498.4-1.133.446-16.895.446-151.25 0-136.41-.042-150.11-.461-151.33-.615-1.8-2.787-4.163-4.6-5.006l-1.454-.675H6.778l-1.504.748c-1.67.83-3.32 2.547-4.14 4.307-.522 1.122-.538 5.59-.538 151.95 0 146 .017 150.83.535 151.97 1.022 2.245 3.298 4.272 5.347 4.762.5.12 46.858.198 103.02.174l102.11-.044 1.6-1.099zm-19.05-24.182c-4.168-.588-7.07-3.696-7.085-7.588-.012-3.206 1.033-4.66 6.82-9.48 5.148-4.287 7.073-6.79 7.073-9.193 0-.747-.128-.887-.953-1.041-.524-.098-3.07-.137-5.657-.085-5.348.105-5.25.06-5.258 2.459-.005 1.68-.118 1.831-1.207 1.623-.682-.13-.786-.314-.96-1.706-.108-.859-.106-2.278.004-3.154l.2-1.594 8.29.077 8.291.077-.085 1.734c-.14 2.832-1.013 5.267-2.58 7.2-.764.943-3.147 3.293-5.297 5.223-4.63 4.155-5.683 5.436-5.953 7.231-.525 3.492 2.542 6.193 6.646 5.853 3.236-.267 5.196-2.084 5.057-4.686-.07-1.328-.02-1.446.716-1.691 1.22-.406 1.641-.094 1.641 1.212 0 2.197-.59 4.079-1.646 5.244-1.622 1.792-4.924 2.728-8.057 2.286zm-79.627-12.8c-2.347-.772-4.534-2.681-5.744-5.015-.262-.505-.709-1.805-.993-2.888-.413-1.574-.63-1.97-1.075-1.97-.436 0-.72.475-1.297 2.167-.939 2.753-1.712 3.986-3.511 5.6-1.899 1.703-3.744 2.312-6.472 2.138-8.628-.553-12.742-9.553-9.214-20.16 1.504-4.525 4.256-9.293 9.92-17.188a744.167 744.167 0 0 0 6.787-9.678c2.023-2.94 3.767-5.375 3.875-5.413.108-.038 1.144 1.522 2.304 3.467 1.16 1.944 3.856 6.07 5.992 9.168 9.695 14.064 11.047 16.367 12.462 21.232 1.429 4.915 1.268 8.267-.581 12.134-1.877 3.925-5.337 6.398-9.312 6.657-1.21.08-2.433-.019-3.14-.251zm75.491-21.276c-2.197-.526-3.069-2.134-2.9-5.35.112-2.13.25-2.583 1.454-4.806.731-1.35 2.417-4.223 3.746-6.386 1.33-2.163 2.65-4.351 2.934-4.863l.518-.93 1.475 2.57a126.764 126.764 0 0 0 2.49 4.153c1.83 2.855 3.531 6.11 3.975 7.6.593 1.992.544 4.416-.117 5.869-.685 1.505-2.677 2.589-4.226 2.299-1.295-.242-2.659-1.403-2.892-2.462-.215-.978-.917-1.671-1.302-1.286-.144.145-.432.77-.64 1.39-.611 1.828-2.411 2.705-4.515 2.202zm-85.82-170.5c-1.307-1.946-4.646-6.724-7.421-10.616-7.145-10.023-9.57-14.344-11.067-19.722-1.554-5.582-.777-11.087 2.075-14.703 1.877-2.38 6.138-4.215 9.085-3.912 4.09.421 7.492 3.582 8.63 8.016.468 1.828 1.168 2.447 1.803 1.595.23-.309.417-.856.417-1.217 0-2.482 2.86-6.408 5.667-7.778 1.431-.699 1.812-.758 4.108-.643 3.01.15 4.641.786 6.567 2.557 2.932 2.697 4.747 7.39 4.408 11.398-.442 5.21-2.792 10.516-7.998 18.054-6.129 8.875-10.327 15.193-11.887 17.89-.834 1.441-1.628 2.62-1.764 2.62-.136 0-1.317-1.592-2.624-3.538zm-87.181-7.628c-.55-.928-2.148-3.573-3.552-5.877-3.614-5.93-4.002-6.863-4.029-9.69-.025-2.612.36-3.499 1.948-4.495.71-.445 1.284-.553 2.463-.466 1.779.131 2.448.653 3.042 2.374.573 1.663 1.503 1.748 1.927.178.728-2.697 3.933-3.455 6.202-1.468 1.762 1.543 2.025 4.456.72 7.958-.489 1.308-6.836 12.292-7.47 12.924-.143.143-.684-.48-1.251-1.437zM9.63 50.22c.346-4.568 1.86-6.992 7.309-11.706 5.614-4.856 6.515-6.045 6.515-8.596 0-1.618-.567-2.775-1.81-3.696-2.65-1.963-6.503-1.796-8.68.376-1.09 1.088-1.252 1.617-1.117 3.646.054.798-.044.92-.862 1.083-.508.102-1.054.185-1.213.185-.18 0-.242-.91-.163-2.406.2-3.794 1.591-5.446 5.407-6.419 2.465-.628 4.769-.353 7.1.847 3.628 1.868 5.24 6.373 3.489 9.75-.672 1.296-3.04 3.746-5.626 5.82-4.852 3.893-7.219 6.737-7.68 9.23-.184.985-.134 1.104.573 1.372 1.021.387 9.874.383 10.6-.01.458-.244.56-.614.56-2.022V45.95h2.336l-.082 3.105-.082 3.106-8.367.077-8.367.077.16-2.1z" fill="#cd0504"/><path d="M0 157.44V0h217.76v314.88H0V157.44zm213.2 155.91c1.776-1.22 2.856-2.598 3.527-4.498.4-1.133.446-16.895.446-151.25 0-136.41-.042-150.11-.461-151.33-.615-1.8-2.787-4.163-4.6-5.006l-1.454-.675H6.778l-1.504.748c-1.67.83-3.32 2.547-4.14 4.307-.522 1.122-.538 5.59-.538 151.95 0 146 .017 150.83.535 151.97 1.022 2.245 3.298 4.272 5.347 4.762.5.12 46.858.198 103.02.174l102.11-.044 1.6-1.099zm-19.752-24.795c-1.827-.302-1.8-.288-1.475-.814.174-.28 1.03-.438 2.808-.517 4.906-.218 7.045-1.722 6.906-4.857-.039-.865.042-1.573.18-1.573.137 0 .25.146.25.323 0 .18.254.256.578.171.652-.17.682-.069.586 1.962-.078 1.641-.478 2.558-1.608 3.685-.555.554-.976.738-1.429.625-.474-.119-.769.033-1.129.581-.442.673-.655.739-2.29.708-.992-.019-2.511-.15-3.377-.294zm-4-2c-.518-.483-1.15-1.283-1.406-1.775-.426-.822-.426-.917 0-1.155.68-.38.605-1.18-.09-.96-.781.247-.974-.235-.748-1.873.312-2.26 2.22-4.792 5.38-7.138.863-.642 1.886-1.509 2.274-1.927.576-.621.875-.729 1.632-.587 1.027.192 1.571-.267.816-.688-.422-.235-.377-.368.373-1.101a14.73 14.73 0 0 0 1.483-1.741c.348-.499.85-.889 1.116-.867.318.027.57-.282.735-.898.28-1.045.655-1.197 1.066-.43.367.685-.31 2.267-1.072 2.509-.319.1-.714.568-.879 1.038-.203.583-.493.855-.91.855-.336 0-.535.122-.443.272.093.149-.047.442-.31.65-.263.208-1.098.996-1.855 1.75-.774.772-1.645 1.372-1.99 1.372-.415 0-.612.183-.612.567 0 .36-.525.91-1.45 1.513-.798.521-1.53 1.209-1.626 1.528-.096.32-.448.878-.782 1.242-.527.574-.61 1.04-.63 3.539-.02 2.505.037 2.859.437 2.732.562-.178 2.465 1.69 2.185 2.143-.378.61-1.742.322-2.695-.57zm6.587-14.427c0-.16-.057-.29-.127-.29s-.209.13-.307.29c-.099.159-.041.289.128.289.168 0 .306-.13.306-.29zm-101.32 3.442c.777-.775.497-1.06-.44-.448-.913.597-1.272.592-2.5-.033-2.421-1.233-4.89-3.61-4.909-4.723-.004-.223-.26-.73-.572-1.127-.312-.397-.57-1.032-.573-1.41-.004-.38-.16-1.2-.347-1.825-.27-.897-.261-1.356.04-2.187.278-.768.292-1.08.051-1.16-.406-.136-.435-1.118-.04-1.362.16-.098.29-.618.29-1.156 0-.537.13-1.057.29-1.155.158-.098.289-.756.289-1.462 0-.947.113-1.282.434-1.282.244 0 .434-.258.434-.587 0-.99 1.168-4.11 1.995-5.333.431-.637.871-1.385.978-1.663.261-.68.667-.637 1.203.127.244.347.54.536.658.42.117-.118.054-.435-.14-.706-.586-.814-.711-1.195-.517-1.575.985-1.926 4.87-7.763 5.53-8.31.236-.195.428-.488.428-.65 0-.163.489-.89 1.086-1.615.597-.725 1.223-1.583 1.391-1.907.169-.324.527-.551.797-.504.343.059.491-.115.492-.578.002-.757.653-1.83 1.808-2.981.438-.437.796-1.022.796-1.301 0-.537.74-.972 1.185-.698.145.09.263-.16.263-.553 0-.394.228-1.12.507-1.614.386-.684.68-.879 1.23-.818.585.065.742.261.815 1.019.055.566.313 1.057.652 1.238.308.164.56.463.56.663s.719 1.204 1.597 2.23c.878 1.024 1.68 2.188 1.784 2.586.103.397.427.892.72 1.1.36.255.532.74.532 1.499 0 .617.13 1.202.29 1.3.16.098.29-.024.29-.271 0-.248.076-.45.17-.45.382 0 1.259 1.341 1.268 1.939.005.352.27.779.589.949.318.17.579.543.579.829 0 .286.39.867.868 1.292.478.425.865.934.86 1.131-.013.504-.714 1.37-1.109 1.37-.485 0-.402.777.105.971.293.112.434-.014.434-.392 0-.532 1.051-1.36 1.35-1.062.125.125.303.817.365 1.422.012.119.22.216.46.216.57 0 1.592 1.678 1.372 2.252-.115.298-.055.372.18.226.57-.35 1.235.438 1.184 1.4-.128 2.416-.005 3.055.59 3.055.688 0 .749-.367.145-.866-.526-.436-.576-1.445-.072-1.444.467 0 2.174 3.82 2.418 5.41.103.673.367 1.371.586 1.552.22.182.398.548.398.815 0 .266.104.608.23.759.434.515.909 2.295.922 3.452.04 3.517-.014 4.465-.332 5.777-.415 1.717-.719 2.187-1.273 1.975-.523-.2-.913.752-.43 1.05.753.464-2.762 4.63-3.905 4.63-.244 0-.764.21-1.156.466-.432.282-1.102.42-1.707.349-.582-.068-.924 0-.825.158.105.17-.528.202-1.658.084-1.345-.14-1.934-.34-2.227-.758-.3-.427-.607-.527-1.234-.402-.715.142-.848.069-.93-.515-.07-.494-.276-.675-.749-.658-.488.017-.651-.14-.651-.623 0-.49-.132-.612-.546-.504-.398.104-.672-.11-1.013-.793-.258-.515-.468-1.15-.468-1.412 0-.261-.109-.599-.241-.75-.132-.15-.479-1.087-.77-2.08-.29-.993-.684-1.805-.873-1.805-.585 0-1.264.973-1.772 2.541-.267.827-.597 1.503-.732 1.503s-.245.175-.245.389c0 1.291-1.804 3.591-3.698 4.716-1.225.727-2.338.805-3.614.252-.358-.155-.507-.089-.507.224 0 .244.228.502.507.575.279.073-.242.147-1.158.166l-1.665.034.603-.602zm4.609-1.42c0-.159-.358-.28-.796-.269-.706.018-.73.05-.217.269.79.339 1.013.339 1.013 0zm16.927.02c.092-.148.028-.355-.142-.459-.428-.264-1.225.082-1.005.437.226.365.926.379 1.147.022zm4.132-.484c-.102-.102-.416-.097-.697.01-.433.167-.446.236-.087.458.444.273 1.122-.13.784-.468zm-18.597-.692c.101-.163-.142-.288-.562-.288-.408 0-.741.13-.741.288 0 .16.253.29.562.29.309 0 .642-.13.74-.29zm13.175 0c0-.158-.196-.288-.435-.288-.238 0-.434.13-.434.288 0 .16.196.29.434.29.24 0 .435-.13.435-.29zm-11.438-4.044c0-.37-.163-.728-.362-.794-.239-.08-.362.19-.362.794 0 .604.123.874.362.795.199-.066.362-.424.362-.795zm1.526-2.546c.063-.188-.092-.343-.344-.343a.46.46 0 0 0-.458.458c0 .51.623.421.802-.115zm-13.86-14.1c-.007-.459-1.313-1.677-1.548-1.443-.298.298-.212.717.107.52.16-.099.356.024.435.272l.285.903c.157.497.729.297.721-.252zm3.44-8.253c-.063-.183-.264-.206-.504-.058-.22.136-.303.403-.185.594.254.41.854-.057.689-.537zm5.541-5.09c0-.238-.13-.433-.29-.433-.158 0-.289.195-.289.433s.13.433.29.433c.16 0 .29-.195.29-.433zm13.61.193c0-.377-.345-.627-.625-.454-.3.185-.041.694.352.694.15 0 .272-.108.272-.24zm-13.9-2.362c0-.622-.54-.481-1.112.291-.852 1.15-.785 1.309.244.578.477-.34.868-.73.868-.87zm8.108-6.353a.29.29 0 0 0-.579 0 .29.29 0 0 0 .58 0zm80.058 34.963c.095-.154-.093-.445-.417-.647-.512-.319-.59-.667-.59-2.604 0-2.107.039-2.246.682-2.407.375-.094 3.404-.129 6.732-.078 6.022.093 6.05.096 6.143.744.1.703.27.778.885.388.22-.138.31-.396.2-.573-.11-.177-.093-.323.036-.325.128 0 .527-.082.885-.178.635-.17.652-.115.652 2.044 0 1.997-.053 2.21-.535 2.128-.294-.05-.753.091-1.02.312-.687.569-.902.2-.478-.821.715-1.723.63-1.748-5.91-1.748-6.779 0-6.535-.096-6.535 2.581 0 1.133-.102 1.463-.452 1.463-.248 0-.373-.125-.278-.279zm-.139-1.904c0-.248-.132-.369-.294-.269-.162.1-.22.303-.128.45.248.401.422.326.422-.181zm1.572-9.015c-.171-.116-.396-.44-.499-.72-.103-.28-.343-.475-.531-.434-.19.041-.551-.28-.804-.715-.376-.646-.395-.897-.103-1.363.246-.393.274-.794.087-1.283-.397-1.043-.048-2.695.972-4.593a299.22 299.22 0 0 0 1.63-3.083c.912-1.76 1.673-2.613 2.162-2.426.207.08.588-.157.847-.525.419-.597.422-.704.029-.99-.391-.286-.384-.4.067-1.015.838-1.144 1.223-1.8 1.558-2.651.2-.507.496-.775.792-.718.473.09.514.196.582 1.5.027.522.168.661.563.558.406-.106.614.128.91 1.023.21.638.546 1.222.745 1.298.198.076.547.506.774.954.545 1.077 1.207 2.225 1.388 2.405.26.26 1.45 2.737 1.448 3.018 0 .15.34.762.755 1.36.62.892.782 1.52.906 3.5l.15 2.413-1.281 1.354c-1.168 1.234-1.402 1.354-2.623 1.354-1.101 0-1.447-.135-1.937-.757-.396-.503-.54-.986-.425-1.44.139-.552.023-.74-.606-.978-.428-.162-.72-.456-.649-.654.16-.445-.293-1.37-.671-1.37-.154 0-.28.309-.28.686 0 .378-.194.849-.432 1.046-.238.197-.584.86-.769 1.475-.448 1.492-1.228 2.21-1.846 1.698-.342-.284-.533-.293-.787-.04-.374.373-1.643.44-2.122.113zm.455-4.458c0-.467-.085-.55-.322-.315-.177.177-.235.463-.128.636.3.483.45.376.45-.321zm-.579-3.265c0-.238-.13-.433-.29-.433-.159 0-.29.195-.29.433 0 .239.131.434.29.434.16 0 .29-.195.29-.434zm4.923-2.761c0-.15-.13-.272-.29-.272-.16 0-.29.203-.29.45 0 .248.13.37.29.272.16-.098.29-.3.29-.45zm5.501-1.139c0-.317-.13-.577-.29-.577-.159 0-.289.26-.289.577 0 .318.13.578.29.578.159 0 .29-.26.29-.578zm-6.225-1.444c.098-.159.04-.289-.128-.289-.169 0-.307.13-.307.29 0 .158.058.288.128.288s.208-.13.307-.289zm1.34-4.122c-.482-.481-.755 0-.306.536.271.326.428.365.508.126.063-.19-.027-.488-.202-.662zm-89.02-151.06c-.589-.717-1.07-1.385-1.07-1.485 0-.1-.521-.866-1.157-1.703-.637-.838-1.158-1.8-1.159-2.137 0-.636-.65-1.386-.945-1.092-.092.092-.326-.129-.52-.49-.193-.36-.47-.794-.616-.963-.84-.974-3.132-4.329-3.132-4.583 0-.165-.222-.546-.493-.845-.272-.299-.5-.894-.507-1.322-.01-.617-.148-.775-.661-.757-.386.014-.716-.19-.816-.504a2.75 2.75 0 0 0-.51-.889c-1.316-1.392-1.94-2.553-1.76-3.27.16-.64.104-.743-.354-.65-.362.073-.736-.185-1.112-.766-.956-1.477-1.316-2.221-1.316-2.723 0-.264-.39-.822-.868-1.24-.478-.419-.869-1.025-.869-1.348 0-.322-.13-.667-.29-.765-.159-.098-.29-.677-.29-1.286 0-.738-.15-1.166-.452-1.281-.25-.095-.413-.409-.364-.697.049-.288-.163-.906-.47-1.374-.364-.554-.658-1.758-.841-3.45-.311-2.868-.124-4.501.597-5.221.386-.384.41-.577.126-1.03-.54-.861 1.185-4.144 2.67-5.081.617-.39 1.464-1.054 1.882-1.477 1.104-1.114 2.233-1.54 3.47-1.309.986.184 1.028.164.632-.313-.398-.48-.336-.5 1.014-.346 2.784.32 4.045.55 4.188.76.08.118.568.43 1.086.695.517.265.941.575.942.69 0 .116.364.634.809 1.153 1.098 1.282 1.894 2.668 1.532 2.668-.163 0-.218.206-.121.457.142.369.224.383.42.072.33-.518.318-.155-.024.741-.314.825.163 1.39.604.716.17-.26.234.05.185.894l-.076 1.293 1.303-.023 1.303-.023.168-1.27c.325-2.461.82-3.707 1.543-3.888.534-.134 1.508-1.425 1.35-1.79-.17-.392 1.026-1.769 1.908-2.195a88.315 88.315 0 0 0 1.653-.818c.361-.188.644-.177.854.032.376.375 1.422.41 1.804.06.492-.448 4.755.609 5.334 1.323.284.351.594.56.689.466.095-.095.297.155.45.556.152.4.677 1.012 1.166 1.36.49.347.889.801.889 1.01 0 .207.193.537.428.732.772.639 1.31 2.09 1.31 3.533 0 .802.116 1.345.27 1.25.394-.243.48 1.087.259 4.033-.224 2.992-.637 4.584-1.378 5.324-.287.286-.613 1.123-.723 1.86-.11.735-.298 1.338-.415 1.338-.118 0-.379.455-.58 1.01-.202.557-.489 1.012-.638 1.012-.148 0-.27.194-.27.43 0 .238-.261.594-.58.792-.318.199-.579.63-.579.96 0 .328-.244.86-.543 1.18-.3.32-.63.85-.734 1.179-.104.328-.459.666-.788.752-.352.092-.515.291-.396.484.195.315-1.76 3.44-2.716 4.341-.258.243-.715.893-1.016 1.445-.3.551-1.024 1.588-1.607 2.303-.584.715-1.358 1.787-1.721 2.383-.363.596-.78 1.083-.926 1.083-.147 0-.266.322-.266.716 0 .435-.27.892-.69 1.166-.38.248-.768.84-.863 1.316-.096.475-.502 1.167-.903 1.538s-.73.875-.73 1.12c0 .303-.185.397-.579.294-.645-.168-.848.64-.217.864.255.091.18.332-.253.819-.338.379-.67.872-.739 1.096-.082.268-.49-.037-1.195-.896zm.088-3.428c0-.15-.13-.272-.29-.272-.16 0-.29.203-.29.45 0 .248.13.37.29.272.16-.098.29-.3.29-.45zm3.764-1.498c0-.161-.192-.13-.434.071-.24.198-.435.49-.435.648 0 .162.192.13.435-.07.239-.198.434-.49.434-.649zm-4.922-1.501c0-.07-.13-.208-.29-.306-.16-.098-.29-.04-.29.127 0 .169.13.306.29.306.16 0 .29-.057.29-.127zm6.949-3.755c0-.23-.13-.497-.29-.595-.159-.098-.29.089-.29.416 0 .327.131.595.29.595.16 0 .29-.187.29-.416zm-11.93-.8c.055-.281-.184-.496-.652-.585-.846-.162-.866-.129-.378.65.402.643.899.612 1.03-.064zm13.088-.95c0-.239-.123-.434-.272-.434-.366 0-.627.451-.396.682.326.325.668.198.668-.249zm6.475-7.223c.092-.238.055-.433-.083-.433-.137 0-.324.195-.416.433-.092.239-.054.434.083.434s.324-.195.416-.434zm-9.081-22.515c0-.07-.13-.207-.29-.306-.159-.098-.29-.04-.29.128s.131.306.29.306c.16 0 .29-.057.29-.128zm-.447-2.452c.092-.148.034-.35-.127-.45-.162-.1-.295.02-.295.268 0 .508.174.583.422.182zm-19.368-.63c.173-.278-.32-.826-.744-.826-.08 0-.324.114-.543.252-.512.324-.165.895.543.895.3 0 .635-.145.744-.321zm31.976-.257c0-.159-.195-.289-.434-.289s-.434.13-.434.29c0 .158.195.288.434.288s.434-.13.434-.289zm-.998-2.336c.299-.482-.372-1.034-.772-.635-.334.333-.125.95.322.95.141 0 .343-.142.45-.315zm-104.2 37.812c-.444-.684-.75-1.467-.68-1.74.07-.272-.002-.467-.16-.433-.158.034-.438-.19-.622-.5a9.177 9.177 0 0 0-.819-1.113c-.266-.303-.65-.96-.852-1.46-.203-.5-.444-.974-.536-1.053-.395-.34-2.173-3.251-2.646-4.333a60.293 60.293 0 0 0-.794-1.71c-.589-1.216-.636-4.413-.086-5.718.266-.63.805-1.127 1.678-1.549 1.215-.586 1.317-.594 1.83-.13.326.294.77.421 1.105.315.984-.311 1.533.106 1.445 1.098-.045.498.029.929.163.958.134.03.4.268.593.53.225.307.656.443 1.204.38.71-.08.87-.242.942-.963.047-.477.333-1.192.635-1.589.44-.578.622-.65.913-.36.2.198.793.36 1.318.36.526 0 .956.13.956.29 0 .158.195.288.434.288.24 0 .435-.13.435-.289 0-.159-.167-.289-.37-.289-.204 0-.594-.26-.866-.577-.478-.557-.468-.578.256-.578.919 0 2.448 1.234 2.922 2.358.206.488.317 1.815.27 3.222-.068 2.018-.23 2.697-1.03 4.335-.52 1.068-1.098 2.105-1.282 2.304-.184.199-.646.976-1.026 1.726-.381.751-.804 1.365-.94 1.365-.136 0-.525.59-.865 1.31-.339.72-.856 1.436-1.148 1.592-.528.282-1.3 1.681-1.476 2.675-.069.391-.294.211-.9-.722zm3.56-5.866c0-.496-.482-.816-.87-.577-.192.119-.187.37.015.747.324.604.855.498.855-.17zm-7.239-2.022c0-.238-.13-.433-.29-.433-.159 0-.29.195-.29.433s.131.433.29.433c.16 0 .29-.195.29-.433zm1.158-8.924c0-.062-.202-.191-.45-.286-.257-.099-.373-.05-.272.114.17.274.722.406.722.172zm8.82-.156c.214-.345-.331-.688-.717-.45-.324.2-.111.72.294.72.14 0 .33-.122.422-.27zM9.823 50.318c0-1.112.1-1.554.322-1.417.514.316.827-.48.832-2.112.004-1.199.125-1.59.584-1.875.318-.199.579-.535.579-.749 0-.365 1.857-2.858 2.443-3.28.15-.106.533-.011.853.212.506.353.65.343 1.116-.078.501-.453.523-.452.347.01-.168.437-.304.513-.86.48-.087-.01-.49.385-.895.866-.407.482-1.002.876-1.324.876-.476 0-.552.132-.406.709.13.52-.005.884-.512 1.372-.527.507-.732 1.091-.867 2.478-.171 1.75-.152 1.823.562 2.094.406.154 3.05.28 5.874.28 3.608 0 5.239.103 5.483.347.389.388.395.367.528-1.647.178-2.706.19-2.744.895-2.744.64 0 .662.086.662 2.568v2.569l-1.086.214c-.597.117-4.246.266-8.108.33l-7.022.116v-1.615zm2.261.13c-.057-.171-.227-.31-.378-.31-.152 0-.322.139-.38.31-.056.17.114.31.38.31.265 0 .435-.14.378-.31zm4.255-10.35l-.87-.19.865-.57c.475-.312 1.226-.976 1.667-1.475.441-.498 1.258-1.122 1.814-1.385.556-.264 1.012-.636 1.012-.828 0-.191.38-.705.843-1.142 1.804-1.699 2.447-4.179 1.715-6.615-.3-.998-.275-1.17.217-1.54.746-.562 1.115-.404 1.225.523.05.425.23.772.4.772.202 0 .24.503.112 1.471-.126.946-.08 1.611.131 1.864.406.488.093 1.576-.454 1.576-.223 0-.534.242-.693.538-.159.295-.75.998-1.315 1.561-.565.564-1.103 1.394-1.196 1.846-.21 1.017-2.234 2.716-2.382 1.999-.051-.25-.28-.455-.507-.455-.508 0-.549.762-.05.968.248.103.147.337-.322.747-.72.627-.823.643-2.212.336zm7.673-5.626c0-.06.228-.287.507-.505.459-.36.47-.35.109.109-.378.481-.616.634-.616.396zM9.969 30.826c.098-.159.367-.289.596-.289.23 0 .417.13.417.289 0 .159-.268.289-.596.289-.328 0-.516-.13-.417-.289zm-.145-2.015c0-1.669.603-3.046 1.111-2.539.256.256.42.253.684-.01.27-.27.27-.424 0-.694-.469-.468-.44-1.098.051-1.098.645 0 .816 1.655.278 2.693-.261.505-.655 1.05-.874 1.21-.22.16-.362.6-.318.976.056.469-.079.711-.425.767-.424.068-.507-.147-.507-1.305zm15.95.691c.013-.337.082-.405.174-.175.084.209.073.458-.023.554-.096.096-.164-.075-.152-.379zm-4.584-3.94c-.88-.423-.829-.91.072-.684.807.202.953-.147.292-.694-.263-.218-.8-.288-1.375-.18-.52.098-1.986.313-3.26.479-1.274.165-2.61.447-2.968.626-.82.41-1.173.087-.71-.651.298-.477.276-.565-.14-.565-.43 0-.422-.052.07-.424.31-.233.978-.428 1.487-.433.508-.01 1.006-.143 1.107-.306.19-.307 2.893-.205 4.194.159 1.192.333 3.114 1.293 3.487 1.74.285.343.242.42-.235.42-.321 0-.659.194-.75.433-.193.5-.375.512-1.271.08z" fill="#d40000"/><path d="M0 157.44V0h217.76v314.88H0V157.44zm213.2 155.91c1.776-1.22 2.856-2.598 3.527-4.498.4-1.133.446-16.895.446-151.25 0-136.41-.042-150.11-.461-151.33-.615-1.8-2.787-4.163-4.6-5.006l-1.454-.675H6.778l-1.504.748c-1.67.83-3.32 2.547-4.14 4.307-.522 1.122-.538 5.59-.538 151.95 0 146 .017 150.83.535 151.97 1.022 2.245 3.298 4.272 5.347 4.762.5.12 46.858.198 103.02.174l102.11-.044 1.6-1.099z" fill="#030303"/></svg>