<svg xmlns="http://www.w3.org/2000/svg" height="335.872" width="232.267" viewBox="0 0 217.75 314.88"><path d="M0 157.44V0h217.75v314.88H0V157.44z" fill="#fdfdfd"/><path d="M0 157.44V0h217.75v314.88H0V157.44zm211.88 155.77c1.56-.831 3.003-2.271 3.718-3.71.552-1.11.562-3.422.634-151.58l.073-150.45-.611-1.416c-.342-.794-1.221-1.987-1.997-2.71-2.59-2.418 7.891-2.207-105.55-2.124l-101.05.074-1.483.78c-1.61.847-2.677 1.954-3.671 3.808l-.638 1.19-.073 149.92c-.067 135.52-.03 150.07.38 151.48.572 1.958 2.835 4.345 4.769 5.027 1.172.414 10.9.452 102.79.407l101.49-.05 1.222-.652zM3.66 299.073c-.326-.325-.199-.666.25-.666.238 0 .434.122.434.272 0 .364-.453.625-.684.394zm192.02-8.682l-8.32-.081-.182-.72c-.3-1.195.129-2.588 1.073-3.482.954-.902 4.601-5.176 4.601-5.391 0-.071-.553-.291-1.23-.49-4.174-1.221-6.594-4.78-6.583-9.677.01-3.927 1.187-6.958 3.461-8.9 3.89-3.322 9.358-3.745 13.448-1.042 1.464.967 4.212 4.359 4.22 5.207.01.576-1.952 2.26-2.627 2.26-.26 0-.98-.677-1.6-1.504-2.221-2.966-4.905-4.003-8.072-3.119-3.76 1.05-5.878 6.535-3.9 10.101 1.008 1.818 3.295 3.014 5.37 2.808.81-.08 1.98-.418 2.601-.75.621-.331 1.415-.603 1.765-.603.684 0 1.834 1.35 1.834 2.154 0 .425-1.308 2.005-5.84 7.06-.77.858-1.4 1.67-1.4 1.806 0 .135 1.564.246 3.476.246h3.474V284.6c0-.922.157-1.832.348-2.023.19-.19 1.106-.346 2.034-.346 2.105 0 2.222.23 2.205 4.336-.01 2.497-.096 3.027-.562 3.493-.302.301-.713.518-.912.48-.199-.036-4.106-.104-8.682-.148zm-99.975-13.936c-6.774-1.465-10.279-6.245-10.279-14.018 0-6.566 2.557-12.477 9.868-22.816 4.719-6.673 8.865-12.624 10.816-15.527 1.063-1.581 1.89-2.528 2.21-2.528.33 0 .893.689 1.594 1.95 1.84 3.308 4.895 8 10.135 15.56 2.766 3.99 5.596 8.215 6.288 9.388 2.82 4.777 4.544 10.136 4.548 14.133.01 5.667-2.964 10.83-7.52 13.075-1.732.854-2.096.925-4.777.925-2.517 0-3.095-.096-4.35-.723-2.554-1.273-5.13-4.408-5.756-7.005-.105-.437-.288-.794-.405-.794-.117 0-.527.812-.911 1.805-.94 2.43-3.85 5.401-5.959 6.083-1.888.61-4.056.804-5.502.492zm104.49-19.932c-1.19-.268-2.627-1.305-2.871-2.07-.178-.56-.28-.51-1.286.657l-1.093 1.266h-2.33c-2.743 0-3.572-.442-4.635-2.472-.938-1.792-.797-5.154.318-7.582.923-2.01 8.253-14.282 8.691-14.552.4-.247.484-.122 4.622 6.84 1.936 3.258 3.816 6.768 4.177 7.8.885 2.53.912 5.678.065 7.424-.95 1.956-3.51 3.173-5.658 2.69zm-93.546-75.135c-2.489-3.663-7.626-10.998-10.858-15.503-7.782-10.846-10.626-17.62-10.304-24.537.278-5.967 3.1-10.437 7.755-12.284 2.39-.949 6.552-.925 8.542.048 2.593 1.267 4.986 4.178 6.069 7.38.153.454.39.113 1.1-1.588 1.061-2.545 3.277-4.963 5.572-6.083 1.193-.582 1.88-.705 3.909-.701 3.232.01 5.54.845 7.671 2.788 5.853 5.337 6.352 13.749 1.393 23.495-1.07 2.102-3.625 6.002-8.61 13.144-3.59 5.141-6.586 9.754-8.446 12.999-1.343 2.343-1.748 2.874-2.2 2.884-.11 0-.827-.917-1.592-2.043zm-.492-93.5c-.94-1.39-3.61-5.227-5.936-8.528-9.698-13.763-11.74-17.164-13.653-22.742-.796-2.32-.962-3.28-1.079-6.21-.215-5.414.946-8.94 3.842-11.674 4.773-4.503 11.29-4.577 15.463-.175 1.363 1.438 2.915 4.087 2.922 4.987 0 .199.133.362.293.362.159 0 .29-.178.29-.395 0-.924 2.12-4.529 3.303-5.617 2.473-2.274 4.938-3.054 8.313-2.631 2.677.335 4.778 1.383 6.752 3.368 5.244 5.273 5.568 13.333.91 22.563-.995 1.97-4.776 7.739-10.35 15.788-3.387 4.892-5.768 8.62-7.336 11.483-.655 1.198-1.252 1.95-1.547 1.95-.28-.001-1.193-1.056-2.188-2.528zM19.7 80.234c-.69-.815-7.673-12.612-8.337-14.083-.516-1.146-.754-2.275-.852-4.045-.122-2.194-.062-2.593.563-3.755.89-1.653 2.46-2.589 4.358-2.595 1.78-.01 3.213.6 3.862 1.632.282.45.548.867.59.927.04.06.422-.302.845-.805 1.012-1.2 2.146-1.759 3.564-1.759 1.54 0 2.591.428 3.72 1.514 1.166 1.122 1.598 2.392 1.598 4.7 0 2.697-.957 5.109-4.102 10.338-1.548 2.574-3.127 5.265-3.51 5.98-1.196 2.238-1.696 2.662-2.3 1.95zm-2.368-27.76c-3.473-1.283-7.744-5.615-6.944-7.043.287-.51 2.112-1.813 2.54-1.813.2 0 .968.748 1.707 1.661 1.835 2.269 3.554 3.245 5.719 3.248 2.782 0 4.753-1.181 5.954-3.58 1.815-3.627.736-7.74-2.404-9.163-1.694-.768-3.199-.679-5.3.313-.998.471-1.982.792-2.187.713-.471-.18-1.357-1.654-1.357-2.257 0-.25 1.653-2.375 3.672-4.722l3.672-4.267-3.292-.082c-1.81-.045-3.463-.017-3.672.063-.254.097-.38.711-.38 1.856 0 1.916-.147 2.062-2.07 2.062-2.2 0-2.273-.133-2.273-4.188 0-3.255.052-3.619.56-3.89.84-.448 17.172-.404 17.624.048.191.19.347.92.347 1.623 0 1.167-.168 1.464-1.965 3.48-3.556 3.99-4.013 4.66-3.174 4.661.199 0 1.145.37 2.102.822 3.907 1.844 5.674 5.688 5.065 11.02-.349 3.047-1.176 4.861-2.998 6.577-2.31 2.176-4.44 3.087-7.427 3.176-1.532.046-2.86-.074-3.52-.318z" fill="#f1d0cf"/><path d="M0 157.44V0h217.75v314.88H0V157.44zm211.88 155.77c1.56-.831 3.003-2.271 3.718-3.71.552-1.11.562-3.422.634-151.58l.073-150.45-.611-1.416c-.342-.794-1.221-1.987-1.997-2.71-2.59-2.418 7.891-2.207-105.55-2.124l-101.05.074-1.483.78c-1.61.847-2.677 1.954-3.671 3.808l-.638 1.19-.073 149.92c-.067 135.52-.03 150.07.38 151.48.572 1.958 2.835 4.345 4.769 5.027 1.172.414 10.9.452 102.79.407l101.49-.05 1.222-.652zM3.66 299.073c-.326-.325-.199-.666.25-.666.238 0 .434.122.434.272 0 .364-.453.625-.684.394zm184.19-9.067c-.349-.202-.507-.654-.507-1.447 0-1.015.217-1.383 1.814-3.09 2.669-2.853 4.05-4.622 3.854-4.938-.095-.153-.595-.37-1.11-.48-2.186-.47-4.46-2.313-5.666-4.591-.72-1.36-.774-1.718-.774-5.074 0-3.313.064-3.747.777-5.263.959-2.042 2.915-3.98 5.096-5.048 1.496-.733 1.949-.81 4.696-.81 2.622 0 3.214.095 4.3.671 2.24 1.19 5.545 4.717 5.545 5.918 0 .419-1.759 1.932-2.245 1.932-.142 0-1.021-.862-1.954-1.915-1.98-2.236-3.39-2.982-5.646-2.987-2.941-.01-5.34 1.616-6.506 4.403-.696 1.662-.583 5.003.217 6.412 1.524 2.685 5.148 3.727 7.908 2.275 1.892-.997 2.13-1.013 2.884-.2.39.42.71.998.71 1.286 0 .288-1.693 2.442-3.76 4.787-2.069 2.344-3.654 4.369-3.524 4.499.13.13 1.855.199 3.832.154l3.596-.082.145-1.878.145-1.877 1.543-.088c2.255-.13 2.366.044 2.366 3.713 0 2.453-.098 3.22-.455 3.576-.393.392-1.575.453-8.615.445-5.001-.01-8.355-.123-8.666-.303zm-92.674-13.87c-1.673-.392-3.997-1.573-5.318-2.701-2.804-2.395-4.15-5.947-4.15-10.953 0-6.873 2.58-12.67 10.71-24.06 2.058-2.882 5.478-7.756 7.601-10.83s4.051-5.622 4.285-5.664c.268-.048.904.802 1.727 2.308 1.236 2.26 6.094 9.608 12.977 19.625 5.116 7.446 7.232 12.422 7.51 17.67.179 3.353-.187 5.339-1.465 7.96-1.27 2.604-3.307 4.723-5.645 5.872-1.672.821-2.276.958-4.606 1.045-2.331.087-2.863.013-4.062-.564-2.836-1.366-5.144-4.148-6.151-7.415-.31-1.005-.578-1.484-.682-1.22-.095.238-.44 1.148-.766 2.022-1.937 5.189-6.951 8.082-11.965 6.905zm96.038-19.885c-2.546-.623-3.72-2.663-3.531-6.14.145-2.683.654-3.789 5.39-11.697 3.605-6.02 4.35-6.896 4.822-5.67.103.269 1.756 3.13 3.674 6.36 1.917 3.229 3.758 6.616 4.09 7.527.773 2.113.843 5.576.14 6.894-1.114 2.09-3.597 3.275-5.688 2.713-1.062-.285-2.922-1.95-2.922-2.617 0-.566-.447-.239-.885.648-.837 1.694-2.933 2.51-5.09 1.982zm-83.08-73.322c-.167-.12-1.68-2.232-3.36-4.694a771.705 771.705 0 0 0-7.432-10.61c-8.818-12.358-11.28-17.542-11.562-24.351-.22-5.289.828-8.422 3.823-11.428 1.27-1.276 2.229-1.944 3.489-2.432 2.08-.805 5.503-1.083 7.207-.584 3.13.916 5.946 3.846 7.154 7.446l.654 1.95.48-1.589c1.457-4.818 4.93-8.03 9.003-8.323 5.572-.402 10.247 3.008 12.362 9.016.59 1.675.72 2.582.71 4.94-.022 5.906-2.422 11.335-9.509 21.521-5.621 8.08-7.848 11.44-10.15 15.31-2.235 3.76-2.49 4.1-2.869 3.829zm-3.93-98.347c-2.118-3.067-5.45-7.818-7.406-10.558-5.88-8.238-8.247-12.383-9.991-17.494-.764-2.237-.927-3.208-1.036-6.15-.15-4.038.151-5.807 1.43-8.4 2.548-5.161 9.264-7.83 14.212-5.647 2.546 1.124 4.827 3.737 5.863 6.717.246.71.523 1.486.615 1.724.098.254.409-.345.752-1.444 2.142-6.874 8.506-9.772 14.867-6.77 2.87 1.355 5.93 5.466 6.767 9.089.483 2.088.363 5.97-.26 8.437-1.2 4.75-3.22 8.6-8.453 16.11-5.496 7.89-9.057 13.258-11.004 16.588-1.014 1.735-1.993 3.205-2.175 3.265-.181.06-2.063-2.4-4.18-5.466zm-88.27-10.976c-2.303-3.838-4.433-7.703-4.733-8.588-.74-2.19-.607-5.693.263-6.863 1.078-1.452 2.357-2.114 4.083-2.114 1.947 0 2.997.524 3.715 1.855.307.568.626 1.033.71 1.032.083-.001.371-.389.64-.861.692-1.212 2.162-2.024 3.666-2.025 3.649 0 5.707 3.127 4.96 7.545-.404 2.388-1.25 4.189-4.396 9.353-1.355 2.224-2.898 4.857-3.43 5.85-.531.993-1.038 1.803-1.127 1.8-.09 0-2.047-3.145-4.35-6.984zm1.148-21.499c-1.483-.531-2.617-1.252-3.997-2.54-1.264-1.179-2.714-3.457-2.519-3.96.176-.452 1.908-1.699 2.362-1.699.163 0 .89.761 1.613 1.691 2.984 3.833 7.52 4.329 10.7 1.17 2.857-2.84 3.046-7.357.417-9.98-2.052-2.047-4.495-2.303-7.5-.783l-1.481.749-.666-.773c-.367-.425-.666-1.018-.666-1.318 0-.3 1.628-2.433 3.62-4.738 1.99-2.305 3.619-4.327 3.619-4.493 0-.194-1.342-.302-3.765-.302h-3.764v1.534c0 2.171-.374 2.566-2.325 2.456l-1.584-.09-.082-3.589c-.06-2.676.013-3.647.29-3.823.426-.27 16.449-.334 17.142-.069.323.124.458.556.458 1.465 0 1.2-.155 1.461-2.25 3.796-2.928 3.266-3.702 4.353-3.2 4.5 3.275.953 5.164 2.258 6.37 4.4 1.175 2.089 1.533 4.423 1.134 7.394-.563 4.18-2.364 6.71-6.073 8.527-2.042 1-5.76 1.225-7.853.474z" fill="#d6d6d6"/><path d="M0 157.44V0h217.75v314.88H0V157.44zm209.57 156.89c.277-.145 1.09-.469 1.81-.72 1.793-.627 3.186-1.846 4.204-3.68l.86-1.548V6.802l-.654-1.22c-.886-1.654-2.471-3.18-4.087-3.932l-1.34-.625H7.382l-1.646.806c-1.864.913-3.224 2.313-4.115 4.235l-.61 1.314v300.44l.69 1.525c.91 2.007 3.038 3.908 5.187 4.634 1.618.546 3.667.558 101.92.594 59.857.022 100.47-.07 100.77-.227zm-21.721-24.314c-.349-.203-.507-.654-.507-1.447 0-1.015.216-1.384 1.814-3.091 2.669-2.853 4.05-4.622 3.854-4.937-.095-.154-.595-.37-1.11-.48-2.186-.47-4.46-2.314-5.666-4.592-.72-1.36-.774-1.717-.774-5.073 0-3.314.064-3.748.777-5.264.959-2.041 2.915-3.978 5.096-5.047 1.496-.733 1.949-.811 4.696-.81 2.622 0 3.214.094 4.3.67 2.24 1.191 5.545 4.718 5.545 5.919 0 .418-1.759 1.932-2.245 1.932-.142 0-1.021-.862-1.954-1.915-1.98-2.237-3.39-2.982-5.646-2.987-2.941-.01-5.34 1.616-6.506 4.402-.696 1.662-.583 5.004.217 6.413 1.524 2.685 5.148 3.727 7.908 2.274 1.892-.996 2.13-1.013 2.884-.2.39.42.71.999.71 1.287 0 .288-1.693 2.442-3.76 4.786-2.069 2.345-3.654 4.37-3.524 4.5.13.129 1.855.199 3.832.154l3.596-.082.145-1.878.145-1.878 1.543-.088c2.255-.128 2.366.044 2.366 3.714 0 2.453-.098 3.219-.455 3.576-.393.391-1.575.452-8.615.445-5.001-.01-8.355-.123-8.666-.303zm-92.674-13.87c-1.673-.393-3.997-1.573-5.318-2.701-2.804-2.395-4.15-5.948-4.15-10.953 0-6.873 2.58-12.67 10.71-24.06 2.058-2.883 5.478-7.757 7.601-10.83 2.123-3.074 4.051-5.623 4.285-5.664.268-.048.904.802 1.727 2.308 1.236 2.26 6.094 9.607 12.977 19.625 5.116 7.446 7.232 12.422 7.51 17.67.179 3.352-.187 5.339-1.465 7.96-1.27 2.603-3.307 4.722-5.645 5.871-1.672.822-2.276.96-4.606 1.046-2.331.087-2.863.013-4.062-.564-2.836-1.366-5.144-4.148-6.151-7.415-.31-1.005-.578-1.484-.682-1.22-.095.238-.44 1.148-.766 2.022-1.937 5.188-6.951 8.082-11.965 6.905zm96.038-19.885c-2.546-.623-3.72-2.663-3.531-6.14.145-2.683.654-3.79 5.39-11.698 3.605-6.02 4.35-6.896 4.821-5.67.104.27 1.757 3.132 3.675 6.36 1.917 3.23 3.758 6.617 4.09 7.528.773 2.113.843 5.576.14 6.893-1.114 2.091-3.597 3.276-5.688 2.714-1.062-.285-2.922-1.95-2.922-2.617 0-.567-.447-.24-.885.648-.837 1.694-2.933 2.51-5.09 1.982zm-83.08-73.322c-.167-.12-1.68-2.232-3.36-4.695a771.705 771.705 0 0 0-7.432-10.609c-8.818-12.359-11.28-17.543-11.562-24.352-.22-5.288.828-8.421 3.823-11.428 1.27-1.275 2.229-1.943 3.489-2.431 2.08-.805 5.503-1.083 7.207-.584 3.13.916 5.946 3.846 7.154 7.445l.654 1.95.48-1.588c1.457-4.818 4.93-8.03 9.003-8.324 5.572-.402 10.247 3.008 12.362 9.017.59 1.674.72 2.582.71 4.94-.022 5.905-2.422 11.335-9.509 21.521-5.621 8.08-7.848 11.439-10.15 15.31-2.235 3.76-2.49 4.099-2.869 3.828zm-3.93-98.347c-2.118-3.067-5.45-7.818-7.406-10.558-5.88-8.238-8.247-12.383-9.991-17.494-.764-2.237-.927-3.208-1.036-6.151-.15-4.037.151-5.806 1.43-8.4 2.548-5.16 9.264-7.83 14.212-5.646 2.546 1.124 4.827 3.737 5.863 6.717.246.71.523 1.486.615 1.724.098.254.409-.346.751-1.444 2.143-6.875 8.507-9.772 14.867-6.77 2.87 1.354 5.931 5.465 6.768 9.089.482 2.088.362 5.97-.26 8.437-1.2 4.75-3.22 8.6-8.453 16.11-5.496 7.89-9.057 13.258-11.004 16.588-1.014 1.735-1.993 3.205-2.175 3.265-.181.06-2.063-2.4-4.18-5.467zm-84.609-4.909c-3.651-5.813-8.128-13.678-8.487-14.91-.634-2.176-.452-5.521.36-6.614 1.073-1.447 2.355-2.11 4.079-2.11 1.947 0 2.997.525 3.715 1.856.307.569.626 1.033.71 1.032.082-.001.37-.389.64-.86.691-1.213 2.161-2.025 3.665-2.026 3.639 0 5.742 3.196 4.965 7.553-.43 2.419-1.204 4.059-4.459 9.46-1.494 2.479-3.03 5.083-3.412 5.788-.837 1.537-1.22 1.717-1.776.831zm-2.513-27.567c-1.483-.531-2.618-1.252-3.998-2.54-1.264-1.178-2.713-3.457-2.518-3.96.175-.452 1.908-1.699 2.361-1.699.164 0 .89.761 1.614 1.691 2.984 3.833 7.519 4.329 10.7 1.17 2.857-2.84 3.046-7.357.417-9.98-2.052-2.047-4.495-2.302-7.5-.783l-1.481.749-.666-.773c-.367-.425-.666-1.018-.666-1.318 0-.3 1.628-2.432 3.619-4.738 1.99-2.305 3.62-4.327 3.62-4.493 0-.194-1.342-.302-3.765-.302h-3.764v1.534c0 2.171-.374 2.566-2.325 2.456l-1.584-.09-.082-3.588c-.06-2.677.013-3.648.29-3.824.426-.27 16.449-.334 17.142-.069.323.124.458.556.458 1.465 0 1.2-.155 1.461-2.25 3.796-2.928 3.266-3.702 4.353-3.2 4.5 3.275.953 5.164 2.259 6.37 4.4 1.175 2.09 1.533 4.423 1.134 7.394-.563 4.18-2.364 6.71-6.073 8.527-2.042 1-5.76 1.225-7.853.474z" fill="#eab0b0"/><path d="M0 157.44V0h217.75v314.88H0V157.44zm209.57 156.89c.277-.145 1.09-.469 1.81-.72 1.793-.627 3.186-1.846 4.204-3.68l.86-1.548V6.802l-.654-1.22c-.886-1.654-2.471-3.18-4.087-3.932l-1.34-.625H7.382l-1.646.806c-1.864.913-3.224 2.313-4.115 4.235l-.61 1.314v300.44l.69 1.525c.91 2.007 3.038 3.908 5.187 4.634 1.618.546 3.667.558 101.92.594 59.857.022 100.47-.07 100.77-.227zm-21.741-24.48c-.108-.108-.197-.705-.197-1.326 0-.992.244-1.397 2.016-3.346 1.109-1.22 2.422-2.768 2.918-3.44l.901-1.225-.673-.265c-.37-.146-1.285-.48-2.033-.743-1.762-.621-3.57-2.392-4.533-4.443-.678-1.441-.765-1.974-.746-4.523.025-3.39.37-4.785 1.647-6.681 3.274-4.86 9.95-6.106 14.815-2.766 1.3.893 3.64 3.908 3.64 4.692 0 .602-1.298 1.723-1.993 1.72-.258 0-1.013-.704-1.679-1.564-1.746-2.256-3.463-3.18-5.867-3.158-4.089.037-6.83 2.774-7.183 7.172-.42 5.213 4.232 8.272 9.198 6.049l1.81-.81.685.794c.377.437.686.916.686 1.064 0 .147-1.727 2.232-3.837 4.632-2.11 2.4-3.88 4.482-3.933 4.627-.055.149 1.66.262 3.981.262h4.078v-1.568c0-1.886.473-2.478 1.975-2.472 1.776.01 1.818.101 1.727 3.918l-.082 3.444-8.562.076c-4.71.042-8.65-.012-8.76-.12zm-72.054-13.772c-3.899-1.461-6.388-4.448-7.327-8.791-.242-1.12-.613-.999-.895.294-1.051 4.807-5.325 8.59-9.705 8.591-7.602 0-12.515-5.95-12.046-14.588.345-6.375 2.904-11.967 10.175-22.244a1109.63 1109.63 0 0 0 7.882-11.323c2.2-3.209 4.194-5.84 4.433-5.845.25-.01.987.994 1.737 2.358 1.351 2.456 6.387 10.068 12.283 18.566 8.041 11.59 10.011 19.408 6.631 26.323-1.159 2.37-3.533 4.825-5.693 5.886-2.162 1.06-5.725 1.43-7.475.773zm74.752-20.147c-2.924-1.226-3.703-5.559-1.748-9.725 1.1-2.347 8.115-13.943 8.434-13.943.134 0 .394.293.578.65.185.358 1.902 3.298 3.816 6.534 1.914 3.236 3.722 6.66 4.018 7.609 1.22 3.91.416 7.206-2.083 8.542-2.285 1.22-5.197.422-6.063-1.661-.453-1.093-.707-1.1-1.15-.036-.631 1.522-1.586 2.15-3.417 2.246-.914.048-1.987-.049-2.385-.216zm-86.139-78.477a892.464 892.464 0 0 0-7.549-10.772c-4.345-6.085-5.751-8.301-7.592-11.963-3.82-7.598-4.495-14.134-2-19.357 3.212-6.72 11.593-8.918 16.643-4.367 1.529 1.378 2.893 3.524 3.514 5.525.273.88.609 1.6.746 1.6.137-.001.422-.677.634-1.502.837-3.264 3.143-6.103 6.074-7.477 2.529-1.186 6.889-.732 9.645 1.003 2.467 1.554 4.74 4.941 5.647 8.417 1.481 5.673-.843 13.097-6.835 21.835l-6.336 9.244c-1.99 2.905-4.674 7.03-5.964 9.167-1.29 2.137-2.47 3.926-2.623 3.977-.152.051-1.954-2.347-4.005-5.33zm2.951-88.546c-.38-.516-1.841-2.629-3.247-4.694-1.405-2.066-4.427-6.383-6.714-9.595-6.118-8.589-8.666-12.935-10.211-17.415-2.585-7.495-1.652-14.306 2.496-18.22 6.205-5.854 15.342-3.452 17.658 4.643.25.874.555 1.697.678 1.829.122.132.387-.453.587-1.3 1.166-4.937 4.722-8.273 9.12-8.555 6.24-.4 11.105 3.873 12.594 11.06 1.109 5.351-1.482 12.76-7.525 21.52-6.254 9.068-11.509 17.011-12.749 19.274-.715 1.306-1.457 2.379-1.648 2.384-.191 0-.659-.414-1.04-.93zm-87.762-9.533c-2.53-3.997-7.653-12.81-8.101-13.938-.395-.992-.582-2.174-.598-3.776-.021-2.07.064-2.463.757-3.509 1.349-2.034 4.484-2.698 6.504-1.378.411.27.947.996 1.191 1.615.51 1.295.8 1.415 1.046.436.21-.839 1.948-2.412 2.937-2.66 1.896-.474 4.265.766 5.277 2.764.859 1.696.856 4.134-.007 6.654-.647 1.886-7.912 14.443-8.356 14.443-.131 0-.423-.293-.65-.65zm-1.413-27.089c-1.791-.451-3.763-1.601-5.02-2.93-1.452-1.532-2.435-2.938-2.435-3.481 0-.447 1.51-1.67 2.06-1.67.19 0 1.059.785 1.93 1.745 2.058 2.269 3.435 2.977 5.761 2.961 4.26-.029 7.054-3.094 7.038-7.72-.018-4.97-4.34-7.636-8.927-5.506-1.967.914-2.126.904-2.756-.16-.642-1.084-.799-.828 3.702-6.035 1.844-2.136 3.354-3.992 3.354-4.125 0-.134-1.792-.207-3.982-.163l-3.981.08-.145 1.734-.145 1.733h-3.474v-6.933h17.663l.088 1.057c.079.94-.116 1.292-1.737 3.146-2.805 3.208-3.991 4.72-3.995 5.09-.002.186.42.43.938.541 3.965.855 6.535 4.03 6.808 8.411.353 5.643-1.566 9.282-6.05 11.47-1.805.88-4.837 1.222-6.695.755z" fill="#b4b4b4"/><path d="M0 157.44V0h217.75v314.88H0V157.44zm211.67 156.25c1.909-.904 3.489-2.434 4.399-4.26l.668-1.34V7.37l-.69-1.526c-.85-1.875-3.016-3.886-4.865-4.514-1.227-.417-10.76-.46-102.6-.46H7.332l-1.772.883c-2.009 1.002-3.034 2.075-4.014 4.2L.868 7.425l.073 150.48.073 150.48.722 1.409c.948 1.852 2.839 3.476 4.874 4.185 1.627.567 2.63.572 102.56.522l100.91-.05 1.592-.754zm-23.836-23.844c-.108-.108-.197-.705-.197-1.326 0-.992.244-1.397 2.016-3.346 1.109-1.22 2.422-2.768 2.918-3.44l.901-1.225-.673-.265c-.37-.146-1.285-.48-2.033-.743-1.762-.621-3.57-2.392-4.533-4.443-.678-1.441-.765-1.974-.746-4.523.025-3.39.37-4.785 1.647-6.681 3.274-4.86 9.95-6.106 14.815-2.766 1.3.893 3.64 3.908 3.64 4.692 0 .602-1.298 1.723-1.993 1.72-.258 0-1.013-.704-1.679-1.564-1.746-2.256-3.463-3.18-5.867-3.158-4.089.037-6.83 2.774-7.183 7.172-.42 5.213 4.232 8.272 9.198 6.049l1.81-.81.685.794c.377.438.686.916.686 1.064 0 .147-1.727 2.232-3.837 4.632-2.11 2.4-3.88 4.482-3.933 4.627-.055.149 1.66.262 3.981.262h4.078V285c0-1.886.473-2.478 1.975-2.472 1.776.01 1.818.101 1.727 3.918l-.082 3.444-8.562.076c-4.71.042-8.65-.012-8.76-.12zm-72.054-13.772c-3.899-1.461-6.388-4.448-7.327-8.791-.242-1.12-.613-.999-.896.294-1.05 4.807-5.324 8.59-9.704 8.591-7.602 0-12.515-5.95-12.046-14.588.345-6.374 2.904-11.967 10.175-22.244a1109.63 1109.63 0 0 0 7.882-11.323c2.2-3.209 4.194-5.84 4.433-5.845.25-.01.987.994 1.737 2.358 1.351 2.456 6.387 10.068 12.283 18.566 8.041 11.59 10.011 19.408 6.631 26.323-1.159 2.37-3.533 4.825-5.693 5.886-2.162 1.06-5.725 1.43-7.475.773zm74.752-20.147c-2.924-1.226-3.703-5.559-1.748-9.725 1.1-2.347 8.115-13.943 8.434-13.943.134 0 .394.293.578.65.185.358 1.902 3.298 3.816 6.534 1.914 3.236 3.722 6.66 4.018 7.609 1.22 3.91.416 7.206-2.083 8.542-2.285 1.22-5.197.422-6.063-1.661-.453-1.093-.707-1.1-1.15-.036-.631 1.522-1.586 2.15-3.417 2.246-.914.048-1.987-.049-2.385-.216zm-86.139-78.477a892.464 892.464 0 0 0-7.549-10.772c-4.345-6.085-5.751-8.301-7.592-11.963-3.82-7.598-4.495-14.134-2-19.357 3.212-6.72 11.593-8.918 16.643-4.367 1.529 1.378 2.893 3.524 3.514 5.525.273.88.609 1.6.746 1.6.137-.001.422-.677.634-1.502.837-3.264 3.143-6.103 6.074-7.477 2.529-1.186 6.889-.732 9.645 1.003 2.467 1.554 4.74 4.941 5.647 8.417 1.481 5.673-.843 13.097-6.835 21.835l-6.336 9.244c-1.99 2.905-4.674 7.03-5.964 9.167-1.29 2.137-2.47 3.926-2.623 3.977-.152.051-1.954-2.347-4.005-5.33zm2.951-88.546c-.38-.516-1.841-2.629-3.247-4.694-1.405-2.066-4.427-6.383-6.714-9.595-6.118-8.589-8.666-12.935-10.211-17.415-2.585-7.495-1.652-14.306 2.496-18.22 6.205-5.854 15.342-3.452 17.658 4.643.25.874.555 1.697.678 1.829.122.132.387-.453.587-1.3 1.166-4.937 4.722-8.273 9.12-8.555 6.24-.4 11.105 3.873 12.594 11.06 1.109 5.351-1.482 12.76-7.525 21.52-6.254 9.068-11.509 17.011-12.749 19.274-.715 1.306-1.457 2.379-1.648 2.384-.191 0-.659-.414-1.04-.93zm-87.762-9.533c-2.53-3.997-7.653-12.81-8.101-13.938-.395-.992-.582-2.174-.598-3.776-.021-2.07.064-2.463.757-3.509 1.349-2.034 4.484-2.698 6.504-1.378.411.27.947.996 1.191 1.615.51 1.295.8 1.415 1.046.436.21-.839 1.948-2.412 2.937-2.66 1.896-.474 4.265.766 5.277 2.764.859 1.696.856 4.134-.007 6.654-.647 1.886-7.912 14.443-8.356 14.443-.131 0-.423-.293-.65-.65zM18.17 52.282c-1.791-.451-3.763-1.601-5.02-2.93-1.452-1.532-2.435-2.938-2.435-3.481 0-.447 1.51-1.67 2.06-1.67.19 0 1.059.785 1.93 1.745 2.058 2.269 3.435 2.977 5.761 2.961 4.26-.029 7.054-3.094 7.038-7.72-.018-4.97-4.34-7.636-8.927-5.506-1.967.914-2.126.904-2.756-.16-.642-1.084-.799-.828 3.702-6.035 1.844-2.136 3.354-3.992 3.354-4.125 0-.134-1.792-.207-3.982-.163l-3.981.08-.145 1.734-.145 1.733H11.15v-6.933h17.663l.088 1.057c.079.94-.116 1.292-1.737 3.146-2.805 3.208-3.991 4.72-3.995 5.09-.002.186.42.43.938.541 3.965.855 6.535 4.03 6.808 8.411.353 5.643-1.566 9.282-6.05 11.47-1.805.88-4.837 1.222-6.695.755z" fill="#e48f90"/><path d="M0 157.44V0h217.75v314.88H0V157.44zm211.67 156.25c1.909-.904 3.489-2.434 4.399-4.26l.668-1.34V7.37l-.69-1.526c-.85-1.875-3.016-3.886-4.865-4.514-1.227-.417-10.76-.46-102.6-.46H7.332l-1.772.883c-2.009 1.002-3.034 2.075-4.014 4.2L.868 7.425l.073 150.48.073 150.48.722 1.409c.948 1.852 2.839 3.476 4.874 4.185 1.627.567 2.63.572 102.56.522l100.91-.05 1.592-.754zm-23.84-23.848c-.106-.106-.193-.67-.193-1.254 0-.906.286-1.375 1.954-3.206 2.427-2.663 3.837-4.438 3.837-4.83 0-.164-.708-.504-1.573-.754-2.95-.856-5.332-3.296-5.983-6.13-.202-.882-.285-2.65-.202-4.333.172-3.501.89-5.1 3.253-7.255 2.306-2.104 4.195-2.755 7.546-2.603 2.926.133 4.264.659 6.263 2.46 1.31 1.182 2.858 3.294 2.858 3.902 0 .364-1.475 1.663-1.888 1.663-.096 0-1.11-.961-2.256-2.137-2.345-2.406-3.592-2.95-6.171-2.686-3.918.4-6.48 3.474-6.48 7.773 0 2.788 1.054 4.62 3.33 5.79 1.701.875 3.937.801 5.895-.194l1.552-.788.692.65c.381.356.693.869.693 1.138 0 .27-1.697 2.416-3.77 4.771-2.074 2.355-3.725 4.42-3.669 4.587.145.434 7.382.569 7.891.147.219-.18.427-1.04.475-1.959l.086-1.637h3.185l.082 3.136c.054 2.065-.032 3.274-.252 3.539-.273.327-1.892.403-8.649.403-4.572 0-8.4-.087-8.507-.193zm-71.216-13.716c-3.464-.501-6.772-3.918-7.846-8.104-.457-1.782-.919-2.07-1.203-.751-.427 1.978-1.848 4.566-3.305 6.02-2.688 2.682-6.022 3.484-9.766 2.35-8.679-2.63-11.136-12.669-5.913-24.16 1.375-3.024 3.771-6.886 7.715-12.432 2.033-2.86 5.515-7.838 7.738-11.062 2.222-3.224 4.17-5.82 4.329-5.766.159.053 1.075 1.456 2.036 3.118 1.99 3.441 4.163 6.727 9.671 14.625 4.827 6.92 6.522 9.641 7.768 12.469 3.032 6.88 3.34 12.094 1.003 16.98-2.328 4.865-7.058 7.462-12.227 6.714zm74.31-20.19c-1.199-.366-2.63-2.023-2.875-3.33-.426-2.26.015-4.758 1.27-7.202 1.608-3.131 7.429-12.659 7.811-12.786.17-.056.665.523 1.102 1.287.436.764 2.031 3.45 3.543 5.97 3.146 5.242 4.036 7.243 4.283 9.622.328 3.155-.818 5.407-3.215 6.32-2.197.838-4.495-.095-5.358-2.174-.2-.48-.452-.872-.561-.872-.11 0-.431.524-.715 1.165-.283.64-.805 1.355-1.16 1.587-.843.551-2.974.765-4.125.413zm-86.001-77.912a886.212 886.212 0 0 0-7.34-10.472c-8.82-12.381-11.214-17.418-11.513-24.23-.22-5.021.687-8.116 3.19-10.879 2.472-2.73 6.49-4.18 9.9-3.572 2.202.392 3.503 1.063 5.045 2.601 1.544 1.54 2.567 3.264 3.2 5.395.271.91.609 1.628.75 1.597.143-.031.497-.925.789-1.987.977-3.56 3.574-6.46 6.754-7.54 1.983-.674 5.323-.392 7.493.632 3.43 1.618 6.061 5.256 6.998 9.673.804 3.795-.048 8.378-2.526 13.577-1.723 3.615-2.072 4.173-7.498 11.988-6.268 9.03-11.289 16.83-11.289 17.54 0 .125-.187.226-.416.226-.229 0-1.82-2.047-3.537-4.55zm-.25-93.162c-1.886-2.74-5.291-7.601-7.568-10.801-6.139-8.628-8.374-12.524-10.038-17.495-2.383-7.12-1.215-14.258 2.927-17.886 2.901-2.541 7.553-3.524 10.833-2.29 3.056 1.152 5.716 4.326 6.617 7.897.192.761.487 1.338.655 1.282.17-.056.452-.744.63-1.528.717-3.17 2.965-6.114 5.794-7.585 1.242-.647 1.797-.75 3.909-.734 4.246.033 7.197 1.7 9.611 5.425 4.256 6.57 2.671 15.308-4.73 26.079-6.825 9.935-11.892 17.554-13.265 19.948-.843 1.47-1.626 2.672-1.74 2.672-.113 0-1.748-2.242-3.634-4.983zM16.078 73.358c-4.65-7.754-5.106-8.803-5.106-11.742 0-2.46.5-3.59 2.046-4.63 1.428-.96 3.992-.92 5.184.081.48.403 1.02 1.183 1.203 1.733.182.551.42 1 .526.999.107 0 .41-.516.675-1.144.607-1.442 1.994-2.317 3.675-2.318 4.628 0 6.294 5.024 3.575 10.794-.46.974-2.224 4.07-3.92 6.882-1.698 2.812-3.086 5.235-3.086 5.386 0 .15-.18.343-.4.427-.278.106-1.622-1.882-4.372-6.468zm.863-21.509c-1.74-.643-3.857-2.388-5.185-4.275l-1.186-1.683.946-.845c1.22-1.088 1.622-1.063 2.372.147 2.552 4.12 7.74 5.13 11.118 2.164 3.149-2.765 3.615-7.719.993-10.556-2.099-2.272-4.755-2.637-7.836-1.08l-1.48.749-.523-.643c-.287-.354-.522-.874-.522-1.155 0-.28 1.705-2.49 3.79-4.91 2.305-2.676 3.686-4.505 3.524-4.666-.147-.146-2.015-.23-4.152-.185l-3.886.081-.076 1.3c-.152 2.585-.193 2.64-1.888 2.543l-1.51-.087v-6.934l8.456-.077c8.194-.074 8.467-.059 8.767.5.48.894.047 2.057-1.292 3.477a90.992 90.992 0 0 0-2.877 3.273c-1.33 1.59-1.584 2.052-1.308 2.383.187.226.587.41.888.41.3 0 1.15.283 1.888.63 3.803 1.783 5.572 5.947 4.756 11.195-.566 3.64-2.296 6.005-5.67 7.755-1.208.627-1.901.765-4.198.834-1.899.057-3.11-.049-3.91-.345z" fill="#e07c81"/><path d="M0 157.44V0h217.75v314.88H0V157.44zm211.67 156.25c1.909-.904 3.489-2.434 4.399-4.26l.668-1.34V7.37l-.69-1.526c-.85-1.875-3.016-3.886-4.865-4.514-1.227-.417-10.76-.46-102.6-.46H7.332l-1.772.883c-2.009 1.002-3.034 2.075-4.014 4.2L.868 7.425l.073 150.48.073 150.48.722 1.409c.948 1.852 2.839 3.476 4.874 4.185 1.627.567 2.63.572 102.56.522l100.91-.05 1.592-.754zm-23.686-24.002c-.794-.792-.376-2.059 1.268-3.842 3.827-4.151 4.83-5.922 3.351-5.922-1.516 0-4.58-2-5.641-3.682-1.058-1.677-1.449-3.814-1.278-6.991.174-3.251.689-4.51 2.74-6.697 2.342-2.499 5.506-3.505 9.466-3.011 1.226.152 2.077.503 3.427 1.409 1.791 1.204 4.238 3.98 4.26 4.835.012.435-1.443 1.715-1.949 1.715-.135 0-.886-.772-1.668-1.716-1.668-2.014-3.048-2.866-5.014-3.099-4.608-.544-8.154 2.782-8.15 7.643 0 2.363.42 3.549 1.66 4.723 2.145 2.03 5.184 2.415 7.754.984l1.261-.703.743.583c.95.746.937 1.35-.054 2.454-.438.488-1.405 1.59-2.15 2.448a192.93 192.93 0 0 1-2.27 2.572c-1.679 1.851-2.588 3.094-2.401 3.281.102.102 1.907.185 4.01.185 2.756 0 3.912-.103 4.134-.37.169-.203.348-1.08.397-1.95l.09-1.58h3.185l.082 3.136c.054 2.065-.032 3.274-.252 3.539-.455.546-16.457.599-17.001.056zm-92.138-13.7c-1.927-.358-4.544-1.607-6.031-2.877-1.31-1.118-2.695-3.615-3.385-6.101-.762-2.74-.479-8.39.575-11.495 1.92-5.658 3.402-8.135 12.714-21.232.96-1.35 3.2-4.6 4.978-7.222 1.778-2.622 3.396-4.767 3.596-4.767.2 0 1.105 1.3 2.012 2.89 1.946 3.406 6.256 9.932 10.588 16.032 5.11 7.193 7.504 11.685 8.725 16.368 1.583 6.075.415 11.555-3.254 15.272-2.2 2.229-4.287 3.146-7.446 3.272-2.384.095-2.678.04-4.404-.807-2.37-1.164-4.233-3.245-5.184-5.79-.387-1.036-.745-2.132-.796-2.436-.147-.886-.777-.868-.975.028-.1.448-.517 1.631-.927 2.63-.865 2.104-3.303 4.745-5.148 5.574-1.19.536-4.333.905-5.638.662zm95.078-20.052c-1.199-.366-2.63-2.023-2.875-3.33-.108-.573-.133-1.93-.055-3.013.118-1.65.364-2.385 1.518-4.524 2.397-4.447 7.469-12.542 7.79-12.435.171.057.724.873 1.228 1.815.505.941 1.645 2.881 2.533 4.311 3.59 5.785 4.56 7.817 4.978 10.437.236 1.48-.272 3.955-1.03 5.017-.798 1.118-3.038 2.123-4.284 1.92-1.268-.204-2.771-1.355-3.238-2.48-.202-.486-.456-.883-.566-.883-.109 0-.43.524-.714 1.165-.283.64-.805 1.355-1.16 1.587-.843.551-2.974.765-4.125.413zm-84.48-75.746a356.134 356.134 0 0 0-6.772-9.75c-8.043-11.148-10.912-15.998-12.678-21.43-.949-2.92-1.287-8.002-.705-10.6.985-4.4 3.988-7.944 7.657-9.037 2.341-.698 3.675-.803 5.454-.43 3.949.826 6.931 3.956 8.07 8.467.396 1.57.837 1.487 1.278-.24.917-3.585 3.042-6.419 5.847-7.797 1.804-.886 5.882-.962 7.89-.146 4.094 1.662 6.805 5.378 7.813 10.707.402 2.125.282 3.59-.602 7.37-.576 2.468-3.219 8.308-4.8 10.606l-2.58 3.755a377.4 377.4 0 0 1-2.686 3.865c-2.586 3.634-8.78 13.112-9.77 14.947-.621 1.15-1.284 2.093-1.473 2.094-.189 0-1.063-1.07-1.944-2.381zm1.294-90.886c-.16-.297-1.59-2.41-3.179-4.694-1.59-2.285-3.32-4.781-3.847-5.548-.526-.766-1.283-1.84-1.68-2.386-2.72-3.733-6.56-9.244-7.576-10.872-1.945-3.119-4.652-9.35-5.03-11.58-.086-.508-.229-1.161-.318-1.452-.089-.291-.164-1.916-.167-3.611 0-2.569.117-3.429.73-5.165 1.28-3.628 2.865-5.428 6.245-7.09 1.653-.814 2.127-.911 4.488-.924 2.363-.012 2.817.076 4.32.835 2.698 1.364 4.816 4.193 5.704 7.62.408 1.578.885 1.433 1.308-.398.733-3.174 3.004-6.154 5.75-7.546 2.351-1.191 6.725-.945 9.396.53 1.523.84 3.583 3.074 4.653 5.045 3.67 6.759 1.78 15.242-5.786 25.98-5.745 8.153-10.539 15.36-12.532 18.842-.93 1.625-1.803 2.954-1.94 2.954s-.379-.243-.538-.54zM19.196 78.479c-.482-.82-2.165-3.635-3.74-6.256-4.148-6.902-4.282-7.21-4.403-10.145-.095-2.277-.039-2.592.646-3.675.954-1.507 2.052-2.068 4.047-2.068 1.281 0 1.754.142 2.473.746.489.41.994 1.149 1.122 1.641.331 1.278.738 1.26 1.32-.057 1.242-2.808 5.114-3.15 7.303-.643.369.423.824 1.396 1.01 2.163.733 2.998-.429 6.504-3.93 11.86-.873 1.338-1.588 2.5-1.588 2.581 0 .082-.587 1.138-1.303 2.347-.717 1.21-1.303 2.312-1.303 2.449s-.175.317-.39.398c-.242.093-.716-.41-1.264-1.341zM16.361 51.45c-.955-.447-2-1.059-2.322-1.359-1.51-1.41-3.035-3.435-3.035-4.032 0-.7 1.31-1.938 1.902-1.796.192.046.787.66 1.323 1.363.536.705 1.621 1.744 2.413 2.311 1.363.977 1.56 1.03 3.764 1.03 2.016 0 2.506-.105 3.682-.795 1.602-.939 2.252-1.792 3.09-4.054 1.425-3.84.091-7.334-3.408-8.934-1.594-.729-3.456-.569-5.539.475-1.445.724-1.454.724-2.022.157-.315-.313-.569-.797-.565-1.075.004-.278 1.697-2.48 3.764-4.893 2.067-2.414 3.758-4.53 3.758-4.703 0-.215-1.296-.289-4.126-.234l-4.126.08-.29 1.878-.291 1.877h-2.894l-.082-3.386c-.08-3.317-.068-3.39.58-3.548.363-.089 4.243-.124 8.623-.08l7.963.081.09 1.103c.093 1.117-.376 1.887-2.59 4.252-.377.403-1.24 1.429-1.918 2.28-.96 1.204-1.16 1.632-.906 1.939.18.216.586.393.903.393.316 0 1.36.417 2.318.926 3.168 1.685 4.779 5.158 4.417 9.527-.104 1.252-.302 2.672-.442 3.157-.436 1.517-1.682 3.358-2.96 4.374-3.317 2.638-7.637 3.295-11.074 1.686z" fill="#df817d"/><path d="M0 157.44V0h217.75v314.88H0V157.44zm211.67 156.25c1.909-.904 3.489-2.434 4.399-4.26l.668-1.34V7.37l-.69-1.526c-.85-1.875-3.016-3.886-4.865-4.514-1.227-.417-10.76-.46-102.6-.46H7.332l-1.772.883c-2.009 1.002-3.034 2.075-4.014 4.2L.868 7.425l.073 150.48.073 150.48.722 1.409c.948 1.852 2.839 3.476 4.874 4.185 1.627.567 2.63.572 102.56.522l100.91-.05 1.592-.754zm-23.686-24.002c-.842-.84-.39-1.965 1.755-4.372 2.867-3.216 3.779-4.452 3.61-4.893-.08-.205-.782-.536-1.562-.735-2.096-.536-4.114-2.191-5.159-4.231-.829-1.62-.874-1.885-.874-5.192 0-3.223.06-3.607.803-5.115 2.784-5.657 10.464-7.541 15.413-3.782.796.605 1.968 1.854 2.604 2.775l1.157 1.676-.944.842c-.52.463-1.052.841-1.183.841s-.83-.76-1.555-1.69c-2.856-3.67-7.59-4.35-10.715-1.54-1.73 1.557-2.533 3.472-2.537 6.056 0 2.562.417 3.638 1.964 5.03 2.007 1.808 4.74 2.114 7.289.816.63-.32 1.326-.583 1.546-.583.561 0 1.43 1.024 1.313 1.546-.054.239-1.826 2.404-3.937 4.812-2.112 2.407-3.766 4.497-3.675 4.643.197.317 7.653.352 8.15.038.19-.121.385-.996.434-1.946l.089-1.726 1.42-.09c.94-.06 1.5.038 1.66.289.132.208.243 1.637.245 3.174 0 2.161-.099 2.9-.45 3.25-.392.391-1.572.454-8.485.454-5.858 0-8.123-.094-8.376-.347zm-92.93-13.948c-2.38-.666-4.173-1.704-5.63-3.257-2.665-2.843-3.545-5.702-3.357-10.903.107-2.935.268-3.883 1.052-6.18 1.719-5.039 4.27-9.449 10.466-18.086a763.619 763.619 0 0 0 6.79-9.677c2.024-2.94 3.798-5.345 3.94-5.345.142 0 .928 1.17 1.748 2.6 1.77 3.09 5.9 9.338 11.552 17.477 6.676 9.615 8.872 14.96 8.604 20.944-.148 3.32-.77 5.262-2.518 7.868-2.188 3.26-5.364 4.96-9.295 4.978-1.884.01-2.451-.117-3.973-.876-2.8-1.395-4.744-3.945-5.618-7.363-.205-.803-.503-1.498-.662-1.543-.16-.045-.558.677-.886 1.605-.885 2.503-1.672 3.853-3.07 5.266-2.372 2.397-5.976 3.379-9.143 2.492zm105.18-19.702c-1.068-.277-2.411-1.52-2.75-2.544-.423-1.28-.736-1.283-1.156-.013-.182.55-.74 1.344-1.238 1.763-.823.69-1.088.75-2.867.65-1.685-.095-2.082-.227-2.831-.943-.48-.459-1.021-1.285-1.204-1.837-.478-1.445-.185-4.841.563-6.524.847-1.906 8.175-14.043 8.479-14.043.133 0 .522.552.866 1.227.343.676 1.735 3.048 3.092 5.272 3.063 5.022 4.307 7.604 4.708 9.773.365 1.973.01 4.14-.883 5.391-.907 1.271-3.34 2.201-4.779 1.827zm-93.545-75.56c-.782-1.152-3.509-5.055-6.06-8.674-7.897-11.203-9.405-13.519-11.324-17.398-2.3-4.65-3.303-8.31-3.303-12.056 0-6.05 2.355-10.304 6.89-12.448 1.758-.83 2.2-.916 4.692-.915 2.425 0 2.926.094 4.23.778 2.616 1.375 4.822 4.337 5.639 7.572.422 1.671 1.02 1.717 1.283.098.51-3.13 2.985-6.477 5.963-8.062 1.069-.568 1.689-.675 3.878-.667 3.396.012 5.484.896 7.774 3.29 5.393 5.642 5.355 14.016-.107 23.521-.808 1.405-3.225 5.077-5.373 8.16-5.45 7.825-9.975 14.717-11.146 16.977-.546 1.054-1.132 1.916-1.303 1.917-.171 0-.95-.942-1.733-2.093zm1.307-90.996c-.178-.199-1.987-2.78-4.02-5.736a876.768 876.768 0 0 0-7.223-10.316c-8.216-11.511-10.752-17.157-10.752-23.945 0-7.085 3.1-11.727 8.82-13.214 2.206-.573 3.835-.568 5.576.018 3.103 1.044 5.471 3.639 6.784 7.434.375 1.086.802 1.994.949 2.02.146.025.436-.7.644-1.612.492-2.161 1.313-3.731 2.785-5.324 2.331-2.524 4.79-3.385 8.419-2.95 7.4.89 11.893 9.178 9.766 18.02-1.131 4.706-3.153 8.613-8.147 15.745-4.946 7.063-10.781 15.922-11.94 18.127-.606 1.151-1.154 2.094-1.219 2.094-.065 0-.263-.163-.441-.361zM19.606 79.1c-3.516-5.697-6.731-11.189-7.493-12.801-.789-1.667-.972-2.428-1.043-4.333-.073-1.98.01-2.477.58-3.467.916-1.586 2.245-2.226 4.346-2.092 1.888.121 2.973.88 3.354 2.346.324 1.245.734 1.217 1.312-.09 1.734-3.92 7.476-2.673 8.315 1.806.475 2.534-.307 5.341-2.548 9.153-4.677 7.954-5.912 9.975-6.148 10.056-.144.05-.448-.21-.674-.578zM16.69 51.595c-2.083-.875-3.678-2.256-5.176-4.48-.723-1.073-.631-1.633.387-2.356l.895-.636 1.71 1.89c2.294 2.535 3.723 3.218 6.346 3.03 3.498-.249 5.83-2.262 6.67-5.76 1.44-5.988-3.9-10.443-9.218-7.69l-1.51.78-.578-.618c-.317-.34-.574-.822-.57-1.07.006-.248 1.696-2.401 3.757-4.784 2.061-2.384 3.751-4.496 3.756-4.695.012-.523-7.9-.515-8.336.01-.17.204-.348 1.081-.398 1.95l-.09 1.58H11.44l-.082-3.299c-.061-2.444.014-3.36.29-3.534.426-.27 15.87-.334 16.563-.069.303.116.458.536.458 1.239 0 .917-.302 1.398-2.2 3.507-3.603 4.004-4.202 5.185-2.633 5.192 1.82.01 4.964 2.359 6.107 4.564 1.09 2.103 1.124 7.452.063 9.987-.66 1.576-3.01 3.893-4.952 4.882-1.452.74-2.15.905-4.203.991-2.112.09-2.702 0-4.16-.61z" fill="#da6e6e"/><path d="M0 157.44V0h217.75v314.88H0V157.44zm211.67 156.25c1.909-.904 3.489-2.434 4.399-4.26l.668-1.34V7.37l-.69-1.526c-.85-1.875-3.016-3.886-4.865-4.514-1.227-.417-10.76-.46-102.6-.46H7.332l-1.772.883c-2.009 1.002-3.034 2.075-4.014 4.2L.868 7.425l.073 150.48.073 150.48.722 1.409c.948 1.852 2.839 3.476 4.874 4.185 1.627.567 2.63.572 102.56.522l100.91-.05 1.592-.754zm-23.889-24.522c-.302-.948.132-1.78 1.932-3.705 2.328-2.49 4.046-4.692 3.93-5.039-.053-.158-.891-.53-1.863-.828-2.264-.693-4.379-2.535-5.335-4.647-.585-1.292-.688-1.966-.675-4.413.01-1.59.174-3.43.366-4.092 1.214-4.167 6.029-7.326 10.606-6.96 2.602.209 4.646 1.26 6.652 3.422 1.965 2.117 2.273 3.013 1.295 3.763-.381.292-.8.535-.932.538-.131 0-1.109-.889-2.172-1.983-1.588-1.636-2.216-2.074-3.525-2.462-5.136-1.523-10.043 2.834-9.467 8.403.347 3.349 2.521 5.532 5.769 5.792 1.621.13 2.115.041 3.685-.661l1.812-.812.542.704c.298.386.545.795.548.908 0 .113-1.75 2.193-3.898 4.622-2.148 2.43-3.907 4.583-3.909 4.786 0 .286.952.35 4.267.288l4.27-.08.09-1.58c.115-2.01.42-2.37 1.913-2.261l1.183.087.082 3.394.082 3.394h-8.532c-8.277 0-8.537-.017-8.715-.578zm-72.971-13.801c-3.077-1.487-5.413-4.652-6.09-8.25-.302-1.608-.881-1.281-1.58.89-1.612 5.02-5.024 7.863-9.44 7.87-5.655.01-9.889-3.491-11.264-9.308-1.646-6.965 1.172-15 9.245-26.366 2.144-3.02 5.805-8.251 8.135-11.627 2.33-3.377 4.341-6.14 4.47-6.14.13 0 1.052 1.398 2.05 3.106 2.07 3.543 4.412 7.072 10.69 16.105 6.411 9.228 8.777 14.367 9.173 19.932.404 5.656-2.514 11.256-7.015 13.466-1.463.72-2.295.922-4.228 1.029-2.212.122-2.549.065-4.146-.708zm75.428-19.949c-1.508-.79-2.17-2.319-2.155-4.974.011-1.898.148-2.461 1.054-4.334 1.452-3 7.626-13.13 8.004-13.13.282 0 3.418 5.041 6.574 10.566 1.662 2.912 2.255 5.018 2.113 7.514-.17 3.005-1.611 4.592-4.379 4.82-1.425.118-1.647.052-2.6-.784-.574-.502-1.19-1.361-1.372-1.91-.182-.547-.432-.996-.558-.996-.125 0-.456.596-.735 1.325-.626 1.637-1.808 2.428-3.63 2.43-.719 0-1.761-.237-2.316-.528zm-82.283-73.352c-.237-.278-1.587-2.195-3-4.26a913.457 913.457 0 0 0-7.078-10.112c-2.48-3.495-5.118-7.33-5.86-8.522-1.932-3.1-4.437-8.45-5.14-10.977-2.106-7.565-.038-14.765 5.106-17.777 1.444-.845 4.114-1.578 5.753-1.578 4.222 0 8.195 3.364 9.515 8.054.747 2.658 1.065 2.637 1.783-.115 1.098-4.205 4.094-7.264 7.805-7.97 1.833-.35 4.924.21 6.866 1.243 3.92 2.084 6.598 7.054 6.598 12.245 0 5.465-2.592 11.354-9.145 20.775-5.628 8.09-9.337 13.708-11.146 16.884-.82 1.438-1.52 2.614-1.558 2.614-.037 0-.261-.227-.499-.505zm-3.54-97.867a848.445 848.445 0 0 0-7.25-10.35c-5.5-7.698-7.853-11.688-9.562-16.218-3.384-8.969-1.205-17.619 5.17-20.531 4.139-1.89 8.02-1.42 11.018 1.337 1.563 1.437 2.813 3.54 3.469 5.835.606 2.122 1.147 2.153 1.563.088.993-4.93 4.939-8.528 9.36-8.535 3.032 0 5.412.87 7.41 2.722 4.552 4.22 5.77 10.1 3.536 17.075-1.502 4.689-2.774 6.974-8.352 15.01-5.556 8.005-9.066 13.318-10.735 16.249-.836 1.47-1.616 2.672-1.733 2.672-.116 0-1.868-2.41-3.893-5.355zM16.1 73.091c-2.385-3.963-4.217-7.35-4.545-8.403-.984-3.155-.612-5.713 1.043-7.162 2.376-2.082 5.897-1.318 6.693 1.451.38 1.32.767 1.288 1.42-.115.67-1.437 2.16-2.53 3.45-2.53.5 0 1.491.293 2.202.65 2.474 1.245 3.245 4.424 2.023 8.347-.345 1.109-2.008 4.234-4.199 7.891-1.994 3.33-3.626 6.158-3.626 6.283 0 .798-.91-.51-4.461-6.412zm1.648-21.204c-2.619-.857-5.243-2.976-6.434-5.196-.374-.697-.351-.821.271-1.482.965-1.024 1.508-.903 2.572.576.513.713 1.545 1.719 2.293 2.236 1.191.822 1.636.952 3.595 1.044 1.85.087 2.46 0 3.546-.528 2.633-1.272 4.214-4.038 4.202-7.35-.018-5.143-4.506-7.904-9.334-5.742l-1.74.778-.54-.666c-.298-.366-.54-.772-.54-.9 0-.13 1.76-2.284 3.912-4.789 2.152-2.504 3.803-4.663 3.67-4.797-.135-.134-2.124-.207-4.42-.163l-4.176.081-.09 1.726c-.096 1.88-.316 2.163-1.685 2.17-1.405.01-1.586-.452-1.493-3.794l.082-2.99h17.085l.09.924c.076.795-.21 1.261-2.039 3.322-4.122 4.644-4.409 5.26-2.595 5.566 1.629.274 4 1.74 4.966 3.071 1.43 1.97 1.84 3.684 1.69 7.057-.11 2.474-.263 3.23-.922 4.573-.91 1.857-2.768 3.608-4.964 4.68-1.884.92-5.157 1.197-7.002.594z" fill="#929292"/><path d="M0 157.44V0h217.75v314.88H0V157.44zm212.19 156.2c1.848-.972 3.687-3.022 4.286-4.775.413-1.209.456-15.59.456-151.43V7.345l-.824-1.736c-.917-1.934-2.394-3.386-4.373-4.3L210.417.7H7.137l-1.303.68c-1.776.928-3.372 2.5-4.296 4.23L.767 7.057l-.078 149.64c-.053 103.98.016 150.08.228 151.07.609 2.866 2.79 5.295 5.639 6.28 1.366.471 7.272.496 102.8.436l101.35-.064 1.483-.78zm-24.359-24.496c-.302-.948.132-1.78 1.932-3.705 2.328-2.49 4.046-4.692 3.93-5.039-.053-.158-.891-.53-1.863-.828-2.264-.693-4.379-2.535-5.335-4.647-.585-1.292-.688-1.966-.675-4.413.01-1.59.174-3.43.366-4.092 1.214-4.167 6.029-7.326 10.606-6.96 2.602.209 4.646 1.26 6.652 3.422 1.965 2.117 2.273 3.013 1.295 3.763-.381.292-.8.535-.932.538-.131 0-1.109-.889-2.172-1.983-1.588-1.636-2.216-2.074-3.525-2.462-5.136-1.523-10.043 2.834-9.467 8.403.347 3.349 2.521 5.532 5.769 5.792 1.621.13 2.115.041 3.685-.661l1.812-.812.542.704c.298.386.545.795.548.908 0 .113-1.75 2.193-3.898 4.622-2.148 2.43-3.907 4.583-3.909 4.786 0 .286.952.35 4.267.288l4.27-.08.09-1.58c.115-2.01.42-2.37 1.913-2.261l1.183.087.082 3.394.082 3.394h-8.532c-8.277 0-8.537-.017-8.715-.578zm-72.971-13.801c-3.077-1.487-5.413-4.652-6.09-8.25-.302-1.608-.881-1.281-1.58.89-1.612 5.02-5.024 7.863-9.44 7.87-5.655.01-9.889-3.491-11.264-9.308-1.646-6.965 1.172-15 9.245-26.366 2.144-3.02 5.805-8.251 8.135-11.627 2.33-3.377 4.341-6.14 4.47-6.14.13 0 1.053 1.398 2.05 3.106 2.07 3.543 4.412 7.072 10.69 16.105 6.411 9.228 8.777 14.367 9.173 19.932.404 5.656-2.514 11.256-7.014 13.466-1.464.72-2.296.922-4.23 1.029-2.21.122-2.548.065-4.145-.708zm75.428-19.949c-1.508-.79-2.17-2.319-2.155-4.974.011-1.898.148-2.461 1.054-4.334 1.452-3 7.626-13.13 8.004-13.13.282 0 3.418 5.041 6.574 10.566 1.662 2.912 2.255 5.018 2.113 7.514-.17 3.005-1.611 4.592-4.379 4.82-1.425.118-1.647.052-2.6-.784-.574-.502-1.19-1.361-1.372-1.91-.182-.547-.432-.996-.558-.996-.125 0-.456.596-.735 1.325-.626 1.637-1.808 2.428-3.63 2.43-.719 0-1.761-.237-2.316-.528zm-82.283-73.352c-.237-.278-1.587-2.195-3-4.26a913.457 913.457 0 0 0-7.078-10.112c-2.48-3.495-5.118-7.33-5.86-8.522-1.932-3.1-4.437-8.45-5.14-10.977-2.106-7.565-.038-14.765 5.106-17.777 1.444-.845 4.114-1.578 5.753-1.578 4.222 0 8.195 3.364 9.515 8.054.747 2.658 1.065 2.637 1.783-.115 1.098-4.205 4.094-7.264 7.805-7.97 1.833-.35 4.924.21 6.866 1.243 3.92 2.084 6.598 7.054 6.598 12.245 0 5.465-2.592 11.354-9.145 20.775-5.628 8.09-9.337 13.708-11.146 16.884-.82 1.438-1.52 2.614-1.558 2.614-.037 0-.261-.227-.499-.505zm-3.54-97.867a848.445 848.445 0 0 0-7.25-10.35c-5.5-7.698-7.853-11.688-9.562-16.218-3.384-8.969-1.205-17.619 5.17-20.531 4.139-1.89 8.02-1.42 11.018 1.337 1.563 1.437 2.813 3.54 3.469 5.835.606 2.122 1.147 2.153 1.563.088.993-4.93 4.939-8.528 9.36-8.535 3.032 0 5.412.87 7.41 2.722 4.552 4.22 5.77 10.1 3.536 17.075-1.502 4.689-2.774 6.974-8.352 15.01-5.556 8.005-9.066 13.318-10.735 16.249-.836 1.47-1.616 2.672-1.733 2.672-.116 0-1.868-2.41-3.893-5.355zM16.15 73.067c-2.385-3.963-4.217-7.35-4.545-8.403-.984-3.155-.612-5.713 1.043-7.162 2.376-2.082 5.897-1.318 6.693 1.451.38 1.32.767 1.288 1.42-.115.67-1.437 2.16-2.53 3.45-2.53.5 0 1.491.293 2.202.65 2.474 1.245 3.245 4.424 2.023 8.347-.345 1.109-2.008 4.234-4.199 7.891-1.994 3.33-3.626 6.158-3.626 6.283 0 .798-.91-.51-4.461-6.412zm1.648-21.204c-2.619-.857-5.243-2.976-6.434-5.196-.374-.697-.351-.821.271-1.482.965-1.024 1.508-.903 2.572.576.513.713 1.545 1.719 2.293 2.236 1.191.822 1.636.952 3.595 1.044 1.85.087 2.46 0 3.546-.528 2.633-1.272 4.214-4.038 4.202-7.35-.018-5.143-4.506-7.904-9.334-5.742l-1.74.778-.54-.666c-.298-.366-.54-.772-.54-.9 0-.13 1.76-2.284 3.912-4.789 2.152-2.504 3.803-4.663 3.67-4.797-.135-.134-2.124-.207-4.42-.163l-4.176.081-.09 1.726c-.096 1.88-.316 2.163-1.685 2.17-1.405.01-1.586-.452-1.493-3.794l.082-2.99h17.085l.09.924c.076.795-.21 1.261-2.039 3.322-4.122 4.644-4.409 5.26-2.595 5.566 1.629.274 4 1.74 4.966 3.071 1.43 1.97 1.84 3.684 1.69 7.057-.11 2.474-.263 3.23-.922 4.573-.91 1.857-2.768 3.608-4.964 4.68-1.884.92-5.157 1.197-7.002.594z" fill="#d64d4e"/><path d="M0 157.44V0h217.75v314.88H0V157.44zm212.19 156.2c1.848-.972 3.687-3.022 4.286-4.775.413-1.209.456-15.59.456-151.43V7.345l-.824-1.736c-.917-1.934-2.394-3.386-4.373-4.3L210.417.7H7.137l-1.303.68c-1.776.928-3.372 2.5-4.296 4.23L.767 7.057l-.078 149.64c-.053 103.98.016 150.08.228 151.07.609 2.866 2.79 5.295 5.639 6.28 1.366.471 7.272.496 102.8.436l101.35-.064 1.483-.78zm-24.017-24.106c-.109-.108-.197-.572-.197-1.03 0-.625.526-1.425 2.106-3.202 3.935-4.423 4.36-5.242 2.889-5.565-2.84-.623-4.78-1.982-6.024-4.22-.818-1.474-.853-1.69-.851-5.15 0-3.07.095-3.81.619-4.946.931-2.017 2.531-3.591 4.803-4.725 1.8-.899 2.296-1.017 4.263-1.017 3.788 0 6.59 1.468 8.616 4.512l1.078 1.62-.818.703c-.45.387-.916.664-1.034.617-.118-.047-.792-.796-1.497-1.664-.802-.986-1.877-1.89-2.866-2.408-1.377-.722-1.83-.815-3.466-.719-4.34.257-6.924 2.996-7.178 7.61-.114 2.065-.045 2.49.606 3.773.873 1.718 2.374 2.844 4.42 3.315 1.5.345 2.591.154 5.241-.92.752-.304 1.001-.302 1.376.01.251.209.454.591.449.85 0 .258-1.576 2.225-3.492 4.37-4.32 4.836-4.556 5.16-4.005 5.509.572.36 7.708.335 8.393-.03.458-.245.56-.615.56-2.038v-1.74l1.376.089 1.375.088v6.355l-8.272.077c-4.55.042-8.361-.012-8.47-.12zm-93.146-14.053c-3.166-.902-5.862-2.997-7.186-5.586-1.798-3.518-2.108-8.696-.792-13.248 1.542-5.334 4.22-10.043 11.573-20.35a785.611 785.611 0 0 0 6.65-9.477c1.554-2.264 2.933-4.117 3.064-4.117.13 0 1.054 1.398 2.053 3.106 1.777 3.04 4.924 7.765 11.646 17.486 5.581 8.071 7.673 12.86 7.958 18.217.094 1.767.015 3.462-.208 4.477-.558 2.53-2.168 5.325-4.092 7.103-2.206 2.038-4.113 2.764-7.254 2.764-2.068 0-2.535-.105-4.053-.912-2.723-1.448-4.52-3.877-5.283-7.137-.236-1.007-.496-1.899-.58-1.982-.425-.425-.985.337-1.436 1.956-1.302 4.672-4.737 7.712-9.001 7.966-.966.057-2.342-.062-3.058-.266zm96.195-19.828c-2.013-.503-2.956-2.115-2.956-5.052 0-1.176.218-2.46.585-3.436.706-1.883 7.924-13.917 8.347-13.917.318 0 5.533 8.538 7.147 11.7 2.573 5.042 1.724 9.717-1.945 10.703-2.103.565-4.04-.416-4.617-2.34-.459-1.527-1.155-1.502-1.708.06-.702 1.982-2.558 2.855-4.853 2.282zm-86.197-78.069a681.652 681.652 0 0 0-7.192-10.294c-6.316-8.85-8.563-12.742-10.415-18.048-.88-2.52-.927-2.872-.922-6.845 0-3.684.085-4.389.668-5.847 1.9-4.75 5.703-7.442 10.515-7.442 1.033 0 2.472.203 3.198.45 2.678.91 5.078 3.695 6.185 7.18.868 2.73 1.458 2.778 2.117.17.882-3.492 2.932-6.015 6.04-7.435 3.387-1.546 8.258-.321 11.2 2.816 2.868 3.06 4.323 7.892 3.66 12.157-.764 4.907-2.83 9.519-7.009 15.636-9.05 13.251-11.624 17.118-12.982 19.507-.835 1.47-1.6 2.67-1.702 2.669-.102 0-1.615-2.106-3.362-4.674zm-.037-92.89c-1.71-2.502-4.97-7.16-7.243-10.351-2.274-3.19-4.779-6.839-5.567-8.107-6.055-9.74-7.52-17.82-4.369-24.104 2.134-4.257 7.566-6.847 12.091-5.764 3.102.743 5.96 3.721 7.038 7.337.339 1.135.724 2.182.855 2.326.415.454 1.05-.359 1.21-1.547.22-1.63 1.423-4.084 2.69-5.482 2.25-2.485 4.962-3.437 8.314-2.918 3.813.59 6.773 2.837 8.564 6.502 1.261 2.58 1.589 4.367 1.427 7.786-.245 5.191-2.279 9.953-7.483 17.526-9.03 13.142-12.03 17.705-13.413 20.408-.264.517-.598.94-.742.94-.144 0-1.662-2.048-3.372-4.55zM16.209 72.85c-2.154-3.615-4.13-7.127-4.39-7.805-.632-1.644-.627-5.003.01-6.34.749-1.575 1.914-2.155 4.083-2.034 2.08.117 2.714.567 3.338 2.369.49 1.417.978 1.611 1.365.545.809-2.223 1.787-2.984 3.835-2.984 1.55 0 2.962.854 3.81 2.304.803 1.37.777 4.449-.058 6.743-.336.924-2.115 4.192-3.954 7.263-1.838 3.07-3.422 5.792-3.52 6.047-.099.255-.274.464-.39.464-.117 0-1.975-2.957-4.129-6.572zm1.506-21.128c-1.539-.497-3.088-1.48-4.228-2.68-2.307-2.432-2.585-3.228-1.42-4.074l.704-.51 2.11 2.122c2.428 2.443 3.75 2.994 6.501 2.71 5.856-.602 8.877-8.515 4.914-12.866-1.849-2.03-5.257-2.521-7.897-1.14-1.42.743-1.51.755-1.955.264-.256-.282-.462-.699-.457-.924.005-.226 1.698-2.36 3.763-4.744 2.065-2.383 3.721-4.528 3.68-4.767-.062-.353-.764-.448-3.836-.516-5.15-.114-5.017-.167-5.123 2.035l-.086 1.804-1.385.088-1.385.088.082-3.267.082-3.266H28.284l.081 1.011c.072.896-.155 1.273-1.983 3.293-2.367 2.615-3.744 4.436-3.744 4.95 0 .195.604.507 1.342.692 2.9.729 4.807 2.292 5.998 4.917.767 1.69.813 5.999.09 8.443-.626 2.117-2.688 4.418-5.015 5.594-1.43.722-2.072.864-4.153.915-1.353.034-2.787-.044-3.185-.173z" fill="#6b6b6b"/><path d="M0 157.44V0h217.75v314.88H0V157.44zm213.2 155.91c1.776-1.22 2.856-2.598 3.527-4.498.4-1.133.446-16.895.446-151.25 0-136.41-.042-150.11-.461-151.33-.615-1.8-2.787-4.163-4.6-5.006l-1.454-.675H6.778l-1.504.748c-1.67.83-3.32 2.547-4.14 4.307-.522 1.122-.538 5.59-.538 151.95 0 146 .017 150.83.535 151.97 1.022 2.245 3.298 4.272 5.347 4.762.5.12 46.858.198 103.02.174l102.11-.044 1.6-1.099zm-25.075-23.788c-.109-.108-.197-.572-.197-1.03 0-.625.526-1.425 2.106-3.202 3.935-4.423 4.36-5.242 2.889-5.565-2.84-.623-4.78-1.982-6.024-4.22-.818-1.474-.853-1.69-.851-5.15 0-3.07.095-3.81.619-4.946.931-2.017 2.531-3.591 4.803-4.725 1.8-.899 2.296-1.017 4.263-1.017 3.788 0 6.59 1.468 8.616 4.512l1.078 1.62-.818.703c-.45.387-.916.664-1.034.617-.118-.047-.792-.796-1.497-1.664-.802-.986-1.877-1.89-2.866-2.408-1.377-.722-1.83-.815-3.466-.719-4.34.257-6.924 2.996-7.178 7.61-.114 2.065-.045 2.49.606 3.773.873 1.718 2.374 2.844 4.42 3.315 1.5.345 2.591.154 5.241-.92.752-.304 1.001-.302 1.376.01.251.209.453.591.449.85 0 .258-1.576 2.225-3.492 4.37-4.32 4.836-4.556 5.16-4.005 5.509.572.36 7.708.335 8.393-.03.458-.245.56-.615.56-2.038v-1.74l1.375.089 1.376.088v6.355l-8.272.077c-4.55.042-8.361-.012-8.47-.12zm-93.146-14.053c-3.166-.902-5.862-2.997-7.186-5.586-1.799-3.518-2.108-8.697-.792-13.248 1.542-5.334 4.22-10.043 11.573-20.35a785.611 785.611 0 0 0 6.65-9.477c1.554-2.264 2.933-4.117 3.064-4.117.13 0 1.054 1.398 2.053 3.106 1.777 3.04 4.924 7.765 11.646 17.486 5.581 8.071 7.673 12.86 7.958 18.217.094 1.767.015 3.462-.208 4.477-.558 2.53-2.168 5.325-4.092 7.103-2.206 2.038-4.113 2.764-7.254 2.764-2.068 0-2.535-.105-4.053-.912-2.723-1.448-4.52-3.877-5.283-7.137-.236-1.007-.496-1.899-.58-1.982-.425-.425-.985.337-1.436 1.956-1.302 4.672-4.737 7.712-9.001 7.966-.966.057-2.342-.062-3.058-.266zm96.195-19.828c-2.013-.503-2.956-2.115-2.956-5.052 0-1.176.218-2.46.585-3.436.706-1.883 7.924-13.918 8.347-13.918.318 0 5.533 8.539 7.147 11.7 2.573 5.043 1.724 9.718-1.945 10.703-2.103.566-4.04-.415-4.617-2.34-.459-1.526-1.155-1.501-1.708.06-.702 1.983-2.558 2.856-4.853 2.283zm-86.197-78.069a681.652 681.652 0 0 0-7.192-10.294c-6.316-8.85-8.563-12.742-10.415-18.048-.88-2.52-.927-2.872-.922-6.845 0-3.684.085-4.389.668-5.847 1.9-4.75 5.703-7.442 10.515-7.442 1.033 0 2.472.203 3.198.45 2.678.91 5.078 3.695 6.185 7.18.868 2.73 1.458 2.778 2.117.17.882-3.492 2.932-6.015 6.04-7.435 3.387-1.546 8.258-.321 11.2 2.816 2.868 3.06 4.323 7.892 3.66 12.157-.764 4.907-2.83 9.519-7.009 15.636-9.05 13.251-11.624 17.118-12.982 19.507-.835 1.47-1.6 2.67-1.702 2.669-.102 0-1.615-2.106-3.362-4.674zm-.037-92.89c-1.71-2.502-4.97-7.16-7.243-10.351-2.274-3.19-4.779-6.839-5.567-8.107-6.055-9.74-7.52-17.82-4.369-24.104 2.134-4.257 7.566-6.847 12.091-5.764 3.102.743 5.96 3.721 7.038 7.337.339 1.135.724 2.182.855 2.326.415.454 1.05-.359 1.21-1.547.22-1.63 1.423-4.084 2.69-5.482 2.25-2.485 4.962-3.437 8.314-2.918 3.813.59 6.773 2.837 8.564 6.502 1.261 2.58 1.589 4.367 1.427 7.786-.245 5.191-2.279 9.953-7.483 17.526-9.03 13.142-12.03 17.705-13.413 20.408-.264.517-.598.94-.742.94-.144 0-1.662-2.048-3.372-4.55zM16.161 72.878c-2.154-3.615-4.13-7.127-4.39-7.805-.632-1.644-.627-5.003.01-6.34.749-1.575 1.914-2.155 4.083-2.034 2.08.117 2.714.567 3.338 2.369.49 1.417.978 1.611 1.365.545.809-2.223 1.787-2.984 3.835-2.984 1.55 0 2.962.854 3.81 2.304.803 1.37.777 4.449-.058 6.743-.336.924-2.115 4.192-3.954 7.263-1.838 3.07-3.422 5.792-3.52 6.047-.099.255-.274.464-.39.464-.117 0-1.975-2.957-4.129-6.572zm1.506-21.128c-1.539-.497-3.088-1.48-4.228-2.68-2.307-2.432-2.585-3.228-1.42-4.074l.704-.51 2.11 2.122c2.428 2.443 3.75 2.994 6.501 2.71 5.856-.602 8.877-8.515 4.914-12.866-1.849-2.03-5.257-2.521-7.897-1.14-1.42.743-1.51.755-1.955.264-.256-.282-.462-.699-.457-.924.005-.226 1.698-2.36 3.763-4.744 2.065-2.383 3.721-4.528 3.68-4.767-.062-.353-.764-.448-3.836-.516-5.15-.114-5.017-.167-5.123 2.035l-.086 1.804-1.385.088-1.385.088.082-3.267.082-3.266H28.236l.081 1.011c.072.896-.155 1.273-1.983 3.293-2.367 2.615-3.744 4.436-3.744 4.95 0 .195.604.507 1.342.692 2.9.729 4.807 2.292 5.998 4.917.767 1.69.813 5.999.09 8.443-.626 2.117-2.688 4.418-5.015 5.594-1.43.722-2.072.864-4.153.915-1.353.034-2.787-.044-3.185-.173z" fill="#d22d2f"/><path d="M0 157.44V0h217.75v314.88H0V157.44zm213.2 155.91c1.776-1.22 2.856-2.598 3.527-4.498.4-1.133.446-16.895.446-151.25 0-136.41-.042-150.11-.461-151.33-.615-1.8-2.787-4.163-4.6-5.006l-1.454-.675H6.778l-1.504.748c-1.67.83-3.32 2.547-4.14 4.307-.522 1.122-.538 5.59-.538 151.95 0 146 .017 150.83.535 151.97 1.022 2.245 3.298 4.272 5.347 4.762.5.12 46.858.198 103.02.174l102.11-.044 1.6-1.099zm-24.983-24.77c0-.685.47-1.41 2.107-3.25 4.373-4.917 4.545-5.406 2.094-5.953-3.226-.72-5.575-3.235-6.227-6.666-.405-2.129.098-6.004 1.013-7.806.744-1.464 2.528-3.179 4.198-4.034 1.488-.762 4.212-1.248 5.753-1.026 2.906.418 6.172 2.65 7.43 5.078.479.923.474.957-.184 1.452-.67.505-.686.496-2.566-1.45-2.25-2.328-4.005-3.083-6.557-2.82-4.374.45-7.368 4.305-6.99 9 .19 2.374 1.078 4.025 2.722 5.065 2.474 1.566 4.494 1.632 7.861.256.821-.335.992-.33 1.227.04.15.236.27.56.268.718 0 .16-1.576 2.044-3.497 4.19-3.94 4.398-4.436 5.048-4.172 5.475.251.405 9.028.41 9.279.01.1-.163.257-1.008.347-1.878l.163-1.581h2.236v6.066H188.217v-.881zm-72.39-13.144c-3.08-.963-5.624-3.97-6.56-7.752-.268-1.082-.662-2.033-.876-2.115-.6-.23-1.17.407-1.385 1.551-.641 3.408-3.715 7.182-6.53 8.016-5.071 1.502-10.383-.98-12.741-5.955-2.609-5.502-1.548-12.605 3.118-20.885 1.76-3.124 2.298-3.927 8.03-11.988 2.09-2.94 5.024-7.131 6.52-9.316 1.495-2.185 2.803-3.972 2.906-3.972.103 0 .559.682 1.013 1.516 1.23 2.258 3.768 6.218 6.895 10.761 9.45 13.728 11.335 16.885 12.59 21.088 1.33 4.453 1.437 6.978.446 10.544-1.743 6.272-7.966 10.215-13.426 8.508zm74.707-20.284c-2.41-1.298-2.878-5.068-1.094-8.792 1.078-2.253 7.366-12.753 7.7-12.86.185-.058 2.613 3.91 5.955 9.734 3.054 5.32 3.325 9.22.79 11.348-.991.832-2.52 1.246-3.599.976-1.005-.252-2.21-1.493-2.409-2.48-.37-1.848-1.606-1.79-1.96.094-.4 2.121-3.205 3.154-5.383 1.98zm-82.606-73.523c-.183-.476-7.6-11.204-11.595-16.77-7.103-9.897-9.854-16.216-9.85-22.617.01-6.722 3.174-11.301 8.762-12.668 3.109-.76 5.827-.173 8.109 1.75 1.42 1.197 3.036 3.83 3.616 5.891.744 2.645 1.946 2.708 2.301.121.43-3.13 3.428-6.827 6.31-7.782 2.192-.726 5.483-.476 7.52.572 5.197 2.673 7.917 9.218 6.49 15.618-1.074 4.816-3.098 8.974-7.38 15.168-6.316 9.133-11.55 17.002-12.63 18.992-1.158 2.13-1.4 2.382-1.652 1.725zm-2.397-96.469c-1.424-2.102-4.403-6.359-6.62-9.46-8.889-12.442-11.44-17.358-12.383-23.864-.933-6.435 1.668-12.229 6.486-14.448 1.604-.738 2.146-.838 4.57-.838 2.462 0 2.89.081 4.07.774 2.563 1.503 4.364 3.956 5.308 7.228.261.906.592 1.718.734 1.807.63.387 1.17-.272 1.49-1.817 1.31-6.335 6.535-9.654 12.4-7.877 5.394 1.635 9.1 8.263 8.183 14.638-.77 5.353-2.951 9.967-8.488 17.95-5.599 8.073-10.374 15.281-11.68 17.631-.638 1.146-1.231 2.087-1.32 2.09-.088 0-1.326-1.712-2.75-3.814zm-86.278-7.504c-.45-.827-1.75-3.004-2.885-4.839-4.3-6.944-5.325-9.443-4.96-12.096.36-2.617 1.836-3.915 4.411-3.876 1.652.025 2.573.639 3.016 2.011.714 2.211 1.183 2.315 2.082.46.842-1.735 1.938-2.542 3.403-2.504 1.596.042 2.932.912 3.719 2.422.572 1.098.651 1.585.525 3.227-.082 1.063-.456 2.692-.832 3.62-.551 1.362-7.353 13.08-7.592 13.08-.037 0-.436-.677-.887-1.504zm-.43-25.936c-.716-.123-1.789-.426-2.383-.674-1.345-.56-3.71-2.74-4.438-4.089-.548-1.015-.548-1.016.114-1.667l.662-.65.923 1.153c2.301 2.873 3.869 3.746 6.715 3.737 4.691-.014 7.688-3.28 7.668-8.357-.012-3.173-1.328-5.296-3.967-6.4-1.539-.642-4.23-.497-5.84.317-1.049.53-1.48.624-1.729.376-.741-.74-.665-.85 4.95-7.255 2.1-2.393 2.74-3.636 1.886-3.658-3.29-.085-8.66 0-8.891.146-.167.103-.303.966-.303 1.92v1.732l-1.23-.089-1.231-.089V22.396l8.187-.077c7.24-.068 8.208-.024 8.363.38.27.7-.24 1.517-2.516 4.03-2.513 2.775-3.587 4.322-3.377 4.867.085.222.645.495 1.244.607 2.741.514 4.853 2.191 5.992 4.761 1.177 2.655.916 7.527-.538 10.03-1.942 3.344-6.387 5.39-10.26 4.725z" fill="#cd0504"/><path d="M0 157.44V0h217.75v314.88H0V157.44zm213.2 155.91c1.776-1.22 2.856-2.598 3.527-4.498.4-1.133.446-16.895.446-151.25 0-136.41-.042-150.11-.461-151.33-.615-1.8-2.787-4.163-4.6-5.006l-1.454-.675H6.778l-1.504.748c-1.67.83-3.32 2.547-4.14 4.307-.522 1.122-.538 5.59-.538 151.95 0 146 .017 150.83.535 151.97 1.022 2.245 3.298 4.272 5.347 4.762.5.12 46.858.198 103.02.174l102.11-.044 1.6-1.099zm-23.629-24.369c-.302-.085-.462-.32-.375-.547.084-.22.028-.476-.125-.57-.368-.228 2.669-3.356 3.099-3.192.5.19.693-.136.4-.68-.309-.578.925-2.33 1.64-2.33.367 0 .415-.226.259-1.201-.249-1.552-.418-1.795-.943-1.36-.345.285-.615.267-1.35-.09-.505-.246-1.31-.62-1.787-.83-1.083-.478-2.751-2.264-2.751-2.944 0-.28-.11-.509-.243-.509-.134 0-.395-.331-.58-.736-.402-.882-.45-5.996-.061-6.706.15-.276.352-.99.447-1.586.096-.597.368-1.247.605-1.445.237-.198.62-.529.85-.735.229-.206.648-.336.93-.289.38.064.49-.077.427-.538-.094-.683.877-1.542 1.743-1.542.283 0 .515-.115.515-.255 0-.344 1.18-.634 1.57-.387.172.109 1.502.156 2.955.104 2.354-.084 2.687-.032 3.04.47.22.31.689.654 1.044.766 1.182.373 2.885 2.255 3.095 3.418.15.84.1 1.084-.222 1.084-.446 0-.898-.777-.8-1.375.031-.2-.274-.49-.681-.643-.407-.155-.723-.381-.703-.504.115-.702-.077-.97-.58-.81-.302.095-.726.01-.942-.2-.826-.789-2.132-1.124-4.12-1.06-1.342.043-2.07-.05-2.144-.271-.125-.375-1.512-.472-1.512-.106 0 .127.144.375.32.55.235.235.099.458-.506.833a13.73 13.73 0 0 0-1.644 1.255c-.755.687-.837.704-1.103.23-.389-.691-.831-.358-.831.625 0 .44-.08.88-.176.977-.097.096-.223 1.126-.28 2.287a233.817 233.817 0 0 1-.213 3.7c-.115 1.678.2 3.034.642 2.761.145-.089.579.211.964.668.386.457.984.982 1.33 1.167.345.184.628.507.628.717 0 .503 3.722.865 4.778.465.941-.357 3.62-.382 3.62-.034 0 .14-.522.725-1.159 1.3-.637.573-1.158 1.145-1.158 1.269 0 .124-.228.43-.507.681-.632.57-3.435 3.598-4.451 4.81-.754.898-.756.909-.187 1.423.489.441 1.19.524 4.798.569 2.324.028 4.445-.065 4.714-.21.269-.142.575-.718.68-1.279.105-.56.342-1.019.526-1.019.245 0 .242-.092-.013-.346-.51-.51-.423-1.098.162-1.098.79 0 1.186.925 1.186 2.765 0 2.285-.28 2.724-1.733 2.724-.932 0-1.206-.12-1.327-.578-.185-.708-.542-.741-.911-.083-.226.402-.823.516-3.2.611-2.853.115-2.922.102-2.922-.518 0-.386-.142-.584-.362-.503-.199.073-.322.3-.273.506.07.295-.011.291-.384-.018-.344-.285-.528-.302-.677-.062-.232.376-2.24.677-3.03.454zm7.622-10.047c0-.434-.52-.895-.75-.665-.202.201.198 1.081.492 1.081.142 0 .258-.187.258-.416zm-100.58-3.774c-.28-.204-.77-.302-1.093-.218-.587.153-1.808-.335-2.521-1.008-.21-.199-.633-.361-.939-.361-.317 0-.836-.434-1.21-1.01-.36-.556-.882-1.084-1.16-1.175-.28-.091-.507-.292-.507-.447 0-.155-.247-.545-.548-.867-.3-.322-.701-1.194-.89-1.938-.189-.744-.47-1.588-.626-1.877-.155-.289-.198-1.086-.095-1.771.122-.814.072-1.318-.145-1.451-.38-.235-.116-4.156.311-4.616.14-.15.255-.64.255-1.087 0-.782.086-1.039.824-2.462.184-.355.335-.835.335-1.065 0-.747 4.12-8.406 4.908-9.122.087-.079.406-.6.708-1.155.778-1.432 1.382-2.066 1.812-1.9.204.077.448.017.542-.135.094-.152.033-.276-.135-.276-.169 0-.307-.195-.307-.434 0-.238.235-.433.521-.433.72 0 1.217-.563 1.217-1.377 0-.89.497-1.8.984-1.8.688 0 1.911-1.484 1.911-2.32 0-.438.186-.868.413-.955.228-.087.676-.75.998-1.475.332-.75.778-1.317 1.034-1.317.248 0 .45-.24.45-.533 0-.293.261-.768.58-1.056.318-.288.58-.672.58-.854 0-.54 1.765-2.773 2.052-2.597.145.09.263-.156.263-.545 0-.39.205-.787.455-.882.512-.197 1.839.65 1.853 1.182 0 .191.33.667.721 1.058.392.39.802 1.08.912 1.53.11.45.645 1.28 1.187 1.844.543.564 1.142 1.3 1.332 1.637 1.108 1.962 2.273 3.808 2.454 3.89.318.142 1.51 1.908 1.51 2.237 0 .62.996 2.333 1.356 2.333.537 0 2.12 2.27 2.12 3.041 0 .656.642 1.421.942 1.122.207-.207 2.532 3.251 2.532 3.766 0 .208.203.546.451.751.248.205.643.774.877 1.263.234.49.621 1.215.862 1.612.26.43.384 1.131.308 1.733-.07.556-.067.856.01.666.25-.628.968-.04.968.792 0 .45.13.9.29.998.16.098.29.488.29.866 0 .379.11.757.246.84.405.25.99 4.311.818 5.685-.271 2.178-.542 3.28-.916 3.73-.198.239-.451.815-.563 1.281-.185.774-.933 1.897-2.048 3.077-.238.251-.44.576-.45.722-.04.676-3.395 2.72-4.463 2.72-.384 0-.779.13-.877.289-.35.565-3.608.33-4.883-.352-2.71-1.45-4.863-3.784-4.312-4.673.09-.145.013-.171-.171-.058-.38.234-.37.27-.49-1.808-.092-1.598-.36-2.02-1.94-3.052-.776-.507-.778-.507-1.367.456-.324.531-.59 1.331-.59 1.778 0 .925-.478 1.966-1.057 2.307-.216.127-.392.415-.392.64 0 .224-.264.55-.587.722-.323.172-.523.417-.445.544.193.31-1.54 2.052-2.043 2.052-.22 0-.4.13-.4.288 0 .16-.197.29-.438.29s-.701.162-1.022.36c-.48.297-.631.286-.847-.06-.23-.368-.331-.364-.788.027-.798.685-1.365.8-1.925.392zm24.421-.865c0-.238-.122-.433-.272-.433-.365 0-.627.45-.395.681.326.326.667.199.667-.248zm-28.272-3.467c.194-.503-.056-1.3-.408-1.3-.41 0-.611.555-.42 1.158.218.682.596.747.828.142zm32.524-.776c-.092-.23-.16-.162-.175.175-.013.304.056.475.153.379.096-.096.106-.345.023-.554zm-20.757-.507c0-.308-.115-.631-.256-.719-.353-.217-.996.606-.765.979.317.511 1.021.332 1.021-.26zM90.051 268.5c0-.476-.457-.557-.724-.127-.236.381.11.922.455.71.148-.091.27-.354.27-.583zm21.138-4.171a.29.29 0 0 0-.579 0 .29.29 0 0 0 .58 0zm-2.606-.595c0-.15-.13-.272-.29-.272-.159 0-.289.203-.289.45 0 .248.13.37.29.272.159-.098.29-.3.29-.45zm19.401-5.183a.29.29 0 0 0-.579 0 .29.29 0 0 0 .58 0zm-36.36-4.59c.087-.14-.035-.416-.272-.612-.359-.297-.431-.254-.431.256 0 .62.411.828.703.357zm8.973-14.373c.1-.261.12-.537.043-.614-.27-.268-1.033.21-1.033.646 0 .592.759.567.99-.032zm15.849-1.403c0-.151-.14-.321-.311-.378-.172-.057-.312.113-.312.378s.14.435.312.378c.17-.057.31-.227.31-.378zm-3.284-5.272c-.117-.609-.631-.57-.762.057-.055.262.105.448.383.448.298 0 .44-.189.38-.505zm-7.763-2.095a.29.29 0 0 0-.579 0 .29.29 0 0 0 .58 0zm87.064 24.231c-.29-.168-.838-.228-1.217-.133-.842.21-1.875-.763-1.875-1.768 0-.37-.156-.922-.348-1.227-.275-.44-.264-.712.052-1.302.308-.573.321-.825.06-1.087-.416-.415-.455-.907-.053-.659.17.105.293-.215.298-.777 0-.526.322-1.54.706-2.256a199.17 199.17 0 0 0 1.44-2.744c.407-.794 1.066-1.822 1.465-2.284.398-.461.724-1.005.724-1.207 0-.202.163-.54.362-.75.2-.21.546-.736.77-1.17.225-.435.63-1.028.902-1.319.272-.29.646-.813.833-1.16.486-.906.754-.8 1.798.714.82 1.19.892 1.444.614 2.178-.297.785-.266.842.533 1.001.467.093.848.334.848.536 0 .201.176.433.39.515.44.169 1.927 2.86 1.927 3.487 0 .225.178.477.397.56.218.084.688.753 1.044 1.486.51 1.05.669 1.962.747 4.284.054 1.623.03 2.788-.055 2.59-.288-.674-.695-.366-.63.476.085 1.119-.545 1.848-1.41 1.631-.483-.12-.672-.045-.672.27 0 .716-1.857.558-2.783-.237-.687-.589-.78-.867-.734-2.175.052-1.476-.308-2.637-.818-2.637-.143 0-.301.357-.352.794-.055.473-.267.794-.526.794-.258 0-.47-.321-.526-.794-.202-1.755-1.28-.315-1.205 1.608.08 2.02.024 2.189-.86 2.645-.999.516-1.143.525-1.845.117zm6.074-15.144c.094-.245.093-.523 0-.618-.25-.25-1.08.503-.89.808.246.399.703.302.893-.19zm-91.064-59.813c-.454-.317-.605-.689-.554-1.36.06-.778-.021-.914-.525-.864-.397.04-.775-.241-1.127-.837-.292-.493-.391-.81-.22-.704.171.105.39.065.486-.09.29-.47-.51-1.444-1.435-1.75-.872-.288-2.176-2.008-2.612-3.445-.117-.386-.66-1.16-1.207-1.722-.759-.78-.953-1.183-.821-1.705.145-.578.085-.657-.387-.508-.653.207-2.148-1.492-2.467-2.803-.106-.437-.388-.794-.627-.794-.39 0-.971-.987-1.414-2.402-.09-.288-.289-.447-.441-.353-.152.094-.418-.093-.591-.415-.253-.47-.227-.586.13-.586.534 0 .591-.737.082-1.066-.2-.128-.621-.234-.938-.234-.413 0-.681-.317-.946-1.118-.202-.616-.703-1.515-1.111-2-.602-.713-.708-1.067-.558-1.864.156-.826.092-1.009-.391-1.135-.34-.089-.909-.822-1.383-1.783-.693-1.4-.823-2.063-.918-4.666-.06-1.668-.227-3.156-.371-3.307-.364-.383-.327-3.337.057-4.521 1.008-3.11 2.588-5.524 4.085-6.239.6-.286 1.093-.615 1.095-.73.01-.314 1.63-1.09 2.281-1.09.314 0 .632.162.709.36.092.24.303.138.631-.306.45-.61.635-.65 2.13-.467 2.004.246 2.75.511 3.48 1.241.31.31.805.609 1.098.664.293.056.575.393.626.749.055.385.295.647.593.647.6 0 1.196.542 1.196 1.088 0 .217.326.82.724 1.342.398.52.724 1.298.724 1.728 0 .827.741 2.497 1.255 2.827.449.288 1.35-.282 1.355-.857 0-.5.102-.7 1.491-3.066.456-.775.709-1.552.618-1.898-.084-.323-.04-.586.099-.586s.426-.39.637-.867c.234-.526.602-.867.937-.867.304 0 .716-.274.917-.61.595-.996 2.623-1.7 4.895-1.7 2.022 0 3.083.317 3.519 1.053.127.215.518.393.869.395.917.01 1.409.4 1.195.958-.102.265-.052.482.11.482.163 0 .348-.154.411-.343.073-.22.317-.123.676.268 1.128 1.23 1.275 1.498 1.087 1.987-.141.368-.076.455.246.332.565-.217 1.141.76 2.125 3.6.662 1.913.747 2.541.624 4.613-.167 2.828-.458 4.565-.764 4.565-.121 0-.382.617-.58 1.372-.489 1.868-1.98 4.901-2.509 5.104-.291.111-.368.365-.236.78.132.415.091.551-.125.418-.2-.124-.32.066-.32.511 0 .39-.324 1.015-.72 1.39-.395.374-.723.875-.73 1.113-.01.238-.46 1.018-1.007 1.733a115.74 115.74 0 0 0-2.143 2.927c-.632.894-1.68 2.183-2.328 2.863-.65.68-1.18 1.49-1.18 1.799 0 .308-.293.927-.651 1.374-.359.447-1.09 1.55-1.626 2.45-.75 1.259-1.1 1.604-1.52 1.495-.448-.117-.514-.023-.373.535.122.487-.131 1.13-.9 2.286-.588.885-1.262 1.715-1.496 1.846-.418.234-.949 1.026-1.511 2.258-.407.89-.72 1.001-1.43.505zm1.204-3.41c.086-.223.08-.482-.015-.575-.248-.248-.97.42-.782.724.236.381.62.31.797-.15zm3.092-2.322c0-.07-.13-.208-.29-.306-.16-.098-.29-.041-.29.127s.13.306.29.306c.16 0 .29-.057.29-.127zm-6.66-2.293c0-.06-.196-.27-.435-.469-.355-.294-.434-.275-.434.11 0 .257.196.468.434.468.24 0 .435-.049.435-.109zm11.293-7.87c0-.237-.13-.352-.29-.254-.16.098-.29.374-.29.612s.13.353.29.255c.16-.098.29-.374.29-.612zm1.403-1.683c.064-.33-.04-.469-.29-.386-.214.071-.434.361-.49.645-.063.329.04.468.29.385.214-.071.435-.361.49-.644zm-20.674-2.207a.322.322 0 1 0-.105.443.322.322 0 0 0 .105-.443zm24.718-1.636c-.118-.609-.632-.57-.763.057-.055.262.105.449.384.449.298 0 .44-.19.379-.506zm-.42-26.793c-.091-.238-.298-.433-.46-.433-.17 0-.142.183.067.433.198.238.405.433.46.433.055 0 .025-.195-.066-.433zm-26.525-.65c.171-.52-.657-.445-1.11.1-.336.403-.297.448.303.361.378-.055.741-.262.807-.46zm12.54-43.754c-.147-.363-.339-.996-.426-1.406-.089-.419-.477-.89-.888-1.077-.547-.248-.731-.552-.731-1.205s-.133-.873-.53-.873c-.615 0-1.36-1.21-1.123-1.825.116-.3.01-.38-.386-.277-.415.108-.671-.126-1.064-.972-.284-.613-.745-1.284-1.023-1.492-.28-.207-.507-.54-.507-.74 0-.199-.267-.648-.594-.998-.327-.35-.51-.77-.41-.934.256-.412-.648-1.717-1.188-1.717-.505 0-1.84-1.406-1.853-1.952 0-.2-.27-.587-.588-.86-.319-.271-.58-.768-.58-1.104 0-.335-.097-.707-.216-.826a1 1 0 0 1-.254-.482l-.072-.526c-.02-.144-.264-.203-.543-.13-.363.093-.654-.179-1.028-.967a39.314 39.314 0 0 0-1.377-2.541c-.905-1.528-1.156-2.03-1.77-3.539-.21-.516-.482-.939-.604-.939-.254 0-1.43-2.5-1.947-4.136-.191-.607-.388-1.842-.438-2.745-.05-.902-.248-2.255-.44-3.005-.335-1.302-.263-2.235.412-5.37.216-1.002 1.12-2.943 1.37-2.943.121 0 .618-.576 1.103-1.28.52-.753 1.15-1.318 1.534-1.372.402-.057.624-.266.578-.546-.087-.539 2.313-1.713 3.5-1.713.43 0 1.03-.155 1.334-.345.43-.267.724-.267 1.313 0 .417.19 1.137.345 1.6.345 1.086 0 2.316.562 2.316 1.058 0 .212.191.386.425.386.233 0 .893.412 1.467.914.818.716 1.006 1.06.872 1.594-.134.533-.023.736.52.941.445.17.752.576.867 1.15.27 1.346 1.324 3.498 1.803 3.681.588.225 1.214-.363 1.43-1.342.1-.453.384-.9.633-.996.353-.135.412-.43.269-1.324-.118-.736-.073-1.151.123-1.151.17 0 .442-.381.605-.848.323-.925 1.432-1.81 2.569-2.049.514-.108.718-.334.702-.783-.016-.469.258-.743 1.067-1.065 1.487-.594 4.752-.913 5.013-.49.111.178.512.324.891.324.38 0 .77.13.869.289.098.159.464.293.813.298.35.01.872.189 1.162.408.493.373.495.416.032.675-.654.365-.237 1.027.522.829.76-.199 3.07 2.097 3.308 3.29.094.47.286.855.425.855.14 0 .253.3.253.665 0 .365.109.788.241.939.472.538.917 2.68.905 4.352-.014 1.878-.468 3.81-1.228 5.224-.273.508-.497 1.292-.497 1.741 0 .46-.253 1.033-.579 1.312-.353.3-.579.852-.579 1.409 0 .52-.3 1.307-.697 1.826-.384.502-.908 1.414-1.164 2.027-.257.612-.725 1.294-1.04 1.514-.316.22-.574.588-.574.818 0 .23-.26.417-.579.417-.448 0-.579.192-.579.854 0 .839-2.1 4.057-2.648 4.057-.136 0-.248.21-.248.468 0 .38-.08.402-.427.115-.35-.29-.59-.19-1.332.55-.742.74-.842.98-.551 1.329.448.539-.107 2.039-.914 2.47-.297.158-.54.472-.54.698 0 .364-.99 2.063-1.702 2.919-.145.173-.484.741-.754 1.262-.27.52-.902 1.548-1.406 2.284-1.144 1.671-1.485 2.22-2.217 3.566-.32.591-.843 1.213-1.162 1.383-.485.26-.623.202-.848-.35zm.98-3.14a.322.322 0 1 0-.105.443.322.322 0 0 0 .105-.444zm3.345-3.732a.29.29 0 0 0-.579 0 .29.29 0 0 0 .58 0zm-15.202-13.24c0-.522-.567-.427-.679.115-.062.3.046.433.29.352.214-.071.39-.281.39-.467zm-1.013-2.359a.29.29 0 0 0-.58 0 .29.29 0 0 0 .58 0zm-6.196-8.01c-.294-.294-.537.148-.295.538.182.295.25.295.348 0 .067-.2.043-.443-.053-.54zm37.17-11.272c0-.12-.219-.477-.474-.795-.408-.507-.442-.513-.28-.049.1.291.183.649.183.795 0 .146.13.265.29.265.16 0 .285-.098.28-.217zm-2.362-5.254c.072-.217-.036-.325-.254-.253a.906.906 0 0 0-.506.506c-.072.216.036.325.253.252a.906.906 0 0 0 .507-.505zm-31.508-.18c0-.247-.133-.368-.295-.269-.161.1-.219.303-.127.45.248.401.422.327.422-.18zm29.342-.54c.187-.486-.537-1.2-.796-.783-.206.333.09 1.196.41 1.196.125 0 .299-.186.386-.412zM19.47 77.51c-.432-.928-.474-1.564-.063-.951.252.375.349.357.72-.128.514-.673.578-1.292.081-.797-.513.512-.928.428-1.782-.362-.585-.54-.766-.984-.766-1.877 0-.643-.13-1.17-.29-1.17-.159 0-.29.15-.29.334 0 .184-.325-.044-.723-.505-.845-.98-.88-1.152-.277-1.382.703-.27-.021-1.39-.827-1.278-.5.069-.764-.184-1.253-1.2-.34-.709-.554-1.456-.476-1.662.08-.205-.034-.373-.25-.373-.547 0-1.238-1.674-1.161-2.813.035-.518-.07-.942-.235-.942-.624 0-.316-2.4.45-3.502.674-.97.844-1.06 1.737-.916.958.155 1.414-.274.627-.59-.2-.08.204-.157.896-.17.82-.014 1.54.177 2.065.55.842.599 1.299 1.622.847 1.9-.405.25 1.427 1.653 1.915 1.466.237-.091.43-.429.43-.751 0-.395.19-.587.58-.587.356 0 .58-.195.583-.506.01-.866 1.348-1.867 2.624-1.962.775-.058 1.221.043 1.32.297.08.212.445.46.809.551.455.114.821.582 1.172 1.498.9 2.353 0 6.473-1.744 7.987-.391.339-.71.808-.71 1.042 0 .625-1.349 3.361-1.87 3.792-.246.204-.447.524-.447.711 0 .519-.694 1.895-.956 1.898-.128 0-.423.457-.656 1.013-.232.556-.536 1.011-.675 1.011-.138 0-.32.26-.403.578-.208.794-.572.72-1.002-.204zm5.492-12.56c-.443-.44-.769-.115-.524.523.145.376.27.414.528.157s.257-.419-.005-.68zm92.847 7.805c.137-.37.488-.72.78-.778.491-.097.498-.055.087.562-.626.94-1.187 1.08-.868.216zM18.135 51.226c-.11-.11-.487-.244-.838-.297-.35-.053-.741-.283-.869-.51-.127-.227-.403-.348-.613-.267-.21.08-.76-.244-1.223-.72-.78-.803-1.07-1.135-2.092-2.405-.297-.369-.307-.614-.048-1.098l.335-.624.711.667c.392.367.687.932.656 1.255-.03.324.042.813.162 1.088.176.407.328.441.816.18.477-.254.67-.224.944.15.19.259.532.47.761.47.23 0 .574.157.766.348.228.227 1.142.321 2.635.27 1.389-.047 2.362.043 2.477.23.305.492 1.024.355 1.04-.198.006-.278.647-.957 1.423-1.508 2.128-1.512 3.188-3.815 3.218-6.989.013-1.324.09-2.245.17-2.045.183.454.676.18.676-.377 0-.255-.247-.386-.65-.344-.468.05-.676-.101-.738-.536-.125-.86-1.844-2.583-3.304-3.31-.773-.385-1.737-.606-2.547-.586-.716.018-1.661-.114-2.1-.295-.606-.25-.897-.246-1.217.02-.461.381-1.029.177-1.022-.368.002-.19.522-.93 1.154-1.644.632-.715 1.151-1.389 1.154-1.497.002-.109.265-.28.583-.38.319-.102.585-.338.591-.526.022-.648 3.402-4.038 3.854-3.865.236.091.5-.018.586-.24.19-.495.047-.584-1.339-.834-.597-.107-1.086-.312-1.086-.455 0-.257-.375-.245-4.633.155-1.73.163-2.103.131-1.832-.156.458-.488.16-1.157-.515-1.157-.61 0-.676.22-.262.866.224.351.072.461-.8.578-1.073.144-1.08.153-1.224 1.714-.13 1.417-.222 1.59-.94 1.78l-.797.211v-2.306c0-1.724.116-2.423.46-2.766.392-.39.5-.399.724-.052.21.323.313.332.501.04.184-.282 1.789-.348 7.018-.288 6.44.074 6.786.105 6.888.636.06.307-.126.73-.413.939-.287.21-.432.38-.323.38.272 0-.81 1.298-2.546 3.057-2.363 2.392-3.02 4.21-1.674 4.626.282.088.74.28 1.016.427.276.147.78.268 1.121.268.53 0 .565.065.24.455-.314.377-.308.5.037.717.275.173.519.124.721-.146.535-.71 2.056.803 3.179 3.163.865 1.818 1.003 2.404 1 4.232-.006 2.417-.534 4.546-1.082 4.362-.234-.079-.362.173-.362.71 0 .597-.35 1.173-1.248 2.052-1.183 1.158-1.795 1.352-1.452.459.276-.717-.668-.436-1.003.299-.266.58-.24.72.143.794.322.063.207.212-.377.485-.462.218-1.067.51-1.344.65-.592.3-4.955.347-5.247.055zm8.79-3.266c0-.16-.057-.29-.127-.29s-.208.13-.307.29c-.098.158-.04.288.128.288.169 0 .307-.13.307-.288zm2.401-5.2c-.083-.318-.201-.578-.262-.578-.062 0-.111.26-.111.578 0 .318.118.578.262.578.144 0 .194-.26.111-.578zm-12.392-7.802c-.1-.16.03-.37.285-.469.554-.212.863.022.597.452-.24.388-.647.396-.882.017z" fill="#d40000"/><path d="M0 157.44V0h217.75v314.88H0V157.44zm213.2 155.91c1.776-1.22 2.856-2.598 3.527-4.498.4-1.133.446-16.895.446-151.25 0-136.41-.042-150.11-.461-151.33-.615-1.8-2.787-4.163-4.6-5.006l-1.454-.675H6.778l-1.504.748c-1.67.83-3.32 2.547-4.14 4.307-.522 1.122-.538 5.59-.538 151.95 0 146 .017 150.83.535 151.97 1.022 2.245 3.298 4.272 5.347 4.762.5.12 46.858.198 103.02.174l102.11-.044 1.6-1.099z" fill="#030303"/></svg>