<svg xmlns="http://www.w3.org/2000/svg" height="335.872" width="232.277" viewBox="0 0 217.76 314.88"><path d="M0 157.44V0h217.76v314.88H0V157.44z" fill="#fdfdfd"/><path d="M0 157.44V0h217.76v314.88H0V157.44zm211.88 155.77c1.56-.831 3.003-2.271 3.718-3.71.552-1.11.562-3.422.634-151.58l.073-150.45-.611-1.416c-.342-.794-1.221-1.987-1.997-2.71-2.59-2.418 7.892-2.207-105.55-2.124l-101.05.074-1.483.78c-1.61.847-2.677 1.954-3.67 3.808l-.639 1.19-.073 149.92c-.066 135.52-.03 150.07.381 151.48.571 1.958 2.835 4.345 4.768 5.027 1.173.414 10.902.452 102.79.407l101.49-.05 1.223-.652zM3.66 299.073c-.326-.325-.199-.666.25-.666.238 0 .433.122.433.272 0 .364-.452.625-.683.394zm187.25-7.96c-.129-.199-.3-4.651-.379-9.894l-.145-9.533-1.44-.091c-1.816-.115-2.18-.422-2.18-1.842 0-1.883.362-2.256 2.183-2.256h1.582v-1.714c0-1.652-.029-1.718-.791-1.806-.983-.113-1.488-1.282-1.068-2.474l.28-.795h8.094v3.178l-1.013.144c-1.012.144-1.014.148-1.1 1.806l-.088 1.66h5.748c4.084 0 5.848.101 6.095.348.191.19.348 1.04.348 1.887 0 1.526-.065 1.64-6.556 11.425-3.606 5.436-6.7 9.98-6.877 10.096-.527.349-2.44.25-2.693-.14zm7.462-14.457c1.697-2.575 3.03-4.78 2.962-4.898-.068-.12-1.55-.217-3.292-.217h-3.168v5.104c0 2.806.093 5.01.206 4.898.114-.113 1.595-2.313 3.292-4.887zm-154.94.556c-5.036-1.098-8.667-5.04-9.572-10.392-.79-4.667.169-9.794 2.87-15.364 1.854-3.824 3.56-6.53 8.23-13.058 4.084-5.71 10.166-14.516 10.655-15.427.446-.83 1.387-.659 1.947.354 2.27 4.107 5.843 9.596 12.389 19.04 3.752 5.413 5.6 8.463 6.766 11.17 2.862 6.64 3.101 12.489.704 17.209-1.15 2.261-3.848 4.91-5.988 5.874-2.528 1.14-6.15 1.331-8.194.432-3.197-1.406-5.167-3.5-6.365-6.767-.522-1.424-.692-1.66-.86-1.197-1.65 4.555-4.143 7.14-7.793 8.079-2.002.514-2.62.52-4.789.048zm103.98.097c-1.972-.408-4.779-1.84-6.24-3.184-1.587-1.459-3.212-4.585-3.672-7.061-.537-2.894-.155-7.642.863-10.727 1.746-5.291 4.04-9.269 10.805-18.74a672.195 672.195 0 0 0 7.16-10.25c1.784-2.619 3.405-4.853 3.604-4.964.576-.322.918.061 2.034 2.28.933 1.853 5.84 9.284 13.49 20.43 3.292 4.795 4.655 7.37 5.978 11.294 2.397 7.105 1.43 13.214-2.781 17.59-2.375 2.467-4.439 3.406-7.861 3.576-2.224.11-2.687.04-4.116-.611-3.068-1.402-4.972-3.47-6.15-6.679-.51-1.39-.684-1.634-.841-1.176-2.058 5.979-7.025 9.307-12.272 8.223zm42.1-20.051c-2.245-.827-3.18-2.778-2.981-6.215.157-2.71.863-4.323 4.46-10.19a428.808 428.808 0 0 0 3.67-6.086c.736-1.265 1.301-1.934 1.586-1.878.475.093 6.333 9.646 8.114 13.231 1.028 2.068 1.077 2.3 1.077 5.076 0 2.706-.057 2.994-.815 4.139-.91 1.373-2.635 2.324-4.233 2.334-1.32.01-3.462-1.052-3.853-1.908-.397-.87-.607-.862-1.088.035-.212.396-.702.926-1.088 1.179-1 .653-3.455.796-4.849.283zm-29.736-167.79c-.243-.196-1.984-2.631-3.868-5.412a510.107 510.107 0 0 0-6.751-9.677c-6.42-8.924-8.908-13.227-10.794-18.675-.89-2.571-.937-2.913-.945-7.035-.01-4.125.031-4.429.82-6.31 1.54-3.672 4.081-6.076 7.695-7.278 2.049-.682 4.909-.68 6.95 0 2.66.891 5.594 4.262 6.792 7.806.156.46.301.268.715-.949.637-1.877 2.263-4.266 3.642-5.355.569-.448 1.758-1.146 2.644-1.55 1.43-.654 1.893-.722 4.152-.614 3.34.16 5.625 1.225 7.916 3.693 5.707 6.15 5.267 15.325-1.23 25.64-1.079 1.712-3.907 5.907-6.284 9.323-4.67 6.71-8.275 12.278-9.454 14.606-.938 1.852-1.4 2.265-2 1.783zM51.596 83.11a989.56 989.56 0 0 0-7.321-10.464c-3.916-5.48-5.872-8.648-7.682-12.437-2.043-4.277-2.727-6.783-2.914-10.674-.316-6.572 1.855-11.097 6.482-13.505 4.643-2.417 8.82-2.036 12.231 1.115 1.531 1.414 2.983 3.696 3.655 5.746.151.46.294.278.707-.904.285-.815.75-1.855 1.033-2.311.937-1.51 3.142-3.61 4.611-4.392 1.292-.687 1.761-.77 4.35-.77 2.678 0 3.046.07 4.78.923 6.06 2.976 8.858 10.276 6.905 18.016-1.252 4.958-3.08 8.449-8.433 16.104-5.394 7.713-10.493 15.475-11.679 17.78-.846 1.644-1.282 2.203-1.713 2.199-.427 0-1.75-1.702-5.011-6.426zM18.09 81.736c-.25-.482-2.02-3.479-3.933-6.66-4.576-7.606-4.693-7.88-4.724-11.097-.02-2.105.09-2.817.577-3.744 1.52-2.89 6.367-3.343 8.206-.767l.641.899.74-.876c1.485-1.762 3.536-2.183 5.75-1.18 2.53 1.147 3.642 3.83 3.027 7.31-.417 2.355-1.354 4.343-4.452 9.44-1.386 2.28-2.908 4.913-3.382 5.849-.998 1.974-1.727 2.22-2.45.826zm.846-27.545c-.085-.22-.113-.968-.063-1.661.086-1.192.15-1.275 1.177-1.528 1.085-.268 1.086-.269 1.086-1.806v-1.538h-5.734c-4.073 0-5.834-.1-6.08-.346-.439-.438-.454-2.952-.023-3.79.178-.346 3.194-4.953 6.701-10.235l6.377-9.605h1.251c.941 0 1.326.138 1.551.558.19.353.3 4.034.3 9.967v9.407h1.535c1.828 0 2.23.326 2.23 1.81 0 1.86-.366 2.234-2.183 2.234-1.354 0-1.582.078-1.582.542 0 .298-.082.949-.181 1.447-.165.82-.096.934.73 1.222 1.041.362 1.478 1.012 1.478 2.201 0 1.4-.366 1.521-4.555 1.521-3.023 0-3.894-.087-4.014-.4zm2.2-15.69c0-2.834-.11-4.99-.247-4.839-.454.505-6.148 9.102-6.313 9.53-.137.355.37.422 3.198.422h3.361v-5.113z" fill="#f2d1d0"/><path d="M0 157.44V0h217.76v314.88H0V157.44zm211.88 155.77c1.56-.831 3.003-2.271 3.718-3.71.552-1.11.562-3.422.634-151.58l.073-150.45-.611-1.416c-.342-.794-1.221-1.987-1.997-2.71-2.59-2.418 7.892-2.207-105.55-2.124l-101.05.074-1.483.78c-1.61.847-2.677 1.954-3.67 3.808l-.639 1.19-.073 149.92c-.066 135.52-.03 150.07.381 151.48.571 1.958 2.835 4.345 4.768 5.027 1.173.414 10.902.452 102.79.407l101.49-.05 1.223-.652zM3.66 299.073c-.326-.325-.199-.666.25-.666.238 0 .433.122.433.272 0 .364-.452.625-.683.394zm187.37-8.067c-.114-.113-.207-4.525-.207-9.804 0-10.73.17-9.95-2.164-9.95-1.368 0-1.603-.269-1.596-1.829.01-1.36.286-1.593 2.03-1.692l1.586-.09.085-1.796c.084-1.756.067-1.801-.723-1.995-.971-.237-1.234-.577-1.24-1.604-.01-1.417.6-1.683 3.853-1.678 4.158.01 4.25.044 4.25 1.76v1.407l-1.171.186-1.171.187.085 1.767.085 1.766 5.936.145 5.936.144.055 1.733.055 1.734-6.57 9.821-6.57 9.822-1.17.086c-.642.047-1.261-.01-1.375-.12zm7.44-14.007c2.732-4.136 3.364-5.277 3.04-5.485-.224-.145-1.84-.23-3.592-.19l-3.186.073-.079 5.417c-.043 2.978.022 5.414.145 5.412.123 0 1.776-2.355 3.672-5.227zM43.11 276.9c-3.52-.969-6.217-3.14-7.73-6.227-2.576-5.25-1.955-11.938 1.807-19.497 1.933-3.883 3.703-6.613 10.911-16.826 2.327-3.298 5.08-7.23 6.12-8.74 1.038-1.51 2.083-2.783 2.323-2.831.285-.057.854.689 1.653 2.167 1.458 2.697 4.83 7.892 8.963 13.809 7.57 10.837 9.732 14.688 11.053 19.69 1.957 7.416-.674 14.644-6.457 17.73-1.604.857-2.144.989-4.466 1.093-2.397.107-2.805.045-4.408-.673-3-1.343-5.198-4.101-6.214-7.797l-.398-1.444-.362 1.3c-1.08 3.87-3.93 7.086-7.161 8.082-2.135.658-3.678.703-5.633.165zm103.64.013c-3.64-1.05-6.304-3.207-7.765-6.289-1.214-2.561-1.533-4.479-1.382-8.316.15-3.844.998-6.771 3.257-11.26 1.92-3.814 3.102-5.65 9.108-14.157 2.979-4.218 6.392-9.1 7.586-10.846 1.193-1.748 2.369-3.215 2.613-3.262.288-.055.779.548 1.407 1.732 1.081 2.039 4.704 7.707 7.441 11.64 5.037 7.24 9.404 13.841 10.214 15.442 1.269 2.507 2.833 7.312 3.184 9.778.885 6.23-2.309 12.65-7.47 15.016-1.247.571-2.246.782-4.139.874-2.243.109-2.673.041-4.263-.67-2.947-1.32-5.538-4.58-6.258-7.872-.207-.947-.737-1.037-.738-.125 0 .938-1.662 3.967-2.97 5.411-2.445 2.701-6.436 3.88-9.825 2.904zm42.764-19.918c-1.085-.5-2.031-1.513-2.47-2.641-.538-1.386-.391-4.45.302-6.298.605-1.613 7.76-13.798 8.6-14.645.382-.386.46-.386.697 0 3.224 5.235 6.891 11.522 7.525 12.899 2.125 4.617 1.462 9.01-1.58 10.48-2.404 1.16-4.78.523-6.05-1.623l-.627-1.061-.348.847c-.637 1.548-1.68 2.244-3.519 2.35-1.002.056-2.005-.065-2.53-.307zM54.934 87.455c-.697-.993-2.289-3.3-3.537-5.128a636.075 636.075 0 0 0-6.088-8.666c-4.795-6.712-6.497-9.423-8.448-13.465-5.781-11.978-3.08-22.616 6.38-25.129 3.257-.865 6.352-.105 8.94 2.196 1.592 1.415 3.696 4.84 3.707 6.033 0 .257.119.646.258.865.176.278.353-.068.583-1.134.69-3.208 3.21-6.291 6.298-7.7 1.43-.654 1.875-.717 4.249-.606 2.167.102 2.934.27 4.198.918 3.941 2.022 6.59 5.976 7.287 10.877.764 5.377-1.737 12.42-7.23 20.356-6.137 8.867-12.412 18.352-13.426 20.294-.602 1.152-1.276 2.095-1.498 2.095-.222 0-.975-.813-1.672-1.806zm104.24.867c-.38-.517-1.935-2.763-3.455-4.992a821.256 821.256 0 0 0-7.169-10.255c-5.973-8.41-8.14-12.219-9.907-17.41-.732-2.151-.929-3.265-1.034-5.836-.153-3.753.204-5.961 1.365-8.436 2.526-5.385 9.404-8.139 14.454-5.788 1.92.893 4.128 3.212 5.205 5.462.503 1.051.914 2.113.914 2.359 0 1.039.539.658.857-.606.803-3.185 3.255-6.11 6.283-7.493 1.462-.668 1.874-.726 4.261-.6 3.045.16 4.867.906 6.997 2.865 4.18 3.845 5.612 10.033 3.767 16.28-1.662 5.623-2.81 7.685-10.234 18.365-4.99 7.177-8.647 12.834-9.935 15.362-.465.913-1.033 1.66-1.261 1.66-.229 0-.728-.422-1.108-.938zm-140.75-6.645c-1.81-2.858-7.254-12.11-7.908-13.438-.723-1.469-.815-1.97-.815-4.45 0-2.382.09-2.914.606-3.61 1.093-1.473 2.354-2.117 4.143-2.116 1.942 0 3.238.682 3.78 1.987.462 1.114.61 1.119 1.227.038 1.1-1.928 3.799-2.582 6.01-1.457 2.29 1.166 3.247 3.658 2.666 6.947-.41 2.325-1.319 4.223-4.851 10.14-1.577 2.64-3.089 5.207-3.36 5.705-.585 1.072-.941 1.132-1.498.254zm2.064-27.276l-1.376-.126v-1.398c0-1.485.245-1.748 1.63-1.748.692 0 .712-.056.628-1.806l-.086-1.805-5.936-.144-5.936-.145-.059-1.733-.059-1.733 6.574-9.822 6.574-9.822h2.606l.076 9.745.076 9.745.648.144c.356.08 1.168.18 1.805.221 1.087.072 1.164.138 1.252 1.056.19 1.99-.06 2.305-1.905 2.401l-1.663.087-.086 1.806c-.078 1.635-.032 1.805.486 1.805 1.168 0 1.936 1.73 1.247 2.81-.248.391-4.212.673-6.497.463zm.483-10.67c.394-.15.458-.91.458-5.488 0-2.922-.098-5.31-.217-5.307-.403.012-7.083 10.35-6.89 10.662.204.33 5.84.443 6.649.133z" fill="#d6d6d6"/><path d="M0 157.44V0h217.76v314.88H0V157.44zm209.57 156.89c.277-.145 1.09-.469 1.81-.72 1.793-.627 3.186-1.846 4.204-3.68l.86-1.548V6.802l-.654-1.22c-.886-1.654-2.471-3.18-4.087-3.932l-1.34-.625H7.382l-1.646.806c-1.864.913-3.224 2.313-4.115 4.235l-.61 1.314v300.44l.69 1.525c.91 2.007 3.038 3.908 5.187 4.634 1.619.546 3.667.558 101.92.594 59.857.022 100.47-.07 100.77-.227zm-18.546-23.315c-.114-.113-.207-4.525-.207-9.804 0-10.73.17-9.95-2.164-9.95-1.368 0-1.603-.269-1.596-1.829.01-1.36.286-1.593 2.03-1.692l1.586-.09.085-1.796c.084-1.756.067-1.801-.723-1.995-.971-.237-1.234-.577-1.24-1.604-.01-1.417.6-1.683 3.853-1.678 4.158.01 4.25.044 4.25 1.76v1.407l-1.171.186-1.171.187.085 1.767.085 1.766 5.936.145 5.936.144.055 1.733.055 1.734-6.57 9.821-6.57 9.822-1.17.086c-.642.047-1.261-.01-1.375-.12zm7.44-14.007c2.732-4.136 3.364-5.277 3.04-5.485-.224-.145-1.84-.23-3.592-.19l-3.186.073-.079 5.417c-.043 2.979.022 5.414.145 5.412.123 0 1.776-2.355 3.672-5.227zm-155.36-.099c-3.52-.969-6.217-3.14-7.73-6.227-2.576-5.25-1.955-11.938 1.807-19.497 1.933-3.883 3.703-6.613 10.911-16.826 2.327-3.298 5.08-7.23 6.12-8.74 1.038-1.51 2.083-2.783 2.323-2.831.285-.057.854.689 1.653 2.167 1.458 2.697 4.83 7.892 8.963 13.809 7.57 10.837 9.732 14.688 11.053 19.69 1.957 7.416-.674 14.644-6.457 17.73-1.604.857-2.144.989-4.466 1.093-2.397.107-2.805.045-4.408-.673-3-1.343-5.198-4.101-6.214-7.797l-.398-1.444-.362 1.3c-1.08 3.87-3.93 7.086-7.161 8.082-2.135.658-3.678.703-5.633.165zm103.64.013c-3.64-1.05-6.304-3.207-7.765-6.289-1.214-2.561-1.533-4.479-1.382-8.316.15-3.844.998-6.771 3.257-11.26 1.92-3.814 3.102-5.65 9.108-14.157 2.979-4.218 6.392-9.1 7.586-10.846 1.193-1.748 2.369-3.215 2.613-3.262.288-.055.779.548 1.407 1.732 1.081 2.039 4.704 7.707 7.441 11.64 5.037 7.24 9.404 13.841 10.214 15.442 1.269 2.507 2.833 7.312 3.184 9.778.885 6.23-2.309 12.65-7.47 15.016-1.247.571-2.246.782-4.139.874-2.243.109-2.673.041-4.263-.67-2.947-1.32-5.538-4.58-6.258-7.872-.207-.947-.737-1.037-.738-.125 0 .938-1.662 3.967-2.97 5.411-2.445 2.701-6.436 3.88-9.825 2.904zm42.764-19.918c-1.085-.5-2.031-1.513-2.47-2.641-.538-1.386-.391-4.45.302-6.298.605-1.613 7.76-13.798 8.6-14.645.382-.385.46-.385.697 0 3.224 5.235 6.891 11.522 7.525 12.899 2.125 4.617 1.462 9.01-1.58 10.48-2.404 1.16-4.78.523-6.05-1.623l-.627-1.061-.348.847c-.637 1.548-1.68 2.244-3.519 2.35-1.003.056-2.005-.065-2.53-.307zM54.928 87.464c-.697-.993-2.289-3.3-3.537-5.128a636.075 636.075 0 0 0-6.088-8.666c-4.795-6.712-6.497-9.423-8.448-13.465-5.781-11.978-3.08-22.616 6.38-25.129 3.257-.865 6.352-.105 8.94 2.196 1.592 1.415 3.696 4.84 3.707 6.033 0 .257.119.646.258.865.176.278.353-.068.583-1.134.69-3.207 3.21-6.291 6.298-7.7 1.43-.654 1.875-.717 4.249-.606 2.167.102 2.934.27 4.198.918 3.941 2.022 6.59 5.976 7.287 10.877.764 5.377-1.737 12.42-7.23 20.356-6.137 8.867-12.412 18.352-13.426 20.294-.602 1.152-1.276 2.095-1.498 2.095-.222 0-.975-.813-1.672-1.806zm104.24.867c-.38-.517-1.935-2.763-3.455-4.992a821.256 821.256 0 0 0-7.169-10.255c-5.973-8.41-8.14-12.219-9.907-17.41-.732-2.151-.929-3.265-1.034-5.836-.153-3.753.204-5.961 1.365-8.436 2.526-5.385 9.404-8.139 14.454-5.788 1.92.893 4.128 3.212 5.205 5.462.503 1.051.914 2.113.914 2.359 0 1.039.539.658.857-.606.803-3.185 3.255-6.11 6.283-7.493 1.462-.668 1.874-.726 4.261-.6 3.045.16 4.867.906 6.997 2.865 4.18 3.845 5.612 10.033 3.767 16.28-1.662 5.623-2.81 7.685-10.234 18.365-4.99 7.177-8.647 12.834-9.935 15.362-.465.913-1.033 1.66-1.261 1.66-.229 0-.728-.422-1.108-.938zm-140.75-6.645c-1.81-2.858-7.254-12.11-7.908-13.438-.723-1.469-.815-1.97-.815-4.45 0-2.382.09-2.914.606-3.61 1.093-1.473 2.354-2.117 4.143-2.116 1.942 0 3.238.682 3.78 1.987.462 1.114.61 1.119 1.227.038 1.1-1.928 3.799-2.582 6.01-1.457 2.29 1.166 3.247 3.658 2.666 6.947-.41 2.325-1.319 4.223-4.851 10.14-1.577 2.64-3.089 5.208-3.36 5.705-.585 1.072-.941 1.133-1.498.254zm2.064-27.276l-1.376-.126v-1.398c0-1.485.245-1.748 1.63-1.748.692 0 .712-.056.628-1.806l-.086-1.805-5.936-.144-5.936-.145-.059-1.733-.059-1.733 6.574-9.822 6.574-9.822h2.606l.076 9.745.076 9.745.648.144c.356.08 1.168.18 1.805.221 1.087.072 1.164.138 1.252 1.056.19 1.99-.06 2.305-1.905 2.401l-1.663.087-.086 1.806c-.078 1.635-.032 1.805.486 1.805 1.168 0 1.936 1.73 1.247 2.81-.248.391-4.212.673-6.497.463zm.483-10.67c.394-.15.458-.91.458-5.488 0-2.922-.098-5.31-.217-5.307-.403.012-7.083 10.35-6.89 10.662.204.33 5.84.443 6.649.133z" fill="#ebb0af"/><path d="M0 157.44V0h217.76v314.88H0V157.44zm209.57 156.89c.277-.145 1.09-.469 1.81-.72 1.793-.627 3.186-1.846 4.204-3.68l.86-1.548V6.802l-.654-1.22c-.886-1.654-2.471-3.18-4.087-3.932l-1.34-.625H7.382l-1.646.806c-1.864.913-3.224 2.313-4.115 4.235l-.61 1.314v300.44l.69 1.525c.91 2.007 3.038 3.908 5.187 4.634 1.619.546 3.667.558 101.92.594 59.857.022 100.47-.07 100.77-.227zm-18.27-23.328c-.106-.106-.195-4.428-.198-9.605 0-5.177-.103-9.567-.223-9.756-.12-.19-.933-.384-1.805-.434l-1.587-.09-.086-1.507c-.097-1.675-.04-1.72 2.403-1.882l1.158-.077v-1.875c0-1.857-.01-1.876-.868-2.025-.814-.14-.869-.232-.869-1.447v-1.297h7.529v1.3c0 1.286-.011 1.3-1.055 1.387-1.04.087-1.057.11-1.244 1.603-.327 2.616-.604 2.498 5.891 2.498 4.05 0 5.803.1 6.05.347.191.19.348.89.348 1.553 0 1.069-.504 1.973-4.433 7.958-6.438 9.806-8.652 13.08-9.007 13.32-.395.267-1.746.286-2.004.03zm7.255-13.909c1.828-2.788 3.39-5.241 3.47-5.45.117-.303-.622-.38-3.617-.38-3.165 0-3.792.072-3.94.456-.229.595-.23 9.756 0 10.351.095.25.307.374.468.274.162-.1 1.79-2.462 3.619-5.25zm-134.28-.015c-3.7-1.224-6.834-4.74-7.462-8.369-.116-.675-.332-1.228-.48-1.23-.146 0-.482.687-.746 1.53-.264.842-.71 1.974-.994 2.516-.806 1.54-3.051 3.765-4.646 4.604-1.275.67-1.79.764-4.204.765-2.49 0-2.935-.085-4.685-.913-4.887-2.31-7.046-6.258-7.001-12.807.027-3.954.772-6.826 2.965-11.41 1.814-3.796 3.5-6.468 8.525-13.516a691 691 0 0 0 7.304-10.462c1.727-2.542 3.271-4.71 3.432-4.82.454-.308.657-.067 1.823 2.16 1.084 2.07 6.547 10.347 12.174 18.446 5.013 7.215 7 11.216 8.055 16.216 1.137 5.393-.14 10.274-3.638 13.908-2.273 2.362-4.287 3.308-7.435 3.49-1.245.072-2.59.023-2.988-.108zm103.66 0c-4.028-1.326-6.612-4.397-7.662-9.107-.227-1.018-.517-.736-1.007.98-.858 3.01-3.071 5.818-5.657 7.178-1.275.67-1.79.764-4.204.765-2.485 0-2.937-.086-4.67-.905-3.291-1.556-5.027-3.516-6.379-7.205-.522-1.427-.626-2.332-.625-5.465 0-3.461.076-3.983.95-6.645 1.782-5.427 3.972-9.238 10.896-18.958 2.645-3.713 6.001-8.533 7.458-10.71 1.457-2.177 2.803-4.021 2.99-4.099.198-.082 1.094 1.153 2.14 2.948 1.64 2.815 5.08 7.979 12.793 19.202 7.42 10.799 9.159 18.625 5.675 25.55-1.123 2.233-3.704 4.75-5.899 5.752-1.732.79-5.402 1.18-6.8.72zm22.588-19.962c-1.39-.262-2.235-.837-2.985-2.03-.91-1.45-.89-5.3.04-7.367 1.001-2.229 8.261-14.272 8.612-14.286.49-.021 7.72 12.344 8.438 14.43.71 2.063.83 4.15.34 5.91-.668 2.402-3.5 4.044-5.793 3.359-1.107-.331-2.862-2.034-2.862-2.778 0-.782-.463-.434-.98.736-.737 1.665-2.589 2.446-4.81 2.026zM56.283 89.036c-.16-.109-1.796-2.408-3.635-5.109a691.326 691.326 0 0 0-7.418-10.609c-2.24-3.134-4.742-6.802-5.559-8.152-4.693-7.752-6.556-14.658-5.406-20.043.96-4.495 2.893-7.154 6.486-8.926 2.09-1.03 2.361-1.09 4.976-1.09 2.333 0 2.97.106 4.07.674 2.653 1.373 4.812 4.048 5.776 7.155.271.875.614 1.59.76 1.588.148 0 .363-.555.48-1.23.5-2.891 3.009-6.21 5.807-7.682 1.336-.702 1.814-.792 4.15-.78 2.362.012 2.836.11 4.495.925 4.808 2.361 7.77 7.821 7.405 13.649-.327 5.21-2.623 10.655-7.433 17.622-6.513 9.432-12.107 17.888-13.132 19.849-1.164 2.226-1.367 2.467-1.822 2.158zm103.66 0c-.16-.109-1.812-2.428-3.67-5.153a716.836 716.836 0 0 0-7.417-10.609c-7.125-9.975-9.797-15.088-10.905-20.862-.53-2.765-.525-4.915.018-7.482.919-4.344 3.053-7.16 6.75-8.908 1.75-.827 2.196-.914 4.685-.913 2.414 0 2.929.095 4.204.766 2.586 1.36 4.8 4.167 5.658 7.177.489 1.716.779 1.999 1.006.98.908-4.072 2.86-6.748 6.216-8.524 1.107-.585 1.701-.687 3.943-.675 2.374.012 2.832.107 4.534.944 4.745 2.33 7.728 7.851 7.366 13.63-.325 5.185-2.438 10.24-7.207 17.244-8.557 12.564-12.375 18.345-13.358 20.227-1.164 2.226-1.367 2.467-1.823 2.158zM18.413 81.4c-1.916-3.057-6.512-10.812-7.31-12.332-2.586-4.932-1.709-9.733 1.96-10.718 2.351-.632 4.515.277 5.207 2.188.426 1.176.697 1.266.937.312.246-.976 2.006-2.424 3.225-2.652 2.072-.388 4.6 1.189 5.312 3.313.694 2.072.238 5.472-1.078 8.04-.344.67-1.895 3.351-3.446 5.956-1.552 2.604-3.043 5.142-3.314 5.64-.585 1.072-.943 1.132-1.493.254zm.802-27.48c-.088-.227-.118-.849-.067-1.38.083-.861.203-.982 1.106-1.11l1.013-.145.086-1.95.086-1.95h-5.746c-4.084 0-5.847-.1-6.094-.347-.612-.61-.402-2.543.43-3.961 1.31-2.227 12.314-18.643 12.656-18.878.176-.12.711-.186 1.19-.144l.868.075.154 9.821c.085 5.402.183 9.848.217 9.88.034.032.812.097 1.728.144l1.665.087.087 1.508c.097 1.675.04 1.72-2.404 1.882l-1.158.077v1.875c0 1.857.01 1.876.869 2.025.814.14.869.232.869 1.447v1.297l-3.698.081c-2.999.066-3.728 0-3.857-.333zm2.198-15.635c0-3.098-.098-5.63-.218-5.628-.25.01-7.119 10.296-7.26 10.876-.074.306.685.385 3.692.385h3.786v-5.633z" fill="#b4b4b4"/><path d="M0 157.44V0h217.76v314.88H0V157.44zm211.67 156.25c1.909-.904 3.489-2.434 4.399-4.26l.668-1.34V7.37l-.69-1.526c-.85-1.875-3.016-3.886-4.865-4.514-1.227-.417-10.76-.46-102.6-.46H7.332l-1.772.883c-2.009 1.002-3.034 2.075-4.014 4.2L.868 7.425l.073 150.48.073 150.48.721 1.409c.948 1.852 2.84 3.476 4.874 4.185 1.628.567 2.631.572 102.56.522l100.91-.05 1.593-.754zm-20.366-22.692c-.106-.106-.195-4.428-.198-9.605 0-5.177-.103-9.567-.223-9.756-.12-.19-.933-.384-1.805-.434l-1.587-.09-.087-1.507c-.096-1.675-.04-1.72 2.404-1.882l1.158-.077v-1.875c0-1.857-.01-1.876-.868-2.025-.814-.14-.869-.232-.869-1.447v-1.297h7.529v1.3c0 1.286-.011 1.3-1.055 1.387-1.04.087-1.057.11-1.244 1.603-.327 2.616-.604 2.498 5.891 2.498 4.05 0 5.803.1 6.05.347.191.19.348.89.348 1.553 0 1.069-.504 1.973-4.433 7.958-6.438 9.806-8.652 13.08-9.007 13.32-.395.267-1.746.286-2.004.03zm7.255-13.909c1.828-2.788 3.39-5.241 3.47-5.45.117-.303-.622-.38-3.617-.38-3.166 0-3.792.072-3.94.456-.229.595-.23 9.756 0 10.351.095.25.307.374.468.274.162-.1 1.79-2.462 3.619-5.25zm-134.28-.015c-3.7-1.224-6.834-4.74-7.462-8.369-.116-.675-.332-1.228-.48-1.23-.146 0-.482.687-.746 1.53-.264.842-.71 1.974-.994 2.516-.806 1.54-3.051 3.765-4.646 4.604-1.275.67-1.79.764-4.204.765-2.49 0-2.935-.085-4.685-.913-4.887-2.31-7.046-6.258-7.001-12.807.027-3.954.772-6.826 2.965-11.41 1.814-3.796 3.5-6.468 8.525-13.516a691 691 0 0 0 7.304-10.462c1.727-2.542 3.271-4.71 3.431-4.82.455-.308.658-.067 1.824 2.16 1.084 2.07 6.547 10.347 12.174 18.446 5.013 7.215 7 11.216 8.055 16.216 1.137 5.393-.14 10.274-3.638 13.908-2.273 2.362-4.287 3.308-7.435 3.49-1.245.072-2.59.023-2.988-.108zm103.66 0c-4.028-1.326-6.612-4.397-7.662-9.107-.227-1.018-.517-.736-1.007.98-.858 3.01-3.071 5.818-5.657 7.178-1.275.67-1.79.764-4.204.765-2.485 0-2.937-.086-4.67-.905-3.291-1.556-5.027-3.516-6.379-7.205-.523-1.427-.626-2.332-.625-5.465 0-3.461.076-3.983.95-6.645 1.782-5.427 3.972-9.238 10.896-18.958 2.645-3.713 6.001-8.533 7.458-10.71 1.457-2.177 2.802-4.021 2.99-4.099.198-.082 1.094 1.153 2.14 2.948 1.64 2.815 5.08 7.979 12.792 19.202 7.421 10.799 9.16 18.625 5.676 25.55-1.123 2.233-3.704 4.75-5.899 5.752-1.732.79-5.402 1.18-6.8.72zm22.588-19.962c-1.39-.262-2.235-.837-2.985-2.03-.91-1.45-.89-5.3.04-7.367 1.001-2.229 8.261-14.272 8.612-14.286.49-.021 7.72 12.344 8.438 14.43.71 2.063.83 4.15.34 5.91-.668 2.402-3.5 4.044-5.793 3.359-1.107-.331-2.861-2.034-2.861-2.778 0-.782-.464-.434-.981.736-.737 1.665-2.589 2.446-4.81 2.026zM56.287 89.032c-.16-.109-1.796-2.408-3.635-5.109a691.326 691.326 0 0 0-7.418-10.609c-2.24-3.134-4.742-6.802-5.559-8.152-4.693-7.752-6.556-14.658-5.406-20.043.96-4.495 2.893-7.154 6.486-8.926 2.09-1.03 2.361-1.09 4.976-1.09 2.333 0 2.97.106 4.07.674 2.653 1.373 4.812 4.048 5.776 7.155.271.875.614 1.59.76 1.588.148 0 .363-.555.48-1.23.5-2.891 3.009-6.21 5.807-7.682 1.336-.702 1.814-.792 4.15-.78 2.362.012 2.836.11 4.495.925 4.808 2.361 7.77 7.821 7.405 13.649-.327 5.21-2.623 10.655-7.433 17.622-6.513 9.432-12.107 17.888-13.132 19.849-1.164 2.226-1.367 2.467-1.822 2.158zm103.66 0c-.16-.109-1.812-2.428-3.67-5.153a716.836 716.836 0 0 0-7.417-10.609c-7.125-9.975-9.797-15.088-10.905-20.862-.53-2.765-.525-4.915.018-7.482.919-4.344 3.053-7.16 6.75-8.908 1.75-.827 2.196-.914 4.685-.913 2.414 0 2.929.095 4.204.766 2.586 1.36 4.8 4.167 5.658 7.177.489 1.716.779 1.999 1.006.98.908-4.072 2.86-6.748 6.216-8.524 1.107-.585 1.701-.687 3.943-.675 2.374.012 2.832.107 4.534.944 4.745 2.33 7.728 7.851 7.366 13.63-.325 5.185-2.438 10.24-7.207 17.244-8.557 12.564-12.375 18.345-13.358 20.227-1.164 2.226-1.367 2.467-1.823 2.158zm-141.53-7.636c-1.916-3.057-6.512-10.812-7.31-12.332-2.586-4.932-1.709-9.733 1.96-10.718 2.351-.632 4.515.277 5.207 2.188.426 1.176.697 1.266.937.312.246-.976 2.006-2.424 3.225-2.652 2.072-.388 4.6 1.189 5.312 3.313.694 2.072.238 5.472-1.078 8.04-.344.67-1.895 3.351-3.446 5.956-1.552 2.604-3.043 5.142-3.314 5.64-.585 1.072-.943 1.132-1.493.254zm.802-27.48c-.088-.227-.118-.849-.067-1.38.083-.861.203-.982 1.106-1.11l1.013-.145.086-1.95.086-1.95h-5.746c-4.084 0-5.847-.1-6.094-.347-.612-.61-.402-2.543.43-3.961 1.31-2.227 12.314-18.643 12.656-18.878.176-.12.711-.186 1.19-.144l.868.075.154 9.821c.085 5.402.183 9.848.217 9.88.034.032.812.097 1.728.144l1.665.087.087 1.508c.097 1.675.04 1.72-2.404 1.882l-1.158.077V49.4c0 1.857.01 1.876.869 2.025.814.14.869.232.869 1.447v1.297l-3.698.081c-2.999.066-3.728 0-3.857-.333zm2.198-15.635c0-3.098-.098-5.63-.218-5.628-.25.01-7.119 10.296-7.26 10.876-.074.306.685.385 3.692.385h3.786v-5.633z" fill="#e49090"/><path d="M0 157.44V0h217.76v314.88H0V157.44zm211.67 156.25c1.909-.904 3.489-2.434 4.399-4.26l.668-1.34V7.37l-.69-1.526c-.85-1.875-3.016-3.886-4.865-4.514-1.227-.417-10.76-.46-102.6-.46H7.332l-1.772.883c-2.009 1.002-3.034 2.075-4.014 4.2L.868 7.425l.073 150.48.073 150.48.721 1.409c.948 1.852 2.84 3.476 4.874 4.185 1.628.567 2.631.572 102.56.522l100.91-.05 1.593-.754zm-20.193-22.734c-.27-.172-.377-2.603-.434-9.891l-.076-9.663-1.513-.152c-1.86-.186-2.172-.474-2.054-1.904.089-1.085.13-1.124 1.25-1.198 2.487-.166 2.461-.141 2.461-2.384 0-1.912-.035-2.017-.666-2.017-.874 0-1.36-.516-1.36-1.444 0-1.28.446-1.445 3.909-1.445 3.474 0 3.909.163 3.909 1.467 0 .935-.438 1.339-1.593 1.469-.854.096-.87.129-.956 1.949-.061 1.286.028 1.924.29 2.09.207.131 2.95.24 6.095.243h5.72v1.57c0 1.561-.033 1.617-6.512 11.41-3.58 5.413-6.697 9.841-6.925 9.841-.229 0-.589.064-.801.142a.952.952 0 0 1-.744-.087zm7.023-13.583c1.988-2.992 3.614-5.595 3.614-5.786 0-.256-1.002-.325-3.836-.266l-3.837.081-.079 5.335c-.075 5.035-.012 6.076.365 6.076.087 0 1.785-2.448 3.773-5.44zm-134.14-.497c-.833-.222-2.006-.714-2.608-1.092-2.385-1.502-4.475-4.647-4.88-7.341-.244-1.623-.833-1.573-1.256.106-.822 3.256-3.068 6.219-5.683 7.495-5.033 2.456-11.803-.133-14.352-5.49-1.186-2.491-1.5-4.427-1.342-8.242.268-6.438 2.868-12.088 10.418-22.633a1032.556 1032.556 0 0 0 10.485-15.01c.625-.917 1.272-1.622 1.436-1.568.165.055.929 1.195 1.698 2.535 1.703 2.964 4.688 7.53 8.203 12.545 5.27 7.516 7.719 11.325 9.104 14.155 1.546 3.155 2.743 6.927 3.045 9.593.557 4.906-1.958 10.733-5.758 13.34-2.387 1.639-5.901 2.302-8.51 1.607zm103.95.144c-3.576-.705-7.195-4.695-7.779-8.577-.243-1.623-.832-1.573-1.256.106-1.135 4.5-4.782 7.984-8.788 8.396-4.273.44-9.138-2.175-11.05-5.94-1.223-2.41-1.61-4.268-1.61-7.712 0-6.793 2.572-12.55 10.675-23.886a743.4 743.4 0 0 0 7.785-11.135c1.982-2.907 3.748-5.238 3.925-5.18.176.06 1.029 1.333 1.895 2.831 1.598 2.765 5.18 8.173 11.898 17.963 4.215 6.144 5.702 8.826 6.938 12.516 1.342 4.006 1.672 6.97 1.09 9.8-1.242 6.042-5.051 10.077-10.216 10.822-1.097.158-2.06.276-2.14.262-.08-.014-.695-.134-1.368-.267zm20.839-20.476c-2.599-1.627-3.024-5.688-1.016-9.696 1.063-2.122 7.929-13.435 8.145-13.422.254.015 7.105 11.652 7.846 13.325 1.33 3.002 1.409 6.307.196 8.103-2.058 3.047-6.37 3.007-7.667-.071-.264-.628-.567-1.142-.674-1.144-.107 0-.34.433-.516.966-.546 1.651-1.518 2.313-3.57 2.428-1.433.08-1.993-.02-2.744-.49zM52.839 84.004a784.506 784.506 0 0 0-7.324-10.46c-6.1-8.538-8.468-12.67-10.248-17.88-.777-2.274-.926-3.18-1.036-6.297-.138-3.936.188-5.713 1.53-8.335 2.486-4.86 9.13-7.347 13.944-5.222 2.541 1.121 5.506 5.043 6.068 8.026.253 1.34.88 1.174 1.1-.29.296-1.964 1.482-4.162 3.13-5.797 2.443-2.422 4.674-3.177 8.156-2.76 4.954.596 8.94 4.717 10.164 10.509.56 2.646.538 3.823-.123 6.807-1.21 5.456-3.049 9.005-9.421 18.18-5.96 8.582-8.159 11.899-10.138 15.29-.967 1.656-1.899 3.058-2.071 3.116-.173.057-1.852-2.142-3.732-4.886zm103.94.434a852.23 852.23 0 0 0-7.605-10.881c-8.642-12.156-10.995-17.14-11.276-23.881-.158-3.813.156-5.746 1.342-8.248 2.11-4.449 7.479-7.215 12.126-6.247 3.421.713 6.732 4.067 7.801 7.902.26.93.631 1.692.826 1.692.194 0 .437-.554.539-1.23.246-1.642 1.325-3.906 2.493-5.234 2.356-2.676 5.207-3.774 8.673-3.34 5.212.653 9.078 4.698 10.335 10.815.58 2.82.27 5.61-1.08 9.732-1.278 3.901-2.916 6.764-8.565 14.967-6.565 9.534-8.365 12.26-10.282 15.579-.865 1.498-1.718 2.772-1.894 2.83-.176.059-1.721-1.947-3.434-4.457zm-141.85-9.041c-4.645-7.746-5.087-8.757-5.086-11.631 0-3.664 1.504-5.413 4.653-5.413 1.367 0 1.831.133 2.544.731.48.403 1.02 1.183 1.203 1.733.182.551.431 1.002.554 1.002.123 0 .426-.514.673-1.142.854-2.17 3.603-2.971 6.001-1.75 1.417.72 1.928 1.446 2.352 3.339.7 3.12-.317 6.028-4.49 12.832-1.34 2.183-2.775 4.639-3.19 5.456-.415.818-.862 1.486-.993 1.486-.13 0-2.03-2.989-4.221-6.643zm4.634-21.543c-.946-.944-.308-2.34 1.138-2.49.844-.087.871-.137.956-1.775.052-.994-.052-1.853-.253-2.094-.272-.328-1.485-.41-6.096-.41H9.553V45.5c0-1.586.01-1.6 6.517-11.428l6.517-9.841 1.084.09 1.084.09.144 9.677.145 9.678 1.44.09c1.87.118 2.23.442 2.122 1.907-.085 1.156-.112 1.182-1.245 1.258-2.467.164-2.462.159-2.462 2.248 0 1.54.092 1.91.507 2.038 1.057.325 1.378.63 1.469 1.389.168 1.414-.295 1.614-3.728 1.614-2.458 0-3.226-.097-3.584-.454zm2.085-15.558c.045-3.121-.037-5.584-.191-5.738-.272-.27-7.214 9.769-7.494 10.838-.13.497.1.525 3.734.449l3.872-.081.08-5.468z" fill="#e17c81"/><path d="M0 157.44V0h217.76v314.88H0V157.44zm211.67 156.25c1.909-.904 3.489-2.434 4.399-4.26l.668-1.34V7.37l-.69-1.526c-.85-1.875-3.016-3.886-4.865-4.514-1.227-.417-10.76-.46-102.6-.46H7.332l-1.772.883c-2.009 1.002-3.034 2.075-4.014 4.2L.868 7.425l.073 150.48.073 150.48.721 1.409c.948 1.852 2.84 3.476 4.874 4.185 1.628.567 2.631.572 102.56.522l100.91-.05 1.593-.754zm-20.219-22.872c-.231-.278-.355-3.287-.408-9.907l-.076-9.508-1.513-.152c-1.86-.187-2.172-.475-2.054-1.904l.092-1.122 1.737-.144 1.738-.145.085-2.083.085-2.082-.954-.245c-.756-.194-.973-.413-1.049-1.058-.052-.447.036-.943.196-1.103.163-.163 1.787-.282 3.714-.272 3.363.017 3.43.03 3.686.724.376 1.02.036 1.64-.904 1.646-1.392.01-1.566.3-1.471 2.477l.087 1.996 6.008.078 6.009.078v1.521c0 1.45-.15 1.747-3.223 6.422-7.043 10.71-9.912 14.867-10.262 14.867a2.64 2.64 0 0 0-.778.157c-.227.087-.561-.022-.744-.241zm5.886-11.528c3.42-5.131 4.742-7.265 4.76-7.68.014-.285-.848-.35-3.82-.288l-3.836.08-.079 5.336c-.078 5.249-.017 6.098.432 6.052.124-.013 1.269-1.588 2.543-3.5zm-153.89-2.553c-4.478-.935-8.13-4.847-9.024-9.668-.805-4.341.241-10.373 2.631-15.166 1.298-2.603 4.473-7.86 6.193-10.255 6.38-8.881 10.945-15.4 12.392-17.694.326-.516.698-.938.828-.938s.845 1.053 1.59 2.341c1.459 2.525 6.163 9.625 10.984 16.58 4.888 7.05 6.87 10.498 8.128 14.132 1.246 3.602 1.527 5.485 1.296 8.689-.18 2.493-.352 3.18-1.253 5.015-1.506 3.07-3.281 5.016-5.625 6.167-1.8.883-2.142.95-4.838.95-2.523 0-3.087-.093-4.322-.722-1.471-.748-3.55-2.9-4.488-4.645-.296-.552-.694-1.748-.883-2.657-.196-.944-.499-1.653-.705-1.653-.198 0-.596.748-.883 1.661-1.126 3.587-2.886 5.852-5.56 7.157-1.799.878-4.317 1.153-6.462.705zm103.07-.229c-2.383-.794-3.77-1.596-5.17-2.986-2.427-2.412-3.517-5.557-3.517-10.142 0-6.267 2.23-11.69 8.604-20.926 1.558-2.259 3.196-4.599 3.64-5.2 1.755-2.381 3.806-5.325 7.27-10.437 1.416-2.09 2.684-3.8 2.817-3.8.271 0 .74.695 1.753 2.6.932 1.75 6.335 10.012 9.36 14.31 3.361 4.775 6.382 9.421 7.498 11.532 1.551 2.934 2.99 7.243 3.427 10.264.8 5.53-2.345 11.952-7.016 14.325-1.335.678-2.046.829-4.4.932-2.486.109-2.969.047-4.2-.542-2.778-1.328-5.576-5.07-6.063-8.11-.255-1.589-1.263-1.36-1.263.287 0 1.015-1.874 4.259-3.211 5.558-.766.745-2 1.647-2.742 2.005-1.847.893-4.69 1.031-6.787.331zm42.58-20.028c-2.01-1.368-2.68-3.869-1.871-6.996.512-1.983 1.141-3.235 3.938-7.83 1.066-1.75 2.613-4.32 3.437-5.711.825-1.39 1.582-2.527 1.682-2.527.1 0 .564.682 1.03 1.516.467.834 1.907 3.271 3.2 5.416 3.883 6.443 4.676 8.445 4.6 11.612-.048 1.984-.824 3.4-2.455 4.477-.924.61-1.365.716-2.518.606-1.697-.163-3.11-1.127-3.589-2.45-.19-.526-.43-.956-.534-.956-.103 0-.42.516-.706 1.146-.771 1.707-1.333 2.077-3.392 2.236-1.575.121-1.96.048-2.821-.539zM56.028 88.6c-.158-.21-1.33-1.917-2.604-3.794a515.835 515.835 0 0 0-3.185-4.65c-3.242-4.613-6.802-9.63-7.593-10.697-2.578-3.482-6.082-9.965-7.308-13.52-.85-2.464-1.251-5.65-1.103-8.742.111-2.316.3-3.235 1.01-4.926 2.445-5.817 9.178-8.823 14.422-6.44 2.604 1.184 4.974 4.203 5.949 7.58.36 1.247 1.104 1.894 1.162 1.011.227-3.434 2.955-7.292 6.208-8.778 1.905-.87 5.01-.978 7.11-.246 6.2 2.16 9.67 9.532 8.032 17.066-1.194 5.492-2.845 8.595-10.319 19.386-.529.763-1.15 1.648-1.38 1.966-1.433 1.973-7.419 11.179-8.448 12.992-.68 1.196-1.331 2.174-1.45 2.174-.118 0-.344-.171-.502-.381zm101.82-2.58c-3.057-4.556-4.646-6.842-9.455-13.605a588.448 588.448 0 0 1-3.154-4.478c-3.252-4.692-6.161-10.82-6.99-14.722-.482-2.266-.543-6.267-.13-8.443 1.108-5.822 5.52-9.59 11.292-9.643 2.276-.021 2.6.052 4.295.97 1.009.545 2.267 1.52 2.797 2.166 1.191 1.454 2.753 4.42 2.753 5.228 0 .331.186.855.414 1.163.458.622.4.712 1.033-1.606.852-3.118 2.98-5.907 5.547-7.274 1.086-.578 1.674-.67 4.299-.67 2.986 0 3.075.02 5.003 1.102 2.327 1.307 3.898 3.136 5.38 6.265.945 1.992 1.037 2.423 1.143 5.367.1 2.792.016 3.568-.66 6.067-1.298 4.798-2.777 7.447-10.224 18.32-4.3 6.277-7.786 11.46-7.971 11.85-.112.235-.529.947-.927 1.583a48.092 48.092 0 0 0-1.307 2.239c-.32.595-.71 1.083-.866 1.083-.156 0-1.178-1.333-2.27-2.961zM18.518 81.4a15.502 15.502 0 0 0-.82-1.517c-6.842-11.09-7.84-13.129-7.848-16.033-.01-2.391.441-3.627 1.647-4.544.909-.692 1.317-.8 3.005-.8 1.663 0 2.064.103 2.693.692.406.381.885 1.135 1.064 1.676.386 1.167.838 1.118 1.264-.136.743-2.187 3.479-2.978 5.967-1.727 3.714 1.869 3.28 7.415-1.123 14.372-1.67 2.64-4.239 7.027-4.609 7.872-.422.964-.857 1.015-1.24.145zm2.187-27.281c-1.17-.135-1.588-.462-1.588-1.246 0-.73.47-1.223 1.245-1.308.407-.045.878-.166 1.046-.27.451-.278.387-3.484-.078-3.868-.242-.201-2.457-.347-6.008-.397l-5.624-.079-.087-1.495-.087-1.496 6.561-9.858 6.561-9.859 1.054.088 1.054.088.145 9.67.145 9.669 1.737.297c1.864.318 2.165.721 1.756 2.348-.15.6-.345.693-1.448.693-2.077 0-2.19.114-2.19 2.194 0 1.833.01 1.845 1.014 2.265.838.35 1.013.572 1.013 1.287 0 .475-.099.925-.22 1-.355.219-4.744.421-6.002.277zm.712-10.366c.407-.406.276-11.161-.137-11.282-.32-.094-7.184 10.142-7.33 10.929-.077.417.208.505 1.883.577 3.597.157 5.27.09 5.584-.224z" fill="#e0817d"/><path d="M0 157.44V0h217.76v314.88H0V157.44zm211.67 156.25c1.909-.904 3.489-2.434 4.399-4.26l.668-1.34V7.37l-.69-1.526c-.85-1.875-3.016-3.886-4.865-4.514-1.227-.417-10.76-.46-102.6-.46H7.332l-1.772.883c-2.009 1.002-3.034 2.075-4.014 4.2L.868 7.425l.073 150.48.073 150.48.721 1.409c.948 1.852 2.84 3.476 4.874 4.185 1.628.567 2.631.572 102.56.522l100.91-.05 1.593-.754zm-20.366-22.981c-.106-.106-.193-4.523-.193-9.816v-9.624l-.652-.145c-.358-.08-1.172-.18-1.81-.222l-1.158-.077v-2.6l1.738-.145 1.737-.144.085-2.083.085-2.083-.953-.246c-.846-.219-.954-.36-.954-1.24v-.992l3.692-.081 3.692-.081v1.164c0 1.076-.06 1.164-.796 1.169-1.382.01-1.557.303-1.462 2.476l.087 1.997 5.936.144 5.936.145v1.588c0 1.588 0 1.596-6.474 11.338-6.28 9.457-6.503 9.75-7.408 9.75-.514 0-1.021-.087-1.127-.193zm7.447-13.563c2.905-4.408 3.642-5.717 3.33-5.914-.451-.285-6.618-.359-7.327-.087-.396.151-.458.948-.458 5.922 0 4.406.084 5.745.362 5.743.2 0 2.04-2.55 4.093-5.664zm-155.53-.54c-5.855-1.638-9.058-6.29-9.044-13.135.013-6.37 2.667-12.59 9.493-22.255 6.066-8.589 9.443-13.43 11.046-15.833.867-1.302 1.668-2.366 1.778-2.366.11 0 1.016 1.397 2.011 3.105 1.658 2.844 3.461 5.557 12.491 18.796 3.406 4.993 5.252 8.459 6.492 12.186.731 2.195.819 2.869.83 6.355l.012 3.9-1.186 2.463c-2.28 4.736-5.354 6.935-10.006 7.16-2.22.109-2.69.039-4.11-.61-2.933-1.34-5.009-3.973-5.968-7.568-.254-.954-.589-1.685-.744-1.626-.155.059-.614 1.045-1.02 2.193-2.02 5.708-6.96 8.668-12.075 7.236zm103.66 0c-5.921-1.657-9.053-6.253-9.047-13.28.01-6.72 2.746-12.704 11.317-24.71 2.552-3.575 6.026-8.547 7.72-11.05s3.182-4.55 3.306-4.55c.124 0 .778 1.007 1.452 2.239 1.112 2.028 5.657 8.887 13.16 19.86 5.055 7.393 7.034 12.188 7.272 17.622.126 2.89.069 3.386-.637 5.478-1.4 4.158-4.393 7.37-7.827 8.4-2.224.668-5.225.546-7.016-.286-2.832-1.315-4.882-3.938-5.884-7.526-.266-.953-.6-1.713-.744-1.689-.143.024-.538.89-.878 1.924-.743 2.256-2.36 4.773-3.74 5.824-2.438 1.855-5.675 2.523-8.454 1.745zm42.488-20.038c-1.56-.828-2.304-2.385-2.298-4.809 0-1.164.22-2.643.511-3.484.643-1.855 8.187-14.532 8.661-14.554.195-.01.571.406.837.922.265.517 1.637 2.844 3.049 5.172 3.881 6.402 4.674 8.223 4.824 11.081.147 2.794-.314 4.066-1.916 5.285-.828.63-1.33.778-2.638.778-1.977 0-2.929-.613-3.814-2.455l-.624-1.3-.676 1.526c-.525 1.188-.9 1.62-1.692 1.95-1.38.575-3.01.532-4.224-.112zM54.009 85.588c-1.264-1.867-4.819-6.962-7.9-11.321-7.804-11.041-10.41-15.876-11.523-21.37-.637-3.146-.452-7.513.422-9.991 1.651-4.682 5.89-7.743 10.74-7.755 4.53-.011 7.883 2.652 9.565 7.598.407 1.198.865 2.166 1.017 2.15.152-.016.481-.795.731-1.733.893-3.35 2.849-5.965 5.526-7.39 1.075-.572 1.68-.67 4.154-.67 2.597 0 3.069.085 4.575.823 4.293 2.103 7.198 7.167 7.198 12.547 0 5.334-2.24 10.938-7.342 18.363-7.604 11.067-11.022 16.2-12.674 19.037-.996 1.708-1.896 3.105-2 3.105-.106 0-1.225-1.527-2.489-3.394zm103.44-.29c-1.368-2.025-4.79-6.932-7.605-10.904-6.491-9.16-8.241-12.032-10.123-16.611-3.107-7.564-2.362-15.525 1.818-19.425 4.38-4.088 10.627-4.378 14.346-.668 1.459 1.455 2.338 2.918 3.13 5.206.368 1.067.794 1.936.946 1.93.151-.01.486-.765.744-1.687.938-3.362 2.886-5.95 5.54-7.362 1.075-.573 1.68-.67 4.154-.67 2.597 0 3.069.085 4.575.823 3.105 1.52 5.577 4.714 6.727 8.688.727 2.51.47 7.017-.586 10.277-1.103 3.405-3.142 7.315-5.985 11.48-9.085 13.306-11.93 17.58-13.268 19.935-.835 1.47-1.61 2.672-1.723 2.672-.112 0-1.323-1.658-2.69-3.683zm-142.07-9.253c-4.623-7.583-5.32-9.098-5.466-11.884-.098-1.868-.016-2.377.557-3.468.914-1.738 2.191-2.4 4.36-2.26 1.968.129 2.961.878 3.421 2.581.369 1.367.711 1.399 1.139.106.181-.548.799-1.408 1.372-1.91.953-.835 1.176-.902 2.6-.784 4.464.37 5.928 5.399 3.178 10.912-1.297 2.6-7.196 12.422-7.46 12.422-.12 0-1.785-2.572-3.701-5.715zm4.016-23.172c0-.636.098-1.172.217-1.193.12-.02.519-.068.888-.106 1.06-.109 1.247-.512 1.154-2.486l-.087-1.848-5.936-.145-5.936-.144-.086-1.464-.086-1.463 6.575-9.89 6.575-9.89 1.04.088 1.038.087.076 9.745.076 9.745.648.144c.356.079 1.169.179 1.806.221.968.064 1.174.189 1.255.756.053.374.019.985-.074 1.358-.151.6-.365.689-1.834.765l-1.663.087-.084 2.056-.084 2.056.887.177c1.002.2 1.31.724 1.044 1.778-.181.722-.183.722-3.795.722h-3.614v-1.156zm1.858-8.842c.397-.152.458-.948.458-5.922 0-4.408-.084-5.745-.362-5.74-.199 0-2.049 2.548-4.11 5.653-3.006 4.529-3.666 5.7-3.33 5.911.464.293 6.62.375 7.344.098z" fill="#929292"/><path d="M0 157.44V0h217.76v314.88H0V157.44zm212.14 156.22c1.848-.972 3.687-3.022 4.286-4.775.413-1.209.456-15.59.456-151.43V7.365l-.824-1.736c-.917-1.934-2.394-3.386-4.373-4.3L210.367.72H7.087l-1.303.68c-1.775.928-3.372 2.5-4.296 4.23L.717 7.077.64 156.716c-.054 103.98.016 150.08.227 151.07.61 2.866 2.79 5.295 5.639 6.28 1.366.471 7.272.497 102.8.437l101.35-.064 1.483-.781zm-20.836-22.955c-.106-.106-.193-4.523-.193-9.816v-9.624l-.652-.145c-.358-.08-1.172-.18-1.81-.222l-1.158-.077v-2.6l1.738-.145 1.737-.144.085-2.083.085-2.083-.953-.246c-.846-.219-.954-.36-.954-1.24v-.992l3.692-.081 3.692-.081v1.164c0 1.076-.06 1.164-.796 1.169-1.382.01-1.557.303-1.462 2.476l.087 1.997 5.936.144 5.936.145v1.588c0 1.588 0 1.596-6.474 11.338-6.28 9.457-6.503 9.75-7.408 9.75-.514 0-1.021-.087-1.127-.193zm7.447-13.563c2.905-4.408 3.642-5.717 3.33-5.914-.451-.285-6.618-.359-7.327-.087-.396.151-.458.948-.458 5.922 0 4.406.084 5.745.362 5.743.2 0 2.04-2.55 4.093-5.664zm-155.53-.54c-5.855-1.638-9.058-6.29-9.044-13.135.013-6.37 2.667-12.59 9.493-22.255 6.066-8.589 9.443-13.43 11.046-15.833.867-1.302 1.668-2.366 1.778-2.366.11 0 1.016 1.397 2.011 3.105 1.658 2.844 3.461 5.557 12.491 18.796 3.406 4.993 5.252 8.459 6.492 12.186.731 2.195.819 2.869.83 6.355l.012 3.9-1.186 2.463c-2.28 4.736-5.354 6.935-10.006 7.16-2.22.109-2.69.039-4.11-.61-2.933-1.34-5.009-3.973-5.968-7.568-.254-.954-.589-1.685-.744-1.626-.155.059-.614 1.045-1.02 2.193-2.02 5.708-6.96 8.668-12.075 7.236zm103.66 0c-5.921-1.657-9.053-6.253-9.047-13.28.01-6.72 2.746-12.704 11.317-24.71 2.552-3.575 6.026-8.547 7.72-11.05s3.182-4.55 3.306-4.55c.124 0 .778 1.007 1.452 2.239 1.112 2.028 5.657 8.887 13.16 19.86 5.055 7.393 7.034 12.188 7.272 17.622.126 2.89.069 3.386-.637 5.478-1.4 4.158-4.393 7.37-7.827 8.4-2.224.668-5.225.546-7.016-.286-2.832-1.315-4.882-3.938-5.884-7.526-.266-.953-.6-1.713-.744-1.689-.143.024-.538.89-.878 1.924-.743 2.256-2.36 4.773-3.74 5.824-2.438 1.855-5.675 2.523-8.454 1.745zm42.488-20.038c-1.56-.828-2.304-2.385-2.298-4.809 0-1.164.22-2.643.511-3.484.643-1.855 8.187-14.532 8.661-14.554.195-.01.571.406.837.922.265.517 1.637 2.844 3.049 5.172 3.881 6.402 4.674 8.223 4.824 11.081.147 2.794-.314 4.066-1.916 5.285-.828.63-1.33.778-2.638.778-1.977 0-2.929-.613-3.814-2.455l-.624-1.3-.676 1.526c-.525 1.188-.9 1.62-1.692 1.95-1.38.575-3.01.532-4.224-.112zM54.009 85.584c-1.264-1.867-4.819-6.962-7.9-11.321-7.804-11.041-10.41-15.876-11.523-21.37-.637-3.146-.452-7.513.422-9.991 1.651-4.682 5.89-7.743 10.74-7.755 4.53-.011 7.883 2.652 9.565 7.598.407 1.198.865 2.166 1.017 2.15.152-.016.481-.795.731-1.733.893-3.35 2.849-5.965 5.526-7.39 1.075-.572 1.68-.67 4.154-.67 2.597 0 3.069.085 4.575.823 4.293 2.103 7.198 7.167 7.198 12.547 0 5.334-2.24 10.938-7.342 18.363-7.604 11.067-11.022 16.2-12.674 19.037-.996 1.708-1.896 3.105-2 3.105-.106 0-1.225-1.527-2.489-3.394zm103.44-.29c-1.368-2.025-4.79-6.932-7.605-10.904-6.491-9.16-8.241-12.032-10.123-16.611-3.107-7.564-2.362-15.525 1.818-19.425 4.38-4.088 10.627-4.378 14.346-.668 1.459 1.455 2.338 2.918 3.13 5.206.368 1.067.794 1.936.946 1.93.151-.01.486-.765.744-1.687.938-3.362 2.886-5.95 5.54-7.362 1.075-.573 1.68-.67 4.154-.67 2.597 0 3.069.085 4.575.823 3.105 1.52 5.577 4.714 6.727 8.688.727 2.51.47 7.017-.586 10.277-1.103 3.405-3.142 7.315-5.985 11.48-9.085 13.306-11.93 17.58-13.268 19.935-.835 1.47-1.61 2.672-1.723 2.672-.112 0-1.323-1.658-2.69-3.683zm-142.07-9.253c-4.623-7.583-5.32-9.098-5.466-11.884-.098-1.868-.016-2.377.557-3.468.914-1.738 2.191-2.4 4.36-2.26 1.968.129 2.961.878 3.421 2.581.369 1.367.711 1.399 1.139.106.181-.548.799-1.408 1.372-1.91.953-.835 1.176-.902 2.6-.784 4.464.37 5.928 5.399 3.178 10.912-1.297 2.6-7.196 12.422-7.46 12.422-.12 0-1.785-2.572-3.701-5.715zm4.016-23.172c0-.636.098-1.172.217-1.193.12-.02.519-.068.888-.106 1.06-.109 1.247-.512 1.154-2.486l-.087-1.848-5.936-.145-5.936-.144-.086-1.464-.086-1.463 6.575-9.89 6.575-9.89 1.04.088 1.038.087.076 9.745.076 9.745.648.144c.356.079 1.169.179 1.806.221.968.064 1.174.189 1.255.756.053.374.019.985-.074 1.358-.151.6-.365.689-1.834.765l-1.663.087-.084 2.056-.084 2.056.887.177c1.002.2 1.31.724 1.044 1.778-.181.722-.183.722-3.795.722h-3.614v-1.156zm1.858-8.842c.397-.152.458-.948.458-5.922 0-4.408-.084-5.745-.362-5.74-.199 0-2.049 2.548-4.11 5.653-3.006 4.529-3.666 5.7-3.33 5.911.464.293 6.62.375 7.344.098z" fill="#da6d6d"/><path d="M0 157.44V0h217.76v314.88H0V157.44zm212.14 156.22c1.848-.972 3.687-3.022 4.286-4.775.413-1.209.456-15.59.456-151.43V7.365l-.824-1.736c-.917-1.934-2.394-3.386-4.373-4.3L210.367.72H7.087l-1.303.68c-1.775.928-3.372 2.5-4.296 4.23L.717 7.077.64 156.716c-.054 103.98.016 150.08.227 151.07.61 2.866 2.79 5.295 5.639 6.28 1.366.471 7.272.497 102.8.437l101.35-.064 1.483-.781zm-20.816-23.542c-.085-.445-.093-4.668-.018-9.383.093-5.842.037-8.76-.176-9.157-.242-.45-.66-.603-1.831-.67l-1.518-.088v-2.6l1.635-.085c1.844-.097 1.973-.273 1.98-2.696 0-1.377-.296-1.846-1.299-2.029-.437-.08-.601-.373-.67-1.195l-.09-1.09 3.566.08 3.565.082v1.01c0 .936-.076 1.023-1.013 1.156l-1.014.145-.084 2.233-.084 2.233 6.02.078 6.021.078.086 1.325c.083 1.275-.076 1.571-4.191 7.8-9.057 13.706-8.833 13.398-9.827 13.495-.787.077-.922-.016-1.057-.723zm7.333-12.68c2.193-3.275 3.721-5.834 3.629-6.075-.13-.338-.873-.4-4.003-.335l-3.842.081-.078 5.994c-.051 3.886.024 5.994.213 5.994.16 0 1.997-2.546 4.08-5.659zm-134.37-.659c-2.584-.853-4.955-2.916-6.184-5.381-.657-1.316-.812-1.803-1.224-3.828-.243-1.195-.93-.713-1.43 1.002-1.06 3.635-3.074 6.146-5.975 7.444-1.578.707-2.03.78-4.121.67-5.005-.263-8.548-2.97-10.356-7.912-.518-1.414-.628-2.358-.638-5.465-.012-3.58.037-3.9 1.041-6.835 1.825-5.327 3.988-9.14 9.808-17.286a927.402 927.402 0 0 0 7.346-10.472c2.054-2.979 3.833-5.416 3.953-5.416.12 0 .962 1.267 1.873 2.816 1.733 2.947 5.106 8.035 11.444 17.26 4.635 6.747 6 9.21 7.369 13.288 2.273 6.777 1.423 12.437-2.512 16.733-2.058 2.247-4.404 3.36-7.397 3.508-1.25.062-2.599.01-2.997-.126zm103.66 0c-1.662-.549-3.137-1.514-4.444-2.908-1.522-1.623-2.321-3.176-2.813-5.46-.425-1.98-.974-1.923-1.581.161-1.06 3.635-3.074 6.146-5.975 7.444-1.58.708-2.03.78-4.134.67-3.646-.19-6.818-1.848-8.687-4.538-2.743-3.95-3.176-10.027-1.145-16.086 1.59-4.743 4.064-9.026 10.037-17.374a743.334 743.334 0 0 0 7.29-10.404c1.876-2.74 3.52-4.983 3.654-4.983.135 0 .595.617 1.025 1.372 1.813 3.189 5.363 8.664 8.943 13.794 7.952 11.394 9.567 14.192 11.022 19.1 1.879 6.34.913 11.78-2.812 15.847-2.043 2.23-4.398 3.344-7.383 3.493-1.25.062-2.599.01-2.997-.127zm22.108-19.997c-1.193-.344-2.629-2-2.876-3.318-.299-1.587.033-4.211.731-5.787.344-.777 2.325-4.24 4.404-7.695 3.319-5.52 4.299-6.901 4.299-6.061 0 .122 1.633 2.95 3.628 6.283 2.198 3.67 3.854 6.785 4.199 7.897 1.54 4.957-.228 8.776-4.087 8.832-1.713.025-2.795-.692-3.589-2.379-.646-1.371-1.004-1.418-1.4-.182-.39 1.215-1.301 2.105-2.494 2.436-1.207.334-1.581.33-2.815-.025zm-137.51-173.5a635.461 635.461 0 0 0-7.042-10.049c-5.552-7.714-8.047-11.976-9.725-16.61-1.67-4.613-1.994-8.504-1.02-12.298 1.421-5.548 5.17-8.738 10.605-9.024 2.067-.109 2.558-.034 3.96.607 3.038 1.387 5.083 3.891 6.127 7.499.521 1.802 1.187 2.197 1.46.867.66-3.205 1.547-4.92 3.451-6.671 2.209-2.031 3.41-2.501 6.393-2.501 2.366 0 2.794.089 4.538.946 2.244 1.102 4.443 3.327 5.562 5.626 1.992 4.096 2.105 8.268.364 13.543-1.581 4.793-2.58 6.524-9.73 16.86-5.64 8.157-7.314 10.7-9.206 13.99-.77 1.34-1.54 2.482-1.71 2.54-.172.056-1.984-2.34-4.028-5.324zm104.95 1.885c-1.314-1.956-4.605-6.676-7.315-10.49-5.889-8.287-7.32-10.544-9.346-14.743-3.935-8.154-3.928-15.895.017-20.743.887-1.09 1.811-1.794 3.44-2.624 1.945-.99 2.537-1.151 4.664-1.262 2.136-.112 2.626-.04 3.985.583.852.39 1.996 1.087 2.541 1.547 1.417 1.195 3.036 3.83 3.612 5.875.281 1.001.657 1.758.872 1.758.224 0 .566-.763.843-1.88.577-2.333 1.584-4.08 3.221-5.585 2.209-2.031 3.41-2.501 6.393-2.501 2.366 0 2.794.089 4.538.946 4.622 2.27 7.46 7.608 7.1 13.354-.34 5.425-2.455 10.273-8.019 18.382-7.598 11.073-10.434 15.338-11.97 18.005-.867 1.503-1.714 2.779-1.882 2.835-.169.056-1.381-1.5-2.695-3.455zm-142.13-9.406c-4.771-7.969-4.524-7.513-5.049-9.297-1.138-3.866.02-7.093 2.815-7.844 2.332-.626 4.286.241 4.962 2.203.464 1.347 1.04 1.48 1.354.312.936-3.493 6.04-3.583 7.803-.136.877 1.716.702 5.172-.381 7.532-.843 1.834-7.513 13.19-7.76 13.21-.086.01-1.77-2.684-3.744-5.98zm4.161-22.141c-.089-.232-.119-.724-.067-1.093.074-.52.322-.703 1.109-.815l1.013-.145v-4.333l-5.936-.16c-3.264-.087-5.968-.185-6.008-.216-.04-.031-.072-.628-.072-1.326 0-1.166.502-2.03 6.256-10.76 3.44-5.221 6.463-9.726 6.717-10.012.272-.306.765-.484 1.2-.433l.74.086.144 9.591c.088 5.811.26 9.704.435 9.877.159.157.94.326 1.737.375l1.448.09v2.6l-1.587.09c-.872.049-1.684.244-1.805.433-.352.552-.26 3.518.12 3.897.19.19.655.347 1.03.347.613 0 .675.112.594 1.083l-.09 1.083-3.408.081c-2.773.066-3.438 0-3.57-.34zm2.134-15.557c.051-3.886-.024-5.994-.214-5.994-.478 0-7.886 11.275-7.71 11.734.131.338.873.4 4.003.335l3.843-.081.078-5.994z" fill="#d64e4f"/><path d="M0 157.44V0h217.76v314.88H0V157.44zm212.14 156.22c1.848-.972 3.687-3.022 4.286-4.775.413-1.209.456-15.59.456-151.43V7.365l-.824-1.736c-.917-1.934-2.394-3.386-4.373-4.3L210.367.72H7.087l-1.303.68c-1.775.928-3.372 2.5-4.296 4.23L.717 7.077.64 156.716c-.054 103.98.016 150.08.227 151.07.61 2.866 2.79 5.295 5.639 6.28 1.366.471 7.272.497 102.8.437l101.35-.064 1.483-.781zm-20.739-32.694c0-7.428-.084-9.732-.362-9.907-.199-.126-1.013-.296-1.81-.378-1.433-.148-1.448-.16-1.448-1.161v-1.011l1.497-.087c.823-.048 1.644-.263 1.824-.48.193-.232.291-1.193.24-2.351-.085-1.942-.094-1.96-1.027-2.201-.786-.202-.94-.378-.94-1.07 0-1.076.327-1.178 3.793-1.178 2.78 0 2.89.024 3.204.714.425.929-.05 1.532-1.3 1.653l-.92.089-.086 1.976c-.053 1.208.045 2.134.252 2.383.271.325 1.495.407 6.095.407h5.756v1.375c0 1.309-.307 1.835-6.443 11.05-6.09 9.145-6.494 9.68-7.384 9.765l-.94.091v-9.678zm7.408-3.555c3.653-5.526 3.91-6.003 3.427-6.355-.64-.466-6.825-.532-7.669-.082-.525.28-.56.661-.56 6.163 0 5.564.068 6.249.62 6.249.128 0 2.01-2.689 4.182-5.975zm-155.66-1.064c-5.824-1.699-8.687-6-8.687-13.052 0-6.681 2.644-12.521 10.914-24.107 2.325-3.257 5.716-8.1 7.536-10.761 1.819-2.661 3.421-4.839 3.56-4.839.14 0 .997 1.268 1.906 2.817 1.53 2.61 4.17 6.565 12.276 18.395 4.637 6.767 6.656 11.137 7.522 16.273.98 5.825-1.954 12.26-6.704 14.696-1.255.644-2.026.812-4.19.914-2.372.112-2.82.048-4.244-.602-2.856-1.305-5.004-4.136-5.804-7.651-.54-2.377-1.119-2.34-1.916.12-.347 1.074-.83 2.336-1.074 2.806-.738 1.424-3.036 3.667-4.53 4.422-1.716.868-4.664 1.123-6.565.568zm103.66 0c-3.277-.953-5.85-2.99-7.212-5.709-1.222-2.438-1.563-4.453-1.41-8.329.26-6.633 2.743-11.809 11.627-24.24 2.2-3.078 5.365-7.595 7.033-10.038 1.667-2.442 3.146-4.441 3.285-4.441.139 0 .997 1.267 1.906 2.817 1.492 2.543 4.076 6.418 12.606 18.903 4.31 6.31 6.457 11.07 7.203 15.979.907 5.973-2.032 12.12-6.948 14.529-2.198 1.076-5.958 1.263-7.928.393-3.43-1.513-5.412-4.241-6.397-8.803-.307-1.42-1.022-.814-1.751 1.485-1.093 3.442-2.88 5.647-5.603 6.912-1.852.86-4.535 1.087-6.41.542zm42.576-20.068c-2.188-1.17-2.808-4.843-1.403-8.312.76-1.878 7.983-13.977 8.344-13.977.124 0 .314.228.42.506.107.278 1.69 2.995 3.519 6.04 3.805 6.335 4.512 8.04 4.534 10.931.025 3.332-1.36 5.043-4.275 5.284-1.351.112-1.601.036-2.516-.765-.558-.49-1.135-1.306-1.281-1.815-.411-1.43-.9-1.316-1.654.385-.452 1.02-.95 1.664-1.467 1.9-1.138.517-3.076.436-4.22-.177zm-133.27-168.1c-.241-.278-1.263-1.74-2.271-3.25s-4.176-6.052-7.04-10.095c-6.193-8.744-7.643-11.028-9.53-15.012-1.895-3.999-2.817-7.668-2.817-11.215 0-5.78 2.01-9.75 5.988-11.835 4.587-2.402 8.804-1.85 12.016 1.577 1.54 1.642 2.279 2.978 2.966 5.36.639 2.213 1.312 2.176 1.768-.097.68-3.384 2.952-6.392 5.818-7.701 1.39-.635 1.905-.713 4.108-.625 2.045.082 2.83.253 4.18.914 5.14 2.518 8.031 9.115 6.733 15.363-1.086 5.228-2.87 9.044-7.104 15.192-6.389 9.278-11.545 17.024-12.591 18.916-1.745 3.154-1.703 3.107-2.224 2.508zm100.95-3.9a900.32 900.32 0 0 0-7.23-10.327c-6.727-9.468-8.856-13.138-10.61-18.285-.747-2.195-.928-3.24-1.036-5.99-.153-3.877.188-5.891 1.41-8.33 2.463-4.917 8.722-7.344 13.51-5.238 2.64 1.162 4.655 3.675 5.848 7.294.682 2.07 1.328 2.53 1.623 1.156.956-4.445 2.967-7.245 6.281-8.746 1.738-.786 5.16-.772 7.313.031 1.867.697 4.645 3.106 5.748 4.982 2.557 4.353 2.699 9.363.44 15.504-1.112 3.02-2.879 6.227-5.686 10.318-7.658 11.162-11.129 16.362-12.636 18.931-.909 1.55-1.766 2.817-1.905 2.817s-1.52-1.852-3.07-4.117zm-141.63-8.666c-4.889-8.142-5.08-8.556-5.235-11.357-.107-1.95-.03-2.52.47-3.5.73-1.429 2.047-2.115 4.057-2.115 1.76 0 2.742.724 3.33 2.455.476 1.402 1.085 1.489 1.454.208.15-.521.713-1.334 1.251-1.806 1.877-1.644 4.884-.95 6.3 1.455.865 1.468.787 4.738-.168 7.076-.694 1.7-7.484 13.395-7.79 13.42-.086.01-1.737-2.62-3.669-5.837zm5.183-21.804c-.882-.109-.95-.19-.868-1.037.078-.808.212-.937 1.102-1.064l1.014-.145.086-1.975c.053-1.209-.045-2.135-.253-2.384-.27-.325-1.495-.407-6.094-.407H9.849v-1.422c0-1.371.233-1.774 6.443-11.116 6.254-9.41 6.47-9.694 7.383-9.7l.941-.01v9.66c0 6.29.104 9.725.297 9.844.164.1 1.018.257 1.898.348l1.6.165-.087 1.04c-.087 1.038-.093 1.043-1.584 1.129-.823.048-1.644.263-1.824.48-.194.232-.292 1.197-.24 2.366.084 1.944.1 1.977.954 2.124.738.126.869.279.869 1.01 0 .722-.14.89-.869 1.046-.958.204-3.521.227-5.012.043zm.892-9.674c.47-.232.506-.754.434-6.21-.057-4.316-.174-5.99-.425-6.073-.37-.122-7.973 11.03-8.022 11.767-.02.318.397.479 1.564.603 2.352.25 5.862.202 6.449-.087z" fill="#6b6b6b"/><path d="M0 157.44V0h217.76v314.88H0V157.44zm213.2 155.91c1.776-1.22 2.856-2.598 3.527-4.498.4-1.133.446-16.895.446-151.25 0-136.41-.042-150.11-.461-151.33-.615-1.8-2.787-4.163-4.6-5.006l-1.454-.675H6.778l-1.504.748c-1.67.83-3.32 2.547-4.14 4.307-.522 1.122-.538 5.59-.538 151.95 0 146 .017 150.83.535 151.97 1.022 2.245 3.298 4.272 5.347 4.762.5.12 46.858.198 103.02.174l102.11-.044 1.6-1.099zm-21.798-32.376c0-7.428-.084-9.732-.362-9.907-.199-.126-1.013-.296-1.81-.378-1.433-.148-1.447-.16-1.447-1.161v-1.011l1.496-.087c.823-.048 1.644-.263 1.824-.48.193-.232.291-1.193.24-2.351-.084-1.942-.093-1.96-1.027-2.201-.786-.202-.94-.378-.94-1.07 0-1.076.327-1.178 3.793-1.178 2.78 0 2.89.024 3.204.714.425.929-.05 1.532-1.3 1.653l-.92.089-.086 1.976c-.053 1.208.045 2.134.252 2.383.271.325 1.495.407 6.095.407h5.756v1.375c0 1.309-.307 1.835-6.443 11.05-6.09 9.145-6.494 9.68-7.384 9.765l-.94.091v-9.678zm7.408-3.555c3.653-5.526 3.91-6.003 3.427-6.355-.64-.466-6.825-.532-7.669-.082-.525.28-.56.661-.56 6.163 0 5.564.068 6.249.62 6.249.128 0 2.01-2.689 4.182-5.975zm-155.66-1.064c-5.824-1.699-8.687-6-8.687-13.052 0-6.681 2.644-12.521 10.914-24.107 2.325-3.257 5.716-8.1 7.536-10.761 1.819-2.661 3.421-4.839 3.56-4.839.14 0 .997 1.268 1.906 2.817 1.53 2.61 4.17 6.565 12.276 18.395 4.637 6.767 6.656 11.137 7.522 16.273.98 5.825-1.954 12.26-6.704 14.696-1.255.644-2.026.812-4.19.914-2.372.112-2.82.048-4.244-.602-2.856-1.305-5.004-4.136-5.804-7.651-.54-2.377-1.119-2.34-1.916.12-.347 1.074-.83 2.336-1.074 2.806-.738 1.424-3.036 3.667-4.53 4.422-1.716.868-4.664 1.123-6.565.568zm103.66 0c-3.277-.953-5.85-2.99-7.212-5.709-1.222-2.438-1.563-4.453-1.41-8.329.26-6.633 2.743-11.809 11.627-24.24 2.2-3.078 5.365-7.595 7.033-10.038 1.667-2.442 3.146-4.441 3.285-4.441.139 0 .997 1.267 1.906 2.817 1.492 2.543 4.076 6.418 12.606 18.903 4.31 6.31 6.457 11.07 7.203 15.979.907 5.973-2.032 12.12-6.948 14.529-2.198 1.076-5.958 1.263-7.928.393-3.43-1.513-5.412-4.241-6.397-8.803-.307-1.42-1.022-.814-1.751 1.485-1.093 3.442-2.88 5.647-5.603 6.912-1.852.86-4.535 1.087-6.41.542zm42.576-20.068c-2.188-1.17-2.808-4.843-1.403-8.312.76-1.878 7.983-13.977 8.344-13.977.124 0 .314.228.42.506.107.278 1.69 2.995 3.519 6.04 3.805 6.335 4.512 8.04 4.534 10.931.025 3.332-1.36 5.043-4.275 5.284-1.351.112-1.601.036-2.516-.765-.558-.49-1.135-1.306-1.281-1.815-.411-1.43-.9-1.316-1.654.385-.452 1.02-.95 1.664-1.467 1.9-1.138.517-3.076.436-4.22-.177zm-133.27-168.1c-.241-.278-1.263-1.74-2.271-3.25s-4.176-6.052-7.04-10.095c-6.193-8.744-7.643-11.028-9.53-15.012-1.895-3.999-2.817-7.668-2.817-11.215 0-5.78 2.01-9.75 5.988-11.835 4.587-2.402 8.804-1.85 12.016 1.577 1.54 1.642 2.279 2.978 2.966 5.36.639 2.213 1.312 2.176 1.768-.097.68-3.384 2.952-6.392 5.818-7.701 1.39-.635 1.905-.713 4.108-.625 2.045.082 2.83.253 4.18.914 5.14 2.518 8.031 9.115 6.733 15.363-1.086 5.228-2.87 9.044-7.104 15.192-6.389 9.278-11.545 17.024-12.591 18.916-1.745 3.154-1.703 3.107-2.224 2.508zm100.95-3.9a900.32 900.32 0 0 0-7.23-10.327c-6.727-9.468-8.856-13.138-10.61-18.285-.747-2.195-.928-3.24-1.036-5.99-.153-3.877.188-5.891 1.41-8.33 2.463-4.917 8.722-7.344 13.51-5.238 2.64 1.162 4.655 3.675 5.848 7.294.682 2.07 1.328 2.53 1.623 1.156.956-4.445 2.967-7.245 6.281-8.746 1.738-.786 5.16-.772 7.313.031 1.867.697 4.645 3.106 5.748 4.982 2.557 4.353 2.699 9.363.44 15.504-1.112 3.02-2.879 6.227-5.686 10.318-7.658 11.162-11.129 16.362-12.636 18.931-.909 1.55-1.766 2.817-1.905 2.817s-1.52-1.852-3.07-4.117zM15.436 75.62c-4.889-8.142-5.08-8.556-5.235-11.357-.107-1.95-.03-2.52.47-3.5.73-1.429 2.047-2.115 4.057-2.115 1.76 0 2.742.724 3.33 2.455.476 1.402 1.085 1.489 1.454.208.15-.521.713-1.334 1.251-1.806 1.877-1.644 4.884-.95 6.3 1.455.865 1.468.787 4.738-.168 7.076-.694 1.7-7.484 13.395-7.79 13.42-.086.01-1.737-2.62-3.669-5.837zm5.183-21.804c-.882-.109-.95-.19-.868-1.037.078-.808.212-.937 1.102-1.064l1.014-.145.086-1.975c.053-1.209-.045-2.135-.253-2.384-.27-.325-1.495-.407-6.094-.407H9.85v-1.422c0-1.371.233-1.774 6.443-11.116 6.254-9.41 6.47-9.694 7.383-9.7l.941-.01v9.66c0 6.29.104 9.725.297 9.844.164.1 1.018.257 1.898.348l1.6.165-.087 1.04c-.087 1.038-.093 1.043-1.584 1.129-.823.048-1.644.263-1.824.48-.194.232-.292 1.197-.24 2.366.084 1.944.1 1.977.954 2.124.738.126.869.279.869 1.01 0 .722-.14.89-.869 1.046-.958.204-3.521.227-5.012.043zm.892-9.674c.47-.232.506-.754.434-6.21-.057-4.316-.174-5.99-.425-6.073-.37-.122-7.973 11.03-8.022 11.767-.02.318.397.479 1.564.603 2.352.25 5.862.202 6.449-.087z" fill="#d22d2e"/><path d="M0 157.44V0h217.76v314.88H0V157.44zm213.2 155.91c1.776-1.22 2.856-2.598 3.527-4.498.4-1.133.446-16.895.446-151.25 0-136.41-.042-150.11-.461-151.33-.615-1.8-2.787-4.163-4.6-5.006l-1.454-.675H6.778l-1.504.748c-1.67.83-3.32 2.547-4.14 4.307-.522 1.122-.538 5.59-.538 151.95 0 146 .017 150.83.535 151.97 1.022 2.245 3.298 4.272 5.347 4.762.5.12 46.858.198 103.02.174l102.11-.044 1.6-1.099zm-21.316-22.926c-.106-.106-.195-4.428-.197-9.605 0-5.177-.103-9.567-.224-9.756-.12-.19-.933-.384-1.805-.434l-1.586-.09V268.517l1.545-.024c.997-.016 1.638-.17 1.806-.433.311-.491.348-4.026.047-4.497-.117-.182-.539-.377-.937-.433-.552-.077-.724-.273-.724-.824v-.722h6.37v.722c0 .59-.159.74-.868.813-.478.05-1.032.302-1.231.56-.395.515-.49 3.756-.127 4.326.163.257 1.822.377 5.99.434l5.766.079.18.722c.099.397.082 1.078-.038 1.513-.313 1.135-12.532 19.445-13.13 19.673-.611.234-.6.234-.837 0zm7.137-12.913c2.226-3.348 3.933-6.2 3.847-6.424-.123-.32-1.027-.403-4.353-.403-3.854 0-4.222.046-4.497.559-.324.603-.428 11.193-.119 11.998.1.259.393.43.651.38.259-.05 2.27-2.799 4.471-6.11zm-134.45-1.014c-3.637-1.192-6.503-4.462-7.203-8.222-.48-2.581-1.459-2.578-2.207.01-.72 2.491-1.816 4.306-3.556 5.893-2.777 2.532-6.497 2.97-10.27 1.209-3.226-1.507-4.935-3.482-6.01-6.948-2.14-6.904.3-14.914 7.804-25.627 1.558-2.225 4.75-6.775 7.094-10.111 2.344-3.337 4.664-6.684 5.155-7.439.491-.755.99-1.372 1.108-1.372.118 0 .733.942 1.367 2.094 1.15 2.088 5.615 8.819 12.217 18.416 3.938 5.724 5.481 8.503 6.668 12.006 1.89 5.575 1.837 9.528-.179 13.6-1.308 2.64-3.922 5.205-6.062 5.948-1.695.588-4.899.884-5.926.547zm103.39-.07c-1.375-.414-3.767-2.054-4.675-3.204-1.113-1.41-1.66-2.59-2.127-4.588-.69-2.947-1.541-3.078-2.333-.362-.994 3.412-2.88 5.908-5.49 7.268-1.215.632-1.847.761-3.775.768-5.9.021-9.793-3.476-11.07-9.943-.403-2.04-.424-2.809-.14-5.054.77-6.08 3.421-11.539 10.254-21.108a951.857 951.857 0 0 0 7.387-10.54c2.135-3.098 3.978-5.667 4.095-5.71.117-.041.787.934 1.49 2.167 1.21 2.127 6.395 9.91 12.752 19.142 5.131 7.454 7.29 12.764 7.339 18.055.03 3.178-.407 4.927-1.88 7.54-1.073 1.907-3.35 4.02-5.262 4.883-1.75.792-5.066 1.139-6.564.687zm21.377-20.384c-2.299-1.424-2.555-5.307-.607-9.191.596-1.187 7.152-12.2 7.453-12.517.049-.052.453.533.897 1.3s2.072 3.502 3.618 6.076c3.252 5.419 3.86 6.952 3.87 9.763.01 2.396-.609 3.69-2.159 4.517-2.284 1.218-4.496.432-5.525-1.961-.588-1.369-1.276-1.632-1.586-.607-.447 1.479-1.071 2.467-1.753 2.777-1.045.475-3.323.39-4.208-.158zM54.088 84.863c-1.208-1.788-4.603-6.655-7.544-10.817-2.94-4.162-5.942-8.582-6.671-9.822-4.36-7.42-6.072-13.845-5.013-18.816.949-4.455 2.719-6.923 6.192-8.636 2.04-1.005 2.409-1.091 4.69-1.091 2.98 0 4.555.667 6.519 2.762 1.463 1.56 2.226 2.947 2.906 5.282.792 2.717 1.644 2.585 2.333-.361.23-.984.628-2.194.884-2.687.76-1.465 3.038-3.7 4.596-4.507 1.237-.64 1.81-.75 3.842-.733 2.065.017 2.635.141 4.22.92 2.393 1.175 4.338 3.164 5.553 5.68 3.22 6.662 1.359 14.197-6.205 25.131-5.739 8.295-11.521 17.003-12.613 18.994-.589 1.073-1.164 1.95-1.28 1.95-.116 0-1.2-1.462-2.408-3.25zm103.36-.434c-1.377-2.025-4.718-6.803-7.425-10.616-5.219-7.352-6.84-9.898-8.715-13.687-2.498-5.046-3.521-9.81-2.941-13.7.837-5.618 3.32-8.847 7.944-10.336 5.631-1.812 10.655 1.253 12.515 7.635.268.92.69 1.749.937 1.844.552.21 1.235-.65 1.235-1.555 0-2.533 3.067-6.681 5.86-7.928 2.15-.96 5.318-.909 7.572.12 2.004.916 4.269 3.001 5.358 4.934 1.473 2.613 1.909 4.363 1.88 7.54-.049 5.223-2.213 10.64-7.042 17.622-5.764 8.337-11.847 17.46-13.049 19.571-.7 1.232-1.352 2.24-1.449 2.24-.097 0-1.302-1.658-2.68-3.684zm-141.24-7.944c-1.476-2.423-3.253-5.404-3.95-6.626-2.503-4.392-2.689-8.124-.5-10.042.872-.763 1.229-.88 2.67-.88 2.095 0 2.767.459 3.384 2.31.606 1.822 1.379 1.969 1.896.361.697-2.164 2.37-3.198 4.327-2.673 2.98.801 4.145 3.694 3.083 7.656-.498 1.86-1.368 3.549-4.233 8.224-1.28 2.09-2.59 4.311-2.91 4.937-.32.626-.695 1.139-.833 1.139-.137 0-1.458-1.983-2.934-4.406zm3.595-23.172c-.299-.775.122-1.31 1.03-1.31.561 0 .973-.197 1.167-.558.374-.697.386-3.769.017-4.352-.223-.354-1.353-.46-6.148-.578l-5.875-.145.023-1.155c.02-1.008.843-2.382 6.423-10.731 3.52-5.267 6.527-9.655 6.683-9.75.156-.097.49-.096.743 0 .408.156.46 1.255.46 9.642 0 7.322.085 9.536.37 9.773.203.168 1.018.346 1.81.396 1.392.088 1.443.123 1.531 1.03l.091.939h-1.445c-2.002 0-2.356.428-2.356 2.851 0 2.096.283 2.637 1.38 2.637.577 0 .671.126.594.795l-.092.794-3.118.082c-2.587.068-3.147.01-3.289-.361zM22 43.934c.369-.687.4-11.547.035-12.122a.611.611 0 0 0-.703-.232c-.422.162-7.613 10.712-8.081 11.856-.12.293-.145.65-.055.795.089.144 2.04.262 4.334.262 3.827 0 4.196-.046 4.47-.559z" fill="#cd0504"/><path d="M0 157.44V0h217.76v314.88H0V157.44zm213.2 155.91c1.776-1.22 2.856-2.598 3.527-4.498.4-1.133.446-16.895.446-151.25 0-136.41-.042-150.11-.461-151.33-.615-1.8-2.787-4.163-4.6-5.006l-1.454-.675H6.778l-1.504.748c-1.67.83-3.32 2.547-4.14 4.307-.522 1.122-.538 5.59-.538 151.95 0 146 .017 150.83.535 151.97 1.022 2.245 3.298 4.272 5.347 4.762.5.12 46.858.198 103.02.174l102.11-.044 1.6-1.099zm-21.508-24.305c0-.547.132-1.076.294-1.175.162-.1.195-.335.072-.523-.122-.188-.222-3.94-.222-8.34 0-7.878-.01-8.008-.639-8.594-.672-.626-1.532-.798-1.532-.306 0 .158-.256.288-.568.288-.45 0-.555-.177-.507-.866.06-.844.1-.866 1.581-.866.837 0 1.52-.13 1.52-.29 0-.159.188-.289.418-.289.23 0 .51-.15.624-.333.126-.204.08-.255-.12-.133-.47.29-.77-1.18-.398-1.939.739-1.503.699-1.853-.267-2.334-.509-.253-1.165-.46-1.46-.46-.34 0-.534-.209-.534-.578 0-.525.193-.578 2.114-.578 1.29 0 2.266.14 2.504.361.312.29.349.29.185 0-.133-.235-.01-.36.361-.36.564 0 1.033.654.704.982-.095.095-.545.173-1 .173-1.098 0-1.442.926-1.332 3.588l.084 2.045 6.008.078 6.009.078v1.158c0 .764-.149 1.216-.435 1.325-.239.091-.434.333-.434.536 0 .925-2.104 3.778-2.573 3.49-.144-.09-.337.032-.428.27-.214.554-.763.56-.763.01 0-.233.26-.563.579-.733.318-.17.579-.577.579-.903 0-.327.26-.925.579-1.33.605-.767.82-2.967.29-2.967-.16 0-.29.195-.29.434 0 .522-1.055.583-1.241.072-.105-.29-.254-.29-.744 0-.386.227-1.74.36-3.647.36-2.704 0-3.067.062-3.334.56-.179.332-.3 2.936-.3 6.435 0 4.851.079 5.989.45 6.519.249.353.542.636.652.63.197-.013 1.443-1.745 3.937-5.477.69-1.033 1.403-1.845 1.583-1.805.18.04.327-.043.327-.183s.261-.324.58-.407c.424-.11.579-.01.579.38 0 .293-.26.614-.58.715-.364.116-.579.437-.579.87 0 .715-.42 1.132-1.158 1.145-.28.01-.403.234-.345.647.11.793-1.035 2.393-1.714 2.393-.325 0-.625.382-.85 1.084-.192.595-.527 1.286-.743 1.535-.217.249-.54.866-.716 1.372-.177.506-.439.92-.583.92-.143 0-.26.188-.26.418 0 .23-.36.596-.797.814-.438.217-.764.55-.724.738.04.187-.123.341-.362.341-.302 0-.434-.303-.434-.994zm2.487-2.942c-.148-.386-.266-.417-.54-.144-.273.273-.257.406.073.61.54.332.709.163.467-.466zm-1.618-15.13c0-.158-.138-.288-.307-.288-.169 0-.226.13-.128.288.1.16.237.29.307.29s.128-.13.128-.29zM63.99 275.92c0-.139-.359-.325-.797-.414-1.07-.218-2.678-1.593-2.678-2.29 0-.319-.25-.628-.574-.713-.569-.148-1.453-1.546-1.453-2.296 0-.214-.13-.39-.29-.39-.159 0-.29-.443-.29-.987 0-1.071-.772-2.665-1.411-2.912-.58-.224-1.128.34-1.354 1.392-.108.506-.288 1.05-.4 1.208-.113.159-.38.841-.592 1.517-.214.675-.498 1.227-.632 1.227s-.243.17-.243.375c0 .464-2.208 2.791-2.69 2.835-.192.018-.644.01-1.002-.021-.522-.042-.637.08-.58.618l.074.67-3.515-.062c-3.052-.055-3.663-.15-4.633-.714-1.437-.835-1.923-1.314-1.7-1.673.098-.16 0-.219-.23-.132-.923.353-3.072-3.04-3.718-5.873-.624-2.736-.305-8.733.464-8.733.222 0 .299-.32.215-.89-.119-.808.137-1.674.846-2.866.142-.238.33-.628.419-.866.46-1.238 1.192-2.498 1.643-2.833.28-.208.508-.671.508-1.03 0-.878 1.112-3.125 1.779-3.592.296-.208.538-.623.538-.923 0-.3.24-.715.533-.922.293-.208.705-.703.916-1.1.585-1.105 2.129-2.878 2.511-2.884.187 0 .704-.752 1.148-1.666.444-.913.914-1.706 1.046-1.76.132-.056.618-.506 1.082-1 .574-.613.753-1.006.564-1.234-.331-.397.326-1.053.929-.927.258.054.425-.263.488-.927.054-.567.53-1.612 1.086-2.384.544-.756.99-1.45.99-1.544 0-.093.558-.84 1.241-1.66s1.422-1.849 1.642-2.285c.496-.986.881-1.022.881-.082 0 .415.24.84.576 1.02.704.375 1.549 1.93 1.342 2.468-.084.219.085.467.382.56.294.094.694.555.89 1.027.195.471.44.857.544.857.19 0 .575.698 1.815 3.295.372.78.896 1.475 1.164 1.545.514.135 1.81 1.915 2.268 3.115.149.39.398.711.554.711.326 0 1.633 1.834 2.785 3.91.438.788 1.18 1.804 1.649 2.256.545.526.8 1.017.71 1.363-.09.348.042.598.377.704.285.09.597.387.693.66.096.272.501.937.9 1.477s.725 1.283.725 1.65c0 .376.256.807.581.98.439.235.537.49.4 1.033-.131.525-.072.7.215.639.284-.06.422.317.486 1.328.058.908.277 1.58.612 1.878.984.878 1.393 5.88.759 9.276-.396 2.119-.47 2.311-.887 2.311-.262 0-.429.276-.429.71 0 1.566-3.334 5.206-4.56 4.98-.42-.079-.652.021-.652.28 0 .22-.334.527-.743.682-.923.35-5.917.374-5.917.029zm-16.817-1.886c.282-.339.072-.422-1.272-.505-1.742-.108-2.18-.04-2.18.336 0 .604 2.97.75 3.452.17zm-4.4-.058c-.095-.096-.345-.106-.554-.023-.231.092-.163.16.175.175.305.013.476-.056.38-.152zm27.153-.114c-.098-.16-.31-.29-.469-.29-.16 0-.209.13-.11.29.098.159.309.289.468.289.16 0 .21-.13.11-.29zm2.533-1.058c-.199-.08-.524-.08-.723 0-.2.08-.036.146.361.146.399 0 .562-.066.362-.146zm2.245-2.409c0-.317-.13-.577-.29-.577-.16 0-.29.26-.29.577 0 .318.13.578.29.578.16 0 .29-.26.29-.578zm-37.643-.577c0-.16-.138-.29-.307-.29-.169 0-.226.13-.128.29.098.158.237.288.307.288s.128-.13.128-.288zm21.717-2.439c0-.07-.13-.208-.29-.306-.16-.098-.29-.04-.29.128s.13.305.29.305c.16 0 .29-.056.29-.127zm-1.159-3.373c0-.318-.13-.497-.29-.4-.158.099-.289.44-.289.757 0 .318.13.497.29.4.159-.099.29-.44.29-.757zm17.844 0c-.1-.497-.185-1.31-.19-1.806-.01-.78-.05-.83-.318-.37-.37.635-.068 3.079.381 3.079.19 0 .24-.345.127-.903zm.109-3.912c0-.583-.09-.97-.2-.86-.235.235-.36 1.394-.18 1.703.26.45.38.182.38-.843zm-34.603-6.452a.569.569 0 0 0-.362-.505c-.215-.072-.362.133-.362.505 0 .373.147.578.362.506a.569.569 0 0 0 .362-.505zm.672-2.261c.13-.884-.43-.785-.6.106-.09.463-.021.695.183.628.178-.06.366-.389.417-.734zm8.16-11.46a.435.435 0 0 0-.87 0 .435.435 0 0 0 .87 0zm8.345-10.35c.065-.335-.044-.428-.361-.306-.536.205-.626 1.084-.093.907.199-.066.404-.337.455-.601zm89.814 46.388c0-.12-.481-.227-1.07-.24-.587-.014-1.119-.176-1.18-.362-.063-.185-.408-.337-.768-.337-.36 0-.888-.257-1.173-.57-.284-.314-.737-.64-1.006-.725-.714-.227-1.834-1.86-1.867-2.724-.017-.458-.26-.848-.624-1.008-.582-.256-1.287-1.92-1.287-3.04 0-.31-.133-.647-.295-.747-.348-.214-.177-4.492.265-6.64.164-.795.383-1.87.487-2.387.204-1.019.701-1.566.701-.773 0 .399.078.421.434.126.271-.224.435-.862.437-1.696 0-.736.196-1.71.434-2.165.238-.455.435-.975.438-1.155 0-.18.361-.757.796-1.282.435-.524.987-1.563 1.225-2.308.308-.96.667-1.466 1.231-1.735.438-.208.796-.558.796-.777 0-.219.26-.48.58-.581.625-.199.753-.581.288-.868-.192-.118-.185-.374.02-.757.23-.427.408-.5.68-.274.493.409.749.1.749-.906 0-.456.293-1.247.651-1.757 1.098-1.562 2.94-3.803 3.326-4.047a.871.871 0 0 0 .366-.659c0-.235.196-.503.434-.594.24-.091.435-.38.435-.642 0-.623 2.026-3.127 2.678-3.31.279-.079.507-.337.507-.574 0-.236.394-1.224.877-2.193.72-1.447 1.005-1.763 1.592-1.763.749 0 1.006-.702.354-.964-.199-.08-.01-.156.422-.169.64-.019.93.23 1.583 1.35.44.754.966 1.543 1.17 1.753.204.21.458.726.564 1.148.106.421.428.965.716 1.207.859.725 1.454 2.106 1.037 2.408-.239.172-.192.203.144.096.477-.153 1.676 1.11 1.676 1.765 0 .149.26.507.579.794.318.288.579.763.579 1.056 0 .293.138.533.308.533.169 0 .27.227.224.505-.1.601 1.157 2.384 1.68 2.384.531 0 2.067 2.091 1.64 2.233-.19.063-.272.305-.183.537.124.322.257.344.559.094.313-.259.503-.132.907.607.281.514.804 1.294 1.163 1.734.358.44.651 1.042.651 1.339 0 .296.26.7.58.9.318.198.579.554.579.79 0 .238.106.432.235.432.236 0 2.425 4.159 2.544 4.833.035.195.27.562.524.814.611.61.899 1.83.52 2.209-.37.37-.132 1.099.36 1.099.695 0 1.043 2.083.917 5.488-.146 3.935-.335 4.951-1.209 6.497-.492.87-.808 1.136-1.27 1.067-.532-.08-.59.01-.425.666.143.567.023.936-.474 1.464-.366.388-.833.706-1.039.706-.205 0-.513.26-.683.578-.351.653-1.523.82-1.278.182.255-.663-.721-.8-1.256-.176-.27.314-.657.572-.86.572-.47 0-.474.354-.01.84.296.31.153.34-.797.17-.637-.114-1.966-.225-2.953-.248-.995-.023-1.956-.201-2.157-.401-.2-.199-.525-.361-.723-.361-.198 0-.565-.293-.816-.65-.251-.358-.552-.65-.668-.65-.116 0-.194-.163-.171-.361.022-.199-.19-.361-.472-.361-.65 0-.992-.435-1.473-1.878-.212-.636-.49-1.28-.616-1.43-.127-.151-.23-.566-.23-.922 0-.356-.13-.728-.29-.826-.16-.098-.29-.47-.29-.826 0-.98-.513-1.358-1.336-.984-.5.228-.814.768-1.16 2-.262.928-.572 1.688-.69 1.688-.12 0-.288.357-.375.794-.221 1.1-1.836 3.248-2.449 3.258-.277 0-.885.394-1.35.867-.926.942-1.107.996-1.904.57-.559-.298-1.45-.115-1.45.298 0 .13.229.296.507.369.28.073-.242.147-1.158.166-.916.018-1.665-.064-1.666-.184zm22.008-2.143c0-.132-.358-.238-.796-.236-.525 0-.669.085-.423.241.485.307 1.22.304 1.22 0zm8.099-4.88c-.342-.636-.86-.748-.86-.184 0 .494.606 1.086.916.895.135-.083.109-.403-.057-.71zm.921-13.126c0-.15-.14-.32-.311-.378-.171-.057-.311.113-.311.378s.14.435.311.378c.171-.057.311-.227.311-.378zm-35.37-1.138c0-.46-.525-.89-.779-.636-.238.237.134 1.052.48 1.052.165 0 .3-.187.3-.416zm3.185-5.344c0-.39-.527-.66-.873-.448-.162.1-.22.303-.128.45.218.351 1.001.35 1.001 0zm26.64-.884c0-.159-.203-.289-.451-.289s-.37.13-.272.289c.099.159.301.289.451.289.15 0 .272-.13.272-.289zm-1.296-1.134c-.21-.66-.73-.82-.73-.224 0 .411.613 1.13.803.942.065-.065.032-.388-.073-.718zm-24.185-.166c0-.397-.13-.722-.29-.722-.159 0-.289.325-.289.722 0 .397.13.722.29.722.159 0 .29-.325.29-.722zm8.398-11.844c0-.24-.258-.433-.58-.433-.321 0-.579.192-.579.433 0 .24.258.433.58.433.321 0 .579-.192.579-.433zm17.22 40.022c.095-.152.363-.203.597-.114.598.23.528.39-.171.39-.328 0-.52-.124-.425-.276zm-97.406-18.669c.014-.337.083-.405.175-.175.084.209.073.458-.023.554-.096.096-.165-.075-.152-.379zm113.85-.473c-.359-.172-.652-.554-.652-.847 0-.324-.208-.534-.53-.534-.398 0-.612-.362-.868-1.466-.484-2.092-.428-2.71.347-3.85.414-.61.636-1.277.558-1.682-.083-.435.083-.865.472-1.215.33-.299.6-.74.6-.983 0-.62 1.806-3.209 2.244-3.218.2 0 .362-.336.362-.739 0-.402.196-.806.435-.897a.722.722 0 0 0 .434-.622c0-.251.264-.737.587-1.08.323-.343.644-.92.714-1.282.352-1.825 1.768-2.554 2.393-1.233.292.618.278.871-.076 1.411-.612.932-.536 1.151.174.51.598-.54.615-.538 1.158.132.304.373.552.929.552 1.234 0 .305.195.63.434.721.24.091.435.331.435.533s.215.546.479.764c.263.218.662.786.887 1.263.224.476.858 1.581 1.41 2.455.759 1.202.96 1.78.827 2.383-.096.437-.066.795.067.795.589 0 .96 1.677.772 3.486-.17 1.641-.312 1.968-1.216 2.797-1.102 1.011-1.906 1.198-2.173.506-.092-.239-.386-.434-.655-.434-.447 0-.445.047.03.572.475.523.479.587.041.754-.59.226-1.418-.413-1.216-.938.09-.237-.286-.607-.98-.96-.726-.37-1.161-.807-1.22-1.229-.063-.433-.325-.687-.779-.75-.892-.127-1.244.256-1.461 1.588-.306 1.88-2.712 2.957-4.586 2.055zm.796-1.092c0-.159-.123-.289-.273-.289-.15 0-.353.13-.451.29-.098.158.024.288.272.288.249 0 .452-.13.452-.289zm8.397-1.444a.29.29 0 0 0-.579 0 .29.29 0 0 0 .58 0zm-2.072-3.596c.064-.33-.04-.468-.29-.386-.213.071-.434.362-.489.645-.064.33.04.468.29.385.214-.07.434-.36.49-.644zm5.143-3.837c-.295-.293-.538.149-.296.539.182.294.25.294.349 0 .067-.201.043-.444-.053-.54zm-8.573-2.55c0-.248-.132-.37-.294-.27-.162.1-.22.303-.128.451.249.4.422.326.422-.181zm2.896-6.628c0-.559-.568-.848-.94-.478-.22.22-.203.438.059.752.408.49.881.344.881-.274zM55.032 85.503c-.732-1.008-.824-1.298-.526-1.659.29-.35.29-.462 0-.559a.572.572 0 0 1-.362-.508c0-.213-.423-.527-.941-.698-.88-.29-2.13-1.847-2.628-3.273-.097-.278-.311-.505-.476-.505a.301.301 0 0 1-.298-.302c0-.166-.326-.627-.724-1.024-.843-.842-.89-1.198-.272-2.079.412-.585.41-.66-.014-.822-.275-.106-.618.028-.836.326-.34.463-.447.412-1.29-.607-.505-.612-.918-1.31-.918-1.553 0-.242-.404-.821-.898-1.286-.746-.703-.873-1.005-.746-1.782.103-.636.026-.985-.242-1.087-.216-.083-.446 0-.51.194-.191.568-1.08-.35-1.08-1.116 0-.38-.217-.737-.506-.83-.792-.256-1.261-1.515-.877-2.355.396-.868.028-1.32-.494-.609-.302.412-.435.442-.626.144-.776-1.205-.976-1.863-.804-2.642.149-.677.1-.822-.233-.695-.633.242-.93-.087-1.373-1.519-.222-.715-.493-1.43-.603-1.589-.49-.704-1.432-3.89-1.432-4.84 0-.576-.13-1.128-.29-1.226-.378-.233-.378-4.39 0-4.622.16-.098.29-.683.29-1.3s.119-1.195.264-1.284c.323-.2 1.473-2.527 1.473-2.981 0-.18.42-.72.934-1.198.703-.656 1.106-.827 1.634-.695.634.158.686.101.552-.602-.13-.676 0-.854 1.007-1.366.925-.47 1.796-.601 4.342-.652 2.304-.046 3.29.041 3.563.313.208.207.55.377.762.377.212 0 1.004.552 1.76 1.227 1.518 1.356 3.399 4.807 3.399 6.239 0 1.004.589 1.568 1.504 1.439.442-.063.7-.322.763-.767.053-.374.247-.614.438-.54.238.09.312-.205.24-.962-.106-1.104.023-1.344 1.63-3.007.454-.47.56-.754.334-.893-.215-.133.105-.647.915-1.47.901-.916 1.477-1.266 2.081-1.266.592 0 .88-.169.987-.578.137-.523.395-.578 2.733-.578 2.05 0 2.616.091 2.751.442.105.272.373.378.697.275.714-.226 1.783.45 1.413.894-.185.223-.132.456.16.697.367.304.438.264.438-.25 0-.338.1-.614.223-.614.511 0 3.105 2.97 3.66 4.19 1.73 3.81 1.687 3.63 1.697 7.06.01 2.247-.098 3.345-.324 3.42-.184.061-.334.579-.334 1.15 0 1.42-.422 2.534-2.489 6.568-1.505 2.938-1.87 3.453-2.39 3.377-.54-.079-.594.016-.442.77.149.744.08.873-.511.957-.586.083-.67.233-.586 1.062.087.866.034.946-.506.775-.522-.165-.604-.072-.604.685 0 .546-.31 1.234-.82 1.825-.451.522-.903 1.176-1.004 1.454-.102.278-.432.506-.733.506-.421 0-.518.16-.417.687.088.46-.055.818-.432 1.083-.311.218-.65.657-.754.974-.104.318-.579 1.018-1.055 1.556s-.866 1.085-.866 1.217c0 .13-.24.47-.534.755-.294.284-.782.972-1.086 1.528-.303.556-.78 1.18-1.058 1.388-.28.208-.507.58-.507.827 0 .647-1.206 2.696-1.587 2.696-.177 0-.563.585-.859 1.3-.295.714-.637 1.3-.76 1.3-.122 0-.42.075-.66.167-.292.112-.738-.242-1.327-1.054zm-1.177-6.03c0-.149-.13-.352-.29-.45-.16-.098-.29.024-.29.272 0 .248.13.45.29.45.16 0 .29-.122.29-.272zm8.053-2.31c.072-.216-.036-.325-.253-.252a.903.903 0 0 0-.507.505c-.072.217.036.325.253.253a.906.906 0 0 0 .507-.506zM45.693 67.92c.072-.216-.036-.325-.253-.252a.906.906 0 0 0-.507.505c-.072.217.036.325.253.253a.906.906 0 0 0 .507-.506zm-.814-2.04c0-.32-.865-.614-1.199-.408-.418.258.297.98.785.793.228-.087.414-.26.414-.385zm-3.252-4.676a.819.819 0 0 0-.459-.457c-.211-.07-.276.062-.168.343.202.525.8.634.627.114zm29.722-.338c-.1-.26-.3-.474-.441-.474-.395 0-.308.8.103.947.49.174.553.086.338-.473zM35.813 50.646c-.073-.28-.138-.12-.144.356-.01.477.054.706.133.511.08-.196.084-.586.011-.867zm41.496-4.83c0-.197-.258-.59-.573-.875-.506-.457-.594-.465-.746-.067-.249.646.37 1.664.889 1.465.237-.091.43-.326.43-.523zm-40.27-.664c-.017-.693-.05-.72-.252-.217-.129.318-.177.676-.108.795.246.423.381.206.36-.578zm15.947-1.245c0-.15-.13-.271-.29-.271-.159 0-.29.202-.29.45s.131.37.29.272c.16-.098.29-.301.29-.45zm1.103-.777c-.117-.609-.631-.57-.762.057-.055.262.105.449.383.449.298 0 .44-.19.379-.506zm-1.972-3.25a.29.29 0 0 0-.579 0 .29.29 0 0 0 .58 0zm19.98-.144c0-.27-.273-.434-.724-.434-.703 0-.924.282-.53.674.364.364 1.254.193 1.254-.24zm86.645 46.076a60.143 60.143 0 0 0-1.27-1.968c-.46-.684-.762-1.363-.673-1.507.089-.144-.103-.427-.428-.63-.325-.202-.59-.537-.59-.743 0-.207-.261-.655-.58-.996-.318-.341-.579-.79-.579-1 0-.208-.192-.378-.427-.378-.69 0-1.497-1.453-1.578-2.836-.014-.238-.225-.316-.567-.208-.591.187-1.093-.56-.586-.872.393-.243-.247-1.003-.7-.832-.189.072-.847-.77-1.48-1.895-.627-1.113-1.246-2.023-1.376-2.023-.13 0-.505-.27-.834-.598-.503-.501-.539-.674-.227-1.083.205-.267.262-.393.127-.28-.308.259-1.328-.263-1.328-.678 0-.304-2.002-3.727-2.343-4.006-.186-.151-1.605-3.085-2.445-5.055l-.864-2.022c-.697-1.626-1.008-2.83-1.008-3.9 0-.588-.146-1.488-.325-1.999-.554-1.585.487-7.636 1.528-8.888.203-.243.506-.266 1.01-.074.922.35 1.262.345 1.262-.016 0-.159-.247-.289-.549-.289-1.123 0-.957-.91.403-2.21 1.88-1.798 4.81-2.99 7.346-2.99.803 0 1.173.12 1.124.361-.049.246.274.341 1.014.298.597-.035 1.086.062 1.086.217 0 .154.237.28.527.28.778 0 2.477 1.612 2.27 2.152-.096.246-.307.448-.472.448a.295.295 0 0 0-.298.289c0 .41.492.357.919-.098.863-.922 2.322 1.85 2.375 4.511l.036 1.798 1.583-.022 1.583-.022.05-1.649c.06-1.94.46-3.061 1.681-4.726 1.001-1.364 1.201-1.442 1.957-.759.437.395.53.405.53.058 0-.23-.148-.567-.328-.747-.478-.477-.081-1.233.649-1.233.346 0 .783-.21.972-.469.267-.364 1.011-.496 3.347-.591l3.004-.123-.537.591c-.605.667-.519.715.557.307.424-.161.97-.18 1.25-.044 1.951.948 2.234 1.193 2.221 1.922-.01.568.108.723.475.627.787-.205 1.276.296 1.276 1.311 0 .764.126.964.656 1.04.826.116 1.515 1.667 1.515 3.408 0 .749.134 1.265.328 1.265.327 0 .215 4.994-.149 6.644-.417 1.892-.857 3.178-1.085 3.178-.139 0-.252.247-.252.55 0 .303-.28 1.073-.621 1.712-.538 1.005-.677 1.106-1.035.75-.615-.614-.754-.498-.254.213.395.563.39.714-.056 1.516-.273.49-.593.935-.713.988-.119.053-.217.346-.217.65 0 .305-.104.554-.231.554s-.391.422-.586.939c-.195.516-.69 1.328-1.1 1.805l-.744.867.132-.795c.153-.919-.209-1.05-.647-.234-.2.373-.203.62-.01.74.527.324.304.94-.706 1.947-.548.547-1.077 1.316-1.176 1.71-.1.394-.693 1.276-1.32 1.96-.627.685-1.14 1.353-1.14 1.487 0 .133-.26.381-.58.551-.331.177-.578.605-.578 1.002 0 .439-.213.76-.58.876-.318.1-.579.411-.579.69 0 .951-4.638 8.017-5.184 7.897-.198-.044-.273.062-.166.234.107.172.038.69-.153 1.148-.285.687-.503.825-1.226.777-.59-.039-1.021-.295-1.312-.78zm3.988-4.045c0-.317-.13-.577-.29-.577-.159 0-.29.26-.29.577 0 .318.131.578.29.578.16 0 .29-.26.29-.578zm1.448-2.022c0-.317-.13-.577-.29-.577-.16 0-.29.054-.29.12s-.078.327-.175.578c-.116.3-.016.457.29.457.272 0 .465-.24.465-.578zm-6.66 0a.29.29 0 0 0-.58 0 .29.29 0 0 0 .58 0zm-4.685-8.308c.11-.775-.177-.833-.703-.141-.531.697-.496.999.103.885.279-.053.549-.388.6-.744zm16.268-1.513a.29.29 0 0 0-.58 0 .29.29 0 0 0 .58 0zm7.528-28.888c0-.16-.057-.29-.128-.29-.07 0-.208.13-.306.29-.1.158-.041.288.128.288.168 0 .306-.13.306-.288zm-33.01-1.317c0-.248-.132-.37-.294-.27-.162.1-.22.303-.128.451.248.4.422.326.422-.181zM18.55 79.673c-.141-.358-.6-1.105-1.019-1.661-.641-.852-.73-1.193-.567-2.16.173-1.026.145-1.109-.265-.77-.559.463-1.062.202-1.062-.552 0-.307-.26-.72-.58-.919-.318-.198-.578-.481-.578-.63 0-.147-.212-.502-.471-.787-.259-.285-.47-.848-.47-1.25 0-.42-.166-.732-.389-.732-.528 0-.987-.931-.987-2.003 0-.487-.114-.886-.253-.886-.138 0-.334-.514-.435-1.142-.1-.628-.4-1.262-.664-1.41-.444-.248-.446-.419-.027-2.252.277-1.21.465-1.659.482-1.15l.028.835.666-.98c.366-.538.754-1.209.862-1.49.336-.878 1.028-.884 2.826-.027 1.5.715 1.782.978 2.076 1.94.187.613.517 1.182.734 1.265.53.203 1.813-1.036 1.813-1.75 0-.54.03-.545.537-.088.448.404.592.42.863.094.179-.215.364-.64.412-.946.156-1 .49-1.305 1.082-.99.298.16.852.29 1.23.29.7 0 1.91 1.075 2.5 2.22.628 1.22.21 5.214-.635 6.056-.109.11-.198.412-.198.673 0 .262-.24.732-.532 1.045-.293.314-.622.926-.732 1.362-.11.436-.43 1.022-.71 1.303-.282.28-.675.901-.873 1.38-.199.478-.682 1.214-1.074 1.636-.392.421-.712.902-.712 1.068 0 .166-.13.301-.29.301-.16 0-.29.235-.29.521 0 .52-1.58 3.235-1.882 3.235-.087 0-.274-.293-.416-.65zm1.285-4.261c.1-.16.041-.29-.127-.29-.169 0-.307.13-.307.29 0 .159.057.289.128.289.07 0 .208-.13.306-.29zm-6.027-6.988c-.093-.23-.161-.162-.175.175-.012.304.056.475.152.38.096-.097.106-.346.023-.555zm12.253-1.469c0-.3-.154-.496-.342-.433-.568.189-.922.978-.697 1.556.206.531.222.53.625-.016.228-.308.414-.806.414-1.107zm-12.741-.643c0-.397-.13-.722-.29-.722-.16 0-.29.325-.29.722 0 .397.13.722.29.722.16 0 .29-.325.29-.722zm12.69-1.782c-.141-.724-.818-.824-.818-.12 0 .355.187.602.456.602.27 0 .417-.196.362-.482zm-8.453-1.684c-.096-.273-1.304-.278-1.576-.01-.07.069-.052.317.038.552.134.35.296.365.902.085.406-.188.692-.472.636-.63zm3.424.164c.092-.148.034-.35-.128-.45-.161-.1-.294.02-.294.268 0 .508.174.583.422.182zm-.132-2.729c0-.06.195-.27.434-.469.356-.294.434-.274.434.11 0 .257-.195.468-.434.468s-.434-.049-.434-.109zm-.58-7.122c0-.372.826-.708 1.09-.444.109.108 0 .317-.23.464-.56.354-.86.347-.86-.02zm2.136-.05c-.07-.114 0-1.198.147-2.412.304-2.447.046-3.725-.907-4.489-.467-.374-.516-.571-.26-1.05.174-.323.515-.664.759-.758.377-.144.442-1.063.442-6.263 0-7.224-.256-8.151-1.798-6.503-.638.681-.688.69-1.318.213-.607-.46-.622-.542-.209-1.13.286-.408.615-.57.922-.452.365.14.431.064.283-.322-.247-.64.265-1.618.847-1.618.308 0 .389-.172.264-.565-.128-.401.116-.883.841-1.661l1.021-1.096.01.777c0 .428.146.862.314.966.385.237.33 17.747-.058 18.227-.17.211-.109.387.17.494.24.091.548-.035.686-.281.148-.265.536-.408.949-.35.884.125.96 1.16.102 1.386-.328.087-1.032.501-1.565.922l-.97.764.602.762c.49.621.552.931.337 1.676-.218.761-.157 1.027.366 1.582.398.423.821.606 1.155.5.355-.112.526-.02.526.287 0 .25-.228.475-.507.501-1.38.131-3.036.074-3.15-.108zm-11.787-7.066c-.345-.345-.204-1.475.205-1.632.218-.084.482-.604.586-1.157.104-.553.395-1.175.646-1.383.252-.208.575-.644.72-.968.144-.324.781-1.37 1.415-2.323.635-.953 1.244-1.928 1.354-2.167.11-.238.436-.603.725-.81.29-.208.526-.623.526-.923 0-.3.237-.715.526-.922.29-.208.61-.605.715-.883.235-.63.955-.66 1.19-.05.233.608.27.512-.549 1.394-.398.429-.724.968-.724 1.198 0 .23-.195.418-.434.418s-.434.24-.434.533c0 .293-.326.91-.724 1.372-.398.462-.723.986-.724 1.165 0 .18-.203.494-.451.7-.248.205-.644.773-.88 1.263-.236.489-.699 1.405-1.029 2.035-.961 1.838-.648 2.028 3.38 2.052 3.237.02 3.43.053 3.65.65l.234.63h-4.865c-2.676 0-4.952-.087-5.058-.193zm16.632-.072c-.23-.146-.325-.462-.22-.736.241-.625.745-.312.689.428-.024.314-.048.57-.054.567-.01 0-.193-.119-.415-.26z" fill="#d40000"/><path d="M0 157.44V0h217.76v314.88H0V157.44zm213.2 155.91c1.776-1.22 2.856-2.598 3.527-4.498.4-1.133.446-16.895.446-151.25 0-136.41-.042-150.11-.461-151.33-.615-1.8-2.787-4.163-4.6-5.006l-1.454-.675H6.778l-1.504.748c-1.67.83-3.32 2.547-4.14 4.307-.522 1.122-.538 5.59-.538 151.95 0 146 .017 150.83.535 151.97 1.022 2.245 3.298 4.272 5.347 4.762.5.12 46.858.198 103.02.174l102.11-.044 1.6-1.099z" fill="#030303"/></svg>