<svg xmlns="http://www.w3.org/2000/svg" height="335.872" width="232.277" viewBox="0 0 217.76 314.88"><path d="M0 157.44V0h217.76v314.88H0V157.44z" fill="#fdfdfd"/><path d="M0 157.44V0h217.76v314.88H0V157.44zm211.88 155.77c1.56-.831 3.003-2.271 3.718-3.71.552-1.11.562-3.422.634-151.58l.073-150.45-.611-1.416c-.342-.794-1.221-1.987-1.997-2.71-2.59-2.418 7.892-2.207-105.55-2.124l-101.05.074-1.483.78c-1.61.847-2.677 1.954-3.671 3.808l-.638 1.19-.073 149.92c-.067 135.52-.03 150.07.38 151.48.572 1.958 2.835 4.345 4.769 5.027 1.172.413 10.9.452 102.79.406l101.49-.05 1.223-.652zM3.66 299.073c-.326-.325-.199-.666.25-.666.238 0 .434.122.434.272 0 .364-.453.625-.684.394zm185.33-6.347c-.334-.333-.21-3.142.154-3.505.245-.245 1.912-.347 5.647-.347h5.299V285.38l-1.086.23c-.597.126-2.128.224-3.402.218-2.594-.013-4.193-.648-6.38-2.531-4.496-3.872-4.794-13.132-.589-18.252 1.272-1.548 3.85-2.906 6.34-3.339 5.57-.967 10.858 2.496 11.01 7.212l.043 1.323-1.775.085-1.775.085-.887-1.568c-1.19-2.105-2.346-2.791-4.7-2.791-2.225 0-3.948.75-5.207 2.265-2.992 3.603-1.811 10.89 2.096 12.927 2.053 1.07 5.722.024 7.342-2.095.863-1.13 1.295-1.185 2.665-.34l1.012.624-.162 2.626c-.28 4.567-.808 9.535-1.082 10.209-.265.649-.276.65-7.318.65-3.878 0-7.139-.087-7.245-.193zM62.64 277.5c-3.266-1.07-6.347-4.434-7.168-7.828-.2-.823-.253-.764-1.294 1.444-1.242 2.634-3.045 4.614-5.152 5.658-1.201.595-1.81.69-4.433.69-2.814 0-3.184-.069-4.98-.918-5.61-2.65-8.292-9.468-6.722-17.078 1.262-6.11 3.805-10.778 12.544-23.026 2.268-3.177 5.319-7.56 6.78-9.74 2.085-3.109 2.798-3.965 3.309-3.972.358-.005.651.098.651.229 0 .695 5.138 8.766 10.514 16.517.827 1.191 2.493 3.596 3.703 5.344 7.663 11.067 9.498 19.258 5.869 26.193-2.215 4.232-5.675 6.566-10.035 6.77-1.522.071-2.812-.03-3.587-.285zm105.02.146a10.37 10.37 0 0 1-4.209-2.686c-1.966-2.108-2.2-2.459-2.89-4.342-.52-1.417-.71-1.693-.857-1.243-1.09 3.332-3.558 6.29-6.258 7.499-1.628.729-2.023.79-4.467.683-2.385-.105-2.92-.236-4.866-1.195-4.876-2.404-7.134-7.07-6.78-14.006.189-3.691 1.12-6.79 3.413-11.363 1.796-3.582 3.425-6.117 8.502-13.23 2.106-2.95 5.24-7.444 6.966-9.986 1.726-2.542 3.335-4.782 3.576-4.978.619-.502.977-.129 2.376 2.477 1.113 2.072 6.386 10.037 13.035 19.689 3.517 5.105 4.87 7.642 6.254 11.736 1.428 4.218 1.669 8.194.693 11.42-.9 2.975-1.867 4.615-3.811 6.465-2.333 2.22-4.216 3.027-7.414 3.18-1.397.065-2.865.012-3.263-.12zm21.856-19.507c-2.295-.998-3.298-3.361-2.927-6.9.239-2.281.829-3.502 5.203-10.752 2.013-3.337 3.767-6.253 3.898-6.48.131-.226.426-.34.655-.252.483.185 7.204 11.314 8.228 13.624 1.31 2.958 1.512 6.575.473 8.498-.77 1.426-3.01 2.665-4.816 2.665-1.306 0-2.46-.589-3.447-1.76-.424-.502-.804-.864-.846-.804-.042.06-.307.477-.59.927-.938 1.493-3.828 2.105-5.831 1.234zm-82.163-72.9c-.252-.278-1.025-1.35-1.718-2.383-2.017-3.002-5.976-8.672-10.172-14.568-7.638-10.731-10.388-16.994-10.408-23.708-.025-8.054 4.547-13.553 11.597-13.95 2.68-.15 4.201.263 6.351 1.723 1.468.997 3.395 3.6 4.07 5.499.498 1.397.937 1.809.937.878 0-1.092 1.73-4.028 3.225-5.475 2.6-2.517 5.492-3.385 8.99-2.698 2.473.485 4.423 1.534 6.159 3.312 1.8 1.845 2.83 3.703 3.612 6.517.797 2.87.765 5.547-.107 8.962-1.39 5.446-2.884 8.298-8.658 16.537-4.873 6.953-8.877 13.006-10.751 16.256-2.304 3.993-2.311 4-3.127 3.099zm52.433-93.456c-.244-.196-1.679-2.176-3.189-4.4a536.54 536.54 0 0 0-5.31-7.656c-8.696-12.245-11.052-16.206-12.893-21.676-1.09-3.24-1.451-7.712-.866-10.737 1.062-5.483 4.562-9.113 9.848-10.213 5.297-1.101 10.39 2.157 12.184 7.795l.36 1.134.489-1.567c.907-2.913 2.87-5.291 5.624-6.814 1.354-.749 1.735-.82 4.378-.817 2.526.003 3.108.103 4.552.775 1.93.898 4.185 2.904 5.407 4.811.473.739 1.208 2.38 1.633 3.648.696 2.073.761 2.623.654 5.488-.101 2.729-.272 3.635-1.19 6.326-1.405 4.112-2.76 6.65-6.268 11.736-6.581 9.54-12.106 17.892-13.114 19.82-1.278 2.446-1.674 2.85-2.299 2.347zm-107.66-4.035c-1.513-2.25-4.564-6.632-6.78-9.739-7.285-10.215-9.8-14.448-11.42-19.225-3.177-9.37-1.002-17.46 5.548-20.638 5.974-2.898 11.833-.78 14.708 5.32 1.039 2.203 1.094 2.265 1.289 1.444.723-3.056 3.794-6.555 6.718-7.655 3.289-1.237 7.704-.404 10.794 2.037 1.388 1.097 3.234 3.819 4.032 5.945 1.51 4.028 1.4 7.595-.403 12.969-1.25 3.726-2.623 6.282-6.058 11.266-6.267 9.097-11.994 17.761-13.218 20-.964 1.763-1.45 2.377-1.88 2.373-.42-.004-1.336-1.133-3.33-4.097zm-32.87-5.064c-.43-.31-7.057-11.418-8.227-13.789-.847-1.717-1.014-2.393-1.109-4.478-.096-2.136-.023-2.622.561-3.738.957-1.828 1.91-2.422 4.104-2.562 2.159-.137 3.4.37 4.227 1.724l.538.884.482-.734c2.188-3.33 7.519-2.309 8.844 1.695.213.647.303 1.963.225 3.31-.158 2.717-.87 4.316-5.035 11.32-1.578 2.65-3.09 5.218-3.361 5.705-.507.909-.739 1.032-1.25.664zm-2.457-28.073c-1.983-.36-3.31-1.009-4.727-2.311-1.518-1.396-2.583-3.635-2.456-5.162l.089-1.065 1.634-.085 1.635-.086 1.116 1.675c1.345 2.017 2.529 2.687 4.736 2.678 4.159-.015 6.774-2.978 6.756-7.653-.01-2.51-.59-4.272-2.025-6.148-1.987-2.599-6.425-2.321-8.893.555-.528.616-1.128 1.12-1.333 1.12-.546 0-2.24-1.1-2.422-1.574-.159-.412.851-12.132 1.103-12.798.104-.275 1.845-.36 7.353-.36 7.982 0 7.569-.106 7.569 1.92 0 2.134.03 2.124-5.926 2.124h-5.325l-.201 1.602c-.11.88-.124 1.679-.03 1.773.095.094.764.006 1.487-.196 1.961-.548 5.005-.244 6.922.692 2.303 1.124 4.597 3.705 5.341 6.009 1.911 5.914.298 12.217-3.954 15.453-2.036 1.548-5.674 2.34-8.449 1.836z" fill="#f2d1cf"/><path d="M0 157.44V0h217.76v314.88H0V157.44zm211.88 155.77c1.56-.831 3.003-2.271 3.718-3.71.552-1.11.562-3.422.634-151.58l.073-150.45-.611-1.416c-.342-.794-1.221-1.987-1.997-2.71-2.59-2.418 7.892-2.207-105.55-2.124l-101.05.074-1.483.78c-1.61.847-2.677 1.954-3.671 3.808l-.638 1.19-.073 149.92c-.067 135.52-.03 150.07.38 151.48.572 1.958 2.835 4.345 4.769 5.027 1.172.413 10.9.452 102.79.406l101.49-.05 1.223-.652zM3.66 299.073c-.326-.325-.199-.666.25-.666.238 0 .434.122.434.272 0 .364-.453.625-.684.394zm185.54-6.844c-.085-.22-.113-.967-.063-1.661l.091-1.26 5.502-.145 5.501-.145.086-1.984.086-1.985-1.1.251c-.604.139-2.207.247-3.56.241-2.08-.01-2.688-.128-3.92-.767-2.09-1.086-3.7-2.774-4.81-5.045-.934-1.907-.968-2.1-.967-5.443 0-2.889.11-3.756.653-5.2 1.853-4.928 5.097-7.222 10.208-7.221 2.213 0 2.672.1 4.434.965 1.34.658 2.23 1.331 2.8 2.116 1.043 1.436 1.817 3.415 1.689 4.32-.087.609-.268.696-1.6.773l-1.502.087-1.018-1.587c-1.275-1.988-2.13-2.553-4.117-2.717-3.559-.295-6.55 1.705-7.517 5.024-1.212 4.158.647 9.326 3.847 10.696 2.203.943 5.624-.041 7.262-2.09.906-1.132 1.421-1.21 2.481-.38.634.499.763.833.763 1.983 0 1.525-.78 9.893-1.019 10.925l-.15.65h-6.953c-5.659 0-6.982-.074-7.107-.4zM42.62 277.314c-8.303-1.733-12.016-10.782-8.604-20.97 1.726-5.155 3.999-9.073 10.638-18.342 1.991-2.78 5.147-7.29 7.013-10.023 1.866-2.733 3.558-4.968 3.76-4.968.204 0 1.191 1.397 2.195 3.105 1.835 3.12 5.29 8.339 12.11 18.288 5.159 7.526 7.027 11.5 7.907 16.818 1.01 6.108-1.948 12.502-7.063 15.265-1.72.929-1.941.973-4.842.975-2.635 0-3.21-.09-4.312-.675-2.631-1.4-5.19-4.71-5.687-7.359-.277-1.47-.604-1.558-1.016-.272-1.882 5.874-6.884 9.247-12.1 8.158zm104.27-.135c-3.708-1.038-6.458-3.237-7.931-6.341-1.184-2.495-1.499-4.43-1.34-8.242.166-3.996.94-6.66 3.297-11.352 1.945-3.87 3.125-5.71 8.656-13.5a893.182 893.182 0 0 0 7.27-10.397c1.574-2.302 3.077-4.227 3.341-4.277.341-.066.8.518 1.583 2.018 1.013 1.94 7.07 11.1 13.432 20.31 6.851 9.921 8.855 17.701 6.223 24.165-2.04 5.007-5.688 7.752-10.618 7.992-2.204.107-2.694.036-4.067-.592-2.942-1.343-5.031-3.75-6.186-7.127-.366-1.07-.717-1.715-.802-1.472a61.82 61.82 0 0 0-.477 1.496c-.452 1.469-2.31 4.265-3.503 5.271-2.405 2.029-5.993 2.857-8.878 2.05zm42.196-19.575c-1.683-1.143-2.148-2.043-2.266-4.388-.07-1.367.054-2.672.345-3.674.509-1.744 8.594-15.41 9.117-15.41.426 0 7.695 12.225 8.41 14.14 1.134 3.042 1.02 6.172-.292 8.01-1.855 2.6-6.23 2.569-7.727-.055-.27-.472-.558-.86-.641-.86-.083-.001-.408.472-.72 1.052-.68 1.258-1.89 1.835-3.855 1.835-.99 0-1.7-.195-2.371-.65zm-83.263-74.963c-2.268-3.344-6.227-9.001-10.157-14.516-7.573-10.625-10.282-16.72-10.336-23.255-.053-6.325 2.22-10.577 6.879-12.865 2.544-1.25 5.927-1.525 8.311-.676 2.695.96 5.371 3.874 6.475 7.05.247.71.525 1.486.618 1.724.1.255.338-.207.58-1.125.937-3.568 3.582-6.663 6.698-7.84 3.55-1.34 8.234-.17 11.171 2.789 3.888 3.918 5.124 9.299 3.555 15.47-1.385 5.45-2.696 7.853-10.053 18.438-4.762 6.852-8.553 12.684-10.28 15.816-.46.834-1.04 1.516-1.29 1.517-.25 0-1.227-1.138-2.17-2.528zM51.962 87.023a690.448 690.448 0 0 0-7.26-10.37C39.61 69.526 37.73 66.573 35.9 62.829c-6.103-12.49-2.98-23.73 7.112-25.59 5.11-.943 9.807 2.343 11.705 8.188.37 1.137.885 1.21.885.125 0-1.163 1.7-4.233 3.134-5.665 2.347-2.341 3.432-2.769 7-2.76 2.765.007 3.183.082 4.61.824 4.838 2.517 8.003 8.536 7.455 14.177-.562 5.78-2.888 10.736-9.427 20.09-4.536 6.487-9.404 13.854-11.024 16.682-.842 1.47-1.701 2.672-1.91 2.672-.208 0-1.773-2.047-3.478-4.55zm105.08.567c-1.459-2.179-4.957-7.212-7.773-11.184-6.79-9.575-9.06-13.519-10.72-18.633-.938-2.892-1.296-8.053-.741-10.717 1.043-5.011 4.308-8.398 9.338-9.683 2.958-.756 6.17.02 8.616 2.08 1.304 1.098 3.025 3.783 3.493 5.45.455 1.62.798 1.893 1.033.822.75-3.409 3.072-6.436 6.07-7.908 1.753-.86 2.01-.907 4.403-.79 4.065.197 7.123 1.98 9.358 5.454 4.352 6.765 2.805 15.36-4.753 26.414-8.208 12.005-12.754 18.887-13.656 20.675-.675 1.34-1.177 1.999-1.513 1.992-.32-.006-1.473-1.458-3.155-3.972zm-138.04-5.632c-3.554-5.629-8.093-13.604-8.461-14.867-.662-2.27-.592-4.924.167-6.409.85-1.663 2.054-2.329 4.21-2.329 2.063 0 3.34.651 3.894 1.986.38.914.883 1.213.883.524 0-.617 1.845-2.211 2.913-2.517.73-.209 1.379-.172 2.456.14 2.413.7 3.68 2.593 3.68 5.5 0 3.299-.608 4.698-5.747 13.22-1.319 2.188-2.476 4.223-2.571 4.523-.267.84-.967.952-1.424.229zM15.931 54.15c-.876-.244-2.071-.759-2.655-1.144-1.937-1.275-3.426-3.79-3.426-5.782V46.19l1.641.086c1.542.082 1.676.149 2.199 1.098 1.364 2.477 2.917 3.324 5.724 3.121 2.225-.16 4.154-1.335 5.34-3.251.838-1.353.877-1.557.876-4.615 0-2.905-.072-3.332-.77-4.643-1.358-2.555-2.907-3.611-5.293-3.611-1.715 0-3.151.66-4.821 2.219-1.359 1.268-1.45 1.306-2.298.955-.485-.2-1.01-.6-1.164-.889-.329-.613.679-12.309 1.096-12.725.144-.143 3.362-.225 7.19-.182l6.93.078.09 1.249c.148 2.055.097 2.073-5.917 2.073h-5.321v4.298L16.68 31c2.063-.702 5.381-.415 7.308.631 5.895 3.201 7.58 11.568 3.67 18.223-2.115 3.601-7.346 5.518-11.727 4.297z" fill="#d6d6d6"/><path d="M0 157.44V0h217.76v314.88H0V157.44zm209.57 156.89c.277-.145 1.09-.469 1.81-.72 1.793-.627 3.186-1.846 4.204-3.68l.86-1.548V6.802l-.654-1.22c-.886-1.654-2.471-3.18-4.087-3.932l-1.34-.625H7.382l-1.646.806c-1.864.913-3.224 2.313-4.115 4.235l-.61 1.314v300.44l.69 1.525c.91 2.007 3.038 3.908 5.187 4.634 1.618.546 3.667.558 101.92.594 59.857.022 100.47-.07 100.77-.227zm-20.373-22.092c-.085-.22-.113-.968-.063-1.661l.091-1.26 5.502-.145 5.501-.145.086-1.984.086-1.985-1.1.251c-.604.139-2.207.247-3.56.241-2.08-.01-2.688-.128-3.92-.767-2.09-1.086-3.7-2.774-4.81-5.045-.934-1.907-.968-2.1-.967-5.443 0-2.889.11-3.756.653-5.2 1.853-4.928 5.097-7.223 10.209-7.222 2.212 0 2.671.1 4.433.966 1.34.658 2.23 1.331 2.8 2.116 1.043 1.436 1.817 3.415 1.689 4.32-.086.609-.268.696-1.6.773l-1.502.087-1.018-1.588c-1.275-1.987-2.13-2.552-4.117-2.716-3.559-.295-6.55 1.705-7.517 5.024-1.212 4.158.647 9.326 3.847 10.696 2.203.943 5.624-.041 7.262-2.09.906-1.132 1.422-1.21 2.481-.38.634.499.763.833.763 1.983 0 1.525-.78 9.893-1.019 10.925l-.15.65h-6.953c-5.659 0-6.982-.075-7.107-.4zm-146.58-14.915c-8.303-1.733-12.016-10.782-8.604-20.97 1.726-5.155 3.999-9.073 10.638-18.342 1.991-2.78 5.147-7.29 7.013-10.023 1.866-2.733 3.558-4.969 3.76-4.969.204 0 1.191 1.398 2.195 3.106 1.835 3.12 5.29 8.338 12.11 18.288 5.159 7.526 7.027 11.5 7.907 16.818 1.01 6.108-1.948 12.502-7.063 15.265-1.72.929-1.941.973-4.842.975-2.635 0-3.21-.09-4.312-.675-2.631-1.4-5.19-4.71-5.687-7.36-.277-1.47-.604-1.557-1.016-.271-1.882 5.874-6.884 9.247-12.1 8.158zm104.27-.135c-3.708-1.038-6.458-3.237-7.931-6.341-1.184-2.495-1.498-4.43-1.34-8.242.166-3.996.94-6.66 3.297-11.352 1.945-3.87 3.125-5.71 8.656-13.5a893.182 893.182 0 0 0 7.27-10.397c1.574-2.302 3.077-4.227 3.341-4.277.341-.066.8.518 1.583 2.018 1.013 1.94 7.07 11.1 13.432 20.31 6.852 9.921 8.855 17.701 6.223 24.165-2.04 5.006-5.688 7.752-10.618 7.992-2.204.107-2.694.036-4.067-.592-2.942-1.343-5.031-3.75-6.186-7.127-.366-1.07-.717-1.715-.802-1.472a61.82 61.82 0 0 0-.477 1.496c-.452 1.469-2.31 4.265-3.503 5.271-2.405 2.029-5.993 2.857-8.878 2.049zm42.196-19.576c-1.683-1.142-2.148-2.042-2.266-4.387-.07-1.367.054-2.672.345-3.674.509-1.744 8.594-15.41 9.117-15.41.426 0 7.695 12.225 8.41 14.14 1.134 3.042 1.02 6.172-.292 8.01-1.855 2.6-6.23 2.569-7.727-.055-.27-.472-.558-.86-.641-.86-.083-.001-.408.472-.72 1.052-.68 1.258-1.89 1.835-3.854 1.835-.99 0-1.702-.195-2.372-.65zM105.82 182.65c-2.268-3.344-6.227-9-10.157-14.516-7.573-10.625-10.282-16.719-10.336-23.255-.053-6.324 2.22-10.577 6.879-12.865 2.544-1.249 5.927-1.524 8.311-.675 2.695.96 5.371 3.874 6.475 7.05.247.71.525 1.486.618 1.724.1.255.338-.208.58-1.125.937-3.568 3.582-6.663 6.698-7.84 3.55-1.34 8.234-.17 11.171 2.789 3.888 3.918 5.124 9.299 3.555 15.47-1.385 5.449-2.696 7.852-10.053 18.438-4.762 6.852-8.553 12.684-10.28 15.816-.46.834-1.04 1.516-1.29 1.516s-1.227-1.137-2.17-2.527zM51.959 87.031a690.448 690.448 0 0 0-7.26-10.37c-5.093-7.125-6.973-10.078-8.803-13.823-6.103-12.49-2.98-23.73 7.112-25.59 5.11-.943 9.807 2.343 11.705 8.188.37 1.137.885 1.21.885.125 0-1.163 1.7-4.234 3.134-5.665 2.347-2.341 3.432-2.77 7-2.76 2.765.007 3.183.082 4.61.824 4.838 2.516 8.003 8.536 7.455 14.177-.562 5.78-2.888 10.736-9.427 20.089-4.536 6.488-9.404 13.855-11.024 16.683-.842 1.47-1.701 2.672-1.91 2.672-.208 0-1.773-2.047-3.478-4.55zm105.08.568c-1.459-2.179-4.957-7.212-7.773-11.184-6.79-9.575-9.06-13.519-10.72-18.633-.938-2.892-1.296-8.053-.741-10.717 1.043-5.011 4.308-8.398 9.338-9.683 2.958-.756 6.17.019 8.616 2.08 1.305 1.098 3.025 3.783 3.493 5.45.455 1.62.798 1.893 1.033.822.75-3.409 3.073-6.436 6.07-7.908 1.753-.86 2.01-.907 4.403-.79 4.065.196 7.123 1.98 9.358 5.454 4.352 6.765 2.805 15.36-4.753 26.414-8.208 12.005-12.754 18.887-13.656 20.675-.675 1.34-1.177 1.999-1.513 1.992-.32-.006-1.473-1.458-3.155-3.972zm-138.04-5.632c-3.554-5.63-8.093-13.604-8.461-14.867-.662-2.27-.592-4.924.167-6.41.85-1.662 2.054-2.328 4.21-2.328 2.063 0 3.34.651 3.894 1.986.38.914.883 1.213.883.524 0-.617 1.845-2.211 2.913-2.517.73-.209 1.379-.172 2.456.14 2.413.7 3.68 2.593 3.68 5.5 0 3.299-.608 4.697-5.747 13.22-1.319 2.188-2.476 4.223-2.571 4.523-.267.84-.967.951-1.424.228zM15.928 54.16c-.876-.244-2.071-.759-2.655-1.144-1.937-1.275-3.426-3.79-3.426-5.783V46.2l1.641.086c1.542.082 1.676.148 2.199 1.098 1.364 2.477 2.917 3.324 5.724 3.121 2.225-.16 4.154-1.335 5.34-3.252.838-1.352.877-1.557.876-4.614 0-2.905-.072-3.332-.77-4.644-1.358-2.554-2.907-3.61-5.293-3.61-1.715 0-3.151.66-4.821 2.219-1.359 1.268-1.45 1.305-2.298.955-.485-.2-1.01-.6-1.164-.889-.329-.613.679-12.309 1.096-12.725.144-.143 3.362-.225 7.19-.182l6.93.078.09 1.249c.148 2.055.097 2.073-5.917 2.073h-5.321v4.298l1.328-.452c2.063-.701 5.381-.414 7.308.632 5.895 3.201 7.58 11.568 3.67 18.223-2.115 3.601-7.346 5.518-11.727 4.296z" fill="#eaafaf"/><path d="M0 157.44V0h217.76v314.88H0V157.44zm209.57 156.89c.277-.145 1.09-.469 1.81-.72 1.793-.627 3.186-1.846 4.204-3.68l.86-1.548V6.802l-.654-1.22c-.886-1.654-2.471-3.18-4.087-3.932l-1.34-.625H7.382l-1.646.806c-1.864.913-3.224 2.313-4.115 4.235l-.61 1.314v300.44l.69 1.525c.91 2.007 3.038 3.908 5.187 4.634 1.618.546 3.667.558 101.92.594 59.857.022 100.47-.07 100.77-.227zm-20.184-22.104c-.189-.227-.303-.91-.253-1.517l.091-1.103 5.406-.144c2.974-.08 5.466-.21 5.539-.29.299-.326.52-3.993.25-4.16-.156-.095-1.097.034-2.09.288-7.216 1.844-13.538-5-12.182-13.188.768-4.634 2.545-7.418 5.738-8.986 1.845-.906 2.14-.963 5.007-.963 3.287 0 4.305.328 6.35 2.045 1.558 1.308 2.97 4.713 2.29 5.528-.33.398-2.21.502-2.712.15-.167-.117-.654-.818-1.083-1.56-1.115-1.924-2.4-2.631-4.828-2.654-2.437-.022-4.35.867-5.72 2.658-1.25 1.637-1.618 3.163-1.468 6.11.097 1.914.292 2.78.882 3.926 1.773 3.447 5.012 4.675 8.167 3.096.483-.242 1.485-1.026 2.226-1.742l1.346-1.302.91.536c.5.295.969.797 1.042 1.117.168.735-.864 11.785-1.142 12.234-.147.237-2.121.334-6.815.334-5.376 0-6.671-.077-6.95-.413zm-126.26-15c-3.44-.966-6.333-4.113-7.25-7.888-.477-1.963-.747-2.12-1.14-.66-.905 3.351-3.308 6.483-5.984 7.797-1.157.569-1.834.683-3.999.678-5.29-.014-8.913-2.54-10.906-7.607-.965-2.453-1.099-8.066-.268-11.262 1.298-4.997 3.83-9.759 9.314-17.511a1850.27 1850.27 0 0 0 7.283-10.4c5.24-7.542 5.138-7.406 5.41-7.238.129.08.928 1.35 1.777 2.825 1.457 2.53 5.936 9.265 12.447 18.713 5.5 7.981 7.808 13.605 7.808 19.023 0 7.376-4.764 13.25-11.148 13.744-1.25.097-2.531.015-3.344-.213zm104.98.107c-2.712-.661-6.016-3.708-7.07-6.518-.332-.886-.605-1.833-.608-2.105 0-.272-.126-.686-.274-.92-.237-.374-.286-.374-.405 0-.857 2.686-1.146 3.42-1.753 4.455-.875 1.488-2.886 3.366-4.556 4.255-1.063.564-1.69.67-4.01.67-2.478 0-2.94-.088-4.647-.895-3.305-1.563-5.171-3.687-6.409-7.293-.543-1.583-.66-2.533-.658-5.388 0-4.24.58-6.446 3.052-11.638 1.932-4.06 3.281-6.192 9.063-14.317a744.235 744.235 0 0 0 6.995-10.01c2.87-4.213 3.26-4.691 3.641-4.457.114.07.748 1.135 1.409 2.365 1.128 2.1 6.482 10.189 13.05 19.713 4.81 6.975 7.104 12.414 7.43 17.622.18 2.869-.31 5.175-1.696 7.983-.992 2.012-3.473 4.582-5.337 5.531-1.977 1.006-5.227 1.433-7.217.947zm21.953-19.387c-2.927-.892-4.012-4.694-2.553-8.945.575-1.677 8.35-14.583 8.784-14.583.551 0 7.827 12.517 8.455 14.546 1.057 3.41.533 6.63-1.316 8.08-1.271.998-2.834 1.358-4.169.959-1.162-.348-2.922-2.032-2.922-2.797 0-.794-.49-.425-.935.703-.244.62-.76 1.334-1.148 1.587-.899.587-3.004.813-4.196.45zm-82.812-73.476c-.29-.381-1.7-2.428-3.134-4.548-1.433-2.12-4.537-6.559-6.897-9.865-9.047-12.676-11.788-18.623-11.775-25.54.013-7.373 3.83-12.356 10.31-13.463 2.441-.417 5.048.207 7.08 1.694 1.747 1.28 3.625 4.049 4.238 6.25.258.923.568 1.68.69 1.68s.364-.683.538-1.517c.646-3.105 3.097-6.202 6.045-7.642 2.003-.978 5.178-1.011 7.67-.08 5.579 2.081 9.128 9.004 8.012 15.626-.965 5.731-2.938 9.753-9.121 18.6-4.989 7.138-8.858 12.986-10.844 16.394-.996 1.708-1.918 3.106-2.048 3.106-.13 0-.474-.312-.765-.694zm-52.61-93.82c-.382-.52-2.4-3.414-4.484-6.433a929.863 929.863 0 0 0-6.985-9.966c-7.565-10.595-10.196-16.6-10.206-23.292-.01-6.216 2.232-10.313 6.87-12.558 1.831-.886 2.228-.967 4.749-.974 2.583-.007 2.86.052 4.557.97 2.609 1.411 4.674 4.198 5.57 7.514.394 1.46.663 1.305 1.14-.658.758-3.119 3.003-5.964 5.78-7.324 1.407-.69 1.968-.796 4.103-.782 2.148.015 2.729.137 4.423.927 2.456 1.147 4.46 3.164 5.802 5.839 1.351 2.695 1.74 4.729 1.55 8.093-.29 5.084-2.41 10.108-7.259 17.19-7.333 10.711-11.505 16.99-12.912 19.434-.848 1.475-1.646 2.744-1.773 2.822-.126.078-.543-.283-.925-.802zm102.51-3.179a587.483 587.483 0 0 0-5.988-8.598c-5.726-8.043-8.273-11.936-9.92-15.166-3.363-6.59-4.329-11.453-3.269-16.466.918-4.344 3.052-7.16 6.75-8.908 1.75-.827 2.195-.914 4.685-.913 2.421.001 2.924.094 4.198.77 2.55 1.354 4.861 4.279 5.67 7.173.48 1.712.773 2.003.994.98.966-4.473 3.856-7.868 7.64-8.973 2.128-.622 5.454-.2 7.6.966 4.322 2.347 7.167 7.925 6.825 13.383-.326 5.209-2.621 10.65-7.431 17.62-6.342 9.19-11.912 17.596-13.098 19.766-.687 1.258-1.386 2.333-1.552 2.387-.167.055-1.563-1.755-3.104-4.021zm-137.96-5.493c-1.368-1.772-8.068-13.559-8.506-14.964-.75-2.403-.716-4.453.1-6.045.903-1.764 1.887-2.402 3.904-2.531 2.11-.135 3.401.58 4.058 2.249.248.628.534 1.142.638 1.142.103 0 .35-.45.55-1.002.909-2.507 4.514-3.246 6.735-1.381 2.465 2.069 2.627 6.107.419 10.444-.437.858-1.938 3.458-3.335 5.777-1.397 2.32-2.82 4.77-3.164 5.445-.655 1.288-.938 1.464-1.4.867zm-3.93-28.14c-2.59-.892-4.798-3.394-5.287-5.992-.244-1.3.07-1.605 1.657-1.611.975-.004 1.158.135 2.172 1.646 1.469 2.189 2.57 2.804 5 2.794 6.395-.025 9.445-7.61 5.534-13.762-2.207-3.472-6.291-3.68-9.644-.49-1.444 1.374-1.48 1.39-2.305.965-.46-.238-.917-.639-1.014-.89-.254-.662.79-12.008 1.146-12.445.229-.28 1.86-.348 6.991-.289l6.692.078.088 1.516.087 1.517H21.06c-3.747 0-5.416.102-5.661.347-.203.202-.348 1.175-.348 2.344 0 2.246-.297 2.091 2.606 1.348 1.602-.41 4.018-.166 5.697.575 1.928.85 4.236 3.205 5.185 5.288.683 1.498.838 2.284.936 4.72.226 5.63-1.917 9.887-5.97 11.866-2.062 1.007-6.038 1.236-8.248.475z" fill="#b4b4b4"/><path d="M0 157.44V0h217.76v314.88H0V157.44zm211.67 156.25c1.909-.904 3.489-2.434 4.398-4.26l.67-1.34V7.37l-.691-1.526c-.85-1.875-3.016-3.886-4.865-4.514-1.227-.417-10.76-.46-102.6-.46H7.332l-1.772.883c-2.009 1.002-3.034 2.075-4.014 4.2L.868 7.425l.073 150.48.073 150.48.722 1.409c.948 1.852 2.839 3.476 4.874 4.185 1.627.567 2.63.572 102.56.522l100.91-.05 1.592-.754zm-22.28-21.468c-.189-.227-.303-.91-.253-1.517l.091-1.103 5.406-.144c2.974-.08 5.466-.21 5.539-.29.299-.326.52-3.993.25-4.16-.156-.095-1.097.034-2.09.288-7.216 1.844-13.538-5-12.182-13.188.767-4.634 2.545-7.418 5.737-8.986 1.846-.906 2.14-.963 5.008-.963 3.287 0 4.305.328 6.35 2.045 1.558 1.308 2.97 4.713 2.29 5.528-.33.398-2.21.501-2.712.15-.167-.117-.654-.818-1.083-1.56-1.115-1.924-2.4-2.631-4.828-2.654-2.437-.022-4.35.867-5.72 2.658-1.25 1.637-1.618 3.163-1.468 6.11.097 1.914.292 2.78.882 3.926 1.773 3.447 5.012 4.675 8.167 3.096.483-.242 1.485-1.026 2.226-1.742l1.346-1.302.91.536c.5.295.969.797 1.042 1.117.168.735-.864 11.785-1.142 12.234-.147.237-2.121.334-6.815.334-5.376 0-6.671-.077-6.95-.413zm-126.26-14.9c-3.44-.966-6.333-4.113-7.25-7.888-.477-1.963-.747-2.12-1.14-.66-.905 3.351-3.308 6.483-5.984 7.797-1.157.569-1.834.683-3.999.678-5.29-.014-8.913-2.54-10.906-7.607-.965-2.453-1.099-8.066-.268-11.262 1.298-4.997 3.83-9.759 9.314-17.511a1850.27 1850.27 0 0 0 7.283-10.4c5.24-7.542 5.138-7.406 5.41-7.238.129.08.928 1.35 1.777 2.825 1.457 2.53 5.936 9.265 12.447 18.713 5.5 7.981 7.808 13.605 7.808 19.023 0 7.376-4.764 13.25-11.148 13.744-1.25.097-2.531.015-3.344-.213zm104.98.107c-2.712-.661-6.016-3.708-7.07-6.518-.332-.886-.605-1.833-.608-2.105 0-.272-.126-.686-.274-.92-.237-.374-.286-.374-.405 0-.857 2.686-1.146 3.42-1.753 4.455-.875 1.488-2.886 3.366-4.556 4.255-1.063.564-1.69.67-4.01.67-2.478 0-2.94-.088-4.647-.895-3.305-1.563-5.171-3.687-6.409-7.293-.543-1.583-.66-2.533-.658-5.388 0-4.24.58-6.446 3.052-11.638 1.932-4.06 3.281-6.192 9.063-14.317a744.235 744.235 0 0 0 6.995-10.01c2.87-4.213 3.26-4.691 3.641-4.457.114.07.748 1.135 1.409 2.365 1.128 2.1 6.482 10.189 13.05 19.713 4.81 6.975 7.104 12.414 7.43 17.622.18 2.869-.31 5.175-1.696 7.983-.992 2.012-3.473 4.582-5.337 5.531-1.977 1.006-5.227 1.433-7.217.947zm21.953-19.387c-2.927-.892-4.012-4.694-2.553-8.945.575-1.677 8.35-14.583 8.784-14.583.551 0 7.827 12.517 8.455 14.546 1.057 3.41.533 6.63-1.316 8.08-1.271.998-2.834 1.358-4.169.959-1.162-.348-2.922-2.032-2.922-2.797 0-.794-.49-.425-.935.703-.244.62-.76 1.334-1.148 1.587-.899.587-3.004.813-4.196.45zm-82.812-73.476c-.29-.381-1.7-2.428-3.134-4.548-1.433-2.12-4.537-6.559-6.897-9.865-9.047-12.676-11.788-18.623-11.775-25.54.014-7.373 3.83-12.356 10.31-13.463 2.441-.417 5.048.207 7.08 1.694 1.747 1.28 3.625 4.049 4.238 6.25.258.923.568 1.68.69 1.68s.364-.683.538-1.517c.646-3.105 3.097-6.202 6.045-7.642 2.003-.978 5.178-1.011 7.67-.08 5.579 2.081 9.128 9.004 8.012 15.626-.965 5.731-2.938 9.753-9.121 18.6-4.989 7.138-8.858 12.986-10.844 16.394-.996 1.708-1.918 3.106-2.048 3.106-.13 0-.474-.312-.765-.694zm-52.61-93.82c-.382-.52-2.4-3.414-4.484-6.433a929.863 929.863 0 0 0-6.985-9.966c-7.565-10.595-10.196-16.6-10.206-23.292-.01-6.216 2.232-10.313 6.87-12.558 1.831-.886 2.228-.967 4.749-.974 2.583-.007 2.86.052 4.557.97 2.609 1.411 4.674 4.198 5.57 7.514.394 1.46.663 1.305 1.14-.658.758-3.119 3.003-5.964 5.78-7.324 1.407-.69 1.968-.796 4.103-.782 2.148.015 2.729.137 4.423.927 2.456 1.147 4.46 3.164 5.802 5.839 1.351 2.695 1.74 4.729 1.55 8.093-.29 5.084-2.41 10.108-7.259 17.19-7.333 10.711-11.505 16.99-12.912 19.434-.848 1.475-1.646 2.744-1.773 2.822-.126.078-.543-.283-.925-.802zm102.51-3.179a587.483 587.483 0 0 0-5.988-8.598c-5.726-8.043-8.273-11.936-9.92-15.166-3.363-6.59-4.328-11.453-3.269-16.466.919-4.344 3.052-7.16 6.75-8.908 1.75-.827 2.195-.914 4.685-.913 2.421.001 2.924.094 4.198.77 2.55 1.354 4.861 4.279 5.67 7.173.48 1.712.773 2.003.994.98.966-4.473 3.856-7.868 7.64-8.973 2.128-.622 5.454-.2 7.6.966 4.322 2.347 7.167 7.925 6.825 13.383-.326 5.209-2.621 10.65-7.431 17.62-6.342 9.19-11.911 17.596-13.097 19.766-.688 1.258-1.387 2.333-1.553 2.387-.167.055-1.563-1.755-3.104-4.021zm-137.96-5.493c-1.368-1.772-8.068-13.559-8.506-14.964-.75-2.403-.716-4.453.1-6.045.903-1.764 1.887-2.402 3.905-2.531 2.109-.135 3.4.58 4.057 2.249.248.628.534 1.142.638 1.142.103 0 .35-.45.55-1.002.909-2.507 4.514-3.246 6.735-1.381 2.465 2.069 2.627 6.107.419 10.444-.437.858-1.938 3.458-3.335 5.777-1.397 2.32-2.82 4.77-3.164 5.445-.655 1.288-.938 1.464-1.4.867zm-3.93-28.14c-2.59-.892-4.798-3.394-5.287-5.992-.244-1.3.07-1.605 1.657-1.611.975-.004 1.158.135 2.172 1.646 1.469 2.189 2.57 2.804 5 2.794 6.395-.025 9.445-7.61 5.534-13.762-2.207-3.472-6.291-3.68-9.644-.49-1.444 1.374-1.48 1.39-2.305.965-.46-.238-.917-.639-1.014-.89-.254-.662.79-12.008 1.146-12.445.229-.28 1.86-.348 6.991-.289l6.692.078.088 1.516.087 1.517h-5.314c-3.747 0-5.416.102-5.661.347-.203.202-.348 1.175-.348 2.344 0 2.246-.297 2.091 2.606 1.348 1.602-.41 4.018-.166 5.697.575 1.928.85 4.236 3.205 5.185 5.288.683 1.498.838 2.284.936 4.72.226 5.63-1.917 9.887-5.97 11.866-2.062 1.007-6.038 1.236-8.248.475z" fill="#e49090"/><path d="M0 157.44V0h217.76v314.88H0V157.44zm211.67 156.25c1.909-.904 3.489-2.434 4.398-4.26l.67-1.34V7.37l-.691-1.526c-.85-1.875-3.016-3.886-4.865-4.514-1.227-.417-10.76-.46-102.6-.46H7.332l-1.772.883c-2.009 1.002-3.034 2.075-4.014 4.2L.868 7.425l.073 150.48.073 150.48.722 1.409c.948 1.852 2.839 3.476 4.874 4.185 1.627.567 2.63.572 102.56.522l100.91-.05 1.592-.754zm-22.296-22.789v-1.444h5.299c3.735 0 5.401-.103 5.646-.347.405-.403.48-4.16.09-4.4-.143-.089-.725.034-1.294.27-.597.25-1.928.432-3.144.432-2.6 0-4.955-1.014-6.8-2.927-1.976-2.05-2.795-4.188-2.93-7.651-.18-4.567 1.048-7.92 3.802-10.39 3.48-3.122 9.575-3.228 12.924-.224 1.52 1.363 2.623 3.35 2.623 4.723 0 .847-.038.87-1.389.87-1.352 0-1.416-.04-2.389-1.499-1.39-2.086-2.173-2.578-4.378-2.755-2.407-.192-4.421.62-6.013 2.423-3.349 3.795-2.226 11.335 2.027 13.615 1.05.563 1.578.663 2.902.55 1.922-.164 3.076-.713 4.771-2.272 1.375-1.264 2.123-1.303 2.855-.146.34.537.318 1.448-.15 6.261-.3 3.098-.609 5.796-.685 5.994-.106.275-1.768.362-6.953.362h-6.813V290.9zm-147.31-14.006c-5.771-1.616-8.632-5.58-8.968-12.426-.13-2.66-.052-3.587.477-5.695 1.53-6.088 3.67-9.972 11.756-21.325 2.655-3.728 5.946-8.436 7.313-10.461 1.366-2.026 2.624-3.683 2.794-3.682.17.001.953 1.134 1.74 2.517 1.642 2.892 5.41 8.607 10.686 16.208 2.02 2.912 4.332 6.384 5.135 7.716 2.671 4.428 4.609 10.259 4.604 13.856-.007 5.302-2.82 10.345-7.02 12.587-1.584.846-2.13.979-4.457 1.083-2.37.106-2.823.04-4.256-.614-2.927-1.337-5.286-4.37-6.007-7.72-.173-.807-.455-1.42-.626-1.363-.171.057-.558.864-.86 1.792-1.922 5.904-7.006 9.013-12.312 7.528zm104.75.034c-3.293-.962-6.079-3.101-7.383-5.67-1.34-2.636-1.66-4.383-1.529-8.333.104-3.131.253-4.05 1.035-6.4 1.704-5.117 4.085-9.228 10.666-18.415a655.293 655.293 0 0 0 6.981-9.973c1.826-2.674 3.464-4.814 3.642-4.755.177.059.941 1.182 1.698 2.496 1.762 3.06 5.322 8.446 10.517 15.914 6.416 9.222 8.213 12.705 9.461 18.326 1.592 7.169-1.79 14.383-7.797 16.63-2.13.797-5.946.726-7.746-.145-2.678-1.295-5.377-4.948-5.817-7.872-.244-1.623-.832-1.574-1.256.105-1.195 4.734-4.893 8.086-9.215 8.351-1.135.07-2.5-.039-3.257-.26zm42.246-19.613c-1.428-.95-2.07-2.458-2.048-4.812.026-2.737.568-3.958 5.155-11.609l4.001-6.672.536.68c1.08 1.37 7.167 11.945 7.775 13.51.835 2.146.9 5.493.136 7.034-.776 1.567-1.996 2.329-3.924 2.451-2.028.13-3.333-.599-4.027-2.249-.264-.627-.568-1.142-.675-1.143-.107 0-.344.448-.526.998-.182.551-.723 1.331-1.203 1.734-1.193 1.002-3.752 1.04-5.2.078zm-84.667-77.127a682.505 682.505 0 0 0-7.208-10.321c-5.923-8.3-8.017-11.779-9.83-16.335-2.612-6.566-2.408-13.195.542-17.598 1.163-1.735 2.497-2.837 4.593-3.794 4.37-1.996 8.584-1.3 11.598 1.914 1.289 1.375 3.055 4.55 3.055 5.492 0 .248.18.695.398.993.388.53.402.529.558-.017.088-.308.25-1.014.362-1.57.533-2.67 2.817-5.668 5.404-7.098 1.393-.77 1.781-.847 4.288-.847 2.53 0 2.916.079 4.683.946 3.313 1.627 6.101 5.358 6.91 9.245.201.966.283 2.79.197 4.396-.296 5.543-2.55 10.547-8.788 19.5-5.586 8.019-9.239 13.542-11.173 16.9-.87 1.509-1.767 2.774-1.993 2.81-.243.039-1.713-1.85-3.596-4.617zm-52.124-93.13c-1.577-2.326-4.871-7.038-7.322-10.472-6.159-8.63-8.139-11.887-10.036-16.504-3.108-7.565-2.337-15.54 1.882-19.477 3.315-3.093 8.073-4.105 11.73-2.494 2.516 1.11 4.704 3.726 5.78 6.915.352 1.04.775 1.937.941 1.992.166.056.389-.412.495-1.039.545-3.218 3.206-6.71 6.13-8.046 1.44-.657 1.877-.719 4.256-.604 3.345.16 4.907.856 7.29 3.246 5.086 5.105 5.46 12.664 1.064 21.535-1.338 2.7-2.638 4.697-10.348 15.888-2.134 3.099-4.894 7.351-6.132 9.45-1.239 2.1-2.39 3.823-2.557 3.828-.168.006-1.596-1.892-3.172-4.218zm104.31-.595a918.243 918.243 0 0 0-7.734-11.064c-6.584-9.263-8.644-12.992-10.27-18.593-.6-2.07-.743-3.18-.743-5.798 0-4.79 1.04-7.762 3.605-10.307 3.038-3.013 8.004-4.197 11.484-2.739 2.796 1.172 5.356 4.226 6.26 7.465.548 1.966 1.1 2.141 1.356.431.47-3.119 2.852-6.29 5.823-7.75 1.766-.867 1.988-.905 4.545-.785 2.216.104 2.963.268 4.257.93 3.436 1.763 5.957 5.372 6.877 9.846.407 1.978.425 2.665.124 4.767-.734 5.14-2.862 9.94-7.199 16.24-7.213 10.482-11.442 16.82-12.855 19.27-.864 1.499-1.715 2.773-1.89 2.831-.177.059-1.814-2.077-3.64-4.746zm-141.06-10.79c-4.491-7.519-5.058-8.812-5.085-11.607-.035-3.583 1.536-5.446 4.617-5.475 1.866-.017 2.892.65 3.782 2.459l.63 1.282.445-1.048c.533-1.256 1.87-2.443 3.04-2.7 1.258-.275 3.059.316 4.183 1.374 1.702 1.601 1.968 4.89.683 8.441-.23.636-1.067 2.26-1.861 3.611-4.912 8.353-5.919 9.973-6.237 10.03-.196.035-2.084-2.83-4.197-6.367zm.497-21.678c-3.085-.83-5.538-3.454-5.821-6.227-.088-.852.004-1.013.708-1.251 1.265-.428 2.159-.048 2.79 1.187.849 1.659 2.371 2.855 3.931 3.088 3.674.55 6.89-1.342 8.101-4.765.65-1.836.569-5.14-.174-7.12-1.914-5.104-6.589-6.265-10.578-2.627-1.492 1.36-1.594 1.404-2.425 1.06-.477-.196-.934-.634-1.015-.971-.08-.338.095-3.192.39-6.344.39-4.162.649-5.804.947-5.999.473-.31 12.783-.286 13.287.025.197.121.298.732.244 1.478l-.091 1.271-5.502.145-5.501.144-.084 2.383c-.047 1.311-.037 2.384.02 2.384.058 0 .726-.211 1.485-.47 2.127-.722 5.41-.445 7.38.625 4.414 2.397 6.46 7.873 5.095 13.644-.488 2.066-1.494 4.188-2.618 5.52-2.17 2.572-6.849 3.82-10.569 2.82z" fill="#e17d81"/><path d="M0 157.44V0h217.76v314.88H0V157.44zm211.67 156.25c1.909-.904 3.489-2.434 4.398-4.26l.67-1.34V7.37l-.691-1.526c-.85-1.875-3.016-3.886-4.865-4.514-1.227-.417-10.76-.46-102.6-.46H7.332l-1.772.883c-2.009 1.002-3.034 2.075-4.014 4.2L.868 7.425l.073 150.48.073 150.48.722 1.409c.948 1.852 2.839 3.476 4.874 4.185 1.627.567 2.63.572 102.56.522l100.91-.05 1.592-.754zm-22.179-21.745c-.087-.226-.116-.846-.065-1.377l.093-.967 5.19-.079c3.23-.049 5.336-.199 5.575-.396.425-.352.552-4.153.147-4.403-.13-.08-.75.036-1.376.26-.626.222-2.05.41-3.166.417-3.704.023-7.02-2.244-8.782-6.002-.704-1.503-.768-1.944-.765-5.252 0-4.175.51-5.89 2.469-8.362 4.274-5.395 13.376-4.838 16.094.985.373.8.68 1.813.682 2.25 0 .76-.06.794-1.438.794-1.334 0-1.475-.069-1.915-.939-.608-1.203-1.787-2.467-2.783-2.986-.43-.225-1.575-.408-2.543-.408-2.156 0-4.05.869-5.582 2.561-1.343 1.483-1.813 3.063-1.78 5.978.053 4.847 2.764 8.221 6.597 8.214 1.716 0 3.054-.598 4.682-2.082 1.61-1.468 1.64-1.48 2.4-1.02 1.22.738 1.22.747.234 9.892l-.342 3.178-6.734.078c-5.608.065-6.76.01-6.891-.334zm-147.11-15.02c-2.295-.573-4.517-1.78-5.774-3.137-1.48-1.598-1.892-2.282-2.744-4.553-.617-1.645-.702-2.343-.69-5.633.016-4.605.469-6.432 2.832-11.411 1.389-2.926 3.339-6.179 5.716-9.533.957-1.35 2.083-2.975 2.501-3.61.419-.636 1.439-2.066 2.266-3.178 1.959-2.633 4.034-5.616 6.583-9.461 1.132-1.708 2.208-3.106 2.392-3.106.183 0 .497.358.696.795.793 1.74 5.39 8.878 10 15.527 1.217 1.753 2.683 3.89 4.958 7.222l1.237 1.81c2.217 3.245 4.48 9 5.01 12.743.86 6.066-1.934 12.182-6.755 14.785-1.756.949-1.962.99-4.874.992-3.551 0-4.488-.363-6.767-2.636-1.605-1.601-2.325-2.879-2.93-5.197-.236-.903-.498-1.71-.583-1.795-.254-.254-.632.318-1.017 1.541-1.05 3.33-3.468 6.313-5.996 7.394-1.744.746-4.14.92-6.06.44zm104.14-.13c-2.471-.822-3.796-1.616-5.224-3.131-2.565-2.722-3.463-5.328-3.463-10.054 0-3.682.715-6.657 2.566-10.673 1.962-4.257 3.446-6.698 7.741-12.733l1.438-2.022c.225-.318 1.15-1.618 2.056-2.89 1.726-2.423 2.95-4.179 6.238-8.954 1.095-1.59 2.143-2.89 2.331-2.89.188 0 .915 1.04 1.615 2.312 1.501 2.723 9.277 14.41 13.07 19.644 3.854 5.32 6.03 10.032 7.116 15.418.574 2.844.427 4.848-.572 7.777-1.264 3.708-3.496 6.376-6.535 7.813-1.872.885-5.449 1.193-7.33.631-1.355-.405-3.786-2.174-4.857-3.534-.842-1.07-2.291-4.488-2.291-5.405 0-.938-.8-.705-1.02.297-.11.494-.594 1.742-1.078 2.773-2.209 4.709-7.28 7.124-11.801 5.622zm42.565-19.476c-1.626-1.108-2.08-2.299-1.96-5.132.125-2.94.335-3.425 4.372-10.106 1.584-2.622 3.224-5.342 3.644-6.045.42-.703.913-1.328 1.096-1.389.182-.06.88.84 1.552 2a367.876 367.876 0 0 0 3.195 5.367c2.778 4.577 3.748 6.732 4.068 9.039.578 4.16-1.26 6.874-4.674 6.903-1.71.014-2.984-.781-3.646-2.28-.598-1.352-1.004-1.381-1.338-.095-.128.493-.632 1.231-1.121 1.642-1.21 1.015-3.768 1.063-5.188.096zm-82.258-73.663c-.492-.676-1.865-2.658-3.05-4.406-2.1-3.097-2.993-4.371-7.786-11.102-1.274-1.79-2.498-3.533-2.72-3.875a81.893 81.893 0 0 0-.996-1.478c-2.174-3.15-5.206-9.484-5.973-12.476-1.566-6.11-.486-12.412 2.68-15.642 2.326-2.372 5.076-3.57 8.145-3.551 2.934.018 4.545.658 6.523 2.588 1.485 1.45 3.2 4.102 3.2 4.948 0 .17.203.791.452 1.382.514 1.22.78.995 1.128-.948.324-1.816 1.868-4.41 3.443-5.784 4.12-3.595 9.922-3.209 14.036.935 4.07 4.1 5.164 10.206 2.992 16.693-1.785 5.329-2.654 6.849-9.581 16.755-4.551 6.51-7.994 11.813-10.267 15.816-.429.755-.903 1.373-1.055 1.373-.151 0-.678-.553-1.17-1.228zM53.952 89.482c-1.452-2.203-7.206-10.464-9.268-13.31-8.846-12.198-12.042-19.496-11.59-26.47.438-6.733 3.923-11.046 9.805-12.133 5.022-.929 9.685 2.14 11.374 7.485.375 1.187.798 2.196.939 2.243.14.047.488-.811.77-1.907.915-3.542 3.323-6.467 6.225-7.563 2.34-.883 5.905-.688 8.147.445 2.206 1.115 4.42 3.48 5.621 6.004 2.415 5.073 1.993 10.397-1.379 17.4-1.623 3.372-2.126 4.188-6.24 10.112-5.04 7.255-9.444 13.923-11.02 16.687-.877 1.535-1.729 2.796-1.894 2.801-.165.006-.836-.802-1.49-1.795zm103.78-1.445c-1.21-1.787-3.12-4.55-4.247-6.138a244.077 244.077 0 0 1-2.801-4.022c-.415-.623-.869-1.273-1.01-1.444-1.138-1.392-5.674-8.058-7.1-10.434-1.32-2.204-2.647-5.125-3.655-8.047-.784-2.275-.922-3.124-1.022-6.286-.165-5.213.666-7.833 3.404-10.74 2.926-3.106 8.17-4.4 11.767-2.905 2.083.866 3.763 2.578 4.977 5.073.645 1.324 1.28 2.788 1.413 3.253.359 1.255.736 1.066 1.111-.558.736-3.188 3.025-6.288 5.691-7.707 1.077-.574 1.676-.67 4.154-.666 2.5.003 3.113.105 4.488.747 4.537 2.117 7.93 8.42 7.403 13.75-.22 2.225-1.58 7.005-2.63 9.24-.893 1.902-3.84 6.874-5.106 8.613-5.6 7.697-11.104 16.026-13.625 20.622-.271.495-.61.9-.753.9-.143 0-1.25-1.463-2.46-3.25zm-138.54-6.355c-.156-.199-.74-1.141-1.299-2.095a424.673 424.673 0 0 0-3.416-5.633c-2.977-4.837-3.731-6.51-4.022-8.917-.295-2.448.066-3.99 1.212-5.174 1.1-1.136 2.155-1.452 4.04-1.21 1.581.202 2.509.935 2.993 2.364.43 1.272.879 1.305 1.28.094.387-1.173 1.744-2.313 3.093-2.598 1.012-.214 3.485.678 4.245 1.53.235.263.634 1.182.887 2.042.705 2.388.004 5.987-1.682 8.653-.412.65-.749 1.246-.749 1.324 0 .078-.57 1.023-1.267 2.1-.697 1.077-2.012 3.291-2.922 4.92-.91 1.628-1.757 2.96-1.883 2.96-.125 0-.354-.162-.51-.36zm-2.539-27.668c-.637-.128-1.524-.374-1.97-.545-2.254-.865-4.545-3.847-4.545-5.914V46.51h1.394c1.31 0 1.432.066 2.006 1.083 1.308 2.316 2.858 3.25 5.398 3.25 2.994 0 6.069-2.35 6.846-5.23 1.16-4.298-.676-9.621-3.83-11.098-2.18-1.022-6.043.041-7.777 2.14-.77.93-.862.965-1.68.627-.478-.198-.928-.515-1.001-.707-.14-.362.507-9.142.832-11.307l.187-1.24 1.582-.098c.87-.053 3.991-.06 6.936-.012l5.353.084-.088 1.36-.087 1.36-5.502.144-5.502.144-.084 2.384c-.046 1.315.035 2.383.182 2.383.146 0 .769-.21 1.384-.466 1.795-.748 5.35-.448 7.312.617 3.755 2.04 5.822 6.256 5.447 11.11-.322 4.162-2.081 7.706-4.681 9.428-2.38 1.577-5.247 2.123-8.112 1.546z" fill="#e0817d"/><path d="M0 157.44V0h217.76v314.88H0V157.44zm211.67 156.25c1.909-.904 3.489-2.434 4.398-4.26l.67-1.34V7.37l-.691-1.526c-.85-1.875-3.016-3.886-4.865-4.514-1.227-.417-10.76-.46-102.6-.46H7.332l-1.772.883c-2.009 1.002-3.034 2.075-4.014 4.2L.868 7.425l.073 150.48.073 150.48.722 1.409c.948 1.852 2.839 3.476 4.874 4.185 1.627.567 2.63.572 102.56.522l100.91-.05 1.592-.754zm-22.179-21.745c-.087-.226-.116-.846-.065-1.377l.093-.967 5.502-.144 5.501-.145.084-2.383c.046-1.31-.035-2.383-.18-2.383-.146 0-.82.195-1.496.433-3.215 1.132-6.96.18-9.58-2.432-2.326-2.321-2.978-4.118-3-8.256-.019-3.715.67-6.11 2.427-8.429 4.253-5.613 13.999-4.76 16.37 1.434.74 1.935.559 2.355-1.065 2.46-1.28.082-1.385.033-1.84-.867-.616-1.217-1.79-2.48-2.791-3.002-1.332-.694-4.229-.523-5.993.354-3.942 1.96-5.246 7.515-2.865 12.213 1.246 2.46 2.604 3.546 4.644 3.715 2.309.19 3.726-.32 5.584-2.015 1.612-1.47 1.643-1.483 2.405-1.024 1.011.61 1.068 1.746.408 8.16l-.506 4.911-6.739.078c-5.613.065-6.766.01-6.898-.333zm-147.08-15.012c-6.366-1.596-9.83-7.037-9.306-14.613.232-3.36 1.065-6.145 3.095-10.355 1.98-4.103 3.327-6.221 9.399-14.775a993.837 993.837 0 0 0 7-9.986c1.419-2.065 2.69-3.755 2.825-3.755.135 0 1.305 1.755 2.6 3.9 2.176 3.604 4.293 6.768 11.848 17.704 4.576 6.624 7.18 12.609 7.616 17.504.494 5.54-2.771 11.709-7.323 13.837-1.46.683-2.044.786-4.433.786-3.338 0-4.75-.596-6.978-2.946-1.58-1.668-2.386-3.214-2.887-5.545-.187-.87-.46-1.46-.647-1.398-.178.06-.535.814-.794 1.676-1.062 3.54-2.88 5.88-5.573 7.175-2.128 1.023-4.403 1.303-6.442.792zm104.62-.047c-4.751-1.183-7.956-4.637-8.924-9.614-.57-2.935-.212-7.478.84-10.643 1.686-5.08 4.049-9.145 10.836-18.653a700.899 700.899 0 0 0 7.136-10.194c1.624-2.383 3.056-4.37 3.184-4.415.128-.045 1.216 1.58 2.418 3.61 1.203 2.032 3.885 6.164 5.962 9.182 9.95 14.467 11.105 16.404 12.652 21.232 1.046 3.267 1.3 7.78.577 10.277-1.131 3.912-3.69 7.2-6.78 8.715-1.446.708-1.947.796-4.522.796-2.662 0-3.009-.066-4.3-.824-2.827-1.657-4.455-3.843-5.41-7.264-.266-.954-.6-1.713-.744-1.687-.143.025-.528.805-.856 1.733-.943 2.669-1.702 3.91-3.295 5.398-2.548 2.378-5.495 3.167-8.774 2.35zm42.341-19.444c-1.612-.842-2.367-2.6-2.257-5.25.077-1.855.264-2.521 1.296-4.623 1.598-3.254 7.475-12.855 7.869-12.855.467 0 7.288 11.57 8.09 13.722.846 2.275.979 5.455.282 6.789-1.806 3.456-6.482 3.7-7.935.414-.594-1.342-.926-1.337-1.37.022-.679 2.071-3.697 2.971-5.975 1.781zm-82.137-73.252c-.29-.381-1.7-2.428-3.134-4.548-1.433-2.12-4.416-6.39-6.628-9.489-5.227-7.323-6.838-9.86-8.716-13.724-1.848-3.803-2.636-6.266-3.04-9.505-.308-2.476-.06-5.556.62-7.683 1.553-4.854 5.891-8.089 10.849-8.089 4.564 0 8.03 2.82 9.69 7.882.353 1.077.77 1.917.926 1.865.156-.052.5-.953.765-2.003 1.694-6.715 8.528-9.887 14.644-6.799 1.643.83 4.205 3.558 5.138 5.47 1.85 3.792 2.126 7.36.928 11.959-1.26 4.837-3.016 8.157-8.391 15.858-6.4 9.169-9.42 13.762-11.547 17.556-.6 1.069-1.199 1.943-1.333 1.943-.134 0-.48-.312-.771-.694zm-52.56-93.697C54.061 89.456 46.788 79 43.976 75.11c-5.278-7.3-8.867-13.768-10.097-18.199-2.264-8.156.135-15.596 5.904-18.313 6.428-3.027 12.509-.11 14.646 7.026.258.863.615 1.617.793 1.676.187.062.46-.536.648-1.424.517-2.442 1.626-4.382 3.492-6.105 2.204-2.036 3.864-2.623 6.92-2.446 5.423.313 9.593 4.373 10.92 10.63 1.169 5.517-1.123 12.478-6.87 20.86C63.409 78.91 59.34 84.999 57.918 87.388a1297.06 1297.06 0 0 1-1.94 3.25c-.508.844-.732.82-1.303-.145zm102.79-2.889c-1.368-2.026-4.79-6.933-7.605-10.905-2.815-3.972-5.765-8.29-6.557-9.597-5.601-9.246-6.95-17.238-3.948-23.403 1.522-3.128 4.196-5.153 7.95-6.021 3.336-.772 6.306.081 8.743 2.512 1.38 1.376 2.165 2.734 3.07 5.31.335.953.727 1.708.872 1.677.144-.03.473-.81.73-1.733.917-3.292 2.493-5.465 5.09-7.021 1.631-.977 1.788-1.011 4.595-1.011 2.586 0 3.085.087 4.532.796 3.09 1.514 5.649 4.803 6.78 8.714.383 1.32.463 2.41.353 4.767-.255 5.436-2.213 10.1-7.477 17.81-8.895 13.028-10.757 15.829-12.42 18.682-.996 1.708-1.903 3.105-2.016 3.105-.113 0-1.324-1.657-2.691-3.683zm-138.44-6.21c-3.457-5.624-6.47-10.726-7.328-12.41-.936-1.837-1.088-2.422-1.185-4.562-.09-1.962-.006-2.658.412-3.461.812-1.558 2.178-2.317 4.17-2.317 1.947 0 3.056.718 3.6 2.329.454 1.347.789 1.327 1.448-.088 1.485-3.19 6.098-3.019 7.702.287.516 1.065.594 1.645.49 3.643-.152 2.868-.732 4.221-4.395 10.248-1.384 2.278-2.841 4.78-3.238 5.561-.804 1.584-1.094 1.717-1.676.77zm-2.41-27.384c-3.466-.684-6.444-3.706-6.463-6.56-.006-.928.009-.938 1.37-.938 1.339 0 1.394.035 2.08 1.326 1.035 1.946 2.31 2.803 4.398 2.953 2.298.166 4.05-.37 5.573-1.707 1.818-1.597 2.6-3.558 2.583-6.472-.04-6.596-4.573-10.265-9.597-7.767-.835.415-1.87 1.195-2.301 1.733-.923 1.154-1.11 1.182-2.15.327l-.788-.649.542-5.879c.3-3.233.663-5.998.809-6.144.15-.15 3.15-.231 6.905-.187l6.64.078v2.6l-5.44.078c-3.992.058-5.47.173-5.55.433-.269.876-.4 3.863-.186 4.21.196.316.477.303 1.59-.075.745-.252 2.042-.458 2.884-.458 6.984 0 11.458 6.951 9.486 14.742-1.18 4.668-3.618 7.31-7.57 8.207-2.156.489-2.97.514-4.815.15z" fill="#929292"/><path d="M0 157.44V0h217.76v314.88H0V157.44zm212.14 156.22c1.848-.972 3.687-3.022 4.286-4.775.413-1.209.456-15.59.456-151.43V7.365l-.824-1.736c-.917-1.934-2.394-3.386-4.373-4.3L210.367.72H7.087l-1.303.68c-1.775.927-3.372 2.5-4.296 4.23L.717 7.076.64 156.716c-.054 103.98.015 150.08.227 151.07.61 2.866 2.79 5.295 5.639 6.279 1.366.472 7.272.497 102.8.437l101.35-.064 1.483-.78zm-22.649-21.719c-.087-.226-.116-.846-.065-1.377l.093-.967 5.502-.144 5.501-.145.084-2.383c.046-1.31-.035-2.383-.18-2.383-.146 0-.82.195-1.496.433-3.215 1.132-6.96.18-9.58-2.432-2.326-2.321-2.978-4.118-3-8.256-.019-3.715.67-6.11 2.427-8.429 4.253-5.613 13.999-4.76 16.37 1.434.74 1.935.559 2.356-1.065 2.46-1.28.082-1.385.033-1.84-.867-.616-1.217-1.79-2.48-2.791-3.002-1.332-.694-4.229-.523-5.993.354-3.942 1.96-5.246 7.515-2.865 12.213 1.246 2.46 2.604 3.546 4.644 3.715 2.309.19 3.726-.32 5.584-2.015 1.612-1.47 1.643-1.483 2.405-1.024 1.011.61 1.068 1.747.408 8.16l-.506 4.911-6.739.078c-5.613.065-6.766.01-6.898-.333zm-147.08-15.012c-6.366-1.596-9.83-7.037-9.306-14.613.232-3.36 1.065-6.145 3.095-10.355 1.98-4.103 3.327-6.221 9.399-14.775a993.837 993.837 0 0 0 7-9.986c1.419-2.065 2.69-3.755 2.825-3.755.135 0 1.305 1.755 2.6 3.9 2.176 3.604 4.293 6.768 11.848 17.704 4.576 6.624 7.18 12.609 7.616 17.504.494 5.54-2.771 11.709-7.323 13.837-1.46.683-2.044.786-4.433.786-3.338 0-4.75-.596-6.978-2.946-1.58-1.668-2.386-3.214-2.887-5.545-.187-.87-.46-1.46-.647-1.398-.178.06-.535.814-.794 1.676-1.062 3.54-2.88 5.88-5.573 7.175-2.128 1.023-4.403 1.303-6.442.792zm104.62-.047c-4.751-1.183-7.956-4.637-8.924-9.614-.57-2.935-.212-7.478.84-10.643 1.686-5.08 4.049-9.145 10.836-18.653a700.899 700.899 0 0 0 7.136-10.194c1.624-2.383 3.056-4.37 3.184-4.415.128-.045 1.216 1.58 2.418 3.61 1.203 2.032 3.885 6.164 5.962 9.182 9.95 14.467 11.105 16.404 12.652 21.232 1.046 3.267 1.3 7.78.577 10.277-1.131 3.912-3.69 7.2-6.78 8.715-1.446.708-1.947.796-4.522.796-2.662 0-3.009-.066-4.3-.824-2.827-1.657-4.455-3.843-5.41-7.264-.266-.954-.6-1.713-.744-1.687-.143.025-.528.805-.856 1.733-.943 2.669-1.702 3.91-3.295 5.398-2.548 2.378-5.495 3.167-8.774 2.35zm42.341-19.444c-1.612-.842-2.367-2.6-2.257-5.25.077-1.855.264-2.521 1.296-4.623 1.598-3.254 7.475-12.855 7.869-12.855.467 0 7.288 11.57 8.09 13.722.846 2.275.979 5.455.282 6.789-1.806 3.456-6.482 3.7-7.935.414-.594-1.342-.926-1.337-1.37.022-.679 2.071-3.697 2.971-5.975 1.781zm-82.137-73.252c-.29-.381-1.7-2.428-3.134-4.547-1.433-2.12-4.416-6.39-6.628-9.49-5.227-7.323-6.838-9.86-8.716-13.724-1.848-3.803-2.636-6.266-3.04-9.505-.308-2.476-.06-5.556.62-7.683 1.553-4.854 5.891-8.089 10.849-8.089 4.564 0 8.03 2.82 9.69 7.882.353 1.078.77 1.917.926 1.865.156-.052.5-.953.765-2.003 1.694-6.715 8.528-9.887 14.644-6.799 1.643.83 4.205 3.558 5.138 5.47 1.85 3.792 2.126 7.36.928 11.959-1.26 4.837-3.016 8.157-8.391 15.858-6.4 9.169-9.42 13.762-11.547 17.556-.6 1.069-1.199 1.943-1.333 1.943-.134 0-.481-.312-.771-.694zm-52.56-93.697c-.614-1.037-7.887-11.493-10.699-15.383-5.278-7.3-8.867-13.768-10.097-18.199-2.264-8.156.135-15.596 5.904-18.313 6.428-3.027 12.509-.11 14.646 7.026.258.863.615 1.617.793 1.676.187.062.46-.536.648-1.424.517-2.442 1.626-4.382 3.492-6.105 2.204-2.036 3.864-2.623 6.92-2.446 5.423.313 9.593 4.373 10.92 10.63 1.169 5.518-1.123 12.478-6.87 20.86-6.923 10.096-10.992 16.184-12.414 18.573a1297.06 1297.06 0 0 1-1.94 3.25c-.508.844-.732.82-1.303-.145zm102.79-2.889c-1.368-2.025-4.79-6.933-7.605-10.905-2.815-3.972-5.765-8.29-6.557-9.597-5.601-9.246-6.95-17.238-3.949-23.403 1.523-3.128 4.197-5.153 7.95-6.021 3.337-.772 6.307.081 8.744 2.512 1.38 1.376 2.165 2.734 3.07 5.31.335.953.727 1.708.872 1.677.144-.03.473-.81.73-1.733.917-3.292 2.493-5.465 5.09-7.021 1.631-.977 1.788-1.011 4.595-1.011 2.586 0 3.085.087 4.532.796 3.09 1.514 5.649 4.803 6.78 8.714.383 1.32.463 2.41.353 4.767-.255 5.436-2.213 10.1-7.477 17.81-8.895 13.028-10.757 15.829-12.42 18.682-.996 1.708-1.903 3.105-2.016 3.105-.113 0-1.324-1.657-2.692-3.683zm-138.44-6.21c-3.457-5.624-6.47-10.726-7.328-12.41-.936-1.837-1.088-2.422-1.185-4.562-.09-1.962-.006-2.658.412-3.461.812-1.558 2.178-2.317 4.17-2.317 1.947 0 3.056.718 3.6 2.329.454 1.348.789 1.327 1.448-.088 1.485-3.19 6.098-3.019 7.702.287.516 1.065.594 1.645.49 3.643-.152 2.868-.732 4.221-4.395 10.248-1.384 2.278-2.841 4.78-3.238 5.561-.804 1.584-1.094 1.717-1.676.77zm-2.41-27.384c-3.466-.684-6.444-3.706-6.463-6.56-.006-.928.009-.938 1.37-.938 1.339 0 1.394.035 2.08 1.326 1.035 1.946 2.31 2.803 4.398 2.953 2.298.166 4.05-.37 5.572-1.707 1.819-1.597 2.602-3.558 2.584-6.472-.04-6.596-4.573-10.265-9.597-7.767-.835.415-1.87 1.195-2.301 1.733-.923 1.154-1.11 1.182-2.15.327l-.788-.649.542-5.879c.3-3.233.663-5.998.809-6.144.15-.15 3.15-.231 6.905-.187l6.64.078v2.6l-5.44.078c-3.992.058-5.47.173-5.55.433-.269.876-.4 3.863-.186 4.21.196.316.477.303 1.59-.075.745-.252 2.042-.458 2.884-.458 6.984 0 11.458 6.951 9.486 14.742-1.18 4.668-3.618 7.31-7.57 8.207-2.156.489-2.97.514-4.815.15z" fill="#da6d6e"/><path d="M0 157.44V0h217.76v314.88H0V157.44zm212.14 156.22c1.848-.972 3.687-3.022 4.286-4.775.413-1.209.456-15.59.456-151.43V7.365l-.824-1.736c-.917-1.934-2.394-3.386-4.373-4.3L210.367.72H7.087l-1.303.68c-1.775.927-3.372 2.5-4.296 4.23L.717 7.076.64 156.716c-.054 103.98.015 150.08.227 151.07.61 2.866 2.79 5.295 5.639 6.279 1.366.472 7.272.497 102.8.437l101.35-.064 1.483-.78zm-22.573-21.511c-.178-.178-.284-2.337-.12-2.463.04-.031 2.547-.129 5.573-.217l5.502-.16.215-2.155c.125-1.248.103-2.266-.052-2.42-.163-.163-1.004-.068-2.163.245-2.332.63-4.31.45-6.426-.583-5.037-2.459-7.067-8.435-5.059-14.894 1.402-4.51 4.537-6.963 9.148-7.159 2.809-.12 4.264.233 6.096 1.476 1.552 1.053 2.95 3.25 3.081 4.84.081.988.061 1.007-1.116 1.093-1.169.085-1.227.045-2.317-1.578-1.482-2.21-2.515-2.783-5.019-2.783-4.841 0-7.77 3.47-7.477 8.857.268 4.901 2.864 8.077 6.601 8.075 1.915 0 3.664-.81 5.284-2.441.886-.893 1.22-1.067 1.63-.847 1.243.663 1.26.83.734 6.86-.275 3.149-.626 5.887-.78 6.085-.208.27-1.907.361-6.71.361-3.538 0-6.519-.087-6.625-.192zm-126.97-15.4c-3.42-1.221-5.6-3.93-6.72-8.355-.409-1.613-1.003-1.568-1.426.108-.87 3.45-3.266 6.471-6.155 7.764-1.607.72-2.009.783-4.121.648-6.803-.434-11.001-5.534-10.996-13.359.004-6.805 2.697-12.629 11.633-25.158 2.503-3.51 5.847-8.286 7.432-10.616 1.584-2.329 3.018-4.232 3.185-4.228.167.004.826.945 1.463 2.092 1.203 2.166 6.629 10.377 12.454 18.845 5.46 7.938 7.631 12.908 7.892 18.056.17 3.35-.228 5.423-1.544 8.047-1.196 2.386-3.515 4.68-5.774 5.711-2.199 1.004-5.238 1.189-7.322.445zm105.34.258c-3.35-1.016-6.213-4.193-7.134-7.915-.284-1.148-.629-1.925-.854-1.925-.215 0-.59.757-.872 1.758-.884 3.141-2.995 5.825-5.727 7.282-1.748.932-6.08.918-8.142-.027-3.363-1.54-5.364-3.744-6.572-7.235-.948-2.742-.941-7.86.016-11.168 1.46-5.042 4.328-10.178 10.532-18.856a743.314 743.314 0 0 0 7.39-10.55c1.824-2.67 3.46-4.806 3.636-4.747.176.058 1.028 1.33 1.892 2.825 1.754 3.032 5.06 8.021 10.327 15.585 6.074 8.72 7.785 11.962 9.134 17.301 2.011 7.961-1.941 15.971-8.66 17.549-1.782.419-3.826.47-4.966.123zm21.864-19.493c-2.53-1.122-3.377-4.179-2.2-7.948.493-1.583 8.278-15.044 8.7-15.043.087 0 .543.683 1.012 1.517.468.834 2.134 3.661 3.7 6.283 1.609 2.69 3.098 5.566 3.42 6.602 1.435 4.623.058 8.23-3.393 8.88-1.851.35-3.925-.898-4.393-2.643-.297-1.11-.845-1.212-1.204-.224-.576 1.583-.957 2.096-1.891 2.538-1.144.541-2.583.556-3.751.039zm-84.997-77.094c-1.649-2.416-5.035-7.254-7.525-10.749-6.045-8.486-8.31-12.292-10.035-16.866-2.497-6.617-1.959-13.445 1.395-17.697 1.697-2.151 5.701-4.001 8.662-4.001 4.173 0 8.407 3.614 9.551 8.152.372 1.475 1.035 2.32 1.282 1.63.077-.217.277-1.022.444-1.79.662-3.04 2.96-5.971 5.75-7.333 2.982-1.455 7.336-.858 10.306 1.413 3.835 2.934 5.902 8.42 5.112 13.568-.815 5.312-2.695 9.343-7.913 16.964-6.729 9.828-10.276 15.174-11.964 18.032-.918 1.555-1.76 2.883-1.868 2.95-.11.067-1.548-1.855-3.197-4.272zM52.628 87.27c-1.368-2.026-4.793-6.934-7.61-10.906-9.383-13.227-11.762-18.315-11.82-25.277-.039-4.707 1.167-8.002 3.84-10.498 2.116-1.974 4.238-2.87 7.157-3.024 2.093-.11 2.55-.038 4.054.647 3 1.366 5.32 4.281 6.208 7.8.44 1.748 1.17 1.71 1.475-.076.541-3.162 2.915-6.407 5.676-7.76 1.426-.698 1.995-.81 4.116-.802 2.046.007 2.743.138 4.127.779 3.27 1.512 5.882 4.752 7.03 8.723.383 1.32.463 2.41.353 4.767-.29 6.18-2.491 10.856-10.348 21.977-3.42 4.84-8.26 12.202-9.726 14.797-.784 1.385-1.564 2.523-1.735 2.527-.17.004-1.429-1.649-2.797-3.675zm103.94-1.15a654.873 654.873 0 0 0-6.973-9.963c-5.123-7.152-6.361-9.102-8.434-13.279-2.57-5.18-3.19-7.545-3.165-12.079.016-2.952.135-3.923.648-5.32 1.303-3.55 3.068-5.514 6.32-7.034 1.47-.687 2.047-.79 4.44-.79 2.279.001 2.955.11 3.943.637 2.732 1.457 4.843 4.14 5.727 7.282.616 2.19 1.17 2.291 1.6.293.714-3.322 2.911-6.263 5.845-7.824 1.075-.572 1.682-.675 3.912-.663 2.375.012 2.831.108 4.538.946 2.248 1.104 4.443 3.35 5.545 5.674 1.99 4.194 2.095 8.204.356 13.476-1.598 4.84-2.77 6.883-9.424 16.42-4.87 6.981-7.695 11.266-9.516 14.437-.769 1.339-1.543 2.483-1.72 2.542-.178.058-1.816-2.081-3.642-4.755zM15.428 75.39c-2.395-3.981-4.23-7.374-4.56-8.428-1.487-4.768.266-8.358 4.08-8.354 1.817 0 3.022.798 3.537 2.34.522 1.562.957 1.71 1.368.465.179-.538.72-1.357 1.205-1.82.762-.728 1.103-.842 2.527-.842 1.274 0 1.866.157 2.621.694 2.507 1.784 2.72 6.018.52 10.339-.76 1.493-6.202 10.732-6.915 11.74-.334.473-.799-.178-4.383-6.135zm-.255-21.898c-1.86-.619-3.506-2.095-4.425-3.97-1.056-2.153-.913-2.88.59-2.99 1.115-.082 1.204-.023 2.17 1.44 1.496 2.263 2.52 2.835 5.073 2.835 2.755 0 4.78-.984 6.123-2.975 2.278-3.373 1.794-9.197-1.01-12.145-2.389-2.513-6.021-2.403-9.003.271-1.208 1.083-1.621 1.298-2.217 1.149-.403-.101-.816-.401-.918-.667-.188-.489.712-11.852.972-12.272.078-.125 3.116-.227 6.753-.227h6.611l.188.747c.103.41.109.995.012 1.3-.195.613.032.593-6.586.6-4.86.007-4.844-.003-4.844 3.007 0 2.442 0 2.441 2.351 1.674 4.15-1.355 9.147 1.095 11.135 5.46 1.147 2.517 1.343 6.754.448 9.694-1.113 3.656-3.447 6.224-6.47 7.12-1.895.562-5.185.537-6.953-.05z" fill="#d64e4e"/><path d="M0 157.44V0h217.76v314.88H0V157.44zm212.14 156.22c1.848-.972 3.687-3.022 4.286-4.775.413-1.209.456-15.59.456-151.43V7.365l-.824-1.736c-.917-1.934-2.394-3.386-4.373-4.3L210.367.72H7.087l-1.303.68c-1.775.927-3.372 2.5-4.296 4.23L.717 7.076.64 156.716c-.054 103.98.015 150.08.227 151.07.61 2.866 2.79 5.295 5.639 6.279 1.366.472 7.272.497 102.8.437l101.35-.064 1.483-.78zm-22.477-22.763v-1.155h5.299c3.735 0 5.402-.103 5.646-.347.419-.417.479-4.738.07-4.99-.152-.094-.94.045-1.75.309-2.193.716-5.235.454-7.215-.621-3.23-1.754-4.928-4.758-5.167-9.142-.353-6.465 2.771-11.303 8-12.386 3.078-.637 6.62.186 8.546 1.987.945.884 2.2 3.343 2.205 4.318 0 .578-.141.65-1.3.65-.717 0-1.304-.108-1.304-.24 0-.131-.397-.838-.883-1.57-2.552-3.844-8.898-3.237-11.442 1.094-2.544 4.33-.845 11.343 3.192 13.173 2.396 1.086 4.983.538 7.259-1.537.836-.763 1.64-1.387 1.788-1.387.146 0 .526.241.842.536.57.53.571.588.074 5.85-.276 2.922-.51 5.606-.521 5.964l-.02.65h-13.32v-1.156zm-147.6-14.295c-4.505-1.261-7.216-4.19-8.36-9.029-.67-2.841-.409-7.265.62-10.472 1.725-5.376 3.655-8.741 10.802-18.835 2.534-3.579 5.871-8.345 7.416-10.592 1.545-2.246 2.849-4.085 2.898-4.085.048 0 .782 1.2 1.63 2.667 1.867 3.225 5.09 8.094 10.912 16.48 6.035 8.693 8.149 13.005 9.077 18.513 1.016 6.033-2.024 12.576-6.903 14.857-1.466.686-2.024.781-4.566.781-2.62 0-3.022-.074-4.215-.774-2.618-1.535-4.613-4.296-5.228-7.233-.175-.839-.43-1.644-.566-1.788-.384-.409-1.058.318-1.256 1.356-.275 1.434-1.5 3.86-2.662 5.277-2.122 2.583-6.24 3.818-9.6 2.877zm104.78-.011c-3.232-.903-5.912-2.98-7.277-5.644-1.8-3.51-1.938-9.66-.323-14.394 1.757-5.148 4.173-9.29 10.882-18.657a670.158 670.158 0 0 0 6.662-9.496c1.697-2.478 3.188-4.569 3.313-4.646.125-.077.853.982 1.62 2.354 1.302 2.334 6.199 9.706 12.91 19.436 4.33 6.28 6.33 10.695 7.237 15.977.958 5.58-2.216 12.264-6.912 14.556-1.264.617-2.133.807-4.13.902-2.226.106-2.714.036-4.077-.59-2.885-1.326-5.197-4.358-5.897-7.735-.25-1.201-.454-1.588-.84-1.588-.38 0-.68.525-1.157 2.022-1.888 5.922-6.765 8.969-12.01 7.504zm42.362-19.481c-1.417-.933-1.954-2.462-1.797-5.125.109-1.846.318-2.617 1.157-4.275 1.2-2.369 7.429-12.682 7.713-12.772.325-.103 7.38 12.081 7.98 13.783.782 2.215.786 5.324.01 6.651-1.402 2.396-4.417 3.089-6.291 1.447-.539-.472-1.102-1.284-1.252-1.806-.368-1.28-.976-1.194-1.462.208-.63 1.821-1.258 2.268-3.343 2.381-1.455.08-1.994-.019-2.714-.492zm-82.951-74.758c-3.143-4.63-5.413-7.884-9.138-13.1-5.832-8.163-8.195-12.235-9.902-17.061-3.112-8.803-.894-16.945 5.4-19.823 1.918-.876 5.69-1.216 7.368-.664 2.943.97 5.366 3.628 6.592 7.23.81 2.383 1.57 3.01 1.879 1.55.79-3.751 2.177-6.09 4.555-7.684 2.113-1.417 3.39-1.757 5.887-1.569 3.576.27 6.323 1.912 8.384 5.01 3.486 5.238 3.23 11.878-.763 19.81-1.173 2.33-3.07 5.286-7.007 10.92-5.473 7.83-11.207 16.73-11.207 17.395 0 .666-.69-.013-2.048-2.013zm-52.51-93.53c-1.551-2.301-4.858-7.03-10.756-15.383-6.899-9.77-9.352-15.23-9.67-21.521-.375-7.382 2.794-12.339 8.878-13.888 2.39-.609 4.239-.4 6.56.74 2.631 1.292 4.397 3.659 5.465 7.323.656 2.253 1.25 2.131 1.879-.386.258-1.032.701-2.315.985-2.85.766-1.44 2.718-3.442 4.215-4.32 1.205-.706 1.584-.774 4.36-.774 2.782 0 3.173.07 4.607.823 4.383 2.302 7.357 8.098 6.885 13.42-.45 5.09-2.771 10.444-7.538 17.389-7.043 10.265-11.172 16.478-12.622 18.994-.846 1.47-1.584 2.672-1.639 2.672-.055 0-.78-1.007-1.61-2.239zm105.67 1.32c-.388-.527-2.317-3.299-4.287-6.159-1.97-2.86-4.71-6.76-6.09-8.666-5.459-7.542-8.196-12.319-9.868-17.22-1.174-3.441-1.485-8.488-.71-11.508 1.18-4.593 3.996-7.39 8.632-8.575 5.174-1.323 9.818 1.677 11.688 7.55.704 2.21 1.422 2.79 1.724 1.39.943-4.365 2.958-7.202 6.171-8.687 1.367-.632 1.841-.7 4.054-.59 2.992.15 4.62.79 6.57 2.582 3.558 3.273 5.207 8.012 4.472 12.851-.78 5.13-2.844 9.637-7.546 16.472-6.537 9.503-11.256 16.594-12.31 18.498-1.812 3.278-1.684 3.173-2.5 2.063zm-143.87-14.87c-2.168-3.627-4.168-7.18-4.445-7.895-.718-1.856-.703-5.133.028-6.383.798-1.362 2.214-2.108 3.953-2.082 1.798.027 2.812.739 3.395 2.384.24.674.556 1.245.705 1.27.149.024.605-.597 1.013-1.38 1.266-2.427 3.412-3.022 5.761-1.597 2.51 1.523 2.9 5.503.95 9.666-.717 1.527-6.052 10.682-7.044 12.084-.334.473-.793-.171-4.316-6.067zm.828-21.48c-3.292-.828-6.004-3.626-6.004-6.194 0-.654.116-.731 1.1-.731 1.006 0 1.183.128 2.098 1.517 1.398 2.12 2.963 2.9 5.488 2.736 2.924-.19 5.21-1.676 6.538-4.253.825-1.6.916-5.772.172-7.877-1.175-3.325-3.362-5.103-6.29-5.116-1.805-.008-4.07 1.048-5.336 2.486-.633.719-1.045.96-1.434.836-1.142-.362-1.181-.696-.726-6.238.241-2.928.5-5.616.578-5.973l.139-.65h13.344l-.09 1.083-.09 1.083-5.502.145-5.501.144-.084 2.672c-.093 2.988-.074 3.01 1.855 2.206 1.765-.735 5.423-.446 7.154.566 4.807 2.81 6.617 8.767 4.52 14.872-1.036 3.014-3.55 5.7-5.997 6.404-1.569.452-4.673.6-5.933.283z" fill="#6b6b6b"/><path d="M0 157.44V0h217.76v314.88H0V157.44zm213.2 155.91c1.776-1.22 2.856-2.598 3.527-4.498.4-1.133.446-16.895.446-151.25 0-136.41-.042-150.11-.461-151.33-.615-1.8-2.787-4.163-4.6-5.006l-1.454-.675-101.94-.003L6.778.585l-1.504.748c-1.67.83-3.32 2.547-4.14 4.307C.612 6.762.596 11.23.596 157.59c0 146 .017 150.83.535 151.97 1.022 2.245 3.298 4.272 5.347 4.763.5.12 46.858.197 103.02.173l102.11-.044 1.6-1.098zm-23.536-22.445v-1.155h5.299c3.735 0 5.402-.103 5.646-.347.419-.417.479-4.738.07-4.99-.152-.094-.94.045-1.75.309-2.193.716-5.235.454-7.215-.621-3.23-1.754-4.928-4.758-5.167-9.142-.353-6.465 2.771-11.303 8-12.386 3.078-.637 6.62.186 8.546 1.987.945.883 2.2 3.343 2.205 4.318 0 .578-.141.65-1.3.65-.717 0-1.303-.108-1.303-.24 0-.131-.398-.838-.884-1.57-2.552-3.844-8.898-3.237-11.442 1.094-2.544 4.33-.845 11.343 3.192 13.173 2.396 1.085 4.983.538 7.259-1.537.836-.763 1.64-1.387 1.788-1.387.146 0 .526.241.842.535.57.53.571.59.074 5.85-.276 2.923-.51 5.607-.521 5.964l-.02.65h-13.32v-1.155zm-147.6-14.295c-4.505-1.261-7.216-4.19-8.36-9.029-.67-2.842-.409-7.265.62-10.472 1.725-5.376 3.655-8.741 10.802-18.835 2.534-3.579 5.871-8.345 7.416-10.592 1.545-2.246 2.849-4.085 2.898-4.085.048 0 .782 1.2 1.63 2.667 1.867 3.225 5.09 8.093 10.912 16.48 6.035 8.693 8.149 13.005 9.077 18.513 1.016 6.033-2.024 12.576-6.903 14.857-1.466.686-2.024.781-4.566.781-2.62 0-3.022-.074-4.215-.774-2.618-1.535-4.613-4.296-5.228-7.233-.175-.839-.43-1.644-.566-1.788-.384-.409-1.058.318-1.256 1.356-.275 1.434-1.5 3.86-2.662 5.277-2.122 2.583-6.24 3.818-9.6 2.877zm104.78-.011c-3.232-.903-5.912-2.98-7.277-5.644-1.8-3.51-1.938-9.66-.323-14.394 1.757-5.148 4.173-9.29 10.882-18.657a670.158 670.158 0 0 0 6.662-9.496c1.697-2.478 3.188-4.569 3.313-4.646.125-.077.853.982 1.62 2.354 1.302 2.334 6.199 9.706 12.91 19.436 4.33 6.28 6.33 10.695 7.237 15.977.958 5.58-2.216 12.264-6.912 14.556-1.264.617-2.132.807-4.13.902-2.226.106-2.714.036-4.077-.59-2.885-1.326-5.197-4.358-5.897-7.735-.25-1.201-.454-1.588-.84-1.588-.38 0-.68.525-1.157 2.022-1.888 5.922-6.765 8.969-12.01 7.504zm42.362-19.481c-1.417-.933-1.954-2.462-1.797-5.125.109-1.846.318-2.617 1.157-4.275 1.2-2.369 7.429-12.682 7.713-12.772.325-.103 7.38 12.081 7.98 13.783.783 2.215.787 5.324.01 6.651-1.402 2.396-4.417 3.089-6.291 1.447-.539-.472-1.102-1.284-1.252-1.806-.368-1.28-.976-1.194-1.462.208-.63 1.821-1.258 2.268-3.343 2.381-1.455.08-1.994-.019-2.714-.492zm-82.951-74.758c-3.143-4.63-5.413-7.884-9.138-13.1-5.832-8.163-8.195-12.235-9.901-17.061-3.113-8.803-.895-16.945 5.4-19.823 1.917-.877 5.688-1.216 7.367-.664 2.943.97 5.367 3.628 6.592 7.23.81 2.383 1.57 3.01 1.879 1.55.79-3.751 2.177-6.09 4.555-7.684 2.113-1.417 3.39-1.757 5.887-1.569 3.576.27 6.323 1.912 8.384 5.01 3.486 5.238 3.23 11.878-.763 19.81-1.173 2.33-3.07 5.286-7.007 10.92-5.473 7.83-11.207 16.73-11.207 17.395 0 .666-.69-.013-2.048-2.013zm-52.51-93.63c-1.551-2.301-4.858-7.03-10.756-15.383-6.899-9.77-9.352-15.23-9.67-21.521-.375-7.382 2.795-12.339 8.878-13.888 2.39-.609 4.239-.4 6.56.74 2.631 1.292 4.397 3.659 5.465 7.323.656 2.253 1.25 2.131 1.879-.386.258-1.032.701-2.315.985-2.85.766-1.44 2.718-3.442 4.215-4.32 1.205-.706 1.584-.774 4.36-.774 2.782 0 3.173.07 4.607.823 4.383 2.302 7.357 8.098 6.885 13.42-.45 5.09-2.771 10.444-7.538 17.389-7.043 10.265-11.172 16.478-12.622 18.994-.846 1.47-1.584 2.672-1.639 2.672-.055 0-.78-1.007-1.61-2.239zm105.67 1.32c-.388-.527-2.317-3.299-4.287-6.159-1.97-2.86-4.71-6.76-6.09-8.666-5.459-7.542-8.196-12.319-9.868-17.22-1.174-3.441-1.485-8.488-.71-11.508 1.18-4.593 3.996-7.39 8.632-8.575 5.174-1.323 9.818 1.677 11.688 7.55.704 2.21 1.422 2.79 1.724 1.39.943-4.365 2.958-7.202 6.171-8.687 1.368-.632 1.841-.7 4.054-.59 2.992.15 4.62.79 6.57 2.582 3.558 3.273 5.207 8.012 4.472 12.851-.78 5.13-2.844 9.637-7.546 16.472-6.537 9.503-11.256 16.594-12.31 18.498-1.812 3.278-1.684 3.173-2.5 2.063zM15.545 75.18c-2.168-3.627-4.168-7.18-4.445-7.895-.718-1.856-.703-5.133.028-6.383.798-1.362 2.214-2.108 3.953-2.082 1.798.027 2.812.739 3.395 2.384.24.674.556 1.245.705 1.27.149.024.605-.597 1.013-1.38 1.266-2.427 3.412-3.022 5.761-1.597 2.51 1.523 2.9 5.503.95 9.666-.717 1.527-6.052 10.682-7.044 12.084-.334.473-.793-.171-4.316-6.067zm.828-21.48c-3.292-.828-6.004-3.626-6.004-6.194 0-.654.116-.731 1.1-.731 1.006 0 1.183.128 2.098 1.517 1.398 2.12 2.963 2.9 5.488 2.736 2.924-.19 5.21-1.676 6.538-4.253.825-1.6.916-5.772.172-7.877-1.175-3.325-3.362-5.103-6.29-5.116-1.805-.008-4.07 1.048-5.336 2.486-.633.719-1.045.96-1.434.836-1.142-.362-1.181-.696-.726-6.238.241-2.928.5-5.616.578-5.973l.139-.65H26.04l-.09 1.083-.09 1.083-5.502.145-5.501.144-.084 2.672c-.093 2.988-.074 3.01 1.855 2.206 1.765-.735 5.423-.446 7.154.566 4.807 2.81 6.617 8.767 4.52 14.872-1.036 3.014-3.55 5.7-5.997 6.404-1.569.452-4.673.6-5.933.283z" fill="#d22d2f"/><path d="M0 157.44V0h217.76v314.88H0V157.44zm213.2 155.91c1.776-1.22 2.856-2.598 3.527-4.498.4-1.133.446-16.895.446-151.25 0-136.41-.042-150.11-.461-151.33-.615-1.8-2.787-4.163-4.6-5.006l-1.454-.675-101.94-.003L6.778.585l-1.504.748c-1.67.83-3.32 2.547-4.14 4.307C.612 6.762.596 11.23.596 157.59c0 146 .017 150.83.535 151.97 1.022 2.245 3.298 4.272 5.347 4.763.5.12 46.858.197 103.02.173l102.11-.044 1.6-1.098zm-23.234-21.709c-.192-.23-.304-.653-.25-.939.092-.471.598-.532 5.503-.664 2.971-.08 5.51-.252 5.643-.384.132-.132.24-1.432.24-2.889 0-3.055.132-2.971-3.214-2.06-2.212.603-4.225.26-6.508-1.107-3.076-1.842-4.659-4.995-4.67-9.303-.01-4.194 1.518-7.938 4.012-9.836 1.376-1.047 4.092-1.864 6.197-1.864 1.967 0 4.493.845 5.795 1.938 1.044.876 2.298 3.221 2.298 4.297 0 .653-.096.74-.652.591-.358-.096-.802-.176-.986-.178-.184 0-.68-.592-1.102-1.31-.422-.719-1.302-1.66-1.955-2.09-1.033-.683-1.474-.784-3.386-.78-1.753 0-2.485.15-3.612.716-2.907 1.463-4.33 4.152-4.278 8.091.087 6.698 5.074 10.678 10.146 8.097.617-.314 1.558-1.032 2.09-1.594 1.094-1.158 1.423-1.239 2.082-.512.425.469.421.966-.051 6.015-.283 3.028-.61 5.658-.726 5.845-.15.243-1.929.34-6.238.34-4.917 0-6.093-.077-6.378-.42zM63.406 276.66c-3.522-.987-6.544-4.478-7.104-8.204-.344-2.289-1.565-2.416-2.12-.22-.834 3.307-3.141 6.424-5.652 7.636-3.498 1.69-8.387.686-11.413-2.343-2.656-2.658-3.705-6.058-3.444-11.165.194-3.804 1.236-7.18 3.58-11.6 1.773-3.346 3.592-6.104 9.549-14.48 2.212-3.112 5-7.105 6.194-8.873 1.195-1.769 2.255-3.22 2.356-3.226.101-.006.742.932 1.424 2.084 2.063 3.483 4.724 7.511 9.972 15.094 5.395 7.797 6.768 10.054 8.197 13.482 1.834 4.398 2.438 8.373 1.796 11.827-.408 2.192-2.096 5.465-3.633 7.043-2.446 2.51-6.674 3.794-9.702 2.945zm104.69-.025c-1.893-.597-2.84-1.2-4.25-2.703-1.631-1.74-2.142-2.694-2.684-5.009-.689-2.946-1.54-3.078-2.332-.361-.995 3.414-2.883 5.912-5.49 7.264-1.236.64-1.84.758-3.956.768-2.353.011-2.628-.055-4.765-1.144-3.695-1.882-5.516-4.676-6.248-9.588-.602-4.038.476-8.767 3.264-14.314 1.876-3.731 3.455-6.198 8.373-13.073a633.566 633.566 0 0 0 6.923-9.894c1.649-2.423 3.097-4.406 3.219-4.406.121 0 .745.954 1.386 2.12 1.142 2.075 5.27 8.292 12.213 18.39 3.884 5.65 5.966 9.573 7.128 13.434 1.865 6.193.614 12.143-3.326 15.819-1.754 1.637-3.195 2.382-5.39 2.787-2.096.387-2.592.376-4.065-.089zm22.018-19.384c-1.305-.463-1.984-1.23-2.443-2.761-.918-3.056-.115-5.045 6.27-15.534 2.273-3.736 2.356-3.83 2.751-3.178 4.007 6.617 6.519 11.023 7.094 12.445 1.85 4.569.816 8.272-2.562 9.18-.848.228-1.34.202-2.086-.109-1.09-.454-2.23-1.734-2.23-2.502 0-.277-.196-.665-.435-.863-.6-.497-1.12-.015-1.558 1.442-.56 1.864-2.597 2.662-4.801 1.88zm-85.142-77.191a656.35 656.35 0 0 0-6.831-9.763c-6.192-8.67-7.96-11.535-9.893-16.03-1.468-3.414-1.98-5.48-2.153-8.666-.177-3.287.35-5.904 1.697-8.425 1.575-2.948 4.295-4.811 8.038-5.506 4.667-.866 9.105 2.407 10.755 7.93.514 1.722.678 1.98 1.21 1.902.495-.072.707-.457 1.084-1.968.258-1.032.744-2.404 1.081-3.048.886-1.694 2.887-3.578 4.668-4.397 1.365-.627 1.845-.696 4.054-.584 3.671.185 6.272 1.682 8.35 4.806 2.824 4.244 3.246 8.747 1.372 14.634-1.458 4.582-2.609 6.51-12.284 20.576-3.56 5.176-6.073 9.063-6.945 10.742-1.226 2.361-1.022 2.468-4.203-2.203zM53.093 87.31c-1.141-1.702-3.93-5.695-6.196-8.873-6.396-8.965-8.27-11.855-10.135-15.62-5.908-11.936-3.44-22.51 5.759-24.672 5.271-1.239 10.138 2.183 11.656 8.197.566 2.242 1.78 2.099 2.133-.252.284-1.887 1.735-4.55 3.23-5.924 1.989-1.829 3.578-2.435 6.278-2.395 4.164.063 7.513 2.315 9.584 6.444 1.33 2.653 1.742 4.747 1.531 7.79-.35 5.065-2.694 10.347-8.01 18.056-6.021 8.731-10.029 14.737-11.709 17.549-.926 1.549-1.765 2.812-1.865 2.806-.1-.006-1.115-1.403-2.256-3.105zm104.3-.63a595.633 595.633 0 0 0-5.696-8.161c-8.224-11.554-11.384-17.025-12.728-22.036-.819-3.056-.887-7.653-.15-10.111 1.148-3.825 2.861-5.881 6.225-7.471 1.686-.797 2.216-.906 4.38-.903 2.095.003 2.677.118 3.92.769 2.614 1.37 4.496 3.862 5.49 7.271.75 2.577 1.728 2.576 2.208-.003.6-3.225 2.87-6.213 5.755-7.575 2.166-1.022 5.338-.992 7.67.073 3.006 1.373 5.442 4.277 6.697 7.983.826 2.442.702 6.638-.295 9.966-1.474 4.918-3.73 8.764-12.372 21.088-2.42 3.45-6.655 10.064-7.487 11.692-.328.64-.7 1.163-.83 1.163-.129 0-1.383-1.686-2.787-3.746zm-141.69-11.7c-4.894-8.202-5.674-10.532-4.505-13.448 1.228-3.062 5.816-3.5 6.934-.662.95 2.413 1.474 2.58 2.171.697.775-2.092 2.415-2.939 4.571-2.36 2.385.64 3.536 3.133 2.979 6.45-.374 2.227-1.241 4.078-4.223 9.017a270.369 270.369 0 0 0-3.03 5.128c-.514.913-.958 1.657-.986 1.653-.028-.004-1.788-2.918-3.911-6.476zm-.058-21.676c-2.427-.777-4.733-3.34-4.968-5.52-.081-.752.004-.85.802-.928.795-.078 1 .08 1.882 1.436 1.21 1.862 2.444 2.727 4.25 2.974 1.461.2 3.672-.176 4.971-.846.958-.494 2.696-2.374 3.4-3.677.401-.741.519-1.637.524-3.99.006-2.742-.074-3.206-.831-4.841-2.256-4.873-7.114-5.827-11.166-2.193-1.233 1.106-1.523 1.245-2.029.975-.325-.174-.59-.581-.59-.906 0-1.98.974-10.862 1.225-11.166.23-.28 1.75-.349 6.415-.29l6.113.078.091.94.09.938H20.46c-6.295 0-5.965-.191-5.965 3.457 0 2.729.242 2.98 2.078 2.153 1.63-.733 4.601-.684 6.39.105 3.452 1.523 5.675 4.942 5.936 9.13.342 5.476-1.96 10.029-5.97 11.815-1.725.768-5.434.949-7.284.356z" fill="#cd0504"/><path d="M0 157.44V0h217.76v314.88H0V157.44zm213.2 155.91c1.776-1.22 2.856-2.598 3.527-4.498.4-1.133.446-16.895.446-151.25 0-136.41-.042-150.11-.461-151.33-.615-1.8-2.787-4.163-4.6-5.006l-1.454-.675-101.94-.003L6.778.585l-1.504.748c-1.67.83-3.32 2.547-4.14 4.307C.612 6.762.596 11.23.596 157.59c0 146 .017 150.83.535 151.97 1.022 2.245 3.298 4.272 5.347 4.763.5.12 46.858.197 103.02.173l102.11-.044 1.6-1.098zm-23.136-21.998c-.357-.929.196-1.05 4.62-1.014 2.415.02 4.652-.05 4.97-.156 1.778-.586 1.882-.686 1.886-1.799.01-1.612.27-2.317.929-2.49.547-.142.576-.058.407 1.17-.1.727-.181 1.95-.181 2.718 0 1.101-.09 1.36-.421 1.234-.232-.09-.717.045-1.078.297-.933.652-10.883.688-11.132.04zm11.355-6.614c-.099-.525-.356-1.195-.572-1.49-.376-.513-.42-.506-1.108.18-.887.885-2.676 1.442-4.167 1.298-1.1-.106-3.433-1.132-3.754-1.65-.088-.143-.464-.26-.834-.26-.565 0-1.704-1.128-1.75-1.733-.044-.59-.868-2.022-1.164-2.022-.563 0-.76-1.017-.88-4.567-.094-2.76-.02-3.51.479-4.838.362-.966.76-1.572 1.034-1.572.266 0 .38-.166.286-.413-.087-.226.043-.578.288-.782.246-.204.561-.668.7-1.032.282-.741.628-.838 1.075-.301.425.511-.354 2.25-1.095 2.443-.436.114-.582.393-.582 1.112 0 .529-.13 1.041-.29 1.14-.159.097-.29 1.372-.29 2.833 0 3.172.71 6.45 1.49 6.866.296.158.538.512.538.788 0 .473 1.26 1.263 3.27 2.05 1.529.598 3.862.396 5.137-.446 1.08-.713 1.191-.732 1.682-.289.787.71 1.056.58 1.08-.523.013-.616-.097-.938-.29-.844-.17.083-.053-.057.263-.312.643-.52 1.469-.483 1.425.063-.016.196-.048 1.405-.072 2.685-.027 1.436-.153 2.261-.327 2.153-.156-.096-.533-.042-.838.121-.483.258-.577.174-.734-.658zm-5.963-.766a.29.29 0 0 0-.58 0 .29.29 0 0 0 .58 0zm-132.26-7.613c-.602-.197-.894-.452-.8-.697.082-.212.029-.313-.117-.222a.324.324 0 0 1-.44-.117c-.096-.155-.349-.214-.561-.133-.496.19-2.916-2.217-3.533-3.514-.26-.547-.405-1.254-.321-1.571.097-.373.008-.577-.253-.577-.25 0-.477-.458-.596-1.2-.106-.66-.429-1.435-.718-1.723-.466-.465-.628-.48-1.443-.139-1.13.474-1.65 1.258-1 1.507.248.095.45.355.45.579 0 .403-.565 1.566-.896 1.843-.095.079-.255.483-.357.897-.27 1.103-2.47 3.257-4.273 4.184-1.376.708-1.867.802-4.021.774-1.469-.02-2.496-.158-2.558-.344-.057-.171-.293-.312-.523-.312-.231 0-.493-.191-.583-.425-.09-.234-.597-.507-1.127-.606-.945-.177-3.843-2.592-3.509-2.925.088-.088-.14-.566-.506-1.062-1.146-1.557-1.432-2.647-1.253-4.78.107-1.265.052-2.084-.154-2.289-.233-.232-.227-.52.02-1.062.187-.41.34-1.055.34-1.435 0-.38.134-.774.297-.875.18-.111.223-.737.108-1.597-.148-1.115-.058-1.69.428-2.72.338-.718.615-1.437.615-1.597 0-.16.103-.292.23-.292.126 0 .38-.565.565-1.256.186-.69.734-1.679 1.219-2.197.485-.518.881-1.188.881-1.489 0-.39.207-.547.718-.547.65 0 .688-.065.406-.682-.268-.588-.158-.898.8-2.239.61-.856 1.209-1.6 1.33-1.653.122-.053.222-.248.222-.433 0-.186.39-.792.868-1.348.477-.556.868-1.174.868-1.372 0-.199.13-.378.29-.398.16-.02.444-.052.633-.072.19-.02.455-.463.59-.984.261-1.005.665-1.59 2.18-3.154.517-.535.94-1.077.94-1.205 0-.128.33-.383.73-.565.565-.257.693-.482.566-.988-.105-.416.027-.867.36-1.231.288-.316.664-.897.836-1.29.206-.473.548-.719 1.005-.723.465-.004.723-.196.786-.584.052-.318.363-1.26.69-2.095.572-1.453 1.181-1.923 1.499-1.155.082.198.077-.062-.012-.578-.208-1.208.234-1.201.946.014 1.11 1.896 1.746 2.906 3.467 5.504 2.047 3.09 2.222 3.474 1.788 3.907-.24.24-.197.325.167.325.3 0 .492.226.492.577 0 .333.193.578.455.578.573 0 1.283.691 1.283 1.248 0 .233.19.496.421.585.232.088.681.67 1 1.292.318.622.9 1.514 1.295 1.981.43.51.754 1.305.81 1.989.082 1 .19 1.15.889 1.23.846.096 1.406.785 3.65 4.486.66 1.088 1.13 2.09 1.046 2.226-.084.136.307.886.87 1.667.562.78 1.022 1.624 1.022 1.874s.142.542.317.65c.174.107.25.537.169.955-.082.418.013.956.21 1.194.607.733 1.075 2.665 1.048 4.333-.013.874-.02 2.36-.015 3.302.011 1.824-.478 3.342-1.076 3.342-.2 0-.364.3-.364.667 0 .367-.19.92-.425 1.228-.233.308-.429.78-.434 1.046-.012.606-1.555 1.736-2.09 1.531-.219-.083-.654.044-.968.283-.495.376-.513.474-.136.734s.361.355-.12.721c-.32.244-.838.35-1.228.253-.464-.116-.73-.024-.852.295-.099.255-.418.464-.71.464s-.611.13-.71.289c-.228.369-2.894.303-4.133-.102zm4.278-.476a.29.29 0 0 0-.58 0 .29.29 0 0 0 .58 0zm-22.93-1.083c-.052-.278-.388-.547-.744-.598-.713-.101-.84.219-.301.757.518.517 1.157.42 1.046-.159zm3.086-.953c-.223-.36-.922-.352-1.149.014-.33.533.142.888.75.564.313-.167.493-.428.4-.579zm2.47-.852c0-.16-.26-.29-.579-.29-.318 0-.579.13-.579.29 0 .158.261.288.58.288.318 0 .579-.13.579-.288zm9.267-2.347c0-.32-.32-.317-.834.01-.22.139-.305.403-.191.588.157.254.306.253.616 0 .225-.187.409-.453.409-.592zm-6.37-1.281c0-.248-.133-.37-.295-.27-.162.1-.22.303-.128.451.248.4.422.326.422-.181zm2.316-4.461a.29.29 0 0 0-.58 0 .29.29 0 0 0 .58 0zm-1.995-1.239c-.392-.39-.9.018-.9.723 0 .59.015.592.585.076.364-.329.483-.631.315-.8zm-8.434-19.054c-.002-.199-.116-.537-.253-.753-.318-.5-.737.08-.501.695.197.513.76.557.754.058zm21.577-1.372c.098-.16-.032-.29-.29-.29-.257 0-.387.13-.289.29.098.159.229.289.29.289.06 0 .19-.13.29-.29zm101.26 33.047c-.525-.229-.88-.534-.791-.679.09-.144.03-.344-.132-.444-.162-.1-.294-.04-.294.135 0 .724-2.515-1.364-3.644-3.027-.608-.894-1.793-4.359-1.927-5.633-.148-1.404-2.247-.297-2.247 1.185 0 1.468-2.95 6.615-3.79 6.615-.146 0-.538.273-.872.606-.62.62-.593.619-3.27.066-.787-.162-.826-.126-.646.589.178.706.123.76-.765.76-1.308 0-4.081-.743-4.21-1.13-.058-.172-.289-.314-.513-.314-.544 0-1.86-1.16-1.86-1.64 0-.21-.182-.382-.405-.382-.517 0-2.201-1.902-2.201-2.486 0-.244-.196-.639-.434-.877-.239-.238-.503-.781-.586-1.207-.084-.426-.272-1.36-.419-2.074-.42-2.052-.01-7.298.602-7.675.142-.087.258-.5.258-.916 0-1.13.638-2.675 1.105-2.675.286 0 .366-.229.265-.756a1.376 1.376 0 0 1 .4-1.3c.3-.3.546-.796.546-1.105 0-.822.603-1.055 1.09-.422.387.503.407.458.233-.53-.198-1.126.077-1.905 1.033-2.929.297-.318.54-.674.54-.792 0-.117.207-.42.46-.673.254-.253.5-.685.546-.96.046-.275.23-.467.407-.427.18.04.324-.296.324-.76 0-.979.59-1.567 1.3-1.296.432.166.46.109.189-.396-.268-.498-.15-.783.762-1.849.594-.693 1.327-1.715 1.63-2.271.591-1.088 2.482-3.55 2.846-3.707.122-.053.224-.248.225-.434 0-.442 2.461-3.701 3.03-4.019.243-.135.442-.545.442-.91 0-.364.26-.898.58-1.185.318-.288.579-.677.579-.865 0-.189.325-.49.723-.672.406-.184.724-.572.724-.882 0-.304.176-.62.39-.702.536-.205 2.506 2.766 2.506 3.778 0 .547.203.883.651 1.08.359.157.692.564.74.905.05.34.342.848.652 1.128.31.28.563.683.563.897 0 .213.12.388.269.388.365 0 3.08 4.086 3.303 4.97.165.657.916 1.565 2.059 2.49.26.212.548.76.64 1.22.093.46.4.909.682.998.282.09.595.386.696.659.399 1.079 1.095 2.095 1.632 2.381.31.166.564.45.564.63s.18.533.402.784c.221.251.752 1.131 1.18 1.956.427.825.914 1.545 1.082 1.6.478.16.355 1.63-.185 2.225-.368.406-.402.594-.137.757.202.125.501.014.702-.26.434-.592 1.01-.622 1.01-.053 0 .233.26.887.579 1.453.318.566.58 1.48.58 2.031 0 .551.105 1.002.234 1.002.361 0 .925 2.56.953 4.333.053 3.3.016 3.826-.292 4.133-.174.174-.317.733-.317 1.243 0 .637-.283 1.23-.906 1.903-.499.537-1.12 1.556-1.383 2.265-.343.931-.656 1.315-1.123 1.382-.357.051-.836.456-1.068.902-.412.796-1.643 1.435-1.518.788.034-.179-.222-.368-.57-.421-.426-.065-.748.12-.988.57-.196.368-.563.827-.816 1.02-.622.477-3.422.42-4.599-.093zm2.257-.572c0-.252-.154-.406-.343-.343-.537.178-.626.8-.115.8a.46.46 0 0 0 .458-.457zm-22.296-.41c0-.158-.228-.286-.506-.284-.433 0-.444.045-.072.285.546.352.579.352.579 0zm28.956-4.639c0-.15-.13-.271-.29-.271-.158 0-.289.202-.289.45s.13.37.29.272c.16-.098.29-.301.29-.45zm1.738-1.896c0-.466-.75-.535-1.022-.095-.103.167-.11.507-.014.755.14.365.256.384.605.095.237-.196.43-.536.43-.755zm-35.833-11.224c-.077-.4-.255-.729-.396-.729-.292 0-.35 1.254-.07 1.533.353.353.604-.079.465-.804zm1.086-2.317c0-.398-.13-.723-.29-.723-.159 0-.29.325-.29.723 0 .397.131.722.29.722.16 0 .29-.325.29-.722zm3.423-6.115c-.14-.725-.817-.824-.817-.12 0 .354.187.601.455.601.27 0 .418-.196.362-.481zm1.053-1.232c.092-.148.034-.35-.128-.45-.162-.1-.294.02-.294.269 0 .507.173.582.422.181zm3.185-8.955c.092-.148.034-.35-.128-.45-.162-.1-.294.02-.294.268 0 .508.174.583.422.182zm16.083-.436c0-.23-.121-.491-.27-.583-.344-.212-.69.329-.454.71.266.43.724.35.724-.127zm5.936 37.392c.099-.16.374-.29.613-.29.24 0 .354.13.256.29-.098.159-.375.289-.614.289s-.353-.13-.255-.29zm30.838-7.078c0-.238.13-.433.29-.433.159 0 .289.195.289.433 0 .239-.13.434-.29.434-.159 0-.29-.195-.29-.434zm-1.636-1.164c-.098-.254-.025-.795.16-1.202.418-.915.265-1.103-.546-.67-.496.265-.767.239-1.328-.127-.387-.254-.704-.588-.704-.743 0-.166-1.254-.282-3.04-.282-1.834 0-3.04.114-3.04.288 0 .492-1.946.34-2.142-.168-.254-.66-.233-.698.387-.698.309 0 .642-.13.74-.29.099-.158.49-.288.87-.288.379 0 .77-.13.868-.289.098-.159.497-.289.886-.289s.707.13.707.29c0 .392.755.363 1.426-.054.706-.44 2.917.157 2.917.788 0 .255.281.421.712.421.78 0 1.957 1.082 2.674 2.456.249.476.348.768.221.649-.127-.12-.537-.018-.91.226-.615.402-.697.4-.858-.017zm-12.335-10.727c.663-.267.38-.742-.335-.563-.597.15-.81-.017-1.475-1.15-.717-1.22-.762-1.48-.574-3.341.131-1.307.345-2.073.606-2.173.221-.085.403-.465.403-.845 0-.438.167-.691.458-.691.252 0 .4-.163.327-.362-.072-.198.405-1.39 1.061-2.65.891-1.707 1.218-2.127 1.287-1.656.051.348.21.56.352.472.143-.088.188-.52.1-.958-.125-.623.036-1.01.733-1.753.491-.525.893-1.175.893-1.444 0-.683.575-1.182 1.361-1.182.484 0 .666-.167.666-.61 0-.399-.137-.555-.4-.454-.329.125-.344 0-.082-.692.34-.898.772-1.13.772-.413 0 .237.26.593.58.791.341.213.578.674.578 1.125 0 .497.185.811.532.902.294.076 1.087 1.155 1.777 2.416.685 1.254 1.489 2.624 1.785 3.046.297.421.54.963.54 1.203 0 .24.113.48.252.533.625.239 1.86 3.356 1.995 5.04.156 1.943-.554 4.445-1.262 4.445-.211 0-.622.255-.912.566-.57.61-1.92.647-3.27.088-.95-.393-1.348-.888-1.828-2.273-.298-.86-.545-1.125-1.042-1.125-.517 0-.74.27-1.077 1.3-.619 1.892-1.603 2.602-3.57 2.575-.876-.012-1.43-.087-1.231-.167zm13.392-2.247c0-.07-.13-.207-.29-.306-.159-.098-.29-.04-.29.128s.131.306.29.306c.16 0 .29-.057.29-.128zm-96.496-72.117c-.279-.488-.507-1.18-.507-1.538 0-.844-.284-1.11-.762-.715-.293.242-.466.13-.747-.486-.29-.634-.292-.825-.007-.92.197-.065.358-.453.358-.861v-.743l-.536.617c-.632.727-.97.53-.73-.427.138-.548.056-.679-.426-.679-.557 0-2.362-2.157-2.362-2.824 0-.145-.26-.5-.579-.787-.318-.287-.579-.691-.579-.897 0-.206-.175-.478-.389-.605-.473-.28-2.217-2.669-2.217-3.036 0-.144.163-.167.362-.051.2.116.117-.068-.183-.41-.3-.34-.64-.562-.755-.491-.115.07-.147-.192-.072-.585.11-.572.018-.713-.462-.713-.717 0-2.42-2.052-1.857-2.24.508-.168.449-.795-.12-1.264-.376-.309-.509-.316-.604-.035-.225.667-.597.37-1.263-1.011-.364-.755-.844-1.556-1.066-1.78-.514-.52-2.377-4.324-2.377-4.852 0-.219-.23-.643-.51-.944-.281-.3-.68-1.172-.888-1.938-.208-.765-.508-1.63-.666-1.921-.158-.291-.203-.918-.098-1.392.13-.59.048-1.017-.258-1.355-.36-.396-.425-1.063-.332-3.375.14-3.467.375-4.754.906-4.957.219-.084.398-.448.398-.808 0-.361.195-.818.434-1.016.24-.198.435-.591.435-.874 0-.309.339-.632.85-.81.5-.173 1.052-.69 1.34-1.255.269-.529.524-1.001.567-1.05.043-.05 1.101-.472 2.352-.939 2.668-.994 4.308-1.069 5.962-.272.66.318 1.308.578 1.44.578.133 0 .964.743 1.846 1.652 1.122 1.155 1.56 1.815 1.46 2.198-.097.367.034.594.398.688.58.152 1.737 2.309 1.737 3.238 0 .775.817 1.516 1.557 1.411.447-.064.638-.324.7-.954.107-1.11.635-2.455.964-2.455.14 0 .254-.178.254-.395 0-.217.27-.735.598-1.153.329-.417.531-.866.45-.998-.082-.132.112-.668.43-1.19.504-.827.694-.93 1.445-.78.633.126.91.05 1.04-.285a.616.616 0 0 0-.229-.713c-.271-.171.001-.257.827-.26 1.036-.003 1.23-.095 1.23-.582 0-.53.193-.577 2.312-.577 2.424 0 3.647.439 6.423 2.307 1.187.798 3.13 3.585 3.73 5.348.217.635.498 1.279.625 1.43.339.403.285 7.024-.06 7.236-.159.098-.29.577-.29 1.064 0 .742-.067.828-.42.535-.233-.192-.553-.268-.712-.17-.313.193-.091 1.058.347 1.352.162.108.12.597-.106 1.218-.264.73-.475.955-.71.76-.183-.152-.42-.19-.524-.086-.299.297-.223 1.249.099 1.249.16 0 .29.195.29.433 0 .239-.113.434-.251.434s-.527.661-.864 1.47c-.636 1.527-2.501 4.308-3.88 5.785-.438.47-.797 1.109-.797 1.42 0 .313-.108.569-.24.569-.133 0-.424.357-.648.794-.224.437-.767 1.106-1.207 1.486-.44.381-.8.933-.8 1.228 0 .295-.13.536-.29.536-.16 0-.29.15-.29.335 0 .248-2.863 4.704-3.665 5.706-.052.065-.334-.098-.626-.362-.654-.59-.92-.607-.92-.062 0 .229.271.607.604.839.574.401.578.43.064.593-.298.094-.702.53-.9.967-.782 1.733-1.784 3.365-2.213 3.604-.248.14-.451.5-.451.802 0 .302-.165.653-.366.78-.201.127-.494.61-.651 1.074-.391 1.152-.773 1.192-1.372.142zm1.046-1.852c-.174-.453-.974-.61-.974-.193 0 .353.333.626.763.626.217 0 .306-.185.21-.433zm-6.765-9.822c0-.238-.116-.433-.258-.433-.143 0-.334.195-.426.433-.101.264 0 .434.259.434a.43.43 0 0 0 .425-.434zm15.057-2.166a.29.29 0 0 0-.579 0 .29.29 0 0 0 .58 0zm-16.215-.994c0-.07-.13-.208-.29-.306-.159-.099-.289-.041-.289.127s.13.306.29.306c.159 0 .29-.057.29-.127zm22.826-9.219c.074-.381-.045-.5-.427-.427a.861.861 0 0 0-.632.63c-.074.382.045.5.427.427a.861.861 0 0 0 .632-.63zm-32.38-1.631c0-.16-.139-.29-.307-.29-.17 0-.227.13-.128.29.098.159.236.289.307.289.07 0 .127-.13.127-.29zm1.215-1.503c-.27-.27-.347-.192-.347.347 0 .54.077.616.347.347.27-.27.27-.424 0-.694zm19.343-12.508c0-.238-.121-.433-.27-.433-.149 0-.311-.347-.362-.772-.111-.94-.815-1.276-.815-.39 0 .631.836 2.003 1.23 2.02.12.005.217-.186.217-.425zm16.866-2.886c-.143-.746-.561-1.198-.846-.914-.211.21.558 1.912.798 1.764.104-.064.126-.446.048-.85zM91.51 138.38c0-.159-.195-.289-.434-.289s-.434.13-.434.289c0 .159.195.289.434.289s.434-.13.434-.289zm12.11-.193c-.14-.724-.817-.824-.817-.12 0 .355.187.602.455.602.27 0 .418-.197.362-.482zm22.111-1.892c-.207-.207-.342-.224-.342-.043 0 .164.087.385.193.491.106.106.26.125.342.043.083-.082-.005-.303-.193-.49zm-23.218.063c0-.159-.057-.289-.127-.289s-.209.13-.307.289c-.098.159-.04.289.128.289s.306-.13.306-.29zm-2.895-2.439c0-.07-.13-.207-.29-.305-.159-.099-.29-.041-.29.127s.131.306.29.306c.16 0 .29-.057.29-.128zM53.763 87.685c-.58-.87-1.055-1.671-1.055-1.778 0-.106-.325-.62-.724-1.14-.398-.521-.728-1.053-.733-1.183-.005-.13-.46-.685-1.013-1.233-.553-.549-1.004-1.231-1.004-1.517 0-.286-.115-.52-.255-.52s-.414-.385-.61-.856c-.196-.472-.589-.931-.873-1.021-.464-.147-.763-.676-1.267-2.239-.09-.278-.362-.505-.606-.505-.25 0-.443-.252-.443-.578 0-.318-.103-.578-.229-.578s-.223-.347-.217-.772c.009-.617-.163-.82-.857-1.008-.623-.169-1.21-.747-2.072-2.044-.737-1.109-1.085-1.882-.899-1.997.483-.298.008-1.112-.649-1.112-.328 0-.68-.227-.78-.506-.1-.278-.438-.873-.75-1.322-.728-1.046-2.232-4.138-2.24-4.604-.005-.196-.262-.682-.573-1.079-.312-.397-.57-.93-.573-1.183-.004-.254-.23-.904-.502-1.445-.352-.697-.5-1.717-.507-3.51-.006-1.39-.08-2.527-.166-2.527-.448-.002-.205-1.988.405-3.318.45-.979.608-1.663.446-1.919-.523-.824-.304-1.336.506-1.182.753.144.764.124.576-1.052-.18-1.12-.12-1.266.897-2.21.6-.555 1.296-1.205 1.548-1.442.252-.238.635-.433.85-.433.215 0 .66-.241.99-.537.598-.537 3.281-1.196 4.871-1.196.603 0 .891.166.999.575.128.49.315.55 1.244.402.9-.144 1.213-.055 1.776.507.376.375.8.682.941.682.142 0 .403.241.58.536.176.294.679.925 1.117 1.402.438.477.796 1.114.796 1.415 0 .3.26.807.58 1.125.719.718.806 2.09.115 1.826-.533-.204-1.004.387-.777.977.127.33.24.32.658-.056.463-.418.542-.396.984.277.264.402.675.731.912.731.613 0 1.58-1.708 1.581-2.792 0-.503.103-.958.227-1.011.125-.053.637-.96 1.138-2.017.921-1.94 1.532-2.678 1.532-1.852 0 .248.181.45.403.45.515 0 .875-.903.462-1.158-.712-.438 1.725-1.575 2.882-1.344.531.106.886.057.886-.122 0-.164-.104-.235-.231-.156-.127.078-.42.011-.652-.15-.295-.204.012-.239 1.028-.116.796.097 2.33.227 3.407.29 1.618.094 2.123.252 2.896.904.514.434.903.899.863 1.032-.04.133.098.243.306.243.54 0 2.228 1.453 2.228 1.92 0 .214.116.39.258.39.444 0 .65.953.258 1.2-.28.176-.188.397.368.89 1.293 1.144 1.581 2.33 1.52 6.24-.035 2.212-.184 3.715-.394 3.968-.426.512-.852.268-.852-.488 0-.317-.122-.502-.27-.41-.307.188-.073 2.152.315 2.646.146.186.14.616-.012 1.011l-.266.687-.289-.722c-.264-.66-.307-.675-.508-.178-.127.314-.068.786.14 1.117.3.48.248.805-.313 1.984-.369.776-.77 1.41-.892 1.41s-.221.195-.221.434a.428.428 0 0 1-.42.433c-.544 0-.99.804-.816 1.47.123.47-1.474 3.15-2.022 3.393-.12.053-.217.264-.217.47 0 .206-.521.91-1.158 1.565-.637.655-1.159 1.442-1.159 1.75 0 .306-.26.64-.579.74-.318.101-.583.402-.588.67-.013.68-.625 1.41-1.29 1.537-.374.072-.648.47-.818 1.19-.146.612-.433 1.08-.662 1.08-.223 0-.406.264-.406.586 0 .358-.28.691-.724.86-.777.294-.95.742-.362.94.28.093.27.233-.047.615-.294.355-.467.398-.619.154a.391.391 0 0 0-.532-.14c-.39.24-.43 1.03-.054 1.03.254 0-.486 1.317-2.45 4.363-.472.732-1.006 1.279-1.186 1.216-.186-.066-.416.356-.533.98-.201 1.07-.551 1.516-1.198 1.525-.176.002-.795-.708-1.375-1.58zm4.21-3.966c-.207-.208-.342-.225-.342-.044 0 .386.342.727.536.535.082-.082-.005-.303-.193-.491zm-7.002-3.26c0-.238-.13-.433-.29-.433-.159 0-.29.195-.29.433s.131.433.29.433c.16 0 .29-.195.29-.433zm10.135-4.027c0-.46-.525-.89-.779-.636-.238.237.134 1.052.48 1.052.165 0 .299-.187.299-.416zm1.092-1.949c-.18-.536-.803-.625-.803-.114a.46.46 0 0 0 .459.457c.252 0 .407-.154.344-.343zm3.251-2.401c0-.239-.13-.434-.29-.434-.159 0-.289.195-.289.434 0 .238.13.433.29.433.159 0 .29-.195.29-.433zm-20.848-1.86c0-.15-.13-.353-.29-.451-.159-.099-.289.024-.289.272 0 .247.13.45.29.45.159 0 .29-.122.29-.272zm21.862-.018c.099-.159.041-.289-.127-.289-.169 0-.307.13-.307.289 0 .159.057.289.128.289.07 0 .208-.13.306-.289zM40.97 65.602c.092-.148.035-.35-.127-.45-.162-.1-.295.02-.295.269 0 .507.174.582.422.181zm30.272-.453a.435.435 0 0 0-.434-.434c-.452 0-.575.342-.241.674.333.333.675.21.675-.24zm.58-4.478c0-.32-.194-.578-.435-.578s-.434.257-.434.578c0 .321.193.578.434.578s.434-.257.434-.578zm-18.243-10.11c0-.16-.203-.29-.451-.29s-.37.13-.272.29c.098.158.301.288.451.288.15 0 .272-.13.272-.289zm6.569-6.988c-.093-.23-.162-.162-.175.174-.013.305.055.476.152.38.096-.096.106-.346.022-.554zm9.647-2.835c0-.159-.464-.289-1.03-.289-.614 0-.959.117-.852.29.098.158.562.288 1.03.288.469 0 .852-.13.852-.289zm-8.05-.924c-.27-.27-.425-.27-.695 0-.27.27-.193.347.348.347.54 0 .617-.077.347-.347zm97.762 48.678c-.066-.574-.276-.838-.716-.9-.598-.085-1.206-1.075-1.377-2.244-.043-.289-.23-.576-.414-.637a.52.52 0 0 1-.337-.457c0-.427-1.601-2.207-1.986-2.207-.404 0-2.06-2.78-2.265-3.802-.11-.548-.424-.96-.857-1.124-.376-.143-.944-.685-1.262-1.205-.488-.797-.51-.961-.145-1.04.239-.051.434-.278.434-.505 0-.48-.77-.562-.925-.098-.064.192-.373.098-.79-.238-.474-.383-.706-.899-.753-1.675-.038-.617-.214-1.171-.393-1.23-.178-.06-.324.049-.324.24 0 .262-.112.256-.449-.023-.247-.205-.413-.644-.37-.977.09-.689-.51-1.605-1.357-2.072-.624-.343-3.666-5.94-4.186-7.7-.176-.596-.446-1.083-.599-1.083-.153 0-.278-.252-.278-.56 0-.31-.13-.642-.29-.74-.159-.098-.29-.488-.29-.867 0-.378-.116-.76-.258-.847-.297-.183-.548-1.687-.795-4.764-.167-2.073.256-5.013.81-5.64.134-.151.244-.56.244-.908 0-.873.776-1.099 1.375-.4.585.68.941.733.941.138 0-.239-.134-.434-.299-.434-.387 0-.809-1.14-.648-1.752.137-.524.884-1.314 2.34-2.474.866-.691 1.027-.727 1.683-.377.614.328.765.325.98-.022a.665.665 0 0 0-.054-.781c-.24-.288-.11-.371.579-.371.488 0 .968-.13 1.066-.289.273-.44 3.347-.373 3.257.072-.045.223.26.366.797.373.478.007 1.097.104 1.375.217.279.113.692.262.919.331.226.07.454.428.507.795.069.485.258.645.69.586.699-.094 2.445 2.113 2.445 3.09 0 .331.11.602.243.602.447 0 .903 1.432.73 2.292-.154.77-.067.894.912 1.302.594.248 1.137.45 1.205.45.297 0 .964-2.092.964-3.023 0-.561.13-1.02.29-1.02.158 0 .289-.27.289-.598 0-1.207 2.041-3.624 4.095-4.849 1.31-.78 6.404-1.15 6.132-.445-.201.524.765.889 1.066.403.14-.227.44-.292.767-.166.516.2.515.222-.026.62-.49.359-.499.412-.072.412.27 0 .49-.13.49-.288 0-.579 1.038-.246 2.06.66 1.86 1.648 3.503 4.179 4.262 6.561.447 1.402.514 6.872.09 7.296-.183.182-.332.825-.332 1.428 0 .604-.13 1.098-.29 1.098-.159 0-.29.423-.29.939s-.261 1.365-.58 1.885c-.317.52-.577 1.137-.577 1.372 0 .582-.488.537-.833-.077-.444-.792-.758-.159-.323.652.346.645.32.82-.228 1.56-.34.458-.703 1.174-.808 1.591-.105.417-.414.917-.688 1.112-.273.195-.744.745-1.046 1.221-.302.477-.679.958-.838 1.068-.159.111-.292.501-.296.867-.01.521-.148.646-.655.576-.58-.08-.63.003-.472.79.132.656.057.925-.293 1.059-.258.099-.47.36-.47.582 0 .222-.098.403-.217.404-.12.001-.44.393-.712.87-.272.477-.956 1.139-1.52 1.47-.564.333-1.025.794-1.025 1.026 0 .232.13.342.29.244.158-.099.289-.094.289.01 0 .306-1.24 1.991-1.65 2.243-.208.127-.377.423-.377.659 0 .235-.196.503-.435.594a.755.755 0 0 0-.443.641c-.012.606-.571 1.323-1.222 1.567-.278.104-.506.462-.506.795 0 .901-.531 1.724-.997 1.546-.294-.113-.366.007-.257.423.127.483-1.162 2.849-1.912 3.51-.09.08-.308.404-.485.722-.508.917-1.215.887-1.323-.055zM147.978 67.02c.367-.683.068-1.437-.324-.82-.264.416-.35 1.404-.124 1.404.074 0 .276-.263.448-.584zm24.32-.427a.435.435 0 0 0-.869 0 .435.435 0 0 0 .869 0zm-26.798-.886l.487-.742-.743.486c-.409.267-.743.6-.743.741 0 .498.519.246.999-.485zm27.957-.27a.435.435 0 0 0-.434-.433c-.452 0-.575.341-.242.674.334.332.676.21.676-.241zm3.185-2.761c0-.15-.13-.272-.29-.272-.159 0-.289.202-.289.45s.13.37.29.272c.159-.098.29-.3.29-.45zm2.43-4.196c.109-.282.044-.414-.167-.343-.433.144-.672.8-.291.8.155 0 .362-.206.459-.457zm-38.464-1.79c-.094-.093-.305-.036-.469.128-.205.205-.18.559.077 1.13l.376.832.093-.96c.05-.528.016-1.037-.077-1.13zm19.53-6.708c0-.318-.13-.578-.29-.578-.16 0-.29.26-.29.578 0 .318.13.578.29.578.16 0 .29-.26.29-.578zm7.808-9.232c.339-.213.256-.332-.41-.584-.878-.333-1.544-.027-1.188.547.237.382 1.022.4 1.598.037zm3.34-.3c-.098-.16-.302-.29-.452-.29-.15 0-.272.13-.272.29 0 .158.203.288.451.288.249 0 .371-.13.273-.289zm-20.704-.579c0-.158-.25-.288-.556-.288-.305 0-.761-.08-1.013-.176-.252-.096-.458-.04-.458.125 0 .166.358.355.796.421.438.067.894.14 1.014.164.12.024.217-.087.217-.246zm-131.74 40.22c-.274-.475-.498-1.024-.498-1.22 0-.195-.272-.647-.606-1.004-.41-.44-.551-.866-.437-1.322.17-.671-.51-1.595-.893-1.213-.102.102-.392-.122-.645-.498l-1.255-1.871c-.5-.745-.797-1.575-.797-2.225 0-.85-.09-1.01-.506-.888-.675.198-1.95-2.403-1.688-3.444.131-.52.061-.71-.261-.71-.53 0-.608-1.45-.105-1.952.254-.253.247-.44-.03-.773-.3-.36-.264-.611.196-1.385.31-.52.775-.927 1.035-.906.26.021.551-.206.646-.506.131-.411.451-.544 1.312-.544.626 0 1.139.13 1.139.289 0 .417.797.356.947-.072.148-.422 1.344.862 1.36 1.458.036 1.428 1.726 2.727 2.141 1.647.092-.238.355-.433.586-.433.553 0 .746-.592.407-1.249-.239-.462-.168-.51.583-.391.706.11.832.046.722-.373-.147-.561.603-.872 2.085-.863 1.057.006 1.577.379 2.57 1.838.584.86.76 1.473.76 2.65 0 .842-.13 1.612-.29 1.71-.158.098-.289.565-.289 1.038 0 .817-.62 2.175-2.164 4.74a48.088 48.088 0 0 0-1.334 2.403c-.351.687-.946 1.449-1.321 1.694-.375.246-.682.581-.682.746 0 .35-1.37 3.31-1.858 4.014-.296.426-.388.384-.83-.385zm.859-.871c-.093-.23-.162-.162-.175.174-.013.305.055.475.152.38.096-.097.106-.346.023-.554zm-.87-2.89c-.092-.23-.16-.161-.174.175-.013.305.056.475.152.38.096-.097.106-.346.023-.554zm1.775-1.754c.06-.305-.081-.502-.358-.502-.25 0-.456.054-.456.12 0 .067-.084.34-.187.608-.14.366-.052.46.359.381.3-.058.59-.33.642-.607zm-5.018-2.362c-1.099-.876-1.246-.73-.425.421.473.662.733.82.967.586.234-.234.088-.505-.542-1.007zm7.78-.605c-.23-.597-.39-.527-.39.171 0 .327.124.518.276.424.153-.094.204-.362.114-.595zm-6.698-1.055c-.442-.44-.769-.115-.524.523.145.376.27.413.528.156s.257-.418-.005-.679zm9.145-2.433c.188-.335.064-.659-.45-1.173-.9-.898-1.094-.708-.619.605.411 1.133.674 1.273 1.069.568zm-12.74-.778c-.146-.984-.812-.94-.812.054 0 .678.104.842.45.71.252-.097.411-.433.362-.764zm13.956-3.652c0-.15-.13-.352-.29-.45-.159-.098-.29.024-.29.272 0 .248.131.45.29.45.16 0 .29-.122.29-.272zm-7.59-10.286c-.088-.087-1.087-.16-2.22-.164-1.134-.004-2.062-.128-2.062-.275 0-.148-.198-.27-.44-.27-.24 0-.656-.454-.921-1.01-.464-.97-1.193-1.468-.852-.582.29.757-.894-.164-1.278-.993a45.27 45.27 0 0 0-.597-1.238c-.14-.276-.255-.714-.255-.974 0-.408.067-.418.49-.076.332.27.42.28.272.035-.146-.242-.021-.36.379-.36.348 0 .596.187.596.452 0 .69 1.371 2.334 2.5 2.999.798.469 1.502.592 3.38.588 2.746-.005 4.206-.431 5.406-1.578.681-.651.938-.748 1.265-.476.325.268.451.237.6-.15.104-.27.042-.58-.138-.69-.239-.148-.23-.386.035-.89.2-.38.453-.884.565-1.122.285-.606 1.27-.543 1.392.09.222 1.147-2.205 4.805-3.195 4.815-.273.003-.626.247-.785.542-.168.314-.988.732-1.983 1.01-1.9.533-1.934.538-2.155.318zm7.011-7.851c0-.123.18-1.163.4-2.311.348-1.822.344-2.133-.029-2.442-.288-.239-.377-.665-.274-1.303.094-.573.019-1.036-.188-1.169-.19-.121-.594-.675-.9-1.231-.306-.557-.742-1.122-.968-1.258-.227-.135-.595-.682-.818-1.216-.323-.771-.655-1.037-1.618-1.296-.666-.179-1.546-.262-1.955-.184-.41.077-1.461.272-2.337.433-2.427.445-2.447.452-2.671 1-.116.28-.442.597-.724.702-.283.106-.684.428-.892.716-1.102 1.527-1.656-.257-1.036-3.33.51-2.528.705-5.924.352-6.141-.119-.074-.143-.324-.053-.556.213-.555.68-.252.68.441 0 .3.145.633.321.741.211.13.26.007.143-.36-.13-.41.071-.742.751-1.244 1.008-.743.99-.741 6.821-.645 3.622.06 3.837.096 3.837.641 0 .548-.193.578-3.748.578-2.185 0-3.821-.12-3.926-.289-.098-.159-.594-.28-1.103-.268-.778.017-.833.059-.344.268.486.209.429.252-.356.269-1.053.023-1.982 1.088-1.744 1.999.077.293-.02.83-.215 1.195-.26.484-.276.978-.062 1.849.359 1.462.244 1.337 1.49 1.617.887.2 1.089.148 1.354-.346.287-.535.54-.572 3.171-.467 2.585.104 2.936.186 3.664.857.443.408 1.033.822 1.312.92.326.114.507.478.507 1.017 0 .702.142.868.868 1.013.612.122.87.341.87.741 0 .313.142.656.316.764.174.107.256.512.182.9-.104.539-.033.666.3.539.35-.135.399.009.251.744-.1.501-.04 1.437.133 2.08.303 1.122.115 3.9-.24 3.545-.095-.095-.476.026-.847.269-.371.243-.675.34-.675.218zM14.145 33.679c0-.523-.567-.427-.679.114-.062.301.046.433.29.352.214-.07.39-.28.39-.466z" fill="#d40000"/><path d="M0 157.44V0h217.76v314.88H0V157.44zm213.2 155.91c1.776-1.22 2.856-2.598 3.527-4.498.4-1.133.446-16.895.446-151.25 0-136.41-.042-150.11-.461-151.33-.615-1.8-2.787-4.163-4.6-5.006l-1.454-.675-101.94-.003L6.778.585l-1.504.748c-1.67.83-3.32 2.547-4.14 4.307C.612 6.762.596 11.23.596 157.59c0 146 .017 150.83.535 151.97 1.022 2.245 3.298 4.272 5.347 4.763.5.12 46.858.197 103.02.173l102.11-.044 1.6-1.098z" fill="#030303"/></svg>