<svg xmlns="http://www.w3.org/2000/svg" height="335.876" width="232.277" viewBox="0 0 217.76 314.884"><path d="M0 157.44V0h217.76v314.88H0V157.44z" fill="#fdfdfd"/><path d="M0 157.44V0h217.76v314.88H0V157.44zm211.64 155.6c1.776-.963 3.67-2.989 4.191-4.482.292-.836.38-31.116.44-150.53.065-134.48.027-149.64-.377-151.03-.58-1.988-2.368-3.96-4.41-4.866l-1.53-.678-100.98.004c-90.401.004-101.11.05-102.28.451-1.75.601-4.188 3.007-4.768 4.705-.396 1.159-.443 17.363-.443 151.14 0 136.63.04 149.94.462 150.96a8.42 8.42 0 0 0 5.558 4.903c1.092.294 21.383.357 101.99.314l100.62-.054 1.524-.827zM6.89 306.308c-.106-.106-.193-.431-.193-.722 0-.373.215-.53.724-.53.579 0 .724.144.724.722 0 .508-.158.722-.531.722-.292 0-.618-.087-.724-.192zm-3.45-2.599c.198-.08.361-.533.361-1.007 0-.762.076-.839.652-.66.753.235 1.075.638 1.081 1.353.004.406-.237.501-1.226.483-.677-.012-1.068-.088-.869-.169zm191.22-12.812c-4.315-.908-7.278-4.478-7.278-8.77 0-3.262 1.34-5.408 5.599-8.962 1.619-1.351 3.635-3.08 4.48-3.843 1.567-1.413 3.307-3.754 3.662-4.925l.197-.65h-9.305v1.698c0 2.153-.287 2.4-2.653 2.289l-1.835-.087v-8.667l8.832-.08c4.857-.045 9.124-.01 9.483.077.575.14.651.34.651 1.717 0 2.353-.75 5.784-1.633 7.47-.809 1.542-7.253 8.147-8.89 9.11-.452.266-1.396 1.244-2.099 2.173-1.088 1.44-1.277 1.89-1.277 3.049 0 1.155.142 1.495.941 2.264 1.163 1.12 2.186 1.52 3.885 1.52 1.564 0 3.075-.658 3.891-1.693.481-.61.576-1.083.5-2.486l-.096-1.733 1.939-.56c2.633-.76 2.839-.573 2.839 2.574 0 4.428-1.44 6.808-4.858 8.035-1.724.618-5.186.857-6.976.48zm-86.412-13.122c-.59-.705-1.075-1.388-1.077-1.516 0-.129-.946-1.355-2.099-2.724a365.081 365.081 0 0 1-3.69-4.457 217.327 217.327 0 0 0-3.475-4.155c-8.686-10.089-11.871-16.102-11.871-22.412 0-2.901.454-4.865 1.608-6.952 2.615-4.728 7.626-6.755 12.362-5.001 2.787 1.032 5.091 3.56 6.028 6.613l.221.722.02-.722c.022-.884-.96-5.394-1.603-7.366-.26-.795-.961-2.499-1.559-3.787-.597-1.288-1.163-2.588-1.256-2.889-.385-1.231-.071-1.283 7.22-1.202l6.929.078-.036 1.011c-.02.557-.637 2.403-1.37 4.103-1.512 3.5-2.446 6.536-2.761 8.969-.253 1.951 0 2.183.468.433.54-2.01 2.468-4.689 4.191-5.827 5.907-3.9 13.981.076 15.618 7.691.172.798.252 2.834.179 4.524-.147 3.39-1.037 6.6-2.376 8.569-.406.596-.738 1.326-.738 1.622 0 .295-.128.537-.283.537-.156 0-.904.943-1.663 2.095-.759 1.152-2.334 3.329-3.502 4.838-4.863 6.289-10.713 14.24-11.985 16.292-.895 1.445-1.543 2.197-1.893 2.197-.292 0-1.015-.577-1.606-1.283zm-1.742-38.793c-.073-.28-.139-.12-.145.356-.01.476.054.706.134.51.079-.195.084-.585.01-.866zm90.999 17.736c-.458-.553-5.764-9.448-6.7-11.232-1.656-3.157-1.754-6.47-.25-8.38 1.097-1.39 4.312-1.742 5.567-.609.905.818.624-.14-.667-2.27-1.651-2.728-1.496-2.876 2.9-2.77 3.139.076 3.366.12 3.445.675.047.327-.376 1.36-.94 2.294-.565.935-1.027 1.809-1.027 1.941 0 .133.412.03.916-.231 1.114-.575 2.902-.403 3.981.383 1.82 1.324 2.496 4.627 1.516 7.397-.628 1.773-1.298 2.934-5.068 8.775-.74 1.147-1.561 2.534-1.823 3.082-.505 1.056-1.386 1.507-1.85.946zm-95.672-165.4c-.254-.41.49-2.982 1.037-3.585.942-1.04 2.974-7.658 3.286-10.7l.153-1.484-.509 1.314c-.792 2.046-1.718 3.33-3.32 4.601-1.889 1.5-4.046 2.145-6.578 1.963-3.49-.25-6.323-2.112-8.177-5.378-.51-.898-1.001-1.698-1.091-1.777-.448-.395-.712-6.745-.36-8.673.208-1.142.197-1.637-.04-1.783-.22-.137-.176-.26.14-.38.256-.098.694-.788.972-1.532.97-2.59 2.955-5.88 5.76-9.54 2.282-2.978 2.946-3.793 6.105-7.49 1.752-2.05 3.641-4.295 4.198-4.989.558-.693 1.346-1.658 1.752-2.142.406-.485 1.488-1.888 2.405-3.12 1.002-1.345 1.875-2.238 2.188-2.238.347 0 1.55 1.511 3.62 4.55 1.706 2.502 3.88 5.524 4.83 6.716 2.484 3.112 8.383 10.919 9.278 12.277 3.518 5.342 4.886 9.146 4.88 13.566 0 3.134-.499 5.154-1.787 7.291-2.094 3.476-5.276 5.349-9.123 5.37-4.439.026-7.854-2.878-9.356-7.953-.658-2.225-.72-1.46-.147 1.793.533 3.02.984 4.43 2.805 8.763.788 1.876 1.392 3.696 1.342 4.045-.09.631-.128.635-7.092.712-4.182.046-7.07-.033-7.171-.196zm-84.64-10.034c-.617-.256-.404-1.137.651-2.702 1.301-1.929 1.35-2.499.16-1.885-1.859.959-4.177.288-5.591-1.616-.441-.595-.56-1.223-.553-2.929.01-1.917.133-2.42 1.076-4.298.588-1.17 2.08-3.752 3.315-5.738 1.236-1.986 2.558-4.196 2.939-4.91 1.028-1.93 1.521-1.756 3.282 1.155.816 1.35 2.051 3.365 2.745 4.477 2.856 4.584 3.215 5.22 3.487 6.2.52 1.864.353 4.42-.38 5.816-1.069 2.04-3.33 2.836-5.239 1.844-.461-.24-.879-.397-.928-.348-.087.087 1.273 2.456 1.985 3.46.266.375.276.636.04 1.01-.268.426-.821.515-3.473.56-1.735.03-3.317-.013-3.516-.095zm-7.31-28.918c.01-4.584 1.45-8.205 4.457-11.176.995-.983 3.079-2.87 4.63-4.194 3.864-3.297 4.78-4.536 4.765-6.445-.01-1.27-.142-1.611-.924-2.39-1.91-1.901-5.488-1.94-7.482-.082-.862.803-.889.9-.713 2.574l.182 1.74-1.083.419a21.88 21.88 0 0 0-1.887.842c-.72.378-.863.372-1.375-.065-.478-.408-.572-.856-.572-2.719 0-1.226-.132-2.311-.295-2.411-.18-.111-.068-.469.29-.923.321-.407.584-.865.584-1.017 0-.151.359-.79.797-1.42.89-1.28 3.329-2.691 5.157-2.984.627-.1 1.7-.324 2.385-.498.908-.23 1.417-.228 1.882.01.35.178 1.375.591 2.276.92 2.274.826 3.42 1.66 4.511 3.28 1.212 1.8 1.61 3.333 1.467 5.665-.205 3.353-1.372 4.925-7.292 9.823-3.78 3.128-4.896 4.278-5.754 5.932-.415.8-.409.918.075 1.515.484.596.765.646 3.595.646 1.952 0 3.283-.131 3.655-.36.48-.298.631-.286.85.064.18.29.294-.219.353-1.589l.087-2.015 2.244-.084 2.244-.084v8.69H9.881v-1.66zM3.424 20.624c-.35-.349-.221-1.482.185-1.637.624-.24 1.119.24 1.013.983-.096.673-.796 1.055-1.198.654zm.666-3.267c0-.15.13-.352.29-.45.159-.098.29.024.29.272 0 .248-.131.45-.29.45-.16 0-.29-.122-.29-.272zm0-2.183c0-.265.14-.435.311-.378.171.057.311.227.311.378 0 .15-.14.32-.31.378-.172.057-.312-.113-.312-.378z" fill="#f4f4f4"/><path d="M0 157.44V0h217.76v314.88H0V157.44zm211.81 155.8c1.559-.842 3.17-2.56 3.887-4.14l.588-1.3V7.36l-.675-1.445c-.75-1.605-2.497-3.33-4.163-4.11-1.039-.487-6.034-.512-102.6-.512H7.338l-1.704.87C3.61 3.194 2.216 4.87 1.588 7.022c-.389 1.336-.43 18.268-.364 151.28l.074 149.78.868 1.581c.968 1.76 3.116 3.568 4.763 4.009.643.172 38.975.258 102.38.231l101.35-.043 1.158-.625zM6.95 305.777a.435.435 0 0 1 .869 0 .435.435 0 0 1-.869 0zm-3.04-2.455c-.268-.432.104-.867.74-.867.37 0 .563.198.563.578 0 .612-.97.827-1.303.289zm189.58-12.953c-4.145-1.472-6.704-5.734-5.885-9.802.457-2.269 2.297-4.659 5.723-7.433 5.19-4.204 7.314-6.586 8.055-9.035l.198-.657-4.871.08-4.872.078-.145 1.878-.145 1.878-1.856.087c-1.288.06-1.929-.028-2.095-.29-.275-.432-.336-6.887-.072-7.574.156-.403 1.257-.456 9.406-.456h9.23l.17.677c.232.923-.382 5.206-.956 6.66-1.106 2.807-2.454 4.403-7.167 8.48-5.234 4.529-6.248 5.973-5.815 8.276.182.967 1.218 2.13 2.485 2.789 1.006.522 4.004.474 5.068-.081 1.656-.864 2.033-1.546 1.967-3.556l-.059-1.823 1.342-.456c2.833-.963 3.43-.366 3.175 3.174-.25 3.479-1.596 5.59-4.324 6.786-2.13.934-6.379 1.093-8.557.32zm-86.103-14.13c-1.038-1.39-4.647-5.832-8.021-9.871-9.373-11.22-12.01-15.505-13.012-21.148-1.093-6.152 1.401-11.8 6.268-14.19 3.502-1.72 7.354-1.108 10.42 1.655 1.404 1.265 2.502 3.375 3.095 5.946l.429 1.86-.145-2.492c-.194-3.325-1.512-8.377-3.153-12.087-.736-1.664-1.338-3.178-1.338-3.364 0-.608.835-.689 7.062-.689 4.59 0 6.278.095 6.662.376.483.352.415.62-1.085 4.272-1.886 4.593-2.73 7.475-2.95 10.072-.088 1.04-.222 2.276-.297 2.748-.209 1.309.293.485.699-1.147.91-3.66 2.977-6.61 5.606-8 1.024-.54 1.701-.657 3.848-.661 2.312 0 2.795.09 4.277.84 4.392 2.22 6.904 7.168 6.506 12.818-.374 5.325-2.687 9.501-11.79 21.291-5.145 6.662-6.633 8.722-8.92 12.35-.779 1.234-1.422 1.95-1.753 1.95-.32 0-1.252-.978-2.408-2.527zm89.194-21.231c-.502-.993-1.955-3.47-3.229-5.506-2.953-4.717-3.67-6.438-3.679-8.832-.01-3.046 1.426-4.656 4.156-4.656.988 0 1.518.187 2.235.79l.941.79-.202-1.007c-.11-.553-.663-1.7-1.228-2.55-.565-.848-.957-1.726-.87-1.95.121-.317.891-.406 3.495-.406 3.875 0 3.968.093 2.484 2.508-.47.766-.946 1.772-1.058 2.237l-.203.846.934-.664c.763-.541 1.197-.638 2.364-.526.829.079 1.689.367 2.047.684 1.02.905 1.68 2.704 1.686 4.592.01 2.468-.619 3.684-7.42 14.372-.379.596-.88 1.084-1.115 1.084-.234 0-.837-.813-1.338-1.806zm-94.168-163.67c-.712-.138-.598-.84.512-3.15 1.95-4.06 3.676-10.789 3.614-14.09-.02-1.052-.058-.991-.421.678-.815 3.746-2.792 6.367-5.869 7.783-4.735 2.178-10.339-.239-12.82-5.53-2.883-6.144-1.22-13.139 5.125-21.576 1.294-1.72 4.622-5.832 7.396-9.14 2.775-3.307 6-7.28 7.167-8.83 1.273-1.688 2.326-2.816 2.63-2.816.332 0 1.464 1.428 3.264 4.117 1.515 2.264 3.974 5.677 5.465 7.584 9.096 11.642 11.31 15.014 12.896 19.637 2.4 7.001.019 14.19-5.616 16.957-6.445 3.166-12.21-.556-14.114-9.114-.338-1.517-.389-.646-.126 2.17.32 3.434 1.219 6.59 3.185 11.185 1.029 2.405 1.416 3.624 1.214 3.825-.27.27-12.282.546-13.502.31zM17.089 80.714c0-.254.442-1.197.984-2.095.54-.897 1.067-2 1.17-2.45l.185-.818-1.012.77c-1.261.96-3.336 1.063-4.466.222-1.544-1.15-1.93-1.996-1.92-4.217.01-2.385.67-3.978 3.493-8.427.907-1.43 2.251-3.704 2.987-5.053.736-1.348 1.554-2.493 1.818-2.544.333-.064.857.553 1.714 2.019a156.797 156.797 0 0 0 3.109 5c2.868 4.419 3.665 6.272 3.665 8.522 0 2.508-.741 3.957-2.478 4.848-1.42.728-2.252.67-3.519-.24-.431-.31-.846-.564-.92-.564-.317 0 .445 1.894 1.289 3.206 1.37 2.13 1.184 2.283-2.76 2.283-2.868 0-3.34-.065-3.34-.462zM10.5 53.724c-.745-.3-.769-.552-.34-3.63.714-5.118 1.94-6.826 9.948-13.848 3.748-3.287 4.68-5.402 3.343-7.59-1.165-1.907-4.645-2.647-7.136-1.519-1.51.684-1.87 1.346-1.93 3.556l-.048 1.752-1.577.534c-.867.294-1.805.463-2.084.374-1.063-.336-1.073-4.486-.015-6.847.734-1.638 1.894-2.746 3.821-3.65 1.379-.648 1.981-.749 4.488-.752 2.52 0 3.105.094 4.502.748 3.523 1.648 5.344 4.346 5.343 7.914 0 3.58-1.245 5.334-7.382 10.408-3.966 3.28-5.807 5.392-6.352 7.289l-.269.936h9.805v-1.676c0-.921.156-1.831.347-2.022.191-.19 1.012-.347 1.824-.347.813 0 1.633.156 1.825.347.481.48.481 7.493 0 7.973-.421.42-17.075.465-18.112.049zM3.672 20.32c-.352-.352-.2-.963.242-.963.24 0 .434.257.434.578 0 .575-.309.75-.676.385z" fill="#e7e7e7"/><path d="M0 157.44V0h217.76v314.88H0V157.44zm159.02 156.93c-27.604-.041-72.689-.041-100.19 0-27.499.041-4.913.074 50.19.074 55.104 0 77.603-.033 49.998-.074zm52.546-.916c1.772-.803 3.421-2.43 4.197-4.142l.686-1.514V7.358l-.814-1.654c-.448-.91-1.346-2.107-1.995-2.662-2.427-2.072 7.172-1.906-105.35-1.824L6.81 1.292l-1.159.625C4.278 2.66 2.597 4.361 1.847 5.77c-.523.982-.541 5.415-.618 151.37-.07 134.75-.032 150.48.368 151.54.84 2.225 2.83 4.233 4.923 4.97.605.213 31.73.31 102.36.322 98.705.016 101.52 0 102.69-.526zM4.196 303.32c-.312-.504.15-.933.602-.56.223.185.334.451.246.592-.21.341-.626.325-.848-.033zm189.75-12.98c-5.181-1.652-7.741-6.913-5.598-11.504.834-1.788 3.1-4.118 7.52-7.735 3.263-2.67 5.214-5.038 5.555-6.742l.182-.904h-9.918v1.698c0 2.1-.316 2.407-2.365 2.29l-1.544-.088V259.267l8.542-.081c4.698-.044 8.835-.01 9.194.078.573.14.651.342.651 1.689 0 2.265-.534 4.755-1.402 6.534-.952 1.948-2.93 4.104-7.388 8.049-4.43 3.92-5.109 4.839-5.109 6.914 0 1.395.109 1.682.955 2.526 1.606 1.602 4.525 2.046 6.769 1.03 1.61-.729 2.193-1.669 2.111-3.403-.096-2.055-.114-2.026 1.627-2.531 2.2-.638 2.437-.408 2.437 2.38 0 2.735-.409 4.1-1.668 5.568-2.222 2.59-6.652 3.565-10.55 2.322zm-86.829-14.666c-1.32-1.716-4.629-5.784-7.353-9.041-8.323-9.95-10.622-13.272-12.354-17.845-.899-2.373-.956-2.743-.966-6.292l-.011-3.77 1.067-2.151c1.996-4.022 4.79-6.046 8.664-6.278 1.948-.117 2.41-.04 3.993.67 3.103 1.389 5.812 5.116 5.825 8.017 0 .51.115 1.1.25 1.313.869 1.368.425-3.818-.71-8.293-.378-1.49-1.316-4.166-2.085-5.95-.77-1.782-1.348-3.39-1.287-3.574.08-.24 1.987-.334 6.757-.334 5.564 0 6.671.069 6.807.422.09.233-.563 2.215-1.45 4.406-1.965 4.851-2.705 7.643-2.956 11.14-.212 2.965.138 3.168.727.42.817-3.811 3.174-7.074 6.069-8.4 1.81-.83 5.131-.817 6.985.026 4.527 2.058 7.069 6.36 7.04 11.919-.031 5.811-2.249 10.006-11.845 22.4-2.59 3.345-5.928 7.885-7.419 10.09-1.491 2.207-2.855 4.06-3.03 4.117-.174.058-1.397-1.297-2.717-3.013zm88.848-21.968a221.31 221.31 0 0 0-3.454-5.87c-1.028-1.68-2.106-3.803-2.395-4.719-.632-2.004-.5-4.205.32-5.321 1.4-1.904 4.044-2.255 5.624-.745.458.438.914.715 1.013.616.291-.29-.68-2.805-1.493-3.868-1.312-1.717-1.005-1.964 2.559-2.058 3.618-.095 3.94.13 2.715 1.895-.706 1.018-1.638 3.244-1.638 3.91 0 .17.4-.074.887-.541.734-.701 1.133-.849 2.298-.849 1.163 0 1.564.148 2.292.844 1.95 1.863 2.255 5.001.77 7.923-.413.814-2.055 3.556-3.648 6.093s-2.974 4.813-3.069 5.06c-.419 1.09-1.218.409-2.781-2.37zm-93.847-162.83c-.086-.225.303-1.362.866-2.528 2.309-4.785 3.832-11.2 3.59-15.12-.06-.97-.493.097-.705 1.734-.387 2.987-2.494 5.86-5.437 7.412-1.024.54-1.719.665-3.72.67-2.097.01-2.698-.109-4.056-.775-2.198-1.076-3.884-2.842-5.145-5.388-.978-1.974-1.077-2.4-1.172-5.07-.136-3.77.404-6.11 2.271-9.848 1.855-3.715 3.87-6.486 10.376-14.265 2.911-3.481 6.429-7.805 7.817-9.61 1.389-1.803 2.704-3.28 2.923-3.28.22 0 1.589 1.76 3.043 3.912 1.455 2.15 4.996 6.96 7.87 10.688 7.411 9.612 9.195 12.43 10.689 16.888 1.452 4.333.92 9.49-1.31 12.687-3.11 4.459-8.101 6.136-12.244 4.114-2.724-1.33-4.955-4.533-5.753-8.263-.572-2.669-.925-2.467-.731.417.229 3.416 1.008 6.349 2.974 11.204.887 2.19 1.54 4.174 1.45 4.406-.238.619-13.358.632-13.596.014zm-84.886-9.983c-.102-.164.283-1.056.856-1.981.572-.925 1.119-2.193 1.215-2.816l.174-1.134-.876.818c-1.751 1.635-4.61 1.205-5.906-.888-.879-1.418-.846-3.726.086-5.996.39-.953 1.762-3.423 3.047-5.489 1.285-2.065 2.712-4.469 3.17-5.341.46-.872 1.052-1.627 1.318-1.678.33-.063.808.462 1.509 1.654.564.96 2.01 3.296 3.212 5.19 2.991 4.71 3.685 6.297 3.685 8.424 0 2.064-.705 3.602-2.08 4.534-1.26.854-2.562.824-3.913-.091l-1.094-.74.19.957c.104.526.584 1.593 1.066 2.37 1.362 2.192 1.228 2.328-2.387 2.424-1.904.05-3.157-.033-3.272-.217zm-6.903-27.352c-.329-.328-.211-3.018.221-5.053.796-3.748 2.267-5.715 7.982-10.67 2.335-2.024 4.386-4.056 4.791-4.745 1.325-2.254.77-4.86-1.252-5.883-2.538-1.283-5.237-1.003-6.966.721-.95.949-.99 1.07-.836 2.558.19 1.843.044 2.02-2.08 2.51-1.928.443-2.046.28-2.052-2.809-.01-3.95 1.658-6.315 5.3-7.528 3.786-1.26 8.127-.326 10.779 2.319 1.741 1.738 2.451 3.502 2.442 6.07-.012 3.185-1.496 5.247-7.088 9.846-3.65 3.002-5.527 5-6.269 6.672-.952 2.148-.922 2.162 4.453 2.071l4.712-.079.076-1.3c.153-2.611.143-2.6 2.254-2.6h1.884l-.08 3.972-.082 3.972-8.996.076c-4.948.042-9.085-.012-9.194-.12z" fill="#d6d6d6"/><path d="M0 157.44V0h217.76v314.88H0V157.44zM209.21 314.3c.099-.159.456-.289.794-.289 1.98 0 5.074-2.624 5.998-5.087l.592-1.579V7.825l-.588-1.568c-.724-1.93-2.734-3.902-4.777-4.688-1.41-.542-3.586-.554-102.64-.554H7.389l-1.645.806C3.88 2.734 2.52 4.134 1.628 6.056l-.61 1.314-.074 149.2c-.05 100.33.022 149.72.22 150.79.573 3.09 2.588 5.336 5.843 6.51l1.83.66 100.1.028c66.45.019 100.16-.07 100.28-.261zM4.35 303.034a.29.29 0 0 1 .58 0 .29.29 0 0 1-.58 0zm190.83-12.448c-3-.587-5.33-2.305-6.734-4.964-.867-1.643-.92-5.036-.105-6.676.785-1.576 3.312-4.215 6.536-6.825 4.212-3.409 6.024-5.55 6.79-8.02l.203-.656-5.161.079-5.162.079-.089 1.726c-.097 1.894-.312 2.163-1.74 2.17-1.982.01-2.08-.188-2.08-4.16 0-2.704.098-3.646.406-3.901.301-.25 2.65-.277 9.193-.108l8.788.229-.062 2.152c-.087 3.006-.96 5.65-2.571 7.789-.732.972-3.176 3.378-5.43 5.347-4.555 3.978-5.244 4.77-5.73 6.585-.292 1.088-.26 1.422.25 2.573.753 1.697 2.38 2.563 4.812 2.563 3.292 0 4.822-1.292 4.822-4.073 0-1.9.21-2.124 2.31-2.459 1.532-.244 1.734.031 1.74 2.37.012 4.668-2.203 7.334-6.793 8.18-1.926.356-2.373.356-4.193 0zm-88.084-15.073c-1.219-1.625-3.805-4.84-5.747-7.144-10.569-12.539-13.076-16.313-14.474-21.784-1.661-6.505.52-12.522 5.5-15.17 3.369-1.79 6.97-1.45 9.913.94 1.901 1.542 3.354 4.217 3.604 6.632.255 2.465.829 1.96.753-.662-.106-3.651-1.404-8.636-3.32-12.75-.648-1.393-1.102-2.734-1.008-2.98.148-.384 1.08-.446 6.705-.446 5.272 0 6.563.077 6.686.397.084.218-.427 1.75-1.134 3.403-2.331 5.444-3.373 9.468-3.378 13.044 0 2.034.415 1.937.86-.201.453-2.18 2.047-5.321 3.371-6.644 3.415-3.413 8.739-3.406 12.555.016 2.696 2.418 4.06 5.69 4.06 9.738 0 5.85-2.23 10.09-11.865 22.567-4.558 5.901-8.534 11.476-9.529 13.36-.611 1.158-1.266.732-3.552-2.317zm90.471-19.349c-.153-.199-.78-1.271-1.392-2.383a88.92 88.92 0 0 0-2.625-4.358c-2.577-3.987-3.87-7.006-3.88-9.056-.01-1.414 1.11-3.124 2.47-3.78 1.572-.76 2.66-.588 4.063.641.987.865.991.866.985.189-.01-.801-.886-2.818-1.762-4.045-.35-.491-.51-.975-.366-1.115.226-.222 2.704-.367 5.247-.308 1.12.026 1.225.547.356 1.763-.67.94-1.442 2.975-1.442 3.806 0 .492.111.453.868-.302 2.189-2.184 5.133-.963 6.072 2.517.68 2.521.157 3.914-3.972 10.564-1.684 2.71-3.238 5.221-3.455 5.579-.446.735-.764.813-1.167.289zm-95.249-165.32c-.094-.245.353-1.578.994-2.961 1.931-4.168 3.195-9.062 3.326-12.884.085-2.483-.495-2.968-.738-.617-.341 3.303-2.403 6.26-5.482 7.864-1.268.66-1.901.798-3.707.804-1.886.01-2.438-.12-4.111-.942-4.98-2.446-7.275-8.286-5.87-14.94.608-2.88 3.159-7.798 5.995-11.555 1.32-1.748 4.53-5.713 7.136-8.811s5.798-7.033 7.095-8.745c1.51-1.995 2.523-3.084 2.82-3.033.255.044 1.693 1.899 3.195 4.123 1.502 2.225 4.996 6.97 7.764 10.544 9.11 11.763 11.308 16.01 11.308 21.84 0 5.46-2.98 10.158-7.46 11.76-2.012.719-4.803.637-6.584-.194-2.74-1.279-5.113-4.698-5.932-8.545-.205-.963-.485-1.751-.622-1.751-.34 0-.312 2.916.05 5.138.393 2.42 1.51 5.886 3.075 9.54 1.01 2.357 1.211 3.084.946 3.404-.272.326-1.585.406-6.682.406-5.454 0-6.368-.063-6.516-.446zm-84.579-9.856c-.543-.218-.447-.635.482-2.094.837-1.313 1.65-3.7 1.36-3.99-.083-.083-.553.25-1.044.74-1.722 1.72-4.28 1.354-5.742-.82-.578-.86-.664-1.291-.575-2.888.128-2.278 1.022-4.29 3.914-8.811 1.118-1.748 2.448-3.999 2.955-5.003.51-1.01 1.077-1.775 1.27-1.713.191.062.59.493.885.959 7.01 11.057 7.426 11.863 7.426 14.389 0 4.042-3.62 6.43-6.123 4.038-.451-.431-.887-.717-.969-.636-.269.268.622 2.728 1.403 3.874.883 1.296.95 1.726.308 1.972-.541.207-5.027.194-5.55-.016zM10.417 53.29c-.601-.722.11-5.31 1.178-7.598.888-1.903 2.43-3.559 9.183-9.866 2.48-2.314 2.991-2.946 3.272-4.032.808-3.135-1.513-5.508-5.37-5.492-1.432.01-3.385.86-4.015 1.758-.315.448-.473 1.276-.473 2.478v1.806l-1.643.476c-1.573.456-1.66.454-2.052-.064-.618-.818-.343-4.83.433-6.318 1.37-2.626 3.792-3.94 7.605-4.125 2.023-.098 2.76-.01 4.136.51 3.634 1.367 5.716 4.05 5.947 7.664.096 1.498-.013 2.102-.604 3.366-1.008 2.157-2.306 3.54-6.618 7.057-2.064 1.683-4.266 3.738-4.893 4.567-1.365 1.805-2.197 3.878-1.64 4.09.2.078 2.51.105 5.131.06l4.767-.08.145-1.877.144-1.877h3.475v7.8l-8.865.075c-7.774.067-8.912.02-9.243-.378z" fill="#c7c7c7"/><path d="M0 157.44V0h217.76v314.88H0V157.44zm210.49 156.58c3.022-1.102 4.79-2.723 5.663-5.192.392-1.107.44-17.803.44-151.38V7.318l-.894-1.786c-.602-1.202-1.328-2.116-2.222-2.797C210.81.704 219.905.86 108.147.941l-101.05.074-1.303.681c-1.776.929-3.089 2.22-4.007 3.941l-.77 1.445-.074 149.92c-.066 133.67-.026 150.08.368 151.44.658 2.258 2.895 4.528 5.352 5.43l1.882.691 100.19.015c99.005.015 100.21.01 101.75-.554zm-16.338-23.697c-1.733-.537-4.01-2.165-4.953-3.54-1.073-1.564-1.71-4.098-1.421-5.66.539-2.923 1.995-4.726 7.404-9.167 3.75-3.08 5.382-4.89 6.229-6.911.786-1.878.732-1.898-4.864-1.81l-5.001.079-.145 1.878-.145 1.877-1.565.09c-1.056.06-1.643-.035-1.805-.29-.308-.484-.315-6.615-.01-7.098.18-.284 2.216-.348 9.189-.289l8.957.076-.074 1.734c-.252 5.858-1.45 7.67-10.321 15.588-2.918 2.604-3.814 4.11-3.562 5.986.206 1.533.853 2.422 2.307 3.17 2.394 1.23 6.225.63 7.4-1.16.319-.485.486-1.338.486-2.481v-1.743l1.533-.41c2.035-.543 2.234-.319 2.222 2.513-.014 3.52-1.369 5.808-4.19 7.073-1.47.66-6.166.962-7.673.494zm-87.001-14.896c-1.287-1.679-3.934-4.946-5.881-7.26-8.416-9.998-10.801-13.257-12.811-17.503-2.864-6.05-2.785-11.446.233-15.846 3.571-5.206 10.024-6.002 14.179-1.748 1.674 1.714 2.462 3.244 2.905 5.637.407 2.2.89 2.503 1.017.637.201-2.974-1.488-9.804-3.485-14.093-.99-2.127-1.125-2.615-.782-2.831.533-.337 12.157-.344 12.688-.01.527.333.37.938-1.252 4.837-1.614 3.88-2.631 7.783-2.867 11.005-.143 1.97-.1 2.383.246 2.383.23 0 .499-.357.595-.794.904-4.09 1.96-6.231 3.96-8.024 5.43-4.871 14.107-1.017 15.82 7.027.78 3.665.252 6.9-1.833 11.24-1.722 3.58-3.644 6.399-9.77 14.324-2.85 3.687-6.08 8.068-7.178 9.737-2.621 3.98-2.88 4.333-3.185 4.333-.142 0-1.312-1.374-2.599-3.053zm89.752-20.554c-.398-.75-1.616-2.797-2.708-4.55-3.272-5.254-4.023-6.926-4.155-9.252-.132-2.341.183-3.138 1.626-4.108 1.576-1.06 3.878-.722 4.745.696.128.208.373.379.545.379.573 0 .024-2.327-.898-3.807-1.387-2.227-1.356-2.26 2.149-2.26 3.377 0 3.589.15 2.425 1.72-.695.938-1.732 3.774-1.511 4.132.08.129.595-.16 1.146-.642 2.648-2.32 5.907 0 5.9 4.198 0 2.178-.495 3.224-4.445 9.482-1.695 2.684-3.081 4.991-3.081 5.128 0 .136-.228.248-.507.248-.31 0-.79-.532-1.231-1.364zm-94.535-164.15c-.095-.153.089-.792.41-1.419 2.083-4.073 3.82-10.366 3.885-14.07.05-2.887-.391-3.178-.873-.575-1.08 5.842-6.239 9.552-11.29 8.122-5.913-1.675-9.2-7.957-7.792-14.89 1.19-5.858 3.369-9.303 13.608-21.52 2.664-3.177 5.777-7.038 6.919-8.58 1.142-1.54 2.271-2.801 2.51-2.8.24 0 1.558 1.718 2.932 3.814 1.373 2.096 4.795 6.782 7.603 10.414 2.808 3.631 5.815 7.667 6.683 8.967 4.38 6.568 5.881 12 4.635 16.774-1.253 4.798-5.042 8.352-9.313 8.735-4.665.418-8.27-2.614-9.919-8.342-.426-1.482-.897-2.629-1.046-2.55-.33.176-.215 3.59.193 5.778.406 2.175 1.572 5.702 2.908 8.789.614 1.417 1.115 2.815 1.115 3.105 0 .496-.397.528-6.498.528-3.865 0-6.568-.113-6.67-.28zM17.376 80.637c0-.14.442-.986.982-1.88.929-1.54 1.555-3.52 1.218-3.856-.085-.084-.619.254-1.187.752-1.87 1.637-4.688 1.016-5.777-1.274-1.076-2.262-.134-5.274 3.42-10.943 1.005-1.6 2.315-3.788 2.913-4.86.598-1.073 1.256-1.95 1.463-1.95.207 0 .91.896 1.563 1.992a343.07 343.07 0 0 0 3.509 5.675c3.182 5.045 3.79 7.307 2.64 9.832-.756 1.66-1.843 2.433-3.422 2.433-1.043 0-1.45-.164-2.154-.866-.478-.477-.939-.867-1.024-.867-.39 0 .338 2.338 1.226 3.932.541.971.9 1.848.799 1.95-.285.284-6.169.218-6.169-.07zm-6.765-27.269c-.46-.335-.477-.606-.19-2.91.633-5.083 1.853-6.958 7.968-12.25 5.32-4.603 6.291-6.036 5.813-8.581-.647-3.441-6.803-4.602-9.416-1.776-.588.636-.71 1.072-.724 2.565l-.016 1.8-1.433.474c-.789.26-1.597.412-1.796.335-.493-.188-.79-2.384-.548-4.06.458-3.183 2.183-5.174 5.328-6.146 4.922-1.523 10.009.344 12.125 4.45.6 1.165.767 1.911.782 3.502.033 3.387-1.102 5.019-6.804 9.769-1.98 1.65-4.101 3.553-4.714 4.23-1.06 1.172-2.497 3.79-2.503 4.562 0 .275 1.232.36 5.21.36h5.212v-1.846c0-1.418.106-1.888.458-2.022.78-.299 2.593-.194 2.959.171.479.478.479 6.917 0 7.395-.514.513-17.006.492-17.711-.022z" fill="#b6b6b6"/><path d="M0 157.44V0h217.76v314.88H0V157.44zm210.32 156.72c2.776-.84 4.9-2.733 5.864-5.23.535-1.382.548-4.98.548-151.49V7.37l-.61-1.314c-.855-1.844-2.274-3.357-3.997-4.264l-1.474-.776-101.4-.074L7.851.868l-1.604.599c-2.11.787-3.99 2.663-4.778 4.766l-.6 1.599.074 150.27.073 150.27.9 1.582c1.085 1.909 2.351 2.98 4.629 3.914l1.71.7h100.33c87.557 0 100.51-.05 101.74-.421zm-16.225-23.961c-3.832-1.195-6.156-4.226-6.168-8.045-.011-3.366 1.35-5.312 6.806-9.734 3.924-3.18 5.341-4.668 6.388-6.711 1.343-2.62 1.448-2.562-4.441-2.472l-5.14.08-.145 1.877-.145 1.878-1.438.09c-1.109.07-1.523-.024-1.81-.416-.456-.622-.512-5.949-.072-6.77.287-.534.694-.56 8.941-.56 6.568 0 8.71.088 8.928.362.401.507-.077 4.46-.783 6.462-.76 2.158-2.345 4.189-5.413 6.936-7.26 6.5-7.842 7.262-7.546 9.88.41 3.64 6.188 5.114 9.27 2.365.856-.762.927-.965.933-2.653.01-1.673.069-1.858.747-2.182.407-.195 1.18-.39 1.719-.435.932-.076.988-.026 1.185 1.076.543 3.04-.693 6.374-2.919 7.87-2.13 1.433-6.216 1.939-8.897 1.103zm-87.042-14.967c-1.364-1.787-3.891-4.922-5.616-6.965-11.534-13.667-14.068-17.76-14.862-24.004-.841-6.62 2.874-12.517 8.664-13.756 1.137-.244 1.804-.215 3.185.138 4.027 1.03 6.4 3.698 7.33 8.24.83 4.06 1.447.32.653-3.965-.628-3.391-1.42-5.991-2.775-9.107-.623-1.433-1.133-2.778-1.133-2.99 0-.307 1.294-.383 6.516-.383 5.281 0 6.515.074 6.515.391 0 .215-.585 1.783-1.3 3.484-1.831 4.362-2.69 7.369-3.077 10.766-.513 4.522.116 5.188 1.204 1.272 1.088-3.918 2.702-6.286 5.239-7.688 1.36-.751 1.842-.858 3.87-.858 2.934 0 4.89.879 7.069 3.178 4.464 4.709 4.562 11.602.271 19.093-1.794 3.132-2.166 3.653-8.951 12.539-2.973 3.893-6.411 8.605-7.64 10.472-1.23 1.867-2.336 3.394-2.46 3.394-.122 0-1.339-1.462-2.702-3.25zm90.192-19.892c-.271-.494-1.584-2.672-2.918-4.839-1.333-2.167-2.825-4.782-3.316-5.812-1.61-3.38-1.314-6.556.728-7.798 1.51-.918 2.92-.774 4.264.438 1.842 1.66 1.903.289.131-2.992-.542-1.004-.91-1.946-.818-2.094.223-.36 5.552-.348 5.776.014.097.156-.16.773-.571 1.372-.759 1.105-1.777 4.039-1.499 4.316.084.084.677-.269 1.319-.783 1.014-.813 1.323-.914 2.358-.776 1.427.191 2.205.824 2.919 2.375.666 1.448.69 3.517.06 5.122-.267.679-1.851 3.444-3.521 6.145-1.67 2.7-3.215 5.203-3.432 5.56-.533.88-.895.818-1.48-.248zM102.382 90.76c-.084-.135.291-1.168.833-2.297 2.06-4.285 3.739-10.92 3.57-14.104-.113-2.158-.685-2.36-.96-.34-.518 3.805-2.583 6.751-5.745 8.194-1.492.681-1.963.759-3.92.646-2.66-.154-4.62-1.082-6.437-3.048-3.458-3.743-4.209-9.602-1.97-15.383 1.646-4.253 3.897-7.582 10.253-15.166 5.15-6.143 8.555-10.347 10.24-12.638.672-.913 1.332-1.661 1.468-1.661.135 0 1.353 1.657 2.706 3.683s4.667 6.543 7.364 10.038c7.81 10.123 10.09 13.71 11.35 17.845 2.125 6.972-.157 13.44-5.7 16.162-1.633.803-2.24.947-3.962.94-4.528-.017-7.528-2.83-9.116-8.543-1.084-3.903-1.698-3.26-1.21 1.266.363 3.362 1.263 6.49 3.106 10.794.703 1.642 1.278 3.182 1.278 3.422 0 .375-.897.436-6.498.436-3.574 0-6.566-.11-6.65-.246zM17.556 80.674c-.075-.121.307-.934.848-1.805.59-.95 1.064-2.162 1.181-3.021l.196-1.436-1.258 1.075c-1.686 1.44-3.255 1.5-4.76.181-2.556-2.239-1.982-5.328 2.232-12.02 1.22-1.938 2.617-4.31 3.104-5.272.486-.961 1.054-1.748 1.261-1.748.207 0 .686.553 1.064 1.228.378.675 1.723 2.853 2.99 4.839 3.193 5.008 4.089 6.974 4.082 8.955-.015 3.99-3.21 6.247-5.726 4.044-.544-.476-1.087-.866-1.207-.866-.484 0 .16 2.468.995 3.806 1.379 2.214 1.338 2.26-1.987 2.26-1.583 0-2.94-.1-3.015-.22zm1.333-27.15l-8.47-.081v-1.545c0-5.47 1.645-8.13 8.955-14.486 3.852-3.349 4.945-4.845 4.943-6.766 0-2.748-1.996-4.33-5.475-4.342-1.458 0-2.118.146-3.073.705-1.445.844-1.945 1.883-1.821 3.778l.09 1.391-1.346.424c-2.095.659-2.273.474-2.273-2.362 0-3.264.896-5.098 3.148-6.448 6.364-3.813 14.84.123 14.89 6.916.025 3.262-1.55 5.542-6.724 9.734-3.78 3.062-5.655 4.999-6.526 6.742-1.305 2.613-1.483 2.513 4.478 2.513h5.212V48.02c0-.921.156-1.831.347-2.022.192-.19.882-.347 1.535-.347.653 0 1.344.156 1.535.347.561.56.47 6.711-.108 7.288-.25.25-.543.423-.651.386-.108-.037-4.008-.104-8.666-.149z" fill="#a7a7a7"/><path d="M0 157.44V0h217.76v314.88H0V157.44zm211.69 156.25c1.97-.922 3.429-2.328 4.35-4.195l.692-1.403v-301l-.682-1.3c-.873-1.665-2.477-3.345-3.95-4.141l-1.159-.626-101.8-.074L7.341.877l-1.858.94C3.438 2.854 1.78 4.726 1.201 6.648c-.24.803-.327 40.43-.327 151.02 0 133.39.049 150.07.44 151.17.86 2.432 2.833 4.325 5.448 5.227 1.427.493 6.142.514 102.41.454l100.91-.063 1.617-.757zm-16.893-23.389c-4.197-.987-6.886-4.248-6.87-8.332.012-3.024 1.57-5.155 7.088-9.693 4.69-3.857 6.78-6.455 6.799-8.455l.01-.65h-10.425v1.698c0 2.037-.343 2.416-2.077 2.292l-1.252-.09V259.56l8.252-.08c4.539-.046 8.546-.01 8.904.077.562.137.65.346.647 1.526-.01 1.753-.684 4.94-1.312 6.18-1.02 2.011-2.947 4.12-6.978 7.64-4.652 4.061-5.604 5.33-5.604 7.47 0 2.586 1.703 4.163 4.78 4.423 2.11.18 3.692-.339 4.768-1.562.77-.874.908-1.252.87-2.38-.025-.736-.034-1.497-.02-1.691.037-.506 2.679-1.244 3.138-.877.234.186.362 1.084.362 2.531 0 3.966-1.859 6.394-5.635 7.357-1.884.481-3.75.525-5.442.127zM107.571 275.8c-.954-1.306-4.08-5.169-6.948-8.585-9.27-11.044-12.225-15.514-13.474-20.385-1.805-7.04.875-13.688 6.352-15.75 3.252-1.224 7.39-.25 9.6 2.26 1.172 1.333 2.248 3.543 2.451 5.037.294 2.162.423 2.551.844 2.551.663 0 .78-.946.447-3.622-.543-4.36-1.978-9.318-3.651-12.618-1.212-2.39-1.528-2.27 5.751-2.181 6.242.075 6.442.096 6.397.655-.025.318-.7 2.138-1.498 4.044-1.845 4.406-2.612 7.345-2.846 10.898-.163 2.481-.128 2.824.282 2.824.307 0 .573-.42.778-1.228 1.066-4.202 1.904-5.852 3.906-7.694 1.809-1.663 3.058-2.153 5.527-2.17 7.558-.05 12.404 8.8 9.503 17.352-1.377 4.06-3.554 7.45-11.1 17.283-3.048 3.972-6.481 8.68-7.63 10.462s-2.284 3.24-2.523 3.24c-.239 0-1.215-1.067-2.169-2.373zm89.16-21.512c-.597-1.072-1.863-3.174-2.813-4.67-.95-1.495-2.197-3.705-2.773-4.91-.883-1.85-1.046-2.499-1.049-4.163 0-1.906.033-2.004 1.07-2.952 1.788-1.636 3.363-1.674 4.923-.117.47.468.974.852 1.121.852.7 0 .014-2.552-1.198-4.458-.697-1.097-.809-1.458-.51-1.647.544-.344 5.09-.31 5.307.041.099.16-.284 1.218-.852 2.35-.985 1.965-1.343 3.714-.759 3.714.15 0 .444-.234.652-.52 1.102-1.516 2.673-1.865 4.2-.936 1.825 1.11 2.565 3.997 1.695 6.61-.27.81-1.857 3.644-3.528 6.297-1.67 2.653-3.229 5.192-3.462 5.641-.233.45-.54.818-.681.818-.141 0-.746-.877-1.343-1.95zm-94.23-163.72c0-.247.31-1.062.688-1.811 1.68-3.328 3.159-8.513 3.656-12.822.304-2.63.198-3.418-.46-3.418-.41 0-.54.397-.833 2.551-.227 1.67-1.373 3.864-2.721 5.208-4.16 4.15-10.838 3.217-14.21-1.987-3.234-4.992-2.634-11.916 1.621-18.698 2.063-3.288 3.544-5.2 10.244-13.217 3.054-3.654 6.285-7.652 7.181-8.883.896-1.231 1.827-2.236 2.068-2.233.241 0 1.15 1.136 2.02 2.519 1.416 2.25 4.83 6.866 11.484 15.53 4.424 5.76 7.163 10.506 8.063 13.972.55 2.118.62 6.113.139 7.897-1.474 5.461-6.81 9.35-11.415 8.32-4.198-.938-6.381-3.611-7.965-9.75-.208-.807-.477-1.228-.783-1.228-.41 0-.444.342-.282 2.823.234 3.554 1.001 6.492 2.846 10.898.799 1.907 1.473 3.727 1.498 4.044.045.56-.155.58-6.396.656-5.664.068-6.443.024-6.443-.37zM17.779 80.499c-.084-.218.181-.887.59-1.487.978-1.438 1.72-3.9 1.298-4.312-.219-.215-.455-.131-.797.282-1.356 1.636-2.985 1.995-4.598 1.014-1.426-.868-1.92-2.082-1.757-4.326.155-2.137.96-3.94 3.687-8.259.905-1.434 2.135-3.48 2.734-4.547.598-1.067 1.201-2.01 1.34-2.097.14-.086.441.14.67.503 6.928 10.995 7.428 11.972 7.428 14.543 0 1.842-.474 2.921-1.75 3.993-1.323 1.11-2.589 1.02-4.04-.288-.71-.64-1.173-.892-1.193-.65-.11 1.303.348 2.708 1.42 4.35.382.586.61 1.204.506 1.372-.3.482-5.35.4-5.538-.091zm-7.165-27.24c-.594-.593.23-5.64 1.27-7.785.829-1.706 2.595-3.607 7.02-7.555 4.83-4.307 5.416-5.104 5.416-7.366 0-1.608-.073-1.796-1.086-2.802-2.077-2.062-5.93-2.212-8.203-.32-.93.775-.992.936-1.014 2.662-.022 1.715-.077 1.864-.834 2.232a5.183 5.183 0 0 1-1.714.433l-.903.038-.09-2.022c-.123-2.829.364-4.316 1.952-5.952 1.023-1.054 1.711-1.474 3.043-1.858 3.478-1.002 7.194-.456 9.756 1.434 2.564 1.89 3.824 5.855 2.817 8.86-.615 1.835-2.58 4.015-6.705 7.434-2.263 1.876-4.454 3.857-4.868 4.402-1.137 1.492-2.042 3.413-1.942 4.118.088.618.176.628 5.157.628h5.068l.076-1.3c.15-2.555.184-2.6 1.956-2.6h1.587V53.451h-8.784c-4.83 0-8.87-.087-8.976-.192z" fill="#949494"/><path d="M0 157.44V0h217.76v314.88H0V157.44zm212.01 156.2c1.784-.874 3.047-2.128 4.072-4.04l.653-1.22.073-150.21c.066-135.5.03-150.34-.378-151.57-.738-2.214-2.183-3.832-4.394-4.918l-1.95-.958H7.387l-1.638.804c-1.888.924-3.514 2.589-4.402 4.505L.727 7.37v300.44l.668 1.473c.894 1.97 2.763 3.74 4.857 4.6l1.714.703 101.2-.066 101.2-.066 1.645-.806zm-17.369-23.477c-2.793-.75-4.486-2.001-5.716-4.223-.727-1.315-.851-1.851-.854-3.704 0-3.458 1.267-5.302 6.637-9.625 1.604-1.292 3.527-2.97 4.274-3.73 1.426-1.45 3.326-4.873 2.998-5.402-.124-.2-1.998-.309-5.355-.309-5.81 0-5.516-.123-5.516 2.304 0 1.468-.25 1.74-1.593 1.74-1.556 0-1.592-.089-1.592-3.9 0-2.97.075-3.577.458-3.724.602-.23 7.201-.222 12.97.017l4.596.19-.194 2.138c-.25 2.745-1.003 5.142-2.132 6.778-.968 1.404-3.693 4.101-7.59 7.512-3.26 2.853-4.166 4.15-4.166 5.963 0 2.846 2.1 4.67 5.38 4.67 3.523 0 5.156-1.36 5.156-4.294v-1.75l1.18-.317c1.93-.518 2.138-.37 2.239 1.596.234 4.544-1.855 7.282-6.256 8.2-1.962.41-3.02.382-4.924-.13zm-87.53-15.077c-1.307-1.708-4.781-5.98-7.72-9.492-2.939-3.513-6.175-7.542-7.192-8.955-3.61-5.019-5.626-10.127-5.619-14.242.01-4.773 2.352-8.938 6.14-10.916 2.086-1.09 5.466-1.153 7.523-.142 2.898 1.424 5.03 4.497 5.364 7.734.106 1.024.321 1.674.588 1.776.72.276.979-.569.806-2.635-.346-4.141-1.77-9.348-3.629-13.274-.5-1.054-.826-2.048-.727-2.21.232-.374 12.498-.398 12.73-.024.09.147-.292 1.303-.85 2.57-2.362 5.359-3.619 10.169-3.623 13.867 0 1.545.072 1.812.477 1.733.33-.064.673-.813 1.103-2.405.764-2.831 1.582-4.443 3.078-6.062 3.673-3.975 10.185-3.185 13.767 1.67 1.64 2.222 2.421 4.75 2.421 7.829 0 5.874-1.962 9.58-12.022 22.707-2.983 3.892-6.392 8.54-7.576 10.327-1.184 1.787-2.267 3.25-2.407 3.25-.14 0-1.325-1.398-2.632-3.106zm89.852-20.434c-.347-.713-1.74-3.075-3.096-5.25-2.888-4.632-3.706-6.559-3.744-8.815-.033-1.934.583-2.982 2.233-3.8 1.344-.667 2.51-.444 3.653.696.465.464.986.843 1.158.843.74 0 .148-2.504-1.04-4.4-.371-.592-.675-1.21-.675-1.372 0-.18 1.074-.294 2.75-.294 2.982 0 3.132.1 2.166 1.453-1.063 1.49-1.88 4.613-1.206 4.613.13 0 .604-.383 1.054-.852 1.063-1.108 2.17-1.342 3.458-.732 1.27.602 1.864 1.5 2.27 3.432.467 2.22-.144 3.782-3.744 9.563l-3.462 5.56c-.602.968-1.073.797-1.775-.645zm-94.344-164.06c-.085-.222.228-1.164.697-2.094 2.395-4.754 4.47-13.95 3.54-15.684-.517-.963-1.059-.29-1.25 1.55-.322 3.123-2.398 6.127-5.263 7.622-2.082 1.086-5.122 1.09-7.439.01-6.47-3.018-8.171-11.662-3.943-20.023 1.805-3.568 4.082-6.635 11.371-15.32 2.4-2.86 5.445-6.597 6.765-8.305 1.32-1.708 2.51-3.105 2.644-3.105.135 0 1.356 1.657 2.714 3.683 1.357 2.025 4.585 6.413 7.173 9.75 9.88 12.741 12.13 17.001 12.115 22.953-.013 5.094-2.324 9.006-6.51 11.02-3.412 1.64-7.372.928-9.813-1.768-1.38-1.524-2.195-3.165-2.938-5.918-.458-1.7-.762-2.339-1.148-2.414-.488-.095-.512.107-.35 2.89.203 3.494 1.035 6.599 3.113 11.624.782 1.889 1.351 3.546 1.267 3.683-.085.137-2.952.249-6.372.249-5.053 0-6.247-.076-6.373-.403zm-84.641-9.974c-.332-.21-.246-.5.471-1.58 1.044-1.572 1.71-3.866 1.255-4.32-.212-.212-.59-.026-1.254.615-1.23 1.19-2.429 1.429-3.83.765-1.676-.793-2.232-1.91-2.086-4.196.148-2.326.82-3.855 3.745-8.514 1.203-1.918 2.53-4.16 2.948-4.983.419-.824.921-1.494 1.118-1.49.395.01 6.2 9.226 7.318 11.622 1.181 2.532.92 5.276-.66 6.928-1.375 1.438-3.01 1.344-4.75-.272-.495-.46-.833-.6-.96-.394-.296.478.594 3.196 1.46 4.46.617.898.69 1.166.371 1.367-.52.329-4.623.323-5.146-.01zm-7.459-27.63c-.098-.255-.025-1.59.162-2.966.631-4.65 1.888-6.39 9.81-13.579 1.636-1.484 3.156-3.048 3.377-3.476 1.686-3.252-.198-6.41-4.096-6.868-1.803-.212-3.638.297-4.8 1.333-.833.743-.945 1.033-1.075 2.791l-.145 1.963-1.278.368c-1.907.549-2.148.227-1.99-2.647.195-3.544 1.272-5.251 4.14-6.564 1.94-.888 6.222-.946 8.386-.113 3.106 1.195 5.382 4.434 5.352 7.617-.028 2.971-1.584 5.289-5.923 8.818-3.916 3.186-5.559 4.735-6.562 6.19-.945 1.37-1.669 3.21-1.478 3.758.094.271 1.417.362 5.282.362 5.844 0 5.509.151 5.509-2.495V45.9l1.52.087 1.52.087v7.221l-8.766.077c-7.814.068-8.786.026-8.945-.386z" fill="#888"/><path d="M0 157.44V0h217.76v314.88H0V157.44zm212.14 156.22c1.848-.972 3.687-3.022 4.286-4.775.413-1.209.456-15.59.456-151.43V7.365l-.824-1.736c-.917-1.934-2.394-3.386-4.373-4.3L210.367.72H7.087l-1.371.68c-1.75.867-3.449 2.562-4.318 4.307L.717 7.076.64 156.716c-.053 104.84.016 150.08.232 151.13.584 2.826 2.762 5.233 5.633 6.225 1.366.472 7.272.497 102.8.437l101.35-.063 1.483-.781zm-17.844-23.61c-2.43-.74-4.73-2.704-5.682-4.851-.594-1.34-.672-4.836-.131-5.856 1.038-1.957 2.975-4.019 6.381-6.79 4.2-3.418 5.488-4.788 6.56-6.977 1.261-2.57 1.307-2.542-4.488-2.634-3.46-.055-5.15.024-5.425.252-.258.214-.4.94-.4 2.044v1.713l-1.52-.087-1.52-.087v-6.933h17.663l-.08 1.734c-.106 2.349-.58 4.337-1.448 6.063-.721 1.434-2.648 3.453-8.825 9.247-3.371 3.162-3.965 4.23-3.558 6.397.306 1.628 2.015 3.145 4.008 3.558 3.926.813 7.248-1.476 6.714-4.626-.206-1.218.047-1.473 1.849-1.86 1.224-.261 1.474.083 1.48 2.04.01 3.674-1.806 6.433-4.89 7.427-1.597.514-5.328.64-6.689.227zm-87.204-15.117c-1.379-1.785-4.986-6.21-8.015-9.834-3.03-3.624-6.31-7.757-7.29-9.184-3.24-4.72-5.217-9.887-5.204-13.608.01-1.65.718-4.587 1.47-6.056.923-1.806 3.046-3.896 4.86-4.785 2.105-1.031 4.981-1.102 7.021-.173 2.946 1.342 5.174 4.396 5.62 7.703.24 1.784.61 2.374 1.188 1.895 1.238-1.025-.594-10.202-3.104-15.546-.872-1.857-1.057-2.492-.777-2.672.202-.13 3.039-.204 6.304-.165l5.936.07-.04.723c-.02.397-.567 1.96-1.213 3.475-.646 1.514-1.502 3.883-1.904 5.265-.902 3.105-1.485 8.204-1.005 8.782.552.664.989-.021 1.682-2.639 1.487-5.616 4.86-8.509 9.53-8.174 6.653.476 11.105 8.103 9.157 15.69-1.11 4.325-3.738 8.616-11.182 18.252-2.85 3.689-6.298 8.369-7.664 10.4-1.366 2.03-2.569 3.722-2.673 3.759-.104.037-1.318-1.393-2.697-3.178zm88.36-22.953c-4-6.584-5.254-9.223-5.27-11.084-.026-2.734 1.313-4.306 3.664-4.306.765 0 1.31.255 2.138 1.001 1.358 1.224 1.844.97 1.454-.76-.29-1.287-1.236-3.28-1.69-3.56-.162-.1-.294-.37-.294-.598 0-.333.549-.416 2.75-.416 1.514 0 2.752.074 2.752.165 0 .09-.34.742-.754 1.447-.982 1.673-1.656 3.899-1.29 4.263.176.177.653-.053 1.315-.633 1.842-1.613 4.286-1.01 5.252 1.297.633 1.511.502 4.066-.294 5.738-.803 1.686-6.77 11.228-7.095 11.346-.121.044-1.308-1.711-2.638-3.9zM102.601 90.35l1.35-3.074c2.306-5.25 3.933-13.788 2.804-14.722-.705-.584-.97-.21-1.183 1.662-.651 5.74-5.984 9.738-11.036 8.273-4.161-1.207-6.812-4.392-7.712-9.265-.666-3.609.565-8.678 3.153-12.976 1.685-2.8 4.53-6.512 10.086-13.165 2.856-3.42 6.157-7.483 7.334-9.028 1.178-1.545 2.232-2.81 2.343-2.81.11 0 1.117 1.398 2.237 3.106s4.482 6.29 7.472 10.183c7.762 10.107 9.933 13.487 11.492 17.893.73 2.066.982 5.749.538 7.88-1.038 4.984-4.82 8.703-9.25 9.1-4.592.411-8.135-2.597-9.607-8.158-.692-2.612-1.13-3.302-1.678-2.643-.49.588.074 5.6.977 8.716.416 1.43 1.333 3.968 2.04 5.64.707 1.674 1.285 3.2 1.285 3.395 0 .268-1.551.353-6.401.353-5.012 0-6.367-.078-6.244-.361zM17.953 80.307c0-.161.382-.974.848-1.805.892-1.591 1.372-3.423 1.039-3.961-.127-.204-.609.05-1.333.703-.946.853-1.352 1.023-2.441 1.023-1.084 0-1.49-.168-2.388-.99-1.048-.958-1.082-1.051-1.079-2.96 0-2.334.923-4.48 3.95-9.217 1.023-1.601 2.247-3.649 2.718-4.55.472-.9 1.02-1.636 1.22-1.637.199 0 .362.114.362.254s1.389 2.448 3.087 5.128c3.496 5.518 4.427 7.485 4.428 9.35 0 3.865-3.43 6.134-5.68 3.756-.451-.477-1-.867-1.22-.867-.619 0-.165 2.154.846 4.017.47.866.855 1.681.855 1.812 0 .13-1.173.237-2.606.237-1.57 0-2.606-.116-2.606-.293zm-7.217-27.268c-.438-.527.066-4.546.806-6.426.897-2.278 2.948-4.663 7.201-8.376 4.563-3.983 5.578-5.23 5.79-7.11.326-2.876-1.626-4.807-5.109-5.056-1.66-.118-2.227-.035-3.306.486-1.788.864-2.35 1.796-2.308 3.832.032 1.583 0 1.654-.851 1.95-2.251.783-2.755.185-2.433-2.89.365-3.483 1.87-5.351 5.127-6.363 4.77-1.48 9.774.294 11.774 4.177.98 1.9 1.092 4.925.248 6.638-.78 1.582-3.044 3.956-6.237 6.542-3.651 2.957-5.672 5.139-6.568 7.092-1.15 2.507-1.229 2.47 4.886 2.379l5.29-.08.146-1.877.144-1.878h2.896v7.222l-8.575.076c-7.17.064-8.632.01-8.921-.339z" fill="#6e6e6e"/><path d="M0 157.44V0h217.76v314.88H0V157.44zM211.96 313.9c2.05-1.102 3.163-2.228 4.116-4.16l.951-1.927V7.373l-.756-1.589c-.907-1.904-2.469-3.509-4.282-4.4l-1.332-.655H6.797l-1.54.851c-1.72.95-2.914 2.178-3.888 3.996l-.653 1.22v301.58l.783 1.48c.988 1.869 3.115 3.752 4.837 4.283 1.138.35 15.951.401 102.97.356 99.002-.052 101.66-.067 102.65-.598zm-17.93-24.051c-3.8-1.327-5.82-3.998-5.808-7.677.011-3.248 1.356-5.145 6.839-9.65 4.759-3.911 7.255-7.062 7.003-8.838l-.094-.66h-10.714l-.145 1.879-.145 1.877-1.274.091c-.82.06-1.365-.045-1.528-.289-.25-.375-.263-5.82-.015-6.518.1-.278 2.121-.361 8.784-.361 6.717 0 8.662.08 8.684.36.076.977-.082 2.833-.362 4.262-.673 3.43-2.253 5.535-7.814 10.41-2.331 2.044-4.537 4.199-4.902 4.788-.91 1.47-1.057 3.696-.331 5.023 1.751 3.2 8.188 3.357 10.03.246.352-.595.476-1.301.408-2.323l-.098-1.469 1.3-.383c.833-.246 1.398-.284 1.577-.105.154.153.266 1.168.249 2.256-.059 3.792-1.73 6.124-5.108 7.125-1.857.55-4.894.53-6.537-.044zm-86.353-14.33c-.993-1.31-4.301-5.373-7.352-9.027-8.48-10.156-10.705-13.368-12.32-17.78-1.6-4.377-1.602-8.6 0-12.008 1.128-2.404 2.628-3.975 4.83-5.055 2.65-1.303 4.94-1.282 7.593.069 2.991 1.522 4.407 3.722 5.182 8.052.185 1.029.354 1.3.811 1.3.541 0 .576-.182.54-2.889-.047-3.596-.83-6.999-2.593-11.266-.722-1.748-1.385-3.405-1.474-3.683-.15-.47.268-.506 6.098-.506 3.443 0 6.26.114 6.26.253 0 .14-.343 1.017-.76 1.95-2.97 6.632-4.871 15.632-3.42 16.188.686.263.933-.15 1.563-2.607.736-2.871 1.783-4.78 3.504-6.385 4.306-4.018 11.433-2.016 14.292 4.014 1.582 3.336 1.643 7.18.179 11.398-1.42 4.089-3.125 6.645-13.608 20.394-1.815 2.38-4.134 5.598-5.153 7.15-1.02 1.551-1.968 2.82-2.108 2.82-.14 0-1.067-1.072-2.06-2.383zm88.421-22.682c-1-1.705-2.507-4.217-3.348-5.58-2.706-4.39-3.223-7.707-1.484-9.519 1.436-1.495 3.922-1.395 4.969.199.47.716 1.087.881 1.4.375.314-.506-.442-3.05-1.313-4.42-.452-.71-.745-1.369-.651-1.462.278-.278 4.996-.193 4.996.09 0 .142-.385.99-.857 1.884-1.756 3.33-1.46 5.061.556 3.245 3.646-3.286 7.149 2.14 4.597 7.122-.873 1.704-6.712 11.142-6.902 11.156-.08.01-.963-1.385-1.963-3.09zm-93.303-162.37c0-.131.531-1.46 1.18-2.953 1.611-3.707 2.882-8.726 3.083-12.184.145-2.477.105-2.832-.332-3-.725-.277-.97.118-1.284 2.08-.53 3.297-2.416 6.04-5.093 7.41-1.791.916-4.802 1.014-6.896.226-4.528-1.705-7.382-7.39-6.572-13.088.823-5.792 3.306-9.896 13.075-21.617 3.393-4.07 6.885-8.385 7.761-9.587.876-1.203 1.748-2.195 1.938-2.205.19-.01 1.32 1.454 2.51 3.253 1.19 1.798 4.563 6.38 7.495 10.183 7.618 9.88 9.666 13.064 11.043 17.175.923 2.755 1.199 5.43.787 7.637-1.543 8.267-9.887 12.39-15.281 7.551-1.757-1.575-2.83-3.502-3.58-6.425-.637-2.486-.875-2.87-1.602-2.592-.437.167-.47.502-.29 2.958.264 3.583.96 6.232 2.918 11.115.875 2.181 1.59 4.042 1.59 4.134 0 .093-2.801.169-6.225.169-3.424 0-6.226-.108-6.226-.24zM17.954 80.179c0-.229.144-.505.32-.613.583-.36 1.701-3.143 1.704-4.243 0-1.349-.34-1.363-1.773-.072-1.351 1.218-2.592 1.326-4.045.351-2.387-1.6-2.056-5.112.937-9.95a469.225 469.225 0 0 0 3.158-5.225c1.072-1.798 2.036-3.265 2.142-3.26.288.015 6.217 9.478 6.987 11.151 1.35 2.932 1.152 5.245-.595 6.988-1.338 1.334-2.64 1.319-4.158-.05-.614-.553-1.2-.921-1.304-.818-.467.465-.103 2.233.826 4.01.557 1.067 1.013 1.987 1.013 2.044 0 .057-1.173.103-2.606.103-2.076 0-2.606-.085-2.606-.416zm-7.239-28.482c0-2.432.805-5.29 2.005-7.125 1.074-1.64 2.15-2.725 8.03-8.084 3.369-3.07 3.986-4.101 3.8-6.343-.217-2.616-2.308-4.182-5.606-4.201-3.373-.02-5.506 1.795-5.256 4.471.145 1.547-.032 1.74-1.892 2.09l-1.081.201.01-2.415c.01-2.842.54-4.275 2.094-5.636 2.01-1.76 6.29-2.496 9.355-1.606 2.966.862 5.439 3.55 5.891 6.406.589 3.715-.743 5.936-6.364 10.608-2.138 1.778-4.395 3.793-5.014 4.478-1.238 1.367-2.486 3.766-2.49 4.783v.65H25.2v-1.847c0-1.994.159-2.197 1.725-2.197 1.312 0 1.488.496 1.397 3.942l-.082 3.135-8.759.076-8.759.077v-1.463z" fill="#575757"/><path d="M0 157.44V0h217.76v314.88H0V157.44zm212.57 156.22c1.633-.958 3.035-2.51 3.846-4.257l.61-1.315v-301l-.808-1.641c-.941-1.912-2.332-3.227-4.421-4.181l-1.49-.68-101.9.073-101.9.074-1.328.778c-1.656.972-3.347 2.815-4.063 4.43C.58 7.148.57 10.612.642 157.921l.073 150.75.654 1.22c1.17 2.185 3.281 3.91 5.427 4.433.478.117 46.67.192 102.65.168l101.78-.044 1.336-.783zm-17.773-23.634c-4.079-1.027-6.782-4.414-6.527-8.178.22-3.25 1.325-4.737 6.99-9.401 2.097-1.727 4.218-3.646 4.714-4.265 1.495-1.869 2.29-3.675 2.172-4.942-.025-.275-1.344-.361-5.535-.361h-5.501v1.698c0 1.964-.364 2.43-1.791 2.294l-.96-.092v-6.933h17.084l.094.984c.146 1.534-.49 4.6-1.32 6.366-.787 1.672-3.622 4.67-8.947 9.46-2.925 2.63-3.582 3.693-3.582 5.795 0 2.738 1.848 4.386 5.187 4.624 3.677.263 5.814-1.377 5.816-4.463 0-.825.111-1.568.246-1.65.134-.084.786-.238 1.447-.344l1.203-.192v2.023c0 3.624-1.274 5.786-4.132 7.012-1.648.708-4.972.99-6.658.565zm-87.043-14.509c-.984-1.31-4.424-5.545-7.645-9.41-7.113-8.534-9.044-11.174-10.918-14.928-2.775-5.559-3.096-10.426-.973-14.753 2.136-4.352 6.901-6.572 11.113-5.176 2.98.988 6.058 4.98 6.072 7.879.01 1.983 1.021 2.833 1.752 1.472.438-.817-.058-5.012-1.039-8.776-.716-2.751-2.524-7.526-3.057-8.075a1.08 1.08 0 0 1-.266-.65c0-.297 1.276-.376 6.033-.376 3.318 0 6.102.07 6.187.155.085.085-.541 1.872-1.393 3.972-1.947 4.8-2.695 7.682-2.919 11.248-.154 2.454-.115 2.832.305 2.993.772.296 1.246-.347 1.607-2.18.451-2.288 2.112-5.528 3.422-6.675 4.608-4.036 11.336-2.154 14.32 4.007.838 1.73.949 2.26 1.052 5.029.097 2.585.011 3.438-.521 5.187-1.304 4.282-3.642 8.028-10.697 17.14-4.527 5.845-7.768 10.31-9.28 12.783-.51.834-1.025 1.517-1.147 1.517-.121 0-1.025-1.073-2.008-2.384zm88.98-21.81c-.597-1.072-1.864-3.175-2.815-4.673-3.29-5.18-4.208-8.017-3.3-10.186.511-1.22 1.454-1.926 2.885-2.157.867-.14 1.17-.017 2.165.88.637.573 1.37 1.042 1.63 1.042.797 0 .56-1.774-.524-3.923-.546-1.084-.93-2.075-.851-2.202.209-.336 4.386-.282 4.598.061.099.16-.091.672-.423 1.137-.72 1.008-1.46 3.004-1.46 3.936 0 1.088.563 1.12 1.626.092 1.886-1.823 4.467-.971 5.282 1.742.764 2.547.176 4.21-3.638 10.28-1.597 2.541-3.056 4.914-3.242 5.271-.186.358-.453.65-.593.65-.14 0-.743-.877-1.34-1.95zm-93.94-163.3c0-.163.375-1.04.833-1.95 1.728-3.428 3.156-8.698 3.66-13.51.151-1.444.092-1.857-.345-2.381-.787-.946-1.301-.403-1.586 1.676-.466 3.398-2.236 6.027-5 7.424-4.564 2.307-9.914.058-12.347-5.191-2.337-5.042-1.114-11.434 3.5-18.293 1.843-2.739 2.22-3.217 8.582-10.856 2.734-3.283 5.983-7.283 7.22-8.89 1.236-1.606 2.345-2.885 2.462-2.841.118.043 1.182 1.526 2.365 3.295 1.183 1.77 4.629 6.449 7.657 10.4 7.747 10.104 9.765 13.321 11.091 17.678.534 1.754.618 2.58.509 5.045-.161 3.64-.876 5.645-2.756 7.73-1.688 1.874-3.106 2.772-5.238 3.317-2.872.734-6.132-.295-8.026-2.533-1.09-1.29-2.36-4.04-2.758-5.981-.377-1.832-.689-2.33-1.461-2.33-.475 0-.544.233-.544 1.84 0 3.845 1.227 8.595 3.617 14.002.534 1.208.908 2.298.832 2.422-.218.35-12.267.28-12.267-.072zm-84.628-9.986c-.095-.095.201-.78.659-1.522s.96-1.915 1.115-2.607c.491-2.18-.136-2.662-1.55-1.19-1.049 1.092-2.38 1.363-3.68.747-1.35-.64-1.97-1.802-1.962-3.677.01-2.079.846-4.001 3.84-8.822 1.361-2.194 2.706-4.476 2.988-5.072.592-1.255.819-1.327 1.372-.434.222.358 1.7 2.73 3.287 5.272 3.287 5.27 3.852 6.519 3.852 8.51 0 2.49-1.04 4.189-2.761 4.511-1.08.202-2.559-.443-3.031-1.324-.356-.663-1.025-.758-1.248-.177-.243.632.35 2.815 1.121 4.131.39.664.707 1.347.707 1.517 0 .327-4.39.454-4.709.137zM10.808 52.69c-.282-.734.42-4.945 1.07-6.41 1.005-2.266 2.703-4.197 6.917-7.87 2.228-1.942 4.396-4.026 4.816-4.632 1.892-2.724 1.335-5.856-1.277-7.185-2.657-1.353-5.774-1.01-7.628.84-1.025 1.023-1.097 1.207-1.097 2.827v1.732l-1.213.307c-.667.169-1.334.233-1.482.141-.148-.09-.21-1.22-.14-2.51.21-3.8 1.52-5.627 4.796-6.688 2.157-.699 6.089-.488 7.884.422 2.868 1.454 4.347 3.62 4.567 6.688.24 3.335-1.255 5.524-6.894 10.09-4.677 3.789-7.11 6.923-6.886 8.87l.093.805H25.047l.145-1.878.145-1.877 1.375-.088 1.376-.088v6.964h-8.551c-7.556 0-8.572-.054-8.729-.46z" fill="#464646"/><path d="M0 157.44V0h217.76v314.88H0V157.44zm212.44 156.3c1.778-.949 3.799-3.342 4.313-5.108.384-1.316.426-18.95.36-151.7l-.073-150.21-.774-1.463c-.904-1.71-2.704-3.425-4.398-4.193-1.165-.527-4.014-.542-102.98-.546L7.108.516l-1.448.675c-2.114.984-3.185 2.01-4.182 4L.592 6.957v150.41c0 135.27.046 150.54.45 151.72.79 2.31 3.237 4.627 5.445 5.155.5.12 46.776.198 102.84.174l101.93-.044 1.191-.636zm-16.992-23.771c-3.165-.548-5.977-2.868-6.791-5.604-1.167-3.92.2-6.64 5.508-10.954 5.437-4.42 7.114-6.31 7.968-8.987.567-1.777.204-1.902-5.542-1.902-5.686 0-5.756.03-5.756 2.476v1.569h-2.606v-6.645H205.602l-.01.795c-.02 1.658-.817 5.214-1.442 6.445-1.042 2.051-2.165 3.293-6.276 6.943-5.844 5.189-6.692 6.374-6.323 8.833.382 2.538 2.666 4.125 5.944 4.128 3.36 0 5.36-1.68 5.294-4.456-.036-1.546-.022-1.575.966-1.9 1.723-.567 1.94-.293 1.788 2.255-.211 3.519-1.572 5.514-4.449 6.521-1.556.545-4.053.759-5.646.483zm-87.626-14.63c-1.085-1.395-4.364-5.401-7.287-8.904-8.01-9.599-10.115-12.548-12.014-16.835-3.253-7.343-1.348-15.092 4.402-17.909 2.185-1.07 5.33-1.128 7.22-.13 2.823 1.488 4.433 3.696 5.028 6.896.557 2.996.892 3.446 1.854 2.486 1.241-1.239-.558-10.165-3.201-15.882-.527-1.141-.885-2.148-.794-2.239.09-.091 2.814-.164 6.052-.164 4.252 0 5.888.092 5.888.332 0 .184-.646 1.919-1.437 3.857-1.852 4.543-2.602 7.312-2.873 10.62-.265 3.224-.177 3.68.713 3.68.553 0 .74-.228 1.013-1.229 1.234-4.532 2.39-6.781 4.193-8.153 1.559-1.186 2.842-1.596 4.996-1.596 3.698 0 6.945 2.316 8.84 6.303.862 1.819.915 2.121.915 5.252 0 2.507-.134 3.712-.548 4.91-1.527 4.429-4.059 8.419-10.997 17.334-2.658 3.416-5.994 7.942-7.412 10.059l-2.577 3.848-1.974-2.536zm89.264-21.266c-.464-.834-1.686-2.863-2.715-4.51-3.714-5.937-4.553-8.345-3.693-10.592.652-1.702 1.692-2.317 3.703-2.19.278.018 1.023.498 1.654 1.067.632.569 1.284.951 1.449.85.775-.478-.34-4.82-1.407-5.478-.812-.5-.124-.74 2.12-.74h2.44l-.992 1.899c-1.684 3.223-1.198 5.376.745 3.3 1.44-1.536 3.77-1.074 4.826.957.681 1.312.635 3.806-.1 5.431-.644 1.422-6.799 11.478-7.042 11.506-.08.01-.524-.666-.988-1.5zm-94.058-163.6c-.092-.091.265-1.11.792-2.265 1.926-4.217 3.622-10.852 3.622-14.175 0-2.857-1.731-2.868-2.093-.013-.633 4.99-4.183 8.386-8.766 8.386-1.668 0-2.324-.15-3.705-.848-5.281-2.67-7.305-9.264-4.984-16.242 1.486-4.47 4.02-8.17 12.723-18.586 2.987-3.574 6.227-7.572 7.2-8.882.974-1.311 1.862-2.384 1.973-2.384.111 0 .559.618.994 1.372 1.248 2.163 4.506 6.664 9.358 12.927 6.649 8.585 9.19 12.596 10.612 16.755.669 1.956.89 6.024.434 7.979-.859 3.682-3.472 6.892-6.543 8.039-5.57 2.079-10.518-1.38-12.029-8.411-.288-1.342-.866-2.262-1.42-2.262-.652 0-.815 1.152-.554 3.905.335 3.54 1.043 6.15 2.909 10.726.8 1.961 1.374 3.697 1.275 3.856-.19.307-11.496.425-11.798.124zm-84.721-10.45c.054-.12.465-.913.913-1.764.453-.86.839-2.08.868-2.745.044-1.029-.037-1.209-.58-1.286-.411-.058-.749.127-.965.53-.183.34-.79.81-1.348 1.043-1.24.517-2.554.174-3.6-.937-.59-.626-.695-1.028-.695-2.664 0-1.687.153-2.231 1.228-4.382 1.393-2.784 5.89-10.237 6.244-10.347.33-.102 6.24 9.303 7.046 11.213 1.257 2.979.568 6.24-1.5 7.101-1.261.526-2.009.337-3.226-.816-1.965-1.86-2.413.169-.738 3.344.434.821.832 1.59.886 1.71.054.119-.966.216-2.267.216-1.3 0-2.32-.098-2.266-.217zm-7.46-27.337c-.22-.571.347-4.408.87-5.887.857-2.422 3.08-4.917 8.811-9.894 1.329-1.154 2.784-2.605 3.234-3.225 2.909-4.006-.178-8.443-5.538-7.958-3.063.277-4.6 1.794-4.695 4.634-.047 1.396-.1 1.49-.974 1.74-1.494.427-1.826.131-1.826-1.626 0-3.373 1.349-5.726 3.979-6.937 1.955-.901 6.56-.916 8.486-.027 3.138 1.448 4.75 3.884 4.758 7.19.01 3.38-1.176 5.02-7.151 9.903-4.143 3.386-5.923 5.518-6.614 7.92-.477 1.658-.414 1.677 5.346 1.677 3.711 0 5.37-.102 5.616-.347.19-.19.347-1.1.347-2.022v-1.675h2.624l-.082 3.394-.082 3.394-8.477.077c-7.085.064-8.502.01-8.634-.331z" fill="#373737"/><path d="M0 157.44V0h217.76v314.88H0V157.44zm212.87 156.22c1.628-.954 2.718-2.197 3.62-4.122l.676-1.444v-301l-.697-1.494c-.838-1.796-2.6-3.57-4.366-4.399l-1.296-.607-102 .006C9.63.606 6.778.62 5.608 1.149c-1.723.78-3.433 2.433-4.287 4.142L.58 6.773l.006 150.81.006 150.81.588 1.3c.97 2.142 3.028 3.983 5.189 4.642.399.122 46.722.2 102.94.173l102.22-.049 1.344-.789zm-19.094-24.152c-3.316-1.179-5.394-4.034-5.362-7.369.029-3.097 1.383-5.003 6.606-9.295 1.592-1.31 3.586-3.11 4.431-4.003 1.643-1.736 3.052-4.383 2.9-5.45-.092-.646-.139-.652-5.412-.73-3.678-.054-5.442.023-5.718.252-.258.213-.4.94-.4 2.045v1.715l-1.23-.09-1.231-.088v-6.355h17.084l-.09 1.588c-.294 5.18-1.64 7.244-8.831 13.537-4.292 3.757-4.978 4.735-4.978 7.097 0 1.39.145 1.957.697 2.73 1.583 2.214 5.878 2.924 8.481 1.402 1.619-.946 2.393-2.384 2.172-4.031-.145-1.078-.1-1.163.827-1.55.539-.224 1.108-.408 1.265-.408.497 0 .677 1.95.35 3.802-.433 2.451-1.369 3.757-3.402 4.75-2.201 1.074-5.84 1.275-8.159.45zm-86.85-15.286a266.973 266.973 0 0 0-5.772-7.106c-10.288-12.173-12.903-16.331-13.922-22.138-.534-3.047-.225-5.535 1.015-8.18 1.173-2.5 2.39-3.781 4.65-4.89 3.408-1.674 6.852-1.125 9.592 1.528 1.51 1.462 2.22 2.907 2.693 5.48.418 2.278.972 2.997 1.787 2.322 1.35-1.118-.346-10.116-3.033-16.09-.468-1.042-.852-1.947-.852-2.011 0-.065 2.686-.118 5.967-.118 4.658 0 5.936.079 5.822.361-.08.199-.76 1.851-1.51 3.672-1.678 4.066-2.616 7.705-2.877 11.155-.17 2.24-.129 2.68.278 3.016.78.646 1.397-.026 1.902-2.073.967-3.922 2.904-6.881 5.303-8.102 1.622-.826 4.355-1.005 6.141-.403 4.11 1.385 6.873 5.29 7.256 10.253.469 6.062-1.823 10.463-12.8 24.586-2.161 2.78-4.995 6.648-6.297 8.594-1.303 1.946-2.445 3.539-2.538 3.539-.094 0-1.356-1.528-2.805-3.395zm90.232-20.077c-.344-.675-1.586-2.743-2.76-4.595-2.93-4.62-3.673-6.314-3.815-8.69-.113-1.903-.094-1.968.901-2.96.842-.84 1.228-1.015 2.238-1.015 1.039 0 1.367.16 2.209 1.076.818.891 1.074 1.021 1.487.755.717-.463.499-2.188-.535-4.223-.467-.919-.85-1.731-.85-1.806 0-.075.978-.135 2.173-.135 1.194 0 2.171.074 2.171.165 0 .09-.317.708-.705 1.372-.387.664-.861 1.834-1.053 2.601-.302 1.209-.286 1.457.124 1.866.437.436.555.39 1.572-.6 1.367-1.331 2.745-1.457 3.932-.36.985.91 1.342 1.87 1.342 3.604 0 2.048-.496 3.16-3.682 8.256-1.588 2.54-3.042 4.91-3.232 5.267-.495.932-.81.812-1.517-.578zm-94.073-163.97c0-.136.442-1.209.983-2.383 2.603-5.653 4.246-14.475 2.902-15.588-.785-.65-1.367.044-1.743 2.076-.484 2.616-1.038 3.785-2.57 5.418-4.323 4.611-11.265 3.249-14.327-2.812-2.043-4.043-1.703-9.408.926-14.628 1.843-3.659 3.592-6.008 11.938-16.033 2.712-3.257 5.692-6.936 6.623-8.176.931-1.24 1.8-2.214 1.932-2.166.131.048 1.218 1.552 2.415 3.343 1.198 1.79 4.513 6.275 7.367 9.966 7.83 10.125 10.47 14.43 11.49 18.748 1.754 7.42-2.43 14.606-8.84 15.186-4.504.407-8.041-2.852-9.495-8.753-.524-2.125-1.132-2.808-1.921-2.154-.407.337-.448.776-.278 3.016.26 3.45 1.199 7.09 2.876 11.155.75 1.821 1.43 3.473 1.51 3.672.114.282-1.163.361-5.821.361-3.282 0-5.967-.112-5.967-.248zM18.243 80.141c0-.095.263-.541.585-.992.752-1.053 1.442-3.007 1.442-4.081 0-1.297-.745-1.348-1.987-.138-.874.852-1.296 1.05-2.232 1.05-.634 0-1.457-.212-1.828-.471-.758-.53-1.482-2.044-1.482-3.1 0-1.667 1.267-4.591 3.649-8.422 1.378-2.217 2.777-4.588 3.108-5.268.331-.68.726-1.194.878-1.144.48.16 6.52 10.05 7.13 11.674.65 1.733.717 2.657.298 4.112-.74 2.573-3.26 3.461-4.972 1.753-.478-.477-1.138-.867-1.466-.867-.548 0-.583.121-.422 1.476.099.834.558 2.153 1.056 3.033l.881 1.558h-2.319c-1.275 0-2.319-.078-2.319-.172zM13.9 52.889l-3.04-.163.09-1.444c.12-1.949.776-4.502 1.536-5.989.66-1.29 3.375-4.09 8.3-8.556 1.636-1.485 3.232-3.202 3.546-3.815 1.017-1.989.656-4.202-.926-5.676-1.752-1.632-5.201-2.038-7.473-.88-1.84.937-2.467 1.93-2.47 3.91v1.63l-1.1.26c-.603.142-1.188.168-1.3.056-.314-.317-.15-3.759.237-4.926.505-1.527 1.803-2.856 3.542-3.627 1.226-.543 2.029-.675 4.128-.677 3.044 0 4.793.625 6.612 2.377 1.329 1.28 1.813 2.144 2.223 3.972.754 3.358-.712 6.01-5.462 9.881-1.696 1.382-3.938 3.36-4.982 4.397-2.006 1.99-3.574 4.673-3.409 5.834l.095.673H25.34l.145-1.878.145-1.878h2.316v6.644l-5.501.02c-3.026.01-6.87-.056-8.543-.145z" fill="#262626"/><path d="M0 157.44V0l108.88.002 108.88.002v314.88H0v-157.44zm212.87 156.35c1.414-.877 3.074-2.747 3.742-4.215.53-1.164.544-5.061.544-151.99 0-146-.017-150.83-.534-151.97-.756-1.66-2.206-3.21-3.919-4.19l-1.47-.841L108.893.58 6.553.578l-1.3.628c-1.652.798-3.411 2.547-4.114 4.092-.534 1.174-.548 4.77-.554 152.22-.006 134.95.041 151.13.437 152.08.948 2.264 3.079 4.22 5.127 4.708.52.123 47.007.205 103.31.18l102.36-.043 1.058-.657zm-18.432-24.141c-4.036-1.333-6.133-4.227-5.884-8.121.104-1.64.274-2.11 1.288-3.552.69-.982 2.461-2.721 4.33-4.253 5.981-4.901 8.387-7.866 8.173-10.07l-.089-.915h-11.293l-.144 1.877-.145 1.878-1.086.09-1.086.09v-6.68h16.795v1.316c0 2.276-.832 5.183-2 6.984-.599.925-2.377 2.849-3.95 4.274-7.466 6.766-7.95 7.362-7.95 9.805 0 3.238 2.82 5.336 6.699 4.985 3.112-.282 4.884-1.98 4.884-4.68 0-1.456.028-1.507.997-1.804.549-.168 1.07-.233 1.159-.144.275.275.173 3.62-.146 4.766-.72 2.584-3.47 4.275-7.222 4.441-1.29.057-2.642-.059-3.33-.286zm-86.722-14.577c-1.034-1.382-4.167-5.243-6.963-8.58-9.363-11.177-11.662-14.644-13.047-19.68-.492-1.79-.587-2.78-.482-4.997.181-3.83.938-5.697 3.236-7.991 2.204-2.199 3.912-2.86 6.848-2.65 4.147.296 7.062 3.302 7.833 8.08.347 2.152.403 2.25 1.26 2.25 1.027 0 1.312-1.175.987-4.073-.474-4.224-1.825-9.083-3.48-12.513-.453-.941-.779-1.756-.723-1.812.056-.056 2.719-.066 5.917-.023l5.815.078-.99 2.238c-2.366 5.351-3.837 11.472-3.558 14.805.078.932.22 1.173.73 1.246.806.114 1.359-.741 1.832-2.834.435-1.923 1.521-4.234 2.607-5.549 2.197-2.658 6.345-3.475 9.586-1.886 4.09 2.004 6.786 7.25 6.186 12.042-.675 5.393-3.138 9.728-11.992 21.103-2.411 3.098-5.52 7.347-6.908 9.442-1.388 2.096-2.589 3.812-2.668 3.814-.08 0-.991-1.128-2.026-2.51zm89.472-21.065c-.398-.75-1.556-2.667-2.573-4.26-2.36-3.696-3.831-6.765-4.012-8.362-.198-1.753.37-3.273 1.476-3.946 1.371-.834 2.333-.708 3.65.478.657.593 1.369.99 1.665.929.815-.166.612-2.391-.391-4.297a89.25 89.25 0 0 1-.923-1.783c-.119-.262 3.83-.293 4.092-.033.102.102-.06.527-.358.945-.72 1.007-1.54 3.553-1.419 4.4.15 1.05 1 .984 2.085-.163 1.307-1.383 2.473-1.406 3.806-.076 1.903 1.898 1.69 4.798-.63 8.576-.73 1.192-2.257 3.69-3.392 5.55-1.134 1.862-2.127 3.39-2.207 3.395-.08.01-.471-.603-.869-1.353zm-94.107-163.74c0-.085.311-.767.691-1.517 1.851-3.65 3.6-10.298 3.715-14.128.068-2.26-.107-2.69-1.1-2.69-.793 0-1.28.882-1.28 2.32 0 1.379-1.103 3.893-2.308 5.26-.725.82-1.78 1.572-2.93 2.087-1.548.693-2.063.786-3.709.667-3.563-.256-6.184-2.224-7.942-5.965-.764-1.625-.917-2.329-1.013-4.672-.143-3.499.352-5.552 2.26-9.374 1.842-3.693 3.844-6.44 10.513-14.427 2.97-3.556 6.328-7.68 7.462-9.163 1.135-1.483 2.156-2.732 2.27-2.775.114-.043.505.45.868 1.095.979 1.737 5.153 7.471 10.195 14.004 6.996 9.065 9.32 13.08 10.26 17.72.404 1.994.433 2.772.171 4.53-.749 5.025-3.48 8.36-7.837 9.568-1.485.412-1.986.432-3.316.135-3.429-.766-5.667-3.211-6.95-7.593-1.017-3.472-1.01-3.46-1.877-3.36l-.76.088.06 2.934c.072 3.582.771 6.48 2.715 11.249.783 1.922 1.424 3.644 1.424 3.828 0 .24-1.613.332-5.791.332-3.185 0-5.791-.069-5.791-.154zM18.529 80.153c0-.087.328-.77.729-1.517.4-.747.808-1.844.905-2.437.184-1.128.68-1.224.686-.132 0 .348.393 1.399.869 2.335.476.935.865 1.748.865 1.805 0 .057-.912.104-2.027.104-1.115 0-2.027-.071-2.027-.158zm-4.316-4.919c-1.25-1.05-1.58-2.491-1.04-4.559.517-1.978 1.148-3.25 3.32-6.693a127.509 127.509 0 0 0 2.763-4.601c.826-1.474 1.183-1.887 1.366-1.582.136.227 1.67 2.688 3.409 5.468 3.292 5.266 4.209 7.485 3.856 9.335-.62 3.258-3.109 4.422-5.055 2.365-1.069-1.131-1.526-1.248-1.972-.506-.29.481-.318.481-.608 0-.458-.762-1.08-.615-2.139.506-1.213 1.283-2.578 1.376-3.9.267zm-3.208-23.446c.01-1.8.79-4.916 1.608-6.417.956-1.752 2.762-3.639 7.185-7.507 4.184-3.658 5.101-4.963 5.101-7.254 0-3.123-2.337-5.033-6.116-4.999-3.443.031-5.627 1.962-5.422 4.793.078 1.084.01 1.227-.775 1.56-1.514.644-1.586.567-1.583-1.701 0-2.495.878-4.685 2.261-5.668 1.943-1.38 5.022-1.981 7.517-1.467 4.443.916 7.001 3.707 7.001 7.64 0 3.134-1.445 5.175-6.647 9.385-4.786 3.874-7.239 6.978-7.239 9.16 0 1.175.285 1.234 5.953 1.24 3.277 0 4.792-.103 5.129-.358.331-.25.504-.894.562-2.094l.083-1.734h2.316v6.356l-8.47.077-8.469.077.01-1.088z" fill="#161616"/><path d="M.01 157.44V0l108.87.004 108.87.004v314.86l-4.704-.03c-4.69-.03-4.698-.031-2.5-.365 1.213-.184 2.451-.521 2.752-.75 1.49-1.13 2.545-2.305 3.179-3.541l.699-1.365V6.277l-.787-1.442c-.793-1.454-2.464-3.106-3.9-3.857-.666-.348-15.704-.408-103.6-.412C6.34.561 6.07.563 4.93 1.144c-1.461.744-3.021 2.3-3.766 3.756C.58 6.038.58 6.297.583 157.61l.002 151.57.824 1.466c1.255 2.234 3.11 3.495 5.645 3.843 1.948.266 1.8.286-2.489.325l-4.559.042v-157.44zm193.74 131.81c-.736-.26-1.923-1.077-2.798-1.927-1.201-1.167-1.622-1.828-2.004-3.148-1.085-3.757.35-6.393 5.869-10.79 5.117-4.074 7.36-6.81 7.8-9.516.118-.731.047-1.124-.235-1.302-.644-.407-11.079-.332-11.495.082-.191.19-.347 1.1-.347 2.022v1.675h-2.027v-6.066h16.767l-.157 1.517c-.569 5.489-1.263 6.488-10.084 14.503-3.289 2.988-4.067 4.31-3.852 6.543.37 3.833 5.388 5.991 9.327 4.011 1.97-.99 2.622-1.962 2.622-3.916 0-1.462.054-1.583.829-1.853 1.26-.438 1.438-.148 1.255 2.035-.27 3.213-1.55 5.066-4.176 6.046-1.893.707-5.41.747-7.294.083zm-85.823-14.23c-.924-1.257-3.842-4.86-6.483-8.007-2.642-3.147-5.478-6.566-6.304-7.599-7.537-9.428-9.548-16.37-6.565-22.666 1.041-2.197 2.445-3.628 4.587-4.677 5.023-2.46 10.603.666 11.679 6.544.189 1.033.456 2.17.594 2.528.292.757 1.178.852 1.835.196 1.29-1.287-.396-10.322-3.011-16.137l-.825-1.835.878-.176c1.139-.227 8.29-.227 9.427 0l.874.174-1.293 3.075c-1.805 4.293-2.643 7.372-2.985 10.965a165.687 165.687 0 0 0-.293 3.284c0 .344.895 1.104 1.302 1.104.74 0 1.234-.84 1.694-2.868 1.474-6.513 6.04-9.72 11.296-7.935 1.626.553 4.178 2.787 5.232 4.581 2.317 3.945 1.99 10.116-.794 14.994-.374.657-.98 1.714-1.344 2.35-.937 1.634-4.83 6.945-9.421 12.855-2.16 2.78-4.87 6.51-6.02 8.288-1.15 1.778-2.155 3.236-2.235 3.24-.08 0-.9-1.02-1.825-2.278zm89.283-21.363c-.33-.645-1.601-2.763-2.826-4.708-2.787-4.426-3.54-6.207-3.548-8.407-.01-1.48.095-1.785.84-2.527 1.249-1.247 2.763-1.185 4.076.166.986 1.015 1.824 1.283 2.187.697.14-.226.282-.226.51 0 .529.529 1.013.358 1.975-.697 2.091-2.292 4.883-.593 4.883 2.971 0 2.335-.176 2.706-4.615 9.74-1.304 2.065-2.486 3.796-2.627 3.846-.14.05-.525-.436-.855-1.081zm.874-16.92c-.013-.318-.403-1.325-.868-2.239l-.844-1.66H200.075l-.601 1.017c-.331.56-.774 1.567-.985 2.239-.21.671-.393.96-.405.643zm-93.49-149.41c2.21-5.276 3.759-13.398 2.87-15.053-.374-.698-1.52-.855-1.98-.271-.157.198-.37 1.01-.472 1.805-.474 3.648-2.13 6.142-5.012 7.549-5.338 2.606-11.318-1.312-12.556-8.227-.462-2.578-.046-5.552 1.227-8.763 1.704-4.303 3.763-7.243 11.707-16.723 3.087-3.684 6.427-7.785 7.421-9.114.995-1.33 1.873-2.416 1.953-2.416.08 0 .724.942 1.432 2.093 1.349 2.19 4.284 6.182 9.715 13.214 6.42 8.31 8.962 12.603 9.868 16.666 1.308 5.866-.815 11.275-5.425 13.822-1.354.748-1.833.854-3.863.85-1.67 0-2.583-.148-3.273-.52-2.462-1.332-4.516-4.483-5.256-8.07-.369-1.783-.887-2.528-1.76-2.528-1.023 0-1.212.94-.87 4.343.361 3.608 1.177 6.605 3.004 11.04l1.28 3.106H103.42l1.174-2.803zm-85.763-7.38c0-.04.326-.712.724-1.494.397-.781.722-1.594.722-1.805 0-.211.13-.384.29-.384.16 0 .29.162.292.36 0 .2.322 1.044.71 1.878l.709 1.517h-1.724c-.949 0-1.724-.033-1.723-.072zm-4.733-5.016c-1.704-1.7-1.168-4.77 1.62-9.268a199.18 199.18 0 0 0 3.196-5.37c.793-1.394 1.472-2.5 1.508-2.455.326.396 6.07 9.746 6.569 10.693.476.904.652 1.739.66 3.133.01 1.645-.099 2.042-.8 2.96-.697.911-.976 1.062-1.972 1.062-.922 0-1.324-.18-1.96-.876-.568-.62-1.049-.865-1.65-.841-.466.018-1.126-.054-1.468-.162-.48-.15-.836.04-1.567.842-.798.875-1.134 1.037-2.162 1.037-.926 0-1.398-.181-1.974-.755zm-2.905-22.296c-.18-.29.285-3.93.665-5.211.737-2.49 2.418-4.444 8.14-9.463 4.393-3.855 5.057-4.819 5.057-7.337 0-1.645-.113-2.074-.78-2.945-1.05-1.375-2.59-2.061-4.941-2.204-1.69-.103-2.179-.01-3.58.673-1.345.657-1.72 1.012-2.192 2.075-.406.916-.515 1.595-.382 2.378.179 1.057.152 1.103-.755 1.284-.62.123-1.024.063-1.184-.177-.395-.591.053-3.726.734-5.13 2.094-4.325 10.414-4.621 13.952-.497 1.824 2.127 2.33 5.45 1.17 7.688-.699 1.349-3.281 3.993-6.23 6.382-4.91 3.976-7.445 7.309-7.197 9.46l.092.798 5.609.08c3.892.053 5.731-.024 6.008-.253.257-.212.4-.938.4-2.028V46.51h2.027v6.355H19.57c-4.53 0-8.3-.103-8.378-.23z"/></svg>