<svg xmlns="http://www.w3.org/2000/svg" height="335.872" width="232.28" viewBox="0 0 217.7622 314.88"><path d="M.002 157.44V0h217.76v314.88H.002V157.44z" fill="#fdfdfd"/><path d="M.002 157.44V0h217.76v314.88H.002V157.44zm211.6 155.6c1.776-.963 3.67-2.989 4.191-4.482.292-.836.38-31.116.44-150.53.065-134.48.028-149.64-.377-151.03-.58-1.987-2.367-3.96-4.41-4.866l-1.53-.678h-100.98c-90.401 0-101.11.05-102.28.451-1.75.601-4.188 3.007-4.768 4.705-.396 1.159-.443 17.363-.443 151.14 0 136.63.04 149.94.463 150.96a8.42 8.42 0 0 0 5.557 4.903c1.092.294 21.383.357 101.99.314l100.62-.054 1.524-.827zm-204.75-6.732c-.106-.106-.193-.431-.193-.722 0-.373.215-.53.724-.53.58 0 .724.144.724.722 0 .508-.158.722-.53.722-.293 0-.619-.087-.725-.192zm-3.45-2.599c.199-.08.362-.533.362-1.007 0-.762.076-.839.651-.66.753.235 1.075.638 1.081 1.353.004.406-.236.501-1.226.483-.677-.012-1.068-.088-.868-.169zm182.39-13.743c-.52-1.931-.273-2.521 2.187-5.248a666.174 666.174 0 0 0 2.906-3.235c.533-.605.528-.61-1.251-1.257-2.27-.826-4.08-2.475-5.044-4.594a59.427 59.427 0 0 0-.95-2.017c-.403-.749.158-6.476.802-8.193 1.687-4.495 6.724-7.239 12.076-6.579 2.444.301 4.083 1.192 6.318 3.432 1.946 1.952 2.679 3.417 2.176 4.353-.144.269-.858.803-1.587 1.187l-1.326.698-1.908-2.103c-2.253-2.485-3.127-2.995-5.159-3.014-2.157-.019-3.42.49-4.728 1.905-5.01 5.423-.118 13.434 6.225 10.195 1.89-.966 2.249-.963 3.376.025.713.624.878.963.762 1.565-.081.426-1.534 2.341-3.26 4.3-2.076 2.355-3.112 3.758-3.112 4.212 0 .668.054.681 2.737.681h2.738l.085-1.95.086-1.95h4.633V290.468l-9.304.076-9.303.076-.176-.654zm-80.247-14.303c-.778-1.072-1.814-2.424-2.3-3.003-.487-.58-1.297-1.555-1.799-2.167-.502-.612-3.083-3.713-5.735-6.89-9.31-11.152-12.008-16.311-12.023-22.982-.012-5.23 3.356-10.422 7.571-11.671 1.738-.515 4.25-.576 5.818-.142.599.166 1.902.854 2.896 1.53 1.555 1.056 1.96 1.528 2.893 3.38 1.195 2.37 1.302 2.215.645-.934-.595-2.853-1.616-5.925-2.996-9.014-.631-1.412-1.079-2.745-.996-2.961.122-.318 1.52-.394 7.215-.394h7.063v.854c0 .47-.505 2-1.123 3.4-1.522 3.452-2.889 7.798-3.088 9.822l-.164 1.668 1.013-2.098c2.16-4.474 4.714-6.28 8.864-6.268 3.47.01 6.36 1.624 8.735 4.875 1.697 2.322 2.559 6.847 1.97 10.335-.917 5.418-3.478 9.8-12.298 21.047-4.054 5.169-4.644 5.976-7.537 10.313-1.423 2.133-2.348 3.25-2.69 3.25-.309 0-1.092-.79-1.934-1.95zm-1.401-38.854c-.08-.198-.146-.036-.146.361 0 .398.065.56.146.361.08-.198.08-.523 0-.722zm5.212 0c-.08-.198-.146-.036-.146.361 0 .398.066.56.146.361.08-.198.08-.523 0-.722zm84.789 18.055c-1.407-2.56-4.755-7.937-5.17-8.305-.714-.631-1.76-4.329-1.757-6.21.004-3.153 1.146-4.462 4.206-4.824 1.244-.147 1.54-.078 2.156.499.393.368.715.598.715.51 0-.37-.977-2.455-1.481-3.163-.3-.422-.546-1.04-.546-1.373 0-.582.138-.605 3.62-.605 4.241 0 4.261.021 2.605 2.765-.557.923-1.013 1.784-1.013 1.912 0 .342.411.286.808-.11.5-.499 2.95-.415 4.006.138 1.82.95 2.598 4.654 1.598 7.602-.49 1.442-3.928 7.357-6.112 10.515a18.558 18.558 0 0 0-.987 1.66c-.765 1.478-1.418 1.229-2.648-1.01zm-89.21-73.23c-2.261-2.96-5.835-7.322-9.383-11.455-5.037-5.868-7.751-9.708-9.615-13.605-.646-1.35-1.304-2.538-1.462-2.64a.357.357 0 0 1-.1-.487c.103-.167-.043-.44-.325-.605-.355-.209-.411-.37-.184-.523.227-.154.255-.669.09-1.667-.576-3.48-.106-6.589 1.46-9.654 1.585-3.104 4.848-5.367 8.245-5.716 3.217-.332 7.125 1.62 8.863 4.426.35.565.873 1.764 1.161 2.664.655 2.042.675 1.745.1-1.529-.566-3.23-1.917-7.49-3.198-10.083-1.07-2.168-1.227-3.206-.52-3.476.251-.096 3.288-.175 6.748-.175 4.887 0 6.414.089 6.837.398.525.382.493.525-.815 3.683-1.79 4.322-3.029 8.292-3.268 10.475-.228 2.086-.082 2.053.696-.16 1.141-3.248 3.65-5.86 6.354-6.616 1.798-.502 5.427-.189 6.956.602 1.69.874 3.986 2.986 4.856 4.466.396.674.996 2.315 1.333 3.647 1.426 5.625-.085 10.733-5.478 18.524-2.274 3.284-6.155 8.403-9.55 12.595-.685.845-2.484 3.413-3.999 5.705-1.514 2.292-2.93 4.168-3.146 4.168-.216 0-1.41-1.333-2.655-2.961zm4.426-37.247c-.092-.23-.16-.162-.175.175-.012.304.056.475.152.379.097-.096.107-.345.023-.554zm-9.615-52.924c-.534-.39-.513-.489.634-2.96 1.83-3.946 3.102-8.044 3.412-10.988l.177-1.682-.553 1.354c-.7 1.713-1.74 3.409-2.497 4.07-1.032.9-3.143 1.865-4.858 2.218-4.026.83-8.438-1.361-10.625-5.276-3.51-6.283-1.803-14.338 4.867-22.964.897-1.16 1.957-2.541 2.355-3.068.62-.82 3.29-4.018 8.171-9.788a56.24 56.24 0 0 0 1.787-2.216c3.239-4.38 4.165-5.51 4.652-5.672.643-.214.534-.341 3.257 3.788 1.7 2.578 4.788 6.749 9.263 12.508 8.72 11.224 11.149 16.683 10.227 22.976-.9 6.141-4.83 10.187-10.219 10.52-4.488.276-7.796-2.094-9.663-6.925l-.701-1.814.14 1.877c.17 2.288.942 4.848 2.808 9.312 1.495 3.579 1.707 4.67.958 4.957-.252.096-3.289.175-6.749.175-4.924 0-6.411-.088-6.843-.403zm9.615-16.695c-.092-.23-.16-.162-.175.175-.012.304.056.475.152.379.097-.096.107-.345.023-.554zm-5.212-.289c-.092-.23-.16-.162-.175.175-.012.304.056.475.152.379.097-.096.107-.345.023-.554zM15.2 80.595c-.126-.398.055-.869.57-1.48.633-.75 1.604-2.593 1.604-3.044 0-.07-.29.077-.644.324-.38.265-1.253.45-2.129.45-3.658 0-5.384-3.317-3.926-7.545.669-1.938 1.541-3.567 4.033-7.533 1.068-1.7 2.305-3.755 2.748-4.569.63-1.154.942-1.459 1.419-1.388.336.05.755.347.93.66.176.314 1.22 2.004 2.319 3.756 4.632 7.382 5.064 8.255 5.293 10.706.143 1.528.06 2.031-.569 3.4-.498 1.084-1.022 1.752-1.616 2.059-1.127.58-3.2.583-4.03 0-.876-.613-.847-.042.076 1.46 2.015 3.283 1.985 3.323-2.428 3.323-3.22 0-3.477-.041-3.65-.584zm.769-27.891c-3.177-.899-6.989-4.623-6.992-6.83 0-.583.277-.973 1.08-1.517 1.55-1.051 2.23-.954 3.263.469 3.068 4.225 7.056 4.88 10.352 1.699 1.565-1.51 1.94-2.49 1.948-5.087.006-2.012-.093-2.48-.717-3.415-.883-1.321-3.037-2.487-4.594-2.487-.693 0-1.852.353-2.961.902-2.03 1.004-2.368.944-3.262-.577-.666-1.136-.493-1.894.742-3.248 1.702-1.866 5.29-6.083 5.528-6.496.192-.335-.314-.403-2.968-.403h-3.2v1.723c0 2.014-.325 2.321-2.46 2.321-2.41 0-2.462-.09-2.462-4.175 0-1.968.08-3.783.176-4.034.155-.403 1.243-.457 9.256-.457 8.68 0 9.093.024 9.38.559.164.307.3 1.01.3 1.563 0 1.044-.082 1.162-3.837 5.57-.916 1.074-1.665 2.026-1.665 2.115 0 .09.528.327 1.174.528 5.041 1.57 7.336 6.802 5.917 13.488-.703 3.308-2.917 5.882-6.37 7.406-1.83.807-5.478.99-7.628.382zM3.387 20.62c-.35-.35-.222-1.482.185-1.638.624-.239 1.118.241 1.012.983-.095.673-.795 1.055-1.197.655zm.665-3.267c0-.15.13-.353.29-.45.16-.099.29.023.29.271 0 .248-.13.45-.29.45-.16 0-.29-.122-.29-.271zm0-2.184c0-.265.14-.435.312-.378.17.057.311.227.311.378 0 .15-.14.321-.311.378-.171.057-.312-.113-.312-.378z" fill="#f4f4f4"/><path d="M.002 157.44V0h217.76v314.88H.002V157.44zm210.88 156.12c1.652-.561 3.789-2.397 4.64-3.986l.64-1.192V6.802l-.63-1.175c-.755-1.406-2.563-3.096-4.069-3.802-1.04-.487-6.033-.512-102.58-.512H7.393l-1.329.613c-1.696.783-3.353 2.436-4.137 4.128L1.312 7.38l-.087 149.35c-.064 107.49 0 149.76.23 150.83.606 2.83 2.585 5.04 5.418 6.047.916.327 17.867.394 101.89.404 90.987.012 100.92-.032 102.13-.442zm-203.93-7.778c0-.297.19-.44.507-.378.61.117.572.63-.057.76-.262.054-.45-.104-.45-.382zm-2.877-2.289c-.45-.54-.164-1.033.598-1.033.433 0 .558.16.49.627-.116.784-.618.972-1.088.406zm182.17-13.224c-.191-.19-.347-.915-.347-1.61 0-1.188.166-1.451 2.75-4.348 2.686-3.012 3.174-3.806 2.341-3.806-.88 0-3.264-1.242-4.33-2.256-.615-.586-1.495-1.846-1.954-2.8-.75-1.558-.834-2.028-.834-4.663 0-4.261.697-6.334 2.85-8.477.905-.9 2.416-2.01 3.375-2.478 1.57-.765 2.019-.847 4.633-.847 2.58 0 3.075.087 4.535.803 1.768.866 3.477 2.371 4.87 4.289 1.177 1.622 1.13 2.309-.227 3.246-1.05.727-2.373 1.022-2.373.53 0-.127-.678-.99-1.507-1.918-2.344-2.623-4.292-3.243-7.35-2.337-4.866 1.442-6.278 9.16-2.172 11.87 1.732 1.144 3.853 1.255 5.862.307.882-.417 1.875-.757 2.207-.757.73 0 1.88 1.508 1.75 2.294-.051.309-1.758 2.453-3.793 4.766l-3.7 4.206h7.255v-1.847c0-2.097.107-2.2 2.268-2.193 2.149.01 2.207.105 2.317 3.858.06 2.072-.024 3.533-.227 3.91-.318.593-.494.605-9.088.605-6.43 0-8.856-.092-9.11-.347zm-80.27-14.314c-1.406-1.988-4.467-5.779-9.97-12.349-8.48-10.125-10.937-14.248-11.96-20.074-1.046-5.959 1.484-11.598 6.256-13.94 3.651-1.794 7.695-1.117 10.628 1.78 1.502 1.484 2.482 3.436 2.914 5.802l.343 1.878.027-1.479c.065-3.419-1.739-10.318-3.72-14.234-1.001-1.978-1.081-2.493-.427-2.744.735-.281 12.965-.193 13.424.097.496.313.358.802-1.39 4.936-1.714 4.053-2.64 7.52-2.807 10.52l-.147 2.616.58-2.112c1.025-3.739 3.016-6.553 5.601-7.921 1-.529 1.693-.647 3.827-.65 2.204 0 2.852.11 4.2.74 2.87 1.343 5.342 4.456 6.255 7.877.527 1.977.509 5.722-.038 7.855-1.116 4.347-3.83 8.746-11.588 18.78-2.819 3.646-6.226 8.287-7.57 10.313-1.596 2.404-2.623 3.683-2.956 3.683-.281 0-.948-.618-1.481-1.372zm88.431-20.944c-.422-.834-1.748-3.076-2.947-4.983-3.158-5.025-3.936-6.8-4.051-9.244-.074-1.569.027-2.244.45-3.01 1.126-2.04 4.15-2.712 5.836-1.297.785.658.89.684.886.216-.005-.48-.938-2.348-2.038-4.078-.63-.992-.025-1.21 3.383-1.215 3.626-.01 3.923.214 2.762 2.041-.681 1.073-1.496 2.906-1.496 3.366 0 .069.439-.146.975-.477 2.543-1.567 5.321.01 5.962 3.378.411 2.164-.229 4.259-2.36 7.72a1764.03 1764.03 0 0 0-3.67 5.995c-1.268 2.08-2.062 3.105-2.408 3.105-.332 0-.79-.54-1.284-1.517zm-90.36-74.819a283.159 283.159 0 0 0-6.775-8.305c-6.729-7.882-9.817-12.216-11.634-16.327-2.303-5.209-2.242-10.855.16-14.943 3.2-5.448 10.245-6.779 14.785-2.792 1.568 1.377 3.04 4.171 3.363 6.38l.224 1.54.03-1.878c.052-3.284-1.664-9.741-3.637-13.68-.545-1.09-.922-2.162-.837-2.384.126-.328 1.412-.402 6.978-.402 7.81 0 7.617-.071 6.536 2.416-2.651 6.095-3.674 9.595-3.912 13.38l-.16 2.547.559-2.067c.757-2.8 1.824-4.806 3.38-6.359 1.86-1.855 3.523-2.538 6.199-2.545 1.877-.01 2.44.123 4.084.93 4.712 2.314 7.28 7.568 6.6 13.507-.612 5.356-2.905 9.34-12.39 21.521-2.29 2.94-5.4 7.197-6.913 9.46-1.514 2.265-2.907 4.117-3.096 4.117-.19 0-1.785-1.852-3.544-4.116zm-4.34-89.066c-.096-.249.355-1.581 1.002-2.96 2.03-4.325 3.582-10.355 3.5-13.596l-.035-1.334-.226 1.3c-.912 5.235-4.35 8.594-9.097 8.886-2.779.171-4.82-.603-7.074-2.685-3.082-2.847-4.517-7.267-3.825-11.785.923-6.027 3.815-10.787 13.483-22.183 2.342-2.761 5.438-6.58 6.879-8.487 1.441-1.906 2.862-3.508 3.158-3.559.36-.062.705.214 1.043.831.99 1.813 5.44 8.016 9.623 13.416 9.995 12.906 12.148 17.228 11.81 23.706-.122 2.306-.286 2.99-1.155 4.816-1.722 3.617-3.964 5.56-7.444 6.449-5.284 1.35-9.555-1.711-11.507-8.25l-.646-2.167-.016 1.485c-.033 3.204.967 6.937 3.372 12.585.725 1.7 1.24 3.293 1.146 3.539-.148.384-1.11.446-6.995.446-5.93 0-6.845-.06-6.997-.453zM15.709 80.988c-.55-.22-.451-.587.636-2.365.55-.897 1.091-2.015 1.204-2.483l.206-.852-.8.627c-2.365 1.857-5.692.573-6.526-2.519-.597-2.21.597-5.458 3.861-10.506a93.45 93.45 0 0 0 2.807-4.666c1.36-2.472 1.99-2.753 2.775-1.238.268.517 1.782 2.987 3.365 5.49 1.584 2.502 3.144 5.231 3.467 6.066 1.138 2.934.491 6.394-1.431 7.65-1.189.778-3.326.682-4.257-.19-1.115-1.045-.972-.187.401 2.415 1.089 2.061 1.12 2.19.599 2.469-.551.294-5.626.377-6.308.103zm1.13-28.277c-2.908-.624-5.287-2.403-7.148-5.346-.393-.62-.715-1.325-.715-1.566 0-.476 2.171-2.174 2.781-2.174.208 0 .848.618 1.423 1.373 1.375 1.805 3.15 3.19 4.384 3.421.547.103 1.708.128 2.579.055 3.299-.273 5.765-3.337 5.73-7.12-.024-2.634-1.068-4.399-3.272-5.534-1.271-.654-3.537-.49-5.213.376-1.877.972-2.14.974-2.889.023-1.102-1.398-.837-1.973 2.886-6.266 1.905-2.197 3.464-4.119 3.464-4.27 0-.164-1.382-.243-3.403-.194l-3.402.08-.145 1.878-.145 1.878H9.701l-.082-3.752c-.071-3.277-.018-3.8.417-4.117.64-.466 16.628-.526 17.491-.065.435.232.56.61.56 1.692 0 1.29-.122 1.527-1.674 3.24-2.42 2.67-3.827 4.373-3.827 4.632 0 .124.49.357 1.09.518 2.711.729 5.083 3.03 6.018 5.839.762 2.288.499 7.393-.49 9.49-2.134 4.53-7.296 6.997-12.364 5.908zM3.474 19.937c0-.32.194-.577.435-.577s.434.256.434.577c0 .321-.193.578-.434.578s-.435-.257-.435-.578z" fill="#e8e8e8"/><path d="M.002 157.44V0h217.76v314.88H.002V157.44zm159.02 156.93c-27.604-.041-72.689-.041-100.19 0-27.499.041-4.913.074 50.19.074 55.103 0 77.603-.033 49.998-.074zm52.871-1.103c1.725-.857 3.081-2.284 3.948-4.154l.61-1.315V7.318l-.874-1.705c-.997-1.945-2.993-3.644-4.889-4.16-.867-.236-28.434-.302-102.53-.242l-101.35.081-1.158.625C4.277 2.66 2.596 4.361 1.845 5.77c-.522.981-.54 5.412-.612 151.49L1.16 307.74l.677 1.474c.853 1.86 2.235 3.247 4.097 4.112l1.454.675h203.02l1.491-.741zm-207.71-9.972c-.107-.172-.044-.464.14-.647.253-.252.397-.232.593.084.276.445.136.878-.283.878-.14 0-.343-.142-.45-.314zm181.89-13.427c-.472-1.226-.155-2.143 1.343-3.885 4.314-5.017 4.653-5.484 3.992-5.484-.153 0-.99-.265-1.86-.59-1.962-.732-3.777-2.482-4.783-4.61-.668-1.412-.75-1.94-.746-4.766.007-4.107.515-5.646 2.605-7.898 3.43-3.696 8.455-4.707 12.863-2.588 1.627.783 4.089 3.187 4.913 4.799.61 1.19.61 1.207.051 1.764-1.168 1.165-1.97 1.53-2.61 1.19-.329-.177-.598-.427-.598-.558 0-.563-2.538-3.047-3.608-3.533-1.63-.738-4.258-.71-5.857.061-4.087 1.974-5.169 8.283-1.937 11.294 1.73 1.612 4.54 1.884 6.937.67.783-.396 1.576-.721 1.76-.722.42 0 1.836 1.648 1.836 2.139 0 .2-1.692 2.284-3.76 4.633-2.069 2.349-3.705 4.362-3.636 4.473.069.111 1.664.194 3.544.183l3.418-.019.145-1.877.144-1.878h4.054V290.177l-9.016.076c-8.033.068-9.036.026-9.194-.385zm-80.9-15.219c-1.096-1.47-4.435-5.597-7.42-9.171-6.53-7.82-8.245-10.056-10.18-13.283-2.556-4.263-3.603-7.57-3.603-11.378 0-3.529 1.13-6.473 3.423-8.92 3.489-3.72 8.844-4.171 12.77-1.075 1.747 1.378 3.321 4.326 3.631 6.8.164 1.308.274 1.572.493 1.182.738-1.315-.995-9.381-2.97-13.825-.658-1.479-1.262-3.047-1.342-3.483l-.146-.795h13.739l-.148.939c-.082.516-.822 2.564-1.646 4.55-.823 1.986-1.737 4.65-2.03 5.922-.64 2.763-1.03 6.788-.66 6.788.143 0 .489-.964.767-2.143.517-2.185 1.92-4.868 3.302-6.316.423-.442 1.489-1.157 2.37-1.589 1.31-.642 1.996-.785 3.779-.785 1.877 0 2.445.132 4.11.95 3.98 1.954 6.611 6.578 6.592 11.584-.02 5.536-2.866 10.713-13.276 24.16-2.287 2.955-5.121 6.828-6.296 8.605-2.434 3.68-2.642 3.955-3.006 3.955-.145 0-1.16-1.202-2.254-2.672zm89.757-19.03c-.271-.496-1.326-2.284-2.344-3.972-3.632-6.021-4.395-7.42-4.816-8.826-.936-3.122-.286-5.322 1.91-6.464 1.653-.86 2.926-.689 4.226.568.829.802.965.854.965.372 0-.683-1.553-4.026-1.998-4.3-.175-.108-.318-.433-.318-.723 0-.464.332-.541 2.823-.654 4.251-.193 4.465-.04 3.004 2.139-.457.683-.913 1.535-1.013 1.892l-.362 1.3-.18.65.7-.644c2.824-2.6 6.61-.253 6.61 4.098 0 1.969-.784 3.673-4.212 9.162-1.72 2.753-3.303 5.298-3.518 5.655-.53.88-.892.818-1.477-.253zm-90.138-74.71c-1.308-1.708-4.28-5.364-6.605-8.124-7.661-9.095-9.992-12.3-12.07-16.594-1.613-3.335-2.25-6.21-2.06-9.297.6-9.73 10.068-14.734 16.585-8.764 1.611 1.476 2.904 3.998 3.18 6.204.306 2.437.823 1.92.61-.608-.367-4.325-1.664-9.118-3.574-13.208-.57-1.222-.96-2.424-.864-2.672.15-.39 1.051-.45 6.662-.45 5.1 0 6.558.083 6.814.39.248.299.023 1.11-.957 3.443-1.79 4.26-2.987 8.13-3.197 10.33a145.346 145.346 0 0 1-.329 3.096c-.233 1.903.327 1.449.857-.696.974-3.938 2.714-6.57 5.374-8.13 1.19-.698 1.611-.779 4.079-.777 2.427 0 2.925.093 4.234.78 5.203 2.734 7.6 9.051 5.921 15.604-1.134 4.423-3.615 8.43-11.636 18.796-2.731 3.529-6.065 8.074-7.408 10.1-1.343 2.025-2.621 3.683-2.84 3.683-.218 0-1.467-1.398-2.775-3.106zm-4.534-89.526c-.574-.23-.427-1.14.47-2.922 1.767-3.507 3.201-8.661 3.648-13.106.227-2.267-.278-3.04-.59-.902-.532 3.642-2.305 6.237-5.39 7.89-1.616.865-2.085.98-4.002.98-2.687-.002-4.846-.901-6.771-2.822C83.419 76.308 82.81 69.646 86 62.778c1.893-4.074 3.702-6.562 11.786-16.21 2.623-3.13 5.753-6.991 6.955-8.58 1.202-1.589 2.422-2.93 2.71-2.98.377-.065.84.414 1.625 1.679 1.8 2.899 4.597 6.773 8.761 12.134 8.815 11.348 11.106 15.312 11.938 20.654.89 5.706-1.909 11.495-6.634 13.726-1.89.892-4.766 1.084-6.694.445-3.075-1.019-5.93-4.768-6.733-8.843-.187-.944-.452-1.717-.591-1.717-.322 0-.317.306.06 3.677.352 3.153 1.166 5.94 3.035 10.39 1.398 3.33 1.525 3.98.828 4.246-.545.209-12.267.194-12.789-.016zM15.634 80.425c0-.253.243-.806.54-1.227.821-1.166 1.394-2.393 1.633-3.501l.217-1.001-1.06.928a3.854 3.854 0 0 1-5.99-1.154c-1.025-1.99-.48-5.04 1.481-8.306 4.34-7.222 5.534-9.189 5.87-9.665.473-.671.914-.447 1.552.79.26.506 1.719 2.87 3.24 5.254 1.522 2.383 3.064 5.048 3.426 5.921 1.17 2.822.655 5.997-1.212 7.462-1.175.922-3.115.857-4.437-.15-.78-.593-.974-.655-.824-.265.108.282.197.671.197.866 0 .195.46 1.118 1.024 2.051.563.933.958 1.868.878 2.078-.11.283-.965.38-3.341.38-2.731 0-3.194-.067-3.194-.46zm.439-28.025c-1.576-.5-2.67-1.169-4.159-2.542-1.308-1.205-2.65-3.177-2.65-3.89 0-.626 1.65-2.058 2.37-2.058.239 0 .994.662 1.678 1.472 2.518 2.979 4.613 3.85 7.566 3.142 2.826-.676 4.847-3.253 5.11-6.514.239-2.972-.903-5.16-3.248-6.223-1.77-.803-3.548-.699-5.46.32-.891.474-1.796.795-2.01.713-.46-.177-1.374-1.64-1.372-2.198 0-.214 1.625-2.274 3.61-4.578 1.986-2.304 3.614-4.286 3.619-4.405.005-.12-1.62-.217-3.611-.217h-3.62v1.676c0 .921-.156 1.831-.347 2.022-.451.45-3.198.45-3.649 0-.479-.478-.479-6.918 0-7.396.255-.254 2.639-.346 8.919-.346 6.28 0 8.664.093 8.918.346.191.191.348.842.348 1.447 0 .924-.244 1.367-1.52 2.761-3.024 3.303-4.359 5.006-4.1 5.231.145.125.796.379 1.447.563 2.537.719 4.958 3.207 5.768 5.929.533 1.788.55 4.995.038 7.164-.75 3.18-2.602 5.369-5.977 7.065-1.996 1.003-5.412 1.233-7.668.516z" fill="#d6d6d6"/><path d="M.002 157.44V0h217.76v314.88H.002V157.44zm209.21 156.86c.099-.159.456-.289.795-.289 1.98 0 5.073-2.624 5.997-5.087l.592-1.579V7.825l-.588-1.568c-.724-1.93-2.734-3.902-4.777-4.688-1.41-.542-3.586-.554-102.64-.554H7.391l-1.645.806c-1.864.913-3.224 2.313-4.116 4.235L1.02 7.37l-.074 149.2c-.05 100.33.023 149.72.22 150.79.573 3.09 2.588 5.336 5.843 6.51l1.83.66 100.1.028c66.45.019 100.16-.07 100.28-.261zM4.352 303.034a.29.29 0 0 1 .58 0 .29.29 0 0 1-.58 0zm182.04-12.903c-.106-.106-.193-.772-.193-1.48 0-1.175.152-1.448 1.748-3.151.962-1.025 2.278-2.532 2.925-3.35 1.055-1.332 1.121-1.504.64-1.682-.294-.11-1.134-.41-1.867-.667-1.959-.69-3.57-2.215-4.649-4.4-.862-1.75-.936-2.122-.93-4.683.01-3.466.604-5.585 2.1-7.471 2.112-2.666 5.15-4.122 8.6-4.122 2.748 0 4.847.777 6.778 2.509 1.604 1.438 3.187 3.547 3.187 4.245 0 .518-1.74 1.912-2.385 1.912-.247 0-.95-.658-1.565-1.463-2.125-2.785-4.561-3.789-7.609-3.137-3.085.66-5.227 3.642-5.233 7.284-.003 2.307.653 3.847 2.094 4.915 1.967 1.457 3.931 1.7 6.011.746 2.59-1.189 2.574-1.187 3.345-.357.39.42.71 1.016.71 1.325 0 .308-1.695 2.488-3.765 4.842-2.07 2.355-3.764 4.358-3.764 4.452 0 .094 1.693.17 3.764.17h3.764v-1.463c0-2.207.308-2.581 2.124-2.581.839 0 1.681.156 1.872.347.229.228.348 1.444.348 3.553s-.12 3.325-.348 3.553c-.254.254-2.64.347-8.928.347-4.72 0-8.667-.087-8.774-.193zm-81.6-16.201c-1.322-1.708-4.743-5.9-7.603-9.316-9.31-11.122-11.606-14.785-12.763-20.376-.743-3.59-.466-6.205.977-9.232 1.74-3.653 4.804-5.891 8.402-6.138 4.776-.329 9.172 3.453 9.8 8.433.133 1.054.37 1.752.623 1.836.34.112.377-.298.225-2.444-.242-3.395-1.571-8.532-3.09-11.944-1.91-4.287-2.442-3.9 5.352-3.9h6.66l-.04.722c-.023.398-.697 2.282-1.498 4.189-1.822 4.335-2.601 7.275-2.845 10.732-.228 3.23.172 3.588.867.777.688-2.78 1.697-4.792 3.217-6.414 3.379-3.603 8.698-3.672 12.593-.162 3.185 2.87 4.634 7.016 4.057 11.604-.662 5.259-3.023 9.376-12.132 21.159-2.763 3.574-6.076 8.091-7.362 10.038-1.287 1.947-2.496 3.54-2.688 3.54-.192 0-1.43-1.397-2.752-3.105zm90.463-18.045c-.163-.204-.527-.826-.808-1.382-.28-.556-1.465-2.532-2.63-4.39-2.745-4.378-3.836-6.559-4.211-8.422-.629-3.123.816-5.38 3.59-5.61 1.406-.116 1.619-.05 2.508.779.535.498 1.035.843 1.112.766.322-.322-.296-2.206-1.235-3.76-.554-.918-.935-1.785-.847-1.926.175-.283 6.004-.363 6.28-.086.095.094-.34 1.14-.964 2.324-.626 1.185-1.137 2.486-1.137 2.892v.739l1.023-.897c1.214-1.063 2.689-1.19 4.067-.352 2.053 1.249 2.627 4.896 1.234 7.833-.94 1.983-7.012 11.639-7.4 11.768-.157.052-.419-.072-.582-.276zm-90.323-74.968c-1.299-1.71-4.923-6.165-8.053-9.899-9.516-11.348-12.082-15.793-12.758-22.099-.23-2.142.385-5.259 1.45-7.356 2.115-4.162 6.488-6.604 10.383-5.797 4.22.874 7.23 4.335 7.862 9.043.243 1.812.727 1.467.727-.518 0-3.426-1.594-9.545-3.632-13.946-.547-1.181-.923-2.262-.836-2.403.087-.14 3.148-.255 6.801-.255 6.134 0 6.643.039 6.642.505 0 .278-.504 1.675-1.119 3.105-2.215 5.148-3.045 8.14-3.387 12.205-.223 2.645.196 3.292.748 1.156.93-3.606 1.882-5.566 3.467-7.148 1.919-1.914 3.248-2.45 6.083-2.454 2.252 0 2.615.08 4.272.976 5.3 2.867 7.627 9.417 5.675 15.973-1.189 3.995-3.907 8.32-10.922 17.382-2.724 3.519-6.172 8.218-7.662 10.442-1.49 2.225-2.86 4.079-3.045 4.121-.184.042-1.397-1.322-2.696-3.033zm-4.895-90.004c-.08-.206.372-1.475 1.004-2.818 1.926-4.101 3.653-11.08 3.446-13.928-.125-1.728-.628-1.406-.883.566-.301 2.335-1.42 4.429-3.269 6.114-2.04 1.86-3.81 2.472-6.635 2.29-2.568-.164-4.573-1.164-6.401-3.193-4.142-4.596-4.33-11.102-.532-18.41 1.75-3.367 3.913-6.285 10.745-14.49 3.22-3.867 6.714-8.169 7.764-9.559 1.05-1.39 2.085-2.527 2.299-2.527.213 0 .745.617 1.181 1.372 1.38 2.385 4.333 6.495 9.017 12.549 9.736 12.584 11.98 16.842 11.99 22.766.01 4.627-1.836 8.374-5.242 10.643-6.054 4.033-12.75.734-14.604-7.197-.583-2.492-1.03-2.839-1.03-.798 0 3.635 1.268 8.445 3.657 13.864.56 1.272.948 2.496.861 2.721-.222.578-13.147.611-13.368.034zM15.792 80.599c-.098-.16.29-1.047.862-1.972 1.066-1.724 1.653-3.805 1.073-3.805-.172 0-.417.17-.545.379-1.165 1.905-4.378 1.722-5.845-.333-1.54-2.159-.891-5.223 2.154-10.16a233.695 233.695 0 0 0 3.388-5.695c.846-1.484 1.712-2.669 1.954-2.672.239 0 .806.654 1.26 1.46.454.808 1.876 3.115 3.159 5.128 3.176 4.983 3.816 6.421 3.82 8.571.006 4.126-3.414 6.474-6.057 4.16l-1.024-.897v.73c0 .403.46 1.612 1.022 2.688.563 1.076.958 2.126.878 2.332-.177.46-5.818.54-6.099.086zm.724-28.192c-.875-.232-2.278-.89-3.116-1.463-1.64-1.12-4.123-4.148-4.123-5.028 0-.528 1.837-2.004 2.494-2.004.183 0 .85.684 1.483 1.52 1.604 2.12 3.117 3.1 5.106 3.304 4.484.462 7.712-2.57 7.712-7.245 0-3.839-1.838-5.97-5.34-6.192-1.505-.096-2.04.01-3.287.639-.819.414-1.69.752-1.937.752-.4 0-1.594-1.558-1.597-2.084 0-.114 1.601-2.064 3.56-4.333 1.958-2.27 3.66-4.29 3.78-4.488.173-.282-.61-.36-3.56-.36h-3.78v1.42c0 2.232-.096 2.334-2.172 2.334-1.393 0-1.862-.107-1.996-.456-.097-.252-.176-1.802-.176-3.446 0-2.332.1-3.089.455-3.443.392-.392 1.587-.454 8.663-.454 4.514 0 8.414.079 8.666.175.327.125.458.56.458 1.518 0 1.25-.134 1.491-1.954 3.514-3.737 4.154-4.192 4.899-2.992 4.906.896.01 3.43 1.392 4.507 2.467 2.199 2.194 3.054 5.437 2.493 9.456-.375 2.69-1.277 4.56-2.97 6.157-1.679 1.583-2.974 2.317-5.025 2.85-2.078.54-3.268.537-5.352-.016z" fill="#c7c7c7"/><path d="M.002 157.44V0h217.76v314.88H.002V157.44zm210.49 156.58c3.023-1.102 4.79-2.723 5.664-5.192.391-1.107.44-17.803.44-151.38V7.318l-.895-1.786c-.602-1.202-1.328-2.116-2.222-2.797C210.812.704 219.907.86 108.15.941L7.1 1.015l-1.303.68c-1.776.93-3.089 2.22-4.007 3.942l-.77 1.444-.074 149.92c-.066 133.67-.026 150.08.368 151.44.658 2.259 2.895 4.529 5.352 5.43l1.882.692 100.19.015c99.005.015 100.21.01 101.75-.554zm-23.938-23.885c-.21-.086-.362-.665-.362-1.378 0-1.114.185-1.432 1.955-3.375 2.812-3.086 3.951-4.596 3.658-4.85-.14-.121-.788-.372-1.44-.556-2.646-.75-5.156-3.285-5.91-5.971-.566-2.018-.254-6.85.563-8.727.823-1.89 3.214-4.186 5.444-5.23 1.424-.665 2.046-.778 4.278-.778 2.367 0 2.794.089 4.542.948 2.026.995 3.962 2.85 5.009 4.8l.578 1.077-1.014.847c-.557.466-1.22.815-1.474.776-.254-.039-1.038-.786-1.741-1.66-.826-1.025-1.843-1.878-2.869-2.406-1.374-.707-1.83-.8-3.374-.685-3.359.249-5.755 2.412-6.468 5.839-1.16 5.576 3.607 9.555 8.644 7.216.852-.396 1.722-.72 1.933-.72.45 0 1.585 1.355 1.585 1.892 0 .203-1.694 2.292-3.764 4.641-2.07 2.35-3.765 4.38-3.765 4.512 0 .131 1.727.202 3.837.158l3.837-.081.089-1.726c.048-.95.244-1.825.434-1.946.46-.291 2.565-.28 3.033.016.277.176.35 1.147.29 3.823L204 290.18l-8.542.052c-4.698.028-8.705-.015-8.904-.096zm-81.463-15.916c-1.166-1.55-4.083-5.156-6.48-8.016a989.362 989.362 0 0 1-6.126-7.367c-7.99-9.803-10.167-17.419-6.887-24.102.947-1.93 3.346-4.284 5.256-5.158 2.068-.947 5.205-.867 7.249.184 3.075 1.58 5.068 4.437 5.5 7.884.269 2.153.762 2.071.873-.145.159-3.167-1.466-9.555-3.574-14.05-.679-1.448-.863-2.125-.649-2.384.457-.55 12.481-.514 12.942.04.26.313.085.968-.793 2.961-2.375 5.398-3.523 9.722-3.523 13.274 0 1.891.423 2.49.748 1.058 1.482-6.523 4.423-9.832 9.007-10.13 6.09-.398 11.094 5.078 11.094 12.141 0 5.888-2.08 9.828-12.013 22.76-2.99 3.893-6.43 8.598-7.643 10.456-1.213 1.859-2.353 3.386-2.533 3.395-.18.01-1.281-1.253-2.448-2.802zm89.327-19.932c-.6-1.072-2.062-3.5-3.25-5.393-2.716-4.328-3.528-6.28-3.527-8.467.002-2.728 1.487-4.411 3.893-4.411.77 0 1.312.256 2.162 1.022.624.563 1.209.903 1.3.756.26-.421-.581-2.877-1.421-4.143-1.165-1.756-.915-1.968 2.317-1.968 2.06 0 2.808.1 2.92.39.082.215-.258 1.046-.757 1.846-.498.8-.982 2.021-1.075 2.714l-.17 1.26 1.072-.939c1.405-1.23 2.908-1.286 4.253-.157 1.219 1.023 1.72 2.287 1.72 4.337 0 2.035-.75 3.72-3.766 8.459-1.163 1.827-2.557 4.07-3.097 4.983-.54.914-1.095 1.66-1.233 1.66-.138 0-.741-.876-1.34-1.949zm-89.59-73.624c-1.293-1.686-4.778-5.972-7.744-9.524-6.619-7.926-8.637-10.7-10.494-14.42-1.72-3.443-2.315-5.79-2.313-9.1.005-6.684 4.415-11.843 10.124-11.843 2.345 0 4.12.706 5.934 2.359 1.863 1.699 3.012 3.87 3.246 6.138.093.897.295 1.708.45 1.804.518.32.78-.612.619-2.213-.47-4.688-1.892-9.927-3.622-13.352-1.51-2.985-1.832-2.824 5.689-2.824 5.2 0 6.554.079 6.673.389.083.213-.362 1.549-.988 2.967-1.494 3.388-2.88 7.75-3.23 10.161-.579 3.99-.167 6.642.58 3.743 1.007-3.903 1.729-5.422 3.443-7.247 2.985-3.179 7.467-3.58 11.32-1.013 3.413 2.274 5.212 5.937 5.212 10.613 0 5.91-2.179 10.103-11.436 22-2.65 3.408-6.064 8.048-7.586 10.312-1.521 2.264-2.938 4.116-3.147 4.116-.21 0-1.439-1.38-2.732-3.066zm-4.76-89.63c-.087-.14.3-1.245.86-2.454 2.111-4.558 3.605-10.415 3.607-14.142.001-2.17-.628-2.098-.946.108-.472 3.274-2.4 6.12-5.19 7.662-1.367.755-1.809.848-3.998.841-2.981-.01-4.625-.691-6.749-2.803-2.441-2.427-3.971-6.974-3.526-10.478.786-6.176 3.407-10.664 12.741-21.81 3.127-3.733 6.685-8.112 7.908-9.73 1.222-1.62 2.387-3.013 2.588-3.098.224-.095.96.764 1.908 2.231 2.096 3.242 4.537 6.576 9.451 12.908 8.407 10.835 10.624 15 10.927 20.529.238 4.337-.985 7.689-3.744 10.264-4.003 3.736-9.356 3.789-12.79.127-1.819-1.94-2.634-3.713-3.492-7.593-.33-1.494-.743-.805-.743 1.24 0 3.562 1.312 8.374 3.735 13.696.503 1.105.85 2.177.77 2.383-.112.292-1.586.375-6.65.375-3.58 0-6.58-.115-6.666-.255zM16.035 80.457c-.091-.238.231-1.05.716-1.805.86-1.339 1.593-3.636 1.264-3.964-.09-.09-.58.239-1.09.73-2.54 2.457-6.304.483-6.268-3.286.02-2.14.887-4.184 3.683-8.681 1.35-2.171 2.779-4.587 3.175-5.367.88-1.731 1.288-2.023 1.81-1.292 1.18 1.653 6.064 9.757 6.777 11.243 1.017 2.122 1.137 4.635.295 6.215-.645 1.212-2.164 2.307-3.198 2.306-.838 0-2.636-.983-2.636-1.44 0-.16-.147-.293-.327-.293-.592 0-.05 2.308.898 3.83.498.8.839 1.631.756 1.846-.229.595-5.625.556-5.855-.042zm-.61-28.473c-1.81-.714-4.429-3.017-5.497-4.834l-.769-1.31 1.118-.963c.614-.53 1.202-.963 1.307-.963.104 0 .953.861 1.885 1.915 2.025 2.286 3.377 2.983 5.791 2.983 3.761 0 6.43-2.52 6.97-6.583.694-5.213-4.451-8.845-8.96-6.326-.777.434-1.588.789-1.803.789-.411 0-1.274-1.424-1.274-2.103 0-.22 1.629-2.294 3.62-4.612 1.99-2.317 3.619-4.354 3.619-4.527 0-.21-1.25-.313-3.759-.313-4.247 0-3.965-.178-4.128 2.6l-.076 1.3H9.994v-7.222h17.663l.091 1.27c.084 1.164-.017 1.384-1.189 2.6-1.685 1.75-4.548 5.18-4.548 5.45 0 .117.764.436 1.697.71 2.074.608 4.218 2.424 5.256 4.45.658 1.286.72 1.732.72 5.163 0 3.53-.048 3.855-.812 5.406-.914 1.856-2.789 3.66-4.979 4.79-2.036 1.05-6.228 1.213-8.468.33z" fill="#b6b6b6"/><path d="M.002 157.44V0h217.76v314.88H.002V157.44zm210.32 156.72c2.777-.84 4.9-2.733 5.865-5.23.534-1.382.547-4.98.547-151.49V7.37l-.61-1.314c-.855-1.844-2.273-3.357-3.997-4.264l-1.474-.776-101.4-.074L7.853.868l-1.604.599c-2.109.787-3.99 2.662-4.778 4.765l-.6 1.6.074 150.27.073 150.27.9 1.581c1.085 1.91 2.352 2.98 4.629 3.914l1.71.702h100.33c87.557 0 100.51-.051 101.74-.422zm-23.63-24.146c-.328-.19-.507-.647-.507-1.297 0-.834.354-1.4 2.111-3.38 2.426-2.733 3.68-4.34 3.68-4.716 0-.143-.796-.495-1.769-.78-2.35-.689-4.51-2.775-5.454-5.268-.568-1.5-.634-2.099-.509-4.613.172-3.458.729-5.162 2.248-6.884 4.894-5.546 12.978-5.077 17.038.988.638.953 1.099 1.89 1.024 2.08-.075.193-.6.667-1.17 1.054l-1.034.705-1.85-2.043c-2.59-2.86-4.815-3.584-8.056-2.624-2.878.853-5.072 4.55-4.72 7.952.47 4.547 4.926 6.929 9.053 4.84.784-.397 1.579-.722 1.767-.722.473 0 1.627 1.673 1.45 2.103-.08.193-1.851 2.28-3.937 4.637-2.085 2.358-3.791 4.34-3.791 4.406 0 .066 1.818.119 4.04.119h4.04l.086-1.806.086-1.805h3.475l.082 3.443c.06 2.56-.013 3.504-.29 3.679-.552.35-16.484.286-17.094-.068zm-79.826-13.626c-.305-.357-1.504-1.885-2.666-3.394-1.161-1.51-4.09-5.098-6.509-7.975-7.13-8.479-9.226-11.343-11.248-15.36-4.163-8.276-2.247-16.876 4.442-19.943 2.079-.953 4.76-1.002 6.752-.122 3.025 1.335 5.473 4.68 5.896 8.056.215 1.719.525 2.133.972 1.3.861-1.606-1.358-11.204-3.632-15.706-1.198-2.373-1.522-2.248 5.827-2.248 6.012 0 6.515.039 6.515.506 0 .278-.506 1.675-1.124 3.105-1.842 4.266-2.874 7.879-3.22 11.27-.45 4.415.303 4.908 1.283.841.842-3.49 2.845-6.316 5.458-7.699 1.83-.968 5.278-.926 7.45.09 5.23 2.446 7.77 8.838 6.1 15.351-1.072 4.18-3.537 8.292-10.004 16.69-6.313 8.2-7.515 9.83-9.56 12.975-1.043 1.603-1.959 2.914-2.037 2.914-.077 0-.39-.293-.695-.65zm87.758-21.778c-.359-.737-1.643-2.914-2.855-4.839-3.355-5.331-3.992-6.824-3.992-9.37 0-2.072.023-2.138 1.072-3.097 1.789-1.635 3.206-1.672 4.97-.127.541.474 1.08.862 1.196.862.612 0-.763-3.79-1.805-4.972-.24-.272-.359-.694-.265-.939.136-.353.69-.443 2.714-.44 1.398 0 2.714.113 2.923.246.297.187.16.648-.624 2.09-1.103 2.03-1.542 3.573-1.096 3.848.158.097.458-.059.668-.348 2.277-3.13 6.306-.861 6.305 3.549 0 2.025-.85 3.846-4.429 9.494-1.697 2.68-3.087 4.988-3.087 5.128 0 .14-.234.255-.52.255-.334 0-.758-.483-1.175-1.34zm-88.096-71.803c-1.223-1.748-6.116-7.842-9.233-11.498-10.007-11.741-13.036-17.215-13.036-23.564 0-7.904 6.747-13.793 13.073-11.409 3.249 1.224 5.743 4.456 6.257 8.108.157 1.113.353 1.588.654 1.588.567 0 .474-3.388-.182-6.636-.533-2.637-2.138-7.4-3.196-9.482-.395-.78-.65-1.599-.564-1.821.127-.33 1.334-.404 6.518-.404 3.693 0 6.433.115 6.532.273.093.15-.406 1.617-1.109 3.26-1.508 3.521-2.626 6.946-3.048 9.335-.352 1.993-.496 5.253-.244 5.505.368.367.707-.213 1.065-1.822 1.269-5.707 4.735-9.125 9.252-9.125 5.782 0 10.453 5.444 10.453 12.183 0 5.82-2.488 10.445-12.61 23.434-2.166 2.78-5.111 6.81-6.544 8.955-1.432 2.145-2.777 3.939-2.987 3.987-.211.048-.684-.342-1.051-.866zm-6.245-91.967c-.095-.248.292-1.45.86-2.672 1.067-2.293 2.278-5.844 2.79-8.177.442-2.025.882-6.283.697-6.763-.367-.956-.867-.338-1.175 1.452-.609 3.545-2.344 5.995-5.36 7.566-2.198 1.145-5.185 1.149-7.513.01-2.257-1.106-3.905-2.842-5.13-5.404-.915-1.916-1.045-2.477-1.14-4.911-.139-3.566.42-5.96 2.262-9.68 1.8-3.64 3.88-6.506 10.376-14.3 2.847-3.416 6.316-7.673 7.71-9.46 1.393-1.788 2.703-3.25 2.91-3.25.208 0 .734.617 1.17 1.372 1.254 2.173 4.5 6.66 9.562 13.216 4.867 6.304 7.717 10.42 9.104 13.153 3.423 6.743 2.926 13.51-1.304 17.77-1.914 1.927-3.818 2.829-6.275 2.97-4.846.28-8.306-2.795-9.754-8.671-.375-1.525-.661-2.14-1.027-2.21-.464-.089-.491.114-.316 2.311.336 4.198 1.39 7.882 3.927 13.714 1.074 2.469 1.203 2.416-5.957 2.416-5.389 0-6.268-.062-6.417-.45zm-84.36-10.517c0-.153.393-.896.873-1.651 1.723-2.711 1.922-5.556.24-3.421-.311.393-1.066.865-1.68 1.048-.949.284-1.278.253-2.224-.21-3.357-1.64-3.218-5.314.426-11.23.88-1.43 2.376-3.933 3.325-5.562.949-1.628 1.834-2.96 1.968-2.96.133 0 .461.422.728.938.267.517 1.727 2.89 3.244 5.272 3.232 5.077 4.09 6.954 4.09 8.955.001 4.081-3.387 6.352-5.88 3.94-1.72-1.662-1.724-.1-.01 3.076.54.998.98 1.876.98 1.95 0 .074-1.367.134-3.04.134-1.76 0-3.04-.117-3.04-.279zm.435-28.031c-2.658-.826-6.805-4.635-6.805-6.249 0-.67 1.337-1.84 2.105-1.84.233 0 .882.588 1.443 1.307 2.247 2.876 4.5 3.88 7.455 3.32 2.134-.403 3.715-1.583 4.72-3.52 1.622-3.126 1.323-6.42-.773-8.51-2.057-2.053-4.618-2.335-7.525-.83l-1.482.767-.655-.76c-.36-.418-.652-.98-.649-1.25.003-.27 1.696-2.44 3.762-4.822 2.065-2.384 3.756-4.435 3.758-4.558 0-.124-1.79-.19-3.98-.145l-3.98.08-.09 1.726c-.048.95-.244 1.825-.434 1.946-.46.292-2.565.28-3.033-.016-.277-.175-.35-1.118-.29-3.679l.082-3.443H27.65l.09 1.221c.083 1.148-.023 1.34-1.742 3.178-2.34 2.5-3.994 4.534-3.994 4.91 0 .16.588.457 1.308.658 2.912.814 5.13 2.938 6.096 5.836.742 2.23.476 6.779-.524 8.958-.915 1.992-2.858 3.907-5.076 5.001-1.358.67-2.107.834-4.12.901-1.354.045-2.853-.039-3.33-.187z" fill="#a7a7a7"/><path d="M.002 157.44V0h217.76v314.88H.002V157.44zm211.69 156.25c1.97-.922 3.429-2.328 4.35-4.195l.693-1.403v-150.5c0-144.07-.023-150.55-.52-151.61-.7-1.49-2.67-3.575-4.1-4.338l-1.172-.626H6.803L5.5 1.693c-1.736.9-2.947 2.096-3.792 3.744l-.696 1.358-.081 150.22c-.062 114.28 0 150.51.259 151.46.676 2.472 2.847 4.653 5.565 5.591 1.427.493 6.142.514 102.41.453l100.91-.063 1.617-.757zm-25.362-24.233c-.292-.919.104-2.17.925-2.922 1.344-1.232 5.028-5.772 4.878-6.013-.08-.13-.702-.376-1.381-.548-2.555-.645-4.796-2.66-5.97-5.367-.933-2.154-.63-7.423.562-9.754.9-1.759 2.972-3.647 5.09-4.635 1.647-.77 2.226-.888 4.321-.888 2.135 0 2.64.108 4.295.92 1.292.635 2.378 1.476 3.492 2.704 2.025 2.232 2.25 2.968 1.19 3.878-1.155.991-1.733.846-2.891-.729-1.58-2.147-3.104-3.029-5.477-3.17-3.23-.192-5.514 1.072-6.928 3.834-.738 1.442-1.01 4.579-.524 6.048 1.171 3.54 5.342 5.067 8.9 3.26 1.702-.865 2.083-.813 2.79.38l.499.843-3.954 4.513c-2.52 2.876-3.853 4.613-3.676 4.79.157.156 1.901.241 4.018.195l3.74-.08.146-1.878.144-1.878h3.475v6.933l-8.738.076c-8.57.075-8.742.065-8.926-.512zm-81.067-15.236c-1.05-1.39-4.545-5.69-7.764-9.555-6.979-8.376-9.039-11.176-10.771-14.639-3.016-6.026-3.241-11-.714-15.732 1.673-3.13 4.48-4.968 7.89-5.165 5.024-.29 8.834 3.271 9.607 8.98.122.906.325 1.373.596 1.373.659 0 .807-1.295.459-4.005-.45-3.49-1.29-6.56-2.82-10.294-.717-1.748-1.376-3.406-1.465-3.684-.152-.471.28-.505 6.386-.505 4.878 0 6.55.088 6.55.344 0 .19-.714 2.107-1.587 4.262-2.016 4.979-2.724 7.76-2.823 11.086-.063 2.12.002 2.651.328 2.651.263 0 .626-.815 1.03-2.31.748-2.773 1.558-4.396 2.973-5.958 3.456-3.816 9.232-3.594 13.116.503 3.398 3.585 4.272 8.732 2.42 14.257-1.365 4.073-3.427 7.295-10.825 16.906-5.291 6.876-7.744 10.28-9.107 12.638-.436.755-.967 1.373-1.18 1.373-.214 0-1.248-1.138-2.299-2.528zM194.397 254c-.596-1.072-1.795-3.055-2.664-4.405-.87-1.35-2.114-3.558-2.763-4.905-.988-2.047-1.183-2.743-1.187-4.239-.005-2.105.58-3.12 2.287-3.965.94-.466 1.256-.495 2.226-.205.623.186 1.341.658 1.598 1.048.257.39.647.71.868.71.821 0 .262-2.37-1.044-4.425-.48-.754-.872-1.432-.872-1.506 0-.193 5.662-.167 5.856.027.09.089-.27.876-.798 1.751-.92 1.524-1.548 3.708-1.173 4.081.097.098.6-.227 1.114-.721 1.234-1.184 2.215-1.405 3.514-.79 1.622.769 2.347 2.2 2.336 4.617-.01 2.334-.327 3.053-3.648 8.283-1.143 1.8-2.52 4.02-3.061 4.933-.54.914-1.1 1.661-1.244 1.661-.144 0-.75-.877-1.345-1.95zm-89.34-73.236c-1.223-1.625-4.783-6.01-7.911-9.744-8.446-10.081-11.38-14.785-12.501-20.04-1.426-6.683 1.907-13.198 7.56-14.781 2.218-.62 4.104-.38 6.336.806 2.766 1.47 4.472 4.067 4.984 7.584.261 1.793.373 1.992.886 1.567 1.264-1.047-.653-10.288-3.28-15.808-.827-1.74-.944-2.192-.62-2.397.22-.139 3.108-.255 6.417-.257 5.017 0 6.045.066 6.18.418.09.232-.562 2.215-1.447 4.405-1.79 4.43-2.642 7.71-2.926 11.277-.161 2.017-.123 2.384.247 2.384.584 0 .751-.32 1.223-2.337.88-3.76 3.033-6.709 5.837-7.99 1.307-.597 1.896-.694 3.638-.603 2.607.137 4.444.984 6.44 2.971 3.665 3.647 4.554 9.322 2.368 15.115-1.325 3.51-3.196 6.525-7.817 12.597-8.252 10.842-9.28 12.238-11.023 14.976-.984 1.545-1.918 2.81-2.078 2.811-.159 0-1.29-1.327-2.513-2.953zm-4.87-90.061c0-.164.31-.912.69-1.661 2.514-4.956 4.77-15.195 3.568-16.19-.583-.483-.748-.183-1.1 2.003-1.006 6.227-7.13 9.87-12.476 7.419-5.847-2.681-8.09-9.63-5.514-17.084 1.547-4.478 4.154-8.272 12.594-18.333 2.757-3.287 5.968-7.243 7.135-8.792 1.167-1.55 2.23-2.817 2.363-2.817.28 0 .51.314 3.074 4.189 1.05 1.589 4.216 5.878 7.034 9.533 9.266 12.016 11.507 16.01 12.028 21.439.503 5.242-2.23 10.472-6.52 12.48-2.183 1.02-5.619 1.057-7.47.079-2.624-1.388-4.49-4.081-5.44-7.855-.511-2.028-.886-2.698-1.35-2.412-.418.257-.045 4.64.634 7.472.305 1.268 1.224 3.931 2.043 5.917.82 1.986 1.56 3.903 1.647 4.26l.157.65h-6.549c-4.313 0-6.549-.101-6.549-.298zM16.102 80.366c-.08-.13.225-.795.679-1.48.944-1.422 1.615-3.53 1.347-4.227-.153-.397-.373-.303-1.34.568-.895.807-1.4 1.042-2.24 1.04-2.442 0-4.036-2.025-3.753-4.763.2-1.936 1.158-4.008 3.779-8.179 1.203-1.914 2.518-4.13 2.922-4.925.403-.795.89-1.541 1.08-1.659.419-.258.414-.264 3.871 5.305 3.412 5.496 4.156 6.955 4.38 8.587.58 4.217-3.03 7.189-5.791 4.77-.545-.478-1.07-.868-1.169-.868-.593 0 .629 3.972 1.425 4.632.233.192.423.594.423.893 0 .492-.252.542-2.733.542-1.504 0-2.8-.106-2.88-.236zm.327-28.176c-.757-.213-2.036-.829-2.842-1.37-1.58-1.06-4.033-4.032-4.033-4.888 0-.53 1.807-1.858 2.285-1.68.142.053.79.772 1.442 1.598.651.825 1.806 1.865 2.565 2.31 1.164.683 1.7.81 3.408.802 2.404-.01 3.954-.696 5.327-2.357 2.034-2.462 2.387-6.76.745-9.08-1.73-2.441-4.91-3.205-7.817-1.876-.91.415-1.831.755-2.047.755-.33 0-1.275-1.374-1.275-1.855 0-.083 1.694-2.118 3.764-4.522 2.07-2.404 3.764-4.488 3.764-4.63 0-.142-1.824-.259-4.054-.259h-4.054v1.676c0 .921-.156 1.831-.347 2.022-.45.449-2.62.449-3.07 0-.476-.476-.476-6.342 0-6.818.497-.494 16.763-.494 17.259 0 .743.742.375 1.902-1.173 3.703-3.585 4.17-4.28 5.073-4.203 5.472.044.232.47.502.947.6 2.483.512 4.716 2.358 5.902 4.88.667 1.419.755 1.968.75 4.642-.008 3.882-.541 5.512-2.502 7.652-2.734 2.985-7.015 4.27-10.74 3.223z" fill="#919191"/><path d="M.002 157.44V0h217.76v314.88H.002V157.44zm211.68 156.4c1.849-.853 3.366-2.268 4.275-3.988l.778-1.47V6.802l-.869-1.566c-.955-1.723-3.004-3.516-4.701-4.116-.9-.317-18.736-.384-102.29-.384-99.055 0-101.23.012-102.64.553-1.891.728-3.977 2.709-4.827 4.585L.725 7.38.651 156.86c-.08 164.26-.218 151.4 1.642 154.09.956 1.386 2.792 2.707 4.513 3.246.922.289 21.787.352 102.36.31l101.2-.055 1.317-.608zm-25.013-23.994c-.106-.106-.193-.659-.193-1.229 0-.871.31-1.38 1.955-3.208 2.486-2.763 3.836-4.471 3.836-4.853 0-.165-.293-.379-.651-.474-2.542-.68-3.08-.967-4.587-2.458-2.01-1.989-2.647-3.675-2.625-6.95.008-1.253.104-2.771.214-3.373.496-2.72 2.634-5.332 5.669-6.926 1.398-.735 1.824-.812 4.442-.81 2.482 0 3.102.105 4.343.711 1.67.817 4.083 3.126 4.92 4.709l.575 1.09-.865.705c-.835.68-1.88.961-1.88.505 0-.122-.6-.907-1.333-1.744-2.256-2.572-4.758-3.406-7.671-2.555-3.264.952-5.206 3.68-5.217 7.329-.008 2.482.459 3.66 2 5.048 2.007 1.807 4.74 2.112 7.289.815.63-.32 1.339-.583 1.575-.583.456 0 1.33 1.06 1.33 1.615 0 .182-1.751 2.321-3.893 4.754-2.141 2.434-3.827 4.53-3.747 4.66.08.13 1.96.237 4.178.237 4.558 0 4.236.19 4.4-2.6l.076-1.3 1.252-.09c1.902-.136 2.078.154 2.078 3.424 0 1.556-.079 3.035-.175 3.287-.155.402-1.19.457-8.639.457-4.655 0-8.55-.087-8.656-.193zm-81.186-15.479c-.975-1.31-4.531-5.698-7.904-9.75-6.867-8.248-8.712-10.734-10.551-14.212-3.057-5.778-3.485-10.844-1.303-15.422.98-2.056 3.135-4.204 5.134-5.117 1.96-.895 5.21-.88 7.068.032 2.837 1.395 4.93 4.311 5.34 7.444.252 1.93.598 2.575 1.14 2.127 1.34-1.11-.687-10.896-3.345-16.15-.492-.971-.817-1.891-.723-2.044.227-.367 12.497-.37 12.724 0 .093.15-.405 1.617-1.108 3.259-2.351 5.49-3.351 9.443-3.365 13.295-.004 1.296.091 1.66.435 1.66.514 0 .772-.58 1.45-3.258.881-3.485 3.4-6.55 6.12-7.445 1.602-.528 4.925-.233 6.612.587 2.038.99 4.066 3.123 5.134 5.4.773 1.649.92 2.34 1.032 4.838.285 6.4-1.413 9.777-11.614 23.105-3.174 4.146-6.74 9.001-7.923 10.788-1.185 1.788-2.25 3.25-2.367 3.25-.117 0-1.01-1.072-1.986-2.383zm89.585-19.355c-.219-.357-.766-1.3-1.216-2.094-.45-.795-1.703-2.856-2.785-4.58-1.08-1.725-2.245-3.87-2.587-4.767-1.544-4.055-.198-7.264 3.049-7.264.767 0 1.31.256 2.148 1.011.617.556 1.204 1.011 1.304 1.011.1 0 .182-.439.182-.975 0-1.079-.64-2.8-1.48-3.98-.922-1.294-.756-1.4 2.204-1.4s3.127.106 2.205 1.4c-1.187 1.667-1.967 4.667-1.213 4.667.147 0 .658-.39 1.136-.867 1.584-1.58 3.987-.998 5.167 1.253.617 1.177.606 4.029-.022 5.46-.26.595-1.905 3.378-3.656 6.185-1.75 2.808-3.182 5.214-3.182 5.347 0 .501-.87.218-1.254-.407zm-90.09-74.519c-1.244-1.635-4.678-5.86-7.631-9.389-2.953-3.53-6.196-7.559-7.207-8.955-2.155-2.976-4.53-7.593-5.17-10.05-.67-2.575-.606-6.538.142-8.665 2.674-7.606 10.847-9.912 15.77-4.45 1.385 1.537 2.49 4.005 2.49 5.56 0 1.091.627 2.106 1.115 1.806.52-.321.399-3.661-.247-6.825-.627-3.068-1.963-7.111-3.072-9.298-1.202-2.37-1.509-2.248 5.68-2.248 4.092 0 6.37.104 6.37.291 0 .16-.572 1.627-1.27 3.259-.7 1.632-1.6 4.008-2.004 5.281-1.16 3.665-1.755 9.09-1.044 9.528.511.315.849-.253 1.303-2.197.903-3.862 2.863-6.693 5.62-8.121 1.95-1.01 5.07-.958 7.272.12 1.997.98 4.392 3.446 5.328 5.487 1 2.184 1.416 5.245 1.04 7.66-.85 5.474-3.065 9.238-12.865 21.868-2.043 2.633-4.831 6.442-6.195 8.465-1.365 2.023-2.634 3.716-2.822 3.762-.187.046-1.358-1.254-2.603-2.889zm-4.566-89.651c-.094-.094.26-1.116.787-2.27 2.71-5.932 4.596-15.413 3.175-15.958-.65-.249-.78-.01-1.05 1.955-.292 2.132-1.667 4.834-3.097 6.087-.564.495-1.726 1.219-2.58 1.61-3.093 1.412-7.145.533-9.813-2.128-3.402-3.395-4.384-9.006-2.537-14.501 1.554-4.626 4.026-8.32 11.667-17.438 3.018-3.602 6.55-7.922 7.847-9.599 1.298-1.677 2.481-3.124 2.63-3.216.149-.092.63.443 1.069 1.187 1.37 2.321 4.817 7.09 9.532 13.182 9.521 12.305 11.573 16.397 11.34 22.616-.094 2.505-.23 3.145-1.017 4.818-1.21 2.57-2.915 4.357-5.244 5.501-3.574 1.756-7.408 1.08-9.977-1.757-1.409-1.556-1.926-2.594-2.824-5.673-.565-1.937-.894-2.625-1.292-2.702-.5-.096-.522.087-.356 2.889.216 3.655.908 6.34 2.83 10.987.81 1.957 1.495 3.754 1.522 3.992.042.371-.846.444-6.195.511-3.434.043-6.322 0-6.416-.094zM16.215 80.355c0-.136.457-1.12 1.014-2.187.897-1.718 1.364-3.92.831-3.92-.1 0-.686.455-1.304 1.01-2.243 2.022-5.199.828-5.886-2.378-.387-1.807.914-5.087 3.769-9.503a91.355 91.355 0 0 0 2.748-4.574c.658-1.197 1.312-2.177 1.453-2.177.141 0 .473.423.739.939s1.72 2.889 3.231 5.272c3.996 6.299 4.489 7.684 3.698 10.396-.86 2.955-3.67 3.984-5.5 2.014-.363-.39-.808-.71-.989-.71-.765 0-.03 3.012 1.131 4.639.332.465.523.976.424 1.136-.219.353-5.358.394-5.358.043zm.969-28.06c-2.567-.537-5.262-2.476-6.808-4.898-.451-.706-.82-1.382-.82-1.502 0-.12.464-.57 1.031-1.002l1.032-.785 1.78 1.967c2.022 2.236 3.471 3.025 5.567 3.032 2.42.01 3.623-.481 5.23-2.123 1.672-1.71 2.299-3.382 2.245-5.989-.1-4.869-4.716-7.52-9.245-5.31l-1.656.809-.53-.655c-.293-.36-.532-.883-.532-1.162 0-.28 1.336-2.053 2.968-3.941 4.7-5.437 4.647-5.365 4.217-5.637-.436-.276-6.904-.34-7.596-.074-.33.126-.458.564-.458 1.565 0 2.143-.13 2.304-1.882 2.304-1.128 0-1.577-.12-1.706-.457-.097-.252-.176-1.672-.176-3.157 0-2.07.106-2.806.455-3.154.392-.39 1.561-.454 8.374-.454 4.355 0 8.124.079 8.376.175.318.122.458.55.458 1.394 0 .942-.171 1.378-.755 1.92-1.45 1.344-5.065 5.813-4.959 6.13.059.175.71.472 1.445.66 3.564.907 5.791 3.61 6.441 7.815.274 1.77-.337 5.52-1.18 7.247-1.802 3.69-7.103 6.164-11.316 5.282z" fill="#777"/><path d="M.002 157.44V0h217.76v314.88H.002V157.44zm211.01 156.71c1.913-.567 4.285-2.675 5.19-4.613l.676-1.45-.004-150.5c-.003-146.64-.017-150.54-.547-151.7-.77-1.69-2.49-3.487-4.203-4.389l-1.466-.772H7.098l-1.346.621C4.03 2.141 2.145 4.022 1.35 5.74L.728 7.082l-.074 149.92c-.064 131.55-.02 150.1.355 151.39.78 2.675 2.833 4.808 5.569 5.78.916.327 17.89.394 102.03.405 89.193.01 101.1-.038 102.4-.424zm-24.335-24.307c-.108-.108-.197-.619-.197-1.134 0-.766.458-1.46 2.499-3.78 3.841-4.368 3.993-4.776 1.905-5.11-2.494-.397-5.41-3.263-6.17-6.064-.19-.697-.273-2.429-.198-4.131.107-2.442.26-3.2.918-4.54.923-1.882 2.77-3.607 5.065-4.732 1.41-.691 1.974-.797 4.233-.797 2.258 0 2.823.106 4.23.796 1.695.83 4.193 3.21 4.996 4.76.46.886.453.91-.42 1.644-.488.409-.975.744-1.082.744-.108 0-.968-.862-1.911-1.915-1.95-2.174-3.43-2.98-5.49-2.99-2.039-.01-3.512.52-4.938 1.772-1.826 1.603-2.584 3.36-2.598 6.022-.015 2.62.762 4.278 2.608 5.571 1.807 1.266 4.11 1.392 6.433.352 1.969-.882 2.34-.85 2.933.256.376.7.351.823-.318 1.552-2.726 2.968-7.194 8.223-7.194 8.462 0 .182 1.571.259 4.271.208l4.271-.08.09-1.726c.095-1.87.32-2.165 1.648-2.165 1.549 0 1.62.176 1.53 3.77l-.082 3.299-8.417.076c-4.63.042-8.506-.012-8.615-.12zm-79.73-13.751c-.32-.357-1.215-1.494-1.99-2.526-.775-1.033-3.923-4.9-6.996-8.592-8.471-10.179-10.723-13.439-12.423-17.985-.73-1.952-.812-2.537-.824-5.922-.014-3.624.017-3.822.894-5.668 1.222-2.574 2.677-4.103 4.98-5.234 3.688-1.811 7.458-1.031 10.31 2.134 1.325 1.47 2.472 4.236 2.483 5.982.006 1.028.415 1.61.98 1.393 1.06-.406.224-7.392-1.45-12.107a62.19 62.19 0 0 0-1.64-4.071c-.75-1.65-.829-2.015-.482-2.235.229-.144 2.993-.264 6.143-.266 4.8 0 5.755.065 5.893.424.09.236-.426 1.828-1.15 3.539-.722 1.71-1.646 4.257-2.052 5.659-.91 3.138-1.463 8.26-.949 8.779.602.606 1.049-.021 1.631-2.293.705-2.752 1.469-4.257 2.996-5.91 1.87-2.025 3.09-2.54 6-2.54 2.105 0 2.672.112 3.91.766 2.126 1.123 3.85 2.979 5.005 5.385.868 1.81 1.034 2.493 1.153 4.766.171 3.275-.312 5.371-2.087 9.061-1.688 3.508-3.289 5.848-9.546 13.957-2.882 3.734-6.326 8.414-7.655 10.4-1.328 1.987-2.446 3.644-2.484 3.683-.038.039-.33-.221-.65-.578zm86.86-23.389a370.58 370.58 0 0 0-3.221-5.384c-1.892-3.082-2.659-5.14-2.659-7.134 0-1.386.119-1.711.951-2.618.748-.813 1.228-1.065 2.245-1.176 1.167-.127 1.412-.038 2.52.915.674.58 1.362.971 1.529.869.616-.38-.488-3.774-1.66-5.107-.236-.268-.344-.625-.239-.794.199-.32 4.846-.442 5.154-.135.095.095-.259.972-.786 1.95-1.054 1.955-1.412 3.323-1.03 3.94.196.315.5.173 1.43-.664 1.345-1.213 2.302-1.349 3.664-.52 1.917 1.166 2.469 4.648 1.172 7.4-.793 1.683-6.768 11.226-7.104 11.347-.125.045-1.01-1.255-1.967-2.889zm-88.26-71.626c-.955-1.295-4.521-5.682-7.924-9.748-10.853-12.97-13.377-17.753-12.994-24.63.235-4.213 2.357-7.758 5.778-9.648 1.356-.75 1.812-.847 3.992-.847 2.188 0 2.634.095 4.013.858 2.554 1.41 4.46 4.114 4.831 6.854.294 2.159.423 2.544.852 2.544.731 0 1.067-1.09.873-2.833-.498-4.474-1.773-9.206-3.499-12.985-.544-1.19-.989-2.281-.989-2.423 0-.147 2.729-.225 6.298-.181 5.399.067 6.29.14 6.245.511-.03.238-.722 2.038-1.54 4-1.897 4.555-2.59 7.255-2.807 10.95-.15 2.54-.112 2.96.267 2.96.67 0 .997-.56 1.36-2.33.474-2.303 1.811-4.943 3.213-6.342 4.524-4.513 11.77-2.562 14.848 3.999.763 1.625.925 2.357 1.026 4.644.16 3.633-.247 5.309-2.286 9.418-1.834 3.698-3.933 6.734-10.386 15.022-2.226 2.86-5.13 6.85-6.451 8.868-1.322 2.018-2.534 3.674-2.693 3.681-.16.01-1.071-1.046-2.027-2.341zm-5.067-90.474c0-.216.442-1.353.983-2.528 2.022-4.39 3.459-10.309 3.302-13.6-.075-1.58-.161-1.822-.646-1.822-.468 0-.616.334-.903 2.03-.423 2.504-1.147 3.959-2.767 5.556-3.435 3.387-8.328 3.51-11.983.3-2.67-2.345-3.981-5.485-3.955-9.475.02-3.167.575-5.245 2.353-8.811 1.844-3.7 3.906-6.528 10.506-14.412 2.94-3.513 6.36-7.72 7.601-9.348 1.241-1.628 2.4-2.957 2.574-2.952.176 0 .769.752 1.318 1.66 1.582 2.616 4.106 6.101 9.15 12.63 9.441 12.225 11.686 16.713 11.34 22.678-.373 6.457-4.599 11.003-10.234 11.01-4.214.01-7.094-2.653-8.64-7.979-.83-2.855-.914-3.031-1.443-3.031-.636 0-.711.668-.421 3.746.299 3.168 1.264 6.555 3.17 11.125.63 1.51 1.147 2.942 1.147 3.182 0 .373-.876.434-6.226.434-5.054 0-6.226-.074-6.226-.392zM16.366 80.312c-.097-.156.16-.774.57-1.372.832-1.211 1.737-3.953 1.456-4.407-.297-.48-.974-.333-1.304.282-.374.698-1.756 1.448-2.665 1.447-.97 0-2.452-.997-2.969-1.994-1.16-2.24-.328-5.084 3.123-10.668 1.34-2.171 2.792-4.565 3.225-5.32.433-.754.9-1.372 1.036-1.372s.69.748 1.229 1.661c.54.914 1.926 3.138 3.082 4.943 2.878 4.494 3.487 5.877 3.49 7.924.004 2.137-.764 3.71-2.125 4.354-1.47.696-2.083.59-3.385-.583-.803-.724-1.266-.963-1.47-.76-.412.412.154 2.442 1.203 4.318.702 1.256.763 1.517.387 1.66-.74.284-4.694.192-4.883-.113zm-.506-28.463c-1.807-.662-3.672-2.129-5.007-3.938-1.34-1.815-1.378-2.248-.267-2.974 1.049-.685 1.4-.562 2.414.847 1.477 2.051 3.293 3.14 5.473 3.278 3.52.223 5.768-1.003 7.21-3.931.676-1.374.813-2.024.809-3.822-.004-1.45-.163-2.455-.48-3.04-1.807-3.324-5.5-4.415-8.91-2.63l-1.578.825-.522-.643c-.287-.353-.521-.833-.521-1.065 0-.233 1.661-2.361 3.692-4.73 2.03-2.37 3.691-4.472 3.691-4.673 0-.49-7.551-.681-8.126-.206-.218.18-.426 1.04-.474 1.959l-.086 1.637h-2.896l-.082-3.394-.081-3.395H27.51v1.103c0 .945-.258 1.388-1.81 3.11-2.818 3.125-3.981 4.618-3.981 5.108 0 .299.382.515 1.134.642 2.767.466 5.65 3.172 6.42 6.023.532 1.971.205 6.704-.587 8.5-.89 2.015-3.508 4.439-5.665 5.244-1.898.709-5.456.79-7.162.165z" fill="#6a6a6a"/><path d="M.002 157.44V0h217.76v314.88H.002V157.44zm212.54 156.11c1.868-1.05 3.546-3.096 4.101-4.998.321-1.102.387-26.93.387-151.26V7.362l-.758-1.615c-.975-2.073-2.853-3.865-4.818-4.6-1.539-.573-2.168-.576-103.1-.503L6.804.718l-1.54.851c-1.72.95-2.914 2.178-3.888 3.996l-.653 1.22-.074 150.21c-.066 136.02-.03 150.36.383 151.78.615 2.108 3.15 4.701 5.22 5.336 1.256.386 13.145.43 103.06.383l101.64-.053 1.592-.895zm-25.713-23.862c-.778-.776-.388-1.964 1.196-3.647 2.406-2.556 4.575-5.283 4.464-5.614-.055-.165-.786-.475-1.624-.69-3.073-.784-5.392-3.14-6.136-6.232-.533-2.217-.194-6.217.691-8.146.951-2.072 2.728-3.784 5.072-4.885 1.653-.777 2.255-.906 4.248-.91 2.046 0 2.553.107 4.252.942 1.254.616 2.406 1.476 3.29 2.455 2.198 2.437 2.35 3.259.757 4.081l-.846.437-1.307-1.68c-4.546-5.838-12.79-3.399-13.454 3.982-.188 2.084.25 3.65 1.41 5.053 1.866 2.253 5.081 2.841 8.037 1.469l1.565-.728.679.636c.373.35.678.74.678.869 0 .128-1.759 2.241-3.909 4.695-2.15 2.455-3.909 4.606-3.909 4.78 0 .22 1.313.293 4.271.238l4.271-.08.145-1.734.145-1.733 1.52-.087 1.52-.087v3.306c0 2.749-.077 3.336-.458 3.482-.252.097-4.005.175-8.34.175-5.743 0-7.975-.094-8.228-.346zm-81.855-16.192c-1.24-1.628-4.67-5.848-7.622-9.378-6.58-7.865-8.613-10.656-10.473-14.382-1.682-3.368-2.313-5.78-2.32-8.857-.014-7.39 5.639-12.905 11.652-11.368 3.907.999 6.514 4.088 7.033 8.332.225 1.849.796 2.408 1.498 1.469 1.059-1.416-1.032-11.047-3.425-15.782-.46-.91-.836-1.787-.836-1.95 0-.195 2.153-.297 6.226-.297 3.995 0 6.225.104 6.225.291 0 .16-.593 1.678-1.318 3.372-1.765 4.122-2.695 7.438-3.048 10.868-.308 2.993-.196 3.956.46 3.956.541 0 .62-.166 1.457-3.046.895-3.082 1.81-4.686 3.537-6.203 3.404-2.988 8.627-2.5 12.024 1.123 4.038 4.307 4.475 10.302 1.234 16.937-1.687 3.452-3.564 6.185-9.828 14.308-2.883 3.739-6.219 8.314-7.413 10.166-1.195 1.853-2.315 3.376-2.49 3.386-.176.01-1.333-1.316-2.573-2.944zm89.758-19.355c-.45-.834-1.793-3.076-2.987-4.983-2.752-4.395-3.56-6.21-3.734-8.377-.119-1.484-.04-1.878.546-2.735.786-1.15 2.454-1.904 3.585-1.62.42.105 1.133.593 1.583 1.084.892.975 1.732.956 1.732-.04 0-.854-.995-3.325-1.699-4.218-.335-.425-.538-.887-.451-1.027.217-.351 4.68-.324 4.899.03.097.156-.148.839-.543 1.516-.964 1.65-1.528 3.902-1.087 4.341.244.244.589.075 1.351-.662 3.205-3.1 7.003 1.425 5.154 6.141-.265.679-1.744 3.249-3.285 5.711-1.54 2.463-3.02 4.9-3.288 5.417-.268.516-.593.939-.723.939s-.603-.683-1.053-1.517zm-89.59-73.699c-1.28-1.648-4.755-5.905-7.724-9.46-6.7-8.022-8.767-10.875-10.55-14.554-2.214-4.57-2.816-8.495-1.864-12.144 1.218-4.665 4.654-7.811 8.887-8.138 4.643-.36 8.803 3.353 9.371 8.362.22 1.937.678 2.506 1.421 1.765 1.247-1.244-.793-10.942-3.38-16.071-.463-.92-.765-1.798-.67-1.95.1-.163 2.672-.278 6.235-.278 6.74 0 6.486-.089 5.597 1.96-2.549 5.872-3.478 9-3.835 12.91-.292 3.191-.226 3.618.557 3.618.385 0 .63-.346.872-1.228 1.251-4.576 1.895-5.866 3.81-7.627 1.81-1.664 3.48-2.231 6.082-2.063 2.276.148 3.445.616 5.322 2.132 3.471 2.804 5.012 8.415 3.71 13.51-1.09 4.272-3.553 8.25-11.558 18.675-2.989 3.893-6.403 8.54-7.587 10.327-1.183 1.787-2.2 3.25-2.26 3.25-.06 0-1.157-1.349-2.436-2.997zm-4.487-89.685c-.082-.133.37-1.443 1.004-2.912 1.516-3.507 2.452-6.795 3.018-10.599.478-3.207.397-4.578-.284-4.839-.591-.226-.929.368-1.153 2.03-.27 2.001-1.569 4.62-2.942 5.93-2.624 2.505-6.573 3.15-9.662 1.58-6.849-3.483-8.079-12.747-2.848-21.446 1.828-3.04 4.534-6.575 10.313-13.475 2.89-3.45 6.137-7.448 7.214-8.883 1.077-1.435 2.044-2.609 2.148-2.609.104 0 1.296 1.658 2.649 3.684 1.353 2.025 4.766 6.667 7.585 10.316 5.844 7.564 7.747 10.323 9.415 13.648 3.386 6.747 2.997 12.83-1.099 17.198-1.843 1.966-3.729 2.875-6.317 3.044-1.762.115-2.295.03-3.62-.577-2.852-1.309-4.735-3.9-5.736-7.897-.588-2.347-1.049-2.975-1.704-2.322-.315.314-.327.977-.065 3.594.366 3.644.917 5.63 2.96 10.659.79 1.945 1.355 3.668 1.257 3.827-.22.355-11.914.401-12.133.048zm-83.97-11.2c1.48-2.236 2.24-4.858 1.535-5.293-.277-.17-.737.083-1.495.821-.909.885-1.29 1.062-2.24 1.038-3.367-.088-4.443-3.606-2.418-7.91.485-1.03 1.861-3.432 3.06-5.339 1.198-1.906 2.459-4.019 2.803-4.694.343-.675.748-1.228.9-1.228.152 0 .494.423.76.94.267.516 1.728 2.888 3.247 5.271 3.33 5.222 3.913 6.605 3.75 8.887-.14 1.95-.795 3.007-2.34 3.773-1.253.622-1.886.479-3.277-.74-.725-.635-1.098-.796-1.323-.57-.436.434.175 2.787 1.084 4.171.389.593.707 1.21.707 1.372 0 .18-1.036.295-2.64.295H16.16l.526-.794zM15.59 51.654c-1.98-.83-3.196-1.803-4.649-3.724-1.26-1.665-1.325-2.096-.434-2.838.98-.815 1.41-.66 2.691.972 1.727 2.198 3.49 3.187 5.722 3.21 2.465.027 4.25-.71 5.7-2.352 1.294-1.468 2.03-3.489 2.03-5.578 0-2.752-1.177-4.716-3.523-5.883-1.95-.97-3.653-.977-5.7-.027-.851.396-1.684.72-1.85.72-.37 0-1.067-.883-1.08-1.366-.004-.195 1.685-2.315 3.756-4.712 2.07-2.397 3.764-4.548 3.764-4.781 0-.356-.676-.41-4.27-.343l-4.272.08-.145 1.877-.144 1.878H10.29v-6.644h17.084l.093.962c.08.84-.163 1.244-1.907 3.178-2.715 3.009-4.2 5-3.92 5.259.128.118 1.014.434 1.97.704 1.437.404 2.023.78 3.386 2.171 2.183 2.227 2.693 3.853 2.47 7.88-.189 3.42-.968 5.281-2.988 7.14-2.014 1.85-4.145 2.72-6.922 2.823-1.918.07-2.6-.033-3.966-.606z" fill="#575757"/><path d="M.002 157.44V0h217.76v314.88H.002V157.44zm212.57 156.22c1.634-.958 3.036-2.51 3.846-4.257l.61-1.315v-301l-.808-1.641c-.941-1.912-2.331-3.227-4.42-4.181l-1.491-.68-101.9.073-101.9.074-1.328.779c-1.467.86-3.136 2.573-3.94 4.043-.503.918-.524 6.893-.524 152.04v151.08l.654 1.22c1.17 2.184 3.281 3.909 5.427 4.432.478.117 46.67.193 102.65.169l101.78-.044 1.336-.784zm-25.804-25.005c0-.961.275-1.404 2.2-3.543 2.639-2.931 3.78-4.553 3.42-4.858-.144-.123-1.031-.455-1.97-.739-2.14-.646-4.183-2.471-5.132-4.586-.89-1.983-.951-6.435-.123-8.872.758-2.229 3.412-4.861 5.804-5.756 2.316-.868 5.188-.87 7.497-.01 1.91.712 4.7 3.24 5.378 4.871.375.905.358.992-.302 1.498-.736.565-1.715.732-1.715.293 0-.142-.589-.912-1.309-1.71-1.75-1.943-3.484-2.762-5.761-2.723-3.145.054-5.23 1.398-6.58 4.245-1.013 2.137-1.126 4.818-.281 6.672.746 1.64 2.671 3.203 4.398 3.573 1.683.36 2.834.174 4.712-.761 1.333-.664 1.431-.675 1.954-.202.303.273.55.73.55 1.016 0 .285-1.751 2.502-3.893 4.927-2.96 3.352-3.82 4.497-3.584 4.78.345.415 7.631.542 8.258.145.19-.12.385-.996.434-1.946l.089-1.726h2.896v6.355l-8.47.077-8.47.077v-1.098zm-81.367-14.72c-1.035-1.385-4.6-5.772-7.921-9.748-8.642-10.344-11.454-14.786-12.512-19.762-1.326-6.241 1.008-11.957 5.81-14.232 5.327-2.523 10.99.699 12.227 6.956.479 2.423.883 2.985 1.676 2.328 1.251-1.036-.587-10.13-3.192-15.793-.525-1.14-.88-2.148-.79-2.238.091-.09 2.895-.165 6.232-.165 5.646 0 6.055.035 5.904.506-.089.278-.83 2.13-1.647 4.116-1.764 4.29-2.5 7.172-2.77 10.851-.175 2.37-.14 2.738.277 2.897.787.301 1.256-.372 1.735-2.486 1.604-7.085 7.067-10.334 12.714-7.56 2.264 1.112 3.738 2.662 4.913 5.167 1.921 4.096 1.696 8.409-.704 13.467-1.647 3.473-3.893 6.764-10.087 14.784-2.822 3.655-6.136 8.172-7.364 10.038-1.228 1.867-2.32 3.394-2.425 3.393-.106-.001-1.04-1.135-2.075-2.52zm89.015-20.516c-.598-1.072-1.802-3.055-2.675-4.405-3.334-5.158-4.382-8.398-3.39-10.482.623-1.31 1.678-2.008 3.09-2.045.906-.024 1.302.167 2.242 1.082 1.268 1.236 1.772 1.179 1.772-.2 0-.769-.364-1.674-1.968-4.893-.059-.12 1.022-.217 2.402-.217 1.38 0 2.461.098 2.402.217-1.604 3.22-1.967 4.127-1.967 4.91 0 .741.12.94.568.94.313 0 .715-.272.892-.603.178-.331.769-.788 1.314-1.015.845-.352 1.127-.355 1.93-.015 2.319.979 3.14 3.793 1.989 6.815-.595 1.561-6.923 11.862-7.288 11.862-.124 0-.714-.878-1.313-1.95zm-89.172-72.941c-1.253-1.629-4.511-5.626-7.24-8.883-9.953-11.884-12.287-15.702-13.183-21.571-1.117-7.312 3.4-13.821 9.577-13.798 4.422.016 7.917 3.203 8.726 7.955.367 2.15.848 2.866 1.54 2.293 1.308-1.083-.395-9.903-3.055-15.819-.474-1.054-.797-2.09-.716-2.3.21-.546 11.698-.558 11.908-.012.078.203-.366 1.539-.988 2.969-1.857 4.27-2.88 7.853-3.25 11.382-.304 2.896-.29 3.29.132 3.71.686.685 1.178.056 1.76-2.253.973-3.862 2.544-6.27 5.049-7.739 1.172-.687 1.638-.782 3.797-.779 2.097 0 2.678.118 3.922.77 2.871 1.503 4.862 4.142 5.78 7.66 1.212 4.638-.227 9.654-4.706 16.41-.948 1.43-3.779 5.264-6.291 8.521-4.945 6.41-7.95 10.538-9.41 12.927-.51.834-.96 1.517-1 1.517-.04 0-1.097-1.333-2.351-2.961zm-4.765-89.922c0-.085.332-.807.738-1.606 1.81-3.565 3.38-9.158 3.783-13.475.195-2.091-.125-3.253-.894-3.253-.566 0-.661.221-.999 2.314-.795 4.929-4.23 8.145-8.74 8.187-3.446.032-6.763-2.141-8.391-5.498-2.128-4.384-1.848-9.136.862-14.669 1.814-3.702 4.264-7.064 11.165-15.322 3.054-3.654 6.36-7.709 7.344-9.01.986-1.301 1.899-2.432 2.029-2.512.13-.08 1.286 1.44 2.568 3.377 1.282 1.938 4.59 6.448 7.352 10.023 9.18 11.883 11.388 15.797 12.005 21.28.716 6.37-3.695 12.501-9.364 13.014-4.574.414-7.973-2.629-9.569-8.565-.617-2.297-.93-2.785-1.617-2.522-.545.209-.587 1.597-.152 5.06.357 2.837 1.316 5.994 3.061 10.07.699 1.632 1.27 3.033 1.27 3.114 0 .08-2.8.147-6.225.147-3.424 0-6.226-.07-6.226-.154zM16.506 80.162c0-.082.39-.839.867-1.682.96-1.696 1.437-4.03.894-4.366-.19-.117-.83.24-1.483.829-.868.782-1.402 1.035-2.189 1.035-1.356 0-2.603-.756-3.152-1.909-1.093-2.298-.15-5.108 3.77-11.235.812-1.271 1.922-3.123 2.466-4.116.543-.993 1.055-1.805 1.138-1.804.083 0 .463.554.846 1.228.382.674 1.803 2.962 3.157 5.084 3.802 5.957 4.442 8.038 3.267 10.62-1.046 2.297-3.289 2.876-4.903 1.265-1.987-1.982-2.446-.157-.769 3.054.558 1.066 1.014 1.986 1.014 2.043 0 .057-1.108.103-2.462.103-1.353 0-2.461-.067-2.461-.149zm.385-28.15c-2.307-.548-4.592-2.227-6.229-4.577-.948-1.363-.92-1.808.159-2.513.708-.463.74-.445 2.839 1.667 1.685 1.696 2.407 2.214 3.504 2.513 3.436.938 7.098-.747 8.767-4.035.755-1.485.909-4.885.295-6.489-1.323-3.456-5.45-4.882-9.047-3.125l-1.608.785-.546-.672c-.3-.37-.545-.756-.543-.858 0-.101 1.77-2.248 3.93-4.77 2.338-2.73 3.823-4.692 3.667-4.848-.144-.143-2.14-.224-4.437-.18l-4.176.081-.089 1.726c-.096 1.87-.321 2.165-1.649 2.165-1.541 0-1.62-.187-1.53-3.625l.083-3.155 8.377-.077c6.51-.06 8.43 0 8.61.29.572.898.158 1.731-2.15 4.323-2.546 2.86-3.69 4.34-3.69 4.777 0 .148.751.478 1.668.732 5.164 1.432 7.454 6.238 5.995 12.575-1.19 5.167-6.866 8.558-12.2 7.29z" fill="#474747"/><path d="M.002 157.44V0h217.76v314.88H.002V157.44zm212.43 156.3c1.778-.949 3.8-3.342 4.314-5.108.383-1.316.425-18.95.36-151.7l-.073-150.21-.774-1.463c-.904-1.71-2.705-3.425-4.399-4.193-1.165-.527-4.017-.542-103-.549L7.05.507l-1.772.884C3.27 2.392 2.243 3.465 1.264 5.59L.586 7.062l.073 150.77.073 150.77.678 1.3c1.153 2.213 3.09 3.873 5.072 4.347.5.12 46.776.198 102.84.174l101.93-.044 1.191-.636zm-25.659-25.085c0-.87.329-1.4 2.107-3.399 4.09-4.599 4.378-5.207 2.615-5.537-2.564-.48-5.146-2.488-6.087-4.734-.705-1.684-.913-3.805-.626-6.373.432-3.867 2.033-6.193 5.528-8.03 1.379-.724 1.818-.804 4.426-.804 2.6 0 3.05.081 4.406.794 1.682.884 3.188 2.273 4.325 3.987.808 1.217.702 1.666-.55 2.335-.473.252-.792.035-2.16-1.472-.881-.973-2.108-2.025-2.725-2.34-3.705-1.885-8.4-.106-10.095 3.826-.527 1.221-.622 1.9-.54 3.842.085 1.987.225 2.547.89 3.55 1.533 2.309 4.876 3.488 7.318 2.58a92.498 92.498 0 0 0 2.123-.822c.877-.356 1.002-.341 1.375.169.226.308.41.698.406.866-.003.169-1.764 2.312-3.915 4.764-2.151 2.452-3.865 4.597-3.808 4.766.065.195 1.64.339 4.275.39 4.84.093 4.901.062 4.901-2.463V283l1.375.089 1.376.088v6.355l-8.47.077-8.47.077v-1.03zm-81.693-15.356c-1.33-1.717-4.378-5.462-6.775-8.322-7.518-8.968-9.534-11.686-11.36-15.31-3.422-6.795-2.959-13.473 1.224-17.649 3.325-3.319 8.212-3.601 11.554-.667 2.105 1.849 2.913 3.517 3.505 7.24.19 1.196.793 1.585 1.447.933 1.3-1.297-.528-10.577-3.152-16.004-.412-.851-.749-1.719-.749-1.927 0-.3 1.22-.38 5.888-.38 3.238 0 5.96.074 6.05.162.088.089-.467 1.681-1.236 3.539-2.2 5.32-2.905 8.072-2.971 11.61-.054 2.885-.028 3.037.553 3.12.674.096.977-.48 1.554-2.959.769-3.294 2.879-6.183 5.41-7.406 1.716-.828 5.117-.708 7.079.25 1.927.94 3.88 3.001 4.942 5.216.812 1.694.937 2.287 1.05 4.978.26 6.206-1.672 9.997-11.73 23.004-2.728 3.529-6.028 8.014-7.333 9.967-1.305 1.953-2.408 3.59-2.452 3.64-.044.048-1.168-1.317-2.497-3.034zm89.651-19.516c-.451-.834-1.788-3.064-2.971-4.956-2.326-3.72-3.108-5.329-3.553-7.313-.6-2.666.908-4.991 3.236-4.991.924 0 1.357.2 2.2 1.018.579.56 1.191.97 1.362.91.17-.059.306-.763.3-1.566-.008-1.128-.222-1.797-.941-2.952-.512-.821-.93-1.55-.93-1.618 0-.07 1.107-.125 2.46-.125 1.354 0 2.462.056 2.462.125s-.41.783-.911 1.587c-1.156 1.855-1.516 4.354-.628 4.354.309 0 .936-.39 1.394-.867.622-.647 1.095-.866 1.872-.866 2.015 0 3.274 1.65 3.307 4.333.024 1.985-.86 3.922-4.101 8.996-1.284 2.009-2.543 4.056-2.8 4.55-.255.494-.57.898-.7.898s-.606-.683-1.058-1.517zm-89.144-73.035c-.935-1.272-3.737-4.745-6.227-7.718-6.711-8.015-7.898-9.501-9.701-12.143-4.822-7.066-6.041-12.783-3.924-18.394.905-2.397 3.545-5.04 5.768-5.777 5.572-1.844 10.727 1.59 11.596 7.725.285 2.01.63 2.526 1.374 2.06 1.562-.979-.178-10.734-2.866-16.06-.459-.91-.834-1.787-.834-1.95 0-.194 2.117-.297 6.112-.297 4.776 0 6.079.079 5.961.36-3.399 8.176-4.13 10.645-4.427 14.936-.178 2.577-.145 2.91.298 3.08.76.29 1.306-.469 1.773-2.462.877-3.751 2.559-6.291 5.092-7.691 1.337-.739 1.85-.856 3.723-.851 2.667.01 4.28.67 6.368 2.62 2.54 2.37 4.046 6.65 3.632 10.326-.593 5.28-2.872 9.374-11.284 20.268-5.059 6.553-8.37 11.125-9.464 13.069-.38.674-.82 1.222-.98 1.218-.159 0-1.055-1.048-1.99-2.32zm-4.814-90.37c0-.144.383-1.114.852-2.155 2.796-6.217 4.36-14.944 2.848-15.89-.74-.464-1.152.11-1.404 1.963-1.089 8.008-9.937 11.048-15.275 5.25-4.414-4.795-4.159-12.27.681-19.96 1.917-3.046 3.812-5.48 10.07-12.94 2.64-3.145 5.673-6.882 6.742-8.305 1.07-1.423 2.037-2.587 2.152-2.587.114 0 1.328 1.658 2.697 3.683 1.369 2.026 4.652 6.478 7.295 9.894 9.955 12.864 11.903 16.7 11.668 22.966-.094 2.508-.229 3.145-1.02 4.825-2.472 5.249-8.15 7.648-12.498 5.282-2.546-1.387-3.943-3.422-4.983-7.263-.674-2.487-1.12-3.168-1.882-2.876-.445.17-.48.517-.325 3.145.248 4.165 1.45 8.187 4.445 14.87.126.283-1.168.361-5.95.361-3.463 0-6.112-.113-6.112-.262zM16.511 80.09c0-.083.304-.635.676-1.228.878-1.401 1.351-2.804 1.351-4.01 0-1.297-.658-1.272-1.97.076-.932.957-1.123 1.032-2.292.9-2.582-.29-3.681-2.464-2.832-5.596.484-1.781 1.128-2.996 4.878-9.203 2.663-4.405 2.448-4.128 2.803-3.61 1.523 2.222 6.254 9.957 6.714 10.977 1.186 2.626.566 6.156-1.245 7.09-1.303.672-2.185.514-3.438-.614-.632-.57-1.283-.952-1.449-.85-.747.46-.088 3.325 1.172 5.095.296.415.455.837.353.938-.22.22-4.72.252-4.72.034zm.674-28.158c-2.5-.523-4.965-2.292-6.484-4.653l-.962-1.496.852-.68c.47-.374.924-.681 1.01-.682.087 0 .65.643 1.252 1.43 1.262 1.65 3.299 3.097 4.742 3.367 1.66.311 4.056-.079 5.435-.886 2.391-1.398 3.67-3.864 3.677-7.09.004-2.238-.36-3.282-1.6-4.575-2.152-2.248-4.94-2.723-7.94-1.354-1.554.71-1.68.726-2.025.255-.202-.277-.364-.706-.36-.953.005-.248 1.695-2.4 3.756-4.784 2.061-2.383 3.752-4.481 3.756-4.663.014-.557-.774-.681-4.286-.677-4.721.01-4.638-.032-4.741 2.12l-.086 1.776h-2.895l-.082-2.918c-.063-2.23.013-2.997.325-3.254.293-.243 2.655-.316 8.479-.26l8.072.077.09 1.086c.08.97-.077 1.263-1.475 2.744-2.255 2.39-4.261 4.938-4.261 5.414 0 .244.499.531 1.23.708 3.07.741 5.534 2.978 6.345 5.763.519 1.778.432 5.589-.175 7.67-.643 2.206-2.929 4.675-5.312 5.737-1.86.829-4.529 1.157-6.337.778z" fill="#373737"/><path d="M.002 157.44V0h217.76v314.88H.002V157.44zm212.87 156.22c1.628-.954 2.719-2.197 3.62-4.122l.676-1.444v-301l-.697-1.494c-.838-1.796-2.599-3.57-4.365-4.399L210.81.594l-102 .01C9.632.614 6.78.624 5.61 1.153c-1.724.78-3.434 2.433-4.287 4.142L.582 6.777l.006 150.81.006 150.81.589 1.3c.97 2.142 3.027 3.983 5.188 4.642.399.122 46.723.2 102.94.173l102.22-.049 1.345-.788zm-25.909-24.103c-.106-.106-.193-.56-.193-1.009 0-.614.537-1.398 2.169-3.166 2.485-2.692 4.026-4.878 3.682-5.222-.13-.13-.91-.41-1.734-.623a8.318 8.318 0 0 1-5.896-5.816c-.524-1.918-.15-6.794.648-8.437.871-1.796 2.647-3.494 4.78-4.57 1.528-.772 1.983-.862 4.314-.851 3.311.015 5.199.835 7.367 3.202 1.823 1.99 2.103 2.873 1.144 3.608-.381.292-.771.501-.867.465-.096-.036-.751-.775-1.457-1.643-2.345-2.887-5.432-3.853-8.73-2.732-1.674.57-3.527 2.329-4.326 4.11-.861 1.92-.864 5.24-.006 6.88 1.74 3.324 5.553 4.465 9.137 2.735 1.328-.642 1.408-.648 1.95-.159.311.281.566.618.566.75 0 .13-1.76 2.246-3.91 4.7-2.15 2.455-3.909 4.667-3.909 4.917 0 .393.6.454 4.483.454 5.074 0 4.687.207 4.852-2.6l.076-1.3h2.317l.082 3.25.081 3.25h-8.213c-4.518 0-8.3-.087-8.407-.193zm-81.616-15.951c-1.06-1.412-4.444-5.579-7.52-9.26-6.861-8.211-8.819-10.89-10.673-14.605-1.925-3.858-2.399-5.853-2.262-9.532.097-2.615.21-3.131 1.08-4.892 1.832-3.713 4.84-5.78 8.428-5.792 4.423-.014 7.997 3.46 8.621 8.38.248 1.953.89 2.616 1.726 1.782 1.347-1.344-.635-11.215-3.31-16.49-.575-1.134-.64-1.46-.33-1.66.214-.137 2.863-.216 5.89-.177 6.447.083 6.055-.284 4.244 3.98-1.659 3.904-2.603 7.378-2.92 10.752-.282 2.975-.111 3.972.677 3.972.647 0 1.015-.682 1.601-2.97 1.34-5.224 4.008-7.941 8.074-8.22 5.786-.399 10.46 4.795 10.47 11.634.006 2.826-.6 4.96-2.453 8.655-1.602 3.193-3.641 6.1-11.184 15.945-2.167 2.829-4.816 6.476-5.885 8.104-1.07 1.629-2.035 2.961-2.146 2.961-.11 0-1.069-1.155-2.129-2.566zm90.028-18.864c-.225-.367-1.232-2.033-2.237-3.701a819.612 819.612 0 0 0-2.795-4.605c-1.569-2.552-2.195-4.53-2.057-6.488.1-1.416.254-1.82.909-2.382 1.534-1.316 3.147-1.246 4.432.193.923 1.034 1.755 1.116 1.986.197.195-.774-.563-3.188-1.348-4.292-.892-1.256-.725-1.4 1.627-1.4 1.194 0 2.172.069 2.172.152 0 .084-.373.897-.83 1.806-1.08 2.155-1.355 3.618-.77 4.103.366.303.632.19 1.6-.682 1.348-1.216 2.43-1.35 3.586-.443 2.218 1.741 2.186 5.287-.081 8.903-.458.73-1.947 3.122-3.309 5.317-2.4 3.867-2.488 3.97-2.885 3.322zm-90.288-74.693c-1.309-1.708-3.955-4.971-5.881-7.251-9.824-11.631-12.48-15.622-13.787-20.72-1.759-6.86.765-13.174 6.063-15.17 2-.754 4.791-.65 6.538.242 2.605 1.33 4.568 4.17 4.962 7.174.102.781.303 1.648.445 1.926.398.774 1.366.626 1.704-.26.786-2.062-1.38-11.539-3.669-16.052-.38-.75-.691-1.432-.691-1.517 0-.085 2.686-.154 5.97-.154h5.97l-.15.65c-.083.358-.748 2.086-1.479 3.84-1.883 4.525-2.522 7.197-2.585 10.812-.048 2.74-.002 3.036.485 3.133.797.16 1.034-.221 1.639-2.638 1.364-5.447 4.43-8.405 8.711-8.405 3.714 0 6.866 2.226 8.759 6.185.781 1.635.912 2.259 1.01 4.825.092 2.433 0 3.314-.526 5.043-1.274 4.184-4.133 8.81-10.371 16.781-4.108 5.25-7.61 10.033-9.302 12.711-.678 1.073-1.279 1.95-1.334 1.95-.056 0-1.172-1.397-2.48-3.105zm-4.316-89.632c0-.163.376-1.04.834-1.95 1.654-3.277 3.39-9.838 3.534-13.352.088-2.142.002-2.565-.583-2.878-.74-.395-1.468.312-1.468 1.424 0 1.683-1.13 4.518-2.352 5.903-1.805 2.046-3.667 2.901-6.335 2.91-1.798.01-2.454-.13-3.81-.796-2.571-1.259-4.573-3.87-5.446-7.102-.88-3.26-.115-8.235 1.871-12.17 1.916-3.796 3.786-6.305 12.161-16.323 2.391-2.86 5.194-6.33 6.228-7.713 1.035-1.382 1.962-2.52 2.06-2.528.1-.01.909 1.132 1.799 2.533 1.66 2.613 4.65 6.66 10.175 13.774 7.216 9.292 9.705 14.296 9.697 19.5-.006 3.8-1.223 6.716-3.797 9.094-1.936 1.788-3.759 2.51-6.3 2.499-2.157-.01-3.598-.606-5.19-2.147-1.58-1.53-2.28-2.854-3.233-6.125-.682-2.34-.831-2.608-1.5-2.687-1.034-.123-1.137.35-.812 3.748.34 3.551 1.042 6.136 2.916 10.728.782 1.918 1.423 3.592 1.423 3.72 0 .13-2.672.235-5.936.235-3.874 0-5.936-.104-5.936-.297zM16.798 80.133c0-.1.392-.977.871-1.95 1.05-2.131 1.271-4.004.493-4.164-.297-.061-1.007.334-1.665.928-1.259 1.134-1.827 1.24-3.308.624-1.423-.594-1.997-1.87-1.822-4.053.16-1.984 1.048-3.936 3.71-8.151.92-1.457 2.107-3.438 2.638-4.402.53-.965 1.03-1.755 1.11-1.755.08 0 .458.55.84 1.224.382.674 1.736 2.85 3.009 4.837 3.041 4.744 3.673 6.124 3.677 8.025.005 2.829-1.211 4.528-3.243 4.528-.966 0-1.309-.164-1.952-.933-2.05-2.45-2.636.24-.775 3.56.415.742.684 1.465.596 1.606-.178.288-4.179.36-4.179.076zm-1.592-28.939c-1.762-.85-4.185-3.12-4.825-4.521-.278-.61-.246-.83.19-1.311.29-.319.672-.58.85-.58.18 0 1.002.767 1.828 1.703 1.837 2.083 3.523 2.961 5.68 2.961 3.328 0 5.883-1.583 7.158-4.436.949-2.12.964-5.338.035-7.092-1.713-3.233-5.722-4.343-9.14-2.53-1.227.651-1.314.66-1.751.179-.253-.28-.46-.656-.46-.839 0-.182 1.7-2.3 3.78-4.706 2.18-2.524 3.74-4.574 3.687-4.845-.077-.405-.675-.482-4.246-.551-2.817-.054-4.285.027-4.557.252-.259.214-.401.935-.401 2.03v1.698h-2.606V22.25h16.794v.913c0 .72-.415 1.372-1.978 3.105-4.377 4.85-4.655 5.528-2.44 5.943 1.616.302 3.02 1.124 4.32 2.532 1.714 1.855 2.218 3.623 2.067 7.249-.152 3.668-.85 5.432-2.868 7.24-2.209 1.983-3.729 2.589-6.774 2.703-2.39.09-2.75.028-4.343-.741z" fill="#262626"/><path d="M.002 157.44V0h217.76v314.88H.002V157.44zm212.87 156.35c1.414-.877 3.075-2.747 3.743-4.215.53-1.164.543-5.061.543-151.99 0-146-.017-150.83-.534-151.97-.756-1.66-2.206-3.21-3.919-4.19l-1.47-.841H6.555l-1.3.628c-1.652.798-3.411 2.547-4.114 4.092-.534 1.174-.547 4.77-.554 152.22-.006 134.95.041 151.13.437 152.08.949 2.264 3.08 4.22 5.127 4.708.52.123 47.007.205 103.31.18l102.36-.043 1.058-.657zm-26.105-25.029c0-.46.804-1.62 2.353-3.394 3.912-4.485 4.484-5.722 2.651-5.736-1.139-.01-3.24-1.02-4.378-2.105-2.224-2.121-3.081-5.58-2.383-9.613.583-3.366 2.494-5.777 5.776-7.292 2.159-.996 5.19-1.025 7.647-.072 1.783.69 4.173 2.79 5.004 4.394.42.811.417.923-.044 1.432-.275.303-.63.551-.79.551-.159 0-.986-.769-1.838-1.708-1.988-2.192-3.46-2.916-5.91-2.908-3.148.011-5.393 1.375-6.88 4.183-.652 1.23-.766 1.807-.77 3.9-.003 2.172.09 2.614.806 3.829 1.736 2.946 5.697 3.996 8.923 2.365 1.545-.78 2.284-.64 2.284.437 0 .272-1.76 2.497-3.91 4.946-2.15 2.448-3.865 4.582-3.812 4.742.06.18 1.87.291 4.706.291h4.609l.086-1.805.086-1.806H203.562v6.066h-16.795v-.697zm-82.245-16.374c-1.662-2.13-4.139-5.172-5.504-6.76-9.203-10.713-12.274-15.362-13.627-20.63-1.638-6.38.657-12.409 5.56-14.604 3.405-1.524 6.824-.83 9.389 1.905 1.505 1.606 2.065 2.759 2.485 5.116.463 2.6.51 2.69 1.37 2.591.62-.072.823-.297 1.035-1.156.577-2.328-1.618-11.656-3.712-15.778l-.76-1.498h5.971c4.668 0 5.938.079 5.817.36l-1.163 2.707c-1.783 4.146-2.76 7.656-3.12 11.205-.272 2.662-.266 3.424.027 3.775.916 1.102 1.675.359 2.36-2.31 1.006-3.916 2.469-6.164 4.853-7.459 4.75-2.579 10.775.281 12.82 6.086 1.76 4.994.443 10.533-4.118 17.329-1.641 2.445-1.902 2.795-8.136 10.916-3.528 4.597-6.859 9.284-8.22 11.568-.261.437-.734-.041-3.327-3.363zm90.078-19.11c-.543-.993-1.701-2.91-2.573-4.261-2.646-4.1-3.667-6.49-3.667-8.588 0-1.646.081-1.881.94-2.738 1.367-1.364 2.77-1.314 4.403.157 1.02.92 1.285 1.036 1.659.727.634-.526.298-2.547-.741-4.462-.459-.844-.763-1.606-.676-1.693.087-.087.962-.158 1.944-.158s1.857.071 1.943.158c.087.087-.228.87-.701 1.741-1.676 3.086-.992 5.736.935 3.63 2.05-2.24 4.754-.869 5.112 2.592.218 2.108-.533 3.934-3.55 8.634-1.276 1.986-2.63 4.164-3.01 4.839-.38.675-.767 1.227-.86 1.227-.094 0-.615-.812-1.158-1.805zm-88.183-71.648c-1.211-1.71-5.806-7.386-9.992-12.343-8.145-9.647-11.006-14.702-11.477-20.28-.582-6.895 3.744-12.53 9.594-12.496 4.444.026 7.683 3.185 8.43 8.221.343 2.322.967 2.866 1.992 1.737 1.226-1.352-.454-9.987-3.084-15.846-.452-1.008-.822-1.95-.822-2.095 0-.148 2.52-.262 5.79-.262 3.555 0 5.792.109 5.792.28 0 .155-.338 1.033-.752 1.95-2.198 4.883-3.37 9.158-3.717 13.566-.131 1.657-.073 2.165.29 2.528.251.25.557.454.68.454.526 0 1.133-1.144 1.587-2.993 1.324-5.389 4.308-8.274 8.556-8.273 3.651 0 6.926 2.312 8.725 6.16.743 1.59.95 2.458 1.065 4.478.318 5.583-2.147 10.689-10.066 20.846-4.656 5.971-7.897 10.352-9.695 13.104-.898 1.374-1.722 2.495-1.831 2.492-.11 0-.589-.556-1.065-1.228zm-5.428-91.082c-.09-.091.266-1.098.792-2.239 1.366-2.958 2.677-7.385 3.182-10.74.563-3.745.55-4.278-.123-5.096-.874-1.062-1.513-.452-1.939 1.85-.481 2.605-1.27 4.262-2.713 5.7-3.75 3.742-9.444 3.21-12.886-1.202-3.292-4.22-3.249-10.502.116-16.879 1.864-3.531 3.915-6.33 9.595-13.092 2.576-3.067 5.923-7.154 7.438-9.083 1.516-1.93 2.852-3.545 2.97-3.59.118-.046 1.332 1.579 2.7 3.61 1.366 2.032 4.65 6.489 7.296 9.905 5.7 7.358 8.197 11.027 9.749 14.33 1.202 2.56 1.966 5.486 1.974 7.567.015 3.643-1.853 7.686-4.474 9.682-5.166 3.935-11.545 1.642-13.512-4.859-1.057-3.493-1.252-3.973-1.748-4.285-.353-.222-.613-.195-.97.101-.425.352-.462.768-.284 3.161.265 3.568 1.19 7.11 2.984 11.423.793 1.907 1.383 3.564 1.31 3.683-.15.25-11.208.3-11.457.052zM17.67 78.466c1.085-1.918 1.467-4.326.73-4.608-.59-.226-1.472.2-1.713.826-.096.25-.633.646-1.192.879-.873.364-1.152.367-1.959.027-1.664-.703-2.1-1.457-2.089-3.614.013-2.187.813-4.12 3.252-7.859.77-1.181 1.974-3.156 2.674-4.387.7-1.231 1.345-2.235 1.433-2.231.206.01 5.03 7.679 6.312 10.034 1.302 2.393 1.525 4.38.7 6.24-.451 1.017-.857 1.465-1.612 1.78-1.192.496-1.74.349-2.966-.798-.524-.491-1.138-.806-1.448-.743-.878.18-.642 2.49.454 4.427l.896 1.584H16.79l.88-1.557zm-1.514-26.981c-.75-.271-1.948-.909-2.664-1.416-1.277-.905-3.337-3.38-3.351-4.027-.004-.18.333-.55.748-.822.75-.49.763-.485 1.665.617 2.368 2.891 3.841 3.703 6.701 3.692 1.686-.01 2.289-.15 3.582-.854 2.631-1.432 4.097-4.1 4.085-7.436-.008-2.24-.666-3.758-2.244-5.178-2.056-1.848-4.576-2.157-7.377-.902-1.69.757-1.748.763-2.14.228-.22-.302-.368-.645-.326-.762.042-.117 1.815-2.239 3.94-4.716 2.484-2.894 3.805-4.657 3.699-4.934-.14-.361-.902-.418-4.733-.35l-4.567.08-.145 1.877-.144 1.878h-2.317l-.082-3.11-.082-3.11 8.335.077 8.334.077.092.795c.073.63-.235 1.143-1.47 2.456-2.644 2.808-4.592 5.314-4.5 5.79.052.266.627.592 1.39.788 4.34 1.113 6.66 4.214 6.66 8.898 0 4.193-1.327 7.045-4.195 9.015-2.693 1.85-6.09 2.366-8.894 1.35z" fill="#161616"/><path d="M.012 157.44L.013 0h217.74l-.002 157.43-.002 157.43-4.704-.03c-4.691-.03-4.699-.031-2.5-.365 1.212-.184 2.45-.521 2.75-.75 1.491-1.13 2.546-2.305 3.18-3.541l.699-1.365-.002-151.27-.002-151.27-.787-1.442c-.793-1.454-2.464-3.106-3.9-3.857-.666-.348-15.704-.408-103.6-.412-102.55 0-102.82 0-103.96.578-1.461.744-3.021 2.3-3.766 3.756C.575 6.03.574 6.29.577 157.602l.002 151.57.824 1.466c1.255 2.234 3.11 3.495 5.645 3.843 1.948.266 1.8.286-2.488.325l-4.56.042v-157.44zm187.05 131.19c0-.475.261-1.054.619-1.372.34-.303 1.49-1.59 2.555-2.861 3.476-4.147 3.562-4.517 1.167-5.03-1.829-.39-2.34-.657-3.808-1.98-2.068-1.863-2.415-2.87-2.415-7 0-4.218.442-5.491 2.594-7.47 3.694-3.397 8.585-3.859 12.488-1.18 1.471 1.01 3.43 3.574 3.195 4.184-.379.985-1.049.756-2.536-.867-2.536-2.769-5.176-3.59-8.474-2.633-3.425.993-5.48 4.039-5.473 8.11.01 5.48 4.623 8.472 9.788 6.35.955-.393 1.765-.715 1.8-.716.034 0 .193.244.354.544.25.464-.292 1.21-3.609 4.972-2.58 2.927-3.902 4.651-3.902 5.088 0 .66.001.66 4.575.66 3.172 0 4.682-.105 4.923-.346.19-.19.347-1.1.347-2.022v-1.675h2.027v6.066h-16.215v-.822zm-83.03-17.151c-1.911-2.428-4.49-5.585-5.729-7.015-9.09-10.49-12.234-15.646-13.163-21.594-1.221-7.823 4.906-14.69 11.421-12.8 3.027.879 5.678 4.085 6.103 7.381.284 2.206.408 2.558.965 2.734.817.259 1.416-.089 1.737-1.009.696-1.99-1.174-10.648-3.285-15.205-.53-1.142-.888-2.15-.797-2.241.09-.091 2.634-.165 5.652-.165 5.092 0 5.476.036 5.333.506-.085.278-.693 1.788-1.35 3.356-1.661 3.96-2.57 7.343-2.868 10.69-.286 3.197-.201 3.846.53 4.078 1.216.385 1.574-.15 2.484-3.717.672-2.635 2.425-5.233 4.31-6.385 1.298-.794 1.649-.872 3.909-.866 2.918.01 4.211.547 6.301 2.632 1.964 1.96 3.034 4.55 3.207 7.76.306 5.686-1.912 10.263-10.078 20.8-5.52 7.122-6.904 8.995-9.138 12.36l-2.068 3.115-3.476-4.415zm91.035-17.738c-.275-.575-1.37-2.427-2.434-4.116-2.807-4.455-3.917-6.803-4.066-8.607-.156-1.867.272-3.004 1.375-3.654 1.267-.746 2.25-.615 3.296.439.79.798 1.14.935 2.511.983 1.473.052 1.661-.018 2.5-.927 1.425-1.543 3.285-1.218 4.306.753.57 1.098.525 3.59-.09 5.117-.517 1.285-6.454 11.02-6.735 11.044-.09.01-.388-.457-.663-1.032zm.689-17.298c-.008-.318-.394-1.325-.859-2.239l-.844-1.66h3.79l-.507.77c-.278.425-.745 1.432-1.036 2.24-.292.806-.536 1.207-.544.889zm-89.333-55.109c-1.173-1.655-5.687-7.229-10.115-12.488-5.895-7.002-8.582-10.991-10.118-15.019-.808-2.12-.883-2.616-.895-5.93-.013-3.513.013-3.67.935-5.54 1.816-3.681 4.824-5.728 8.4-5.714 3.955.015 7.509 3.342 8.051 7.537.315 2.433.567 2.91 1.488 2.803 1.119-.13 1.57-1.163 1.364-3.124-.495-4.732-1.702-9.322-3.465-13.182l-.973-2.13h5.664c5.259 0 5.653.037 5.512.506-.083.278-.752 1.958-1.487 3.734-1.925 4.65-2.516 7.154-2.576 10.927l-.051 3.177.748.087c1.014.118 1.329-.347 1.997-2.956 1.1-4.29 3.254-6.968 6.322-7.858 4.004-1.16 8.617 1.382 10.702 5.898.912 1.977 1.223 6.082.659 8.7-.74 3.431-3.502 8.25-8.377 14.617-6.829 8.92-9.353 12.323-10.876 14.66-.905 1.39-1.735 2.525-1.845 2.522-.11 0-.588-.556-1.064-1.228zm-4.597-92.579c2.784-6.117 4.478-15.07 3.132-16.553-.28-.31-.678-.563-.883-.563-.551 0-1.275 1.17-1.275 2.06 0 1.455-1.098 4.307-2.152 5.59-.67.817-1.719 1.606-2.912 2.192-1.63.8-2.091.9-3.684.799-6.963-.447-10.83-8.307-8.146-16.562 1.392-4.281 4.814-9.31 11.99-17.621 1.372-1.59 4.031-4.84 5.91-7.222 1.877-2.384 3.503-4.369 3.612-4.412.108-.043 1.128 1.322 2.265 3.033 1.138 1.712 4.54 6.333 7.562 10.27 6.241 8.133 7.771 10.345 9.476 13.708 1.67 3.294 2.253 5.842 2.07 9.04-.249 4.364-2.237 7.65-5.764 9.525-1.485.79-2.115.954-3.7.969-4.225.039-7.057-2.694-8.438-8.141-.617-2.437-1.387-3.424-2.291-2.942-.79.422-.859.88-.575 3.87.395 4.162 1.346 7.362 4.243 14.261.118.282-1.096.361-5.523.361h-5.673l.755-1.66zM17.09 79.889c0-.07.28-.6.621-1.178.342-.578.792-1.528 1-2.111.21-.584.386-.83.393-.547.007.282.406 1.29.886 2.239l.873 1.725h-1.887c-1.037 0-1.886-.058-1.886-.128zM12.573 74.7c-.903-.9-.985-1.127-.985-2.73 0-1.53.172-2.072 1.376-4.336 1.665-3.133 5.662-9.836 5.863-9.833.213 0 5.826 9.06 6.584 10.623 2.144 4.421-1.22 9.404-4.14 6.134-.637-.714-.948-.824-2.354-.837-1.478-.013-1.703.072-2.554.973-1.272 1.346-2.446 1.347-3.79.01zm2.545-23.88c-1.742-.868-3.84-2.864-4.494-4.274-.261-.564-.22-.751.235-1.083.76-.554.753-.557 1.889.868.557.699 1.649 1.706 2.427 2.239 1.337.915 1.553.969 3.917.969 2.11 0 2.725-.115 3.93-.734 3.531-1.813 5.204-7.31 3.335-10.963-1.302-2.546-4.498-4.083-7.261-3.492-.8.172-1.852.516-2.336.766-.938.484-1.7.38-1.692-.228.003-.204 1.576-2.19 3.496-4.415 4.404-5.103 4.488-5.224 4.026-5.779-.289-.348-1.195-.432-4.646-.432-5.062 0-5.197.065-5.197 2.476v1.569H10.72V22.53h16.215v.813c0 .533-.308 1.104-.897 1.66-1.201 1.137-4.43 5.015-4.871 5.85-.475.9-.046 1.375 1.457 1.615 2.679.427 5.037 2.48 5.93 5.161.367 1.105.45 2.159.352 4.517-.112 2.715-.226 3.257-.968 4.618-.975 1.786-2.541 3.163-4.78 4.203-1.28.594-2.025.734-3.923.737-2.037 0-2.573-.113-4.117-.882z"/></svg>