<svg xmlns="http://www.w3.org/2000/svg" height="335.872" width="232.29" viewBox="0 0 217.7722 314.88"><path d="M.012 157.44V0h217.76v314.88H.012V157.44z" fill="#fdfdfd"/><path d="M.012 157.44V0h217.76v314.88H.012V157.44zm211.6 155.6c1.776-.963 3.67-2.989 4.191-4.482.292-.836.38-31.116.44-150.53.065-134.48.028-149.64-.377-151.03-.58-1.987-2.367-3.96-4.41-4.866l-1.53-.678h-100.98c-90.401 0-101.11.05-102.28.451-1.75.601-4.188 3.007-4.768 4.705-.396 1.159-.443 17.363-.443 151.14 0 136.63.04 149.94.463 150.96a8.42 8.42 0 0 0 5.557 4.903c1.092.294 21.383.357 101.99.314l100.62-.054 1.524-.827zm-204.75-6.732c-.106-.106-.193-.431-.193-.722 0-.373.215-.53.724-.53.58 0 .724.144.724.722 0 .508-.158.722-.53.722-.293 0-.619-.087-.725-.192zm-3.45-2.599c.199-.08.362-.533.362-1.007 0-.762.076-.839.651-.66.753.235 1.075.638 1.081 1.353.004.406-.236.501-1.226.483-.677-.012-1.068-.088-.868-.169zm183.85-13.29c-.107-.106-.193-4.584-.193-9.952v-9.76l-1.81-.086-1.81-.086-.084-2.206-.084-2.207 1.894.152 1.893.151v-1.61c0-1.605-.003-1.61-.94-1.7l-.942-.091v-3.756l4.014-.08c2.784-.057 4.142.024 4.43.262.29.241.389.825.329 1.958l-.086 1.615-1.23.09-1.231.088v3.145H203.574l-.004 2.094c-.002 1.152-.166 2.363-.362 2.692-.197.329-1.268 1.954-2.38 3.61a365.98 365.98 0 0 0-2.317 3.48c-.162.255-.68 1.035-1.15 1.733-.91 1.347-3.839 5.74-5.872 8.807l-1.226 1.85h-1.404c-.772 0-1.491-.088-1.597-.193zm5.308-12.406c0-.38.153-.657.34-.618.327.07 4.583-5.922 4.583-6.454 0-.144-1.368-.262-3.04-.262h-3.041l.01 4.694.01 4.694.57-.682c.313-.375.569-.992.569-1.372zm-140.92-2.351c-1.16-1.635-4.076-5.272-8.057-10.045-4.59-5.502-7.648-9.366-9.14-11.548-4.857-7.1-6.12-14.274-3.463-19.67 1.912-3.884 4.683-5.874 8.522-6.12 3.082-.197 5.044.45 7.02 2.313 1.946 1.836 2.583 2.856 3.138 5.018l.437 1.704-.16-1.554c-.276-2.696-1.555-7.528-2.793-10.552-.657-1.603-1.303-3.039-1.437-3.19-.133-.15-.242-.619-.242-1.04 0-.758.023-.767 2.65-.953 3.306-.234 8.656-.208 10.376.05.855.128 1.33.354 1.389.658.049.255-.45 1.685-1.109 3.178-2.035 4.614-3.272 8.879-3.55 12.248-.08.953-.08 1.473-.001 1.155.944-3.816 2.525-6.674 4.505-8.15 1.744-1.298 2.833-1.625 5.43-1.629 2.142 0 2.685.106 4.183.844 6.565 3.23 8.654 11.505 4.943 19.58-1.69 3.679-6.097 10.378-8.63 13.119-.332.36-1.068 1.294-1.636 2.077-.568.782-2.205 2.965-3.638 4.85-1.433 1.886-3.453 4.748-4.488 6.361-2.285 3.561-2.58 3.65-4.249 1.296zm106.26.925c-.67-.948-4.032-5.241-5.227-6.677l-4.768-5.712c-10.128-12.128-12.25-16.003-12.666-23.127-.112-1.907-.098-3.663.03-3.901.128-.239.619-1.31 1.09-2.38 1.09-2.475 3.293-4.843 5.326-5.725 2.22-.964 5.374-1.086 7.485-.291 2.867 1.08 4.906 3.323 5.922 6.518.507 1.595.505.42-.003-2.214-.59-3.055-2.098-7.593-3.266-9.826-1.65-3.158-1.425-3.325 4.572-3.38 4.995-.048 8.885.25 9.055.694.076.196-.644 2.221-1.598 4.501-1.813 4.335-2.73 7.55-2.992 10.497l-.155 1.75.528-1.734c1.055-3.461 2.667-5.671 5.2-7.128 1.526-.878 1.86-.955 4.122-.952 2.05 0 2.737.132 4.117.772 3.213 1.49 5.364 4.109 6.457 7.862.685 2.348.485 7.11-.406 9.702-.87 2.532-3.318 6.858-5.824 10.295-1.357 1.86-2.014 3.012-1.921 3.367.095.361.016.49-.239.393-.53-.203-2.516 2.217-7.912 9.633-3.252 4.47-3.827 5.34-3.827 5.793 0 .52-1.544 2.006-2.085 2.006-.272 0-.729-.33-1.015-.735zm32.794-22.158c-.607-1.152-1.387-2.484-1.733-2.96-.977-1.344-3.232-5.303-4.104-7.207-.54-1.176-.827-2.36-.913-3.755-.11-1.786-.04-2.163.56-3.05 1.24-1.83 3.498-2.481 5.588-1.61 1.182.493 1.161.368-.361-2.234-1.437-2.456-1.333-2.544 2.897-2.447 3.48.08 3.555.095 3.649.76.054.383-.15.947-.473 1.3-.665.726-1.605 2.496-1.422 2.678.069.069.478-.01.909-.171 1.861-.707 3.942-.042 5.024 1.604.886 1.35 1.13 3.87.56 5.786-.426 1.428-.953 2.369-4.268 7.623-.852 1.35-1.847 3.023-2.21 3.716-.905 1.726-1.225 2.062-1.964 2.062-.495 0-.88-.465-1.739-2.095zM45.474 89.23c0-.673.48-1.931 1.939-5.092.856-1.854 2.417-7.827 2.377-9.094-.024-.763-.087-.692-.5.572-.545 1.672-3.006 4.335-4.763 5.157-4.313 2.014-9.302.82-12.123-2.9-1.951-2.573-2.708-4.999-2.686-8.612.02-3.425.637-6.08 2.078-8.955 1.143-2.279 3.636-6.25 4.539-7.23.328-.355 1.835-2.177 3.348-4.048a370.315 370.315 0 0 1 4.778-5.781 185.973 185.973 0 0 0 3.33-4.026c.716-.904 1.693-2.133 2.171-2.73.478-.598 1.29-1.69 1.804-2.43 1.124-1.614 2.098-1.8 2.874-.548 2.731 4.408 5.507 8.261 11.322 15.722 5.059 6.49 6.742 9.077 8.563 13.163 2.739 6.142 1.823 13.342-2.162 17-2.437 2.238-4.447 3.083-7.199 3.027-4.45-.091-7.344-2.306-9.165-7.016l-.7-1.814.149 1.793c.173 2.077 1.768 7.195 3.384 10.858 1.247 2.828 1.325 3.24.662 3.495-.252.097-3.51.175-7.239.175h-6.78v-.685zm4.544-16.28c-.073-.28-.138-.12-.144.356-.006.477.054.707.134.51.079-.195.084-.585.01-.866zm5.204-.727c-.08-.199-.147-.036-.147.36 0 .398.066.56.147.362.08-.199.08-.524 0-.722zm95.846 17.5c-.394-.392-.168-1.316.784-3.208 1.4-2.785 2.402-5.72 3.072-8.998.578-2.832.794-5.352.267-3.118-.644 2.73-2.536 5.065-5.14 6.344-1.682.826-2.199.94-4.238.937-1.948 0-2.617-.138-4.152-.842-4.482-2.058-7.06-7.48-6.39-13.445.718-6.403 3.907-11.6 15.047-24.521 2.379-2.76 7.019-8.668 7.475-9.518.225-.42.608-.633 1.127-.627.654.01.954.3 1.786 1.749.55.957 1.41 2.22 1.912 2.808.502.587 1.122 1.457 1.378 1.934.255.477 1.48 2.189 2.72 3.805 4.928 6.418 8.4 11.003 9.461 12.49 1.786 2.507 4.149 7.213 4.795 9.553.801 2.903.807 6.775.014 9.336-.712 2.301-2.715 5.101-4.405 6.16-.681.427-1.566.997-1.967 1.268-.527.356-1.421.508-3.21.547-4.577.101-7.224-1.487-9.261-5.557l-1.182-2.36.16 1.755c.166 1.836 1.204 5.052 3.105 9.617.62 1.488 1.127 3.016 1.127 3.395v.688h-7.046c-3.875 0-7.133-.087-7.239-.192zm9.843-16.633c-.08-.199-.146-.036-.146.36 0 .398.066.56.146.362.08-.199.08-.524 0-.722zM11.771 81.65c-.109-.283.273-1.14.983-2.2 1.175-1.755 1.57-2.945.755-2.27-1.458 1.208-4.158.89-5.58-.654-1.236-1.342-1.514-3.153-.866-5.631.474-1.812 1.192-3.179 4.792-9.133 1.018-1.682 2.06-3.478 2.317-3.991.738-1.474 1.57-1.382 2.527.278.44.764 2.007 3.292 3.482 5.617 3.029 4.775 3.989 7.14 3.805 9.376-.141 1.717-.973 3.468-2.015 4.244-.792.59-2.499.762-3.785.38-1.065-.315-1.046.187.072 1.947 1.535 2.414 1.439 2.502-2.72 2.502-3.03 0-3.616-.072-3.767-.465zm3.503-28.03c-.11-.11-.2-.955-.2-1.88 0-1.55.055-1.693.723-1.86.398-.1.724-.362.724-.583 0-.221.144-.402.32-.402.177 0 .246.195.154.433-.091.238-.04.433.114.433.155 0 .28-.65.28-1.444v-1.444h-5.733c-4.073 0-5.833-.1-6.08-.347-.191-.19-.348-1.088-.348-1.993 0-1.769.242-2.221 4.952-9.25.891-1.332 1.964-2.94 2.382-3.576 5.963-9.052 5.973-9.064 7.002-9.26.48-.093 1.23-.032 1.665.134l.794.3v19.37h1.534c.845 0 1.691.156 1.883.346.19.19.347 1.075.347 1.965 0 .89-.156 1.773-.347 1.964-.191.19-1.038.347-1.883.347h-1.534v1.444c0 1.304.063 1.445.651 1.449 1.195.01 1.413.37 1.32 2.189l-.09 1.706-4.215.08c-2.318.044-4.305-.01-4.415-.12zm2.116-15.916V33.16l-.652.948c-.358.521-1.145 1.622-1.749 2.447-.603.824-1.179 1.824-1.279 2.222-.1.398-.453.939-.785 1.202-.331.263-.838.882-1.126 1.375l-.523.897h6.114v-4.546z" fill="#f4f4f4"/><path d="M.012 157.44V0h217.76v314.88H.012V157.44zm211.81 155.8c1.559-.842 3.17-2.56 3.887-4.14l.589-1.3.004-150.22.004-150.22-.676-1.445c-.75-1.605-2.497-3.33-4.162-4.11-1.04-.487-6.035-.512-102.6-.512H7.358l-1.705.87C3.63 3.194 2.236 4.87 1.608 7.022c-.389 1.336-.43 18.268-.364 151.28l.074 149.78.869 1.581c.967 1.76 3.115 3.568 4.762 4.009.644.172 38.975.259 102.38.231l101.35-.043 1.158-.625zm-204.86-7.463a.435.435 0 0 1 .869 0 .435.435 0 0 1-.869 0zm-3.04-2.455c-.268-.432.104-.867.74-.867.37 0 .563.198.563.578 0 .612-.97.827-1.303.289zm183.65-13.023c-.467-.272-.507-1.06-.507-9.958v-9.663h-1.322c-2.06 0-2.442-.331-2.442-2.119 0-.836.156-1.677.347-1.867.191-.191 1.038-.347 1.882-.347h1.535v-1.589c0-1.465-.052-1.589-.666-1.589-.969 0-1.361-.539-1.356-1.863.007-1.915.014-1.918 4.506-1.828l4.031.08.09 1.562c.097 1.712-.136 2.038-1.465 2.045-.772 0-.796.054-.796 1.594v1.588h5.733c4.073 0 5.834.1 6.08.347.192.19.348 1.068.348 1.95v1.605l-6.546 9.82c-3.6 5.402-6.753 9.984-7.005 10.183-.55.432-1.746.456-2.447.049zm7.275-14.782l3.23-4.84H191.408v4.96c0 2.728.047 4.905.105 4.839.057-.066 1.557-2.298 3.334-4.96zm-144.07-1.3c-1.139-1.543-4.626-5.86-7.75-9.594-6.982-8.345-9.046-11.165-10.883-14.877-1.716-3.467-2.307-5.802-2.313-9.147-.012-7.061 4.371-12.198 10.42-12.21 2.839-.01 4.66.785 6.662 2.898 1.664 1.755 2.478 3.36 2.857 5.639l.259 1.554.034-1.63c.069-3.324-1.403-8.922-3.625-13.786-.75-1.642-.902-2.234-.652-2.535.258-.31 1.68-.392 6.735-.389 3.524 0 6.588.119 6.809.258.53.335.374.913-1.369 5.082-1.801 4.307-2.573 7.202-2.79 10.467l-.169 2.532.75-2.455c.918-3.012 1.735-4.445 3.412-5.987 2.145-1.973 2.876-2.247 5.99-2.246 2.343.001 2.943.103 4.053.692 3.06 1.622 5.113 4.05 6.086 7.192.798 2.578.783 6.545-.036 9.201-1.404 4.551-3.32 7.616-11.261 18.013-4.981 6.52-8.073 10.853-9.43 13.216-.887 1.542-1.473 1.25-3.789-1.889zm106.58 1.31c-1.443-2.009-4.789-6.143-10.112-12.493-8.88-10.592-11.488-15.273-11.93-21.404-.646-8.97 7.166-15.828 14.246-12.508 3.024 1.418 4.934 3.996 5.756 7.768.378 1.734.412 1.788.439.7.079-3.195-1.726-10.205-3.634-14.117-1.636-3.354-1.95-3.18 5.867-3.27 5.536-.064 6.752-.01 7.038.338.276.331.1.99-.869 3.255-1.642 3.839-2.52 6.392-2.992 8.704-.43 2.112-.884 6.356-.654 6.124.079-.08.362-.99.63-2.022 1.068-4.123 2.853-6.65 5.698-8.07 5.71-2.846 12.419 1.01 14.272 8.203 1.696 6.584-.899 12.463-11.51 26.07-4.292 5.505-6.6 8.685-8.605 11.857-.98 1.55-1.69 2.383-2.03 2.383-.3 0-.988-.648-1.611-1.517zm34.557-19.498c-.246-.279-.775-1.156-1.177-1.95-.402-.795-1.778-3.11-3.058-5.143-4.12-6.545-4.708-9.695-2.29-12.261 1.352-1.437 3.826-1.445 5.349-.017.577.541.664.558.664.127 0-.552-.945-2.518-1.776-3.695-.733-1.039-.692-1.682.11-1.716 2.826-.12 5.636-.135 5.937-.033.434.147.484 1.396.066 1.653-.408.252-1.731 2.907-1.731 3.475 0 .396.108.379.737-.115 1.692-1.328 3.761-.937 5.233.99.771 1.01.834 1.28.827 3.57-.008 2.9-.07 3.043-4.245 9.608-1.483 2.333-2.92 4.64-3.19 5.127-.567 1.017-.833 1.086-1.456.38zM45.594 89.189c-.08-.207.365-1.475.988-2.82 2.078-4.487 3.552-10.21 3.484-13.52l-.034-1.629-.262 1.577c-.532 3.2-2.335 5.989-4.807 7.434-5.775 3.376-12.82-.085-14.73-7.234-.527-1.978-.509-6.008.037-8.144.551-2.153 2.613-6.475 4.229-8.862 1.538-2.273 4.222-5.643 9.499-11.925 2.268-2.701 5.174-6.302 6.456-8.001 2.21-2.93 2.89-3.586 3.39-3.278.119.074.908 1.259 1.753 2.633 1.434 2.333 3.588 5.258 11.576 15.723 6.596 8.641 8.697 13.128 8.697 18.576 0 5.404-2.505 9.654-6.899 11.71-2.37 1.108-5.327 1.09-7.644-.044-2.748-1.346-4.67-4.065-5.732-8.103-.533-2.03-.542-2.041-.552-.762-.027 3.479.988 7.407 3.376 13.059.719 1.7 1.23 3.293 1.136 3.539-.148.384-1.11.446-6.995.446-5.323 0-6.854-.082-6.967-.375zm105.56-.213c0-.323.332-1.241.737-2.04 1.88-3.699 3.46-9.443 3.741-13.597l.144-2.12-.523 2.023c-.61 2.362-1.406 3.975-2.584 5.24-4.695 5.042-12.584 3.647-15.816-2.797-1.968-3.925-2.112-7.846-.46-12.554 1.733-4.94 3.291-7.226 12.306-18.055 2.712-3.257 5.88-7.157 7.039-8.666 2.907-3.785 2.928-3.809 3.314-3.68.188.062 1.583 1.95 3.099 4.197 1.516 2.245 4.971 6.958 7.679 10.473 7.818 10.148 10.02 13.785 11.19 18.473 1.47 5.885-.465 11.675-4.89 14.642-6.142 4.117-13.115.785-14.972-7.155-.392-1.679-.74-2.497-.74-1.743 0 .191.14 1.602.312 3.136.357 3.193 1.124 5.8 3.134 10.64.78 1.876 1.351 3.583 1.271 3.791-.115.299-1.62.38-7.064.38-6.763 0-6.919-.014-6.919-.588zM12.234 81.86c-.548-.22-.44-.749.382-1.847.803-1.073 1.572-2.705 1.572-3.332 0-.267-.33-.166-1.054.324-2.83 1.917-6.181-.234-6.184-3.97 0-2.1.753-4.11 2.76-7.355a235.186 235.186 0 0 0 3.353-5.655c1.213-2.121 1.94-3.106 2.292-3.106.326 0 .859.61 1.45 1.661.514.914 1.988 3.286 3.275 5.272 3.763 5.807 4.483 8.389 3.16 11.331-1.105 2.455-3.747 3.305-5.555 1.788-1.207-1.014-1.163-.418.16 2.147.577 1.12.972 2.239.877 2.485-.14.367-.711.445-3.149.426-1.637-.013-3.14-.088-3.339-.169zm3.629-28.316c-.633-.166-.985-1.925-.568-2.838.218-.478.596-.708 1.267-.773.955-.09.956-.094.956-1.68v-1.59l-5.936-.143-5.936-.145-.087-1.838-.087-1.837 6.259-9.429c3.442-5.185 6.51-9.72 6.817-10.078.742-.863 2.714-.92 3.159-.09.189.352.3 4.033.3 9.965v9.408h1.582c1.768 0 2.182.383 2.182 2.022 0 1.639-.414 2.022-2.182 2.022h-1.582v1.444c0 .795-.004 1.542-.01 1.662-.004.119.328.258.74.309 1.437.179 1.733 3.256.348 3.627-.73.195-6.463.182-7.222-.017zm1.8-16.172c0-2.807-.052-5.05-.117-4.983-.27.279-6.543 9.81-6.543 9.942 0 .079 1.499.145 3.33.145h3.33v-5.104z" fill="#e7e7e7"/><path d="M.012 157.44V0h217.76v314.88H.012V157.44zm159.02 156.93c-27.604-.041-72.689-.041-100.19 0-27.499.041-4.913.074 50.19.074 55.103 0 77.603-.033 49.998-.074zm52.546-.916c1.773-.803 3.422-2.43 4.197-4.142l.686-1.514V7.358l-.814-1.654c-.448-.909-1.345-2.107-1.995-2.662-2.427-2.072 7.172-1.906-105.35-1.824l-101.48.074-1.158.625C4.29 2.66 2.609 4.361 1.859 5.77c-.523.982-.541 5.415-.617 151.37-.07 134.75-.032 150.48.367 151.54.84 2.225 2.83 4.233 4.923 4.97.605.213 31.73.311 102.36.322 98.705.016 101.52 0 102.69-.526zM4.208 303.32c-.312-.504.15-.933.602-.56.223.185.334.451.247.592-.212.341-.627.325-.849-.033zm183.35-13.178c-.113-.114-.208-4.442-.21-9.62-.003-5.176-.104-9.566-.224-9.755-.12-.19-.933-.384-1.806-.434l-1.586-.09-.086-1.791-.086-1.791 1.824-.086 1.823-.086v-1.73c0-1.697-.017-1.734-.869-1.881-.841-.146-.869-.2-.869-1.736v-1.586l3.724-.081c4.189-.091 4.531.032 4.525 1.633-.006 1.4-.249 1.705-1.446 1.819-1.006.095-1.012.104-1.1 1.657-.06 1.052.034 1.64.29 1.806.207.134 2.905.234 5.994.222 4.355-.017 5.675.064 5.876.361.144.21.212 1.032.152 1.827-.1 1.33-.632 2.228-6.745 11.41l-6.637 9.967-1.168.086c-.643.047-1.262-.01-1.376-.12zm7.177-14.162c1.752-2.638 3.228-4.98 3.281-5.203.079-.337-.5-.394-3.33-.326l-3.425.082-.08 5.127c-.043 2.82.022 5.125.145 5.122.123 0 1.657-2.165 3.41-4.802zm-143.51-1.464c-1.03-1.397-4.152-5.27-6.935-8.606-10.025-12.018-12.028-14.959-13.561-19.919-2.133-6.896-.007-13.596 5.231-16.49 1.412-.78 1.792-.856 4.3-.856 2.332 0 2.945.105 4.03.681 2.93 1.557 4.933 4.56 5.404 8.1.318 2.39.804 1.429.588-1.16-.26-3.115-1.6-8.216-3.062-11.67-.672-1.587-1.29-3.177-1.374-3.535l-.152-.65h6.821c3.978 0 6.892.114 6.99.274.094.15-.476 1.807-1.266 3.683-1.855 4.401-2.871 7.943-3.216 11.2-.34 3.213-.337 3.042-.03 3.042.139 0 .472-.868.74-1.93 1.033-4.105 3.09-6.988 5.897-8.27 2.028-.926 5.179-.874 7.31.12 5.528 2.581 8.1 8.911 6.368 15.67-1.153 4.497-3.997 9.1-11.718 18.965-2.177 2.78-5.266 7.005-6.865 9.388-1.6 2.383-3.07 4.37-3.266 4.417-.197.046-1.201-1.059-2.233-2.455zm104.76-1.023c-1.516-1.946-5.255-6.528-8.308-10.183-9.701-11.61-12.2-16.282-12.206-22.82-.005-5.323 2.983-10.067 7.272-11.547 5.572-1.922 11.774 2.137 12.392 8.11.09.867.295 1.657.456 1.756.194.12.235-.784.122-2.68-.237-3.96-1.59-8.828-3.663-13.185-.51-1.071-.845-2.078-.746-2.24.114-.183 2.658-.292 6.833-.292 5.555 0 6.68.07 6.814.42.089.232-.556 2.15-1.432 4.262-1.798 4.332-2.073 5.203-2.668 8.462-.763 4.175-.396 6.845.428 3.119.803-3.627 2.936-6.702 5.628-8.112 1.26-.66 1.833-.775 3.8-.765 2.784.014 4.787.838 6.772 2.786 3.05 2.992 4.339 6.914 3.777 11.5-.636 5.188-2.987 9.293-11.997 20.938-2.827 3.654-6.235 8.301-7.573 10.327-1.338 2.025-2.548 3.683-2.688 3.683-.14 0-1.496-1.593-3.013-3.539zm35.113-19.039c-.495-.978-1.886-3.35-3.091-5.272-2.767-4.409-3.576-6.222-3.76-8.422-.16-1.927.202-2.948 1.462-4.122 1.373-1.28 4.268-1.096 5.273.335 1.194 1.701.504-1.228-.78-3.31-1.298-2.104-1.112-2.273 2.512-2.273 3.512 0 3.776.185 2.642 1.852-.893 1.313-1.782 3.58-1.51 3.851.112.111.293.068.404-.095.883-1.302 3.03-1.63 4.548-.695 1.117.689 2.173 2.905 2.16 4.53-.02 2.28-.524 3.245-7.707 14.75-.654 1.048-1.194.765-2.152-1.129zm-145.24-165.4c-.094-.244.3-1.471.876-2.727 1.954-4.265 3.194-8.85 3.56-13.159.213-2.52-.31-3.055-.627-.64-.68 5.17-5.17 9.167-9.885 8.803-8.093-.625-12.338-10.313-8.455-19.295 1.925-4.454 4.179-7.669 11.588-16.528 2.951-3.53 6.435-7.814 7.742-9.522 1.306-1.708 2.55-3.106 2.765-3.106.215 0 1.491 1.658 2.837 3.683 1.346 2.026 3.41 4.938 4.587 6.47 11.581 15.08 13.198 17.632 14.613 23.053.839 3.212.349 7.273-1.226 10.16-1.078 1.975-3.157 3.953-5.166 4.913-2.39 1.142-5.409 1.18-7.592.095-2.795-1.39-4.901-4.394-5.77-8.23-.25-1.107-.574-2.012-.72-2.012-.425 0 .05 4.507.783 7.437.368 1.47 1.388 4.388 2.266 6.486 1.186 2.834 1.516 3.912 1.284 4.19-.238.288-1.835.376-6.8.376-5.573 0-6.513-.063-6.66-.445zm105.61.034c-.269-.323-.161-.765.511-2.094 2.022-4 3.813-10.689 3.813-14.241 0-2.09-.442-2.105-.643-.023-.305 3.17-2.607 6.35-5.688 7.86-1.873.918-5.387.935-7.35.037-4.603-2.106-7.367-7.8-6.568-13.53.845-6.059 3.41-10.294 13.543-22.355 2.594-3.088 5.783-7.02 7.087-8.738 1.304-1.718 2.566-3.118 2.805-3.11.239.01 1.517 1.676 2.84 3.707 1.322 2.03 3.715 5.371 5.316 7.424 8.514 10.908 11.423 15.224 13.032 19.33 1.243 3.172 1.481 7.482.578 10.45-1.545 5.073-5.401 8.182-10.148 8.182-4.544 0-8.166-3.471-9.342-8.955-.459-2.14-.83-2.46-.822-.708.015 3.713.976 7.442 3.398 13.186.717 1.7 1.225 3.292 1.13 3.54-.149.387-1.06.448-6.661.448-5.25 0-6.554-.078-6.83-.41zm-139.3-7.85c0-.254.263-.83.584-1.28.791-1.108 1.719-3.19 1.727-3.874.006-.505-.073-.485-.79.198-1.024.975-2.226 1.421-3.206 1.191-2.453-.575-3.72-2.481-3.442-5.174.202-1.95 1.223-4.195 3.742-8.222 1.043-1.668 2.407-3.943 3.03-5.055.624-1.112 1.308-2.022 1.52-2.022.213 0 1.06 1.105 1.885 2.455a528.33 528.33 0 0 0 3.586 5.758c2.945 4.66 3.563 7.161 2.398 9.72-1.01 2.217-2.972 3.138-4.821 2.263-.58-.275-1.12-.674-1.203-.887-.082-.213-.268-.388-.413-.388-.43 0 .035 1.463 1.083 3.404.54.999.98 1.941.98 2.095 0 .163-1.382.279-3.33.279-2.855 0-3.33-.066-3.33-.461zm3.386-28.034c-.11-.11-.2-.815-.2-1.566 0-1.448.252-1.716 1.616-1.716.663 0 .7-.093.7-1.733v-1.733h-5.733c-4.073 0-5.834-.1-6.081-.347-.191-.19-.346-1.003-.343-1.806.004-1.416.198-1.752 6.64-11.487 7.028-10.617 7.223-10.84 8.868-10.092l.703.32V42.412h1.535c.844 0 1.69.156 1.882.346.191.191.347 1.022.347 1.847 0 1.721-.164 1.851-2.34 1.851h-1.424v1.733c0 1.633.04 1.734.688 1.734.989 0 1.387.643 1.284 2.073l-.09 1.249-3.925.08c-2.16.044-4.016-.01-4.126-.12zm2.116-16.063v-5.27l-2.99 4.475a1186.066 1186.066 0 0 0-3.508 5.27l-.518.795h7.016v-5.27z" fill="#d6d6d6"/><path d="M.012 157.44V0h217.76v314.88H.012V157.44zm209.21 156.86c.099-.159.456-.289.795-.289 1.98 0 5.073-2.624 5.997-5.087l.592-1.579V7.825l-.588-1.568c-.724-1.93-2.734-3.902-4.777-4.688-1.41-.542-3.586-.554-102.64-.554H7.401l-1.645.806c-1.864.913-3.224 2.313-4.116 4.235L1.03 7.37l-.074 149.2c-.05 100.42.022 149.72.22 150.79.573 3.092 2.588 5.337 5.843 6.511l1.83.66 100.1.028c66.45.02 100.16-.069 100.28-.26zM4.362 303.034a.29.29 0 0 1 .58 0 .29.29 0 0 1-.58 0zm183.37-12.946c-.27-.171-.377-2.6-.434-9.89l-.077-9.662-1.158-.077c-2.472-.165-2.5-.188-2.403-2.027l.087-1.652 1.737-.144 1.738-.145v-1.73c0-1.697-.017-1.733-.87-1.88-.794-.135-.876-.257-.96-1.436-.13-1.818.275-2.032 3.84-2.027 3.827.01 4.108.094 4.314 1.361.225 1.38-.187 2.045-1.33 2.155l-.94.091v3.467l5.935.144 5.936.145.088 1.695.088 1.696-6.436 9.715c-3.54 5.343-6.633 9.877-6.875 10.076-.492.404-1.733.472-2.28.125zm7.159-14.202c1.913-2.857 3.479-5.261 3.479-5.344 0-.083-1.63-.15-3.62-.15h-3.62v5.344c0 2.94.064 5.344.141 5.344.078 0 1.707-2.337 3.62-5.194zm-144.22-2.245c-1.307-1.708-4.79-5.992-7.742-9.522-9.503-11.363-11.828-15.229-12.809-21.294-.89-5.5 1.643-11.007 6.143-13.36 1.34-.7 1.873-.808 4.007-.808 2.109 0 2.673.111 3.94.775 2.647 1.386 5.315 5.157 5.33 7.533.006.947.317 1.94.609 1.94.397 0 .3-2.765-.197-5.634-.532-3.067-2.046-7.754-3.315-10.262-.497-.982-.834-1.967-.749-2.19.236-.612 13.148-.594 13.384.02.09.232-.563 2.215-1.45 4.406-.887 2.19-1.865 4.965-2.173 6.166-.7 2.729-1.116 7.493-.654 7.493.176 0 .4-.357.497-.794.857-3.88 1.672-5.652 3.492-7.593 4.464-4.76 12.255-2.962 15.438 3.565 2.382 4.884 1.67 10.446-2.174 16.987-1.353 2.302-4.017 5.952-10.732 14.7-1.768 2.304-4.22 5.717-5.45 7.584-1.23 1.867-2.412 3.394-2.628 3.394-.215 0-1.46-1.397-2.767-3.105zm107.29 2.311c-.83-1.275-5.685-7.31-10.4-12.927-7.32-8.718-10.276-13.345-11.448-17.918-1.757-6.852.773-13.487 6.027-15.805 5.717-2.523 12.24 1.475 12.973 7.953.274 2.41.857 1.989.76-.548-.148-3.86-1.483-8.957-3.45-13.168-.57-1.222-.959-2.424-.864-2.672.15-.39 1.056-.45 6.707-.45 5.208 0 6.564.079 6.683.389.082.214-.36 1.546-.984 2.96-1.728 3.922-2.59 6.488-3.066 9.127-.538 2.98-.694 5.688-.335 5.79.15.042.494-.804.767-1.881.272-1.077.856-2.695 1.298-3.595 2.396-4.887 7.436-6.746 12.09-4.46 4.098 2.013 6.574 6.33 6.563 11.446-.012 5.692-2.27 10.057-11.138 21.533-5.365 6.942-7.667 10.105-9.427 12.951-1.402 2.266-1.948 2.52-2.756 1.277zm33.807-20.61c-.27-.49-1.327-2.275-2.349-3.97-4.787-7.938-5.43-9.406-5.16-11.786.188-1.67 1.353-3.167 2.8-3.6 1.43-.427 2.355-.19 3.633.93l1.019.892v-.711c0-.66-1.038-2.95-2.034-4.485-.635-.98-.042-1.21 3.129-1.215 2.224 0 2.719.077 2.87.469.1.26.027.682-.16.938-.71.968-1.773 3.382-1.775 4.031l-.003.676.89-.748c1.596-1.34 2.993-1.34 4.588 0 .59.494 1.044 1.274 1.346 2.31.62 2.13.206 3.993-1.552 6.977-3.266 5.54-6.024 9.879-6.374 10.024-.22.09-.581-.213-.868-.732zm-145.52-166.3c-.454-.333-.387-.603.848-3.395.739-1.668 1.72-4.523 2.184-6.343.928-3.655 1.398-8.181.88-8.5-.196-.122-.38.214-.491.897-.643 3.966-1.857 6.165-4.312 7.81-2.942 1.971-5.684 2.212-8.837.776-6.386-2.91-8.375-11.202-4.652-19.394 1.706-3.753 4.4-7.435 12.433-16.988 2.271-2.701 5.19-6.308 6.487-8.016 1.297-1.708 2.451-3.105 2.564-3.105.311-.001.635.432 3.061 4.1 1.23 1.86 4.06 5.73 6.29 8.6 9.85 12.684 12.496 17.33 13.048 22.91.374 3.781-1.317 8.357-3.969 10.735-2.246 2.015-3.735 2.602-6.618 2.61-2.195.01-2.63-.085-4.015-.85-.854-.472-1.979-1.382-2.5-2.023-1.572-1.935-2.412-3.835-3.162-7.158-.099-.437-.324-.794-.5-.794-.466 0-.045 4.754.662 7.479.314 1.209 1.16 3.628 1.883 5.376 1.919 4.648 2.033 5.046 1.534 5.36-.671.424-12.226.344-12.817-.088zm105.5.08c-.476-.3-.571.025 1.29-4.422 1.875-4.485 3.503-12.452 2.8-13.703-.342-.608-.38-.518-.86 2.03-.435 2.318-1.367 4.043-3.013 5.579-1.963 1.832-3.658 2.53-6.157 2.535-2.572.01-4.77-.946-6.748-2.92-4.65-4.639-4.683-12.686-.086-20.227 2.084-3.417 3.174-4.847 9.37-12.296 3.147-3.782 6.773-8.236 8.058-9.896 1.284-1.66 2.44-3.019 2.568-3.019.127 0 1.477 1.853 3 4.117 1.522 2.264 4.928 6.91 7.57 10.327 5.541 7.168 7.418 9.868 9.26 13.323 2.93 5.494 3.265 10.985.94 15.386-1.834 3.469-5.007 5.674-8.497 5.903-4.75.313-8.51-3.087-9.887-8.941-.573-2.433-1.258-2.739-1.046-.466.468 4.997 1.33 8.18 3.736 13.786.982 2.287 1.018 2.471.545 2.816-.61.445-12.152.525-12.843.09zm-139.44-7.825c-.104-.168.143-.785.549-1.372 1.338-1.934 2.09-4.388 1.344-4.388-.16 0-.29.132-.29.293 0 .519-1.85 1.438-2.896 1.438-.557 0-1.43-.253-1.938-.563-1.475-.897-1.974-1.903-1.95-3.93.025-2.144 1.005-4.368 4.113-9.332 1.13-1.805 2.422-3.982 2.87-4.838.448-.855 1.01-1.555 1.249-1.555.239 0 .816.682 1.283 1.516.467.833 1.881 3.122 3.143 5.085 3.126 4.864 3.81 6.404 3.807 8.564-.005 3.069-1.555 5.051-3.952 5.054-.791 0-1.346-.236-2.1-.896l-1.023-.896v.738c0 .406.512 1.708 1.137 2.892.625 1.185 1.06 2.23.965 2.325-.31.31-6.112.186-6.31-.135zm3.398-28.35c-.445-.445-.453-2.444-.01-2.716.185-.114.739-.29 1.23-.39.868-.177.894-.23.894-1.76v-1.577l-5.875-.144c-6.555-.161-6.419-.114-6.427-2.223-.004-1.076.425-1.857 3.807-6.933 2.096-3.147 5.005-7.541 6.465-9.765 1.46-2.225 2.863-4.216 3.118-4.424.26-.213.953-.34 1.57-.29l1.107.092.144 9.821.145 9.822 1.738.145 1.737.144.09 1.435c.112 1.761-.33 2.176-2.317 2.176h-1.393v1.733c0 1.52.07 1.734.559 1.734.836 0 1.468.792 1.468 1.84 0 1.495-.337 1.626-4.198 1.626-2.34 0-3.62-.115-3.852-.347zm1.897-10.698c.42-.34.534-10.333.118-10.333-.134 0-1.775 2.293-3.646 5.094-2.603 3.897-3.311 5.153-3.014 5.346.535.346 6.094.256 6.542-.107z" fill="#c8c8c8"/><path d="M.012 157.44V0h217.76v314.88H.012V157.44zm210.27 156.67c2.962-.967 5.25-3.108 6.005-5.621.224-.746.314-44.093.314-151.11V7.319l-.895-1.786c-.602-1.202-1.328-2.116-2.221-2.797C210.817.704 219.913.859 108.155.941l-101.05.074-1.303.682c-1.777.928-3.09 2.219-4.008 3.94l-.77 1.445-.074 149.92c-.067 135.8-.03 150.07.383 151.49.642 2.203 3.066 4.614 5.483 5.453l1.736.602 100.13.023c92.385.021 100.25-.014 101.6-.454zm-22.42-24.1c-.466-.271-.507-1.06-.507-9.957v-9.663h-1.322c-1.961 0-2.442-.36-2.442-1.83 0-.678.157-1.389.348-1.58.19-.19 1.038-.346 1.882-.346h1.534v-1.878c0-1.766-.039-1.877-.666-1.877-.909 0-1.361-.525-1.356-1.575.008-1.58.14-1.628 4.217-1.54l3.741.081.092 1.272c.1 1.405-.188 1.75-1.467 1.757-.787 0-.796.027-.796 1.882v1.878h5.623c3.092 0 5.828.079 6.08.175.339.13.458.578.458 1.72 0 1.513-.096 1.69-4.58 8.42-2.519 3.78-5.451 8.201-6.516 9.825-2.278 3.472-2.994 4.008-4.323 3.236zm7.001-13.932c1.78-2.67 3.31-5.043 3.398-5.272.134-.349-.431-.416-3.49-.416h-3.651v5.546c0 3.18.108 5.43.253 5.272.139-.15 1.71-2.46 3.49-5.13zm-143.77-2.005c-1.098-1.47-4.39-5.532-7.316-9.028-8.499-10.154-10.81-13.485-12.58-18.129-.845-2.214-.909-2.642-.92-6.136-.012-3.634.017-3.818.91-5.697 1.751-3.69 4.779-6.068 8.223-6.463 4.954-.568 9.702 3.684 10.17 9.105.091 1.064.694 1.545.862.688.181-.92-.31-4.935-.923-7.533-.326-1.387-1.19-3.951-1.918-5.7-.728-1.747-1.344-3.502-1.368-3.899l-.043-.722 6.226-.071c3.532-.04 6.41.047 6.651.2.367.235.333.487-.24 1.805-2.704 6.224-3.739 9.781-4.006 13.777-.225 3.362.29 3.535 1.096.368 1.002-3.939 2.966-6.695 5.723-8.032 1.666-.809 4.772-.858 6.773-.108 2.41.903 4.586 3 5.931 5.716 1.015 2.05 1.093 2.394 1.193 5.307.128 3.73-.429 5.943-2.46 9.776-1.819 3.434-3.714 6.158-9.218 13.251-4.844 6.242-7.013 9.244-8.99 12.438-.598.968-1.243 1.76-1.433 1.76-.19 0-1.245-1.203-2.343-2.673zm104.76-1.011c-1.583-2.026-5.063-6.283-7.734-9.46-9.422-11.213-12-15.739-12.508-21.956-.21-2.57.255-4.806 1.527-7.341 3.075-6.133 10.268-7.58 14.936-3.005 1.542 1.511 2.697 3.862 2.989 6.085.144 1.094.325 1.517.65 1.517.383 0 .424-.334.275-2.26-.336-4.34-1.606-9.099-3.55-13.297-.556-1.2-.946-2.35-.867-2.557.112-.29 1.567-.374 6.533-.374 5.466 0 6.413.064 6.558.442.094.243-.619 2.42-1.583 4.838-1.807 4.533-2.462 7.097-2.801 10.97-.164 1.87-.126 2.238.23 2.238.294 0 .572-.635.884-2.01.88-3.89 2.997-6.873 5.87-8.276 1.393-.68 1.817-.75 3.806-.63 1.679.1 2.624.33 3.783.92 4.944 2.518 7.43 8.71 5.972 14.88-1.048 4.434-3.653 8.698-11.576 18.948-2.825 3.654-6.236 8.302-7.58 10.327-1.344 2.026-2.554 3.683-2.69 3.683-.135 0-1.541-1.657-3.124-3.683zm35.286-18.925c-.544-.991-1.966-3.362-3.161-5.269-2.688-4.29-3.595-6.42-3.628-8.522-.031-2.04.683-3.275 2.368-4.088 1.098-.53 1.408-.566 2.38-.276.614.184 1.37.656 1.68 1.05.31.393.66.714.778.714.513 0-.192-2.514-1.123-4.004-.559-.896-.928-1.718-.82-1.827.165-.165 3.756-.328 5.628-.255.69.027.638.413-.237 1.731-.815 1.229-1.66 3.694-1.405 4.103.088.142.542-.122 1.008-.588 1.158-1.154 2.326-1.371 3.682-.684 2.523 1.28 3.127 5.224 1.321 8.634-.496.936-1.99 3.414-3.323 5.508-1.332 2.094-2.644 4.206-2.915 4.694-.271.488-.662.886-.869.884-.206 0-.82-.814-1.364-1.805zM46.05 88.537c0-.326.374-1.335.832-2.245 1.843-3.662 3.512-10.21 3.512-13.783 0-2.458-.628-2.45-.94.013-.298 2.365-1.408 4.457-3.262 6.147-1.822 1.662-3.589 2.36-5.974 2.36-5.73 0-10.102-5.174-10.09-11.943.006-3.2.616-5.574 2.311-9.001 1.817-3.674 3.86-6.478 10.498-14.412 2.939-3.513 6.413-7.784 7.72-9.492 1.308-1.708 2.568-3.106 2.801-3.106.233 0 .779.603 1.213 1.34 1.32 2.244 5.535 8.068 9.585 13.248 6.72 8.594 9.823 13.64 10.872 17.68.643 2.478.592 6.232-.118 8.523-1.385 4.474-5.743 8.029-9.843 8.029-4.226 0-8.15-3.734-9.268-8.82-.466-2.121-.59-2.446-.937-2.446-.49 0-.056 5.262.654 7.944.337 1.27 1.266 3.87 2.064 5.777.799 1.907 1.473 3.727 1.498 4.044.045.56-.155.58-6.541.656-6.47.076-6.588.067-6.588-.514zm105.52.176c-.085-.222.196-1.095.625-1.94 1.99-3.916 3.576-9.759 3.681-13.552.077-2.762-.457-3.54-.777-1.134-.496 3.734-2.388 6.537-5.437 8.057-3.594 1.792-7.777.928-10.705-2.21-5.214-5.589-4.406-13.903 2.254-23.181 1.078-1.503 4.356-5.598 7.284-9.1s6.387-7.764 7.688-9.472c1.3-1.707 2.56-3.097 2.8-3.089.238.01 1.56 1.731 2.937 3.827 1.377 2.097 4.78 6.756 7.563 10.354 2.783 3.6 5.788 7.634 6.677 8.968 3.274 4.908 5.119 9.637 5.119 13.12 0 4.99-2.546 9.45-6.504 11.394-5.925 2.91-11.483-.343-13.352-7.816-.911-3.643-1.454-2.903-1.013 1.384.328 3.181 1.441 7.014 3.24 11.152.618 1.422 1.124 2.823 1.124 3.113 0 .496-.398.528-6.524.528-5.323 0-6.553-.074-6.68-.404zm-139-7.5c-.086-.224.187-.926.608-1.56.84-1.267 1.682-3.722 1.421-4.144-.09-.147-.676.193-1.3.756-1.292 1.164-2.329 1.306-3.947.54-1.472-.697-2.108-1.905-2.1-3.995.007-2.27.767-4.072 3.677-8.722 1.273-2.035 2.656-4.373 3.074-5.196.417-.823.914-1.592 1.105-1.71.418-.258.404-.277 3.918 5.373 3.296 5.301 4.017 6.673 4.401 8.38.61 2.711-.896 5.832-3.005 6.227-1.214.227-1.936 0-3.092-.97l-.914-.768.168 1.253c.093.69.576 1.908 1.075 2.708.499.8.839 1.63.756 1.845-.22.575-5.623.559-5.845-.017zm3.236-28.356c-.482-.48-.555-1.023-.276-2.058.13-.482.424-.655 1.226-.722l1.056-.088v-3.755l-5.936-.145-5.936-.144-.055-1.733-.056-1.734 6.57-9.822c6.257-9.351 6.618-9.826 7.532-9.913 1.828-.175 1.79-.388 1.79 10.238v9.642h1.535c1.707 0 2.232.337 2.226 1.43-.01 1.77-.23 2.003-1.98 2.095l-1.636.086-.172 1.589c-.183 1.69.063 2.31.915 2.31.29 0 .612.14.717.31.368.593.253 2.327-.171 2.595-.231.145-1.877.267-3.657.27-2.56 0-3.332-.09-3.692-.45zm2.085-15.795c.044-2.979-.022-5.413-.145-5.41-.305.01-7.028 10.174-7.028 10.627 0 .275.855.343 3.547.281l3.547-.08.08-5.417z" fill="#b6b6b6"/><path d="M.012 157.44V0h217.76v314.88H.012V157.44zm210.32 156.72c2.777-.84 4.9-2.733 5.865-5.23.534-1.382.547-4.98.547-151.49V7.37l-.61-1.314c-.855-1.844-2.273-3.357-3.997-4.264l-1.474-.776-101.4-.074L7.863.868l-1.604.599c-2.109.787-3.99 2.662-4.778 4.765l-.6 1.6.074 150.27.073 150.27.9 1.581c1.085 1.91 2.352 2.98 4.629 3.914l1.71.702h100.33c87.557 0 100.51-.051 101.74-.422zm-22.752-24.195c-.034-.04-.132-4.492-.217-9.894l-.154-9.822-1.587-.09c-1.77-.1-2.022-.323-2.029-1.802-.006-1.39.42-1.72 2.226-1.72h1.534v-1.84c0-1.798-.02-1.846-.832-2.008-.996-.2-1.208-.64-.938-1.954l.202-.986h7.504l.094 1.144c.104 1.27-.42 1.89-1.597 1.89-.63 0-.668.108-.668 1.877v1.878h5.755c6.572 0 6.533-.014 6.352 2.23-.1 1.242-.774 2.375-6.702 11.274l-6.59 9.894h-1.145c-.63 0-1.173-.033-1.208-.072zm7.44-14.001c1.988-2.974 3.51-5.513 3.38-5.643-.13-.13-1.789-.198-3.687-.153l-3.45.082-.08 5.56c-.042 3.06-.01 5.562.071 5.562.082 0 1.776-2.434 3.765-5.408zm-142.22.126c-.318-.352-1.363-1.68-2.324-2.952-.961-1.27-4.218-5.264-7.239-8.874-6.029-7.207-8.788-10.898-10.373-13.882-4.651-8.755-3.157-17.477 3.56-20.776 1.554-.764 2.232-.929 3.805-.927 4.64.01 8.637 3.736 9.185 8.573.354 3.119 1.398 2.372 1.12-.801-.376-4.278-1.797-9.443-3.651-13.267-.457-.942-.83-1.887-.83-2.1 0-.315 1.232-.373 6.587-.31 5.655.067 6.58.139 6.537.51-.028.24-.655 1.864-1.395 3.612-1.818 4.296-2.702 7.464-3.012 10.792-.39 4.179.299 4.68 1.249.908.657-2.611 1.664-4.553 3.123-6.026 1.948-1.967 3.16-2.48 5.881-2.488 2.043-.01 2.55.105 4.24.934 4.303 2.111 6.563 6.471 6.25 12.058-.314 5.594-2.73 9.96-12.227 22.099-2.176 2.78-5.202 6.91-6.726 9.18-1.524 2.268-2.864 4.182-2.977 4.252-.114.07-.466-.162-.783-.514zm103.37-2.735c-1.437-1.867-4.795-5.994-7.465-9.172-5.787-6.89-7.938-9.73-9.786-12.92-1.756-3.033-2.48-4.95-3.028-8.024-1.195-6.7 2.181-12.82 7.883-14.294 5.24-1.353 10.326 2.425 11.156 8.286.136.955.31 1.8.39 1.88.409.407.76-.413.76-1.773 0-3.614-1.728-10.273-3.664-14.115-.543-1.079-.91-2.086-.816-2.239.1-.163 2.849-.277 6.703-.277h6.532l-.15.65c-.083.358-.799 2.21-1.59 4.117-.792 1.906-1.715 4.571-2.052 5.922-.738 2.961-1.129 7.34-.679 7.618.423.261.633-.151 1.106-2.173.87-3.721 2.72-6.448 5.365-7.91 1.36-.752 1.837-.857 3.868-.853 2.817.01 4.382.633 6.496 2.606 2.701 2.52 3.9 5.45 3.895 9.523-.006 5.864-2.175 9.927-12.255 22.966-2.764 3.574-6.071 8.092-7.35 10.038-1.278 1.946-2.41 3.538-2.517 3.538-.106 0-1.368-1.527-2.803-3.394zm35.887-17.766c-.16-.199-.57-.915-.912-1.593-.342-.677-1.724-3.004-3.07-5.17-1.348-2.167-2.712-4.64-3.033-5.496-1.47-3.92-.048-7.312 3.064-7.312.98 0 1.47.189 2.244.866.971.85 1.637 1.105 1.637.624 0-.726-.884-2.988-1.55-3.966-1.215-1.783-1.131-1.857 2.08-1.857 1.566 0 2.925.077 3.02.171.095.095-.265.973-.8 1.95-.937 1.716-1.59 3.945-1.156 3.945.116 0 .656-.39 1.2-.867 1.865-1.633 4.198-.95 5.343 1.566 1.213 2.664.566 4.82-3.258 10.856-1.358 2.145-2.829 4.518-3.268 5.272-.84 1.447-1.07 1.597-1.54 1.012zm-145.88-166.7c-.08-.207.308-1.368.861-2.58 2.068-4.527 4.03-12.81 3.516-14.85-.305-1.213-.839-.596-1.207 1.395-.623 3.366-2.308 5.793-5.09 7.33-1.364.754-1.812.849-3.998.845-2.123 0-2.67-.114-3.991-.804-5.494-2.873-7.553-9.82-5.052-17.05 1.559-4.509 4.021-8.078 12.775-18.518 2.808-3.349 6.005-7.291 7.105-8.761 1.1-1.47 2.155-2.672 2.345-2.672.19 0 .844.812 1.454 1.805 1.846 3.008 4.076 6.09 8.92 12.324 9.27 11.932 11.771 16.682 11.771 22.357 0 3.752-1.39 7.097-3.91 9.415-3.797 3.491-8.7 3.678-12.262.467-1.437-1.294-3.08-4.452-3.545-6.815-.343-1.737-.681-2.275-1.141-1.815-.376.375.208 5.664.896 8.109.331 1.18 1.307 3.843 2.168 5.92.86 2.076 1.495 3.888 1.41 4.025-.085.137-3.018.25-6.517.25-4.965 0-6.394-.083-6.507-.377zm105.42.098c-.095-.153.09-.792.41-1.419 1.137-2.223 2.376-5.659 3.079-8.533.86-3.52 1.241-7.781.725-8.1-.505-.311-.589-.142-.912 1.86-1.53 9.481-13.064 11.42-17.586 2.954-2.78-5.206-2.125-11.059 2.002-17.877 1.8-2.971 3.385-5.026 9.991-12.949 2.915-3.495 6.185-7.514 7.267-8.931 1.082-1.418 2.112-2.625 2.288-2.683.177-.058 1.433 1.558 2.79 3.593 1.359 2.034 4.678 6.556 7.375 10.049 7.724 9.999 10.085 13.704 11.321 17.766 1.939 6.366.143 12.572-4.497 15.543-5.854 3.747-11.978.952-14.123-6.448-.724-2.499-.96-3.033-1.341-3.033-.494 0-.098 4.873.625 7.694.32 1.249 1.305 4.056 2.189 6.238.883 2.182 1.524 4.1 1.424 4.261-.24.388-12.788.402-13.027.015zm-138.63-7.428c-.554-.148-.682-.817-.212-1.107.47-.29 1.666-2.817 1.886-3.985.228-1.212-.08-1.368-.904-.46-1.85 2.039-4.759 1.603-6.06-.907-1.084-2.092-.296-4.897 2.775-9.877 1.104-1.79 2.562-4.261 3.239-5.49 1.305-2.37 1.921-2.747 2.483-1.518.182.4 1.597 2.707 3.144 5.128 3.265 5.109 4.132 7.001 4.133 9.024 0 4.08-3.388 6.351-5.881 3.94-1.726-1.668-1.723-.1.005 3.1.546 1.012.924 1.909.84 1.993-.201.2-4.791.335-5.448.16zm2.735-29.767c.086-1.336.12-1.385 1.102-1.525l1.013-.144v-3.756l-5.936-.144-5.936-.144-.073-1.59-.073-1.588 6.496-9.8c3.573-5.389 6.704-9.915 6.958-10.056.254-.142.816-.217 1.25-.167l.79.09.144 9.822.145 9.822 1.737.145 1.737.144v3.178l-1.737.144-1.737.145v1.875c0 1.857.008 1.876.868 2.024.814.141.869.232.869 1.448v1.297l-3.853.08-3.853.082.089-1.38zm2.26-14.669c0-3.098-.063-5.633-.14-5.633-.17 0-7.063 10.26-7.29 10.851-.135.348.454.415 3.635.415h3.795v-5.633z" fill="#a7a7a7"/><path d="M.012 157.44V0h217.76v314.88H.012V157.44zm211.69 156.25c1.97-.922 3.429-2.328 4.35-4.195l.693-1.403v-301l-.683-1.3c-.873-1.665-2.476-3.345-3.95-4.141l-1.159-.626-101.8-.074L7.353.877l-1.858.94c-2.044 1.036-3.704 2.907-4.281 4.83-.242.803-.327 40.43-.327 151.02 0 133.39.048 150.07.44 151.17.86 2.431 2.833 4.325 5.447 5.227 1.428.493 6.142.514 102.41.453l100.91-.063 1.618-.757zm-23.866-23.846c-.106-.106-.195-4.428-.197-9.605-.002-5.177-.103-9.567-.224-9.756-.12-.19-.933-.384-1.805-.434l-1.586-.09-.088-1.516-.087-1.517h1.572c1.99 0 2.278-.332 2.165-2.503-.087-1.676-.093-1.686-1.044-1.777-.947-.091-.955-.105-.868-1.445l.087-1.352 3.434-.082c3.672-.087 4.24.08 4.24 1.249 0 1.136-.316 1.577-1.132 1.577-1.13 0-1.474.505-1.474 2.166 0 .81.156 1.63.347 1.82.247.246 2.006.347 6.075.347h5.728l.196.777c.107.427.067 1.24-.09 1.805-.272.983-11.672 18.525-12.917 19.878-.566.616-1.909.88-2.331.458zm7.3-13.884c1.93-2.896 3.51-5.403 3.51-5.57 0-.2-1.3-.275-3.836-.222l-3.837.081-.08 5.335c-.078 5.297.015 6.421.487 5.908.134-.146 1.824-2.635 3.755-5.532zm-144.3-2.45c-1.245-1.635-4.68-5.86-7.632-9.389-9.194-10.989-11.54-14.749-12.668-20.3-1.61-7.93 2.971-15.026 9.702-15.026 2.294 0 4.104.695 5.82 2.234 1.766 1.584 2.792 3.499 3.262 6.091.247 1.359.478 1.93.782 1.93.345 0 .424-.427.4-2.166-.056-3.819-1.4-9.077-3.452-13.51-.55-1.186-.928-2.271-.84-2.412.087-.14 3.017-.256 6.511-.256 7.295 0 6.856-.229 5.494 2.868-2.37 5.387-3.418 9.272-3.55 13.165-.065 1.896-.001 2.31.355 2.31.296 0 .582-.607.895-1.895.996-4.097 2.883-6.891 5.602-8.294 2.107-1.087 5.144-1.077 7.435.024 3.075 1.478 5.65 4.96 6.336 8.565 1.253 6.593-1.124 11.616-12.308 26.01-2.16 2.78-5.114 6.81-6.563 8.955-1.45 2.145-2.789 3.938-2.977 3.983-.188.046-1.36-1.254-2.605-2.888zm105.49-.026c-1.22-1.62-4.687-5.9-7.707-9.512-7.917-9.468-10.367-13.106-12.012-17.845-.54-1.558-.652-2.492-.652-5.489 0-3.454.04-3.694.917-5.54 1.843-3.883 4.703-6.007 8.405-6.244 2.545-.163 4.055.322 6.154 1.977 1.695 1.337 3.13 4.009 3.461 6.444.259 1.9.508 2.265 1.043 1.534 1.021-1.393-1.15-11.206-3.507-15.855-1.202-2.37-1.507-2.248 5.662-2.248 3.84 0 6.422.112 6.529.283.096.156-.28 1.316-.836 2.577-2.4 5.447-3.65 10.215-3.65 13.933 0 2.552.8 2.193 1.409-.632.501-2.327 1.84-4.958 3.23-6.345 1.728-1.723 3.451-2.432 5.937-2.442 3.837-.015 7.31 2.41 9.19 6.416.763 1.628.912 2.327 1.023 4.82.152 3.407-.29 5.538-1.815 8.76-1.717 3.627-3.504 6.214-11.102 16.074-2.439 3.165-5.41 7.23-6.604 9.032-1.193 1.803-2.325 3.271-2.515 3.263-.19-.01-1.342-1.34-2.56-2.96zm35.08-19.187c-.399-.75-1.62-2.798-2.717-4.55-3.871-6.19-4.847-9.104-3.846-11.494.545-1.302 1.983-2.234 3.45-2.235.84-.001 1.345.233 2.24 1.04.905.816 1.193.948 1.324.609.258-.671-.345-2.526-1.318-4.057-.485-.762-.806-1.508-.714-1.657.092-.148 1.397-.27 2.9-.27 3.105 0 3.232.124 2.025 1.956-.77 1.17-1.55 3.685-1.24 3.995.106.106.658-.215 1.226-.712 1.22-1.07 2.444-1.178 3.822-.34 1.314.8 1.937 2.139 1.954 4.201.019 2.151-.78 3.915-4.215 9.299-1.336 2.095-2.652 4.207-2.923 4.694-.272.486-.663.884-.87.884-.206 0-.7-.614-1.099-1.364zm-145.21-165.4c-.1-.16.233-1.168.741-2.239 2.633-5.553 4.592-14.899 3.34-15.936-.512-.424-.625-.226-.884 1.556-.527 3.622-2.522 6.506-5.512 7.97-2.114 1.034-5.173.994-7.42-.098-4.124-2.003-6.599-6.726-6.238-11.905.421-6.047 3.08-10.799 11.964-21.377 2.669-3.177 6.072-7.337 7.563-9.244 4.069-5.202 3.534-4.706 4.185-3.882.305.388 1.412 2.004 2.459 3.593 1.047 1.59 4.006 5.619 6.576 8.955 7.155 9.289 8.566 11.331 10.45 15.135 3.326 6.714 2.726 13.14-1.625 17.406-2.189 2.147-4.206 2.942-7.066 2.787-1.208-.065-2.495-.336-3.185-.67-2.568-1.24-4.565-4.11-5.522-7.937-.524-2.093-.83-2.589-1.308-2.113-.489.488.167 5.943 1.055 8.784.418 1.336 1.348 3.828 2.066 5.539.718 1.71 1.232 3.303 1.141 3.538-.139.36-1.153.429-6.382.429-3.883 0-6.286-.11-6.399-.293zm105.65-.153c-.097-.25.284-1.455.845-2.677 1.646-3.58 2.525-6.44 3.078-10.021.483-3.129.545-4.275.272-5.015-.397-1.073-1.004-.295-1.192 1.528-.582 5.625-6.134 9.636-11.274 8.145-4.784-1.387-7.756-5.853-7.756-11.652 0-6.39 2.432-10.817 12.74-23.194 3.376-4.051 7.05-8.575 8.167-10.052 1.116-1.477 2.134-2.647 2.263-2.6.128.047 1.328 1.724 2.666 3.726 1.338 2.003 4.38 6.158 6.758 9.234 6.705 8.674 8.392 11.121 10.237 14.858 2.002 4.055 2.34 5.307 2.34 8.66 0 2.529-.628 5.088-1.657 6.754-.905 1.465-3.131 3.56-4.569 4.301-2.033 1.047-5.309 1.244-7.154.43-3.27-1.443-4.96-3.919-6.31-9.24-.206-.808-.471-1.227-.779-1.227-.41 0-.445.345-.29 2.816.225 3.583.94 6.332 2.814 10.806.82 1.962 1.513 3.826 1.539 4.144.044.56-.156.58-6.259.656-5.524.068-6.327.02-6.48-.379zM12.655 81.17c-.076-.12.303-.933.842-1.805 1.043-1.69 1.632-4.04 1.012-4.04-.192 0-.74.39-1.218.866-.723.722-1.1.867-2.255.867-1.63 0-2.77-.743-3.382-2.206-.965-2.306-.109-4.973 3.434-10.693 1.362-2.2 2.75-4.544 3.082-5.208.761-1.52 1.185-1.79 1.69-1.08.902 1.272 5.93 9.492 6.658 10.886 1.061 2.033 1.136 5.03.163 6.59-1.215 1.95-3.442 2.298-5.146.805-.569-.497-1.12-.818-1.226-.712-.324.323.475 2.839 1.355 4.267.458.743.757 1.425.665 1.517-.251.25-5.517.2-5.675-.054zm3.199-28.274c-.111-.11-.202-.685-.202-1.277 0-1.138.328-1.427 1.617-1.427.673 0 .7-.076.7-2.022v-2.022h-5.734c-4.073 0-5.833-.1-6.08-.347-.444-.442-.45-2.39-.011-3.208 1.235-2.303 12.756-19.28 13.27-19.554.35-.187.948-.261 1.329-.166l.693.174.076 9.745.076 9.745 1.159.077c2.443.162 2.5.207 2.403 1.882l-.087 1.507-1.737.145-1.738.144V50.01l.957.247c.913.236.953.304.87 1.463l-.09 1.215-3.635.08c-2 .044-3.726-.01-3.836-.12zm2.115-15.848c0-3.098-.098-5.63-.217-5.626-.258.01-7.124 10.28-7.26 10.86-.077.324.62.4 3.691.4h3.786v-5.634z" fill="#949494"/><path d="M.012 157.44V0h217.76v314.88H.012V157.44zm212.01 156.2c1.784-.874 3.048-2.128 4.072-4.04l.653-1.22.074-150.21c.066-135.5.03-150.34-.379-151.57-.737-2.214-2.183-3.832-4.393-4.918l-1.95-.957H7.4l-1.638.803c-1.888.924-3.514 2.589-4.402 4.505L.739 7.37v300.44l.669 1.473c.894 1.97 2.763 3.74 4.857 4.6l1.714.703 101.2-.066 101.2-.066 1.645-.806zm-24.232-23.947c-.078-.209-.175-4.67-.215-9.912l-.073-9.533-1.737-.145-1.738-.144V267.07l1.738-.144 1.737-.145v-2.02c0-2.017 0-2.019-.869-2.167-.781-.134-.877-.268-.956-1.338-.075-1.032 0-1.212.58-1.366.99-.265 6.108-.215 6.55.064.239.151.347.662.289 1.367-.086 1.044-.166 1.137-1.106 1.27l-1.013.145v4.045l6.008.078 6.008.078-.013 1.655-.013 1.655-6.574 9.822c-6.216 9.286-6.626 9.827-7.518 9.912-.584.056-.997-.054-1.085-.289zm7.247-13.533c1.987-3.024 3.613-5.628 3.613-5.786 0-.18-1.426-.258-3.837-.207l-3.836.08-.079 5.706c-.052 3.816.022 5.705.224 5.705.166 0 1.927-2.474 3.915-5.498zm-144.26-2.808c-1.301-1.707-4.82-6.044-7.818-9.636-9.534-11.42-11.678-15.013-12.562-21.044-.795-5.423 1.625-10.7 5.945-12.964 1.24-.649 1.817-.761 3.915-.762 2.007 0 2.691.121 3.705.658 2.969 1.573 4.734 4.1 5.296 7.578.338 2.098.363 2.147.977 1.912 1.436-.55-.525-10.316-3.181-15.846-.542-1.128-.917-2.162-.834-2.297.084-.135 2.95-.245 6.37-.245 4.778 0 6.25.085 6.36.369.077.203-.367 1.539-.989 2.969-1.85 4.254-2.937 8.035-3.296 11.45-.25 2.4-.247 3.21.016 3.473.527.525.9-.034 1.375-2.063 1.31-5.603 4.67-8.83 9.152-8.789 6.396.058 11.27 6.872 10.133 14.165-.821 5.274-3.221 9.346-12.65 21.468-2.162 2.78-5.065 6.77-6.45 8.866-1.386 2.095-2.65 3.817-2.809 3.826-.159.01-1.354-1.38-2.655-3.087zm105.56 0c-1.317-1.707-3.965-4.972-5.886-7.255-10.147-12.06-12.876-16.186-14.172-21.434-2.024-8.195 2.65-15.87 9.667-15.87 2.06 0 3.9.769 5.643 2.359 1.857 1.693 2.954 3.774 3.224 6.116.197 1.714.766 2.413 1.304 1.605.603-.904-.587-8.066-1.986-11.952-.401-1.115-1.104-2.772-1.562-3.68-1.36-2.702-1.721-2.536 5.52-2.536 3.495 0 6.422.109 6.505.243.083.134-.507 1.791-1.31 3.683-.804 1.892-1.774 4.545-2.156 5.895-.689 2.434-1.355 7.567-1.077 8.29.296.77.939.337 1.264-.851 1.178-4.311 1.697-5.408 3.424-7.247 1.244-1.323 2.682-2.106 4.636-2.524 3.032-.65 6.942 1.11 9.166 4.124 1.854 2.512 2.3 4.08 2.281 8.03-.014 3.006-.102 3.551-.928 5.726-1.589 4.182-3.378 6.88-12.105 18.254-2.379 3.1-5.288 7.097-6.466 8.883-1.178 1.785-2.243 3.247-2.367 3.247-.124 0-1.302-1.398-2.619-3.106zm35.432-18.566c-.28-.507-1.713-2.89-3.187-5.296-3.95-6.449-4.7-8.774-3.618-11.213.591-1.333 1.923-2.261 3.243-2.261.872 0 2.255.763 2.622 1.447.43.803 1.157.733 1.157-.111 0-.952-.737-2.94-1.47-3.966-1.006-1.41-.634-1.704 2.167-1.704 1.35 0 2.523.113 2.609.25.085.138-.308 1.152-.875 2.253-.715 1.39-1 2.294-.934 2.959l.095.957.93-.89c1.615-1.546 3.3-1.552 4.738-.017 1.55 1.655 1.67 4.765.286 7.44-.947 1.832-6.704 10.876-6.987 10.976-.148.053-.497-.318-.776-.825zm-145.21-165.9c-.478-.278-.474-.356.065-1.41 1.123-2.196 2.366-5.644 3.069-8.51.86-3.508 1.249-8.064.717-8.392-.571-.352-.88.203-1.194 2.14-.782 4.849-4.507 8.256-8.995 8.23-3.659-.022-6.929-2.29-8.679-6.021-2.826-6.025-1.178-12.75 5.21-21.254.894-1.19 3.924-4.911 6.733-8.27 2.809-3.358 6.124-7.427 7.367-9.04 1.243-1.615 2.414-2.898 2.603-2.853.19.045 1.407 1.672 2.706 3.615 1.299 1.942 4.348 6.102 6.775 9.244 8.078 10.455 10.482 14.204 11.726 18.283 2.087 6.844-.106 13.262-5.493 16.078-1.34.7-1.874.808-4.007.808-1.97.001-2.693-.123-3.62-.622-2.622-1.41-4.504-4.198-5.523-8.18-.473-1.852-.852-2.432-1.377-2.109-.393.243.043 5.276.668 7.714.507 1.977 1.784 5.446 3.233 8.781.573 1.318.607 1.57.24 1.802-.584.368-11.585.338-12.225-.034zm105.49.042c-.343-.217-.237-.646.62-2.523 1.807-3.96 3.132-8.839 3.556-13.095.146-1.47.09-2.004-.262-2.456-.59-.757-.907-.299-1.137 1.641-.223 1.875-1.305 4.198-2.646 5.679-2.49 2.75-6.756 3.59-10.055 1.98-5.948-2.904-7.923-10.32-4.823-18.11 1.636-4.111 4.108-7.595 12.402-17.478 2.8-3.336 5.935-7.202 6.965-8.59 1.03-1.388 2.029-2.526 2.219-2.528.19 0 1.321 1.472 2.514 3.274 1.194 1.803 4.166 5.868 6.605 9.033 7.66 9.94 9.456 12.547 11.123 16.147 2.93 6.328 2.36 12.485-1.54 16.646-3.453 3.683-8.855 4.16-12.351 1.09-1.56-1.37-3.193-4.437-3.682-6.917-.368-1.87-.853-2.55-1.371-1.928-.394.474.053 5.394.7 7.717.552 1.981 2.13 6.25 3.128 8.457l.753 1.668-.742.282c-.934.354-11.418.364-11.976.012zm-139.3-7.778c0-.136.456-1.12 1.013-2.188.943-1.804 1.27-3.278.826-3.722-.103-.103-.69.266-1.304.819-1.939 1.747-4.441 1.2-5.507-1.205-1.106-2.494-.301-4.725 4.623-12.81 3.21-5.27 2.895-4.852 3.26-4.334.17.238 1.8 2.83 3.626 5.76 3.06 4.914 4.179 7.274 4.175 8.808-.003 1.292-.682 2.927-1.592 3.834-1.315 1.312-2.98 1.346-4.242.086-.478-.476-.99-.866-1.136-.866-.583 0-.215 1.792.746 3.63.557 1.068 1.013 2.052 1.013 2.188 0 .137-1.238.248-2.75.248-1.514 0-2.751-.111-2.751-.248zm3.088-28.255c-.332-.332-.21-2.033.17-2.346.198-.165.752-.343 1.23-.397.866-.097.868-.103.868-1.975v-1.878l-5.856-.078c-5.634-.075-5.87-.101-6.186-.692-.797-1.486-.253-2.545 6.526-12.704l6.55-9.813 1.075.089 1.077.089.076 9.745.076 9.745.648.144c.356.079 1.169.179 1.806.221 1.117.074 1.161.116 1.249 1.18.128 1.546-.3 1.93-2.154 1.93h-1.557v3.925l.94.276c.994.292 1.26.853.963 2.033-.175.692-.211.7-3.742.7-1.961 0-3.653-.088-3.759-.193zm1.853-10.217c.524-.28.56-.657.56-5.76 0-3.272-.114-5.532-.285-5.638-.404-.249-7.638 10.718-7.429 11.262.135.351.786.435 3.38.435 1.768 0 3.466-.134 3.774-.299z" fill="#878787"/><path d="M.012 157.44V0h217.76v314.88H.012V157.44zm212.14 156.22c1.848-.972 3.687-3.022 4.286-4.775.413-1.209.456-15.59.456-151.43V7.365l-.823-1.736c-.917-1.934-2.395-3.386-4.374-4.3L210.379.72H7.1l-1.371.68c-1.75.867-3.448 2.562-4.318 4.307L.73 7.076l-.074 149.92c-.065 131.76-.022 150.1.355 151.39.516 1.768 2.063 3.875 3.495 4.758 2.404 1.482-3.691 1.404 104.81 1.346l101.35-.054 1.484-.78zm-24.138-23.865c-.27-.171-.377-2.6-.434-9.89l-.077-9.662-1.158-.077c-2.41-.16-2.502-.227-2.404-1.738l.088-1.363 1.737-.144 1.738-.145v-2.02c0-2.017-.001-2.019-.87-2.169-.794-.137-.868-.248-.868-1.302v-1.153l3.71-.081 3.708-.081-.09 1.237c-.084 1.17-.142 1.244-1.102 1.38l-1.014.145v4.044l5.936.145 5.936.144.087 1.486.086 1.486-6.413 9.636c-3.528 5.3-6.62 9.798-6.874 9.997-.523.41-1.196.458-1.722.125zm7.018-13.484c1.911-2.925 3.517-5.519 3.568-5.765.081-.387-.44-.447-3.836-.447h-3.93v5.912c0 4.617.079 5.88.361 5.765.2-.08 1.926-2.54 3.837-5.465zm-142.22-.507c-.321-.358-1.395-1.726-2.386-3.04-.99-1.316-3.816-4.795-6.28-7.732-8.283-9.875-10.66-13.24-12.37-17.505-1.13-2.82-1.433-4.618-1.307-7.758.103-2.548.215-3.016 1.197-4.999 1.194-2.41 2.8-4.044 5.062-5.148 1.936-.946 5.167-.955 7.068-.02 2.897 1.423 4.97 4.377 5.426 7.732.238 1.75.542 2.247 1.146 1.875 1.348-.831-.797-11.264-3.35-16.298-.391-.771-.641-1.584-.555-1.806.126-.328 1.292-.404 6.228-.404 3.657 0 6.142.113 6.248.283.097.156-.28 1.316-.835 2.577-2.401 5.448-3.65 10.215-3.65 13.933 0 1.498.067 1.696.574 1.696.39 0 .628-.253.746-.795 1.13-5.209 2.977-8.069 6.157-9.534 1.292-.595 1.876-.692 3.62-.6 3.759.196 6.888 2.446 8.676 6.237.815 1.728.93 2.296 1.029 5.041.091 2.577.004 3.445-.527 5.188-1.247 4.094-3.67 8.076-9.487 15.584-5.18 6.687-8.198 10.786-10.027 13.616-.898 1.39-1.674 2.527-1.725 2.527-.051 0-.356-.292-.677-.65zm103.49-2.592c-1.368-1.792-4.966-6.226-7.996-9.854-6.29-7.531-8.482-10.591-10.317-14.403-2.626-5.456-2.825-10.254-.606-14.623 2.354-4.635 7.791-6.702 12.09-4.595 2.895 1.418 4.91 4.362 5.32 7.772.205 1.7.692 2.26 1.315 1.51.246-.296.298-1.07.17-2.573-.362-4.278-1.631-8.98-3.528-13.078-.55-1.186-.928-2.271-.84-2.412.086-.14 2.89-.256 6.23-.256 4.881 0 6.103.078 6.226.397.084.218-.449 1.8-1.183 3.516-.735 1.715-1.648 4.195-2.03 5.51-.84 2.891-1.5 8.404-1.06 8.844.596.595 1.161-.048 1.504-1.71.812-3.93 2.895-6.997 5.67-8.352 1.399-.683 1.82-.753 3.81-.634 2.787.167 4.589 1.021 6.536 3.098 4.003 4.27 4.439 10.319 1.219 16.919-1.687 3.456-3.623 6.289-9.378 13.722-2.645 3.416-6.037 8.03-7.537 10.255-1.5 2.224-2.817 4.08-2.928 4.125-.11.044-1.319-1.386-2.687-3.178zm34.944-19.507c-.597-1.072-1.863-3.174-2.812-4.67-2.676-4.212-3.77-6.71-3.796-8.666-.05-3.621 3.326-5.558 5.694-3.268.53.513 1.12.932 1.312.932.685 0 .35-1.978-.665-3.92-.558-1.066-1.014-1.986-1.014-2.043 0-.057 1.238-.103 2.751-.103s2.751.072 2.751.16c0 .088-.33.64-.733 1.228-.977 1.423-1.753 4.048-1.323 4.476.23.23.598.046 1.34-.673 2.505-2.421 5.639-.294 5.638 3.827 0 1.895-.814 3.664-3.963 8.619-1.268 1.994-2.613 4.171-2.989 4.838-.375.667-.778 1.213-.894 1.213-.116 0-.7-.878-1.297-1.95zm-144.9-165.1c0-.209.343-1.086.761-1.95 2.057-4.245 3.581-10.235 3.582-14.074 0-1.37-.11-1.856-.446-1.985-.653-.25-.78-.01-1.053 1.994-.987 7.256-8.494 10.688-14.293 6.533-2.82-2.021-4.477-5.714-4.477-9.983 0-6.493 2.519-10.97 13.647-24.263 2.769-3.308 5.945-7.216 7.059-8.685 1.114-1.47 2.155-2.664 2.314-2.655.16.01 1.424 1.732 2.809 3.828 1.386 2.095 4.431 6.28 6.768 9.298 6.32 8.164 8.414 11.215 10.114 14.733 1.827 3.781 2.171 5.1 2.171 8.309 0 4.044-1.132 6.829-3.783 9.302-2.614 2.44-5.659 3.249-8.8 2.338-3.055-.886-5.618-4.179-6.62-8.504-.454-1.963-.813-2.535-1.371-2.191-.52.32-.153 5.214.606 8.079.337 1.27 1.263 3.87 2.057 5.777.795 1.907 1.517 3.694 1.604 3.972.149.471-.278.506-6.245.506-5.093 0-6.404-.078-6.404-.38zm105.4.081c0-.164.342-.972.76-1.795 1.788-3.52 3.352-8.968 3.73-12.994.23-2.456.029-3.477-.661-3.344-.327.063-.574.676-.83 2.064-.96 5.188-4.297 8.27-8.961 8.276-1.71 0-2.347-.143-3.807-.871-5.017-2.501-7.229-8.414-5.573-14.895 1.289-5.046 3.928-9.172 12.118-18.945 3.019-3.602 6.557-7.93 7.863-9.619 1.306-1.688 2.48-3.03 2.61-2.984.128.047 1.201 1.534 2.384 3.303 1.183 1.769 4.625 6.449 7.649 10.4 8.214 10.73 10.257 14.05 11.405 18.53 1.628 6.351-.704 12.38-5.749 14.858-1.638.804-2.244.948-3.966.941-4.501-.017-7.617-2.964-9.002-8.514-.522-2.092-1.078-2.92-1.608-2.391-.245.244-.242 1.15.01 3.563.37 3.521 1.395 7.11 3.244 11.364.618 1.422 1.124 2.758 1.124 2.97 0 .306-1.268.383-6.37.383-4.19 0-6.37-.102-6.37-.299zM12.906 81.19c-.097-.156.16-.774.571-1.372.967-1.41 1.768-4.067 1.352-4.483-.212-.21-.609-.036-1.313.582-.555.486-1.29.973-1.633 1.081-1.127.357-2.513-.116-3.446-1.176-.783-.89-.891-1.223-.891-2.741 0-2.271.766-4.106 3.675-8.806 1.275-2.06 2.67-4.362 3.098-5.117.877-1.542 1.148-1.656 1.718-.722.218.357 1.592 2.56 3.055 4.893 1.462 2.334 2.99 4.966 3.395 5.849 1.324 2.885.83 6.205-1.097 7.377-1.41.858-2.37.747-3.671-.425-.617-.557-1.22-1.012-1.34-1.012-.554 0 .11 2.975.972 4.358.503.807.84 1.586.75 1.732-.222.358-4.972.34-5.195-.018zm3.095-28.373c-.792-.79-.282-2.253.784-2.253.429 0 .936-.156 1.127-.347.451-.45.451-3.479 0-3.929-.247-.246-2.007-.346-6.08-.346H6.098v-1.577c0-1.575.011-1.594 6.568-11.425l6.567-9.848 1.034.087 1.033.086.145 9.822.145 9.821 1.663.087c1.49.078 1.681.16 1.84.795.099.39.099 1.026 0 1.416-.159.634-.35.716-1.84.794l-1.663.087-.17 1.733c-.197 2.021.07 2.745 1.015 2.745.51 0 .717.196.831.79.311 1.625-.062 1.81-3.656 1.81-2.15 0-3.38-.119-3.609-.347zm1.8-9.94c.397-.151.459-.948.459-5.921 0-4.406-.085-5.746-.362-5.744-.469 0-7.82 11.198-7.594 11.564.186.3 6.746.39 7.498.101z" fill="#6e6e6e"/><path d="M.012 157.44V0h217.76v314.88H.012V157.44zm211.96 156.46c2.05-1.102 3.163-2.228 4.116-4.16l.951-1.927V7.373l-.756-1.589c-.907-1.904-2.469-3.509-4.282-4.4L210.67.729H6.81l-1.54.851c-1.72.95-2.913 2.178-3.887 3.996l-.654 1.22v301.58l.783 1.48c.988 1.869 3.115 3.752 4.838 4.283 1.138.35 15.95.401 102.97.356 99.002-.052 101.66-.067 102.65-.598zm-24.18-24.496c-.078-.209-.175-4.67-.215-9.912l-.073-9.533-1.737-.145c-1.722-.143-1.739-.153-1.83-1.102-.134-1.394.34-1.786 2.155-1.786h1.557v-2.162c0-2.117-.016-2.165-.797-2.355-1.005-.245-1.159-.487-1-1.565l.128-.869 3.513.081 3.513.081v1c0 .903-.094 1.018-.979 1.198-1.227.25-1.473.638-1.478 2.328-.008 2.392-.355 2.263 6.05 2.263 4.048 0 5.802.1 6.049.346.191.191.347.828.347 1.416 0 .893-.732 2.186-4.425 7.815-8.265 12.596-8.627 13.088-9.693 13.19-.584.057-.997-.053-1.085-.288zm7.484-13.314c2.046-3.117 3.634-5.804 3.53-5.972-.116-.187-1.62-.304-3.925-.304-3.398 0-3.764.05-4.037.559-.322.6-.427 10.33-.12 11.129.1.258.328.42.508.362.179-.059 2-2.657 4.044-5.774zm-143.98-2.373c-1.001-1.35-3.863-4.892-6.358-7.872-7.004-8.364-8.036-9.668-10.04-12.678-5.203-7.818-5.872-14.76-1.967-20.406.413-.599 1.5-1.586 2.414-2.195 3.955-2.635 8.354-2.03 11.546 1.587 1.196 1.355 2.338 4.198 2.348 5.842.006 1.022.414 1.61.97 1.396.758-.29.856-1.525.381-4.766-.539-3.681-1.599-7.436-2.991-10.599a449.248 449.248 0 0 1-1.17-2.672c-.12-.282 1.21-.36 6.104-.36 4.736 0 6.257.085 6.257.352 0 .194-.578 1.722-1.285 3.395-1.775 4.2-2.713 7.618-3.042 11.079-.229 2.411-.206 3.013.127 3.348.643.646 1.185-.04 1.568-1.986.488-2.475 2.122-5.547 3.675-6.91 3.382-2.97 7.985-2.695 11.658.697 2.4 2.218 3.551 4.784 3.737 8.339.32 6.106-1.841 10.326-12.065 23.555-2.755 3.565-6.006 8.01-7.225 9.879-1.218 1.868-2.351 3.403-2.517 3.411-.167.01-1.122-1.088-2.124-2.437zm105.04-.653c-1.32-1.708-4.364-5.445-6.764-8.305-5.92-7.053-7.36-8.889-9.265-11.804-4.509-6.9-5.514-12.772-3.077-17.967 1.17-2.495 2.827-4.206 5.03-5.197 5.513-2.477 11.49 1.109 12.385 7.431.268 1.887.435 2.26 1.018 2.26 1.67 0 .194-9.213-2.451-15.297-.65-1.492-1.18-2.821-1.18-2.953 0-.131 2.817-.239 6.26-.239 5.827 0 6.248.035 6.103.506-.086.278-.765 1.935-1.508 3.683-.744 1.748-1.664 4.389-2.045 5.869-.842 3.27-1.246 7.95-.714 8.278.585.361 1.15-.484 1.648-2.463.947-3.765 2.817-6.487 5.393-7.85 1.755-.928 5.295-.914 7.222.03 5.419 2.653 7.86 9.539 5.685 16.036-1.507 4.503-3.475 7.544-12.265 18.95-2.39 3.1-5.31 7.1-6.492 8.887-1.18 1.787-2.245 3.25-2.365 3.25-.12 0-1.298-1.398-2.618-3.106zm35.19-19.066c-.428-.755-1.81-3.038-3.07-5.073-2.83-4.572-3.434-5.933-3.624-8.162-.177-2.075.345-3.348 1.65-4.02 1.481-.765 2.758-.57 4.084.626.955.861 1.231.985 1.444.65.341-.538.342-.523-.143-2.13-.228-.756-.749-1.879-1.158-2.495-.409-.617-.744-1.19-.744-1.272 0-.083 1.173-.151 2.606-.151 2.83 0 2.98.109 2.021 1.453-.709.993-1.442 2.99-1.442 3.928 0 .937.641.868 1.693-.181 1.009-1.007 2.655-1.179 3.776-.395 1.563 1.092 2.178 4.08 1.332 6.472-.483 1.367-7.07 12.122-7.423 12.122-.122 0-.573-.617-1.002-1.372zm-145.03-165.3c-.094-.153.209-1.03.674-1.95 1.705-3.374 3.2-8.779 3.672-13.28.234-2.228.007-3.045-.812-2.925-.513.075-.663.41-.95 2.12-.427 2.533-1.254 4.177-2.911 5.783-6.145 5.958-15.766.33-15.746-9.212.006-2.898.654-5.359 2.295-8.713 1.824-3.726 3.85-6.506 11.062-15.17 3.242-3.895 6.647-8.081 7.566-9.303.919-1.222 1.784-2.291 1.922-2.376.138-.085 1.362 1.509 2.72 3.542 1.357 2.033 4.527 6.355 7.042 9.602 7.768 10.03 9.845 13.224 11.294 17.374 2.387 6.836.157 13.775-5.286 16.448-1.528.75-2.203.912-3.812.912-4.494 0-7.745-3.148-9.036-8.751-.395-1.717-.732-2.311-1.308-2.311-.616 0-.692.688-.407 3.707.323 3.422 1.184 6.541 2.997 10.852.728 1.73 1.324 3.323 1.324 3.538 0 .316-1.162.39-6.064.39-3.563 0-6.135-.114-6.236-.276zm105.54-.115c0-.216.443-1.354.984-2.528 2.002-4.348 3.49-10.581 3.305-13.843-.077-1.356-.177-1.593-.704-1.668-.658-.094-.967.55-.975 2.026-.013 2.722-2.604 6.272-5.534 7.584-1.549.693-2.059.784-3.707.664-4.682-.344-8.07-3.658-9.195-8.995-.758-3.593.007-7.432 2.393-12.025 1.743-3.353 3.958-6.352 10.281-13.917 2.965-3.547 6.405-7.781 7.645-9.41 1.24-1.628 2.332-2.954 2.428-2.945.095.01 1.167 1.535 2.381 3.394 1.214 1.858 4.52 6.369 7.344 10.023 7.216 9.335 9.564 12.902 11.002 16.712 2.125 5.634 1.338 11.052-2.138 14.719-3.862 4.074-9.428 4.3-12.848.524-1.393-1.538-2.152-3.077-2.838-5.753-.618-2.412-.868-2.823-1.551-2.562-.319.122-.454.559-.454 1.462 0 3.69 1.272 8.721 3.503 13.853.615 1.415 1.048 2.686.962 2.824-.086.14-2.885.253-6.22.253-4.917 0-6.063-.074-6.063-.393zm-138.77-7.358c-.451-.178-.417-.327.346-1.476.888-1.337 1.645-3.819 1.323-4.337-.319-.516-.88-.338-1.732.55-1.038 1.08-2.125 1.323-3.452.77-1.609-.671-2.272-1.967-2.116-4.135.152-2.112 1.105-4.3 3.466-7.95.895-1.384 2.167-3.497 2.826-4.694.658-1.197 1.312-2.176 1.453-2.176.14 0 .46.393.71.874.248.48 1.709 2.853 3.244 5.272 3.087 4.862 3.845 6.524 3.845 8.426 0 1.594-.401 2.68-1.362 3.685-1.364 1.427-2.752 1.336-4.503-.294-.593-.551-.882-.659-1.125-.417-.45.449.146 2.775 1.071 4.185.39.593.707 1.21.707 1.372 0 .168-.74.296-1.713.296-.943 0-1.888.056-2.1.124-.212.068-.611.035-.888-.074zm2.73-29.443c.082-.995.171-1.095 1.103-1.227l1.013-.145v-4.333l-5.936-.144-5.936-.145-.075-1.444c-.075-1.443-.068-1.455 6.515-11.266 6.213-9.26 6.64-9.822 7.459-9.822h.869l.154 9.822c.085 5.402.183 9.848.217 9.88.035.031.812.096 1.728.144l1.665.087v2.6l-1.497.086c-.823.048-1.644.263-1.824.48-.19.23-.291 1.157-.24 2.223.084 1.782.109 1.832.955 1.976.763.13.88.28.959 1.23l.09 1.082h-7.31l.09-1.084zm2.194-14.877c.052-3.974-.022-5.994-.22-5.994-.38 0-7.82 11.153-7.82 11.723 0 .359.63.413 3.98.346l3.982-.08.078-5.995z" fill="#575757"/><path d="M.012 157.44V0h217.76v314.88H.012V157.44zm212.57 156.22c1.634-.958 3.036-2.51 3.846-4.257l.61-1.315v-301l-.808-1.641c-.941-1.912-2.331-3.227-4.42-4.181l-1.491-.68-101.9.073-101.9.074-1.328.779c-1.467.86-3.136 2.573-3.94 4.043-.503.918-.524 6.893-.524 152.04v151.08l.654 1.22c1.17 2.184 3.281 3.909 5.427 4.432.478.117 46.67.193 102.65.169l101.78-.044 1.336-.784zm-24.645-33.323c0-5.932-.11-9.614-.3-9.966-.24-.448-.614-.559-1.882-.559h-1.582v-2.6h1.427c1.918 0 2.337-.46 2.337-2.563 0-1.798-.323-2.348-1.378-2.348-.613 0-.674-.112-.594-1.083l.09-1.083 3.143-.082c3.451-.09 4.038.114 3.894 1.357-.07.591-.269.768-.956.845-1.362.153-1.593.52-1.593 2.527 0 1.516.097 1.884.56 2.131.33.177 2.83.3 6.081.3h5.52v1.474c0 1.438-.156 1.71-6.504 11.266-6.17 9.285-6.551 9.792-7.384 9.792h-.879v-9.408zm7.24-3.944c1.99-3.043 3.66-5.768 3.711-6.056.086-.486-.197-.525-3.779-.525-2.625 0-3.983.112-4.218.347-.363.362-.527 11.51-.175 11.862.405.404 1.027-.38 4.46-5.628zm-143.77-2.616c-.956-1.305-4.082-5.168-6.947-8.585-9.002-10.736-11.71-14.745-13.16-19.487-1.629-5.321-.772-10.235 2.38-13.646 2.57-2.783 6.691-3.766 9.803-2.339 3.208 1.472 4.907 3.757 5.495 7.395.353 2.183.767 2.732 1.563 2.073 1.264-1.047-.516-10.14-3.035-15.502-.611-1.3-1.037-2.439-.946-2.53.238-.237 12.23-.202 12.23.036 0 .11-.713 1.962-1.583 4.116-1.797 4.444-2.632 7.694-2.92 11.351-.174 2.218-.138 2.547.293 2.712.734.28 1.209-.404 1.73-2.491 1.38-5.534 4.486-8.522 8.856-8.522 3.383 0 7.007 2.37 8.714 5.699 1.595 3.113 1.757 7.544.418 11.452-1.385 4.04-3.584 7.45-11.022 17.08-2.638 3.417-5.916 7.87-7.285 9.895-1.369 2.026-2.57 3.679-2.668 3.674-.099-.01-.961-1.077-1.917-2.382zm105.12-.57c-1.24-1.63-4.67-5.85-7.623-9.378-6.305-7.535-8.548-10.576-10.343-14.014-3.114-5.968-3.27-11.98-.427-16.4 2.316-3.6 6.638-5.192 10.517-3.874 2.794.95 5.45 4.278 5.854 7.34.31 2.35.408 2.6 1.017 2.6.91 0 1.158-1.112.85-3.813-.396-3.456-1.625-8.072-2.947-11.064-.631-1.43-1.218-2.827-1.303-3.105-.144-.47.268-.506 5.911-.506 3.337 0 6.135.068 6.219.152.084.084-.538 1.806-1.381 3.828-1.966 4.713-2.711 7.575-2.93 11.25-.155 2.623-.12 2.975.322 3.144.731.28 1.016-.155 1.612-2.469.78-3.024 1.853-5.003 3.527-6.505 4.896-4.391 12.538-1.502 14.727 5.568.701 2.266.755 5.869.124 8.298-1.073 4.134-3.369 7.819-11.42 18.332-4.923 6.43-8.338 11.207-9.24 12.927-.187.357-.447.65-.576.65-.13 0-1.25-1.333-2.49-2.961zm35.143-19.067c-.343-.675-1.605-2.787-2.803-4.694-3.233-5.146-3.956-6.815-3.962-9.152-.006-1.743.076-2.016.841-2.813 1.48-1.543 3.384-1.523 4.825.051.961 1.05 1.712.91 1.712-.32 0-.462-.454-1.733-1.008-2.825-.554-1.091-1.01-2.082-1.013-2.201-.006-.249 4.447-.3 4.693-.055.09.089-.28 1.008-.82 2.043-1.55 2.966-1.211 5.164.512 3.324 2.07-2.208 4.737-1.184 5.474 2.103.428 1.906-.075 3.836-1.672 6.425-.604.98-2.141 3.477-3.415 5.55s-2.412 3.774-2.528 3.78c-.116.01-.492-.54-.836-1.216zM46.57 88.74c-.091-.09.265-1.11.792-2.264 2.655-5.813 4.379-14.336 3.219-15.92-.594-.81-1.227-.147-1.463 1.533-.504 3.586-2.31 6.295-5.197 7.797-2.244 1.167-4.89 1.11-7.482-.164-4.682-2.3-6.9-7.833-5.597-13.966 1.15-5.408 3.737-9.42 13.763-21.337 1.939-2.303 4.655-5.649 6.037-7.434 1.382-1.785 2.643-3.24 2.803-3.234.159.01 1.281 1.532 2.494 3.39 1.212 1.86 4.26 6.045 6.774 9.302 2.513 3.256 5.54 7.286 6.728 8.954 3.682 5.176 5.845 10.359 5.86 14.043.02 4.671-2.641 9.354-6.335 11.148-1.822.884-4.815 1.049-6.616.363-2.868-1.093-5.134-4.178-6.054-8.243-.486-2.148-1.17-2.947-1.838-2.145-.25.3-.294 1.11-.154 2.81.294 3.56 1.122 6.724 2.903 11.09.879 2.154 1.524 4.035 1.434 4.18-.175.282-11.792.376-12.07.097zm105.62-.112c-.095-.154.077-.771.382-1.373 1.813-3.573 3.498-9.652 3.92-14.14.139-1.485.074-1.895-.385-2.456-.753-.919-1.204-.427-1.482 1.615-.462 3.395-2.393 6.248-5.14 7.594-2.133 1.045-4.988 1.114-7.064.169-2.843-1.294-5.17-4.262-6.038-7.7-.594-2.352-.204-6.554.88-9.5 1.63-4.426 3.827-7.577 12.656-18.159 2.998-3.591 6.166-7.516 7.042-8.72.876-1.205 1.726-2.199 1.888-2.209.163-.01 1.362 1.575 2.666 3.52 1.303 1.947 4.533 6.335 7.177 9.75 10.171 13.14 12.25 17.223 11.948 23.472-.121 2.516-.249 3.045-1.198 4.96-2.27 4.584-6.825 6.87-11.246 5.645-2.75-.762-5.093-3.76-6.28-8.038-.653-2.35-1.028-2.972-1.645-2.736-.506.194-.558 3.072-.106 5.874.36 2.232 1.84 6.755 3.26 9.958.562 1.266.958 2.404.882 2.528-.206.332-11.91.28-12.116-.054zM13.05 81.004c0-.057.456-.977 1.014-2.044.999-1.912 1.312-3.701.713-4.07-.166-.103-.817.28-1.449.849-2.704 2.437-6.126.385-5.676-3.405.098-.829.674-2.467 1.33-3.783 1.315-2.64 5.992-10.368 6.35-10.492.34-.118 6.64 10.045 7.298 11.776.695 1.824.695 3.28 0 4.806-.68 1.496-1.58 2.132-3.013 2.132-.874 0-1.302-.192-1.934-.866-.446-.477-1.037-.867-1.314-.867-.431 0-.476.19-.316 1.351.102.744.576 2.042 1.053 2.885s.867 1.6.867 1.682c0 .082-1.108.148-2.462.148-1.353 0-2.46-.046-2.46-.103zm3.012-28.61c-.089-.232-.119-.724-.067-1.093.078-.546.298-.688 1.182-.76l1.085-.09v-4.576l-6.008-.078-6.008-.078-.087-1.339c-.086-1.312.043-1.534 6.48-11.186 3.613-5.416 6.793-9.919 7.068-10.006.276-.087.713-.077.972.022.42.161.48 1.232.548 9.9l.076 9.72 1.158.078c2.37.158 2.503.245 2.405 1.594l-.089 1.218-1.737.144-1.737.145v4.327l.868.15c.77.133.869.264.869 1.159v1.008l-3.408.08c-2.773.067-3.438 0-3.57-.34zm2.2-15.485c0-4.662-.083-6.066-.362-6.064-.444 0-8.079 11.537-7.865 11.883.085.136 1.97.247 4.19.247h4.037V36.91z" fill="#474747"/><path d="M.012 157.44V0h217.76v314.88H.012V157.44zm212.42 156.3c1.778-.949 3.8-3.342 4.314-5.108.383-1.316.425-18.95.36-151.7l-.073-150.21-.774-1.463c-.904-1.71-2.705-3.425-4.399-4.193-1.165-.527-4.017-.542-103-.549L7.05.507l-1.772.884C3.27 2.392 2.243 3.465 1.264 5.59L.586 7.062l.073 150.77.073 150.77.678 1.3c1.153 2.213 3.09 3.873 5.072 4.347.5.12 46.776.198 102.84.174l101.93-.044 1.191-.636zm-24.307-24.256c-.106-.106-.195-4.428-.197-9.605-.002-5.177-.103-9.567-.224-9.756-.12-.19-.933-.384-1.805-.434l-1.586-.09-.09-1.227-.088-1.228h1.573c2.038 0 2.274-.304 2.166-2.789-.085-1.944-.1-1.976-.955-2.121-.731-.125-.883-.297-.96-1.086l-.09-.937h6.986v.993c0 .94-.06.999-1.086 1.084l-1.086.09-.086 2.14c-.06 1.519.023 2.211.29 2.38.206.13 2.949.24 6.094.242h5.719v1.435c0 1.388-.21 1.75-6.411 11.05-3.527 5.288-6.556 9.71-6.733 9.827-.403.266-1.177.282-1.43.029zm6.813-12.735c4.365-6.541 4.441-6.676 3.923-6.874-.214-.082-2.142-.112-4.284-.068l-3.894.081-.078 6.139c-.065 5.058-.008 6.138.32 6.138.22 0 2.025-2.437 4.013-5.416zm-143.63-3.322c-1.11-1.47-4.198-5.272-6.862-8.45-10.973-13.093-13.114-16.685-13.877-23.276-.606-5.231 2.8-10.984 7.268-12.28 5.128-1.487 10.427 2.122 11.013 7.498.09.815.346 1.777.572 2.137.346.554.504.605 1.019.33.574-.307.6-.49.446-3.11-.204-3.463-1.475-8.505-3.068-12.174-.655-1.51-1.191-2.842-1.192-2.96 0-.12 2.663-.217 5.918-.217 3.256 0 5.977.097 6.047.216.07.12-.566 1.914-1.414 3.988-2.063 5.046-2.765 7.858-2.828 11.332-.05 2.796-.047 2.807.656 2.807.64 0 .775-.242 1.458-2.613.886-3.08 1.856-4.842 3.46-6.288 1.794-1.617 2.964-2.001 5.669-1.862 2.745.141 4.202.785 6.13 2.709 2.554 2.548 3.906 7.033 3.287 10.902-.827 5.166-3.008 8.988-11.147 19.54-4.944 6.41-7.95 10.538-9.41 12.927-.51.834-.971 1.516-1.026 1.516-.055 0-1.009-1.202-2.12-2.672zm105.17-.434c-1.297-1.708-4.543-5.705-7.213-8.882-8.041-9.569-10.676-13.447-12.166-17.91-2.299-6.885-.267-13.582 4.925-16.234 2.687-1.373 5.69-1.204 8.333.467 2.329 1.474 4.28 4.94 4.28 7.604 0 .415.221.975.49 1.244.461.459.523.45 1.014-.156.634-.78.65-1.665.097-5.067-.56-3.447-1.668-7.214-3.03-10.304-.61-1.382-1.037-2.585-.95-2.672.088-.087 2.81-.16 6.048-.16 4.774 0 5.887.075 5.887.394 0 .217-.376 1.224-.836 2.239-1.03 2.272-2.563 6.577-2.942 8.262-.422 1.88-.872 6.636-.675 7.146.207.538 1.086.59 1.48.086.155-.198.502-1.252.77-2.342 1.346-5.467 4.299-8.274 8.703-8.273 6.874 0 11.58 7.61 9.563 15.466-1.09 4.248-3.628 8.387-10.955 17.868-2.714 3.512-6.155 8.173-7.645 10.358-1.49 2.184-2.734 3.971-2.765 3.971-.03 0-1.115-1.398-2.413-3.105zm32.762-23.072c-4.237-7.069-5.015-9.27-4.071-11.523.927-2.215 3.469-2.71 5.219-1.019.499.483 1.129.877 1.4.877.861 0 .623-2.02-.49-4.15-.54-1.034-.91-1.954-.82-2.043.273-.273 4.409-.18 4.409.1 0 .145-.336.908-.747 1.698-1.187 2.282-1.491 4.395-.633 4.395.163 0 .817-.469 1.453-1.043.998-.898 1.297-1.02 2.17-.878 1.896.306 2.969 1.87 2.969 4.326 0 .862-.18 2.075-.4 2.695-.345.979-6.524 11.195-7.072 11.695-.11.1-1.635-2.208-3.387-5.13zM46.64 88.42c0-.137.443-1.21.983-2.383 2.748-5.968 4.263-14.708 2.717-15.676-.75-.47-1.089.053-1.382 2.123-.695 4.904-4.231 8.217-8.744 8.19-6.034-.035-10.57-6.489-9.501-13.519.92-6.058 3.259-9.875 13.658-22.3 2.813-3.36 5.94-7.221 6.95-8.58 1.009-1.358 1.923-2.475 2.03-2.481.108-.01 1.03 1.257 2.048 2.808 1.02 1.552 3.338 4.77 5.152 7.15 10.495 13.77 11.82 15.722 13.362 19.683 2.312 5.94 1.345 11.841-2.517 15.363-3.727 3.398-8.549 3.533-11.76.329-1.661-1.657-2.433-3.118-3.173-6.005-.615-2.398-1.1-3.128-1.878-2.83-.447.17-.479.51-.303 3.216.26 4.028 1.423 7.916 4.425 14.799.124.282-1.174.36-5.954.36-3.361 0-6.112-.11-6.112-.247zm105.4.094c0-.085.332-.808.738-1.606 2.589-5.098 4.669-14.772 3.503-16.294-.76-.991-1.41-.25-1.798 2.052-.596 3.528-2.349 5.93-5.319 7.286-3.922 1.792-8.882.066-11.212-3.9-2.457-4.182-2.437-9.384.057-14.769 1.9-4.1 3.769-6.706 11.052-15.405 2.877-3.436 6.245-7.563 7.483-9.171 1.238-1.609 2.342-2.925 2.452-2.925.11 0 .698.813 1.304 1.806 1.557 2.549 3.766 5.586 8.995 12.37 8.66 11.232 10.974 15.452 11.328 20.646.362 5.316-1.87 9.703-6.043 11.88-1.317.688-1.89.807-3.862.808-2.77 0-4.017-.546-5.903-2.587-1.414-1.53-2.216-3.168-2.958-6.041-.622-2.406-1.35-3.112-1.988-1.925-.4.748.1 5.549.874 8.368.322 1.176 1.232 3.723 2.023 5.661.79 1.938 1.437 3.609 1.437 3.712 0 .104-2.737.189-6.081.189-3.345 0-6.081-.07-6.081-.154zM13.05 80.986c0-.095.252-.524.56-.955 1.303-1.827 1.899-4.85 1.012-5.14-.17-.057-.783.356-1.361.916-.844.818-1.277 1.018-2.201 1.018-1.514 0-2.81-1.07-3.244-2.68-.392-1.453.18-3.895 1.438-6.132.796-1.418 5.255-8.827 5.823-9.676.347-.52-.058-1.06 3.799 5.055 3.657 5.799 4.094 6.75 4.108 8.956.014 2.054-.596 3.41-1.817 4.039-1.338.69-2.21.54-3.472-.597-.632-.569-1.284-.951-1.449-.85-.707.437-.037 3.403 1.141 5.054.322.451.586.898.586.992 0 .095-1.108.172-2.462.172-1.353 0-2.46-.077-2.46-.172zm3.01-28.545c-.33-.86.029-1.446 1.01-1.647 1.258-.256 1.473-.632 1.473-2.568 0-2.545.244-2.448-6.278-2.507l-5.73-.052-.087-1.444-.086-1.443 6.457-9.69c6.261-9.397 6.485-9.691 7.398-9.699l.941-.01V43.014l.652.145c.358.08 1.172.18 1.81.222 1.113.074 1.161.119 1.247 1.16l.09 1.084h-1.34c-2.22 0-2.459.264-2.459 2.712v2.115l.941.27c.79.225.941.407.941 1.124v.856l-3.408.081c-2.787.067-3.437 0-3.571-.344zm1.932-9.425c.524-.28.56-.658.56-5.898 0-5.495-.095-6.513-.608-6.513-.282 0-8.079 11.687-8.079 12.11 0 .145.163.33.362.41.694.279 7.209.188 7.765-.108z" fill="#373737"/><path d="M.012 157.44V0h217.76v314.88H.012V157.44zm212.25 156.6c1.75-.965 3.184-2.433 4.032-4.126l.89-1.778-.002-150.53-.003-150.53-.697-1.494c-.839-1.795-2.6-3.57-4.366-4.398L210.82.577l-102 .01C9.642.597 6.79.607 5.62 1.136c-1.723.78-3.433 2.433-4.287 4.142L.593 6.76l.006 150.81.006 150.81.588 1.3c1.01 2.232 3.174 4.114 5.335 4.642.478.117 46.8.192 102.94.168 86.26-.037 102.18-.105 102.79-.443zm-24.323-34.256c0-10.968.169-10.265-2.46-10.265h-1.339l.09-1.083.09-1.083 1.737-.145 1.738-.144v-4.617l-.87-.15c-.737-.127-.868-.28-.868-1.014v-.864l3.422-.082 3.421-.082-.091.949c-.081.84-.207.964-1.105 1.092l-1.014.145v4.622l5.936.144 5.936.145.091 1.27c.088 1.227-.13 1.6-6.443 11.05-6.162 9.223-6.584 9.78-7.402 9.78h-.869v-9.668zm7.295-3.27c2.086-3.117 3.85-5.882 3.919-6.146.083-.318-.103-.542-.55-.661-1.11-.297-6.894-.211-7.498.11-.526.282-.56.664-.56 6.308 0 3.304.084 6.091.185 6.193.102.101.304.112.448.023.144-.09 1.97-2.712 4.056-5.828zm-143.97-3.177c-1.035-1.38-3.843-4.851-6.24-7.713-8.625-10.303-10.703-13.158-12.572-17.27-3.79-8.338-1.196-16.875 5.736-18.886 1.94-.563 3.68-.372 5.738.63 2.753 1.341 4.507 3.928 4.975 7.336.133.976.385 1.917.56 2.091.452.452 1.187.084 1.506-.753.282-.74-.03-4.5-.587-7.063-.485-2.235-2.032-6.726-2.925-8.495-.464-.92-.767-1.797-.673-1.95.277-.445 11.72-.363 11.72.084 0 .199-.652 1.963-1.449 3.92-1.95 4.793-2.617 7.416-2.81 11.057-.146 2.773-.112 3.078.363 3.26.794.304 1.267-.373 1.855-2.651 1.032-4.003 2.725-6.434 5.387-7.733 1.403-.685 1.84-.761 3.684-.64 2.689.175 4.555 1.105 6.514 3.242 1.977 2.16 2.726 4.147 2.894 7.688.289 6.102-1.74 10.047-11.945 23.239-2.828 3.654-6.11 8.107-7.294 9.894-1.185 1.787-2.244 3.243-2.354 3.236-.11-.01-1.048-1.144-2.083-2.523zm104.77-.996c-1.521-1.95-5.005-6.21-7.743-9.466-8.787-10.456-11.539-15.251-12.079-21.052-.325-3.49.893-7.316 3.083-9.686 3.473-3.759 8.976-3.922 12.535-.372 1.362 1.36 2.13 3.006 2.599 5.577.403 2.208 1.097 2.974 1.817 2.007 1.178-1.583-.419-9.959-2.943-15.44-.54-1.175-.983-2.312-.983-2.528 0-.318 1.1-.393 5.774-.393 3.176 0 5.844.114 5.93.252.086.139-.347 1.41-.962 2.825-1.871 4.304-2.883 7.87-3.262 11.505-.305 2.912-.293 3.4.087 3.78.916.913 1.582.065 2.271-2.892.763-3.272 2.782-6.12 5.148-7.264 1.698-.82 4.519-.87 6.527-.118 3.132 1.175 5.732 4.482 6.54 8.32.469 2.22.4 4-.253 6.548-1.161 4.528-3.455 8.274-11.145 18.197-2.65 3.419-5.936 7.875-7.302 9.903-1.367 2.027-2.573 3.721-2.68 3.764-.106.043-1.438-1.517-2.959-3.467zm35.547-18.638c-.39-.755-1.76-3.055-3.046-5.112-2.634-4.213-3.55-6.343-3.558-8.27-.008-2.123.773-3.213 2.757-3.85.72-.23 2.24.463 3.022 1.379.766.895 1.11.949 1.494.235.443-.826-.3-3.396-1.446-5.002l-.592-.829h2.36c1.298 0 2.316.098 2.262.217-.054.119-.465.913-.913 1.764-.453.86-.838 2.08-.867 2.744-.045 1.03.037 1.21.58 1.287.41.058.748-.127.965-.53.182-.341.778-.806 1.322-1.033 2.985-1.244 5.155 2.795 3.64 6.774-.57 1.494-6.701 11.553-7.06 11.582-.117.01-.531-.6-.92-1.355zM46.63 88.603c0-.06.436-1.067.97-2.239 1.77-3.892 2.81-7.642 3.364-12.139.347-2.82.099-4.002-.842-4.002-.72 0-1.044.616-1.282 2.432-.22 1.69-1.236 4-2.32 5.279-.43.507-1.58 1.32-2.554 1.805-1.446.72-2.128.884-3.707.884-3.627 0-6.659-2.151-8.502-6.031-.87-1.834-.908-2.063-.895-5.524.012-3.32.086-3.801.909-5.96 1.75-4.593 3.715-7.422 12.499-17.987 2.986-3.592 6.25-7.612 7.253-8.934 1.002-1.321 1.863-2.361 1.911-2.31.049.05 1.193 1.734 2.543 3.74 1.35 2.007 3.802 5.387 5.45 7.511 9.81 12.653 11.981 16.074 13.172 20.761.749 2.944.463 6.898-.67 9.277-1.24 2.605-2.66 4.109-4.937 5.227-1.602.787-2.263.95-3.825.941-4.386-.023-7.271-2.822-8.716-8.457-.624-2.435-.824-2.759-1.61-2.602-.489.097-.534.399-.49 3.277.056 3.624.698 6.199 2.86 11.465.71 1.729 1.29 3.266 1.29 3.418 0 .165-2.368.275-5.936.275-3.265 0-5.936-.049-5.936-.108zm105.78-.397c.088-.278.617-1.61 1.175-2.961 2.451-5.929 3.857-13.726 2.655-14.721-.931-.77-1.43-.242-1.789 1.898-.843 5.024-4.21 8.201-8.69 8.201-6.04 0-10.489-6.396-9.44-13.573.834-5.712 3.32-9.77 13.275-21.67 2.857-3.416 6.027-7.316 7.043-8.666 1.016-1.35 1.943-2.564 2.059-2.696.116-.132 1.441 1.565 2.945 3.772 1.504 2.207 4.89 6.8 7.526 10.207 8.569 11.078 10.946 15.343 11.415 20.48.582 6.373-3.496 12.185-9.045 12.89-4.406.558-8.237-2.825-9.539-8.426-.512-2.202-.814-2.717-1.592-2.717-.75 0-.941.913-.72 3.43.336 3.794 1.992 9.551 3.725 12.948.227.446.503 1.102.614 1.46l.2.65h-5.989c-5.572 0-5.978-.035-5.829-.506zM13.33 80.94c0-.142.326-.825.725-1.516 1.35-2.34 1.604-4.58.521-4.58-.249 0-.957.455-1.574 1.012-1.234 1.112-2.116 1.259-3.446.572-1.758-.907-2.214-3.442-1.136-6.317.325-.868 1.3-2.725 2.166-4.127.866-1.403 2.26-3.75 3.1-5.216.84-1.466 1.591-2.661 1.67-2.656.226.015 6.148 9.644 6.874 11.177.904 1.909.901 4.528-.007 5.874-1.296 1.921-3.172 2.134-4.708.534-.45-.468-.976-.852-1.168-.852-.957 0-.644 2.293.626 4.586.385.695.7 1.378.7 1.517s-.977.252-2.171.252c-1.195 0-2.172-.117-2.172-.26zm3.098-28.234c-.112-.11-.203-.57-.203-1.02 0-.704.114-.818.811-.818.446 0 .967-.156 1.158-.347.458-.457.458-4.05 0-4.506-.246-.247-2.007-.347-6.08-.347H6.38v-1.373c0-1.308.306-1.83 6.529-11.14 6.107-9.137 6.579-9.761 7.311-9.677l.783.09.145 9.822.145 9.822 1.665.087 1.665.087v2.282h-1.376c-.756 0-1.528.101-1.715.22-.187.119-.43 1.008-.54 1.976-.238 2.101.12 3 1.198 3 .651 0 .722.103.641.938l-.09.939-3.056.081c-1.68.045-3.146-.01-3.257-.12zm1.795-9.747c.23-.277.307-2.186.253-6.283-.067-5.004-.144-5.885-.513-5.885-.364 0-3.48 4.418-7.285 10.328-1.369 2.125-1.2 2.238 3.331 2.238 2.945 0 3.963-.096 4.214-.398z" fill="#272727"/><path d="M.012 157.44V0h217.76v314.88H.012V157.44zm212.87 156.35c1.414-.877 3.075-2.747 3.743-4.215.53-1.164.543-5.061.543-151.99 0-146-.017-150.83-.534-151.97-.756-1.66-2.206-3.21-3.919-4.19l-1.47-.841H6.565l-1.3.628c-1.652.798-3.411 2.547-4.114 4.092-.534 1.174-.547 4.77-.554 152.22-.006 134.95.041 151.13.437 152.08.949 2.264 3.08 4.22 5.127 4.708.52.123 47.007.205 103.31.18l102.36-.043 1.058-.657zm-24.81-24.693c-.074-.199-.168-4.65-.208-9.894l-.073-9.533-1.593-.089c-1.897-.106-2.146-.298-1.891-1.458.185-.842.266-.885 1.839-.967l1.645-.086.223-1.733c.302-2.35.107-3.011-.955-3.223-.718-.143-.86-.311-.86-1.011v-.84l3.257.082 3.258.082.091.794c.082.71 0 .794-.775.794-1.354 0-1.778.645-1.773 2.693.002.982.106 1.945.23 2.14.164.257 1.854.376 6.149.433l5.923.078v1.3c0 1.211-.442 1.966-6.474 11.05-5.543 8.348-6.575 9.75-7.176 9.75-.386 0-.763-.163-.837-.361zm7.273-12.517c2.155-3.27 3.876-6.162 3.825-6.427-.08-.42-.629-.494-4.141-.564-3.553-.07-4.092-.02-4.412.416-.263.359-.365 2.045-.365 6.052 0 5.786.08 6.468.764 6.468.227 0 2.175-2.675 4.33-5.945zm-144.13-3.515c-1.193-1.55-4.184-5.222-6.645-8.162-7.692-9.185-9.645-11.815-11.485-15.464-4.192-8.315-2.555-16.46 3.902-19.409 2.333-1.065 4.45-1.012 6.861.172 2.833 1.391 4.543 3.888 4.972 7.258.227 1.78.528 2.311 1.31 2.311.914 0 1.222-1.048 1.007-3.441-.391-4.376-1.9-9.872-3.677-13.385l-.84-1.661h5.941c3.267 0 5.94.046 5.94.101 0 .056-.595 1.519-1.324 3.25-1.825 4.341-2.706 7.537-3.039 11.027-.305 3.205-.11 4.11.889 4.11.689 0 1.058-.66 1.483-2.65.738-3.451 2.84-6.56 5.273-7.799 3.393-1.727 8.077-.366 10.746 3.12 3.175 4.149 3.25 10.086.204 16.054-1.829 3.582-2.971 5.237-9.137 13.23-2.88 3.734-6.325 8.413-7.654 10.4-1.33 1.986-2.45 3.644-2.488 3.683-.038.04-1.046-1.195-2.24-2.744zm105.75.327c-1.016-1.368-4.552-5.731-7.858-9.695-6.39-7.661-8.83-10.985-10.46-14.248-2.752-5.51-3.11-10.317-1.076-14.495 2.999-6.162 10.235-7.56 14.442-2.792 1.23 1.393 2.337 3.9 2.337 5.29 0 1.266.496 2.32 1.093 2.32.913 0 1.223-.627 1.223-2.476 0-3.72-1.399-9.41-3.36-13.67-.54-1.174-.983-2.182-.983-2.239 0-.057 2.67-.104 5.932-.104h5.933l-.75 1.662c-2.496 5.523-3.986 11.33-3.818 14.869.076 1.585.163 1.824.691 1.9.86.122 1.203-.426 1.852-2.956.729-2.844 1.824-4.844 3.42-6.245 3.367-2.957 8.262-2.513 11.644 1.054 4.617 4.87 4.404 11.917-.6 19.898-.866 1.38-3.172 4.61-5.126 7.18l-5.97 7.847a159.181 159.181 0 0 0-4.506 6.283c-1.147 1.708-2.115 3.106-2.15 3.106-.034 0-.894-1.12-1.91-2.489zm33.81-21.272a668.608 668.608 0 0 0-3.076-5.086c-2.05-3.345-2.74-5.283-2.582-7.24.106-1.31.277-1.698 1.045-2.383 1.356-1.209 2.802-1.137 4.105.205.615.633 1.215.99 1.577.938.887-.127.722-2.305-.326-4.295a88.774 88.774 0 0 1-.923-1.782c-.054-.12.891-.217 2.1-.217h2.199l-.882 1.558c-1.108 1.959-1.467 4.325-.701 4.619.368.14.823-.098 1.567-.823 1.298-1.264 2.468-1.351 3.744-.28 1.56 1.31 1.864 3.638.808 6.192-.658 1.593-6.562 11.247-6.885 11.26-.095 0-.891-1.196-1.77-2.665zM46.925 88.42c0-.144.383-1.113.852-2.155 1.371-3.049 2.547-7.054 3.036-10.34.582-3.913.573-4.655-.07-5.448-.434-.534-.63-.593-1.118-.333-.436.233-.638.718-.771 1.85-.42 3.565-2.114 6.197-4.934 7.668-2.142 1.116-5.186 1.107-7.357-.024-4.78-2.49-6.889-8.208-5.304-14.38 1.37-5.333 3.525-8.634 13.184-20.195 2.987-3.575 6.168-7.503 7.07-8.73.9-1.225 1.723-2.233 1.827-2.238.104-.01.874 1.054 1.71 2.354 1.412 2.196 5.256 7.383 10.881 14.68 5.06 6.563 7.54 10.832 8.524 14.67 1.319 5.144.158 9.764-3.244 12.906-1.934 1.787-3.64 2.468-6.167 2.464-4.191-.01-7.213-2.981-8.478-8.347-.458-1.939-1.233-3.013-1.97-2.73-.68.26-.76 1.069-.43 4.309.344 3.369 1.38 6.992 3.218 11.249.617 1.43 1.123 2.697 1.123 2.816 0 .12-2.605.217-5.79.217-3.271 0-5.792-.114-5.792-.262zm105.49-.099c2.83-6.603 3.899-10.375 4.16-14.673.144-2.359.097-2.828-.325-3.25-.272-.27-.612-.492-.756-.492-.497 0-1.076 1.303-1.237 2.782-.468 4.293-4.33 7.906-8.45 7.906-3.395 0-7.236-2.8-8.52-6.213-.965-2.563-1.232-4.673-.892-7.061.843-5.932 3.663-10.63 12.752-21.246 3-3.506 6.976-8.412 8.485-10.472.61-.834 1.201-1.517 1.313-1.517.111 0 .444.423.74.94 1.066 1.861 5.135 7.475 9.603 13.25 8.146 10.527 10.48 14.645 11.1 19.59.89 7.1-3.631 13.344-9.661 13.344-4.575 0-7.494-3.133-8.964-9.62-.271-1.198-.955-1.75-1.684-1.36-.568.303-.591.486-.422 3.25.222 3.603.9 6.317 2.65 10.603.742 1.816 1.42 3.594 1.507 3.952l.158.65h-5.856c-4.574 0-5.822-.08-5.7-.361zm-138.23-8.955c1.019-1.803 1.415-3.77.887-4.404-.505-.606-.777-.548-1.524.325-.357.418-1.073.94-1.59 1.16-.8.339-1.083.34-1.882 0-1.633-.69-2.1-1.467-2.1-3.498 0-1.572.17-2.135 1.318-4.375 1.435-2.8 5.832-10.198 6.066-10.206.166-.01 6.053 9.453 6.795 10.918 1.334 2.631.611 6.282-1.41 7.124-1.191.497-1.74.35-2.965-.798-.525-.49-1.139-.805-1.448-.742-.879.179-.642 2.49.453 4.426l.897 1.585h-4.354l.857-1.517zm2.044-27.642c0-.773.098-.857 1.086-.939l1.085-.09v-4.911l-5.936-.144-5.936-.145-.086-1.17c-.08-1.095.322-1.783 6.335-10.832 3.532-5.315 6.568-9.759 6.746-9.876.179-.116.553-.214.832-.216.472 0 .507.645.511 9.6.002 5.283.103 9.76.224 9.95.12.188.932.383 1.805.433l1.586.09.09 1.083.09 1.083h-1.575c-2.059 0-2.272.29-2.165 2.934l.085 2.122.942.09c.827.08.94.193.94.94v.848h-6.66v-.85zm2.172-14.87c0-4.65-.092-6.362-.346-6.446-.192-.064-2.015 2.379-4.08 5.465-4.236 6.33-4.502 6.78-4.253 7.181.111.18 1.804.26 4.43.211l4.248-.08v-6.331z" fill="#161616"/><path d="M.012 157.44L.013 0h217.74l-.002 157.43-.002 157.43-4.704-.03c-4.691-.03-4.699-.031-2.5-.365 1.212-.184 2.45-.521 2.75-.75 1.491-1.13 2.546-2.305 3.18-3.541l.699-1.365-.002-151.27-.002-151.27-.787-1.442c-.793-1.454-2.464-3.106-3.9-3.857-.666-.348-15.704-.408-103.6-.412-102.55 0-102.82 0-103.96.578-1.461.744-3.021 2.3-3.766 3.756C.575 6.03.574 6.29.577 157.602l.002 151.57.824 1.466c1.255 2.234 3.11 3.495 5.645 3.843 1.948.266 1.8.286-2.488.325l-4.56.042v-157.44zm188.21 122.27c-.002-5.203-.103-9.615-.223-9.804-.12-.19-.933-.384-1.806-.434-1.556-.088-1.588-.107-1.677-1.028l-.09-.939H186c1 0 1.699-.148 1.913-.406.212-.255.306-1.25.253-2.67l-.085-2.264-.869-.148c-.622-.107-.895-.333-.961-.797-.091-.638-.043-.648 3.113-.648 3.205 0 3.205 0 3.205.705 0 .606-.152.717-1.086.794l-1.086.09v5.2l6.009.078 6.008.078v1.137c0 1.187.372.587-10.514 16.978-1.866 2.81-2.486 3.539-3.012 3.539h-.662l-.004-9.46zm7.24-2.956c2.232-3.334 4.058-6.327 4.058-6.651 0-.573-.136-.588-4.561-.511l-4.56.08-.079 6.204c-.043 3.412-.015 6.37.063 6.572.38.986 1.297-.042 5.08-5.693zm-143.78-3.4c-.928-1.233-4.275-5.34-7.437-9.127-7.746-9.276-9.772-12.068-11.475-15.816-2.94-6.468-2.19-13.153 1.872-16.711 1.754-1.537 3.438-2.17 5.768-2.169 2.379 0 3.842.639 5.688 2.48 1.432 1.429 2.196 3.077 2.519 5.433.27 1.98.823 2.774 1.726 2.488.901-.285 1.15-1.473.883-4.207-.397-4.061-1.656-8.603-3.544-12.783l-.75-1.66h5.643c3.129 0 5.643.115 5.643.258 0 .142-.409 1.215-.908 2.383-2.363 5.529-3.407 9.62-3.425 13.428-.011 2.22.359 2.905 1.392 2.578.63-.2 1.044-1.075 1.496-3.158.476-2.192 1.703-4.404 3.24-5.837 1.727-1.613 2.947-2.142 4.928-2.14 2.046 0 3.38.405 5.048 1.523 3.054 2.048 4.734 5.546 4.734 9.856 0 5.48-2.236 9.836-10.548 20.54-5.896 7.594-6.381 8.247-8.666 11.674l-2.14 3.209-1.686-2.242zm104.94-.727c-1.222-1.628-3.853-4.882-5.847-7.232-7.89-9.302-10.675-13.111-12.496-17.1-1.074-2.351-1.875-5.715-1.875-7.875 0-3.434 1.743-7.187 4.198-9.04 2.92-2.204 5.963-2.53 8.873-.95 2.715 1.475 4.252 3.834 4.768 7.317.252 1.697.588 2.31 1.266 2.31.798 0 1.454-1.104 1.452-2.447-.003-3.276-1.503-9.483-3.307-13.683-.57-1.324-1.035-2.462-1.035-2.527 0-.065 2.541-.12 5.647-.12 3.105 0 5.646.044 5.646.096 0 .052-.506 1.258-1.124 2.68-1.866 4.29-2.878 7.85-3.229 11.346-.352 3.518-.252 4.246.624 4.523.903.286 1.594-.57 1.96-2.422.47-2.38 2.051-5.491 3.417-6.72 1.643-1.478 3.412-2.086 5.65-1.943 4.555.292 8.26 4.151 9.017 9.392.76 5.263-1.44 10.557-7.92 19.056-7.691 10.088-10.21 13.483-11.705 15.774-.907 1.39-1.673 2.527-1.703 2.526-.03 0-1.054-1.334-2.276-2.961zm35.085-19.284c-.326-.638-1.703-2.945-3.06-5.128-3.006-4.837-3.86-7.215-3.263-9.086.263-.824.715-1.438 1.396-1.893 1.247-.836 2.036-.681 3.566.698.77.693 1.275.948 1.605.808.265-.113.863-.184 1.329-.158.6.033 1.124-.222 1.8-.876 2.825-2.732 5.853 1.143 4.308 5.513-.467 1.32-6.533 11.267-6.876 11.276-.117 0-.479-.517-.805-1.154zm.875-17.04c-.009-.239-.383-1.181-.83-2.095l-.812-1.66h1.877c1.81 0 1.86.018 1.392.535-.267.295-.739 1.237-1.048 2.094-.31.858-.57 1.364-.579 1.126zm-144.65-150c1.906-4.14 3.284-9.692 3.394-13.675.056-2.01-.304-2.719-1.38-2.719-.821 0-1.279.765-1.279 2.137 0 1.554-1.047 4.011-2.329 5.464-3.253 3.687-8.567 3.772-12.152.195-.666-.665-1.622-2.073-2.124-3.13-.866-1.824-.913-2.099-.913-5.388 0-3.809.3-5.06 2.058-8.599 1.81-3.64 4.408-7.111 12.701-16.967 1.672-1.986 3.986-4.872 5.144-6.414 1.157-1.542 2.183-2.81 2.28-2.817.095-.01.962 1.19 1.924 2.66.963 1.469 2.388 3.516 3.168 4.549 1.846 2.445 5.578 7.319 7.724 10.086 2.491 3.212 5.522 7.845 6.686 10.222 1.515 3.09 1.99 5.316 1.832 8.584-.112 2.324-.273 3.043-1.046 4.657-1.798 3.759-4.886 5.872-8.592 5.879-1.687 0-2.25-.128-3.363-.78-2.507-1.47-3.949-3.636-4.906-7.37-.657-2.562-.975-3.028-1.986-2.91l-.748.086.047 3.322c.053 3.79.661 6.26 2.861 11.618.71 1.729 1.29 3.202 1.29 3.273 0 .072-2.532.131-5.627.131h-5.628l.964-2.094zm104.69 1.99c0-.057.376-.935.835-1.95 2.47-5.457 4.201-14.024 3.209-15.875-.338-.63-1.504-.748-1.95-.198-.16.199-.384 1.076-.498 1.95-.427 3.301-2.056 5.75-4.793 7.205-1.624.864-1.953.935-3.85.833-1.452-.077-2.492-.321-3.469-.813-3.37-1.698-5.71-5.95-5.694-10.345.02-5.512 3.183-11.37 11.42-21.146 4.67-5.544 7.48-8.987 9.253-11.338.928-1.231 1.77-2.236 1.87-2.233.1 0 .896 1.14 1.769 2.528 1.515 2.408 4.171 6 10.304 13.933 7.301 9.445 9.704 14.574 9.282 19.815-.42 5.209-3.714 9.39-8.09 10.267-3.323.666-5.935-.53-8.089-3.7-1-1.473-1.37-2.432-2.238-5.797-.247-.957-.482-1.266-1.074-1.415-1.29-.323-1.6.467-1.372 3.506.258 3.434 1.192 7.014 2.96 11.338l1.447 3.54h-5.616c-3.089 0-5.616-.048-5.616-.105zm-138.99-7.505c0-.054.389-.801.864-1.661.474-.86.875-1.823.89-2.14.017-.336.232-.032.513.722.267.715.716 1.722.998 2.239l.514.938h-1.89c-1.039 0-1.889-.044-1.889-.098zm-4.104-4.73c-.991-.613-1.398-1.52-1.398-3.118 0-1.86.874-3.906 3.402-7.97 1.235-1.983 2.57-4.218 2.968-4.967.398-.748.79-1.354.869-1.346.23.022 5.866 9.146 6.57 10.634.765 1.618.876 4.291.23 5.538-.44.851-1.75 1.724-2.586 1.724-.246 0-.937-.435-1.534-.967-.923-.821-1.314-.971-2.595-.995-1.35-.025-1.612.077-2.505.967-1.124 1.122-2.17 1.275-3.421.5zm6.82-23.901c-.226-.59.111-1.025.795-1.025 1.435 0 1.701-.452 1.701-2.89 0-1.968-.078-2.332-.56-2.589-.33-.176-2.829-.299-6.08-.299H6.682v-1.15c0-1.014.755-2.29 6.41-10.833 5.4-8.16 6.516-9.683 7.09-9.683h.68l.077 9.894.076 9.894 1.635.086c1.385.073 1.659.18 1.795.7.24.916.001 1.092-1.493 1.097-.747 0-1.501.1-1.676.216-.37.248-.743 3.726-.498 4.66.107.409.465.697.998.803.636.127.831.328.831.852 0 .679-.032.686-3.049.686-2.399 0-3.084-.089-3.21-.42zm2.149-8.883c.248-.247.347-2.086.347-6.442 0-5.914-.119-6.788-.923-6.788-.38 0-8.343 12.082-8.343 12.657 0 .294.087.621.193.727.361.36 8.352.219 8.726-.154z"/></svg>