<svg xmlns="http://www.w3.org/2000/svg" height="335.872" width="232.277" viewBox="0 0 217.76 314.88"><path d="M0 157.44V0h217.76v314.88H0V157.44z" fill="#fdfdfd"/><path d="M0 157.44V0h217.76v314.88H0V157.44zm211.85 155.64c1.891-.995 3.473-2.834 4.02-4.673.375-1.26.428-19.907.428-150.97 0-134.48-.045-149.67-.45-150.85-.63-1.845-2.172-3.52-4.118-4.473l-1.657-.812h-100.91c-85.458 0-101.13.062-102.3.403-1.753.507-3.958 2.447-4.874 4.288l-.685 1.375-.076 149.35c-.053 104.72.016 149.79.232 150.84.58 2.805 2.738 5.152 5.54 6.027 1.045.326 18.054.382 102.31.337l101.06-.054 1.488-.783zM7.14 306.31c-.426-.425-.202-1.3.308-1.203.278.054.506.345.506.647 0 .575-.472.897-.814.556zm-3.191-2.606c-.282-.281-.236-1.191.07-1.38.505-.311 1.185.195 1.185.881 0 .478-.164.692-.531.692-.292 0-.618-.087-.724-.193zm183.26-12.683c-.52-.518-.61-2.472-.156-3.32.28-.522.657-.56 5.61-.56h5.311l.181-.902c.1-.496.181-1.29.181-1.764 0-.703-.093-.825-.507-.665-3.514 1.362-7.82.419-10.66-2.334-2.332-2.262-3.896-6.893-3.44-10.19 1.057-7.642 4.725-11.353 11.277-11.41 2.288-.018 2.83.08 4.433.814 2.853 1.305 4.978 4.209 4.978 6.802 0 1.084-.51 1.451-2.013 1.446-1.661-.01-1.942-.19-2.874-1.9-1.016-1.861-2.273-2.573-4.524-2.56-4.15.022-6.647 2.835-6.655 7.498-.01 3.348 1.255 6.066 3.431 7.39 2.02 1.229 5.354.407 7.233-1.783.533-.621 1.202-1.13 1.486-1.13.632 0 2.36 1.033 2.548 1.524.076.197-.121 3.151-.437 6.566-.447 4.823-.677 6.29-1.033 6.57-.337.266-2.24.362-7.187.362-5.73 0-6.796-.067-7.183-.454zM51.339 273.92c-1.138-1.546-4.496-5.717-7.464-9.27-7.842-9.387-9.776-12.05-11.502-15.834-3.24-7.103-2.49-14.205 1.932-18.271 1.736-1.596 3.593-2.374 6.072-2.542 4.56-.31 8.54 2.708 9.815 7.437.418 1.554.426 1.562.445.472.048-2.824-1.994-10.005-3.942-13.862-1.12-2.218-1.127-2.216 6.567-2.216 5.348 0 6.654.078 6.931.412.272.326.073 1.04-.96 3.452-1.933 4.516-2.99 8.073-3.347 11.273-.176 1.572-.272 2.904-.215 2.962.057.057.268-.645.47-1.559 1.597-7.28 7.644-10.998 13.542-8.33 4.613 2.087 7.454 7.525 6.92 13.248-.502 5.398-2.66 9.262-11.726 21.006-2.637 3.416-6.016 8.031-7.508 10.255-1.955 2.913-2.89 4.063-3.339 4.111-.486.052-1.08-.555-2.691-2.744zm105.1.438c-.983-1.31-3.355-4.267-5.272-6.57-10.547-12.674-12.727-15.67-14.424-19.823-2.155-5.273-2.27-9.55-.37-13.665 1.102-2.386 3.276-4.617 5.408-5.551 2.096-.92 5.05-1.03 7.076-.267 3.142 1.183 5.715 4.395 6.29 7.853.255 1.526.26 1.532.293.364.088-3.08-1.505-9.203-3.499-13.451-.652-1.389-1.098-2.712-1-2.966.155-.404.995-.45 7.06-.381l6.884.077-.033.866c-.018.477-.63 2.297-1.361 4.045-1.828 4.373-2.712 7.621-2.91 10.688l-.167 2.6.422-1.828c.568-2.463 2.285-5.636 3.709-6.852 1.985-1.695 3.527-2.283 6-2.287 1.882 0 2.45.127 4.085.93 3.498 1.718 5.952 5.224 6.62 9.459.34 2.149.215 3.847-.486 6.627-.97 3.853-3.455 8.079-8.928 15.183-6.324 8.21-8.802 11.58-10.656 14.494-1.284 2.018-1.961 2.824-2.375 2.829-.392 0-1.158-.765-2.365-2.375zm36.132-19.69c-.648-1.177-1.982-3.413-2.964-4.969-3.755-5.947-4.65-8.946-3.386-11.36.92-1.76 1.92-2.426 3.68-2.452 1.07-.016 1.661.15 2.352.659l.923.68-.211-.68c-.28-.907-.961-2.24-1.624-3.18-.66-.938-.69-1.57-.082-1.802.252-.096 1.735-.176 3.295-.176 2.234 0 2.917.097 3.217.458.296.356.305.564.038.939-.564.79-2.085 3.765-2.085 4.075 0 .159.489-.043 1.086-.449.874-.594 1.3-.703 2.192-.562 2.432.384 3.801 2.33 3.773 5.361-.022 2.342-.528 3.516-3.536 8.205-1.261 1.967-2.775 4.436-3.364 5.486-1.415 2.525-1.801 2.498-3.304-.233zm-93.657-69.692c-.375-.375-.181-1.135.947-3.707 1.448-3.301 2.539-7.044 3.071-10.544.518-3.402.492-4.883-.039-2.22-1.274 6.388-7.126 10.058-12.714 7.973-6.255-2.335-9.014-9.978-6.393-17.718 1.61-4.754 3.843-8.032 12.71-18.656 2.851-3.416 6.114-7.471 7.25-9.012 2.48-3.36 2.972-3.536 4.174-1.487 1.249 2.127 5.388 7.837 10.23 14.11 6.416 8.314 8.292 11.264 9.854 15.49 1.042 2.818 1.391 6.436.86 8.905-1.938 9.018-11.686 12.775-17.238 6.645-1.306-1.442-2.635-4.145-3.073-6.25-.176-.845-.37-1.535-.43-1.535-.142 0 .1 2.465.494 5.035.362 2.363 1.13 4.697 2.988 9.09 1.107 2.617 1.296 3.3 1.008 3.647-.294.353-1.485.427-6.932.427-3.616 0-6.663-.087-6.769-.193zm-52.54-93.86c-.367-.268-.258-.69.753-2.93 2.089-4.627 3.569-10.086 3.495-12.888l-.032-1.202-.244 1.233c-.367 1.857-1.966 4.615-3.316 5.718-3.512 2.871-7.911 3.07-11.635.527-1.817-1.241-2.722-2.38-3.933-4.952-.799-1.696-.932-2.323-1.025-4.837-.272-7.37 2.304-12.123 14.062-25.954 2.14-2.518 5.07-6.131 6.51-8.03 1.72-2.268 2.778-3.422 3.083-3.364.255.05 1.14 1.128 1.965 2.397 2.367 3.638 4.25 6.223 8.991 12.343 6.968 8.994 9.24 12.573 10.644 16.766C78.121 73.2 75.65 80.42 69.8 83.157c-2.235 1.045-5.915 1.09-7.793.095-2.849-1.51-5.052-4.617-5.875-8.286-.197-.878-.405-1.549-.463-1.492-.057.057.04 1.383.214 2.945.358 3.204 1.165 5.977 3.04 10.442 1.308 3.113 1.577 4.408.925 4.441-3.652.19-13.137.06-13.473-.186zm104.96.218c-.708-.134-.616-.711.488-3.04 1.937-4.085 3.705-10.864 3.62-13.875-.034-1.169-.04-1.162-.293.364-.373 2.239-1.176 3.851-2.766 5.557-1.893 2.03-3.937 2.945-6.608 2.956-4.045.018-7.42-2.165-9.249-5.98-1.824-3.809-2.005-7.552-.576-11.922 1.563-4.775 4-8.43 11.994-17.99 3.375-4.036 7.072-8.585 8.217-10.109 1.145-1.524 2.29-2.81 2.544-2.86.315-.06 1.248 1.092 2.921 3.609 2.341 3.52 3.565 5.175 10.676 14.433 4.914 6.397 7.08 10.056 8.355 14.107.893 2.842.909 6.817.036 9.388-1.591 4.685-5.106 7.67-9.44 8.017-5.166.414-9.157-3.212-10.573-9.606-.184-.831-.21-.467-.09 1.3.22 3.279.895 5.795 2.827 10.532 1.731 4.244 1.906 5.05 1.107 5.097-1.41.083-12.766.102-13.19.021zM14.264 81.281c-.103-.268.023-.825.28-1.237.85-1.356 1.578-2.76 1.792-3.451l.212-.68-.868.64c-1.316.97-3.161 1.072-4.376.24-1.758-1.203-2.202-2.07-2.168-4.236.045-2.83.769-4.362 5.763-12.198.36-.564.997-1.701 1.416-2.527.42-.827.955-1.503 1.189-1.503.234 0 .734.488 1.111 1.084 4.076 6.435 6.544 10.552 6.97 11.627.716 1.806.672 4.29-.105 5.891-1.097 2.261-3.15 3.021-5.235 1.938l-1.193-.62.191.656c.105.361.577 1.293 1.05 2.071.472.778.82 1.688.771 2.022-.082.57-.285.613-3.35.69-2.842.07-3.287.018-3.45-.407zm-.9-28.658a9.142 9.142 0 0 1-4.456-3.399c-.885-1.286-1.493-3.173-1.348-4.19.09-.642.24-.7 2.027-.778l1.93-.085.821 1.521c1.12 2.073 2.323 2.838 4.465 2.838 1.995 0 2.866-.296 4.372-1.486 1.573-1.243 2.328-2.857 2.49-5.326.242-3.708-1.325-7.108-3.791-8.226-2.288-1.036-4.258-.534-6.558 1.67-1.708 1.638-2.01 1.689-3.559.6-.53-.373-.796-.818-.797-1.335 0-1.904.929-11.529 1.171-12.118l.27-.655 7.315.077 7.315.077v3.756l-5.574.079-5.574.079v3.465l.797-.222c.438-.123 1.969-.219 3.402-.214 2.716.01 3.854.383 6.026 1.98 3.397 2.497 5.01 8.332 3.716 13.44-1.025 4.04-2.74 6.4-5.714 7.86-2.44 1.199-6.314 1.461-8.746.593z" fill="#e7e7e7"/><path d="M0 157.44V0h217.76v314.88H0V157.44zm159.02 156.93c-27.604-.041-72.689-.041-100.19 0-27.499.041-4.913.074 50.19.074 55.104 0 77.603-.033 49.998-.074zm52.546-.916c1.772-.803 3.421-2.43 4.197-4.142l.686-1.514V7.358l-.814-1.654c-.448-.909-1.346-2.107-1.995-2.662-2.427-2.072 7.172-1.906-105.35-1.824L6.81 1.292l-1.159.625C4.278 2.66 2.597 4.361 1.847 5.77c-.523.982-.541 5.415-.618 151.37-.07 134.75-.032 150.48.368 151.54.84 2.225 2.83 4.233 4.923 4.97.605.213 31.73.311 102.36.322 98.705.016 101.52 0 102.69-.526zM4.196 303.32c-.312-.504.15-.933.602-.56.223.185.334.451.246.592-.21.341-.626.325-.848-.033zm182.98-12.531c-.084-.22-.113-1.032-.063-1.806l.09-1.408 5.502-.144 5.501-.144.085-1.926.085-1.925-1.361.409c-2.748.824-5.771.329-8.338-1.367-4.835-3.196-6.2-10.795-3.054-17.001 1.036-2.044 2.587-3.52 4.765-4.535 1.54-.717 2.068-.81 4.633-.81 2.347 0 3.15.117 4.234.618 2.888 1.332 5.03 4.302 4.831 6.696l-.089 1.064-1.63.086-1.63.086-.91-1.611c-1.21-2.137-2.249-2.748-4.661-2.742-2.299.01-3.845.65-5.162 2.146-2.243 2.549-2.563 6.757-.78 10.25 1.119 2.193 3.03 3.488 5.136 3.482 1.395 0 3.69-1.19 4.944-2.557l1.097-1.195 1.16.59c.64.325 1.224.753 1.3.95.167.436-.943 12.52-1.187 12.913-.103.167-3.02.28-7.258.28-5.751 0-7.115-.076-7.24-.399zm-134.27-15.286c-.535-.669-1.696-2.15-2.579-3.293-.883-1.143-4-4.955-6.926-8.47-8.08-9.707-10.648-13.585-12.075-18.23-2.501-8.142 1.111-15.863 8.084-17.28 4.978-1.012 10.233 3.157 10.883 8.634.24 2.017.672 2.14.672.19 0-3.594-1.824-10.492-3.817-14.433-.47-.93-.785-1.872-.7-2.094.225-.584 13.436-.599 13.661-.015.082.213-.328 1.472-.912 2.796-2.32 5.267-3.599 9.995-3.599 13.317 0 .987.068 1.726.152 1.642.083-.083.413-1.091.732-2.24 1.114-4.011 2.9-6.485 5.656-7.839 2.12-1.04 5.444-.999 7.68.097 2.116 1.037 4.394 3.462 5.534 5.894.778 1.657.922 2.337 1.03 4.84.092 2.128 0 3.421-.358 4.792-1.077 4.178-4.167 9.288-10.525 17.405-4.588 5.858-8.213 10.834-9.641 13.232-.642 1.077-1.35 2.029-1.573 2.114-.246.094-.791-.325-1.38-1.06zm105.43.859c-.222-.188-1.375-1.629-2.562-3.203-1.187-1.573-4.671-5.863-7.744-9.532-8.302-9.917-10.92-14.013-12.238-19.154-1.72-6.71.838-13.16 6.163-15.545 2.635-1.18 5.007-1.148 7.551.101 3.134 1.54 5.004 4.205 5.564 7.933.348 2.313.821 1.618.595-.874-.385-4.23-1.725-9.15-3.524-12.93-1.561-3.282-2.033-3.035 5.787-3.035 5.36 0 6.805.08 6.922.383.08.21-.296 1.386-.838 2.61-1.418 3.209-2.935 7.682-3.265 9.627-.49 2.898-.679 5.579-.39 5.579.148 0 .486-.877.75-1.95.957-3.886 2.758-6.546 5.435-8.025 1.38-.762 1.826-.858 4.013-.858 2.254 0 2.616.083 4.29.989 5.193 2.81 7.524 8.927 5.866 15.396-1.079 4.206-4.06 9.127-10.661 17.594-4.68 6.002-8.07 10.658-9.484 13.029-1.25 2.095-1.606 2.392-2.23 1.865zm34.009-22.513a235.51 235.51 0 0 0-3.48-5.85c-2.108-3.416-2.963-5.574-2.962-7.471 0-3.257 3.124-5.46 5.79-4.084.463.239.968.66 1.123.937.155.277.372.414.481.304.295-.294-.63-2.793-1.496-4.039-1.21-1.741-.905-1.968 2.643-1.968 3.532 0 3.789.187 2.639 1.924-.781 1.18-1.722 3.564-1.496 3.79.075.074.542-.206 1.04-.623 1.108-.93 2.574-.997 3.906-.176 1.394.86 2.021 2.348 2.007 4.762-.014 2.363-.26 2.91-3.966 8.824-1.34 2.138-2.743 4.44-3.119 5.115-.375.675-.887 1.227-1.136 1.227-.27 0-1.072-1.087-1.974-2.672zm-93.484-69.371c-.085-.222.294-1.294.843-2.383 1.945-3.862 3.673-10.457 3.673-14.018 0-2.12-.436-1.99-.663.197-.477 4.611-4.726 8.576-9.193 8.576-5.988 0-10.528-5.273-10.496-12.19.015-3.225.634-5.579 2.392-9.1 1.841-3.691 3.888-6.502 10.469-14.374 2.925-3.5 6.427-7.798 7.78-9.551 1.354-1.754 2.612-3.237 2.795-3.296.183-.059 1.436 1.556 2.784 3.59 1.349 2.034 4.708 6.623 7.466 10.197 7.926 10.274 10.181 13.867 11.574 18.441.53 1.741.618 2.61.527 5.186-.098 2.747-.214 3.312-1.031 5.046-3.128 6.631-10.401 8.886-15.092 4.678-1.864-1.672-3.084-3.799-3.815-6.65-.316-1.234-.64-2.31-.72-2.388-.315-.315-.117 3.492.294 5.658.515 2.708 1.344 5.216 3.017 9.13.67 1.565 1.147 3.028 1.062 3.25-.23.596-13.437.596-13.666 0zM46.46 90.909c-.08-.207.302-1.357.85-2.554 2.025-4.435 3.657-10.747 3.657-14.15 0-1.94-.464-1.77-.693.254-.377 3.324-2.576 6.43-5.605 7.918-2.045 1.005-5.398.962-7.665-.099-4.573-2.138-7.217-7.82-6.33-13.605.446-2.906 1.385-5.452 3.105-8.418 1.92-3.312 3.669-5.636 9.368-12.446 4.902-5.857 8.429-10.248 9.805-12.205.363-.517.846-.94 1.073-.94.227 0 1.145 1.138 2.04 2.529 2.045 3.174 3.505 5.17 8.901 12.168 7.288 9.45 9.977 13.878 11.078 18.236.635 2.514.431 6.739-.433 8.955-1.222 3.135-3.85 5.806-6.67 6.78-2.071.714-5.126.583-6.895-.297-2.666-1.325-4.622-4.055-5.578-7.784-.319-1.245-.663-2.339-.764-2.431-.102-.092-.108 1.132-.014 2.72.202 3.426 1.08 6.654 3.13 11.52.795 1.888 1.377 3.61 1.293 3.829-.218.567-13.435.586-13.654.019zm104.8-.067c-.094-.245.286-1.447.845-2.672 1.91-4.187 3.687-10.987 3.687-14.106 0-1.556-.51-1.38-.722.25-.432 3.315-2.58 6.422-5.503 7.96-2.084 1.097-5.385 1.104-7.708.017-2.178-1.019-3.744-2.485-4.836-4.529-2.753-5.153-2.298-10.859 1.381-17.313 1.754-3.076 4.42-6.607 10.258-13.582 3.093-3.696 6.557-7.953 7.698-9.46 1.14-1.508 2.237-2.741 2.437-2.741.2 0 1.45 1.644 2.78 3.653 1.33 2.01 4.64 6.527 7.356 10.038 8.186 10.586 10.575 14.465 11.765 19.105.317 1.237.576 2.926.576 3.753 0 5.22-2.637 9.772-6.799 11.736-2.228 1.052-5.342 1.146-7.39.224-2.823-1.272-5.24-4.7-6.073-8.612-.529-2.487-.937-2.217-.715.473.29 3.514 1.167 6.829 3.004 11.35 1.206 2.97 1.611 4.281 1.402 4.538-.22.27-1.942.36-6.783.36-5.572 0-6.513-.062-6.66-.443zM14.49 80.954c0-.281.345-1.017.766-1.636.422-.62.943-1.71 1.16-2.426.405-1.344.272-2.015-.225-1.13-.427.762-1.823 1.37-3.146 1.37-.977 0-1.396-.198-2.403-1.136l-1.22-1.136.018-2.258c.02-2.72.505-3.905 3.664-8.94 1.183-1.887 2.587-4.248 3.119-5.248.604-1.134 1.126-1.786 1.39-1.733.232.046 1.3 1.514 2.371 3.262a506.055 506.055 0 0 0 3.533 5.668c1.921 3.02 2.699 5.275 2.448 7.1-.356 2.59-1.985 4.42-3.933 4.42-1 0-2.619-.718-2.619-1.163a.286.286 0 0 0-.29-.281c-.53 0-.3.815.862 3.056.634 1.22 1.082 2.333.997 2.47-.085.139-1.581.251-3.324.251-2.836 0-3.168-.053-3.168-.51zm.654-28.116c-3.118-.525-5.54-2.312-6.757-4.988-.682-1.498-.731-3.233-.1-3.475.8-.306 2.693-.19 3.016.185.171.199.69.97 1.152 1.715 1.213 1.955 2.007 2.378 4.466 2.384 2.358.01 3.934-.651 5.216-2.17 1.283-1.522 1.705-2.817 1.733-5.323.03-2.717-.563-4.704-1.88-6.298-1.157-1.4-2.36-2.001-4.005-2.001-1.834 0-3.395.72-5.024 2.316l-1.384 1.356-1.078-.575c-1.379-.737-1.423-1.197-.791-8.23.375-4.185.581-5.423.949-5.706.342-.264 2.199-.361 6.905-.361 3.54 0 6.642.079 6.894.175.657.252.657 3.442 0 3.694-.252.097-2.793.175-5.647.175h-5.188v1.878c0 1.033.059 1.878.13 1.878.073 0 .887-.2 1.81-.444 3.893-1.028 8.104.672 10.49 4.235 2.833 4.234 2.728 10.659-.252 15.347-2.024 3.183-6.447 4.94-10.655 4.232z" fill="#d6d6d6"/><path d="M0 157.44V0h217.76v314.88H0V157.44zM209.21 314.3c.099-.159.456-.289.794-.289 1.98 0 5.074-2.624 5.998-5.087l.592-1.579V7.825l-.588-1.568c-.724-1.93-2.734-3.902-4.777-4.688-1.41-.542-3.586-.554-102.64-.554H7.389l-1.645.806C3.88 2.734 2.52 4.134 1.628 6.056l-.61 1.314-.074 149.2c-.05 100.33.022 149.72.22 150.79.573 3.09 2.588 5.336 5.843 6.51l1.83.66 100.1.028c66.45.019 100.16-.07 100.28-.261zM4.35 303.034a.29.29 0 0 1 .58 0 .29.29 0 0 1-.58 0zm183.01-12.403c-.407-.758-.379-2.424.048-2.85.245-.244 1.903-.347 5.609-.347h5.26l.18-1.083c.206-1.244.244-2.96.064-2.96-.067 0-.933.207-1.926.46-4.49 1.148-9.405-1.326-11.429-5.755-.877-1.92-1.374-5.06-1.123-7.109.257-2.106 1.428-5.337 2.497-6.89 3.035-4.412 10.331-5.36 14.84-1.93 1.19.905 2.764 3.87 2.764 5.206 0 1.059-.359 1.284-2.042 1.284-1.044 0-1.198-.112-2.114-1.54-1.32-2.06-2.226-2.718-4.04-2.935-3.056-.365-5.7 1.067-7.056 3.823-.709 1.44-.817 1.994-.806 4.119.018 3.5 1.218 6.012 3.556 7.437 2.19 1.335 5.99.44 7.715-1.818.93-1.216 1.556-1.253 2.728-.16.708.66.868 1.01.758 1.66-.077.454-.347 3.165-.602 6.025-.255 2.86-.598 5.362-.764 5.56-.224.27-2.005.362-7.059.362-6.386 0-6.775-.031-7.059-.559zM51.67 273.785c-1.099-1.47-4.39-5.532-7.313-9.027-7.975-9.536-10.474-13.047-12.163-17.09-2.264-5.421-2.004-10.93.707-15.006 1.084-1.63 2.13-2.534 4.166-3.605 1.9-1 5.62-.995 7.666.01 2.933 1.44 4.84 4.124 5.449 7.67.304 1.77.737 2.491.823 1.372.272-3.534-1.278-10.156-3.499-14.952-.59-1.275-1.02-2.478-.954-2.674.09-.269 1.752-.357 6.754-.357 6.295 0 6.636.028 6.636.542 0 .298-.714 2.317-1.587 4.488-.873 2.17-1.782 4.694-2.019 5.607-.636 2.45-1.13 7.287-.778 7.637.191.191.398-.136.615-.976.58-2.241.938-3.259 1.647-4.67 3.041-6.053 10.081-7.076 14.941-2.17 3.205 3.236 4.401 8 3.24 12.914-1.048 4.435-3.653 8.698-11.576 18.949-2.825 3.654-6.236 8.301-7.58 10.327-1.344 2.025-2.609 3.683-2.81 3.683-.203 0-1.267-1.203-2.365-2.672zm105.07.443c-1.866-2.475-5.478-6.912-10.513-12.918-4.506-5.374-6.668-8.43-8.395-11.863-2.322-4.615-3.039-8.531-2.207-12.063.618-2.621 1.684-4.634 3.315-6.255 1.819-1.809 3.739-2.676 6.303-2.847 1.8-.12 2.281-.037 3.849.665 2.253 1.008 4.38 3.244 5.222 5.49.33.88.602 1.887.604 2.238.01.947.317 1.94.609 1.94.398 0 .301-2.839-.192-5.668-.528-3.028-2.052-7.72-3.32-10.228-.498-.982-.835-1.968-.75-2.19.239-.618 13.149-.593 13.388.026.09.235-.423 1.828-1.141 3.538-2.266 5.396-3.386 9.823-3.386 13.386 0 1.301.483 1.522.744.34.843-3.815 1.66-5.618 3.391-7.493 3.15-3.409 7.77-3.798 11.791-.992 3.239 2.26 5.042 6.049 5.035 10.58-.01 5.835-2.248 10.032-12.252 22.964-2.764 3.574-6.078 8.091-7.365 10.038-1.286 1.948-2.498 3.54-2.694 3.54-.195 0-1.111-1.002-2.036-2.228zm36.745-18.606c-.271-.497-1.326-2.284-2.344-3.972-3.705-6.143-4.329-7.325-4.818-9.129-.828-3.05-.02-5.195 2.288-6.074 1.59-.605 2.432-.437 3.796.757.907.795 1.02.83 1.02.321 0-.924-.825-2.986-1.6-3.999-1.263-1.652-.972-1.844 2.79-1.844 2.83 0 3.359.321 2.557 1.555-.852 1.31-1.703 3.243-1.712 3.887l-.01.675.891-.747c1.675-1.406 3.21-1.336 4.766.216.65.649 1.041 1.415 1.292 2.533.555 2.473-.057 4.104-3.832 10.224a3376.06 3376.06 0 0 0-3.603 5.85c-.536.88-.897.818-1.482-.253zm-94.357-71.186c-.095-.246.238-1.335.74-2.42 2.039-4.414 3.398-9.58 3.57-13.568.103-2.419-.493-2.736-.757-.403-.704 6.2-6.855 10.261-12.397 8.183-5.62-2.108-8.43-8.91-6.613-16 1.256-4.901 4.095-9.208 13.412-20.35 2.83-3.383 6.018-7.315 7.086-8.738 1.069-1.423 2.141-2.582 2.383-2.576.242.01 1.51 1.664 2.817 3.684 1.307 2.019 4.488 6.401 7.07 9.738 7.77 10.044 9.722 13.015 11.326 17.24.826 2.174.915 2.72.929 5.725.013 2.788-.091 3.603-.65 5.067-1.874 4.927-6.821 8.188-11.195 7.381-2.05-.377-3.123-.945-4.604-2.435-1.556-1.566-2.681-3.688-3.313-6.253-.279-1.132-.634-2.019-.79-1.97-.377.118-.194 3.324.342 5.98.445 2.207 1.717 5.911 3.227 9.4.477 1.103.801 2.176.721 2.384-.114.297-1.55.378-6.639.378-5.595 0-6.517-.062-6.665-.447zm-52.314-93.51c-.456-.334-.417-.52.51-2.45 2.036-4.237 3.638-10.39 3.638-13.976 0-2.11-.457-2.227-.723-.184-.435 3.343-2.658 6.495-5.59 7.926-1.289.63-2.03.79-3.66.796-3.936.012-7.326-2.35-9.217-6.425-.783-1.686-.915-2.328-1.018-4.97-.147-3.783.31-5.734 2.269-9.677 1.844-3.712 3.856-6.479 10.487-14.419 2.966-3.552 6.446-7.833 7.734-9.513 1.288-1.68 2.465-3.13 2.615-3.223.346-.214.592.098 3.53 4.479 1.333 1.986 4.587 6.405 7.233 9.821 7.744 9.997 10.084 13.826 11.263 18.426.946 3.688.546 7.514-1.1 10.532-1.1 2.017-3.749 4.366-5.788 5.134-2.138.805-5.105.695-6.971-.26-2.596-1.326-4.59-4.165-5.535-7.876-.294-1.155-.681-2.148-.86-2.208-.402-.133-.403.138-.014 3.617.356 3.184 1.221 6.147 3.048 10.434 1.382 3.245 1.516 3.934.815 4.202-.252.096-3.093.175-6.315.175-4.229 0-5.994-.1-6.35-.36zm104.64.085c-.367-.231-.352-.416.11-1.368 1.316-2.708 2.296-5.386 3.09-8.438.938-3.608 1.447-8.406.892-8.406-.33 0-.44.345-.779 2.435-.451 2.779-2.768 5.797-5.389 7.02-3.336 1.558-7.059.932-9.907-1.665-2.853-2.601-4.087-5.533-4.071-9.667.013-3.216.612-5.542 2.307-8.956 1.721-3.464 4.141-6.78 10.496-14.38 2.916-3.488 6.217-7.529 7.335-8.98 3.13-4.063 3.139-4.072 3.574-3.611.206.217 1.487 2.043 2.848 4.057 1.36 2.014 4.811 6.693 7.668 10.4 7.253 9.406 9.443 12.884 10.702 16.993 1.275 4.165 1.07 7.623-.664 11.17-1.77 3.62-4.879 5.834-8.564 6.097-5.127.366-8.79-3.256-10.236-10.118-.092-.437-.314-.794-.493-.794-.466 0-.074 4.634.621 7.345.305 1.19 1.095 3.5 1.757 5.136 2.264 5.594 2.21 5.416 1.723 5.723-.56.354-12.46.36-13.02.01zm-136.85-9.94c-.083-.218.227-.965.69-1.661.911-1.37 1.507-2.88 1.507-3.822 0-.524-.112-.483-.989.365-1.934 1.87-4.789 1.332-6.032-1.137-.664-1.318-.641-2.808.074-4.836.58-1.647 1.153-2.691 4.657-8.481 1.02-1.687 2.077-3.473 2.347-3.969.63-1.156 1.043-.979 2.096.901.466.832 1.849 3.073 3.072 4.98 1.223 1.906 2.507 4.023 2.853 4.703 1.462 2.872 1.298 6.077-.397 7.769-1.553 1.549-3.09 1.617-4.763.213l-.891-.748v.727c0 .4.46 1.607 1.022 2.683.562 1.076.957 2.125.878 2.332-.212.551-5.912.533-6.124-.019zm-1.16-28.713c-2.98-1.065-5.301-3.848-5.42-6.495l-.055-1.23h1.713c1.657 0 1.73.033 2.272 1.012 1.272 2.3 2.69 3.177 5.137 3.177 3.832 0 6.607-2.861 6.885-7.1.224-3.43-1.1-6.69-3.343-8.222-.824-.563-1.403-.71-2.797-.71-2.039 0-3.75.838-5.294 2.587-.902 1.022-.951 1.04-1.758.623-1.647-.85-1.639-.795-1.099-7.188.272-3.214.56-6.074.64-6.355.137-.473.672-.504 7.293-.433l7.146.077v3.178l-5.502.144-5.501.145-.085 2.086-.085 2.086 1.207-.425c.664-.234 2.033-.425 3.042-.425 6.99 0 11.666 7.133 9.813 14.97-.915 3.876-2.895 6.598-5.846 8.038-2.107 1.029-6.15 1.25-8.364.46z" fill="#c7c7c7"/><path d="M0 157.44V0h217.76v314.88H0V157.44zm210.49 156.58c3.022-1.102 4.79-2.723 5.663-5.192.392-1.107.44-17.803.44-151.38V7.318l-.894-1.786c-.602-1.202-1.328-2.116-2.222-2.797C210.81.704 219.905.86 108.147.941l-101.05.074-1.303.68c-1.776.93-3.089 2.22-4.007 3.942l-.77 1.444-.074 149.92c-.066 133.67-.026 150.08.368 151.44.658 2.259 2.895 4.529 5.352 5.43l1.882.692 100.19.015c99.005.015 100.21.01 101.75-.554zm-23.142-24.707c0-.874.033-1.614.072-1.645.04-.03 2.548-.128 5.574-.217l5.502-.16.085-2.094c.047-1.152.03-2.095-.037-2.095s-.62.207-1.227.46c-1.61.671-5.345.465-7.096-.392-2.232-1.093-3.636-2.517-4.804-4.876-.948-1.913-1.094-2.493-1.204-4.79-.38-7.933 3.878-13.246 10.663-13.305 3.1-.027 4.965.664 6.838 2.532 1.103 1.1 1.633 1.92 2.006 3.102.699 2.21.516 2.536-1.423 2.536h-1.574l-.91-1.61c-.698-1.231-1.196-1.737-2.128-2.16-2.598-1.176-6.106-.329-7.98 1.927-2.83 3.409-2.118 10.09 1.358 12.734 1.1.838 1.466.953 3.02.953 2.202 0 3.884-.76 5.281-2.39l1.016-1.183 1.02.486c.563.268 1.104.7 1.205.96.18.468-.716 11.736-.99 12.448-.109.284-1.754.368-7.204.368h-7.064v-1.589zm-134.41-14.069c-.542-.683-1.754-2.216-2.692-3.408-.938-1.192-4.03-4.962-6.87-8.378-8.306-9.99-10.875-14.002-12.104-18.895-2.061-8.207 2.126-15.73 9.052-16.265 4.645-.359 8.944 3.346 9.772 8.422.306 1.876.392 2.046.886 1.742.713-.44-.507-7.785-1.964-11.829a52.999 52.999 0 0 0-1.59-3.845c-.471-1-.784-2.007-.695-2.24.244-.634 12.86-.627 13.104.01.091.237-.423 1.829-1.141 3.54-2.272 5.409-3.385 9.821-3.385 13.41 0 1.424.596 1.383.968-.068 1.282-4.998 2.878-7.485 5.71-8.897 7.426-3.701 15.606 4.017 14.206 13.405-.788 5.283-3.241 9.46-12.631 21.513-2.167 2.78-5.117 6.81-6.555 8.955-1.44 2.145-2.722 3.939-2.85 3.986-.13.047-.679-.472-1.221-1.155zm103.24-1.892c-1.298-1.708-3.95-4.99-5.892-7.294-9.556-11.33-12-14.816-13.761-19.644-.942-2.58-1.303-7.193-.738-9.431.87-3.443 3.413-6.658 6.317-7.984 2.11-.963 5.206-.891 7.374.171 2.858 1.4 4.972 4.401 5.38 7.641.299 2.358.928 2.346.928-.018 0-3.657-1.415-9.22-3.478-13.676-.79-1.706-1.005-2.446-.776-2.675.387-.386 12.306-.433 12.912-.05.33.208.133.915-1.07 3.832-2.067 5.017-2.923 8.165-3.147 11.576-.15 2.29-.112 2.867.182 2.77.204-.068.606-1.047.893-2.174 1.036-4.068 2.937-6.752 5.71-8.061 1.438-.679 1.885-.751 3.96-.642 1.879.098 2.64.285 3.863.95 2.04 1.107 3.958 3.214 5.053 5.55.77 1.642.918 2.335 1.03 4.832.285 6.407-1.583 10.088-11.956 23.567-2.708 3.518-6.03 8.034-7.384 10.036-1.354 2.002-2.592 3.682-2.751 3.734-.16.052-1.351-1.304-2.649-3.011zm36.871-18.672c-.448-.856-1.71-2.987-2.804-4.737-3.523-5.632-3.891-6.501-3.901-9.214-.01-2.228.04-2.414.843-3.251 1.555-1.621 3.56-1.728 5.122-.272.49.457.943.831 1.006.831.627 0-.802-4.26-1.593-4.748-.176-.108-.32-.449-.32-.757 0-.52.224-.561 3.04-.561 1.865 0 3.041.113 3.041.293 0 .162-.405 1.01-.901 1.886-1.449 2.561-1.696 4.75-.368 3.263 1.745-1.954 4.388-1.482 5.664 1.013.488.955.572 1.54.463 3.206-.158 2.407-.3 2.704-4.399 9.225-1.686 2.682-3.065 4.989-3.065 5.128 0 .138-.228.251-.507.25-.318 0-.809-.577-1.321-1.555zM99.35 184.619c-.332-.21-.192-.746.773-2.957 2.478-5.679 4.22-13.752 3.284-15.225-.343-.54-.507-.182-.898 1.967-.445 2.452-1.39 4.24-3.038 5.757-1.945 1.788-3.625 2.473-6.092 2.482-1.722.01-2.328-.137-3.966-.941-5.582-2.742-7.706-9.701-5.186-16.993 1.583-4.583 3.913-8.002 12.16-17.847 2.649-3.163 5.924-7.184 7.278-8.936 1.353-1.753 2.61-3.234 2.79-3.292.18-.06 1.339 1.427 2.573 3.3 1.234 1.875 4.684 6.593 7.668 10.486 8.319 10.855 10.416 14.276 11.584 18.895.687 2.722.722 4.577.13 7.078-.837 3.546-3.074 6.523-6.032 8.03-2.149 1.095-5.298 1.256-7.35.375-2.822-1.211-5.309-4.71-6.147-8.65-.25-1.179-.511-1.752-.797-1.752-.355 0-.393.392-.228 2.383.294 3.568 1.15 6.848 2.94 11.277.885 2.19 1.537 4.173 1.447 4.406-.135.352-1.18.422-6.324.418-3.39 0-6.345-.12-6.569-.261zM46.621 90.607c0-.216.442-1.354.983-2.528 1.464-3.183 2.683-7.265 3.195-10.704.526-3.535.543-3.989.177-4.567-.398-.628-.578-.284-.902 1.72-.527 3.265-2.292 5.927-4.851 7.317-4.989 2.708-10.567.535-13.286-5.177-1.96-4.116-1.585-9.323 1.046-14.568 1.788-3.563 4.218-6.889 10.75-14.71 3.32-3.975 6.914-8.4 7.986-9.83 1.071-1.432 2.107-2.603 2.3-2.603.194 0 1.465 1.665 2.823 3.7 1.36 2.035 4.53 6.357 7.045 9.605 5.773 7.453 7.93 10.494 9.544 13.447 2.423 4.434 3.29 8.153 2.738 11.74-.656 4.26-2.924 7.567-6.34 9.245-1.651.81-2.21.938-4.09.932-1.784-.01-2.443-.146-3.644-.772-2.692-1.404-4.628-4.206-5.582-8.075-.272-1.106-.622-2-.777-1.986-.481.043-.19 4.917.44 7.373.327 1.27 1.307 4.073 2.18 6.227.872 2.155 1.586 4.072 1.586 4.262 0 .256-1.697.344-6.66.344-5.42 0-6.66-.073-6.66-.392zm104.7.147c-.084-.135.291-1.168.833-2.297 2.064-4.296 3.738-10.918 3.57-14.126-.109-2.101-.599-2.068-.874.058-.28 2.164-1.081 3.874-2.572 5.488-2.354 2.548-5.04 3.54-8.078 2.986-6.99-1.275-10.576-9.361-7.81-17.608 1.52-4.535 3.962-8.133 12.361-18.215 3.22-3.865 6.714-8.165 7.765-9.555 1.05-1.39 2.069-2.528 2.263-2.528.193 0 1.405 1.594 2.69 3.541 1.287 1.947 4.6 6.465 7.361 10.038 7.93 10.261 10.591 14.561 11.704 18.908.629 2.458.568 6.04-.142 8.33-1.396 4.51-5.692 8.003-9.842 8.003-4.262 0-8.197-3.765-9.291-8.891-.194-.91-.528-1.843-.743-2.076-.33-.358-.39-.114-.386 1.589.01 3.107.94 6.926 2.864 11.714.967 2.406 1.687 4.49 1.6 4.63-.203.327-13.07.338-13.272.01zm-136.68-9.831c-.087-.14.103-.586.422-.991.843-1.068 1.715-3.108 1.722-4.026.01-.978-.184-.998-.897-.093-1.425 1.807-4.505 1.463-5.813-.649-1.312-2.116-.68-5.175 1.932-9.368a244.447 244.447 0 0 0 3.262-5.48c1.077-1.861 2.117-3.389 2.312-3.394.196-.01.532.283.749.64.216.358 1.644 2.665 3.174 5.128 1.53 2.462 3.113 5.192 3.52 6.066 1.452 3.123.7 6.658-1.678 7.889-.95.492-1.246.522-2.233.227-.631-.189-1.35-.663-1.615-1.065-.266-.405-.586-.616-.725-.477-.349.348.435 2.79 1.329 4.136.409.617.744 1.254.744 1.417 0 .367-5.979.405-6.205.04zm-.243-28.351c-2.92-.736-5.274-2.895-6.136-5.627-.64-2.027-.365-2.455 1.575-2.455 1.363 0 1.378.01 2.353 1.661 1.322 2.235 2.31 2.73 5.23 2.614 1.926-.076 2.386-.204 3.468-.963.686-.48 1.634-1.499 2.107-2.262.742-1.198.876-1.734.982-3.931.09-1.873-.01-2.928-.363-4-1.746-5.243-6.44-6.538-10.45-2.883-.837.763-1.698 1.386-1.915 1.385-.216 0-.76-.294-1.21-.653l-.816-.651.503-5.775c.276-3.176.608-6.067.736-6.424.234-.65.24-.65 7.16-.65 7.578 0 7.277-.072 7.277 1.733 0 1.778.15 1.733-5.788 1.733h-5.437l-.205 1.91c-.113 1.05-.093 2.02.043 2.156.137.137.827.045 1.547-.206.918-.321 1.9-.41 3.357-.304 7.343.532 11.516 8.576 8.651 16.677-1.56 4.412-4.803 6.869-9.35 7.084-1.226.058-2.719-.018-3.319-.17z" fill="#b6b6b6"/><path d="M0 157.44V0h217.76v314.88H0V157.44zm210.32 156.72c2.776-.84 4.9-2.733 5.864-5.23.535-1.382.548-4.98.548-151.49V7.37l-.61-1.314c-.855-1.844-2.274-3.357-3.997-4.264l-1.474-.776-101.4-.074L7.851.868l-1.604.599c-2.11.787-3.99 2.662-4.778 4.765l-.6 1.6.074 150.27.073 150.27.9 1.581c1.085 1.91 2.351 2.98 4.629 3.914l1.71.702h100.33c87.557 0 100.51-.051 101.74-.422zm-22.862-23.659c-.085-.222-.114-.904-.063-1.517l.092-1.113 5.502-.16c3.026-.089 5.534-.187 5.574-.218.108-.084.088-4.389-.021-4.389-.051 0-.715.212-1.475.47-1.979.673-5.071.43-7-.55-1.983-1.008-4.26-3.543-5.053-5.626-1.863-4.894-.42-11.694 3.146-14.826 3.259-2.862 9.475-3.065 12.947-.423 1.64 1.248 3.287 4.638 2.831 5.824-.1.262-.63.398-1.548.398-1.377 0-1.41-.022-2.503-1.66-1.364-2.046-2.511-2.674-4.872-2.666-4.316.015-7.085 3.082-7.091 7.854-.01 7.768 6.423 11.182 11.399 6.052l1.123-1.158.963.459c.53.252 1.042.66 1.137.907.223.58-.686 11.24-1.031 12.094-.262.649-.28.65-7.082.65-5.567 0-6.849-.074-6.975-.402zM51.398 273.21c-1.24-1.628-4.68-5.863-7.644-9.41-6.816-8.154-8.649-10.685-10.598-14.639-3.013-6.107-3.215-10.756-.676-15.509 3.726-6.975 13.044-7.043 16.46-.12.495 1.004 1 2.558 1.122 3.455.243 1.789.396 2.084.917 1.763.508-.314.121-4.602-.732-8.117-.736-3.031-1.347-4.758-2.833-7.999-.756-1.648-.836-2.015-.49-2.234.536-.338 12.159-.344 12.693-.01.33.209.133.916-1.07 3.833-2.058 4.996-2.923 8.168-3.144 11.537-.162 2.46-.126 2.854.259 2.854.316 0 .58-.589.901-2.011.824-3.638 2.72-6.49 5.333-8.017 1.845-1.079 4.81-1.238 7.087-.38 2.41.907 4.588 3.006 5.929 5.714.995 2.008 1.092 2.423 1.192 5.118.238 6.422-1.776 10.386-11.965 23.552-2.644 3.416-5.92 7.868-7.28 9.894-1.359 2.026-2.637 3.683-2.84 3.683-.202 0-1.382-1.332-2.621-2.96zm104.65-.144c-1.307-1.708-3.954-4.972-5.881-7.253-9.464-11.198-12.123-15.055-13.777-19.984-.895-2.666-1.104-6.855-.455-9.1 1.066-3.683 3.074-6.147 6.188-7.593 5.443-2.526 11.903 1.416 12.669 7.731.238 1.962.345 2.165.896 1.709 1.167-.967-.914-10.518-3.418-15.682-.953-1.966-1.008-2.347-.372-2.59.251-.096 3.028-.176 6.17-.176 4.126 0 5.843.1 6.182.362.425.326.334.683-.939 3.683-1.876 4.421-2.84 7.848-3.154 11.225-.267 2.864-.118 3.89.46 3.164.166-.208.465-1.094.664-1.968.889-3.909 3.107-6.976 6-8.297 1.37-.626 1.893-.71 3.68-.596 5.798.37 10.014 5.514 10.014 12.216 0 5.16-2.687 10.518-9.996 19.932-5.641 7.266-7.71 10.063-9.778 13.216-1.12 1.708-2.203 3.105-2.406 3.105-.204 0-1.44-1.397-2.747-3.105zm37.578-17.477a207.51 207.51 0 0 1-1.553-2.672 250.126 250.126 0 0 0-3.021-5.056c-2.061-3.358-2.865-5.456-2.863-7.472 0-2.383 1.622-4.083 3.893-4.083.769 0 1.311.257 2.161 1.023.684.616 1.21.902 1.324.718.294-.475-.615-3.222-1.43-4.325-1.217-1.642-1.086-1.75 2.141-1.75 1.583 0 2.954.123 3.046.271.092.149-.208.862-.668 1.584-.87 1.37-1.7 3.813-1.397 4.115.096.096.64-.233 1.208-.73 2.637-2.31 5.94-.044 5.933 4.068 0 1.94-.658 3.349-4.246 9.146a1676.676 1676.676 0 0 0-3.188 5.163c-.217.357-.519.65-.67.65-.153 0-.454-.293-.67-.65zm-94.444-71.27c-.094-.152.227-1.065.715-2.03 2.49-4.92 4.71-15.274 3.444-16.055-.44-.272-.826.416-.832 1.484-.019 3.802-3.142 7.581-7.168 8.673-1.69.46-1.934.46-3.764.01-3.676-.9-6.643-3.809-7.814-7.657-.729-2.397-.652-6.277.18-8.978 1.53-4.974 3.778-8.383 12.218-18.524 3.361-4.039 7.015-8.54 8.12-10.001 1.114-1.475 2.166-2.598 2.361-2.523.193.075.906 1.032 1.583 2.126 1.72 2.777 4.174 6.146 9.488 13.022 7.833 10.135 10.051 14.077 10.864 19.306 1.058 6.804-3.53 13.58-9.562 14.126-2.613.237-4.684-.508-6.527-2.346-1.814-1.81-2.59-3.239-3.333-6.136-.636-2.481-.783-2.788-1.208-2.525-.459.283-.051 5.065.664 7.791.33 1.256 1.25 3.843 2.048 5.75.797 1.906 1.52 3.758 1.604 4.116l.154.65h-6.531c-3.862 0-6.602-.114-6.704-.278zm-52.42-93.61c-.1-.161.231-1.164.735-2.228 2.75-5.807 4.762-15.824 3.178-15.824-.31 0-.492.47-.64 1.654-.322 2.57-1.244 4.36-3.15 6.121-2.124 1.962-3.893 2.61-6.602 2.415-2.43-.175-4.379-1.137-6.166-3.042-3.86-4.117-4.438-9.752-1.68-16.362 1.419-3.4 4.915-8.347 11.148-15.773 3.134-3.734 6.682-8.09 7.886-9.678 1.203-1.589 2.354-2.889 2.556-2.889.202 0 1.41 1.573 2.685 3.496 1.275 1.922 4.569 6.407 7.32 9.966 6.33 8.19 8.403 11.237 10.11 14.848 1.67 3.534 2.013 4.9 2.013 8.042 0 6.008-3.286 10.657-8.424 11.916-5.258 1.289-9.411-1.935-11.182-8.68-.287-1.093-.705-2.048-.928-2.123-.339-.112-.377.343-.228 2.721.229 3.641.92 6.286 2.935 11.226.888 2.177 1.54 4.077 1.45 4.222-.229.37-12.785.343-13.016-.03zm104.68-.1c0-.217.444-1.354.986-2.528 1.781-3.86 3.048-8.618 3.49-13.112.286-2.897-.774-3.447-1.132-.588-.424 3.385-2.69 6.424-5.875 7.879-1.36.62-1.886.706-3.67.591-7.052-.451-11.29-7.907-9.175-16.142 1.287-5.012 3.855-8.99 12.406-19.219 3.336-3.99 6.955-8.443 8.04-9.894 1.086-1.45 2.116-2.63 2.289-2.62.173.01 1.449 1.733 2.835 3.828 1.386 2.095 4.683 6.605 7.327 10.021 9.608 12.417 11.997 16.9 12.01 22.544.01 3.614-1.148 6.61-3.51 9.103-3.768 3.974-9.595 4.205-13.004.516-1.427-1.545-2.764-4.263-3.211-6.532-.332-1.684-.674-2.215-1.13-1.759-.405.405.247 5.926 1.011 8.556.388 1.335 1.299 3.813 2.024 5.507.725 1.694 1.319 3.342 1.319 3.66 0 .565-.184.581-6.516.581-5.298 0-6.515-.073-6.515-.392zm-136.67-9.79c0-.2.388-.943.86-1.653.472-.71.937-1.685 1.033-2.166.097-.482.24-1.104.319-1.382.214-.76-.425-.61-1.533.361-1.448 1.268-3.19 1.228-4.65-.107-.979-.895-1.075-1.126-1.184-2.841-.156-2.435.515-4.104 3.768-9.378 1.356-2.197 2.776-4.57 3.156-5.274.38-.703.846-1.329 1.036-1.39.19-.062.566.319.836.845.27.527 1.736 2.907 3.258 5.29 3.063 4.796 4.086 6.951 4.096 8.633.025 4.12-3.287 6.497-5.885 4.222-.544-.476-1.084-.866-1.2-.866-.435 0 .218 2.229 1.156 3.944.535.978.895 1.856.8 1.95-.095.095-1.454.172-3.02.172-2.085 0-2.847-.097-2.846-.36zm.037-28.26c-2.884-.566-5.04-2.245-6.178-4.812-.306-.688-.515-1.67-.465-2.18.086-.888.152-.934 1.447-1.018 1.35-.087 1.36-.08 2.346 1.445 1.308 2.024 1.834 2.45 3.474 2.817 2.631.589 5.197-.26 6.946-2.299 2.537-2.957 2.37-8.74-.345-11.905-1.205-1.403-2.43-1.961-4.286-1.953-1.815.01-3.479.79-4.966 2.335l-1.206 1.252-.992-.533c-.545-.293-1.049-.683-1.12-.866-.262-.682.974-12.422 1.332-12.652.196-.125 3.35-.196 7.008-.157l6.654.071.28.795c.18.51.18 1.077 0 1.588l-.28.795-5.495.144-5.495.145-.085 2.094c-.047 1.152-.025 2.094.049 2.094.074 0 .954-.21 1.957-.465 4.651-1.19 9.28 1.183 11.492 5.891.713 1.519.775 1.943.77 5.263 0 3.062-.105 3.857-.657 5.23-1.538 3.826-3.814 5.928-7.3 6.743-2.07.484-2.987.51-4.885.137z" fill="#a7a7a7"/><path d="M0 157.44V0h217.76v314.88H0V157.44zm211.69 156.25c1.97-.922 3.429-2.328 4.35-4.195l.692-1.403v-301l-.682-1.3c-.873-1.665-2.477-3.345-3.95-4.141l-1.159-.626-101.8-.074L7.341.877l-1.858.94C3.438 2.854 1.78 4.725 1.201 6.648c-.24.803-.327 40.43-.327 151.02 0 133.39.049 150.07.44 151.17.86 2.431 2.833 4.325 5.448 5.227 1.427.493 6.142.514 102.41.453l100.91-.063 1.617-.757zm-24.232-23.19c-.085-.222-.114-.904-.063-1.517l.092-1.113 5.502-.145 5.501-.144.165-2.022c.09-1.112.065-2.139-.056-2.28-.127-.15-.627-.089-1.178.144-.555.233-1.931.4-3.274.397-1.932 0-2.587-.137-3.95-.8-4.46-2.171-6.835-7.693-5.689-13.225.925-4.461 2.758-7.1 5.977-8.602 1.432-.669 1.996-.763 4.53-.755 2.419.01 3.12.117 4.247.668 2.658 1.3 4.772 4.227 4.537 6.284-.091.796-.165.836-1.52.836-1.326 0-1.46-.068-1.98-1.011-.749-1.356-1.939-2.597-2.816-2.936-.395-.153-1.519-.278-2.498-.278-4.41 0-7.178 3.086-7.159 7.98.015 3.735 1.525 6.747 3.975 7.93 2.33 1.125 5.14.504 7.253-1.604 1.449-1.446 1.856-1.533 2.897-.62l.742.65-.57 6.004c-.314 3.303-.648 6.13-.743 6.283-.103.166-2.919.279-6.97.279-5.546 0-6.825-.074-6.951-.403zm-135.64-16.852c-1.028-1.387-4.587-5.775-7.908-9.75-10.462-12.522-13.033-17.202-13.016-23.693.01-3.028.667-5.217 2.266-7.536 3.377-4.896 9.942-5.65 13.996-1.605 1.554 1.551 2.36 3.195 2.777 5.666.239 1.411.47 2.031.758 2.031.297 0 .44-.433.503-1.518.183-3.169-1.452-9.77-3.565-14.395-.527-1.154-.883-2.173-.792-2.265.275-.274 12.764-.187 12.935.09.087.141-.215 1.084-.672 2.095-2.44 5.399-3.692 9.878-3.84 13.74-.125 3.221.623 3.28 1.365.107.886-3.79 2.849-6.688 5.444-8.041 2.108-1.099 5.148-1.111 7.424-.03 4.557 2.164 6.912 6.548 6.578 12.239-.318 5.423-2.559 9.57-11.24 20.799-5.055 6.538-7.445 9.814-9.22 12.638-.675 1.072-1.384 1.95-1.576 1.95-.191 0-1.19-1.135-2.218-2.523zm104.55-.257c-1.152-1.528-4.393-5.526-7.203-8.883-5.516-6.589-7.103-8.6-8.95-11.336-3.898-5.775-5.44-11.593-4.267-16.089 2.091-8.009 10.027-11.26 15.501-6.35 1.767 1.586 2.797 3.502 3.265 6.074.191 1.048.505 1.958.698 2.023 1.625.54-.044-9.06-2.567-14.774-.639-1.446-1.23-2.856-1.316-3.134-.144-.47.29-.505 6.394-.505 4.877 0 6.549.088 6.549.344 0 .19-.713 2.107-1.583 4.261-1.894 4.685-2.716 7.969-2.825 11.283-.066 2.008 0 2.456.347 2.456.291 0 .616-.735 1.022-2.311 1.52-5.91 5.267-9.2 9.928-8.72 5.765.594 10.071 6.633 9.512 13.342-.432 5.186-2.806 9.49-11.314 20.51-5.063 6.558-7.525 9.953-9.269 12.783-.612.993-1.274 1.805-1.47 1.805-.197 0-1.3-1.25-2.453-2.78zm36.494-19.33c-.659-1.197-1.93-3.31-2.825-4.694-3.474-5.371-4.533-8.866-3.339-11.017 1.21-2.179 3.932-2.615 5.693-.912 1.13 1.094 1.328 1.108 1.32.095-.01-.894-.84-2.867-1.744-4.135-.332-.464-.521-.975-.422-1.135.276-.446 5.649-.38 5.642.07 0 .199-.46 1.255-1.014 2.346-1.08 2.127-1.29 3.36-.573 3.36.239 0 .434-.132.434-.293 0-.45 1.792-1.438 2.606-1.438 1.024 0 2.498.973 3.031 2.002 1.412 2.722.8 5.093-2.767 10.713-1.46 2.3-3.04 4.865-3.514 5.699-.472.834-.965 1.516-1.095 1.516s-.774-.98-1.433-2.176zm-93.541-69.818c0-.194.579-1.721 1.286-3.394 1.874-4.433 2.796-8.207 2.86-11.708.043-2.395-.022-2.889-.38-2.889-.312 0-.493.477-.646 1.694-.44 3.522-2.566 6.5-5.642 7.904-1.383.632-1.886.71-3.807.596-2.699-.162-4.59-1.034-6.333-2.92-2.243-2.428-3.326-5.299-3.312-8.784.026-6.527 2.563-11.123 13.144-23.81 3.4-4.076 6.958-8.463 7.908-9.748.95-1.285 1.88-2.338 2.067-2.34.187 0 1.208 1.32 2.268 2.934 2.101 3.2 4.189 6.024 9.682 13.098 7.757 9.988 10.15 14.778 10.15 20.31 0 6.792-4.487 12.045-10.279 12.033-2.478 0-4.2-.713-5.93-2.438-1.39-1.387-2.73-4.018-3.23-6.345-.642-2.982-1.409-3.162-1.409-.33 0 3.648 1.089 7.806 3.514 13.422.61 1.41 1.038 2.678.952 2.817-.26.419-12.863.32-12.863-.101zm-52.548-93.52c-.094-.152.209-1.03.674-1.95.465-.92 1.247-2.808 1.738-4.196 1.752-4.957 2.625-11.92 1.494-11.92-.3 0-.499.473-.656 1.562-.753 5.222-4.982 8.975-9.701 8.61-5.773-.446-10.17-6.565-9.486-13.199.582-5.635 3.456-10.758 11.27-20.084l4.96-5.922c1.13-1.35 3.133-3.853 4.449-5.563 1.316-1.71 2.508-3.036 2.65-2.95.14.088 1.222 1.616 2.403 3.397 1.181 1.781 4.594 6.424 7.583 10.316 6.165 8.029 8.693 11.73 10.133 14.84 3.063 6.613 2.298 13.207-1.988 17.15-1.974 1.815-3.465 2.461-6.026 2.614-1.91.114-2.426.034-3.765-.58-2.84-1.302-4.82-4.047-5.882-8.154-.914-3.533-1.656-2.873-1.28 1.14.37 3.96 1.411 7.477 3.806 12.855.389.874.65 1.751.58 1.95-.157.448-12.68.528-12.957.084zm104.8-.098c-.082-.213.256-1.2.75-2.196 2.714-5.455 4.71-15.56 3.134-15.857-.375-.07-.522.238-.686 1.442-.501 3.685-2.615 6.767-5.564 8.112-2.104.96-5.209.895-7.352-.156-5.072-2.484-7.409-8.627-5.751-15.116 1.297-5.076 3.918-9.158 12.318-19.184 3.128-3.733 6.62-8.044 7.758-9.578 1.14-1.535 2.238-2.865 2.443-2.956.237-.106.96.748 1.997 2.357 1.82 2.823 4.83 6.92 10.005 13.61 7.69 9.945 10.332 15.129 10.351 20.313.017 4.575-2.456 9.05-6.12 11.075-1.411.78-1.792.856-4.299.856-2.492 0-2.88-.076-4.132-.81-2.474-1.451-4.011-3.882-5.113-8.087-.308-1.174-.617-1.792-.897-1.792-.35 0-.412.447-.344 2.456.107 3.195.945 6.514 2.73 10.82.793 1.914 1.462 3.804 1.487 4.202l.044.722-6.305.078c-5.058.062-6.335 0-6.454-.31zM14.933 80.91c-.092-.148.23-.894.714-1.656.973-1.532 1.576-3.386 1.318-4.057-.13-.34-.419-.208-1.323.608-1.359 1.224-2.765 1.382-4.254.476-3.05-1.855-2.382-5.504 2.41-13.164 1.095-1.752 2.318-3.8 2.715-4.55.803-1.512 1.242-1.683 1.828-.713.217.357 1.646 2.664 3.177 5.127 4.034 6.488 4.655 8.159 3.974 10.683-.813 3.01-3.55 4.115-5.648 2.278-.568-.498-1.107-.832-1.197-.742-.35.35.267 2.532 1.074 3.801 1.334 2.1 1.265 2.18-1.887 2.18-1.504 0-2.809-.122-2.901-.271zm-1.402-28.73c-2.442-.905-4.271-2.728-5.076-5.058-.679-1.97-.364-2.63 1.254-2.63 1.125 0 1.591.31 2.167 1.436 1.313 2.566 3.738 3.609 6.805 2.924 5.484-1.224 7.46-8.555 3.752-13.914-2.222-3.21-7.034-3.157-9.836.108-1.014 1.183-1.029 1.188-1.81.717-.434-.262-.913-.672-1.065-.912-.348-.546.62-12 1.058-12.527.227-.273 1.885-.364 6.614-.364 3.472 0 6.518.079 6.77.175.331.127.458.566.458 1.589 0 .777-.033 1.438-.072 1.47-.04.03-2.548.128-5.574.216l-5.502.16-.087 1.848c-.12 2.554-.033 2.711 1.223 2.187 1.665-.693 5.23-.555 7.012.273 4.002 1.86 6.186 5.652 6.186 10.744 0 4.98-2.511 9.47-6.226 11.133-1.83.82-6.342 1.057-8.05.424z" fill="#949494"/><path d="M0 157.44V0h217.76v314.88H0V157.44zm212.01 156.2c1.784-.874 3.047-2.128 4.072-4.04l.653-1.22.073-150.21c.066-135.5.03-150.34-.378-151.57-.738-2.214-2.183-3.832-4.394-4.918l-1.95-.957H7.387l-1.638.803c-1.888.924-3.514 2.589-4.402 4.505L.727 7.37v300.44l.668 1.473c.894 1.97 2.763 3.74 4.857 4.6l1.714.703 101.2-.066 101.2-.066 1.645-.806zm-24.318-23.084c-.37-.37-.461-1.62-.172-2.374.152-.394.911-.457 5.485-.457 2.92 0 5.382-.119 5.472-.264.265-.427.544-3.698.357-4.183-.153-.398-.288-.394-1.27.032-.684.297-1.922.482-3.284.492-1.902.014-2.435-.107-4.114-.931-3.263-1.603-5.125-4.357-5.741-8.493-.616-4.13.922-8.966 3.635-11.436 2.025-1.843 3.948-2.52 7.103-2.5 3.015.019 4.952.77 6.608 2.562 1.23 1.33 2.183 3.46 2.031 4.535-.073.513-.308.711-.929.782-1.447.165-2.037-.167-2.774-1.563-2.377-4.502-9.349-3.664-11.63 1.398-.948 2.104-.956 5.784-.017 7.854 1.404 3.097 3.2 4.493 5.774 4.493 1.76 0 4.138-1.133 5.222-2.488.93-1.162 1.45-1.22 2.474-.273.575.531.729.904.627 1.516-.074.447-.342 3.15-.596 6.007-.284 3.207-.591 5.279-.802 5.413-.602.382-13.067.27-13.459-.122zm-134.3-15.1c-.319-.36-1.354-1.683-2.3-2.938-.946-1.256-4.177-5.22-7.18-8.811-6.687-7.992-8.79-10.882-10.633-14.616-1.915-3.88-2.383-5.866-2.246-9.542.1-2.695.196-3.11 1.193-5.122 3.052-6.161 9.788-7.902 14.437-3.732 1.74 1.561 3.017 3.996 3.307 6.307.349 2.788 1.449 2.334 1.336-.552-.147-3.73-1.905-10.307-3.704-13.854-1.202-2.37-1.509-2.249 5.68-2.249 7.314 0 6.873-.23 5.51 2.868-2.266 5.152-3.237 8.65-3.623 13.063-.294 3.356.849 3.526 1.551.23.794-3.724 3.074-6.94 5.784-8.157 2.065-.926 4.95-.851 7.073.185 5.115 2.497 7.586 8.517 6.125 14.924-.948 4.16-3.749 8.755-11.178 18.342-2.585 3.337-5.93 7.887-7.434 10.111-1.503 2.225-2.82 4.08-2.926 4.122-.106.043-.453-.217-.772-.577zm103.25-1.876c-1.03-1.39-4.479-5.649-7.665-9.464-10.046-12.03-12.206-15.576-13.188-21.648-.875-5.41 1.593-10.884 5.89-13.067 2.265-1.15 5.125-1.273 7.23-.312 3.236 1.478 5.21 4.144 5.716 7.72.285 2.013.367 2.17 1.002 1.927 1.44-.552-.582-10.578-3.206-15.89-.538-1.089-.906-2.096-.817-2.239.087-.142 3.034-.26 6.547-.26h6.387l-.151.65c-.083.358-.762 2.08-1.508 3.828-.746 1.748-1.665 4.378-2.043 5.845-.842 3.267-1.24 7.694-.722 8.013.555.343.833-.14 1.44-2.506 1.008-3.934 2.693-6.297 5.458-7.65 6.817-3.34 14.787 3.933 13.81 12.601-.6 5.343-2.934 9.517-11.531 20.631-2.722 3.519-6.13 8.144-7.575 10.278-1.444 2.134-2.756 3.923-2.914 3.976-.159.053-1.13-1.042-2.16-2.432zm36.984-18.35c-.216-.358-.919-1.56-1.56-2.673a306.58 306.58 0 0 0-3.051-5.105c-2.939-4.813-3.475-7.75-1.781-9.758 1.467-1.74 3.981-1.796 5.303-.12 1.53 1.94 1.564-.973.04-3.418-.504-.81-.85-1.648-.767-1.863.231-.6 5.047-.552 5.28.053.094.244-.033.67-.283.944-1.096 1.209-2.186 4.967-1.44 4.967.112 0 .638-.42 1.168-.932.742-.718 1.217-.932 2.063-.932 2.2 0 3.628 1.866 3.639 4.753.01 1.995-.883 3.93-4.212 9.151-1.335 2.094-2.649 4.206-2.92 4.694-.587 1.056-.949 1.114-1.48.238zm-94.307-71.145c0-.243.376-1.185.835-2.094.46-.91 1.235-2.844 1.723-4.3 1.345-4.007 2.386-10.483 1.822-11.333-.433-.652-1.195-.144-1.195.797 0 .465-.264 1.696-.586 2.737-.704 2.276-2.663 4.59-4.81 5.684-1.884.96-5.373 1.009-7.36.102-6.387-2.914-8.238-11.702-4.166-19.79 2.035-4.043 3.828-6.479 11.562-15.704 2.397-2.86 5.44-6.597 6.76-8.305 1.322-1.708 2.514-3.105 2.649-3.105.135 0 .663.682 1.172 1.516 1.516 2.48 4.738 6.908 9.825 13.505 6.872 8.91 9.231 12.776 10.43 17.09 2.012 7.247-1.404 14.368-7.667 15.982-3.1.8-5.81-.03-8.11-2.484-1.503-1.601-2.31-3.22-3.063-6.131-.578-2.24-.645-2.35-1.274-2.11-.377.144-.426.512-.284 2.13.386 4.396 1.594 8.817 3.642 13.334 1.418 3.13 1.813 2.921-5.534 2.921-5.522 0-6.37-.059-6.37-.441zM47.03 90.542c-.082-.214.366-1.558.997-2.987 1.359-3.081 2.154-5.678 2.788-9.1.555-2.995.496-6.156-.114-6.156-.276 0-.555.74-.87 2.31-.53 2.647-1.58 4.624-3.13 5.9-2.455 2.018-5.3 2.709-7.97 1.935-4.77-1.384-7.799-5.888-7.778-11.568.024-6.567 2.567-11.085 13.708-24.367 2.787-3.322 5.961-7.23 7.053-8.686 1.093-1.455 2.133-2.645 2.313-2.645.179 0 1.29 1.46 2.467 3.245 1.177 1.784 4.535 6.366 7.46 10.183 2.927 3.816 6.07 8.047 6.988 9.403 3.333 4.927 5.211 9.674 5.211 13.167 0 4.885-2.551 9.45-6.311 11.292-1.416.693-2.003.809-4.113.809-2.151 0-2.628-.098-3.788-.779-2.96-1.736-4.504-4.286-5.603-9.26-.175-.792-.831-1.065-1.185-.494-.34.55.463 6.381 1.208 8.763.403 1.291 1.321 3.747 2.04 5.457.718 1.711 1.231 3.303 1.14 3.54-.232.605-12.28.644-12.511.04zm104.75.135c-.315-.199-.275-.466.21-1.414 2.005-3.921 3.682-9.786 3.985-13.936.147-2.02.099-2.527-.268-2.831-.588-.487-.752-.19-1.105 1.999-.907 5.617-6.126 9.375-11.04 7.95-5.734-1.663-8.998-7.872-7.644-14.54 1.176-5.79 3.366-9.308 12.848-20.641 2.88-3.442 6.246-7.57 7.48-9.172 1.233-1.603 2.391-2.914 2.572-2.914.182 0 1.101 1.202 2.043 2.672.943 1.47 3.34 4.817 5.326 7.439 1.986 2.621 4.988 6.586 6.67 8.81 6.49 8.576 8.668 13.932 7.845 19.282-.877 5.698-4.738 9.647-9.752 9.975-1.766.116-2.297.03-3.64-.582-2.825-1.291-4.967-4.228-5.857-8.034-.438-1.873-.915-2.693-1.394-2.397-.44.27-.03 5.1.661 7.794.32 1.249 1.312 4.073 2.204 6.276 1.306 3.224 1.545 4.055 1.225 4.257-.514.325-11.856.33-12.368.01zM14.95 80.869c-.082-.133.178-.72.577-1.308.844-1.238 1.565-3.137 1.565-4.121 0-.844-.726-.914-1.157-.111-.375.698-1.756 1.447-2.67 1.447-1.863 0-3.702-2.014-3.702-4.056 0-1.586 1.058-4.355 2.67-6.989a461.15 461.15 0 0 0 2.998-4.987c2.09-3.534 2.371-3.874 2.748-3.323 1.441 2.107 6.56 10.525 7.003 11.518 1.168 2.611.51 6.16-1.352 7.293-1.48.9-3.072.555-4.367-.95l-.579-.672-.095.998c-.067.708.204 1.578.935 3 .566 1.1.96 2.114.874 2.251-.199.321-5.25.33-5.448.01zm-1.417-28.855c-2.66-.885-5.07-3.699-5.21-6.083l-.063-1.076 1.448-.083 1.448-.083.706 1.337c1.042 1.975 2.24 2.764 4.462 2.942 2.135.171 3.416-.177 5.082-1.381 4.121-2.979 3.765-11.473-.603-14.356-.994-.657-1.519-.795-2.966-.785-2.089.014-3.252.545-5.093 2.324l-1.308 1.264-.936-.568c-.675-.41-.937-.781-.937-1.33 0-1.14.852-10.558 1.023-11.313l.149-.655 6.87.078 6.87.077v2.6l-5.501.16c-3.026.088-5.534.186-5.574.217-.118.09-.082 4.678.036 4.678.06 0 .662-.195 1.34-.433 1.565-.552 4.498-.557 6.047-.012 4.002 1.408 6.566 5.119 6.896 9.977.273 4.04-1.338 8.446-3.916 10.71-2.364 2.076-6.99 2.883-10.27 1.793z" fill="#878787"/><path d="M0 157.44V0h217.76v314.88H0V157.44zm212.14 156.22c1.848-.972 3.687-3.022 4.286-4.775.413-1.209.456-15.592.456-151.45V7.315L216 5.553c-.99-1.977-2.365-3.322-4.315-4.222l-1.318-.608h-101.35c-99.198 0-101.38.012-102.79.554C4.335 2.004 2.25 3.985 1.4 5.86L.717 7.367.64 156.857c-.054 103.83.016 149.93.228 150.93.608 2.866 2.79 5.295 5.638 6.279 1.367.472 7.272.497 102.8.437l101.35-.064 1.484-.78zm-24.338-23.217c-.525-.524-.585-1.363-.155-2.165.28-.521.656-.559 5.615-.559 4.58 0 5.34-.063 5.492-.457.272-.709.207-4.111-.083-4.29-.143-.088-.752.046-1.355.297-1.397.583-4.517.582-6.146 0-2.67-.954-4.538-2.794-5.894-5.805-.896-1.99-1.098-6.564-.396-8.99 1.508-5.21 4.937-7.958 9.996-8.006 2.578-.025 4.627.592 6.162 1.854 1.35 1.11 2.436 2.933 2.689 4.512.182 1.137.147 1.225-.564 1.403-1.19.298-2.2-.1-2.733-1.075-1.405-2.574-3.264-3.617-5.954-3.34-5.27.543-8.073 5.698-6.267 11.53.655 2.114 2.226 4.147 3.672 4.75 1.236.515 3.619.505 4.88-.02.549-.23 1.645-1.02 2.437-1.76l1.438-1.342.884.521c.72.424.885.71.886 1.542 0 2.217-.952 11.153-1.227 11.493-.219.269-1.906.361-6.608.361-5.354 0-6.383-.069-6.769-.454zm-136.28-17.38c-1.308-1.71-4.794-5.997-7.745-9.526-6.608-7.901-8.624-10.675-10.455-14.382-2.38-4.821-2.96-9.055-1.767-12.91 3.348-10.812 16.876-9.975 18.387 1.138.164 1.205.316 1.517.74 1.517.292 0 .615-.262.717-.582.244-.768-.292-5.029-1.006-7.99-.589-2.445-2.4-7.323-3.09-8.32-.217-.313-.394-.8-.394-1.083 0-.476.453-.513 6.235-.513 4.792 0 6.267.085 6.376.369.078.203-.366 1.539-.988 2.969-1.644 3.78-2.865 7.792-3.211 10.552-.42 3.345-.39 4.294.143 4.498.62.237.689.122 1.266-2.113.751-2.91 1.56-4.53 3.055-6.124 3.557-3.794 9.074-3.611 12.903.427 3.65 3.85 4.38 9.44 2.007 15.351-1.592 3.968-3.564 6.868-13.2 19.423-1.768 2.304-4.087 5.519-5.154 7.144-1.066 1.625-2.051 3.024-2.19 3.11-.138.084-1.321-1.245-2.63-2.955zm106.68 2.451c-.32-.357-1.215-1.495-1.989-2.527-.773-1.033-3.9-4.868-6.95-8.522-8.488-10.174-10.708-13.376-12.306-17.745-2.353-6.432-1.339-12.25 2.763-15.851 5.594-4.912 13.825-1.58 14.867 6.017.267 1.944.392 2.163 1.087 1.897.431-.165.47-.524.315-2.996-.216-3.472-1.212-7.453-2.804-11.211-.668-1.576-1.282-3.157-1.366-3.515l-.152-.65h6.242c3.433 0 6.309.108 6.39.24.083.131-.559 1.984-1.424 4.116-1.972 4.861-2.719 7.732-2.944 11.316-.155 2.474-.12 2.817.291 2.817.587 0 .893-.586 1.36-2.6.754-3.26 2.947-6.488 5.198-7.65 3.282-1.692 7.935-.68 10.718 2.332 3.926 4.248 4.344 10.86 1.094 17.307-1.5 2.975-3.67 6.139-8.619 12.566-5.98 7.768-7.34 9.62-9.375 12.783-.896 1.39-1.67 2.527-1.72 2.527-.052 0-.355-.292-.676-.65zm34.776-21.5a125.878 125.878 0 0 0-2.743-4.564c-3.28-5.195-4.268-7.845-3.76-10.09.317-1.402 1.276-2.412 2.638-2.778 1.296-.348 2.298-.033 3.205 1.008.885 1.015 1.403.938 1.4-.207 0-.985-1.158-3.76-1.705-4.098-.176-.108-.32-.384-.32-.613 0-.333.55-.417 2.751-.417 1.513 0 2.751.046 2.751.104 0 .057-.456.976-1.013 2.043-.943 1.804-1.358 3.92-.77 3.92.135 0 .493-.273.796-.607.859-.947 2.094-1.473 2.994-1.275.852.186 2.026 1.273 2.621 2.426.569 1.1.464 3.758-.207 5.27-.685 1.544-6.95 11.62-7.304 11.748-.13.047-.73-.795-1.334-1.87zm-93.49-69.68c-.088-.142.352-1.41.978-2.817 2.225-5.007 4.034-13.272 3.27-14.945-.543-1.19-1.139-.657-1.355 1.21-.581 5.012-4.918 8.978-9.466 8.658-2.125-.15-5.111-1.602-6.414-3.121-2.86-3.333-3.78-7.947-2.547-12.758 1.315-5.132 3.614-8.72 12.18-19.013 3.371-4.052 7.045-8.576 8.163-10.053 1.119-1.478 2.139-2.648 2.267-2.6.129.048 1.27 1.647 2.538 3.553 1.267 1.907 3.267 4.723 4.443 6.26 10.087 13.166 12.145 16.178 13.7 20.053 2.252 5.612 1.468 11.396-2.057 15.174-3.825 4.1-9.654 4.263-13.092.366-1.4-1.587-2.277-3.407-2.886-5.995-.457-1.945-.943-2.574-1.532-1.986-.45.449.186 5.854 1.03 8.76.396 1.363 1.321 3.882 2.056 5.598.734 1.716 1.267 3.298 1.183 3.516-.123.319-1.344.397-6.225.397-3.34 0-6.145-.116-6.233-.258zM46.913 90.406c0-.164.311-.911.691-1.66 1.68-3.314 3.365-9.448 3.787-13.793.125-1.284.058-1.89-.253-2.31-.598-.81-.953-.323-1.289 1.765-.702 4.366-3.438 7.351-7.544 8.23-1.152.246-1.81.215-3.267-.157-6.283-1.601-9.427-8.27-7.48-15.865 1.243-4.849 3.867-8.92 12.032-18.666 3.128-3.734 6.674-8.088 7.88-9.677 1.206-1.59 2.35-2.89 2.542-2.89.193 0 1.408 1.58 2.7 3.51 1.293 1.929 4.543 6.355 7.223 9.835 6.054 7.863 7.147 9.398 9.014 12.655 2.536 4.426 3.602 8.91 2.948 12.41-.716 3.838-3.005 7.082-6.156 8.727-1.312.684-1.895.807-3.862.812-1.9 0-2.569-.123-3.715-.707-2.548-1.3-4.667-4.446-5.443-8.082-.373-1.75-.87-2.517-1.415-2.18-.484.298-.102 5.108.63 7.937.31 1.194 1.272 3.933 2.14 6.087.867 2.154 1.577 4.007 1.577 4.117 0 .11-2.866.2-6.37.2-4.19 0-6.37-.103-6.37-.299zm104.82-.143c0-.243.375-1.185.834-2.094 1.819-3.604 3.51-10.326 3.51-13.951 0-2.782-1.244-2.62-1.535.2-.478 4.616-4.429 8.296-8.922 8.31-6.155.022-10.823-6.516-9.81-13.74.832-5.926 3.195-9.884 12.691-21.251 3.35-4.01 6.968-8.463 8.04-9.894 1.071-1.432 2.09-2.598 2.262-2.593.173.01 1.254 1.468 2.403 3.25s4.588 6.49 7.642 10.462c6.488 8.436 8.24 11.02 9.943 14.66 1.557 3.332 1.899 4.74 1.899 7.825 0 4.416-1.681 7.976-4.816 10.2-3.566 2.528-7.713 2.402-10.757-.33-1.727-1.548-2.803-3.488-3.549-6.397-.618-2.413-.893-2.895-1.453-2.55-.52.32-.152 5.215.607 8.08.336 1.27 1.262 3.87 2.057 5.777.794 1.906 1.516 3.694 1.604 3.972.148.47-.279.505-6.245.505-5.553 0-6.405-.059-6.405-.441zM15.163 80.73c-.094-.244.033-.67.283-.944 1.238-1.365 2.167-4.967 1.28-4.967-.2 0-.727.385-1.172.856-1.07 1.131-2.502 1.398-3.712.691-2.971-1.736-2.85-5.234.365-10.425a444.196 444.196 0 0 0 3.227-5.35c1.11-1.866 2.128-3.393 2.263-3.393.136 0 .462.422.725.938.264.517 1.743 2.954 3.288 5.417 3.261 5.2 3.777 6.367 3.777 8.542 0 2.494-1.283 4.326-3.252 4.645-.886.143-1.177.023-2.226-.923-.848-.764-1.299-.997-1.513-.783-.423.421.382 3.075 1.37 4.514.979 1.427.714 1.616-2.279 1.622-1.763 0-2.29-.092-2.424-.44zm-1.452-28.67c-1.849-.661-3.378-1.8-4.285-3.191-.765-1.173-1.436-3.372-1.164-3.811.096-.155.76-.282 1.474-.282 1.157 0 1.354.099 1.793.903 1.377 2.522 2.781 3.43 5.3 3.43 2.134 0 3.583-.516 5.038-1.793 3.969-3.486 3.027-11.983-1.586-14.311-2.358-1.19-4.766-.707-7.109 1.43-1.678 1.53-1.99 1.618-2.993.848l-.684-.525.483-5.607c.265-3.084.544-5.902.619-6.262l.136-.656 6.87.078 6.87.077v2.6l-5.501.145-5.502.144-.233 2.136c-.137 1.257-.124 2.246.033 2.402.162.162.854.074 1.767-.224 2.061-.672 4.902-.454 6.83.524 5.27 2.675 7.27 9.315 4.785 15.89-1.524 4.03-4.613 6.24-9.038 6.467-1.85.095-2.753-.001-3.903-.412z" fill="#777"/><path d="M0 157.44V0h217.76v314.88H0V157.44zm211.01 156.71c1.913-.567 4.285-2.675 5.19-4.613l.676-1.45v-150.5c0-146.64-.017-150.54-.547-151.7-.77-1.69-2.49-3.487-4.203-4.389L210.66.726H7.1l-1.346.621c-1.721.794-3.607 2.675-4.402 4.392L.729 7.082l-.073 149.92c-.065 131.55-.021 150.1.354 151.39.78 2.675 2.834 4.808 5.57 5.78.916.327 17.89.394 102.03.405 89.192.01 101.1-.038 102.4-.424zm-23.374-24.835c0-.718.033-1.33.072-1.361.04-.031 2.548-.129 5.574-.217l5.502-.16.084-2.384c.046-1.31-.02-2.381-.145-2.379-.126 0-.75.192-1.387.421-.637.229-2.07.422-3.185.429-4.35.027-8.077-3.033-9.308-7.642-.637-2.386-.501-5.643.34-8.144 1.797-5.338 4.974-7.524 10.55-7.258 3.158.15 5.152 1.133 6.594 3.248.974 1.428 1.678 3.439 1.375 3.927-.096.155-.727.282-1.402.282-1.157 0-1.285-.086-2.227-1.499-1.559-2.337-2.215-2.69-5.004-2.69-2.078 0-2.537.1-3.764.82-1.534.9-2.906 2.772-3.42 4.665-.468 1.73-.173 5.235.585 6.937 1.193 2.681 3.212 4.245 5.515 4.274 2.002.024 3.461-.598 5.16-2.2l1.538-1.451.787.584c1.014.75 1.034 1.113.423 7.604l-.504 5.344-6.877.077-6.877.077v-1.305zm-136.28-16.544c-1.299-1.708-4.837-6.064-7.862-9.68-8.036-9.61-10.696-13.749-11.934-18.578-2.122-8.277 2.387-15.87 9.416-15.855 4.55.01 8.006 3.242 8.814 8.246.348 2.158.734 2.682 1.366 1.853 1.145-1.504-.988-11.329-3.563-16.404-.386-.76-.624-1.508-.529-1.66.227-.368 12.208-.372 12.435 0 .093.15-.406 1.616-1.109 3.258-2.309 5.393-3.37 9.66-3.37 13.552 0 1.315.056 1.435.625 1.35.517-.075.734-.494 1.248-2.402 1.514-5.624 4.484-8.513 8.758-8.52 6.39-.01 11.26 6.546 10.23 13.77-.757 5.302-2.682 8.668-11.688 20.432-3.174 4.146-6.694 8.935-7.821 10.644-1.127 1.708-2.186 3.105-2.352 3.104-.167 0-1.366-1.397-2.664-3.105zm104.87.145c-1.24-1.628-4.661-5.835-7.601-9.347-8.38-10.012-11.046-14.102-12.247-18.785-1.87-7.296 1.055-14.03 6.89-15.86 5.098-1.6 10.69 2.415 11.279 8.096.178 1.722.726 2.512 1.326 1.91.455-.454.344-3.481-.242-6.627-.542-2.902-1.912-7.082-3.08-9.393-.47-.93-.784-1.875-.698-2.1.243-.63 12.504-.451 12.42.18-.032.239-.792 2.227-1.69 4.418-.898 2.191-1.88 5.181-2.182 6.644-.56 2.704-.747 6.698-.327 6.957.532.328.99-.434 1.51-2.506.686-2.741 1.436-4.225 2.985-5.908 3.928-4.269 10.649-3.335 14.076 1.956 1.579 2.437 2.15 4.783 1.98 8.128-.28 5.48-2.282 9.207-11.07 20.61-4.715 6.116-8.034 10.69-9.59 13.215-.466.755-.99 1.372-1.165 1.373-.175 0-1.333-1.332-2.574-2.96zm37.05-18.436c-.41-.806-1.73-3.033-2.934-4.95-2.888-4.594-3.662-6.322-3.805-8.49-.138-2.083.39-3.35 1.673-4.011 1.458-.753 2.76-.567 4.025.572 1.258 1.135 1.361 1.175 1.577.614.267-.693-.384-2.877-1.266-4.25-.469-.729-.852-1.411-.852-1.516 0-.243 5.053-.254 5.295-.012.1.099-.144.65-.54 1.227-.808 1.179-1.705 3.92-1.427 4.367.292.471.627.347 1.55-.574 1.611-1.607 4.194-.935 5.147 1.34.514 1.226.51 3.473-.01 4.936-.224.632-1.702 3.215-3.286 5.742-1.583 2.526-3.098 5.015-3.365 5.531-.268.517-.611.94-.764.94-.152 0-.612-.66-1.021-1.466zm-93.614-70.141c-.307-.194-.21-.592.471-1.945 1.867-3.702 3.435-9.442 3.742-13.696.13-1.805.075-2.241-.327-2.574-.684-.566-.96-.157-1.294 1.921-.569 3.541-2.415 6.143-5.398 7.607-2.078 1.02-4.925.98-7.14-.102-3.73-1.82-6.317-6.302-6.317-10.942 0-2.113.909-5.576 2.157-8.217 2.006-4.245 3.404-6.165 11.745-16.142 2.79-3.336 5.917-7.202 6.95-8.59 1.033-1.388 2.03-2.526 2.216-2.528.186 0 1.308 1.459 2.493 3.246 1.185 1.788 3.118 4.507 4.295 6.043 12.61 16.455 14.238 19.12 15.062 24.644 1.298 8.702-5.677 16.002-12.932 13.536-2.803-.953-5.36-4.47-6.198-8.523-.368-1.783-.808-2.377-1.462-1.974-.35.215-.362.755-.085 3.522.358 3.57 1.406 7.254 3.308 11.63.622 1.43 1.066 2.765.988 2.968-.109.283-1.512.368-6.014.365-3.23 0-6.047-.115-6.26-.25zm-52.748-93.88c0-.137.513-1.34 1.139-2.674 1.383-2.944 2.404-6.368 3.053-10.24.557-3.326.505-4.703-.197-5.141-.678-.424-.809-.212-1.088 1.76-.373 2.63-1.322 4.518-3.08 6.12-2.738 2.496-6.267 3.057-9.527 1.513-4.135-1.959-6.474-6.43-6.138-11.733.388-6.122 2.956-10.632 12.614-22.158 3.018-3.603 6.552-7.925 7.853-9.606 1.3-1.68 2.452-3.053 2.56-3.05.107 0 .909 1.14 1.781 2.528.873 1.387 3.215 4.667 5.204 7.288 8.653 11.402 10.077 13.346 11.35 15.494 4.81 8.116 4.745 15.358-.178 20.003-2.169 2.046-3.816 2.762-6.38 2.772-2.46.01-4.844-1.017-6.234-2.683-1.175-1.409-2.453-4.134-2.905-6.196-.38-1.733-.874-2.434-1.459-2.073-.494.304-.133 5.031.604 7.913.326 1.273 1.253 3.909 2.06 5.858.806 1.95 1.536 3.771 1.62 4.05.145.47-.283.505-6.249.505-3.522 0-6.404-.112-6.404-.25zm104.92-.257c.089-.278.752-1.935 1.474-3.683 1.97-4.77 3.413-11.904 2.756-13.628-.351-.921-1.094-.85-1.279.123-.841 4.425-1.848 6.377-4.113 7.975-1.746 1.232-2.813 1.582-4.904 1.608-5.707.071-9.967-4.91-9.947-11.63.02-6.404 2.638-11.156 12.921-23.447 3.324-3.972 6.872-8.327 7.886-9.677 1.013-1.35 1.945-2.495 2.07-2.543.125-.048 1.2 1.382 2.39 3.178 1.19 1.795 4.76 6.657 7.934 10.803 10.12 13.224 11.91 16.763 11.61 22.97-.112 2.33-.278 3.084-1.03 4.686-1.14 2.434-3.066 4.486-5.196 5.542-2.36 1.17-5.35 1.198-7.504.073-2.574-1.345-4.169-3.67-5.293-7.717-.665-2.395-.782-2.617-1.382-2.617-.394 0-.436.4-.309 2.961.184 3.724.75 5.95 2.831 11.112.91 2.259 1.585 4.176 1.5 4.261-.085.085-2.95.155-6.366.155-5.783 0-6.2-.035-6.049-.506zM15.074 80.67c.001-.12.267-.607.592-1.084.907-1.334 1.433-2.718 1.433-3.773 0-1.308-.342-1.416-1.306-.412-2.157 2.245-5.266 1.368-5.953-1.68-.477-2.12.606-5.029 3.592-9.65a92.276 92.276 0 0 0 2.779-4.635c.677-1.231 1.346-2.168 1.488-2.08.141.086.695.9 1.23 1.806s1.887 3.077 3.005 4.825c2.92 4.565 3.341 5.49 3.48 7.655.09 1.43-.01 2.114-.406 2.868-1.226 2.313-3.446 2.832-5.132 1.202-.577-.558-1.131-.87-1.33-.747-.5.308-.104 2.033.892 3.878.465.862.846 1.675.846 1.806 0 .13-1.173.237-2.606.237-1.433 0-2.605-.097-2.604-.216zm-.147-28.27c-1.418-.36-2.946-1.085-3.942-1.872-1.271-1.004-2.573-3.44-2.573-4.813v-.97l1.353.088c1.208.08 1.411.196 1.91 1.1.723 1.313 1.613 2.266 2.586 2.771 1.048.544 4.32.52 5.67-.042 3.26-1.356 5.134-5.372 4.398-9.422-.562-3.093-2.392-5.813-4.426-6.578-2.27-.854-5.78.184-7.378 2.181-.922 1.153-1.225 1.198-2.216.329l-.741-.65.557-5.885c.307-3.236.675-6.001.818-6.144.143-.143 3.24-.225 6.9-.182l6.64.078v2.6l-5.44.08-5.438.078-.28.735c-.39 1.022-.361 4.163.037 4.163.175 0 1.045-.21 1.934-.469 7.05-2.044 13.4 4.63 12.232 12.856-.685 4.82-3.025 8.132-6.665 9.433-1.334.477-4.898.799-5.936.536z" fill="#696969"/><path d="M0 157.44V0h217.76v314.88H0V157.44zm212.54 156.11c1.868-1.05 3.546-3.096 4.1-4.998.322-1.102.388-26.93.388-151.26V7.362l-.759-1.615c-.974-2.073-2.852-3.866-4.818-4.6-1.538-.574-2.168-.577-103.1-.503L6.801.718l-1.54.851c-1.72.95-2.914 2.178-3.887 3.996L.72 6.785l-.073 150.21c-.067 136.02-.03 150.36.383 151.78.614 2.108 3.15 4.701 5.22 5.336 1.256.386 13.144.43 103.06.383l101.64-.053 1.592-.895zm-24.709-23.13c-.106-.106-.193-.69-.193-1.3v-1.107h5.299c3.735 0 5.401-.103 5.646-.347.38-.379.5-4.855.13-4.85-.119 0-.856.197-1.638.433-5.596 1.694-11.046-1.836-12.374-8.014-.692-3.218.317-8.18 2.219-10.918 2.158-3.107 7.162-4.552 11.405-3.295 2.169.642 4.44 2.886 5.062 5 .251.853.386 1.666.3 1.805-.086.14-.733.253-1.436.253-1.152 0-1.325-.093-1.753-.938-.608-1.203-1.787-2.468-2.783-2.987-1.256-.655-4.186-.516-5.899.28-2.766 1.285-4.178 3.85-4.178 7.587 0 2.396.56 4.317 1.77 6.07 1.242 1.802 2.644 2.553 4.745 2.542 2.07-.011 3.569-.659 5.13-2.217 1.229-1.225 1.623-1.317 2.528-.586l.627.507-.47 5.487c-.259 3.018-.53 5.78-.601 6.138l-.13.65h-6.607c-3.633 0-6.693-.087-6.799-.193zm-135.85-16.931c-.956-1.304-4.023-5.103-6.816-8.44-7.751-9.262-9.932-12.201-11.79-15.89-3.556-7.06-2.949-13.928 1.598-18.074 1.897-1.73 4.65-2.725 6.728-2.433 4.261.598 7.578 4.059 8.025 8.371.183 1.776.687 2.46 1.386 1.88 1.328-1.099-.7-10.978-3.314-16.145-.487-.962-.884-1.817-.884-1.9 0-.085 2.88-.153 6.4-.153 5.013 0 6.368.078 6.245.36-1.528 3.501-3.218 7.953-3.683 9.698-.738 2.772-1.1 7.955-.579 8.277.574.354 1.084-.43 1.592-2.447.986-3.912 2.745-6.52 5.262-7.802 1.979-1.009 5.442-1.02 7.348-.024 4.193 2.19 6.37 5.97 6.37 11.06 0 5.724-2.187 9.915-11.43 21.898-4.966 6.44-8.005 10.638-9.253 12.783-.44.755-.95 1.368-1.133 1.362-.184-.01-1.116-1.076-2.072-2.38zm104.59-.218c-1.077-1.435-4.323-5.432-7.214-8.883-6.119-7.306-8.604-10.584-10.45-13.785-4.169-7.23-4.069-14.635.258-19.076 3.794-3.894 9.378-3.81 12.988.197 1.325 1.47 2.473 4.236 2.483 5.982.01 1.023.414 1.61.971 1.397.757-.29.856-1.525.38-4.766-.539-3.682-1.599-7.437-2.99-10.6a458.56 458.56 0 0 1-1.17-2.671c-.12-.283 1.21-.361 6.103-.361 4 0 6.257.104 6.257.29 0 .16-.516 1.527-1.146 3.038-1.943 4.657-2.869 7.94-3.188 11.302-.253 2.655-.232 3.181.137 3.549.644.643 1.123-.021 1.67-2.32.662-2.771 1.588-4.545 3.242-6.204 5.029-5.043 13.286-1.778 15.396 6.088.932 3.474.285 7.497-1.9 11.805-1.84 3.63-3.422 5.936-9.245 13.47-2.764 3.575-6.151 8.213-7.529 10.306-1.377 2.092-2.637 3.815-2.8 3.827-.162.013-1.176-1.15-2.253-2.586zm35.663-20.693c-4.063-6.798-4.626-7.808-5.203-9.338-.432-1.145-.565-2.03-.474-3.156.11-1.352.27-1.695 1.18-2.528 1.509-1.378 2.95-1.349 4.55.093.825.744 1.262.966 1.478.75.496-.494.001-2.49-1.047-4.226-.528-.875-.887-1.663-.798-1.752.259-.258 4.988-.186 4.988.076 0 .131-.385.946-.855 1.812-.47.866-.943 2.124-1.05 2.796-.18 1.12-.144 1.221.43 1.221.343 0 .701-.2.795-.444.232-.604 1.63-1.289 2.628-1.289 1.14 0 2.074.735 2.71 2.133.688 1.513.697 3.262.025 5.026-.582 1.526-6.942 11.906-7.296 11.906-.12 0-1.049-1.386-2.062-3.08zm-92.619-68.546c0-.151.443-1.289.985-2.528 1.927-4.406 3.358-10.113 3.358-13.389 0-1.645-.21-2.297-.744-2.297-.553 0-.886.771-1.081 2.506-.491 4.352-4.479 8.002-8.743 8.002-2.053 0-4.655-1.055-6.185-2.507-3.003-2.85-4.316-7.503-3.41-12.092 1.038-5.27 3.928-9.953 12.341-20.004 3.048-3.64 6.584-7.962 7.859-9.605 1.275-1.642 2.423-2.986 2.55-2.986.129 0 .958 1.137 1.842 2.527 1.715 2.695 3.888 5.644 9.948 13.505 8.496 11.02 10.764 16.036 9.927 21.955-.556 3.934-2.656 7.119-5.822 8.831-1.656.896-2.054.99-4.148.986-1.846 0-2.57-.138-3.56-.662-2.634-1.393-4.53-4.16-5.4-7.88-.727-3.107-1.899-3.46-1.899-.573 0 3.692 1.253 8.478 3.636 13.884.549 1.244.997 2.339.997 2.432 0 .093-2.801.17-6.225.17-3.746 0-6.226-.11-6.226-.275zM47.136 90.546c-.091-.091.273-1.111.81-2.268 1.8-3.888 3.052-8.434 3.48-12.637.244-2.389.018-3.419-.747-3.419-.591 0-.69.25-1.005 2.566-.579 4.25-4.51 7.824-8.612 7.831-5.942.01-10.508-5.83-9.975-12.758.332-4.32 2.535-9.145 6.619-14.495.988-1.295 4.084-5.086 6.878-8.425 2.795-3.338 6.045-7.335 7.222-8.882 1.178-1.548 2.18-2.813 2.228-2.813.048 0 1.056 1.462 2.242 3.25 1.185 1.787 4.6 6.434 7.59 10.326 10.313 13.43 12.21 17.141 11.955 23.384-.096 2.354-.247 3.046-1.026 4.702-1.889 4.017-5.275 6.407-9.059 6.393-2.326-.01-3.621-.542-5.445-2.243-1.524-1.423-2.725-3.575-3.249-5.82-.55-2.365-.88-3.016-1.519-3.016-.564 0-.58.122-.417 3.105.197 3.606.993 6.613 3.09 11.683.768 1.858 1.324 3.45 1.235 3.539-.213.213-12.082.21-12.295 0zm104.6-.133c0-.163.398-1.084.885-2.046 2.373-4.689 4.435-14.27 3.376-15.686-.703-.941-1.267-.382-1.476 1.467-.69 6.075-6.444 9.934-11.804 7.915-5.295-1.995-8.024-8.349-6.46-15.04.6-2.569 2.884-7.126 5.14-10.255 1.03-1.43 4.31-5.512 7.289-9.07 2.978-3.559 6.463-7.825 7.745-9.48 1.281-1.657 2.424-2.905 2.54-2.775.117.13 1.161 1.667 2.321 3.415 1.16 1.747 4.548 6.362 7.529 10.255 7.652 9.994 9.482 12.849 11.019 17.188.862 2.433 1.054 6.134.442 8.514-1.701 6.622-8.01 10.278-13.289 7.703-2.598-1.269-4.365-3.8-5.298-7.588-.52-2.114-.832-2.708-1.422-2.708-.633 0-.72.798-.414 3.775.353 3.436 1.295 6.83 3.043 10.966.706 1.673 1.285 3.2 1.285 3.395 0 .267-1.514.353-6.226.353-4.072 0-6.226-.103-6.226-.298zm-136.67-9.675c0-.083.335-.655.744-1.272s.93-1.74 1.158-2.495c.485-1.607.484-1.592.143-2.13-.213-.336-.489-.211-1.445.65-.893.805-1.431 1.065-2.208 1.065-3.145 0-4.427-2.878-3.038-6.821.311-.884 1.31-2.798 2.218-4.254a253.082 253.082 0 0 0 3.164-5.235c.831-1.424 1.65-2.635 1.819-2.691.168-.056.515.3.77.79.254.492 1.716 2.87 3.247 5.286 3.868 6.1 4.497 8.158 3.298 10.792-.68 1.495-1.58 2.133-3.007 2.133-.854 0-1.32-.204-1.985-.867-1.052-1.05-1.693-1.118-1.693-.18 0 .938.733 2.934 1.442 3.927.96 1.344.808 1.453-2.021 1.453-1.433 0-2.606-.068-2.606-.15zm-.19-28.46c-3.413-.673-6.776-4.184-6.418-6.7.077-.544.298-.67 1.31-.742 1.147-.083 1.25-.026 1.8 1.01 1.41 2.66 2.591 3.403 5.355 3.372 2.425-.026 3.78-.549 5.264-2.03 1.685-1.68 2.272-3.287 2.253-6.164-.034-5.238-2.64-8.666-6.588-8.666-1.978 0-3.565.71-5.287 2.369-1.173 1.13-1.213 1.143-1.93.675-.403-.264-.788-.634-.856-.823-.14-.39.843-11.365 1.071-11.958.119-.308 1.461-.37 6.743-.307l6.594.078v2.6l-5.344.079c-3.831.057-5.408.179-5.57.433-.254.4-.32 4.361-.075 4.605.087.087.966-.097 1.954-.409 2.304-.726 4.349-.53 6.776.65 3.562 1.733 5.294 4.73 5.522 9.551.311 6.58-2.776 11.19-8.272 12.353-1.72.364-2.554.37-4.302.024z" fill="#575757"/><path d="M0 157.44V0h217.76v314.88H0V157.44zm212.57 156.22c1.633-.958 3.035-2.51 3.846-4.257l.61-1.315v-301l-.808-1.641c-.941-1.912-2.332-3.227-4.421-4.181l-1.49-.68-101.9.073-101.9.074-1.328.779c-1.467.86-3.136 2.573-3.94 4.043-.503.918-.524 6.893-.524 152.04v151.08l.654 1.22c1.17 2.184 3.281 3.909 5.427 4.432.478.117 46.67.193 102.65.169l101.78-.044 1.336-.784zm-24.821-23.458c-.086-.225-.115-.777-.063-1.228l.094-.818 5.502-.145 5.501-.144.209-2.293c.268-2.957.127-3.125-2.017-2.399-4.27 1.446-9.306-.873-11.292-5.201-1.137-2.478-1.457-5.407-.89-8.142.988-4.767 3.247-7.6 6.958-8.725 3.456-1.047 7.423-.338 9.593 1.715 1.075 1.017 2.217 3.273 2.217 4.38 0 .827-.064.877-1.137.877-1.059 0-1.212-.112-2.244-1.642-1.401-2.077-2.67-2.764-5.104-2.763-2.173 0-3.743.609-5.179 2.004-1.66 1.613-2.382 3.542-2.36 6.3.04 5.427 3.215 9.208 7.324 8.722 1.77-.21 2.896-.777 4.543-2.29 1.178-1.084 1.333-1.147 1.978-.802.385.205.755.518.822.694.168.44-.844 11.6-1.087 11.993-.133.214-2.305.316-6.703.316-5.345 0-6.536-.073-6.665-.409zm-135.93-17.064c-1.162-1.535-4.524-5.674-7.47-9.197-2.948-3.524-6.046-7.331-6.884-8.462-5.068-6.83-7.11-12.743-6.09-17.625.79-3.782 2.635-6.51 5.455-8.069 1.38-.763 1.8-.849 4.142-.849 2.318 0 2.755.087 3.953.79 2.04 1.197 3.626 3.17 4.301 5.35.318 1.026.578 2.166.578 2.533 0 1.033.302 1.582.869 1.582.666 0 .868-.562.868-2.406-.001-3.358-1.293-8.596-3.218-13.048-.618-1.43-1.124-2.698-1.125-2.817 0-.12 2.751-.217 6.114-.217h6.115l-.157.65c-.087.358-.8 2.21-1.586 4.117-1.72 4.174-2.3 6.383-2.652 10.099-.293 3.08-.209 3.623.559 3.623.556 0 .852-.612 1.603-3.31.963-3.46 2.705-5.878 5.15-7.147 1.713-.89 5.02-.903 6.933-.027 2.16.988 4.327 3.23 5.43 5.618.792 1.714.976 2.507 1.09 4.692.172 3.273-.325 5.417-2.083 8.984-1.719 3.487-3.671 6.34-9.387 13.722-2.645 3.416-5.902 7.836-7.236 9.822-1.335 1.986-2.592 3.785-2.794 3.997-.3.318-.743-.112-2.478-2.404zm105.92 1.513a321.4 321.4 0 0 1-2.537-3.25c-.857-1.112-3.848-4.752-6.646-8.089-5.94-7.083-8.242-10.192-9.988-13.493-3.977-7.52-3.538-14.398 1.194-18.712 2.757-2.513 6.346-3.05 9.586-1.436 2.921 1.456 4.434 3.627 5.027 7.21.352 2.128.77 2.669 1.557 2.018 1.271-1.053-.518-10.143-3.064-15.562-.626-1.334-1.139-2.472-1.139-2.53 0-.056 2.802-.104 6.226-.104 3.53 0 6.225.114 6.225.262 0 .144-.396 1.143-.88 2.22-3.013 6.698-4.791 16.007-3.059 16.007.6 0 .984-.61 1.315-2.088.896-3.988 2.666-6.74 5.253-8.168 1.363-.752 1.857-.864 3.742-.853 1.78.011 2.458.158 3.764.814 5.245 2.637 7.549 8.979 5.628 15.494-1.192 4.047-3.76 8.13-11.018 17.52-2.806 3.63-6.21 8.259-7.564 10.285s-2.502 3.683-2.553 3.683c-.05 0-.531-.552-1.07-1.228zm35.507-20.51c-.423-.835-1.684-2.947-2.802-4.695-3.55-5.549-4.512-8.396-3.583-10.614.48-1.145 1.945-2.238 3.004-2.24.948 0 2.047.578 2.55 1.344.652.992 1.59.902 1.59-.153 0-1.066-.693-3.022-1.442-4.072-.321-.45-.585-.962-.585-1.136 0-.407 4.528-.431 4.78-.026.098.16-.092.671-.424 1.136-1.173 1.643-1.834 4.375-1.16 4.79.165.103.817-.28 1.449-.849 2.555-2.303 5.35-.425 5.34 3.587-.01 2.214-.518 3.327-4.134 8.997-1.28 2.008-2.539 4.056-2.794 4.55-.256.493-.59.897-.743.897-.152 0-.623-.682-1.046-1.517zm-93.638-70.084c0-.137.442-1.21.983-2.384 2.051-4.454 3.453-10.287 3.302-13.742-.078-1.783-.147-1.979-.728-2.06-.688-.099-.759.068-1.086 2.546-.405 3.06-3.06 6.39-5.854 7.34-4.495 1.527-9.211-.75-11.466-5.538-.798-1.694-.932-2.325-1.028-4.853-.133-3.477.321-5.559 1.96-8.987 1.945-4.073 3.983-6.869 11.751-16.128 2.4-2.86 5.388-6.532 6.642-8.16 1.253-1.63 2.355-2.954 2.448-2.945.093.01 1.184 1.56 2.424 3.448s4.498 6.337 7.24 9.887c5.948 7.704 8.152 10.871 9.71 13.955 1.7 3.362 2.148 4.883 2.298 7.805.227 4.432-.882 7.445-3.714 10.087-3.586 3.346-8.152 3.592-11.469.618-1.749-1.569-2.83-3.501-3.567-6.378-.647-2.523-.755-2.752-1.308-2.752-.737 0-.888.837-.66 3.67.278 3.44.974 6.039 2.846 10.63.79 1.937 1.437 3.673 1.437 3.856 0 .24-1.684.333-6.081.333-3.345 0-6.08-.112-6.08-.248zm-52.41-93.74c0-.216.442-1.354.983-2.528 2.594-5.634 4.255-14.468 2.926-15.568-.705-.583-1.208.111-1.417 1.955-.717 6.323-6.911 10.093-12.38 7.535-4.396-2.056-6.873-7.315-6.038-12.814.921-6.06 3.23-9.825 13.711-22.359 2.977-3.56 6.16-7.488 7.072-8.729.912-1.24 1.793-2.26 1.958-2.265.165-.01 1.202 1.378 2.305 3.074 1.103 1.696 4.562 6.425 7.686 10.508 6.156 8.046 7.92 10.579 9.42 13.527 2.803 5.503 3.176 10.325 1.14 14.706-2.22 4.778-8.018 7.196-12.234 5.1-2.663-1.324-4.303-3.656-5.297-7.532-.656-2.557-.734-2.706-1.424-2.706-.788 0-.871.527-.576 3.64.333 3.51 1.044 6.133 2.89 10.658.79 1.938 1.436 3.674 1.436 3.857 0 .24-1.683.333-6.08.333-4.933 0-6.081-.074-6.081-.393zm104.75.226c-.092-.091.265-1.11.792-2.265 1.935-4.237 3.621-10.853 3.621-14.21 0-1.449-.715-2.428-1.312-1.796-.198.21-.495 1.162-.66 2.115-.415 2.392-1.032 3.717-2.444 5.245-5.883 6.368-15.437 1.701-16.063-7.845-.266-4.063 1.27-8.561 4.653-13.633 1.08-1.616 4.658-6.168 7.953-10.115 3.295-3.946 6.903-8.375 8.018-9.84 1.115-1.466 2.157-2.657 2.317-2.648.159.01 1.23 1.472 2.381 3.25 1.15 1.778 4.576 6.472 7.612 10.432 7.62 9.938 9.66 13.134 10.98 17.197 2.128 6.55-.2 13.412-5.41 15.94-1.86.904-4.839 1.077-6.647.388-3.104-1.182-4.866-3.663-6.303-8.875-.364-1.318-.578-1.661-1.039-1.661-.86 0-.952.583-.608 3.837.376 3.549 1.298 6.846 3.079 11.006.73 1.703 1.25 3.22 1.157 3.371-.18.292-11.79.395-12.078.108zm-136.6-9.893c0-.13.385-.946.855-1.812 1.125-2.072 1.446-3.93.728-4.205-.359-.137-.703.027-1.123.536-1.39 1.686-3.146 1.85-4.691.436-.82-.75-1.07-1.225-1.187-2.268-.279-2.468.303-3.797 5.23-11.948 2.417-4.002 2.492-4.107 2.662-3.756.077.16 1.64 2.69 3.476 5.625 3.84 6.14 4.438 7.667 3.915 9.998-.737 3.285-3.48 4.327-5.522 2.097-1.684-1.84-1.996.399-.465 3.33.541 1.034.91 1.954.82 2.043-.258.258-4.698.187-4.698-.076zm-1.915-28.812c-1.724-.633-3.563-2.33-4.347-4.01-.994-2.131-.923-2.646.398-2.87 1.174-.198 1.05-.293 2.685 2.048 1.026 1.468 2.17 2.103 4.153 2.306 3.028.31 5.74-1.17 7.277-3.966.793-1.443.867-1.815.863-4.323 0-2.41-.106-2.967-.842-4.568-2.183-4.747-6.901-5.666-10.698-2.084-1.44 1.358-1.507 1.387-2.28.983-.643-.336-.796-.615-.796-1.453 0-2.342.926-10.943 1.216-11.291.242-.292 1.74-.358 6.715-.298l6.402.078v2.6l-5.501.145-5.502.144-.084 2.528c-.046 1.39.02 2.525.145 2.523.126 0 .75-.192 1.387-.42 1.712-.616 4.75-.552 6.6.138 4.701 1.755 7.38 8.007 5.898 13.77-.985 3.832-2.673 6.21-5.33 7.506-1.397.683-2.066.816-4.408.878-1.909.05-3.128-.062-3.952-.365z" fill="#474747"/><path d="M0 157.44V0h217.76v314.88H0V157.44zm212.44 156.3c1.778-.949 3.799-3.342 4.313-5.108.384-1.316.426-18.95.36-151.7l-.073-150.21-.774-1.463c-.904-1.71-2.704-3.425-4.398-4.193-1.165-.527-4.018-.542-103-.549L7.058.507l-1.773.884c-2.009 1.001-3.034 2.074-4.014 4.2L.593 7.062l.073 150.77.073 150.77.678 1.3c1.154 2.213 3.09 3.873 5.073 4.347.5.12 46.776.198 102.84.174l101.93-.044 1.19-.636zm-24.443-23.543c-.38-.378-.447-1.082-.172-1.796.152-.394.912-.457 5.492-.457 4.959 0 5.336-.038 5.615-.559.388-.723.39-4.551 0-4.79-.163-.1-.912.054-1.665.344-1.846.71-4.731.65-6.513-.135-2.012-.888-4.053-2.944-5.012-5.048-.684-1.502-.84-2.286-.937-4.724-.28-6.959 2.735-11.293 8.545-12.287 3.777-.646 7.43.783 9.168 3.588.503.811.856 1.797.876 2.446.032 1.056 0 1.09-1.056 1.178-.976.08-1.141-.01-1.593-.862-.863-1.633-2.45-3.045-3.843-3.42-2.721-.732-6.166.468-7.835 2.73-2.472 3.35-2.156 8.951.687 12.174 1.408 1.596 2.56 2.143 4.507 2.143 1.886 0 3.28-.62 4.993-2.218 1.388-1.295 1.428-1.31 2.142-.844.575.376.728.717.728 1.62 0 1.415-.834 10.407-1.01 10.903-.182.507-12.613.521-13.12.014zm-31.285-17.051c-1.124-1.485-4.54-5.685-7.59-9.334-10.673-12.764-13.096-17.146-13.093-23.678 0-5.148 2.56-9.3 6.677-10.839 5.193-1.94 10.922 1.696 11.557 7.335.209 1.852.53 2.493 1.25 2.493.77 0 .982-1.028.772-3.718-.237-3.025-1.627-8.295-3.059-11.592-.655-1.51-1.191-2.842-1.192-2.961 0-.12 2.736-.217 6.08-.217 3.345 0 6.081.066 6.081.147 0 .081-.572 1.482-1.27 3.114-2.362 5.517-3.548 10.461-3.31 13.797.075 1.052.203 1.302.702 1.373.673.096.978-.482 1.549-2.937.459-1.97 1.783-4.46 3.075-5.783 1.555-1.593 3.317-2.309 5.651-2.295 6.134.035 10.836 6.53 9.831 13.578-.77 5.397-3.058 9.295-12.892 21.957-2.067 2.662-4.849 6.469-6.18 8.46-1.332 1.991-2.46 3.66-2.509 3.71-.048.049-1.006-1.125-2.13-2.61zm-104.87-.161c-1.035-1.385-4.438-5.573-7.563-9.307-6.661-7.96-9.108-11.318-10.84-14.877-1.524-3.128-2.146-5.605-2.152-8.564-.013-6.843 4.648-11.959 10.42-11.436 4.097.37 6.925 3.213 7.829 7.868.387 1.996.535 2.323 1.087 2.403 1.016.147 1.283-1 .92-3.95-.55-4.461-1.815-8.882-3.503-12.24-.457-.908-.831-1.786-.831-1.95 0-.193 2.107-.296 6.08-.296 3.345 0 6.081.11 6.081.246 0 .135-.581 1.632-1.293 3.325-1.883 4.484-2.715 7.436-3.082 10.935-.359 3.415-.272 3.982.608 3.982.683 0 .954-.532 1.61-3.16.594-2.38 1.331-3.808 2.77-5.365 2.518-2.725 6.13-3.345 9.59-1.646 5.088 2.5 7.353 8.29 5.726 14.64-1.17 4.559-3.43 8.248-11.182 18.252-2.654 3.425-5.934 7.87-7.29 9.88-1.354 2.009-2.607 3.68-2.783 3.715-.176.034-1.167-1.07-2.202-2.455zm141.59-18.761c-.398-.751-1.624-2.799-2.724-4.55-2.973-4.733-4.024-7.088-4.05-9.082-.028-1.984.572-3.06 2.05-3.676 1.31-.546 2.401-.3 3.435.777 2.023 2.107 2.59-.035.877-3.315l-.992-1.899h4.836l-.992 1.899c-.638 1.221-.992 2.303-.992 3.033 0 1.396.481 1.477 1.678.283 1.578-1.574 3.31-1.391 4.575.483.94 1.394 1.114 3.188.488 5.04-.465 1.374-6.95 12.322-7.32 12.358-.08.01-.471-.6-.869-1.351zm-93.728-70.348c.083-.199.696-1.646 1.36-3.217 1.439-3.397 2.493-7.372 2.925-11.026.355-3.005.105-3.987-.974-3.83-.519.077-.666.404-.955 2.121-.581 3.451-2.096 5.727-4.815 7.229-1.349.745-1.827.85-3.856.845-1.937 0-2.556-.13-3.778-.769-2.854-1.492-4.928-4.344-5.67-7.793-.464-2.158-.142-6.026.705-8.481 1.66-4.812 3.526-7.53 12.788-18.633 2.98-3.572 6.155-7.497 7.056-8.724.902-1.226 1.777-2.233 1.946-2.238.17-.01 1.277 1.452 2.462 3.24 1.184 1.786 4.363 6.109 7.064 9.605 8.154 10.554 10.855 14.93 11.873 19.238 1.446 6.122-.884 12.002-5.711 14.409-1.461.728-2.1.874-3.823.874-4.461 0-7.441-2.84-8.766-8.35-.518-2.159-.793-2.627-1.54-2.627-.796 0-.914.856-.56 4.06.39 3.543 1.266 6.663 3.022 10.765.725 1.694 1.319 3.21 1.319 3.371 0 .187-2.194.292-6.112.292-4.777 0-6.079-.08-5.96-.361zM47.306 89.99c2.409-5.288 3.709-9.661 4.225-14.215.245-2.167.222-2.696-.142-3.25-.819-1.247-1.374-.698-1.81 1.793-.43 2.44-1.053 3.75-2.547 5.343-1.73 1.845-3.742 2.725-6.199 2.714-4.313-.021-8.035-3.35-9.286-8.305-.553-2.19-.2-6.557.738-9.14 1.627-4.481 4-7.922 12.45-18.055 3.048-3.655 6.355-7.717 7.348-9.028.994-1.31 1.863-2.383 1.933-2.383.069 0 1.153 1.528 2.408 3.394 1.255 1.867 4.652 6.483 7.548 10.258 6.298 8.209 8.056 10.776 9.755 14.248 2.54 5.191 2.77 9.523.734 13.842-1.528 3.242-4.656 5.557-7.904 5.851-4.56.413-7.914-2.511-9.482-8.268-.692-2.539-1.196-3.227-1.923-2.624-1.018.842.097 7.732 2.062 12.75.58 1.48 1.219 3.017 1.421 3.414.202.398.458 1.015.568 1.373l.201.65h-6.131c-4.8 0-6.096-.079-5.967-.362zm104.72.113c0-.137.442-1.21.983-2.384 2.748-5.968 4.263-14.708 2.717-15.676-.75-.469-1.09.052-1.383 2.123-1.112 7.85-9.702 10.967-15.057 5.462-4.196-4.312-4.45-11.037-.685-18.153 1.778-3.36 3.705-5.962 10.044-13.557 2.998-3.592 6.451-7.857 7.673-9.477 1.223-1.62 2.305-2.953 2.406-2.961.1-.01 1.293 1.642 2.649 3.668 1.356 2.026 4.766 6.664 7.578 10.307 5.791 7.502 7.706 10.286 9.353 13.598 1.406 2.827 1.721 3.783 2.071 6.283.752 5.368-1.552 10.442-5.81 12.795-1.373.759-1.822.855-4.008.855-2.155 0-2.627-.097-3.797-.784-2.502-1.467-3.874-3.523-4.912-7.356-.672-2.481-1.118-3.161-1.88-2.87-.444.17-.48.512-.326 3.043.096 1.567.44 3.893.767 5.167.464 1.814 2.473 7.173 3.675 9.805.13.283-1.162.36-5.947.36-3.361 0-6.111-.11-6.111-.247zm-136.45-9.447c-.089-.09.28-1.009.82-2.043 1.113-2.13 1.352-4.15.49-4.15-.27 0-.9.394-1.4.877-.513.496-1.336.941-1.896 1.025-1.89.282-3.75-1.633-3.733-3.843.012-1.537 1.351-4.581 3.658-8.314 1.277-2.066 2.719-4.456 3.204-5.313l.883-1.557.424.69c.232.38 1.607 2.576 3.054 4.88 3.473 5.528 4.111 6.93 4.115 9.041 0 1.87-.478 3.034-1.623 3.933-1.145.897-2.24.772-3.549-.408-.617-.556-1.255-1.011-1.417-1.011-.863 0-.484 2.557.672 4.529.389.664.707 1.346.707 1.516 0 .32-4.099.457-4.409.148zM13.674 51.69c-2.75-.978-4.812-3.302-5.043-5.68-.08-.828-.028-.871 1.133-.955 1.15-.083 1.248-.028 1.783 1.01.687 1.333 1.927 2.544 3.028 2.96 1.082.407 3.473.39 4.9-.037 1.782-.533 3.84-2.559 4.576-4.507.827-2.19.699-5.827-.284-8.07-.776-1.77-2.652-3.608-4.202-4.119-2.18-.717-4.902.106-6.882 2.08-1.237 1.235-1.658 1.331-2.374.543-.473-.522-.471-.862.028-6.428l.528-5.876 6.732-.078 6.732-.078V24.776h-5.321c-3.927 0-5.401.095-5.624.364-.344.413-.575 4.705-.27 5.01.11.109.932-.033 1.829-.313 2.217-.696 4.969-.493 6.956.514 1.91.967 3.978 3.275 4.73 5.28 1.562 4.165.768 9.767-1.875 13.22-2.174 2.84-7.347 4.165-11.08 2.838z" fill="#373737"/><path d="M0 157.44V0h217.76v314.88H0V157.44zm212.25 156.6c1.75-.965 3.184-2.433 4.032-4.126l.89-1.778V7.076l-.696-1.494c-.839-1.795-2.6-3.57-4.366-4.398l-1.296-.607-102 .01c-99.178.01-102.03.02-103.2.549-1.723.78-3.433 2.433-4.287 4.142L.587 6.76l.006 150.81.006 150.81.588 1.3c1.01 2.232 3.174 4.114 5.335 4.642.478.117 46.8.192 102.94.168 86.26-.037 102.18-.105 102.79-.443zm-24.268-24.8l.09-1.089 5.344-.079c3.831-.057 5.408-.179 5.57-.433.327-.515.285-4.766-.05-4.973-.156-.096-.877.026-1.602.272-.726.246-2.206.447-3.29.447-2.493 0-4.965-1.14-6.678-3.081-3.73-4.229-3.39-12.89.664-16.934 2.515-2.51 8.056-3.382 11.255-1.774 2.02 1.015 3.657 3.1 4.122 5.251l.203.939h-1.326c-.73 0-1.326-.108-1.326-.24 0-.131-.398-.838-.884-1.57-1.262-1.901-2.898-2.641-5.44-2.46-4.307.308-6.945 3.143-7.223 7.761-.323 5.371 2.652 9.59 6.763 9.59 1.865 0 4.359-1.115 5.49-2.455.664-.788.855-.866 1.533-.623.77.276.774.288.686 2.864-.05 1.423-.245 4.148-.435 6.054l-.345 3.467-6.606.078-6.605.078.09-1.089zm-136.48-16.76c-1.32-1.708-4.425-5.51-6.9-8.45-8.521-10.123-11.527-14.725-12.762-19.542-1.66-6.475.712-12.63 5.751-14.924 1.91-.869 4.936-.862 6.723.015 2.822 1.387 4.638 3.954 5.183 7.327.16.997.5 2.016.753 2.264.417.41.515.384 1.053-.271.528-.642.572-.963.398-2.884-.384-4.233-1.956-9.964-3.655-13.331-.452-.895-.74-1.707-.642-1.806.264-.263 11.607-.219 11.771.046.077.124-.32 1.262-.881 2.528-2.907 6.557-4.5 14.604-3.117 15.748.7.58 1.42-.405 1.984-2.717.936-3.837 2.642-6.297 5.254-7.571 1.358-.663 1.85-.751 3.672-.656 4.775.25 8.248 3.576 9.377 8.977 1.027 4.916-.851 10.294-6.181 17.698-1.144 1.589-3.903 5.229-6.132 8.089-2.23 2.86-5.134 6.85-6.456 8.868-1.322 2.017-2.49 3.675-2.598 3.683-.107.01-1.275-1.383-2.595-3.09zm105.4.867c-.895-1.232-4.076-5.164-7.07-8.739-7.158-8.545-9.68-11.958-11.419-15.455-1.84-3.7-2.411-6.127-2.243-9.533.226-4.583 2.027-7.786 5.428-9.654 1.694-.93 2.1-1.033 4.054-1.027 1.777.01 2.438.146 3.638.772 2.784 1.452 4.54 4.061 5.002 7.434.263 1.918.615 2.508 1.335 2.232.821-.314 1.02-1.47.716-4.15-.492-4.33-1.726-8.69-3.486-12.327-.452-.935-.752-1.812-.667-1.95.237-.382 11.704-.322 11.704.062 0 .172-.728 2.128-1.618 4.348-.89 2.22-1.865 5.23-2.168 6.692-.67 3.24-.749 7-.15 7.229.772.296 1.353-.543 1.907-2.757.674-2.689 1.416-4.199 2.838-5.773 4.604-5.094 13.047-2.191 15.234 5.239.537 1.823.605 5.524.137 7.475-.509 2.12-2.7 6.553-4.736 9.576-1.021 1.516-4.018 5.551-6.66 8.967-2.642 3.416-5.924 7.869-7.293 9.894-1.369 2.026-2.572 3.684-2.673 3.684-.1 0-.915-1.008-1.81-2.24zm36.501-19.21c-.34-.676-1.652-2.878-2.915-4.895-2.839-4.53-3.718-6.607-3.718-8.778 0-1.461.099-1.721.984-2.605.804-.802 1.206-.983 2.187-.983.98 0 1.392.186 2.245 1.011 1.176 1.14 1.318 1.185 1.822.58.466-.56-.03-2.673-1.032-4.386-.387-.664-.704-1.282-.704-1.373 0-.09.988-.165 2.195-.165 1.208 0 2.153.1 2.1.22-.053.122-.455.936-.894 1.81-1.572 3.135-.932 5.172 1.004 3.197.663-.677 1.133-.894 1.935-.894 2.055 0 3.215 1.587 3.215 4.396 0 1.903-.822 3.682-3.991 8.645-1.283 2.009-2.542 4.056-2.798 4.55-.255.493-.59.897-.741.897-.152 0-.554-.552-.894-1.227zm-93.585-70.015c-.099-.1.138-.806.526-1.57 1.88-3.701 3.502-9.496 3.8-13.574.152-2.098.105-2.542-.315-2.96-.978-.976-1.468-.433-1.873 2.074-.376 2.326-1.16 3.933-2.655 5.44-3.533 3.56-8.937 3.394-12.424-.38-1.99-2.154-3.191-5.425-3.191-8.694 0-4.008 2.5-9.754 6.583-15.13 1.396-1.839 4.761-5.998 7.478-9.245 2.717-3.246 5.753-6.974 6.746-8.285.993-1.31 1.897-2.381 2.009-2.379.112 0 1.1 1.376 2.194 3.053 1.095 1.677 4.4 6.192 7.347 10.034 7.941 10.356 10.287 14.069 11.542 18.27.698 2.336.69 6.399-.014 8.504-2.664 7.953-11.63 10.174-15.922 3.944-.943-1.368-1.599-3.016-2.45-6.153-.354-1.3-1.012-1.765-1.697-1.197-.356.294-.4.833-.24 2.966.107 1.434.387 3.451.623 4.484.457 2.006 2.442 7.52 3.357 9.326.304.602.476 1.219.38 1.372-.188.306-11.502.4-11.804.1zm-52.617-93.86c0-.085.182-.443.404-.795 2.24-3.548 4.945-15.086 3.965-16.914-.762-1.42-2.052-.354-2.052 1.694 0 1.339-1.074 3.834-2.23 5.181-.647.754-1.757 1.57-2.821 2.071-4.79 2.26-10.15-.217-12.361-5.716-.582-1.446-.676-2.165-.657-5.01.019-2.933.123-3.597.882-5.665 1.73-4.716 3.934-7.924 12.354-17.985 2.974-3.554 6.275-7.616 7.335-9.028 1.06-1.41 1.962-2.565 2.005-2.565.042 0 1.081 1.527 2.309 3.394 1.228 1.867 4.549 6.393 7.38 10.057 6.408 8.297 8.106 10.773 9.894 14.438 2.361 4.836 2.71 8.985 1.11 13.202-.804 2.123-3.03 4.576-5.039 5.556-5.52 2.695-10.752-.382-12.513-7.36-.629-2.493-.893-2.943-1.66-2.834-.605.086-.63.212-.586 3.005.064 4.144 1.057 7.586 4.346 15.067.124.282-1.172.36-5.953.36-3.361 0-6.112-.07-6.112-.154zm104.82.046c0-.06.436-1.067.97-2.24 1.798-3.952 2.85-7.776 3.35-12.18.317-2.779.054-3.96-.882-3.96-.666 0-.994.65-1.227 2.432-.805 6.147-6.864 9.69-12.201 7.135-2.832-1.356-4.796-3.904-5.663-7.343-.584-2.317-.212-6.57.816-9.34 1.674-4.507 3.866-7.685 11.997-17.385 2.85-3.4 6.166-7.478 7.368-9.062 1.202-1.583 2.226-2.836 2.276-2.784.05.052 1.032 1.523 2.183 3.27 1.15 1.749 4.449 6.233 7.33 9.967 9.884 12.815 12.065 16.888 12.056 22.521-.01 5.099-2.103 8.814-6.14 10.89-1.25.642-1.927.79-3.702.804-1.882.015-2.377-.096-3.713-.835-2.42-1.337-3.881-3.519-4.962-7.411-.632-2.275-1.15-3.039-1.871-2.763-.36.138-.457.637-.457 2.363 0 3.629 1.183 8.22 3.438 13.346.498 1.132.906 2.2.906 2.372 0 .214-1.871.312-5.936.312-3.265 0-5.936-.049-5.936-.108zM16.011 79.51c1.045-1.682 1.409-2.79 1.309-3.985-.115-1.373-.593-1.552-1.453-.547-2.311 2.702-5.829 1.317-5.808-2.287.012-2.088.874-4.123 3.57-8.435 1.286-2.057 2.657-4.357 3.046-5.112.389-.755.803-1.366.92-1.358.35.023 6.683 10.478 7.156 11.816.99 2.798.288 5.516-1.673 6.471-.94.459-1.224.483-1.976.172-.484-.2-1.084-.674-1.334-1.055-.289-.44-.676-.66-1.063-.606-.517.074-.601.268-.557 1.284.029.664.414 1.885.867 2.744.448.851.86 1.645.913 1.764.054.12-.956.217-2.246.217h-2.344l.673-1.083zm-2.043-27.702c-2.705-.829-5.258-3.709-5.276-5.952-.01-.731.083-.795 1.117-.795.97 0 1.17.116 1.477.853.446 1.075 2.166 2.858 3.098 3.211.39.148 1.588.27 2.66.27 4.535 0 7.644-3.338 7.672-8.233.029-5.211-2.943-9.111-6.928-9.094-1.798.01-3.484.764-5.174 2.318-1.288 1.184-1.334 1.201-2.044.737-.4-.261-.726-.552-.726-.648 0-.392.887-9.584 1.035-10.724l.16-1.233 6.569.078 6.569.078v2.022l-5.5.145-5.498.144-.186.867c-.362 1.693-.278 4.197.147 4.36.22.084 1.155-.066 2.078-.334 5.668-1.643 10.997 2.167 11.991 8.575.875 5.638-1.997 11.606-6.306 13.105-2.005.698-5.11.81-6.935.25z" fill="#272727"/><path d="M0 157.44V0h217.76v314.88H0V157.44zm212.87 156.35c1.414-.877 3.074-2.747 3.742-4.215.53-1.164.544-5.061.544-151.99 0-146-.017-150.83-.534-151.97-.756-1.66-2.206-3.21-3.919-4.19l-1.47-.841H6.553l-1.3.628C3.601 2.01 1.842 3.759 1.14 5.304.605 6.478.59 10.074.585 157.524c-.006 134.95.041 151.13.437 152.08.948 2.264 3.079 4.22 5.127 4.708.52.123 47.007.205 103.31.18l102.36-.043 1.058-.657zm-24.947-24.476v-1.011h5.299c3.735 0 5.402-.102 5.646-.347.423-.421.481-5.314.066-5.57-.154-.095-.708.058-1.23.342-.7.38-1.596.514-3.411.513-2.116 0-2.672-.112-3.963-.788-5.486-2.87-7.178-9.985-3.943-16.577 1.49-3.034 4.12-4.684 7.87-4.935 2.64-.178 4.126.178 6.017 1.44 1.531 1.02 2.977 3.255 2.989 4.617.01.708-.098.795-.948.795-.83 0-1.087-.198-1.955-1.5-1.48-2.218-2.233-2.66-4.755-2.787-2.665-.134-3.94.274-5.583 1.784-1.964 1.806-2.48 3.038-2.616 6.258-.1 2.32-.017 3.013.531 4.478 2.004 5.36 7.678 6.649 11.552 2.625 1.125-1.169 1.467-1.254 2.12-.531.415.46.408 1.022-.074 6.283-.29 3.178-.54 5.81-.556 5.85-.015.04-2.958.072-6.541.072h-6.515v-1.011zM51.973 272.92c-1.115-1.47-4.327-5.414-7.139-8.765-9.714-11.578-12.102-15.364-13.155-20.851-.523-2.728-.516-3.868.037-6 .974-3.753 2.634-5.973 5.53-7.395 1.545-.76 2.234-.93 3.7-.916 4.328.041 7.86 3.35 8.443 7.908.249 1.949.563 2.582 1.28 2.582.96 0 1.254-1.039 1.061-3.75-.231-3.253-1.567-8.424-3.055-11.827-.655-1.497-1.19-2.764-1.19-2.816 0-.052 2.621-.095 5.825-.095 5.416 0 5.813.035 5.663.505-.09.278-.756 1.948-1.482 3.71-1.79 4.346-2.493 7.193-2.686 10.872-.146 2.79-.111 3.119.352 3.296.91.348 1.436-.34 2.043-2.67 1.393-5.34 4.046-8.102 8.084-8.414 3.638-.28 7.09 1.961 9.02 5.86.927 1.87 1.076 2.468 1.199 4.815.318 6.073-1.814 10.261-11.805 23.191-2.824 3.655-6.14 8.172-7.368 10.038-1.229 1.867-2.255 3.395-2.282 3.395-.026 0-.96-1.203-2.074-2.673zm104.74.016c-1.117-1.478-4.46-5.594-7.427-9.145-8.576-10.264-10.698-13.41-12.312-18.251-2.371-7.113.457-14.373 6.302-16.173 2.36-.728 3.878-.566 6.223.664 2.631 1.38 4.3 3.91 4.712 7.141.227 1.78.528 2.311 1.309 2.311.915 0 1.222-1.048 1.008-3.442-.388-4.325-1.911-9.865-3.681-13.385l-.835-1.66h5.94c3.267 0 5.94.045 5.94.101 0 .056-.596 1.519-1.324 3.25-1.825 4.341-2.706 7.537-3.039 11.027-.287 3.008-.103 4.115.681 4.105.782-.01 1.139-.588 1.692-2.742 1.36-5.293 4.03-8.126 7.976-8.46 6.77-.574 12.093 7.366 10.088 15.046-1.3 4.976-3.416 8.369-12.777 20.482-2.248 2.908-5.03 6.718-6.18 8.465-1.152 1.748-2.132 3.218-2.18 3.266-.046.048-.999-1.121-2.116-2.6zm36.985-18.478c-.208-.502-1.415-2.55-2.682-4.55-3.005-4.745-3.98-6.84-4.15-8.91-.108-1.336-.018-1.845.463-2.606 1.124-1.78 2.97-1.98 4.613-.498 1.245 1.122 1.89 1.262 2.331.505.174-.297.299-.353.304-.135.019.82.918.671 2.039-.339 1.355-1.22 2.43-1.345 3.612-.416 1.603 1.257 2.028 3.736 1.068 6.231-.291.757-1.92 3.576-3.62 6.265-1.7 2.69-3.09 4.997-3.09 5.128 0 .571-.541.16-.888-.675zm.335-18.044c-.192-.775-.668-1.893-1.057-2.486-.388-.592-.707-1.145-.707-1.228 0-.083.99-.15 2.2-.15h2.2l-.651 1.083c-.359.596-.873 1.782-1.143 2.637l-.491 1.553-.35-1.409zM99.9 183.864c0-.085.31-.767.69-1.517 1.839-3.637 3.654-10.748 3.654-14.314 0-1.866-.307-2.503-1.206-2.503-.671 0-.993.677-1.202 2.528-.576 5.108-5.05 8.672-9.806 7.81-4.111-.745-6.933-3.836-7.953-8.712-1.088-5.2 1.14-11.188 6.949-18.67.802-1.032 3.683-4.542 6.403-7.799 2.72-3.257 5.777-7.027 6.793-8.377 1.017-1.35 1.941-2.562 2.056-2.693.114-.13 1.18 1.235 2.368 3.034 1.189 1.798 4.425 6.195 7.192 9.77 10.042 12.973 12.15 16.917 12.15 22.737 0 3.84-1.184 6.768-3.654 9.04-4.376 4.024-10.452 3.119-13.229-1.972-.436-.8-1.05-2.456-1.364-3.682-.649-2.53-.992-3.078-1.852-2.956-.524.075-.617.318-.696 1.82-.191 3.598.903 8.192 3.256 13.675.569 1.325 1.034 2.527 1.034 2.672 0 .15-2.498.263-5.79.263-3.186 0-5.792-.069-5.792-.154zM47.575 89.917c.085-.278.63-1.578 1.212-2.888 1.385-3.121 2.735-8.515 2.948-11.772.153-2.349.114-2.65-.404-3.113-.33-.294-.778-.434-1.052-.329-.494.189-.604.52-.9 2.69-.446 3.263-2.992 6.418-5.981 7.408-5.183 1.717-10.674-2.312-11.868-8.71-.857-4.592 1.213-10.617 5.758-16.757 1.045-1.412 4.395-5.556 7.445-9.21 3.05-3.655 6.362-7.717 7.36-9.028.997-1.31 1.863-2.383 1.925-2.383.062 0 1.088 1.462 2.282 3.25 1.193 1.787 4.472 6.24 7.286 9.894 9.54 12.389 11.639 16.209 11.92 21.696.207 4.044-.79 6.951-3.253 9.479-3.773 3.873-9.465 3.805-12.599-.15-1.168-1.474-2.134-3.693-2.647-6.083-.357-1.657-1.272-2.528-1.949-1.853-.568.566-.46 3.942.235 7.323.3 1.464 1.274 4.458 2.162 6.652.888 2.194 1.615 4.08 1.615 4.19 0 .11-2.621.2-5.825.2-5.413 0-5.814-.037-5.67-.506zm104.73.262c0-.134.52-1.485 1.156-3.002 1.496-3.573 2.514-7.406 2.943-11.09.308-2.647.293-3.025-.147-3.695-.914-1.392-1.582-.8-2.088 1.853-.538 2.812-1.336 4.355-3.046 5.89-3.918 3.513-9.491 2.723-12.744-1.808-3.471-4.836-2.908-11.765 1.529-18.795 1.729-2.74 3.806-5.405 9.9-12.703 2.973-3.56 6.152-7.488 7.064-8.728.912-1.24 1.75-2.228 1.863-2.194.112.034 1.357 1.755 2.766 3.825 1.409 2.07 4.73 6.567 7.38 9.996 2.65 3.428 5.554 7.324 6.452 8.659 3.232 4.802 5.045 9.422 5.055 12.883.018 6.409-4.45 11.732-9.84 11.723-4.21-.01-7.213-2.882-8.571-8.205-.621-2.432-.872-2.854-1.7-2.854-.977 0-1.096.65-.744 4.07.427 4.155.933 5.941 3.24 11.442.613 1.462 1.114 2.729 1.114 2.817 0 .088-2.606.159-5.79.159-3.186 0-5.792-.11-5.792-.244zm-136.62-9.795c.054-.12.44-.866.858-1.66.89-1.694 1.237-3.078.977-3.894-.27-.85-.94-.72-2.212.427-1.535 1.383-2.823 1.392-4.19.029-.86-.859-.984-1.167-.984-2.445 0-1.873.8-3.984 2.655-7.014a669.658 669.658 0 0 0 3.076-5.086c.88-1.47 1.676-2.67 1.77-2.665.38.017 6.569 10.348 7.089 11.833.774 2.21.484 4.089-.833 5.403-1.328 1.325-2.516 1.305-3.922-.065-.744-.725-1.2-.964-1.568-.823-.437.168-.492.426-.35 1.624.093.784.5 2.016.904 2.737.404.72.734 1.425.734 1.564 0 .138-.923.252-2.05.252-1.129 0-2.008-.097-1.954-.217zm-.59-28.404c-2.944-.577-5.02-2.212-5.974-4.703-.62-1.62-.437-2.207.687-2.207.698 0 .983.226 1.596 1.269 1.76 2.998 4.4 3.958 7.97 2.9 4.963-1.47 6.978-7.913 4.203-13.44-.708-1.41-2.333-3.015-3.504-3.459-1.193-.452-3.905-.301-5.21.29-.664.3-1.712 1.065-2.329 1.7-.948.975-1.209 1.105-1.688.844-.312-.17-.636-.411-.72-.535-.164-.245.762-11.099 1.001-11.72.116-.3 1.513-.382 6.526-.382h6.38v2.311h-5.47c-4.722 0-5.496.063-5.647.457-.295.765-.196 4.985.12 5.18.163.101.913-.053 1.665-.343 1.882-.725 4.729-.652 6.595.17 1.966.864 3.975 2.916 4.943 5.048 1.139 2.508 1.305 6.21.413 9.186-1.268 4.233-3.46 6.432-7.268 7.296-2.172.493-2.436.502-4.29.138z" fill="#161616"/><path d="M.01 157.44V0h217.74v314.86l-4.704-.03c-4.69-.03-4.698-.031-2.5-.365 1.213-.184 2.451-.521 2.752-.75 1.49-1.13 2.545-2.305 3.179-3.541l.699-1.365V6.269l-.787-1.442c-.793-1.454-2.464-3.106-3.9-3.857-.666-.348-15.704-.408-103.6-.412-102.55 0-102.82 0-103.96.578-1.461.744-3.021 2.3-3.766 3.756C.58 6.03.58 6.29.583 157.602l.002 151.57.824 1.466c1.255 2.234 3.11 3.495 5.645 3.843 1.948.266 1.8.286-2.489.325l-4.559.042v-157.44zm188.21 131.73v-.867h5.347c6.274 0 5.946.19 5.946-3.456 0-2.706-.211-2.935-2.034-2.208-1.814.724-5.017.614-6.847-.236-1.875-.871-3.611-2.635-4.62-4.692-1.04-2.121-1.302-6.34-.553-8.925 1.522-5.261 4.754-7.787 9.886-7.726 3.399.041 5.985 1.564 7.247 4.266.904 1.936.874 2.178-.27 2.178-.83 0-1.085-.196-1.954-1.508-1.231-1.858-2.38-2.545-4.588-2.745-2.676-.242-4.637.504-6.41 2.44-1.85 2.02-2.45 3.905-2.224 6.999.38 5.21 3.07 8.4 7.07 8.385 2.022-.01 3.855-.765 5.339-2.205.794-.77 1.206-.977 1.665-.831.736.233.738.285.173 6.365-.237 2.542-.43 4.85-.431 5.127 0 .466-.498.506-6.372.506h-6.37v-.867zM51.57 272.092c-1.329-1.75-3.933-4.961-5.786-7.135-9.528-11.178-12.362-15.43-13.662-20.498-1.705-6.651.837-12.849 6.078-14.824 3.821-1.44 8.135.404 10.145 4.335.314.613.713 2.002.886 3.086.174 1.084.46 2.145.637 2.358.48.575 1.464.311 1.896-.509.99-1.883-1.052-11.574-3.413-16.19-.315-.616-.572-1.255-.572-1.42 0-.197 1.925-.3 5.628-.3h5.629l-1.281 3.05c-2.229 5.307-3.316 9.805-3.316 13.715 0 1.118.12 1.478.579 1.723.892.476 1.671-.11 2.02-1.522 1.05-4.235 1.758-5.671 3.686-7.47 1.745-1.63 3.035-2.08 5.54-1.939 6.743.38 10.849 8.055 8.47 15.832-1.187 3.88-3.456 7.632-8.83 14.598-6.514 8.446-7.426 9.67-9.57 12.855a312.084 312.084 0 0 1-2.293 3.38c-.03.032-1.143-1.375-2.472-3.125zm105.63 1.136c-.857-1.156-3.617-4.575-6.134-7.596l-6.262-7.516c-3.958-4.75-7.044-10.048-7.99-13.722-.722-2.8-.485-7.114.51-9.296.952-2.085 2.828-4.12 4.697-5.094 1.987-1.037 5.19-1.086 7.046-.108 2.799 1.476 4.483 3.954 4.937 7.261.27 1.98.823 2.774 1.726 2.488.933-.295 1.192-1.53.888-4.242-.488-4.366-1.606-8.396-3.537-12.748l-.737-1.66h5.63c3.097 0 5.631.084 5.631.188 0 .103-.66 1.809-1.468 3.79-1.918 4.702-2.58 7.331-2.788 11.083-.166 2.98-.151 3.083.485 3.423.986.526 1.624-.302 2.317-3.007 1.35-5.265 4.203-7.967 8.414-7.967 3.619 0 6.668 2.168 8.478 6.026.734 1.565.917 2.37 1.018 4.48.155 3.226-.25 5.103-1.816 8.433-1.506 3.201-3.85 6.714-8.276 12.404-4.827 6.205-8.11 10.653-9.768 13.236l-1.443 2.246-1.558-2.103zm36.201-19.662c-.34-.675-1.6-2.777-2.797-4.672-2.703-4.273-3.545-6.273-3.545-8.416 0-1.402.113-1.729.847-2.461 1.257-1.255 2.832-1.19 4.116.167.914.967 1.783 1.285 2.102.77.082-.132.513-.188.958-.123.615.089 1.012-.095 1.66-.77 1.505-1.572 3.72-1.072 4.517 1.02.463 1.215.31 3.627-.319 5.01-.738 1.623-6.425 10.692-6.708 10.698-.117 0-.49-.547-.831-1.223zm.91-17.003c-.01-.255-.384-1.198-.837-2.094l-.824-1.63h3.656l-.612 1.034a14.75 14.75 0 0 0-.99 2.094c-.21.584-.386.852-.393.596zm-94.12-52.842c0-.164.31-.911.689-1.66 1.667-3.3 3.198-8.982 3.555-13.205.2-2.351-.262-3.613-1.32-3.613-.791 0-1.093.536-1.31 2.327-.66 5.453-5.464 9.26-10.216 8.096-5.472-1.34-8.656-7.699-7.187-14.353 1.185-5.37 4.072-9.836 13.517-20.914 2.535-2.974 6.325-7.713 7.932-9.92l.592-.814 1.989 2.984c1.872 2.809 6.508 9.04 9.85 13.239 5.236 6.578 8.515 12.318 9.325 16.322.94 4.652-.347 9.039-3.497 11.91-1.844 1.682-3.61 2.39-5.945 2.386-4.078-.01-7.329-3.283-8.409-8.473-.325-1.561-1.085-2.79-1.726-2.79-2.215 0-1.14 7.873 2.129 15.59.57 1.346 1.036 2.613 1.036 2.817 0 .287-1.224.37-5.502.37-3.593 0-5.502-.104-5.502-.3zM47.86 89.774c.079-.198.628-1.526 1.221-2.95 1.347-3.232 2.31-6.979 2.772-10.775.319-2.627.306-3.004-.129-3.665-.536-.816-1.373-.958-1.902-.323-.19.228-.452 1.173-.583 2.101-.487 3.435-1.998 5.668-4.75 7.02-3.949 1.94-7.796.88-10.673-2.94-1.654-2.195-2.366-4.86-2.176-8.143.323-5.613 2.84-10.298 10.33-19.232 4.82-5.75 8.651-10.429 10.346-12.636.902-1.175 1.734-2.034 1.849-1.91.115.125 1.175 1.657 2.356 3.405 1.18 1.747 3.7 5.192 5.6 7.655C70.505 58.25 72.2 60.758 74.034 65c2.266 5.246 1.767 10.515-1.361 14.373-1.923 2.37-4.015 3.394-6.94 3.394-1.858 0-2.371-.117-3.552-.81-1.966-1.152-3.53-3.258-4.287-5.77-1.074-3.564-1.267-4.036-1.789-4.364-.37-.233-.643-.232-1.013.01-.43.276-.5.738-.459 3.048.062 3.478.851 6.788 2.7 11.32.797 1.958 1.45 3.645 1.45 3.749 0 .103-2.489.188-5.532.188-4.31 0-5.501-.08-5.39-.361zm105.19-1.123c1.797-3.538 3.552-10.318 3.666-14.162.063-2.125-.293-2.841-1.413-2.841-.773 0-1.26.896-1.26 2.319 0 1.489-1.189 4.093-2.514 5.507-2.582 2.753-6.115 3.392-9.517 1.72-2.12-1.04-3.474-2.512-4.682-5.09-.679-1.446-.82-2.17-.903-4.655-.143-4.262.941-7.633 3.933-12.223 2.105-3.228 3.115-4.521 9.514-12.18 2.966-3.55 6.127-7.455 7.025-8.68.898-1.224 1.713-2.231 1.812-2.238.099-.01.932 1.172 1.852 2.62.92 1.448 4.25 5.979 7.4 10.068C178.51 62.512 180.34 66.06 180.041 72.23c-.112 2.315-.275 3.045-1.03 4.622-1.064 2.218-2.842 4.104-4.844 5.136-1.957 1.01-5.215 1.08-6.95.152-2.514-1.348-4.506-4.426-5.325-8.23-.39-1.82-.83-2.352-1.825-2.211-.653.092-.667.162-.633 3.272.043 4.05.823 7.104 3.292 12.893.48 1.124.872 2.095.872 2.158 0 .063-2.543.114-5.651.114h-5.651l.754-1.484zM16.44 79.375c.312-.517.734-1.458.938-2.092l.37-1.153.537 1.575c.295.866.665 1.703.823 1.86.58.58.246.749-1.475.749h-1.76l.567-.94zm-4.257-3.471c-2.902-1.488-2.453-5.004 1.41-11.045 1.016-1.589 2.29-3.701 2.83-4.694.871-1.6 1.523-2.27 1.523-1.563 0 .133 1.127 1.986 2.504 4.116 3.624 5.607 4.443 7.298 4.444 9.175 0 1.883-.67 3.394-1.76 3.956-1.192.615-1.588.532-2.84-.597-.776-.7-1.389-1.008-1.956-.987-.454.017-1.106-.056-1.45-.163-.482-.152-.77 0-1.275.684-.359.485-1.043 1.016-1.52 1.182-1.069.372-1.06.372-1.91-.064zm1.752-24.434c-.852-.304-1.894-.808-2.316-1.12-1.149-.85-2.351-2.695-2.55-3.912-.17-1.047-.15-1.078.704-1.078.735 0 1.004.211 1.637 1.29.417.71 1.234 1.652 1.815 2.094.902.686 1.382.819 3.276.905 2.733.124 4.682-.604 6.249-2.334 3.133-3.46 3.034-9.68-.212-13.369-2.595-2.949-7.121-2.827-10.128.273-.959.989-1.103 1.048-1.687.694-.553-.334-.618-.562-.48-1.686.087-.715.299-3.055.47-5.2.171-2.145.373-4.192.448-4.55l.137-.65h12.73v1.734h-5.285c-2.906 0-5.435.1-5.619.216-.184.118-.426 1.383-.539 2.822-.26 3.321-.102 3.504 2.325 2.682 5.56-1.882 11.055 1.876 12.048 8.241.512 3.282-.518 7.527-2.448 10.092-2.057 2.735-7.095 4.093-10.574 2.852z"/></svg>